<?xml version="1.0" encoding="UTF-8" standalone="no"?>
<!-- Created with Inkscape (http://www.inkscape.org/) -->

<svg
   width="300"
   height="300"
   viewBox="0 0 79.374998 79.375"
   version="1.1"
   id="svg5"
   sodipodi:docname="default.svg"
   inkscape:version="1.2 (dc2aedaf03, 2022-05-15)"
   xmlns:inkscape="http://www.inkscape.org/namespaces/inkscape"
   xmlns:sodipodi="http://sodipodi.sourceforge.net/DTD/sodipodi-0.dtd"
   xmlns="http://www.w3.org/2000/svg"
   xmlns:svg="http://www.w3.org/2000/svg">
  <sodipodi:namedview
     id="namedview28842"
     pagecolor="#505050"
     bordercolor="#eeeeee"
     borderopacity="1"
     inkscape:showpageshadow="0"
     inkscape:pageopacity="0"
     inkscape:pagecheckerboard="0"
     inkscape:deskcolor="#505050"
     showgrid="false"
     inkscape:zoom="2.0529667"
     inkscape:cx="161.23009"
     inkscape:cy="77.205344"
     inkscape:window-width="1276"
     inkscape:window-height="1076"
     inkscape:window-x="1280"
     inkscape:window-y="0"
     inkscape:window-maximized="1"
     inkscape:current-layer="g9327" />
  <defs
     id="defs2" />
  <g
     id="layer1">
    <g
       id="g9327"
       transform="rotate(9.606259,553.0732,-276.36332)">
      <path
         id="path181"
         style="fill:#000000;stroke-width:0.874001"
         sodipodi:type="inkscape:offset"
         inkscape:radius="0.46521452"
         inkscape:original="M 95.0625 89.488281 C 94.498205 89.666108 94.128021 90.116749 93.75 90.542969 C 93.443237 90.882715 93.128842 91.223644 92.734375 91.462891 C 92.45089 91.625777 92.217759 91.866276 91.933594 92.027344 C 91.852394 92.075114 91.763692 92.108626 91.677734 92.148438 C 91.741004 92.168148 91.334991 92.249829 91.443359 92.230469 C 91.227705 92.31943 91.169363 92.299416 91.439453 92.410156 L 91.396484 92.373047 C 91.4921 92.550275 91.416627 92.515003 91.378906 92.523438 L 91.236328 92.59375 C 91.983093 94.131196 92.855901 95.619599 93.427734 97.236328 C 93.698281 98.001238 93.695408 98.105908 93.873047 98.900391 C 94.233433 100.48469 94.455296 102.09043 94.615234 103.70508 C 94.694384 104.45101 94.690387 105.19898 94.716797 105.94727 C 94.727197 106.13954 94.709892 106.3359 94.732422 106.52734 C 94.72772 106.4532 94.730931 106.55365 94.732422 106.60156 C 94.758234 106.67312 94.803172 106.73674 94.845703 106.80078 C 94.854473 106.73564 94.860817 106.72911 94.869141 106.68164 C 94.873314 106.69409 94.880054 106.70468 94.884766 106.7168 C 94.880034 106.70061 94.875947 106.68413 94.871094 106.66797 C 94.879357 106.62525 94.891709 106.50607 94.896484 106.54688 C 94.91041 106.66585 94.907958 106.71961 94.910156 106.77148 C 94.910434 106.77201 94.909876 106.77291 94.910156 106.77344 C 94.910634 106.78411 94.910947 106.81308 94.912109 106.82031 C 94.908852 106.80671 94.905942 106.79283 94.902344 106.7793 C 94.898859 106.8041 94.861769 106.79113 94.859375 106.82617 C 94.874173 106.84803 94.883741 106.87287 94.898438 106.89453 C 94.904538 106.90353 94.933511 106.90258 94.931641 106.89258 C 94.928739 106.87599 94.921599 106.86018 94.917969 106.84375 C 94.919238 106.84671 94.931758 106.82676 94.933594 106.82812 C 94.940503 106.83698 94.939256 106.85131 94.947266 106.85938 C 94.982276 106.89458 95.043204 106.83637 95.091797 106.82617 C 95.295982 106.78307 95.493103 106.73995 95.693359 106.67969 C 96.047942 106.52137 96.410012 106.41203 96.796875 106.37695 C 96.889025 106.37095 96.977145 106.33769 97.0625 106.30859 C 97.298207 106.25329 97.209469 105.75947 97.195312 105.61133 C 97.150622 105.14367 97.12834 104.9708 97.074219 104.48633 C 96.839923 102.4271 96.656855 100.36146 96.4375 98.300781 C 96.3478 97.163988 96.074699 96.056314 95.896484 94.933594 C 95.766674 94.115815 95.737895 93.760522 95.648438 92.941406 C 95.555537 92.08948 95.537238 91.233359 95.480469 90.378906 C 95.455039 90.250183 95.467983 90.121717 95.470703 89.992188 C 95.489543 89.856932 95.491146 89.858826 95.509766 89.783203 C 95.561126 89.494069 95.438481 89.600586 95.0625 89.488281 z M 94.859375 106.82617 C 94.853956 106.81817 94.851054 106.80884 94.845703 106.80078 C 94.841526 106.83181 94.837828 106.83174 94.833984 106.85742 C 94.835394 106.83051 94.85786 106.84835 94.859375 106.82617 z M 94.833984 106.85742 C 94.832239 106.89073 94.802807 106.85311 94.800781 106.89453 C 94.800252 106.90353 94.817292 106.89479 94.826172 106.89453 C 94.828449 106.88215 94.831464 106.87426 94.833984 106.85742 z M 94.902344 106.7793 C 94.902877 106.7755 94.90763 106.77507 94.908203 106.77148 C 94.89899 106.75405 94.892052 106.73553 94.884766 106.7168 C 94.890824 106.73752 94.896801 106.75846 94.902344 106.7793 z M 94.732422 106.60156 C 94.730457 106.59611 94.726409 106.59145 94.724609 106.58594 C 94.714449 106.55478 94.875538 106.47382 94.734375 106.68359 C 94.733482 106.65926 94.734071 106.65453 94.732422 106.60156 z M 95.082031 89.957031 C 95.081152 89.966353 95.078553 89.974873 95.078125 89.984375 C 95.075425 90.12476 95.063871 90.264634 95.087891 90.404297 C 95.145121 91.264222 95.155569 92.126955 95.25 92.984375 C 95.34206 93.849335 95.362712 94.140785 95.496094 95.005859 C 95.667872 96.119932 95.935846 97.218806 96.025391 98.345703 C 96.243165 100.40757 96.418192 102.47351 96.658203 104.5332 C 96.741413 105.25697 96.713436 104.98204 96.783203 105.65039 C 96.795159 105.76492 96.74963 105.90268 96.818359 105.99414 C 96.800075 105.99902 96.784419 106.0103 96.763672 106.01172 C 96.352575 106.05042 95.962941 106.15804 95.587891 106.33203 C 95.391682 106.39283 95.40577 106.39326 95.203125 106.4375 C 95.065711 106.4675 95.11931 106.58483 95.0625 106.59766 C 95.060418 106.58532 95.060956 106.57621 95.052734 106.54102 C 95.051134 106.53502 95.056187 106.55415 95.054688 106.56055 C 95.049245 106.58435 95.030768 106.60754 95.033203 106.63086 C 95.0428 106.64635 95.045268 106.59579 95.052734 106.54102 C 95.057586 106.50542 95.071313 106.4585 95.064453 106.48242 C 95.036063 106.30257 95.064301 106.11647 95.046875 105.93555 C 95.015635 105.18068 95.019056 104.42416 94.935547 103.67188 C 94.765417 102.04588 94.529123 100.43063 94.160156 98.835938 C 93.974639 98.031486 93.970645 97.906177 93.693359 97.132812 C 93.12411 95.545152 92.269691 94.080142 91.525391 92.572266 C 91.631391 92.563446 91.736022 92.564193 91.845703 92.509766 C 91.943303 92.464566 92.045258 92.432083 92.136719 92.375 C 92.419683 92.205497 92.665604 91.981279 92.945312 91.806641 C 93.370508 91.542073 93.722026 91.181331 94.052734 90.808594 C 94.35172 90.471316 94.663811 90.140058 95.082031 89.957031 z "
         d="m 95.195312,89.042969 a 0.46526104,0.46526104 0 0 0 -0.273437,0.002 c -0.721899,0.227493 -1.148113,0.76869 -1.517578,1.185547 -0.304551,0.337296 -0.591483,0.639522 -0.912109,0.833984 -0.352387,0.204883 -0.583212,0.443022 -0.78711,0.558594 a 0.46526104,0.46526104 0 0 0 -0.0078,0.0039 c -0.03554,0.02091 -0.108477,0.05034 -0.214844,0.09961 a 0.46526104,0.46526104 0 0 0 -0.0098,0.01563 c -0.0105,0.0031 -0.02132,0.0057 -0.04492,0.01172 -0.03396,0.0087 -0.06851,0.01542 -0.09375,0.02148 -0.0063,0.0015 -0.01144,0.0038 -0.01953,0.0059 -0.004,0.001 -0.0079,0.0011 -0.01758,0.0039 -0.0049,0.0014 -0.02317,0.0077 -0.02344,0.0078 -1.32e-4,4.5e-5 -0.02921,0.01168 -0.0293,0.01172 -3e-5,1.2e-5 -0.01606,0.0084 -0.0293,0.01562 -0.02252,0.0085 -0.04353,0.01686 -0.07031,0.02734 -0.02305,0.009 -0.04795,0.01749 -0.09375,0.04297 -0.0458,0.02548 -0.146993,0.05286 -0.224609,0.251953 -0.03881,0.09955 -0.03886,0.242468 -0.0039,0.337891 0.02022,0.05521 0.04422,0.07421 0.06836,0.105469 a 0.46526104,0.46526104 0 0 0 -0.07227,0.210937 c 0.757452,1.559449 1.617782,3.032697 2.169922,4.59375 0.265753,0.751356 0.25187,0.807311 0.431641,1.611328 a 0.46526104,0.46526104 0 0 0 0,0.002 c 0.354466,1.558274 0.573661,3.143334 0.732422,4.746094 a 0.46526104,0.46526104 0 0 0 0,0.004 c 0.07553,0.71184 0.07276,1.44812 0.09961,2.20898 a 0.46526104,0.46526104 0 0 0 0,0.01 c 0.0065,0.12048 0.0019,0.30414 0.01367,0.49804 -1.6e-4,0.002 5.2e-5,0.005 0,0.006 -9.1e-4,0.0167 2.6e-5,0.0221 0,0.0273 -5.1e-5,0.0105 -1.33e-4,0.0162 0,0.0234 5.3e-4,0.0289 0.0012,0.0642 0.002,0.0879 a 0.46526104,0.46526104 0 0 0 0.02734,0.14454 c 0.01675,0.0464 0.0323,0.0559 0.05078,0.0918 -2.87e-4,0.005 -0.0096,0.0155 -0.0098,0.0195 5.65e-4,0.008 0.01162,0.12849 0.01172,0.12891 9.8e-5,4.3e-4 0.07205,0.1618 0.07227,0.16211 2.16e-4,3.1e-4 0.13249,0.1287 0.132812,0.12891 3.23e-4,2e-4 0.130444,0.0565 0.13086,0.0566 4.15e-4,1.1e-4 0.09325,0.0156 0.09375,0.0156 4.96e-4,3e-5 0.04428,0.001 0.06055,0 0.01914,-0.001 0.02747,-0.004 0.03906,-0.006 0.01964,0.001 0.04242,0.009 0.0625,0.008 0.05204,-0.002 0.107444,-0.004 0.207031,-0.0566 0.0071,-0.004 0.01308,-0.009 0.02344,-0.0156 0.0072,-0.003 0.02725,-0.005 0.0332,-0.008 0.07099,-0.0316 0.09595,-0.0273 -0.01563,-0.004 0.206335,-0.0435 0.418343,-0.0894 0.640625,-0.15625 a 0.46526104,0.46526104 0 0 0 0.05469,-0.0215 c 0.319741,-0.14277 0.630756,-0.23409 0.957032,-0.26368 l -0.01367,0.002 c 0.164678,-0.0107 0.268619,-0.0563 0.345703,-0.084 0.212158,-0.0525 0.377268,-0.2325 0.439453,-0.375 0.06278,-0.14386 0.0722,-0.26374 0.07617,-0.37109 0.0079,-0.21471 -0.02632,-0.41414 -0.0293,-0.44531 -0.04505,-0.47143 -0.06718,-0.64826 -0.121094,-1.13086 a 0.46526104,0.46526104 0 0 0 0,-0.002 c -0.233422,-2.05155 -0.416783,-4.11551 -0.636718,-6.181637 v 0.01172 C 96.80673,97.076686 96.529575,95.958161 96.355469,94.861328 96.22726,94.05364 96.201192,93.713469 96.111328,92.890625 96.021355,92.065544 96.003006,91.216021 95.945312,90.347656 a 0.46526104,0.46526104 0 0 0 -0.0078,-0.05859 c -0.0073,-0.03702 -0.0048,-0.130631 -0.002,-0.255859 0.01,-0.07255 0.0078,-0.06731 0.02539,-0.138672 a 0.46526104,0.46526104 0 0 0 0.0078,-0.0293 c 0.01756,-0.09883 0.04423,-0.200549 -0.0098,-0.373046 -0.05399,-0.172498 -0.257484,-0.328968 -0.367187,-0.365235 -0.219407,-0.07253 -0.260432,-0.04335 -0.396485,-0.08398 z m -0.542968,1.861328 c 0.03594,0.698672 0.05465,1.403415 0.134765,2.130859 0.09145,0.859454 0.115449,1.168359 0.25,2.041016 0.175862,1.140555 0.43976,2.228996 0.525391,3.30664 a 0.46526104,0.46526104 0 0 0 0,0.01172 c 0.217099,2.055479 0.391672,4.123969 0.632812,6.193359 0.0798,0.69402 0.06073,0.49258 0.121094,1.07031 -0.274248,0.0554 -0.548817,0.11002 -0.80664,0.22071 -0.02905,-0.72889 -0.02553,-1.48165 -0.111328,-2.25586 v -0.002 c -0.171437,-1.63798 -0.410617,-3.27184 -0.785157,-4.890621 -0.183468,-0.795569 -0.200226,-0.966849 -0.482422,-1.753907 -0.523985,-1.461418 -1.260195,-2.791767 -1.935547,-4.117187 0.05875,-0.02437 0.09838,-0.03617 0.179688,-0.08594 0.336179,-0.201381 0.584527,-0.42749 0.816406,-0.572266 0.488601,-0.304021 0.868558,-0.700294 1.208985,-1.083984 0.08496,-0.09584 0.169618,-0.129113 0.251953,-0.212891 z M 91.46875,91.75 a 0.46526104,0.46526104 0 0 0 -0.146484,0.246094 l -0.02734,-0.0918 c 0.0138,-0.02101 0.02746,-0.04153 0.03906,-0.05469 0.01815,-0.02058 0.03346,-0.03555 0.04687,-0.04687 0.08484,-0.07162 0.08242,-0.05538 0.08789,-0.05273 z m 5.230469,13.79492 c -0.16576,0.0377 -0.0042,-0.002 0.02148,0.004 -0.0089,8.4e-4 -0.01646,0.007 -0.02539,0.008 z m -1.517578,0.84375 0.160156,0.01 0.07617,0.0527 c -0.06336,0.0155 -0.111108,0.0258 -0.205078,0.0488 a 0.46526104,0.46526104 0 0 0 -0.01563,-0.008 c -5.22e-4,-0.008 -0.0012,-0.0149 -0.002,-0.0234 -4.47e-4,-0.005 -0.0023,-0.0106 -0.0039,-0.0234 -7.96e-4,-0.006 -0.0039,-0.0329 -0.0039,-0.0332 -1.2e-5,-6e-5 -0.003,-0.0122 -0.0059,-0.0234 z m -0.576172,0.0762 c -0.0023,0.005 -0.0034,0.0207 -0.0059,0.0273 -9.95e-4,4.1e-4 -9.54e-4,0.002 -0.002,0.002 l 0.002,0.002 c -7.13e-4,0.002 -0.0012,0.006 -0.002,0.008 a 0.46526104,0.46526104 0 0 0 -0.002,0.004 c 8.23e-4,-0.006 0.0012,-0.008 0.002,-0.0137 0.0015,-0.0112 0.0013,-0.0229 0.002,-0.0273 5.94e-4,-2.8e-4 0.0049,-0.002 0.0059,-0.002 z m -0.02539,0.0254 0.01563,0.004 c -0.0108,0.005 -0.01435,0.004 -0.02539,0.01 0.0037,-0.004 0.0061,-0.009 0.0098,-0.0137 z m -0.105469,0.082 c -0.02339,0.0272 -0.01862,0.0436 -0.0332,0.0703 -0.0012,-0.006 -0.0013,-0.01 -0.002,-0.0137 0.01598,-0.0244 0.03369,-0.0545 0.03516,-0.0566 z m -0.03906,0.0625 c 6.24e-4,0.007 0.0015,0.0117 0.002,0.0176 -0.01128,0.0221 -0.02061,0.038 -0.02734,0.0586 a 0.46526104,0.46526104 0 0 0 -0.01563,0.0156 c 0.005,-0.0173 0.0027,-0.0241 0.01172,-0.0449 0.0063,-0.0146 0.01595,-0.0262 0.0293,-0.0469 z m -0.06836,0.0781 a 0.46526104,0.46526104 0 0 0 0.01758,0.0254 c -0.0017,0.007 -0.0038,0.0121 -0.0059,0.0215 -0.0016,-0.003 -0.0063,-0.003 -0.0078,-0.006 -0.0097,-0.0203 0.0023,-0.0226 -0.0039,-0.041 z m 0.02344,0.0332 a 0.46526104,0.46526104 0 0 0 0.002,0.002 c -9.1e-4,0.004 -0.0051,0.008 -0.0059,0.0117 8.73e-4,-0.005 0.0028,-0.009 0.0039,-0.0137 z m 0.455078,0.60743 c 0.0077,0.001 0.01598,0.003 0.02344,0.004 -0.0093,0.002 0.03388,1.1e-4 -0.0293,0.002 a 0.46526104,0.46526104 0 0 0 0.0059,-0.006 z" />
      <path
         id="path183"
         style="fill:#000000;stroke-width:0.874001"
         sodipodi:type="inkscape:offset"
         inkscape:radius="0.92640561"
         inkscape:original="M 108.78906 103.92773 C 108.10555 103.84513 107.41428 103.88451 106.73047 103.94141 C 106.16074 104.00101 105.60357 104.14831 105.06836 104.34961 C 104.57843 104.54916 104.07731 104.71631 103.57617 104.88477 C 103.19586 105.02797 102.81004 105.13957 102.41406 105.23242 C 102.01649 105.31112 101.61692 105.38809 101.2168 105.45312 C 100.75761 105.53493 100.29698 105.55207 99.832031 105.55859 C 99.634392 105.57999 99.445786 105.57925 99.25 105.56055 C 99.046837 105.54795 98.851435 105.49019 98.650391 105.46289 C 98.491927 105.43169 98.327261 105.42673 98.166016 105.42773 C 97.940676 105.43273 97.720356 105.47981 97.503906 105.53906 C 97.348153 105.57296 97.208492 105.64647 97.0625 105.70508 C 97.0699 105.71408 96.963597 105.72822 96.966797 105.72852 C 96.975239 105.72951 96.983706 105.72827 96.992188 105.72852 C 96.78368 105.88043 97.166162 105.82086 96.851562 105.86523 L 96.818359 105.91016 C 96.821859 105.99706 96.818528 106.16159 96.912109 106.20508 C 97.025166 106.23578 97.14254 106.19996 97.25 106.16406 C 97.378106 106.11166 97.501703 106.05098 97.638672 106.02148 C 97.810762 105.97258 97.988925 105.93955 98.167969 105.93555 C 98.305952 105.93551 98.446834 105.94015 98.582031 105.96875 C 98.790562 105.99655 98.9919 106.05771 99.203125 106.06641 C 99.41626 106.08391 99.625894 106.0828 99.839844 106.0625 C 100.32967 106.0555 100.81542 106.04002 101.29883 105.95117 C 101.71049 105.88237 102.12113 105.80357 102.5293 105.7168 C 102.93881 105.61623 103.33744 105.49502 103.73047 105.34375 C 104.23537 105.17149 104.74072 104.99866 105.23633 104.80078 C 105.72951 104.61907 106.2432 104.48876 106.76758 104.43945 C 107.41384 104.39865 108.0659 104.3598 108.71094 104.4375 C 109.48755 104.55948 110.27108 104.68059 110.99414 105.00586 C 112.24867 105.58561 113.47881 106.22506 114.64844 106.96289 C 115.88223 107.7756 117.0512 108.68505 118.07812 109.75195 C 119.28405 111.02379 120.42302 112.37808 121.03516 114.04688 C 121.70173 115.85093 122.3101 117.6826 122.68555 119.57227 C 123.04678 121.72803 123.29293 123.90849 123.36914 126.09375 C 123.50136 128.63222 123.76733 131.17126 123.5 133.71289 C 123.4057 134.57338 123.3558 135.15927 123.21484 135.99805 C 122.97608 137.41869 122.55645 138.80233 122.2207 140.20117 C 122.1454 140.47291 122.07717 140.74615 121.99414 141.01562 C 121.58675 142.33772 120.98662 143.59499 120.35938 144.82422 C 120.25454 144.98961 120.16222 145.16351 120.04492 145.32031 C 119.7578 145.70412 119.37216 146.07747 119.02539 146.40039 C 118.39668 146.98583 117.74731 147.56144 117.00977 148.00781 C 115.7052 148.73638 114.36541 149.41926 112.96289 149.93945 C 111.33012 150.46075 109.65436 150.97753 107.92773 151.00977 C 106.13623 150.95217 104.34573 150.84837 102.55469 150.77734 C 100.95738 150.67534 99.378414 150.42969 97.796875 150.18945 C 95.960064 149.90542 94.098717 149.61676 92.382812 148.86719 C 92.121878 148.72847 91.853831 148.60509 91.601562 148.45117 C 91.411923 148.33547 90.503607 147.65682 90.337891 147.53906 C 89.686444 147.07612 89.004203 146.66241 88.339844 146.21875 C 88.107604 146.05665 87.866521 145.90581 87.642578 145.73242 C 86.621951 144.94216 85.83531 143.91827 84.902344 143.03711 C 83.732695 142.0382 82.540116 141.05619 81.589844 139.83398 C 81.047099 139.09075 80.562445 138.32984 80.091797 137.53906 C 79.693874 136.87048 79.276233 136.2082 79 135.47656 C 78.351911 133.50331 77.914905 131.47319 77.84375 129.39062 C 77.83705 129.06588 77.819109 128.74079 77.824219 128.41602 C 77.852909 126.59429 78.272993 124.81013 78.738281 123.05859 C 79.004621 122.15546 79.285037 121.26458 79.658203 120.39844 C 79.908785 119.81683 80.166493 119.32159 80.439453 118.75 C 80.581084 118.45341 80.719726 118.15494 80.859375 117.85742 C 81.534431 116.36364 82.161037 114.8382 83.113281 113.49219 C 83.836572 112.45557 84.652009 111.48863 85.390625 110.46289 C 86.009546 109.66137 86.785641 109.01529 87.59375 108.41016 C 88.276327 107.91941 88.996342 107.51596 89.798828 107.25 C 90.383303 107.0174 90.978053 106.81647 91.601562 106.7168 C 92.063971 106.6467 92.533453 106.59653 93 106.6582 C 93.391824 106.7042 93.785639 106.75331 94.169922 106.84375 C 94.421441 106.91575 94.671842 106.99545 94.927734 107.05078 C 95.097472 107.07828 95.257531 107.10949 95.421875 107.16211 C 95.606053 107.1558 95.754923 107.11894 95.888672 107.1543 C 95.939728 107.06296 96.02658 106.97759 96.021484 106.875 C 96.017784 106.8006 95.513619 106.70792 95.421875 106.70508 C 95.436245 106.64788 95.071671 106.59755 95.005859 106.58594 C 94.772763 106.51904 94.542386 106.44235 94.310547 106.37109 C 93.900787 106.26534 93.479973 106.20965 93.060547 106.1582 C 92.548925 106.0878 92.032722 106.1393 91.525391 106.2168 C 90.863734 106.3215 90.233618 106.53317 89.613281 106.7793 C 88.773073 107.06064 88.016069 107.48641 87.300781 108.00195 C 86.451551 108.63411 85.645736 109.31705 84.994141 110.1543 C 84.248971 111.18552 83.431843 112.16215 82.703125 113.20508 C 81.734898 114.57743 81.090531 116.12972 80.404297 117.65234 C 80.265943 117.94783 80.130696 118.24457 79.990234 118.53906 C 79.704436 119.13825 79.471252 119.57923 79.208984 120.18945 C 78.827198 121.07777 78.538209 121.99051 78.263672 122.91602 C 77.869181 124.39633 77.514757 125.89397 77.382812 127.42383 C 77.306252 128.31153 77.334143 128.49868 77.351562 129.39844 C 77.424662 131.53711 77.867585 133.60191 78.53125 135.62891 C 78.813886 136.39778 79.254319 137.09063 79.669922 137.79102 C 80.09108 138.50077 80.218124 138.74963 80.6875 139.4375 C 80.847335 139.67174 81.020741 139.8976 81.1875 140.12695 C 82.155037 141.38552 83.379525 142.391 84.574219 143.41992 C 85.498533 144.31006 86.291368 145.32456 87.308594 146.11914 C 87.544766 146.30362 87.79847 146.46537 88.042969 146.63867 C 88.289986 146.80158 88.535537 146.96504 88.783203 147.12695 C 89.422846 147.54513 89.426369 147.53089 90.039062 147.9707 C 90.206017 148.09055 91.110229 148.76955 91.292969 148.88281 C 91.562931 149.05012 91.85027 149.18741 92.128906 149.33984 C 93.894399 150.13216 95.813981 150.44195 97.710938 150.74023 C 99.308452 150.98759 100.90215 151.24313 102.51562 151.35547 C 104.3128 151.43197 106.10865 151.54206 107.90625 151.60742 C 109.7031 151.58862 111.44724 151.05692 113.14648 150.51758 C 114.58989 149.98932 115.96691 149.28859 117.30664 148.53906 C 118.08136 148.06774 118.765 147.46418 119.42578 146.84766 C 119.78908 146.50867 120.19854 146.11235 120.5 145.71094 C 120.63453 145.53181 120.74213 145.33298 120.86328 145.14453 C 121.51297 143.8733 122.12722 142.57176 122.55078 141.20508 C 122.63748 140.92532 122.70799 140.63942 122.78711 140.35742 C 123.12887 138.94376 123.55578 137.54729 123.79883 136.11133 C 123.94771 135.23173 123.99235 134.68243 124.0918 133.77734 C 124.36754 131.20386 124.0944 128.6309 123.96094 126.06055 C 123.88224 123.85265 123.63737 121.64957 123.26367 119.47266 C 122.87219 117.54897 122.25478 115.68139 121.5625 113.84766 C 120.9139 112.11221 119.73151 110.70191 118.47266 109.37695 C 117.41538 108.28181 116.20854 107.35055 114.9375 106.51953 C 113.74625 105.76701 112.48965 105.12431 111.21094 104.53516 C 110.4432 104.19185 109.61409 104.05281 108.78906 103.92773 z M 95.888672 107.1543 C 95.884347 107.16203 95.880702 107.16988 95.876953 107.17773 C 95.878925 107.18167 95.88011 107.18553 95.882812 107.18945 C 95.89637 107.14332 95.916814 107.18843 95.927734 107.15234 C 95.916325 107.15012 95.899871 107.15726 95.888672 107.1543 z M 95.927734 107.15234 C 95.933434 107.15345 95.941497 107.15145 95.947266 107.15234 C 95.927984 107.18392 95.922114 107.16207 95.900391 107.20312 C 95.877821 107.24582 95.993001 107.23236 96.035156 107.25586 C 96.429777 107.47575 96.860373 107.77586 97.226562 108.01758 L 97.466797 107.66406 C 97.134203 107.44396 96.631042 107.097 96.257812 106.88672 C 96.211257 106.86049 96.223581 106.95381 96.191406 106.93945 C 96.148198 106.91002 96.075696 106.99865 96.001953 107.09375 C 95.986556 107.12803 95.945457 107.09378 95.927734 107.15234 z M 95.882812 107.18945 C 95.877631 107.20708 95.870936 107.18396 95.865234 107.20312 C 95.855934 107.23443 95.914324 107.30713 95.927734 107.27734 C 95.941374 107.24706 95.903175 107.21905 95.882812 107.18945 z "
         d="m 108.90039,103.00781 c -0.79219,-0.0957 -1.54607,-0.0485 -2.24609,0.01 a 0.92649825,0.92649825 0 0 0 -0.0195,0.002 c -0.66467,0.0695 -1.29846,0.23943 -1.89258,0.46289 a 0.92649825,0.92649825 0 0 0 -0.0234,0.01 c -0.45292,0.18447 -0.93499,0.34475 -1.4375,0.51367 a 0.92649825,0.92649825 0 0 0 -0.0312,0.0117 c -0.33549,0.12632 -0.68131,0.22678 -1.04688,0.3125 -0.3836,0.0758 -0.76275,0.14852 -1.13476,0.20898 a 0.92649825,0.92649825 0 0 0 -0.0137,0.002 c -0.37587,0.067 -0.78556,0.0855 -1.236331,0.0918 a 0.92649825,0.92649825 0 0 0 -0.08594,0.004 c -0.132656,0.0144 -0.252499,0.0155 -0.394531,0.002 a 0.92649825,0.92649825 0 0 0 -0.03125,-0.002 c -0.05849,-0.004 -0.234874,-0.0454 -0.476563,-0.082 -0.259557,-0.0511 -0.485769,-0.0539 -0.669922,-0.0527 a 0.92649825,0.92649825 0 0 0 -0.01563,0 c -0.331123,0.007 -0.613742,0.0742 -0.859375,0.14063 -0.255246,0.0595 -0.397587,0.13245 -0.492187,0.17578 -0.0044,8.3e-4 -0.002,3.8e-4 -0.0098,0.002 -0.01311,0.003 -0.111221,0.0293 -0.111328,0.0293 -5.4e-5,2e-5 -0.300781,0.16797 -0.300781,0.16797 0,0 0.0019,0.0318 0.002,0.0332 -0.05121,0.0411 -0.100966,0.0726 -0.166016,0.15625 -0.008,0.0103 -0.009,0.0467 -0.01758,0.0586 a 0.92649825,0.92649825 0 0 0 -0.08203,0.0488 l -0.0332,0.0449 a 0.92649825,0.92649825 0 0 0 -0.152344,0.49414 c -0.05147,-0.0133 -0.12452,-0.0154 -0.166016,-0.0254 -0.01162,-0.004 -0.03625,-0.0232 -0.04687,-0.0273 -0.123996,-0.0484 -0.195533,-0.0625 -0.267578,-0.0781 -0.112322,-0.0244 -0.180785,-0.0321 -0.214844,-0.0371 -0.199182,-0.0581 -0.411606,-0.12763 -0.644531,-0.19922 a 0.92649825,0.92649825 0 0 0 -0.03906,-0.0117 c -0.477369,-0.1232 -0.933702,-0.18259 -1.355469,-0.23438 h -0.002 c -0.654616,-0.0897 -1.261866,-0.0218 -1.800781,0.0606 a 0.92649825,0.92649825 0 0 0 -0.0039,0.002 c -0.751,0.11884 -1.435516,0.35166 -2.078125,0.60547 -0.941184,0.31749 -1.777089,0.7898 -2.542968,1.3418 a 0.92649825,0.92649825 0 0 0 -0.01172,0.01 c -0.880422,0.65537 -1.755381,1.38947 -2.484375,2.32617 a 0.92649825,0.92649825 0 0 0 -0.01953,0.0254 c -0.719497,0.99569 -1.541356,1.97562 -2.300782,3.0625 -1.045393,1.48241 -1.704575,3.09278 -2.382812,4.59765 l 0.0039,-0.0117 c -0.141038,0.30122 -0.274319,0.59606 -0.410156,0.88085 -0.277539,0.58188 -0.519881,1.03912 -0.796875,1.6836 -0.405721,0.94401 -0.704703,1.89189 -0.982422,2.82812 a 0.92649825,0.92649825 0 0 0 -0.0059,0.0254 c -0.398974,1.49713 -0.770455,3.04623 -0.910157,4.66602 -0.07917,0.918 -0.0503,1.18915 -0.0332,2.07227 a 0.92649825,0.92649825 0 0 0 0,0.0137 c 0.07677,2.24601 0.540983,4.40031 1.22461,6.48828 a 0.92649825,0.92649825 0 0 0 0.01172,0.0312 c 0.327986,0.89224 0.805087,1.6305 1.210938,2.31445 0.414384,0.69834 0.564684,0.9858 1.048828,1.69531 0.179394,0.26291 0.358381,0.49663 0.515625,0.7129 a 0.92649825,0.92649825 0 0 0 0.01563,0.0195 c 1.052415,1.36898 2.331973,2.41027 3.515625,3.42968 l -0.03711,-0.0332 c 0.861644,0.82979 1.671977,1.87541 2.80664,2.76172 0.282793,0.2209 0.549825,0.38919 0.769531,0.54492 a 0.92649825,0.92649825 0 0 0 0.02539,0.0176 c 0.244811,0.16145 0.490233,0.32552 0.742188,0.49023 0.649009,0.42431 0.619025,0.38701 1.222656,0.82032 0.05383,0.0386 0.338843,0.25223 0.611328,0.45312 0.272485,0.2009 0.48089,0.36125 0.695313,0.49414 0.327268,0.20283 0.630055,0.34629 0.878906,0.48242 a 0.92649825,0.92649825 0 0 0 0.06641,0.0332 c 1.912047,0.85809 3.916953,1.17203 5.816406,1.4707 a 0.92649825,0.92649825 0 0 0 0.002,0 c 1.594242,0.24685 3.214401,0.50688 4.882811,0.62305 a 0.92649825,0.92649825 0 0 0 0.0254,0.002 c 1.78565,0.076 3.58353,0.18603 5.39649,0.25195 a 0.92649825,0.92649825 0 0 0 0.043,0 c 1.9733,-0.0206 3.80363,-0.59128 5.50976,-1.13281 a 0.92649825,0.92649825 0 0 0 0.0391,-0.0137 c 1.51314,-0.55378 2.93385,-1.27759 4.29493,-2.03906 a 0.92649825,0.92649825 0 0 0 0.0293,-0.0176 c 0.868,-0.52807 1.59623,-1.17648 2.26953,-1.80469 0.37278,-0.34783 0.81412,-0.76844 1.18164,-1.25781 0.18977,-0.25268 0.30656,-0.47405 0.40235,-0.62305 a 0.92649825,0.92649825 0 0 0 0.0449,-0.0781 c 0.65862,-1.2887 1.29875,-2.63817 1.74805,-4.08789 0.0975,-0.31457 0.17034,-0.60807 0.24414,-0.8711 a 0.92649825,0.92649825 0 0 0 0.008,-0.0332 c 0.3331,-1.37783 0.76904,-2.79408 1.02539,-4.3086 0.15439,-0.91212 0.20054,-1.49216 0.29883,-2.38671 a 0.92649825,0.92649825 0 0 0 0.002,-0.002 c 0.28903,-2.69751 0.005,-5.31741 -0.12695,-7.84961 -0.0804,-2.25434 -0.33102,-4.49781 -0.71094,-6.71093 a 0.92649825,0.92649825 0 0 0 -0.004,-0.0293 c -0.40582,-1.99415 -1.0413,-3.90685 -1.74219,-5.76367 -0.72024,-1.92713 -1.99972,-3.43222 -3.28516,-4.78516 a 0.92649825,0.92649825 0 0 0 -0.006,-0.004 c -1.11968,-1.15978 -2.3818,-2.13273 -3.69336,-2.99024 a 0.92649825,0.92649825 0 0 0 -0.0137,-0.008 c -1.23859,-0.78243 -2.53221,-1.44319 -3.83398,-2.04297 a 0.92649825,0.92649825 0 0 0 -0.008,-0.004 c -0.90954,-0.40672 -1.82742,-0.55119 -2.66211,-0.67773 a 0.92649825,0.92649825 0 0 0 -0.0273,-0.004 z m -12.197265,1.85352 a 0.92649825,0.92649825 0 0 0 -0.144531,0.16406 c 0.01745,-0.0101 0.04502,-0.0254 0.04492,-0.0254 -4.22e-4,1.9e-4 0.04231,-0.0145 0.07813,-0.0273 a 0.92649825,0.92649825 0 0 0 -0.158203,0.0937 0.92649825,0.92649825 0 0 0 -0.03711,0.041 l -0.0039,-0.0156 a 0.92649825,0.92649825 0 0 0 -0.101563,0.0586 c 8.24e-4,0.0117 0.0047,0.0552 0.0059,0.0723 a 0.92649825,0.92649825 0 0 0 -0.214844,0.24609 c 3.74e-4,-0.003 0.002,-0.0234 0.002,-0.0234 -2.3e-5,8e-5 0.0261,-0.0596 0.05273,-0.11914 0.03454,-0.0521 0.07035,-0.1055 0.07031,-0.10547 -3.4e-5,4e-5 0.03282,-0.0282 0.06445,-0.0566 a 0.92649825,0.92649825 0 0 0 -0.07813,0.0449 c 0.0073,-0.008 0.0469,-0.054 0.09375,-0.10742 3.35e-4,0.005 0.0034,0.0378 0.0039,0.0449 0.02534,-0.0228 0.05278,-0.0489 0.05273,-0.0488 -5.6e-5,4e-5 0.02697,-0.0142 0.04297,-0.0234 l -0.01953,-0.0625 c 0.003,-0.003 0.01761,-0.0215 0.01758,-0.0215 -3.73e-4,3.1e-4 0.09422,-0.0673 0.126953,-0.0859 0.07021,-0.04 0.07426,-0.0337 0.101563,-0.043 z m 11.878905,0.49609 c 0.77091,0.12123 1.46246,0.23827 2.03125,0.49414 1.22211,0.56507 2.41049,1.18241 3.53125,1.88867 1.19089,0.7849 2.30149,1.65263 3.26563,2.6543 1.17834,1.24321 2.21661,2.50063 2.75586,3.9707 a 0.92649825,0.92649825 0 0 0 0,0.002 c 0.65754,1.77961 1.24666,3.56021 1.60742,5.36914 0.35466,2.11915 0.59552,4.25729 0.66992,6.39062 a 0.92649825,0.92649825 0 0 0 0,0.0156 c 0.13391,2.57087 0.38869,5.05843 0.13476,7.47265 l 0.002,-0.004 c -0.0954,0.87057 -0.1441,1.42793 -0.2793,2.23242 -0.22565,1.34263 -0.63619,2.70625 -0.98047,4.14063 -0.0754,0.27397 -0.14062,0.52961 -0.21093,0.75781 -0.37783,1.22615 -0.94808,2.42741 -1.5625,3.63281 -0.10766,0.17303 -0.19043,0.31883 -0.24415,0.39062 -0.22139,0.29596 -0.57136,0.64337 -0.9082,0.95704 -0.6157,0.57333 -1.21968,1.10017 -1.85937,1.48828 -1.27047,0.70874 -2.55649,1.35822 -3.87696,1.84961 -1.61586,0.5156 -3.19716,0.9912 -4.74023,1.02148 -1.75961,-0.0572 -3.53054,-0.15953 -5.31641,-0.23047 h -0.01 c -1.53407,-0.0992 -3.078493,-0.33875 -4.6543,-0.57812 h -0.002 c -1.832418,-0.28336 -3.603949,-0.57081 -5.171875,-1.25391 -0.264431,-0.13859 -0.502859,-0.25148 -0.679688,-0.35937 0.03128,0.0191 -0.307597,-0.21541 -0.576172,-0.41211 -0.268574,-0.19671 -0.516457,-0.38216 -0.632812,-0.46485 -0.68273,-0.48517 -1.368054,-0.89893 -2.005859,-1.32422 l -0.01563,-0.01 C 88.602985,145.275 88.380083,145.13247 88.208984,145 c -0.896548,-0.69419 -1.665497,-1.68807 -2.669922,-2.63672 a 0.92649825,0.92649825 0 0 0 -0.03516,-0.0312 c -1.174439,-1.003 -2.307528,-1.94565 -3.173828,-3.05664 -0.516751,-0.70862 -0.982581,-1.44002 -1.441406,-2.21094 -0.40235,-0.67601 -0.778632,-1.2883 -1.011719,-1.89843 -0.623963,-1.90478 -1.040234,-3.84018 -1.107422,-5.80664 -0.0073,-0.341 -0.0239,-0.65225 -0.01953,-0.92969 0.02653,-1.68441 0.421693,-3.38947 0.880859,-5.11914 0.262226,-0.88869 0.531703,-1.73905 0.878907,-2.54493 0.234869,-0.54514 0.484623,-1.02875 0.765625,-1.61718 0.144471,-0.30254 0.283276,-0.6012 0.421875,-0.89649 a 0.92649825,0.92649825 0 0 0 0.0059,-0.0137 c 0.683929,-1.51341 1.2937,-2.97791 2.166016,-4.21094 a 0.92649825,0.92649825 0 0 0 0.0039,-0.006 c 0.685153,-0.98196 1.489514,-1.93881 2.25,-2.99218 l 0.002,-0.002 c 0.535327,-0.69263 1.238508,-1.28535 2.017578,-1.86914 0.624842,-0.44842 1.256013,-0.8002 1.947266,-1.02929 a 0.92649825,0.92649825 0 0 0 0.05078,-0.0176 c 0.552128,-0.21973 1.080884,-0.39462 1.601563,-0.47852 0.434367,-0.0658 0.815476,-0.0991 1.136718,-0.0566 a 0.92649825,0.92649825 0 0 0 0.01367,0.002 c 0.387383,0.0455 0.74476,0.0927 1.064453,0.16797 0.225281,0.0654 0.478364,0.14672 0.775391,0.21094 a 0.92649825,0.92649825 0 0 0 0.04687,0.008 c 0.151265,0.0245 0.260079,0.0483 0.359375,0.0801 a 0.92649825,0.92649825 0 0 0 0.314453,0.043 c 0.03681,-0.001 -0.0049,-0.003 0.02539,-0.004 0.03293,0.018 0.0206,0.0299 0.06445,0.0488 0.06313,0.0273 0.143293,0.056 0.248047,0.0703 0.0029,4e-4 0.0068,-3.7e-4 0.0098,0 0.291513,0.17751 0.607265,0.38409 0.916016,0.5879 a 0.92649825,0.92649825 0 0 0 1.275391,-0.25196 l 0.240234,-0.35351 a 0.92649825,0.92649825 0 0 0 -0.248047,-1.28907 c 0.07147,-0.0153 0.145624,-0.0336 0.199219,-0.0352 0.103658,8.9e-4 0.181402,0.008 0.207031,0.0137 a 0.92649825,0.92649825 0 0 0 0.06836,0.0117 c 0.107418,0.0143 0.338196,0.0865 0.691407,0.10351 0.249561,0.0192 0.500853,0.0166 0.751953,-0.006 0.482826,-0.007 0.999266,-0.0197 1.548826,-0.11915 0.005,-8.6e-4 0.0104,-0.001 0.0156,-0.002 0.42106,-0.0706 0.84076,-0.15199 1.25586,-0.24023 a 0.92649825,0.92649825 0 0 0 0.0273,-0.006 c 0.43973,-0.10799 0.87439,-0.2402 1.30664,-0.40625 0.48937,-0.16697 0.99272,-0.33935 1.5,-0.54102 l 0.006,-0.002 c 0.42762,-0.15708 0.85862,-0.26396 1.2832,-0.30469 0.62953,-0.0396 1.21132,-0.0671 1.73633,-0.006 z m -12.412108,0.13086 a 0.92649825,0.92649825 0 0 0 0.101562,0.4668 c -0.03719,-0.0144 -0.06129,-0.0188 -0.09375,-0.0293 -0.0196,-0.0842 -0.03907,-0.17 -0.03906,-0.16992 7e-6,1.2e-4 0.02389,-0.20379 0.03125,-0.26758 z m -0.951172,1.1211 c -0.0065,0.0111 -0.02344,0.0397 -0.02539,0.043 -4.84e-4,8e-4 -0.0015,0.001 -0.002,0.002 a 0.92649825,0.92649825 0 0 0 -0.0332,0.0137 c 0.01227,-0.0194 0.03384,-0.032 0.06055,-0.0586 z" />
      <path
         id="path587"
         style="fill:#b3b3b3;stroke-width:1.85031"
         sodipodi:type="inkscape:offset"
         inkscape:radius="0"
         inkscape:original="M 409.19336 394.91602 C 404.96913 394.63803 401.3324 395.30667 395.94922 397.13867 C 386.53653 400.34199 382.23959 401.12865 375.01367 400.9707 C 371.27182 400.8889 368.41276 401.08185 367.73242 401.46094 C 367.11627 401.80426 365.75399 402.29694 364.70703 402.55664 L 362.80469 403.0293 L 365.6875 404.82227 C 367.2736 405.80825 368.57227 406.8634 368.57227 407.16602 C 368.57227 408.35712 367.31909 408.37411 365.34766 407.21094 C 361.89653 405.17472 355.38409 403.69293 349.80664 403.67383 C 345.51477 403.6591 344.08785 403.91252 340.20312 405.37891 C 331.67816 408.59686 326.58828 412.89182 318.37891 423.79492 C 312.8059 431.19658 311.55705 433.35406 306.08398 445.03125 C 300.7802 456.34726 299.87352 458.59905 298.0332 465.02734 C 293.62467 480.42645 293.46932 492.76773 297.50195 507.48633 C 299.7284 515.61261 306.64749 526.70609 313.74609 533.5332 C 316.30871 535.99782 321.25535 540.78095 324.74023 544.16211 C 331.06352 550.2972 341.80022 558.24708 348.64258 561.86133 C 350.46703 562.82503 354.30874 564.20922 357.17969 564.9375 C 364.1901 566.71584 380.12322 569.07854 388.73633 569.61719 C 392.58729 569.85802 399.51947 570.09327 404.14062 570.13867 C 413.22839 570.22786 419.37057 569.163 427.55078 566.08398 C 437.79554 562.22786 449.12428 554.90799 452.95117 549.66992 C 457.96969 542.8008 463.64895 525.7807 465.81836 511.10547 C 467.42317 500.24952 466.74172 476.41827 464.31836 458.58398 C 462.70835 446.73537 458.41515 432.4716 454.33594 425.42578 C 451.98818 421.37062 445.57834 414.2027 440.69141 410.16797 C 432.56117 403.4555 420.04327 396.65376 413.70117 395.50195 C 412.07582 395.20677 410.60144 395.00868 409.19336 394.91602 z "
         d="m 409.19336,394.91602 c -4.22423,-0.27799 -7.86096,0.39065 -13.24414,2.22265 -9.41269,3.20332 -13.70963,3.98998 -20.93555,3.83203 -3.74185,-0.0818 -6.60091,0.11115 -7.28125,0.49024 -0.61615,0.34332 -1.97843,0.836 -3.02539,1.0957 l -1.90234,0.47266 2.88281,1.79297 c 1.5861,0.98598 2.88477,2.04113 2.88477,2.34375 0,1.1911 -1.25318,1.20809 -3.22461,0.0449 -3.45113,-2.03622 -9.96357,-3.51801 -15.54102,-3.53711 -4.29187,-0.0147 -5.71879,0.23869 -9.60352,1.70508 -8.52496,3.21795 -13.61484,7.51291 -21.82421,18.41601 -5.57301,7.40166 -6.82186,9.55914 -12.29493,21.23633 -5.30378,11.31601 -6.21046,13.5678 -8.05078,19.99609 -4.40853,15.39911 -4.56388,27.74039 -0.53125,42.45899 2.22645,8.12628 9.14554,19.21976 16.24414,26.04687 2.56262,2.46462 7.50926,7.24775 10.99414,10.62891 6.32329,6.13509 17.05999,14.08497 23.90235,17.69922 1.82445,0.9637 5.66616,2.34789 8.53711,3.07617 7.01041,1.77834 22.94353,4.14104 31.55664,4.67969 3.85096,0.24083 10.78314,0.47608 15.40429,0.52148 9.08777,0.0892 15.22995,-0.97567 23.41016,-4.05469 10.24476,-3.85612 21.5735,-11.17599 25.40039,-16.41406 5.01852,-6.86912 10.69778,-23.88922 12.86719,-38.56445 1.60481,-10.85595 0.92336,-34.6872 -1.5,-52.52149 -1.61001,-11.84861 -5.90321,-26.11238 -9.98242,-33.1582 -2.34776,-4.05516 -8.7576,-11.22308 -13.64453,-15.25781 -8.13024,-6.71247 -20.64814,-13.51421 -26.99024,-14.66602 -1.62535,-0.29518 -3.09973,-0.49327 -4.50781,-0.58593 z"
         transform="scale(0.26458333)" />
      <path
         id="path658"
         style="fill:#4d4d4d;stroke-width:1.85031"
         sodipodi:type="inkscape:offset"
         inkscape:radius="0"
         inkscape:original="M 358.76367 340.66602 C 358.67299 340.56802 357.11784 341.97419 355.30664 343.79102 C 353.49544 345.60785 350.8231 347.79245 349.36914 348.64453 C 347.91517 349.49661 346.72656 350.2998 346.72656 350.42969 C 346.72656 350.55959 348.08115 353.37103 349.73633 356.67773 C 351.39151 359.98442 353.37954 364.4548 354.1543 366.61133 C 356.51403 373.17959 358.61027 385.1231 359.37305 396.34375 L 359.75586 401.99023 L 362.77539 401.10547 C 365.53278 400.29712 365.76945 400.09938 365.51758 398.82031 C 365.36591 398.05012 364.59461 390.99073 363.80273 383.13477 C 363.01085 375.27881 361.87738 366.02599 361.2832 362.57227 C 360.68903 359.11854 359.91652 352.81655 359.56641 348.56836 C 359.2163 344.32017 358.85437 340.76402 358.76367 340.66602 z "
         d="m 358.76367,340.66602 c -0.0907,-0.098 -1.64583,1.30817 -3.45703,3.125 -1.8112,1.81683 -4.48354,4.00143 -5.9375,4.85351 -1.45397,0.85208 -2.64258,1.65527 -2.64258,1.78516 0,0.1299 1.35459,2.94134 3.00977,6.24804 1.65518,3.30669 3.64321,7.77707 4.41797,9.9336 2.35973,6.56826 4.45597,18.51177 5.21875,29.73242 l 0.38281,5.64648 3.01953,-0.88476 c 2.75739,-0.80835 2.99406,-1.00609 2.74219,-2.28516 -0.15167,-0.77019 -0.92297,-7.82958 -1.71485,-15.68554 -0.79188,-7.85596 -1.92535,-17.10878 -2.51953,-20.5625 -0.59417,-3.45373 -1.36668,-9.75572 -1.71679,-14.00391 -0.35011,-4.24819 -0.71204,-7.80434 -0.80274,-7.90234 z"
         transform="scale(0.26458333)" />
      <path
         style="fill:#4d4d4d;stroke-width:0.874001"
         id="path759"
         d="m 108.45646,108.87517 c 0.73494,0.22412 1.49011,0.37739 2.22685,0.59476 0.29356,0.0866 0.57995,0.21861 0.86659,0.32412 0.82278,0.31739 1.74208,0.4524 2.49654,0.93379 0.12874,0.0821 0.24007,0.18881 0.36011,0.28321 0.83744,0.84125 1.40953,1.90238 2.01597,2.91276 0.6317,1.16211 1.39267,2.27278 1.8068,3.53993 0.0998,0.30536 0.16587,0.62072 0.24881,0.93108 0,0 0.0559,-0.009 0.0559,-0.009 v 0 c -0.021,-0.33713 0.002,-0.67994 -0.0629,-1.0114 -0.0609,-0.31017 -0.18984,-0.60388 -0.31137,-0.89567 -0.39583,-0.95044 -1.00647,-1.79973 -1.48222,-2.70877 -0.62826,-1.03707 -1.22399,-2.12706 -2.10643,-2.97362 -0.13505,-0.10119 -0.26152,-0.21497 -0.40515,-0.30355 -0.77125,-0.47565 -1.69692,-0.61614 -2.53522,-0.92603 -0.20673,-0.071 -0.40999,-0.15184 -0.61685,-0.22248 -0.81593,-0.27862 -1.68507,-0.38497 -2.50297,-0.65772 0,0 -0.0545,0.18857 -0.0545,0.18857 z" />
      <path
         style="fill:#4d4d4d;stroke-width:0.874001"
         id="path761"
         d="m 82.005042,126.35216 c -0.102127,1.01701 -0.28126,2.06352 -0.126426,3.08743 0.124251,0.82167 0.495377,1.62483 0.788109,2.39417 0.574723,1.54145 1.329497,2.76939 2.619439,3.8206 0.140025,0.11412 0.302646,0.19729 0.453966,0.29593 0,0 0.03856,-0.0415 0.03856,-0.0415 v 0 c -0.107329,-0.14167 -0.20605,-0.29029 -0.32198,-0.42501 -0.588526,-0.68393 -0.62833,-0.59876 -1.207622,-1.35132 -0.562136,-0.73027 -0.940025,-1.56287 -1.269367,-2.41801 -0.269066,-0.70457 -0.652595,-1.54699 -0.769766,-2.29633 -0.156755,-1.0025 0.02355,-2.02937 0.119735,-3.02555 0,0 -0.324644,-0.0404 -0.324644,-0.0404 z" />
      <path
         style="fill:#4d4d4d;stroke-width:0.874001"
         id="path767"
         d="m 99.699772,142.89699 c 0.861238,0.63034 1.059198,0.86824 2.067468,1.24087 0.23995,0.0887 0.50053,0.10601 0.75079,0.15901 0,0 0.0154,-0.0545 0.0154,-0.0545 v 0 c -0.23142,-0.0829 -0.47045,-0.14702 -0.69425,-0.24869 -1.05685,-0.48009 -1.06498,-0.55935 -2.012415,-1.24509 0,0 -0.126971,0.14841 -0.126971,0.14841 z" />
    </g>
  </g>
</svg>
