<?xml version="1.0" encoding="UTF-8" standalone="no"?>
<!-- Created with Inkscape (http://www.inkscape.org/) -->

<svg
   width="210mm"
   height="297mm"
   viewBox="0 0 210 297"
   version="1.1"
   id="svg5"
   inkscape:version="1.2 (dc2aedaf03, 2022-05-15)"
   sodipodi:docname="fruta.svg"
   xmlns:inkscape="http://www.inkscape.org/namespaces/inkscape"
   xmlns:sodipodi="http://sodipodi.sourceforge.net/DTD/sodipodi-0.dtd"
   xmlns="http://www.w3.org/2000/svg"
   xmlns:svg="http://www.w3.org/2000/svg">
  <sodipodi:namedview
     id="namedview7"
     pagecolor="#505050"
     bordercolor="#eeeeee"
     borderopacity="1"
     inkscape:showpageshadow="0"
     inkscape:pageopacity="0"
     inkscape:pagecheckerboard="0"
     inkscape:deskcolor="#505050"
     inkscape:document-units="mm"
     showgrid="false"
     inkscape:zoom="1.7852694"
     inkscape:cx="374.73337"
     inkscape:cy="516.44868"
     inkscape:window-width="2560"
     inkscape:window-height="1369"
     inkscape:window-x="2552"
     inkscape:window-y="-8"
     inkscape:window-maximized="1"
     inkscape:current-layer="layer1" />
  <defs
     id="defs2" />
  <g
     inkscape:label="Camada 1"
     inkscape:groupmode="layer"
     id="layer1">
    <path
       style="fill:#000000;stroke-width:0.874001"
       id="path181"
       d="m 91.236307,92.593577 c 0.746765,1.537446 1.618874,3.025928 2.190707,4.642657 0.270547,0.76491 0.268698,0.869489 0.446337,1.663972 0.360386,1.584304 0.582631,3.189364 0.742569,4.804014 0.07915,0.74593 0.0746,1.49556 0.10101,2.24385 0.0104,0.19227 -0.0075,0.38694 0.01503,0.57838 -0.0099,-0.15611 0.0011,0.11151 0.0028,0.15785 0.141163,-0.20977 -0.02032,-0.12876 -0.01016,-0.0976 0.03653,0.11195 0.108193,0.20983 0.174305,0.30728 0.0061,0.009 0.03445,0.008 0.03258,-0.002 -0.02093,-0.11969 -0.06303,-0.2347 -0.09454,-0.35205 -0.01027,-5.3e-4 -0.03415,-0.0112 -0.03081,-0.002 0.03803,0.11079 0.05823,0.23889 0.140798,0.32198 0.03501,0.0352 0.09638,-0.0242 0.144973,-0.0344 0.204185,-0.0431 0.401672,-0.0855 0.601928,-0.14576 0.354583,-0.15832 0.717076,-0.26805 1.103939,-0.30313 0.09215,-0.006 0.178874,-0.0382 0.264229,-0.0673 0.235707,-0.0553 0.146605,-0.55021 0.132448,-0.69835 -0.04469,-0.46766 -0.06613,-0.6404 -0.120251,-1.12487 -0.234296,-2.05923 -0.417465,-4.1237 -0.63682,-6.184374 -0.0897,-1.136793 -0.362297,-2.24449 -0.540512,-3.36721 -0.12981,-0.817779 -0.158758,-1.173916 -0.248216,-1.993032 -0.0929,-0.851926 -0.110871,-1.708856 -0.16764,-2.563309 -0.02543,-0.128723 -0.01352,-0.256559 -0.0108,-0.386088 0.01884,-0.135255 0.02101,-0.132943 0.03963,-0.208566 0.05136,-0.289134 -0.07067,-0.18201 -0.446651,-0.294315 -0.564295,0.177827 -0.934307,0.626716 -1.312328,1.052936 -0.306763,0.339746 -0.622594,0.681823 -1.017061,0.92107 -0.283485,0.162886 -0.51634,0.403479 -0.800505,0.564547 -0.0812,0.04777 -0.169836,0.08069 -0.255794,0.120502 0.06327,0.01971 -0.342259,0.10142 -0.233891,0.08206 0.06154,-0.01101 0.07346,-0.0021 -5.29e-4,-0.01839 -0.285353,0.126256 -0.299601,0.07653 -0.0031,0.198099 0,0 -0.04265,-0.03728 -0.04265,-0.03728 v 0 c 0.145333,0.269383 0.201012,0.183026 -0.02865,0.229619 0.168225,0.02574 0.313656,-0.01074 0.476764,-0.09168 0.0976,-0.0452 0.200205,-0.0789 0.291666,-0.135983 0.282964,-0.169503 0.528439,-0.393364 0.808148,-0.568002 0.425196,-0.264568 0.776015,-0.62489 1.106723,-0.997627 0.32725,-0.369163 0.640557,-0.771867 1.126792,-0.932424 -0.02119,-0.08386 -0.0398,-0.168415 -0.06359,-0.251576 -0.0092,-0.03202 7.94e-4,0.0678 0.0118,0.09923 1.94e-4,5.29e-4 0.0036,-0.09899 2.12e-4,-0.02376 -0.01294,0.09645 -0.044,0.184698 -0.04845,0.283599 -0.0027,0.140385 -0.01532,0.280551 0.0087,0.420214 0.05723,0.859925 0.06879,1.722633 0.163221,2.580053 0.09206,0.86496 0.112898,1.155924 0.24628,2.020998 0.171778,1.114073 0.438261,2.213187 0.527806,3.340084 0.217774,2.061865 0.394222,4.127995 0.634233,6.187685 0.08321,0.72377 0.0536,0.44875 0.123367,1.1171 0.01209,0.11582 -0.03622,0.25609 0.03594,0.3475 0.01077,0.0136 0.300662,-0.0975 0.127262,-0.0428 -0.06194,0.0235 -0.112776,0.0513 -0.181499,0.056 -0.411097,0.0387 -0.801087,0.1473 -1.176137,0.32129 -0.196209,0.0608 -0.182046,0.061 -0.384691,0.10524 -0.392578,0.0857 -0.37811,-0.0497 -0.402883,0.45683 -5.29e-4,0.009 0.01778,-2.7e-4 0.02666,-5.3e-4 0.0213,-0.11585 0.05496,-0.46361 0.06865,-0.34663 0.03729,0.31859 -0.04782,0.43238 0.175017,0.14979 0.0078,-0.01 7.94e-4,-0.0252 0.0011,-0.0377 -0.0052,-0.0598 -0.0021,-0.0439 -0.01937,-0.11783 -0.0016,-0.006 0.0042,0.0131 0.0027,0.0195 -0.0059,0.0258 -0.03178,0.0503 -0.02429,0.0757 0.01482,0.0503 0.05242,-0.21672 0.0343,-0.15354 -0.02839,-0.17985 6.6e-5,-0.36686 -0.01736,-0.54778 -0.03124,-0.75487 -0.02868,-1.51144 -0.112189,-2.26373 -0.17013,-1.62599 -0.406596,-3.24188 -0.775563,-4.836576 -0.185517,-0.804452 -0.189222,-0.929738 -0.466508,-1.703102 -0.581461,-1.621718 -1.459822,-3.11473 -2.215105,-4.656941 0,0 -0.242072,0.118525 -0.242072,0.118525 z" />
    <path
       style="fill:#000000;stroke-width:0.874001"
       id="path183"
       d="m 97.467051,107.66386 c -0.332594,-0.2201 -0.836226,-0.56598 -1.209455,-0.77626 -0.276826,-0.15597 -0.262957,-0.11917 -0.392071,0.31478 -0.0093,0.0313 0.04839,0.10569 0.0618,0.0759 0.01545,-0.0343 -0.03366,-0.0674 -0.05049,-0.10102 0.048,-0.10055 0.149527,-0.19037 0.144,-0.30165 -0.0037,-0.0744 -0.507778,-0.16787 -0.599522,-0.17071 0.01437,-0.0572 -0.34979,-0.10787 -0.415602,-0.11948 -0.233096,-0.0669 -0.463489,-0.14297 -0.695328,-0.21423 -0.40976,-0.10575 -0.830286,-0.16193 -1.249712,-0.21338 -0.511622,-0.0704 -1.028657,-0.0185 -1.535988,0.059 -0.661657,0.1047 -1.291971,0.31644 -1.912308,0.56257 -0.840208,0.28134 -1.597014,0.70611 -2.312302,1.22165 -0.84923,0.63216 -1.654246,1.31678 -2.305841,2.15403 -0.74517,1.03122 -1.562163,2.00683 -2.290881,3.04976 -0.968227,1.37235 -1.612273,2.92466 -2.298507,4.44728 -0.138354,0.29549 -0.274595,0.59197 -0.415057,0.88646 -0.285798,0.59919 -0.519346,1.04123 -0.781614,1.65145 -0.381786,0.88832 -0.669388,1.80126 -0.943925,2.72677 -0.394491,1.48031 -0.749834,2.97696 -0.881779,4.50682 -0.07656,0.8877 -0.04869,1.0756 -0.03127,1.97536 0.0731,2.13867 0.517345,4.20389 1.18101,6.23089 0.282636,0.76887 0.72232,1.46123 1.137923,2.16162 0.421158,0.70975 0.547348,0.95866 1.016724,1.64653 0.159835,0.23424 0.333518,0.45872 0.500277,0.68807 0.967537,1.25857 2.19183,2.26527 3.386524,3.29419 0.924314,0.89014 1.718164,1.90427 2.73539,2.69885 0.236172,0.18448 0.488992,0.34659 0.733491,0.51989 0.247017,0.16291 0.493384,0.32681 0.74105,0.48872 0.639643,0.41818 0.643332,0.40224 1.256025,0.84205 0.166954,0.11985 1.070009,0.79973 1.252749,0.91299 0.269962,0.16731 0.557265,0.30487 0.835901,0.4573 1.765493,0.79232 3.684965,1.10116 5.581922,1.39944 1.597514,0.24736 3.192305,0.50314 4.805785,0.61548 1.79718,0.0765 3.59322,0.18693 5.39082,0.25229 1.79685,-0.0188 3.54066,-0.54985 5.2399,-1.08919 1.44341,-0.52826 2.82038,-1.22919 4.16011,-1.97872 0.77472,-0.47132 1.45806,-1.07532 2.11884,-1.69184 0.3633,-0.33899 0.77238,-0.73572 1.07384,-1.13713 0.13453,-0.17913 0.24229,-0.37689 0.36344,-0.56534 0.64969,-1.27123 1.26414,-2.57421 1.6877,-3.94089 0.0867,-0.27976 0.15826,-0.56399 0.23738,-0.84599 0.34176,-1.41366 0.76701,-2.81114 1.01006,-4.2471 0.14888,-0.8796 0.19455,-1.42926 0.294,-2.33435 0.27574,-2.57348 0.002,-5.14516 -0.13146,-7.71551 -0.0787,-2.2079 -0.32249,-4.41111 -0.69619,-6.58802 -0.39148,-1.92369 -1.00978,-3.79099 -1.70206,-5.62472 -0.6486,-1.73545 -1.8308,-3.14667 -3.08965,-4.47163 -1.05728,-1.09514 -2.26394,-2.02543 -3.53498,-2.85645 -1.19125,-0.75252 -2.44715,-1.39625 -3.72586,-1.9854 -0.76774,-0.34331 -1.59813,-0.48181 -2.42316,-0.60689 -0.68351,-0.0826 -1.37363,-0.0432 -2.05744,0.0137 -0.56973,0.0596 -1.12709,0.20599 -1.6623,0.40729 -0.48993,0.19955 -0.99178,0.36663 -1.49292,0.53509 -0.38031,0.1432 -0.76657,0.25512 -1.16255,0.34797 -0.39757,0.0787 -0.79571,0.15684 -1.19583,0.22188 -0.45919,0.0818 -0.92071,0.0976 -1.385654,0.10412 -0.197639,0.0214 -0.386914,0.0217 -0.5827,0.003 -0.203163,-0.0126 -0.398124,-0.071 -0.599168,-0.0983 -0.158464,-0.0312 -0.322138,-0.0363 -0.483383,-0.0353 -0.22534,0.005 -0.445632,0.053 -0.662082,0.11225 -0.155753,0.0339 -0.296355,0.10627 -0.442347,0.16488 0.0074,0.009 -0.09879,0.0237 -0.09559,0.024 0.01691,0.002 0.03394,0.002 0.05092,0.002 0.0084,-1e-4 -0.01677,-0.002 -0.02514,-0.002 -0.208508,0.15191 0.174333,0.0916 -0.140267,0.13597 0,0 -0.03445,0.045 -0.03445,0.045 v 0 c 0.0035,0.0869 5.29e-4,0.25121 0.09411,0.2947 0.113057,0.0307 0.230035,-0.004 0.337495,-0.0399 0.128106,-0.0524 0.251995,-0.11407 0.388964,-0.14357 0.17209,-0.0489 0.351221,-0.0812 0.530265,-0.0852 0.137983,-4e-5 0.278082,0.005 0.413279,0.0336 0.208531,0.0278 0.410699,0.0892 0.621924,0.0979 0.213135,0.0175 0.421312,0.0163 0.635262,-0.004 0.489822,-0.007 0.976982,-0.0229 1.460392,-0.11175 0.41166,-0.0688 0.82214,-0.14706 1.23031,-0.23383 0.40951,-0.10057 0.80826,-0.22312 1.20129,-0.37439 0.5049,-0.17226 1.0103,-0.3439 1.50591,-0.54178 0.49318,-0.18171 1.00623,-0.3134 1.53061,-0.36271 0.64626,-0.0408 1.29771,-0.0797 1.94275,-0.002 0.77661,0.12198 1.56159,0.24391 2.28465,0.56918 1.25453,0.57975 2.48375,1.21851 3.65338,1.95634 1.23379,0.81271 2.40356,1.72244 3.43048,2.78934 1.20592,1.27184 2.34348,2.62622 2.95562,4.29501 0.66657,1.80405 1.27486,3.6362 1.65031,5.52587 0.36123,2.15576 0.60761,4.33527 0.68382,6.52053 0.13222,2.53847 0.39959,5.07818 0.13226,7.61981 -0.0943,0.86049 -0.14466,1.44691 -0.28562,2.28569 -0.23876,1.42064 -0.65874,2.80363 -0.99449,4.20247 -0.0753,0.27174 -0.1428,0.54576 -0.22583,0.81523 -0.40739,1.32209 -1.00766,2.57944 -1.63491,3.80867 -0.10483,0.16539 -0.19717,0.3394 -0.31447,0.4962 -0.28712,0.38381 -0.67385,0.75711 -1.02062,1.08003 -0.62871,0.58544 -1.27841,1.16008 -2.01595,1.60645 -1.30457,0.72857 -2.64433,1.41156 -4.04685,1.93175 -1.63277,0.5213 -3.30824,1.03841 -5.03487,1.07065 -1.7915,-0.0576 -3.58168,-0.16079 -5.37272,-0.23182 -1.59731,-0.102 -3.176761,-0.34935 -4.7583,-0.58959 -1.836811,-0.28403 -3.69656,-0.57149 -5.412465,-1.32106 -0.260934,-0.13872 -0.530532,-0.26225 -0.782801,-0.41617 -0.18964,-0.1157 -1.097558,-0.79426 -1.263274,-0.91202 -0.651447,-0.46294 -1.334127,-0.87739 -1.998486,-1.32105 -0.23224,-0.1621 -0.472784,-0.31293 -0.696727,-0.48632 -1.020627,-0.79026 -1.806567,-1.81352 -2.739533,-2.69468 -1.169649,-0.99891 -2.363033,-1.98129 -3.313305,-3.2035 -0.542745,-0.74323 -1.02633,-1.50292 -1.496978,-2.2937 -0.397923,-0.66858 -0.815631,-1.33126 -1.091864,-2.0629 -0.648089,-1.97325 -1.085403,-4.00452 -1.156558,-6.08708 -0.0067,-0.32475 -0.02527,-0.64946 -0.02016,-0.97423 0.02869,-1.82173 0.449641,-3.60612 0.914929,-5.35766 0.26634,-0.90313 0.546526,-1.79342 0.919692,-2.65956 0.250582,-0.58161 0.508172,-1.07651 0.781132,-1.6481 0.141631,-0.29659 0.279297,-0.59505 0.418946,-0.89257 0.675056,-1.49378 1.302258,-3.0199 2.254502,-4.36591 0.723291,-1.03662 1.538224,-2.00329 2.27684,-3.02903 0.618921,-0.80152 1.396225,-1.44691 2.204334,-2.05204 0.682577,-0.49075 1.401847,-0.89546 2.204333,-1.16142 0.584475,-0.2326 1.178333,-0.43297 1.801842,-0.53264 0.462409,-0.0701 0.933535,-0.12047 1.400082,-0.0588 0.391824,0.046 0.785183,0.0954 1.169466,0.18584 0.251519,0.072 0.501227,0.15222 0.757119,0.20755 0.169738,0.0275 0.329853,0.0578 0.494197,0.11042 0.352948,-0.0121 0.476869,0.30207 0.894654,-0.0147 -0.08404,-0.23291 -0.164135,-0.42116 -0.416145,0.0551 -0.02257,0.0427 0.09237,0.03 0.134525,0.0535 0.394621,0.21989 0.826698,0.51924 1.192887,0.76096 0,0 0.23962,-0.35196 0.23962,-0.35196 z" />
    <path
       style="fill:#b3b3b3;stroke-width:1.85031"
       d="m 388.73686,569.61783 c -8.61311,-0.53865 -24.54615,-2.90153 -31.55656,-4.67987 -2.87095,-0.72828 -6.71264,-2.11262 -8.53709,-3.07632 -6.84236,-3.61425 -17.5791,-11.56494 -23.90239,-17.70003 -3.48488,-3.38116 -8.43284,-8.16406 -10.99546,-10.62868 -7.0986,-6.82711 -14.01636,-17.92021 -16.24281,-26.04649 -4.03263,-14.7186 -3.8786,-27.05973 0.52993,-42.45884 1.84032,-6.42829 2.74718,-8.68071 8.05096,-19.99672 5.47307,-11.67719 6.72228,-13.83484 12.29529,-21.2365 8.20937,-10.9031 13.29918,-15.19807 21.82414,-18.41602 3.88473,-1.46639 5.31242,-1.71986 9.60429,-1.70513 5.57745,0.0191 12.08927,1.50156 15.5404,3.53778 1.97143,1.16317 3.22427,1.1454 3.22427,-0.0457 0,-0.30262 -1.29771,-1.35692 -2.88381,-2.3429 l -2.88382,-1.79267 1.90358,-0.47219 c 1.04696,-0.2597 2.40769,-0.75308 3.02384,-1.0964 0.68034,-0.37909 3.53997,-0.57133 7.28182,-0.48953 7.22592,0.15795 11.524,-0.62873 20.93669,-3.83205 7.17757,-2.44267 11.2487,-2.81825 17.7501,-1.63752 6.3421,1.15181 18.85996,7.95401 26.9902,14.66648 4.88693,4.03473 11.29683,11.20235 13.64459,15.25751 4.07921,7.04582 8.37429,21.31015 9.9843,33.15876 2.42336,17.83429 3.10324,41.66405 1.49843,52.52 -2.16941,14.67523 -7.84787,31.69524 -12.86639,38.56436 -3.82689,5.23807 -15.15568,12.55961 -25.40044,16.41573 -8.18021,3.07902 -14.32246,4.1425 -23.41022,4.05331 -4.62116,-0.0454 -11.55288,-0.2795 -15.40384,-0.52033 z"
       id="path587"
       transform="scale(0.26458333)" />
    <path
       style="fill:#4d4d4d;stroke-width:1.85031"
       d="m 359.37281,396.34352 c -0.76278,-11.22065 -2.85919,-23.16392 -5.21892,-29.73218 -0.77476,-2.15653 -2.7629,-6.62645 -4.41808,-9.93314 -1.65518,-3.3067 -3.00942,-6.11845 -3.00942,-6.24835 0,-0.12989 1.18961,-0.93333 2.64358,-1.78541 1.45396,-0.85208 4.12546,-3.03574 5.93666,-4.85257 1.8112,-1.81683 3.36728,-3.22314 3.45796,-3.12514 0.0907,0.098 0.45133,3.65399 0.80144,7.90218 0.35011,4.24819 1.12271,10.54976 1.71688,14.00349 0.59418,3.45372 1.72822,12.7071 2.5201,20.56306 0.79188,7.85596 1.56387,14.91372 1.71554,15.68391 0.25187,1.27907 0.0143,1.47699 -2.74309,2.28534 l -3.01883,0.88499 z"
       id="path658"
       transform="scale(0.26458333)" />
    <path
       style="fill:#4d4d4d;stroke-width:0.874001"
       id="path759"
       d="m 108.45646,108.87517 c 0.73494,0.22412 1.49011,0.37739 2.22685,0.59476 0.29356,0.0866 0.57995,0.21861 0.86659,0.32412 0.82278,0.31739 1.74208,0.4524 2.49654,0.93379 0.12874,0.0821 0.24007,0.18881 0.36011,0.28321 0.83744,0.84125 1.40953,1.90238 2.01597,2.91276 0.6317,1.16211 1.39267,2.27278 1.8068,3.53993 0.0998,0.30536 0.16587,0.62072 0.24881,0.93108 0,0 0.0559,-0.009 0.0559,-0.009 v 0 c -0.021,-0.33713 0.002,-0.67994 -0.0629,-1.0114 -0.0609,-0.31017 -0.18984,-0.60388 -0.31137,-0.89567 -0.39583,-0.95044 -1.00647,-1.79973 -1.48222,-2.70877 -0.62826,-1.03707 -1.22399,-2.12706 -2.10643,-2.97362 -0.13505,-0.10119 -0.26152,-0.21497 -0.40515,-0.30355 -0.77125,-0.47565 -1.69692,-0.61614 -2.53522,-0.92603 -0.20673,-0.071 -0.40999,-0.15184 -0.61685,-0.22248 -0.81593,-0.27862 -1.68507,-0.38497 -2.50297,-0.65772 0,0 -0.0545,0.18857 -0.0545,0.18857 z" />
    <path
       style="fill:#4d4d4d;stroke-width:0.874001"
       id="path761"
       d="m 82.005042,126.35216 c -0.102127,1.01701 -0.28126,2.06352 -0.126426,3.08743 0.124251,0.82167 0.495377,1.62483 0.788109,2.39417 0.574723,1.54145 1.329497,2.76939 2.619439,3.8206 0.140025,0.11412 0.302646,0.19729 0.453966,0.29593 0,0 0.03856,-0.0415 0.03856,-0.0415 v 0 c -0.107329,-0.14167 -0.20605,-0.29029 -0.32198,-0.42501 -0.588526,-0.68393 -0.62833,-0.59876 -1.207622,-1.35132 -0.562136,-0.73027 -0.940025,-1.56287 -1.269367,-2.41801 -0.269066,-0.70457 -0.652595,-1.54699 -0.769766,-2.29633 -0.156755,-1.0025 0.02355,-2.02937 0.119735,-3.02555 0,0 -0.324644,-0.0404 -0.324644,-0.0404 z" />
    <path
       style="fill:#4d4d4d;stroke-width:0.874001"
       id="path767"
       d="m 99.699772,142.89699 c 0.861238,0.63034 1.059198,0.86824 2.067468,1.24087 0.23995,0.0887 0.50053,0.10601 0.75079,0.15901 0,0 0.0154,-0.0545 0.0154,-0.0545 v 0 c -0.23142,-0.0829 -0.47045,-0.14702 -0.69425,-0.24869 -1.05685,-0.48009 -1.06498,-0.55935 -2.012415,-1.24509 0,0 -0.126971,0.14841 -0.126971,0.14841 z" />
  </g>
</svg>
