<?xml version="1.0" encoding="UTF-8" standalone="no"?>
<!-- Created with Inkscape (http://www.inkscape.org/) -->

<svg
   width="300"
   height="300"
   viewBox="0 0 79.374998 79.375"
   version="1.1"
   id="svg5"
   inkscape:version="1.2 (dc2aedaf03, 2022-05-15)"
   sodipodi:docname="foliate.svg"
   inkscape:export-filename="default.svg"
   inkscape:export-xdpi="96"
   inkscape:export-ydpi="96"
   xmlns:inkscape="http://www.inkscape.org/namespaces/inkscape"
   xmlns:sodipodi="http://sodipodi.sourceforge.net/DTD/sodipodi-0.dtd"
   xmlns="http://www.w3.org/2000/svg"
   xmlns:svg="http://www.w3.org/2000/svg">
  <sodipodi:namedview
     id="namedview7"
     pagecolor="#505050"
     bordercolor="#eeeeee"
     borderopacity="1"
     inkscape:showpageshadow="0"
     inkscape:pageopacity="0"
     inkscape:pagecheckerboard="0"
     inkscape:deskcolor="#505050"
     inkscape:document-units="mm"
     showgrid="false"
     inkscape:zoom="0.8926347"
     inkscape:cx="158.51949"
     inkscape:cy="195.4887"
     inkscape:window-width="1276"
     inkscape:window-height="1076"
     inkscape:window-x="0"
     inkscape:window-y="0"
     inkscape:window-maximized="1"
     inkscape:current-layer="layer1" />
  <defs
     id="defs2" />
  <g
     inkscape:label="Camada 1"
     inkscape:groupmode="layer"
     id="layer1">
    <g
       id="g30273"
       transform="matrix(1.6750263,0,0,1.6750263,-133.97157,-231.20121)">
      <path
         id="path1160"
         style="display:inline;fill:#000000;stroke-width:0.874001"
         sodipodi:type="inkscape:offset"
         inkscape:radius="0.35117814"
         inkscape:original="M 86.113281 160.29688 C 85.929226 160.33017 86.062478 160.23996 85.830078 160.56641 C 86.113778 160.84235 86.367364 161.15616 86.623047 161.46289 C 86.991847 161.89074 87.416765 162.26244 87.820312 162.65625 C 88.168481 162.98883 88.534332 163.29375 88.951172 163.53516 C 89.314573 163.69657 89.683121 163.84712 90.050781 163.99805 C 90.341698 164.15024 90.654184 164.24581 90.958984 164.36328 C 91.194979 164.48391 91.453823 164.54707 91.710938 164.60352 C 92.113221 164.67772 92.476209 164.86705 92.865234 164.98438 C 93.262398 165.07878 93.657271 165.17976 94.050781 165.28906 C 94.412612 165.35666 94.746923 165.5093 95.091797 165.62891 C 95.35275 165.70431 95.561209 165.88449 95.802734 165.99805 C 95.969427 166.08475 96.123239 166.18842 96.292969 166.26953 C 96.435003 166.29003 96.542828 166.35642 96.664062 166.42773 C 96.77781 166.45833 96.857121 166.5163 96.953125 166.58398 C 97.193689 166.69588 97.42229 166.83014 97.666016 166.93555 C 97.674316 166.94155 97.681473 166.94712 97.689453 166.95312 C 97.642523 166.96013 97.594397 166.96159 97.541016 166.96289 C 97.076609 166.92689 96.619317 166.99793 96.162109 167.07031 C 95.60819 167.15371 95.063215 167.29709 94.537109 167.48828 C 94.043413 167.67227 93.582818 167.90409 93.148438 168.20117 C 92.65274 168.54825 92.145784 168.87823 91.613281 169.16602 C 91.024408 169.46327 90.421892 169.72832 89.880859 170.10938 C 89.473725 170.44258 89.064891 170.77288 88.646484 171.0918 C 88.311101 171.38088 87.932356 171.60965 87.574219 171.86719 C 87.252358 172.13659 86.934143 172.41 86.580078 172.63672 C 86.307694 172.79538 86.023015 172.93246 85.75 173.08984 C 85.624367 173.20684 85.38479 173.19289 85.253906 173.27539 C 85.216576 173.29889 85.184277 173.32707 85.150391 173.35547 C 85.212991 173.39447 85.269373 173.44427 85.326172 173.49219 C 85.332772 173.55979 85.344906 173.62812 85.353516 173.69336 C 85.356816 173.71836 85.393409 173.66922 85.417969 173.63672 C 85.417969 173.63672 85.419922 173.63672 85.419922 173.63672 C 85.445592 173.62972 85.470754 173.61933 85.496094 173.61133 C 85.500994 173.61433 85.504816 173.61809 85.509766 173.62109 C 85.552326 173.64159 85.601381 173.6001 85.648438 173.5957 C 85.674418 173.5937 85.940676 173.59766 85.947266 173.59766 C 86.50299 173.56556 87.024079 173.30093 87.537109 173.09961 C 87.807926 172.99137 88.090588 172.92599 88.365234 172.83008 C 88.789076 172.63953 89.226121 172.48877 89.671875 172.35938 C 90.022149 172.27408 90.359427 172.14485 90.707031 172.05078 C 91.055371 171.99828 91.394833 171.8893 91.744141 171.84375 C 92.162726 171.81395 92.57946 171.75579 92.998047 171.7207 C 93.350451 171.7127 93.688646 171.6604 94.027344 171.57031 C 94.29894 171.52351 94.554306 171.43562 94.808594 171.33398 C 95.037822 171.24498 95.284663 171.22293 95.527344 171.19922 C 95.87707 171.14862 96.223189 171.19943 96.570312 171.24023 C 96.828597 171.25023 97.081497 171.29987 97.337891 171.32617 C 97.579905 171.37477 97.822373 171.40257 98.068359 171.42188 C 98.308784 171.45687 98.542763 171.44011 98.775391 171.37891 C 98.984279 171.35921 99.179987 171.30355 99.376953 171.23438 C 99.525517 171.15467 99.691907 171.16034 99.855469 171.14844 C 100.02402 171.12224 100.19252 171.10105 100.35938 171.06445 C 100.50294 171.02785 100.65117 171.02001 100.79883 171.00781 C 101.0234 170.96241 101.25182 170.93742 101.47852 170.90625 C 101.63601 170.86995 101.76788 170.90991 101.9082 170.97461 C 102.07562 171.05461 102.09321 171.19385 102.09961 171.375 C 102.05261 171.66946 101.93264 171.93942 101.83203 172.2168 C 101.6609 172.60485 101.67193 172.99733 101.73242 173.40625 C 101.80682 173.96322 102.08583 174.44948 102.29688 174.95898 C 102.37958 175.45812 102.58615 175.91923 102.75977 176.39062 C 102.88831 176.75266 102.92689 177.13661 102.99805 177.51172 C 103.06965 177.86916 103.09225 178.23327 103.11914 178.5957 C 103.17284 178.98606 103.25854 179.37081 103.35742 179.75195 C 103.46959 180.21681 103.58617 180.68143 103.71875 181.14062 C 103.79255 181.54739 103.93904 181.94595 103.9707 182.35938 C 104.021 182.68766 104.04175 183.01717 104.06055 183.34766 C 104.07505 183.49095 104.05644 183.63491 104.08984 183.77344 C 104.09184 183.73674 104.13315 183.73042 104.18945 183.73242 C 104.45342 183.95788 104.52108 183.88914 104.49609 183.74219 C 104.50209 183.74019 104.50847 183.74128 104.51367 183.73828 C 104.56517 183.71718 104.53683 183.62853 104.54883 183.57422 C 104.56473 183.50262 104.58136 183.43088 104.59766 183.35938 C 104.64776 183.11873 104.72131 182.89111 104.81836 182.66602 C 104.98836 182.28746 105.1397 181.9004 105.32617 181.5293 C 105.5352 181.10694 105.68516 180.66038 105.9043 180.24219 C 106.02321 179.92821 106.17206 179.63745 106.35547 179.35742 C 106.48871 179.18784 106.58251 178.99273 106.70117 178.81445 C 106.88814 178.51526 107.04154 178.20926 107.12305 177.86523 C 107.14205 177.50484 107.19928 177.16677 107.31055 176.82422 C 107.39555 176.47026 107.50967 176.12892 107.61523 175.78125 C 107.69163 175.47013 107.85601 175.19654 107.93555 174.88672 C 108.00725 174.56691 108.08341 174.25409 108.09961 173.92578 C 108.11861 173.64604 108.05082 173.35964 108.10352 173.08203 C 108.15322 172.91965 108.1665 172.68829 108.1875 172.55273 C 108.2684 172.38378 108.37687 172.23174 108.49414 172.08594 C 108.61205 171.94498 108.74646 171.73446 108.94141 171.70312 C 109.20377 171.77312 109.44565 171.92809 109.67578 172.06836 C 110.19338 172.44029 110.70469 172.81595 111.24414 173.15625 C 111.74784 173.48977 112.30855 173.71891 112.84375 173.99414 C 113.23036 174.20435 113.60903 174.42901 114.01172 174.60742 C 114.31912 174.72837 114.61025 174.87985 114.92383 174.98438 C 115.28809 175.08561 115.63132 175.24175 115.96875 175.41016 C 116.27928 175.57285 116.57371 175.76006 116.86328 175.95703 C 117.23045 176.17711 117.58112 176.42717 117.95898 176.62891 C 118.30687 176.804 118.66285 176.96357 119.01172 177.13672 C 119.32021 177.29088 119.63474 177.42608 119.95898 177.54297 C 120.20506 177.65362 120.46181 177.7412 120.7207 177.81641 C 120.85674 177.83281 120.9829 177.87662 121.11914 177.88672 C 121.72216 177.75406 121.17334 176.97295 121.02734 176.73242 C 120.75489 176.30167 120.50666 175.85589 120.22656 175.42969 C 119.97193 175.01628 119.68924 174.62148 119.42383 174.21484 C 119.15552 173.80712 118.86564 173.41608 118.5332 173.05859 C 118.18712 172.7177 117.8121 172.40851 117.42969 172.10938 C 117.09563 171.78967 116.69549 171.57108 116.28711 171.36328 C 116.00847 171.2353 115.74625 171.07489 115.49219 170.9043 C 115.2851 170.75678 115.07524 170.61055 114.85547 170.48242 C 114.58162 170.36252 114.31524 170.22217 114.03516 170.11719 C 113.86244 170.06279 113.70404 169.97901 113.54492 169.89453 C 113.36841 169.81793 113.25335 169.6767 113.13477 169.5332 C 112.99263 169.35467 112.81862 169.20572 112.66211 169.04102 C 112.58551 168.98112 112.51384 168.91604 112.43945 168.85352 C 112.36125 168.79932 112.31697 168.76988 112.2793 168.74414 C 112.40126 168.62381 112.51941 168.49969 112.63672 168.375 C 112.84632 168.13012 113.05402 167.88423 113.26758 167.64258 C 113.07714 167.69078 112.88 167.71143 112.68555 167.73633 C 112.65785 167.74033 112.63122 167.74309 112.60352 167.74609 C 112.55422 167.76549 112.5048 167.78463 112.45508 167.80273 C 112.44428 167.80673 112.43297 167.8092 112.42188 167.8125 C 112.36498 167.8792 112.30858 167.94658 112.25195 168.01367 C 112.19935 168.06967 111.7676 168.48031 111.75781 168.50977 C 111.71051 168.6523 111.72379 168.80956 111.67969 168.95312 C 111.67998 168.9525 111.68138 168.95593 111.68164 168.95508 C 111.73332 169.02404 111.788 169.06275 111.87109 169.10742 C 111.87162 169.1077 111.87252 169.10714 111.87305 169.10742 C 111.81515 169.04195 111.85141 169.08499 111.875 169.11133 L 111.87305 169.11133 C 111.86848 169.10977 111.85702 169.10523 111.87695 169.11523 L 111.88281 169.11523 C 111.89306 169.12103 111.90202 169.12654 111.91406 169.13281 C 111.91906 169.13481 111.89931 169.12469 111.88281 169.11719 C 111.88781 169.12219 111.89448 169.13101 111.89648 169.13281 C 111.96128 169.18791 112.03902 169.20983 112.10156 169.26562 C 112.16386 169.31393 112.22095 169.36919 112.28125 169.41211 C 112.43093 169.56356 112.59007 169.70656 112.72656 169.87109 C 112.88867 170.06622 113.05828 170.25313 113.29297 170.36328 C 113.47261 170.46328 113.65489 170.55636 113.85156 170.61914 C 114.10404 170.71164 114.33938 170.8447 114.58789 170.94727 C 114.79812 171.06818 114.99741 171.20979 115.19531 171.34961 C 115.46733 171.53224 115.7465 171.70463 116.04492 171.8418 C 116.42283 172.03411 116.79476 172.22909 117.10156 172.5293 C 117.4623 172.81136 117.8182 173.1023 118.14648 173.42188 C 118.45954 173.75602 118.73183 174.12208 118.98438 174.50391 C 119.25011 174.91117 119.53466 175.30377 119.79102 175.7168 C 120.06804 176.138 120.31674 176.57707 120.58789 177.00195 C 120.65259 177.10738 120.73081 177.21579 120.79297 177.32812 C 120.56598 177.26112 120.3418 177.18051 120.125 177.08594 C 119.81785 176.97533 119.52156 176.84125 119.22852 176.69727 C 118.88273 176.52764 118.53158 176.37263 118.1875 176.19922 C 117.82243 176.01085 117.48706 175.76573 117.12891 175.56445 C 116.81979 175.359 116.50434 175.16564 116.17383 174.99609 C 115.81554 174.82167 115.4481 174.66653 115.06445 174.55664 C 114.76334 174.45934 114.48761 174.30848 114.19141 174.19727 C 113.79429 174.02913 113.42383 173.80648 113.04297 173.60547 C 112.51727 173.33959 111.96875 173.11744 111.47461 172.79297 C 110.93187 172.45296 110.41911 172.07442 109.89648 171.70508 C 109.57137 171.51047 109.2134 171.26216 108.81836 171.30469 C 108.54582 171.40279 108.33192 171.58562 108.16602 171.82422 C 108.01866 172.00933 107.88354 172.20184 107.78906 172.41992 C 107.73796 172.6164 107.7457 172.82694 107.68555 173.02344 C 107.64735 173.31728 107.68264 173.6128 107.68164 173.9082 C 107.66984 174.20896 107.59427 174.49323 107.5332 174.78711 C 107.4624 175.09099 107.28057 175.35467 107.2168 175.66211 C 107.11375 176.00739 106.99913 176.34691 106.91406 176.69727 C 106.79911 177.05131 106.72758 177.40044 106.7168 177.77344 C 106.6541 178.07103 106.50906 178.32885 106.35352 178.58789 C 106.23717 178.76776 106.14322 178.96164 106.00977 179.13086 C 105.81681 179.42198 105.66202 179.72424 105.53711 180.05078 C 105.32069 180.4722 105.16128 180.9198 104.95508 181.3457 C 104.76518 181.72467 104.61244 182.11818 104.4375 182.50391 C 104.4285 182.52621 104.41926 182.54987 104.41016 182.57227 C 104.40016 182.48927 104.39045 182.40696 104.37695 182.32422 C 104.33025 181.88652 104.19981 181.46132 104.10938 181.03125 C 103.97902 180.57462 103.86034 180.11374 103.74805 179.65234 C 103.65485 179.29505 103.57749 178.93341 103.52148 178.56836 C 103.49538 178.19001 103.468 177.81066 103.39453 177.4375 C 103.31863 177.04087 103.27813 176.63599 103.13867 176.25391 C 102.9626 175.77651 102.7583 175.30911 102.66992 174.80469 C 102.46803 174.32702 102.20624 173.87226 102.13281 173.34961 C 102.08051 173.00547 102.06724 172.68386 102.21484 172.35742 C 102.33621 172.02777 102.48564 171.70219 102.50977 171.3457 C 102.48127 171.03314 102.38165 170.74427 102.07812 170.60547 C 101.86759 170.50917 101.65471 170.45642 101.42188 170.5 C 101.20246 170.5307 100.98257 170.55271 100.76562 170.59961 C 100.60027 170.61401 100.43075 170.62406 100.26953 170.66406 C 100.12284 170.69676 99.975827 170.70973 99.828125 170.73633 C 99.628764 170.74893 99.42291 170.75291 99.240234 170.84375 C 99.053393 170.90945 98.867937 170.95931 98.669922 170.98047 C 98.481632 171.03007 98.297673 171.04442 98.101562 171.01172 C 97.858626 170.99272 97.620434 170.96512 97.380859 170.91992 C 97.126207 170.89402 96.87383 170.84614 96.617188 170.83984 C 96.241799 170.79764 95.866003 170.74818 95.488281 170.80078 C 95.208044 170.82838 94.9243 170.85862 94.660156 170.96289 C 94.420753 171.05889 94.182427 171.14306 93.925781 171.18555 C 93.609574 171.26975 93.294843 171.31836 92.964844 171.32422 C 92.538963 171.36132 92.115379 171.42095 91.689453 171.45312 C 91.324619 171.50852 90.968589 171.61268 90.605469 171.67773 C 90.25691 171.77523 89.917669 171.89979 89.566406 171.98828 C 89.113764 172.11977 88.668356 172.27033 88.238281 172.46484 C 87.96032 172.56414 87.670789 172.62581 87.396484 172.73828 C 86.813607 172.96706 87.440092 172.72472 86.804688 172.96875 C 86.766468 172.98345 86.724766 173.00128 86.685547 173.01758 C 86.719717 172.99818 86.75339 172.97918 86.787109 172.95898 C 87.144519 172.72581 87.473501 172.45321 87.798828 172.17773 C 88.159045 171.91731 88.539202 171.68601 88.876953 171.39453 C 89.291807 171.07827 89.69885 170.75344 90.101562 170.42188 C 90.627801 170.04662 91.222972 169.79783 91.794922 169.50195 C 92.338911 169.20743 92.86021 168.87086 93.365234 168.51367 C 93.772417 168.2333 94.204715 168.0177 94.667969 167.84375 C 95.170554 167.65906 95.691038 167.52378 96.220703 167.44336 C 96.664936 167.37296 97.109241 167.30372 97.560547 167.33398 C 97.656137 167.32798 98.040573 167.29123 98.089844 167.18945 C 98.143074 167.07952 98.169368 166.95934 98.208984 166.84375 C 98.204984 166.84175 98.201346 166.83989 98.197266 166.83789 C 98.116966 166.80379 98.046021 166.75473 97.958984 166.74023 C 97.922704 166.71153 97.821646 166.64049 97.796875 166.63477 C 97.572702 166.53817 97.365003 166.41234 97.140625 166.31641 C 97.037652 166.24621 96.888972 166.15246 96.830078 166.14648 C 96.705187 166.07298 96.580919 165.99216 96.433594 165.97656 C 96.262319 165.89576 96.108741 165.78601 95.939453 165.70117 C 95.686821 165.58924 95.474404 165.38856 95.199219 165.32031 C 94.848324 165.19758 94.509976 165.0415 94.142578 164.96875 C 93.751746 164.85843 93.359436 164.75589 92.964844 164.66016 C 92.567604 164.54104 92.197069 164.34177 91.785156 164.26953 C 91.544284 164.21683 91.304157 164.15773 91.083984 164.04297 C 90.781565 163.92795 90.472598 163.82827 90.183594 163.67969 C 89.830888 163.53267 89.477883 163.38774 89.126953 163.23633 C 88.735724 163.00811 88.392052 162.72285 88.064453 162.41016 C 87.669353 162.02469 87.253779 161.65908 86.890625 161.24219 C 86.799635 161.13317 86.596433 160.85568 86.421875 160.66797 C 86.533557 160.67597 86.645969 160.68545 86.757812 160.68945 C 87.28728 160.76955 87.803933 160.90778 88.328125 161.01562 C 88.921525 161.16215 89.511591 161.32434 90.111328 161.44336 C 90.741658 161.54146 91.379048 161.59119 92.005859 161.71289 C 92.714162 161.85123 93.416451 162.02637 94.136719 162.0957 C 94.396334 162.1315 94.65416 162.17451 94.912109 162.21875 C 94.850709 162.13035 94.795737 162.03856 94.748047 161.94141 C 94.733647 161.90961 94.718808 161.8774 94.705078 161.8457 C 94.531175 161.8176 94.356328 161.78972 94.181641 161.76562 C 93.467565 161.69692 92.772501 161.52213 92.070312 161.38477 C 91.439795 161.261 90.798011 161.21037 90.164062 161.10938 C 89.574172 160.99061 88.994169 160.82769 88.410156 160.68359 C 87.876349 160.57222 87.34955 160.43043 86.810547 160.3457 C 86.577869 160.3387 86.346 160.30323 86.113281 160.29883 L 86.113281 160.29688 z M 85.150391 173.35547 C 85.150391 173.35547 85.148438 173.35352 85.148438 173.35352 C 85.138378 173.34752 85.103627 173.38391 85.123047 173.37891 C 85.132447 173.37191 85.141211 173.36317 85.150391 173.35547 z M 118.40234 164.54297 C 118.26527 164.60267 118.12148 164.64824 117.97656 164.68555 C 117.92726 164.69935 117.87894 164.71372 117.83008 164.72852 C 117.80728 164.77412 117.78331 164.8191 117.75781 164.86328 C 117.72931 164.91128 117.70093 164.95913 117.67383 165.00781 C 117.63793 165.06941 117.60817 165.13357 117.57617 165.19727 C 117.55517 165.23937 117.53237 165.28101 117.50977 165.32227 C 117.50577 165.33227 117.50245 165.34181 117.49805 165.34961 C 117.48905 165.36721 117.47915 165.38359 117.46875 165.40039 C 117.68443 165.32849 117.90109 165.25872 118.12109 165.19727 C 118.28721 165.15367 118.44855 165.09971 118.60742 165.03516 L 118.40234 164.54297 z M 85.439453 173.61133 C 85.439453 173.61133 85.441406 173.61328 85.441406 173.61328 C 85.439606 173.61413 85.437447 173.61423 85.435547 173.61523 C 85.436747 173.61423 85.438653 173.61133 85.439453 173.61133 z "
         d="m 86.119141,159.94727 0.0293,0.0293 a 0.35121326,0.35121326 0 0 0 -0.09766,-0.0254 c -0.02598,0.005 -0.01812,0.003 -0.05469,0.006 -0.01829,0.001 -0.05811,0.002 -0.121094,0.0273 -0.06298,0.0249 -0.125361,0.0767 -0.154297,0.11132 -0.05787,0.0692 -0.05464,0.0811 -0.07422,0.11328 -0.01958,0.0322 -0.04823,0.0794 -0.101562,0.1543 a 0.35121326,0.35121326 0 0 0 0.04102,0.45508 c 0.263284,0.25608 0.509588,0.55964 0.767578,0.86914 a 0.35121326,0.35121326 0 0 0 0.0039,0.004 c 0.390223,0.4527 0.822387,0.8319 1.216797,1.21679 a 0.35121326,0.35121326 0 0 0 0.0039,0.002 c 0.359496,0.3434 0.746563,0.66866 1.197266,0.92968 a 0.35121326,0.35121326 0 0 0 0.0332,0.0156 c 0.359938,0.15987 0.722428,0.30634 1.080078,0.45312 0.328933,0.17208 0.654074,0.27133 0.943359,0.38282 l -0.0332,-0.0156 c 0.284424,0.14539 0.573451,0.21386 0.835938,0.27149 a 0.35121326,0.35121326 0 0 0 0.01172,0.002 c 0.334548,0.0617 0.68599,0.24104 1.117188,0.37109 a 0.35121326,0.35121326 0 0 0 0.01953,0.006 c 0.393297,0.0935 0.784948,0.19277 1.173828,0.30078 a 0.35121326,0.35121326 0 0 0 0.0293,0.008 c 0.306407,0.0572 0.624353,0.19927 0.990234,0.32617 a 0.35121326,0.35121326 0 0 0 0.01758,0.006 c 0.165535,0.0478 0.357649,0.20829 0.658203,0.34961 0.140814,0.0743 0.29258,0.17601 0.488281,0.26953 a 0.35121326,0.35121326 0 0 0 0.101563,0.0312 c 0.04422,0.006 0.1098,0.0443 0.177734,0.082 -0.100512,0.0148 -0.214558,0.008 -0.3125,0.0234 -0.57833,0.0872 -1.143742,0.23723 -1.689453,0.43554 a 0.35121326,0.35121326 0 0 0 -0.0039,0.002 c -0.517171,0.19273 -1.005248,0.43762 -1.464843,0.75195 a 0.35121326,0.35121326 0 0 0 -0.002,0.002 c -0.486526,0.34066 -0.979498,0.65983 -1.492188,0.9375 -0.577817,0.29167 -1.198637,0.56311 -1.777344,0.97071 a 0.35121326,0.35121326 0 0 0 -0.01953,0.0156 c -0.40599,0.33226 -0.811459,0.6597 -1.224609,0.97461 a 0.35121326,0.35121326 0 0 0 -0.01563,0.0137 c -0.305749,0.26354 -0.675442,0.48736 -1.048828,0.75586 a 0.35121326,0.35121326 0 0 0 -0.01953,0.0156 c -0.323445,0.27072 -0.631294,0.53331 -0.957031,0.74218 -7.37e-4,4.8e-4 -0.0012,0.001 -0.002,0.002 -0.253074,0.14649 -0.533122,0.28006 -0.816406,0.44336 a 0.35121326,0.35121326 0 0 0 -0.06445,0.0469 c 0.02375,-0.0221 -0.0045,0.002 -0.08594,0.0215 -0.08146,0.019 -0.202657,0.0274 -0.357422,0.125 -0.04077,0.0257 -0.05997,0.0431 -0.08594,0.0644 -0.0043,0.002 -0.01374,0.006 -0.01758,0.008 -0.04525,0.0258 -0.06542,0.0452 -0.08984,0.0703 -0.01221,0.0126 -0.02396,0.0256 -0.03906,0.0469 -0.0076,0.0106 -0.01592,0.0232 -0.02539,0.041 -0.0095,0.0179 -0.03108,0.0775 -0.03125,0.0781 -8.6e-5,3.3e-4 -0.0097,0.07 -0.0098,0.0703 -1.6e-5,2.9e-4 0.0097,0.10523 0.0098,0.10547 5.8e-5,2.4e-4 0.05845,0.12677 0.05859,0.12695 1.38e-4,1.9e-4 0.109152,0.0936 0.109374,0.0937 1.22e-4,7e-5 0.02842,0.0109 0.05664,0.0215 0.0014,0.01 0.0027,0.0263 0.0039,0.0351 0.0035,0.0261 0.02884,0.10056 0.0293,0.10157 4.56e-4,0.001 0.114552,0.14208 0.115235,0.14258 6.82e-4,4.9e-4 0.198331,0.0664 0.199218,0.0664 4.44e-4,1e-5 0.07764,-0.006 0.07813,-0.006 4.91e-4,-9e-5 0.04091,-0.01 0.05664,-0.0156 0.10581,-0.0396 0.108241,-0.0635 0.123047,-0.084 0.0233,-0.006 0.07546,0.008 0.08789,0.004 0.04145,-0.0148 0.03038,-0.009 -0.01172,-0.004 -0.0016,4.1e-4 1.14e-4,0.002 0.01953,0.002 0.02713,8e-5 0.06279,-3.7e-4 0.09766,0 0.03486,3.6e-4 0.06955,-3.4e-4 0.0957,0 0.02615,3.3e-4 0.01396,0.002 0.05078,0.002 a 0.35121326,0.35121326 0 0 0 0.01953,0 c 0.654036,-0.0378 1.20833,-0.33081 1.699219,-0.52344 a 0.35121326,0.35121326 0 0 0 0.002,0 c 0.237873,-0.0951 0.513947,-0.15941 0.8125,-0.26367 a 0.35121326,0.35121326 0 0 0 0.0293,-0.0117 c 0.40039,-0.18001 0.816344,-0.32398 1.246093,-0.44922 l 0.01367,-0.004 c 0.373188,-0.0921 0.708926,-0.21994 1.029297,-0.30665 0.367743,-0.0594 0.694866,-0.1607 0.990234,-0.19921 0.419752,-0.0307 0.82388,-0.0854 1.216797,-0.11914 0.375356,-0.009 0.73575,-0.0669 1.091797,-0.16016 0.30203,-0.0532 0.57741,-0.14602 0.837891,-0.25 0.168178,-0.0653 0.380354,-0.0894 0.625,-0.11328 a 0.35121326,0.35121326 0 0 0 0.01758,-0.002 c 0.284255,-0.0411 0.597357,0.001 0.951172,0.043 a 0.35121326,0.35121326 0 0 0 0.02734,0.002 c 0.222246,0.009 0.468397,0.0555 0.746093,0.084 l -0.0332,-0.006 c 0.255128,0.0512 0.505317,0.0797 0.753907,0.0996 0.279021,0.0398 0.55516,0.0183 0.820312,-0.0488 0.23484,-0.0264 0.451113,-0.0843 0.650391,-0.15429 a 0.35121326,0.35121326 0 0 0 0.04883,-0.0234 c 0.04619,-0.0248 0.149085,-0.0312 0.33789,-0.0449 a 0.35121326,0.35121326 0 0 0 0.0293,-0.002 c 0.161844,-0.0251 0.337914,-0.0468 0.525394,-0.0879 a 0.35121326,0.35121326 0 0 0 0.01,-0.004 c 0.0991,-0.0253 0.22824,-0.0341 0.38281,-0.0469 a 0.35121326,0.35121326 0 0 0 0.041,-0.006 c 0.20377,-0.0412 0.42311,-0.0656 0.65625,-0.0977 a 0.35121326,0.35121326 0 0 0 0.0312,-0.006 c 0.0537,-0.0124 0.0965,0.002 0.18164,0.0391 0.001,0.007 0.003,0.0319 0.006,0.0586 -0.0394,0.22165 -0.13484,0.45652 -0.23437,0.72852 -0.20866,0.47314 -0.18935,0.94783 -0.125,1.38281 0.0868,0.64274 0.38889,1.15632 0.58789,1.63672 l -0.0215,-0.0781 c 0.0924,0.55777 0.31045,1.03978 0.47852,1.4961 0.10888,0.30845 0.14791,0.6724 0.22265,1.0664 a 0.35121326,0.35121326 0 0 0 0.002,0.002 c 0.0654,0.32636 0.0881,0.67576 0.11523,1.04101 a 0.35121326,0.35121326 0 0 0 0.002,0.0234 c 0.0563,0.40947 0.14518,0.80631 0.2461,1.19531 0.11146,0.46177 0.22818,0.92669 0.36133,1.38868 9.2e-4,0.003 0.001,0.007 0.002,0.01 0.082,0.43065 0.21435,0.81048 0.24023,1.14844 a 0.35121326,0.35121326 0 0 0 0.002,0.0254 c 0.0472,0.3078 0.0672,0.626 0.0859,0.95508 a 0.35121326,0.35121326 0 0 0 0.002,0.0156 c 0.009,0.0899 -0.0162,0.25134 0.0371,0.47266 a 0.35121326,0.35121326 0 0 0 0.3789,0.26172 c 0.02,0.0127 0.0397,0.0319 0.0606,0.043 0.0779,0.0416 0.16898,0.088 0.31836,0.0645 0.14938,-0.0235 0.29379,-0.18118 0.32617,-0.29102 0.008,-0.0275 -0.001,-0.0391 0.002,-0.0625 0.006,-0.0117 0.027,-0.0204 0.0312,-0.0312 0.0302,-0.0766 0.0303,-0.12762 0.0312,-0.16211 0.002,-0.069 0.0114,-0.0964 -0.004,-0.0273 0.0154,-0.0695 0.0304,-0.14055 0.0469,-0.21289 a 0.35121326,0.35121326 0 0 0 0.002,-0.006 c 0.0451,-0.21677 0.1107,-0.42167 0.19921,-0.62695 0.17362,-0.3871 0.32418,-0.76727 0.5,-1.11719 a 0.35121326,0.35121326 0 0 0 0,-0.002 c 0.22307,-0.45071 0.37222,-0.89576 0.57422,-1.28125 a 0.35121326,0.35121326 0 0 0 0.0176,-0.0371 c 0.10997,-0.29036 0.24594,-0.55673 0.41602,-0.81641 l -0.0176,0.0234 c 0.16462,-0.20952 0.2628,-0.41349 0.36328,-0.56445 a 0.35121326,0.35121326 0 0 0 0.004,-0.01 c 0.19825,-0.31724 0.37327,-0.65993 0.46679,-1.05469 a 0.35121326,0.35121326 0 0 0 0.01,-0.0625 c 0.0177,-0.33489 0.0687,-0.63759 0.16992,-0.94922 a 0.35121326,0.35121326 0 0 0 0.008,-0.0273 c 0.0803,-0.33441 0.19139,-0.66958 0.29883,-1.02344 a 0.35121326,0.35121326 0 0 0 0.006,-0.0176 c 0.06,-0.24413 0.22222,-0.51616 0.31836,-0.89062 a 0.35121326,0.35121326 0 0 0 0.002,-0.0117 c 0.0704,-0.31385 0.1529,-0.64486 0.17188,-1.01367 0.0239,-0.35225 -0.0342,-0.62087 0,-0.80078 l -0.01,0.0371 c 0.0636,-0.20788 0.0712,-0.39685 0.084,-0.51172 0.0618,-0.12067 0.1414,-0.24005 0.24023,-0.36328 l 0.004,-0.004 c 0.11591,-0.13752 0.17256,-0.18716 0.18945,-0.21094 0.16593,0.063 0.33878,0.15375 0.53516,0.27344 0.50855,0.36565 1.01867,0.73969 1.56445,1.08398 0.54018,0.35656 1.11193,0.58867 1.62695,0.85352 0.37655,0.20499 0.76036,0.43271 1.18555,0.62109 a 0.35121326,0.35121326 0 0 0 0.0137,0.006 c 0.28474,0.11204 0.58141,0.26867 0.92969,0.38477 a 0.35121326,0.35121326 0 0 0 0.0176,0.004 c 0.32933,0.0915 0.65253,0.23769 0.98242,0.40234 0.29107,0.15293 0.5719,0.33188 0.85352,0.52344 a 0.35121326,0.35121326 0 0 0 0.0176,0.01 c 0.35113,0.21047 0.70479,0.46563 1.10938,0.68164 a 0.35121326,0.35121326 0 0 0 0.008,0.004 c 0.35729,0.17982 0.71407,0.33876 1.05469,0.50781 0.31229,0.15606 0.63069,0.29264 0.95898,0.41211 0.005,0.002 0.0105,0.004 0.0156,0.006 0.003,0.001 0.006,0.003 0.01,0.004 0.25814,0.11425 0.52244,0.20549 0.78321,0.28125 a 0.35121326,0.35121326 0 0 0 0.0547,0.0117 c 0.0879,0.0106 0.22105,0.0558 0.41602,0.0703 a 0.35121326,0.35121326 0 0 0 0.10156,-0.006 c 0.2323,-0.0511 0.44901,-0.2264 0.51758,-0.4375 0.0686,-0.21111 0.0269,-0.39486 -0.0254,-0.55274 -0.10451,-0.31575 -0.30016,-0.59189 -0.35938,-0.68945 a 0.35121326,0.35121326 0 0 0 -0.004,-0.006 c -0.26348,-0.41657 -0.51204,-0.86145 -0.79883,-1.29883 l -0.006,-0.01 c -0.26142,-0.42345 -0.54291,-0.8178 -0.80078,-1.21289 a 0.35121326,0.35121326 0 0 0 -0.002,-0.002 c -0.27548,-0.41861 -0.5757,-0.82471 -0.92578,-1.20117 a 0.35121326,0.35121326 0 0 0 -0.0117,-0.0117 c -0.35248,-0.34719 -0.7293,-0.65661 -1.10742,-0.95312 -0.3775,-0.36128 -0.81015,-0.59379 -1.22461,-0.80469 a 0.35121326,0.35121326 0 0 0 -0.0137,-0.006 c -0.25058,-0.11509 -0.49522,-0.26293 -0.73828,-0.42578 l -0.008,-0.006 c -0.20674,-0.1472 -0.42102,-0.29759 -0.6543,-0.43359 a 0.35121326,0.35121326 0 0 0 -0.0371,-0.0195 c -0.25826,-0.11308 -0.53001,-0.2557 -0.83789,-0.3711 a 0.35121326,0.35121326 0 0 0 -0.0176,-0.006 c -0.13285,-0.0418 -0.27284,-0.11491 -0.43164,-0.19922 a 0.35121326,0.35121326 0 0 0 -0.0234,-0.0117 c -0.083,-0.036 -0.1597,-0.11895 -0.2793,-0.26368 -0.16845,-0.21014 -0.35179,-0.36407 -0.49023,-0.50976 a 0.35121326,0.35121326 0 0 0 -0.0371,-0.0352 c -0.0214,-0.0167 -0.0494,-0.0412 -0.0723,-0.0605 0.0279,-0.0294 0.0584,-0.0586 0.0859,-0.0879 a 0.35121326,0.35121326 0 0 0 0.0117,-0.0117 c 0.21059,-0.24604 0.41685,-0.49079 0.62695,-0.72852 a 0.35121326,0.35121326 0 0 0 -0.34961,-0.57227 c -0.15768,0.0399 -0.34117,0.0603 -0.54102,0.0859 a 0.35121326,0.35121326 0 0 0 -0.006,0 c -0.0188,0.003 -0.0396,0.005 -0.0684,0.008 a 0.35121326,0.35121326 0 0 0 -0.0918,0.0234 c -0.0481,0.0189 -0.0954,0.0363 -0.14063,0.0527 0.0199,-0.007 0.016,-0.004 -0.0117,0.004 a 0.35121326,0.35121326 0 0 0 -0.16797,0.10742 c -0.055,0.0644 -0.10729,0.12872 -0.16016,0.19141 0.006,-0.007 -0.13571,0.13226 -0.25195,0.24609 -0.0586,0.0574 -0.11604,0.11319 -0.16211,0.16016 -0.023,0.0235 -0.042,0.0441 -0.0605,0.0645 -0.009,0.0102 -0.0178,0.0208 -0.0293,0.0352 -0.006,0.007 -0.012,0.0153 -0.0215,0.0293 -0.005,0.007 -0.0105,0.0145 -0.0176,0.0273 -0.007,0.0128 -0.0272,0.0601 -0.0273,0.0606 -0.0778,0.23447 -0.0629,0.39534 -0.0801,0.45117 a 0.35121326,0.35121326 0 0 0 0.12695,0.26367 l -0.0684,0.0527 c 8.7e-4,0.001 0.001,0.003 0.002,0.004 1.9e-4,2.8e-4 0.002,0.002 0.002,0.002 0.01,0.0127 0.0246,0.0154 0.0352,0.0273 -2.7e-4,2.7e-4 -0.006,0.006 -0.006,0.006 0.0146,0.0134 0.0332,0.0293 0.0332,0.0293 0,0 0.006,-0.007 0.006,-0.008 0.0377,0.038 0.0762,0.0665 0.11719,0.0957 0.002,0.002 0.004,0.004 0.006,0.006 0.0178,0.0222 0.0351,0.0449 0.0352,0.0449 8e-5,6e-5 0.0168,0.0121 0.0293,0.0215 a 0.35121326,0.35121326 0 0 0 0.008,0.006 c 0.003,0.002 0.001,-1.1e-4 0.004,0.002 5.3e-4,3.7e-4 0.002,0.002 0.002,0.002 0.008,0.005 0.0117,0.008 0.0156,0.01 0.10866,0.0853 0.1858,0.12222 0.17578,0.11328 a 0.35121326,0.35121326 0 0 0 0.0195,0.0156 c 0.0329,0.0255 0.0894,0.0732 0.15039,0.12109 0.15706,0.15851 0.30679,0.29527 0.41992,0.43164 0.16758,0.20172 0.37273,0.43445 0.68359,0.58203 0.18257,0.10117 0.37749,0.20324 0.60352,0.27539 l -0.0137,-0.004 c 0.20599,0.0755 0.42963,0.19719 0.6875,0.30664 0.18872,0.10904 0.3778,0.24209 0.57422,0.38086 a 0.35121326,0.35121326 0 0 0 0.008,0.004 c 0.27943,0.18761 0.57408,0.37045 0.89844,0.51954 l -0.0137,-0.006 c 0.3754,0.19103 0.71098,0.37281 0.9707,0.62695 a 0.35121326,0.35121326 0 0 0 0.0293,0.0254 c 0.35412,0.27689 0.69787,0.55848 1.00976,0.86133 0.29308,0.31357 0.55274,0.66019 0.79688,1.0293 0.27151,0.41596 0.5537,0.807 0.80078,1.20507 a 0.35121326,0.35121326 0 0 0 0.006,0.008 c 0.14969,0.2276 0.29573,0.47445 0.4414,0.71484 -0.18555,-0.0775 -0.37142,-0.15118 -0.55664,-0.24219 -0.35344,-0.17338 -0.7024,-0.32849 -1.03515,-0.49609 l -0.002,-0.002 c -0.32451,-0.16775 -0.6503,-0.40234 -1.02148,-0.61329 l -0.0234,-0.0137 c -0.30928,-0.20478 -0.62871,-0.40078 -0.9668,-0.57422 a 0.35121326,0.35121326 0 0 0 -0.006,-0.004 c -0.36646,-0.1784 -0.7494,-0.33962 -1.15624,-0.45703 l -0.002,-0.002 c -0.003,-7.5e-4 -0.005,-0.001 -0.008,-0.002 -0.25705,-0.0844 -0.52446,-0.22826 -0.84766,-0.34961 l 0.0137,0.004 c -0.36682,-0.15532 -0.72869,-0.37103 -1.12109,-0.57813 a 0.35121326,0.35121326 0 0 0 -0.006,-0.002 c -0.54319,-0.27473 -1.07726,-0.49358 -1.5332,-0.79297 a 0.35121326,0.35121326 0 0 0 -0.008,-0.004 c -0.5277,-0.33058 -1.03397,-0.70599 -1.56055,-1.07812 a 0.35121326,0.35121326 0 0 0 -0.0234,-0.0137 c -0.30963,-0.18535 -0.73279,-0.50974 -1.29492,-0.44922 a 0.35121326,0.35121326 0 0 0 -0.082,0.0195 c -0.34413,0.12387 -0.61636,0.35747 -0.81445,0.63867 -0.15418,0.19423 -0.30629,0.41018 -0.41797,0.66797 a 0.35121326,0.35121326 0 0 0 -0.0176,0.0508 c -0.0687,0.26399 -0.0625,0.46659 -0.0996,0.58789 a 0.35121326,0.35121326 0 0 0 -0.0117,0.0586 c -0.0451,0.34667 -0.008,0.65163 -0.008,0.91601 -0.01,0.25073 -0.077,0.5141 -0.14063,0.82031 -0.0526,0.21716 -0.23449,0.48008 -0.3164,0.875 -0.0962,0.32027 -0.20647,0.64835 -0.29297,0.99805 -2e-4,6.1e-4 2e-4,0.001 0,0.002 -0.12234,0.37726 -0.20297,0.76298 -0.21485,1.17383 l 0.008,-0.0625 c -0.0486,0.23072 -0.16812,0.4516 -0.32032,0.70508 -0.12806,0.1995 -0.21795,0.38049 -0.31835,0.50781 a 0.35121326,0.35121326 0 0 0 -0.0176,0.0234 c -0.20703,0.31234 -0.37415,0.63886 -0.50782,0.98828 -0.22073,0.43692 -0.38048,0.8755 -0.57031,1.26758 -0.0356,0.0711 -0.0607,0.13803 -0.0937,0.20898 -0.0348,-0.14339 -0.0631,-0.30675 -0.0918,-0.44336 a 0.35121326,0.35121326 0 0 0 -0.006,-0.0234 c -0.12869,-0.45076 -0.24587,-0.90882 -0.35743,-1.36719 a 0.35121326,0.35121326 0 0 0 -0.002,-0.004 c -0.0906,-0.34721 -0.16482,-0.69732 -0.21875,-1.04883 l 0.002,0.0293 c -0.0262,-0.37909 -0.0538,-0.77458 -0.13281,-1.17578 l 0.002,0.002 c -0.0719,-0.37595 -0.11213,-0.80171 -0.27148,-1.23828 -0.18084,-0.49032 -0.37426,-0.93854 -0.45313,-1.38867 a 0.35121326,0.35121326 0 0 0 -0.0215,-0.0762 c -0.21315,-0.50432 -0.45234,-0.93062 -0.51367,-1.36719 a 0.35121326,0.35121326 0 0 0 0,-0.004 c -0.0487,-0.32074 -0.054,-0.55459 0.0547,-0.79493 a 0.35121326,0.35121326 0 0 0 0.01,-0.0234 c 0.11498,-0.31231 0.2847,-0.6698 0.31446,-1.10938 a 0.35121326,0.35121326 0 0 0 0,-0.0547 c -0.0335,-0.36677 -0.19008,-0.82594 -0.63477,-1.02929 -0.2473,-0.11312 -0.54479,-0.19025 -0.86523,-0.13086 h -0.002 c -0.20636,0.0284 -0.42888,0.0503 -0.66601,0.10156 -0.14814,0.0121 -0.31355,0.0216 -0.49805,0.0664 -0.1173,0.0261 -0.259626,0.0381 -0.427735,0.0684 l 0.04102,-0.004 c -0.18882,0.0119 -0.449461,0.007 -0.722657,0.14258 l 0.03906,-0.0176 c -0.17069,0.06 -0.327139,0.10171 -0.490235,0.11914 a 0.35121326,0.35121326 0 0 0 -0.05273,0.01 c -0.149939,0.0395 -0.275394,0.0495 -0.419922,0.0254 a 0.35121326,0.35121326 0 0 0 -0.03125,-0.004 c -0.234369,-0.0183 -0.460097,-0.0457 -0.683594,-0.0879 a 0.35121326,0.35121326 0 0 0 -0.0293,-0.004 c -0.230475,-0.0234 -0.488954,-0.0715 -0.777344,-0.0801 -0.0042,-4.7e-4 -0.0095,-0.001 -0.01367,-0.002 -0.362023,-0.0412 -0.755514,-0.0938 -1.181641,-0.0352 h -0.0039 c -0.279021,0.0275 -0.590465,0.0582 -0.908203,0.1836 a 0.35121326,0.35121326 0 0 0 -0.002,0 c -0.230491,0.0924 -0.442677,0.16712 -0.660156,0.20312 a 0.35121326,0.35121326 0 0 0 -0.0332,0.006 c -0.292693,0.0779 -0.577462,0.12164 -0.876954,0.12696 a 0.35121326,0.35121326 0 0 0 -0.02539,0.002 c -0.438236,0.0382 -0.860621,0.0979 -1.271485,0.12891 a 0.35121326,0.35121326 0 0 0 -0.02539,0.002 c -0.395901,0.0601 -0.75546,0.16596 -1.09375,0.22656 a 0.35121326,0.35121326 0 0 0 -0.03125,0.008 c -0.366356,0.10248 -0.703749,0.22609 -1.03125,0.3086 a 0.35121326,0.35121326 0 0 0 -0.01172,0.002 c -0.231856,0.0674 -0.459233,0.16659 -0.689453,0.24805 0.110991,-0.0821 0.217451,-0.14446 0.326172,-0.23828 0.409193,-0.31232 0.810727,-0.63095 1.207031,-0.95704 0.482683,-0.34265 1.058368,-0.58543 1.644531,-0.88867 a 0.35121326,0.35121326 0 0 0 0.0059,-0.004 c 0.558608,-0.30244 1.089518,-0.64581 1.601562,-1.00782 l 0.0039,-0.002 c 0.379041,-0.26051 0.781915,-0.462 1.220703,-0.62695 0.481018,-0.17677 0.97874,-0.30604 1.484376,-0.38281 a 0.35121326,0.35121326 0 0 0 0.002,0 c 0.443638,-0.0703 0.861441,-0.13426 1.261718,-0.10743 a 0.35121326,0.35121326 0 0 0 0.04492,0 c 0.06316,-0.004 0.188526,-0.0133 0.328125,-0.041 0.0698,-0.0139 0.142473,-0.0311 0.220703,-0.0625 0.07823,-0.0314 0.188646,-0.0591 0.275391,-0.23828 0.07721,-0.15946 0.103903,-0.29472 0.134766,-0.38477 a 0.35121326,0.35121326 0 0 0 -0.175782,-0.42773 c -0.0023,-0.001 -0.0064,-0.002 -0.01367,-0.006 a 0.35121326,0.35121326 0 0 0 -0.01758,-0.008 c -0.02162,-0.009 -0.116457,-0.0417 -0.183593,-0.0703 -0.02524,-0.019 -0.05153,-0.0381 -0.08203,-0.0586 -0.02034,-0.0136 -0.03895,-0.0272 -0.0625,-0.041 -0.02354,-0.0138 -0.0204,-0.0272 -0.130859,-0.0527 l 0.06055,0.0195 c -0.183124,-0.0789 -0.383121,-0.19482 -0.617188,-0.29883 -0.05277,-0.0356 -0.110475,-0.075 -0.173828,-0.11133 -0.07034,-0.0404 -0.0959,-0.0868 -0.279297,-0.10546 l 0.142578,0.0469 c -0.115667,-0.0681 -0.284044,-0.19 -0.537109,-0.2168 l 0.113281,0.0312 c -0.133558,-0.063 -0.284644,-0.17041 -0.486328,-0.27148 a 0.35121326,0.35121326 0 0 0 -0.01563,-0.006 c -0.177155,-0.0785 -0.408516,-0.30554 -0.798828,-0.40234 -0.321772,-0.11474 -0.663146,-0.27251 -1.072265,-0.35352 l 0.02734,0.006 c -0.38867,-0.10971 -0.779935,-0.21131 -1.171875,-0.30664 l -0.01172,-0.004 c -0.0026,-6.3e-4 -0.0052,-0.001 -0.0078,-0.002 -0.347013,-0.10695 -0.724018,-0.31085 -1.201172,-0.39453 l 0.01367,0.002 c -0.234925,-0.0514 -0.442092,-0.10413 -0.613281,-0.19336 a 0.35121326,0.35121326 0 0 0 -0.03711,-0.0176 c -0.31369,-0.1193 -0.609943,-0.2164 -0.865234,-0.34765 a 0.35121326,0.35121326 0 0 0 -0.02539,-0.0117 c -0.343289,-0.1431 -0.684473,-0.28275 -1.021484,-0.42774 -0.354001,-0.20769 -0.673765,-0.47147 -0.986328,-0.76953 l -0.0039,-0.002 c -0.349618,-0.34093 -0.687472,-0.66007 -0.998047,-0.99414 0.308668,0.0662 0.611838,0.1284 0.935547,0.19531 0.587449,0.14506 1.18248,0.30737 1.798828,0.42969 a 0.35121326,0.35121326 0 0 0 0.01367,0.004 c 0.648056,0.10085 1.282157,0.15095 1.882812,0.26757 v -0.002 c 0.696437,0.13602 1.409319,0.31602 2.164063,0.38867 0.247978,0.0345 0.498317,0.076 0.75,0.11914 a 0.35121326,0.35121326 0 0 0 0.347656,-0.54687 c -0.05245,-0.0755 -0.09946,-0.1506 -0.138672,-0.23047 -0.0131,-0.0289 -0.02494,-0.0565 -0.03516,-0.0801 a 0.35121326,0.35121326 0 0 0 -0.265625,-0.20898 c -0.174386,-0.0282 -0.351667,-0.0553 -0.53125,-0.0801 a 0.35121326,0.35121326 0 0 0 -0.01563,-0.002 c -0.679179,-0.0653 -1.361748,-0.23525 -2.076172,-0.375 -0.656953,-0.12896 -1.304329,-0.18124 -1.919922,-0.2793 -0.568131,-0.1151 -1.138024,-0.27519 -1.724609,-0.41992 a 0.35121326,0.35121326 0 0 0 -0.01172,-0.002 c -0.52069,-0.10863 -1.053488,-0.25318 -1.617188,-0.34179 a 0.35121326,0.35121326 0 0 0 -0.04492,-0.004 c -0.204046,-0.006 -0.437196,-0.0419 -0.701171,-0.0469 z m 25.283199,9.21875 c -0.0372,-0.069 0.0142,0.003 0,0 z m 7.13086,-4.94922 c -0.2756,-0.0622 -0.8301,0.16945 -0.64453,0.1289 -0.19193,0.022 -0.50475,0.52092 -0.43555,0.3418 -0.0927,0.15099 -0.3366,0.62194 -0.25195,0.4668 -0.17391,-0.0707 0.58356,5.3933 0.37891,0.58008 0.21202,-0.0707 0.42102,-0.13855 0.63086,-0.19727 l 0.004,-0.002 c 0.17946,-0.0473 0.35428,-0.10431 0.52539,-0.17383 a 0.35121326,0.35121326 0 0 0 0.19141,-0.46094 l -0.20508,-0.49219 a 0.35121326,0.35121326 0 0 0 -0.19336,-0.1914 z m -33.101559,9.32812 0.21875,0.32617 -0.128907,0.0645 -0.208984,-0.0254 -0.119141,-0.0488 v -0.002 l 0.02539,-0.14454 a 0.35121326,0.35121326 0 0 0 0.113281,-0.0547 c 0.03785,-0.0282 0.05167,-0.0408 0.04492,-0.0352 a 0.35121326,0.35121326 0 0 0 0.05469,-0.0801 z m -0.05078,0.39258 c 0.05634,0.0216 0.08017,0.007 0.126953,0.006 l -0.02344,0.0117 c -0.02102,0.004 -0.04494,0.008 -0.04492,0.008 z m 19.060551,9.85547 c -0.005,0.12812 -0.41861,0.26503 -0.27735,0.28515 a 0.35121326,0.35121326 0 0 0 0.27735,-0.28515 z m 0.24804,0.25 c -0.0143,0.007 -0.0404,0.0169 -0.0391,0.0156 0.0172,-0.003 -0.0298,0.0241 0.0391,-0.0156 z" />
      <path
         id="path1164"
         style="display:inline;fill:#000000;stroke-width:0.874001"
         sodipodi:type="inkscape:offset"
         inkscape:radius="0.45704597"
         inkscape:original="M 107.14844 160.11133 C 107.13204 160.13043 107.11631 160.14651 107.09961 160.16211 C 107.09661 160.16711 107.09284 160.17439 107.08984 160.17969 C 107.11264 160.16199 107.13414 160.14506 107.15234 160.13086 C 107.15134 160.12286 107.14944 160.11953 107.14844 160.11133 z M 107.8457 160.58203 C 107.8612 160.64813 107.87658 160.71332 107.89258 160.7793 C 107.88458 160.7354 107.87413 160.69142 107.86133 160.64258 C 107.86112 160.62978 107.8537 160.60603 107.8457 160.58203 z M 118.74609 162.98047 C 118.73909 162.99597 118.73366 163.01204 118.72656 163.02734 C 118.70016 163.08644 118.67253 163.14477 118.64062 163.20117 C 118.61213 163.25337 118.58314 163.30617 118.55664 163.35938 C 118.55264 163.36638 118.55027 163.37356 118.54688 163.38086 C 118.68779 163.37486 118.82735 163.37291 118.96875 163.37891 C 119.37556 163.38291 119.7836 163.40878 120.18945 163.35938 C 120.57334 163.35538 120.95552 163.37871 121.33789 163.41211 C 121.14094 163.51407 120.94405 163.61336 120.73438 163.6875 C 120.47576 163.787 120.19531 163.83926 119.96484 164.00195 C 119.76384 164.1228 119.55292 164.22085 119.3418 164.32227 C 119.10731 164.46568 118.8882 164.6364 118.64062 164.75977 C 118.36722 164.90929 118.10513 165.08165 117.8457 165.25391 C 117.70055 165.34351 117.55058 165.42475 117.40039 165.50586 C 117.35399 165.57746 117.3061 165.6473 117.25391 165.71484 C 117.19261 165.79414 117.12886 165.87127 117.06836 165.95117 C 117.02536 166.00727 116.98322 166.06283 116.93359 166.11328 C 117.06233 166.05708 117.18976 165.99963 117.31445 165.93359 C 117.55328 165.80928 117.7934 165.68947 118.02539 165.55273 C 118.28546 165.391 118.54296 165.21986 118.8125 165.07422 C 119.06754 164.95449 119.28414 164.77142 119.52539 164.63086 C 119.73765 164.53216 119.94919 164.43272 120.15039 164.3125 C 120.36409 164.16494 120.62177 164.11336 120.86133 164.02344 C 121.12879 163.92754 121.38154 163.79911 121.63281 163.66797 C 121.76357 163.60927 121.87659 163.52188 122 163.45117 C 121.997 163.45109 121.99514 163.45027 121.99414 163.44727 C 121.97644 163.41847 121.96537 163.3992 121.95117 163.375 C 122.21411 163.03678 122.03097 163.06292 121.85547 163.11719 C 121.84297 163.12419 121.83076 163.13127 121.81836 163.13867 C 121.77386 163.07187 121.74505 163.10729 121.47852 163.05859 C 121.04961 163.01609 120.62055 162.98502 120.18945 162.98242 C 119.78522 163.02462 119.38112 162.99818 118.97656 162.98828 C 118.90046 162.98428 118.82418 162.98242 118.74805 162.98242 L 118.74609 162.98047 z M 122.0332 163.43359 C 122.022 163.43959 122.01295 163.44487 122.00195 163.45117 C 122.01285 163.4515 122.0291 163.43679 122.0332 163.43359 z M 114.17383 167.4668 C 114.14753 167.4738 114.1223 167.47978 114.0957 167.48438 C 114.0571 167.49238 114.0178 167.49219 113.97852 167.49219 C 113.95402 167.49152 113.9288 167.49123 113.9043 167.49023 C 113.8854 167.49623 113.86656 167.50347 113.84766 167.50977 C 113.81876 167.51977 113.78917 167.52871 113.75977 167.53711 C 113.78067 167.55411 113.80322 167.56894 113.82422 167.58594 C 113.94398 167.55554 114.05969 167.51489 114.17383 167.4668 z M 113.61914 167.56641 C 113.58814 167.57141 113.55864 167.57583 113.52734 167.57812 C 113.51934 167.57885 113.51161 167.57908 113.50391 167.58008 C 113.44091 167.59768 113.37784 167.61486 113.31445 167.63086 C 113.19684 167.66366 113.07542 167.68377 112.95508 167.70117 C 112.69021 167.86379 112.43503 168.03293 112.14453 168.21875 L 112.25195 168.37891 C 112.70152 168.1004 113.13681 167.7884 113.61914 167.56836 L 113.61914 167.56641 z "
         d="m 107.28125,159.67383 a 0.45709168,0.45709168 0 0 0 -0.48047,0.14062 c -0.005,0.006 -0.007,0.007 -0.0137,0.0137 a 0.45709168,0.45709168 0 0 0 -0.0801,0.0996 c -0.0168,0.028 -0.0202,0.0353 -0.0156,0.0274 a 0.45709168,0.45709168 0 0 0 0.67773,0.58594 c 0.0244,-0.0189 0.0475,-0.0376 0.0644,-0.0508 a 0.45709168,0.45709168 0 0 0 0.17188,-0.41601 c -0.008,-0.0632 -0.01,-0.0637 -0.004,-0.0176 a 0.45709168,0.45709168 0 0 0 -0.32031,-0.38281 z m 0.43945,0.46875 a 0.45709168,0.45709168 0 0 0 -0.32031,0.54297 c 0.0156,0.0665 0.0324,0.13337 0.0488,0.20117 a 0.45709168,0.45709168 0 0 0 0.89258,-0.18945 c -0.0109,-0.06 -0.0247,-0.11501 -0.0391,-0.16993 l 0.0156,0.10743 c -0.003,-0.18009 -0.0293,-0.16789 -0.0391,-0.19727 a 0.45709168,0.45709168 0 0 0 -0.5586,-0.29492 z m 11.02735,2.38281 0.30859,0.12695 a 0.45709168,0.45709168 0 0 0 -0.72656,0.14063 c -0.0193,0.0427 -0.0245,0.0558 -0.0176,0.041 a 0.45709168,0.45709168 0 0 0 -0.004,0.008 c -0.0236,0.0529 -0.0453,0.0975 -0.0664,0.13476 a 0.45709168,0.45709168 0 0 0 -0.002,0.006 c -0.0281,0.0515 -0.0598,0.10955 -0.0918,0.17383 -0.007,0.0143 -0.0217,0.0442 -0.0156,0.0312 a 0.45709168,0.45709168 0 0 0 0.4336,0.65039 c 0.1323,-0.006 0.25833,-0.007 0.38281,-0.002 a 0.45709168,0.45709168 0 0 0 0.0156,0 c 0.10253,0.001 0.22825,-0.008 0.33594,-0.006 -0.0548,0.0265 -0.0989,0.0525 -0.15625,0.0801 a 0.45709168,0.45709168 0 0 0 -0.041,0.0215 c -0.26412,0.16153 -0.47274,0.32361 -0.66602,0.41992 a 0.45709168,0.45709168 0 0 0 -0.0156,0.008 c -0.29525,0.16146 -0.56757,0.34066 -0.82813,0.51367 -0.12736,0.078 -0.26465,0.15189 -0.41016,0.23047 a 0.45709168,0.45709168 0 0 0 -0.16601,0.15429 c -0.0421,0.065 -0.0833,0.12378 -0.125,0.17774 -0.0552,0.0714 -0.12113,0.15 -0.18946,0.24023 -0.0427,0.0557 -0.0734,0.0945 -0.0957,0.11719 a 0.45709168,0.45709168 0 0 0 0.50977,0.73828 c 0.13079,-0.0571 0.268,-0.11736 0.4082,-0.19141 0.23423,-0.12191 0.48219,-0.24508 0.73242,-0.39257 a 0.45709168,0.45709168 0 0 0 0.01,-0.006 c 0.26797,-0.16665 0.51681,-0.33252 0.76172,-0.46485 l -0.0234,0.0117 c 0.32455,-0.15236 0.55027,-0.34504 0.74414,-0.45898 0.002,-9.2e-4 0.004,-0.003 0.006,-0.004 0.20277,-0.0944 0.41461,-0.19227 0.62891,-0.32031 a 0.45709168,0.45709168 0 0 0 0.0254,-0.0156 c 0.11225,-0.0775 0.32288,-0.13077 0.60546,-0.23633 l 0.006,-0.002 c 0.29221,-0.10531 0.55269,-0.23889 0.79883,-0.36719 l 0.008,-0.004 c 0.18942,-0.0866 0.31315,-0.18355 0.39844,-0.23242 a 0.45709168,0.45709168 0 0 0 0.01,-0.0137 c 0.006,-0.005 0.036,-0.008 0.041,-0.0117 0.0355,-0.0241 0.072,-0.0565 0.0371,-0.0293 a 0.45709168,0.45709168 0 0 0 0.0781,-0.17774 0.45709168,0.45709168 0 0 0 0.0488,-0.11132 0.45709168,0.45709168 0 0 0 0.0371,-0.12305 c 0.005,-0.0118 0.0147,-0.0186 0.0195,-0.0312 0.0237,-0.0614 0.0488,-0.13742 0.041,-0.25 -0.008,-0.11258 -0.0769,-0.26616 -0.17968,-0.35156 -0.20558,-0.1708 -0.34917,-0.12622 -0.43555,-0.11524 -0.0373,0.005 -0.0583,0.0126 -0.0879,0.0195 -0.013,-0.002 -0.0391,-0.0125 -0.0488,-0.0137 -0.0825,-0.01 -0.11544,-0.009 -0.22656,-0.0293 a 0.45709168,0.45709168 0 0 0 -0.0371,-0.006 c -0.43692,-0.0433 -0.8808,-0.0754 -1.33203,-0.0781 a 0.45709168,0.45709168 0 0 0 -0.0488,0.002 c -0.34975,0.0365 -0.73046,0.0143 -1.14258,0.004 -0.0847,-0.004 -0.16838,-0.006 -0.25195,-0.006 z m 3.26367,0.46875 c 0.028,0.003 0.13086,0.0293 0.1543,0.0391 a 0.45709168,0.45709168 0 0 0 -0.0762,0 0.45709168,0.45709168 0 0 0 -0.0781,-0.0391 z m 0.31055,0.14844 c 0.006,0.005 0.009,0.007 0.0137,0.0117 a 0.45709168,0.45709168 0 0 0 -0.008,-0.004 0.45709168,0.45709168 0 0 0 -0.006,-0.008 z m -8.26563,3.88281 c -0.0235,-0.009 -0.0893,-1.7e-4 -0.0664,0.01 -0.0754,0.001 -0.29968,-0.0232 -0.22461,0.0195 -0.0434,0.0151 -0.17498,0.0557 -0.13085,0.043 a 0.45709168,0.45709168 0 0 0 -0.0312,0.0332 0.45709168,0.45709168 0 0 0 -0.0566,-0.0156 c -0.0278,0.004 -0.0433,0.007 -0.0527,0.008 a 0.45709168,0.45709168 0 0 0 -0.008,0 c 0.01,-9e-4 -0.003,-9.8e-4 -0.041,0.004 a 0.45709168,0.45709168 0 0 0 -0.0645,0.0137 c -0.0611,0.0171 -0.11987,0.0323 -0.17774,0.0469 a 0.45709168,0.45709168 0 0 0 -0.0117,0.004 c -0.0858,0.0239 -0.18671,0.0401 -0.30079,0.0566 a 0.45709168,0.45709168 0 0 0 -0.17382,0.0644 c -0.27375,0.16807 -0.53157,0.33804 -0.81836,0.52148 a 0.45709168,0.45709168 0 0 0 -0.13282,0.63868 l 0.10743,0.16015 a 0.45709168,0.45709168 0 0 0 0.61914,0.13477 c 0.46025,-0.28513 0.87508,-0.57597 1.29687,-0.77149 a 0.45709168,0.45709168 0 0 0 0.14844,0.0332 c 0.14589,-0.037 0.283,-0.0854 0.41406,-0.14063 a 0.45709168,0.45709168 0 0 0 -0.29492,-0.86328 z" />
      <path
         id="path1166"
         style="display:inline;fill:#000000;stroke-width:0.874001"
         d="m 97.565621,164.89019 c -0.03268,0.0697 0.04199,0.093 0.120923,0.14728 0.0938,0.0511 0.188951,0.0998 0.286804,0.14108 -0.139888,-0.0907 -0.277121,-0.18544 -0.407727,-0.28836 z" />
      <path
         id="path1168"
         style="display:inline;fill:#000000;stroke-width:0.874001"
         d="m 101.73384,167.07094 c -0.0791,0.0796 -0.0866,0.22436 -0.19844,0.18603 -0.47579,0.0155 -0.94102,0.10384 -1.40301,0.21394 -0.351945,0.11094 -0.696857,0.24637 -1.041281,0.37983 -0.194681,0.0984 -0.377513,0.2067 -0.590661,0.25838 -0.244057,0.0563 -0.465285,0.17942 -0.693498,0.27853 -0.204029,0.0851 -0.39354,0.19858 -0.576192,0.32195 l 0.01034,0.0558 c 0.25464,0.053 0.463518,0.0544 0.701249,-0.0574 0.212701,-0.0874 0.416082,-0.20319 0.640271,-0.25942 0.229084,-0.0547 0.429497,-0.15967 0.634587,-0.27285 0.330032,-0.12827 0.659966,-0.2599 0.996315,-0.36897 0.48085,-0.11739 0.96462,-0.18916 1.45573,-0.24184 0.13319,-0.0828 0.27893,-0.15606 0.28525,-0.22015 0.0189,-0.005 0.0377,-0.009 0.0563,-0.008 0.51041,0.0289 0.91239,0.14519 1.42213,0.25734 l 0.006,-0.0222 c -0.31709,-0.0969 -0.59622,-0.17849 -0.90898,-0.29093 -0.0469,-0.0169 -0.0939,-0.0342 -0.14056,-0.0517 -0.20108,-0.0472 -0.40164,-0.0952 -0.60203,-0.14314 -0.0179,-0.005 -0.0359,-0.01 -0.0537,-0.015 z" />
      <path
         id="path1170"
         style="display:inline;fill:#000000;stroke-width:0.874001"
         d="m 103.97867,168.05848 c -10e-4,0.28356 -0.003,0.53058 -0.0145,0.88056 -0.002,0.0519 -0.0194,0.1054 -0.0171,0.15658 -0.11954,0.20265 -0.0987,0.20637 -0.14417,0.47646 -0.0405,0.40652 -0.0848,0.81345 -0.0527,1.22163 0.0644,0.43391 0.23517,0.84743 0.40721,1.24902 0.22684,0.41637 0.26315,0.88337 0.21239,1.34565 -0.0246,0.43873 -0.021,0.87883 -0.0729,1.31568 -0.0381,0.18354 -0.0385,0.0916 0.004,0.27751 l 0.0481,0.03 c 0.23057,-0.10261 0.14004,-0.0201 0.262,-0.25477 0.0906,-0.43819 0.063,-0.88836 0.091,-1.33325 0.052,-0.51799 0.007,-1.0439 -0.24443,-1.5105 -0.16124,-0.36908 -0.32526,-0.74767 -0.39274,-1.14618 -0.0367,-0.38297 0.004,-0.76573 0.0336,-1.14825 0.0108,-0.0754 0.0299,-0.15019 0.0326,-0.22635 0.001,-0.0356 -0.035,-0.0717 -0.0222,-0.1049 0.0224,-0.0576 0.0967,-0.0846 0.11782,-0.14263 0.0229,-0.063 0.006,-0.13401 0.007,-0.20102 0.006,-0.35161 0.006,-0.55575 0.005,-0.79375 -0.0954,-0.0228 -0.18604,-0.0519 -0.26045,-0.0915 z" />
      <path
         id="path1172"
         style="display:inline;fill:#000000;stroke-width:0.874001"
         d="m 105.79096,168.44812 c 0.15512,0.16588 0.31685,0.33505 0.54622,0.56792 0.0936,0.095 0.25786,0.27039 0.39481,0.35605 0.0456,0.0285 0.0973,0.0455 0.14366,0.0729 0.42113,0.24247 0.80546,0.53937 1.23506,0.76688 0.3797,0.18271 0.74194,0.39403 1.1033,0.60978 0.41637,0.2448 0.80302,0.53546 1.20302,0.80512 0.26524,0.14112 0.59787,0.36602 0.91002,0.28319 l 0.0501,-0.23306 c -0.19932,-0.19421 -0.5382,-0.17168 -0.75137,-0.36019 -0.40651,-0.27371 -0.79947,-0.56903 -1.22422,-0.81493 -0.37002,-0.2136 -0.73894,-0.42676 -1.12499,-0.61082 -0.43548,-0.2188 -0.81679,-0.52399 -1.25316,-0.74207 -0.21349,-0.0954 -0.25295,-0.12722 -0.47232,-0.3421 -0.0883,-0.0865 -0.1665,-0.16426 -0.24081,-0.23874 -0.1728,-0.0412 -0.3462,-0.08 -0.51935,-0.11989 z" />
      <path
         id="path1248"
         style="display:inline;fill:#b3b3b3;stroke-width:1.85031"
         d="m 328.62696,607.97266 c -0.31092,-0.0141 -0.50761,0.002 -0.56055,0.0566 -0.21175,0.2172 1.52461,2.20072 3.85742,4.40625 3.66363,3.46414 4.96002,4.29168 9.52149,6.07813 2.90425,1.13752 7.9273,2.83058 11.16211,3.76172 3.23455,0.93114 8.80977,3.12264 12.38867,4.87109 5.33473,2.60636 6.4584,3.36568 6.23633,4.21485 -0.14897,0.56965 -0.30461,1.03901 -0.34571,1.04101 -0.0411,0.002 -2.19576,0.24678 -4.78906,0.54492 -5.99463,0.68921 -9.20459,1.76548 -13.44726,4.50782 -1.86412,1.20458 -5.09442,3.10898 -7.17774,4.23046 -3.92691,2.11437 -14.35329,9.74022 -13.91602,10.17774 0.13686,0.13686 1.63712,-0.27137 3.33399,-0.90625 4.423,-1.65495 11.24261,-3.262 15.54102,-3.66406 2.038,-0.19065 5.06249,-0.74975 6.7207,-1.24219 2.37413,-0.70504 4.27685,-0.81444 8.94726,-0.51172 4.45956,0.28903 7.39373,0.14636 11.82813,-0.57617 9.17231,-1.49456 10.67561,-0.51661 8.97266,5.83984 l -0.91602,3.41992 2.36328,6.8711 c 1.30017,3.77945 2.60336,8.79123 2.89453,11.13672 0.29117,2.34524 1.20198,6.9544 2.02539,10.24023 l 1.49805,5.97461 3.87109,-7.71875 c 2.26234,-4.51057 4.43816,-9.81384 5.23633,-12.75976 0.75118,-2.77269 1.74857,-6.41898 2.2168,-8.10352 0.46822,-1.68454 0.85156,-4.17725 0.85156,-5.53711 0,-2.68608 1.5905,-5.8584 3.43164,-6.84375 1.47652,-0.79021 2.87706,-0.26273 7.49024,2.81641 5.20589,3.47468 12.52884,7.34229 17.38281,9.17968 2.16678,0.82031 5.71523,2.59698 7.88476,3.94727 3.82225,2.37866 11.89253,6.2188 12.27149,5.83984 0.10269,-0.10268 -1.6529,-2.97929 -3.90039,-6.39062 -5.52624,-8.38837 -8.65327,-11.02391 -20.47461,-17.25586 -4.22564,-2.2277 -8.96289,-6.44228 -8.96289,-7.97461 0,-0.47417 0.97414,-1.75089 2.25195,-3.21289 -0.41034,0.12017 -0.82293,0.233 -1.23437,0.34961 -0.54187,0.13542 -1.07129,0.30699 -1.59766,0.49219 -0.41885,0.12846 -0.83067,0.27986 -1.24805,0.4121 -0.60695,0.24492 -1.24538,0.37497 -1.88476,0.50196 -0.76093,0.13342 -1.52711,0.24031 -2.29492,0.32422 -0.65458,0.0869 -1.31478,0.10693 -1.96875,0.19726 -0.59626,0.065 -1.19214,0.12287 -1.78711,0.19922 -0.42271,0.0261 -0.83287,0.11633 -1.24219,0.21875 -0.47486,0.14702 -0.95216,0.28689 -1.42774,0.43164 -0.74815,0.24522 -1.52391,0.32599 -2.30468,0.37891 -0.814,0.0227 -1.62774,-0.0642 -2.43164,-0.1836 -0.7569,-0.1104 -1.50383,-0.27159 -2.24805,-0.44531 1.08611,0.9777 3.08942,2.37842 4.85547,3.35547 2.0025,1.10786 5.55709,3.231 7.89844,4.7168 2.3411,1.48579 4.54607,2.70117 4.90039,2.70117 0.35432,0 0.64453,0.3627 0.64453,0.80664 0,1.40478 -0.91416,1.45214 -3.20703,0.16406 -9.32216,-5.2363 -15.85565,-9.58356 -18.07813,-12.02734 -0.17895,-0.19677 -0.3428,-0.33776 -0.52344,-0.52735 -1.03488,-0.223 -2.07468,-0.42046 -3.11523,-0.61718 -0.48253,-0.10084 -1.30063,-0.17547 -2.04688,-0.35352 -0.004,1.01356 -0.0385,2.23551 -0.13671,3.87891 -0.35241,5.89444 -0.28281,6.67547 0.82617,9.10156 0.96117,2.10275 1.20008,3.62513 1.14648,7.32617 -0.0372,2.56933 -0.20953,4.90126 -0.38281,5.18164 -0.90353,1.46194 -1.36914,0.0232 -1.36914,-4.23047 0,-3.49446 -0.30927,-5.51989 -1.17383,-7.70312 -0.91781,-2.31777 -1.10009,-3.66091 -0.83984,-6.18164 0.18289,-1.77144 0.48861,-4.73357 0.67968,-6.58203 0.046,-0.44482 0.12583,-0.78926 0.19336,-1.17774 -0.24338,-0.14109 -0.43372,-0.31353 -0.53515,-0.53125 -0.14407,-0.30925 -0.20933,-0.64508 -0.26563,-0.98437 -0.37968,-0.094 -0.75659,-0.18576 -1.12695,-0.27149 -0.0235,-0.007 -0.045,-0.0143 -0.0684,-0.0215 -0.30829,0.116 -0.86247,0.0821 -1.83398,-0.082 -2.80004,-0.47306 -9.37544,0.88603 -14.80665,3.06054 -4.04807,1.62103 -7.50669,2.22448 -6.87304,1.19922 0.79984,-1.29395 10.27715,-4.70103 16.84375,-6.13281 -2.64836,-0.74579 -5.33114,-1.54689 -7.70117,-2.97266 -0.65462,-0.39379 -0.99826,-0.80854 -1.07032,-1.1582 -1.1205,-0.54461 -2.22662,-1.11737 -3.29101,-1.77148 -0.30446,-0.18659 -0.61039,-0.37277 -0.91602,-0.56055 -2.07657,-0.94562 -2.44225,-1.2449 -2.43554,-1.63867 -0.33503,-0.26015 -0.65954,-0.53429 -0.96875,-0.82617 -0.24196,-0.2284 -0.43441,-0.44874 -0.58399,-0.65625 -0.23367,-0.11756 -0.47162,-0.22819 -0.69922,-0.35743 -0.90985,-0.51961 -1.83416,-1.03617 -2.61133,-1.74804 -0.81219,-0.80871 -1.45604,-1.73549 -1.81445,-2.83594 -0.0641,-0.20258 -0.12551,-0.40531 -0.18359,-0.60937 -0.0977,-0.0712 -0.20209,-0.13257 -0.29883,-0.20508 -0.79021,-0.61418 -1.58774,-1.23073 -2.23828,-1.99805 -0.12817,-0.1571 -0.25377,-0.31559 -0.37696,-0.47656 -2.29395,-0.4195 -4.64571,-0.85036 -7.29492,-1.30469 -7.08552,-1.21517 -15.2306,-2.75209 -18.09961,-3.41602 -2.15151,-0.4977 -4.10827,-0.82684 -5.04101,-0.86914 z m 71.49023,0.17969 c -0.0199,0.001 -0.0454,0.004 -0.0586,0.008 -0.007,0.002 -0.0127,0.004 -0.0195,0.006 0.0321,-0.004 0.0651,-0.009 0.0996,-0.0137 -0.004,4e-5 -0.0123,-6.4e-4 -0.0215,0 z m 56.95703,9.53906 -8.12304,0.35938 c -0.48602,0.0214 -0.79419,0.0377 -1.12696,0.0547 -0.0302,0.0934 -0.0617,0.18701 -0.0879,0.28125 -0.3452,0.79885 -0.84517,1.45169 -1.43945,2.01757 -0.10483,0.19244 -0.20838,0.38518 -0.29297,0.5879 -0.11338,0.27269 -0.21978,0.54837 -0.32031,0.82617 -0.0848,0.22017 -0.17286,0.44052 -0.27734,0.65234 1.20433,-0.33304 2.19627,-0.57776 2.33789,-0.49023 0.27501,0.16997 2.48574,-0.72592 4.91406,-1.99024 z"
         transform="scale(0.26458333)" />
      <path
         id="path1333"
         style="fill:#000000;stroke-width:0.874001"
         d="m 106.0974,139.21372 c -0.45752,0.007 -0.92817,0.13623 -1.37769,0.21033 -0.63213,0.0999 -1.27493,0.14915 -1.89756,0.30437 -0.58016,0.14463 -0.66686,0.19584 -1.23817,0.40876 -0.65494,0.27158 -1.30688,0.5611 -1.917195,0.92449 -0.404249,0.2407 -0.786068,0.52395 -1.176156,0.78652 -0.878783,0.55416 -1.737169,1.12829 -2.513542,1.82056 -1.017154,0.93548 -1.894405,2.01535 -2.714046,3.12487 -0.476886,0.70245 -0.93273,1.41885 -1.340486,2.1637 -0.54909,1.10217 -0.803164,2.3152 -1.030945,3.51658 -0.157263,0.85904 -0.116108,1.72352 -0.0036,2.58382 0.110937,0.89555 0.380695,1.74446 0.753443,2.5616 0.365047,0.72559 0.760433,1.43499 1.108976,2.16886 0.44182,0.90408 0.78876,1.88856 1.415417,2.68769 0.433885,0.47048 0.877676,0.93144 1.312065,1.40147 0.650739,0.74407 1.427817,1.35649 2.2071,1.95853 0.633331,0.50678 1.371533,0.84156 2.069642,1.24282 0.785397,0.43738 1.577177,0.89449 2.433447,1.18184 0.1774,0.0595 0.35931,0.10433 0.53898,0.15658 1.0968,0.24017 2.20254,0.45567 3.31505,0.60927 0.78025,0.0835 1.56562,0.0322 2.34817,0.0186 0.62223,-0.0162 1.24359,-0.0429 1.86604,-0.0543 0.49583,-0.0316 0.98899,-0.10578 1.48105,-0.17415 0.42579,-0.1111 0.85437,-0.2016 1.28726,-0.28112 0.43045,-0.0789 0.85047,-0.19844 1.28364,-0.26407 0.50581,-0.0591 0.99457,-0.20234 1.46709,-0.3886 0.45793,-0.17642 0.88324,-0.39397 1.26814,-0.69919 0.58258,-0.39917 0.89829,-1.01577 1.2237,-1.6216 0.29651,-0.49684 0.47027,-1.05446 0.76688,-1.54978 0.28434,-0.5295 0.49357,-1.09547 0.70176,-1.6583 0.25893,-0.57785 0.48184,-1.16665 0.66095,-1.77405 0.16329,-0.52234 0.3117,-1.04532 0.40772,-1.5844 0.09,-0.46164 0.0969,-0.93253 0.15762,-1.39784 0.11792,-0.60899 0.14679,-1.22126 0.12867,-1.83969 -0.0403,-0.56605 -0.0592,-1.13393 -0.12092,-1.6986 -0.0567,-0.6847 -0.2786,-1.33553 -0.49765,-1.98127 -0.21183,-0.57847 -0.39837,-1.16613 -0.61856,-1.7415 -0.24403,-0.53998 -0.51043,-1.06866 -0.75655,-1.60817 -0.29072,-0.49058 -0.62995,-0.9487 -0.92862,-1.43506 -0.22493,-0.42911 -0.56693,-0.77292 -0.86817,-1.14618 -0.28871,-0.39206 -0.58842,-0.77268 -0.9126,-1.13585 -0.34968,-0.40971 -0.74091,-0.77169 -1.15084,-1.11931 -0.31399,-0.27989 -0.67002,-0.50556 -1.01182,-0.74879 -0.37728,-0.22546 -0.74584,-0.46516 -1.12138,-0.6935 -0.27166,-0.15758 -0.52961,-0.33098 -0.77256,-0.52968 -0.30498,-0.23963 -0.66181,-0.39906 -0.98134,-0.61598 -0.30382,-0.21178 -0.65063,-0.3484 -0.98495,-0.50333 -0.27317,-0.16622 -0.57437,-0.27388 -0.85266,-0.42995 -0.28032,-0.19026 -0.58812,-0.32469 -0.90176,-0.44803 -0.057,-0.0306 -0.11634,-0.0511 -0.17621,-0.0687 l 0.0672,-0.22996 c -0.78544,-0.2054 -1.58425,-0.4232 -2.40399,-0.41032 z m 0.12867,0.46716 c 0.33997,-0.002 0.67638,0.0406 1.00924,0.10439 -0.10897,0.10199 -0.13692,0.22465 -0.14779,0.44183 l 0.0491,0.0284 c 0.0613,-0.0152 0.1852,-0.0636 0.25373,-0.0191 0.0229,0.0149 -0.0218,0.0647 0.0114,0.0811 0.0289,0.0218 0.0901,0.0235 0.13281,0.0377 0.12722,0.0449 0.27648,0.0976 0.41703,0.12557 0.13585,0.0217 0.26419,0.047 0.39016,0.11162 0.28332,0.11607 0.56077,0.24317 0.81493,0.41651 0.2944,0.16309 0.60935,0.28223 0.89866,0.45527 0.29799,0.14009 0.60952,0.26105 0.87901,0.45321 0.30079,0.2036 0.62782,0.36579 0.91829,0.58497 0.26973,0.22236 0.55683,0.41758 0.85887,0.59377 0.35957,0.21748 0.70946,0.45148 1.07228,0.66404 0.32307,0.23239 0.66125,0.44537 0.95808,0.7121 0.38075,0.32658 0.74736,0.66181 1.06764,1.05006 0.31264,0.35726 0.60499,0.72882 0.88625,1.11156 0.27921,0.34804 0.59894,0.66584 0.80563,1.06661 0.2794,0.45994 0.5884,0.90004 0.87282,1.3565 0.23748,0.52483 0.48846,1.04291 0.72244,1.5689 0.21567,0.56614 0.39542,1.14505 0.60616,1.71307 0.20009,0.58983 0.40851,1.18319 0.45837,1.80919 0.0598,0.54341 0.0753,1.0901 0.11576,1.63505 0.0191,0.57518 -0.0141,1.14228 -0.12454,1.70842 -0.0593,0.45291 -0.0683,0.91126 -0.15452,1.36064 -0.0906,0.50941 -0.2409,0.99955 -0.39997,1.49138 -0.15019,0.50451 -0.33564,0.99354 -0.54209,1.4764 -0.005,0.0531 -0.0111,0.10614 -0.0176,0.15916 -0.0141,0.0907 -0.034,0.18023 -0.0563,0.26923 -0.0186,0.0756 -0.037,0.15135 -0.0579,0.22635 -0.0174,0.0622 -0.0354,0.12433 -0.0548,0.18603 -0.0193,0.0615 -0.0411,0.1221 -0.0651,0.1819 -0.0244,0.0622 -0.0498,0.12421 -0.0775,0.18501 -0.0264,0.0591 -0.0539,0.11774 -0.0858,0.17414 -0.0285,0.0522 -0.0567,0.10442 -0.0832,0.15762 -0.0131,0.0261 -0.0274,0.0516 -0.0408,0.0775 -0.0146,0.06 -0.0367,0.11822 -0.0532,0.17777 -0.0919,0.21267 -0.22543,0.38602 -0.38396,0.5364 -0.0271,0.0499 -0.0525,0.10047 -0.0744,0.15296 -0.03,0.0721 -0.0581,0.14509 -0.0847,0.21859 -0.0254,0.066 -0.0514,0.13212 -0.0842,0.19482 -0.0246,0.0494 -0.0498,0.0984 -0.0775,0.14625 -0.0285,0.048 -0.0582,0.0955 -0.0853,0.14418 -0.0359,0.0616 -0.0662,0.12595 -0.0982,0.18965 -0.021,0.0421 -0.0425,0.0838 -0.0651,0.12506 l -5.2e-4,5.1e-4 c -0.004,0.01 -0.007,0.0186 -0.0114,0.0264 -0.0171,0.0334 -0.0371,0.0652 -0.0589,0.0956 l -5.1e-4,5.2e-4 c -0.0572,0.0926 -0.11897,0.18208 -0.18552,0.2682 -0.0356,0.046 -0.0713,0.0921 -0.10697,0.13797 -0.16615,0.26111 -0.36018,0.4997 -0.62839,0.68161 -0.31438,0.26102 -0.67578,0.42329 -1.05368,0.57413 -0.38127,0.15635 -0.77802,0.26936 -1.18597,0.32711 -0.0149,0.005 -0.0298,0.01 -0.0444,0.0145 -0.0453,0.0151 -0.0921,0.0266 -0.13901,0.0346 -0.0386,0.008 -0.0775,0.009 -0.11678,0.009 -0.0126,-3.4e-4 -0.0251,-8.7e-4 -0.0377,-0.001 -0.0292,0.006 -0.0587,0.0102 -0.0879,0.016 -0.002,5.2e-4 -0.003,0.001 -0.005,0.002 -0.0521,0.0173 -0.10505,0.0336 -0.15865,0.0455 -0.0538,0.0109 -0.10798,0.0187 -0.16278,0.0227 -0.002,1.4e-4 -0.003,3.8e-4 -0.005,5.2e-4 -0.0246,0.005 -0.0493,0.0106 -0.0739,0.016 -0.0445,0.012 -0.0891,0.0243 -0.13384,0.0357 -0.11879,0.0331 -0.23965,0.0543 -0.36122,0.0718 -0.0261,0.005 -0.0519,0.0118 -0.078,0.0171 -0.13929,0.0256 -0.27787,0.0543 -0.41651,0.0822 -0.001,3.7e-4 -0.002,7.8e-4 -0.003,0.001 -0.16943,0.0567 -0.34235,0.10168 -0.51418,0.15038 -0.14337,0.0358 -0.28344,0.0812 -0.42271,0.13022 -0.11082,0.034 -0.21978,0.074 -0.33021,0.10904 -0.16059,0.0648 -0.32951,0.0992 -0.49868,0.13281 -0.20133,0.0353 -0.40405,0.0636 -0.6072,0.0858 -0.17319,0.023 -0.34787,0.0283 -0.5209,0.0522 -0.15776,0.0172 -0.31546,0.0325 -0.47283,0.0527 -0.11184,0.007 -0.22037,0.0308 -0.32867,0.0579 -0.12564,0.0389 -0.25192,0.0759 -0.37775,0.11421 -0.19796,0.0649 -0.4032,0.0863 -0.60978,0.10025 -0.21537,0.006 -0.43068,-0.017 -0.64338,-0.0486 -0.22705,-0.0331 -0.45082,-0.0828 -0.67386,-0.1359 -0.24581,-0.0613 -0.49325,-0.1152 -0.74,-0.1726 -0.30999,-0.0692 -0.62172,-0.12807 -0.9338,-0.18707 -0.25037,-0.0523 -0.84192,-0.0771 -0.96273,-0.33642 -0.008,-0.018 -0.0157,-0.0362 -0.0222,-0.0548 -0.28585,-0.0558 -0.57142,-0.11345 -0.85628,-0.1726 -0.75746,-0.21454 -1.4758,-0.52907 -2.16731,-0.90021 -0.39669,-0.13607 -0.783532,-0.29788 -1.143079,-0.51418 -0.152288,-0.0916 -0.240678,-0.18764 -0.272852,-0.27233 -0.188599,-0.10201 -0.376566,-0.20548 -0.560172,-0.31574 -0.108115,-0.0602 -0.215235,-0.12213 -0.320911,-0.18707 -0.395886,-0.24262 -0.803699,-0.48012 -1.143083,-0.80047 -0.06203,-0.0586 -0.111832,-0.11507 -0.150895,-0.16847 -0.06363,-0.0319 -0.126762,-0.0646 -0.188619,-0.0997 -0.240729,-0.13749 -0.485288,-0.27416 -0.690914,-0.46251 -0.214889,-0.21397 -0.385244,-0.45918 -0.480074,-0.75034 -0.0073,-0.023 -0.01418,-0.0461 -0.02119,-0.0692 -0.07556,-0.08 -0.151152,-0.15994 -0.22686,-0.23978 -0.168178,-0.13258 -0.332825,-0.27015 -0.471805,-0.43408 -0.07985,-0.0979 -0.157001,-0.19804 -0.226343,-0.30335 -0.04539,-0.0481 -0.0911,-0.096 -0.136426,-0.14417 -0.20491,-0.24832 -0.35596,-0.52924 -0.504362,-0.81494 -0.294227,-0.56645 -0.56524,-1.14633 -0.825273,-1.72909 -0.350918,-0.72822 -0.746598,-1.43276 -1.112593,-2.15336 -0.344871,-0.75082 -0.591669,-1.5309 -0.696082,-2.35438 -0.102745,-0.78447 -0.143595,-1.57436 -5.16e-4,-2.35799 0.211282,-1.12806 0.445451,-2.26775 0.95343,-3.30575 0.390134,-0.7181 0.828635,-1.4078 1.282609,-2.08721 0.78511,-1.07685 1.630091,-2.12126 2.600875,-3.03702 0.743441,-0.68416 1.573989,-1.24628 2.413806,-1.80506 0.369524,-0.25899 0.730802,-0.53895 1.115694,-0.77514 0.581255,-0.35669 1.205085,-0.63937 1.824185,-0.92191 0.49946,-0.19873 0.63567,-0.27011 1.14515,-0.40876 0.61368,-0.16701 1.25139,-0.22213 1.87533,-0.33538 0.36568,-0.0717 0.90337,-0.23016 1.26814,-0.2465 0.0489,-0.002 0.098,-0.003 0.14676,-0.004 z" />
      <path
         style="fill:#b3b3b3;stroke-width:2.61674"
         d="m 399.2869,636.37535 c -2.81007,-0.60849 -5.66184,-1.60078 -6.33726,-2.20509 -0.67541,-0.60431 -4.40991,-2.01783 -8.29888,-3.14115 -3.88897,-1.12332 -7.83313,-2.75851 -8.76479,-3.63376 -0.93165,-0.87525 -1.92711,-1.59136 -2.21212,-1.59136 -1.42893,0 -10.33118,-6.91104 -10.92955,-8.48489 -0.37915,-0.99723 -0.99462,-1.81315 -1.36771,-1.81315 -1.03703,0 -4.99706,-6.61955 -9.48123,-15.84875 -6.09187,-12.53811 -6.83871,-17.37868 -4.23035,-27.4189 3.86362,-14.87207 17.65434,-30.33108 34.55072,-38.73038 8.10309,-4.0281 22.57647,-6.56102 22.57647,-3.951 0,0.65353 0.49847,1.18824 1.10771,1.18824 1.92597,0 14.86653,6.91075 21.84352,11.66527 11.08017,7.55066 19.25752,18.70645 23.87774,32.57472 2.3697,7.113 2.47299,7.93567 2.0934,16.67403 -0.34239,7.88214 -0.8188,10.43346 -3.34354,17.90559 -5.75541,17.03348 -9.59354,21.29626 -21.04427,23.37268 -2.79685,0.50716 -5.73077,1.26762 -6.51981,1.6899 -1.59294,0.85252 -14.33934,3.08177 -16.82651,2.94283 -0.87138,-0.0486 -3.88347,-0.58635 -6.69354,-1.19483 z"
         id="path3086"
         transform="scale(0.26458333)" />
      <path
         style="fill:#000000;stroke-width:0.874001"
         id="path3088"
         d="m 105.99601,143.76556 c 0.27003,0.15264 0.55967,0.31474 0.82703,0.4723 0.20881,0.12306 0.37158,0.21487 0.555,0.37161 0.20969,0.17918 0.34739,0.34433 0.53349,0.549 0.37572,0.47987 0.81982,0.89655 1.24064,1.33469 0.2764,0.28778 0.31484,0.34646 0.58192,0.66732 0.49338,0.62265 0.94335,1.28025 1.3195,1.98019 0.3261,0.66739 0.59506,1.35985 0.9122,2.03139 0.27823,0.54745 0.42688,1.14377 0.54466,1.7427 0.13219,0.66368 0.0623,1.33296 -0.002,1.99892 -0.0134,0.12903 -0.0252,0.25822 -0.0402,0.38707 -0.0382,0.3291 -0.0647,0.50622 -0.12322,0.83923 -0.0232,0.13206 -0.13701,0.71789 -0.16062,0.87947 -0.012,0.0818 -0.0158,0.16466 -0.0237,0.24699 0,0 0.0519,0.0228 0.0519,0.0228 v 0 c 0.0579,-0.0673 0.12654,-0.12672 0.17363,-0.20199 0.39736,-0.63504 0.47491,-1.4048 0.55564,-2.13064 0.072,-0.70808 0.13889,-1.42035 -0.005,-2.12547 -0.12453,-0.63663 -0.28336,-1.26408 -0.58055,-1.84514 -0.32483,-0.67574 -0.59695,-1.37512 -0.93619,-2.04409 -0.0571,-0.1045 -0.11152,-0.21056 -0.17144,-0.3135 -0.35347,-0.60732 -0.78045,-1.17035 -1.21383,-1.72171 -0.10826,-0.12666 -0.21341,-0.25605 -0.32478,-0.37997 -0.28806,-0.32054 -0.61292,-0.60267 -0.91305,-0.91118 -0.10611,-0.10906 -0.20783,-0.2223 -0.31055,-0.33455 -0.10849,-0.11856 -0.21539,-0.23857 -0.32308,-0.35786 -0.23556,-0.24579 -0.33286,-0.3652 -0.59912,-0.57424 -0.43581,-0.34216 -0.9632,-0.54789 -1.43922,-0.82328 0,0 -0.12908,0.23995 -0.12908,0.23995 z" />
      <path
         style="fill:#000000;stroke-width:0.874001"
         id="path3090"
         d="m 96.93694,156.18052 c 0.08696,0.61628 0.262546,1.21429 0.537929,1.77323 0.204198,0.41445 0.484365,0.77961 0.768202,1.14061 0.578509,0.55872 0.27913,0.31695 0.888162,0.73746 0,0 0.03766,-0.0423 0.03766,-0.0423 v 0 c -0.472696,-0.54204 -0.223948,-0.26269 -0.747691,-0.83674 -0.275844,-0.34324 -0.551453,-0.68942 -0.754033,-1.08332 -0.276514,-0.53766 -0.456814,-1.11438 -0.549955,-1.71118 0,0 -0.180274,0.0223 -0.180274,0.0223 z" />
    </g>
  </g>
</svg>
