<?xml version="1.0" encoding="UTF-8" standalone="no"?>
<!-- Created with Inkscape (http://www.inkscape.org/) -->

<svg
   width="210mm"
   height="297mm"
   viewBox="0 0 210 297"
   version="1.1"
   id="svg986"
   sodipodi:docname="fruta-da-folha.svg"
   inkscape:version="1.2 (dc2aedaf03, 2022-05-15)"
   xmlns:inkscape="http://www.inkscape.org/namespaces/inkscape"
   xmlns:sodipodi="http://sodipodi.sourceforge.net/DTD/sodipodi-0.dtd"
   xmlns="http://www.w3.org/2000/svg"
   xmlns:svg="http://www.w3.org/2000/svg">
  <sodipodi:namedview
     id="namedview988"
     pagecolor="#505050"
     bordercolor="#eeeeee"
     borderopacity="1"
     inkscape:showpageshadow="0"
     inkscape:pageopacity="0"
     inkscape:pagecheckerboard="0"
     inkscape:deskcolor="#505050"
     inkscape:document-units="mm"
     showgrid="false"
     inkscape:zoom="5.0495044"
     inkscape:cx="349.53925"
     inkscape:cy="591.74124"
     inkscape:window-width="2560"
     inkscape:window-height="1369"
     inkscape:window-x="2552"
     inkscape:window-y="-8"
     inkscape:window-maximized="1"
     inkscape:current-layer="layer2" />
  <defs
     id="defs983" />
  <g
     inkscape:label="Camada 1"
     inkscape:groupmode="layer"
     id="layer1"
     style="display:inline">
    <path
       id="path1160"
       style="fill:#000000;stroke-width:0.874001"
       d="m 86.112573,160.29668 c -0.184055,0.0333 -0.05027,-0.0567 -0.28267,0.26975 0.2837,0.27594 0.537034,0.59037 0.792717,0.8971 0.3688,0.42785 0.794829,0.7994 1.198376,1.19321 0.348168,0.33258 0.713324,0.63709 1.130164,0.8785 0.363401,0.16141 0.732014,0.31105 1.099674,0.46198 0.290917,0.15219 0.603672,0.24944 0.908472,0.36691 0.235995,0.12063 0.494261,0.18229 0.751375,0.23874 0.402284,0.0742 0.765427,0.26405 1.154452,0.38137 0.397164,0.0944 0.792981,0.1956 1.186491,0.3049 0.361831,0.0676 0.694855,0.2199 1.039729,0.33951 0.260953,0.0754 0.469026,0.25593 0.710551,0.36949 0.166693,0.0867 0.32223,0.19019 0.49196,0.2713 0.142034,0.0205 0.248251,0.0863 0.369486,0.15761 0.113747,0.0306 0.194418,0.0889 0.290422,0.15658 0.240564,0.1119 0.468375,0.24599 0.712101,0.3514 0.0083,0.006 0.01579,0.0116 0.02377,0.0176 -0.04693,0.007 -0.09493,0.009 -0.148311,0.0103 -0.464407,-0.036 -0.922553,0.0351 -1.379761,0.10748 -0.553919,0.0834 -1.098084,0.22584 -1.62419,0.41703 -0.493696,0.18399 -0.953649,0.41657 -1.388029,0.71365 -0.495697,0.34708 -1.002804,0.67753 -1.535307,0.96532 -0.588873,0.29725 -1.191678,0.56256 -1.732711,0.94361 -0.407134,0.3332 -0.817176,0.6619 -1.235583,0.98082 -0.335383,0.28908 -0.713115,0.51916 -1.071252,0.7767 -0.321861,0.2694 -0.64019,0.54325 -0.994255,0.76997 -0.272384,0.15866 -0.556909,0.29428 -0.829924,0.45166 -0.125633,0.117 -0.364693,0.10301 -0.495577,0.18551 -0.03733,0.0235 -0.0705,0.0527 -0.104386,0.0811 0.0626,0.039 0.118901,0.0885 0.1757,0.13642 0.0066,0.0676 0.01981,0.13578 0.02842,0.20102 0.0033,0.025 0.03849,-0.0233 0.06305,-0.0558 6.65e-4,-2.1e-4 0.002,-0.001 0.0026,-0.001 0.02567,-0.007 0.05011,-0.0168 0.07545,-0.0248 0.0049,0.003 0.009,0.006 0.01395,0.009 0.04256,0.0205 0.09247,-0.0204 0.139527,-0.0248 0.02598,-0.002 0.291583,0.002 0.298173,0.002 0.555724,-0.0321 1.077053,-0.29736 1.590083,-0.49868 0.270817,-0.10824 0.553728,-0.17332 0.828374,-0.26923 0.423842,-0.19055 0.860626,-0.34138 1.30638,-0.47077 0.350274,-0.0853 0.687992,-0.21392 1.035596,-0.30799 0.34834,-0.0525 0.687838,-0.16168 1.037146,-0.20723 0.418585,-0.0298 0.834566,-0.0879 1.253153,-0.12299 0.352404,-0.008 0.690697,-0.0608 1.029395,-0.15089 0.271596,-0.0468 0.526543,-0.13452 0.780831,-0.23616 0.229228,-0.089 0.475621,-0.11065 0.718302,-0.13436 0.349726,-0.0506 0.696741,-0.001 1.043864,0.0398 0.258284,0.01 0.511001,0.061 0.767395,0.0873 0.242014,0.0486 0.484719,0.0758 0.730705,0.0951 0.240425,0.035 0.473788,0.0178 0.706416,-0.0434 0.208888,-0.0197 0.405582,-0.075 0.602548,-0.14418 0.148564,-0.0797 0.313928,-0.0744 0.47749,-0.0863 0.168553,-0.0262 0.336993,-0.0461 0.503843,-0.0827 0.14357,-0.0366 0.29263,-0.0457 0.44029,-0.0579 0.22457,-0.0454 0.45181,-0.0696 0.67851,-0.10077 0.15749,-0.0363 0.28962,0.003 0.42994,0.0677 0.16742,0.08 0.18584,0.21883 0.19224,0.39998 -0.047,0.29446 -0.16759,0.56546 -0.2682,0.84284 -0.17113,0.38805 -0.15869,0.78119 -0.0982,1.19011 0.0744,0.55697 0.35275,1.04234 0.56379,1.55184 0.0827,0.49914 0.28991,0.96107 0.46353,1.43247 0.12854,0.36203 0.16655,0.74524 0.23771,1.12035 0.0716,0.35744 0.093,0.72122 0.11989,1.08365 0.0537,0.39036 0.14039,0.77538 0.23927,1.15652 0.11217,0.46486 0.22915,0.92934 0.36173,1.38854 0.0738,0.40677 0.21949,0.80614 0.25115,1.21957 0.0503,0.32828 0.0716,0.65705 0.0904,0.98754 0.0145,0.14329 -0.005,0.28728 0.0284,0.42581 0.002,-0.0367 0.0434,-0.0439 0.0997,-0.0419 0.26397,0.22546 0.33143,0.15725 0.30644,0.0103 0.006,-0.002 0.0134,-0.001 0.0186,-0.004 0.0515,-0.0211 0.0226,-0.10899 0.0346,-0.1633 0.0159,-0.0716 0.0328,-0.14294 0.0491,-0.21445 0.0501,-0.24064 0.12412,-0.46944 0.22117,-0.69453 0.17,-0.37856 0.32048,-0.76424 0.50695,-1.13534 0.20903,-0.42236 0.36015,-0.8701 0.57929,-1.28829 0.11891,-0.31398 0.26721,-0.60364 0.45062,-0.88367 0.13324,-0.16958 0.22602,-0.36483 0.34468,-0.54311 0.18697,-0.29919 0.34069,-0.60579 0.4222,-0.94982 0.019,-0.36039 0.0758,-0.69769 0.18707,-1.04024 0.085,-0.35396 0.20036,-0.69671 0.30592,-1.04438 0.0764,-0.31112 0.24086,-0.5847 0.3204,-0.89452 0.0717,-0.31981 0.14709,-0.63184 0.16329,-0.96015 0.019,-0.27974 -0.0477,-0.56679 0.005,-0.8444 0.0497,-0.16238 0.0632,-0.3936 0.0842,-0.52916 0.0809,-0.16895 0.18917,-0.32136 0.30644,-0.46716 0.11791,-0.14096 0.25205,-0.35004 0.447,-0.38137 0.26236,0.07 0.50419,0.22405 0.73432,0.36432 0.5176,0.37193 1.0279,0.74801 1.56735,1.08831 0.5037,0.33352 1.06418,0.56296 1.59938,0.83819 0.38661,0.21021 0.76675,0.43395 1.16944,0.61236 0.3074,0.12095 0.59696,0.27324 0.91054,0.37776 0.36426,0.10124 0.70747,0.25637 1.0449,0.42478 0.31053,0.16269 0.60598,0.35132 0.89555,0.54829 0.36717,0.22008 0.7182,0.47005 1.09606,0.67179 0.34789,0.17509 0.70378,0.33328 1.05265,0.50643 0.30849,0.15416 0.62247,0.29083 0.94671,0.40772 0.24608,0.11065 0.50282,0.19765 0.76171,0.27286 0.13604,0.0164 0.2627,0.0607 0.39894,0.0708 0.60302,-0.13266 0.054,-0.91444 -0.092,-1.15497 -0.27245,-0.43075 -0.51985,-0.87656 -0.79995,-1.30276 -0.25463,-0.41341 -0.53816,-0.80827 -0.80357,-1.21491 -0.26831,-0.40772 -0.55795,-0.79851 -0.89039,-1.156 -0.34608,-0.34089 -0.7214,-0.65119 -1.10381,-0.95033 -0.33406,-0.31971 -0.7347,-0.53789 -1.14308,-0.74569 -0.27864,-0.12798 -0.5402,-0.28778 -0.79426,-0.45837 -0.20709,-0.14752 -0.41689,-0.29304 -0.63666,-0.42117 -0.27385,-0.1199 -0.53951,-0.26089 -0.81959,-0.36587 -0.17272,-0.0544 -0.3318,-0.13772 -0.49092,-0.2222 -0.17651,-0.0766 -0.29225,-0.21927 -0.41083,-0.36277 -0.14214,-0.17853 -0.31581,-0.32726 -0.47232,-0.49196 -0.0766,-0.0599 -0.14834,-0.12403 -0.22273,-0.18655 -0.0782,-0.0542 -0.12304,-0.0833 -0.16071,-0.10904 0.12196,-0.12033 0.24029,-0.2448 0.3576,-0.36949 0.2096,-0.24488 0.41689,-0.49112 0.63045,-0.73277 -0.19044,0.0482 -0.38587,0.0697 -0.58032,0.0946 -0.0277,0.004 -0.0555,0.006 -0.0832,0.009 -0.0493,0.0194 -0.0986,0.0382 -0.14832,0.0563 -0.0108,0.004 -0.0215,0.007 -0.0326,0.0103 -0.0569,0.0667 -0.1139,0.13342 -0.17053,0.20051 -0.0526,0.056 -0.48424,0.46715 -0.49403,0.49661 -0.0473,0.14253 -0.0329,0.30033 -0.077,0.4439 -0.0134,-0.0179 -0.0266,-0.035 -0.0403,-0.0584 0.0136,0.0197 0.0338,0.0818 0.0408,0.0589 0.052,0.0694 0.10775,0.10844 0.19172,0.15347 -0.0772,-0.0873 -0.0271,-0.0328 0.004,0.003 0.0129,0.007 0.0233,0.0137 0.0377,0.0212 0.005,0.002 -0.0161,-0.008 -0.0326,-0.0155 0.005,0.005 0.013,0.0137 0.015,0.0155 0.0648,0.0551 0.14261,0.077 0.20515,0.1328 0.0623,0.0483 0.11954,0.10436 0.17984,0.14728 0.14968,0.15145 0.30844,0.29487 0.44493,0.4594 0.16211,0.19513 0.33065,0.3813 0.56534,0.49145 0.17964,0.1 0.36195,0.19353 0.55862,0.25631 0.25248,0.0925 0.48943,0.22454 0.73794,0.32711 0.21023,0.12091 0.40878,0.26274 0.60668,0.40256 0.27202,0.18263 0.55011,0.35531 0.84853,0.49248 0.37791,0.19231 0.75153,0.38812 1.05833,0.68833 0.36074,0.28206 0.7161,0.57237 1.04438,0.89194 0.31306,0.33415 0.58461,0.70027 0.83716,1.0821 0.26573,0.40726 0.55134,0.80085 0.8077,1.21388 0.27702,0.4212 0.52519,0.85928 0.79634,1.28416 0.0647,0.10543 0.14248,0.21426 0.20464,0.32659 -0.22699,-0.067 -0.45035,-0.14831 -0.66715,-0.24288 -0.30715,-0.11061 -0.60303,-0.24359 -0.89607,-0.38757 -0.34579,-0.16963 -0.69823,-0.32527 -1.04231,-0.49868 -0.36507,-0.18837 -0.69967,-0.43382 -1.05782,-0.6351 -0.30912,-0.20545 -0.6255,-0.39941 -0.95601,-0.56896 -0.35829,-0.17442 -0.72481,-0.32884 -1.10846,-0.43873 -0.30111,-0.0973 -0.57765,-0.24794 -0.87385,-0.35915 -0.39712,-0.16814 -0.7679,-0.39069 -1.14876,-0.5917 -0.5257,-0.26588 -1.07424,-0.48788 -1.56838,-0.81235 -0.54274,-0.34001 -1.05402,-0.71948 -1.57665,-1.08882 -0.32511,-0.19461 -0.68345,-0.44251 -1.07849,-0.39998 -0.27254,0.0981 -0.48574,0.28023 -0.65164,0.51883 -0.14736,0.18511 -0.28276,0.3793 -0.37724,0.59738 -0.0511,0.19648 -0.0432,0.40553 -0.10335,0.60203 -0.0382,0.29384 -0.003,0.59034 -0.004,0.88574 -0.0118,0.30076 -0.0888,0.58462 -0.14987,0.8785 -0.0708,0.30388 -0.25197,0.56692 -0.31574,0.87436 -0.10305,0.34528 -0.21724,0.68575 -0.30231,1.03611 -0.11495,0.35404 -0.1861,0.70394 -0.19688,1.07694 -0.0627,0.29759 -0.20826,0.55487 -0.3638,0.81391 -0.11635,0.17987 -0.21072,0.37338 -0.34417,0.5426 -0.19296,0.29112 -0.34845,0.59382 -0.47336,0.92036 -0.21642,0.42142 -0.37464,0.86807 -0.58084,1.29397 -0.1899,0.37897 -0.34286,0.77286 -0.5178,1.15859 -0.009,0.0223 -0.0178,0.0453 -0.0269,0.0677 -0.01,-0.083 -0.0211,-0.16479 -0.0346,-0.24753 -0.0467,-0.4377 -0.17674,-0.86339 -0.26717,-1.29346 -0.13036,-0.45663 -0.24841,-0.91681 -0.3607,-1.37821 -0.0932,-0.35729 -0.17137,-0.71912 -0.22738,-1.08417 -0.0261,-0.37835 -0.0521,-0.75804 -0.12557,-1.1312 -0.0759,-0.39663 -0.11686,-0.80131 -0.25632,-1.18339 -0.17607,-0.4774 -0.38084,-0.94407 -0.46922,-1.44849 -0.20189,-0.47767 -0.46349,-0.93359 -0.53692,-1.45624 -0.0523,-0.34414 -0.0665,-0.6642 0.0811,-0.99064 0.12137,-0.32965 0.27146,-0.65585 0.29559,-1.01234 -0.0285,-0.31256 -0.12747,-0.60224 -0.43099,-0.74104 -0.21053,-0.0963 -0.42396,-0.14745 -0.6568,-0.10387 -0.21942,0.0307 -0.43986,0.0518 -0.65681,0.0987 -0.16535,0.0144 -0.33332,0.0251 -0.49454,0.0651 -0.14669,0.0327 -0.29517,0.0442 -0.442872,0.0708 -0.199361,0.0126 -0.403851,0.0182 -0.586527,0.10904 -0.186841,0.0657 -0.372493,0.11423 -0.570508,0.13539 -0.18829,0.0496 -0.372847,0.0637 -0.568957,0.031 -0.242937,-0.019 -0.481312,-0.0468 -0.720887,-0.092 -0.254652,-0.0259 -0.506618,-0.0738 -0.763261,-0.0801 -0.375388,-0.0422 -0.751408,-0.0903 -1.12913,-0.0377 -0.280237,0.0276 -0.563712,0.058 -0.827856,0.16227 -0.239403,0.096 -0.478193,0.17972 -0.734839,0.22221 -0.316207,0.0842 -0.630666,0.13366 -0.960665,0.13952 -0.425881,0.0371 -0.848931,0.0965 -1.274857,0.12868 -0.364834,0.0554 -0.721569,0.15922 -1.084689,0.22427 -0.348559,0.0975 -0.688467,0.22261 -1.03973,0.3111 -0.452642,0.13149 -0.897492,0.28194 -1.327567,0.47645 -0.277961,0.0993 -0.566471,0.1609 -0.840776,0.27337 -0.582877,0.22878 0.04216,-0.0151 -0.593245,0.22893 -0.03822,0.0147 -0.07912,0.0333 -0.118339,0.0496 0.03417,-0.0194 0.0686,-0.0387 0.102319,-0.0589 0.35741,-0.23317 0.684947,-0.50536 1.010274,-0.78084 0.360217,-0.26042 0.741253,-0.49245 1.079004,-0.78393 0.414854,-0.31626 0.82202,-0.64099 1.224732,-0.97255 0.526238,-0.37526 1.12097,-0.62448 1.69292,-0.92036 0.543989,-0.29452 1.064389,-0.62931 1.569413,-0.9865 0.407183,-0.28037 0.840542,-0.49681 1.303796,-0.67076 0.502585,-0.18469 1.023729,-0.32059 1.553394,-0.40101 0.444233,-0.0704 0.88763,-0.13878 1.338936,-0.10852 0.09559,-0.006 0.480929,-0.0424 0.5302,-0.14418 0.05323,-0.10993 0.07924,-0.23064 0.118856,-0.34623 -0.004,-0.002 -0.0078,-0.004 -0.01188,-0.006 -0.0803,-0.0341 -0.152225,-0.0826 -0.239262,-0.0971 -0.03628,-0.0287 -0.136976,-0.0997 -0.161747,-0.10542 -0.224173,-0.0966 -0.431396,-0.22343 -0.655774,-0.31936 -0.102973,-0.0702 -0.252198,-0.16301 -0.311092,-0.16899 -0.124891,-0.0735 -0.248517,-0.15441 -0.395842,-0.17001 -0.171275,-0.0808 -0.325255,-0.19008 -0.494543,-0.27492 -0.252632,-0.11193 -0.464305,-0.31364 -0.73949,-0.38189 -0.350895,-0.12273 -0.690419,-0.27865 -1.057817,-0.3514 -0.390832,-0.11032 -0.783114,-0.21381 -1.177706,-0.30954 -0.39724,-0.11912 -0.767343,-0.3174 -1.179256,-0.38964 -0.240872,-0.0527 -0.481076,-0.11262 -0.701249,-0.22738 -0.302419,-0.11502 -0.611199,-0.2147 -0.900203,-0.36328 -0.352706,-0.14702 -0.70637,-0.29094 -1.0573,-0.44235 -0.391229,-0.22822 -0.733835,-0.51465 -1.061434,-0.82734 -0.3951,-0.38547 -0.811451,-0.75048 -1.174605,-1.16737 -0.09099,-0.10902 -0.293631,-0.3859 -0.468189,-0.57361 0.111682,0.008 0.223537,0.0177 0.33538,0.0217 0.529468,0.0801 1.046772,0.21823 1.570964,0.32608 0.5934,0.14652 1.183616,0.30835 1.783353,0.42737 0.63033,0.0981 1.267131,0.14805 1.893942,0.26975 0.708303,0.13834 1.410351,0.31411 2.130619,0.38344 0.259615,0.0358 0.518231,0.0772 0.77618,0.12144 -0.0614,-0.0884 -0.117675,-0.17984 -0.165365,-0.27699 -0.0144,-0.0318 -0.02916,-0.0634 -0.04289,-0.0951 -0.173903,-0.0281 -0.347762,-0.0555 -0.522449,-0.0796 -0.714076,-0.0687 -1.409827,-0.24401 -2.112016,-0.38137 -0.630518,-0.12377 -1.271878,-0.17547 -1.905826,-0.27647 -0.589891,-0.11876 -1.169886,-0.28068 -1.753899,-0.42478 -0.533807,-0.11137 -1.060899,-0.25272 -1.599902,-0.33745 -0.232678,-0.007 -0.464396,-0.0431 -0.697115,-0.0475 z m 25.764317,8.81393 h -5.1e-4 -0.001 -5.1e-4 -0.001 c -8.9e-4,-5.9e-4 5.8e-4,-0.001 -0.003,-0.002 l -5.2e-4,-5.2e-4 c 0.002,0.002 -9.9e-4,0.001 5.2e-4,0.002 -0.0567,-0.025 -0.0229,-0.009 0.007,0.006 l 0.004,-5.1e-4 c -8.3e-4,-0.002 -0.003,-0.003 -0.005,-0.005 z m -7.78764,14.66267 c -7.2e-4,0.015 0.004,0.0343 0.0181,0.0599 -0.007,-0.0199 -0.0133,-0.0398 -0.0181,-0.0599 z M 85.150358,173.35583 c -9.32e-4,-5.8e-4 -0.0016,-0.001 -0.0026,-0.002 -0.01006,-0.006 -0.04474,0.0298 -0.02532,0.0248 0.0094,-0.007 0.01873,-0.015 0.02791,-0.0227 z m 33.251202,-8.81239 c -0.13707,0.0597 -0.27935,0.10429 -0.42427,0.1416 -0.0493,0.0138 -0.0979,0.0291 -0.14676,0.0439 -0.0228,0.0456 -0.0463,0.0907 -0.0718,0.13488 -0.0285,0.048 -0.0582,0.0955 -0.0853,0.14418 -0.0359,0.0616 -0.0662,0.12595 -0.0982,0.18965 -0.021,0.0421 -0.0425,0.0838 -0.0651,0.12506 l -5.2e-4,5.1e-4 c -0.004,0.01 -0.007,0.0186 -0.0114,0.0264 -0.009,0.0176 -0.019,0.0349 -0.0294,0.0517 0.21568,-0.0719 0.43164,-0.14215 0.65164,-0.2036 0.16612,-0.0436 0.32792,-0.0972 0.48679,-0.16175 z m -6.35775,4.05764 c 7.4e-4,-2e-5 0.005,0.003 0.007,0.004 -2e-5,3.4e-4 3e-5,0.001 0,0.001 -0.001,-10e-4 -0.008,-0.005 -0.007,-0.005 z m -26.605097,5.01055 c 0.002,-0.001 0.0026,5e-4 0.0021,0.002 -0.0018,8.5e-4 -0.0038,0.001 -0.0057,0.002 0.0012,-0.001 0.0028,-0.004 0.0036,-0.004 z" />
    <path
       id="path1164"
       style="fill:#000000;stroke-width:0.874001"
       d="m 107.14902,160.11064 c -0.0164,0.0191 -0.0334,0.0366 -0.0501,0.0522 -0.003,0.005 -0.006,0.0107 -0.009,0.016 0.0228,-0.0177 0.0448,-0.0344 0.063,-0.0486 -10e-4,-0.008 -0.003,-0.0114 -0.004,-0.0196 z m 0.69659,0.47077 c 0.0155,0.0661 0.0316,0.13194 0.0476,0.19792 -0.008,-0.0439 -0.0187,-0.0881 -0.0315,-0.13694 -2.1e-4,-0.0128 -0.008,-0.037 -0.016,-0.061 z m 10.90115,2.39986 c -0.007,0.0155 -0.0131,0.0312 -0.0202,0.0465 -0.0264,0.0591 -0.0539,0.11774 -0.0858,0.17414 -0.0285,0.0522 -0.0567,0.10442 -0.0832,0.15762 -0.004,0.007 -0.008,0.0144 -0.0114,0.0217 0.14091,-0.006 0.28183,-0.008 0.42323,-0.002 0.40681,0.004 0.81372,0.0303 1.21957,-0.0191 0.38389,-0.004 0.76743,0.0188 1.1498,0.0522 -0.19695,0.10196 -0.39546,0.20026 -0.60513,0.2744 -0.25862,0.0995 -0.539,0.15305 -0.76947,0.31574 -0.201,0.12085 -0.41209,0.21794 -0.62321,0.31936 -0.23449,0.14341 -0.45264,0.31382 -0.70022,0.43719 -0.27341,0.14952 -0.53484,0.32228 -0.79427,0.49454 -0.14515,0.0896 -0.29526,0.17055 -0.44545,0.25166 -0.0464,0.0716 -0.0956,0.14124 -0.14779,0.20878 -0.0613,0.0793 -0.12347,0.15781 -0.18397,0.23771 -0.043,0.0561 -0.0868,0.11181 -0.13643,0.16226 0.12874,-0.0562 0.25617,-0.11431 0.38086,-0.18035 0.23883,-0.12431 0.48063,-0.2436 0.71262,-0.38034 0.26007,-0.16173 0.51594,-0.33391 0.78548,-0.47955 0.25504,-0.11973 0.47292,-0.30231 0.71417,-0.44287 0.21226,-0.0987 0.42305,-0.19759 0.62425,-0.31781 0.2137,-0.14756 0.47151,-0.19895 0.71107,-0.28887 0.26746,-0.0959 0.52026,-0.22543 0.77153,-0.35657 0.13076,-0.0587 0.24401,-0.14478 0.36742,-0.21549 -0.003,-8e-5 -0.005,-0.001 -0.006,-0.004 -0.0177,-0.0288 -0.0287,-0.0487 -0.0429,-0.0729 0.26294,-0.33822 0.0804,-0.31213 -0.0951,-0.25786 -0.0125,0.007 -0.0248,0.0143 -0.0372,0.0217 -0.0445,-0.0668 -0.0735,-0.0319 -0.34003,-0.0806 -0.42891,-0.0425 -0.85926,-0.0734 -1.29036,-0.076 -0.40423,0.0422 -0.80829,0.0149 -1.21285,0.005 -0.0761,-0.004 -0.15228,-0.006 -0.22841,-0.006 z m 3.28713,0.45165 c -0.0112,0.006 -0.0216,0.0128 -0.0326,0.0191 0.0109,3.3e-4 0.0285,-0.0159 0.0326,-0.0191 z m -5.78104,2.91507 c -0.002,0.002 -0.005,0.004 -0.007,0.006 10e-4,-3.4e-4 0.002,-8.1e-4 0.003,-0.001 10e-4,-0.002 0.003,-0.003 0.004,-0.005 z m -2.07842,1.11879 c -0.0263,0.007 -0.053,0.0125 -0.0796,0.0171 -0.0386,0.008 -0.0775,0.009 -0.11678,0.009 -0.0245,-6.7e-4 -0.0489,-0.001 -0.0734,-0.002 -0.0189,0.006 -0.0379,0.0118 -0.0568,0.0181 -0.0289,0.01 -0.0579,0.019 -0.0873,0.0274 0.0209,0.017 0.0426,0.0331 0.0636,0.0501 0.11976,-0.0304 0.23623,-0.0718 0.35037,-0.11989 z m -0.55449,0.10025 c -0.031,0.005 -0.0622,0.008 -0.0935,0.0103 -0.008,7.2e-4 -0.0155,0.001 -0.0232,0.002 -0.063,0.0176 -0.12626,0.0346 -0.18965,0.0506 -0.11761,0.0328 -0.23726,0.0539 -0.3576,0.0713 -0.26487,0.16262 -0.52186,0.33095 -0.81236,0.51677 l 0.10801,0.16123 0.001,-5.2e-4 c 0.44957,-0.27851 0.88503,-0.59128 1.36736,-0.81132 z" />
    <path
       id="path1166"
       style="fill:#000000;stroke-width:0.874001"
       d="m 97.565621,164.89019 c -0.03268,0.0697 0.04199,0.093 0.120923,0.14728 0.0938,0.0511 0.188951,0.0998 0.286804,0.14108 -0.139888,-0.0907 -0.277121,-0.18544 -0.407727,-0.28836 z" />
    <path
       id="path1168"
       style="fill:#000000;stroke-width:0.874001"
       d="m 101.73384,167.07094 c -0.0791,0.0796 -0.0866,0.22436 -0.19844,0.18603 -0.47579,0.0155 -0.94102,0.10384 -1.40301,0.21394 -0.351945,0.11094 -0.696857,0.24637 -1.041281,0.37983 -0.194681,0.0984 -0.377513,0.2067 -0.590661,0.25838 -0.244057,0.0563 -0.465285,0.17942 -0.693498,0.27853 -0.204029,0.0851 -0.39354,0.19858 -0.576192,0.32195 l 0.01034,0.0558 c 0.25464,0.053 0.463518,0.0544 0.701249,-0.0574 0.212701,-0.0874 0.416082,-0.20319 0.640271,-0.25942 0.229084,-0.0547 0.429497,-0.15967 0.634587,-0.27285 0.330032,-0.12827 0.659966,-0.2599 0.99632,-0.36897 0.48085,-0.11739 0.96462,-0.18916 1.45573,-0.24184 0.13319,-0.0828 0.27893,-0.15606 0.28525,-0.22015 0.0189,-0.005 0.0377,-0.009 0.0563,-0.008 0.51041,0.0289 0.91239,0.14519 1.42213,0.25734 l 0.006,-0.0222 c -0.31709,-0.0969 -0.59622,-0.17849 -0.90898,-0.29093 -0.0469,-0.0169 -0.0939,-0.0342 -0.14056,-0.0517 -0.20108,-0.0472 -0.40164,-0.0952 -0.60203,-0.14314 -0.0179,-0.005 -0.0359,-0.01 -0.0537,-0.015 z" />
    <path
       id="path1170"
       style="fill:#000000;stroke-width:0.874001"
       d="m 103.97867,168.05848 c -0.001,0.28356 -0.003,0.53058 -0.0145,0.88056 -0.002,0.0519 -0.0194,0.1054 -0.0171,0.15658 -0.11954,0.20265 -0.0987,0.20637 -0.14417,0.47646 -0.0405,0.40652 -0.0848,0.81345 -0.0527,1.22163 0.0644,0.43391 0.23517,0.84743 0.40721,1.24902 0.22684,0.41637 0.26315,0.88337 0.21239,1.34565 -0.0246,0.43873 -0.021,0.87883 -0.0729,1.31568 -0.0381,0.18354 -0.0385,0.0916 0.004,0.27751 l 0.0481,0.03 c 0.23057,-0.10261 0.14004,-0.0201 0.262,-0.25477 0.0906,-0.43819 0.063,-0.88836 0.091,-1.33325 0.052,-0.51799 0.007,-1.0439 -0.24443,-1.5105 -0.16124,-0.36908 -0.32526,-0.74767 -0.39274,-1.14618 -0.0367,-0.38297 0.004,-0.76573 0.0336,-1.14825 0.0108,-0.0754 0.0299,-0.15019 0.0326,-0.22635 10e-4,-0.0356 -0.035,-0.0717 -0.0222,-0.1049 0.0224,-0.0576 0.0967,-0.0846 0.11782,-0.14263 0.0229,-0.063 0.006,-0.13401 0.007,-0.20102 0.006,-0.35161 0.006,-0.55575 0.005,-0.79375 -0.0954,-0.0228 -0.18604,-0.0519 -0.26045,-0.0915 z" />
    <path
       id="path1172"
       style="fill:#000000;stroke-width:0.874001"
       d="m 105.79096,168.44812 c 0.15512,0.16588 0.31685,0.33505 0.54622,0.56792 0.0936,0.095 0.25786,0.27039 0.39481,0.35605 0.0456,0.0285 0.0973,0.0455 0.14366,0.0729 0.42113,0.24247 0.80546,0.53937 1.23506,0.76688 0.3797,0.18271 0.74194,0.39403 1.1033,0.60978 0.41637,0.2448 0.80302,0.53546 1.20302,0.80512 0.26524,0.14112 0.59787,0.36602 0.91002,0.28319 l 0.0501,-0.23306 c -0.19932,-0.19421 -0.5382,-0.17168 -0.75137,-0.36019 -0.40651,-0.27371 -0.79947,-0.56903 -1.22422,-0.81493 -0.37002,-0.2136 -0.73894,-0.42676 -1.12499,-0.61082 -0.43548,-0.2188 -0.81679,-0.52399 -1.25316,-0.74207 -0.21349,-0.0954 -0.25295,-0.12722 -0.47232,-0.3421 -0.0883,-0.0865 -0.1665,-0.16426 -0.24081,-0.23874 -0.1728,-0.0412 -0.3462,-0.08 -0.51935,-0.11989 z" />
    <path
       id="path1248"
       style="fill:#b3b3b3;stroke-width:1.85031"
       transform="scale(0.26458333)"
       d="m 328.62696,607.97266 c -0.31092,-0.0141 -0.50761,0.002 -0.56055,0.0566 -0.21175,0.2172 1.52461,2.20072 3.85742,4.40625 3.66363,3.46414 4.96002,4.29168 9.52149,6.07813 2.90425,1.13752 7.9273,2.83058 11.16211,3.76172 3.23455,0.93114 8.80977,3.12264 12.38867,4.87109 5.33473,2.60636 6.4584,3.36568 6.23633,4.21485 -0.14897,0.56965 -0.30461,1.03901 -0.34571,1.04101 -0.0411,0.002 -2.19576,0.24678 -4.78906,0.54492 -5.99463,0.68921 -9.20459,1.76548 -13.44726,4.50782 -1.86412,1.20458 -5.09442,3.10898 -7.17774,4.23046 -3.92691,2.11437 -14.35329,9.74022 -13.91602,10.17774 0.13686,0.13686 1.63712,-0.27137 3.33399,-0.90625 4.423,-1.65495 11.24261,-3.262 15.54102,-3.66406 2.038,-0.19065 5.06249,-0.74975 6.7207,-1.24219 2.37413,-0.70504 4.27685,-0.81444 8.94726,-0.51172 4.45956,0.28903 7.39373,0.14636 11.82813,-0.57617 9.17231,-1.49456 10.67561,-0.51661 8.97266,5.83984 l -0.91602,3.41992 2.36328,6.8711 c 1.30017,3.77945 2.60336,8.79123 2.89453,11.13672 0.29117,2.34524 1.20198,6.9544 2.02539,10.24023 l 1.49805,5.97461 3.87109,-7.71875 c 2.26234,-4.51057 4.43816,-9.81384 5.23633,-12.75976 0.75118,-2.77269 1.74857,-6.41898 2.2168,-8.10352 0.46822,-1.68454 0.85156,-4.17725 0.85156,-5.53711 0,-2.68608 1.5905,-5.8584 3.43164,-6.84375 1.47652,-0.79021 2.87706,-0.26273 7.49024,2.81641 5.20589,3.47468 12.52884,7.34229 17.38281,9.17968 2.16678,0.82031 5.71523,2.59698 7.88476,3.94727 3.82225,2.37866 11.89253,6.2188 12.27149,5.83984 0.10269,-0.10268 -1.6529,-2.97929 -3.90039,-6.39062 -5.52624,-8.38837 -8.65327,-11.02391 -20.47461,-17.25586 -4.22564,-2.2277 -8.96289,-6.44228 -8.96289,-7.97461 0,-0.47417 0.97414,-1.75089 2.25195,-3.21289 -0.41034,0.12017 -0.82293,0.233 -1.23437,0.34961 -0.54187,0.13542 -1.07129,0.30699 -1.59766,0.49219 -0.41885,0.12846 -0.83067,0.27986 -1.24805,0.4121 -0.60695,0.24492 -1.24538,0.37497 -1.88476,0.50196 -0.76093,0.13342 -1.52711,0.24031 -2.29492,0.32422 -0.65458,0.0869 -1.31478,0.10693 -1.96875,0.19726 -0.59626,0.065 -1.19214,0.12287 -1.78711,0.19922 -0.42271,0.0261 -0.83287,0.11633 -1.24219,0.21875 -0.47486,0.14702 -0.95216,0.28689 -1.42774,0.43164 -0.74815,0.24522 -1.52391,0.32599 -2.30468,0.37891 -0.814,0.0227 -1.62774,-0.0642 -2.43164,-0.1836 -0.7569,-0.1104 -1.50383,-0.27159 -2.24805,-0.44531 1.08611,0.9777 3.08942,2.37842 4.85547,3.35547 2.0025,1.10786 5.55709,3.231 7.89844,4.7168 2.3411,1.48579 4.54607,2.70117 4.90039,2.70117 0.35432,0 0.64453,0.3627 0.64453,0.80664 0,1.40478 -0.91416,1.45214 -3.20703,0.16406 -9.32216,-5.2363 -15.85565,-9.58356 -18.07813,-12.02734 -0.17895,-0.19677 -0.3428,-0.33776 -0.52344,-0.52735 -1.03488,-0.223 -2.07468,-0.42046 -3.11523,-0.61718 -0.48253,-0.10084 -1.30063,-0.17547 -2.04688,-0.35352 -0.004,1.01356 -0.0385,2.23551 -0.13671,3.87891 -0.35241,5.89444 -0.28281,6.67547 0.82617,9.10156 0.96117,2.10275 1.20008,3.62513 1.14648,7.32617 -0.0372,2.56933 -0.20953,4.90126 -0.38281,5.18164 -0.90353,1.46194 -1.36914,0.0232 -1.36914,-4.23047 0,-3.49446 -0.30927,-5.51989 -1.17383,-7.70312 -0.91781,-2.31777 -1.10009,-3.66091 -0.83984,-6.18164 0.18289,-1.77144 0.48861,-4.73357 0.67968,-6.58203 0.046,-0.44482 0.12583,-0.78926 0.19336,-1.17774 -0.24338,-0.14109 -0.43372,-0.31353 -0.53515,-0.53125 -0.14407,-0.30925 -0.20933,-0.64508 -0.26563,-0.98437 -0.37968,-0.094 -0.75659,-0.18576 -1.12695,-0.27149 -0.0235,-0.007 -0.045,-0.0143 -0.0684,-0.0215 -0.30829,0.116 -0.86247,0.0821 -1.83398,-0.082 -2.80004,-0.47306 -9.37544,0.88603 -14.80665,3.06054 -4.04807,1.62103 -7.50669,2.22448 -6.87304,1.19922 0.79984,-1.29395 10.27715,-4.70103 16.84375,-6.13281 -2.64836,-0.74579 -5.33114,-1.54689 -7.70117,-2.97266 -0.65462,-0.39379 -0.99826,-0.80854 -1.07032,-1.1582 -1.1205,-0.54461 -2.22662,-1.11737 -3.29101,-1.77148 -0.30446,-0.18659 -0.61039,-0.37277 -0.91602,-0.56055 -2.07657,-0.94562 -2.44225,-1.2449 -2.43554,-1.63867 -0.33503,-0.26015 -0.65954,-0.53429 -0.96875,-0.82617 -0.24196,-0.2284 -0.43441,-0.44874 -0.58399,-0.65625 -0.23367,-0.11756 -0.47162,-0.22819 -0.69922,-0.35743 -0.90985,-0.51961 -1.83416,-1.03617 -2.61133,-1.74804 -0.81219,-0.80871 -1.45604,-1.73549 -1.81445,-2.83594 -0.0641,-0.20258 -0.12551,-0.40531 -0.18359,-0.60937 -0.0977,-0.0712 -0.20209,-0.13257 -0.29883,-0.20508 -0.79021,-0.61418 -1.58774,-1.23073 -2.23828,-1.99805 -0.12817,-0.1571 -0.25377,-0.31559 -0.37696,-0.47656 -2.29395,-0.4195 -4.64571,-0.85036 -7.29492,-1.30469 -7.08552,-1.21517 -15.2306,-2.75209 -18.09961,-3.41602 -2.15151,-0.4977 -4.10827,-0.82684 -5.04101,-0.86914 z m 71.49023,0.17969 c -0.0199,0.001 -0.0454,0.004 -0.0586,0.008 -0.007,0.002 -0.0127,0.004 -0.0195,0.006 0.0321,-0.004 0.0651,-0.009 0.0996,-0.0137 -0.004,4e-5 -0.0123,-6.4e-4 -0.0215,0 z m 56.95703,9.53906 -8.12304,0.35938 c -0.48602,0.0214 -0.79419,0.0377 -1.12696,0.0547 -0.0302,0.0934 -0.0617,0.18701 -0.0879,0.28125 -0.3452,0.79885 -0.84517,1.45169 -1.43945,2.01757 -0.10483,0.19244 -0.20838,0.38518 -0.29297,0.5879 -0.11338,0.27269 -0.21978,0.54837 -0.32031,0.82617 -0.0848,0.22017 -0.17286,0.44052 -0.27734,0.65234 1.20433,-0.33304 2.19627,-0.57776 2.33789,-0.49023 0.27501,0.16997 2.48574,-0.72592 4.91406,-1.99024 z" />
  </g>
  <g
     inkscape:groupmode="layer"
     id="layer2"
     inkscape:label="Camada 2">
    <path
       id="path1333"
       style="fill:#000000;stroke-width:0.874001"
       d="m 106.0974,139.21372 c -0.45752,0.007 -0.92817,0.13623 -1.37769,0.21033 -0.63213,0.0999 -1.27493,0.14915 -1.89756,0.30437 -0.58016,0.14463 -0.66686,0.19584 -1.23817,0.40876 -0.65494,0.27158 -1.30688,0.5611 -1.917195,0.92449 -0.404249,0.2407 -0.786068,0.52395 -1.176156,0.78652 -0.878783,0.55416 -1.737169,1.12829 -2.513542,1.82056 -1.017154,0.93548 -1.894405,2.01535 -2.714046,3.12487 -0.476886,0.70245 -0.93273,1.41885 -1.340486,2.1637 -0.54909,1.10217 -0.803164,2.3152 -1.030945,3.51658 -0.157263,0.85904 -0.116108,1.72352 -0.0036,2.58382 0.110937,0.89555 0.380695,1.74446 0.753443,2.5616 0.365047,0.72559 0.760433,1.43499 1.108976,2.16886 0.44182,0.90408 0.78876,1.88856 1.415417,2.68769 0.433885,0.47048 0.877676,0.93144 1.312065,1.40147 0.650739,0.74407 1.427817,1.35649 2.2071,1.95853 0.633331,0.50678 1.371533,0.84156 2.069642,1.24282 0.785395,0.43738 1.577175,0.89449 2.433445,1.18184 0.1774,0.0595 0.35931,0.10433 0.53898,0.15658 1.0968,0.24017 2.20254,0.45567 3.31505,0.60927 0.78025,0.0835 1.56562,0.0322 2.34817,0.0186 0.62223,-0.0162 1.24359,-0.0429 1.86604,-0.0543 0.49583,-0.0316 0.98899,-0.10578 1.48105,-0.17415 0.42579,-0.1111 0.85437,-0.2016 1.28726,-0.28112 0.43045,-0.0789 0.85047,-0.19844 1.28364,-0.26407 0.50581,-0.0591 0.99457,-0.20234 1.46709,-0.3886 0.45793,-0.17642 0.88324,-0.39397 1.26814,-0.69919 0.58258,-0.39917 0.89829,-1.01577 1.2237,-1.6216 0.29651,-0.49684 0.47027,-1.05446 0.76688,-1.54978 0.28434,-0.5295 0.49357,-1.09547 0.70176,-1.6583 0.25893,-0.57785 0.48184,-1.16665 0.66095,-1.77405 0.16329,-0.52234 0.3117,-1.04532 0.40772,-1.5844 0.09,-0.46164 0.0969,-0.93253 0.15762,-1.39784 0.11792,-0.60899 0.14679,-1.22126 0.12867,-1.83969 -0.0403,-0.56605 -0.0592,-1.13393 -0.12092,-1.6986 -0.0567,-0.6847 -0.2786,-1.33553 -0.49765,-1.98127 -0.21183,-0.57847 -0.39837,-1.16613 -0.61856,-1.7415 -0.24403,-0.53998 -0.51043,-1.06866 -0.75655,-1.60817 -0.29072,-0.49058 -0.62995,-0.9487 -0.92862,-1.43506 -0.22493,-0.42911 -0.56693,-0.77292 -0.86817,-1.14618 -0.28871,-0.39206 -0.58842,-0.77268 -0.9126,-1.13585 -0.34968,-0.40971 -0.74091,-0.77169 -1.15084,-1.11931 -0.31399,-0.27989 -0.67002,-0.50556 -1.01182,-0.74879 -0.37728,-0.22546 -0.74584,-0.46516 -1.12138,-0.6935 -0.27166,-0.15758 -0.52961,-0.33098 -0.77256,-0.52968 -0.30498,-0.23963 -0.66181,-0.39906 -0.98134,-0.61598 -0.30382,-0.21178 -0.65063,-0.3484 -0.98495,-0.50333 -0.27317,-0.16622 -0.57437,-0.27388 -0.85266,-0.42995 -0.28032,-0.19026 -0.58812,-0.32469 -0.90176,-0.44803 -0.057,-0.0306 -0.11634,-0.0511 -0.17621,-0.0687 l 0.0672,-0.22996 c -0.78544,-0.2054 -1.58425,-0.4232 -2.40399,-0.41032 z m 0.12867,0.46716 c 0.33997,-0.002 0.67638,0.0406 1.00924,0.10439 -0.10897,0.10199 -0.13692,0.22465 -0.14779,0.44183 l 0.0491,0.0284 c 0.0613,-0.0152 0.1852,-0.0636 0.25373,-0.0191 0.0229,0.0149 -0.0218,0.0647 0.0114,0.0811 0.0289,0.0218 0.0901,0.0235 0.13281,0.0377 0.12722,0.0449 0.27648,0.0976 0.41703,0.12557 0.13585,0.0217 0.26419,0.047 0.39016,0.11162 0.28332,0.11607 0.56077,0.24317 0.81493,0.41651 0.2944,0.16309 0.60935,0.28223 0.89866,0.45527 0.29799,0.14009 0.60952,0.26105 0.87901,0.45321 0.30079,0.2036 0.62782,0.36579 0.91829,0.58497 0.26973,0.22236 0.55683,0.41758 0.85887,0.59377 0.35957,0.21748 0.70946,0.45148 1.07228,0.66404 0.32307,0.23239 0.66125,0.44537 0.95808,0.7121 0.38075,0.32658 0.74736,0.66181 1.06764,1.05006 0.31264,0.35726 0.60499,0.72882 0.88625,1.11156 0.27921,0.34804 0.59894,0.66584 0.80563,1.06661 0.2794,0.45994 0.5884,0.90004 0.87282,1.3565 0.23748,0.52483 0.48846,1.04291 0.72244,1.5689 0.21567,0.56614 0.39542,1.14505 0.60616,1.71307 0.20009,0.58983 0.40851,1.18319 0.45837,1.80919 0.0598,0.54341 0.0753,1.0901 0.11576,1.63505 0.0191,0.57518 -0.0141,1.14228 -0.12454,1.70842 -0.0593,0.45291 -0.0683,0.91126 -0.15452,1.36064 -0.0906,0.50941 -0.2409,0.99955 -0.39997,1.49138 -0.15019,0.50451 -0.33564,0.99354 -0.54209,1.4764 -0.005,0.0531 -0.0111,0.10614 -0.0176,0.15916 -0.0141,0.0907 -0.034,0.18023 -0.0563,0.26923 -0.0186,0.0756 -0.037,0.15135 -0.0579,0.22635 -0.0174,0.0622 -0.0354,0.12433 -0.0548,0.18603 -0.0193,0.0615 -0.0411,0.1221 -0.0651,0.1819 -0.0244,0.0622 -0.0498,0.12421 -0.0775,0.18501 -0.0264,0.0591 -0.0539,0.11774 -0.0858,0.17414 -0.0285,0.0522 -0.0567,0.10442 -0.0832,0.15762 -0.0131,0.0261 -0.0274,0.0516 -0.0408,0.0775 -0.0146,0.06 -0.0367,0.11822 -0.0532,0.17777 -0.0919,0.21267 -0.22543,0.38602 -0.38396,0.5364 -0.0271,0.0499 -0.0525,0.10047 -0.0744,0.15296 -0.03,0.0721 -0.0581,0.14509 -0.0847,0.21859 -0.0254,0.066 -0.0514,0.13212 -0.0842,0.19482 -0.0246,0.0494 -0.0498,0.0984 -0.0775,0.14625 -0.0285,0.048 -0.0582,0.0955 -0.0853,0.14418 -0.0359,0.0616 -0.0662,0.12595 -0.0982,0.18965 -0.021,0.0421 -0.0425,0.0838 -0.0651,0.12506 l -5.2e-4,5.1e-4 c -0.004,0.01 -0.007,0.0186 -0.0114,0.0264 -0.0171,0.0334 -0.0371,0.0652 -0.0589,0.0956 l -5.1e-4,5.2e-4 c -0.0572,0.0926 -0.11897,0.18208 -0.18552,0.2682 -0.0356,0.046 -0.0713,0.0921 -0.10697,0.13797 -0.16615,0.26111 -0.36018,0.4997 -0.62839,0.68161 -0.31438,0.26102 -0.67578,0.42329 -1.05368,0.57413 -0.38127,0.15635 -0.77802,0.26936 -1.18597,0.32711 -0.0149,0.005 -0.0298,0.01 -0.0444,0.0145 -0.0453,0.0151 -0.0921,0.0266 -0.13901,0.0346 -0.0386,0.008 -0.0775,0.009 -0.11678,0.009 -0.0126,-3.4e-4 -0.0251,-8.7e-4 -0.0377,-0.001 -0.0292,0.006 -0.0587,0.0102 -0.0879,0.016 -0.002,5.2e-4 -0.003,0.001 -0.005,0.002 -0.0521,0.0173 -0.10505,0.0336 -0.15865,0.0455 -0.0538,0.0109 -0.10798,0.0187 -0.16278,0.0227 -0.002,1.4e-4 -0.003,3.8e-4 -0.005,5.2e-4 -0.0246,0.005 -0.0493,0.0106 -0.0739,0.016 -0.0445,0.012 -0.0891,0.0243 -0.13384,0.0357 -0.11879,0.0331 -0.23965,0.0543 -0.36122,0.0718 -0.0261,0.005 -0.0519,0.0118 -0.078,0.0171 -0.13929,0.0256 -0.27787,0.0543 -0.41651,0.0822 -0.001,3.7e-4 -0.002,7.8e-4 -0.003,0.001 -0.16943,0.0567 -0.34235,0.10168 -0.51418,0.15038 -0.14337,0.0358 -0.28344,0.0812 -0.42271,0.13022 -0.11082,0.034 -0.21978,0.074 -0.33021,0.10904 -0.16059,0.0648 -0.32951,0.0992 -0.49868,0.13281 -0.20133,0.0353 -0.40405,0.0636 -0.6072,0.0858 -0.17319,0.023 -0.34787,0.0283 -0.5209,0.0522 -0.15776,0.0172 -0.31546,0.0325 -0.47283,0.0527 -0.11184,0.007 -0.22037,0.0308 -0.32867,0.0579 -0.12564,0.0389 -0.25192,0.0759 -0.37775,0.11421 -0.19796,0.0649 -0.4032,0.0863 -0.60978,0.10025 -0.21537,0.006 -0.43068,-0.017 -0.64338,-0.0486 -0.22705,-0.0331 -0.45082,-0.0828 -0.67386,-0.1359 -0.24581,-0.0613 -0.49325,-0.1152 -0.74,-0.1726 -0.30999,-0.0692 -0.62172,-0.12807 -0.9338,-0.18707 -0.25037,-0.0523 -0.84192,-0.0771 -0.96273,-0.33642 -0.008,-0.018 -0.0157,-0.0362 -0.0222,-0.0548 -0.28585,-0.0558 -0.57142,-0.11345 -0.85628,-0.1726 -0.75746,-0.21454 -1.4758,-0.52907 -2.16731,-0.90021 -0.39669,-0.13607 -0.783532,-0.29788 -1.143079,-0.51418 -0.152288,-0.0916 -0.240678,-0.18764 -0.272852,-0.27233 -0.188599,-0.10201 -0.376566,-0.20548 -0.560172,-0.31574 -0.108115,-0.0602 -0.215235,-0.12213 -0.320911,-0.18707 -0.395886,-0.24262 -0.803699,-0.48012 -1.143083,-0.80047 -0.06203,-0.0586 -0.111832,-0.11507 -0.150895,-0.16847 -0.06363,-0.0319 -0.126762,-0.0646 -0.188619,-0.0997 -0.240729,-0.13749 -0.485288,-0.27416 -0.690914,-0.46251 -0.214889,-0.21397 -0.385244,-0.45918 -0.480074,-0.75034 -0.0073,-0.023 -0.01418,-0.0461 -0.02119,-0.0692 -0.07556,-0.08 -0.151152,-0.15994 -0.22686,-0.23978 -0.168178,-0.13258 -0.332825,-0.27015 -0.471805,-0.43408 -0.07985,-0.0979 -0.157001,-0.19804 -0.226343,-0.30335 -0.04539,-0.0481 -0.0911,-0.096 -0.136426,-0.14417 -0.20491,-0.24832 -0.35596,-0.52924 -0.504362,-0.81494 -0.294227,-0.56645 -0.56524,-1.14633 -0.825273,-1.72909 -0.350918,-0.72822 -0.746598,-1.43276 -1.112593,-2.15336 -0.344871,-0.75082 -0.591669,-1.5309 -0.696082,-2.35438 -0.102745,-0.78447 -0.143595,-1.57436 -5.16e-4,-2.35799 0.211282,-1.12806 0.445451,-2.26775 0.95343,-3.30575 0.390134,-0.7181 0.828635,-1.4078 1.282609,-2.08721 0.78511,-1.07685 1.630091,-2.12126 2.600875,-3.03702 0.743441,-0.68416 1.573989,-1.24628 2.413806,-1.80506 0.369524,-0.25899 0.730802,-0.53895 1.115694,-0.77514 0.581252,-0.35669 1.205082,-0.63937 1.824182,-0.92191 0.49946,-0.19873 0.63567,-0.27011 1.14515,-0.40876 0.61368,-0.16701 1.25139,-0.22213 1.87533,-0.33538 0.36568,-0.0717 0.90337,-0.23016 1.26814,-0.2465 0.0489,-0.002 0.098,-0.003 0.14676,-0.004 z" />
    <path
       style="fill:#b3b3b3;stroke-width:2.61674"
       d="m 399.2869,636.37535 c -2.81007,-0.60849 -5.66184,-1.60078 -6.33726,-2.20509 -0.67541,-0.60431 -4.40991,-2.01783 -8.29888,-3.14115 -3.88897,-1.12332 -7.83313,-2.75851 -8.76479,-3.63376 -0.93165,-0.87525 -1.92711,-1.59136 -2.21212,-1.59136 -1.42893,0 -10.33118,-6.91104 -10.92955,-8.48489 -0.37915,-0.99723 -0.99462,-1.81315 -1.36771,-1.81315 -1.03703,0 -4.99706,-6.61955 -9.48123,-15.84875 -6.09187,-12.53811 -6.83871,-17.37868 -4.23035,-27.4189 3.86362,-14.87207 17.65434,-30.33108 34.55072,-38.73038 8.10309,-4.0281 22.57647,-6.56102 22.57647,-3.951 0,0.65353 0.49847,1.18824 1.10771,1.18824 1.92597,0 14.86653,6.91075 21.84352,11.66527 11.08017,7.55066 19.25752,18.70645 23.87774,32.57472 2.3697,7.113 2.47299,7.93567 2.0934,16.67403 -0.34239,7.88214 -0.8188,10.43346 -3.34354,17.90559 -5.75541,17.03348 -9.59354,21.29626 -21.04427,23.37268 -2.79685,0.50716 -5.73077,1.26762 -6.51981,1.6899 -1.59294,0.85252 -14.33934,3.08177 -16.82651,2.94283 -0.87138,-0.0486 -3.88347,-0.58635 -6.69354,-1.19483 z"
       id="path3086"
       transform="scale(0.26458333)" />
    <path
       style="fill:#000000;stroke-width:0.874001"
       id="path3088"
       d="m 105.99601,143.76556 c 0.27003,0.15264 0.55967,0.31474 0.82703,0.4723 0.20881,0.12306 0.37158,0.21487 0.555,0.37161 0.20969,0.17918 0.34739,0.34433 0.53349,0.549 0.37572,0.47987 0.81982,0.89655 1.24064,1.33469 0.2764,0.28778 0.31484,0.34646 0.58192,0.66732 0.49338,0.62265 0.94335,1.28025 1.3195,1.98019 0.3261,0.66739 0.59506,1.35985 0.9122,2.03139 0.27823,0.54745 0.42688,1.14377 0.54466,1.7427 0.13219,0.66368 0.0623,1.33296 -0.002,1.99892 -0.0134,0.12903 -0.0252,0.25822 -0.0402,0.38707 -0.0382,0.3291 -0.0647,0.50622 -0.12322,0.83923 -0.0232,0.13206 -0.13701,0.71789 -0.16062,0.87947 -0.012,0.0818 -0.0158,0.16466 -0.0237,0.24699 0,0 0.0519,0.0228 0.0519,0.0228 v 0 c 0.0579,-0.0673 0.12654,-0.12672 0.17363,-0.20199 0.39736,-0.63504 0.47491,-1.4048 0.55564,-2.13064 0.072,-0.70808 0.13889,-1.42035 -0.005,-2.12547 -0.12453,-0.63663 -0.28336,-1.26408 -0.58055,-1.84514 -0.32483,-0.67574 -0.59695,-1.37512 -0.93619,-2.04409 -0.0571,-0.1045 -0.11152,-0.21056 -0.17144,-0.3135 -0.35347,-0.60732 -0.78045,-1.17035 -1.21383,-1.72171 -0.10826,-0.12666 -0.21341,-0.25605 -0.32478,-0.37997 -0.28806,-0.32054 -0.61292,-0.60267 -0.91305,-0.91118 -0.10611,-0.10906 -0.20783,-0.2223 -0.31055,-0.33455 -0.10849,-0.11856 -0.21539,-0.23857 -0.32308,-0.35786 -0.23556,-0.24579 -0.33286,-0.3652 -0.59912,-0.57424 -0.43581,-0.34216 -0.9632,-0.54789 -1.43922,-0.82328 0,0 -0.12908,0.23995 -0.12908,0.23995 z" />
    <path
       style="fill:#000000;stroke-width:0.874001"
       id="path3090"
       d="m 96.93694,156.18052 c 0.08696,0.61628 0.262546,1.21429 0.537929,1.77323 0.204198,0.41445 0.484365,0.77961 0.768202,1.14061 0.578509,0.55872 0.27913,0.31695 0.888162,0.73746 0,0 0.03766,-0.0423 0.03766,-0.0423 v 0 c -0.472696,-0.54204 -0.223948,-0.26269 -0.747691,-0.83674 -0.275844,-0.34324 -0.551453,-0.68942 -0.754033,-1.08332 -0.276514,-0.53766 -0.456814,-1.11438 -0.549955,-1.71118 0,0 -0.180274,0.0223 -0.180274,0.0223 z" />
  </g>
</svg>
