<?xml version="1.0" encoding="UTF-8" standalone="no"?>
<!-- Created with Inkscape (http://www.inkscape.org/) -->

<svg
   width="210mm"
   height="297mm"
   viewBox="0 0 210 297"
   version="1.1"
   id="svg20058"
   inkscape:version="1.2 (dc2aedaf03, 2022-05-15)"
   sodipodi:docname="abaxaki.svg"
   xmlns:inkscape="http://www.inkscape.org/namespaces/inkscape"
   xmlns:sodipodi="http://sodipodi.sourceforge.net/DTD/sodipodi-0.dtd"
   xmlns="http://www.w3.org/2000/svg"
   xmlns:svg="http://www.w3.org/2000/svg">
  <sodipodi:namedview
     id="namedview20060"
     pagecolor="#505050"
     bordercolor="#eeeeee"
     borderopacity="1"
     inkscape:showpageshadow="0"
     inkscape:pageopacity="0"
     inkscape:pagecheckerboard="0"
     inkscape:deskcolor="#505050"
     inkscape:document-units="mm"
     showgrid="false"
     inkscape:zoom="1.7852694"
     inkscape:cx="427.38649"
     inkscape:cy="160.76005"
     inkscape:window-width="2560"
     inkscape:window-height="1369"
     inkscape:window-x="2552"
     inkscape:window-y="-8"
     inkscape:window-maximized="1"
     inkscape:current-layer="layer1" />
  <defs
     id="defs20055" />
  <g
     inkscape:label="Camada 1"
     inkscape:groupmode="layer"
     id="layer1">
    <path
       style="fill:#000000;stroke-width:0.874001"
       id="path20546"
       d="m 105.41859,104.03304 c -2.27205,-0.0185 -4.52815,0.5853 -6.547025,1.62008 -0.662453,0.33954 -1.291402,0.74082 -1.937102,1.11123 -2.444898,1.62107 -4.791141,3.44047 -6.814597,5.57566 -1.606254,1.69496 -3.27772,3.86363 -4.574056,5.79332 -0.749903,1.11629 -1.418005,2.2854 -2.127007,3.4281 -3.47967,6.15478 -6.098788,12.80959 -7.324018,19.79317 -0.246782,1.40661 -0.372372,2.83181 -0.558557,4.24771 -0.551616,6.07164 0.0822,11.92973 1.809166,17.77224 1.141261,3.861 2.112494,6.04451 3.601849,9.7763 3.042232,7.03188 6.621936,13.96159 11.676549,19.78346 0.853329,0.98286 1.796741,1.88373 2.69511,2.8256 3.978867,3.77564 8.609528,6.86503 13.888688,8.48539 0.86588,0.26577 1.76009,0.42845 2.64013,0.64267 1.35676,0.14861 2.70688,0.38237 4.07028,0.44582 2.8622,0.1332 5.77587,-0.51406 8.42759,-1.54623 2.34675,-0.91345 3.14527,-1.48214 5.32733,-2.73554 3.27586,-2.05307 6.23803,-4.56204 8.84807,-7.4112 1.58535,-1.73058 2.09083,-2.46643 3.52394,-4.32303 2.72413,-3.71583 5.0599,-7.71451 6.81416,-11.97962 0.37016,-0.89996 0.69242,-1.81889 1.03863,-2.72833 1.65958,-4.81703 2.91432,-9.80821 3.46773,-14.8815 0.1109,-1.01659 0.16097,-2.03889 0.24146,-3.05833 0.20893,-4.04519 -0.0841,-8.1164 -0.88317,-12.08865 -0.47704,-2.37135 -0.90225,-3.72841 -1.55132,-6.05088 -1.17968,-3.71843 -2.50151,-7.41623 -4.3804,-10.84687 -1.12595,-2.05588 -1.60549,-2.67976 -2.8924,-4.59655 -2.21955,-3.03969 -4.86898,-5.75654 -7.96045,-7.91582 -0.55021,-0.38429 -1.13171,-0.7217 -1.69756,-1.08255 -3.12588,-2.02609 -6.50792,-3.57928 -9.95015,-4.97623 -2.79037,-1.18978 -5.68344,-2.0852 -8.63068,-2.78565 -2.14203,-0.49174 -4.30768,-0.8666 -6.48331,-1.17217 -1.45713,-0.19322 -2.92189,-0.31875 -4.38844,-0.41223 -1.58981,-0.14578 -3.04092,0.0928 -4.5676,0.61234 -0.14874,0.0506 -0.249995,0.19037 -0.374989,0.28556 -0.357957,0.59054 -0.157475,0.28516 -0.609682,0.9107 0,0 0.146328,-0.0219 0.146328,-0.0219 v 0 c 0.958863,-0.74375 0.438449,-0.39807 1.571533,-1.02138 0.24977,-0.0994 1.01009,-0.23295 0.74931,-0.29817 -0.32022,-0.0801 -0.65686,0.1134 -0.95929,0.24566 -0.14814,0.0648 0.32198,-0.0331 0.48361,-0.0376 0.57121,-0.0161 1.14272,0.0527 1.71331,0.0612 1.47179,0.0872 2.94172,0.21197 4.4055,0.38961 2.19022,0.29304 4.3668,0.66658 6.52285,1.15488 2.92763,0.67039 5.81717,1.48254 8.62016,2.57164 3.4067,1.3573 6.7978,2.78902 9.95365,4.67294 1.07084,0.71427 2.34508,1.53648 3.36413,2.32657 2.39302,1.85534 4.54017,4.02904 6.33721,6.46597 1.31502,1.92088 1.77655,2.49885 2.91822,4.56946 1.87389,3.39863 3.25573,7.04321 4.41192,10.73966 0.70434,2.49947 1.03227,3.47537 1.53902,6.03109 0.78561,3.9621 1.08996,8.01242 0.88671,12.04671 -0.0802,1.01607 -0.13081,2.0349 -0.24062,3.04819 -0.54789,5.05576 -1.79041,10.02248 -3.42777,14.82852 -0.33868,0.90778 -0.65469,1.82434 -1.01603,2.72333 -1.6993,4.22772 -3.92684,8.22311 -6.58922,11.91928 -1.45986,1.93244 -1.84763,2.53706 -3.47657,4.32955 -2.58753,2.8473 -5.54277,5.33855 -8.80373,7.38252 -0.87297,0.49754 -1.72311,1.03744 -2.61889,1.49263 -3.86048,1.96168 -8.16692,3.141 -12.51621,2.65101 -2.43405,-0.5725 -2.99563,-0.59647 -5.32965,-1.59006 -4.23791,-1.80407 -8.024687,-4.49576 -11.396036,-7.60761 -2.527541,-2.63588 -3.116131,-3.09343 -5.337932,-6.05658 -3.818112,-5.09211 -6.768785,-10.77107 -9.318149,-16.58403 -1.532821,-3.79409 -2.459844,-5.8217 -3.617364,-9.75585 -1.701377,-5.7826 -2.368672,-11.7759 -1.844498,-17.78702 0.176953,-1.4208 0.292632,-2.85057 0.530862,-4.26238 1.175846,-6.96837 3.77293,-13.61657 7.241681,-19.74944 0.712324,-1.14144 1.384241,-2.30911 2.136973,-3.42432 1.331166,-1.97217 2.944818,-4.05276 4.589494,-5.78192 2.026809,-2.13091 4.367533,-3.95178 6.822019,-5.55844 1.242574,-0.70284 2.82941,-1.71013 4.25866,-2.0423 0.90382,-0.21006 1.83744,-0.28795 2.76294,-0.29838 0,0 0.7077,-0.29088 0.7077,-0.29088 z" />
    <path
       style="fill:#000000;stroke-width:0.874001"
       id="path20550"
       d="m 120.60875,107.58803 c 0.78655,-2.90252 1.36734,-5.85672 2.0501,-8.785217 1.07439,-4.552029 2.26028,-9.076655 3.37231,-13.619432 0.95664,-4.03374 1.68387,-8.116316 2.47861,-12.183742 0.55447,-2.793074 1.09885,-5.587982 1.66453,-8.378828 0.0188,-0.54156 0.58751,-2.026991 0.34663,-2.512861 -0.46422,0.124613 -0.95225,0.181287 -1.39266,0.373837 -0.0913,0.03994 -0.62294,0.837713 -0.63244,0.852313 -0.48749,0.749628 -0.92356,1.530715 -1.36035,2.310262 -1.34362,2.303685 -2.65263,4.62475 -3.88416,6.990334 -1.51099,2.877315 -2.83564,5.846527 -4.12613,8.827545 -1.17211,2.82887 -2.2361,5.70139 -3.20151,8.607002 -0.74315,2.248961 -1.33858,4.541753 -1.91581,6.837616 -0.35398,1.371418 -0.71633,2.740957 -1.05157,4.117121 -0.21332,0.85256 -0.35461,1.72053 -0.51217,2.58445 -0.11326,0.71709 -0.26204,1.42766 -0.40528,2.13916 -0.16959,0.59605 0.22141,0.71951 0.46642,1.18194 0,0 0.19938,0.0445 0.19938,0.0445 v 0 c 0.45635,-0.30073 0.83289,-0.24771 0.92206,-0.88274 0.15651,-0.72751 0.28649,-1.46072 0.41534,-2.19353 0.14738,-0.8843 0.3065,-1.76716 0.51584,-2.63923 0.33744,-1.44013 0.69644,-2.87491 1.04086,-4.313333 0.55124,-2.293165 1.14435,-4.57684 1.85195,-6.827428 0.95007,-2.915973 1.98195,-5.806297 3.10466,-8.660339 1.21336,-3.0251 2.54774,-5.999607 3.9829,-8.926253 1.19786,-2.362234 2.47183,-4.681759 3.79018,-6.978914 0.43073,-0.78299 0.83036,-1.59262 1.31673,-2.343534 0.10557,-0.162991 0.21596,-0.323196 0.33484,-0.476747 0.0925,-0.119401 0.4274,-0.262695 0.29827,-0.340971 -0.25416,-0.154065 -0.5943,-0.01238 -0.89144,-0.0186 0.24747,0.223391 -0.27459,2.075625 -0.27313,2.409084 -0.50389,2.768129 -1.05891,5.525961 -1.6118,8.284652 -0.80802,4.03673 -1.57412,8.083608 -2.51464,12.092202 -1.09554,4.501676 -2.25363,8.987639 -3.34563,13.49017 -0.67245,2.913901 -1.27788,5.842901 -1.96924,8.751981 0,0 0.93635,0.18749 0.93635,0.18749 z" />
    <path
       style="fill:#000000;stroke-width:0.874001"
       id="path20552"
       d="m 119.6293,80.174086 c 0.5556,-3.216887 1.1062,-6.434635 1.67172,-9.649815 0.91009,-5.478528 1.79824,-10.959846 2.77367,-16.427188 0.82166,-4.220548 1.64456,-8.440692 2.44877,-12.664604 0.36397,-1.9662 0.79189,-3.920722 1.09874,-5.897096 -0.0108,-0.287679 0.33462,-1.312947 -0.10708,-1.49279 -0.0653,-0.02659 -0.14089,-0.0062 -0.21134,-0.0093 -0.35562,0.165819 -0.72634,0.302503 -1.06686,0.497461 -0.19307,0.110541 -0.7222,0.707009 -0.81497,0.818502 -0.70582,0.848294 -1.27261,1.781159 -1.84663,2.720139 -1.73107,2.914324 -3.0891,6.018779 -4.37188,9.149135 -1.6274,4.076893 -3.0467,8.232786 -4.52789,12.364133 -1.66499,4.536366 -3.33371,9.070194 -4.89739,13.642681 -1.41744,4.16801 -2.61396,8.40658 -3.68415,12.675611 -0.70315,2.760019 -1.23959,5.560313 -1.56939,8.389093 -0.1917,1.68026 -0.27549,3.37189 -0.23526,5.062389 0.0621,0.667613 0.12649,1.335143 0.19617,2.001923 0.0155,0.1478 0.0131,0.2997 0.0541,0.44253 0.0423,0.14741 0.12861,0.27845 0.19292,0.41767 0,0 0.18187,0.0306 0.18187,0.0306 v 0 c 0.11174,-0.1201 0.24828,-0.22119 0.33524,-0.36029 0.34664,-0.55449 0.41904,-1.82984 0.54576,-2.473925 0.0859,-1.682009 0.042,-3.371427 0.25276,-5.046691 0.30728,-2.838313 0.77857,-5.655567 1.46238,-8.429194 1.03604,-4.309346 2.15297,-8.598408 3.52152,-12.816356 1.46557,-4.597955 3.09973,-9.136962 4.71779,-13.682943 1.41302,-4.179286 2.78005,-8.37766 4.37654,-12.491608 1.26035,-3.123428 2.60369,-6.221198 4.28875,-9.143598 0.56309,-0.93259 1.11989,-1.859944 1.82499,-2.695175 0.145,-0.171765 0.29967,-0.335704 0.4616,-0.491615 0.11436,-0.110114 0.47714,-0.191878 0.36578,-0.305027 -0.12429,-0.126283 -0.33744,0.108265 -0.50617,0.162396 0.0592,-0.01789 0.11606,-0.05949 0.17765,-0.05368 0.39671,0.03736 0.1492,1.203933 0.1696,1.379775 -0.1973,1.964979 -0.61659,3.898876 -0.95844,5.841797 -0.78487,4.199773 -1.57578,8.398576 -2.42086,12.586742 -1.10022,5.442804 -2.01644,10.919063 -3.00063,16.383637 -0.60007,3.20983 -1.23513,6.413021 -1.81519,9.626629 0,0 0.91585,-0.06193 0.91585,-0.06193 z" />
    <path
       style="fill:#000000;stroke-width:0.874001"
       id="path20554"
       d="m 114.56971,54.16088 c -0.46659,-2.405732 -0.88588,-4.82014 -1.28728,-7.237487 -0.48062,-2.805295 -0.87382,-5.624237 -1.26672,-8.442809 -0.3446,-2.675583 -0.7954,-5.334786 -1.30067,-7.984188 -0.37477,-2.064562 -0.89953,-4.097107 -1.50407,-6.105121 -0.45609,-1.540589 -0.96988,-3.062881 -1.48437,-4.584663 -0.41358,-1.094193 -0.75249,-2.212363 -1.01425,-3.351959 -0.13648,-0.518093 -0.20219,-1.055914 -0.38241,-1.561794 -1.08887,-0.828547 -1.6699,2.520298 -1.73967,2.840486 -0.52892,2.638879 -0.9227,5.302251 -1.31619,7.963911 -0.59502,3.846478 -1.04112,7.709313 -1.26475,11.594904 -0.17489,4.32802 -0.0815,8.66053 -0.10749,12.990677 -0.0131,4.184099 -0.30987,8.358862 -0.62939,12.52842 -0.32741,3.846184 -0.50811,7.701642 -0.62708,11.559164 -0.0799,3.113728 0.0423,6.226572 0.19128,9.336106 0.12149,2.160125 0.25227,4.319238 0.29959,6.482445 0.0157,1.616546 -0.0296,3.232851 -0.0597,4.848992 -0.005,1.370481 -0.0183,2.74088 -0.0229,4.111369 -0.0101,1.085967 0.0311,2.171487 0.13876,3.252117 0.0658,0.67829 0.129,1.35635 0.24774,2.02771 0.10913,0.5277 0.17006,1.0639 0.26003,1.59519 0.0657,0.4465 0.17569,0.88265 0.29781,1.31621 0.17959,0.55801 0.21585,0.60904 0.75948,0.8896 0,0 0.20695,0.0576 0.20695,0.0576 v 0 c 0.14801,7.9e-4 0.29931,0.0337 0.44405,0.003 0.1208,-0.0259 0.072,-0.48359 0.0682,-0.54383 -0.0644,-0.44989 -0.15306,-0.89349 -0.24721,-1.33832 -0.0878,-0.55223 -0.17421,-1.10514 -0.24139,-1.66021 -0.11445,-0.66895 -0.1907,-1.34184 -0.25503,-2.01749 -0.11182,-1.12031 -0.15828,-2.24507 -0.12475,-3.371083 0.008,-1.416465 0.0171,-2.832912 0.0211,-4.249393 0.0195,-1.618618 0.0683,-3.237569 0.0342,-4.856269 -0.0587,-2.18817 -0.20474,-4.371718 -0.35696,-6.55516 -0.18101,-3.146692 -0.31748,-6.297856 -0.25925,-9.450718 0.0851,-3.852699 0.25056,-7.702569 0.53784,-11.545967 0.24784,-4.232746 0.46574,-8.470114 0.40528,-12.712025 -0.0615,-4.326435 -0.184,-8.655362 -0.0567,-12.981517 0.19021,-3.891258 0.56191,-7.766378 1.14469,-11.619888 0.36827,-2.659679 0.75324,-5.320155 1.29911,-7.950184 0.0948,-0.406094 0.24203,-1.074934 0.36935,-1.489229 0.0503,-0.163589 0.109,-0.324837 0.17616,-0.482249 0.0494,-0.115908 0.28958,-0.288308 0.173,-0.336144 -0.17996,-0.07384 -0.88734,0.17108 -0.56386,0.15028 0.19257,0.494157 0.28959,1.019101 0.42297,1.530911 0.28506,1.124727 0.61551,2.236141 1.01966,3.32451 0.52583,1.516406 1.03484,3.038674 1.49316,4.577077 0.58176,2.000458 1.12408,4.013447 1.50239,6.064019 0.49504,2.648145 0.91294,5.308652 1.26737,7.979407 0.3926,2.808719 0.78653,5.61753 1.26129,8.413848 0.3971,2.396683 0.83526,4.786016 1.25073,7.179489 0,0 0.82,-0.189526 0.82,-0.189526 z" />
    <path
       style="fill:#000000;stroke-width:0.874001"
       id="path20556"
       d="m 102.35814,33.490453 c -0.37584,-1.859722 -0.85733,-3.695756 -1.3737,-5.520725 -0.61114,-2.1577 -1.261025,-4.303412 -1.992201,-6.423506 C 98.357832,19.745036 97.625968,17.980359 96.838353,16.241354 96.274722,14.978194 95.638674,13.74984 94.994864,12.526281 94.432891,11.467169 93.934369,10.376721 93.44367,9.2833416 93.087356,8.6802059 92.95259,7.9274698 92.528315,7.365965 90.828182,6.6441237 90.796643,9.2535189 90.685,10.084343 c -0.236715,2.370091 -0.308679,4.752326 -0.378405,7.131953 -0.08823,3.24161 0.02492,6.483404 0.167474,9.721568 0.186756,3.665577 0.397507,7.329919 0.598966,10.994726 0.158261,3.333117 0.307996,6.666595 0.44419,10.000686 0.106834,3.10239 0.314511,6.199902 0.546497,9.295053 0.257649,3.075406 0.461664,6.152671 0.563449,9.237083 0.113736,2.953356 0.06417,5.908196 0.01497,8.862118 -0.03717,2.178093 -0.0689,4.355873 -0.05427,6.534306 0.03493,1.732018 0.0885,3.462631 0.169664,5.193014 0.08179,1.737752 0.173567,3.474993 0.246764,5.213136 0.06268,1.719133 0.14841,3.437019 0.297426,5.150937 0.123791,1.233398 0.292743,2.465139 0.546299,3.678967 0.154577,0.91977 0.342754,1.83319 0.52638,2.74743 0.170289,0.69422 0.326636,1.39142 0.512652,2.08192 0.229462,0.84877 0.437369,1.27446 1.060095,1.91089 0,0 0.175437,0.1035 0.175437,0.1035 v 0 c 0.109313,7.9e-4 0.225804,0.0417 0.327943,0.003 0.188101,-0.0718 -0.200017,-1.13585 -0.244655,-1.31435 -0.203861,-0.7024 -0.39539,-1.41147 -0.512082,-2.1341 -0.195805,-0.91464 -0.381265,-1.83169 -0.546714,-2.75235 -0.181247,-1.26034 -0.408638,-2.514153 -0.519007,-3.784269 -0.160234,-1.713844 -0.259291,-3.431183 -0.317134,-5.151607 -0.07194,-1.73486 -0.151218,-3.469391 -0.223804,-5.204225 -0.07804,-1.770599 -0.108939,-3.543744 -0.144303,-5.315579 -0.01783,-2.223424 0.0396,-4.446768 0.06449,-6.669982 0.04419,-2.980857 0.06782,-5.9622 -0.02713,-8.942535 -0.103132,-3.15621 -0.22315,-6.311366 -0.509101,-9.457434 -0.227523,-3.094632 -0.480981,-6.188035 -0.584348,-9.290277 -0.140144,-3.360118 -0.293291,-6.719679 -0.495295,-10.076757 -0.220398,-3.689715 -0.47412,-7.37748 -0.665242,-11.068902 -0.153296,-3.233402 -0.283913,-6.469647 -0.212674,-9.70745 0.0442,-2.426706 0.09344,-4.858257 0.347014,-7.2739131 0.07842,-0.560008 0.106542,-0.8358872 0.220178,-1.376753 0.03468,-0.1650592 0.07203,-0.3298851 0.120529,-0.4914246 0.03409,-0.1135444 0.244165,-0.315745 0.126775,-0.332291 -0.476203,-0.067119 -1.464654,0.3698126 -0.975024,0.1575824 0.49058,0.4888031 0.63383,1.2795961 0.987861,1.8582862 0.498467,1.0919491 0.989772,2.1877151 1.547826,3.2511091 0.642302,1.221579 1.270029,2.451242 1.836928,3.710046 0.775353,1.702967 1.523098,3.419231 2.142633,5.186312 0.746561,2.09234 1.374973,4.222915 1.990984,6.356886 0.524614,1.839246 1.023534,3.688699 1.398404,5.565052 0,0 1.10048,-0.194955 1.10048,-0.194955 z" />
    <path
       style="fill:#000000;stroke-width:0.874001"
       id="path20566"
       d="m 92.474022,111.13102 c -0.737904,-1.71381 -1.72548,-3.28492 -2.819696,-4.78914 -1.534782,-2.00985 -3.281188,-3.84173 -4.97609,-5.71407 -1.941669,-2.265517 -3.969925,-4.449195 -6.017744,-6.618567 -2.065724,-2.152203 -4.123,-4.31207 -6.200495,-6.453023 -1.373161,-1.377746 -2.682417,-2.815857 -4.035049,-4.213035 -0.56788,-0.569267 -1.098121,-1.173596 -1.634942,-1.77162 -0.09561,-0.136044 -0.28052,-0.248704 -0.306809,-0.422503 -0.04006,0.204586 0.171315,0.130789 0.35142,0.124402 0.597972,-0.0097 1.189482,0.08847 1.756286,0.272116 -0.437616,-0.08791 -0.871884,-0.194546 -1.312847,-0.26374 -0.166211,-0.02609 0.32512,0.08686 0.486601,0.134091 0.747305,0.218567 1.472022,0.489969 2.197425,0.771319 1.483405,0.569841 2.933501,1.197292 4.351009,1.91594 1.488223,0.808149 2.940677,1.678893 4.395169,2.545551 1.335354,0.767842 2.637938,1.588112 3.886776,2.490997 1.144043,0.700775 2.053786,1.697466 3.060944,2.567953 0.795559,0.781592 1.579282,1.574959 2.363726,2.367653 0.736944,0.749967 1.489901,1.482288 2.21284,2.245712 0.595353,0.620252 1.172777,1.257348 1.760877,1.884399 0.348363,0.389946 0.732877,0.743517 1.102195,1.111682 0.380215,0.456694 0.874456,0.744893 1.372362,1.054833 0,0 0.198869,0.0777 0.198869,0.0777 v 0 c 0.552231,0.0105 0.783386,0.0469 0.371258,-0.493407 -0.369649,-0.379497 -0.716349,-0.782682 -1.101336,-1.148543 -0.600342,-0.626787 -1.190908,-1.262734 -1.787911,-1.892662 -0.729179,-0.770271 -1.449716,-1.547593 -2.211134,-2.286619 -0.786085,-0.797907 -1.571431,-1.596536 -2.376503,-2.375424 -0.925568,-1.007986 -1.953506,-1.903389 -3.021168,-2.757572 -1.267138,-0.919396 -2.568602,-1.790684 -3.896461,-2.61896 -1.455679,-0.867952 -2.91932,-1.725842 -4.418798,-2.516134 -1.43456,-0.728597 -2.890573,-1.420942 -4.380611,-2.027942 -1.611024,-0.634772 -3.22394,-1.195755 -4.955051,-1.435944 -0.585324,-0.05737 -1.170363,-0.178323 -1.760855,-0.135773 -0.148013,0.01318 -0.480171,-0.0011 -0.362836,0.252881 0.121087,0.08611 0.23594,0.267295 0.366927,0.372422 0.579779,0.594275 1.136605,1.210733 1.734915,1.786982 1.391206,1.38103 2.79844,2.744944 4.156086,4.15975 2.081535,2.124372 4.194669,4.216847 6.275601,6.341671 2.070148,2.1146 4.073187,4.29319 6.062628,6.483654 1.74743,1.85255 3.503983,3.7041 5.077881,5.70917 1.116568,1.49206 2.17895,3.03695 2.998322,4.71573 0,0 1.036219,0.54804 1.036219,0.54804 z" />
    <path
       style="fill:#000000;stroke-width:0.874001"
       id="path20570"
       d="m 84.192223,88.978784 c -0.518959,-2.456889 -1.476391,-4.7839 -2.429404,-7.09666 -1.366674,-3.313623 -3.044055,-6.485985 -4.698167,-9.662072 -1.119619,-2.251996 -2.329635,-4.457144 -3.51486,-6.674826 -0.541988,-1.085197 -1.19948,-2.105451 -1.749335,-3.186354 -0.301844,-0.65579 -0.540962,-1.335259 -0.727329,-2.031994 -0.01077,-0.01233 -0.150929,-0.616466 -0.08868,-0.432385 0.316161,0.453832 -0.09072,-0.171842 -1.296287,0.09743 -0.11712,0.02617 0.199173,0.134242 0.294003,0.207785 0.117922,0.09145 0.231873,0.188042 0.343741,0.286803 0.272426,0.240506 0.534855,0.492115 0.804199,0.736066 0.974158,1.062397 1.931783,2.144307 2.843011,3.261198 1.092978,1.359662 2.196245,2.710955 3.309157,4.054346 1.11085,1.333111 2.240441,2.650283 3.341285,3.991721 1.103429,1.365927 2.196896,2.739305 3.337952,4.074181 1.122542,1.298816 2.306174,2.539796 3.415503,3.849732 1.05976,1.142624 1.915785,2.452235 2.73508,3.772212 0.772539,1.156719 1.411854,2.395617 2.055067,3.627075 0.394462,0.585536 0.643927,1.271649 1.107384,1.811745 0.249648,0.290931 0.599728,0.566695 0.887143,0.811284 0.106576,0.103397 0.213153,0.206793 0.31973,0.31019 0,0 0.184552,0.06589 0.184552,0.06589 v 0 c 0.0099,-0.06184 0.0199,-0.123671 0.02984,-0.18551 0.04368,-0.06623 0.117115,-0.120591 0.131053,-0.198699 0.103357,-0.579168 -0.725352,-1.605127 -0.870976,-2.175402 -0.671844,-1.255196 -1.35213,-2.505577 -2.048651,-3.747317 -0.836631,-1.345761 -1.72984,-2.649405 -2.728872,-3.881136 -1.12961,-1.320993 -2.252665,-2.64604 -3.42019,-3.934026 -1.14917,-1.334841 -2.2601,-2.700017 -3.350188,-4.083481 -1.102924,-1.346716 -2.253504,-2.652152 -3.374451,-3.98371 -1.137306,-1.337709 -2.268291,-2.680784 -3.390559,-4.031144 -0.944813,-1.139465 -1.858015,-2.305851 -2.89651,-3.364634 -0.643625,-0.721493 -2.231927,-2.527816 -3.378393,-1.578991 -0.04691,0.204927 0.08809,0.403804 0.129262,0.60525 0.217956,0.677045 0.447675,1.356661 0.780987,1.98673 0.568097,1.07361 1.205764,2.109358 1.867736,3.127287 1.265147,2.191234 2.453558,4.425122 3.659836,6.648977 1.674074,3.166136 3.420366,6.301581 4.798049,9.613511 0.964033,2.308976 1.91856,4.627385 2.622973,7.031593 0,0 0.965309,0.277336 0.965309,0.277335 z" />
    <path
       style="fill:#000000;stroke-width:0.874001"
       id="path20576"
       d="M 84.214093,73.905495 C 84.163023,71.497364 83.756025,69.115111 83.323842,66.751533 82.434654,62.315809 81.217147,57.955108 80.085014,53.577442 79.059475,49.544816 78.0646,45.504515 77.029452,41.474331 76.584933,39.808753 76.162994,38.138406 75.806103,36.451947 75.703752,35.939952 75.61047,35.42521 75.542861,34.907323 c -0.01352,-0.158287 0.265089,-1.157894 -0.694928,0.196762 -0.08326,0.117491 0.180049,0.224846 0.266526,0.33999 0.329999,0.439391 0.432657,0.601983 0.756586,1.075648 1.436918,2.20378 2.798138,4.4558 4.132125,6.723009 1.615347,2.718843 3.231317,5.436928 4.783548,8.192402 1.40463,2.481763 2.787896,4.975402 4.099276,7.507806 1.052145,2.135812 2.140305,4.251286 3.367405,6.292199 0.435073,0.874678 1.04167,1.583021 1.71767,2.272763 0,0 0.144949,0.01527 0.144949,0.01527 v 0 c -0.02756,-0.20869 -0.02214,-0.424461 -0.08268,-0.626073 -0.113207,-0.377029 -0.593839,-1.237774 -0.761119,-1.553295 -1.11416,-2.149266 -2.227651,-4.298876 -3.334932,-6.45169 -1.354066,-2.548858 -2.797771,-5.0469 -4.232524,-7.550928 -1.600446,-2.746991 -3.257653,-5.459923 -4.900652,-8.181578 -1.351399,-2.267606 -2.682701,-4.547912 -4.081116,-6.786967 -0.07779,-0.118507 -0.853003,-1.385628 -0.977887,-1.433285 -0.353094,-0.134747 -0.744463,-0.134085 -1.120095,-0.17571 -0.05145,-0.0057 -0.02244,0.18614 -0.02397,0.153419 0.04059,0.524169 0.127058,1.043787 0.246981,1.555626 0.385291,1.688523 0.844169,3.357776 1.315574,5.024159 1.103223,4.008522 2.136704,8.035195 3.162837,12.064071 1.146381,4.344639 2.343203,8.681395 3.208658,13.093335 0.434871,2.339761 0.848294,4.692983 0.934836,7.076572 0,0 0.744172,0.174668 0.744172,0.174668 z" />
    <path
       style="fill:#000000;stroke-width:0.874001"
       id="path20578"
       d="M 82.696073,47.548564 C 82.663534,45.220588 82.542067,42.894239 82.383547,40.571756 82.13918,37.497567 81.79551,34.432462 81.443781,31.36906 81.106655,28.600122 80.80681,25.826896 80.544957,23.049865 c -0.2072,-2.0819 -0.303503,-4.172053 -0.351221,-6.262988 -0.0371,-1.798188 -0.02416,-3.596535 0.01442,-5.394517 -0.0024,-1.338127 0.03376,-2.675754 0.07409,-4.0131328 0.0093,-0.2940547 0.01558,-0.5881671 0.02638,-0.8821697 0.0019,-0.051502 -0.0065,-0.1044718 0.0059,-0.1544963 0.0037,-0.01502 0.0532,-0.031044 0.0387,-0.025633 -0.353672,0.131994 -0.704866,0.2705243 -1.057299,0.4057865 0.545772,1.1954665 0.995693,2.4333689 1.456748,3.6634043 0.820539,2.22471 1.761702,4.401062 2.735524,6.56204 1.197645,2.502362 2.37467,5.013779 3.457925,7.567952 0.958963,2.255016 1.823881,4.546368 2.628913,6.860189 0.626065,1.655585 0.973402,3.418838 1.677286,5.046152 0.135673,0.313666 0.303162,0.612592 0.454742,0.91889 0.18737,0.270637 0.374737,0.541274 0.562107,0.811908 0,0 0.129035,-0.01976 0.129035,-0.01976 v 0 c -0.0051,-0.298352 -0.01027,-0.596704 -0.0154,-0.895054 C 92.029046,35.173439 91.315639,33.195475 90.666468,31.2083 89.862955,28.890357 88.975609,26.603593 88.021715,24.343245 86.934698,21.771757 85.758143,19.240606 84.603652,16.699044 83.6341,14.515845 82.705193,12.315267 81.871954,10.07584 81.41908,8.8690047 80.973977,7.6576308 80.46177,6.4744094 80.025138,6.4647733 79.588256,6.4278718 79.151873,6.4455 c -0.07891,0.00319 -0.02072,0.1570503 -0.02056,0.236022 5.29e-4,0.2929904 -0.0043,0.5859114 -0.0072,0.8788834 -0.01339,1.3361887 -0.0365,2.6722816 -0.04157,4.0085546 -0.01786,1.799559 -0.06912,3.599791 -0.01296,5.399175 0.06333,2.073011 0.145269,4.146488 0.373451,6.209285 0.287108,2.77505 0.592559,5.548216 0.935721,8.316953 0.370054,3.059396 0.733409,6.120961 0.96026,9.195001 0.152566,2.282592 0.262234,4.570172 0.274828,6.858101 0,0 1.082222,0.0011 1.082222,0.0011 z" />
    <path
       style="fill:#000000;stroke-width:0.874001"
       id="path20580"
       d="m 75.784108,149.44354 c 1.6876,2.16059 3.494662,4.21878 5.360199,6.22673 2.927467,3.08718 5.94536,6.08609 8.944248,9.10319 3.204469,3.17445 6.619729,6.12216 10.037445,9.06158 3.00494,2.65723 6.21169,5.06197 9.47643,7.3861 0.0708,0.049 2.87539,1.98617 2.95452,2.04956 0.49281,0.39482 0.9209,0.86487 1.40019,1.276 1.33841,1.14808 2.72549,2.25718 4.14656,3.3006 1.81989,1.315 3.91956,2.11397 6.00611,2.88867 1.17585,0.46082 2.36606,0.88347 3.54634,1.33289 0.40205,0.16639 0.82707,0.26472 1.2367,0.40864 0.31074,0.10918 0.58686,0.26311 0.92012,0.25281 0.0788,0.0206 0.15756,0.0412 0.23634,0.0617 0,0 -0.0689,-0.0406 -0.0689,-0.0406 v 0 c -0.13048,-0.0511 -0.26097,-0.10217 -0.39145,-0.15325 -0.84198,-0.3936 -1.72297,-0.6765 -2.58921,-1.01193 -1.16903,-0.43256 -2.32811,-0.89082 -3.51121,-1.28465 -1.591,-0.59913 -3.18804,-1.16236 -4.57096,-2.18176 -0.87189,-0.6296 -1.7271,-1.22027 -2.54205,-1.92798 -1.05184,-0.91343 -1.50257,-1.54236 -2.59913,-2.4456 -0.46339,-0.38169 -0.97194,-0.70501 -1.45969,-1.05506 -0.49534,-0.3555 -0.99304,-0.70772 -1.48956,-1.06159 -3.30449,-2.33806 -6.52447,-4.78866 -9.55102,-7.48154 -3.423358,-2.97235 -6.821949,-5.97889 -10.075668,-9.13729 -3.071585,-2.96202 -6.09764,-5.97266 -9.041535,-9.06203 -1.858158,-2.02316 -3.676867,-4.08524 -5.297138,-6.30719 0,0 -1.077651,-0.19802 -1.077651,-0.19802 z" />
    <path
       style="fill:#000000;stroke-width:0.874001"
       id="path20582"
       d="m 76.609384,137.25398 c 1.057066,1.83269 2.180761,3.63665 3.544091,5.26058 0.393924,0.46922 0.81534,0.91467 1.22301,1.372 3.392487,3.51061 7.173348,6.62136 10.894631,9.77309 4.029138,3.3145 7.994884,6.70551 12.021734,10.02243 4.404,3.50864 8.87721,6.93263 13.40531,10.27957 3.33435,2.47645 6.7367,4.86379 10.2034,7.15132 1.41127,0.9551 2.85408,1.8627 4.30471,2.75649 0.92434,0.56952 1.81297,1.10432 2.81806,1.51186 0,0 -0.0698,-0.0918 -0.0698,-0.0918 v 0 c -2.51233,-1.93663 -5.24894,-3.53888 -7.91803,-5.24712 -3.4619,-2.2756 -6.8753,-4.61937 -10.22442,-7.05903 -3.8434,-2.83764 -7.70047,-5.66069 -11.35863,-8.73808 -4.04608,-3.32733 -8.06098,-6.69127 -12.089066,-10.04029 -3.749426,-3.16144 -7.506075,-6.3356 -10.940269,-9.84278 -1.020416,-1.1522 -1.383853,-1.51699 -2.297684,-2.71938 -0.971886,-1.27877 -1.798548,-2.65933 -2.639936,-4.02477 0,0 -0.877101,-0.36412 -0.877101,-0.36412 z" />
    <path
       style="fill:#000000;stroke-width:0.874001"
       id="path20584"
       d="m 80.34426,129.33401 c 2.290919,2.00482 4.470657,4.13384 6.661539,6.24647 3.901088,3.77279 7.768513,7.58037 11.627713,11.39598 4.131388,4.12576 8.577988,7.90769 13.007888,11.70402 3.37717,2.99656 6.94026,5.76511 10.56021,8.4592 3.28639,2.33497 6.4816,4.79102 9.60678,7.33674 2.38725,1.9449 4.88477,3.7549 7.49052,5.39536 2.05181,1.2052 -0.0476,0.0566 1.56855,0.75395 0.21649,0.0934 0.4158,0.22244 0.62371,0.33366 0,0 -0.0723,-0.118 -0.0723,-0.118 v 0 c -0.98844,-0.72934 -1.88125,-1.57491 -2.9404,-2.20727 -2.57754,-1.701 -5.16322,-3.39204 -7.58665,-5.31225 -3.18179,-2.43835 -6.35071,-4.89344 -9.62237,-7.21208 -3.59906,-2.68007 -7.07299,-5.51566 -10.47136,-8.44644 -3.80928,-3.2466 -7.54979,-6.57816 -11.048009,-10.16196 -3.898331,-3.82976 -7.814892,-7.64086 -11.71871,-11.46502 -2.252298,-2.1526 -4.494358,-4.32365 -6.831859,-6.3827 0,0 -0.855232,-0.31966 -0.855232,-0.31966 z" />
    <path
       style="fill:#000000;stroke-width:0.874001"
       id="path20586"
       d="m 84.944195,119.72128 c 3.242027,2.45052 6.181283,5.27369 9.143526,8.04812 4.364231,4.01262 8.624239,8.13626 13.019239,12.11545 4.6806,4.02514 9.46942,7.92115 14.32671,11.73048 2.82829,2.20432 5.71182,4.34038 8.62869,6.42614 2.42027,1.73528 4.83522,3.47741 7.25961,5.20701 2.08917,1.49363 4.10332,3.0917 6.2844,4.45263 0.13258,0.0334 0.26517,0.0668 0.39775,0.10021 0,0 -0.0807,-0.11569 -0.0807,-0.11569 v 0 c -0.30298,-0.27728 -0.60596,-0.55456 -0.90895,-0.83183 -2.1362,-1.6341 -4.30539,-3.22251 -6.50934,-4.76418 -2.43308,-1.72852 -4.87873,-3.43854 -7.32328,-5.15067 -2.89705,-2.06416 -5.78951,-4.13393 -8.61447,-6.29694 -4.22005,-3.29763 -8.3816,-6.67616 -12.38853,-10.23086 -4.45308,-4.00987 -8.781117,-8.15535 -13.147432,-12.25902 -3.02178,-2.81481 -5.996763,-5.7054 -9.307171,-8.18536 0,0 -0.780082,-0.24549 -0.780082,-0.24549 z" />
    <path
       style="fill:#000000;stroke-width:0.874001"
       id="path20588"
       d="m 91.654592,113.19492 c 1.896258,2.25365 3.973719,4.33917 6.101987,6.37126 3.287471,3.20391 6.694291,6.28083 10.055311,9.40648 3.66372,3.26609 7.1796,6.69221 10.75749,10.05085 3.05693,2.95146 6.37475,5.59511 9.69973,8.23152 2.27856,1.75202 4.54036,3.5263 6.82831,5.26609 2.29567,1.67407 4.62309,3.30617 7.03568,4.80788 2.07487,1.28461 4.22888,2.43231 6.36422,3.6112 0.56778,0.19003 1.02054,0.65343 1.58902,0.84514 0.12816,0.0432 0.27051,2.6e-4 0.40577,5.3e-4 0,0 -0.0742,-0.12086 -0.0742,-0.12086 v 0 c -0.3115,-0.28537 -0.60437,-0.5925 -0.93449,-0.8561 -0.35544,-0.2838 -1.39737,-0.90346 -1.77166,-1.13227 -2.13237,-1.21323 -4.29782,-2.36968 -6.38579,-3.65949 -2.43646,-1.52208 -4.87296,-3.04679 -7.17919,-4.76414 -2.34948,-1.6876 -4.69615,-3.37975 -6.95192,-5.19248 -0.4339,-0.44128 -0.0426,-0.0457 -1.33784,-1.13226 -2.00259,-1.67993 -4.0224,-3.34162 -5.91671,-5.14545 -3.60785,-3.36967 -7.1896,-6.76792 -10.75058,-10.187 -3.40908,-3.15165 -6.76396,-6.35963 -10.118958,-9.56855 -2.106592,-2.08715 -4.215522,-4.17363 -6.146496,-6.42751 0,0 -1.269714,-0.40474 -1.269714,-0.40474 z" />
    <path
       style="fill:#000000;stroke-width:0.874001"
       id="path20590"
       d="m 99.925459,104.69863 c 1.552341,1.55983 2.987311,3.23056 4.451531,4.87214 2.38014,2.63633 4.93428,5.10789 7.45523,7.60778 2.84145,2.81728 5.74437,5.5668 8.73792,8.22177 2.84969,2.52252 5.69351,5.0513 8.53625,7.58169 2.63389,2.33129 5.37731,4.53427 8.03651,6.83563 1.7894,1.49944 3.64124,2.92183 5.43029,4.42156 1.27198,1.03422 2.56964,2.03607 3.85603,3.05211 0.51098,0.38715 0.27111,0.21463 0.71589,0.52273 0,0 -0.0883,-0.1211 -0.0883,-0.1211 v 0 c -0.94144,-1.0187 -0.47372,-0.54096 -1.39747,-1.43877 -1.2852,-1.0738 -2.62716,-2.0775 -3.92227,-3.13935 -1.85144,-1.41238 -3.64527,-2.90038 -5.448,-4.37394 -2.04855,-1.66246 -4.0788,-3.34906 -6.0308,-5.12491 -2.86734,-2.54293 -5.73065,-5.09078 -8.54866,-7.68831 -2.96038,-2.74253 -5.97531,-5.43114 -8.72154,-8.39438 -2.52054,-2.53236 -5.11169,-4.99736 -7.51713,-7.64146 -1.50165,-1.65833 -2.98572,-3.33501 -4.53684,-4.94704 0,0 -1.008661,-0.24615 -1.008661,-0.24615 z" />
    <path
       style="fill:#000000;stroke-width:0.874001"
       id="path20592"
       d="m 112.50416,106.41503 c 1.37751,1.6261 2.8225,3.19236 4.30266,4.72518 2.66461,2.61541 5.4814,5.06993 8.23185,7.59378 2.24137,2.08956 4.5452,4.10717 6.86682,6.10596 1.85585,1.55007 3.71948,3.09 5.56181,4.65645 2.58693,2.27442 3.62836,3.29864 5.02046,4.63662 0.16705,0.16496 0.66361,0.66436 0.50115,0.49488 -0.19606,-0.20452 -0.39321,-0.40849 -0.60196,-0.60004 -0.16197,-0.14863 0.30728,0.31444 0.46147,0.47113 0.47723,0.48496 0.9509,0.97347 1.43278,1.45381 0.35861,0.35747 0.34769,0.41408 0.2807,0.15615 0,0 0.13671,0.1069 0.13671,0.1069 v 0 c -0.23556,-0.28852 -0.46525,-0.58194 -0.7067,-0.86556 -0.73287,-0.86084 -0.54341,-0.52008 0.0887,0.0467 0.15804,0.14171 -0.29225,-0.30798 -0.44156,-0.45886 -1.25173,-1.26493 -1.19354,-1.20434 -2.07131,-2.06595 0.18966,0.18281 0.76324,0.72636 0.56899,0.54843 -0.57287,-0.52471 -1.136,-1.05995 -1.70495,-1.58891 -0.20902,-0.19433 -0.43466,-0.3719 -0.62896,-0.58095 -0.13973,-0.15033 0.61164,0.54723 0.46456,0.40408 -0.15885,-0.1546 -1.32997,-1.19887 -1.48421,-1.33683 -1.79433,-1.65877 -3.63546,-3.26541 -5.50004,-4.84489 -2.34958,-2.01724 -4.60426,-4.14216 -6.9049,-6.21461 -2.81703,-2.5489 -5.65668,-5.07489 -8.41839,-7.68355 -1.57161,-1.57318 -3.02927,-3.24336 -4.52302,-4.88849 0,0 -0.93264,-0.27142 -0.93264,-0.27142 z" />
    <path
       style="fill:#000000;stroke-width:0.874001"
       id="path20598"
       d="m 79.382259,167.19309 c 1.584616,1.70442 3.301873,3.27786 4.996966,4.87039 2.5151,2.2872 5.078248,4.5199 7.632869,6.76262 2.696369,2.3877 5.432584,4.72975 8.143506,7.1007 2.21083,1.91026 4.53923,3.67312 6.92143,5.3619 2.00544,1.39327 4.07659,2.68847 6.15548,3.96852 1.27976,0.7909 2.6163,1.47774 3.94788,2.17513 0,0 0.11987,0.0418 0.11987,0.0418 v 0 c -0.86905,-0.73806 -1.88887,-1.24495 -2.83806,-1.87044 -2.06752,-1.28271 -4.10665,-2.60944 -6.08826,-4.02193 -2.39076,-1.69482 -4.71137,-3.48561 -6.93833,-5.3917 -2.794084,-2.30147 -5.502267,-4.70394 -8.240095,-7.07159 -2.611742,-2.26537 -5.226643,-4.52966 -7.756303,-6.88683 -1.756082,-1.61229 -3.499144,-3.23906 -5.168133,-4.94225 0,0 -0.88882,-0.0964 -0.88882,-0.0964 z" />
    <path
       style="fill:#000000;stroke-width:0.874001"
       id="path20600"
       d="m 86.326272,175.90582 c -0.475779,-1.89107 -0.576405,-3.83621 -0.602234,-5.77686 0.04895,-3.7308 0.555319,-7.4351 1.102689,-11.11946 0.834715,-5.20759 2.188813,-10.30915 3.651982,-15.36952 1.521019,-5.32366 3.488444,-10.49801 5.588252,-15.61555 1.374952,-3.38413 2.909644,-6.69811 4.763609,-9.8466 0.4882,-0.95256 1.26521,-1.7626 1.68679,-2.7531 0.21838,-0.84428 0.0725,-0.45884 0.41349,-1.16521 0,0 -0.1596,-0.0245 -0.1596,-0.0245 v 0 c -0.17139,0.15329 -0.33721,0.31307 -0.51419,0.45988 -0.24196,0.20072 -0.516,0.36365 -0.74202,0.58218 -0.78655,0.76046 -1.29259,1.77218 -1.88366,2.67465 -1.784305,3.15654 -3.281064,6.45711 -4.537258,9.85973 -1.980673,5.14881 -3.976452,10.3041 -5.458338,15.62388 -1.423159,5.068 -2.740803,10.17358 -3.551523,15.38109 -0.54986,3.70014 -1.025901,7.42131 -1.077368,11.1674 0.0319,1.96291 0.175274,3.92268 0.717434,5.82059 0,0 0.601945,0.10138 0.601945,0.10138 z" />
    <path
       style="fill:#000000;stroke-width:0.874001"
       id="path20602"
       d="m 94.997171,186.26011 c 0.240615,-3.71947 0.62013,-7.42569 1.067107,-11.12533 0.710745,-5.65189 1.847199,-11.23826 3.076027,-16.79676 1.177375,-4.97656 2.504425,-9.91667 3.889195,-14.8391 1.18946,-4.23778 2.59085,-8.40943 4.18327,-12.51167 1.30743,-3.2903 2.86388,-6.47092 4.57698,-9.56676 0.6228,-1.13144 1.30957,-2.22562 1.99379,-3.32037 0.32274,-0.51638 0.80126,-1.22054 1.03882,-1.79608 0.1058,-0.25632 0.15474,-0.53256 0.23212,-0.79884 0.0914,-0.21516 0.18282,-0.43032 0.27423,-0.64548 0,0 -0.14341,-0.0276 -0.14341,-0.0276 v 0 c -0.20246,0.19399 -0.40493,0.38799 -0.60739,0.58198 -0.27033,0.22976 -0.55982,0.43871 -0.811,0.68927 -1.37423,1.37086 -2.33497,3.37795 -3.35761,5.00917 -1.6847,3.11233 -3.22725,6.30005 -4.51762,9.59824 -1.57556,4.09288 -2.99663,8.24337 -4.15919,12.47414 -1.3574,4.93192 -2.639783,9.88579 -3.790382,14.87028 -1.191075,5.57081 -2.280545,11.16838 -3.042727,16.81595 -0.458618,3.69932 -0.841309,7.40652 -1.096246,11.126 0,0 1.194036,0.26294 1.194036,0.26294 z" />
    <path
       style="fill:#000000;stroke-width:0.874001"
       id="path20604"
       d="m 104.23787,196.85732 c 0.39924,-3.62644 1.00776,-7.2239 1.6453,-10.81459 1.16508,-6.67151 2.84407,-13.23261 4.64469,-19.756 1.70311,-6.07733 3.66987,-12.07475 5.696,-18.05049 1.41125,-4.16422 2.87674,-8.30977 4.45382,-12.41414 1.1586,-3.07902 2.56718,-6.04664 4.14648,-8.92929 1.02046,-2.04054 2.50715,-3.82987 3.38119,-5.94169 0.005,-0.20678 0.009,-0.41356 0.0137,-0.62034 0,0 -0.15135,-0.0158 -0.15135,-0.0158 v 0 c -0.2538,0.1803 -0.5076,0.3606 -0.76141,0.5409 -0.21448,0.2347 -0.44332,0.45704 -0.64343,0.70412 -1.2707,1.56894 -2.13283,3.43915 -3.21281,5.13301 -1.56325,2.872 -2.99364,5.81659 -4.13473,8.88485 -1.55525,4.10917 -3.00911,8.25594 -4.36348,12.4358 -1.97168,5.97856 -3.91087,11.97049 -5.56526,18.04631 -1.77196,6.53296 -3.47717,13.09461 -4.68878,19.7584 -0.63992,3.57508 -1.31964,7.15077 -1.65195,10.77101 0,0 1.192,0.26791 1.192,0.26791 z" />
    <path
       style="fill:#000000;stroke-width:0.874001"
       id="path20606"
       d="m 114.32224,201.94193 c 0.93043,-2.85002 1.52556,-5.79855 2.13311,-8.73044 0.94962,-5.03089 1.91587,-10.05714 3.00262,-15.06044 1.01708,-4.70764 2.35796,-9.33403 3.88988,-13.89737 1.69527,-4.7084 3.69681,-9.2991 5.68867,-13.88758 1.46927,-3.36168 2.92412,-6.72964 4.37345,-10.09996 1.04401,-2.41484 1.96991,-4.88111 2.71337,-7.40496 0.23515,-0.90193 0.5059,-1.82607 0.56801,-2.7627 0.018,-0.27216 -0.0106,-0.54541 -0.0158,-0.81811 0,0 -0.13828,-0.0238 -0.13828,-0.0238 v 0 c -0.69824,1.05591 -1.22951,2.19788 -1.68442,3.38008 -1.00098,2.42241 -1.92864,4.87492 -2.99562,7.26989 -1.47099,3.38435 -2.90962,6.78255 -4.35529,10.17778 -1.95064,4.57276 -3.92744,9.13863 -5.65278,13.80249 -1.51328,4.60427 -2.81099,9.2773 -3.82937,14.01734 -1.07649,4.96679 -2.01285,9.96054 -2.90079,14.96433 -0.55696,2.92094 -1.17231,5.83104 -1.9897,8.69201 0,0 1.19298,0.38142 1.19298,0.38142 z" />
    <path
       style="fill:#e6e6e6;stroke-width:3.70063"
       d="m 348.40681,473.62777 c -5.23731,-5.0183 -13.11557,-11.98089 -17.50726,-15.47243 l -7.98488,-6.34825 7.01687,-9.82667 c 10.19226,-14.27361 29.20254,-33.07854 33.43975,-33.07854 1.01184,0 1.83971,-0.48595 1.83971,-1.07989 0,-0.59394 1.88146,-2.35838 4.18103,-3.92098 4.33819,-2.94788 6.53764,-3.65647 5.34134,-1.7208 -0.99997,1.61798 0.77255,1.31223 3.24581,-0.55989 2.61667,-1.98067 3.39874,-1.52535 6.89615,4.01489 1.52314,2.41282 3.17392,4.38695 3.66839,4.38695 0.49447,0 8.73439,7.88066 18.31093,17.51257 l 17.4119,17.51257 -4.44804,7.32162 c -2.44642,4.02689 -6.84643,12.22607 -9.77779,18.2204 l -5.32976,10.89879 -13.80876,-13.10457 -13.80876,-13.10458 3.21979,-5.54414 c 5.44594,-9.37736 9.58686,-17.63755 9.09064,-18.13377 -1.76535,-1.76535 -13.04861,11.24123 -15.59022,17.97134 -0.281,0.74408 -5.72706,-3.81577 -12.24669,-10.25386 -8.09707,-7.9958 -12.3911,-11.46855 -13.83657,-11.19018 -1.63704,0.31527 0.67024,3.25904 10.53862,13.44587 l 12.63453,13.04223 -5.04249,11.21959 c -2.77337,6.17078 -5.36915,12.52115 -5.76842,14.11193 -0.39926,1.59078 -1.04937,2.87245 -1.44469,2.84816 -0.39532,-0.0243 -5.00383,-4.15006 -10.24113,-9.16836 z"
       id="path20677"
       transform="scale(0.26458333)" />
    <path
       style="fill:#e6e6e6;stroke-width:3.70063"
       d="m 428.46648,503.91315 c -9.8363,-9.34186 -18.04243,-17.37141 -18.23584,-17.84345 -0.38007,-0.92757 14.33056,-30.39484 16.95651,-33.96606 1.51118,-2.05516 2.35588,-1.47012 16.02108,11.09622 7.93419,7.29618 15.85481,14.6264 17.60138,16.2894 l 3.17558,3.02362 -4.3903,8.84588 c -2.41467,4.86523 -6.06344,13.13094 -8.10839,18.36824 -2.04495,5.23731 -4.03709,9.89339 -4.42697,10.34686 -0.38988,0.45347 -8.75676,-6.81885 -18.59305,-16.16071 z"
       id="path20679"
       transform="scale(0.26458333)" />
    <path
       style="fill:#e6e6e6;stroke-width:3.70063"
       d="m 447.60181,463.43666 -16.75389,-16.01841 2.53652,-5.89632 c 1.39509,-3.24297 2.37079,-6.39353 2.16822,-7.00124 -0.20256,-0.6077 -2.5114,0.87358 -5.13075,3.29175 l -4.76245,4.39667 -17.34102,-17.86052 c -14.34498,-14.77473 -17.34102,-18.42621 -17.34102,-21.13473 0,-3.14044 0.20886,-3.27421 5.11237,-3.27421 2.8118,0 10.49972,0.83809 17.08425,1.86241 l 11.97189,1.86242 11.40196,11.861 c 6.27107,6.52356 18.63918,18.3844 27.48468,26.35744 l 16.08272,14.49644 -4.6606,6.95018 c -2.56334,3.8226 -5.82398,9.02013 -7.24588,11.55005 -1.4219,2.52993 -2.87054,4.59439 -3.21919,4.58768 -0.34866,-0.007 -8.17317,-7.22049 -17.38781,-16.03061 z"
       id="path20681"
       transform="scale(0.26458333)" />
    <path
       style="fill:#e6e6e6;stroke-width:3.70063"
       d="m 421.22495,772.02246 c -19.25783,-5.402 -37.80825,-16.37587 -55.30759,-32.71833 -16.57761,-15.48166 -31.78803,-36.78376 -45.30385,-63.44774 -7.41837,-14.63496 -17.40966,-37.27893 -16.74292,-37.94566 0.81543,-0.81543 17.65033,15.65572 17.65577,17.27427 0.0132,3.94385 2.41237,10.2608 3.89695,10.2608 1.16838,0 1.39041,-1.02863 0.88897,-4.1186 l -0.66836,-4.11861 14.79261,12.80077 14.79261,12.80077 -0.63308,10.36258 c -0.3762,6.15777 -0.20651,10.36258 0.41819,10.36258 0.57819,0 1.7808,0.27995 2.67245,0.6221 1.28006,0.49121 1.78506,-1.04099 2.40002,-7.28181 0.42835,-4.34715 1.04243,-7.90392 1.3646,-7.90392 0.32218,0 4.70275,3.65765 9.73461,8.12811 5.03186,4.47046 12.04441,10.38484 15.58346,13.14307 4.16127,3.24317 6.24289,5.61903 5.89195,6.72474 -0.46565,1.46716 -3.84577,23.91519 -3.90396,25.92695 -0.0113,0.39029 1.19829,0.9426 2.68795,1.22737 3.02468,0.5782 2.84901,1.10604 5.20819,-15.64799 1.3137,-9.32931 1.60666,-9.66789 5.52669,-6.38734 0.92423,0.77346 8.03145,5.39388 15.79381,10.2676 l 14.11342,8.86131 -2.49027,10.37516 -2.49027,10.37515 2.38035,0.9126 c 2.85751,1.09555 4.34151,-1.52644 6.48116,-11.45117 1.44964,-6.7241 1.93276,-7.18847 5.49521,-5.28191 1.4937,0.79941 2.16691,0.79941 2.16691,0 0,-0.63783 -0.37809,-1.17572 -0.84021,-1.19532 -0.46211,-0.0196 -1.67403,-0.66994 -2.69316,-1.44521 -1.71112,-1.30171 -1.6152,-2.58812 1.25338,-16.80831 1.70848,-8.46929 3.37827,-15.67066 3.71065,-16.00303 0.33237,-0.33238 2.56387,0.69245 4.95888,2.2774 3.96816,2.626 38.4659,16.33087 41.10789,16.33087 3.09522,0 -2.51465,-2.63596 -17.74168,-8.33644 -19.04397,-7.12943 -27.51832,-11.93086 -27.50916,-15.58628 0.007,-2.85389 7.5248,-38.87521 8.26845,-39.61886 0.28249,-0.2825 3.19948,1.46164 6.48216,3.87586 17.13896,12.60468 48.67078,32.46066 49.78267,31.34877 0.84344,-0.84344 -5.5187,-5.37977 -31.49107,-22.45367 -12.32307,-8.10103 -22.81709,-15.03983 -23.32002,-15.41956 -0.92388,-0.69753 0.86709,-8.75612 5.01552,-22.5678 l 2.26402,-7.53774 15.65367,12.01886 c 35.86803,27.53942 42.95046,32.72669 49.31431,36.11859 14.18968,7.56303 7.50377,1.293 -14.86132,-13.93691 -7.30343,-4.9734 -21.2329,-15.06023 -30.95438,-22.41519 -9.72149,-7.35495 -17.87005,-13.51506 -18.10792,-13.68912 -0.96496,-0.70612 14.45499,-41.27526 15.68834,-41.27526 0.29329,0 13.09351,9.07426 28.44491,20.16502 30.43598,21.98874 36.3992,25.94492 36.3992,24.14834 0,-1.62051 -8.79513,-8.31954 -37.03187,-28.20628 -13.21284,-9.30561 -24.6608,-17.51803 -25.43991,-18.24983 -1.1317,-1.06297 -0.37103,-3.73613 3.78282,-13.29356 3.42191,-7.87338 5.63501,-11.68392 6.47373,-11.14658 0.7009,0.44906 8.0729,5.91729 16.38221,12.15162 8.30933,6.23433 18.63673,13.60634 22.94981,16.38224 11.65856,7.50344 34.17468,19.89447 36.15084,19.89447 3.00408,0 -1.79578,-4.28081 -10.38196,-9.25929 -23.13282,-13.41299 -37.34248,-22.34703 -50.65105,-31.84583 l -14.79964,-10.56304 2.84865,-6.37394 c 1.56676,-3.50567 5.20185,-12.0346 8.07798,-18.95318 2.87612,-6.91858 5.60438,-12.58999 6.0628,-12.60314 0.45842,-0.0131 7.76824,5.65704 16.24405,12.60041 21.17214,17.3442 30.13506,24.34489 31.16853,24.34489 1.90774,0 -5.42668,-6.60188 -24.12275,-21.7134 -10.76215,-8.69877 -20.28337,-16.36366 -21.15824,-17.03308 -1.35294,-1.03522 -1.15302,-2.54218 1.33757,-10.08252 1.61053,-4.87595 3.49123,-11.53824 4.17931,-14.80509 0.68809,-3.26684 1.68478,-5.78747 2.21488,-5.60139 0.53011,0.18607 7.03635,6.04713 14.45831,13.02457 7.42197,6.97745 13.49448,12.09805 13.49448,11.37914 0,-2.24615 -13.16933,-14.68835 -49.0563,-46.34773 -6.90748,-6.09375 -12.55905,-11.79492 -12.55905,-12.66926 0,-0.87434 -0.43899,-1.31839 -0.97554,-0.98679 -1.61662,0.99913 -41.01595,-35.11954 -48.5395,-44.49777 l -3.41526,-4.25717 3.21936,0.73232 c 19.62125,4.46333 56.15291,20.20623 71.78136,30.93336 28.62456,19.64744 48.86675,52.48979 60.30238,97.83881 8.35139,33.11821 8.19731,63.15293 -0.50576,98.58457 -9.48834,38.6286 -24.24444,67.77636 -48.7247,96.24598 -11.91248,13.85375 -35.21433,30.82741 -51.22957,37.31691 -16.49314,6.68315 -33.14936,8.48154 -45.76868,4.94172 z"
       id="path20683"
       transform="scale(0.26458333)" />
    <path
       style="fill:#e6e6e6;stroke-width:3.70063"
       d="m 487.35301,499.6725 c -8.90954,-7.89922 -16.3674,-14.86694 -16.57303,-15.48382 -0.47888,-1.43664 12.40591,-23.24093 13.62194,-23.05172 0.50229,0.0782 7.91697,6.08944 16.47706,13.3584 14.1354,12.00333 15.4103,13.38591 13.8912,15.06449 -0.91993,1.01651 -3.69174,6.81062 -6.15958,12.8758 -2.46783,6.06518 -4.61555,11.15618 -4.7727,11.31333 -0.15715,0.15715 -7.57536,-6.17727 -16.48489,-14.07648 z"
       id="path20685"
       transform="scale(0.26458333)" />
    <path
       style="fill:#e6e6e6;stroke-width:3.70063"
       d="m 477.79905,548.76854 c -18.21506,-15.39682 -25.20001,-21.80339 -25.203,-23.11612 -0.005,-1.99069 9.70464,-26.41721 13.29722,-33.45336 l 2.94354,-5.765 14.56363,12.90306 c 8.01,7.09669 15.69777,13.79639 17.08394,14.88822 l 2.5203,1.98515 -8.1217,19.14499 c -4.46693,10.52974 -8.62583,19.13368 -9.24198,19.11987 -0.61615,-0.0138 -4.14503,-2.58188 -7.84195,-5.70681 z"
       id="path20687"
       transform="scale(0.26458333)" />
    <path
       style="fill:#e6e6e6;stroke-width:3.70063"
       d="m 461.46392,572.73227 c -7.13586,-5.3856 -14.65079,-11.12701 -16.69986,-12.75867 l -3.72557,-2.96667 4.8464,-14.01513 4.8464,-14.01514 10.73318,9.18609 c 8.83689,7.56313 21.85907,18.29499 23.43059,19.30966 0.33753,0.21794 -9.86506,25.08714 -10.28181,25.06231 -0.0963,-0.006 -6.01347,-4.41684 -13.14933,-9.80245 z"
       id="path20689"
       transform="scale(0.26458333)" />
    <path
       style="fill:#e6e6e6;stroke-width:3.70063"
       d="m 449.1175,619.91509 c -11.58603,-8.94432 -21.66572,-17.35401 -22.08553,-18.42642 -0.33151,-0.84684 3.66876,-13.73783 10.4498,-33.67474 l 2.91475,-8.56967 16.6028,12.89519 16.6028,12.8952 -3.93272,9.67797 c -2.163,5.32288 -5.80731,14.61053 -8.09848,20.63922 l -4.16576,10.96125 z"
       id="path20691"
       transform="scale(0.26458333)" />
    <path
       style="fill:#e6e6e6;stroke-width:3.70063"
       d="m 434.6683,647.90105 c -7.08576,-5.29228 -14.04769,-10.53777 -15.47095,-11.65665 l -2.58773,-2.03431 2.37467,-8.18808 c 1.30606,-4.50344 3.38788,-11.32087 4.62626,-15.14985 l 2.25159,-6.96177 9.73006,8.08205 c 5.35154,4.44513 12.33462,9.98643 15.51797,12.31399 l 5.7879,4.23193 -2.18232,7.531 c -1.20028,4.14205 -2.98645,10.68178 -3.96927,14.53274 -0.98282,3.85096 -2.10375,6.98364 -2.49096,6.96152 -0.3872,-0.0221 -6.50145,-4.37028 -13.58722,-9.66257 z"
       id="path20693"
       transform="scale(0.26458333)" />
    <path
       style="fill:#e6e6e6;stroke-width:3.70063"
       d="m 434.10816,697.23908 c -2.46461,-2.17931 -9.4302,-7.49867 -15.47909,-11.82078 -6.04889,-4.32212 -11.26681,-8.55898 -11.59539,-9.41524 -0.32858,-0.85626 1.54876,-10.08207 4.17186,-20.50179 l 4.76928,-18.94496 16.05927,11.92412 c 13.01835,9.66621 15.95711,12.34838 15.51975,14.16467 -0.29673,1.23231 -2.18309,10.4265 -4.1919,20.43155 -2.00881,10.00504 -3.90445,18.17609 -4.21252,18.1579 -0.30808,-0.0182 -2.57664,-1.81616 -5.04126,-3.99547 z"
       id="path20695"
       transform="scale(0.26458333)" />
    <path
       style="fill:#e6e6e6;stroke-width:3.70063"
       d="m 417.81781,728.76772 c -7.67645,-5.2264 -15.14286,-10.43604 -16.59201,-11.57698 l -2.63482,-2.07443 2.94425,-16.02495 c 1.61934,-8.81372 3.32731,-16.70944 3.79549,-17.54604 0.64828,-1.15841 2.84584,-0.12051 9.21657,4.35297 14.08086,9.88749 24.64782,19.0714 24.11331,20.95725 -0.26828,0.94655 -1.59229,7.77051 -2.94225,15.16436 -1.34995,7.39384 -2.78946,14.07492 -3.1989,14.84685 -0.51715,0.97498 -5.00599,-1.4979 -14.70164,-8.09903 z"
       id="path20697"
       transform="scale(0.26458333)" />
    <path
       style="fill:#e6e6e6;stroke-width:3.70063"
       d="m 376.6651,697.10912 c -11.66659,-9.88127 -15.44275,-13.70834 -15.19894,-15.40383 0.17842,-1.2408 1.15436,-9.31376 2.16876,-17.93991 1.01439,-8.62615 2.01916,-15.87707 2.23282,-16.11315 0.21366,-0.23609 5.32058,3.81726 11.34872,9.00745 6.02814,5.19019 13.73662,11.58272 17.12994,14.20561 l 6.16969,4.76891 -3.36899,17.30056 c -1.85294,9.51532 -3.72666,17.30544 -4.16382,17.31139 -0.43716,0.006 -7.78034,-5.90571 -16.31818,-13.13703 z"
       id="path20699"
       transform="scale(0.26458333)" />
    <path
       style="fill:#e6e6e6;stroke-width:3.70063"
       d="m 389.27643,662.7216 c -6.15022,-5.15624 -13.83446,-11.81995 -17.07608,-14.80825 l -5.89385,-5.43327 3.92923,-19.60489 c 2.16107,-10.78268 3.93109,-19.76513 3.93336,-19.96099 0.002,-0.19587 4.41524,3.36106 9.80658,7.90429 7.55008,6.36236 20.45776,16.73591 27.01197,21.70878 0.52462,0.39805 -8.95453,37.70339 -9.84993,38.76455 -0.37348,0.44262 -5.71105,-3.41398 -11.86128,-8.57022 z"
       id="path20701"
       transform="scale(0.26458333)" />
    <path
       style="fill:#e6e6e6;stroke-width:3.70063"
       d="m 395.98291,617.65038 c -8.60648,-7.12337 -16.88322,-13.92896 -18.39276,-15.12352 l -2.74462,-2.17195 3.73163,-15.34648 c 2.05239,-8.44057 4.04472,-15.94274 4.4274,-16.6715 0.43776,-0.83365 4.64144,2.21225 11.33606,8.21389 5.85216,5.24638 14.22099,12.57059 18.59742,16.27602 l 7.95713,6.73714 -4.41883,15.29651 c -2.43036,8.41309 -4.51479,15.39663 -4.63206,15.51899 -0.11727,0.12236 -7.25488,-5.60574 -15.86137,-12.7291 z"
       id="path20703"
       transform="scale(0.26458333)" />
    <path
       style="fill:#e6e6e6;stroke-width:3.70063"
       d="m 411.70258,589.02627 c -4.92923,-4.39356 -13.18243,-11.86146 -18.34045,-16.59533 l -9.37821,-8.60703 5.07392,-17.80615 c 2.79065,-9.79338 5.61879,-19.21028 6.28474,-20.92643 l 1.21082,-3.12028 10.00325,8.82836 c 5.50178,4.8556 14.24385,12.26122 19.42681,16.45693 l 9.42357,7.62857 -6.81097,21.09011 c -3.74603,11.59956 -7.06303,21.07873 -7.37111,21.06483 -0.30808,-0.0139 -4.59314,-3.62002 -9.52237,-8.01358 z"
       id="path20705"
       transform="scale(0.26458333)" />
    <path
       style="fill:#e6e6e6;stroke-width:3.70063"
       d="m 418.37615,537.88873 c -23.69681,-20.37735 -21.80421,-16.85346 -16.77069,-31.22587 2.32295,-6.63279 4.84649,-13.27693 5.60788,-14.76475 l 1.38435,-2.70512 8.27412,7.6732 c 4.55076,4.22026 12.92415,12.12642 18.60753,17.56924 l 10.3334,9.89604 -4.73201,13.98128 c -2.6026,7.68971 -5.00572,13.98209 -5.34025,13.98307 -0.33453,9.9e-4 -8.14848,-6.48221 -17.36433,-14.40709 z"
       id="path20707"
       transform="scale(0.26458333)" />
    <path
       style="fill:#e6e6e6;stroke-width:3.70063"
       d="m 377.01652,500.26784 -14.52104,-13.724 6.00083,-13.6147 c 3.30045,-7.48808 6.41269,-13.6147 6.91607,-13.6147 0.7524,0 14.08747,12.00749 25.40598,22.87667 l 2.55912,2.45753 -4.44973,11.22551 c -2.44735,6.17403 -4.78909,12.57761 -5.20386,14.23019 -0.41477,1.65257 -1.07637,3.20331 -1.47023,3.44608 -0.39386,0.24278 -7.25057,-5.73438 -15.23714,-13.28258 z"
       id="path20709"
       transform="scale(0.26458333)" />
    <path
       style="fill:#e6e6e6;stroke-width:3.70063"
       d="m 363.33223,543.08225 -15.88226,-15.99092 4.82149,-13.44335 c 2.65181,-7.39384 5.813,-15.91399 7.02485,-18.93366 l 2.20336,-5.4903 14.80706,13.85122 c 9.64413,9.02157 14.62565,14.45151 14.28678,15.57282 -2.08451,6.89751 -10.64245,36.91313 -10.9705,38.47727 -0.29769,1.41939 -4.7174,-2.39052 -16.29078,-14.04308 z"
       id="path20711"
       transform="scale(0.26458333)" />
    <path
       style="fill:#e6e6e6;stroke-width:3.70063"
       d="m 329.18383,510.08351 c -7.60389,-7.29112 -16.24369,-15.35383 -19.19955,-17.91712 l -5.37429,-4.66054 3.44476,-7.59726 c 1.89462,-4.17849 5.74019,-11.80826 8.5457,-16.95505 l 5.10094,-9.35779 6.35096,5.32708 c 15.89506,13.3325 29.46113,26.59615 28.95138,28.30598 -1.35937,4.55971 -12.7754,34.89206 -13.34744,35.46409 -0.35596,0.35596 -6.86856,-5.31826 -14.47246,-12.60939 z"
       id="path20713"
       transform="scale(0.26458333)" />
    <path
       style="fill:#e6e6e6;stroke-width:3.70063"
       d="m 319.21295,551.99181 c -7.28964,-7.13789 -15.57922,-16.60293 -19.16741,-21.88533 l -6.32262,-9.30793 2.27461,-8.0564 c 3.72932,-13.20882 6.96945,-21.49975 8.4022,-21.49975 0.74086,0 9.7019,7.99442 19.91344,17.76539 15.83697,15.15369 18.44721,18.11815 17.75546,20.16502 -0.44604,1.3198 -2.88096,9.82391 -5.41093,18.89802 l -4.59996,16.49838 z"
       id="path20715"
       transform="scale(0.26458333)" />
    <path
       style="fill:#e6e6e6;stroke-width:3.70063"
       d="m 354.05469,582.97508 c -8.29251,-7.00703 -15.7882,-13.45097 -16.6571,-14.31987 -1.35956,-1.35956 -0.93163,-3.88203 3.06949,-18.09331 2.55711,-9.08243 5.01155,-17.1421 5.4543,-17.91037 0.54031,-0.93756 6.02249,3.62827 16.67261,13.88579 l 15.86761,15.28266 -4.14908,16.47516 c -2.28199,9.06134 -4.38115,16.68775 -4.66481,16.94758 -0.28366,0.25982 -7.30052,-5.26061 -15.59302,-12.26764 z"
       id="path20717"
       transform="scale(0.26458333)" />
    <path
       style="fill:#e6e6e6;stroke-width:3.70063"
       d="m 314.25043,592.43045 c -5.43222,-5.74499 -12.88806,-14.22639 -16.56852,-18.84754 -3.68046,-4.62115 -7.13233,-8.57013 -7.67082,-8.77552 -1.50493,-0.57399 -1.12553,-15.21969 0.70134,-27.07341 0.90213,-5.85346 1.64928,-11.09981 1.66033,-11.65855 0.011,-0.55875 2.49012,2.50128 5.50904,6.80007 3.01892,4.29879 11.77148,13.8302 19.45015,21.18093 l 13.96121,13.36495 -3.58298,17.72726 -3.58297,17.72726 z"
       id="path20719"
       transform="scale(0.26458333)" />
    <path
       style="fill:#e6e6e6;stroke-width:3.70063"
       d="m 344.56181,622.56786 -16.72821,-16.01347 1.31249,-7.94743 c 0.72187,-4.37108 2.37239,-12.55079 3.66782,-18.17713 l 2.35533,-10.22972 6.89886,5.76675 c 3.79436,3.17172 11.46635,9.55145 17.04886,14.17718 l 10.15002,8.41042 -3.67253,18.60197 c -2.01989,10.23109 -3.81471,19.23713 -3.98848,20.01344 -0.17377,0.77631 -7.84365,-5.7946 -17.04416,-14.60201 z"
       id="path20721"
       transform="scale(0.26458333)" />
    <path
       style="fill:#e6e6e6;stroke-width:3.70063"
       d="m 312.55788,640.18607 c -4.005,-4.0828 -8.3212,-7.83499 -9.59155,-8.33819 -4.29147,-1.6999 -12.27187,-32.37608 -13.48656,-51.84151 l -0.64552,-10.34443 7.06008,7.84195 c 3.88304,4.31307 11.74681,12.66655 17.47505,18.56329 l 10.41496,10.72133 -1.14835,11.12411 c -0.63159,6.11826 -1.51914,15.30295 -1.97232,20.41042 l -0.82398,9.28631 z"
       id="path20723"
       transform="scale(0.26458333)" />
    <path
       style="fill:#cccccc;stroke-width:3.70063"
       d="m 340.56485,665.80131 -15.12376,-13.38072 0.20268,-16.17305 c 0.11148,-8.89517 0.6156,-18.26222 1.12028,-20.81566 l 0.91759,-4.64261 16.57915,16.13191 16.57914,16.1319 -1.81432,12.59671 c -0.99788,6.92819 -2.15692,15.0572 -2.57565,18.06447 l -0.76134,5.46777 z"
       id="path20725"
       transform="scale(0.26458333)" />
    <path
       style="fill:#999999;stroke-width:3.70063"
       d="m 345.94922,411.98265 c -4.56462,-9.48441 -26.70416,-34.77553 -68.84577,-78.64605 -13.04947,-13.58484 -23.5501,-24.87755 -23.33476,-25.09492 0.87797,-0.88621 15.75832,4.83616 25.46027,9.79098 24.29554,12.4078 32.6551,18.51791 53.8373,39.35038 l 19.94824,19.61889 2.64547,12.49099 c 1.45501,6.87005 3.19738,13.52225 3.87193,14.78266 1.08511,2.02755 0.53525,2.81353 -4.77105,6.81982 -3.29862,2.49048 -6.23641,4.52816 -6.52842,4.52816 -0.29201,0 -1.31945,-1.63841 -2.28321,-3.64091 z"
       id="path20727"
       transform="scale(0.26458333)" />
    <path
       style="fill:#999999;stroke-width:3.70063"
       d="m 338.72957,355.96869 c -6.72122,-6.93172 -14.0285,-14.16413 -16.2384,-16.07201 -2.69721,-2.3286 -4.27488,-4.8382 -4.79948,-7.63452 -2.02672,-10.80336 -13.79027,-37.04517 -31.86952,-71.09365 -5.68355,-10.70378 -10.13555,-19.6596 -9.89333,-19.90182 0.24221,-0.24221 9.46506,10.51189 20.4952,23.89802 11.03015,13.38613 23.86248,28.6604 28.51629,33.94284 9.7128,11.02477 13.29901,16.05884 20.35582,28.57409 l 5.05341,8.96224 0.81338,15.96398 c 0.44735,8.78018 0.58245,15.96397 0.3002,15.96397 -0.28224,0 -6.01235,-5.67141 -12.73357,-12.60314 z"
       id="path20729"
       transform="scale(0.26458333)" />
    <path
       style="fill:#999999;stroke-width:3.70063"
       d="m 344.14472,313.67816 c -2.65223,-4.005 -9.82206,-13.05813 -15.93296,-20.11809 -6.11089,-7.05994 -10.70032,-13.10945 -10.19872,-13.44335 1.15051,-0.76584 -0.39186,-16.83602 -2.7463,-28.61406 -0.98535,-4.92922 -7.3224,-30.7983 -14.08232,-57.48684 -6.75992,-26.68853 -12.12993,-49.00709 -11.93337,-49.59679 0.63663,-1.90989 18.82571,29.76456 18.82571,32.78309 0,1.89174 0.7288,3.09209 2.09419,3.44914 2.26316,0.59183 10.76253,15.09223 28.56443,48.73252 l 10.82273,20.45171 -0.29558,35.56224 -0.29558,35.56224 z"
       id="path20731"
       transform="scale(0.26458333)" />
    <path
       style="fill:#999999;stroke-width:3.70063"
       d="m 338.98485,219.73912 c -4.87401,-9.02465 -12.74162,-22.96209 -17.48359,-30.97209 l -8.62176,-14.56363 -0.71784,-14.00348 c -0.39481,-7.70192 -2.2625,-27.61489 -4.15042,-44.25103 -2.31536,-20.402768 -3.61087,-38.086889 -3.98038,-54.333538 l -0.54781,-24.086001 5.5247,12.88321 c 3.03858,7.085765 8.53725,19.436843 12.21927,27.446838 8.89311,19.3464 18.7091,45.185031 20.85388,54.893681 1.06056,4.80076 2.20284,19.35501 2.94546,37.52935 0.66718,16.32807 1.74829,36.77574 2.40246,45.43927 0.65418,8.66353 1.01581,16.80353 0.80363,18.08888 -0.2659,1.61081 -3.1395,-2.76176 -9.2476,-14.07146 z"
       id="path20733"
       transform="scale(0.26458333)" />
    <path
       style="fill:#999999;stroke-width:3.70063"
       d="m 361.91975,392.74044 c -1.33382,-6.32533 -2.31656,-11.9563 -2.18387,-12.51328 0.13269,-0.55697 -0.11556,-2.27299 -0.55167,-3.81337 -1.2289,-4.34058 -2.57643,-31.8814 -1.58046,-32.30138 1.27373,-0.53711 1.08994,-4.43327 -0.33471,-7.09524 -0.81354,-1.52011 -1.34255,-19.51265 -1.5871,-53.97982 -0.20175,-28.43484 -0.90263,-57.56195 -1.55752,-64.72691 -0.65488,-7.16497 -1.96964,-28.08618 -2.92167,-46.49158 -0.95204,-18.40542 -2.21203,-40.83654 -2.79997,-49.84694 -1.76939,-27.116594 -2.42407,-62.455513 -1.37758,-74.360057 l 0.98479,-11.202791 9.27992,18.90032 c 9.32837,18.999024 17.36111,41.200162 22.44703,62.039848 1.90962,7.82472 2.97841,10.3623 4.3641,10.36143 1.62759,-10e-4 1.75353,1.29753 1.11362,11.48286 -0.39682,6.31621 -0.77491,24.73204 -0.84021,40.92407 -0.0653,16.19204 -0.9265,39.88594 -1.91381,52.65312 -0.9873,12.76719 -1.86067,35.56414 -1.94081,50.6599 -0.19062,35.9053 1.1349,106.88684 2.04986,109.7696 0.55951,1.76286 0.21296,2.25831 -1.57956,2.25831 -1.26298,0 -5.52483,1.97606 -9.47078,4.39126 l -7.17447,4.39125 z"
       id="path20735"
       transform="scale(0.26458333)" />
    <path
       style="fill:#999999;stroke-width:3.70063"
       d="m 440.60621,402.3834 -10.30615,-2.72807 0.61117,-3.49874 c 5.22665,-29.9207 17.1448,-69.35941 29.83337,-98.72248 7.28893,-16.86759 26.42964,-54.34335 26.54394,-51.97062 0.15013,3.11629 -15.95513,78.4748 -21.67246,101.40817 -3.97389,15.94009 -8.59153,35.28356 -10.26141,42.98548 -1.66988,7.70192 -3.35254,14.28492 -3.73924,14.62891 -0.38669,0.34399 -5.34085,-0.6022 -11.00922,-2.10265 z"
       id="path20737"
       transform="scale(0.26458333)" />
    <path
       style="fill:#000000;stroke-width:0.874001"
       id="path20739"
       d="m 112.7219,53.144152 c 0.28924,0.604213 0.5177,1.235805 0.81807,1.834518 0.19712,0.469191 0.37631,0.945562 0.59253,1.406451 0.19672,0.407392 0.42001,0.801227 0.64327,1.194464 0.19225,0.319283 0.3642,0.650086 0.54901,0.973508 0.0949,0.105537 0.12506,0.285795 0.23165,0.381727 0.0167,0.01505 0.0422,0.01556 0.0633,0.02334 0.017,0.02069 0.034,0.04139 0.051,0.06209 0.16465,0.121624 0.36009,0.186227 0.54537,0.269007 0,0 0.20866,0.07467 0.20866,0.07467 v 0 c 0.0904,0.02273 0.38538,0.179171 0.33861,0.02352 -0.0921,-0.134221 0.0324,0.05966 -0.0643,-0.160417 -0.0603,-0.137406 -0.18993,-0.245161 -0.25386,-0.381188 -0.19795,-0.327597 -0.38761,-0.660154 -0.59119,-0.984372 -0.23645,-0.39148 -0.4611,-0.789903 -0.67533,-1.193993 -0.23309,-0.466669 -0.45057,-0.940358 -0.65645,-1.419714 -0.24903,-0.643634 -0.56544,-1.25825 -0.82756,-1.896629 0,0 -0.97277,-0.206994 -0.97277,-0.206994 z" />
    <path
       style="fill:#999999;fill-opacity:1;stroke-width:1.85031"
       d="m 415.62356,397.65289 c -3.54289,-0.55415 -10.96012,-1.33071 -16.48274,-1.7257 l -10.04114,-0.71816 4.26694,-0.58933 c 5.84833,-0.80775 6.16949,-1.56428 0.55918,-1.31722 -3.7052,0.16318 -4.68942,0.037 -4.99912,-0.64084 -0.2121,-0.46421 -0.56579,-15.71572 -0.786,-33.89225 -0.22669,-18.71255 -0.71989,-36.81439 -1.13697,-41.7304 -0.45485,-5.36124 -0.73505,-17.3594 -0.73254,-31.36781 0.004,-20.77965 0.3347,-29.4208 1.9846,-51.81291 0.31779,-4.31308 0.77772,-29.64539 1.02205,-56.29403 0.47813,-52.14774 0.51222,-52.82359 3.95609,-78.419537 1.81991,-13.52616 4.61815,-30.499475 5.75921,-34.933728 l 0.7014,-2.725703 0.73843,3.005773 c 0.40614,1.653175 2.49368,8.299091 4.63899,14.768703 8.47736,25.565192 10.45813,34.654362 15.88651,72.898412 2.26575,15.96269 7.21126,46.3461 7.8579,48.27615 0.18742,0.55939 -0.16832,0.65281 -1.43041,0.37561 -0.92393,-0.20294 -1.67987,-0.24356 -1.67987,-0.0903 0,0.37891 5.62052,12.78662 7.53698,16.63842 l 1.54472,3.10468 -8.52157,23.50195 c -9.99613,27.56867 -15.11789,42.75403 -18.97893,56.27012 -9.57311,33.51193 -13.04349,51.89586 -13.1645,69.73737 -0.0985,14.51489 0.90664,18.83986 3.60408,15.50866 1.39301,-1.7203 2.18967,-7.13141 2.77031,-18.81656 0.81514,-16.40442 2.77247,-28.2476 8.38677,-50.74557 4.36477,-17.49078 7.63446,-28.97275 12.41864,-43.60978 4.74346,-14.51243 16.1746,-47.23187 16.71861,-47.85381 0.21212,-0.24251 1.05688,-0.18574 1.87723,0.12617 1.83343,0.69706 1.93808,0.0492 0.39528,-2.44713 l -1.09628,-1.77382 5.79223,-16.7769 c 7.21605,-20.90092 8.404,-24.07367 13.30756,-35.54157 7.3912,-17.28576 16.07941,-32.87139 20.25676,-36.33829 0.83354,-0.69177 0.92518,-0.55256 0.9222,1.40102 -0.007,4.46641 -2.97202,21.16382 -11.52616,64.90474 -2.28945,11.70691 -5.81217,30.48559 -7.82826,41.73039 -2.0161,11.2448 -5.4171,29.78028 -7.55779,41.18995 -2.14069,11.40967 -3.89216,21.1771 -3.89216,21.70541 0,0.65117 0.45105,0.96055 1.40035,0.96055 0.77019,0 1.40035,0.10715 1.40035,0.23811 0,0.13096 -1.36282,3.59682 -3.0285,7.70192 -4.66729,11.50269 -10.05481,26.73037 -12.84675,36.311 -3.92264,13.46066 -9.11404,34.17993 -10.77171,42.99071 -0.90816,4.82706 -1.75048,7.95058 -2.13105,7.90252 -0.34613,-0.0437 -3.52804,-0.53286 -7.07092,-1.08701 z"
       id="path21155"
       transform="scale(0.26458333)" />
  </g>
</svg>
