<?xml version="1.0" encoding="UTF-8" standalone="no"?>
<!-- Created with Inkscape (http://www.inkscape.org/) -->

<svg
   width="300"
   height="300"
   viewBox="0 0 79.374998 79.375"
   version="1.1"
   id="svg5"
   inkscape:version="1.2 (dc2aedaf03, 2022-05-15)"
   sodipodi:docname="quartet.svg"
   inkscape:export-filename="default.svg"
   inkscape:export-xdpi="96"
   inkscape:export-ydpi="96"
   xmlns:inkscape="http://www.inkscape.org/namespaces/inkscape"
   xmlns:sodipodi="http://sodipodi.sourceforge.net/DTD/sodipodi-0.dtd"
   xmlns="http://www.w3.org/2000/svg"
   xmlns:svg="http://www.w3.org/2000/svg">
  <sodipodi:namedview
     id="namedview7"
     pagecolor="#505050"
     bordercolor="#eeeeee"
     borderopacity="1"
     inkscape:showpageshadow="0"
     inkscape:pageopacity="0"
     inkscape:pagecheckerboard="0"
     inkscape:deskcolor="#505050"
     inkscape:document-units="mm"
     showgrid="false"
     inkscape:zoom="1.7852694"
     inkscape:cx="159.91984"
     inkscape:cy="186.80654"
     inkscape:window-width="1276"
     inkscape:window-height="1076"
     inkscape:window-x="0"
     inkscape:window-y="0"
     inkscape:window-maximized="1"
     inkscape:current-layer="layer1" />
  <defs
     id="defs2" />
  <g
     inkscape:label="Camada 1"
     inkscape:groupmode="layer"
     id="layer1">
    <g
       id="g26536"
       transform="translate(-62.128367,-136.13403)">
      <ellipse
         style="fill:#999999;stroke:#000000;stroke-width:0.79375;stroke-dasharray:none;stroke-opacity:1"
         id="path3284"
         cx="97.36676"
         cy="168.89984"
         rx="15.862023"
         ry="11.316996" />
      <ellipse
         style="fill:#999999;stroke:#000000;stroke-width:0.79375;stroke-dasharray:none;stroke-opacity:1"
         id="path3895"
         cx="118.93525"
         cy="177.91278"
         rx="17.893135"
         ry="12.333493" />
      <ellipse
         style="fill:#999999;stroke:#000000;stroke-width:0.79375;stroke-dasharray:none;stroke-opacity:1"
         id="path3899"
         cx="83.535851"
         cy="178.59044"
         rx="16.7325"
         ry="11.926894" />
      <ellipse
         style="fill:#999999;stroke:#000000;stroke-width:0.79375;stroke-dasharray:none;stroke-opacity:1"
         id="path3901"
         cx="102.87978"
         cy="189.5686"
         rx="17.312817"
         ry="12.19796" />
      <path
         style="fill:#000000;fill-opacity:1;stroke:none;stroke-width:0.477439;stroke-opacity:1"
         id="path4164"
         d="m 100.45213,176.16786 c 0.005,-1.22455 -0.0776,-2.44987 -0.0172,-3.67427 0.039,-0.78977 0.11214,-1.44595 0.188,-2.24854 0.18301,-2.32286 0.31211,-4.64621 0.56587,-6.96607 0.27917,-1.89276 0.54139,-3.78595 0.78113,-5.68143 0.25617,-1.36349 0.47099,-2.72988 0.6618,-4.09862 0.10382,-0.68552 0.20322,-1.37173 0.2643,-2.05978 0.0779,-0.35038 0.10262,-0.70152 0.1208,-1.05532 -0.001,-0.14212 0.0661,-0.27145 0.0172,-0.41213 0.0606,0.0344 0.0503,-0.28874 0.0441,-0.33555 -0.009,-0.19148 0.10612,-0.0953 -0.44527,-0.15652 -0.35546,0.0535 -0.60794,0.21632 -0.86814,0.38294 -0.44839,0.27835 -0.92863,0.52997 -1.39756,0.79082 -0.58304,0.27891 -1.15672,0.56721 -1.760975,0.82341 -0.40586,0.17751 -0.878046,0.25486 -1.285094,0.42884 -0.147412,0.0826 -0.32938,0.11774 -0.478509,0.19602 -0.1424,0.0403 -0.04855,0.32273 -0.01057,0.43218 0.270632,0.55059 0.582953,1.08913 0.838503,1.64411 0.435626,0.85271 0.81005,1.71773 1.049749,2.60791 0.163068,0.71946 0.368322,1.433 0.510611,2.15471 0.233675,1.17222 0.433205,2.3475 0.703798,3.51594 0.231537,0.79865 0.289917,1.61292 0.374267,2.42363 0.0928,0.8006 0.0482,1.60423 0.0754,2.40621 0.0319,0.63022 0.0223,1.2606 0.0396,1.89102 0.0134,0.66323 0.001,1.32653 0.001,1.9898 -0.0149,0.66125 -0.0909,1.32091 -0.16295,1.97998 -0.0591,0.51673 -0.0883,1.035 -0.16264,1.55086 -0.0221,0.34931 -0.0615,0.69894 -0.164452,1.04146 -0.07216,0.16779 -0.05971,0.34617 -0.100013,0.51571 -0.03035,0.0699 -0.05175,0.22646 -0.05547,0.25624 -0.02989,0.0497 -0.02813,0.097 -0.01886,0.14884 0,0 0.396465,-0.0633 0.396465,-0.0633 v 0 c 0.003,0.0406 0.007,0.0154 -0.008,0.0311 0.0596,-0.10785 0.0371,-0.22582 0.088,-0.33715 0.0253,-0.16539 0.0362,-0.33073 0.0942,-0.49402 0.10241,-0.35259 0.15243,-0.71087 0.17142,-1.07038 0.0745,-0.51814 0.1044,-1.03866 0.16351,-1.55768 0.0727,-0.66627 0.14916,-1.33309 0.16477,-2.00154 3.5e-4,-0.66514 0.0129,-1.33031 10e-5,-1.99542 -0.0174,-0.6308 -0.008,-1.26157 -0.039,-1.89219 -0.0264,-0.80672 0.0191,-1.6151 -0.0745,-2.42042 -0.0852,-0.81909 -0.14174,-1.64205 -0.37468,-2.44909 -0.26918,-1.16629 -0.467177,-2.33937 -0.700454,-3.50932 -0.142328,-0.72668 -0.348972,-1.44502 -0.512745,-2.16938 -0.245154,-0.9018 -0.620753,-1.77911 -1.063825,-2.64296 -0.252712,-0.54811 -0.557848,-1.08095 -0.829583,-1.62365 -0.04529,-0.1302 -0.08922,-0.2589 -0.09401,-0.25803 -0.09053,0.0166 -0.1551,0.23366 0.0082,0.091 -0.203478,0.0804 0.377315,-0.11931 0.388442,-0.14741 0.398584,-0.17943 0.885257,-0.24054 1.278933,-0.42985 0.616948,-0.26434 1.202182,-0.56181 1.797272,-0.84933 0.47431,-0.26624 0.95931,-0.52393 1.41125,-0.80903 0.24148,-0.1562 0.45517,-0.29181 0.78438,-0.3444 -0.15455,-0.32959 -0.0724,-0.16442 -0.0828,-0.0538 0.0261,0.1213 -0.0119,0.23922 -0.0341,0.35901 0.0238,0.0658 -0.0144,0.22548 -0.0223,0.35279 -0.0152,0.35186 -0.0393,0.70049 -0.11718,1.04893 -0.0569,0.68525 -0.15836,1.36847 -0.25949,2.05115 -0.19091,1.36939 -0.39775,2.73715 -0.64815,4.10184 -0.23417,1.89657 -0.48099,3.79163 -0.75349,5.68567 -0.2451,2.3211 -0.35637,4.6458 -0.53746,6.96949 -0.0698,0.76701 -0.14716,1.49336 -0.18089,2.25785 -0.054,1.22543 0.0358,2.4517 0.0363,3.67713 0,0 0.24091,0 0.24091,0 z" />
      <path
         style="fill:#000000;fill-opacity:1;stroke:none;stroke-width:0.534865;stroke-opacity:1"
         d="m 100.33741,157.53951 -0.994869,-0.13687 -0.130266,-0.68804 c -0.07165,-0.37842 -0.522083,-1.50973 -1.000971,-2.51402 -0.762429,-1.59892 -0.833602,-1.84345 -0.572348,-1.9664 0.164095,-0.0772 0.814459,-0.34551 1.445255,-0.59617 0.630793,-0.25067 1.691339,-0.76441 2.356769,-1.14166 l 1.20987,-0.6859 -0.12787,1.14166 c -0.26564,2.37181 -0.96682,6.76543 -1.07649,6.74527 -0.0628,-0.0115 -0.56191,-0.0826 -1.10908,-0.15787 z"
         id="path4166" />
      <path
         style="fill:#000000;fill-opacity:1;stroke:none;stroke-width:0.189103;stroke-opacity:1"
         d="m 100.71947,164.42252 c -0.005,-0.0395 -0.0422,-0.31985 -0.0816,-0.62294 -0.0394,-0.30308 -0.14802,-0.89257 -0.24139,-1.30997 -0.0934,-0.4174 -0.32054,-1.5279 -0.504852,-2.46778 -0.184311,-0.93988 -0.356852,-1.80205 -0.383424,-1.91595 l -0.04832,-0.20707 0.265989,0.0322 c 0.400477,0.0485 1.757227,0.26075 1.783197,0.27895 0.0258,0.0181 -0.1558,1.47074 -0.45624,3.64892 -0.11269,0.817 -0.23156,1.74422 -0.26416,2.06048 -0.0326,0.31626 -0.0637,0.54267 -0.0692,0.50314 z"
         id="path4168" />
      <path
         style="fill:#000000;fill-opacity:1;stroke:none;stroke-width:0.477439;stroke-opacity:1"
         id="path4170"
         d="m 100.25265,156.32232 c -0.13145,0.30096 -0.23431,0.60926 -0.23756,0.92548 -0.001,0.12237 0.0339,0.24366 0.0374,0.36614 -0.038,0.24109 -0.0147,0.48276 -0.004,0.72423 0.005,0.17655 0.0405,0.35021 0.0827,0.52365 0.0155,0.0899 0.037,0.17952 0.0777,0.26572 0.0435,0.0621 0.0668,0.0906 0.17342,-0.0314 0.0185,-0.0211 -1.8e-4,-0.0495 -0.001,-0.0743 -0.001,-0.0383 -0.004,-0.0765 -0.006,-0.11477 0.004,-0.27863 -0.039,-0.55363 -0.11678,-0.82637 -0.0644,-0.159 -0.0989,-0.32251 -0.14726,-0.48399 -0.0342,-0.0937 -0.042,-0.19107 -0.0805,-0.2839 -0.014,-0.0176 -0.03394,-0.10359 -0.16086,0.0669 -0.02754,0.037 0.007,0.0833 0.0091,0.12496 0.0039,0.073 0.0085,0.27068 0.01018,0.3361 0.01703,0.2847 0.02003,0.57071 0.05371,0.85481 0.01455,0.0579 0.02062,0.19595 0.18509,0.0293 0.0253,-0.0257 -0.0114,-0.0619 -0.017,-0.0928 -0.0323,-0.29337 -0.0824,-0.5854 -0.13433,-0.87732 -0.0169,-0.0833 -0.009,-0.16764 -0.02689,-0.25077 -0.0026,-0.006 0.0013,-0.0189 -0.007,-0.0171 -0.05893,0.0138 -0.128748,0.0236 -0.16703,0.0579 -0.02695,0.0241 -0.0013,0.0612 -1.76e-4,0.0918 0.0052,0.12282 0.02787,0.24109 0.05997,0.36165 0.01429,0.12712 0.103922,0.2508 0.102832,0.37912 0.0046,0.0331 0.02278,0.21784 0.141614,-0.0657 0.0179,-0.0426 -0.0324,-0.0858 -0.0476,-0.12897 -0.05867,-0.16685 -0.107235,-0.33524 -0.160514,-0.50295 -0.07215,-0.2174 -0.151589,-0.43365 -0.23145,-0.64972 -0.0089,-0.0366 -0.02682,-0.16728 -0.142798,0.008 -0.01677,0.0253 0.0263,0.0527 0.03863,0.0793 0.01723,0.0369 0.03341,0.0741 0.05006,0.1111 0.120897,0.30342 0.276382,0.59896 0.424212,0.8962 0.038,0.0742 0.055,0.15307 0.0894,0.22797 0.005,0.0116 0.0288,0.0492 0.0289,0.0492 0.0574,-0.001 0.11338,-0.0131 0.17007,-0.0197 0.21395,-0.33167 0.31758,-0.70335 0.43215,-1.05767 -0.18776,0.10127 0.0733,-0.10304 0.0249,-0.10045 -0.0632,0.003 -0.14136,-9.1e-4 -0.18503,0.0313 -0.0425,0.0314 -0.0213,0.0853 -0.0309,0.12813 -0.12237,0.54685 0.0373,-0.1378 -0.10509,0.46577 -0.0393,0.19298 -0.10519,0.38426 -0.13203,0.57862 -0.003,0.0204 -0.0253,0.0496 -0.001,0.0616 0.17931,0.0901 0.17911,0.006 0.22885,-0.0736 0.0953,-0.21571 0.17569,-0.43457 0.26074,-0.65234 0.0133,-0.0341 0.1046,-0.31906 0.16076,-0.38586 -0.055,-9.2e-4 -0.11784,-0.022 -0.16481,-0.002 -0.0333,0.0142 -0.0145,0.0537 -0.0202,0.0807 -0.0685,0.32944 -0.11546,0.66114 -0.17385,0.99155 -0.003,0.0158 -0.0324,0.0503 -0.0101,0.0473 0.23739,-0.0325 0.20231,-0.0788 0.23432,-0.21327 0.014,-0.059 0.0254,-0.11819 0.0387,-0.17721 0.0486,-0.2158 0.0273,-0.1342 0.0936,-0.33991 0.022,-0.0632 0.0427,-0.12653 0.0647,-0.18969 0.001,-0.003 0.007,-0.011 0.003,-0.009 -0.0641,0.035 -0.15071,0.0585 -0.18724,0.10941 -0.0418,0.0581 -0.0213,0.12932 -0.0307,0.19407 -0.0104,0.0724 -0.0192,0.14492 -0.0288,0.21738 -0.008,0.0553 -0.0298,0.21704 -0.0402,0.28587 -0.01,0.0635 -0.056,0.1625 0.18852,0.0486 0.0512,-0.0238 0.0531,-0.0776 0.0796,-0.11646 0.18283,-0.30704 0.42007,-0.60659 0.51745,-0.93508 -0.0658,0.0195 -0.15267,0.0195 -0.19746,0.0586 -0.0504,0.0439 -0.0397,0.10914 -0.0579,0.16399 -0.026,0.0781 -0.0514,0.15621 -0.0747,0.23469 -0.0624,0.21048 -0.11578,0.42246 -0.1743,0.6335 -0.008,0.0278 -0.0164,0.0556 -0.0245,0.0834 -0.003,0.006 -0.0196,0.0181 -0.0104,0.0179 0.0598,-9.2e-4 0.13158,0.007 0.17732,-0.0202 0.0309,-0.0183 -4e-5,-0.0567 5.2e-4,-0.0851 0.003,-0.15292 0.001,-0.10464 0.017,-0.26966 0.0243,-0.15923 0.0827,-0.31386 0.14492,-0.46737 0.007,-0.0183 0.0472,-0.0464 0.0228,-0.0547 -0.21526,-0.0736 -0.18793,0.0233 -0.21085,0.10984 -0.0254,0.13315 -0.0757,0.26431 -0.0923,0.3984 -0.007,0.058 -0.0233,0.0501 0.0132,0.0608 0,0 0.11553,0.0344 0.11553,0.0344 v 0 c 0.0576,-0.0529 0.0503,-0.11107 0.0662,-0.17833 0.023,-0.0977 0.0483,-0.19508 0.0709,-0.2928 0.023,-0.0872 0.09,-0.15888 -0.13303,-0.1682 -0.0281,-0.001 -0.017,0.0376 -0.0249,0.0565 -0.0673,0.16167 -0.12753,0.32509 -0.15189,0.49319 -0.014,0.15192 -0.0161,0.13676 -0.0174,0.27839 -1.8e-4,0.0248 -0.0209,0.0552 10e-4,0.0744 0.0409,0.0353 0.10435,0.058 0.16676,0.0707 0.0559,0.0113 -0.057,-0.20027 0.0397,-0.11904 0.0549,-0.21009 0.10744,-0.42094 0.16938,-0.63008 0.023,-0.0776 0.0486,-0.1548 0.0744,-0.23195 0.0183,-0.0549 0.0739,-0.10887 0.058,-0.16411 -0.0139,-0.0483 -0.0916,-0.0747 -0.13742,-0.11202 -0.0961,0.31858 -0.33186,0.60818 -0.50594,0.90709 -0.0981,0.14403 -0.12126,0.0864 0.0525,0.18851 0.0206,0.0121 0.005,-0.0375 0.008,-0.0562 0.007,-0.0503 0.0343,-0.26 0.0378,-0.2869 0.009,-0.0718 0.0168,-0.14361 0.0266,-0.21533 0.009,-0.0639 0.0482,-0.1287 0.029,-0.19144 -0.11916,-0.38878 -0.18535,-0.0215 -0.21242,0.0476 -0.069,0.21257 -0.0471,0.12898 -0.0965,0.34824 -0.013,0.0579 -0.0243,0.11597 -0.0378,0.1738 -0.0302,0.12851 -0.097,0.164 0.10399,0.25209 0.0204,0.009 0.007,-0.0334 0.01,-0.0501 0.0416,-0.24682 0.0786,-0.49408 0.12061,-0.74082 0.0139,-0.0817 0.0303,-0.16328 0.0474,-0.24472 0.006,-0.0273 0.0409,-0.0577 0.021,-0.0816 -0.0301,-0.0363 -0.0987,-0.0476 -0.14805,-0.0714 -0.084,0.11986 -0.12754,0.28534 -0.17594,0.40813 -0.0842,0.21353 -0.16461,0.42786 -0.25492,0.64015 -0.0286,0.0607 -0.0814,0.1057 0.0963,0.11914 0.0225,0.002 -0.001,-0.0317 6.5e-4,-0.0475 0.006,-0.0397 0.0143,-0.0792 0.0226,-0.11868 0.0367,-0.1748 0.0626,-0.27552 0.1062,-0.45683 0.1331,-0.56433 -0.008,0.0413 0.105,-0.46544 0.009,-0.0391 0.0495,-0.0805 0.0281,-0.11706 -0.023,-0.0392 -0.091,-0.0565 -0.14273,-0.0785 -0.007,-0.003 -0.003,0.0109 -0.004,0.0163 -0.007,0.0249 -0.0136,0.0497 -0.0204,0.0746 -0.11017,0.34078 -0.2159,0.68559 -0.39442,1.01247 0.0347,0.0129 0.0689,0.0266 0.1042,0.0387 0.0122,0.004 -0.0138,-0.0166 -0.0179,-0.0257 -0.007,-0.0152 -0.0119,-0.0309 -0.0179,-0.0463 -0.0446,-0.11425 -0.0241,-0.0631 -0.0769,-0.18948 -0.14874,-0.2958 -0.306608,-0.58958 -0.426904,-0.89196 -0.01703,-0.0378 -0.03361,-0.0757 -0.0511,-0.11334 -0.01331,-0.0286 -0.0052,-0.0689 -0.04131,-0.0855 -0.217209,-0.1005 -0.17272,0.001 -0.157404,0.0611 0.07712,0.21529 0.153965,0.43072 0.227142,0.64669 0.05312,0.16915 0.102082,0.33886 0.161261,0.50705 0.01481,0.0422 0.0046,0.0944 0.04666,0.12611 0.232855,0.17455 0.195835,0.082 0.179765,0.0379 -0.005,-0.13552 -0.0797,-0.26485 -0.105021,-0.39852 -0.03263,-0.11782 -0.03511,-0.10981 -0.04927,-0.23296 -0.0039,-0.0358 -0.0065,-0.0717 -0.0079,-0.10761 -0.0013,-0.0262 0.02467,-0.0591 -3.46e-4,-0.0787 -0.03576,-0.0281 -0.100555,-0.0267 -0.150825,-0.04 1.69e-4,4.6e-4 3.45e-4,9.2e-4 5.15e-4,0.002 0.01214,0.0827 -0.01645,0.16841 0.01338,0.25067 0.05208,0.29246 0.101488,0.58504 0.138445,0.87863 0.0065,0.0296 -0.01547,0.071 0.01886,0.0888 0.242602,0.12606 0.161852,-0.006 0.147312,-0.0517 -0.0343,-0.28157 -0.0367,-0.56518 -0.0538,-0.84738 -10e-4,-0.039 -0.007,-0.28954 -0.01,-0.33968 -0.002,-0.0431 0.026,-0.0937 -0.009,-0.12922 -0.03557,-0.0361 -0.110236,-0.0446 -0.171445,-0.0539 -0.0954,-0.0145 0.0072,0.0242 0.0092,0.0307 0.03955,0.0891 0.03942,0.18473 0.07645,0.27445 0.04829,0.16117 0.08182,0.32449 0.146365,0.48319 0.0775,0.26631 0.11825,0.53529 0.11929,0.80743 0.003,0.0375 0.005,0.075 0.007,0.11252 0.001,0.0271 -0.0275,0.065 0.003,0.0812 0.0385,0.02 0.17872,0.0199 0.14374,-0.003 -0.003,-0.002 -0.008,-0.008 -0.01,-0.01 -0.0403,-0.0805 -0.0553,-0.1655 -0.0718,-0.24952 -0.0433,-0.16817 -0.0776,-0.33671 -0.0836,-0.50808 -0.0108,-0.24155 -0.0362,-0.48298 -0.007,-0.72456 -0.009,-0.11949 -0.0469,-0.23879 -0.0489,-0.35825 -0.005,-0.30871 0.092,-0.60982 0.21472,-0.90468 0,0 -0.10768,-0.025 -0.10768,-0.025 z" />
      <path
         style="fill:#000000;fill-opacity:1;stroke:none;stroke-width:0.477439;stroke-opacity:1"
         id="path4898"
         d="m 99.56773,156.22554 c 0.227397,0.36548 0.285453,0.42757 0.4459,0.80707 0.058,0.1373 0.10753,0.27499 0.1099,0.41833 1.1e-4,0.006 -0.0118,0.01 -0.0137,0.0158 -0.006,0.0187 -0.006,0.038 -0.009,0.057 0.006,0.0393 0.008,0.079 0.0178,0.11794 0.01,0.0377 0.0295,0.0738 0.0414,0.11123 0.0417,0.13091 0.0653,0.26502 0.0957,0.39736 0.0576,0.18122 0.13122,0.35966 0.18311,0.54177 0.008,0.0747 0.13754,0.29667 0.11323,0.36141 0.0519,-0.20646 -0.0642,0.15483 0.55921,-0.0394 0.0768,-0.0239 -0.0152,-0.11726 -0.0222,-0.17592 -0.0282,-0.23496 -0.0466,-0.46953 -0.0605,-0.7051 0.003,-0.318 -0.0566,-0.63323 -0.10272,-0.94886 -0.005,-0.0721 -0.0174,-0.1442 -0.0101,-0.21633 -0.0286,0.011 0.0202,-0.0412 0.003,-0.0384 -0.17895,0.0287 -0.37776,0.0303 -0.53181,0.1002 -0.0514,0.0234 0.0209,0.0846 0.0316,0.12693 0.0722,0.28558 0.0215,0.0769 0.0911,0.37007 0.0605,0.29435 0.11254,0.58972 0.1299,0.88704 0.007,0.11707 -1e-5,0.23457 -5e-5,0.3517 -0.0144,0.16684 0.0304,0.33882 6.6e-4,0.50502 0.0863,-0.20866 -0.0872,0.13796 0.44461,-0.13071 0.0467,-0.0236 -0.0505,-0.0724 -0.0741,-0.10916 -0.0358,-0.0558 -0.071,-0.1117 -0.10404,-0.16829 -0.12353,-0.21185 -0.24033,-0.42559 -0.362,-0.63796 -0.14916,-0.25085 -0.27206,-0.5113 -0.46142,-0.74963 -0.0478,-0.0602 -0.109441,-0.11431 -0.162113,-0.17231 -0.153678,-0.2018 -0.06734,-0.27025 -0.621347,-0.088 -0.04588,0.0151 -0.0033,0.071 -0.0052,0.10644 0.03446,0.3668 0.155348,0.72704 0.253423,1.08758 0.04,0.13252 0.06382,0.26787 0.110076,0.39944 0.338511,0.22703 0.02101,0.0741 0.04607,0.0598 0.138869,-0.0793 0.309791,-0.12763 0.451141,-0.20478 0.0144,-0.008 -0.004,-0.0255 -0.006,-0.0382 -0.0469,-0.2787 0.0211,0.1363 -0.0337,-0.20025 -0.0506,-0.28859 -0.165065,-0.56835 -0.249194,-0.85248 -0.07395,-0.27605 -0.146518,-0.55263 -0.23406,-0.82677 -0.04751,-0.14768 -0.09152,-0.2961 -0.124479,-0.44577 -0.03185,-0.0931 -0.05051,-0.18792 -0.07634,-0.28181 -0.02526,-0.0917 -0.06056,-0.18259 -0.118704,-0.26678 -0.008,-0.0151 -0.02982,-0.0884 -0.05534,-0.1343 0.05241,0.10442 -0.01977,-0.0581 -0.03609,-0.0819 0.04666,0.12651 0.01677,0.002 0.01964,-0.0309 -0.0052,-0.0486 -0.02212,-0.0948 -0.05188,-0.13884 -0.0076,-0.0112 -0.03048,-0.0447 -0.0261,-0.0326 0.0052,0.0148 0.01325,0.0306 0.02917,0.041 0.0093,0.006 -0.0046,-0.0177 -0.007,-0.0265 -0.03792,-0.10985 -0.133648,-0.2029 -0.193617,-0.30601 -0.03276,-0.0641 -0.09967,-0.12083 -0.122848,-0.18753 -0.002,-0.006 -6.53e-4,-0.0124 -0.0013,-0.0187 -0.0074,-0.0193 -0.01475,-0.0386 -0.02206,-0.0579 -0.0449,-0.0775 -0.03355,-0.0718 -0.0588,-0.14776 -0.01651,-0.0485 -0.03713,-0.0995 -0.04405,-0.14389 -0.01083,-0.0325 -0.03126,-0.0982 -0.0374,-0.11644 -0.02747,-0.0774 -0.06161,-0.15329 -0.111153,-0.2252 -0.04053,-0.0555 -0.08639,-0.11216 -0.10823,-0.17322 -0.03354,-0.0938 -0.105364,-0.17837 -0.162122,-0.26594 -0.03557,-0.0599 -0.06963,-0.1201 -0.103857,-0.18032 -0.03818,-0.0622 -0.09578,-0.11325 -0.130503,-0.17545 -0.01651,-0.0573 -0.03531,-0.11283 -0.06744,-0.16708 0.0265,0.0734 -0.01077,-0.0664 -4.6e-5,-0.0243 0.0124,-0.0322 0.0046,-0.0699 0.03061,-0.099 0.02656,-0.0475 0.07222,-0.0884 0.119507,-0.12676 0.127873,-0.11774 0.290863,-0.21468 0.414814,-0.33419 0.0265,-0.0583 0.0122,-0.0209 0.03185,-0.11389 0,0 0.01814,-0.0502 0.01814,-0.0502 v 0 c -0.215265,-0.14215 -0.09617,-0.12439 -0.336618,-0.0994 -0.04281,0.015 -0.08826,0.0266 -0.12833,0.0449 -0.17165,0.0783 -0.286882,0.20636 -0.424042,0.3096 -0.07838,0.0692 -0.154102,0.14103 -0.200822,0.22387 -0.03257,0.0594 -0.05371,0.11983 -0.06721,0.1827 -0.01207,0.0833 -0.002,0.16114 0.03726,0.2406 0.0342,0.0462 0.02434,0.10419 0.05932,0.15083 0.03576,0.0662 0.08574,0.12553 0.134255,0.18682 0.04125,0.064 0.07207,0.13012 0.11287,0.19462 0.04973,0.0732 0.110579,0.14392 0.142857,0.22212 0.03876,0.0751 0.08936,0.14746 0.141102,0.21839 0.0265,0.0384 0.04934,0.0785 0.06817,0.12627 0.02571,0.0793 0.01462,0.0337 0.03504,0.10002 0.01429,0.0646 0.03472,0.12787 0.05743,0.19125 0.03759,0.0406 0.0087,0.11096 0.05873,0.15107 0.04523,0.10963 0.08863,0.21795 0.174496,0.31671 0.05103,0.077 0.112191,0.15056 0.163127,0.22746 0.01149,0.0368 0.05528,0.15573 0.04653,0.0881 0.0026,0.0631 0.007,0.12622 0.03302,0.187 0.03694,0.0533 -0.0357,-0.10529 0.02656,0.0603 0.03061,0.0546 0.03093,0.1169 0.07889,0.1673 0.04007,0.0477 0.05345,0.11045 0.07214,0.16481 0.02656,0.0893 0.04196,0.18033 0.07433,0.26895 0.03772,0.15653 0.07997,0.31249 0.131646,0.46708 0.08752,0.27216 0.15649,0.54733 0.228564,0.82164 0.08093,0.27262 0.18918,0.54157 0.230053,0.81923 0.0046,0.0298 0.05273,0.356 0.08565,0.35434 0.177113,-0.009 0.339794,-0.0785 0.493044,-0.14138 0.0217,-0.009 -0.0525,-0.0593 -0.0446,-0.0426 0.0132,0.0279 0.0407,0.0515 0.0611,0.0773 -0.0524,-0.12154 -0.0558,-0.253 -0.10369,-0.37542 -0.09127,-0.33546 -0.20187,-0.66983 -0.247807,-1.01012 -0.0026,-0.17209 0.02728,-0.10573 -0.508941,-0.0581 -0.02056,0.002 0.01638,0.0267 0.02499,0.0399 0.04131,0.0638 0.08641,0.12628 0.134288,0.18774 0.04307,0.0483 0.09644,0.095 0.13545,0.14486 0.178608,0.22842 0.289284,0.47915 0.43293,0.71826 0.15152,0.27937 0.28887,0.5676 0.46748,0.83964 0.0327,0.0498 0.0333,0.12442 0.10447,0.14714 0.51402,0.16416 0.47733,0.1415 0.57293,-0.0384 0.0234,-0.18083 -0.002,-0.36374 0.003,-0.545 -0.002,-0.12446 0.007,-0.24928 -0.001,-0.37367 -0.0187,-0.31065 -0.0724,-0.61979 -0.13894,-0.92699 -0.0784,-0.32987 -0.0128,-0.0606 -0.0931,-0.37291 -0.0106,-0.0412 0.0251,-0.10898 -0.0308,-0.12371 -0.17636,-0.0464 -0.37551,-0.0218 -0.56327,-0.0327 5.2e-4,2.4e-4 0.001,4.6e-4 0.001,9.1e-4 0,0.002 0,0.005 0,0.007 -0.009,0.0942 0.003,0.1883 0.0116,0.28233 0.045,0.30745 0.10144,0.61463 0.0964,0.92439 0.012,0.24494 0.0239,0.49008 0.0598,0.73404 0.005,0.0318 -0.0168,0.0772 0.0213,0.0949 0.15911,0.074 0.34045,0.12721 0.52575,0.15968 0.0303,0.005 0.013,-0.0428 0.0195,-0.0641 0.006,-0.15722 -0.0765,-0.30643 -0.12524,-0.45809 -0.0533,-0.17631 -0.12002,-0.35029 -0.18385,-0.52484 -0.0413,-0.17894 -0.0672,-0.36331 -0.15875,-0.53386 0.003,-0.0477 0.0192,-0.095 0.0164,-0.14265 -0.009,-0.158 -0.0799,-0.35934 -0.14253,-0.50089 -0.17423,-0.39388 -0.24887,-0.47788 -0.4923,-0.85478 0,0 -0.45095,0.16858 -0.45095,0.16858 z" />
      <path
         style="fill:#000000;fill-opacity:1;stroke:none;stroke-width:0.477439;stroke-opacity:1"
         id="path4900"
         d="m 100.64623,155.72319 c 0.0344,0.169 0.0655,0.33832 0.0992,0.50739 0.009,0.0436 0.009,0.0882 0.0226,0.13118 0.006,0.0186 0.0204,0.0357 0.0249,0.0545 6.5e-4,0.003 -0.008,-0.002 -0.0125,-0.003 0.0217,0.14817 0.0608,0.29564 0.0656,0.44476 -0.004,0.1691 0.034,0.33639 0.0748,0.50241 0.0268,0.13038 0.0534,0.26077 0.0739,0.39173 0.0111,0.10988 0.0176,0.21888 0.017,0.32903 -0.007,0.12463 -0.029,0.24868 -0.034,0.37378 -0.007,0.0998 -0.004,0.19889 -0.0224,0.29797 -0.0171,0.0982 -0.005,0.19624 -0.0186,0.29428 -0.0247,0.24756 -0.0693,0.18099 0.52901,0.0801 0.007,-0.18666 -0.0341,-0.37171 -0.0599,-0.55692 -0.004,-0.13594 -0.0405,-0.26893 -0.0695,-0.40271 -0.0328,-0.13134 -0.0215,-0.26383 -0.017,-0.39616 0.005,-0.16354 -0.008,-0.32728 0.003,-0.49071 0.027,-0.17387 0.0254,-0.34914 0.0204,-0.52375 -0.002,-0.23589 0.16358,-0.17415 -0.4457,-0.10206 0.007,0.16385 0.0794,0.32155 0.0988,0.48408 0.0196,0.12804 0.0322,0.25635 0.0476,0.38464 6.5e-4,0.11469 0.0162,0.22864 0.0322,0.34268 0.0103,0.13293 0.0663,0.26503 0.0587,0.39863 -0.0187,0.0623 0.0305,0.13199 0.0288,0.19882 -0.045,0.0571 -0.0256,0.13762 -0.0129,0.19872 0.003,-0.0155 0.005,0.0567 0.005,0.052 -2e-5,-0.008 0.002,-0.0304 0.002,-0.0228 0.003,0.0957 -0.008,0.0396 0.006,0.0993 -0.002,-0.006 -0.003,-0.023 -0.007,-0.0174 -0.0278,0.053 0.002,0.13645 -0.0123,0.19434 -0.002,0.0105 -0.003,0.0211 -0.005,0.0315 -0.001,0.005 -0.0234,0.12258 -0.0262,0.0951 -0.0392,0.0511 -0.066,0.10517 -0.0851,0.16151 -0.025,0.0615 -0.0412,0.12493 -0.0514,0.18843 -0.008,0.0607 -0.003,0.0937 -0.0292,0.15418 -0.0172,0.0789 -0.0358,0.15579 -0.0386,0.236 -0.0149,0.0905 -0.0472,0.17535 -0.0434,0.26879 0.0201,0.0637 -0.006,0.0966 -0.0143,0.17568 -0.009,0.0566 -9e-5,0.1142 -0.005,0.17083 -3.5e-4,0.003 -0.008,0.005 -0.009,0.008 -0.007,0.0228 -0.0126,0.0458 -0.0189,0.0687 -0.0106,0.10866 -0.0267,0.21678 -0.0123,0.32555 -0.0144,0.0768 -0.012,0.15513 -0.0117,0.23257 -0.007,0.0857 0.0216,0.1707 0.0166,0.25611 -0.005,0.0908 -0.0141,0.18147 -0.0175,0.2723 0.0138,0.0773 -0.006,0.1515 -0.0159,0.22779 0.005,0.064 -0.0173,0.12043 -0.0437,0.18092 -0.006,0.0179 -0.0132,0.0357 -0.0178,0.0538 -0.005,0.0215 -0.0104,0.0432 -0.0121,0.065 -0.002,0.0234 0.0208,0.13004 0.005,0.15064 -0.0207,0.0848 -0.0406,0.16982 -0.0605,0.25482 -0.005,0.0697 -5.3e-4,0.13818 -0.004,0.20817 0.009,0.003 -0.013,0.19023 -0.004,0.11623 0.007,-0.0125 0.0295,-0.0499 0.0216,-0.0376 -0.0667,0.10479 -0.0419,0.14623 -0.0341,0.25119 -0.009,0.0611 -0.001,0.11691 0.0124,0.17746 0.005,0.009 0.0165,0.0378 0.0144,0.0279 -0.0324,-0.16016 -0.04,0.0961 -0.0414,0.11351 -0.0192,0.0802 -0.0137,0.16203 -0.01,0.24296 0.009,0.0396 0.0183,0.0806 0.0162,0.12095 -5.2e-4,0.0104 -0.01,0.0406 -0.0104,0.0302 -3.4e-4,-0.006 0.003,-0.0112 0.005,-0.0168 -0.0286,0.10018 -0.0324,0.036 -0.0338,0.16747 0.004,0.016 -0.0162,0.0537 -0.0184,0.1444 -0.025,0.0951 -0.0478,0.19002 -0.0488,0.28688 0.002,0.024 0.004,0.0558 0.007,0.0808 6.5e-4,0.005 3.5e-4,0.0197 0.003,0.015 0.11565,-0.22554 0.0138,-0.12222 0.0854,-0.16636 -0.0208,0.0966 -0.025,0.19573 -0.0624,0.28987 -0.009,0.0228 -0.0464,-0.0439 -0.036,-0.0664 0.0545,-0.11794 0.0189,-0.0804 0.12811,-0.14821 -0.12365,0.063 -0.16493,0.0672 -0.10107,0.25347 0.01,0.0285 0.20227,0.0216 0.22629,0.0215 0,0 0.0719,-0.0122 0.0719,-0.0122 v 0 c 0.0324,-0.008 0.0662,-0.0148 0.0973,-0.0254 0.0357,-0.0121 0.09,-0.0689 0.1023,-0.0425 0.0483,0.10378 -0.0331,0.1311 -0.1107,0.16875 0.0333,-0.0189 0.0757,-0.0319 0.10002,-0.0566 0.0579,-0.0588 0.0973,-0.13581 0.0743,-0.208 -0.01,-0.0315 -0.0172,-0.12019 -0.0409,-0.0925 -0.0635,0.0742 -0.0631,0.16734 -0.0946,0.251 0.10759,-0.0645 0.16636,-0.16913 0.14284,-0.26685 -0.01,-0.0926 0.051,-0.18257 0.0487,-0.27529 3.5e-4,-0.0114 0.0119,-0.0259 6.5e-4,-0.0343 -0.009,-0.007 -0.014,0.0355 -0.0112,0.0265 0.0145,-0.0477 0.038,-0.0948 0.0289,-0.14486 -5.2e-4,-0.0118 0.0207,-0.11815 -0.003,-0.0228 0.045,-0.10013 0.0504,-0.20213 0.0276,-0.30604 -0.001,-0.005 -6.5e-4,0.01 -0.001,0.0148 -0.003,-0.0697 -0.01,-0.13949 0.01,-0.20861 0.006,-0.0928 0.0352,-0.18998 0.007,-0.27604 0.0121,0.12904 0.003,-0.0899 0.007,-0.0961 -0.002,-0.0159 -0.003,-0.0318 -0.006,-0.0476 -0.0143,-0.0858 -0.009,-0.0103 -0.0214,0.012 -0.005,0.01 -0.0971,0.12547 0.0174,-0.0281 0.0232,-0.0725 0.0313,-0.14507 0.029,-0.21935 0.002,-0.0382 0.006,-0.0763 0.003,-0.11453 -0.001,-0.0187 0.004,-0.0389 -0.007,-0.0561 -0.008,-0.0122 -0.004,0.0267 -0.003,0.0401 5.1e-4,0.008 0.003,-0.0166 0.004,-0.0249 0.0222,-0.0951 0.046,-0.19 0.066,-0.28528 0.004,-0.0638 -0.0108,-0.12738 0.003,-0.18899 0.0358,-0.0887 0.07,-0.17753 0.0651,-0.27072 -0.003,-0.0351 -5.3e-4,0.009 0.0128,-0.0706 0.01,-0.0585 0.007,-0.11689 0.007,-0.17559 0.002,-0.0936 0.0174,-0.18725 0.0202,-0.28094 -0.002,-0.0876 -0.0183,-0.17422 -0.0179,-0.26185 -0.003,-0.0898 0.001,-0.17921 0.003,-0.26894 -0.0121,-0.0716 0.0108,-0.14252 -6.5e-4,-0.21425 0.0194,-0.098 0.0393,-0.19368 0.0279,-0.29329 0.004,-0.0753 0.0328,-0.15037 0.009,-0.2255 -0.0294,-0.0612 0.0734,-0.16538 0.0395,-0.23699 5e-5,-0.0517 0.013,-0.10168 0.0256,-0.15739 0.0179,-0.0645 0.0364,-0.12961 0.0363,-0.19549 0.007,-0.0479 0.0162,-0.0955 0.036,-0.14191 0.006,-0.0176 0.0435,-0.0881 0.0767,-0.14257 0.0219,-0.0645 0.0377,-0.12994 0.0494,-0.19596 0.011,-0.095 0.009,-0.19098 0.01,-0.28627 -0.0168,0.12298 0.0141,-0.10803 -0.0149,-0.12583 -0.003,-0.007 -0.002,-0.028 -0.007,-0.0216 -0.005,0.006 -0.008,0.0279 -0.007,0.0208 0.008,-0.0495 0.0345,-0.0977 0.0286,-0.14856 -0.008,-0.076 -0.0384,-0.13266 -0.0389,-0.19727 -0.0181,-0.14099 -0.0561,-0.27963 -0.0853,-0.41942 -0.0185,-0.11142 -0.034,-0.22228 -0.0337,-0.33467 -0.0157,-0.13024 -0.0295,-0.26046 -0.056,-0.38993 -0.0256,-0.15998 -0.0889,-0.31515 -0.11056,-0.47559 -0.42556,-0.0861 -0.4477,-0.21142 -0.49482,-0.0689 -0.0221,0.0668 -0.037,0.13412 -0.0318,0.20304 0.003,0.16789 0.007,0.33627 -0.0213,0.50337 -0.01,0.16565 10e-4,0.33141 -0.004,0.49714 -0.005,0.15192 -0.0131,0.30392 0.0208,0.45485 0.0258,0.12617 0.0522,0.25135 0.0504,0.37949 0.0143,0.17024 0.0432,0.34048 0.0336,0.51131 0.17352,-0.003 0.34799,-0.0213 0.52055,-0.008 0.0176,0.001 0.005,0.10783 0.005,0.0668 -5.1e-4,-0.0292 0.008,-0.059 0.006,-0.0883 0.0105,-0.0946 0.003,-0.18842 0.0131,-0.28291 0.0174,-0.11153 0.0179,-0.22285 0.0183,-0.335 6.5e-4,-0.13146 0.0239,-0.26235 0.0145,-0.39368 -0.0145,-0.1173 -0.0279,-0.23459 -0.0361,-0.35218 -0.0217,-0.13786 -0.0493,-0.27515 -0.0806,-0.41206 -0.0377,-0.15226 -0.08,-0.30464 -0.0785,-0.46005 -0.0149,-0.16976 -0.0579,-0.33798 -0.10616,-0.50447 -0.0119,-0.0227 -0.019,-0.047 -0.0356,-0.0682 -0.007,-0.009 0.0129,0.0218 0.007,0.0316 -0.005,0.007 -0.0106,-0.0136 -0.0134,-0.021 -0.0752,-0.19647 -0.10226,-0.40084 -0.17191,-0.59813 0,0 -0.34709,0.0402 -0.34709,0.0402 z" />
      <path
         style="fill:#000000;fill-opacity:1;stroke:none;stroke-width:0.477439;stroke-opacity:1"
         id="path4902"
         d="m 99.692921,158.88012 c 0.08537,0.17596 0.194394,0.3477 0.267891,0.52668 0.0026,0.007 -0.0039,-0.0221 -0.01279,-0.0189 -0.0033,9.2e-4 0.0052,0.0389 0.01018,0.0624 0.06811,0.15197 0.110458,0.30739 0.145088,0.46445 0.0703,0.17018 0.10948,0.34357 0.13865,0.51918 0.0277,0.2038 0.0482,0.40816 0.0785,0.61177 0.0262,0.19686 0.0584,0.39326 0.0928,0.58948 1.8e-4,0.006 3.5e-4,0.0123 6.5e-4,0.0185 -3.4e-4,-9.2e-4 -6.5e-4,-0.002 -10e-4,-0.003 10e-4,0.0174 0.003,0.0348 0.005,0.0521 0.002,0.0177 -0.0174,-0.0488 0.007,-0.0532 0.1348,-0.0242 0.27436,-0.0329 0.41154,-0.0494 -0.14982,-0.27524 -0.29213,-0.55182 -0.39109,-0.83834 -0.0583,-0.14813 -0.0638,-0.30146 -0.0514,-0.45388 0.0232,-0.19563 0.0369,-0.39142 0.0286,-0.58772 -0.007,-0.11309 -0.0145,-0.22676 -0.0485,-0.33763 -0.0392,-0.12432 -0.0707,-0.24955 -0.10777,-0.37417 -0.0166,-0.0862 -0.0413,-0.17254 -0.0555,-0.25898 -0.0463,-0.17248 -0.167,-0.16591 -0.353279,-0.0562 -0.02167,0.0128 -0.02049,0.037 -0.03074,0.0554 -0.06363,0.12834 -0.02643,0.25631 0.0039,0.38551 0.01038,0.0887 0.01253,0.17561 0.03707,0.2634 0.03256,0.10582 0.07227,0.2098 0.09046,0.31739 0.01977,0.13474 0.05528,0.26794 0.08794,0.40131 0.0551,0.14171 0.078,0.28669 0.0958,0.43259 0.0349,0.11957 0.0333,0.24127 0.0614,0.36136 0.0342,0.15816 0.0831,0.31377 0.10921,0.47282 0.022,0.0986 0.0402,0.19705 0.0651,0.29535 -0.002,0.10569 0.0211,0.21027 0.0249,0.31583 -0.0303,0.0998 -0.0302,0.20229 -0.0507,0.30302 -0.008,0.0475 -0.009,0.0953 -0.014,0.14288 -10e-4,0.0103 -0.002,0.0206 -0.003,0.0309 -5.1e-4,0.003 -0.005,0.012 -0.002,0.01 0.0612,-0.0481 0.11863,-0.0985 0.17796,-0.14777 0.18555,0.006 -0.0527,-0.0132 0.25059,0.14171 0.0164,0.008 0.007,-0.0281 0.008,-0.0423 0.007,-0.0679 -0.004,-0.12723 -0.0264,-0.19298 -0.0381,-0.12565 -0.0821,-0.25078 -0.14122,-0.37246 -0.0289,-0.0882 -0.10236,-0.16185 -0.13896,-0.24813 -0.0119,-0.068 -0.0472,-0.13178 -0.0745,-0.19713 -0.0307,-0.0601 -0.0404,-0.12271 -0.0599,-0.18448 -0.0353,-0.0786 -0.0343,-0.16086 -0.0538,-0.24168 -0.0327,-0.0884 -0.0418,-0.1795 -0.0574,-0.26991 0.007,-0.0941 -0.0329,-0.18448 -0.0489,-0.27661 -0.007,-0.076 -0.0332,-0.14993 -0.0489,-0.22502 -0.0243,-0.084 -0.041,-0.1689 -0.0653,-0.25298 -0.002,-0.008 0.003,-0.0181 -0.006,-0.0229 -0.0192,-0.0106 -0.04836,-0.009 -0.06859,-0.0183 -0.025,-0.0119 -0.02206,-0.13982 -0.02532,-0.1644 -0.0039,-0.0577 -0.02017,-0.1168 -0.05051,-0.17073 -0.03746,-0.0667 -0.01246,0.003 -0.02747,-0.0433 0.0033,-0.007 0.01025,-0.0129 0.0091,-0.0199 -0.0013,-0.006 -0.01188,-0.0102 -0.01501,-0.0163 -0.0065,-0.0119 -0.01051,-0.0245 -0.01286,-0.037 -0.0067,-0.0363 -0.0013,-0.0757 -0.0046,-0.11252 -0.01038,-0.0938 -0.05378,-0.18087 -0.04993,-0.27529 -0.02271,-0.0681 -0.01827,-0.13813 -0.01403,-0.20759 -0.0013,-0.0149 -5.22e-4,-0.03 -0.0033,-0.0449 -0.0079,-0.0428 -0.01788,-0.044 -0.0218,-0.0849 -0.0046,-0.0504 0.0033,-0.10033 -0.0013,-0.15084 0.0065,-0.10818 0.0026,-0.21725 -0.01534,-0.32601 0.002,-0.0917 -0.05743,-0.15952 -0.116961,-0.23718 0,0 -0.02611,-4e-5 -0.02611,-4e-5 v 0 c -0.06089,0.0782 -0.122234,0.14574 -0.1195,0.23866 -0.01573,0.1132 -0.01553,0.22779 -0.0013,0.34093 0.01573,0.0928 -0.0052,0.18736 0.01625,0.27983 0.02506,0.068 0.0026,0.14161 0.01834,0.21178 0.02937,0.0876 0.0231,0.177 0.03485,0.26589 0.0026,0.045 0.01566,0.0864 0.02232,0.13105 0.0033,0.024 -0.01012,0.0488 -0.0033,0.0725 0.0033,0.0111 0.01632,0.0195 0.02447,0.0292 0.02669,0.0594 0.06167,0.1122 0.05736,0.1764 0.0059,0.0437 0.04412,0.12402 0.0088,0.16558 -0.01527,0.018 -0.0479,0.0274 -0.05991,0.0466 -0.0071,0.0113 0.0052,0.0245 0.0078,0.0367 0.02278,0.0785 0.03779,0.15782 0.06109,0.23622 0.01566,0.0742 0.04353,0.14697 0.04966,0.22215 0.01899,0.0902 0.05025,0.17893 0.04784,0.27111 0.01684,0.0974 0.02774,0.19549 0.06069,0.2909 0.02682,0.0857 0.01553,0.17619 0.06069,0.25953 0.03524,0.0607 0.0203,0.13662 0.06454,0.19658 0.02806,0.0671 0.06245,0.13107 0.07362,0.20134 0.0396,0.089 0.11057,0.1663 0.14266,0.25621 0.0542,0.11535 0.0952,0.23355 0.13129,0.35226 0.0533,0.11579 -0.0847,0.3265 0.25799,0.32952 0.29459,-0.1993 0.21029,-0.10191 0.22827,-0.31729 0.0159,-0.11659 0.0243,-0.2332 0.0469,-0.34916 -0.008,-0.11944 -0.0266,-0.23817 -0.0338,-0.35751 -0.0234,-0.0923 -0.0398,-0.18506 -0.0651,-0.27703 -0.0272,-0.16436 -0.0771,-0.32514 -0.11494,-0.48831 -0.0288,-0.11264 -0.0303,-0.2277 -0.0675,-0.33951 -0.0236,-0.15327 -0.0461,-0.30654 -0.10671,-0.45534 -0.0356,-0.13028 -0.0758,-0.25994 -0.10362,-0.39118 -0.0286,-0.11406 -0.0794,-0.22257 -0.11859,-0.33495 -0.0332,-0.083 -0.0338,-0.1671 -0.0557,-0.25185 -0.0285,-0.0857 -0.0623,-0.17231 -0.0297,-0.25998 0.0654,-0.14131 -0.0527,0.0624 -0.170232,-0.0111 -0.02591,-0.0162 -0.08353,-0.0408 -0.06089,-0.0593 0.0059,-0.005 0.0039,0.0126 0.0065,0.0188 0.01782,0.0919 0.03335,0.18423 0.05573,0.27575 0.03772,0.12587 0.06623,0.25284 0.107712,0.37816 0.0343,0.0946 0.0285,0.19506 0.032,0.29178 -0.005,0.19124 -0.0425,0.37883 -0.0889,0.56722 -0.02193,0.17929 -0.04216,0.36086 0.0263,0.53679 0.0922,0.29673 0.22122,0.58555 0.35633,0.87393 0.4504,0.0545 0.46113,0.15401 0.4799,-0.0396 6.5e-4,-0.009 -0.003,0.0346 -5.2e-4,0.026 0.008,-0.0325 0.004,-0.0584 0.003,-0.0912 -0.0343,-0.19535 -0.0645,-0.39104 -0.0974,-0.58649 -0.0373,-0.20467 -0.0598,-0.41069 -0.10217,-0.615 -0.0374,-0.17971 -0.0892,-0.35674 -0.17056,-0.52943 -0.0455,-0.16051 -0.10081,-0.31897 -0.19103,-0.47058 -0.0774,-0.17613 -0.24212,-0.40692 -0.34211,-0.59593 0,0 -0.288918,0.083 -0.288918,0.083 z" />
      <path
         style="fill:#000000;fill-opacity:1;stroke:none;stroke-width:0.477439;stroke-opacity:1"
         id="path4904"
         d="m 98.265753,153.1126 c -0.127958,-0.11297 -0.318364,-0.27398 -0.43898,-0.40145 -0.01658,-0.0175 -0.03139,-0.0771 -0.03929,-0.0568 -0.01879,0.0482 0.01795,0.10111 0.0033,0.15002 -0.0065,0.021 -0.07453,0.0669 -0.06311,0.0469 0.03485,-0.0609 0.09001,-0.11514 0.135019,-0.1727 -0.01155,-0.094 -0.06363,-0.18031 -0.133322,-0.26004 -0.0094,-0.0107 -0.02454,-0.0431 -0.03035,-0.0312 -0.0059,0.0125 0.01932,0.0227 0.02898,0.034 0.0039,0.0217 6.53e-4,0.0446 0.01188,0.065 0.0067,0.0125 0.0039,-0.0267 0.0013,-0.04 -0.01,-0.0534 -0.03753,-0.0894 -0.08207,-0.13094 0.03916,0.0402 -0.02219,-0.0548 -0.02924,-0.0655 -0.01246,0.0664 -0.04177,0.13231 -0.0374,0.19922 6.52e-4,0.0118 0.03361,-9.6e-4 0.05045,-0.002 0.03903,-0.002 0.07793,-0.006 0.11704,-0.006 0.14856,1.2e-4 0.293356,0.0199 0.438987,0.0377 0.30105,0.0491 0.602518,0.0197 0.899079,-0.0274 0.213626,-0.0474 0.411851,-0.12608 0.60184,-0.20852 0.2136,-0.0948 0.292939,-0.17859 0.196398,-0.37153 -0.01442,-0.0289 -0.05352,-0.0484 -0.08023,-0.0726 -0.14719,-0.11062 -0.348528,-0.15736 -0.548822,-0.20029 -0.299425,-0.0656 -0.539926,-0.0581 -0.821,0.0375 -0.185356,0.0472 -0.304196,0.14965 -0.436801,0.24545 -0.09721,0.0669 -0.21717,0.1129 -0.331345,0.16358 -0.09933,0.0405 -0.196104,0.0794 -0.285244,0.13039 -0.09432,0.0748 -0.121615,0.12022 -0.181799,0.19769 -0.04418,0.0604 -0.06102,0.12719 -0.09172,0.19094 -0.002,0.004 0.0026,-0.009 0.0059,-0.0135 0.01605,-0.0185 0.03498,-0.0357 0.0524,-0.0536 0.0357,-0.0149 0.135431,-0.0233 0.107101,-0.0446 -0.02859,-0.0214 -0.07658,0.0248 -0.110096,0.0424 -0.09009,0.0472 -0.140181,0.15212 -0.10064,0.22484 0.02597,0.067 0.120075,0.1922 0.246199,0.17594 0.05678,-0.007 0.105952,-0.032 0.158931,-0.048 0.02382,-0.007 0.04764,-0.0143 0.07147,-0.0214 0,0 0.03257,-0.0465 0.03257,-0.0465 v 0 c -0.002,-0.0159 -0.0033,-0.0318 -0.0052,-0.0477 0.01808,-0.042 0.05071,-0.083 0.05019,-0.12694 -6.5e-5,-0.006 -0.01025,-0.0106 -0.0089,-0.0163 0.0033,-0.0129 0.05789,0.13043 0.03244,0.0613 -0.0026,-0.0724 -0.002,0.0414 -0.05143,0.1306 -0.02173,0.0392 -0.19675,0.0966 -0.147086,0.0729 0.03961,-0.0189 0.084,-0.0323 0.125993,-0.0485 0.09297,-0.0824 0.128552,-0.13182 0.154317,-0.23373 0.01684,-0.022 0.154924,-0.17748 0.0588,-0.0877 -0.0059,0.002 -0.02395,0.009 -0.01814,0.007 0.07106,-0.0316 0.15048,-0.0544 0.219043,-0.0891 0.155074,-0.0658 0.311838,-0.13214 0.44118,-0.22241 0.117033,-0.0803 0.127514,-0.10774 0.273836,-0.14334 0.0033,-0.001 0.09012,-0.0329 0.107525,-0.0341 0.09005,-0.006 0.183208,0.0124 0.268361,0.0289 0.09254,0.0185 0.198878,0.0332 0.274633,0.0773 -0.0417,-0.0561 -0.05958,-0.0699 -0.03413,-0.16141 0.0246,-0.0886 0.119109,-0.0985 0.04549,-0.0566 -0.134216,0.0661 -0.276035,0.12504 -0.418207,0.18184 -0.218861,0.051 -0.449462,0.0733 -0.678894,0.0479 -0.254709,-0.0207 -0.513836,-0.0518 -0.767944,-0.008 -0.0575,0.01 -0.131325,0.009 -0.167056,0.0422 -0.07545,0.0698 -0.09432,0.1622 -0.141486,0.2433 -0.0013,-0.002 -0.0033,-0.003 -0.0033,-0.005 -0.0013,-0.007 0.008,0.012 0.01201,0.018 0.02676,0.0406 0.05182,0.0816 0.08858,0.1185 -0.03831,-0.044 -0.03178,-0.18368 -0.01866,-0.002 0.01044,0.0151 0.0948,0.13327 0.11287,0.14108 0.0059,0.002 0.0078,-0.008 0.01168,-0.0113 0.04236,-0.0312 0.1084,-0.0527 0.12713,-0.0937 0.01481,-0.0324 -0.09567,0.0325 -0.113627,0.0641 -0.03126,0.0552 -0.03478,0.11854 -0.0233,0.17737 0.007,0.0359 0.04712,0.0647 0.07642,0.0945 0.129681,0.13217 0.328382,0.29309 0.467669,0.41102 0,0 0.331913,-0.19662 0.331913,-0.19662 z" />
      <path
         style="fill:#000000;fill-opacity:1;stroke:none;stroke-width:0.477439;stroke-opacity:1"
         id="path4916"
         d="m 100.40138,162.42896 c -0.0831,0.34617 -0.20822,0.68993 -0.18793,1.04282 -0.008,0.3106 -0.0564,0.61999 -0.0493,0.93082 0.008,0.23608 -0.0204,0.47144 -0.0184,0.70747 0.0114,0.2192 -0.007,0.43814 -0.0368,0.65623 -0.0431,0.23585 -0.0282,0.47393 -0.0426,0.71087 -0.009,0.21052 -0.0507,0.41947 -0.07956,0.62893 -0.04164,0.20448 -0.07248,0.40993 -0.09145,0.61602 -0.01214,0.19589 -0.0082,0.39175 -0.0084,0.58768 -0.0069,0.18265 -9.8e-5,0.36526 -0.0065,0.54787 -0.0026,0.22262 -0.02695,0.44487 -0.05678,0.66642 -0.02088,0.17234 -0.05789,0.34334 -0.08464,0.51522 -0.01403,0.19232 -0.03929,0.38168 -0.09195,0.57053 -0.03766,0.21299 -0.06356,0.42611 -0.115565,0.63783 -0.03309,0.16761 -0.04777,0.33553 -0.07925,0.50339 -0.01135,0.17772 -0.07504,0.34967 -0.102923,0.52602 -0.01808,0.18561 -0.03609,0.37136 -0.0677,0.55609 -0.04327,0.1417 -0.06526,0.28516 -0.08324,0.42924 -0.03792,0.16391 -0.05671,0.3291 -0.04993,0.49504 -0.0052,0.20294 -0.03602,0.40452 -0.0046,0.60691 0.01175,0.17242 0.01136,0.34354 0.04608,0.5149 0.04536,0.13203 0.06493,0.26678 0.09953,0.40013 0.03191,0.14507 0.09147,0.28589 0.141721,0.42812 0.05443,0.12335 0.128754,0.24154 0.189774,0.36327 0.07575,0.10824 0.118834,0.22425 0.179233,0.33669 0.08115,0.14352 0.127991,0.2944 0.197958,0.44058 0.0126,0.0261 0.025,0.0522 0.03785,0.0781 10e-6,2e-5 0.0948,0.16851 0.0722,0.12831 -0.0136,-0.0482 0.007,0.026 0.0852,0.10087 0.16167,0.15357 0.51472,-0.0527 0.67237,-0.0983 0.003,-9.2e-4 0.0255,-0.0653 0.0322,-0.084 0.0307,-0.0879 0.0372,-0.18237 0.002,-0.27024 0.007,-0.0152 -0.005,0.0637 -0.004,0.0478 0.005,-0.0809 -10e-4,-0.15201 -0.0121,-0.23285 -0.0112,-0.20647 -0.0838,-0.40839 -0.10094,-0.61412 -0.0192,-0.19539 -0.0278,-0.39122 -0.0444,-0.5867 -0.0258,-0.24117 -0.15915,-0.46874 -0.19528,-0.70854 -0.0477,-0.18348 -0.0881,-0.36552 -0.099,-0.55203 -0.001,-0.19775 -0.004,-0.39549 -0.004,-0.59326 0.007,-0.0896 -6.5e-4,-0.17939 0.002,-0.26892 0.006,-0.0834 0.021,-0.16651 0.0328,-0.24962 0.0161,-0.12463 0.0411,-0.2485 0.0555,-0.37324 0.0223,-0.11874 0.0525,-0.23535 0.0405,-0.35542 -0.0257,-0.0804 0.005,-0.14026 0.0398,-0.21509 0.0447,-0.0959 0.0143,-0.19505 0.0341,-0.29257 0.0135,-0.0581 0.0275,-0.11409 0.0142,-0.17299 -0.004,0.18748 0.0209,-0.13065 0.0222,-0.14826 0.0375,-0.19887 0.0749,-0.39781 0.0799,-0.59862 0.0356,-0.10721 0.0581,-0.21634 0.091,-0.32408 0.0362,-0.12269 0.0624,-0.24667 0.0967,-0.36972 0.0358,-0.17074 0.0503,-0.34306 0.0709,-0.51492 0.0228,-0.16749 0.005,-0.33499 0.0437,-0.5013 0.0498,-0.20207 0.0516,-0.40561 0.0463,-0.60977 -0.0219,-0.34692 -0.014,-0.69394 -0.0169,-1.04105 -0.007,-0.22118 0.0253,-0.44333 0.003,-0.6644 -0.0503,-0.50683 -0.0194,0.0632 -0.0354,-0.28224 0,0 -0.0739,-0.002 -0.0739,-0.002 v 0 c -0.0363,0.24929 0.0162,-0.0706 -0.0702,0.27728 -0.0548,0.22064 -0.0635,0.44587 -0.0775,0.669 -0.0149,0.34688 -0.0421,0.6925 -0.0863,1.03806 -0.0157,0.18792 -0.0324,0.37588 -0.1037,0.55861 -0.054,0.17398 -0.065,0.3495 -0.0849,0.52661 -0.0252,0.16021 -0.0437,0.32083 -0.0789,0.48019 -0.0366,0.12253 -0.0617,0.24642 -0.10029,0.36859 -0.0359,0.12844 -0.0702,0.25743 -0.0994,0.38642 -0.002,0.19602 -0.0552,0.38916 -0.0855,0.58348 -0.004,0.0424 -0.01,0.0848 -0.0126,0.1273 -1.7e-4,0.003 -1.7e-4,0.0107 0.002,0.008 0.005,-0.005 0.01,-0.0241 0.008,-0.018 -0.023,0.0703 -0.0134,0.007 -0.0172,0.10339 0.003,-0.097 -0.0113,0.0634 -0.0239,0.0761 -0.0129,0.0757 -0.008,0.1502 -0.0161,0.22563 -0.0564,0.11434 -0.10486,0.22754 -0.081,0.35028 0.009,0.0973 -0.0514,0.1903 -0.06843,0.28592 -0.02721,0.12344 -0.05143,0.24722 -0.08327,0.37015 -0.01945,0.0948 -0.04679,0.18909 -0.05834,0.28455 -0.0052,0.0934 -0.0066,0.18668 -0.0072,0.28013 -0.0026,0.20359 -5.3e-5,0.4071 0.0059,0.61065 0.0094,0.19538 0.04301,0.3876 0.09153,0.57992 0.03355,0.23325 0.139112,0.45661 0.181582,0.68897 0.0141,0.1965 0.0245,0.39313 0.0395,0.58959 0.0186,0.20553 0.0752,0.40856 0.0806,0.61504 0.005,0.12657 0.001,0.0931 -0.011,0.21294 -0.007,0.0375 -0.002,0.0213 -0.0204,0.0482 -0.12208,0.186 -0.0687,0.026 0.53679,-0.0345 0.0423,-0.004 0.0852,0.0821 0.12015,0.12278 0.005,0.006 -0.005,-0.0142 -0.008,-0.0213 -0.0361,-0.0779 -0.0493,-0.084 -0.10429,-0.20853 -0.0775,-0.14971 -0.11432,-0.30891 -0.20572,-0.45563 -0.0587,-0.10809 -0.0985,-0.22078 -0.16464,-0.3269 -0.0527,-0.10464 -0.11245,-0.20722 -0.16875,-0.31093 -0.0467,-0.132 -0.10311,-0.26251 -0.13211,-0.39724 -0.0356,-0.1259 -0.0589,-0.25326 -0.103202,-0.37791 -0.03863,-0.1663 -0.02467,-0.33437 -0.04862,-0.50168 -0.04307,-0.18283 0.01729,-0.37016 0.0039,-0.55412 -0.0069,-0.14445 0.0139,-0.28744 0.04353,-0.43043 0.01729,-0.13991 0.03257,-0.27957 0.07013,-0.4179 0.0271,-0.18781 0.0446,-0.37618 0.0574,-0.56473 0.0179,-0.17139 0.0807,-0.33827 0.0864,-0.51063 0.0282,-0.16222 0.0378,-0.32407 0.0666,-0.48586 0.0463,-0.20944 0.0785,-0.41931 0.10468,-0.63037 0.0482,-0.20353 0.079,-0.40717 0.0901,-0.61346 0.02,-0.17395 0.0446,-0.34762 0.065,-0.52154 0.0255,-0.23279 0.0392,-0.46629 0.0388,-0.69977 0.003,-0.18996 -0.007,-0.37988 -0.007,-0.56986 -0.0147,-0.18334 -0.0278,-0.36648 -0.0177,-0.55037 0.011,-0.2006 0.038,-0.40047 0.077,-0.59939 0.027,-0.21929 0.0633,-0.43839 0.0641,-0.65878 0.003,-0.23007 -0.0153,-0.46093 0.0168,-0.69032 0.018,-0.23159 0.0311,-0.46343 0.005,-0.69512 -0.013,-0.23687 0.01,-0.47401 -0.0149,-0.71064 -0.0217,-0.31534 0.0225,-0.63117 -0.008,-0.9463 -0.0136,-0.0727 -0.0383,-0.15074 -0.0343,-0.22455 0.0136,-0.24962 0.0912,-0.49614 0.13091,-0.74362 0,0 -0.36976,-0.0479 -0.36976,-0.0479 z" />
      <path
         style="fill:#000000;fill-opacity:1;stroke:none;stroke-width:0.477439;stroke-opacity:1"
         id="path4918"
         d="m 100.66787,163.15839 c -0.0272,0.41695 -0.1193,0.82836 -0.20732,1.24028 -0.0902,0.33207 -0.12241,0.66735 -0.15467,1.00368 -0.0373,0.34279 -0.11596,0.6819 -0.14667,1.02505 -0.008,0.34849 -0.10957,0.69432 -0.0921,1.0434 0.004,0.076 0.0183,0.15151 0.0274,0.22726 0.0755,0.20988 0.0413,0.12049 0.0997,0.26871 0,0 0.0737,0.004 0.0737,0.004 v 0 c 0.0914,-0.14765 0.0425,-0.0587 0.13248,-0.27051 0.0668,-0.41772 0.12124,-0.83686 0.1558,-1.25648 0.0277,-0.3429 0.10961,-0.68134 0.14021,-1.02412 0.0289,-0.3308 0.0403,-0.6619 0.12077,-0.98965 0.0618,-0.41971 0.10441,-0.84021 0.10401,-1.26266 0,0 -0.25331,-0.009 -0.25331,-0.009 z" />
      <path
         style="fill:#000000;fill-opacity:1;stroke:none;stroke-width:0.477439;stroke-opacity:1"
         id="path4920"
         d="m 99.95486,161.85739 c 0.0374,0.43232 -0.04594,0.86242 -0.05776,1.29353 -0.0026,0.50846 -0.0052,1.01682 0.0089,1.52518 0.03524,0.51255 0.0046,1.02529 -0.03681,1.5371 -0.06751,0.49974 -0.09602,1.00083 -0.113777,1.50244 -0.03596,0.3566 -0.07597,0.71341 -0.147973,1.06744 -0.08179,0.32654 -0.169236,0.65191 -0.233982,0.98035 -0.05593,0.30353 -0.136944,0.6046 -0.224949,0.90429 -0.07569,0.25093 -0.189565,0.49486 -0.268048,0.74529 -0.02167,0.19984 -0.01834,0.10419 -0.01344,0.28689 0,0 0.07155,0.013 0.07155,0.013 v 0 c 0.127965,-0.1492 0.06076,-0.0713 0.201834,-0.23368 0.179873,-0.23689 0.33872,-0.48021 0.451968,-0.73729 0.118514,-0.30619 0.218468,-0.61565 0.279853,-0.93029 0.06467,-0.32799 0.153404,-0.65284 0.233734,-0.97907 0.0742,-0.36799 0.11266,-0.73944 0.14267,-1.1103 0.01,-0.49859 0.0166,-0.99703 0.0675,-1.49466 0.0264,-0.5205 0.0494,-1.04247 -0.009,-1.56237 -0.0416,-0.50463 -0.0473,-1.00965 -0.0646,-1.5149 -0.0155,-0.43319 0.0123,-0.8671 -0.0304,-1.29998 0,0 -0.257288,0.007 -0.257288,0.007 z" />
      <path
         style="fill:#000000;fill-opacity:1;stroke:none;stroke-width:0.477439;stroke-opacity:1"
         id="path4922"
         d="m 100.9665,162.54779 c 0.008,0.442 -0.0705,0.87907 -0.16741,1.31442 -0.0845,0.37515 -0.10447,0.75468 -0.1288,1.1334 -0.0354,0.38826 -0.0402,0.77711 -0.0256,1.16592 0.0159,0.39961 0.0379,0.79872 0.0751,1.19764 0.03,0.37585 -0.052,0.74966 -0.0853,1.12416 -0.0149,0.31601 -0.0209,0.16387 0.0126,0.45651 0,0 0.0724,0.0106 0.0724,0.0106 v 0 c 0.20062,-0.26605 0.11232,-0.12288 0.25679,-0.43195 0.12753,-0.38625 0.20951,-0.78202 0.16956,-1.17952 -0.0395,-0.39516 -0.0615,-0.79069 -0.0884,-1.18633 -0.0192,-0.38178 -0.0222,-0.76373 0.005,-1.14539 0.0211,-0.37106 0.0354,-0.74239 0.0992,-1.1115 0.0696,-0.44881 0.11705,-0.89923 0.0877,-1.35122 0,0 -0.28294,0.003 -0.28294,0.003 z" />
      <path
         style="fill:#000000;fill-opacity:1;stroke:none;stroke-width:0.477439;stroke-opacity:1"
         id="path4924"
         d="m 99.581507,170.9611 c -0.117158,0.28617 -0.25217,0.57219 -0.311891,0.86819 -0.02258,0.11179 -0.0065,0.22405 -0.0065,0.33627 -0.02558,0.36342 -0.01951,0.7259 0.01494,1.08878 0.05971,0.38184 0.108379,0.7658 0.217274,1.14285 0.03041,0.1052 0.06783,0.20935 0.101749,0.31403 0.128154,0.27811 0.216812,0.62127 0.564431,0.81667 0.0815,0.0458 0.1701,0.0658 0.26354,0.0906 0,0 0.0616,-0.0286 0.0616,-0.0286 v 0 c 0.005,-0.0733 0.0132,-0.12714 -0.0121,-0.20472 -0.0247,-0.076 -0.1191,-0.20067 -0.15997,-0.27009 -0.12446,-0.21139 -0.12952,-0.24496 -0.23498,-0.4838 -0.162064,-0.46076 -0.28424,-0.92662 -0.345109,-1.39974 -0.0389,-0.35839 -0.05201,-0.71624 -0.04588,-1.07569 -0.0078,-0.0929 -0.03681,-0.18846 -0.02415,-0.2816 0.03876,-0.28538 0.160575,-0.56106 0.256092,-0.83843 0,0 -0.339255,-0.0747 -0.339255,-0.0747 z" />
      <path
         style="fill:#000000;fill-opacity:1;stroke:none;stroke-width:0.477439;stroke-opacity:1"
         id="path4926"
         d="m 99.000224,171.14892 c -0.208386,0.27058 -0.461574,0.54261 -0.535509,0.85239 -0.03126,0.13085 0.0079,0.26048 0.0419,0.38828 0.06383,0.28467 0.110527,0.57053 0.20312,0.85153 0.118012,0.31254 0.369966,0.58529 0.586262,0.86698 0.129524,0.15696 0.256914,0.31514 0.402173,0.46537 0.01958,0.0203 0.03452,0.044 0.06193,0.0592 0.01488,0.008 0.125719,-0.004 0.141101,-0.005 0.01821,4.5e-4 0.03642,0.001 0.05456,0.002 0,0 0.07386,0.002 0.07386,0.002 v 0 c 0.0189,-0.01 0.0377,-0.0199 0.0566,-0.0299 0.0245,-0.0241 0.057,-0.0451 0.0734,-0.0724 0.0499,-0.0834 -0.0903,-0.19682 -0.14165,-0.2567 -0.168232,-0.19632 -0.115879,-0.13559 -0.295589,-0.33676 -0.217184,-0.24854 -0.466286,-0.48714 -0.593448,-0.76833 -0.105945,-0.27414 -0.151021,-0.5553 -0.227455,-0.83378 -0.02519,-0.0812 -0.0787,-0.18393 -0.06435,-0.26824 0.04855,-0.28496 0.295027,-0.53553 0.470019,-0.78584 0,0 -0.30697,-0.13102 -0.30697,-0.13102 z" />
      <path
         style="fill:#000000;fill-opacity:1;stroke:none;stroke-width:0.477439;stroke-opacity:1"
         id="path4928"
         d="m 100.29494,170.99091 c 0.10065,0.17449 0.3127,0.33195 0.35497,0.52412 0.003,0.016 -0.0222,-0.0299 -0.0215,-0.0461 10e-4,-0.0213 0.049,-0.0468 0.0264,-0.061 -0.0206,-0.013 -0.0313,0.032 -0.047,0.0481 -0.006,0.0576 -0.0192,0.11501 -0.0168,0.17268 0.001,0.0327 0.0213,0.0638 0.0277,0.0962 0.007,0.0322 0.008,0.0648 0.0101,0.0972 0.007,0.0997 -0.009,0.19369 -0.0273,0.2923 -0.0425,0.20475 -0.0575,0.41149 -0.0963,0.61667 -0.0366,0.22303 -0.0995,0.443 -0.13913,0.66574 -0.009,0.0393 -0.0151,0.079 -0.027,0.11792 -0.0179,0.0591 -0.0549,0.12977 -0.0771,0.18841 -0.0382,0.10118 -0.0596,0.20289 -0.0776,0.30658 -0.0357,0.21901 -0.10148,0.43573 -0.16695,0.65126 -0.05626,0.18164 -0.10589,0.36353 -0.137777,0.54803 -0.01364,0.11588 -0.0327,0.23181 -0.037,0.34798 0.01716,0.0769 0.03113,0.18031 0.122717,0.23533 0.03831,0.023 0.08246,0.0408 0.12369,0.0611 0.0716,0.0144 0.15783,0.0286 0.2325,0.0124 0.0141,-0.003 -0.0294,0.004 -0.0441,0.003 -0.0192,-9.1e-4 -0.0756,-0.0102 -0.0565,-0.009 0.0298,0.003 0.0591,0.008 0.0886,0.0113 -0.0529,-0.002 -0.10485,-0.0149 -0.13943,-0.0445 -0.0161,-0.0138 -0.0198,-0.0359 -0.042,-0.0447 -0.0258,-0.0103 0.0138,0.0405 0.0189,0.061 0.0261,0.21355 0.11358,0.2171 0.52084,0.16052 0.0465,-0.006 0.0636,-0.0492 0.0954,-0.0738 0.19797,-0.18563 0.28269,-0.414 0.38247,-0.63149 0.0763,-0.19318 0.20559,-0.37123 0.29852,-0.56037 0.0695,-0.16883 0.14868,-0.33581 0.21382,-0.50549 0.0777,-0.16889 0.10823,-0.34288 0.12086,-0.5191 0.0431,-0.14476 0.0487,-0.29037 0.0446,-0.43771 -0.007,-0.23315 -0.0169,-0.46663 -0.0567,-0.69829 -0.0384,-0.16294 -0.0673,-0.32687 -0.1061,-0.48977 -0.0571,-0.17432 -0.12404,-0.34698 -0.21273,-0.51474 -0.0767,-0.12069 -0.15837,-0.23871 -0.25686,-0.3514 -0.0722,-0.0929 -0.14697,-0.18472 -0.21065,-0.28066 -0.0623,-0.0915 -0.10047,-0.18413 -0.114,-0.28427 -0.0168,-0.0635 -0.0159,-0.1289 -0.0199,-0.19249 -0.0512,0.15336 0.0572,-0.13127 -0.49842,0.065 -0.055,0.0194 0.0151,0.0856 0.0211,0.12847 0.0273,0.19552 0.0415,0.39177 0.0641,0.58757 0.0617,0.37867 0.11382,0.75812 0.17256,1.13707 0.0396,0.25054 0.0819,0.49967 0.0953,0.75167 0.0226,0.28943 0.0137,0.57901 -0.0144,0.86801 6.6e-4,0.16057 -0.0573,0.31693 -0.0773,0.47586 -0.008,0.0654 -0.0104,0.13116 -0.0172,0.19667 -0.0112,0.0448 -0.016,0.0903 -0.0252,0.13538 -0.002,0.009 -0.0132,0.0334 -0.007,0.0257 0.0153,-0.0204 0.003,-0.0653 0.0363,-0.0644 0.17206,0.005 0.3334,0.0968 0.50389,0.0798 0.0647,-0.006 0.028,-0.0895 0.042,-0.13426 0.0893,-0.37541 0.0921,-0.75687 0.1123,-1.13618 0.003,-0.0456 0.005,-0.0913 0.008,-0.13692 0.005,-0.0698 0.008,-0.124 0.0239,-0.19153 0.002,-0.009 0.0229,-0.0244 0.0104,-0.0253 -0.52299,-0.0372 -0.45388,-0.11155 -0.5151,0.0855 -0.15897,0.47415 -0.23067,0.95937 -0.33084,1.44056 -0.0136,0.0521 -0.0678,0.26131 -0.085,0.32024 -0.008,0.0282 -0.0185,0.056 -0.0277,0.084 -0.005,0.014 -0.0343,0.044 -0.0139,0.0421 0.56844,-0.0511 0.46942,-0.002 0.46217,-0.29926 -0.0163,-0.70818 -0.0749,-1.41728 -0.19929,-2.12036 -0.068,-0.1794 -0.0604,-0.37415 -0.16014,-0.54748 -0.0816,-0.0893 -0.0624,-0.2027 -0.0692,-0.30468 -0.019,-0.16483 -0.0138,-0.33071 0.0191,-0.49444 0.01,-0.0689 -0.0374,-0.13018 -0.0525,-0.19716 -0.007,-0.0388 -0.0305,-0.0745 -0.0465,-0.1116 -0.0543,-0.12601 0.21749,0.005 -0.393852,-0.10046 -0.142277,0.11571 -0.261568,0.24414 -0.361366,0.37981 -0.124982,0.14345 -0.217026,0.29749 -0.28899,0.45738 -0.108653,0.24313 -0.09759,0.49308 -0.03746,0.74078 0.05234,0.193 0.146943,0.37861 0.215513,0.5687 0.08145,0.15905 0.06528,0.14147 0.560862,-0.0398 0.03877,-0.0142 -0.0085,-0.061 -0.01286,-0.0914 -0.0073,-0.0511 -0.01468,-0.10222 -0.02199,-0.15333 -0.04529,-0.25791 -0.09563,-0.51792 -0.07125,-0.77853 0.01782,-0.19031 0.04829,-0.27225 0.09876,-0.46051 0.06382,-0.22937 0.210003,-0.44058 0.313653,-0.6611 0.0295,-0.0741 0.043,-0.13381 0.0497,-0.20471 -0.0167,-0.0357 -0.0232,-0.0745 -0.05,-0.10701 -0.0787,-0.0956 -0.25854,-0.11579 -0.393598,-0.074 -0.104438,0.0323 -0.150552,0.0823 -0.219898,0.13968 -0.138876,0.13393 -0.253828,0.27827 -0.362481,0.42492 -0.06363,0.0829 -0.127645,0.16551 -0.187627,0.24973 -0.06963,0.0968 -0.13607,0.19247 -0.178992,0.29693 -0.07877,0.13265 -0.112524,0.26797 -0.112465,0.4109 -0.01494,0.13749 -0.03322,0.27445 -0.02911,0.41246 0.02284,0.16498 0.02558,0.33053 0.0601,0.4947 0.04033,0.13085 0.102324,0.25786 0.159453,0.38558 0.07739,0.1593 0.169928,0.31512 0.244378,0.47508 0.08132,0.14579 0.115689,0.30058 0.154108,0.45385 0.03511,0.16768 0.135548,0.32229 0.206317,0.4827 0.0451,0.16988 0.10541,0.33746 0.158625,0.5061 0.0496,0.15726 0.136898,0.30612 0.18324,0.46393 0.03061,0.15648 0.08475,0.31011 0.1216,0.46573 0.0363,0.0697 0.0325,0.0866 0.0499,0.14973 0.034,0.0799 0.0548,0.16142 0.0759,0.2434 0.012,0.10715 0.0388,0.21325 0.0676,0.31879 -0.006,0.0458 0.008,0.0904 0.0236,0.13499 -0.0102,-0.009 0.0937,0.1568 0.12258,0.11379 0.0164,-0.0245 -0.0808,-0.0324 -0.0789,-0.0595 0.005,-0.075 0.0387,-0.27706 0.0977,-0.21444 -0.006,0.10002 -0.0113,0.20004 -0.017,0.30006 -1.7e-4,9.2e-4 -5.2e-4,0.002 -6.5e-4,0.002 -0.0758,0.0664 -0.0289,-0.0607 -0.0602,-0.0541 -0.006,0.001 -0.0437,0.13044 -0.0491,0.15063 -0.0184,0.0431 -0.0208,0.16159 -0.008,0.0253 0.005,-0.006 0.0157,-0.024 0.0149,-0.0173 -0.006,0.0514 -0.0256,0.10172 -0.0313,0.15313 -10e-4,0.009 0.007,0.0168 0.0118,0.025 0.003,0.006 0.003,0.0205 0.0121,0.0191 0.48974,-0.0741 0.41545,0.01 0.50209,-0.16729 0.0924,-0.19189 0.10693,-0.3965 0.13888,-0.5964 0.0421,-0.15286 0.11211,-0.30192 0.18015,-0.45006 0.0868,-0.1841 0.15068,-0.37279 0.20351,-0.56295 0.062,-0.18446 0.10945,-0.37144 0.14895,-0.55889 0.0474,-0.2355 0.12136,-0.46777 0.17736,-0.7023 0.0557,-0.24338 0.11207,-0.48609 0.0853,-0.73268 -0.027,-0.16939 -0.0677,-0.33566 -0.14832,-0.49672 -0.0736,-0.14524 -0.1017,-0.29896 -0.15573,-0.44813 -0.0602,-0.15946 -0.11159,-0.3193 -0.14094,-0.48301 -0.007,-0.13556 -0.1069,-0.25459 -0.15704,-0.3827 -0.0389,-0.11328 -0.0871,-0.22499 -0.14438,-0.33436 -0.004,-0.007 -0.002,-0.0224 -0.0122,-0.0209 -0.15167,0.0217 -0.31052,0.0363 -0.44761,0.0866 -0.0362,0.0133 -0.0138,0.0565 -0.0194,0.0849 -0.0295,0.14883 -0.0366,0.29422 -0.0387,0.44437 0.0232,0.51955 0.0118,1.03874 -0.0281,1.55767 -0.0345,0.28085 -0.0424,0.56192 -0.0192,0.84321 0.0341,0.16804 0.0851,0.33231 0.10242,0.50176 0.0286,0.15663 0.033,0.32616 0.13986,0.46786 0.0399,0.0241 0.0799,0.0481 0.11988,0.0721 0,0 0.0726,0.01 0.0726,0.01 v 0 c 0.054,-0.0272 0.10791,-0.0543 0.16186,-0.0814 0.0157,-0.0376 0.0403,-0.074 0.047,-0.11286 0.005,-0.0301 -0.007,-0.0604 -0.0118,-0.0905 -0.0172,-0.0972 -0.0517,-0.1931 -0.058,-0.2912 -0.0207,-0.16696 -0.0653,-0.32974 -0.10681,-0.49454 -0.0227,-0.26915 -0.0149,-0.53784 0.0168,-0.80665 0.0402,-0.52449 0.0519,-1.04911 0.0262,-1.5742 -6.5e-4,-0.13344 0.003,-0.26235 0.0279,-0.39473 0.006,-0.0299 0.061,-0.0795 0.0203,-0.0892 -0.13509,-0.0322 -0.28526,-0.005 -0.42789,-0.008 0.001,0.001 0.002,0.003 0.003,0.004 0.0513,0.1034 0.0959,0.20852 0.13276,0.31489 0.0466,0.11123 0.12895,0.21633 0.14137,0.33288 0.0298,0.17741 0.0838,0.35103 0.1454,0.52424 0.0563,0.15781 0.0836,0.31991 0.1501,0.47593 0.061,0.13573 0.0878,0.27384 0.10423,0.41558 0.0238,0.21794 -0.0445,0.43237 -0.0839,0.64789 -0.0542,0.23667 -0.13231,0.47041 -0.17484,0.70842 -0.0388,0.18474 -0.0824,0.36907 -0.13076,0.55267 -0.0368,0.17777 -0.089,0.35417 -0.16848,0.52517 -0.0695,0.16799 -0.14041,0.33691 -0.18602,0.50883 -0.0304,0.17671 -0.0463,0.35733 -0.12689,0.52727 -0.0162,0.033 -0.0926,0.0828 -0.0485,0.0991 0.50405,0.18656 0.44007,-0.11582 0.37897,0.17059 -0.002,0.008 0.013,-0.0145 0.0194,-0.0216 0.0339,-0.0463 0.0268,-0.0687 0.0442,-0.12497 0.004,-0.0132 -0.001,0.027 -0.002,0.0405 -4e-5,9.2e-4 -1.7e-4,-0.001 -3.4e-4,-0.002 0.004,-0.0108 0.007,-0.0217 0.0111,-0.0325 0.0367,-0.13732 0.11256,-0.26234 -0.0205,-0.39084 -0.0187,-0.0121 -0.0467,-0.0529 -0.0559,-0.0363 -0.0475,0.0857 -0.17431,0.21153 -0.0742,0.27099 0.0909,0.054 0.13045,-0.14594 0.14531,-0.22875 0.006,-0.033 -0.0626,-0.05 -0.0905,-0.0769 -0.0287,-0.0277 0.13811,0.10187 0.0784,0.0868 -0.0101,-0.03 -0.0178,-0.0593 -0.0197,-0.12227 -0.0291,-0.10511 -0.0533,-0.21069 -0.0672,-0.31725 -0.0231,-0.083 -0.0414,-0.16665 -0.077,-0.24757 -0.011,-0.0352 -0.0127,-0.0712 -0.0267,-0.1062 -0.0183,-0.0457 -0.0333,-0.0538 -0.0116,-0.0141 0.003,0.005 -0.003,-0.0103 -0.005,-0.0155 -0.034,-0.16129 -0.0817,-0.32102 -0.11299,-0.48265 -0.0459,-0.15933 -0.12288,-0.31108 -0.17933,-0.4683 -0.053,-0.17767 -0.11058,-0.35466 -0.15918,-0.53296 -0.06,-0.14848 -0.133932,-0.29439 -0.174596,-0.44648 -0.04288,-0.17062 -0.08164,-0.34274 -0.17246,-0.50501 -0.07501,-0.15797 -0.163369,-0.31283 -0.242022,-0.46994 -0.04901,-0.10951 -0.09408,-0.21988 -0.136239,-0.33071 -0.03217,-0.14888 -0.03015,-0.29943 -0.05325,-0.44895 -0.0052,-0.13616 0.02036,-0.27093 0.03048,-0.40673 -0.0033,-0.1071 0.03328,-0.20368 0.08975,-0.30361 0.03635,-0.0841 0.08587,-0.16224 0.139013,-0.24194 0.05736,-0.0842 0.108275,-0.17035 0.165464,-0.25459 0.08712,-0.12897 0.174659,-0.25744 0.28758,-0.37669 0.009,-0.0103 0.0225,-0.0191 0.0277,-0.0307 0.005,-0.0109 -0.08628,-0.007 -0.136622,-0.0387 -0.04418,-0.0274 -0.03844,-0.0625 -0.0466,-0.10044 -0.0039,0.0122 -0.02147,0.0814 -0.03739,0.1049 -0.127867,0.23252 -0.289147,0.45746 -0.351883,0.70555 -0.06363,0.22908 -0.0892,0.2845 -0.113652,0.51689 -0.02865,0.2725 0.0078,0.54507 0.0449,0.81608 0.0046,0.0498 0.0098,0.0996 0.0139,0.14943 0.01814,0.21805 -0.05045,0.17242 0.545193,0.0783 0.0076,-10e-4 -0.01919,-0.0552 -0.03093,-0.0696 -0.06678,-0.18108 -0.1545,-0.35837 -0.210899,-0.54134 -0.05306,-0.18923 -0.07861,-0.38076 -0.01645,-0.57115 0.05449,-0.14292 0.140116,-0.27745 0.235078,-0.40931 0.06739,-0.10256 0.149195,-0.19792 0.224115,-0.29751 -0.466868,-0.1423 -0.322731,-0.14172 -0.27062,0.037 0.0065,0.0211 0.07008,0.24826 0.09201,0.14096 0.0172,0.0223 -0.0059,0.1153 -0.0068,0.12557 -0.01227,0.12531 -0.01762,0.25099 -0.0083,0.37652 0.002,0.13618 -0.0233,0.2863 0.07028,0.41145 0.0357,0.0409 0.0342,0.11302 0.0435,0.15306 0.0245,0.10513 0.0617,0.20873 0.0789,0.31477 0.11617,0.69118 0.16855,1.38835 0.15299,2.08428 -0.0115,0.31891 -0.11102,0.25503 0.47218,0.37872 0.02,0.004 0.009,-0.0285 0.0142,-0.0428 0.0106,-0.0326 0.0224,-0.0651 0.0318,-0.098 0.0158,-0.0553 0.0746,-0.29003 0.0857,-0.33392 0.0986,-0.47471 0.16846,-0.95346 0.32347,-1.42143 0.0593,-0.21243 0.11232,-0.18293 -0.43493,-0.23488 -0.0306,-0.003 -0.0154,0.0419 -0.0204,0.0633 -0.0279,0.11785 -0.0297,0.23749 -0.0401,0.35642 -0.0247,0.35723 -0.0315,0.71689 -0.12628,1.06946 -0.0738,0.21174 -0.11427,0.17684 0.40241,0.34222 0.0463,0.0148 0.0813,-0.2663 0.0864,-0.27796 0.005,-0.0582 0.006,-0.11664 0.0129,-0.17478 0.02,-0.16616 0.0794,-0.32993 0.0804,-0.49764 0.0287,-0.30217 0.0386,-0.60475 0.0126,-0.9073 -0.0144,-0.26118 -0.0642,-0.51866 -0.10584,-0.77817 -0.0612,-0.37478 -0.11159,-0.75042 -0.17349,-1.12511 -0.0219,-0.20016 -0.0372,-0.40052 -0.0659,-0.6003 -0.007,-0.0496 0.0359,-0.12173 -0.024,-0.14871 -0.49367,-0.22235 -0.48055,-0.2064 -0.53572,-0.0595 -0.0179,0.0934 -0.0101,0.18802 0.005,0.2815 0.017,0.14479 0.0689,0.28087 0.15454,0.41359 0.0731,0.10873 0.15249,0.2151 0.23762,0.31947 0.0818,0.0931 0.15088,0.19011 0.21806,0.28872 0.0839,0.14137 0.13482,0.29036 0.1868,0.43879 0.0378,0.15802 0.0668,0.31685 0.10301,0.47503 0.042,0.21744 0.0411,0.43766 0.0537,0.65661 0.002,0.13885 -0.007,0.27421 -0.0439,0.41104 -0.0129,0.1496 -0.0343,0.2974 -0.10275,0.44076 -0.064,0.16215 -0.13473,0.32311 -0.20326,0.48428 -0.0903,0.19173 -0.22732,0.36974 -0.30221,0.56536 -0.0782,0.17048 -0.14134,0.35111 -0.27921,0.50327 -0.1022,0.10084 -0.003,-0.0173 0.29439,0.101 0.0316,0.0126 0.0216,0.0488 0.0361,0.0722 0.0164,0.0263 -0.0307,-0.11228 -0.0157,-0.0855 -0.0404,-0.1444 -0.0995,-0.25034 -0.33061,-0.27445 0.24207,0.0377 -0.25728,-0.0401 -0.0337,0.01 0.0251,0.0154 0.0512,0.03 0.0753,0.0462 0.0358,0.024 0.0245,0.0607 0.003,-9.2e-4 -0.0113,-0.0259 -5.2e-4,0.002 0.008,-0.0637 0.0103,-0.0786 0.0118,-0.15786 0.0275,-0.23618 0.0299,-0.17382 0.076,-0.34468 0.13017,-0.51573 0.0666,-0.22675 0.13835,-0.45394 0.17466,-0.68419 0.0345,-0.2086 0.13423,-0.40421 0.18013,-0.61127 0.0389,-0.22181 0.10288,-0.44085 0.1361,-0.6632 0.0386,-0.20767 0.0521,-0.41664 0.0887,-0.62436 0.0244,-0.173 0.0318,-0.3374 -0.0148,-0.50925 -0.007,-0.0236 0.003,-0.0569 -0.0257,-0.0696 -0.0201,-0.009 -0.0302,0.0257 -0.0452,0.0385 -0.007,0.005 -0.0263,0.0217 -0.0223,0.015 0.0671,-0.10953 0.10934,-0.0885 0.0723,-0.21846 -0.0123,-0.043 -0.0406,-0.0831 -0.0675,-0.12271 -0.0941,-0.13824 -0.26109,-0.32827 -0.36639,-0.45333 0,0 -0.36387,0.15485 -0.36387,0.15485 z" />
      <path
         style="fill:#000000;fill-opacity:1;stroke:none;stroke-width:0.477439;stroke-opacity:1"
         id="path4932"
         d="m 97.007201,152.37292 c 0.01286,0.11919 0.04679,0.23695 0.103263,0.3498 0.01123,0.0225 0.02539,0.0442 0.03753,0.0665 0.01194,0.0218 0.02323,0.0438 0.03485,0.0657 0.06645,0.13062 0.114788,0.26569 0.188742,0.39448 0.01514,0.0264 0.03237,0.0522 0.04862,0.0782 0.03119,0.0542 0.0834,0.1 0.124734,0.15008 0.0139,0.0169 0.008,0.0136 0.01612,0.0295 0.0046,0.009 0.01005,0.0179 0.01514,0.0269 0.0066,0.006 0.01077,0.0144 0.01977,0.019 0.04079,0.0207 0.09372,-0.0103 0.127867,-0.0181 0.03635,-0.008 0.07346,-0.0149 0.110187,-0.0223 0,0 0.05254,0.0364 0.05254,0.0364 v 0 c 0.09031,-0.0214 0.145996,-0.0251 0.212353,-0.0772 0.02617,-0.0205 0.0107,-0.0568 0.0065,-0.0783 -0.01821,-0.0345 -0.0263,-0.0524 -0.0511,-0.0869 -0.03668,-0.0509 -0.08832,-0.0948 -0.128062,-0.14437 -0.01299,-0.0177 -0.02715,-0.0351 -0.0389,-0.0532 -0.01488,-0.023 -0.02748,-0.0467 -0.04098,-0.0701 -0.06291,-0.10919 -0.121223,-0.21969 -0.188273,-0.32769 -0.01586,-0.0227 -0.03126,-0.0455 -0.04751,-0.0681 -0.0065,-0.009 -0.07198,-0.0957 -0.07652,-0.10258 -0.04509,-0.068 -0.07821,-0.13972 -0.105828,-0.21198 0,0 -0.421007,0.0443 -0.421007,0.0443 z" />
      <path
         style="fill:#000000;fill-opacity:1;stroke:none;stroke-width:0.477439;stroke-opacity:1"
         id="path4934"
         d="m 97.124267,152.43986 c 0.153593,0.0541 0.302676,0.11337 0.47413,0.13498 0.116022,0.0146 0.16006,0.0122 0.27447,0.0136 0.101553,1.2e-4 0.202414,0.0124 0.304,0.0116 0.05064,-3.6e-4 0.129694,-0.001 0.168277,-0.0315 0.03132,-0.0247 0.04177,-0.0592 0.06265,-0.0888 0,0 0.0026,-0.0518 0.0026,-0.0518 v 0 c -0.01534,-0.0304 -0.02284,-0.0634 -0.04594,-0.0912 -0.02735,-0.033 -0.09054,-0.0427 -0.136866,-0.05 -0.119494,-0.0188 -0.241284,-0.0216 -0.36314,-0.0153 -0.03485,0.002 -0.06973,0.003 -0.104523,0.005 -0.02826,0.002 -0.05626,0.006 -0.08463,0.006 -0.02806,2.5e-4 -0.05613,-0.002 -0.08389,-0.005 -0.117823,-0.0121 -0.231469,-0.0384 -0.346179,-0.0597 0,0 -0.120687,0.22199 -0.120687,0.22199 z" />
      <path
         style="fill:#000000;fill-opacity:1;stroke:none;stroke-width:0.477439;stroke-opacity:1"
         id="path4936"
         d="m 97.135662,152.44772 c 0.04001,-2.4e-4 0.08008,5e-4 0.120061,-8.7e-4 0.09135,-0.003 0.21593,-0.0122 0.307753,-0.0184 0.132617,-0.009 0.264693,-0.0189 0.396802,-0.0309 0.03511,-0.002 0.07022,-0.005 0.10524,-0.007 0.02937,-0.002 0.05867,-0.005 0.08797,-0.008 0.09559,-0.009 0.193944,-0.0163 0.28341,-0.0438 0.05815,-0.0179 0.112942,-0.0407 0.169419,-0.061 0.118436,-0.0551 0.237643,-0.11198 0.337532,-0.18353 0.02754,-0.0197 0.05586,-0.0432 0.08195,-0.0643 0.03361,-0.0275 0.07595,-0.0486 0.112713,-0.0737 0.01077,-0.007 0.02056,-0.0154 0.03087,-0.023 0.01592,-0.0188 0.04242,-0.0274 0.06363,-0.0418 0.01879,-0.0128 0.03987,-0.0302 0.05697,-0.0438 0.0246,-0.0211 0.05521,-0.0376 0.0865,-0.0534 0.05913,-0.0263 0.116785,-0.0538 0.173804,-0.0823 0.05821,-0.0254 0.114749,-0.0525 0.17259,-0.0783 0.07072,-0.0288 0.13979,-0.0599 0.208608,-0.0909 0.06389,-0.0266 0.123076,-0.0578 0.177956,-0.0929 0.0604,-0.0386 0.0147,-0.0127 0.0602,-0.0377 0.068,-0.0365 0.13748,-0.0717 0.20733,-0.10651 0.03,-0.0166 0.0642,-0.0287 0.0967,-0.0426 0.01,-0.004 0.0192,-0.009 0.0292,-0.0138 0.0312,-0.0139 0.0631,-0.027 0.0945,-0.0407 0.0925,-0.0377 0.18155,-0.0791 0.26767,-0.12352 0.0651,-0.0394 0.14021,-0.0688 0.21653,-0.096 0.0179,-0.007 0.0358,-0.0141 0.0539,-0.021 0.0499,-0.019 0.0589,-0.0213 0.10683,-0.0409 0.0595,-0.0243 0.11563,-0.0508 0.17201,-0.0785 0.0467,-0.0262 0.0992,-0.0462 0.1497,-0.0684 0.0426,-0.0187 0.0846,-0.0383 0.12694,-0.0574 0.10183,-0.0436 0.20108,-0.09 0.30394,-0.13238 0.092,-0.042 0.18061,-0.0877 0.26908,-0.13335 0.0806,-0.0362 0.16124,-0.0724 0.24446,-0.10561 0.0303,-0.0104 0.0729,-0.0266 0.11298,-0.0446 0.038,-0.0199 0.0779,-0.0393 0.10914,-0.0647 0.0155,-0.0126 0.0295,-0.0261 0.0442,-0.0391 0.007,-0.009 0.0585,-0.0525 0.0396,-0.0354 -6.6e-4,5.9e-4 -0.004,0.002 -0.003,0.002 0.0223,-0.0129 0.0172,-0.0103 0.0418,-0.0268 0.007,-0.005 0.003,-0.001 -0.002,7.3e-4 -0.0301,0.0134 -0.0604,0.0266 -0.0905,0.0399 0.0414,-0.0129 0.0782,-0.0312 0.11623,-0.0481 0.0418,-0.0204 0.0829,-0.0415 0.11435,-0.0699 -0.003,-0.003 -0.003,-0.002 0.003,-0.008 0.005,-0.005 0.0114,-0.008 0.0162,-0.0131 0.0342,-0.0333 0.0631,-0.085 0.0764,-0.11756 0.007,-0.0177 0.003,-0.0367 0.005,-0.0551 -5.2e-4,-0.003 -0.005,-0.0495 -0.012,-0.0534 -0.008,-0.005 0.003,0.0153 0.004,0.023 10e-4,0.008 0.007,0.0172 0.002,0.025 -0.0871,0.15295 -0.17664,0.21933 -0.10557,0.16557 -0.0728,-0.0655 -0.14569,-0.13097 -0.21853,-0.19646 0,0 -0.0177,0.0503 -0.0177,0.0503 v 0 c -0.0674,-0.0645 -0.13487,-0.1291 -0.2023,-0.19365 0.0674,-0.0546 -0.0262,0.0204 -0.11356,0.1704 -0.009,0.0153 0.0116,0.0391 0.007,0.0541 -0.005,0.0135 -0.01,-0.0518 -0.009,-0.0411 0.008,-0.0759 -0.003,-0.0379 0.0591,-0.13461 0.003,-0.005 0.007,-0.009 0.0116,-0.014 0.001,-0.002 0.006,-0.003 0.005,-0.004 -0.003,-0.004 -0.021,0.014 -0.0175,0.007 0.009,-0.0177 0.0339,-0.0175 0.042,-0.0272 0.002,-0.003 -0.008,0.003 -0.012,0.004 -0.0131,0.005 -0.0256,0.0115 -0.0387,0.0168 -0.006,0.005 -0.0187,0.01 -0.0261,0.0132 -0.003,0.001 -0.0125,0.005 -0.009,0.004 0.003,-2.5e-4 0.006,-0.003 0.009,-0.004 0.0123,-0.005 0.025,-0.009 0.0375,-0.0128 -0.0333,0.0142 -0.0669,0.028 -0.0998,0.0427 -0.0305,0.0137 -0.0149,0.0133 -0.0468,0.0278 -0.0483,0.0324 -0.0931,0.0671 -0.13098,0.1058 0.0166,-0.0127 0.007,-0.004 0.0254,-0.0153 -1.8e-4,1.1e-4 -0.0351,0.0153 -0.005,0.004 0.0247,-0.009 -0.10674,0.0366 -0.0779,0.0275 -0.10593,0.043 -0.21035,0.0885 -0.30969,0.13864 -0.0696,0.0359 -0.13746,0.0735 -0.20889,0.10755 -0.11833,0.0494 -0.23172,0.10514 -0.33527,0.16893 -0.005,0.003 -0.0527,0.0291 -0.0588,0.032 -0.0115,0.006 -0.0238,0.0102 -0.0355,0.0155 -0.0606,0.0275 -0.11899,0.0573 -0.17907,0.0854 -0.0213,0.0108 -0.0429,0.0214 -0.0641,0.0325 -0.0123,0.006 -0.0242,0.0134 -0.0362,0.0202 -0.008,0.005 -0.0154,0.01 -0.0238,0.0144 -0.041,0.0216 -0.0869,0.0388 -0.13151,0.0563 -0.0221,0.009 -0.0887,0.0355 -0.11175,0.0456 -0.0633,0.0276 -0.12239,0.0592 -0.18183,0.0907 -0.0164,0.009 -0.0322,0.0188 -0.0493,0.0273 -0.0538,0.027 -0.11704,0.0438 -0.17005,0.0718 -0.0875,0.0381 -0.17621,0.075 -0.259429,0.11767 -0.02552,0.0134 -0.05032,0.0275 -0.07599,0.0408 -0.05534,0.0285 -0.112818,0.0551 -0.167369,0.0845 -0.0327,0.02 -0.0464,0.028 -0.07529,0.0469 -0.0093,0.006 -0.01671,0.0136 -0.02702,0.0188 -0.02206,0.011 -0.04705,0.0188 -0.06804,0.0309 -0.06817,0.0308 -0.135691,0.0621 -0.204398,0.0922 -0.07406,0.0332 -0.146975,0.0679 -0.216668,0.10551 -0.0556,0.0326 -0.108464,0.0673 -0.165026,0.099 -0.05808,0.0338 -0.11394,0.0693 -0.16008,0.11146 -0.03289,0.027 -0.06963,0.0519 -0.09907,0.0808 -0.0085,0.007 -0.0156,0.0142 -0.02454,0.0205 -0.0078,0.006 -0.01658,0.0103 -0.02487,0.0155 -0.037,0.0233 -0.07313,0.0471 -0.105508,0.0737 -0.01227,0.01 -0.02493,0.0196 -0.03674,0.0298 -0.02839,0.0247 -0.0068,0.0113 -0.03922,0.0354 -0.05776,0.0429 -0.126202,0.078 -0.192547,0.11387 -0.02297,0.0135 -0.04412,0.0286 -0.06885,0.0405 -0.02891,0.0139 -0.09776,0.03 -0.126816,0.0374 -0.08135,0.0207 -0.163362,0.0401 -0.24533,0.0596 -0.01932,0.003 -0.228526,0.0413 -0.237134,0.0428 -0.186105,0.0321 -0.375748,0.0548 -0.558023,0.0971 0,0 0.05828,0.23039 0.05828,0.23039 z" />
      <path
         style="fill:#000000;fill-opacity:1;stroke:none;stroke-width:0.477439;stroke-opacity:1"
         id="path4938"
         d="m 102.36956,149.73797 c -0.0285,0.0611 -0.0789,0.11445 -0.13121,0.16654 -10e-4,0.001 -0.0583,0.0546 -0.0628,0.0603 -0.0172,0.0218 -0.0313,0.0448 -0.0469,0.0673 -0.0463,0.091 -0.0892,0.18296 -0.12652,0.27598 -0.004,0.01 -0.007,0.0195 -0.011,0.0292 -0.0124,0.0295 -0.0286,0.0582 -0.0391,0.0881 -0.0132,0.0375 -0.0148,0.0472 -0.0242,0.0849 -0.0102,0.0541 -0.0153,0.10857 -0.0202,0.16299 -0.002,0.0228 -0.006,0.0455 -0.006,0.0683 3.5e-4,0.031 0.005,0.0618 0.008,0.0927 0.006,0.0291 0.007,0.0589 0.0173,0.0873 0.0312,0.0835 0.10651,0.15456 0.22003,0.19109 0.0374,0.012 0.079,0.0163 0.11849,0.0244 0,0 0.0723,0.0109 0.0723,0.0109 v 0 c 0.0434,-0.005 0.0891,-0.003 0.13028,-0.0139 0.12645,-0.033 0.2098,-0.11777 0.24785,-0.20443 0.0113,-0.0257 0.0138,-0.0529 0.0207,-0.0793 0.005,-0.0247 0.0107,-0.0493 0.0142,-0.0741 0.003,-0.0202 0.003,-0.0404 0.005,-0.0606 0.004,-0.0411 0.007,-0.0821 0.009,-0.12325 0.001,-0.0137 0.001,-0.0275 0.004,-0.0411 0.0114,-0.0639 0.005,5e-4 0.014,-0.0682 10e-4,-0.008 10e-4,-0.0171 0.002,-0.0256 0.001,-0.007 0.003,-0.0136 0.005,-0.0204 0.003,-0.013 0.005,-0.0262 0.009,-0.0392 0.0185,-0.0575 0.0448,-0.1137 0.0595,-0.17179 -0.009,-0.0281 -0.006,-0.007 0.0218,-0.0563 0.0144,-0.0259 0.0306,-0.0514 0.0424,-0.078 0.0481,-0.10831 0.0745,-0.22066 0.0573,-0.33417 0,0 -0.6099,-0.0197 -0.6099,-0.0197 z" />
      <path
         style="fill:#000000;fill-opacity:1;stroke:none;stroke-width:0.477439;stroke-opacity:1"
         id="path4940"
         d="m 102.4318,149.67176 c -0.009,0.0174 -0.0175,0.0353 -0.0284,0.0523 -0.0129,0.0203 -0.0283,0.0397 -0.0427,0.0594 -0.0431,0.0591 -0.0696,0.0903 -0.10618,0.15353 -0.0416,0.0718 -0.0496,0.10236 -0.0789,0.17831 -0.0506,0.16306 -0.0765,0.32936 -0.12469,0.49269 -0.0222,0.0714 -0.0429,0.14315 -0.0592,0.21539 -0.003,0.0154 -0.006,0.0309 -0.01,0.0462 -0.005,0.0159 -0.0102,0.0315 -0.0153,0.0472 -0.0249,0.0782 -0.0542,0.15569 -0.0694,0.23523 -0.007,0.0363 -0.0116,0.0728 -0.0181,0.10912 -0.0233,0.12972 -0.0393,0.2599 -0.056,0.39009 -0.0282,0.19832 -0.0717,0.39528 -0.11006,0.5927 -0.0159,0.086 -0.04,0.17131 -0.0529,0.25762 -0.005,0.034 -0.0129,0.0681 -0.011,0.10221 0.003,0.0456 0.0168,0.0904 0.0241,0.13573 0.007,0.0416 0.0117,0.0833 0.0176,0.12496 0.036,0.12643 -0.006,0.0723 0.12422,0.16262 0,0 0.071,0.0143 0.071,0.0143 v 0 c 0.18729,-0.0497 0.11322,-0.008 0.22171,-0.12635 0.0258,-0.0392 0.0506,-0.0787 0.0775,-0.1175 0.026,-0.0376 0.0576,-0.0733 0.0812,-0.11163 0.0169,-0.0276 0.027,-0.0569 0.0399,-0.0855 0.0409,-0.0903 0.0812,-0.1809 0.11041,-0.27344 0.009,-0.0304 0.0179,-0.0607 0.0257,-0.0913 0.0134,-0.0525 0.0292,-0.13202 0.0393,-0.18396 0.0235,-0.12033 0.0469,-0.24077 0.0604,-0.36189 0.0114,-0.12405 0.017,-0.24846 0.0369,-0.37204 0.007,-0.0463 0.0127,-0.0927 0.0222,-0.13884 0.0168,-0.0817 0.007,-0.0233 0.0284,-0.11327 0.006,-0.0232 0.0104,-0.0466 0.0156,-0.0699 0.0181,-0.1036 0.0337,-0.20743 0.0563,-0.31064 0.008,-0.0395 0.0215,-0.1075 0.0282,-0.14765 0.0183,-0.11075 0.0316,-0.22192 0.0542,-0.33234 0.004,-0.0223 0.007,-0.0448 0.0122,-0.067 0.0204,-0.0859 0.0557,-0.16995 0.0766,-0.25582 0.008,-0.0311 0.013,-0.0624 0.0175,-0.0938 0.004,-0.0265 0.005,-0.0532 0.007,-0.0799 0,0 -0.46608,-0.037 -0.46608,-0.037 z" />
      <path
         style="fill:#000000;fill-opacity:1;stroke:none;stroke-width:0.477439;stroke-opacity:1"
         id="path4942"
         d="m 102.2308,152.00664 c -6.6e-4,0.0109 -0.003,0.0691 -0.0109,0.0843 -0.002,0.004 -0.0225,0.0166 -0.0293,0.0197 -0.003,0.001 -0.008,9.6e-4 -0.0101,0.003 -0.008,0.01 -0.0123,0.0209 -0.0184,0.0314 -0.0336,0.054 -0.0326,0.1153 -0.0658,0.16921 -0.0288,0.0501 -0.039,0.10397 -0.0541,0.15657 -0.0134,0.0434 -0.031,0.0863 -0.0523,0.12819 -0.04,0.0696 -0.0719,0.14099 -0.0996,0.21336 -0.0207,0.0592 -0.0479,0.11712 -0.0666,0.17663 -0.0106,0.0336 -0.0176,0.0617 -0.0263,0.0951 -0.0166,0.0644 -0.0338,0.12887 -0.0416,0.19417 -0.004,0.0308 -0.005,0.0618 -0.007,0.0927 -0.002,0.0151 -0.003,0.0399 -0.009,0.0558 -0.004,0.0115 -0.0114,0.0223 -0.017,0.0335 -0.005,0.009 -0.009,0.0185 -0.0141,0.0278 -0.006,0.012 -0.0119,0.0241 -0.0179,0.0361 -0.0357,0.068 -0.0688,0.13659 -0.0995,0.20577 -0.047,0.0979 -0.0733,0.1996 -0.10325,0.30049 -0.0164,0.0598 -0.0219,0.12068 -0.0352,0.18076 -0.005,0.0236 -0.0122,0.0444 -0.0194,0.0677 -0.0294,0.0859 -0.0444,0.17364 -0.0585,0.26126 -0.014,0.0794 -0.0296,0.15869 -0.0414,0.23825 -0.0132,0.094 -0.0366,0.18695 -0.0514,0.28077 -0.0213,0.13578 -0.0367,0.27189 -0.0551,0.40786 -0.0129,0.0832 -0.0234,0.16658 -0.04,0.24945 -0.0162,0.081 -0.0228,0.0797 -0.0276,0.16222 -0.001,0.0255 1.7e-4,0.051 3.5e-4,0.0766 0.0127,0.0202 0.0156,0.0451 0.038,0.0607 0.0712,0.0494 0.14597,0.0391 0.23582,0.0422 0,0 1.3e-4,0.0518 1.3e-4,0.0518 v 0 c 0.0798,0.003 0.1901,0.0134 0.26804,-0.0117 0.0309,-0.01 0.0497,-0.0326 0.0745,-0.0489 0.0463,-0.0743 0.0633,-0.093 0.0907,-0.17687 0.0102,-0.0313 0.0147,-0.0634 0.021,-0.0952 0.0173,-0.0866 0.0277,-0.17386 0.0431,-0.26066 0.02,-0.13191 0.0346,-0.26438 0.0659,-0.3953 0.0192,-0.0952 0.0422,-0.19015 0.0536,-0.28606 0.0138,-0.0777 0.0273,-0.15538 0.038,-0.23333 0.0144,-0.0749 0.0235,-0.15039 0.0461,-0.2244 0.01,-0.0353 0.0198,-0.0715 0.0271,-0.10709 0.01,-0.0478 0.0117,-0.0963 0.0256,-0.14367 0.0221,-0.0839 0.0476,-0.16746 0.0797,-0.24973 0.005,-0.0121 0.0107,-0.0241 0.0161,-0.0362 0.003,-0.007 0.005,-0.0147 0.008,-0.0219 0.0197,-0.0445 0.0461,-0.0875 0.065,-0.13225 0.0222,-0.0446 0.0468,-0.0892 0.0632,-0.13507 0.0187,-0.0521 0.028,-0.10544 0.0318,-0.15905 0.001,-0.0344 0.003,-0.0693 0.007,-0.10356 0.003,-0.0266 0.0108,-0.0529 0.017,-0.0792 0.004,-0.0158 0.007,-0.0317 0.011,-0.0476 0.005,-0.0228 0.007,-0.0458 0.0126,-0.0686 0.013,-0.0577 0.0374,-0.1138 0.0518,-0.17131 0.01,-0.034 0.0174,-0.0688 0.031,-0.10212 0.0144,-0.0349 0.0329,-0.0691 0.0439,-0.10467 0.0181,-0.059 0.0294,-0.11894 0.0412,-0.17867 0.01,-0.0746 -0.005,0.0291 0.008,-0.0471 0.003,-0.0209 0.003,-0.0418 0.015,-0.0619 0.008,-0.0278 0.0158,-0.0555 0.0224,-0.0835 0.005,-0.0188 0.0157,-0.0619 0.0171,-0.0802 6.5e-4,-0.01 -0.001,-0.019 -0.002,-0.0286 -0.007,-0.0344 -10e-4,0.003 0.006,-0.0601 0.002,-0.0191 0.004,-0.0382 0.003,-0.0573 -0.005,-0.0768 -0.0327,-0.15005 -0.0844,-0.21806 0,0 -0.42091,0.10625 -0.42091,0.10625 z" />
      <path
         style="fill:#000000;fill-opacity:1;stroke:none;stroke-width:0.477439;stroke-opacity:1"
         id="path4944"
         d="m 101.90943,154.01741 c -0.0147,0.0637 -0.033,0.1273 -0.0617,0.18872 -0.0206,0.0441 -0.0176,0.0295 -0.0428,0.0704 -0.008,0.0138 -0.0158,0.0279 -0.0236,0.0418 -0.0273,0.0606 -0.0774,0.11425 -0.10576,0.17452 -0.008,0.017 -0.0135,0.0346 -0.0203,0.0519 -0.0395,0.12357 -0.0778,0.24737 -0.11533,0.37127 -0.006,0.0226 -0.0119,0.0452 -0.0172,0.0678 -0.0162,0.0688 -0.0306,0.13766 -0.0505,0.20606 -0.009,0.0321 -0.0337,0.1057 -0.0437,0.13651 -0.0347,0.1029 -0.0769,0.20452 -0.11084,0.30755 -0.0189,0.0573 -0.0371,0.12041 -0.0542,0.17775 -0.0378,0.15561 -0.0746,0.31161 -0.1224,0.46592 -3.4e-4,9.2e-4 -0.035,0.10584 -0.0368,0.11127 -0.0171,0.0571 -0.0409,0.11568 -0.0298,0.1746 0.002,0.0112 0.0209,0.0624 0.0256,0.0751 0.0392,0.0654 0.005,0.0267 0.14684,0.0893 0,0 0.0714,0.0133 0.0714,0.0133 v 0 c 0.16754,-0.005 0.11085,0.0168 0.19105,-0.0274 0.0299,-0.0258 0.054,-0.045 0.0789,-0.0741 0.0392,-0.0459 0.0534,-0.0991 0.0739,-0.14993 0.0769,-0.19042 0.12726,-0.38563 0.21336,-0.57427 0.0649,-0.16392 0.12939,-0.32808 0.17483,-0.49533 0.0193,-0.0665 0.0269,-0.0896 0.0427,-0.15632 0.0215,-0.0911 0.0352,-0.18294 0.0511,-0.2746 0.023,-0.12292 0.0581,-0.24522 0.0617,-0.36952 0.001,-0.0245 0.001,-0.0367 0.007,-0.0621 0.003,-0.0142 0.008,-0.0282 0.0115,-0.0424 0.01,-0.0403 0.0169,-0.0809 0.0242,-0.12136 0.004,-0.0506 0.015,-0.10085 0.0182,-0.1514 0.005,-0.0808 -0.004,-0.16124 -0.0326,-0.23982 0,0 -0.32437,0.0146 -0.32437,0.0146 z" />
      <path
         style="fill:#000000;fill-opacity:1;stroke:none;stroke-width:0.477439;stroke-opacity:1"
         id="path4946"
         d="m 101.60841,155.4626 c -0.0169,0.0785 -0.0313,0.15726 -0.0542,0.23502 -0.008,0.0261 -0.0176,0.0519 -0.025,0.078 -0.0432,0.15194 0.006,-1.2e-4 -0.0278,0.10177 -0.0251,0.0641 -0.044,0.12926 -0.0643,0.19417 -0.007,0.0224 -0.0124,0.0451 -0.0208,0.0672 -0.0117,0.0308 -0.0264,0.0611 -0.0395,0.0916 -0.0352,0.0744 -0.0397,0.15308 -0.0631,0.22908 -0.002,0.007 -0.0156,0.0362 -0.0178,0.041 -0.0466,0.0873 -0.0677,0.17929 -0.0902,0.27072 -0.0232,0.0872 -0.0409,0.17477 -0.052,0.26307 -0.004,0.0751 -0.0259,0.14811 -0.0523,0.22057 -0.0191,0.0537 -0.0405,0.10716 -0.0493,0.1623 -0.005,0.0329 -0.005,0.045 -0.006,0.0771 -6.5e-4,0.0564 0.002,0.11285 0.002,0.16929 0.002,0.0482 -0.005,0.0962 -0.008,0.14426 -0.003,0.0365 -0.001,0.0564 -0.001,0.0934 0.002,0.0176 0.003,0.0352 0.005,0.0527 6.6e-4,0.005 0.0108,0.0615 0.0116,0.0722 0.003,0.0361 -0.003,0.0725 -0.007,0.1085 -0.004,0.0238 -0.008,0.044 0.009,0.066 0.006,0.008 0.0114,0.016 0.0216,0.0207 0.0194,0.009 0.0431,0.0121 0.0644,0.0186 0.0487,0.0148 0.0971,0.0303 0.1457,0.0454 0,0 0.0704,0.0158 0.0704,0.0158 v 0 c 0.079,0.005 0.19639,0.0285 0.26979,-0.0139 0.0459,-0.0266 0.0439,-0.0707 0.0568,-0.10803 0.003,-0.0192 0.008,-0.0382 0.01,-0.0574 0.008,-0.0757 0.005,-0.15168 -0.0108,-0.22677 -0.003,-0.0792 0.0134,-0.15832 0.007,-0.23761 -0.002,-0.0518 -0.001,-0.10355 -0.003,-0.15534 -6.5e-4,-0.0141 0.002,-0.0259 0.005,-0.0402 0.007,-0.0305 0.0145,-0.061 0.0271,-0.0907 0.0138,-0.0351 0.0202,-0.049 0.0302,-0.0847 0.0202,-0.0717 0.0312,-0.14446 0.0394,-0.2172 0.007,-0.0777 0.0231,-0.15444 0.0379,-0.23153 0.0149,-0.0822 0.0378,-0.16336 0.0649,-0.24397 0.0102,-0.0406 0.0149,-0.0531 0.0194,-0.0932 0.006,-0.0559 -0.001,-0.0172 6.5e-4,-0.0713 6.5e-4,-0.02 0.003,-0.0401 0.005,-0.0601 3.4e-4,-0.0291 6.5e-4,-0.0582 0.001,-0.0874 -0.002,-0.0294 -0.006,-0.0588 -0.005,-0.0882 5.2e-4,-0.0214 0.005,-0.0427 0.008,-0.0639 0.0103,-0.0679 0.027,-0.13517 0.0354,-0.20317 0.007,-0.0448 0.0118,-0.0759 0.0121,-0.12232 1.7e-4,-0.0279 -0.003,-0.0557 -0.004,-0.0836 -0.003,-0.0826 -0.004,-0.16534 -0.0162,-0.24766 0,0 -0.34257,-0.0103 -0.34257,-0.0103 z" />
      <path
         style="fill:#000000;fill-opacity:1;stroke:none;stroke-width:0.477439;stroke-opacity:1"
         id="path4948"
         d="m 99.556074,170.49736 c -0.05913,0.1791 -0.104992,0.36058 -0.127449,0.54385 -0.0095,0.0779 -0.01729,0.19514 -0.02297,0.27103 -0.0033,0.10947 -0.0094,0.1931 0.0033,0.30276 0.0052,0.0442 0.01018,0.0889 0.02552,0.13191 0.01899,0.0533 0.071,0.14853 0.148143,0.18131 0.037,0.0157 0.08462,0.0127 0.12694,0.0191 0,0 0.06713,-0.0217 0.06713,-0.0217 v 0 c 0.02708,-0.0168 0.06024,-0.0297 0.08128,-0.0503 0.03733,-0.0365 0.04751,-0.11234 0.05077,-0.15154 0.0033,-0.0379 6.53e-4,-0.076 0.0013,-0.114 0.002,-0.18853 -5.22e-4,-0.0929 0.0066,-0.28312 0.0068,-0.16965 0.0052,-0.11027 0.0084,-0.26393 6.52e-4,-0.0343 9.8e-5,-0.0685 0.002,-0.10271 0.0073,-0.14094 0.02793,-0.28146 0.03707,-0.42233 0,0 -0.407668,-0.0403 -0.407668,-0.0403 z" />
      <path
         style="fill:#000000;fill-opacity:1;stroke:none;stroke-width:0.477439;stroke-opacity:1"
         id="path4950"
         d="m 100.52736,169.7777 c 0.0102,0.19186 0.005,0.0237 6.5e-4,0.24035 -6.5e-4,0.0402 0.001,0.0805 6.5e-4,0.12074 -0.002,0.142 -0.0106,0.12812 0.001,0.27844 0.004,0.0474 0.0118,0.0945 0.0177,0.14181 0.0105,0.0482 0.0194,0.0965 0.0317,0.14447 0.062,0.24392 0.0243,0.0482 0.0794,0.29412 0.0253,0.11267 0.0788,0.38966 0.10572,0.50222 0.017,0.0708 0.0382,0.14095 0.0572,0.21144 0.0389,0.14344 0.10915,0.27982 0.19164,0.41346 0.0452,0.0733 0.0997,0.14375 0.14143,0.21803 0.0302,0.0536 0.0492,0.10996 0.0738,0.16494 0,0 0.0737,-0.004 0.0737,-0.004 v 0 c 0.0117,-0.0583 0.0209,-0.11679 0.035,-0.17479 0.0204,-0.0838 0.0542,-0.16598 0.0683,-0.25037 0.0106,-0.0636 0.009,-0.12814 0.005,-0.19216 -0.004,-0.0777 -0.05,-0.15266 -0.0444,-0.23111 -0.0366,-0.24681 -0.0706,-0.49429 -0.13299,-0.73876 -0.0326,-0.12752 -0.0579,-0.17405 -0.1065,-0.29341 -0.0159,-0.039 -0.0312,-0.0781 -0.0467,-0.11716 -0.0697,-0.23821 -0.004,-0.009 -0.0736,-0.26859 -0.0177,-0.066 -0.0525,-0.19458 -0.079,-0.26075 -0.0171,-0.0425 -0.0411,-0.0836 -0.0595,-0.12585 -0.0144,-0.0331 -0.0259,-0.0668 -0.0389,-0.10023 0,0 -0.30213,0.0273 -0.30213,0.0273 z" />
      <path
         style="fill:#000000;fill-opacity:1;stroke:none;stroke-width:0.477439;stroke-opacity:1"
         id="path4952"
         d="m 101.21718,171.97023 c 0.048,-0.0577 0.0932,-0.11741 0.11387,-0.18325 0.0177,-0.0565 0.0179,-0.0899 0.0247,-0.14687 0.003,-0.0255 0.007,-0.051 0.01,-0.0765 0.007,-0.0536 0.0157,-0.11571 0.017,-0.1687 0.002,-0.0794 -0.005,-0.14941 -0.0104,-0.22848 -0.0117,-0.15653 -0.005,-0.0545 -0.0135,-0.20526 -6.5e-4,-0.0939 -0.0132,-0.18758 -0.0157,-0.28138 -10e-4,-0.047 0.001,-0.094 3.5e-4,-0.14098 -0.003,-0.1278 -0.006,-0.13211 -0.0193,-0.25041 -0.04,-0.22637 -0.14416,-0.44366 -0.23447,-0.66185 -0.0341,-0.0982 -0.0295,-0.0806 -0.0576,-0.17884 -0.0206,-0.0718 -0.029,-0.14987 -0.12309,-0.19706 -0.0315,-0.0158 -0.0715,-0.0206 -0.10731,-0.031 0,0 -0.0726,0.01 -0.0726,0.01 v 0 c -0.0668,0.0426 -0.10297,0.052 -0.12576,0.11513 -0.008,0.0225 -0.007,0.0464 -0.005,0.0696 0.004,0.0995 0.0384,0.19745 0.068,0.29417 0.0554,0.14764 0.11716,0.29408 0.16918,0.44234 0.0113,0.0324 0.0232,0.0646 0.033,0.0972 0.007,0.0232 0.0115,0.0468 0.0172,0.0701 0.0366,0.21959 0.0539,0.44043 0.0767,0.66087 0.0248,0.19051 0.0559,0.38143 0.0358,0.57304 1.6e-4,0.0455 -5.2e-4,0.0911 -3.4e-4,0.13666 8e-5,0.0144 0.002,0.0288 10e-4,0.0431 -0.004,0.0521 -0.0314,0.10206 -0.049,0.15222 0,0 0.26759,0.0861 0.26759,0.0861 z" />
      <path
         style="fill:#000000;fill-opacity:1;stroke:none;stroke-width:0.477439;stroke-opacity:1"
         id="path4954"
         d="m 100.66188,169.07831 c -0.005,0.0288 -0.007,0.0576 -0.0127,0.0862 -0.009,0.0452 -0.0239,0.0899 -0.0309,0.13525 -0.0159,0.10315 -0.014,0.17859 -0.0167,0.28017 -0.004,0.13529 -0.007,0.0615 0.005,0.18885 0.0218,0.15177 0.0697,0.30086 0.11912,0.44917 0.0358,0.11436 0.0791,0.22744 0.11911,0.34108 0.005,0.0162 0.0112,0.0323 0.016,0.0486 0.0268,0.0925 0.0478,0.18588 0.0686,0.27906 0.0238,0.10598 0.0161,0.0644 0.0294,0.15496 0.001,0.0181 0.003,0.0362 0.004,0.0543 10e-4,0.0159 10e-4,0.0318 0.003,0.0476 0.009,0.0769 0.0309,0.15255 0.0519,0.22817 0.0215,0.0652 0.0234,0.13234 0.0348,0.1985 0.003,0.0164 0.007,0.0328 0.01,0.0491 0.004,0.0164 0.008,0.0328 0.0113,0.0493 0.003,0.0155 0.008,0.0308 0.0102,0.0463 0.007,0.0418 0.002,0.0839 0.003,0.12577 5.2e-4,0.0168 0.003,0.0335 0.003,0.0502 0.0116,0.0868 0.0328,0.1727 0.0493,0.25905 0.0189,0.0771 0.0332,0.1545 0.0452,0.23225 0.006,0.0484 0.016,0.0966 0.0204,0.14504 0.001,0.0153 0.001,0.0307 0.002,0.046 0.005,0.0779 0.009,0.15595 0.009,0.23397 0.006,0.0757 0.002,0.15146 -0.004,0.22711 -0.007,0.0713 -0.0134,0.1429 -0.0138,0.21442 -0.001,0.0569 -5.2e-4,0.11385 -0.003,0.17074 0.002,0.0309 -0.004,0.0617 -0.005,0.0925 -0.001,0.0232 -3.5e-4,0.0464 -0.001,0.0696 0.002,0.0421 -0.007,0.0838 -0.0143,0.12545 -0.0134,0.0541 -0.0243,0.10845 -0.0341,0.16296 -0.002,0.0125 -0.005,0.025 -0.005,0.0375 -0.001,0.0138 -5.2e-4,0.0277 -0.001,0.0417 -0.001,0.0211 -0.005,0.042 -0.005,0.0631 0.007,0.015 -0.008,0.0395 -0.001,0.0543 0.001,0.003 0.004,-0.005 0.006,-0.008 0.002,0.002 0.004,0.008 0.007,0.006 0.047,-0.0451 0.0485,-0.11312 0.18755,-0.0721 0.0451,0.0133 0.054,0.0571 0.081,0.0857 0,0 0.0252,0.0487 0.0252,0.0487 v 0 c 0.0403,0.0251 0.0683,0.0673 0.12107,0.0755 0.20909,0.0323 0.13416,-0.0428 0.22318,-0.0983 0.003,-0.007 0.005,-0.0139 0.007,-0.0208 1.7e-4,0.002 -3.4e-4,0.007 5.2e-4,0.005 0.005,-0.01 0.005,-0.041 0.006,-0.0521 5e-5,-9.1e-4 -3.5e-4,0.001 -5.2e-4,0.002 0.007,-0.0368 0.004,-0.074 0.0118,-0.11074 0.01,-0.0554 0.0277,-0.1098 0.0371,-0.16525 0.0101,-0.0597 0.0209,-0.11918 0.0228,-0.17937 -0.001,-0.05 0.006,-0.10001 0.007,-0.15003 0.002,-0.0555 0.005,-0.11118 0.004,-0.16673 0.006,-0.066 0.002,-0.13249 0.0125,-0.19843 0.0102,-0.0869 0.0121,-0.17403 0.016,-0.2612 -1.8e-4,-0.0821 -0.002,-0.16414 -0.004,-0.2462 -0.002,-0.0785 -0.0127,-0.15642 -0.0254,-0.23439 -0.0147,-0.0825 -0.0292,-0.16504 -0.0505,-0.24683 -0.0183,-0.0801 -0.0422,-0.15955 -0.0712,-0.23805 -0.0132,-0.0445 -0.0179,-0.0883 -0.0245,-0.13341 -0.007,-0.0481 -0.0183,-0.0958 -0.0242,-0.14406 -0.0142,-0.0957 -0.0298,-0.19156 -0.0616,-0.28534 -0.0324,-0.0968 -0.0676,-0.19324 -0.0846,-0.29216 -0.0402,-0.17915 -0.0876,-0.35782 -0.15685,-0.53272 -0.0465,-0.11083 -0.1028,-0.21941 -0.14686,-0.33075 -0.0545,-0.13426 -0.10478,-0.26932 -0.15802,-0.40382 -0.0219,-0.0581 -0.0359,-0.0894 -0.0482,-0.15174 -0.029,-0.14761 -0.005,-0.11557 -0.0457,-0.27767 -0.0117,-0.0459 -0.0311,-0.0907 -0.0457,-0.1361 -0.009,-0.0279 -0.0169,-0.0559 -0.0254,-0.0839 0,0 -0.26737,0.009 -0.26737,0.009 z" />
      <path
         style="fill:#000000;fill-opacity:1;stroke:none;stroke-width:0.477439;stroke-opacity:1"
         id="path4956"
         d="m 100.73485,168.29062 c -0.0674,0.18971 0.0202,-0.0623 -0.0331,0.10752 -0.005,0.0155 -0.0127,0.0305 -0.0175,0.046 -0.003,0.0104 -0.003,0.0212 -0.007,0.0317 -0.003,0.0108 -0.009,0.0211 -0.0112,0.032 -0.003,0.0149 -0.003,0.0301 -0.005,0.0451 -5.1e-4,0.0256 -0.002,0.0511 -0.001,0.0766 0.001,0.0759 0.007,0.10212 0.0104,0.17717 0.004,0.0817 0.002,0.10986 0.006,0.19334 10e-4,0.0365 0.004,0.073 0.007,0.10944 0.003,0.0443 0.005,0.0887 0.008,0.13294 0.003,0.0463 0.008,0.0925 0.012,0.13871 0.0138,0.16557 0.0274,0.33086 0.0523,0.49587 0.01,0.0655 0.0223,0.1308 0.0334,0.1962 0.0358,0.17371 0.054,0.34876 0.0709,0.52375 0.005,0.0545 0.008,0.10904 0.0152,0.16341 0.0204,0.16137 0.0288,0.17463 0.069,0.33706 0.0485,0.1583 0.0486,0.18959 0.13899,0.34631 0.0343,0.0595 0.0794,0.11578 0.11705,0.17434 0.0229,0.0355 0.043,0.0719 0.0644,0.10789 0,0 0.0739,-10e-4 0.0739,-10e-4 v 0 c 0.0184,-0.0375 0.0366,-0.0751 0.0552,-0.11249 0.0311,-0.0624 0.0691,-0.12325 0.0938,-0.18702 0.0593,-0.15288 0.0544,-0.20393 0.0685,-0.35426 0.004,-0.0556 0.009,-0.11111 0.0125,-0.16671 0.006,-0.10546 0.008,-0.22238 0.007,-0.32766 -0.001,-0.19031 -0.008,-0.38102 -0.0484,-0.56965 -0.0126,-0.064 -0.0252,-0.12793 -0.0378,-0.19189 -0.0125,-0.0574 -0.0261,-0.11466 -0.0375,-0.17216 -0.0101,-0.0504 -0.0174,-0.10107 -0.0267,-0.15154 -0.0266,-0.14369 -0.0545,-0.28739 -0.0918,-0.42994 -0.0232,-0.0936 -0.0283,-0.11663 -0.0536,-0.2091 -0.008,-0.0302 -0.0177,-0.0602 -0.0258,-0.0905 -0.0209,-0.0785 -0.0373,-0.15765 -0.0666,-0.23495 -0.0131,-0.0467 -0.0134,-0.0593 -0.0379,-0.10308 -0.028,-0.0499 -0.009,-0.005 -0.0523,-0.0512 -0.0161,-0.0172 -0.0441,-0.0735 -0.052,-0.0883 0,0 -0.3096,0.007 -0.3096,0.007 z" />
      <path
         style="fill:#000000;fill-opacity:1;stroke:none;stroke-width:0.477439;stroke-opacity:1"
         id="path4958"
         d="m 100.67191,167.65503 c -0.02,0.0802 -0.029,0.10327 -0.0355,0.18751 -0.005,0.0657 -3.5e-4,0.13169 -0.003,0.19749 -0.003,0.0546 -0.0142,0.19724 -0.0183,0.24904 -0.0233,0.22998 -0.0799,0.45783 -0.0995,0.68803 -0.0113,0.13201 -0.0167,0.34478 -0.0211,0.47863 0.12082,0.33545 0.0873,0.18224 0.12345,0.45688 0,0 0.0735,0.006 0.0735,0.006 v 0 c 0.1214,-0.26539 0.0422,-0.11825 0.25654,-0.43615 0.025,-0.12189 0.0733,-0.35133 0.0931,-0.47156 0.0163,-0.0987 0.036,-0.28001 0.0444,-0.37869 0.005,-0.0576 0.0102,-0.11522 0.0115,-0.17291 0.001,-0.0575 -0.003,-0.11501 -0.004,-0.17252 -0.005,-0.048 -0.007,-0.0962 -0.0133,-0.14403 -0.023,-0.15915 -0.0934,-0.31293 -0.10747,-0.47295 0,0 -0.30012,-0.0144 -0.30012,-0.0144 z" />
      <path
         style="fill:#000000;fill-opacity:1;stroke:none;stroke-width:0.477439;stroke-opacity:1"
         id="path4960"
         d="m 101.0585,168.81832 c 0.008,-0.0253 0.0195,-0.0503 0.0253,-0.076 0.0228,-0.10031 0.0213,-0.2033 0.0164,-0.30446 -0.003,-0.0716 -0.016,-0.2298 -0.021,-0.29662 -0.0125,-0.13048 -0.009,-0.1943 -0.0636,-0.32426 -0.0229,-0.0546 -0.0598,-0.10589 -0.0897,-0.15884 0,0 -0.0737,0.004 -0.0737,0.004 v 0 c -0.0181,0.0542 -0.0416,0.10775 -0.0543,0.16274 -0.0329,0.14209 -0.0232,0.18834 -0.0191,0.32752 0.007,0.0899 0.0156,0.19939 0.0207,0.29049 0.005,0.0867 0.008,0.17401 -0.003,0.26053 -0.003,0.0207 -0.008,0.0412 -0.0127,0.0617 0,0 0.27523,0.0532 0.27523,0.0532 z" />
      <path
         style="fill:#000000;fill-opacity:1;stroke:none;stroke-width:0.477439;stroke-opacity:1"
         id="path4962"
         d="m 100.78619,167.39968 c -0.013,0.12885 -0.0143,0.10735 -0.0129,0.24159 3.4e-4,0.0354 0.004,0.0709 0.004,0.1063 -1.8e-4,0.0313 -0.003,0.0625 -0.005,0.0937 -0.007,0.13935 -0.001,0.0456 -0.0143,0.21014 -0.009,0.23423 -0.02,0.4684 -0.0313,0.70257 -0.003,0.0582 -0.007,0.11629 -0.008,0.17448 -10e-4,0.0578 -6.6e-4,0.11559 -10e-4,0.17339 0.006,0.0855 0.0161,0.26878 0.0287,0.3561 0.009,0.0595 0.0207,0.11882 0.0341,0.17792 0.0134,0.0592 0.022,0.11937 0.0461,0.17687 0.019,0.0452 0.0548,0.0861 0.0823,0.12914 0,0 0.0737,0.004 0.0737,0.004 v 0 c 0.0367,-0.0416 0.0838,-0.0796 0.11016,-0.12489 0.0339,-0.0584 0.0506,-0.12109 0.0688,-0.18282 0.0518,-0.1757 0.0518,-0.35461 0.0633,-0.53293 0.007,-0.35272 0.0206,-0.70569 -0.004,-1.05826 -0.007,-0.0547 -0.0175,-0.17049 -0.0304,-0.2297 -0.007,-0.0341 -0.0182,-0.0678 -0.028,-0.1016 -0.0319,-0.10969 -0.0697,-0.21848 -0.11237,-0.32637 0,0 -0.26343,0.0104 -0.26343,0.0104 z" />
      <path
         style="fill:#000000;fill-opacity:1;stroke:none;stroke-width:0.477439;stroke-opacity:1"
         id="path4964"
         d="m 100.00477,161.78494 c -0.02637,0.0666 -0.05091,0.13356 -0.0827,0.199 -0.0097,0.0199 -0.02245,0.039 -0.02976,0.0593 -0.01547,0.0428 -0.02186,0.10599 -0.02793,0.14882 -0.01886,0.13658 -0.002,0.27211 0.0233,0.40756 0.03067,0.16299 0.0342,0.16615 0.07974,0.36018 0.05801,0.21714 0.0749,0.2958 0.15348,0.51889 0.0331,0.094 0.0637,0.18864 0.10788,0.28035 0.032,0.0663 0.0799,0.12828 0.11985,0.19242 0,0 0.0734,-0.006 0.0734,-0.006 v 0 c 0.0175,-0.071 0.0476,-0.14095 0.0524,-0.21288 0.007,-0.0989 -0.006,-0.19807 -0.0187,-0.29663 -0.0232,-0.177 -0.0741,-0.34795 -0.12063,-0.52208 -0.056,-0.20384 -0.0514,-0.18522 -0.0959,-0.35196 -0.0106,-0.0398 -0.0397,-0.14648 -0.0476,-0.18931 -0.009,-0.05 -0.0137,-0.12125 -0.0178,-0.17153 -6.5e-4,-0.0231 -0.002,-0.0461 -0.003,-0.0692 -3.5e-4,-0.0197 0.001,-0.0393 6.5e-4,-0.0589 -6.5e-4,-0.0178 -0.006,-0.0355 -0.005,-0.0533 3.5e-4,-0.0171 0.005,-0.0341 0.007,-0.0511 0.0147,-0.10214 0.007,-0.0504 0.0249,-0.15777 0,0 -0.1941,-0.0258 -0.1941,-0.0258 z" />
      <path
         style="fill:#000000;fill-opacity:1;stroke:none;stroke-width:0.477439;stroke-opacity:1"
         id="path5714"
         d="m 96.998254,175.53682 c -0.336357,-0.34368 -0.597442,-0.80455 -1.126855,-1.03983 -0.204574,-0.0909 -0.243124,-0.046 -0.447777,-0.10525 -0.07909,-0.0229 -0.150219,-0.0575 -0.225322,-0.0862 -0.686236,-0.34417 -1.352228,-0.70783 -2.0272,-1.06286 -0.745186,-0.38903 -1.510023,-0.78138 -2.363472,-1.04799 -0.177321,-0.0554 -0.361476,-0.0994 -0.542217,-0.14905 -1.247712,-0.26523 -2.556363,-0.36318 -3.851571,-0.43996 -1.228982,-0.0509 -2.437667,0.12321 -3.605005,0.37595 -1.007107,0.24118 -1.905923,0.64065 -2.764436,1.07282 -0.948631,0.55576 -1.897271,1.14135 -2.661161,1.82776 -0.235467,0.21158 -0.443028,0.4377 -0.664544,0.65655 -0.680709,0.87426 -0.412499,0.45051 -0.841734,1.2594 0,0 0.03384,0.0104 0.03384,0.0104 v 0 c 0.551184,-0.75261 0.230714,-0.35705 0.985076,-1.1771 0.231494,-0.20605 0.451517,-0.41869 0.694479,-0.61816 0.790728,-0.64916 1.714421,-1.22504 2.648806,-1.76881 0.829546,-0.41692 1.697745,-0.8034 2.669222,-1.03814 1.125511,-0.24578 2.292958,-0.41381 3.478632,-0.36927 1.266527,0.069 2.54565,0.15851 3.769548,0.40644 0.17293,0.0458 0.349096,0.086 0.518789,0.13744 0.841989,0.25515 1.595561,0.63858 2.331155,1.01632 0.688755,0.35756 1.371767,0.72164 2.07905,1.06092 0.09318,0.0323 0.182679,0.0704 0.27954,0.0968 0.05116,0.0139 0.309313,0.0433 0.362116,0.0647 0.514664,0.20914 0.755472,0.66902 1.081935,0.98556 0,0 0.189114,-0.0685 0.189114,-0.0685 z" />
      <path
         style="fill:#000000;fill-opacity:1;stroke:none;stroke-width:0.477439;stroke-opacity:1"
         id="path5716"
         d="m 105.33767,175.07421 c 0.46485,-0.27033 0.89856,-0.54704 1.41774,-0.76591 0.79652,-0.3358 1.92291,-0.54242 2.82077,-0.71365 1.08647,-0.16005 2.192,-0.2547 3.29375,-0.34831 1.16439,-0.0599 2.33707,-0.0344 3.50427,-0.0219 0.53596,0.008 0.98988,0.19209 1.46306,0.34545 0.49814,0.16145 0.3617,0.11745 0.87443,0.27039 0.89243,0.22212 1.50264,0.62496 2.18152,1.06467 0.84636,0.54361 1.27925,1.10317 1.72683,1.82806 0.25041,0.44269 0.41308,0.90394 0.46886,1.37804 0,0 0.0365,0.004 0.0365,0.004 v 0 c 0.0324,-0.0551 0.0784,-0.10721 0.097,-0.16536 0.14152,-0.44084 -0.13504,-0.89073 -0.32015,-1.30199 -0.46065,-0.7552 -0.92197,-1.3369 -1.80023,-1.90152 -0.71353,-0.46093 -1.33415,-0.86827 -2.27054,-1.10342 -0.51156,-0.1525 -0.36571,-0.10608 -0.86579,-0.26672 -0.51197,-0.16445 -1.00811,-0.3561 -1.58692,-0.36219 -1.18086,-0.0126 -2.36718,-0.0366 -3.54521,0.0243 -1.11557,0.0968 -2.23549,0.19203 -3.33485,0.35808 -0.96918,0.18724 -2.03947,0.38224 -2.9042,0.75192 -0.53389,0.22826 -0.95986,0.50362 -1.43897,0.78527 0,0 0.18213,0.14047 0.18213,0.14047 z" />
      <path
         style="fill:#000000;fill-opacity:1;stroke:none;stroke-width:0.477439;stroke-opacity:1"
         id="path6446"
         d="m 101.96149,180.38314 c 0.5676,0.32019 1.19166,0.63927 1.54277,1.10193 0.0705,0.0929 0.11529,0.19452 0.16554,0.29372 0.0253,0.0499 0.37422,0.81035 0.38533,0.83452 0.588,1.12225 1.19337,2.24148 1.43191,3.43248 0.0456,0.22736 0.055,0.45755 0.0825,0.68632 0.0388,1.26026 -0.16777,2.51767 -0.33865,3.77046 -0.11772,0.61799 -0.13448,1.24343 -0.23924,1.86218 -0.0512,0.30255 -0.11985,0.60353 -0.17984,0.90528 -0.18517,0.84756 -0.38706,1.71331 -0.8776,2.50563 -0.11945,0.19292 -0.33847,0.43914 -0.49477,0.623 -0.11367,0.17199 -0.42149,0.38727 -0.39804,0.58795 0,0 0.0718,0.0332 0.0718,0.0332 v 0 c 0.0326,-0.0103 0.0725,-0.0131 0.0976,-0.0308 0.18681,-0.13164 0.25758,-0.36743 0.4388,-0.50255 0.17161,-0.2016 0.38267,-0.43698 0.51444,-0.65069 0.49601,-0.80444 0.70313,-1.6819 0.89012,-2.54214 0.0601,-0.30428 0.12838,-0.60783 0.17918,-0.91294 0.10307,-0.61886 0.11815,-1.24423 0.23478,-1.86231 0.17016,-1.26238 0.37285,-2.5299 0.32361,-3.79965 -0.0294,-0.2338 -0.0403,-0.46909 -0.088,-0.7014 -0.24573,-1.19676 -0.85929,-2.32128 -1.46081,-3.44688 -0.16852,-0.35829 -0.32901,-0.82602 -0.59034,-1.15562 -0.37319,-0.4707 -1.00841,-0.79769 -1.60002,-1.12162 0,0 -0.0911,0.0899 -0.0911,0.0899 z" />
      <path
         style="fill:#000000;fill-opacity:1;stroke:none;stroke-width:0.477439;stroke-opacity:1"
         id="path6450"
         d="m 93.486717,158.92341 c 0.479984,0.0273 0.961509,0.0346 1.442061,0.0543 0.07138,0.003 0.157893,0.044 0.213743,0.0128 0.03857,-0.0216 -0.07048,-0.1018 -0.102173,-0.0752 -0.129876,0.10883 0.186889,0.19821 0.226529,0.21519 0.226424,0.0726 0.485394,0.11854 0.67909,0.2336 0.07776,0.0462 0.145852,0.0998 0.219258,0.1494 0.214658,0.1359 0.450473,0.25327 0.733662,0.30278 0,0 0.02343,-0.02 0.02343,-0.02 v 0 c -0.139777,-0.16905 -0.452509,-0.22574 -0.636599,-0.37068 -0.304574,-0.20414 -0.523167,-0.30531 -0.935338,-0.39844 -0.04686,-0.0166 -0.08845,-0.0456 -0.140612,-0.0496 -0.02839,-0.002 -0.06161,0.0519 -0.07146,0.0331 -0.02232,-0.0427 0.06258,-0.10292 0.01775,-0.13576 -0.05077,-0.0372 -0.146277,-0.009 -0.219598,-0.0121 -0.47986,-0.0181 -0.960588,-0.0241 -1.439887,-0.0502 0,0 -0.0099,0.11097 -0.0099,0.11097 z" />
    </g>
  </g>
</svg>
