<?xml version="1.0" encoding="UTF-8" standalone="no"?>
<!-- Created with Inkscape (http://www.inkscape.org/) -->

<svg
   width="210mm"
   height="297mm"
   viewBox="0 0 210 297"
   version="1.1"
   id="svg986"
   sodipodi:docname="morango.svg"
   inkscape:version="1.2 (dc2aedaf03, 2022-05-15)"
   xmlns:inkscape="http://www.inkscape.org/namespaces/inkscape"
   xmlns:sodipodi="http://sodipodi.sourceforge.net/DTD/sodipodi-0.dtd"
   xmlns="http://www.w3.org/2000/svg"
   xmlns:svg="http://www.w3.org/2000/svg">
  <sodipodi:namedview
     id="namedview988"
     pagecolor="#505050"
     bordercolor="#eeeeee"
     borderopacity="1"
     inkscape:showpageshadow="0"
     inkscape:pageopacity="0"
     inkscape:pagecheckerboard="0"
     inkscape:deskcolor="#505050"
     inkscape:document-units="mm"
     showgrid="false"
     inkscape:zoom="1.2623761"
     inkscape:cx="368.35299"
     inkscape:cy="591.74125"
     inkscape:window-width="2560"
     inkscape:window-height="1369"
     inkscape:window-x="2552"
     inkscape:window-y="-8"
     inkscape:window-maximized="1"
     inkscape:current-layer="layer2" />
  <defs
     id="defs983" />
  <g
     inkscape:label="Camada 1"
     inkscape:groupmode="layer"
     id="layer1"
     style="display:inline" />
  <g
     inkscape:groupmode="layer"
     id="layer2"
     inkscape:label="Camada 2">
    <path
       id="path1160-5"
       style="display:inline;fill:#000000;stroke-width:0.874001"
       d="m 83.745364,154.7444 c -0.184055,0.0333 -0.05027,-0.0567 -0.28267,0.26975 0.2837,0.27594 0.537034,0.59037 0.792717,0.8971 0.368799,0.42785 0.794829,0.7994 1.198376,1.19321 0.348168,0.33258 0.713324,0.63709 1.130164,0.8785 0.3634,0.16141 0.732015,0.31106 1.099674,0.46198 0.290917,0.15219 0.603672,0.24944 0.908472,0.36691 0.235995,0.12063 0.494261,0.18229 0.751375,0.23874 0.402284,0.0742 0.765427,0.26405 1.154452,0.38137 0.397163,0.0944 0.792981,0.1956 1.186491,0.3049 0.36183,0.0676 0.694856,0.2199 1.039729,0.33951 0.260953,0.0754 0.469027,0.25593 0.710551,0.36949 0.166693,0.0867 0.32223,0.19019 0.49196,0.2713 0.142034,0.0205 0.248252,0.0863 0.369486,0.15761 0.113747,0.0306 0.194418,0.0889 0.290422,0.15658 0.240564,0.1119 0.468375,0.24599 0.712101,0.3514 0.0083,0.006 0.01579,0.0116 0.02377,0.0176 -0.04693,0.007 -0.09493,0.009 -0.148311,0.0103 -0.464407,-0.036 -0.922553,0.0351 -1.379761,0.10748 -0.553918,0.0834 -1.098085,0.22584 -1.62419,0.41703 -0.493696,0.18399 -0.953649,0.41657 -1.388029,0.71365 -0.495696,0.34708 -1.002804,0.67753 -1.535307,0.96532 -0.588872,0.29725 -1.191678,0.56256 -1.732711,0.94361 -0.407133,0.3332 -0.817176,0.6619 -1.235583,0.98082 -0.335383,0.28908 -0.713116,0.51916 -1.071252,0.7767 -0.321861,0.2694 -0.64019,0.54325 -0.994255,0.76997 -0.272384,0.15866 -0.556909,0.29428 -0.829924,0.45166 -0.125632,0.117 -0.364693,0.10301 -0.495577,0.18551 -0.03733,0.0235 -0.0705,0.0527 -0.104386,0.0811 0.0626,0.039 0.118901,0.0885 0.1757,0.13642 0.0066,0.0676 0.01981,0.13578 0.02842,0.20102 0.0033,0.025 0.03849,-0.0233 0.06305,-0.0558 6.65e-4,-2.1e-4 0.002,-0.001 0.0026,-0.001 0.02567,-0.007 0.05011,-0.0168 0.07545,-0.0248 0.0049,0.003 0.009,0.006 0.01395,0.009 0.04256,0.0205 0.09247,-0.0204 0.139527,-0.0248 0.02598,-0.002 0.291583,0.002 0.298173,0.002 0.555723,-0.0321 1.077054,-0.29736 1.590083,-0.49868 0.270817,-0.10823 0.553728,-0.17332 0.828374,-0.26923 0.423841,-0.19055 0.860626,-0.34138 1.30638,-0.47077 0.350274,-0.0853 0.687992,-0.21392 1.035596,-0.30799 0.348339,-0.0525 0.687838,-0.16168 1.037146,-0.20723 0.418584,-0.0298 0.834566,-0.0879 1.253153,-0.12299 0.352404,-0.008 0.690697,-0.0608 1.029395,-0.15089 0.271595,-0.0468 0.526543,-0.13452 0.780831,-0.23616 0.229227,-0.089 0.475621,-0.11065 0.718302,-0.13436 0.349726,-0.0506 0.696741,-0.001 1.043864,0.0398 0.258284,0.01 0.511001,0.061 0.767395,0.0873 0.242014,0.0486 0.484719,0.0758 0.730705,0.0951 0.240424,0.035 0.473789,0.0178 0.706416,-0.0434 0.208888,-0.0197 0.405582,-0.075 0.602548,-0.14418 0.148563,-0.0797 0.313928,-0.0744 0.47749,-0.0863 0.168555,-0.0262 0.336995,-0.0461 0.503845,-0.0827 0.14357,-0.0366 0.29263,-0.0457 0.44029,-0.0579 0.22457,-0.0454 0.45181,-0.0696 0.67851,-0.10077 0.15749,-0.0363 0.28962,0.003 0.42994,0.0677 0.16742,0.08 0.18584,0.21883 0.19224,0.39998 -0.047,0.29446 -0.16759,0.56546 -0.2682,0.84284 -0.17113,0.38805 -0.15867,0.78119 -0.0982,1.19011 0.0744,0.55697 0.35275,1.04234 0.56379,1.55184 0.0827,0.49914 0.289909,0.96107 0.463529,1.43247 0.12854,0.36203 0.16655,0.74524 0.23771,1.12035 0.0716,0.35744 0.093,0.72122 0.11989,1.08365 0.0537,0.39036 0.14039,0.77538 0.23927,1.15652 0.11217,0.46486 0.22915,0.92935 0.36173,1.38854 0.0738,0.40677 0.21949,0.80614 0.25115,1.21957 0.0503,0.32828 0.0716,0.65705 0.0904,0.98754 0.0145,0.14328 -0.005,0.28728 0.0284,0.42581 0.002,-0.0367 0.0434,-0.0439 0.0997,-0.0419 0.26397,0.22546 0.33143,0.15729 0.30644,0.0103 0.006,-0.002 0.0134,-0.001 0.0186,-0.004 0.0515,-0.0211 0.0226,-0.10899 0.0346,-0.1633 0.0159,-0.0716 0.0328,-0.14294 0.0491,-0.21445 0.0501,-0.24064 0.12413,-0.46944 0.22117,-0.69453 0.17,-0.37856 0.32048,-0.76424 0.50695,-1.13534 0.20903,-0.42235 0.36015,-0.8701 0.57929,-1.28829 0.11891,-0.31398 0.26721,-0.60364 0.45062,-0.88367 0.13324,-0.16958 0.22602,-0.36484 0.34468,-0.54311 0.18697,-0.29919 0.34069,-0.60579 0.4222,-0.94982 0.019,-0.36039 0.0758,-0.69769 0.18707,-1.04024 0.085,-0.35396 0.20036,-0.69672 0.30592,-1.04438 0.0764,-0.31112 0.24086,-0.5847 0.3204,-0.89452 0.0717,-0.31981 0.14709,-0.63184 0.16329,-0.96015 0.019,-0.27974 -0.048,-0.56679 0.005,-0.8444 0.0497,-0.16237 0.0632,-0.3936 0.0842,-0.52916 0.0809,-0.16895 0.18917,-0.32136 0.30644,-0.46716 0.11791,-0.14096 0.25205,-0.35004 0.447,-0.38137 0.26236,0.07 0.50419,0.22405 0.73432,0.36432 0.5176,0.37193 1.0279,0.74801 1.56735,1.08831 0.5037,0.33352 1.06419,0.56296 1.59938,0.83819 0.38661,0.21021 0.76675,0.43395 1.16944,0.61236 0.3074,0.12095 0.59696,0.27324 0.91054,0.37776 0.36426,0.10124 0.70747,0.25637 1.0449,0.42478 0.31053,0.16269 0.60598,0.35132 0.89555,0.54829 0.36717,0.22007 0.7182,0.47005 1.09606,0.67179 0.34789,0.17509 0.70378,0.33328 1.05265,0.50643 0.30849,0.15416 0.62247,0.29084 0.94671,0.40772 0.24608,0.11065 0.50282,0.19765 0.76171,0.27286 0.13604,0.0164 0.2627,0.0607 0.39894,0.0708 0.60302,-0.13266 0.054,-0.91444 -0.092,-1.15497 -0.27245,-0.43074 -0.51985,-0.87656 -0.79995,-1.30276 -0.25463,-0.41341 -0.53816,-0.80827 -0.80357,-1.21491 -0.26831,-0.40772 -0.55795,-0.79851 -0.89039,-1.156 -0.34608,-0.34089 -0.7214,-0.65119 -1.10381,-0.95033 -0.33405,-0.31971 -0.7347,-0.53789 -1.14308,-0.74569 -0.27864,-0.12798 -0.5402,-0.28778 -0.79426,-0.45837 -0.20709,-0.14752 -0.41689,-0.29304 -0.63666,-0.42117 -0.27385,-0.1199 -0.53951,-0.26089 -0.81959,-0.36587 -0.17272,-0.0544 -0.3318,-0.13772 -0.49092,-0.2222 -0.17651,-0.0766 -0.29225,-0.21927 -0.41083,-0.36277 -0.14214,-0.17853 -0.31581,-0.32726 -0.47232,-0.49196 -0.0766,-0.0599 -0.14834,-0.12403 -0.22273,-0.18655 -0.0782,-0.0542 -0.12304,-0.0833 -0.16071,-0.10904 0.12196,-0.12033 0.24029,-0.2448 0.3576,-0.36949 0.2096,-0.24488 0.41689,-0.49112 0.63045,-0.73277 -0.19044,0.0482 -0.38588,0.0697 -0.58032,0.0946 -0.0277,0.004 -0.0555,0.006 -0.0832,0.009 -0.0493,0.0194 -0.0986,0.0382 -0.14832,0.0563 -0.0108,0.004 -0.0215,0.007 -0.0326,0.0103 -0.0569,0.0667 -0.1139,0.13342 -0.17053,0.20051 -0.0526,0.056 -0.48424,0.46715 -0.49403,0.49661 -0.0473,0.14253 -0.0329,0.30033 -0.077,0.4439 -0.0134,-0.0179 -0.0266,-0.035 -0.0403,-0.0584 0.0136,0.0197 0.0338,0.0818 0.0408,0.0589 0.052,0.0694 0.10775,0.10844 0.19172,0.15347 -0.0772,-0.0873 -0.027,-0.0332 0.004,0.003 0.0129,0.007 0.0233,0.0137 0.0377,0.0212 0.005,0.002 -0.0161,-0.008 -0.0326,-0.0155 0.005,0.005 0.013,0.0137 0.015,0.0155 0.0648,0.0551 0.14261,0.077 0.20515,0.1328 0.0623,0.0483 0.11954,0.10436 0.17984,0.14728 0.14968,0.15145 0.30844,0.29488 0.44493,0.4594 0.16211,0.19513 0.33065,0.3813 0.56534,0.49145 0.17964,0.1 0.36195,0.19353 0.55862,0.25631 0.25248,0.0925 0.48943,0.22454 0.73794,0.32711 0.21023,0.12091 0.40878,0.26274 0.60668,0.40256 0.27202,0.18263 0.55011,0.35531 0.84853,0.49248 0.37791,0.19231 0.75153,0.38812 1.05833,0.68833 0.36074,0.28206 0.7161,0.57237 1.04438,0.89194 0.31306,0.33415 0.58461,0.70027 0.83716,1.0821 0.26573,0.40726 0.55134,0.80085 0.8077,1.21388 0.27702,0.4212 0.52519,0.85928 0.79634,1.28416 0.0647,0.10543 0.14248,0.21426 0.20464,0.32659 -0.22699,-0.067 -0.45035,-0.14831 -0.66715,-0.24288 -0.30715,-0.1106 -0.60303,-0.24359 -0.89607,-0.38757 -0.34578,-0.16963 -0.69823,-0.32527 -1.04231,-0.49868 -0.36507,-0.18837 -0.69967,-0.43382 -1.05782,-0.6351 -0.30912,-0.20545 -0.6255,-0.39941 -0.95601,-0.56896 -0.35829,-0.17442 -0.72481,-0.32884 -1.10846,-0.43873 -0.30111,-0.0973 -0.57765,-0.24794 -0.87385,-0.35915 -0.39712,-0.16814 -0.7679,-0.39069 -1.14876,-0.5917 -0.5257,-0.26588 -1.07424,-0.48788 -1.56838,-0.81235 -0.54274,-0.34001 -1.05402,-0.71948 -1.57665,-1.08882 -0.32511,-0.19461 -0.68345,-0.44251 -1.07849,-0.39998 -0.27254,0.0981 -0.48574,0.28023 -0.65164,0.51883 -0.14736,0.18511 -0.28276,0.3793 -0.37724,0.59738 -0.0511,0.19648 -0.0432,0.40553 -0.10335,0.60203 -0.0382,0.29384 -0.003,0.59034 -0.004,0.88574 -0.0118,0.30076 -0.0888,0.58462 -0.14987,0.8785 -0.0708,0.30388 -0.25197,0.56692 -0.31574,0.87436 -0.10305,0.34528 -0.21724,0.68576 -0.30231,1.03611 -0.11495,0.35404 -0.1861,0.70394 -0.19688,1.07694 -0.0627,0.29759 -0.20827,0.55487 -0.3638,0.81391 -0.11635,0.17987 -0.21072,0.37338 -0.34417,0.5426 -0.19296,0.29112 -0.34845,0.59382 -0.47336,0.92036 -0.21642,0.42141 -0.37464,0.86807 -0.58084,1.29397 -0.1899,0.37897 -0.34286,0.77286 -0.5178,1.15859 -0.009,0.0223 -0.0178,0.0453 -0.0269,0.0677 -0.01,-0.083 -0.0211,-0.16479 -0.0346,-0.24753 -0.0467,-0.43769 -0.17674,-0.86339 -0.26717,-1.29346 -0.13036,-0.45663 -0.24841,-0.91681 -0.3607,-1.37821 -0.0932,-0.35729 -0.17137,-0.71912 -0.22738,-1.08417 -0.0261,-0.37835 -0.0521,-0.75804 -0.12557,-1.1312 -0.0759,-0.39662 -0.11686,-0.80131 -0.25632,-1.18339 -0.17607,-0.4774 -0.38084,-0.94407 -0.46922,-1.44849 -0.20189,-0.47767 -0.463489,-0.93359 -0.536919,-1.45624 -0.0523,-0.34414 -0.0665,-0.6642 0.0811,-0.99064 0.12137,-0.32964 0.271459,-0.65585 0.295589,-1.01234 -0.0285,-0.31256 -0.12747,-0.60224 -0.430989,-0.74104 -0.21053,-0.0963 -0.42396,-0.14745 -0.6568,-0.10387 -0.21942,0.0307 -0.43986,0.0518 -0.65681,0.0987 -0.16535,0.0144 -0.33332,0.0251 -0.49454,0.0651 -0.14669,0.0327 -0.295172,0.0442 -0.442874,0.0708 -0.19936,0.0126 -0.403851,0.0182 -0.586527,0.10904 -0.186841,0.0657 -0.372493,0.11423 -0.570508,0.13539 -0.18829,0.0496 -0.372848,0.0637 -0.568957,0.031 -0.242937,-0.019 -0.481312,-0.0468 -0.720887,-0.092 -0.254651,-0.0259 -0.506618,-0.0738 -0.763261,-0.0801 -0.375387,-0.0422 -0.751408,-0.0903 -1.12913,-0.0377 -0.280236,0.0276 -0.563712,0.058 -0.827856,0.16227 -0.239403,0.096 -0.478193,0.17972 -0.734839,0.22221 -0.316207,0.0842 -0.630666,0.13366 -0.960665,0.13952 -0.42588,0.0371 -0.848932,0.0965 -1.274857,0.12868 -0.364834,0.0554 -0.721569,0.15922 -1.084689,0.22427 -0.348558,0.0975 -0.688467,0.22261 -1.03973,0.3111 -0.452641,0.13149 -0.897493,0.28194 -1.327567,0.47645 -0.277961,0.0993 -0.566471,0.1609 -0.840776,0.27337 -0.582876,0.22878 0.04216,-0.0151 -0.593245,0.22893 -0.03822,0.0147 -0.07912,0.0333 -0.118339,0.0496 0.03417,-0.0194 0.0686,-0.0387 0.102319,-0.0589 0.35741,-0.23317 0.684948,-0.50536 1.010274,-0.78084 0.360217,-0.26042 0.741254,-0.49245 1.079004,-0.78393 0.414854,-0.31626 0.82202,-0.64099 1.224732,-0.97255 0.526237,-0.37526 1.12097,-0.62448 1.69292,-0.92036 0.543988,-0.29451 1.064389,-0.62931 1.569413,-0.9865 0.407183,-0.28037 0.840543,-0.49681 1.303796,-0.67076 0.502585,-0.18469 1.023729,-0.32059 1.553394,-0.40101 0.444232,-0.0704 0.887631,-0.13878 1.338936,-0.10852 0.09559,-0.006 0.48093,-0.0424 0.5302,-0.14418 0.05323,-0.10992 0.07924,-0.23064 0.118856,-0.34623 -0.004,-0.002 -0.0078,-0.004 -0.01188,-0.006 -0.0803,-0.0341 -0.152225,-0.0827 -0.239262,-0.0971 -0.03628,-0.0287 -0.136976,-0.0997 -0.161747,-0.10542 -0.224173,-0.0966 -0.431397,-0.22343 -0.655774,-0.31936 -0.102973,-0.0702 -0.252199,-0.16301 -0.311092,-0.16899 -0.124891,-0.0735 -0.248517,-0.15441 -0.395842,-0.17001 -0.171275,-0.0808 -0.325256,-0.19008 -0.494543,-0.27492 -0.252632,-0.11193 -0.464305,-0.31364 -0.73949,-0.38189 -0.350895,-0.12273 -0.690419,-0.27865 -1.057817,-0.3514 -0.390831,-0.11032 -0.783114,-0.21381 -1.177706,-0.30954 -0.397239,-0.11912 -0.767343,-0.3174 -1.179256,-0.38964 -0.240872,-0.0527 -0.481076,-0.11262 -0.701249,-0.22738 -0.302419,-0.11502 -0.6112,-0.2147 -0.900203,-0.36328 -0.352706,-0.14702 -0.706371,-0.29094 -1.0573,-0.44235 -0.391229,-0.22822 -0.733835,-0.51465 -1.061434,-0.82734 -0.3951,-0.38547 -0.811452,-0.75048 -1.174605,-1.16737 -0.09099,-0.10902 -0.293631,-0.3859 -0.468189,-0.57361 0.111682,0.008 0.223537,0.0177 0.33538,0.0217 0.529468,0.0801 1.046772,0.21823 1.570964,0.32608 0.593399,0.14652 1.183617,0.30835 1.783353,0.42737 0.63033,0.0981 1.267131,0.14805 1.893942,0.26975 0.708302,0.13834 1.410352,0.31411 2.130619,0.38344 0.259615,0.0358 0.518231,0.0772 0.77618,0.12144 -0.0614,-0.0884 -0.117675,-0.17984 -0.165365,-0.27699 -0.0144,-0.0318 -0.02916,-0.0634 -0.04289,-0.0951 -0.173903,-0.0281 -0.347762,-0.0555 -0.522449,-0.0796 -0.714075,-0.0687 -1.409827,-0.24401 -2.112016,-0.38137 -0.630517,-0.12377 -1.271879,-0.17547 -1.905826,-0.27647 -0.589891,-0.11876 -1.169886,-0.28068 -1.753899,-0.42478 -0.533806,-0.11137 -1.060899,-0.25272 -1.599902,-0.33745 -0.232678,-0.007 -0.464396,-0.0431 -0.697115,-0.0475 z m 25.764316,8.81393 h -5.1e-4 -10e-4 -5.1e-4 -0.001 c -8.9e-4,-5.9e-4 4.8e-4,-0.001 -0.003,-0.002 l -5.2e-4,-5.2e-4 c 0.002,0.002 -9.9e-4,0.001 5.2e-4,0.002 -0.0567,-0.025 -0.0227,-0.009 0.007,0.006 l 0.004,-5.1e-4 c -8.3e-4,-0.002 -0.003,-0.003 -0.005,-0.005 z m -7.78764,14.66267 c -7.2e-4,0.015 0.004,0.0343 0.0181,0.0599 -0.007,-0.0199 -0.0133,-0.0398 -0.0181,-0.0599 z M 82.783149,167.80355 c -9.32e-4,-5.8e-4 -0.0016,-0.001 -0.0026,-0.002 -0.01006,-0.006 -0.04474,0.0298 -0.02532,0.0248 0.0094,-0.007 0.01873,-0.015 0.02791,-0.0227 z m 33.251201,-8.81239 c -0.13707,0.0597 -0.27935,0.10429 -0.42427,0.1416 -0.0493,0.0138 -0.0979,0.0291 -0.14676,0.0439 -0.0228,0.0456 -0.0463,0.0907 -0.0718,0.13488 -0.0285,0.048 -0.0582,0.0955 -0.0853,0.14418 -0.0359,0.0616 -0.0662,0.12595 -0.0982,0.18965 -0.021,0.0421 -0.0425,0.0838 -0.0651,0.12506 l -5.2e-4,5.1e-4 c -0.004,0.01 -0.007,0.0186 -0.0114,0.0264 -0.009,0.0176 -0.019,0.0349 -0.0294,0.0517 0.21568,-0.0719 0.43164,-0.14215 0.65164,-0.2036 0.16612,-0.0436 0.32792,-0.0972 0.48679,-0.16175 z m -6.35775,4.05764 c 7.4e-4,-2e-5 0.005,0.003 0.007,0.004 -2e-5,3.4e-4 3e-5,0.001 0,0.001 -0.001,-0.001 -0.008,-0.005 -0.007,-0.005 z m -26.605096,5.01055 c 0.002,-0.001 0.0026,5.6e-4 0.0021,0.002 -0.0018,8.5e-4 -0.0038,0.001 -0.0057,0.002 0.0012,-0.001 0.0028,-0.004 0.0036,-0.004 z" />
    <path
       id="path1164-3"
       style="display:inline;fill:#000000;stroke-width:0.874001"
       d="m 104.78181,154.55836 c -0.0164,0.0191 -0.0334,0.0366 -0.0501,0.0522 -0.003,0.005 -0.006,0.0107 -0.009,0.016 0.0228,-0.0177 0.0448,-0.0344 0.063,-0.0486 -10e-4,-0.008 -0.003,-0.0114 -0.004,-0.0196 z m 0.69659,0.47077 c 0.0155,0.0661 0.0316,0.13194 0.0476,0.19792 -0.008,-0.0439 -0.0187,-0.0881 -0.0315,-0.13694 -2.1e-4,-0.0128 -0.008,-0.037 -0.016,-0.061 z m 10.90115,2.39986 c -0.007,0.0155 -0.0131,0.0312 -0.0202,0.0465 -0.0264,0.0591 -0.0539,0.11774 -0.0858,0.17414 -0.0285,0.0522 -0.0567,0.10442 -0.0832,0.15762 -0.004,0.007 -0.008,0.0144 -0.0114,0.0217 0.14091,-0.006 0.28183,-0.008 0.42323,-0.002 0.40681,0.004 0.81372,0.0303 1.21957,-0.0191 0.38389,-0.004 0.76743,0.0188 1.1498,0.0522 -0.19695,0.10196 -0.39546,0.20026 -0.60513,0.2744 -0.25862,0.0995 -0.539,0.15305 -0.76947,0.31574 -0.201,0.12085 -0.41209,0.21794 -0.62321,0.31936 -0.23449,0.14341 -0.45264,0.31382 -0.70022,0.43719 -0.27341,0.14952 -0.53484,0.32228 -0.79427,0.49454 -0.14515,0.0896 -0.29526,0.17055 -0.44545,0.25166 -0.0464,0.0716 -0.0956,0.14124 -0.14779,0.20878 -0.0613,0.0793 -0.12347,0.15781 -0.18397,0.23771 -0.043,0.0561 -0.0868,0.11181 -0.13643,0.16226 0.12874,-0.0562 0.25617,-0.11431 0.38086,-0.18035 0.23883,-0.12431 0.48063,-0.2436 0.71262,-0.38034 0.26007,-0.16173 0.51594,-0.33391 0.78548,-0.47955 0.25504,-0.11973 0.47292,-0.30231 0.71417,-0.44287 0.21226,-0.0987 0.42305,-0.19759 0.62425,-0.31781 0.2137,-0.14756 0.47151,-0.19895 0.71107,-0.28887 0.26746,-0.0959 0.52026,-0.22543 0.77153,-0.35657 0.13076,-0.0587 0.24401,-0.14478 0.36742,-0.21549 -0.003,-8e-5 -0.005,-0.001 -0.006,-0.004 -0.0177,-0.0288 -0.0287,-0.0487 -0.0429,-0.0729 0.26294,-0.33822 0.0804,-0.31213 -0.0951,-0.25786 -0.0125,0.007 -0.0248,0.0143 -0.0372,0.0217 -0.0445,-0.0668 -0.0735,-0.0319 -0.34003,-0.0806 -0.42891,-0.0425 -0.85926,-0.0734 -1.29036,-0.076 -0.40423,0.0422 -0.80829,0.0149 -1.21285,0.005 -0.0761,-0.004 -0.15228,-0.006 -0.22841,-0.006 z m 3.28713,0.45165 c -0.0112,0.006 -0.0216,0.0128 -0.0326,0.0191 0.0109,3.3e-4 0.0285,-0.0159 0.0326,-0.0191 z m -5.78104,2.91507 c -0.002,0.002 -0.005,0.004 -0.007,0.006 10e-4,-3.4e-4 0.002,-8.1e-4 0.003,-0.001 10e-4,-0.002 0.003,-0.003 0.004,-0.005 z m -2.07842,1.11879 c -0.0263,0.007 -0.053,0.0125 -0.0796,0.0171 -0.0386,0.008 -0.0775,0.009 -0.11678,0.009 -0.0245,-6.7e-4 -0.0489,-10e-4 -0.0734,-0.002 -0.0189,0.006 -0.0379,0.0118 -0.0568,0.0181 -0.0289,0.01 -0.0579,0.019 -0.0873,0.0274 0.0209,0.017 0.0426,0.0331 0.0636,0.0501 0.11976,-0.0304 0.23623,-0.0718 0.35037,-0.11989 z m -0.55449,0.10025 c -0.031,0.005 -0.0622,0.008 -0.0935,0.0103 -0.008,7.2e-4 -0.0155,0.001 -0.0232,0.002 -0.063,0.0176 -0.12626,0.0346 -0.18965,0.0506 -0.11761,0.0328 -0.23726,0.0539 -0.3576,0.0713 -0.26487,0.16262 -0.52186,0.33095 -0.81236,0.51677 l 0.10801,0.16123 0.001,-5.2e-4 c 0.44957,-0.27851 0.88503,-0.59128 1.36736,-0.81132 z" />
    <path
       id="path1166-9"
       style="display:inline;fill:#000000;stroke-width:0.874001"
       d="m 95.198412,159.33791 c -0.03268,0.0697 0.04199,0.093 0.120923,0.14728 0.0938,0.0511 0.188951,0.0998 0.286804,0.14108 -0.139888,-0.0907 -0.277121,-0.18544 -0.407727,-0.28836 z" />
    <path
       id="path1168-2"
       style="display:inline;fill:#000000;stroke-width:0.874001"
       d="m 98.827131,161.72743 c -0.35801,0.0361 -0.71089,0.10754 -1.06195,0.1912 -0.351945,0.11094 -0.696857,0.24637 -1.041281,0.37983 -0.194681,0.0984 -0.377514,0.2067 -0.590661,0.25838 -0.244057,0.0563 -0.465285,0.17942 -0.693498,0.27853 -0.204029,0.0851 -0.393541,0.19858 -0.576192,0.32195 l 0.01034,0.0558 c 0.25464,0.053 0.463518,0.0544 0.701249,-0.0574 0.212701,-0.0874 0.416082,-0.20319 0.640271,-0.25942 0.229084,-0.0547 0.429497,-0.15967 0.634587,-0.27285 0.330031,-0.12827 0.659968,-0.2599 0.996315,-0.36897 0.48085,-0.11739 0.96462,-0.18916 1.45573,-0.24184 0.0372,-0.0232 0.0752,-0.0455 0.1111,-0.0672 -0.19954,-0.0613 -0.39565,-0.13259 -0.58601,-0.21808 z" />
    <path
       id="path1170-0"
       style="display:inline;fill:#000000;stroke-width:0.874001"
       d="m 101.61146,162.5062 c -10e-4,0.28356 -0.003,0.53058 -0.0145,0.88056 -0.002,0.0519 -0.0194,0.1054 -0.0171,0.15658 -0.11954,0.20265 -0.0987,0.20637 -0.14417,0.47646 -0.0405,0.40652 -0.0848,0.81345 -0.0527,1.22163 0.0644,0.43391 0.23517,0.84743 0.40721,1.24902 0.22684,0.41637 0.26315,0.88337 0.21239,1.34565 -0.0246,0.43873 -0.021,0.87884 -0.0729,1.31568 -0.0381,0.18354 -0.0384,0.0916 0.004,0.27751 l 0.0481,0.03 c 0.23057,-0.10261 0.14004,-0.0201 0.262,-0.25477 0.0906,-0.43818 0.063,-0.88836 0.091,-1.33325 0.052,-0.51799 0.007,-1.0439 -0.24443,-1.5105 -0.16124,-0.36908 -0.32526,-0.74767 -0.39274,-1.14618 -0.0367,-0.38297 0.004,-0.76573 0.0336,-1.14825 0.0108,-0.0754 0.0298,-0.15019 0.0326,-0.22635 0.001,-0.0356 -0.035,-0.0717 -0.0222,-0.1049 0.0224,-0.0576 0.0967,-0.0846 0.11782,-0.14263 0.0229,-0.063 0.006,-0.13401 0.007,-0.20102 0.006,-0.35161 0.006,-0.55575 0.005,-0.79375 -0.0952,-0.0228 -0.1856,-0.052 -0.25993,-0.0915 z" />
    <path
       id="path1172-8"
       style="display:inline;fill:#000000;stroke-width:0.874001"
       d="m 103.42375,162.89584 c 0.15512,0.16588 0.31685,0.33505 0.54622,0.56792 0.0936,0.095 0.25786,0.27039 0.39481,0.35605 0.0456,0.0285 0.0973,0.0455 0.14366,0.0729 0.42113,0.24247 0.80546,0.53937 1.23506,0.76688 0.3797,0.18271 0.74194,0.39403 1.1033,0.60978 0.41637,0.2448 0.80302,0.53546 1.20302,0.80512 0.26524,0.14112 0.59787,0.36602 0.91002,0.28319 l 0.0501,-0.23306 c -0.19932,-0.19421 -0.5382,-0.17168 -0.75137,-0.36019 -0.40651,-0.27371 -0.79947,-0.56903 -1.22422,-0.81493 -0.37002,-0.2136 -0.73894,-0.42676 -1.12499,-0.61082 -0.43548,-0.2188 -0.81679,-0.52399 -1.25316,-0.74207 -0.21349,-0.0954 -0.25295,-0.12722 -0.47232,-0.3421 -0.0883,-0.0865 -0.1665,-0.16426 -0.24081,-0.23874 -0.1728,-0.0412 -0.3462,-0.08 -0.51935,-0.11989 z" />
    <path
       id="path1248-8"
       style="display:inline;fill:#b3b3b3;stroke-width:0.489561"
       d="m 84.582006,155.30715 c -0.08226,-0.004 -0.134305,5.3e-4 -0.148312,0.015 -0.05602,0.0575 0.403387,0.58228 1.020609,1.16583 0.969336,0.91655 1.312339,1.1355 2.519228,1.60817 0.768413,0.30097 2.097431,0.74892 2.953308,0.99529 0.855805,0.24636 2.330918,0.82619 3.277836,1.2888 1.411478,0.68961 1.708785,0.8905 1.650029,1.11519 -0.03942,0.15072 -0.0806,0.2749 -0.09147,0.27543 -0.01087,5.3e-4 -0.580961,0.0653 -1.267105,0.14418 -1.586077,0.18235 -2.435384,0.46711 -3.557921,1.19269 -0.493215,0.31871 -1.347898,0.82259 -1.89911,1.11931 -1.038995,0.55943 -3.797639,2.5771 -3.681947,2.69286 0.03621,0.0362 0.433155,-0.0718 0.882118,-0.23978 1.170249,-0.43787 2.974607,-0.86307 4.111895,-0.96945 0.539218,-0.0504 1.33945,-0.19837 1.778185,-0.32866 0.628155,-0.18654 1.131586,-0.21549 2.367296,-0.13539 1.179925,0.0765 1.956258,0.0387 3.129526,-0.15245 2.426839,-0.39543 2.824589,-0.13668 2.374019,1.54513 l -0.242366,0.90485 0.625286,1.81798 c 0.344,0.99998 0.6888,2.32601 0.76584,2.94659 0.077,0.62051 0.31803,1.84002 0.53589,2.70939 l 0.39636,1.58079 1.02422,-2.04226 c 0.59858,-1.19342 1.17426,-2.59658 1.38545,-3.37602 0.19875,-0.7336 0.46264,-1.69835 0.58653,-2.14405 0.12388,-0.44571 0.2253,-1.10524 0.2253,-1.46503 0,-0.71069 0.42082,-1.55004 0.90796,-1.81074 0.39066,-0.20908 0.76122,-0.0695 1.98179,0.74517 1.37739,0.91934 3.31492,1.94265 4.5992,2.42879 0.5733,0.21704 1.51216,0.68712 2.08618,1.04439 1.0113,0.62935 3.14656,1.64539 3.24683,1.54512 0.0272,-0.0272 -0.43733,-0.78827 -1.03198,-1.69085 -1.46215,-2.21942 -2.28951,-2.91675 -5.41724,-4.56561 -1.11803,-0.58942 -2.37143,-1.70452 -2.37143,-2.10995 0,-0.12546 0.25774,-0.46326 0.59583,-0.85008 -0.10857,0.0318 -0.21773,0.0617 -0.32659,0.0925 -0.14337,0.0358 -0.28345,0.0812 -0.42272,0.13023 -0.11082,0.034 -0.21978,0.074 -0.33021,0.10903 -0.16059,0.0648 -0.32951,0.0992 -0.49868,0.13281 -0.20133,0.0353 -0.40405,0.0636 -0.6072,0.0858 -0.17319,0.023 -0.34786,0.0283 -0.52089,0.0522 -0.15776,0.0172 -0.31542,0.0325 -0.47284,0.0527 -0.11185,0.007 -0.22037,0.0308 -0.32867,0.0579 -0.12564,0.0389 -0.25192,0.0759 -0.37775,0.11421 -0.19795,0.0649 -0.4032,0.0862 -0.60978,0.10025 -0.21537,0.006 -0.43068,-0.017 -0.64337,-0.0486 -0.20027,-0.0292 -0.39789,-0.0719 -0.5948,-0.11782 0.28737,0.25869 0.81741,0.62929 1.28468,0.8878 0.52982,0.29312 1.47031,0.85487 2.08979,1.24799 0.61942,0.39312 1.20282,0.71468 1.29656,0.71468 0.0937,0 0.17054,0.096 0.17054,0.21343 0,0.37168 -0.24188,0.38421 -0.84853,0.0434 -2.46649,-1.38544 -4.19514,-2.53565 -4.78317,-3.18224 -0.0473,-0.0521 -0.0907,-0.0894 -0.1385,-0.13953 -0.27381,-0.059 -0.54892,-0.11124 -0.82423,-0.16329 -0.12767,-0.0267 -0.34413,-0.0464 -0.54158,-0.0935 -0.001,0.26817 -0.0102,0.59148 -0.0362,1.0263 -0.0932,1.55957 -0.0748,1.76622 0.2186,2.40812 0.2543,0.55635 0.31752,0.95915 0.30333,1.93838 -0.01,0.6798 -0.0554,1.29679 -0.10128,1.37098 -0.23906,0.3868 -0.36225,0.006 -0.36225,-1.11931 0,-0.92458 -0.0818,-1.46048 -0.31058,-2.03812 -0.24283,-0.61325 -0.29106,-0.96862 -0.22221,-1.63556 0.0484,-0.46869 0.12928,-1.25242 0.17984,-1.7415 0.0122,-0.11769 0.0333,-0.20882 0.0512,-0.31161 -0.0556,-0.0322 -0.0975,-0.0724 -0.12609,-0.11937 -0.14395,-0.0237 -0.28763,-0.0476 -0.43099,-0.0713 -0.45953,-0.0887 -0.92947,-0.1693 -1.385438,-0.29146 -0.853925,0.10144 -1.990794,0.39225 -2.988451,0.79168 -1.071049,0.4289 -1.986145,0.58856 -1.818491,0.3173 0.187137,-0.30275 2.167924,-1.04158 3.825605,-1.47071 -0.268306,-0.14046 -0.353605,-0.31526 -0.286803,-0.4346 -0.388271,-0.13432 -0.767512,-0.2919 -1.119828,-0.50385 -0.173202,-0.10418 -0.264123,-0.21393 -0.283189,-0.30644 -0.296466,-0.14409 -0.589126,-0.29564 -0.870746,-0.4687 -0.08056,-0.0494 -0.161499,-0.0986 -0.242364,-0.14832 -0.549426,-0.25019 -0.646179,-0.32938 -0.644403,-0.43356 -0.08864,-0.0688 -0.174506,-0.14137 -0.256315,-0.21859 -0.06402,-0.0604 -0.114938,-0.11873 -0.154514,-0.17363 -0.06182,-0.0311 -0.124783,-0.0604 -0.185002,-0.0946 -0.240731,-0.13748 -0.485288,-0.27416 -0.690915,-0.46251 -0.214892,-0.21397 -0.385244,-0.45918 -0.480073,-0.75034 -0.01696,-0.0536 -0.03321,-0.10724 -0.04857,-0.16123 -0.02585,-0.0188 -0.05347,-0.0351 -0.07906,-0.0543 -0.209077,-0.1625 -0.42009,-0.32563 -0.592212,-0.52865 -0.03391,-0.0416 -0.06714,-0.0835 -0.09974,-0.12609 -0.606938,-0.11099 -1.229177,-0.22499 -1.930114,-0.3452 -1.874708,-0.32151 -4.029763,-0.72816 -4.788855,-0.90382 -0.569251,-0.13168 -1.08698,-0.21877 -1.333768,-0.22996 z m 18.915124,0.0475 c -0.005,2.7e-4 -0.012,0.001 -0.0155,0.002 -0.002,5.3e-4 -0.003,0.001 -0.005,0.002 0.008,-0.001 0.0172,-0.002 0.0263,-0.004 -0.001,2e-5 -0.003,-1.6e-4 -0.006,0 z m 15.06988,2.52388 -2.14922,0.0951 c -0.12859,0.006 -0.21013,0.01 -0.29818,0.0145 -0.008,0.0247 -0.0163,0.0495 -0.0233,0.0744 -0.0913,0.21136 -0.22361,0.3841 -0.38085,0.53382 -0.0277,0.0509 -0.0551,0.10191 -0.0775,0.15554 -0.03,0.0721 -0.0581,0.14509 -0.0847,0.2186 -0.0224,0.0583 -0.0457,0.11655 -0.0734,0.17259 0.31864,-0.0881 0.58109,-0.15286 0.61857,-0.1297 0.0728,0.045 0.65768,-0.19207 1.30017,-0.52659 z" />
    <path
       id="path1333-8"
       style="fill:#000000;stroke-width:0.874001"
       d="m 101.90911,133.93481 c -0.48728,0.065 -0.97671,0.1223 -1.45417,0.24133 -0.580159,0.14463 -0.666859,0.19584 -1.238169,0.40876 -0.65494,0.27158 -1.30688,0.5611 -1.917195,0.92449 -0.404249,0.2407 -0.786068,0.52395 -1.176156,0.78652 -0.878775,0.55416 -1.737169,1.12829 -2.513542,1.82056 -1.017146,0.93548 -1.894413,2.01535 -2.714046,3.12487 -0.476878,0.70245 -0.932738,1.41885 -1.340486,2.1637 -0.54909,1.10209 -0.803172,2.3152 -1.030945,3.51658 -0.157263,0.85904 -0.116252,1.72352 -0.0036,2.58382 0.110937,0.89555 0.380695,1.74446 0.753443,2.5616 0.365039,0.72559 0.760433,1.43499 1.108976,2.16886 0.44182,0.90408 0.788768,1.88856 1.415417,2.68769 0.433885,0.47048 0.877684,0.93144 1.312065,1.40147 0.650731,0.74399 1.427825,1.35649 2.2071,1.95853 0.633331,0.50678 1.371533,0.84156 2.069642,1.24282 0.785397,0.43738 1.577177,0.89449 2.433447,1.18184 0.1774,0.0595 0.359309,0.10433 0.538979,0.15658 1.0968,0.24017 2.20254,0.45567 3.31505,0.60927 0.78025,0.0835 1.56562,0.0322 2.34817,0.0186 0.62223,-0.0162 1.24359,-0.0429 1.86604,-0.0543 0.49583,-0.0316 0.98899,-0.10578 1.48105,-0.17415 0.42579,-0.1111 0.85437,-0.2016 1.28726,-0.28112 0.43045,-0.0789 0.85047,-0.19844 1.28364,-0.26407 0.50581,-0.0591 0.99457,-0.20234 1.46709,-0.3886 0.45793,-0.17642 0.88324,-0.39397 1.26814,-0.69919 0.58258,-0.39917 0.89829,-1.01577 1.2237,-1.6216 0.29651,-0.49684 0.47027,-1.05446 0.76688,-1.54978 0.28434,-0.5295 0.49357,-1.09547 0.70176,-1.6583 0.25893,-0.57785 0.48184,-1.16665 0.66095,-1.77405 0.16329,-0.52234 0.3117,-1.04532 0.40772,-1.5844 0.09,-0.46164 0.0969,-0.93253 0.15762,-1.39784 0.11792,-0.60899 0.14679,-1.22126 0.12867,-1.83969 -0.0403,-0.56597 -0.0592,-1.13393 -0.12092,-1.6986 -0.0567,-0.6847 -0.2786,-1.33553 -0.49765,-1.98127 -0.21183,-0.57847 -0.39837,-1.16613 -0.61856,-1.7415 -0.24403,-0.53998 -0.51043,-1.06866 -0.75655,-1.60817 -0.10205,-0.17223 -0.20999,-0.34049 -0.31987,-0.50746 0.0371,0.36584 0.064,0.73295 0.091,1.09967 0.0346,0.16536 0.11333,0.65219 0.13797,0.80615 0.0244,0.15209 0.0479,0.30411 0.0708,0.45631 0.006,0.0141 0.0128,0.0282 0.0191,0.0424 0.21567,0.56614 0.39542,1.14506 0.60616,1.71308 0.20009,0.58977 0.40851,1.18319 0.45837,1.80919 0.0598,0.54341 0.0753,1.09009 0.11576,1.63504 0.0191,0.57518 -0.0141,1.14228 -0.12454,1.70842 -0.0593,0.45291 -0.0683,0.91126 -0.15451,1.36064 -0.0906,0.50941 -0.24091,0.99955 -0.39998,1.49138 -0.15019,0.50451 -0.33563,0.99354 -0.54208,1.4764 -0.005,0.0531 -0.0111,0.10614 -0.0176,0.15916 -0.0141,0.0907 -0.034,0.18024 -0.0563,0.26924 -0.0186,0.0756 -0.037,0.15134 -0.0579,0.22634 -0.0174,0.0622 -0.0354,0.12434 -0.0548,0.18604 -0.0193,0.0615 -0.0411,0.1221 -0.0651,0.1819 -0.0244,0.0622 -0.0498,0.1242 -0.0775,0.185 -0.0264,0.0591 -0.0539,0.11775 -0.0858,0.17415 -0.0285,0.0522 -0.0567,0.10441 -0.0832,0.15761 -0.0131,0.0261 -0.0274,0.0516 -0.0408,0.0775 -0.0146,0.06 -0.0367,0.11821 -0.0532,0.17776 -0.0919,0.21267 -0.22542,0.38602 -0.38395,0.5364 -0.0271,0.0499 -0.0525,0.10048 -0.0744,0.15297 -0.03,0.0721 -0.0576,0.14509 -0.0842,0.21859 -0.0254,0.066 -0.0514,0.13212 -0.0842,0.19482 -0.0246,0.0494 -0.0498,0.0984 -0.0775,0.14624 -0.0285,0.048 -0.0582,0.0955 -0.0853,0.14418 -0.0359,0.0616 -0.0662,0.12595 -0.0982,0.18965 -0.021,0.0421 -0.0425,0.0838 -0.0651,0.12506 l -5.2e-4,5.2e-4 c -0.004,0.01 -0.007,0.0186 -0.0114,0.0263 -0.0171,0.0334 -0.0371,0.0652 -0.0589,0.0956 l -5.1e-4,5.2e-4 c -0.0572,0.0926 -0.11897,0.18208 -0.18552,0.2682 -0.0356,0.046 -0.0713,0.0921 -0.10697,0.13798 -0.16615,0.26111 -0.36018,0.4997 -0.62839,0.68161 -0.31438,0.26102 -0.67578,0.42328 -1.05368,0.57412 -0.38127,0.15635 -0.77802,0.26936 -1.18597,0.32711 -0.0149,0.005 -0.0298,0.01 -0.0444,0.0145 -0.0453,0.0151 -0.0921,0.0266 -0.13901,0.0346 -0.0386,0.008 -0.0775,0.009 -0.11678,0.009 -0.0126,-3.4e-4 -0.0251,-0.001 -0.0377,-0.001 -0.0292,0.006 -0.0587,0.0102 -0.0879,0.016 -0.002,5.2e-4 -0.003,0.001 -0.005,0.002 -0.0521,0.0173 -0.10505,0.0336 -0.15865,0.0455 -0.0538,0.0109 -0.10798,0.0187 -0.16278,0.0227 -0.002,1.4e-4 -0.003,3.7e-4 -0.005,5.1e-4 -0.0246,0.005 -0.0493,0.0106 -0.0739,0.016 -0.0445,0.012 -0.0891,0.0243 -0.13384,0.0357 -0.11879,0.0331 -0.23965,0.0543 -0.36122,0.0718 -0.0261,0.005 -0.0519,0.0119 -0.078,0.017 -0.13929,0.0256 -0.27787,0.0543 -0.41651,0.0822 -10e-4,3.7e-4 -0.002,0.001 -0.003,0.001 -0.16943,0.0567 -0.34235,0.10168 -0.51418,0.15038 -0.14337,0.0358 -0.28344,0.0812 -0.42271,0.13023 -0.11082,0.034 -0.21978,0.074 -0.33021,0.10903 -0.16059,0.0648 -0.32951,0.0992 -0.49868,0.13281 -0.20133,0.0353 -0.40405,0.0636 -0.6072,0.0858 -0.17319,0.023 -0.34787,0.0283 -0.5209,0.0522 -0.15776,0.0172 -0.31498,0.0325 -0.47232,0.0527 -0.11184,0.007 -0.22088,0.0308 -0.32918,0.0579 -0.12564,0.0389 -0.25192,0.0759 -0.37775,0.1142 -0.19796,0.0649 -0.40269,0.0863 -0.60927,0.10025 -0.21537,0.006 -0.43119,-0.017 -0.64389,-0.0486 -0.22705,-0.0331 -0.45082,-0.0828 -0.67386,-0.13591 -0.24581,-0.0613 -0.49325,-0.1152 -0.74,-0.1726 -0.30999,-0.0692 -0.62172,-0.12807 -0.9338,-0.18707 -0.24335,-0.0508 -0.80789,-0.0763 -0.95033,-0.31574 -0.1429,-0.0235 -0.28555,-0.0472 -0.42788,-0.0708 -0.79067,-0.15261 -1.611769,-0.28036 -2.340419,-0.63924 -0.28827,-0.14198 -0.38099,-0.32378 -0.31368,-0.447 -0.38813,-0.13432 -0.767161,-0.29354 -1.119311,-0.50539 -0.152288,-0.0916 -0.240678,-0.18765 -0.272852,-0.27234 -0.188599,-0.10201 -0.376566,-0.20548 -0.560172,-0.31574 -0.108115,-0.0602 -0.215235,-0.12213 -0.320911,-0.18707 -0.395878,-0.24262 -0.8037,-0.48012 -1.143083,-0.80047 -0.06203,-0.0586 -0.111833,-0.11506 -0.150895,-0.16846 -0.06363,-0.0319 -0.126763,-0.0646 -0.188619,-0.0997 -0.240722,-0.13749 -0.485289,-0.27415 -0.690914,-0.4625 -0.214882,-0.21397 -0.385245,-0.45918 -0.480074,-0.75034 -0.0073,-0.023 -0.01418,-0.0462 -0.02119,-0.0693 -0.07556,-0.08 -0.151152,-0.15994 -0.22686,-0.23978 -0.168171,-0.13258 -0.332825,-0.27015 -0.471805,-0.43408 -0.07985,-0.0979 -0.157001,-0.19803 -0.226343,-0.30334 -0.04539,-0.0481 -0.0911,-0.096 -0.136426,-0.14418 -0.204909,-0.24832 -0.35596,-0.52924 -0.504362,-0.81494 -0.294226,-0.56645 -0.565241,-1.14633 -0.825273,-1.72909 -0.350911,-0.72822 -0.746598,-1.43276 -1.112593,-2.15336 -0.344871,-0.75082 -0.59167,-1.5309 -0.696082,-2.35438 -0.102745,-0.78442 -0.143595,-1.57436 -5.16e-4,-2.35799 0.211275,-1.12806 0.445452,-2.26774 0.95343,-3.30574 0.390127,-0.71807 0.828636,-1.4078 1.282609,-2.08721 0.785102,-1.07685 1.630099,-2.12127 2.600875,-3.03703 0.743433,-0.68416 1.573997,-1.24632 2.413806,-1.80505 0.369517,-0.25899 0.730803,-0.53896 1.115694,-0.77515 0.581247,-0.35669 1.205077,-0.63937 1.824177,-0.92191 0.09,-0.0358 0.13442,-0.053 0.20515,-0.0816 0.1936,-0.14802 0.404659,-0.27567 0.613399,-0.39636 0.49942,-0.27949 1.03046,-0.49537 1.57096,-0.68057 0.0319,-0.0102 0.0641,-0.0202 0.0961,-0.03 z" />
    <path
       id="path2362"
       style="fill:#000000;stroke-width:0.874001"
       d="m 99.370251,135.01588 -0.0139,0.2527 c 0.003,-2.4e-4 0.007,-3.1e-4 0.01,-5.1e-4 0.0887,-0.088 0.18488,-0.16854 0.28525,-0.24392 -0.0937,-0.005 -0.18763,-0.009 -0.28112,-0.008 z" />
    <path
       id="path2368"
       style="fill:#000000;stroke-width:0.874001"
       d="m 112.46351,125.58338 c -0.0319,6.3e-4 -0.0638,0.002 -0.0956,0.004 -0.14208,0.0136 -0.28194,0.0437 -0.42478,0.0527 -0.25276,0.0527 -0.44443,0.17459 -0.67232,0.28939 -0.22689,0.10167 -0.4452,0.22186 -0.67747,0.31161 -0.27907,0.11653 -0.5612,0.2244 -0.85215,0.30799 -0.33568,0.11739 -0.66602,0.24987 -1.0051,0.3576 -0.37838,0.15684 -0.73978,0.3445 -1.10433,0.5302 -0.55911,0.27901 -1.11263,0.5739 -1.63866,0.91157 -0.33912,0.22341 -0.67927,0.4451 -1.02526,0.65784 -0.51729,0.35912 -1.00085,0.76345 -1.53324,1.10071 -0.4195,0.27202 -0.84256,0.53984 -1.22525,0.86351 -0.43275,0.36381 -0.89636,0.69123 -1.30121,1.08728 -0.40991,0.4133 -0.83081,0.81711 -1.211809,1.2578 -0.27848,0.31746 -0.54245,0.64615 -0.79892,0.98133 -0.0646,0.0753 -0.129,0.10206 -0.1974,0.17002 -0.22959,0.22809 -0.36174,0.53815 -0.54674,0.79788 l 0.20877,0.13023 c 0.18606,-0.23174 0.30662,-0.54541 0.54467,-0.73742 0.027,-0.0218 0.0676,-0.0211 0.0951,-0.0424 0.0395,-0.0306 0.074,-0.0672 0.1111,-0.10077 0.27772,-0.32305 0.54713,-0.65234 0.84439,-0.95808 0.404019,-0.41124 0.821049,-0.80964 1.235589,-1.21026 0.40593,-0.37716 0.86001,-0.69556 1.28932,-1.0449 0.37246,-0.30961 0.78747,-0.55906 1.19373,-0.8201 0.54239,-0.32751 1.03291,-0.72972 1.56063,-1.07901 0.34694,-0.20303 0.6868,-0.41672 1.02836,-0.62838 0.52027,-0.30871 1.05751,-0.59019 1.60404,-0.84956 0.36134,-0.16421 0.71523,-0.34151 1.08313,-0.49145 0.33031,-0.1 0.65151,-0.22699 0.97772,-0.33899 0.30245,-0.0863 0.59761,-0.19388 0.8878,-0.31471 0.23751,-0.09 0.46193,-0.20912 0.6935,-0.31264 0.12448,-0.0387 0.41647,-0.25082 0.52762,-0.23927 0.12517,0.007 0.24823,-0.0383 0.37207,-0.0377 0.0958,-0.004 0.19198,-0.003 0.28732,0.008 -0.059,-0.005 0.1425,0.0445 0.0894,0.03 0.11715,0.0316 0.21926,0.0779 0.32091,0.14211 0.13636,0.1287 0.2576,0.27438 0.37827,0.41807 0.13099,0.19123 0.24374,0.39597 0.36587,0.59376 0.14027,0.28146 0.26608,0.57061 0.39481,0.85783 0.11803,0.26409 0.1842,0.54534 0.27853,0.81752 0.0689,0.25518 0.15697,0.50235 0.26459,0.74362 0.0816,0.21589 0.14062,0.43911 0.2036,0.66094 0.0809,0.42833 0.13588,0.8608 0.21859,1.28881 0.12353,0.54863 0.15168,1.11166 0.24908,1.66398 0.1202,0.48157 0.23881,0.96354 0.29973,1.45676 0.0335,0.40229 0.0794,0.8033 0.13591,1.20303 0.007,0.0599 0.0156,0.11922 0.0207,0.17932 0.005,0.06 0.014,0.31942 0.017,0.36173 0.0155,0.21885 0.0432,0.4349 0.0522,0.65423 0.0155,0.34056 0.0513,0.67861 0.0584,1.01957 -0.009,0.40244 -0.0347,0.80117 -0.007,1.20355 0.0242,0.26314 -0.002,0.53221 0.0351,0.79426 0.009,0.0589 0.0245,0.11668 0.0351,0.17519 0.0209,0.24165 0.0974,0.47173 0.14831,0.70693 0.0422,0.22547 0.0362,0.45421 0.0755,0.68058 0.0482,0.21144 0.10602,0.41798 0.11989,0.6351 0.0352,0.19741 0.0404,0.39821 0.0713,0.59583 0.0505,0.15576 0.0523,0.31685 0.06,0.47853 0.0135,0.16408 0.0533,0.32307 0.0739,0.48627 0.005,0.0271 0.009,0.0541 0.0155,0.0811 0.003,0.0158 0.0613,0.21422 0.0491,0.17622 0.002,0.10455 0.0409,0.23157 0.0558,0.31936 -0.0156,0.0807 0.0286,0.2013 0.0553,0.29249 -0.007,0.0893 0.0188,0.17776 0.0465,0.262 0.0739,0.18755 0.0951,0.068 0.19121,0.12402 0.11608,0.0676 0.11004,0.14458 0.13797,0.2589 l 0.0548,0.0145 c 0.0729,-0.0883 0.1998,-0.23661 0.25425,-0.32763 0.0337,-0.0564 0.0511,-0.12141 0.0801,-0.18035 0.034,-0.0691 0.0272,-0.003 0.0253,-0.0786 -0.0153,-0.097 -0.0147,-0.19747 -0.0429,-0.2992 -0.005,-0.0168 -0.0145,-0.0448 -0.0248,-0.0713 -5.3e-4,-0.0624 -0.003,-0.12728 -0.002,-0.0801 -0.0164,-0.108 -0.0471,-0.21195 -0.0563,-0.32091 -0.0132,-0.0929 -0.041,-0.17884 -0.0651,-0.2682 -0.0184,-0.14439 -0.0483,-0.28573 -0.0677,-0.42943 -0.0112,-0.19128 -0.0121,-0.38503 -0.0713,-0.56947 -0.0364,-0.16972 -0.0206,-0.34894 -0.0615,-0.51883 -0.0185,-0.24461 -0.0709,-0.48025 -0.13229,-0.71727 -0.0451,-0.23686 -0.0198,-0.48171 -0.0837,-0.71624 -0.0535,-0.22643 -0.12064,-0.4493 -0.14521,-0.68213 -0.0587,-0.28779 -0.0452,-0.58299 -0.0651,-0.87643 -0.0311,-0.39114 -0.003,-0.78074 -0.009,-1.17254 -0.0145,-0.34687 -0.0568,-0.68884 -0.0853,-1.03456 -0.0142,-0.21821 -0.0437,-0.43342 -0.062,-0.65112 -0.0123,-0.14671 -0.0115,-0.26455 -0.0253,-0.41083 -0.006,-0.0654 -0.0165,-0.13067 -0.0248,-0.19586 -0.0585,-0.39565 -0.10122,-0.7929 -0.13797,-1.19114 -0.0669,-0.5045 -0.18161,-0.99943 -0.31058,-1.49138 -0.10323,-0.55438 -0.1285,-1.1218 -0.26665,-1.6707 -0.0886,-0.44659 -0.1421,-0.89927 -0.23978,-1.3441 -0.0735,-0.25257 -0.14693,-0.50547 -0.24908,-0.74828 -0.1036,-0.22248 -0.18622,-0.4518 -0.26045,-0.68574 -0.1054,-0.28745 -0.18611,-0.5839 -0.31419,-0.863 -0.14354,-0.30812 -0.27785,-0.62083 -0.43615,-0.92139 -0.13729,-0.22528 -0.26461,-0.45889 -0.42323,-0.66973 -0.16165,-0.18888 -0.3222,-0.38503 -0.5209,-0.53588 -0.13161,-0.084 -0.26806,-0.15222 -0.41961,-0.19172 -0.0865,-0.0322 -0.17751,-0.0509 -0.2682,-0.0682 -0.0636,-0.005 -0.12694,-0.007 -0.19069,-0.008 -0.0319,-4.3e-4 -0.0637,-6.2e-4 -0.0956,0 z" />
    <path
       style="fill:#000000;stroke-width:0.874001"
       id="path2471"
       d="m 96.912023,150.43444 c 0.05003,0.2633 -0.01336,0.53504 0.02064,0.79943 0.0077,0.0597 -0.004,0.16757 0.05596,0.17155 0.531138,0.0353 0.5554,-0.12387 0.816498,-0.45386 0.0673,-0.085 0.1335,-0.17088 0.20025,-0.25632 0.0877,-0.13761 0.0653,-0.0783 0.0927,-0.1662 0,0 0.0243,-0.0512 0.0243,-0.0512 v 0 c -0.29365,-0.1986 -0.14684,-0.19589 -0.43664,-0.058 -0.0425,0.0449 -0.470272,0.48758 -0.474903,0.53647 -0.01005,0.10626 0.133231,0.16722 0.191342,0.25675 0.004,0.006 -0.02069,0.0122 -0.02154,0.005 -0.03106,-0.26773 0.0019,-0.54069 -0.03862,-0.80766 0,0 -0.429991,0.0241 -0.429991,0.0241 z" />
    <path
       style="fill:#000000;stroke-width:0.874001"
       id="path2473"
       d="m 103.5202,154.24425 c 0.69145,-0.39178 0.40926,-0.17094 0.87867,-0.61933 0,0 -0.0271,-0.0497 -0.0271,-0.0497 v 0 c -0.61008,0.14141 -0.28045,0.0411 -0.97892,0.33197 0,0 0.12735,0.3371 0.12735,0.3371 z" />
    <path
       style="fill:#000000;stroke-width:0.874001"
       id="path2475"
       d="m 109.69848,154.73293 c 0.023,0.0671 0.24599,0.76124 0.33372,0.88859 0.0456,0.0662 0.11391,0.16143 0.19257,0.14501 0.313,-0.0653 0.41057,-0.35404 0.53998,-0.58423 0.054,-0.096 0.10895,-0.1914 0.16343,-0.2871 0.009,-0.0739 0.0182,-0.14776 0.0273,-0.22165 0,0 -0.0402,-0.0399 -0.0402,-0.0399 v 0 c -0.0895,0.0254 -0.17898,0.0508 -0.26847,0.0763 -0.0688,0.0921 -0.36936,0.46613 -0.3841,0.59653 -0.007,0.0578 0.0917,0.0761 0.1194,0.12722 0.008,0.0145 -0.0193,0.0542 -0.0285,0.0405 -0.12901,-0.19289 -0.29172,-0.67239 -0.3569,-0.84415 0,0 -0.29818,0.10289 -0.29818,0.10289 z" />
    <path
       style="fill:#000000;stroke-width:0.874001"
       id="path2477"
       d="m 98.522421,156.69794 c 0.072,0.2615 -0.004,0.54807 0.059,0.8121 0.0136,0.0569 0.0276,0.14513 0.0855,0.15334 0.28534,0.0404 0.37049,-0.13945 0.51433,-0.31218 0.0549,-0.066 0.10914,-0.13254 0.16372,-0.19881 0.0331,-0.0471 0.0661,-0.0943 0.0992,-0.14146 0,0 -0.0279,-0.0493 -0.0279,-0.0493 v 0 c -0.0714,0.0119 -0.14282,0.0238 -0.21423,0.0356 -0.067,0.048 -0.38653,0.25213 -0.41084,0.36153 -0.012,0.0538 0.0785,0.0794 0.10539,0.12751 0.006,0.0111 -0.0345,0.006 -0.0375,-0.006 -0.0239,-0.0968 -0.0913,-0.80141 -0.0915,-0.80332 0,0 -0.24517,0.0213 -0.24517,0.0213 z" />
    <path
       style="fill:#000000;stroke-width:0.874001"
       id="path2479"
       d="m 104.95309,158.76605 c 0.10657,0.28703 0.25274,1.00926 0.76721,0.77306 0.15694,-0.072 0.25127,-0.23827 0.3606,-0.37194 0.164,-0.20049 0.33246,-0.50786 0.46461,-0.73519 0.0356,-0.0607 0.0711,-0.12134 0.10671,-0.18201 0,0 -0.0334,-0.0458 -0.0334,-0.0458 v 0 c -0.0833,0.0261 -0.16667,0.0522 -0.25,0.0783 -0.38403,0.32706 -0.29123,0.20778 -0.59069,0.63022 -0.0552,0.0778 -0.12015,0.1519 -0.15451,0.2409 -0.0146,0.0378 0.0514,0.13828 0.0149,0.12071 -0.17336,-0.0833 -0.30043,-0.533 -0.33717,-0.6246 0,0 -0.34827,0.11635 -0.34827,0.11635 z" />
    <path
       style="fill:#000000;stroke-width:0.874001"
       id="path2481"
       d="m 101.38822,146.77471 c 0.0468,0.15997 0.0894,0.3212 0.14025,0.47991 0.0383,0.11949 0.10076,0.49597 0.37981,0.35706 0.15099,-0.0752 0.27955,-0.4854 0.34344,-0.62448 0.0363,-0.0789 0.0807,-0.15388 0.12104,-0.23082 0.1317,-0.13751 0.0673,-0.0811 0.18771,-0.17527 0,0 -0.003,-0.0566 -0.003,-0.0566 v 0 c -0.28263,-0.0663 -0.14061,-0.0817 -0.42,0.0852 -0.15235,0.21381 -0.23246,0.28675 -0.30389,0.54628 -0.0133,0.0482 -0.0134,0.10209 8e-4,0.15006 0.0137,0.0464 0.0893,0.16871 0.0794,0.12138 -0.0524,-0.25168 -0.29076,-0.44621 -0.25452,-0.72804 0,0 -0.27098,0.0753 -0.27098,0.0753 z" />
    <path
       style="fill:#000000;stroke-width:0.874001"
       id="path2483"
       d="m 108.25196,149.21781 c 0.10164,0.30524 0.0483,0.6411 0.13096,0.94983 0.0193,0.072 0.0324,0.19192 0.10686,0.1965 0.44067,0.0271 0.58415,-0.33275 0.80239,-0.61314 0.12354,-0.15872 0.24854,-0.3163 0.37281,-0.47445 -0.15358,0.58201 0.49422,-0.75021 0.37912,-0.50084 0,0 0.0466,-0.0323 0.0466,-0.0323 v 0 c -0.0367,-0.038 -0.0578,-0.10675 -0.11015,-0.11412 -0.28559,-0.0402 -0.46084,0.2407 -0.62842,0.39896 -0.022,0.0275 -0.68055,0.83525 -0.70296,0.9153 -0.0217,0.0775 0.10702,0.12257 0.1425,0.19476 0.01,0.0194 -0.0531,-0.005 -0.0595,-0.0259 -0.096,-0.30895 -0.0645,-0.64921 -0.17447,-0.9547 0,0 -0.30567,0.0601 -0.30567,0.0601 z" />
    <path
       style="fill:#000000;stroke-width:0.874001"
       id="path2485"
       d="m 114.92825,150.55487 c 0.63931,-0.37084 0.38403,-0.15625 0.80103,-0.59942 0,0 -0.0298,-0.0482 -0.0298,-0.0482 v 0 c -0.5399,0.14959 -0.24501,0.0588 -0.88106,0.28393 0,0 0.10982,0.36366 0.10982,0.36366 z" />
    <path
       style="fill:#000000;stroke-width:0.874001"
       id="path2487"
       d="m 110.10816,142.59214 c 0.0761,0.1452 0.12653,0.3071 0.22833,0.43559 0.22035,0.27812 0.46257,0.36667 0.78972,0.10594 0.15014,-0.11965 0.43966,-0.69271 0.55025,-0.90016 0,0 -0.0474,-0.031 -0.0474,-0.031 v 0 c -0.45323,0.57054 -0.0295,0.0868 -0.64636,0.63065 -0.0529,0.0466 -0.07,0.15122 -0.14008,0.1584 -0.22175,0.0227 -0.40323,-0.4666 -0.43507,-0.52395 0,0 -0.29936,0.1245 -0.29936,0.1245 z" />
    <path
       style="fill:#000000;stroke-width:0.874001"
       id="path2489"
       d="m 104.94233,141.45256 c 0.0811,0.30017 0.21524,0.82317 0.32298,1.11871 0.0438,0.12 0.0867,0.2431 0.15804,0.34907 0.0458,0.0681 0.10362,0.16009 0.18568,0.16174 0.368,0.007 0.44296,-0.25897 0.60192,-0.50568 0.0991,-0.21645 0.26986,-0.531 0.29553,-0.78399 0.006,-0.0565 -0.0312,-0.10913 -0.0468,-0.1637 0,0 -0.0543,-0.016 -0.0543,-0.016 v 0 c -0.0405,0.0298 -0.0917,0.0488 -0.12143,0.0893 -0.0776,0.10551 -0.3197,0.60984 -0.3629,0.69715 -0.0523,0.0919 -0.1046,0.18372 -0.15691,0.27559 0.0111,0.0459 0.0542,0.0952 0.0335,0.13766 -0.0134,0.0273 -0.069,-0.004 -0.0867,-0.0286 -0.0668,-0.0934 -0.11118,-0.20156 -0.15422,-0.308 -0.0703,-0.17387 -0.12559,-0.35345 -0.18514,-0.53129 -0.063,-0.18819 -0.12166,-0.37782 -0.1825,-0.56673 0,0 -0.2467,0.0749 -0.2467,0.0749 z" />
    <path
       style="fill:#000000;stroke-width:0.874001"
       id="path2491"
       d="m 96.232661,145.28478 c 0.145306,0.26923 0.39938,0.98729 0.880425,0.732 0.301686,-0.16011 0.511672,-0.75245 0.627795,-1.05837 -0.0158,-0.063 -0.0316,-0.12591 -0.0474,-0.18886 0,0 -0.0526,-0.0209 -0.0526,-0.0209 v 0 c -0.05302,0.031 -0.106031,0.0619 -0.159043,0.0929 -0.20475,0.3863 -0.101613,0.18825 -0.32259,0.62152 -0.03955,0.0775 -0.07487,0.15739 -0.118584,0.23266 -0.01968,0.0339 -0.03393,0.1065 -0.07095,0.0937 -0.216776,-0.075 -0.387136,-0.49224 -0.461764,-0.62583 0,0 -0.275286,0.12118 -0.275286,0.12118 z" />
    <path
       style="fill:#000000;stroke-width:0.874001"
       id="path2493"
       d="m 98.509301,140.34515 c 0.0504,0.22561 0.12387,1.12798 0.60429,1.00619 0.15657,-0.0397 0.27214,-0.17748 0.38884,-0.28916 0.0635,-0.0608 0.531529,-0.66539 0.590019,-0.74033 0.0549,-0.0961 0.10986,-0.19223 0.16479,-0.28835 0,0 -0.0375,-0.0424 -0.0375,-0.0424 v 0 c -0.11012,0.0497 -0.220249,0.0994 -0.330369,0.14916 -0.30355,0.29796 -0.37049,0.34115 -0.62255,0.67301 -0.0474,0.0624 -0.0845,0.13206 -0.12627,0.19835 -0.0166,0.0263 -0.0267,0.10101 -0.0488,0.0793 -0.17297,-0.1695 -0.22583,-0.61779 -0.26543,-0.79173 0,0 -0.31699,0.046 -0.31699,0.046 z" />
    <path
       style="fill:#000000;stroke-width:0.874001"
       id="path2495"
       d="m 103.31224,136.8186 c 0.0551,0.13324 0.0669,0.2942 0.16519,0.39971 0.28682,0.30799 0.5703,0.1321 0.82569,-0.11154 0.12618,-0.12037 0.18814,-0.29368 0.28221,-0.44051 0,0 -0.041,-0.0391 -0.041,-0.0391 v 0 c -0.12892,0.0874 -0.26134,0.16975 -0.38676,0.26207 -0.082,0.0604 -0.14439,0.14882 -0.23492,0.19559 -0.0485,0.025 -0.12456,0.0486 -0.16334,0.0102 -0.0836,-0.0827 -0.0996,-0.21303 -0.14936,-0.31955 0,0 -0.29768,0.0431 -0.29768,0.0431 z" />
    <path
       style="fill:#000000;stroke-width:0.874001"
       id="path2497"
       d="m 109.37981,137.17806 c 0.65478,-0.0265 0.36119,0.002 0.88238,-0.0685 0,0 -0.004,-0.0565 -0.004,-0.0565 v 0 c -0.49826,0.004 -0.22313,0.0232 -0.82251,-0.0896 0,0 -0.0557,0.21456 -0.0557,0.21456 z" />
    <path
       style="fill:#000000;stroke-width:0.874001"
       id="path2499"
       d="m 107.10312,133.85514 c 0.16231,0.20482 0.5221,0.83684 0.87989,0.45665 0.0782,-0.0831 0.0765,-0.215 0.11467,-0.3225 0,0 -0.0502,-0.0263 -0.0502,-0.0263 v 0 c -0.0503,0.0615 -0.0984,0.12488 -0.15086,0.18456 -0.0281,0.032 -0.0484,0.0965 -0.0905,0.0901 -0.21647,-0.0332 -0.43747,-0.39072 -0.52936,-0.50396 0,0 -0.17366,0.12145 -0.17366,0.12145 z" />
    <path
       style="fill:#000000;stroke-width:0.874001"
       id="path2501"
       d="m 111.82141,133.25474 c 0.13976,0.007 0.27953,0.0131 0.4193,0.0197 0,0 0.0139,-0.0549 0.0139,-0.0549 v 0 c -0.12615,-0.0605 -0.2523,-0.12107 -0.37844,-0.1816 0,0 -0.0547,0.21684 -0.0547,0.21684 z" />
    <path
       style="fill:#b3b3b3;stroke-width:0.244781"
       d="m 104.26528,163.06468 c -0.20379,-0.0566 -0.81865,-0.18988 -1.36637,-0.29626 -0.54772,-0.10639 -1.11459,-0.24319 -1.25973,-0.304 -0.14513,-0.0608 -0.64735,-0.18888 -1.11605,-0.2846 -0.841856,-0.17194 -1.77788,-0.47834 -1.984096,-0.64948 -0.0584,-0.0485 -0.135237,-0.16453 -0.170736,-0.25791 -0.0355,-0.0934 -0.116345,-0.16977 -0.179649,-0.16977 -0.19099,0 -0.951984,-0.41686 -1.122977,-0.61515 -0.08796,-0.102 -0.279699,-0.22877 -0.426085,-0.2817 -0.146383,-0.0529 -0.266155,-0.12289 -0.266155,-0.15546 0,-0.0326 -0.03731,-0.0592 -0.0829,-0.0592 -0.11561,0 -1.266685,-0.81162 -1.384805,-0.97643 -0.05326,-0.0743 -0.130972,-0.13509 -0.172699,-0.13509 -0.04173,0 -0.257392,-0.1205 -0.479259,-0.26776 -0.384492,-0.25521 -0.770302,-0.75696 -0.770302,-1.00178 0,-0.0594 -0.168376,-0.23635 -0.374171,-0.39329 -0.205796,-0.15694 -0.419296,-0.37221 -0.474446,-0.47837 -0.05515,-0.10615 -0.202202,-0.32094 -0.326781,-0.47729 -0.365985,-0.45933 -2.578487,-4.99853 -2.786846,-5.71754 -0.216061,-0.74559 -0.335907,-1.61982 -0.335016,-2.44384 7.94e-4,-0.75824 0.354868,-2.52543 0.698675,-3.48736 0.689301,-1.92858 3.059835,-5.08515 4.895366,-6.5186 0.50991,-0.39821 1.583894,-1.16149 2.675337,-1.90135 0.372986,-0.25284 1.775928,-0.96062 1.858822,-0.93777 0.03308,0.009 0.317614,-0.1535 0.632285,-0.36137 0.314668,-0.20787 0.893598,-0.50518 1.286508,-0.66069 0.39291,-0.15551 0.6793,-0.29444 0.63644,-0.30873 -0.15334,-0.0511 -1.46204,0.21476 -2.083939,0.42336 -0.348395,0.11686 -0.642445,0.20396 -0.653446,0.19355 -0.01101,-0.0104 0.418994,-0.47565 0.955545,-1.03388 1.40725,-1.46414 2.46709,-2.28462 5.4943,-4.25345 1.12953,-0.73463 2.9119,-1.6116 4.16671,-2.05014 0.57059,-0.19941 1.30451,-0.48468 1.63093,-0.63394 1.04833,-0.47933 1.44616,-0.45658 1.94603,0.1113 0.67674,0.76883 1.52138,3.07798 1.83019,5.00358 0.10785,0.67247 0.2757,1.6395 0.37301,2.14895 0.31011,1.62361 0.48144,3.50089 0.48144,5.27511 0,0.65393 0.0429,1.3216 0.10529,1.638 0.19622,0.99534 0.26667,1.51648 0.30167,2.23174 0.0532,1.08754 0.24476,2.04884 0.60515,3.03733 0.52809,1.4485 0.68192,2.06511 0.77346,3.10042 0.19288,2.18147 -0.12384,4.47369 -0.89855,6.50308 -0.11673,0.30581 -0.26362,0.78139 -0.32641,1.05686 -0.0628,0.27547 -0.19794,0.66617 -0.30034,0.86823 -0.10239,0.20206 -0.18616,0.41595 -0.18616,0.47531 0,0.0594 -0.0796,0.20256 -0.17694,0.31822 -0.0973,0.11565 -0.33342,0.51002 -0.52467,0.87638 -0.59406,1.13799 -1.04114,1.65651 -1.75748,2.03832 -0.62891,0.3352 -1.13759,0.49131 -2.30831,0.70837 -0.57727,0.10703 -1.44975,0.32364 -1.93882,0.48135 -0.62322,0.20098 -1.22172,0.33007 -2.00075,0.43155 -0.61134,0.0796 -1.20539,0.18062 -1.32013,0.22441 -0.28916,0.11038 -1.34531,0.0908 -1.79214,-0.0332 z m 1.67288,-3.67235 c 0.26311,-0.28166 0.75602,-1.08285 0.72279,-1.17485 -0.0524,-0.14523 -0.50858,0.15002 -0.77808,0.50366 -0.15607,0.20478 -0.30551,0.37423 -0.33209,0.37655 -0.0266,0.002 -0.0832,-0.0958 -0.12583,-0.21808 -0.0759,-0.21785 -0.18351,-0.26524 -0.40724,-0.17939 -0.0989,0.038 -0.0994,0.0782 -0.004,0.34831 0.21775,0.61716 0.55281,0.74176 0.92455,0.3438 z m -6.716769,-2.02091 c 0.145376,-0.17742 0.264319,-0.34415 0.264319,-0.37051 0,-0.0956 -0.35469,-0.0451 -0.444611,0.0632 -0.148421,0.17883 -0.222305,0.12957 -0.222305,-0.14821 0,-0.20995 -0.02823,-0.25936 -0.148204,-0.25936 -0.129969,0 -0.148204,0.0494 -0.148204,0.4015 0,0.51476 0.04998,0.63593 0.262324,0.63593 0.113541,0 0.26257,-0.11009 0.436681,-0.32256 z M 110.7304,155.326 c 0.22257,-0.37322 0.3175,-0.75146 0.18551,-0.73909 -0.1651,0.0155 -0.32819,0.13206 -0.48823,0.34904 l -0.17931,0.2431 -0.11877,-0.29686 c -0.11553,-0.28873 -0.17636,-0.31323 -0.4342,-0.17488 -0.0585,0.0314 0.21209,0.81641 0.3348,0.97114 0.16644,0.20988 0.44996,0.0672 0.7002,-0.35245 z m -5.90936,-0.7443 c 0,-0.0408 -0.0147,-0.0741 -0.0327,-0.0741 -0.018,0 -0.0533,0.0334 -0.0785,0.0741 -0.0252,0.0408 -0.0105,0.0741 0.0327,0.0741 0.0432,0 0.0785,-0.0334 0.0785,-0.0741 z m -0.81971,-0.57655 c 0.51031,-0.34904 0.57855,-0.50163 0.1919,-0.4291 -0.21674,0.0407 -0.58722,0.17695 -0.83848,0.30844 -0.0371,0.0194 0.15425,0.40091 0.19993,0.39854 0.024,-0.001 0.22501,-0.12628 0.44665,-0.27788 z m -6.393481,-2.76905 c 0.09188,-0.0863 0.256209,-0.28559 0.365167,-0.44281 0.163012,-0.23523 0.181665,-0.30567 0.105307,-0.39768 -0.125254,-0.15092 -0.240173,-0.14075 -0.472215,0.0418 -0.16758,0.13182 -0.19525,0.13641 -0.19525,0.0324 0,-0.0921 -0.0578,-0.11565 -0.240831,-0.098 -0.238848,0.023 -0.241015,0.0268 -0.263359,0.45954 -0.01238,0.23997 -0.0035,0.48579 0.01966,0.54627 0.05749,0.14981 0.460534,0.0662 0.681514,-0.14144 z m 17.706001,-0.86585 c 0.15895,-0.11547 0.33476,-0.26552 0.3907,-0.33345 0.0888,-0.1078 0.0834,-0.12351 -0.0424,-0.12351 -0.25411,0 -0.83739,0.2329 -0.83739,0.33436 0,0.14481 0.0819,0.33256 0.14501,0.33256 0.0303,0 0.1851,-0.0945 0.34405,-0.20996 z m -6.57902,-0.0187 c 0.14405,-0.0502 0.35291,-0.24476 0.55562,-0.51755 0.17865,-0.24041 0.34247,-0.41944 0.36406,-0.39786 0.0534,0.0534 0.42775,-0.59449 0.42775,-0.74018 0,-0.34325 -0.56877,0.0259 -1.08659,0.70517 l -0.28429,0.37293 -0.0535,-0.31112 c -0.0643,-0.37406 -0.0605,-0.36952 -0.26272,-0.31664 -0.15051,0.0394 -0.15839,0.0732 -0.11565,0.49725 0.043,0.42632 0.13329,0.78847 0.19663,0.78847 0.0153,0 0.1317,-0.0362 0.25864,-0.0805 z m -6.56358,-3.09936 c 0.11172,-0.22055 0.25932,-0.4631 0.328,-0.53899 0.0978,-0.10806 0.1054,-0.15745 0.0351,-0.22777 -0.13039,-0.13039 -0.44206,0.0661 -0.61269,0.38634 l -0.13642,0.256 -0.0479,-0.2394 c -0.0404,-0.20181 -0.0725,-0.23184 -0.20496,-0.19122 -0.0864,0.0265 -0.16419,0.0539 -0.17288,0.061 -0.009,0.007 0.0328,0.17432 0.0922,0.37176 0.2083,0.69215 0.41323,0.72699 0.71952,0.12232 z m -4.895734,-1.31845 c 0.140227,-0.12297 0.505852,-0.86018 0.505852,-1.01996 0,-0.0576 -0.03034,-0.1235 -0.06742,-0.14642 -0.141433,-0.0874 -0.286274,0.0547 -0.489927,0.48084 -0.116009,0.24272 -0.249562,0.4413 -0.296785,0.4413 -0.04722,0 -0.148709,-0.11671 -0.225531,-0.25935 -0.144719,-0.26873 -0.374018,-0.34538 -0.448961,-0.15009 -0.05063,0.13195 0.219681,0.58888 0.439423,0.74279 0.170293,0.11928 0.382698,0.0868 0.583345,-0.0891 z m 13.771994,-2.69063 c 0.1527,-0.0817 0.69549,-0.95649 0.63256,-1.01943 -0.0364,-0.0364 -0.68681,0.51887 -0.79669,0.68023 -0.0625,0.0918 -0.33373,-0.13821 -0.39666,-0.33646 -0.0521,-0.16408 -0.10799,-0.17194 -0.28784,-0.0404 -0.12538,0.0917 -0.12632,0.11291 -0.0146,0.32897 0.20873,0.40364 0.54803,0.55581 0.86322,0.38713 z m -5.03353,-0.30269 c 0.0855,-0.0855 0.23559,-0.33657 0.33345,-0.55787 0.38425,-0.86885 0.0926,-1.06707 -0.34076,-0.23161 -0.14265,0.27499 -0.28159,0.50008 -0.30876,0.50019 -0.0272,1.4e-4 -0.14734,-0.29158 -0.26704,-0.64819 -0.18109,-0.53949 -0.24125,-0.6441 -0.35816,-0.62282 -0.0773,0.0141 -0.14927,0.0339 -0.15996,0.0441 -0.0412,0.0393 0.36734,1.34681 0.47019,1.50495 0.13747,0.21138 0.42575,0.2165 0.63104,0.0112 z m -6.487968,-1.87372 c 0.309573,-0.32308 0.774818,-0.95287 0.774818,-1.04884 0,-0.0276 -0.0917,-0.0277 -0.20378,-5e-5 -0.236256,0.0582 -0.627969,0.41317 -0.848634,0.76901 -0.173945,0.2805 -0.243906,0.231 -0.321344,-0.22735 -0.04204,-0.24885 -0.07095,-0.2794 -0.264409,-0.2794 -0.198485,0 -0.213315,0.0176 -0.172085,0.20378 0.219115,0.98966 0.496199,1.14563 1.035434,0.58285 z m 4.804738,-3.97322 c 0.14739,-0.16314 0.26798,-0.34851 0.26798,-0.41193 0,-0.12565 -0.0539,-0.10574 -0.40756,0.15044 -0.38664,0.28011 -0.40327,0.28263 -0.48283,0.0734 -0.0515,-0.1354 -0.11142,-0.18326 -0.19117,-0.15266 -0.0639,0.0245 -0.14905,0.0446 -0.18922,0.0446 -0.0414,0 -0.051,0.0722 -0.0222,0.16673 0.15877,0.52101 0.6188,0.57911 1.02503,0.12946 z m 5.96765,0.0269 c 0.0682,-0.059 -0.0512,-0.0872 -0.47334,-0.11192 -0.37376,-0.0219 -0.4465,-0.006 -0.46846,0.10318 -0.0233,0.11567 0.0228,0.12423 0.44246,0.0823 0.25765,-0.0258 0.48235,-0.0589 0.49934,-0.0735 z m -2.2214,-2.94002 c 0.0937,-0.24783 -0.002,-0.31833 -0.1626,-0.11988 l -0.1435,0.17722 -0.26037,-0.28411 c -0.21938,-0.23939 -0.2762,-0.26826 -0.36103,-0.18343 -0.0848,0.0848 -0.0703,0.1395 0.0924,0.34738 0.3229,0.41258 0.69231,0.44037 0.83509,0.0628 z m 4.22832,-0.92806 c 0,-0.0872 -0.36699,-0.24512 -0.45016,-0.19372 -0.17138,0.10592 -0.0595,0.25593 0.1908,0.25593 0.14265,0 0.25936,-0.028 0.25936,-0.0622 z"
       id="path2574" />
    <path
       style="fill:#999999;stroke-width:0.244781"
       d="m 102.01573,176.18237 c -0.20075,-0.70993 -0.61454,-2.60523 -0.78465,-3.59393 -0.21558,-1.253 -0.5495,-2.50388 -1.06412,-3.98627 l -0.367732,-1.05924 0.181092,-0.68215 c 0.0996,-0.37518 0.18699,-0.87716 0.19421,-1.11552 0.0117,-0.38779 -0.008,-0.45159 -0.188257,-0.60659 -0.322974,-0.27781 -0.75324,-0.29823 -2.125274,-0.10087 -1.055092,0.15177 -1.525884,0.17739 -3.34011,0.18178 -1.774622,0.004 -2.169674,0.025 -2.47364,0.12949 -0.198959,0.0684 -0.94924,0.20974 -1.667293,0.31407 -1.505612,0.21875 -2.713625,0.49913 -3.967718,0.92089 -0.48605,0.16347 -0.897512,0.28342 -0.914361,0.26658 -0.0916,-0.0916 2.259868,-1.81436 3.354224,-2.45742 0.326049,-0.19159 1.117073,-0.65997 1.757833,-1.04085 1.812658,-1.07746 2.473791,-1.27983 4.980535,-1.52449 0.168484,-0.0164 0.23004,-0.0688 0.273537,-0.23272 0.08186,-0.30847 -0.119755,-0.47253 -1.316852,-1.07154 -1.300496,-0.65076 -2.332919,-1.05587 -4.280445,-1.67961 -1.947384,-0.62369 -3.136464,-1.10467 -3.733768,-1.51029 -0.508429,-0.34527 -2.015795,-1.78838 -2.015795,-1.92987 0,-0.10287 0.0994,-0.0891 1.662216,0.23059 0.60855,0.12448 2.045221,0.39705 3.192603,0.60571 l 2.086152,0.37938 1.139447,1.21635 c 1.655294,1.767 2.698025,2.60007 4.462478,3.5652 0.398013,0.21771 0.698124,0.41888 0.666917,0.44705 -0.03121,0.0282 -0.429083,0.1739 -0.884161,0.32386 -1.038884,0.34231 -2.025502,0.81277 -2.025502,0.96583 0,0.20052 0.602451,0.13571 1.42539,-0.15333 0.418338,-0.14693 1.117002,-0.37914 1.552588,-0.51602 l 0.791977,-0.24888 0.555377,0.2566 c 0.50483,0.23325 1.895222,0.62692 2.215032,0.62715 0.10854,8e-5 0.12382,0.0469 0.0907,0.27798 -0.0866,0.60375 -0.15999,1.71433 -0.12895,1.95271 0.0181,0.1385 0.13309,0.5686 0.25569,0.95578 0.19019,0.60068 0.23114,0.87602 0.27906,1.87657 0.042,0.87677 0.0838,1.2002 0.16555,1.28198 0.0964,0.0964 0.12177,0.0945 0.21416,-0.0167 0.0783,-0.0942 0.11105,-0.4304 0.12956,-1.33042 l 0.0248,-1.20434 -0.26561,-0.76924 c -0.25666,-0.74331 -0.26561,-0.80506 -0.26561,-1.83238 v -1.06314 l 0.27788,0.0406 c 1.65121,0.24128 1.81944,0.28063 2.08467,0.4876 0.68707,0.53615 3.05449,2.00814 4.00161,2.48808 0.49222,0.24943 0.77742,0.23264 0.80977,-0.0477 0.02,-0.17327 -0.0249,-0.22476 -0.33346,-0.3826 -0.19611,-0.10031 -1.1278,-0.64604 -2.07043,-1.21275 l -1.71386,-1.03037 1.93617,-0.0894 c 1.06489,-0.0492 2.05288,-0.10529 2.19553,-0.12467 0.23942,-0.0325 0.2802,-0.008 0.53052,0.3253 0.38135,0.50706 1.37165,1.2247 2.68272,1.94407 2.18057,1.19647 3.19084,1.99965 4.14832,3.29798 0.49515,0.67141 1.60475,2.38843 1.60475,2.48322 0,0.14664 -1.9647,-0.79444 -3.40579,-1.63136 -0.42635,-0.24761 -1.32785,-0.68444 -2.00334,-0.97075 -1.40024,-0.59349 -2.85764,-1.36782 -4.27509,-2.2714 -1.61708,-1.03083 -1.89413,-1.0954 -2.41337,-0.56246 -0.39003,0.40033 -0.57548,0.88056 -0.65188,1.68811 -0.0782,0.82629 -0.0621,0.75118 -0.5305,2.47946 -0.46269,1.70722 -0.91787,2.87358 -1.87968,4.81662 l -0.75196,1.51908 z"
       id="path2576" />
  </g>
</svg>
