<?xml version="1.0" encoding="UTF-8" standalone="no"?>
<!-- Created with Inkscape (http://www.inkscape.org/) -->

<svg
   width="150"
   height="815"
   viewBox="0 0 39.68775 215.63479"
   version="1.1"
   id="svg2680"
   inkscape:version="1.2 (dc2aedaf03, 2022-05-15)"
   sodipodi:docname="default.svg"
   inkscape:export-filename="default.svg"
   inkscape:export-xdpi="96"
   inkscape:export-ydpi="96"
   xmlns:inkscape="http://www.inkscape.org/namespaces/inkscape"
   xmlns:sodipodi="http://sodipodi.sourceforge.net/DTD/sodipodi-0.dtd"
   xmlns="http://www.w3.org/2000/svg"
   xmlns:svg="http://www.w3.org/2000/svg">
  <sodipodi:namedview
     id="namedview2682"
     pagecolor="#505050"
     bordercolor="#eeeeee"
     borderopacity="1"
     inkscape:showpageshadow="false"
     inkscape:pageopacity="0"
     inkscape:pagecheckerboard="true"
     inkscape:deskcolor="#505050"
     inkscape:document-units="mm"
     showgrid="false"
     inkscape:zoom="1.0973349"
     inkscape:cx="154.0095"
     inkscape:cy="310.29725"
     inkscape:window-width="1276"
     inkscape:window-height="1076"
     inkscape:window-x="1280"
     inkscape:window-y="0"
     inkscape:window-maximized="1"
     inkscape:current-layer="layer1"
     shape-rendering="auto"
     showguides="true">
    <inkscape:grid
       type="xygrid"
       id="grid3700"
       originx="0"
       originy="0" />
  </sodipodi:namedview>
  <defs
     id="defs2677" />
  <g
     inkscape:label="Camada 1"
     inkscape:groupmode="layer"
     id="layer1">
    <g
       id="g4401"
       transform="translate(-37.194465,-1.038626)">
      <path
         style="fill:#000000;stroke-width:0.730705"
         id="path8950"
         d="m 52.658301,53.373692 c 0,15.454062 0,30.908129 0,46.362192 0,18.256456 0,36.512886 0,54.769346 0,10.85705 0,21.7141 0,32.57113 0,4.97792 0,9.95583 0,14.93373 0,2.74927 0,5.49853 0,8.2478 0,0 0.618744,0 0.618744,0 v 0 c 0,-2.74927 0,-5.49853 0,-8.2478 0,-4.9779 0,-9.95581 0,-14.93373 0,-10.85703 0,-21.71408 0,-32.57113 0,-18.25646 0,-36.51289 0,-54.769346 0,-15.454063 0,-30.90813 0,-46.362192 0,0 -0.618744,0 -0.618744,0 z" />
      <path
         id="path8952"
         style="fill:#000000;stroke-width:0.730705"
         d="m 61.47487,53.407602 c -5.4e-4,0.0236 -6.2e-4,0.0295 -0.001,0.0543 0.001,-0.008 0.002,-0.0164 0.004,-0.0245 -0.001,-0.01 -0.002,-0.0198 -0.003,-0.0298 z m 0.614864,0.211321 c -0.004,0.0541 -0.009,0.108091 -0.0134,0.162291 -0.008,0.108401 -0.0148,0.217102 -0.0217,0.325742 0.0126,-0.133271 0.0253,-0.266501 0.0333,-0.401052 z m -0.432293,3.462932 c -0.0685,0.143101 -0.146671,0.266162 -0.247482,0.334502 -0.142741,0.0916 -0.281122,0.0992 -0.390722,-0.120841 -0.0159,0.242032 -0.0273,0.485113 -0.0262,0.732045 6.2e-4,0.193491 0.0261,0.384322 0.0371,0.576764 0.0169,0.295881 0.0309,0.592363 0.0464,0.888505 0.0722,1.944197 0.0103,3.89319 0.006,5.839452 0.01,2.096693 0.008,4.193396 0.006,6.29013 -0.001,1.354368 -3.7e-4,2.708687 -3.2e-4,4.063045 -1.3e-4,2.443436 -2e-5,4.886991 0,7.330416 2e-5,2.061623 0,4.123426 0,6.185049 v 7.894922 8.282546 8.85873 6.63338 13.63863 13.7881 9.45008 4.91943 7.2919 7.15585 6.00468 8.49736 4.22709 1.87624 3.14477 3.53707 2.05955 2.51605 1.41448 h 0.618704 v -1.41448 -2.51605 -2.05955 -3.53707 -3.14477 -1.87624 -4.22709 -8.49736 -6.00468 -7.15585 -7.2919 -4.91943 -9.45008 -13.7881 -13.63863 -6.63338 -8.85873 -8.282546 -7.894922 c 0,-2.061623 10e-6,-4.123426 0,-6.185049 -2e-5,-2.443455 -1.4e-4,-4.88696 0,-7.330416 -6e-5,-1.353898 -0.001,-2.707967 3.2e-4,-4.061875 10e-4,-2.095234 0.004,-4.190857 -0.006,-6.28605 0.006,-1.983973 0.0686,-3.970405 -0.008,-5.952123 -0.0164,-0.311562 -0.0295,-0.624283 -0.0493,-0.935195 -0.008,-0.119111 -0.0311,-0.234472 -0.0326,-0.354353 -0.004,-0.343132 0.0155,-0.680064 0.0467,-1.014006 z" />
      <path
         style="fill:#000000;stroke-width:0.730705"
         id="path8991"
         d="m 53.011803,53.674493 c -0.0114,-0.472043 -10e-4,-0.951506 -0.0499,-1.418368 -0.0143,-0.137511 -0.0376,-0.268492 -0.0507,-0.407513 -0.0495,-0.778265 -0.0539,-1.56169 -0.0604,-2.344005 0.002,-0.931886 -0.004,-1.863592 -0.006,-2.795467 0.007,-1.050087 -0.0474,-2.096144 -0.0814,-3.1433 -0.0336,-0.632044 -0.0168,-1.265888 -0.0157,-1.899132 9.9e-4,-0.543034 -0.003,-0.593044 -0.0131,-1.143107 -0.026,-1.004707 -0.008,-2.010533 -0.0107,-3.015839 -0.0118,-0.954336 -0.058,-1.905332 -0.0724,-2.859558 -0.002,-0.148331 -0.005,-0.296692 -0.007,-0.445003 -0.003,-0.167381 -0.0157,-0.636474 -0.0164,-0.802055 -0.002,-0.432683 0.0146,-0.865306 0.0271,-1.297108 0.0243,-0.817516 0.007,-1.636111 0.0244,-2.454006 0.0322,-0.692244 0.019,-1.387489 0.0206,-2.081373 0.0201,-0.631064 -0.009,-1.260928 -0.0279,-1.890542 0.005,-0.488643 -0.0289,-0.972256 -0.0528,-1.457529 -0.007,-0.211651 -0.031,-0.416793 -0.0597,-0.621144 0.0139,-0.0634 -0.007,0.188391 -0.0107,0.136901 -0.0151,-0.222172 0.0228,-0.188751 -0.0225,-0.318442 0.0664,0.158131 0.0175,0.0226 -0.176921,0.380512 -0.0685,0.126171 0.106831,-0.297272 0.156431,-0.450173 0.002,-0.006 -0.006,-0.0192 -0.008,-0.0136 -0.0567,0.145461 -0.107291,0.298592 -0.160941,0.447893 0.0848,0.130631 -0.0163,-0.0165 0.208561,-0.387532 0.0218,-0.036 0.0105,0.173691 0.0235,0.0363 0.002,-0.023 0.004,-0.0463 0.006,-0.0694 0.0109,-0.155453 -0.009,-0.308332 -0.002,-0.464 0.008,-0.234278 -0.019,-0.467355 -0.0443,-0.695864 -0.024,-0.266308 -0.0385,-0.535083 -0.0568,-0.802864 -0.0267,-0.356506 -0.0289,-0.716444 -0.0304,-1.075582 0.004,-0.462128 0.0212,-0.921971 0.013,-1.384402 -0.006,-0.590525 -0.0112,-1.180686 -0.0243,-1.770953 -0.0251,-0.902479 -0.0511,-1.804969 -0.068,-2.708099 -0.024,-0.759953 3.2e-4,-1.519752 0.0192,-2.278857 0.0125,-0.60366 -0.0143,-1.20467 -0.0551,-1.802965 -0.048,-0.5127566 -0.049,-1.0298646 -0.0423,-1.5478916 0.004,-0.334982 -0.0175,-0.646726 0.007,-0.980479 0.03,-0.219505 0.0226,-0.450873 0.0451,-0.671672 -0.006,0.05655 0.005,-0.01546 0.005,-0.02412 0.009,-0.227712 -0.0216,-0.06231 -0.194261,0.103715 0.0505,0.210978 0.149861,0.357013 0.231351,0.526241 0.214032,0.449861 0.392783,0.949121 0.565784,1.452813 0.339502,1.0541296 0.711504,2.0714386 1.053677,3.1225316 0.377962,1.229759 0.770654,2.443355 1.139177,3.682743 0.415812,1.383219 0.914855,2.674708 1.405399,3.971275 0.313362,0.746285 0.548013,1.584321 0.831855,2.365559 0.324382,0.839419 0.657344,1.666576 0.967476,2.524031 0.249921,0.668284 0.482113,1.358079 0.731935,2.026333 0.280711,0.693004 0.528213,1.428689 0.821245,2.104753 0.290265,0.618954 0.566806,1.259168 0.832388,1.913962 0.0746,0.209942 0.139601,0.427173 0.222341,0.627444 0.0598,0.134731 0.124241,0.262332 0.189062,0.389023 0.0363,0.0881 0.0779,0.166101 0.12719,0.230141 0.002,0.003 0.009,0.0137 0.007,0.01 -0.143611,-0.283732 0.002,0.0381 -0.0651,-0.163631 -0.008,-0.0248 0.007,0.0575 0.0146,0.0832 0.0101,0.0348 0.022,0.0679 0.033,0.1018 -0.0504,-0.165861 -0.046,-0.147171 -0.0491,-0.0236 -0.002,0.0659 -0.002,0.121531 -0.002,0.187941 -0.008,0.356463 0.004,0.714555 0.0134,1.070817 6.2e-4,0.497303 0.0489,0.982226 0.121051,1.459449 0.0892,0.568324 0.0857,1.161888 0.1064,1.746781 0.0367,0.794255 0.0938,1.58445 0.123751,2.379815 0.0188,0.760495 0.0177,1.52149 0.004,2.282145 -0.004,0.776545 -0.0668,1.544929 -0.122781,2.312954 -0.0405,0.687025 -0.0724,1.375459 -0.0919,2.065533 -0.0342,0.693135 -0.0303,1.388359 -0.0382,2.083283 -0.002,0.625224 -0.0359,1.247718 -0.0374,1.873082 -0.001,0.403053 0.007,0.694655 0.0161,1.087467 0.023,0.662914 -0.0343,1.320308 -0.0694,1.978063 -0.038,0.576283 -0.0341,1.155557 -0.0255,1.73425 0.008,0.434643 0.006,0.867906 0.0236,1.301889 0.015,0.343112 0.0322,0.684964 0.0336,1.029296 3.3e-4,0.229492 -0.006,0.458483 -0.0135,0.687454 -0.007,0.167872 -0.0164,0.332723 -0.0374,0.496384 -0.0244,0.207181 -0.0205,0.420142 -0.0368,0.629054 0.001,0.10036 -0.009,0.194361 -0.0223,0.290431 -0.0171,0.140001 -0.0298,0.282692 -0.0393,0.425053 -0.004,0.102681 0.0244,0.149711 0.0514,0.238872 0.0189,0.0628 0.0354,0.12799 0.0532,0.191991 0,0 0.0331,0.0209 0.0331,0.0209 v 0 c 0.0857,-0.0899 0.195731,-0.175371 0.217372,-0.372542 0.008,-0.114901 0.0213,-0.230132 0.0335,-0.343743 0.0166,-0.12118 0.0303,-0.242261 0.0303,-0.367812 0.0124,-0.189141 0.01,-0.380692 0.0267,-0.569034 0.0238,-0.198321 0.0367,-0.397812 0.0443,-0.600513 0.008,-0.243742 0.0139,-0.487543 0.0129,-0.731805 -0.002,-0.358552 -0.0204,-0.714974 -0.0358,-1.072227 -0.0176,-0.423592 -0.0141,-0.846855 -0.0227,-1.271108 -0.008,-0.552163 -0.0121,-1.104707 0.0234,-1.65469 0.0365,-0.686684 0.0955,-1.373249 0.0701,-2.065273 -0.008,-0.361382 -0.0159,-0.681024 -0.0153,-1.046617 10e-4,-0.626504 0.0343,-1.250178 0.0369,-1.876482 0.007,-0.688464 0.003,-1.377158 0.0373,-2.063783 0.0176,-0.672754 0.0491,-1.343498 0.0881,-2.013232 0.0575,-0.789075 0.11921,-1.5787 0.12444,-2.376305 0.0139,-0.781835 0.0151,-1.56411 -0.004,-2.345775 -0.0289,-0.794955 -0.0859,-1.58448 -0.12368,-2.378005 -0.0223,-0.628374 -0.0212,-1.265608 -0.118311,-1.875612 -0.0656,-0.431412 -0.107861,-0.869335 -0.108801,-1.319138 -0.008,-0.345842 -0.0218,-0.693174 -0.013,-1.039147 -1.7e-4,-0.0966 0.0126,-0.324412 -0.002,-0.407052 -0.0124,-0.0672 -0.033,-0.128291 -0.0495,-0.192431 0.009,0.0331 0.0192,0.0667 0.0247,0.10261 10e-4,0.008 0.005,0.0331 0.003,0.0251 -0.0226,-0.10744 -0.0191,-0.12683 -0.0794,-0.216721 -0.0261,-0.0307 -0.0528,-0.0827 -0.0757,-0.140881 -0.0577,-0.112271 -0.116161,-0.223371 -0.169301,-0.342982 -0.0835,-0.195671 -0.139611,-0.420193 -0.217981,-0.622384 -0.267536,-0.659064 -0.543798,-1.306778 -0.83281,-1.934942 -0.285804,-0.668094 -0.525746,-1.396199 -0.799578,-2.080543 -0.246921,-0.668774 -0.480353,-1.353929 -0.728604,-2.021193 -0.310382,-0.857755 -0.641734,-1.687727 -0.968456,-2.524752 -0.285552,-0.783889 -0.519874,-1.62731 -0.836566,-2.374304 -0.485703,-1.276724 -0.979676,-2.549153 -1.393698,-3.909451 -0.375973,-1.241636 -0.772275,-2.461289 -1.168728,-3.681346 -0.354092,-1.043143 -0.736504,-2.052824 -1.086217,-3.1010486 -0.186981,-0.519635 -0.377702,-1.039556 -0.613364,-1.491318 -0.0649,-0.121675 -0.14321,-0.225784 -0.193091,-0.369861 -0.078,0.0022 -0.156031,-0.0018 -0.233871,0.006 -0.007,5.97e-4 0.005,0.04875 0.007,0.03639 0.004,-0.02666 0.01,-0.108537 0.007,-0.0816 -0.002,0.01892 -0.006,0.03728 -0.008,0.05592 -0.0151,0.226861 -0.0172,0.456926 -0.041,0.68217 -0.0201,0.339266 -0.006,0.673369 -0.008,1.013617 -0.008,0.535755 -0.008,1.070901 0.0365,1.6024036 0.0381,0.576866 0.0619,1.156813 0.0472,1.738351 -0.0234,0.768867 -0.0546,1.538289 -0.0381,2.308981 0.009,0.904725 0.0238,1.809105 0.0439,2.713227 0.009,0.58971 0.0107,1.179197 0.0134,1.769 0.006,0.457626 -0.0115,0.912473 -0.0168,1.36971 -0.002,0.378349 -3.2e-4,0.757238 0.025,1.133392 0.0161,0.281441 0.0297,0.563761 0.0529,0.843535 0.0186,0.184397 0.0387,0.373027 0.0314,0.561133 -0.005,0.141649 3.3e-4,0.280504 0.002,0.421463 -0.006,0.0678 -0.0187,0.150411 -0.0155,0.215851 0.0174,0.358043 0.0804,0.111371 0.258951,-0.12031 0.003,-0.004 -0.006,-0.008 -0.009,-0.012 -0.0678,0.12867 -0.138401,0.252671 -0.203451,0.386032 -0.003,0.005 0.006,0.008 0.009,0.0121 0.07,-0.124221 0.140071,-0.248442 0.210111,-0.372652 -10e-4,-0.002 -0.003,-0.007 -0.004,-0.005 -0.235861,0.299772 -0.279661,0.160031 -0.211231,0.336072 -0.0271,-0.0931 0.0111,-0.0302 0.004,-0.222162 -0.002,-0.0709 -0.0323,0.283272 -0.013,0.222942 0.0275,0.177001 0.0442,0.357552 0.0524,0.541273 0.0252,0.479263 0.0579,0.956896 0.0533,1.439779 0.0188,0.620364 0.0478,1.240928 0.0275,1.862752 -0.002,0.688644 0.0119,1.378429 -0.0186,2.065613 -0.017,0.815705 -6.8e-4,1.6319 -0.0237,2.447285 -0.0129,0.445263 -0.0289,0.891366 -0.0267,1.337529 3.3e-4,0.0646 0.015,0.729204 0.0164,0.800895 0.003,0.147631 0.005,0.295292 0.008,0.442943 0.0144,0.951016 0.0631,1.898292 0.0759,2.849308 0.003,1.009696 -0.0158,2.019892 0.0102,3.028989 0.0109,0.578173 0.0134,0.550453 0.0124,1.121107 -0.001,0.644574 -0.0166,1.289768 0.0155,1.933202 0.0351,1.038847 0.0883,2.076733 0.0834,3.11856 0.004,0.933725 0.0128,1.867301 0.0142,2.801067 0.0104,0.805015 0.0172,1.61136 0.0738,2.411305 0.007,0.0678 0.013,0.136161 0.0214,0.203502 0.008,0.0652 0.0255,0.125891 0.033,0.191361 0.0507,0.444903 0.0399,0.904506 0.0545,1.355168 0,0 0.218741,0 0.218741,0 z" />
      <path
         style="fill:#000000;stroke-width:0.730705"
         id="path8993"
         d="m 52.49442,40.830233 c 0.047,0.610783 0.005,1.241637 0.0894,1.842361 0.047,0.630874 0.0655,1.267358 0.11023,1.899252 0.0386,0.467133 0.051,0.939456 0.0765,1.409329 0.0351,0.547803 0.0647,1.095957 0.0894,1.64557 0.0138,0.467353 0.0435,0.932386 0.0627,1.398929 0.0147,0.465463 0.0226,0.930016 0.0511,1.393659 0.0259,0.443253 0.0358,0.888326 0.0497,1.333058 0.007,0.369643 0.0113,0.738975 0.005,1.108637 0.002,0.398533 -0.0227,0.792305 -0.0467,1.187498 -0.0216,0.271312 -0.0383,0.542973 -0.049,0.816335 0.003,0.182311 -0.0272,0.380132 0.015,0.550673 0.046,0.0209 0.0163,0.004 0.0849,0.07 0,0 0.0166,0.0563 0.0166,0.0563 v 0 c 0.1316,0.0205 0.083,0.0663 0.155331,-0.0966 0.0502,-0.175581 0.0341,-0.344713 0.0408,-0.537064 0.0117,-0.266021 0.0286,-0.530603 0.0473,-0.795445 0.026,-0.411472 0.0493,-0.822495 0.0468,-1.237468 0.004,-0.386182 -10e-4,-0.771794 -0.0123,-1.157597 -0.017,-0.453803 -0.0278,-0.908336 -0.0583,-1.360198 -0.0295,-0.457463 -0.0356,-0.915986 -0.0532,-1.375139 -0.0221,-0.467483 -0.0519,-0.933756 -0.0696,-1.401989 -0.0289,-0.551883 -0.0673,-1.100807 -0.10611,-1.65065 -0.0287,-0.474003 -0.0468,-0.950706 -0.0912,-1.420939 -0.0507,-0.649814 -0.0685,-1.308899 -0.139701,-1.952493 -0.0979,-0.565563 -0.0708,-1.174157 -0.121751,-1.755461 0,0 -0.192681,0.0294 -0.192681,0.0294 z" />
      <path
         style="fill:#000000;stroke-width:0.730705"
         id="path8995"
         d="m 52.625651,49.867669 c 0.0261,0.406393 0.0443,0.814636 0.0517,1.223638 0.002,0.125941 -0.004,0.248952 -0.003,0.375163 0.005,0.432342 0.0159,0.864525 0.0192,1.296938 3.3e-4,0.391942 -0.009,0.783765 -0.009,1.175637 -5e-4,0.318412 0.004,0.635874 -0.01,0.953636 9.9e-4,0.133591 -0.0177,0.414043 0.01,0.534964 0.0109,0.0481 0.0352,0.0819 0.0526,0.12296 0,0 0.0316,0.0276 0.0316,0.0276 v 0 c 0.043,-0.0404 0.0679,-0.0534 0.0952,-0.14723 0.0318,-0.109361 -0.003,-0.381573 0.0141,-0.510894 0.0124,-0.327562 0.006,-0.654634 0.005,-0.982606 -0.002,-0.393562 0.006,-0.787305 0.003,-1.180957 -0.006,-0.435633 -0.0191,-0.871536 -0.0363,-1.306049 -0.0255,-0.537623 -0.0529,-1.075386 -0.0991,-1.60906 0,0 -0.124851,0.0263 -0.124851,0.0263 z" />
      <path
         style="fill:#000000;stroke-width:0.730705"
         id="path8997"
         d="m 52.638711,49.565408 c 0.052,0.580993 0.170541,1.155707 0.196851,1.744671 0.005,0.1174 -0.001,0.223051 -0.006,0.339922 0.007,0.498923 0.0154,0.998006 0.0177,1.497429 0.008,0.337832 0.0189,0.645654 0.101841,0.953376 0,0 0.035,0.003 0.035,0.003 v 0 c 0.0153,-0.0507 0.0357,-0.0973 0.0458,-0.152101 0.0479,-0.259111 0.0173,-0.541803 0.0156,-0.807315 -0.002,-0.493383 -0.0101,-0.986246 -0.0251,-1.478649 0.002,-0.152511 0.006,-0.254232 -0.005,-0.407063 -0.0421,-0.596844 -0.165561,-1.167457 -0.227641,-1.756661 0,0 -0.149501,0.0634 -0.149501,0.0634 z" />
      <path
         style="fill:#000000;stroke-width:0.730705"
         id="path8999"
         d="m 51.990027,7.9530654 c 0.0148,0.567589 -0.0171,1.140243 0.008,1.70731 0.005,0.106177 0.015,0.211301 0.0217,0.317123 0.0225,0.3823016 0.0376,0.7662056 0.0667,1.1471016 0.0395,0.407752 0.0916,0.809981 0.1252,1.219566 0.0282,0.358618 0.0635,0.714647 0.0916,1.07319 0.0187,0.344582 0.0554,0.684412 0.0859,1.02596 0.002,0.390708 0.003,0.780607 0.0154,1.171429 0.0109,0.462007 0.014,0.922535 0.0448,1.382015 0.0109,0.418505 0.0487,0.831982 0.0749,1.247556 0.0289,0.559055 0.0455,1.119803 0.0424,1.681335 -0.008,0.525827 0.0261,1.048348 0.0179,1.574006 -0.009,0.441857 0.0166,0.88154 0.0126,1.323444 -0.003,0.485361 -0.005,0.971424 0.002,1.456737 0.003,0.487593 0.0105,0.974916 0.021,1.462169 0.003,0.414453 0.0221,0.827836 0.0224,1.242328 0.007,0.432443 0.0106,0.864326 0.011,1.296858 0.008,0.431213 -0.0102,0.860606 -0.004,1.291659 0.0248,0.537963 0.0254,1.078156 0.0454,1.61655 0.0199,0.408992 0.0373,0.818185 0.0594,1.226838 0.0183,0.428682 0.0358,0.857545 0.0569,1.285808 0.0193,0.398712 0.0151,0.799085 0.024,1.198937 0.009,0.418303 0.0238,0.836035 0.0394,1.253668 0.008,0.407973 0.0227,0.816495 0.0219,1.224788 -0.007,0.475603 -0.0153,0.951396 -0.002,1.426779 -10e-4,0.418662 0.0102,0.836595 0.008,1.255328 -0.007,0.486273 3.2e-4,0.972696 -0.007,1.458889 -0.006,0.464753 -0.0194,0.929226 -0.0209,1.394139 0.0261,0.413462 0.0495,0.825635 0.0605,1.241398 0.0101,0.337582 0.0371,0.670694 0.0451,1.008566 0.007,0.491303 0.006,0.982346 -0.006,1.473319 -0.0218,0.425273 -0.0228,0.848765 -0.0113,1.274608 0.008,0.394063 0.005,0.788785 -0.003,1.182788 -10e-4,0.363062 -0.0415,0.725084 -0.0354,1.088446 0.002,0.102541 0.0176,0.384133 0.0235,0.494614 8e-4,0.239181 0.005,0.478753 0.003,0.717804 -0.0103,0.348172 0.005,0.695695 0.0232,1.042067 0.002,0.12934 0.0342,0.224191 0.111821,0.251731 0.0215,0.008 0.0433,-0.0113 0.0649,-0.0169 0,0 -0.009,0.0618 -0.009,0.0618 v 0 c 0.0453,0.004 0.148821,0.0334 0.197621,-0.0263 0.0534,-0.0653 0.0515,-0.240161 0.0507,-0.336442 -0.0142,-0.324092 -0.0294,-0.648724 -0.0192,-0.974136 -8e-4,-0.264032 4.9e-4,-0.528143 -0.006,-0.792085 -0.007,-0.135261 -0.0181,-0.269962 -0.0211,-0.405692 -0.008,-0.359913 0.0373,-0.719325 0.0358,-1.079247 0.008,-0.415283 0.01,-0.831375 0.002,-1.246718 -0.0111,-0.401913 -0.007,-0.800905 0.0133,-1.202328 0.0123,-0.513543 0.0133,-1.027046 0.005,-1.540899 -0.008,-0.339142 -0.0337,-0.673585 -0.0452,-1.012127 -0.0106,-0.401232 -0.03,-0.800185 -0.06,-1.198267 0.003,-0.460223 0.0145,-0.920096 0.0207,-1.380189 0.007,-0.490873 1.7e-4,-0.981906 0.007,-1.472829 10e-4,-0.434073 -0.009,-0.867446 -0.009,-1.301468 -0.0138,-0.461913 -10e-4,-0.924336 0.003,-1.386499 -5e-4,-0.425963 -0.0144,-0.852026 -0.0235,-1.277658 -0.0155,-0.410513 -0.0284,-0.821245 -0.0388,-1.232288 -0.009,-0.412383 -0.003,-0.825635 -0.0253,-1.236618 -0.0213,-0.430463 -0.0374,-0.861825 -0.0566,-1.292628 -0.0218,-0.401612 -0.0397,-0.803705 -0.0584,-1.205808 -0.0217,-0.528113 -0.0195,-1.058756 -0.047,-1.58633 -0.008,-0.425092 0.009,-0.849735 -0.005,-1.274898 -0.004,-0.431592 -0.0165,-0.861715 -0.0255,-1.293038 -0.002,-0.423702 -0.0209,-0.846145 -0.0264,-1.269738 -0.0129,-0.484623 -0.0212,-0.969446 -0.0287,-1.454409 -0.0111,-0.475703 -0.0116,-0.952636 -0.0128,-1.428684 -6.8e-4,-0.43896 -0.0262,-0.875543 -0.0211,-1.314577 0.004,-0.529156 -0.0314,-1.05458 -0.0251,-1.58381 3.3e-4,-0.589339 -0.0199,-1.177732 -0.0536,-1.763841 -0.0303,-0.4155 -0.0672,-0.829603 -0.0811,-1.248569 -0.033,-0.445021 -0.0391,-0.892073 -0.0535,-1.339978 -0.008,-0.21443 -0.0184,-0.428555 -0.0215,-0.643497 -4.9e-4,-0.03804 -0.002,-0.348288 -0.004,-0.390622 -0.003,-0.06702 -0.009,-0.133449 -0.013,-0.200174 -0.0356,-0.335788 -0.084,-0.666616 -0.1044,-1.007304 -0.0327,-0.358693 -0.0779,-0.712836 -0.106241,-1.072993 -0.0391,-0.408749 -0.0999,-0.807681 -0.146121,-1.213907 -0.0395,-0.377889 -0.0628,-0.760647 -0.100891,-1.1390316 -0.0114,-0.09323 -0.0261,-0.185268 -0.0344,-0.27959 -0.0485,-0.554729 -0.0189,-1.123547 -0.0475,-1.681051 0,0 -0.169171,0.0045 -0.169171,0.0045 z" />
      <path
         style="fill:#000000;stroke-width:0.730705"
         id="path9001"
         d="m 52.598711,32.311649 c 0.0276,0.494353 0.065,0.990446 0.066,1.488529 3.2e-4,0.182241 -0.009,0.366093 -0.009,0.548664 0.0149,0.539483 0.0265,1.079837 0.0603,1.61677 0.0388,0.511523 0.0561,1.026816 0.0802,1.54107 0.0243,0.533473 0.0593,1.065056 0.0863,1.59789 0.0116,0.470673 0.0216,0.941326 0.0349,1.411869 0.004,0.454762 0.0188,0.908715 0.0265,1.363198 0.0143,0.471643 0.007,0.943996 0.003,1.415939 -9.9e-4,0.417713 -4.9e-4,0.835445 -6.8e-4,1.253158 -0.0126,0.278352 -0.0133,0.557133 -0.0113,0.836185 0.01,0.106001 -0.0346,0.484143 0.023,0.537854 0.0167,0.0156 0.0365,0.0158 0.0548,0.0237 -0.005,0.007 -0.009,0.0144 -0.0138,0.0216 0,0 -1.2e-4,0.064 -1.2e-4,0.064 v 0 c 0.0217,0.007 0.0433,0.0147 0.065,0.022 0.0366,-0.0211 0.077,-0.0267 0.10976,-0.0632 0.0768,-0.0856 0.0455,-0.478133 0.0515,-0.612934 -0.002,-0.276462 -0.007,-0.552813 0.006,-0.828835 1.5e-4,-0.416173 -0.002,-0.832345 -0.002,-1.248518 0.002,-0.479333 0.006,-0.959136 -0.0108,-1.437879 -0.009,-0.458183 -0.0265,-0.915616 -0.0323,-1.374059 -0.016,-0.476823 -0.026,-0.953976 -0.0406,-1.430899 -0.0297,-0.532173 -0.0654,-1.063286 -0.0935,-1.59588 -0.03,-0.516853 -0.0528,-1.035056 -0.0965,-1.548959 -0.0359,-0.521344 -0.0528,-1.046067 -0.0725,-1.57005 -0.004,-0.187361 -0.001,-0.375743 -0.007,-0.562924 -0.0138,-0.507823 -0.0538,-1.011856 -0.0934,-1.514579 0,0 -0.184371,0.0463 -0.184371,0.0463 z" />
      <path
         style="fill:#000000;stroke-width:0.730705"
         id="path9003"
         d="m 52.53862,30.92511 c 0.002,0.418853 0.0398,0.840825 0.0181,1.260158 -3.3e-4,0.006 -0.005,-0.0103 -0.005,-0.0161 0.004,-0.0299 0.0264,-0.113981 0.0195,-0.0857 -0.0215,0.0879 -0.0421,0.176342 -0.0632,0.264512 -0.0156,0.393483 -0.0284,0.787645 -0.041,1.181618 0.008,0.396222 0.0156,0.792635 0.0269,1.188647 0.0286,0.416363 0.0626,0.831435 0.0933,1.247338 0.0421,0.394112 0.0522,0.794195 0.0668,1.193597 0.008,0.390433 0.0274,0.779035 0.041,1.168848 0.021,0.429722 0.0285,0.862645 0.0557,1.291178 0.0216,0.245891 0.038,0.493273 0.0532,0.740765 0.0154,0.267131 0.0263,0.534663 0.0334,0.802875 0.0109,0.381172 0.008,0.762244 -1.6e-4,1.143417 -0.008,0.367542 -0.006,0.734704 -0.002,1.102307 -0.009,0.438043 -0.0175,0.874945 -0.01,1.313628 0.009,0.352922 0.0368,0.702735 0.0553,1.054367 0.0123,0.306092 0.037,0.609184 0.0563,0.913835 0.004,0.349093 0.04,0.691695 0.0581,1.038497 0.0181,0.264262 0.0155,0.528993 0.007,0.793985 -0.007,0.328082 0.004,0.656274 0.005,0.984356 -8.1e-4,0.327872 -0.002,0.655704 -0.001,0.983586 -0.009,0.353533 -0.0377,0.704865 -0.0572,1.057147 -0.0102,0.285862 -0.002,0.573664 0.0179,0.857465 0.0195,0.280522 0.01,0.563104 0.0149,0.845016 0.009,0.369462 -0.002,0.739054 0.001,1.108607 0.009,0.244881 0.0293,0.487263 0.0485,0.729954 0.0139,0.163031 0.0232,0.327712 0.0669,0.474013 0.0899,-0.0537 0.188251,-0.0732 0.269672,-0.161021 0.022,-0.0237 0.007,-0.0926 0.008,-0.139121 0.0114,-0.339422 -0.0145,-0.670834 -0.049,-1.003366 -0.0506,-0.371702 -0.0525,-0.756055 -0.0658,-1.136237 -0.0131,-0.408323 -0.0543,-0.810385 -0.0705,-1.218208 -0.004,-0.400262 -0.0416,-0.794865 -0.0564,-1.193657 -0.0115,-0.482483 -0.0576,-0.959236 -0.0832,-1.439639 -0.004,-0.262692 -0.0484,-0.514364 -0.0686,-0.772665 -0.012,-0.154311 -0.0172,-0.310812 -0.0237,-0.466053 -0.0203,-0.466433 -0.0507,-0.931606 -0.0682,-1.398379 -0.0144,-0.413372 -0.0221,-0.827515 -0.0383,-1.240678 -0.0154,-0.408592 -0.004,-0.817945 -0.0156,-1.226537 -0.01,-0.383603 -0.0222,-0.767015 -0.0301,-1.150808 -0.009,-0.348962 -0.009,-0.698674 -0.01,-1.048066 -0.004,-0.416793 0.008,-0.832956 0.0114,-1.249528 0.01,-0.476583 0.007,-0.953286 -0.005,-1.429599 -0.0113,-0.422773 -0.0175,-0.846315 -0.0451,-1.266988 -0.005,-0.082 -0.008,-0.164991 -0.019,-0.245302 -0.0113,-0.0864 -0.0309,-0.168581 -0.0464,-0.252881 -0.12662,-0.298012 -0.0671,-0.168091 -0.175561,-0.394113 0,0 -0.031,0.0299 -0.031,0.0299 v 0 c 0.0306,0.249242 0.0236,0.110881 0.007,0.416573 -0.017,0.579514 0.0381,1.156137 0.0416,1.735911 0.0126,0.465813 0.0165,0.932016 0.009,1.398299 -0.004,0.419292 -0.0138,0.838305 -0.0108,1.257788 -0.001,0.354652 -3.2e-4,0.709764 0.008,1.064076 0.006,0.385373 0.0156,0.770435 0.0212,1.155808 0.007,0.413822 -0.0136,0.827675 0.004,1.241408 0.0149,0.413422 0.0242,0.827525 0.0389,1.240967 0.018,0.468483 0.0484,0.935426 0.072,1.403069 0.0103,0.228512 0.0109,0.287402 0.0297,0.516443 0.0143,0.174572 0.0424,0.344063 0.0559,0.518584 0.006,0.0707 0.008,0.141991 0.0125,0.212981 0.0266,0.475143 0.0712,0.946756 0.0861,1.423699 0.0152,0.399613 0.0542,0.794485 0.0583,1.195738 0.0165,0.405812 0.0554,0.806165 0.0691,1.212287 0.0129,0.401233 0.0139,0.806215 0.0616,1.200358 0.0225,0.222741 0.0421,0.445583 0.0456,0.672624 9.9e-4,0.0586 1.2e-4,0.117311 -0.002,0.175811 -10e-4,0.0393 -0.0293,0.110821 -0.008,0.117351 0.0855,0.0263 0.172741,-0.0268 0.259111,-0.0402 0.004,0.0156 0.008,0.0317 0.013,0.0469 0.001,0.004 -10e-4,-0.008 -0.002,-0.012 -0.002,-0.018 -0.004,-0.0361 -0.006,-0.0543 -0.008,-0.0772 -0.0138,-0.155081 -0.0174,-0.233361 -0.0104,-0.227201 -0.0193,-0.454513 -0.0334,-0.681054 -0.006,-0.372093 0.009,-0.744535 -0.003,-1.116537 -0.007,-0.300382 -8e-4,-0.601774 -0.0235,-0.900386 -0.0192,-0.239532 -0.026,-0.484243 -0.0178,-0.725945 0.0194,-0.371102 0.0517,-0.740494 0.0575,-1.113237 3.3e-4,-0.330112 3.3e-4,-0.660214 0.001,-0.990316 -0.003,-0.314392 -0.0122,-0.629124 -0.004,-0.943446 0.009,-0.294432 0.0112,-0.588643 -0.008,-0.882215 -0.0195,-0.349933 -0.0556,-0.695295 -0.0599,-1.047897 -0.0193,-0.301982 -0.0441,-0.602424 -0.0558,-0.905976 -0.0199,-0.339362 -0.049,-0.676834 -0.0588,-1.017686 -0.01,-0.435863 -3.3e-4,-0.870286 0.002,-1.305998 -0.006,-0.357683 -0.007,-0.714685 -0.003,-1.072497 0.006,-0.396093 0.009,-0.791915 -0.003,-1.187848 -0.009,-0.278451 -0.019,-0.556713 -0.036,-0.833935 -0.0154,-0.247741 -0.0314,-0.495573 -0.0532,-0.741704 -0.026,-0.421173 -0.0329,-0.846346 -0.0575,-1.267938 -0.0161,-0.389423 -0.0393,-0.777465 -0.0453,-1.168038 -0.0161,-0.410922 -0.0278,-0.822465 -0.0724,-1.227598 -0.0317,-0.401942 -0.0645,-0.803585 -0.0966,-1.205367 -0.0121,-0.378913 -0.0198,-0.758185 -0.0329,-1.136997 0.009,-0.372663 0.0187,-0.745135 0.0239,-1.118087 -0.0983,0.0212 0.0306,-0.0408 0.0371,-0.241412 0.0141,-0.433203 -0.0342,-0.867535 -0.0398,-1.299038 0,0 -0.211472,0.0294 -0.211472,0.0294 z" />
      <path
         style="fill:#000000;stroke-width:0.730705"
         id="path9005"
         d="m 52.47104,18.055908 c 0.0126,0.445503 0.0524,0.89848 0.0207,1.345089 -0.0161,0.226579 -0.047,0.449937 -0.0645,0.676517 -0.022,0.729943 -0.006,1.462465 -0.003,2.193282 -0.005,0.403959 -8e-5,0.806853 0.0106,1.210327 0.0135,0.136091 -0.009,0.293342 0.0255,0.423333 0.0127,0.0486 0.0557,0.0829 0.076,0.105031 0,0 0.0336,0.0185 0.0336,0.0185 v 0 c 0.0238,-0.0214 0.0508,-0.0336 0.0713,-0.0642 0.0717,-0.1072 0.0277,-0.371302 0.0392,-0.504303 -0.0105,-0.397713 -0.0169,-0.794925 -0.0121,-1.193209 -0.005,-0.710283 -0.0185,-1.421314 -0.008,-2.131401 0.0165,-0.236814 0.0456,-0.470846 0.0578,-0.708624 0.0243,-0.472105 -0.0141,-0.946098 -0.0357,-1.415424 0,0 -0.211251,0.04512 -0.211251,0.04512 z" />
      <path
         style="fill:#000000;stroke-width:0.730705"
         id="path9007"
         d="m 52.095658,7.7753784 c 0.0474,0.336378 0.1068,0.670041 0.12921,1.016375 0.007,0.110876 0.0101,0.223388 0.0168,0.334445 0.0208,0.388984 0.0824,0.767425 0.0965,1.1571066 -1e-5,0.329082 0.002,0.657774 0.0265,0.984091 0.0324,0.348265 0.0291,0.696072 0.0153,1.046241 0.002,0.456708 -0.007,0.912415 0.007,1.368686 0.009,0.43695 0.02,0.872346 0.0505,1.306443 0.0278,0.357359 0.0356,0.717832 0.0489,1.077474 0.0185,0.217138 -0.0145,0.480263 0.0446,0.683273 0.0145,0.04976 0.0519,0.108155 0.0763,0.148809 0,0 0.0307,0.03083 0.0307,0.03083 v 0 c 0.0185,-0.01178 0.0395,-0.01444 0.0554,-0.03532 0.0282,-0.0372 0.0553,-0.08107 0.0739,-0.134889 0.0591,-0.171264 0.033,-0.538884 0.0369,-0.732092 -0.0139,-0.372638 -0.0232,-0.746291 -0.0553,-1.115757 -0.0334,-0.417653 -0.05,-0.837952 -0.0661,-1.258831 -0.0133,-0.434629 -0.0106,-0.869003 -0.0154,-1.304105 0.0128,-0.388516 0.008,-0.775496 -0.0296,-1.160055 -0.0317,-0.314349 -0.0335,-0.632641 -0.043,-0.951309 -0.0271,-0.3936836 -0.0909,-0.7751796 -0.119841,-1.1689946 -0.0432,-0.472652 -0.114491,-0.932843 -0.192471,-1.390501 0,0 -0.186371,0.0981 -0.186371,0.0981 z" />
      <path
         style="fill:#000000;stroke-width:0.730705"
         id="path9009"
         d="m 52.268949,7.6666344 c 0.0203,-0.148412 0.0415,-0.29641 0.0608,-0.445235 0.0112,-0.08619 0.0225,-0.172468 0.0308,-0.259727 0.002,-0.02558 0.0151,-0.07013 10e-4,-0.0779 -0.149291,-0.08547 -0.147041,-0.01258 -0.179161,0.163032 -0.001,0.01671 -0.0132,0.04717 -0.004,0.05014 0.026,0.0085 0.296482,0.0015 0.0596,-0.04974 0,0 0.0312,0.029 0.0312,0.029 v 0 c -0.0227,-0.03569 -0.0435,-0.07603 -0.0682,-0.107093 -0.003,-0.0034 -0.006,0.01375 -0.003,0.01691 0.0373,0.0421 0.0801,0.06696 0.116781,0.1109 0.004,0.0046 -0.003,0.01605 -0.004,0.02407 0.0261,-0.161168 0.0524,-0.112786 -0.0822,-0.237248 -0.004,-0.004 0.002,0.0177 10e-4,0.02637 -0.0214,0.210054 -0.0645,0.506063 -0.0903,0.694846 0,0 0.129191,0.06164 0.129191,0.06164 z" />
      <path
         style="fill:#000000;stroke-width:0.730705"
         id="path9011"
         d="m 61.348209,32.588931 c -0.008,0.143431 -0.0399,0.694884 -0.049,0.893105 -0.002,0.0479 -0.007,0.0962 -0.004,0.143871 0.004,0.0605 0.0203,0.116681 0.0247,0.177041 0.002,0.0342 -0.004,0.0687 -0.004,0.103231 -6.1e-4,0.0736 1.7e-4,0.147271 3.3e-4,0.220911 -0.006,0.425373 0.0153,0.849016 0.0398,1.271418 0.004,0.0619 0.007,0.123931 0.0114,0.185592 0.016,0.209811 0.0141,0.0984 0.0229,0.290961 0.008,0.183731 0.008,0.368213 0.0142,0.552294 0.0116,0.298212 0.0236,0.595674 0.027,0.894585 -0.0129,0.400873 -0.009,0.802346 -0.0116,1.203638 -0.002,0.465563 -0.02,0.929796 -0.0647,1.388199 -0.0438,0.321802 -0.0376,0.652584 -0.0444,0.980676 -0.004,0.187421 -0.0109,0.374592 -0.0152,0.561983 -0.0152,0.633114 -0.0253,1.266388 -0.0123,1.899872 0.0187,0.574254 0.0105,1.149348 0.0165,1.724201 0.012,0.431933 0.006,0.864186 0.004,1.296358 -0.0107,0.523364 -0.0175,1.047007 -0.0268,1.57046 -0.002,0.627424 -0.0476,1.250158 -0.0728,1.874992 -0.0157,0.586024 -0.0265,1.172418 -0.0446,1.758231 -0.0392,0.743865 -0.0526,1.49297 -0.0996,2.235424 -0.0232,0.401773 -0.0549,0.802035 -0.0721,1.204848 -0.016,0.394662 6.2e-4,0.789845 -0.0133,1.184647 -0.0112,0.280732 -0.0251,0.556584 -0.0118,0.837396 -1.4e-4,0.242671 0.0117,0.482063 0.0299,0.722144 0.0112,0.186901 0.006,0.374693 0.004,0.562104 0.001,0.260581 0.0129,0.541113 0.051,0.792305 0.0191,0.125731 0.0468,0.246521 0.0702,0.369772 0.007,0.099 0.0137,0.197921 0.0206,0.296882 0,0 0.0349,0.006 0.0349,0.006 v 0 c 0.0163,-0.0966 0.0326,-0.193101 0.0489,-0.289662 0.0324,-0.119281 0.0694,-0.234711 0.0971,-0.357842 0.0551,-0.244672 0.0811,-0.539543 0.078,-0.805205 0.001,-0.224932 0.007,-0.450533 -0.009,-0.674384 -0.0173,-0.227782 -0.026,-0.454823 -0.0277,-0.685005 -0.002,-0.0529 -0.009,-0.10545 -0.009,-0.158591 3.3e-4,-0.190531 0.024,-0.381102 0.0228,-0.572083 0.0118,-0.390933 -10e-4,-0.781635 0.0122,-1.172168 0.0163,-0.394722 0.0483,-0.786895 0.0702,-1.180657 0.0441,-0.757255 0.06,-1.51961 0.0913,-2.278794 0.0151,-0.581554 0.0223,-1.163528 0.035,-1.745221 0.0243,-0.634564 0.0694,-1.267218 0.0688,-1.904292 0.008,-0.529134 0.0165,-1.058207 0.0251,-1.58729 6.1e-4,-0.437753 0.006,-0.875676 -0.008,-1.313079 -0.006,-0.579393 0.002,-1.159307 -0.0192,-1.737931 -0.0144,-0.616004 -0.006,-1.232007 0.006,-1.847951 0.004,-0.193222 0.009,-0.386323 0.0118,-0.579614 0.004,-0.296912 -0.006,-0.595064 0.0316,-0.887396 0.0389,-0.494563 0.0583,-0.993496 0.0504,-1.493469 -0.006,-0.406113 -0.0169,-0.811895 -0.0121,-1.218258 -0.008,-0.306162 -0.0266,-0.610154 -0.0427,-0.915155 -0.009,-0.195492 -0.009,-0.391473 -0.0229,-0.586084 -0.0158,-0.214931 -0.0106,-0.092 -0.0298,-0.284712 -0.006,-0.0585 -0.01,-0.117571 -0.015,-0.176351 -0.0285,-0.407983 -0.0629,-0.814905 -0.0604,-1.227598 -0.005,-0.161711 -0.004,-0.350902 -0.0345,-0.507023 -0.002,-0.0134 -0.0131,0.0454 -0.0155,0.0318 -0.007,-0.0388 -10e-4,-0.0813 -4e-5,-0.121891 0.006,-0.214261 0.0319,-0.725534 0.0399,-0.891965 0,0 -0.209401,-0.035 -0.209401,-0.035 z" />
      <path
         style="fill:#000000;stroke-width:0.730705"
         id="path9013"
         d="m 61.370829,31.948987 c 0.006,0.372472 0.0652,0.744854 0.0565,1.119517 -6.2e-4,0.0378 -0.0136,0.0723 -0.015,0.11 -0.002,0.0552 -10e-4,0.110591 -0.002,0.165871 0.0197,0.531634 0.0414,1.063907 0.073,1.59375 0.0287,0.452333 0.0564,0.910046 0.12005,1.351679 0.0301,0.209001 0.0707,0.412523 0.105021,0.619354 0,0 0.0347,-0.009 0.0347,-0.009 v 0 c 0.001,-0.146021 0.004,-0.537184 0.002,-0.648664 -0.0103,-0.452503 -0.0593,-0.898856 -0.0803,-1.349499 -0.0311,-0.519413 -0.0533,-1.040796 -0.0774,-1.56138 -0.003,-0.0995 0.006,-0.191821 0.004,-0.290431 -0.008,-0.380183 -0.0635,-0.753425 -0.0789,-1.131908 0,0 -0.141611,0.0306 -0.141611,0.0306 z" />
      <path
         style="fill:#000000;stroke-width:0.730705"
         id="path9015"
         d="m 52.840002,210.54918 c 0.155711,0.0362 0.311872,0.074 0.469093,0.0771 0.0563,8e-4 0.111541,-0.006 0.167771,-0.002 0.195831,0.0213 0.391603,0.0384 0.587744,0.0258 0.185641,-0.0341 0.370922,-0.0354 0.556983,-0.02 0.229782,-0.003 0.457623,0.025 0.684855,0.0852 0.234891,0.0468 0.470593,0.0798 0.705934,0.1196 0.330842,0.0728 0.661394,-0.006 0.990336,-0.0695 0.378563,-0.0516 0.755855,-0.12703 1.133148,-0.20283 0.265831,-0.0538 0.532803,-0.0819 0.800125,-0.0912 0.271201,-0.0102 0.541643,0.0261 0.812115,0.0546 0.244301,0.0316 0.486396,-0.046 0.726817,-0.11379 0.154141,-0.0419 0.308472,-0.0837 0.463653,-0.1106 0.105591,-0.0246 0.211432,8.1e-4 0.317092,0.002 0.058,0.002 0.115961,0.0102 0.173711,0.0201 0.213002,-0.008 -0.0238,-0.006 0.0365,0.003 0.0119,0.002 0.0476,0.009 0.0357,0.006 -0.007,-8.1e-4 -0.0145,-0.002 -0.0218,-0.003 -0.0871,-0.0499 0.0475,0.0229 0.0677,0.0312 0.364372,-0.0434 0.0513,0.0151 0.0489,8.1e-4 -0.0528,-0.30374 -0.0205,-0.65284 -0.0449,-0.32624 0,0 0.0247,0.0454 0.0247,0.0454 v 0 c 0.142331,0.0349 0.108551,0.0591 0.0955,-0.53509 -5e-4,-0.0258 -0.120291,0.008 -0.116101,0.009 0.0346,0.0134 0.0708,8.1e-4 0.106231,0.002 -0.0162,-0.008 -0.0179,-0.008 -0.0364,-0.0162 -0.0101,-0.005 0.0376,0.0317 0.0289,0.0215 -0.0181,-0.0212 -0.0429,-0.0337 -0.063,-0.0459 -0.0613,-0.0206 -0.11056,-0.0241 -0.173851,-0.0235 -0.0184,1.9e-4 0.0368,-8e-4 0.0552,-0.002 -0.0735,-0.0125 -0.147381,-0.0232 -0.221242,-0.0206 -0.121311,0.0102 -0.244311,-0.0238 -0.365002,0.0212 -0.161371,0.0409 -0.321982,0.0907 -0.482243,0.14433 -0.208981,0.0683 -0.419046,0.15015 -0.632747,0.12191 -0.281532,-0.027 -0.563004,-0.0637 -0.845205,-0.0489 -0.279152,0.0142 -0.558194,0.04 -0.835746,0.0988 -0.376832,0.0757 -0.753594,0.1523 -1.131727,0.20365 -0.301522,0.0598 -0.604664,0.13745 -0.908166,0.0716 -0.228431,-0.0386 -0.457152,-0.0699 -0.685344,-0.11184 -0.242501,-0.0635 -0.485953,-0.0933 -0.731094,-0.0859 -0.196742,-0.006 -0.392953,-6e-4 -0.588664,0.0426 -0.187611,0.0223 -0.375513,0.006 -0.563234,-0.006 -0.0564,2.9e-4 -0.11113,0.009 -0.167291,0.0124 -0.143591,0.009 -0.286562,-0.0267 -0.429392,-0.0468 0,0 -0.0455,0.66224 -0.0455,0.66224 z" />
      <path
         style="fill:#000000;stroke-width:0.874007"
         id="path9017"
         d="m 53.260487,182.72844 c 0.552585,0.4035 1.052003,1.07472 1.712476,1.33337 0.222852,0.0873 0.41149,0.001 0.630763,-0.0236 0.426714,0.0572 0.847145,0.12391 1.279276,0.10244 0.528792,-0.0981 1.053167,-0.22595 1.573715,-0.36166 0.328604,-0.0976 0.660115,-0.18381 0.985367,-0.29235 0.291086,-0.10003 0.566555,-0.23672 0.839168,-0.37793 0.256792,-0.16383 0.462523,-0.3909 0.677464,-0.60344 0.203792,-0.20726 0.351573,-0.45774 0.489533,-0.71133 0.0887,-0.21538 0.222192,-0.40605 0.361823,-0.59083 0.0587,-0.11739 0.182071,-0.23405 0.180031,-0.37384 -0.462963,-0.17708 -0.307512,-0.26092 -0.527143,0.0534 0,0 0.0326,0.0463 0.0326,0.0463 v 0 c 0.253511,-0.022 0.201721,0.0281 -0.004,-0.21614 -0.0142,0.018 -0.0845,0.1203 -0.108971,0.17287 -0.151451,0.20664 -0.304482,0.41624 -0.402522,0.65464 -0.112581,0.20881 -0.233642,0.4144 -0.397133,0.58775 -0.176151,0.17655 -0.348702,0.35828 -0.548462,0.50891 -0.247192,0.13034 -0.497561,0.25597 -0.763132,0.34544 -0.313055,0.10737 -0.63348,0.18901 -0.950403,0.28387 -0.488135,0.13093 -0.980647,0.24771 -1.473482,0.35892 -0.445206,0.0412 -0.878105,-0.0538 -1.322089,-0.0463 -0.06522,0.0137 -0.132298,0.0204 -0.195663,0.041 -0.04106,0.0134 -0.102564,0.0896 -0.157079,0.0714 -0.65466,-0.21862 -1.112249,-0.87291 -1.656293,-1.2462 0,0 -0.256087,0.28323 -0.256087,0.28323 z" />
      <path
         style="fill:#000000;stroke-width:0.874007"
         id="path9019"
         d="m 53.115965,154.789 c 0.511213,0.26152 1.047088,0.81581 1.643853,0.9189 0.27478,0.0475 0.161233,-0.0382 0.382027,-0.0911 0.05432,-0.013 0.111689,-0.002 0.167535,-0.004 0.552398,-0.0108 1.076552,0.18273 1.623914,0.21503 0.450565,-0.005 0.896782,-0.0684 1.343592,-0.11816 0.401383,-0.0147 0.761655,-0.14768 1.107997,-0.34039 0.338175,-0.17702 0.645374,-0.40154 0.95561,-0.62123 0.240421,-0.16234 0.477713,-0.31641 0.676754,-0.52944 0.146321,-0.15245 0.289812,-0.30776 0.440953,-0.45576 0.12068,-0.1388 0.204901,-0.3053 0.295491,-0.46457 0.0936,-0.14484 0.131011,-0.2406 0.0945,-0.41192 -0.0401,-0.0253 -0.0801,-0.0506 -0.120191,-0.076 0,0 -0.0559,-0.009 -0.0559,-0.009 v 0 c -0.0437,-0.003 -0.0874,-0.006 -0.131041,-0.009 -0.0288,-0.006 -0.0585,-0.0349 -0.0856,-0.023 -0.0956,0.0417 -0.123821,0.18246 -0.178872,0.26001 -0.0655,0.11729 -0.13237,0.23527 -0.207081,0.34637 -0.153621,0.15804 -0.306192,0.31678 -0.455753,0.47845 -0.164281,0.19164 -0.383602,0.31524 -0.581075,0.46965 -0.291396,0.21569 -0.583342,0.43024 -0.898254,0.61192 -0.285222,0.17228 -0.582328,0.28261 -0.918935,0.30461 -0.420884,0.0628 -0.842124,0.1232 -1.267053,0.15251 -0.568259,-0.003 -1.115988,-0.2183 -1.689153,-0.17109 -0.101804,0.019 -0.205585,0.0294 -0.305415,0.057 -0.03541,0.01 -0.04202,0.0827 -0.07839,0.0775 -0.582217,-0.0828 -1.059899,-0.609 -1.560809,-0.84783 0,0 -0.198679,0.28052 -0.198679,0.28052 z" />
      <path
         style="fill:#000000;stroke-width:0.874007"
         id="path9025"
         d="m 53.506029,124.83214 c 0.497326,0.3551 0.928958,1.03391 1.577257,1.16509 0.263676,0.0533 0.339107,-0.0417 0.573028,-0.0781 0.05669,-0.009 0.114746,-10e-4 0.172118,-0.002 0.47551,0.16966 0.883294,0.25951 1.387307,0.28685 0.416824,0.0416 0.82677,0.0862 1.245862,0.0615 0.438059,-0.0425 0.839158,-0.23474 1.212264,-0.45731 0.322392,-0.19138 0.588547,-0.45671 0.877439,-0.69163 0.166051,-0.10202 0.320562,-0.22174 0.473923,-0.34171 0.149951,-0.1018 0.275652,-0.23662 0.386672,-0.37883 0.0392,-0.10803 0.211812,-0.33609 0.197101,-0.44073 -0.005,-0.0386 -0.0423,-0.0655 -0.0634,-0.0983 -0.0559,0.0116 -0.111771,0.0232 -0.167661,0.0348 0,0 0.0513,0.024 0.0513,0.024 v 0 c -0.0174,-0.0705 -0.0348,-0.14107 -0.0523,-0.2116 -0.0401,-0.0118 -0.0791,-0.0413 -0.120471,-0.0352 -0.149351,0.022 -0.274741,0.25093 -0.342852,0.34806 -0.0732,0.10518 -0.174381,0.19285 -0.278592,0.26577 -0.155921,0.12524 -0.317682,0.24249 -0.482893,0.3553 -0.261287,0.22286 -0.50796,0.46518 -0.800057,0.64909 -0.283921,0.18332 -0.597249,0.34049 -0.933128,0.39682 -0.396131,0.0355 -0.786288,0.002 -1.183043,-0.0128 -0.106824,-0.002 -0.338108,-0.005 -0.447538,-0.0149 -0.33696,-0.0314 -0.648268,-0.19662 -0.989889,-0.2069 -0.08964,0.009 -0.180354,0.01 -0.268922,0.0264 -0.0592,0.0109 -0.115103,0.0354 -0.171975,0.0552 -0.03859,0.0134 -0.07375,0.0493 -0.114285,0.0443 -0.589492,-0.0735 -0.983571,-0.78465 -1.440501,-1.05935 0,0 -0.296804,0.31609 -0.296804,0.31609 z" />
      <path
         style="fill:#000000;stroke-width:0.874007"
         id="path9029"
         d="m 53.504767,93.213548 c 0.568482,0.331612 1.089863,0.813465 1.741401,0.988566 0.282328,0.0759 0.608884,0.0574 0.898845,0.0935 0.601109,0.153981 1.190842,0.352793 1.816329,0.357083 0.362148,-0.0195 0.725106,-0.0436 1.078522,-0.127171 0.381265,-0.0906 0.7225,-0.283572 1.073787,-0.448503 0.164271,-0.0787 0.317892,-0.174831 0.479833,-0.257252 0.187491,-0.0879 0.308452,-0.258811 0.456843,-0.394892 0.203001,-0.144881 0.305592,-0.265552 0.340462,-0.516133 -0.129701,-0.181261 -0.0351,-0.120561 -0.330722,-0.0662 0,0 0.0287,0.0488 0.0287,0.0488 v 0 c -0.113,-0.0627 -0.0602,-0.0306 -0.158971,-0.0955 -0.003,-0.01 5.3e-4,-0.0264 -0.009,-0.0296 -0.0466,-0.0152 -0.228741,0.263551 -0.272652,0.226041 -0.10739,0.100841 -0.198171,0.228692 -0.328142,0.300552 -0.153521,0.082 -0.302892,0.170511 -0.458323,0.248782 -0.316398,0.149561 -0.622316,0.327592 -0.964854,0.413682 -0.30862,0.0846 -0.631982,0.091 -0.948593,0.128151 -0.59798,0.0394 -1.168396,-0.180061 -1.750306,-0.282192 -0.108784,-0.01 -0.217261,-0.024 -0.32635,-0.0296 -0.157042,-0.008 -0.317695,0.0284 -0.471726,-0.003 -0.622635,-0.127871 -1.12783,-0.600744 -1.668396,-0.892266 0,0 -0.22639,0.337333 -0.22639,0.337333 z" />
      <path
         style="fill:#000000;stroke-width:0.874007"
         id="path9031"
         d="m 53.026792,65.902606 c 0.422899,0.337042 0.774564,0.654774 1.244097,0.913675 0.07895,0.0435 0.165974,0.0986 0.255574,0.0886 0.263003,-0.0295 0.250725,-0.243392 0.411503,-0.234562 0.358669,0.0204 0.717676,0.0491 1.074406,0.0925 0.260444,0.0172 0.516752,-0.0474 0.777356,-0.0282 0.330276,0.0149 0.652178,-0.0813 0.970778,-0.156081 0.284892,-0.0642 0.55855,-0.166771 0.839248,-0.246452 0.208271,-0.0454 0.392482,-0.155111 0.596848,-0.212251 0.203956,-0.0748 0.40373,-0.160331 0.603651,-0.245122 0.164722,-0.0619 0.307278,-0.167721 0.450159,-0.267991 0.110911,-0.116561 0.229981,-0.223802 0.337652,-0.343493 0.0892,-0.10283 0.162431,-0.217851 0.174131,-0.354812 0.0178,-0.0366 0.0356,-0.0733 0.0533,-0.10988 0,0 -0.0207,-0.0527 -0.0207,-0.0527 v 0 c -0.0591,-0.006 -0.11825,-0.0128 -0.177371,-0.0193 -0.146541,0.0527 -0.226561,0.144021 -0.324652,0.260462 -0.0928,0.0954 -0.193253,0.183321 -0.277043,0.286862 -0.119554,0.0848 -0.238605,0.176041 -0.376829,0.227971 -0.182966,0.0806 -0.36931,0.152321 -0.554162,0.228431 -0.203271,0.0595 -0.389057,0.160391 -0.594666,0.211632 -0.275955,0.0768 -0.543686,0.180231 -0.823775,0.241431 -0.278888,0.0675 -0.562148,0.154781 -0.851273,0.147751 -0.253173,-0.014 -0.501688,0.0266 -0.754033,0.0303 -0.421113,-0.0508 -0.851329,-0.10567 -1.274101,-0.0651 -0.07456,0.0395 -0.155499,0.0688 -0.223691,0.118431 -0.03647,0.0266 -0.11184,0.0702 -0.08426,0.10592 0.03421,0.0443 0.156055,0.057 0.167868,0.002 0.01159,-0.0537 -0.111141,-0.0157 -0.159253,-0.0422 -0.463953,-0.255381 -0.773316,-0.536263 -1.199288,-0.872265 0,0 -0.261513,0.294102 -0.261513,0.294102 z" />
      <path
         style="fill:#b3b3b3;stroke-width:0.489564"
         d="m 55.419724,155.22247 c -0.691588,-0.0454 -1.093879,-0.16311 -1.519097,-0.44451 L 53.322239,154.3952 V 110.32851 66.261832 l 0.546853,0.371104 c 0.306548,0.20803 0.648458,0.331295 0.778073,0.280513 0.12717,-0.04983 0.83145,-0.103804 1.565062,-0.119952 2.171875,-0.04781 4.668441,-1.082007 4.668441,-1.933899 0,-0.354031 -0.273107,-0.288112 -0.829193,0.200137 -0.76164,0.668728 -2.532341,1.168863 -4.261801,1.203745 -1.277339,0.02577 -1.48126,-0.0075 -1.929642,-0.314729 L 53.35867,65.605211 53.36737,50.99745 C 53.37217,42.963181 53.29802,33.221815 53.202608,29.349973 52.873654,16.000853 52.70392,10.598696 52.578698,9.4928714 c -0.06908,-0.610077 -0.102651,-1.132183 -0.0746,-1.160239 0.05569,-0.05569 1.740475,5.0178746 2.377699,7.1602166 0.218206,0.733613 0.753538,2.300877 1.189624,3.482807 0.436087,1.18193 1.402454,3.806545 2.147481,5.832472 0.745029,2.02593 1.70516,4.496429 2.133629,5.489999 l 0.779031,1.806488 0.09951,2.29074 c 0.05473,1.259909 0.02582,6.258917 -0.06426,11.108911 -0.09008,4.849994 -0.152195,17.454789 -0.138034,28.010656 l 0.02574,19.192485 -0.790903,0.476838 c -1.184425,0.714091 -1.653336,0.83661 -2.770797,0.723971 -1.936207,-0.195169 -2.521075,-0.333542 -3.139442,-0.742757 -0.497322,-0.329112 -0.650749,-0.372689 -0.751643,-0.21348 -0.19659,0.310218 -0.180146,0.330996 0.646767,0.817327 0.940478,0.55312 3.189702,1.019253 4.289613,0.888982 0.398897,-0.04724 1.1225,-0.287755 1.608005,-0.53447 l 0.882738,-0.448575 v 15.012177 c 0,11.78789 -0.03979,15.06173 -0.185255,15.24289 -0.360796,0.44933 -1.744321,1.43417 -2.248522,1.60057 -0.37941,0.12521 -0.821375,0.12631 -1.712897,0.004 -0.660852,-0.0905 -1.328217,-0.12431 -1.483031,-0.0752 -0.195356,0.062 -0.46514,-0.0766 -0.881719,-0.45293 -0.549628,-0.49657 -1.047005,-0.60831 -1.047005,-0.23523 0,0.18199 1.137962,1.20188 1.371318,1.22903 0.467614,0.0544 1.339752,0.12067 2.704304,0.20545 1.607674,0.0999 1.544798,0.12096 3.149348,-1.05595 l 0.333459,-0.24459 v 14.23418 14.23418 l -0.703971,0.60602 c -1.320364,1.13663 -2.389774,1.40749 -4.905178,1.24236 z"
         id="path9059" />
      <path
         style="fill:#b3b3b3;stroke-width:0.489564"
         d="m 54.433771,183.07295 c -0.326048,-0.26611 -0.709529,-0.52399 -0.852175,-0.57306 -0.24449,-0.0841 -0.259357,-0.87349 -0.259357,-13.77042 v -13.6812 l 0.672544,0.3759 c 0.394578,0.22053 0.798837,0.34286 0.978112,0.29598 0.168059,-0.044 0.701934,-0.0101 1.186383,0.0752 1.400684,0.24672 2.76181,-0.0178 3.883045,-0.75466 l 0.912447,-0.59964 0.04074,13.2981 c 0.02241,7.31396 0.0058,13.44301 -0.037,13.62011 -0.266802,1.10508 -2.557134,2.12542 -4.882294,2.17506 -0.980827,0.0209 -1.088487,-0.009 -1.642449,-0.46142 z"
         id="path9061" />
      <path
         style="fill:#b3b3b3;stroke-width:0.489564"
         d="m 54.470824,209.90112 -1.148585,-0.0505 v -13.50946 -13.50945 l 0.481664,0.44437 c 0.850305,0.78446 0.999361,0.84959 2.067578,0.90345 1.637485,0.0826 3.985465,-0.56617 4.823933,-1.33284 l 0.333459,-0.30491 v 13.41908 13.41909 l -0.662709,0.18554 c -0.364492,0.10205 -0.835803,0.15246 -1.047357,0.11202 -0.211557,-0.0404 -0.897044,0.0168 -1.523306,0.12721 -0.626265,0.1104 -1.372082,0.18863 -1.657376,0.17382 -0.285294,-0.0148 -1.035581,-0.0496 -1.667301,-0.0774 z"
         id="path9063" />
      <path
         style="fill:#000000;stroke-width:0.874007"
         id="path9071"
         d="m 61.148158,31.970777 c -0.0974,-0.08408 -0.214432,-0.185977 -0.315052,-0.270192 -0.0392,-0.03285 -0.0818,-0.06192 -0.118811,-0.09725 -0.0204,-0.01942 -0.0979,-0.110191 -0.104241,-0.117557 -0.158961,-0.191301 -0.322742,-0.377357 -0.508529,-0.542686 -0.172218,-0.181248 -0.348866,-0.35725 -0.531757,-0.527733 -0.233508,-0.190707 -0.361718,-0.414864 -0.500215,-0.675424 -0.147524,-0.273256 -0.300666,-0.543344 -0.462875,-0.808162 -0.240873,-0.391036 -0.462992,-0.793188 -0.683452,-1.195953 -0.222511,-0.424239 -0.416954,-0.862216 -0.650647,-1.280533 -0.25581,-0.399006 -0.434755,-0.83707 -0.618393,-1.271927 -0.201947,-0.466974 -0.432011,-0.920811 -0.642346,-1.383983 -0.199717,-0.435202 -0.314759,-0.901448 -0.479211,-1.349534 -0.0416,-0.113351 -0.08834,-0.224752 -0.132505,-0.337129 -0.04147,-0.09327 -0.08297,-0.18653 -0.124407,-0.279817 -0.111345,-0.250671 -0.124085,-0.271393 -0.224064,-0.532051 -0.09348,-0.243723 -0.175179,-0.491931 -0.258515,-0.739232 -0.173711,-0.466932 -0.25819,-0.957552 -0.348451,-1.445354 -0.09804,-0.527157 -0.155296,-1.061415 -0.27375,-1.584592 -0.109218,-0.392621 -0.199725,-0.789262 -0.282489,-1.188109 -0.08749,-0.38623 -0.189525,-0.76895 -0.283091,-1.153741 -0.08601,-0.38896 -0.190657,-0.773466 -0.277293,-1.16225 -0.101708,-0.390049 -0.18396,-0.784008 -0.256454,-1.180338 -0.106011,-0.499115 -0.163767,-1.005936 -0.24013,-1.509869 -0.02479,-0.252415 -0.113422,-0.489885 -0.175144,-0.733468 -0.0073,-0.02871 -0.05688,-0.276986 -0.05707,-0.277946 -0.04625,-0.275147 -0.09878,-0.5495876 -0.139122,-0.8257056 -0.03309,-0.194893 -0.0024,-0.388342 0.01773,-0.582211 0.01323,-0.197987 0.04152,-0.395804 0.03374,-0.594528 -0.0062,-0.06707 0.0222,-0.12726 0.03275,-0.192525 -0.0071,-0.05276 0.0053,-0.02723 -0.06094,-0.05962 0,0 -0.128184,-0.03082 -0.128184,-0.03082 v 0 c -0.07591,0.0032 -0.053,-0.01561 -0.08235,0.03367 -0.03878,0.08076 -0.06734,0.162715 -0.07179,0.253481 -0.0038,0.185947 -0.02302,0.370882 -0.03778,0.556157 -0.02516,0.219982 -0.05488,0.440304 -0.02029,0.661574 0.0393,0.282481 0.09247,0.5632116 0.139376,0.8444626 0.0056,0.02797 0.05334,0.266987 0.06321,0.306628 0.057,0.228889 0.143884,0.451025 0.164196,0.688672 0.07402,0.507971 0.13255,1.01835 0.234217,1.52197 0.07326,0.400515 0.156938,0.798599 0.259007,1.192928 0.08729,0.390822 0.193453,0.7771 0.280632,1.167969 0.09283,0.381722 0.195589,0.761014 0.282884,1.144049 0.08721,0.39933 0.173396,0.798626 0.287255,1.191582 0.118184,0.518899 0.172173,1.049607 0.273127,1.571958 0.09481,0.502452 0.181909,1.008227 0.362866,1.488892 0.08635,0.252821 0.17161,0.506429 0.269614,0.755056 0.102644,0.260392 0.120974,0.293946 0.235378,0.541053 0.04109,0.08874 0.08252,0.177322 0.123781,0.265984 0.04454,0.106895 0.09185,0.212679 0.133628,0.320685 0.175397,0.453456 0.297595,0.927371 0.505723,1.368426 0.212282,0.459148 0.439655,0.911281 0.640759,1.37553 0.187834,0.444764 0.369741,0.893971 0.637917,1.298266 0.239732,0.413617 0.448342,0.843152 0.674924,1.263941 0.227538,0.403399 0.471224,0.797223 0.720449,1.187576 0.164734,0.257828 0.317751,0.5225 0.465133,0.790606 0.150099,0.282022 0.292538,0.516794 0.542987,0.724503 0.186259,0.169427 0.36292,0.347749 0.540345,0.526246 0.03617,0.03069 0.07427,0.05925 0.108444,0.09215 0.138501,0.133351 0.255712,0.287893 0.385592,0.429162 0.0444,0.05098 0.0785,0.09349 0.127381,0.138539 0.0367,0.03382 0.0781,0.06219 0.116531,0.0941 0.122661,0.101919 0.185691,0.156833 0.312882,0.265723 0,0 0.116881,-0.131292 0.116881,-0.131292 z" />
      <path
         style="fill:#000000;stroke-width:0.874007"
         id="path9073"
         d="m 61.182128,31.915994 c -0.185621,-0.06353 -0.209782,-0.07447 -0.382523,-0.124984 -0.0568,-0.01662 -0.1363,-0.04321 -0.198601,-0.03594 -0.0281,0.0033 -0.0641,0.02312 -0.0916,0.03742 0,0 -0.004,0.05652 -0.004,0.05652 v 0 c 0.0816,0.08855 0.13434,0.08055 0.246261,0.108136 0.0907,0.02236 0.306242,0.08408 0.382172,0.105471 0,0 0.0481,-0.146622 0.0481,-0.146622 z" />
      <path
         style="fill:#000000;stroke-width:0.874007"
         id="path9075"
         d="m 61.020877,32.12816 c -0.286412,-0.198908 -0.566194,-0.389197 -0.893736,-0.513492 0,0 -0.0139,0.02906 -0.0139,0.02906 v 0 c 0.200311,0.118748 -0.04964,-0.03222 0.294102,0.195811 0.0961,0.06376 0.194271,0.124387 0.291412,0.186577 0.0895,0.05961 0.178921,0.119225 0.268381,0.178836 0,0 0.0538,-0.07679 0.0538,-0.07679 z" />
    </g>
  </g>
</svg>
