<?xml version="1.0" encoding="UTF-8" standalone="no"?>
<!-- Created with Inkscape (http://www.inkscape.org/) -->

<svg
   width="210mm"
   height="297mm"
   viewBox="0 0 210 297"
   version="1.1"
   id="svg7951"
   inkscape:version="1.2 (dc2aedaf03, 2022-05-15)"
   sodipodi:docname="bambu.svg"
   xmlns:inkscape="http://www.inkscape.org/namespaces/inkscape"
   xmlns:sodipodi="http://sodipodi.sourceforge.net/DTD/sodipodi-0.dtd"
   xmlns="http://www.w3.org/2000/svg"
   xmlns:svg="http://www.w3.org/2000/svg">
  <sodipodi:namedview
     id="namedview7953"
     pagecolor="#505050"
     bordercolor="#eeeeee"
     borderopacity="1"
     inkscape:showpageshadow="0"
     inkscape:pageopacity="0"
     inkscape:pagecheckerboard="0"
     inkscape:deskcolor="#505050"
     inkscape:document-units="mm"
     showgrid="false"
     inkscape:zoom="0.89263468"
     inkscape:cx="692.3325"
     inkscape:cy="579.18431"
     inkscape:window-width="2560"
     inkscape:window-height="1369"
     inkscape:window-x="2552"
     inkscape:window-y="-8"
     inkscape:window-maximized="1"
     inkscape:current-layer="layer1" />
  <defs
     id="defs7948" />
  <g
     inkscape:label="Camada 1"
     inkscape:groupmode="layer"
     id="layer1">
    <path
       style="fill:#000000;stroke-width:0.7307"
       id="path8950"
       d="m 92.556127,92.790035 c 0,15.453965 0,30.907935 0,46.361905 0,18.25634 0,36.51266 0,54.769 0,10.85698 0,21.71396 0,32.57093 0,4.97788 0,9.95576 0,14.93363 0,2.74925 0,5.4985 0,8.24775 0,0 0.61874,0 0.61874,0 v 0 c 0,-2.74925 0,-5.4985 0,-8.24775 0,-4.97787 0,-9.95575 0,-14.93363 0,-10.85697 0,-21.71395 0,-32.57093 0,-18.25634 0,-36.51266 0,-54.769 0,-15.45397 0,-30.90794 0,-46.361905 0,0 -0.61874,0 -0.61874,0 z" />
    <path
       id="path8952"
       style="fill:#000000;stroke-width:0.7307"
       d="m 101.37264,92.823945 c -5.4e-4,0.0236 -6.2e-4,0.0295 -0.001,0.0543 0.001,-0.008 0.002,-0.0164 0.004,-0.0245 -0.001,-0.01 -0.002,-0.0198 -0.003,-0.0298 z m 0.61486,0.21132 c -0.004,0.0541 -0.009,0.10809 -0.0134,0.16229 -0.008,0.1084 -0.0148,0.2171 -0.0217,0.32574 0.0126,-0.13327 0.0253,-0.2665 0.0333,-0.40105 z m -0.43229,3.46291 c -0.0685,0.1431 -0.14667,0.26616 -0.24748,0.3345 -0.14274,0.0916 -0.28112,0.0992 -0.39072,-0.12084 -0.0159,0.24203 -0.0273,0.48511 -0.0262,0.73204 6.2e-4,0.19349 0.0261,0.38432 0.0371,0.57676 0.0169,0.29588 0.0309,0.59236 0.0464,0.8885 0.0722,1.944185 0.0103,3.893165 0.006,5.839415 0.01,2.09668 0.008,4.19337 0.006,6.29009 -0.001,1.35436 -3.7e-4,2.70867 -3.2e-4,4.06302 -1.3e-4,2.44342 -2e-5,4.88696 0,7.33037 2e-5,2.06161 0,4.1234 0,6.18501 v 7.89487 8.2825 8.85867 6.63334 13.63855 13.78801 9.45002 4.9194 7.29185 7.15581 6.00464 8.49731 4.22706 1.87623 3.14475 3.53705 2.05953 2.51604 1.41447 h 0.6187 v -1.41447 -2.51604 -2.05953 -3.53705 -3.14475 -1.87623 -4.22706 -8.49731 -6.00464 -7.15581 -7.29185 -4.9194 -9.45002 -13.78801 -13.63855 -6.63334 -8.85867 -8.2825 -7.89487 c 0,-2.06161 10e-6,-4.1234 0,-6.18501 -2e-5,-2.44344 -1.4e-4,-4.88693 0,-7.33037 -6e-5,-1.35389 -0.001,-2.70795 3.2e-4,-4.06185 0.001,-2.09522 0.004,-4.19083 -0.006,-6.28601 0.006,-1.98396 0.0686,-3.97038 -0.008,-5.952085 -0.0164,-0.31156 -0.0295,-0.62428 -0.0493,-0.93519 -0.008,-0.11911 -0.0311,-0.23447 -0.0326,-0.35435 -0.004,-0.34313 0.0155,-0.68006 0.0467,-1.014 z" />
    <path
       style="fill:#000000;stroke-width:0.7307"
       id="path8991"
       d="m 92.909627,93.090835 c -0.0114,-0.47204 -0.001,-0.9515 -0.0499,-1.41836 -0.0143,-0.13751 -0.0376,-0.26849 -0.0507,-0.40751 -0.0495,-0.77826 -0.0539,-1.56168 -0.0604,-2.34399 0.002,-0.93188 -0.004,-1.86358 -0.006,-2.79545 0.007,-1.05008 -0.0474,-2.09613 -0.0814,-3.14328 -0.0336,-0.63204 -0.0168,-1.26588 -0.0157,-1.89912 9.9e-4,-0.54303 -0.003,-0.59304 -0.0131,-1.1431 -0.026,-1.0047 -0.008,-2.01052 -0.0107,-3.01582 -0.0118,-0.95433 -0.058,-1.90532 -0.0724,-2.85954 -0.002,-0.14833 -0.005,-0.29669 -0.007,-0.445 -0.003,-0.16738 -0.0157,-0.63647 -0.0164,-0.80205 -0.002,-0.43268 0.0146,-0.8653 0.0271,-1.2971 0.0243,-0.81751 0.007,-1.6361 0.0244,-2.45399 0.0322,-0.69224 0.019,-1.38748 0.0206,-2.08136 0.0201,-0.63106 -0.009,-1.26092 -0.0279,-1.89053 0.005,-0.48864 -0.0289,-0.97225 -0.0528,-1.45752 -0.007,-0.21165 -0.031,-0.41679 -0.0597,-0.62114 0.0139,-0.0634 -0.007,0.18839 -0.0107,0.1369 -0.0151,-0.22217 0.0228,-0.18875 -0.0225,-0.31844 0.0664,0.15813 0.0175,0.0226 -0.17692,0.38051 -0.0685,0.12617 0.10683,-0.29727 0.15643,-0.45017 0.002,-0.006 -0.006,-0.0192 -0.008,-0.0136 -0.0567,0.14546 -0.10729,0.29859 -0.16094,0.44789 0.0848,0.13063 -0.0163,-0.0165 0.20856,-0.38753 0.0218,-0.036 0.0105,0.17369 0.0235,0.0363 0.002,-0.023 0.004,-0.0463 0.006,-0.0694 0.0109,-0.155452 -0.009,-0.30833 -0.002,-0.463997 0.008,-0.234276 -0.019,-0.467352 -0.0443,-0.695859 -0.024,-0.266307 -0.0385,-0.53508 -0.0568,-0.802859 -0.0267,-0.356504 -0.0289,-0.71644 -0.0304,-1.075575 0.004,-0.462125 0.0212,-0.921966 0.013,-1.384394 -0.006,-0.590521 -0.0112,-1.180678 -0.0243,-1.770941 -0.0251,-0.902474 -0.0511,-1.804958 -0.068,-2.708082 -0.024,-0.759949 3.2e-4,-1.519743 0.0192,-2.278843 0.0125,-0.603656 -0.0143,-1.204662 -0.0551,-1.802954 -0.048,-0.512753 -0.049,-1.029858 -0.0423,-1.547882 0.004,-0.33498 -0.0175,-0.646722 0.007,-0.980473 0.03,-0.219503 0.0226,-0.45087 0.0451,-0.671668 -0.006,0.05655 0.005,-0.01546 0.005,-0.02412 0.009,-0.227711 -0.0216,-0.06231 -0.19426,0.103714 0.0505,0.210977 0.14986,0.357011 0.23135,0.526238 0.21403,0.449858 0.39278,0.949115 0.56578,1.452803 0.3395,1.054124 0.7115,2.071426 1.05367,3.122513 0.37796,1.229751 0.77065,2.443339 1.13917,3.68272 0.41581,1.38321 0.91485,2.674691 1.40539,3.97125 0.31336,0.74628 0.54801,1.584311 0.83185,2.365544 0.32438,0.839413 0.65734,1.666565 0.96747,2.524015 0.24992,0.66828 0.48211,1.35807 0.73193,2.02632 0.28071,0.693 0.52821,1.42868 0.82124,2.10474 0.290263,0.61895 0.566803,1.25916 0.832383,1.91395 0.0746,0.20994 0.1396,0.42717 0.22234,0.62744 0.0598,0.13473 0.12424,0.26233 0.18906,0.38902 0.0363,0.0881 0.0779,0.1661 0.12719,0.23014 0.002,0.003 0.009,0.0137 0.007,0.01 -0.14361,-0.28373 0.002,0.0381 -0.0651,-0.16363 -0.008,-0.0248 0.007,0.0575 0.0146,0.0832 0.0101,0.0348 0.022,0.0679 0.033,0.1018 -0.0504,-0.16586 -0.046,-0.14717 -0.0491,-0.0236 -0.002,0.0659 -0.002,0.12153 -0.002,0.18794 -0.008,0.35646 0.004,0.71455 0.0134,1.07081 6.2e-4,0.4973 0.0489,0.98222 0.12105,1.45944 0.0892,0.56832 0.0857,1.16188 0.1064,1.74677 0.0367,0.79425 0.0938,1.58444 0.12375,2.3798 0.0188,0.76049 0.0177,1.52148 0.004,2.28213 -0.004,0.77654 -0.0668,1.54492 -0.12278,2.31294 -0.0405,0.68702 -0.0724,1.37545 -0.0919,2.06552 -0.0342,0.69313 -0.0303,1.38835 -0.0382,2.08327 -0.002,0.62522 -0.0359,1.24771 -0.0374,1.87307 -0.001,0.40305 0.007,0.69465 0.0161,1.08746 0.023,0.66291 -0.0343,1.3203 -0.0694,1.97805 -0.038,0.57628 -0.0341,1.15555 -0.0255,1.73424 0.008,0.43464 0.006,0.8679 0.0236,1.30188 0.015,0.34311 0.0322,0.68496 0.0336,1.02929 3.3e-4,0.22949 -0.006,0.45848 -0.0135,0.68745 -0.007,0.16787 -0.0164,0.33272 -0.0374,0.49638 -0.0244,0.20718 -0.0205,0.42014 -0.0368,0.62905 0.001,0.10036 -0.009,0.19436 -0.0223,0.29043 -0.0171,0.14 -0.0298,0.28269 -0.0393,0.42505 -0.004,0.10268 0.0244,0.14971 0.0514,0.23887 0.0189,0.0628 0.0354,0.12799 0.0532,0.19199 0,0 0.0331,0.0209 0.0331,0.0209 v 0 c 0.0857,-0.0899 0.19573,-0.17537 0.21737,-0.37254 0.008,-0.1149 0.0213,-0.23013 0.0335,-0.34374 0.0166,-0.12118 0.0303,-0.24226 0.0303,-0.36781 0.0124,-0.18914 0.01,-0.38069 0.0267,-0.56903 0.0238,-0.19832 0.0367,-0.39781 0.0443,-0.60051 0.008,-0.24374 0.0139,-0.48754 0.0129,-0.7318 -0.002,-0.35855 -0.0204,-0.71497 -0.0358,-1.07222 -0.0176,-0.42359 -0.0141,-0.84685 -0.0227,-1.2711 -0.008,-0.55216 -0.0121,-1.1047 0.0234,-1.65468 0.0365,-0.68668 0.0955,-1.37324 0.0701,-2.06526 -0.008,-0.36138 -0.0159,-0.68102 -0.0153,-1.04661 0.001,-0.6265 0.0343,-1.25017 0.0369,-1.87647 0.007,-0.68846 0.003,-1.37715 0.0373,-2.06377 0.0176,-0.67275 0.0491,-1.34349 0.0881,-2.01322 0.0575,-0.78907 0.11921,-1.57869 0.12444,-2.37629 0.0139,-0.78183 0.0151,-1.5641 -0.004,-2.34576 -0.0289,-0.79495 -0.0859,-1.58447 -0.12368,-2.37799 -0.0223,-0.62837 -0.0212,-1.2656 -0.11831,-1.8756 -0.0656,-0.43141 -0.10786,-0.86933 -0.1088,-1.31913 -0.008,-0.34584 -0.0218,-0.69317 -0.013,-1.03914 -1.7e-4,-0.0966 0.0126,-0.32441 -0.002,-0.40705 -0.0124,-0.0672 -0.033,-0.12829 -0.0495,-0.19243 0.009,0.0331 0.0192,0.0667 0.0247,0.10261 0.001,0.008 0.005,0.0331 0.003,0.0251 -0.0226,-0.10744 -0.0191,-0.12683 -0.0794,-0.21672 -0.0261,-0.0307 -0.0528,-0.0827 -0.0757,-0.14088 -0.0577,-0.11227 -0.11616,-0.22337 -0.1693,-0.34298 -0.0835,-0.19567 -0.13961,-0.42019 -0.21798,-0.62238 -0.26753,-0.65906 -0.54379,-1.30677 -0.8328,-1.93493 -0.285803,-0.66809 -0.525743,-1.39619 -0.799573,-2.08053 -0.24692,-0.66877 -0.48035,-1.35392 -0.7286,-2.02118 -0.31038,-0.85775 -0.64173,-1.687716 -0.96845,-2.524736 -0.28555,-0.783884 -0.51987,-1.6273 -0.83656,-2.374289 -0.4857,-1.276716 -0.97967,-2.549137 -1.39369,-3.909427 -0.37597,-1.241628 -0.77227,-2.461273 -1.16872,-3.681322 -0.35409,-1.043137 -0.7365,-2.052811 -1.08621,-3.10103 -0.18698,-0.519632 -0.3777,-1.039549 -0.61336,-1.491308 -0.0649,-0.121675 -0.14321,-0.225783 -0.19309,-0.369859 -0.078,0.0022 -0.15603,-0.0018 -0.23387,0.006 -0.007,5.97e-4 0.005,0.04875 0.007,0.03639 0.004,-0.02666 0.01,-0.108537 0.007,-0.0816 -0.002,0.01892 -0.006,0.03728 -0.008,0.05592 -0.0151,0.226859 -0.0172,0.456923 -0.041,0.682165 -0.0201,0.339264 -0.006,0.673365 -0.008,1.013611 -0.008,0.535752 -0.008,1.070894 0.0365,1.602394 0.0381,0.576862 0.0619,1.156806 0.0472,1.73834 -0.0234,0.768862 -0.0546,1.538279 -0.0381,2.308967 0.009,0.904719 0.0238,1.809093 0.0439,2.713209 0.009,0.589707 0.0107,1.17919 0.0134,1.768989 0.006,0.457623 -0.0115,0.912468 -0.0168,1.369702 -0.002,0.378346 -3.2e-4,0.757233 0.025,1.133384 0.0161,0.28144 0.0297,0.563758 0.0529,0.84353 0.0186,0.184396 0.0387,0.373025 0.0314,0.56113 -0.005,0.141648 3.3e-4,0.280502 0.002,0.42146 -0.006,0.0678 -0.0187,0.15041 -0.0155,0.21585 0.0174,0.35804 0.0804,0.11137 0.25895,-0.12031 0.003,-0.004 -0.006,-0.008 -0.009,-0.012 -0.0678,0.12867 -0.1384,0.25267 -0.20345,0.38603 -0.003,0.005 0.006,0.008 0.009,0.0121 0.07,-0.12422 0.14007,-0.24844 0.21011,-0.37265 -10e-4,-0.002 -0.003,-0.007 -0.004,-0.005 -0.23586,0.29977 -0.27966,0.16003 -0.21123,0.33607 -0.0271,-0.0931 0.0111,-0.0302 0.004,-0.22216 -0.002,-0.0709 -0.0323,0.28327 -0.013,0.22294 0.0275,0.177 0.0442,0.35755 0.0524,0.54127 0.0252,0.47926 0.0579,0.95689 0.0533,1.43977 0.0188,0.62036 0.0478,1.24092 0.0275,1.86274 -0.002,0.68864 0.0119,1.37842 -0.0186,2.0656 -0.017,0.8157 -6.8e-4,1.63189 -0.0237,2.44727 -0.0129,0.44526 -0.0289,0.89136 -0.0267,1.33752 3.3e-4,0.0646 0.015,0.7292 0.0164,0.80089 0.003,0.14763 0.005,0.29529 0.008,0.44294 0.0144,0.95101 0.0631,1.89828 0.0759,2.84929 0.003,1.00969 -0.0158,2.01988 0.0102,3.02897 0.0109,0.57817 0.0134,0.55045 0.0124,1.1211 -0.001,0.64457 -0.0166,1.28976 0.0155,1.93319 0.0351,1.03884 0.0883,2.07672 0.0834,3.11854 0.004,0.93372 0.0128,1.86729 0.0142,2.80105 0.0104,0.80501 0.0172,1.61135 0.0738,2.41129 0.007,0.0678 0.013,0.13616 0.0214,0.2035 0.008,0.0652 0.0255,0.12589 0.033,0.19136 0.0507,0.4449 0.0399,0.9045 0.0545,1.35516 0,0 0.21874,0 0.21874,0 z" />
    <path
       style="fill:#000000;stroke-width:0.7307"
       id="path8993"
       d="m 92.392247,80.246655 c 0.047,0.61078 0.005,1.24163 0.0894,1.84235 0.047,0.63087 0.0655,1.26735 0.11023,1.89924 0.0386,0.46713 0.051,0.93945 0.0765,1.40932 0.0351,0.5478 0.0647,1.09595 0.0894,1.64556 0.0138,0.46735 0.0435,0.93238 0.0627,1.39892 0.0147,0.46546 0.0226,0.93001 0.0511,1.39365 0.0259,0.44325 0.0358,0.88832 0.0497,1.33305 0.007,0.36964 0.0113,0.73897 0.005,1.10863 0.002,0.39853 -0.0227,0.7923 -0.0467,1.18749 -0.0216,0.27131 -0.0383,0.54297 -0.049,0.81633 0.003,0.18231 -0.0272,0.38013 0.015,0.55067 0.046,0.0209 0.0163,0.004 0.0849,0.07 0,0 0.0166,0.0563 0.0166,0.0563 v 0 c 0.1316,0.0205 0.083,0.0663 0.15533,-0.0966 0.0502,-0.17558 0.0341,-0.34471 0.0408,-0.53706 0.0117,-0.26602 0.0286,-0.5306 0.0473,-0.79544 0.026,-0.41147 0.0493,-0.82249 0.0468,-1.23746 0.004,-0.38618 -0.001,-0.77179 -0.0123,-1.15759 -0.017,-0.4538 -0.0278,-0.90833 -0.0583,-1.36019 -0.0295,-0.45746 -0.0356,-0.91598 -0.0532,-1.37513 -0.0221,-0.46748 -0.0519,-0.93375 -0.0696,-1.40198 -0.0289,-0.55188 -0.0673,-1.1008 -0.10611,-1.65064 -0.0287,-0.474 -0.0468,-0.9507 -0.0912,-1.42093 -0.0507,-0.64981 -0.0685,-1.30889 -0.1397,-1.95248 -0.0979,-0.56556 -0.0708,-1.17415 -0.12175,-1.75545 0,0 -0.19268,0.0294 -0.19268,0.0294 z" />
    <path
       style="fill:#000000;stroke-width:0.7307"
       id="path8995"
       d="m 92.523477,89.284035 c 0.0261,0.40639 0.0443,0.81463 0.0517,1.22363 0.002,0.12594 -0.004,0.24895 -0.003,0.37516 0.005,0.43234 0.0159,0.86452 0.0192,1.29693 3.3e-4,0.39194 -0.009,0.78376 -0.009,1.17563 -5e-4,0.31841 0.004,0.63587 -0.01,0.95363 9.9e-4,0.13359 -0.0177,0.41404 0.01,0.53496 0.0109,0.0481 0.0352,0.0819 0.0526,0.12296 0,0 0.0316,0.0276 0.0316,0.0276 v 0 c 0.043,-0.0404 0.0679,-0.0534 0.0952,-0.14723 0.0318,-0.10936 -0.003,-0.38157 0.0141,-0.51089 0.0124,-0.32756 0.006,-0.65463 0.005,-0.9826 -0.002,-0.39356 0.006,-0.7873 0.003,-1.18095 -0.006,-0.43563 -0.0191,-0.87153 -0.0363,-1.30604 -0.0255,-0.53762 -0.0529,-1.07538 -0.0991,-1.60905 0,0 -0.12485,0.0263 -0.12485,0.0263 z" />
    <path
       style="fill:#000000;stroke-width:0.7307"
       id="path8997"
       d="m 92.536537,88.981775 c 0.052,0.58099 0.17054,1.1557 0.19685,1.74466 0.005,0.1174 -10e-4,0.22305 -0.006,0.33992 0.007,0.49892 0.0154,0.998 0.0177,1.49742 0.008,0.33783 0.0189,0.64565 0.10184,0.95337 0,0 0.035,0.003 0.035,0.003 v 0 c 0.0153,-0.0507 0.0357,-0.0973 0.0458,-0.1521 0.0479,-0.25911 0.0173,-0.5418 0.0156,-0.80731 -0.002,-0.49338 -0.0101,-0.98624 -0.0251,-1.47864 0.002,-0.15251 0.006,-0.25423 -0.005,-0.40706 -0.0421,-0.59684 -0.16556,-1.16745 -0.22764,-1.75665 0,0 -0.1495,0.0634 -0.1495,0.0634 z" />
    <path
       style="fill:#000000;stroke-width:0.7307"
       id="path8999"
       d="m 91.887857,47.369695 c 0.0148,0.567585 -0.0171,1.140235 0.008,1.707299 0.005,0.106176 0.015,0.211299 0.0217,0.317121 0.0225,0.382299 0.0376,0.766201 0.0667,1.147095 0.0395,0.407749 0.0916,0.809975 0.1252,1.219558 0.0282,0.358616 0.0635,0.714642 0.0916,1.073183 0.0187,0.34458 0.0554,0.684408 0.0859,1.025954 0.002,0.390705 0.003,0.780602 0.0154,1.171421 0.0109,0.462004 0.014,0.922529 0.0448,1.382007 0.0109,0.418502 0.0487,0.831976 0.0749,1.247548 0.0289,0.559051 0.0455,1.119796 0.0424,1.681324 -0.008,0.525824 0.0261,1.048342 0.0179,1.573996 -0.009,0.441854 0.0166,0.881535 0.0126,1.323436 -0.003,0.485358 -0.005,0.971418 0.002,1.456728 0.003,0.48759 0.0105,0.97491 0.021,1.46216 0.003,0.41445 0.0221,0.82783 0.0224,1.24232 0.007,0.43244 0.0106,0.86432 0.011,1.29685 0.008,0.43121 -0.0102,0.8606 -0.004,1.29165 0.0248,0.53796 0.0254,1.07815 0.0454,1.61654 0.0199,0.40899 0.0373,0.81818 0.0594,1.22683 0.0183,0.42868 0.0358,0.85754 0.0569,1.2858 0.0193,0.39871 0.0151,0.79908 0.024,1.19893 0.009,0.4183 0.0238,0.83603 0.0394,1.25366 0.008,0.40797 0.0227,0.81649 0.0219,1.22478 -0.007,0.4756 -0.0153,0.95139 -0.002,1.42677 -10e-4,0.41866 0.0102,0.83659 0.008,1.25532 -0.007,0.48627 3.2e-4,0.97269 -0.007,1.45888 -0.006,0.46475 -0.0194,0.92922 -0.0209,1.39413 0.0261,0.41346 0.0495,0.82563 0.0605,1.24139 0.0101,0.33758 0.0371,0.67069 0.0451,1.00856 0.007,0.4913 0.006,0.98234 -0.006,1.47331 -0.0218,0.42527 -0.0228,0.84876 -0.0113,1.2746 0.008,0.39406 0.005,0.78878 -0.003,1.18278 -0.001,0.36306 -0.0415,0.72508 -0.0354,1.08844 0.002,0.10254 0.0176,0.38413 0.0235,0.49461 8e-4,0.23918 0.005,0.47875 0.003,0.7178 -0.0103,0.34817 0.005,0.69569 0.0232,1.04206 0.002,0.12934 0.0342,0.22419 0.11182,0.25173 0.0215,0.008 0.0433,-0.0113 0.0649,-0.0169 0,0 -0.009,0.0618 -0.009,0.0618 v 0 c 0.0453,0.004 0.14882,0.0334 0.19762,-0.0263 0.0534,-0.0653 0.0515,-0.24016 0.0507,-0.33644 -0.0142,-0.32409 -0.0294,-0.64872 -0.0192,-0.97413 -8e-4,-0.26403 4.9e-4,-0.52814 -0.006,-0.79208 -0.007,-0.13526 -0.0181,-0.26996 -0.0211,-0.40569 -0.008,-0.35991 0.0373,-0.71932 0.0358,-1.07924 0.008,-0.41528 0.01,-0.83137 0.002,-1.24671 -0.0111,-0.40191 -0.007,-0.8009 0.0133,-1.20232 0.0123,-0.51354 0.0133,-1.02704 0.005,-1.54089 -0.008,-0.33914 -0.0337,-0.67358 -0.0452,-1.01212 -0.0106,-0.40123 -0.03,-0.80018 -0.06,-1.19826 0.003,-0.46022 0.0145,-0.92009 0.0207,-1.38018 0.007,-0.49087 1.7e-4,-0.9819 0.007,-1.47282 10e-4,-0.43407 -0.009,-0.86744 -0.009,-1.30146 -0.0138,-0.46191 -0.001,-0.92433 0.003,-1.38649 -5e-4,-0.42596 -0.0144,-0.85202 -0.0235,-1.27765 -0.0155,-0.41051 -0.0284,-0.82124 -0.0388,-1.23228 -0.009,-0.41238 -0.003,-0.82563 -0.0253,-1.23661 -0.0213,-0.43046 -0.0374,-0.86182 -0.0566,-1.29262 -0.0218,-0.40161 -0.0397,-0.8037 -0.0584,-1.2058 -0.0217,-0.52811 -0.0195,-1.05875 -0.047,-1.58632 -0.008,-0.42509 0.009,-0.84973 -0.005,-1.27489 -0.004,-0.43159 -0.0165,-0.86171 -0.0255,-1.29303 -0.002,-0.4237 -0.0209,-0.84614 -0.0264,-1.26973 -0.0129,-0.48462 -0.0212,-0.96944 -0.0287,-1.4544 -0.0111,-0.4757 -0.0116,-0.95263 -0.0128,-1.428675 -6.8e-4,-0.438957 -0.0262,-0.875538 -0.0211,-1.314569 0.004,-0.529153 -0.0314,-1.054573 -0.0251,-1.5838 3.3e-4,-0.589335 -0.0199,-1.177724 -0.0536,-1.76383 -0.0303,-0.415497 -0.0672,-0.829598 -0.0811,-1.248561 -0.033,-0.445018 -0.0391,-0.892067 -0.0535,-1.339969 -0.008,-0.214429 -0.0184,-0.428553 -0.0215,-0.643493 -4.9e-4,-0.03804 -0.002,-0.348286 -0.004,-0.39062 -0.003,-0.06702 -0.009,-0.133448 -0.013,-0.200173 -0.0356,-0.335786 -0.084,-0.666611 -0.1044,-1.007297 -0.0327,-0.358691 -0.0779,-0.712832 -0.10624,-1.072987 -0.0391,-0.408746 -0.0999,-0.807675 -0.14612,-1.213899 -0.0395,-0.377887 -0.0628,-0.760642 -0.10089,-1.139025 -0.0114,-0.09323 -0.0261,-0.185267 -0.0344,-0.279588 -0.0485,-0.554725 -0.0189,-1.12354 -0.0475,-1.68104 0,0 -0.16917,0.0045 -0.16917,0.0045 z" />
    <path
       style="fill:#000000;stroke-width:0.7307"
       id="path9001"
       d="m 92.496537,71.728125 c 0.0276,0.49435 0.065,0.99044 0.066,1.48852 3.2e-4,0.18224 -0.009,0.36609 -0.009,0.54866 0.0149,0.53948 0.0265,1.07983 0.0603,1.61676 0.0388,0.51152 0.0561,1.02681 0.0802,1.54106 0.0243,0.53347 0.0593,1.06505 0.0863,1.59788 0.0116,0.47067 0.0216,0.94132 0.0349,1.41186 0.004,0.45476 0.0188,0.90871 0.0265,1.36319 0.0143,0.47164 0.007,0.94399 0.003,1.41593 -9.9e-4,0.41771 -4.9e-4,0.83544 -6.8e-4,1.25315 -0.0126,0.27835 -0.0133,0.55713 -0.0113,0.83618 0.01,0.106 -0.0346,0.48414 0.023,0.53785 0.0167,0.0156 0.0365,0.0158 0.0548,0.0237 -0.005,0.007 -0.009,0.0144 -0.0138,0.0216 0,0 -1.2e-4,0.064 -1.2e-4,0.064 v 0 c 0.0217,0.007 0.0433,0.0147 0.065,0.022 0.0366,-0.0211 0.077,-0.0267 0.10976,-0.0632 0.0768,-0.0856 0.0455,-0.47813 0.0515,-0.61293 -0.002,-0.27646 -0.007,-0.55281 0.006,-0.82883 1.5e-4,-0.41617 -0.002,-0.83234 -0.002,-1.24851 0.002,-0.47933 0.006,-0.95913 -0.0108,-1.43787 -0.009,-0.45818 -0.0265,-0.91561 -0.0323,-1.37405 -0.016,-0.47682 -0.026,-0.95397 -0.0406,-1.43089 -0.0297,-0.53217 -0.0654,-1.06328 -0.0935,-1.59587 -0.03,-0.51685 -0.0528,-1.03505 -0.0965,-1.54895 -0.0359,-0.52134 -0.0528,-1.04606 -0.0725,-1.57004 -0.004,-0.18736 -0.001,-0.37574 -0.007,-0.56292 -0.0138,-0.50782 -0.0538,-1.01185 -0.0934,-1.51457 0,0 -0.18437,0.0463 -0.18437,0.0463 z" />
    <path
       style="fill:#000000;stroke-width:0.7307"
       id="path9003"
       d="m 92.436447,70.341595 c 0.002,0.41885 0.0398,0.84082 0.0181,1.26015 -3.3e-4,0.006 -0.005,-0.0103 -0.005,-0.0161 0.004,-0.0299 0.0264,-0.11398 0.0195,-0.0857 -0.0215,0.0879 -0.0421,0.17634 -0.0632,0.26451 -0.0156,0.39348 -0.0284,0.78764 -0.041,1.18161 0.008,0.39622 0.0156,0.79263 0.0269,1.18864 0.0286,0.41636 0.0626,0.83143 0.0933,1.24733 0.0421,0.39411 0.0522,0.79419 0.0668,1.19359 0.008,0.39043 0.0274,0.77903 0.041,1.16884 0.021,0.42972 0.0285,0.86264 0.0557,1.29117 0.0216,0.24589 0.038,0.49327 0.0532,0.74076 0.0154,0.26713 0.0263,0.53466 0.0334,0.80287 0.0109,0.38117 0.008,0.76224 -1.6e-4,1.14341 -0.008,0.36754 -0.006,0.7347 -0.002,1.1023 -0.009,0.43804 -0.0175,0.87494 -0.01,1.31362 0.009,0.35292 0.0368,0.70273 0.0553,1.05436 0.0123,0.30609 0.037,0.60918 0.0563,0.91383 0.004,0.34909 0.04,0.69169 0.0581,1.03849 0.0181,0.26426 0.0155,0.52899 0.007,0.79398 -0.007,0.32808 0.004,0.65627 0.005,0.98435 -8.1e-4,0.32787 -0.002,0.6557 -10e-4,0.98358 -0.009,0.35353 -0.0377,0.70486 -0.0572,1.05714 -0.0102,0.28586 -0.002,0.57366 0.0179,0.85746 0.0195,0.28052 0.01,0.5631 0.0149,0.84501 0.009,0.36946 -0.002,0.73905 10e-4,1.1086 0.009,0.24488 0.0293,0.48726 0.0485,0.72995 0.0139,0.16303 0.0232,0.32771 0.0669,0.47401 0.0899,-0.0537 0.18825,-0.0732 0.26967,-0.16102 0.022,-0.0237 0.007,-0.0926 0.008,-0.13912 0.0114,-0.33942 -0.0145,-0.67083 -0.049,-1.00336 -0.0506,-0.3717 -0.0525,-0.75605 -0.0658,-1.13623 -0.0131,-0.40832 -0.0543,-0.81038 -0.0705,-1.2182 -0.004,-0.40026 -0.0416,-0.79486 -0.0564,-1.19365 -0.0115,-0.48248 -0.0576,-0.95923 -0.0832,-1.43963 -0.004,-0.26269 -0.0484,-0.51436 -0.0686,-0.77266 -0.012,-0.15431 -0.0172,-0.31081 -0.0237,-0.46605 -0.0203,-0.46643 -0.0507,-0.9316 -0.0682,-1.39837 -0.0144,-0.41337 -0.0221,-0.82751 -0.0383,-1.24067 -0.0154,-0.40859 -0.004,-0.81794 -0.0156,-1.22653 -0.01,-0.3836 -0.0222,-0.76701 -0.0301,-1.1508 -0.009,-0.34896 -0.009,-0.69867 -0.01,-1.04806 -0.004,-0.41679 0.008,-0.83295 0.0114,-1.24952 0.01,-0.47658 0.007,-0.95328 -0.005,-1.42959 -0.0113,-0.42277 -0.0175,-0.84631 -0.0451,-1.26698 -0.005,-0.082 -0.008,-0.16499 -0.019,-0.2453 -0.0113,-0.0864 -0.0309,-0.16858 -0.0464,-0.25288 -0.12662,-0.29801 -0.0671,-0.16809 -0.17556,-0.39411 0,0 -0.031,0.0299 -0.031,0.0299 v 0 c 0.0306,0.24924 0.0236,0.11088 0.007,0.41657 -0.017,0.57951 0.0381,1.15613 0.0416,1.7359 0.0126,0.46581 0.0165,0.93201 0.009,1.39829 -0.004,0.41929 -0.0138,0.8383 -0.0108,1.25778 -0.001,0.35465 -3.2e-4,0.70976 0.008,1.06407 0.006,0.38537 0.0156,0.77043 0.0212,1.1558 0.007,0.41382 -0.0136,0.82767 0.004,1.2414 0.0149,0.41342 0.0242,0.82752 0.0389,1.24096 0.018,0.46848 0.0484,0.93542 0.072,1.40306 0.0103,0.22851 0.0109,0.2874 0.0297,0.51644 0.0143,0.17457 0.0424,0.34406 0.0559,0.51858 0.006,0.0707 0.008,0.14199 0.0125,0.21298 0.0266,0.47514 0.0712,0.94675 0.0861,1.42369 0.0152,0.39961 0.0542,0.79448 0.0583,1.19573 0.0165,0.40581 0.0554,0.80616 0.0691,1.21228 0.0129,0.40123 0.0139,0.80621 0.0616,1.20035 0.0225,0.22274 0.0421,0.44558 0.0456,0.67262 9.9e-4,0.0586 1.2e-4,0.11731 -0.002,0.17581 -10e-4,0.0393 -0.0293,0.11082 -0.008,0.11735 0.0855,0.0263 0.17274,-0.0268 0.25911,-0.0402 0.004,0.0156 0.008,0.0317 0.013,0.0469 0.001,0.004 -10e-4,-0.008 -0.002,-0.012 -0.002,-0.018 -0.004,-0.0361 -0.006,-0.0543 -0.008,-0.0772 -0.0138,-0.15508 -0.0174,-0.23336 -0.0104,-0.2272 -0.0193,-0.45451 -0.0334,-0.68105 -0.006,-0.37209 0.009,-0.74453 -0.003,-1.11653 -0.007,-0.30038 -8e-4,-0.60177 -0.0235,-0.90038 -0.0192,-0.23953 -0.026,-0.48424 -0.0178,-0.72594 0.0194,-0.3711 0.0517,-0.74049 0.0575,-1.11323 3.3e-4,-0.33011 3.3e-4,-0.66021 0.001,-0.99031 -0.003,-0.31439 -0.0122,-0.62912 -0.004,-0.94344 0.009,-0.29443 0.0112,-0.58864 -0.008,-0.88221 -0.0195,-0.34993 -0.0556,-0.69529 -0.0599,-1.04789 -0.0193,-0.30198 -0.0441,-0.60242 -0.0558,-0.90597 -0.0199,-0.33936 -0.049,-0.67683 -0.0588,-1.01768 -0.01,-0.43586 -3.3e-4,-0.87028 0.002,-1.30599 -0.006,-0.35768 -0.007,-0.71468 -0.003,-1.07249 0.006,-0.39609 0.009,-0.79191 -0.003,-1.18784 -0.009,-0.27845 -0.019,-0.55671 -0.036,-0.83393 -0.0154,-0.24774 -0.0314,-0.49557 -0.0532,-0.7417 -0.026,-0.42117 -0.0329,-0.84634 -0.0575,-1.26793 -0.0161,-0.38942 -0.0393,-0.77746 -0.0453,-1.16803 -0.0161,-0.41092 -0.0278,-0.82246 -0.0724,-1.22759 -0.0317,-0.40194 -0.0645,-0.80358 -0.0966,-1.20536 -0.0121,-0.37891 -0.0198,-0.75818 -0.0329,-1.13699 0.009,-0.37266 0.0187,-0.74513 0.0239,-1.11808 -0.0983,0.0212 0.0306,-0.0408 0.0371,-0.24141 0.0141,-0.4332 -0.0342,-0.86753 -0.0398,-1.29903 0,0 -0.21147,0.0294 -0.21147,0.0294 z" />
    <path
       style="fill:#000000;stroke-width:0.7307"
       id="path9005"
       d="m 92.368867,57.472474 c 0.0126,0.4455 0.0524,0.898474 0.0207,1.34508 -0.0161,0.226578 -0.047,0.449935 -0.0645,0.676513 -0.022,0.729939 -0.006,1.462456 -0.003,2.193268 -0.005,0.403957 -8e-5,0.806848 0.0106,1.21032 0.0135,0.13609 -0.009,0.29334 0.0255,0.42333 0.0127,0.0486 0.0557,0.0829 0.076,0.10503 0,0 0.0336,0.0185 0.0336,0.0185 v 0 c 0.0238,-0.0214 0.0508,-0.0336 0.0713,-0.0642 0.0717,-0.1072 0.0277,-0.3713 0.0392,-0.5043 -0.0105,-0.397711 -0.0169,-0.79492 -0.0121,-1.193202 -0.005,-0.710278 -0.0185,-1.421305 -0.008,-2.131387 0.0165,-0.236813 0.0456,-0.470843 0.0578,-0.70862 0.0243,-0.472102 -0.0141,-0.946092 -0.0357,-1.415415 0,0 -0.21125,0.04512 -0.21125,0.04512 z" />
    <path
       style="fill:#000000;stroke-width:0.7307"
       id="path9007"
       d="m 91.993487,47.192009 c 0.0474,0.336376 0.1068,0.670036 0.12921,1.016368 0.007,0.110876 0.0101,0.223387 0.0168,0.334443 0.0208,0.388982 0.0824,0.76742 0.0965,1.1571 -1e-5,0.32908 0.002,0.65777 0.0265,0.984085 0.0324,0.348262 0.0291,0.696067 0.0153,1.046234 0.002,0.456705 -0.007,0.912409 0.007,1.368677 0.009,0.436948 0.02,0.872341 0.0505,1.306435 0.0278,0.357357 0.0356,0.717828 0.0489,1.077467 0.0185,0.217137 -0.0145,0.48026 0.0446,0.683269 0.0145,0.04976 0.0519,0.108154 0.0763,0.148808 0,0 0.0307,0.03083 0.0307,0.03083 v 0 c 0.0185,-0.01178 0.0395,-0.01444 0.0554,-0.03532 0.0282,-0.0372 0.0553,-0.08107 0.0739,-0.134888 0.0591,-0.171263 0.033,-0.538881 0.0369,-0.732087 -0.0139,-0.372636 -0.0232,-0.746287 -0.0553,-1.11575 -0.0334,-0.417651 -0.05,-0.837947 -0.0661,-1.258823 -0.0133,-0.434627 -0.0106,-0.868998 -0.0154,-1.304097 0.0128,-0.388514 0.008,-0.775491 -0.0296,-1.160048 -0.0317,-0.314347 -0.0335,-0.632637 -0.043,-0.951303 -0.0271,-0.393681 -0.0909,-0.775175 -0.11984,-1.168987 -0.0432,-0.472649 -0.11449,-0.932838 -0.19247,-1.390493 0,0 -0.18637,0.0981 -0.18637,0.0981 z" />
    <path
       style="fill:#000000;stroke-width:0.7307"
       id="path9009"
       d="m 92.166777,47.083265 c 0.0203,-0.148411 0.0415,-0.296408 0.0608,-0.445232 0.0112,-0.08619 0.0225,-0.172467 0.0308,-0.259725 0.002,-0.02558 0.0151,-0.07013 0.001,-0.0779 -0.14929,-0.08547 -0.14704,-0.01258 -0.17916,0.163031 -0.001,0.01671 -0.0132,0.04717 -0.004,0.05014 0.026,0.0085 0.29648,0.0015 0.0596,-0.04974 0,0 0.0312,0.029 0.0312,0.029 v 0 c -0.0227,-0.03569 -0.0435,-0.07603 -0.0682,-0.107092 -0.003,-0.0034 -0.006,0.01375 -0.003,0.01691 0.0373,0.0421 0.0801,0.06696 0.11678,0.110899 0.004,0.0046 -0.003,0.01605 -0.004,0.02407 0.0261,-0.161167 0.0524,-0.112785 -0.0822,-0.237247 -0.004,-0.004 0.002,0.0177 0.001,0.02637 -0.0214,0.210053 -0.0645,0.50606 -0.0903,0.694842 0,0 0.12919,0.06164 0.12919,0.06164 z" />
    <path
       style="fill:#000000;stroke-width:0.7307"
       id="path9011"
       d="m 101.24598,72.005405 c -0.008,0.14343 -0.0399,0.69488 -0.049,0.8931 -0.002,0.0479 -0.007,0.0962 -0.004,0.14387 0.004,0.0605 0.0203,0.11668 0.0247,0.17704 0.002,0.0342 -0.004,0.0687 -0.004,0.10323 -6.1e-4,0.0736 1.7e-4,0.14727 3.3e-4,0.22091 -0.006,0.42537 0.0153,0.84901 0.0398,1.27141 0.004,0.0619 0.007,0.12393 0.0114,0.18559 0.016,0.20981 0.0141,0.0984 0.0229,0.29096 0.008,0.18373 0.008,0.36821 0.0142,0.55229 0.0116,0.29821 0.0236,0.59567 0.027,0.89458 -0.0129,0.40087 -0.009,0.80234 -0.0116,1.20363 -0.002,0.46556 -0.02,0.92979 -0.0647,1.38819 -0.0438,0.3218 -0.0376,0.65258 -0.0444,0.98067 -0.004,0.18742 -0.0109,0.37459 -0.0152,0.56198 -0.0152,0.63311 -0.0253,1.26638 -0.0123,1.89986 0.0187,0.57425 0.0105,1.14934 0.0165,1.72419 0.012,0.43193 0.006,0.86418 0.004,1.29635 -0.0107,0.52336 -0.0175,1.047 -0.0268,1.57045 -0.002,0.62742 -0.0476,1.25015 -0.0728,1.87498 -0.0157,0.58602 -0.0265,1.17241 -0.0446,1.75822 -0.0392,0.74386 -0.0526,1.49296 -0.0996,2.23541 -0.0232,0.40177 -0.0549,0.80203 -0.0721,1.20484 -0.016,0.39466 6.2e-4,0.78984 -0.0133,1.18464 -0.0112,0.28073 -0.0251,0.55658 -0.0118,0.83739 -1.4e-4,0.24267 0.0117,0.48206 0.0299,0.72214 0.0112,0.1869 0.006,0.37469 0.004,0.5621 0.001,0.26058 0.0129,0.54111 0.051,0.7923 0.0191,0.12573 0.0468,0.24652 0.0702,0.36977 0.007,0.099 0.0137,0.19792 0.0206,0.29688 0,0 0.0349,0.006 0.0349,0.006 v 0 c 0.0163,-0.0966 0.0326,-0.1931 0.0489,-0.28966 0.0324,-0.11928 0.0694,-0.23471 0.0971,-0.35784 0.0551,-0.24467 0.0811,-0.53954 0.078,-0.8052 0.001,-0.22493 0.007,-0.45053 -0.009,-0.67438 -0.0173,-0.22778 -0.026,-0.45482 -0.0277,-0.685 -0.002,-0.0529 -0.009,-0.10545 -0.009,-0.15859 3.3e-4,-0.19053 0.024,-0.3811 0.0228,-0.57208 0.0118,-0.39093 -0.001,-0.78163 0.0122,-1.17216 0.0163,-0.39472 0.0483,-0.78689 0.0702,-1.18065 0.0441,-0.75725 0.06,-1.5196 0.0913,-2.27878 0.0151,-0.58155 0.0223,-1.16352 0.035,-1.74521 0.0243,-0.63456 0.0694,-1.26721 0.0688,-1.90428 0.008,-0.52913 0.0165,-1.0582 0.0251,-1.58728 6.1e-4,-0.43775 0.006,-0.87567 -0.008,-1.31307 -0.006,-0.57939 0.002,-1.1593 -0.0192,-1.73792 -0.0144,-0.616 -0.006,-1.232 0.006,-1.84794 0.004,-0.19322 0.009,-0.38632 0.0118,-0.57961 0.004,-0.29691 -0.006,-0.59506 0.0316,-0.88739 0.0389,-0.49456 0.0583,-0.99349 0.0504,-1.49346 -0.006,-0.40611 -0.0169,-0.81189 -0.0121,-1.21825 -0.008,-0.30616 -0.0266,-0.61015 -0.0427,-0.91515 -0.009,-0.19549 -0.009,-0.39147 -0.0229,-0.58608 -0.0158,-0.21493 -0.0106,-0.092 -0.0298,-0.28471 -0.006,-0.0585 -0.01,-0.11757 -0.015,-0.17635 -0.0285,-0.40798 -0.0629,-0.8149 -0.0604,-1.22759 -0.005,-0.16171 -0.004,-0.3509 -0.0345,-0.50702 -0.002,-0.0134 -0.0131,0.0454 -0.0155,0.0318 -0.007,-0.0388 -10e-4,-0.0813 -4e-5,-0.12189 0.006,-0.21426 0.0319,-0.72553 0.0399,-0.89196 0,0 -0.2094,-0.035 -0.2094,-0.035 z" />
    <path
       style="fill:#000000;stroke-width:0.7307"
       id="path9013"
       d="m 101.2686,71.365465 c 0.006,0.37247 0.0652,0.74485 0.0565,1.11951 -6.2e-4,0.0378 -0.0136,0.0723 -0.015,0.11 -0.002,0.0552 -0.001,0.11059 -0.002,0.16587 0.0197,0.53163 0.0414,1.0639 0.073,1.59374 0.0287,0.45233 0.0564,0.91004 0.12005,1.35167 0.0301,0.209 0.0707,0.41252 0.10502,0.61935 0,0 0.0347,-0.009 0.0347,-0.009 v 0 c 10e-4,-0.14602 0.004,-0.53718 0.002,-0.64866 -0.0103,-0.4525 -0.0593,-0.89885 -0.0803,-1.34949 -0.0311,-0.51941 -0.0533,-1.04079 -0.0774,-1.56137 -0.003,-0.0995 0.006,-0.19182 0.004,-0.29043 -0.008,-0.38018 -0.0635,-0.75342 -0.0789,-1.1319 0,0 -0.14161,0.0306 -0.14161,0.0306 z" />
    <path
       style="fill:#000000;stroke-width:0.7307"
       id="path9015"
       d="m 92.737827,249.96454 c 0.15571,0.0362 0.31187,0.074 0.46909,0.0771 0.0563,8e-4 0.11154,-0.006 0.16777,-0.002 0.19583,0.0213 0.3916,0.0384 0.58774,0.0258 0.18564,-0.0341 0.37092,-0.0354 0.55698,-0.02 0.22978,-0.003 0.45762,0.025 0.68485,0.0852 0.23489,0.0468 0.47059,0.0798 0.70593,0.1196 0.33084,0.0728 0.66139,-0.006 0.99033,-0.0695 0.37856,-0.0516 0.75585,-0.12703 1.13314,-0.20283 0.26583,-0.0538 0.5328,-0.0819 0.80012,-0.0912 0.2712,-0.0102 0.54164,0.0261 0.81211,0.0546 0.2443,0.0316 0.486393,-0.046 0.726813,-0.11379 0.15414,-0.0419 0.30847,-0.0837 0.46365,-0.1106 0.10559,-0.0246 0.21143,8.1e-4 0.31709,0.002 0.058,0.002 0.11596,0.0102 0.17371,0.0201 0.213,-0.008 -0.0238,-0.006 0.0365,0.003 0.0119,0.002 0.0476,0.009 0.0357,0.006 -0.007,-8.1e-4 -0.0145,-0.002 -0.0218,-0.003 -0.0871,-0.0499 0.0475,0.0229 0.0677,0.0312 0.36437,-0.0434 0.0513,0.0151 0.0489,8.1e-4 -0.0528,-0.30374 -0.0205,-0.65284 -0.0449,-0.32624 0,0 0.0247,0.0454 0.0247,0.0454 v 0 c 0.14233,0.0349 0.10855,0.0591 0.0955,-0.53509 -5e-4,-0.0258 -0.12029,0.008 -0.1161,0.009 0.0346,0.0134 0.0708,8.1e-4 0.10623,0.002 -0.0162,-0.008 -0.0179,-0.008 -0.0364,-0.0162 -0.0101,-0.005 0.0376,0.0317 0.0289,0.0215 -0.0181,-0.0212 -0.0429,-0.0337 -0.063,-0.0459 -0.0613,-0.0206 -0.11056,-0.0241 -0.17385,-0.0235 -0.0184,1.9e-4 0.0368,-8e-4 0.0552,-0.002 -0.0735,-0.0125 -0.14738,-0.0232 -0.22124,-0.0206 -0.12131,0.0102 -0.24431,-0.0238 -0.365,0.0212 -0.16137,0.0409 -0.32198,0.0907 -0.48224,0.14433 -0.20898,0.0683 -0.419043,0.15015 -0.632743,0.12191 -0.28153,-0.027 -0.563,-0.0637 -0.8452,-0.0489 -0.27915,0.0142 -0.55819,0.04 -0.83574,0.0988 -0.37683,0.0757 -0.75359,0.1523 -1.13172,0.20365 -0.30152,0.0598 -0.60466,0.13745 -0.90816,0.0716 -0.22843,-0.0386 -0.45715,-0.0699 -0.68534,-0.11184 -0.2425,-0.0635 -0.48595,-0.0933 -0.73109,-0.0859 -0.19674,-0.006 -0.39295,-6e-4 -0.58866,0.0426 -0.18761,0.0223 -0.37551,0.006 -0.56323,-0.006 -0.0564,2.9e-4 -0.11113,0.009 -0.16729,0.0124 -0.14359,0.009 -0.28656,-0.0267 -0.42939,-0.0468 0,0 -0.0455,0.66224 -0.0455,0.66224 z" />
    <path
       style="fill:#000000;stroke-width:0.874001"
       id="path9017"
       d="m 93.158309,222.14397 c 0.552582,0.4035 1.051996,1.07472 1.712465,1.33336 0.222851,0.0873 0.411488,0.001 0.630759,-0.0236 0.426712,0.0572 0.84714,0.12391 1.279268,0.10244 0.528789,-0.0981 1.053161,-0.22594 1.573705,-0.36165 0.328602,-0.0976 0.660111,-0.18381 0.985361,-0.29235 0.291084,-0.10003 0.566552,-0.23672 0.839163,-0.37793 0.25679,-0.16383 0.46252,-0.3909 0.67746,-0.60344 0.20379,-0.20725 0.35157,-0.45773 0.48953,-0.71132 0.0887,-0.21538 0.22219,-0.40605 0.36182,-0.59083 0.0587,-0.11739 0.18207,-0.23405 0.18003,-0.37384 -0.46296,-0.17707 -0.30751,-0.26091 -0.52714,0.0534 0,0 0.0326,0.0463 0.0326,0.0463 v 0 c 0.25351,-0.022 0.20172,0.0281 -0.004,-0.21613 -0.0142,0.018 -0.0845,0.12029 -0.10897,0.17286 -0.15145,0.20664 -0.30448,0.41624 -0.40252,0.65464 -0.11258,0.20881 -0.23364,0.4144 -0.39713,0.58775 -0.17615,0.17655 -0.3487,0.35827 -0.548459,0.5089 -0.24719,0.13034 -0.497557,0.25597 -0.763127,0.34544 -0.313053,0.10737 -0.633476,0.18901 -0.950397,0.28387 -0.488132,0.13093 -0.980641,0.24771 -1.473472,0.35892 -0.445204,0.0412 -0.8781,-0.0538 -1.322081,-0.0463 -0.06522,0.0137 -0.132297,0.0204 -0.195662,0.041 -0.04106,0.0134 -0.102563,0.0896 -0.157078,0.0714 -0.654656,-0.21862 -1.112242,-0.87291 -1.656283,-1.2462 0,0 -0.256085,0.28323 -0.256085,0.28323 z" />
    <path
       style="fill:#000000;stroke-width:0.874001"
       id="path9019"
       d="m 93.013788,194.20471 c 0.51121,0.26152 1.047081,0.8158 1.643843,0.91889 0.274778,0.0475 0.161232,-0.0382 0.382024,-0.0911 0.05432,-0.013 0.111689,-0.002 0.167534,-0.004 0.552395,-0.0108 1.076545,0.18273 1.623904,0.21503 0.450562,-0.005 0.896776,-0.0684 1.343583,-0.11816 0.401381,-0.0147 0.761651,-0.14768 1.107991,-0.34039 0.338172,-0.17701 0.645369,-0.40153 0.955603,-0.62122 0.24042,-0.16234 0.47771,-0.31641 0.67675,-0.52944 0.14632,-0.15245 0.28981,-0.30776 0.44095,-0.45576 0.12068,-0.13879 0.2049,-0.30529 0.29549,-0.46456 0.0936,-0.14484 0.13101,-0.2406 0.0945,-0.41192 -0.0401,-0.0253 -0.0801,-0.0506 -0.12019,-0.076 0,0 -0.0559,-0.009 -0.0559,-0.009 v 0 c -0.0437,-0.003 -0.0874,-0.006 -0.13104,-0.009 -0.0288,-0.006 -0.0585,-0.0349 -0.0856,-0.023 -0.0956,0.0417 -0.12382,0.18246 -0.17887,0.26001 -0.0655,0.11729 -0.13237,0.23527 -0.20708,0.34637 -0.15362,0.15804 -0.30619,0.31678 -0.45575,0.47844 -0.16428,0.19164 -0.3836,0.31524 -0.581072,0.46965 -0.291394,0.21569 -0.583338,0.43024 -0.898248,0.61192 -0.28522,0.17228 -0.582324,0.28261 -0.918929,0.30461 -0.420881,0.0628 -0.842119,0.12319 -1.267045,0.1525 -0.568256,-0.003 -1.115981,-0.21829 -1.689142,-0.17108 -0.101804,0.019 -0.205584,0.0294 -0.305414,0.057 -0.03541,0.01 -0.04202,0.0827 -0.07839,0.0775 -0.582213,-0.0828 -1.059892,-0.60899 -1.560799,-0.84782 0,0 -0.198678,0.28052 -0.198678,0.28052 z" />
    <path
       style="fill:#000000;stroke-width:0.874001"
       id="path9025"
       d="m 93.40385,164.24804 c 0.497322,0.3551 0.928952,1.0339 1.577247,1.16508 0.263674,0.0533 0.339104,-0.0417 0.573024,-0.0781 0.05669,-0.009 0.114745,-10e-4 0.172117,-0.002 0.475507,0.16966 0.883288,0.25951 1.387298,0.28685 0.416822,0.0416 0.826765,0.0862 1.245854,0.0615 0.438057,-0.0425 0.839153,-0.23474 1.212257,-0.45731 0.32239,-0.19138 0.588543,-0.45671 0.877433,-0.69162 0.16605,-0.10202 0.32056,-0.22174 0.47392,-0.34171 0.14995,-0.1018 0.27565,-0.23662 0.38667,-0.37883 0.0392,-0.10803 0.21181,-0.33609 0.1971,-0.44073 -0.005,-0.0386 -0.0423,-0.0655 -0.0634,-0.0983 -0.0559,0.0116 -0.11177,0.0232 -0.16766,0.0348 0,0 0.0513,0.024 0.0513,0.024 v 0 c -0.0174,-0.0705 -0.0348,-0.14107 -0.0523,-0.2116 -0.0401,-0.0118 -0.0791,-0.0413 -0.12047,-0.0352 -0.14935,0.022 -0.27474,0.25093 -0.34285,0.34806 -0.0732,0.10518 -0.17438,0.19285 -0.27859,0.26577 -0.15592,0.12524 -0.31768,0.24249 -0.48289,0.3553 -0.261286,0.22286 -0.507957,0.46518 -0.800052,0.64908 -0.283919,0.18332 -0.597246,0.34049 -0.933122,0.39682 -0.396129,0.0355 -0.786283,0.002 -1.183036,-0.0128 -0.106823,-0.002 -0.338106,-0.005 -0.447535,-0.0149 -0.336958,-0.0314 -0.648264,-0.19662 -0.989883,-0.2069 -0.08964,0.009 -0.180353,0.01 -0.26892,0.0264 -0.0592,0.0109 -0.115102,0.0354 -0.171974,0.0552 -0.03859,0.0134 -0.07375,0.0493 -0.114284,0.0443 -0.589489,-0.0735 -0.983565,-0.78464 -1.440492,-1.05934 0,0 -0.296802,0.31609 -0.296802,0.31609 z" />
    <path
       style="fill:#000000;stroke-width:0.874001"
       id="path9029"
       d="m 93.402588,132.62964 c 0.568478,0.33161 1.089856,0.81346 1.74139,0.98856 0.282326,0.0759 0.60888,0.0574 0.898839,0.0935 0.601105,0.15398 1.190834,0.35279 1.816317,0.35708 0.362146,-0.0195 0.725102,-0.0436 1.078516,-0.12717 0.381262,-0.0906 0.722495,-0.28357 1.07378,-0.4485 0.16427,-0.0787 0.31789,-0.17483 0.47983,-0.25725 0.18749,-0.0879 0.30845,-0.25881 0.45684,-0.39489 0.203,-0.14488 0.30559,-0.26555 0.34046,-0.51613 -0.1297,-0.18126 -0.0351,-0.12056 -0.33072,-0.0662 0,0 0.0287,0.0488 0.0287,0.0488 v 0 c -0.113,-0.0627 -0.0602,-0.0306 -0.15897,-0.0955 -0.003,-0.01 5.3e-4,-0.0264 -0.009,-0.0296 -0.0466,-0.0152 -0.22874,0.26355 -0.27265,0.22604 -0.10739,0.10084 -0.19817,0.22869 -0.32814,0.30055 -0.15352,0.082 -0.30289,0.17051 -0.45832,0.24878 -0.316396,0.14956 -0.622313,0.32759 -0.964848,0.41368 -0.308618,0.0846 -0.631978,0.091 -0.948587,0.12815 -0.597977,0.0394 -1.168389,-0.18006 -1.750295,-0.28219 -0.108784,-0.01 -0.21726,-0.024 -0.326348,-0.0296 -0.157041,-0.008 -0.317693,0.0284 -0.471723,-0.003 -0.622631,-0.12787 -1.127823,-0.60074 -1.668386,-0.89226 0,0 -0.226388,0.33733 -0.226388,0.33733 z" />
    <path
       style="fill:#000000;stroke-width:0.874001"
       id="path9031"
       d="m 92.924616,105.31887 c 0.422896,0.33704 0.774559,0.65477 1.244089,0.91367 0.07895,0.0435 0.165973,0.0986 0.255572,0.0886 0.263001,-0.0295 0.250724,-0.24339 0.411501,-0.23456 0.358666,0.0204 0.717671,0.0491 1.074399,0.0925 0.260442,0.0172 0.516749,-0.0474 0.777351,-0.0282 0.330274,0.0149 0.652174,-0.0813 0.970772,-0.15608 0.28489,-0.0642 0.558546,-0.16677 0.839242,-0.24645 0.20827,-0.0454 0.39248,-0.15511 0.596845,-0.21225 0.203954,-0.0748 0.403727,-0.16033 0.603647,-0.24512 0.164721,-0.0619 0.307276,-0.16772 0.450156,-0.26799 0.11091,-0.11656 0.22998,-0.2238 0.33765,-0.34349 0.0892,-0.10283 0.16243,-0.21785 0.17413,-0.35481 0.0178,-0.0366 0.0356,-0.0733 0.0533,-0.10988 0,0 -0.0207,-0.0527 -0.0207,-0.0527 v 0 c -0.0591,-0.006 -0.11825,-0.0128 -0.17737,-0.0193 -0.14654,0.0527 -0.22656,0.14402 -0.32465,0.26046 -0.0928,0.0954 -0.193252,0.18332 -0.277041,0.28686 -0.119554,0.0848 -0.238604,0.17604 -0.376827,0.22797 -0.182965,0.0806 -0.369308,0.15232 -0.554159,0.22843 -0.203269,0.0595 -0.389054,0.16039 -0.594662,0.21163 -0.275953,0.0768 -0.543682,0.18023 -0.82377,0.24143 -0.278886,0.0675 -0.562144,0.15478 -0.851267,0.14775 -0.253172,-0.014 -0.501685,0.0266 -0.754029,0.0303 -0.42111,-0.0508 -0.851323,-0.10567 -1.274093,-0.0651 -0.07456,0.0395 -0.155498,0.0688 -0.223689,0.11843 -0.03647,0.0266 -0.111839,0.0702 -0.08426,0.10592 0.03421,0.0443 0.156054,0.057 0.167867,0.002 0.01159,-0.0537 -0.11114,-0.0157 -0.159252,-0.0422 -0.46395,-0.25538 -0.773311,-0.53626 -1.19928,-0.87226 0,0 -0.261511,0.2941 -0.261511,0.2941 z" />
    <circle
       id="path9057"
       style="fill:#000000;stroke:#000000;stroke-width:0.264583"
       cx="28.603294"
       cy="69.062881"
       r="0.016302414" />
    <path
       style="fill:#b3b3b3;stroke-width:1.85031"
       d="m 360.25524,735.64036 c -2.61386,-0.17159 -4.13432,-0.6165 -5.74143,-1.68004 l -2.18602,-1.44664 V 565.96347 399.41327 l 2.06683,1.40259 c 1.1586,0.78625 2.45085,1.25213 2.94073,1.0602 0.48064,-0.18832 3.14247,-0.39233 5.91516,-0.45336 8.20861,-0.18068 17.64439,-4.08945 17.64439,-7.30918 0,-1.33806 -1.03221,-1.08892 -3.13394,0.75642 -2.87862,2.52746 -9.57099,4.41772 -16.10749,4.54956 -4.82771,0.0974 -5.59843,-0.0283 -7.29309,-1.18952 l -1.8949,-1.29841 0.0329,-55.21009 c 0.0181,-30.36555 -0.26212,-67.18308 -0.62272,-81.81672 -1.24328,-50.45305 -1.88479,-70.87052 -2.35807,-75.04999 -0.2611,-2.30579 -0.38797,-4.27909 -0.28194,-4.38513 0.21049,-0.21048 6.57813,18.96508 8.98652,27.06207 0.82471,2.77269 2.848,8.69617 4.49619,13.16328 1.64819,4.46711 5.30058,14.38685 8.11641,22.04385 2.81584,7.65701 6.44466,16.99427 8.06406,20.74947 l 2.94435,6.82763 0.37611,8.65786 c 0.20686,4.76183 0.0976,23.6556 -0.24289,41.98617 -0.34045,18.33057 -0.57522,65.97044 -0.5217,105.86638 l 0.0973,72.53807 -2.98922,1.80221 c -4.47654,2.69891 -6.24879,3.16197 -10.47224,2.73625 -7.3179,-0.73764 -9.52841,-1.26062 -11.86553,-2.80725 -1.87963,-1.24388 -2.45951,-1.40858 -2.84084,-0.80685 -0.74301,1.17247 -0.68086,1.251 2.44446,3.08909 3.55454,2.09052 12.05549,3.85227 16.21261,3.35991 1.50763,-0.17855 4.24249,-1.08757 6.07746,-2.02003 l 3.33631,-1.69539 v 56.73859 c 0,44.55238 -0.15038,56.92587 -0.70017,57.61058 -1.36363,1.69823 -6.59267,5.42043 -8.4983,6.04934 -1.43398,0.47325 -3.10439,0.47739 -6.4739,0.0161 -2.49769,-0.34198 -5.02,-0.46984 -5.60512,-0.28413 -0.73835,0.23435 -1.758,-0.28945 -3.33246,-1.71187 -2.07732,-1.87677 -3.95716,-2.2991 -3.95716,-0.88906 0,0.68784 4.30093,4.54253 5.1829,4.64515 1.76735,0.20564 5.0636,0.45605 10.22093,0.77648 6.07621,0.37751 5.83857,0.45719 11.90297,-3.99095 l 1.26031,-0.92442 v 53.79813 53.79814 l -2.66066,2.29043 c -4.99032,4.29591 -9.03216,5.31961 -18.53914,4.69552 z"
       id="path9059"
       transform="scale(0.26458333)" />
    <path
       style="fill:#b3b3b3;stroke-width:1.85031"
       d="m 356.52883,840.90133 c -1.2323,-1.00575 -2.68167,-1.98039 -3.2208,-2.16585 -0.92405,-0.31788 -0.98024,-3.30139 -0.98024,-52.04536 v -51.70815 l 2.54188,1.42069 c 1.49131,0.8335 3.01921,1.29586 3.69678,1.11868 0.63518,-0.16611 2.65296,-0.0381 4.48394,0.28439 5.29389,0.9325 10.43827,-0.0673 14.67598,-2.85222 l 3.4486,-2.26635 0.15399,50.26022 c 0.0847,27.64312 0.0218,50.80789 -0.13984,51.47726 -1.00838,4.17663 -9.6647,8.03302 -18.45265,8.22063 -3.70704,0.0792 -4.11394,-0.0352 -6.20764,-1.74394 z"
       id="path9061"
       transform="scale(0.26458333)" />
    <path
       style="fill:#b3b3b3;stroke-width:1.85031"
       d="m 356.66887,942.29853 -4.34108,-0.19091 V 891.0486 839.98958 l 1.82045,1.67949 c 3.21373,2.96487 3.77709,3.21103 7.81442,3.41461 6.18888,0.31207 15.06308,-2.13986 18.23207,-5.0375 l 1.26031,-1.15239 v 50.71747 50.71748 l -2.50471,0.70127 c -1.3776,0.3857 -3.15892,0.57622 -3.95849,0.42337 -0.79958,-0.15285 -3.39038,0.0635 -5.75734,0.48078 -2.36697,0.41728 -5.18579,0.71292 -6.26406,0.65698 -1.07827,-0.056 -3.91398,-0.18761 -6.30157,-0.29261 z"
       id="path9063"
       transform="scale(0.26458333)" />
    <path
       style="fill:#000000;stroke-width:0.874001"
       id="path9071"
       d="m 101.04593,71.387255 c -0.0974,-0.08408 -0.21443,-0.185976 -0.31505,-0.27019 -0.0392,-0.03285 -0.0818,-0.06192 -0.11881,-0.09725 -0.0204,-0.01942 -0.0979,-0.110191 -0.10424,-0.117557 -0.15896,-0.191299 -0.32274,-0.377354 -0.508526,-0.542682 -0.172217,-0.181247 -0.348864,-0.357248 -0.531754,-0.52773 -0.233506,-0.190706 -0.361715,-0.414861 -0.500211,-0.67542 -0.147524,-0.273254 -0.300665,-0.54334 -0.462873,-0.808157 -0.240871,-0.391033 -0.462989,-0.793183 -0.683447,-1.195945 -0.22251,-0.424236 -0.416952,-0.862211 -0.650643,-1.280525 -0.255809,-0.399003 -0.434752,-0.837065 -0.618389,-1.271919 -0.201946,-0.466971 -0.432009,-0.920805 -0.642342,-1.383974 -0.199716,-0.4352 -0.314757,-0.901443 -0.479208,-1.349526 -0.0416,-0.11335 -0.08834,-0.22475 -0.132504,-0.337127 -0.04147,-0.09327 -0.08297,-0.186528 -0.124407,-0.279815 -0.111344,-0.250669 -0.124084,-0.271391 -0.224062,-0.532048 -0.09348,-0.243721 -0.175178,-0.491927 -0.258514,-0.739227 -0.173709,-0.466929 -0.258188,-0.957546 -0.348448,-1.445345 -0.09804,-0.527153 -0.155295,-1.061408 -0.273749,-1.584582 -0.109217,-0.392618 -0.199723,-0.789257 -0.282487,-1.188101 -0.08749,-0.386228 -0.189524,-0.768945 -0.283089,-1.153734 -0.08601,-0.388958 -0.190656,-0.773461 -0.277291,-1.162243 -0.101708,-0.390046 -0.183959,-0.784003 -0.256453,-1.18033 -0.10601,-0.499112 -0.163766,-1.00593 -0.240128,-1.50986 -0.02479,-0.252413 -0.113421,-0.489882 -0.175143,-0.733463 -0.0073,-0.02871 -0.05688,-0.276984 -0.05707,-0.277944 -0.04625,-0.275146 -0.09878,-0.549585 -0.139121,-0.825701 -0.03309,-0.194892 -0.0024,-0.38834 0.01773,-0.582208 0.01323,-0.197985 0.04152,-0.395801 0.03374,-0.594524 -0.0062,-0.06707 0.0222,-0.127259 0.03275,-0.192524 -0.0071,-0.05276 0.0053,-0.02723 -0.06094,-0.05962 0,0 -0.128183,-0.03082 -0.128183,-0.03082 v 0 c -0.07591,0.0032 -0.053,-0.01561 -0.08235,0.03367 -0.03878,0.08076 -0.06734,0.162714 -0.07179,0.253479 -0.0038,0.185946 -0.02302,0.37088 -0.03778,0.556154 -0.02516,0.21998 -0.05488,0.440301 -0.02029,0.66157 0.0393,0.282479 0.09247,0.563208 0.139375,0.844457 0.0056,0.02797 0.05334,0.266986 0.06321,0.306626 0.057,0.228888 0.143883,0.451022 0.164195,0.688668 0.07402,0.507968 0.132549,1.018344 0.234215,1.52196 0.07326,0.400513 0.156937,0.798594 0.259006,1.192921 0.08729,0.390819 0.193452,0.777095 0.28063,1.167961 0.09283,0.38172 0.195588,0.76101 0.282882,1.144042 0.08721,0.399328 0.173395,0.798621 0.287253,1.191575 0.118184,0.518896 0.172172,1.0496 0.273126,1.571948 0.09481,0.502449 0.181907,1.008221 0.362863,1.488882 0.08635,0.25282 0.171609,0.506426 0.269613,0.755052 0.102643,0.26039 0.120973,0.293944 0.235376,0.541049 0.04109,0.08874 0.08252,0.177321 0.12378,0.265983 0.04454,0.106894 0.09185,0.212677 0.133628,0.320683 0.175395,0.453453 0.297593,0.927365 0.505719,1.368417 0.212281,0.459145 0.439653,0.911275 0.640755,1.375521 0.187833,0.444762 0.369739,0.893966 0.637913,1.298258 0.239731,0.413615 0.448339,0.843147 0.67492,1.263933 0.227537,0.403397 0.471221,0.797218 0.720445,1.187569 0.164732,0.257826 0.317749,0.522496 0.46513,0.790601 0.150098,0.28202 0.292536,0.51679 0.542983,0.724498 0.186258,0.169426 0.362918,0.347747 0.540342,0.526243 0.03617,0.03069 0.07427,0.05925 0.108443,0.09215 0.1385,0.13335 0.25571,0.287891 0.38559,0.42916 0.0444,0.05098 0.0785,0.09349 0.12738,0.138538 0.0367,0.03382 0.0781,0.06219 0.11653,0.0941 0.12266,0.101918 0.18569,0.156832 0.31288,0.265721 0,0 0.11688,-0.131291 0.11688,-0.131291 z" />
    <path
       style="fill:#000000;stroke-width:0.874001"
       id="path9073"
       d="m 101.0799,71.332473 c -0.18562,-0.06353 -0.20978,-0.07447 -0.38252,-0.124984 -0.0568,-0.01662 -0.1363,-0.04321 -0.1986,-0.03594 -0.0281,0.0033 -0.0641,0.02312 -0.0916,0.03742 0,0 -0.004,0.05652 -0.004,0.05652 v 0 c 0.0816,0.08855 0.13434,0.08055 0.24626,0.108135 0.0907,0.02236 0.30624,0.08408 0.38217,0.105471 0,0 0.0481,-0.146621 0.0481,-0.146621 z" />
    <path
       style="fill:#000000;stroke-width:0.874001"
       id="path9075"
       d="m 100.91865,71.544637 c -0.28641,-0.198906 -0.56619,-0.389194 -0.89373,-0.513488 0,0 -0.0139,0.02906 -0.0139,0.02906 v 0 c 0.20031,0.118748 -0.04964,-0.03222 0.2941,0.19581 0.0961,0.06376 0.19427,0.124386 0.29141,0.186576 0.0895,0.05961 0.17892,0.119224 0.26838,0.178835 0,0 0.0538,-0.07679 0.0538,-0.07679 z" />
  </g>
</svg>
