<?xml version="1.0" encoding="UTF-8" standalone="no"?>
<!-- Created with Inkscape (http://www.inkscape.org/) -->

<svg
   width="210mm"
   height="297mm"
   viewBox="0 0 210 297"
   version="1.1"
   id="svg2920"
   inkscape:version="1.2 (dc2aedaf03, 2022-05-15)"
   sodipodi:docname="cactus-2.svg"
   xmlns:inkscape="http://www.inkscape.org/namespaces/inkscape"
   xmlns:sodipodi="http://sodipodi.sourceforge.net/DTD/sodipodi-0.dtd"
   xmlns="http://www.w3.org/2000/svg"
   xmlns:svg="http://www.w3.org/2000/svg">
  <sodipodi:namedview
     id="namedview2922"
     pagecolor="#505050"
     bordercolor="#eeeeee"
     borderopacity="1"
     inkscape:showpageshadow="0"
     inkscape:pageopacity="0"
     inkscape:pagecheckerboard="0"
     inkscape:deskcolor="#505050"
     inkscape:document-units="mm"
     showgrid="false"
     inkscape:zoom="5.0495043"
     inkscape:cx="377.85887"
     inkscape:cy="681.25499"
     inkscape:window-width="2560"
     inkscape:window-height="1369"
     inkscape:window-x="2552"
     inkscape:window-y="-8"
     inkscape:window-maximized="1"
     inkscape:current-layer="layer1" />
  <defs
     id="defs2917" />
  <g
     inkscape:label="Camada 1"
     inkscape:groupmode="layer"
     id="layer1">
    <path
       style="fill:#000000;fill-opacity:0;stroke-width:0.874001"
       id="path4138"
       d="m 29.208441,134.49303 c 2.062187,1.76765 2.090531,1.8555 4.952222,3.82611 5.111814,3.52009 10.166813,6.63329 15.531261,9.82426 6.640672,3.95012 18.149689,10.46942 24.709599,14.21023 11.005492,6.20301 22.047335,12.34097 33.095777,18.46699 0,0 0.86299,-0.0928 0.86299,-0.0928 v 0 c -11.237221,-6.03736 -22.455856,-12.1101 -33.544657,-18.41781 -7.862395,-4.54427 -16.522536,-9.46834 -24.278418,-14.25233 -5.083794,-3.13579 -10.027036,-6.34572 -14.831419,-9.88077 -2.668281,-1.96332 -2.681055,-2.04923 -4.543611,-3.8187 0,0 -1.953744,0.13482 -1.953744,0.13482 z" />
    <path
       style="fill:#000000;fill-opacity:0.987952;stroke-width:0.874001"
       id="path5538"
       d="m 96.350176,204.2127 c 0.774271,0.59682 1.668579,1.00583 2.571004,1.36701 1.031674,0.39668 2.12077,0.5892 3.21286,0.73447 0.55205,0.0774 1.10578,0.0769 1.6571,0.003 0.31597,-0.0465 0.62626,-0.11954 0.92108,-0.24275 0.21006,-0.10559 0.41265,-0.22619 0.60987,-0.35403 0.11431,-0.0732 0.22749,-0.14815 0.34258,-0.22015 0.062,-0.013 0.0986,-0.0557 0.14775,-0.0883 0.0222,-0.0164 0.0519,-0.0299 0.074,-0.0367 0.054,-0.008 0.0631,-0.0832 0.0363,-0.12435 -0.0926,-0.22055 -0.20272,-0.43299 -0.30711,-0.64808 -0.17058,-0.36688 -0.31861,-0.74482 -0.45301,-1.12669 -0.14089,-0.41145 -0.21049,-0.8417 -0.2552,-1.27288 -0.0455,-0.42139 -0.0407,-0.84472 -0.0194,-1.2672 0.0307,-0.372 0.0751,-0.74262 0.12945,-1.11185 0.0658,-0.48618 0.17098,-0.96527 0.28927,-1.44097 0.15811,-0.6191 0.37977,-1.2187 0.618,-1.81068 0.24235,-0.60056 0.52818,-1.18205 0.78131,-1.77809 0.20585,-0.4875 0.39354,-0.9824 0.56858,-1.48171 0.19777,-0.55552 0.37114,-1.11924 0.55827,-1.67838 0.21372,-0.60894 0.45208,-1.20876 0.7018,-1.80371 0.26725,-0.66264 0.53431,-1.32532 0.78362,-1.99496 0.25857,-0.68916 0.5221,-1.37646 0.78147,-2.06532 0.29247,-0.71659 0.57311,-1.43788 0.85733,-2.15774 0.32596,-0.80881 0.65091,-1.61749 0.94493,-2.43853 0.29548,-0.8654 0.59041,-1.73106 0.87289,-2.60079 0.27042,-0.83836 0.51455,-1.68498 0.75977,-2.53099 0.26415,-0.91686 0.53528,-1.8314 0.78811,-2.75149 0.28569,-0.87975 0.3882,-1.7906 0.41358,-2.71039 -0.017,-1.02915 -0.10838,-2.0551 -0.15797,-3.08316 -0.0469,-1.10334 -0.0683,-2.20826 -0.18609,-3.30693 -0.11002,-0.8545 -0.36761,-1.68626 -0.69427,-2.48119 -0.32847,-0.73162 -0.69281,-1.44632 -1.07579,-2.1507 -0.40794,-0.77453 -0.90262,-1.49408 -1.449,-2.17612 -0.65857,-0.75854 -1.42125,-1.43198 -2.21526,-2.0458 -0.89632,-0.69692 -1.88869,-1.24845 -2.86592,-1.81964 -0.89648,-0.48625 -1.8308,-0.8849 -2.79822,-1.20458 -0.78873,-0.2614 -1.61357,-0.36287 -2.43908,-0.41241 -0.67938,-0.0395 -1.35832,0.007 -2.032028,0.0932 -1.042726,0.13989 -2.059885,0.3858 -3.06006,0.7018 -0.714534,0.23064 -1.408128,0.52165 -2.098119,0.81645 -0.644208,0.26432 -1.260057,0.58853 -1.863823,0.93384 -0.535583,0.30296 -1.047483,0.64302 -1.539359,1.01212 -0.524058,0.39264 -0.995807,0.846 -1.406787,1.35483 -0.432573,0.58321 -0.769956,1.22787 -1.097582,1.87357 -0.287713,0.6005 -0.526293,1.22229 -0.797181,1.83008 -0.289028,0.6457 -0.516356,1.3166 -0.675796,2.00533 -0.173615,0.79378 -0.227534,1.60232 -0.251241,2.41206 -0.02096,0.73462 0.01998,1.46831 0.06544,2.20113 0.05734,0.89071 0.164097,1.7773 0.27971,2.66202 0.125494,1.04714 0.298838,2.08718 0.486441,3.12467 0.205582,1.04561 0.399987,2.09283 0.565333,3.14556 0.127987,0.87735 0.255622,1.7547 0.386006,2.6317 0.136723,0.89192 0.355573,1.76744 0.59564,2.63623 0.277339,0.92526 0.573474,1.84476 0.859925,2.76724 0.24283,0.80281 0.496777,1.60201 0.750472,2.40143 0.213964,0.66212 0.409692,1.32984 0.604729,1.9977 0.173157,0.59703 0.330978,1.19813 0.510432,1.79335 0.176342,0.5964 0.400338,1.1763 0.642395,1.74859 0.208756,0.50278 0.435176,0.99811 0.653203,1.497 0.183817,0.41545 0.346477,0.83813 0.469839,1.27525 0.139798,0.51006 0.207399,1.03544 0.265687,1.55988 0.05984,0.51907 0.111641,1.03896 0.157792,1.5594 0.03992,0.51915 0.06494,1.03913 0.06165,1.55982 -0.0016,0.53496 -0.0583,1.0667 -0.120864,1.59722 -0.05763,0.42743 -0.116329,0.85463 -0.169611,1.28262 -0.04389,0.3312 -0.07941,0.66346 -0.114282,0.99571 -0.03081,0.21406 -0.0493,0.42942 -0.05601,0.64553 -0.0044,0.12517 0.0083,0.24867 0.03462,0.37068 0.01818,0.0892 0.04493,0.13472 0.126048,0.17738 0.161533,0.0621 0.331284,0.0977 0.499895,0.13433 0.206574,0.0439 0.411049,0.0963 0.614408,0.15314 0.180374,-0.0138 0.363122,0.0646 0.538051,0.11147 0.161171,0.0518 0.329102,0.077 0.492504,0.11863 0.101364,0.0216 0.201072,0.0498 0.301453,0.0754 0.09183,0.0178 0.179972,0.046 0.269144,0.0733 0.638723,0.13493 1.285695,0.29873 1.940063,0.30769 0.11874,0.002 0.236514,0.0203 0.35483,0.0301 0.09332,0.006 0.187724,0.0212 0.280696,0.007 0.09155,-0.007 0.181264,-0.0229 0.270055,-0.0455 0.05306,-0.0161 0.107966,-0.0219 0.162042,-0.0337 0.06837,-0.01 0.134678,-0.0292 0.204171,-0.0339 0.0722,8e-4 0.141946,-0.0103 0.212862,-0.0223 0.05807,-0.002 0.116015,-0.008 0.174117,-0.006 0.09523,0.005 0.189974,-5.3e-4 0.285115,-0.004 0.15384,-0.0232 0.310147,-0.0218 0.465125,-0.0324 0.15135,-0.0141 0.30361,-0.0171 0.45492,-0.0309 0.11982,-0.0157 0.24172,-0.0185 0.36289,-0.0173 0.12823,2.7e-4 0.25635,0.007 0.38441,0.0137 0.14113,0.002 0.28153,0.016 0.42254,0.0214 0.16861,0.002 0.33699,0.01 0.5055,0.0171 0.19082,0.0121 0.37933,0.045 0.56864,0.0702 0.22968,0.0325 0.45916,0.065 0.69057,0.0822 0.26186,0.0167 0.52437,0.0126 0.7865,0.006 0.25001,-0.006 0.50013,0.004 0.75007,7e-5 0.25007,-0.004 0.50012,-0.006 0.75006,-0.0152 0.0717,-0.0118 0.16471,0.007 0.0883,-0.0726 0,0 -1.13249,-0.35346 -1.13249,-0.35346 v 0 c -0.16527,-0.029 -0.33078,-0.0617 -0.49956,-0.0579 -0.25536,0.001 -0.51066,0.005 -0.76599,0.009 -0.24972,0.004 -0.4993,0.0148 -0.74922,0.0137 -0.2606,0.003 -0.52163,0.002 -0.7813,-0.0232 -0.22984,-0.0247 -0.4586,-0.0578 -0.68762,-0.089 -0.19019,-0.0266 -0.38102,-0.0508 -0.57326,-0.0553 -0.16751,-0.006 -0.33509,-0.01 -0.50251,-0.0179 -0.1407,-0.009 -0.281378,-0.0154 -0.422269,-0.0202 -0.129722,-0.005 -0.259585,-0.009 -0.389387,-0.005 -0.121645,0.006 -0.242549,0.022 -0.363638,0.0268 -0.149439,0.009 -0.298643,0.0221 -0.44826,0.0283 -0.152093,0.005 -0.304339,0.0131 -0.456263,0.005 -0.09453,0.003 -0.189228,-0.002 -0.283581,0.007 -0.05787,0.007 -0.116183,0.0109 -0.173413,0.0224 -0.07014,0.008 -0.140972,0.008 -0.21009,0.0241 -0.06869,0.0154 -0.137795,0.0287 -0.206644,0.0426 -0.05322,0.0103 -0.105307,0.0243 -0.15843,0.0349 -0.0839,0.0132 -0.168942,0.0207 -0.253916,0.0205 -0.09082,-0.01 -0.182107,-0.0142 -0.273026,-0.0231 -0.119499,-0.0108 -0.238262,-0.0135 -0.357857,-0.0129 -0.990197,-0.11426 1.924201,0.3309 1.167498,0.20314 -0.09407,-0.0134 -0.1773,-0.0535 -0.270634,-0.07 -0.103651,-0.0249 -0.206492,-0.0525 -0.310028,-0.0778 -0.17044,-0.036 -0.336741,-0.0942 -0.508948,-0.12494 -0.183708,-0.0512 -0.383775,-0.0783 -0.544152,-0.18395 -0.205026,-0.0554 -0.40834,-0.11759 -0.61654,-0.16071 -0.163812,-0.0374 -0.329348,-0.0669 -0.490935,-0.11332 -0.09092,-0.0191 -0.108759,0.0237 -0.120052,-0.0263 -0.0335,-0.10625 -0.03567,-0.21806 -0.03691,-0.32861 -0.0016,-0.23635 0.03168,-0.47107 0.05589,-0.70577 0.03299,-0.33123 0.06075,-0.66304 0.104899,-0.99305 0.05206,-0.4285 0.109363,-0.85636 0.157065,-1.28537 0.05474,-0.53693 0.104055,-1.07504 0.09709,-1.61547 -0.0036,-0.5724 -0.03077,-1.1441 -0.09337,-1.71335 -0.05596,-0.54298 -0.11606,-1.08545 -0.181663,-1.62736 -0.06538,-0.52984 -0.143478,-1.05873 -0.28045,-1.57562 -0.132001,-0.46294 -0.284766,-0.91891 -0.492583,-1.35418 -0.21028,-0.48092 -0.416883,-0.96432 -0.649539,-1.43481 -0.247351,-0.56498 -0.473927,-1.13887 -0.648941,-1.73095 -0.176599,-0.59642 -0.332687,-1.19874 -0.51825,-1.79249 -0.210418,-0.6873 -0.411033,-1.37771 -0.652592,-2.05504 -0.275135,-0.80982 -0.530087,-1.62618 -0.794901,-2.43941 -0.292417,-0.9162 -0.595453,-1.82921 -0.869635,-2.75107 -0.238435,-0.86371 -0.462103,-1.73275 -0.594257,-2.62021 -0.134551,-0.87667 -0.269375,-1.75334 -0.412133,-2.62871 -0.179449,-1.06789 -0.391473,-2.12965 -0.604491,-3.19127 -0.207029,-1.04678 -0.378516,-2.1001 -0.511773,-3.15894 -0.100515,-0.85265 -0.199856,-1.70567 -0.259474,-2.5624 -0.05471,-0.7429 -0.104744,-1.48753 -0.08886,-2.23292 0.02103,-0.81404 0.06189,-1.63185 0.236265,-2.42989 0.169799,-0.69619 0.371581,-1.38114 0.683331,-2.02938 0.254191,-0.56944 0.527577,-1.13145 0.811485,-1.68644 0.320943,-0.6382 0.647706,-1.27979 1.089023,-1.84523 0.417853,-0.49626 0.889391,-0.94143 1.413544,-1.32531 0.494038,-0.36197 1.007795,-0.69508 1.54082,-0.99715 0.607126,-0.34207 1.228076,-0.65958 1.871456,-0.92856 0.69252,-0.29265 1.389107,-0.5768 2.10304,-0.81379 0.3121,-0.0968 0.624121,-0.19075 0.940999,-0.27095 0.09964,-0.0252 0.401354,-0.0879 0.29976,-0.0723 -0.05309,0.008 -1.51842,0.2786 -0.595506,0.10837 0.672859,-0.0972 1.352203,-0.14943 2.032489,-0.11825 0.823147,0.0416 1.646257,0.12936 2.435857,0.37989 0.95444,0.30749 1.90029,0.65935 2.78632,1.13218 1.00014,0.49683 1.94969,1.09154 2.84267,1.76261 0.27781,0.21522 0.56301,0.42127 0.83323,0.64595 0.49497,0.41157 0.92517,0.89591 1.35218,1.37535 0.54171,0.67422 1.02563,1.38937 1.42828,2.15627 0.37756,0.70225 0.7324,1.41627 1.06451,2.14121 0.0943,0.20388 0.20388,0.40045 0.29673,0.60496 0.22022,0.48507 0.32258,1.01301 0.3967,1.53721 0.11994,1.07708 0.15561,2.16091 0.20775,3.24289 0.0423,1.04323 0.11106,2.08542 0.13283,3.12926 -0.022,0.91063 -0.12996,1.80786 -0.40649,2.68001 -0.2373,0.86529 -0.50116,1.72281 -0.75078,2.58458 -0.24322,0.83765 -0.48377,1.67629 -0.75006,2.50698 -0.29569,0.91419 -0.59117,1.82861 -0.90768,2.73585 -0.29745,0.81936 -0.62694,1.6257 -0.95784,2.43203 -0.28293,0.72499 -0.56052,1.45211 -0.85429,2.17282 -0.27096,0.66052 -0.51882,1.33007 -0.76768,1.99916 -0.25391,0.66678 -0.51399,1.33115 -0.77594,1.9948 -0.23633,0.63036 -0.49665,1.25197 -0.70245,1.89349 -0.18503,0.55878 -0.35869,1.12122 -0.54868,1.67836 -0.17266,0.49683 -0.35258,0.99123 -0.55331,1.47752 -0.23366,0.57995 -0.48609,1.15224 -0.73334,1.72648 -0.23176,0.57888 -0.45002,1.16415 -0.60786,1.76822 -0.12375,0.47849 -0.23071,0.96128 -0.30034,1.45095 -0.0562,0.39247 -0.10371,0.78634 -0.13346,1.18176 -0.0397,0.46905 -0.0471,0.94089 -0.003,1.41012 0.0486,0.43854 0.10318,0.88004 0.24672,1.29952 0.12605,0.37107 0.26582,0.73538 0.45465,1.07929 0.10391,0.20545 0.21083,0.41108 0.29112,0.62711 0.0365,0.1191 0.0277,-0.0371 0.0717,-0.019 -0.0143,0.0223 -0.0355,0.0389 -0.0552,0.0574 -0.0404,0.0351 -0.0965,0.046 -0.13652,0.0837 -0.10793,0.0765 -0.21849,0.14909 -0.32876,0.22216 -0.18969,0.12188 -0.3788,0.24695 -0.58447,0.34072 -0.27213,0.113 -0.55346,0.19618 -0.84633,0.23588 -0.52736,0.066 -1.05666,0.0696 -1.5842,-0.006 -0.11477,-0.0153 -0.4557,-0.0776 -0.34429,-0.0461 0.17204,0.0487 0.35027,0.0734 0.52739,0.0979 0.12894,0.0178 -0.25573,-0.049 -0.38265,-0.0779 -0.4296,-0.0977 -0.85118,-0.22761 -1.267038,-0.37236 -0.912805,-0.34846 -1.823104,-0.73317 -2.603072,-1.33409 0,0 -0.818824,-0.0647 -0.818824,-0.0647 z" />
    <path
       style="fill:#000000;fill-opacity:0.987952;stroke-width:0.874001"
       id="path5540"
       d="m 94.075299,204.7963 c 0.09827,0.10107 0.232503,0.1466 0.354769,0.20952 0.04102,0.0211 0.07882,0.0484 0.120793,0.0676 0.08479,0.0387 0.20533,0.0722 0.294074,0.0992 0.245224,0.059 0.488783,0.12472 0.738685,0.15915 0.226576,0.0474 0.459745,0.0453 0.688761,0.0741 0.25088,0.008 0.500112,0.0376 0.750535,0.0524 0.234312,0.014 0.469114,0.0222 0.703368,0.006 0.196427,-0.008 0.392703,-0.0182 0.58887,-0.0309 0.179713,-0.0113 0.359461,-0.0182 0.539523,-0.0232 0.173265,0.002 0.346998,-0.01 0.520128,-0.002 0.208434,-0.002 0.416354,-0.014 0.624314,-0.0269 0.205891,-0.0149 0.411601,-0.0328 0.616911,-0.0543 0.19245,-0.0165 0.38506,-0.03 0.57794,-0.0403 0.22304,-0.0101 0.44615,-0.0155 0.6694,-0.013 0.25499,0.006 0.51002,0.007 0.76507,0.009 0.25629,0.001 0.51249,-0.002 0.76875,0.003 0.20805,5.3e-4 0.41604,0.003 0.62406,0.007 0.15207,-2.7e-4 0.30361,0.0115 0.45543,0.0175 0.10741,0.008 0.21508,0.012 0.32242,0.0211 0.0646,0.006 0.12946,0.0101 0.19415,0.0156 0.0201,0.002 0.0394,0.007 0.0581,0.0139 7.9e-4,0.003 0.002,0.006 -0.002,0.008 -0.0224,0.009 -0.0707,0.0223 -0.0719,-0.002 -0.0196,-0.39527 0.005,-0.79151 0.007,-1.18726 -0.0209,0.0592 -0.0519,0.1141 -0.0853,0.16692 -0.0524,0.0818 -0.11332,0.1577 -0.18505,0.22322 -0.0731,0.0673 -0.16405,0.10381 -0.25491,0.1398 -0.13671,0.0486 -0.27745,0.0841 -0.41815,0.11884 -0.16645,0.0423 -0.33432,0.0788 -0.5033,0.10952 -0.15558,0.0313 -0.31341,0.0473 -0.47188,0.0514 -0.14516,0.003 -0.28994,-0.004 -0.43467,-0.0145 -0.14359,-0.0145 -0.28706,-0.0296 -0.4312,-0.0372 -0.14036,-0.007 -0.28093,-0.0118 -0.42149,-0.011 -0.12166,0.003 -0.24338,0.003 -0.36505,0.005 -0.13227,0.005 -0.26423,0.0152 -0.39638,0.0225 -0.14416,0.009 -0.28852,0.0152 -0.43295,0.0171 -0.121,0.004 -0.24201,0.0103 -0.36307,0.0122 -0.12517,0.004 -0.250613,0.008 -0.375796,0.003 -0.116482,0.002 -0.232153,-0.009 -0.34804,-0.0195 -0.100844,-0.0103 -0.201729,-0.0202 -0.302483,-0.0313 -0.09639,-0.009 -0.192381,-0.0231 -0.287845,-0.0392 -0.05882,-0.0104 -0.116671,-0.025 -0.175165,-0.0368 -0.04579,0.001 -0.08749,2.7e-4 -0.131889,-0.0103 -0.02381,-0.008 -0.04812,0.004 -0.07156,-0.005 -0.0177,-0.007 -0.03747,-0.006 -0.05627,-0.011 -0.0024,8e-5 -0.0097,-0.004 -0.0093,0.002 0.0048,0.0799 -0.02774,0.16106 -0.01302,0.23971 0.02466,0.13183 0.08512,0.25437 0.127685,0.38155 0,0 0.04057,0.10111 0.04057,0.10111 v 0 c 0.161488,0.46866 0.122102,0.20217 0.10628,0.5584 -0.0026,0.0583 0.0019,0.0235 0.0099,0.0281 0.01061,-0.006 0.02058,-0.01 0.03275,-0.0119 0.01934,-0.003 0.03712,-0.002 0.05585,0.003 0.03391,0.005 0.06373,0.002 0.06014,0.007 -0.01066,0.0127 -0.04658,0.004 -0.0076,0.0106 0.05866,0.008 0.117378,0.0165 0.176221,0.0236 0.09796,0.0136 0.196173,0.024 0.294478,0.0343 0.101018,0.008 0.201928,0.0181 0.302724,0.0289 0.09242,0.009 0.184456,0.0167 0.275336,0.0272 0.100504,10e-4 0.200934,0.002 0.301464,8e-4 0.12083,-0.006 0.24192,-0.01 0.3628,-0.0147 0.14503,-0.007 0.29024,-0.0116 0.43524,-0.02 0.13105,-0.006 0.26191,-0.0154 0.39299,-0.0208 0.14814,-0.004 0.29638,-0.006 0.44458,-0.006 0.13822,3e-5 0.27633,0.002 0.41443,0.008 0.1424,0.007 0.28482,0.013 0.42705,0.023 0.12257,0.0103 0.24541,0.0172 0.36838,0.0166 0.16384,-0.009 0.32636,-0.0313 0.48871,-0.0543 0.17163,-0.029 0.3431,-0.0601 0.51214,-0.10188 0.14472,-0.0357 0.29071,-0.0677 0.43243,-0.11433 0.10595,-0.0365 0.20941,-0.0807 0.29855,-0.14985 0.0851,-0.0671 0.15914,-0.14408 0.22041,-0.23395 0.0422,-0.0616 0.0814,-0.12504 0.10991,-0.1944 0.007,-0.29177 0.43918,-1.30576 -0.0546,-1.25817 -0.0257,-0.003 -0.0518,-0.004 -0.0777,-0.002 -0.0643,-0.002 -0.12856,-0.006 -0.1928,-0.009 -0.10849,-0.006 -0.21643,-0.0192 -0.32519,-0.02 -0.15321,-0.008 -0.30664,-0.0101 -0.46006,-0.0105 -0.20828,5.2e-4 -0.41654,0.001 -0.62482,0.002 -0.25613,0.004 -0.51224,0.003 -0.76841,0.004 -0.25506,2.3e-4 -0.51004,-0.005 -0.76509,-0.005 -0.22562,0.001 -0.45143,5.3e-4 -0.67673,0.0141 -0.19474,0.0127 -0.38957,0.0259 -0.58356,0.0474 -0.20381,0.0229 -0.40714,0.051 -0.611764,0.0657 -0.232476,0.0156 -0.465587,0.0223 -0.698558,0.0245 -0.199935,0.008 -0.400034,0.007 -0.600022,0.014 -0.207147,0.008 -0.413118,0.0232 -0.618884,0.0491 -0.193151,0.0208 -0.386437,0.0406 -0.578588,0.0694 -0.181118,0.0124 -0.361892,0.0199 -0.543544,0.019 -0.248764,0.005 -0.496938,0.0238 -0.745834,0.0252 -0.264867,0.0146 -0.529974,0.0244 -0.795137,0.0322 -0.254222,-0.005 -0.509899,0.007 -0.757041,-0.0672 -0.141108,-0.0366 -0.304668,-0.0771 -0.441288,-0.12496 -0.129688,-0.0454 -0.244856,-0.12368 -0.375576,-0.16664 0,0 0.23808,0.69141 0.23808,0.69141 z" />
    <path
       style="fill:#000000;fill-opacity:0.987952;stroke-width:0.874001"
       id="path5542"
       d="m 93.509755,204.90124 c 0.293825,0.0138 0.583327,0.0702 0.874276,0.11199 0.283588,0.0309 0.563692,0.0899 0.846913,0.1202 0.252428,0.0299 0.504094,0.0603 0.75671,0.0896 0.2353,0.0269 0.4712,0.048 0.706748,0.0729 0.24326,0.034 0.488487,0.0436 0.733734,0.0477 0.219927,0.003 0.439751,-0.004 0.659522,-0.011 0.195297,-0.0157 0.391869,-0.0214 0.588303,-0.0277 0.182015,0.006 0.371383,-0.013 0.550262,0.0267 0.151228,0.0218 0.309534,0.006 0.45924,0.0371 0.122232,0.003 0.244552,0.004 0.366417,0.0151 0.0665,0.0161 0.18356,0.0112 0.24312,0.044 0.004,0.002 0.001,0.009 0.002,0.0136 0.0712,0.03 0.11111,0.0293 0.0606,0.1044 -0.0295,-0.38714 -0.059,-0.77428 -0.0885,-1.16142 0.007,0.0268 0.0127,0.0649 -0.0104,0.0873 -0.0698,0.0465 -0.0419,0.022 -0.0875,0.0692 -0.0732,0.0733 -0.16122,0.12202 -0.254245,0.16484 -0.121552,0.0568 -0.252381,0.0841 -0.383313,0.10902 -0.137099,0.0245 -0.275193,0.0418 -0.413467,0.0578 -0.10405,0.0115 -0.208351,0.0195 -0.312737,0.027 -0.09933,0.006 -0.198636,0.002 -0.29799,5.3e-4 -0.13902,0.0134 -0.27831,-0.007 -0.416348,-0.0228 -0.100753,-0.0102 -0.200295,-0.031 -0.298741,-0.0543 -0.101751,-0.0276 -0.205415,-0.0447 -0.307697,-0.07 -0.104643,-0.0271 -0.211593,-0.041 -0.318326,-0.0565 -0.08912,-0.0158 -0.179601,-0.0197 -0.269801,-0.0246 -0.06027,-0.0121 -0.128455,0.006 -0.187833,-0.0101 -0.0063,-0.002 -0.0093,-0.009 -0.014,-0.0137 -0.01535,-0.001 -0.03071,-0.002 -0.04607,-0.003 -0.0871,-0.0102 -0.173765,-0.0189 -0.260678,-0.0321 -0.07462,-0.0124 -0.148045,-0.0303 -0.221049,-0.05 -0.07095,-0.0162 -0.142886,-0.0275 -0.214355,-0.0411 -0.04807,-0.004 -0.0951,-0.0258 -0.14356,-0.0267 -0.101103,-0.002 -0.03248,0.0111 -0.09783,-0.004 -0.05737,-0.0102 -0.115224,-0.0155 -0.173109,-0.0213 -0.08709,0.0113 -0.171022,-0.009 -0.257146,-0.0188 -0.08691,-0.0118 -0.168762,-0.0375 -0.256516,-0.0332 -0.07008,-0.0165 -0.140399,-0.0323 -0.211178,-0.0455 -0.06871,-0.0118 -0.137022,-0.0252 -0.205689,-0.0372 -0.06097,-0.0126 -0.121698,-0.0265 -0.182317,-0.0407 -0.04612,-0.015 -0.0946,-0.0212 -0.139827,-0.0389 -0.03249,-0.0135 -0.06469,-0.0253 -0.09951,-0.0306 -0.03218,-0.0115 -0.06436,0.004 -0.09685,0.008 -0.03695,-0.002 -0.07305,-0.0106 -0.109786,-0.014 -0.03954,-0.006 -0.07864,-0.0129 -0.11787,-0.0206 -0.0057,-0.001 -0.01408,-0.008 -0.01699,-0.003 -0.02281,0.0393 0.115917,0.38644 0.147791,0.46857 0,0 0.0535,0.0924 0.0535,0.0924 v 0 c 0.04486,0.0804 0.09197,0.15959 0.134583,0.2412 0.02217,0.0425 0.05783,0.18701 0.131712,0.21223 0.04597,0.0144 0.09109,0.0312 0.137673,0.0437 0.04015,0.0104 0.08152,0.0154 0.122293,0.0228 0.0057,0.002 0.03869,0.009 0.0422,0.0166 0.0058,0.0125 -0.01251,0.014 0.02101,0.0183 0.03091,0.0118 0.062,0.0225 0.09436,0.0299 0.0502,0.0111 0.09905,0.0267 0.149193,0.0379 0.06205,0.0122 0.123582,0.0269 0.185648,0.039 0.06927,0.0133 0.138086,0.0277 0.206626,0.0444 0.06992,0.015 0.139764,0.0301 0.209518,0.0459 0.0024,0.006 0.0013,0.0153 0.0072,0.0185 0.03749,0.021 0.152027,0.0181 0.197135,0.0333 0.04628,0.009 0.125865,0.007 0.166661,0.0247 0.0046,0.002 7.94e-4,0.0119 0.0054,0.0141 0.009,0.004 0.02008,0.002 0.03011,0.003 0.0554,0.005 0.110233,0.0147 0.165029,0.0243 0.01032,10e-4 0.02061,0.002 0.03092,0.003 -5.29e-4,0.005 -0.0055,0.0116 -0.0016,0.0143 0.03731,0.0252 0.10306,0.007 0.143184,0.0273 0.06972,0.0124 0.13893,0.0278 0.20783,0.0441 0.07646,0.0171 0.15307,0.0328 0.230667,0.044 0.08973,0.0135 0.179022,0.0292 0.269896,0.0298 0.10128,0.007 0.211873,-0.008 0.315455,0.001 0.0857,0.002 0.170902,0.0104 0.255979,0.0207 0.102499,0.0145 0.205131,0.0303 0.305935,0.0539 0.09714,0.0231 0.189558,0.0596 0.288441,0.0762 0.102674,0.0218 0.205724,0.0386 0.310274,0.049 0.120727,0.0137 0.245496,0.0135 0.363299,0.0389 0.103275,0.006 0.206857,0.008 0.310206,0.002 0.106534,-0.005 0.212394,-0.0175 0.318436,-0.0282 0.11979,-0.0118 0.239554,-0.0224 0.358048,-0.0446 0.115792,-0.0217 0.231431,-0.0456 0.342396,-0.086 0.10467,-0.039 0.20909,-0.0849 0.29736,-0.15448 0.13098,-0.10514 -0.005,0.0196 0.0416,-0.0573 0.0159,-0.0264 0.0447,-0.0426 0.0642,-0.0665 0.26316,-0.32204 -0.17561,-1.30012 -0.0638,-1.24603 -0.0557,-0.0453 -0.12466,-0.0603 -0.19447,-0.0722 -0.11291,-0.007 -0.22414,-0.0296 -0.337636,-0.0303 -0.122259,5.3e-4 -0.244438,-0.002 -0.366673,-0.004 -0.174754,0.006 -0.349213,-0.005 -0.523965,-0.009 -0.206835,0.009 -0.414131,-0.003 -0.620839,0.0143 -0.194543,0.015 -0.389279,0.0366 -0.583571,0.0464 -0.215291,0.0173 -0.430728,0.033 -0.646795,0.0369 -0.238342,0.005 -0.476694,-0.002 -0.715049,0.002 -0.23095,-0.001 -0.46123,-0.0118 -0.692029,-0.0173 -0.27283,-0.003 -0.545565,0.002 -0.818142,-0.008 -0.28594,-0.0139 -0.572918,-0.009 -0.858324,-0.038 -0.298238,-0.0243 -0.596257,-0.037 -0.894879,-0.0538 0,0 0.319596,0.6866 0.319596,0.6866 z" />
    <path
       style="fill:#000000;fill-opacity:0.987952;stroke-width:0.874001"
       id="path5544"
       d="m 93.369621,204.95936 c 0.499221,0.0242 0.996048,0.0279 1.492253,-0.0431 0.170531,-0.0244 0.339457,-0.059 0.509188,-0.0884 0,0 -0.0092,-0.0389 -0.0092,-0.0389 v 0 c -0.185647,-0.038 -0.370395,-0.0807 -0.556948,-0.11393 -0.537125,-0.0958 -1.080926,-0.13555 -1.624216,-0.17609 0,0 0.188928,0.46051 0.188928,0.46051 z" />
    <path
       style="fill:#000000;fill-opacity:0.987952;stroke-width:0.874001"
       id="path5546"
       d="m 93.101418,204.82281 c 0.263567,0.0748 0.531344,0.13429 0.798502,0.1948 0.34834,0.0827 0.702979,0.13195 1.055002,0.19468 0.396888,0.0581 0.792999,0.12234 1.189723,0.18235 0.346358,0.0548 0.693351,0.10616 1.041559,0.14772 0.341606,0.0414 0.684723,0.0694 1.027432,0.1 0.319694,0.0303 0.640382,0.053 0.9592,0.0918 0.302627,0.0181 0.605038,0.0432 0.907924,0.0557 0.16392,0.008 0.32789,0.001 0.49171,-0.005 0.0227,-0.004 0.15844,-7.9e-4 0.1673,-0.0237 0.006,-0.0152 0.004,-0.0323 0.006,-0.0484 -0.005,-0.25875 -0.0176,-0.15575 0.01,-0.31133 0,0 0.013,-0.106 0.013,-0.106 v 0 c -2.6e-4,-0.20483 0.004,-0.0795 -0.0244,-0.37538 -0.007,-0.016 -0.0108,-0.0336 -0.0206,-0.0479 -0.0103,-0.0151 -0.13877,0.0238 -0.16051,0.0247 -0.17625,0.0281 -0.3545,0.0364 -0.53284,0.0399 -0.316867,0.004 -0.633687,0.002 -0.95025,-0.0151 -0.34806,-0.007 -0.695966,-0.0231 -1.043536,-0.0419 -0.338947,-0.0175 -0.677875,-0.0357 -1.016235,-0.0627 -0.343887,-0.0307 -0.687234,-0.0658 -1.030229,-0.10528 -0.401746,-0.0418 -0.80417,-0.0716 -1.207045,-0.0991 -0.360889,-0.0203 -0.721233,-0.0511 -1.080252,-0.0935 -0.253524,-0.0309 -0.507383,-0.0688 -0.763042,-0.0738 0,0 0.161194,0.37769 0.161194,0.37769 z" />
    <path
       style="fill:#999999;fill-opacity:0.987952;stroke-width:0.654184"
       d="m 357.58371,772.01355 c -0.34201,-0.0878 -0.36106,-0.23458 -0.23465,-1.80889 0.1447,-1.8021 0.49938,-4.94065 1.04406,-9.23887 0.52674,-4.1566 0.44269,-10.26295 -0.21944,-15.94216 -1.03289,-8.85927 -1.44344,-10.42835 -4.47644,-17.10835 -2.34028,-5.15432 -3.04987,-7.03323 -4.37582,-11.5867 -1.76503,-6.06135 -2.18368,-7.40524 -4.63344,-14.87358 -6.00491,-18.3066 -6.76693,-21.12095 -8.22214,-30.36667 -1.16757,-7.41816 -1.23752,-7.81657 -2.76986,-15.77648 -2.10692,-10.94466 -2.96751,-17.20015 -3.5827,-26.04216 -0.28632,-4.11518 -0.12625,-11.32799 0.30985,-13.96176 0.4037,-2.43816 1.47543,-6.18433 2.40356,-8.40151 1.29282,-3.08838 5.34002,-11.04534 6.55903,-12.89532 2.61001,-3.96101 7.49195,-7.89038 14.31237,-11.51975 3.69194,-1.9646 10.58242,-4.78183 14.75392,-6.03226 l 2.17843,-0.65299 4.65392,0.005 c 3.44492,0.004 5.14328,0.091 6.53765,0.33582 6.63911,1.16587 15.66831,5.17563 22.9702,10.20078 7.8863,5.42734 12.23978,10.28713 16.53034,18.45283 2.16001,4.11086 4.96638,10.0515 5.33206,11.28712 0.82827,2.79866 1.10192,5.78696 1.72397,18.82613 0.53113,11.1335 0.37924,13.69921 -1.1255,19.01177 -1.97988,6.99 -5.04966,17.28907 -6.46061,21.67519 -2.09556,6.51435 -3.07898,9.19823 -6.78852,18.52677 -1.71086,4.30241 -3.60069,9.11476 -4.1996,10.69412 -0.59892,1.57937 -2.24706,5.85701 -3.66255,9.50589 -1.41549,3.64887 -3.44876,9.26328 -4.51837,12.47647 -1.06962,3.21319 -2.80733,7.89186 -3.8616,10.39706 -4.22686,10.04411 -5.15378,13.39955 -5.85364,21.1902 -0.36546,4.06824 0.0677,8.11963 1.19974,11.22152 0.32675,0.8953 0.59408,1.65081 0.59408,1.6789 0,0.0281 -2.9186,0.0892 -6.48578,0.13589 -7.43093,0.0972 -16.8363,0.42839 -17.91584,0.63091 -0.40332,0.0757 -1.68994,0.0242 -2.85914,-0.11436 -1.61403,-0.19129 -2.14439,-0.19623 -2.20296,-0.0205 -0.0549,0.16472 -0.97128,0.22478 -3.17974,0.20843 -1.70644,-0.0126 -3.27012,-0.0659 -3.47484,-0.11848 z"
       id="path5617"
       transform="scale(0.26458333)" />
    <path
       style="fill:#000000;fill-opacity:0.987952;stroke-width:0.874001"
       id="path5619"
       d="m 105.17125,160.91412 c 0.0358,-0.005 0.14373,-0.0163 0.10755,-0.0151 -0.0665,0.002 -0.19073,-0.0481 -0.19891,0.018 -0.008,0.0654 0.1285,0.0309 0.18988,0.0548 0.0799,0.0311 0.15804,0.0675 0.23259,0.10987 0.23145,0.1315 0.33249,0.22667 0.5435,0.39509 0.30312,0.27965 0.59358,0.57815 0.84442,0.90646 0.29696,0.38869 0.56305,0.81881 0.82741,1.23024 0.30742,0.48011 0.53281,1.00418 0.74802,1.52993 0.0537,0.13129 0.0984,0.26672 0.16173,0.39366 0.0665,0.13331 0.15124,0.25674 0.22685,0.38511 0,0 0.0396,-0.005 0.0396,-0.005 v 0 c 0.01,-0.15182 0.0404,-0.30374 0.0293,-0.45547 -0.0185,-0.25273 -0.14907,-0.59843 -0.24212,-0.82985 -0.17914,-0.4455 -0.40892,-0.86653 -0.66209,-1.27397 -0.0755,-0.11625 -0.147,-0.23516 -0.22639,-0.34876 -0.20592,-0.29465 -0.28912,-0.3789 -0.52175,-0.65223 -0.27117,-0.31861 -0.54265,-0.63777 -0.86012,-0.91248 -0.47639,-0.38338 -0.92525,-0.73823 -1.58503,-0.57028 0,0 0.34555,0.0404 0.34555,0.0404 z" />
    <path
       style="fill:#000000;fill-opacity:0.987952;stroke-width:0.874001"
       id="path5621"
       d="m 94.991744,183.93021 c 0.259051,0.34195 0.43383,0.73833 0.624483,1.11952 0.118155,0.23623 0.237014,0.47211 0.355518,0.70817 0,0 0.03686,0.0155 0.03686,0.0155 v 0 c -0.0458,-0.20933 -0.07876,-0.42188 -0.13739,-0.62799 -0.04971,-0.17477 -0.121994,-0.34235 -0.186888,-0.51206 -0.133284,-0.34858 -0.121561,-0.31261 -0.254453,-0.58515 0,0 -0.438129,-0.11802 -0.438129,-0.11802 z" />
    <path
       style="fill:#000000;fill-opacity:0.987952;stroke-width:0.874001"
       id="path5623"
       d="m 101.27733,194.95746 c -0.0203,-0.2372 -0.0262,-0.4756 -0.0491,-0.71259 -0.0212,-0.21896 -0.066,-0.43582 -0.0758,-0.65559 -0.009,-0.20072 0.0131,-0.40162 0.0197,-0.60244 0,0 -0.0263,-0.0301 -0.0263,-0.0301 v 0 c -0.0175,0.18836 -0.0215,0.37848 -0.0526,0.5651 -0.026,0.15616 -0.0922,0.30385 -0.11779,0.46007 -0.0303,0.18468 -0.0215,0.44958 -0.0192,0.6458 0,0 0.32094,0.3298 0.32094,0.3298 z" />
    <path
       style="fill:#000000;fill-opacity:0.987952;stroke-width:0.874001"
       id="path5627"
       d="m 104.02456,175.50121 c -0.12482,0.44605 -0.24605,0.90601 -0.29863,1.36689 -0.041,0.35923 -0.0473,0.72159 -0.0754,1.08205 -0.0347,0.44467 -0.0755,0.88886 -0.11325,1.33329 0,0 0.0393,0.007 0.0393,0.007 v 0 c 0.0839,-0.43917 0.15402,-0.88119 0.25166,-1.31751 0.0825,-0.36885 0.19356,-0.73074 0.28857,-1.09657 0.11819,-0.4551 0.22022,-0.91618 0.38709,-1.35709 0,0 -0.47937,-0.0183 -0.47937,-0.0183 z" />
    <path
       style="fill:#000000;fill-opacity:0.987952;stroke-width:0.874001"
       id="path5629"
       d="m 92.35433,165.25116 c 0.02772,0.60084 0.07066,1.20303 0.175747,1.79612 0.0968,0.5463 0.310732,1.44447 0.429043,1.96089 0.06847,0.36051 0.136948,0.72103 0.205425,1.08154 0,0 0.0399,-0.003 0.0399,-0.003 v 0 c -0.06854,-0.36118 -0.137081,-0.72236 -0.205621,-1.08355 -0.04091,-0.36294 -0.08909,-0.72513 -0.122735,-1.08881 -0.08477,-0.91623 -0.109469,-1.83728 -0.13629,-2.75652 0,0 -0.385466,0.0932 -0.385466,0.0932 z" />
  </g>
</svg>
