<?xml version="1.0" encoding="UTF-8" standalone="no"?>
<!-- Created with Inkscape (http://www.inkscape.org/) -->

<svg
   width="210mm"
   height="297mm"
   viewBox="0 0 210 297"
   version="1.1"
   id="svg5"
   inkscape:version="1.2 (dc2aedaf03, 2022-05-15)"
   sodipodi:docname="cactus-A.svg"
   xmlns:inkscape="http://www.inkscape.org/namespaces/inkscape"
   xmlns:sodipodi="http://sodipodi.sourceforge.net/DTD/sodipodi-0.dtd"
   xmlns="http://www.w3.org/2000/svg"
   xmlns:svg="http://www.w3.org/2000/svg">
  <sodipodi:namedview
     id="namedview7"
     pagecolor="#505050"
     bordercolor="#eeeeee"
     borderopacity="1"
     inkscape:showpageshadow="0"
     inkscape:pageopacity="0"
     inkscape:pagecheckerboard="0"
     inkscape:deskcolor="#505050"
     inkscape:document-units="mm"
     showgrid="false"
     inkscape:zoom="1.7852694"
     inkscape:cx="378.65435"
     inkscape:cy="610.55212"
     inkscape:window-width="2560"
     inkscape:window-height="1369"
     inkscape:window-x="2552"
     inkscape:window-y="-8"
     inkscape:window-maximized="1"
     inkscape:current-layer="layer1" />
  <defs
     id="defs2" />
  <g
     inkscape:label="Camada 1"
     inkscape:groupmode="layer"
     id="layer1">
    <path
       style="fill:#000000;stroke-width:0.874001"
       id="path997"
       d="m 95.836453,210.30381 c 0.491522,0.0666 1.349335,-0.24445 1.83484,0.0131 0.0177,0.009 -0.06141,0.0121 -0.05215,0.0299 0.03023,0.058 0.08681,0.0993 0.139589,0.13789 0.08747,0.064 0.185597,0.11203 0.278395,0.16804 0.116046,0.0422 0.23011,0.0904 0.348141,0.12667 0.255156,0.0785 0.51857,0.1274 0.776033,0.19799 0.549516,0.15065 1.088519,0.33102 1.628549,0.51202 0.73038,0.21728 1.46113,0.42623 2.18806,0.65511 0.91401,0.31371 1.86337,0.48892 2.80927,0.67276 0.96527,0.17884 1.94755,0.22972 2.92464,0.30592 0.96092,0.0219 1.91739,0.0336 2.87522,0.1206 0.78802,0.11445 1.57844,0.11433 2.3723,0.10085 0.83902,0.0485 1.6764,-0.0285 2.51204,-0.0962 0.77612,-0.0712 1.53783,-0.24283 2.31564,-0.2948 0.63634,-0.013 1.25008,-0.18205 1.86344,-0.33243 0.40226,-0.10207 0.81087,-0.17538 1.21552,-0.26807 0.2869,-0.0383 0.57282,-0.0846 0.85666,-0.14132 0.15744,-0.0384 0.27425,-0.0335 0.42527,-0.0663 0.16532,-0.0509 0.18184,-0.0707 0.27693,-0.12496 0.246,-0.20581 0.1987,-0.10159 0.32164,-0.47674 0.13149,-0.43177 0.26469,-0.86189 0.38188,-1.29844 0.3256,-1.47159 0.52047,-2.96651 0.68384,-4.46334 0.21336,-2.18109 0.24716,-4.37567 0.44057,-6.55807 0.0472,-0.53244 0.11163,-1.06322 0.16744,-1.59483 0.0664,-0.47353 0.12979,-0.94747 0.19908,-1.42058 0.18333,-1.2518 0.24218,-1.47388 0.398,-2.75227 0.22606,-1.85468 0.0811,-1.08183 0.34136,-3.0456 0.0818,-0.6169 0.18071,-1.2314 0.27106,-1.8471 0.0934,-0.57515 0.18591,-1.15041 0.28005,-1.72542 0.0919,-0.56145 0.42064,-2.49803 0.49802,-3.12978 0.18465,-1.5076 0.22936,-3.03405 0.31326,-4.5492 0.0327,-0.59914 0.0657,-1.19827 0.0982,-1.79741 0.0698,-1.28394 0.10961,-1.87953 0.14587,-3.16084 0.0441,-1.55748 0.039,-3.11584 0.07,-4.67361 0.12857,-2.49273 0.53215,-4.95963 0.66785,-7.4519 0.0515,-0.94612 0.0499,-1.85911 0.0591,-2.80584 -0.001,-2.2356 0.14199,-4.46751 0.35371,-6.69203 0.12821,-1.58402 0.39322,-3.15269 0.54775,-4.73383 0.0942,-0.96362 0.10429,-1.31583 0.15686,-2.26256 0.059,-2.32041 0.29405,-4.63088 0.40945,-6.94815 0.027,-1.42652 -0.0234,-2.84947 0.0498,-4.27524 0.15783,-1.43109 0.0233,-2.85738 -0.17944,-4.27514 -0.24879,-1.65767 -0.52742,-3.31031 -0.97496,-4.92699 -0.30171,-0.98108 -0.4338,-2.00309 -0.59937,-3.01337 -0.26108,-1.19342 -0.37253,-2.40511 -0.4727,-3.6206 -0.1606,-1.0544 -0.0708,-2.11314 -0.0395,-3.17131 -0.0159,-1.1967 -0.16427,-2.39784 -0.39879,-3.57138 -0.23678,-0.88312 -0.52164,-1.75095 -0.80983,-2.61818 -0.3246,-0.83161 -0.66684,-1.65588 -0.98666,-2.4897 -0.4782,-0.98175 -0.99107,-1.94838 -1.49865,-2.9159 -0.5839,-0.99888 -1.34619,-1.73018 -2.35052,-2.29329 -0.79519,-0.30264 -1.58491,-0.62619 -2.39358,-0.89329 -0.94938,-0.31342 -1.93872,-0.30109 -2.92424,-0.26405 -1.08516,0.091 -2.17099,0.14917 -3.25948,0.1771 -0.88589,-0.009 -1.75825,0.11492 -2.61211,0.34334 -0.91425,0.33107 -1.83167,0.64951 -2.76936,0.90748 -0.53402,0.12975 -0.96755,0.46523 -1.42974,0.7407 -0.2233,0.1331 -0.42204,0.22986 -0.65355,0.34819 -0.69293,0.35611 -1.38977,0.70356 -2.09119,1.04254 -0.69011,0.35327 -1.37574,0.72013 -2.01334,1.1625 -1.00842,0.82407 -1.81336,1.86204 -2.65706,2.84631 -0.134001,0.18068 -0.404675,0.51611 -0.512678,0.74788 -0.154228,0.33097 -0.201906,0.70652 -0.34722,1.04307 -0.0691,0.16004 -0.153064,0.31325 -0.229595,0.46988 -0.496835,0.94278 -0.992076,1.88723 -1.394891,2.87474 -0.271574,0.8259 -0.562158,1.64585 -0.886368,2.45261 -0.32522,0.96216 -0.751525,1.88584 -1.095253,2.8407 -0.0365,0.14482 -0.08109,0.28783 -0.109503,0.43444 -0.03433,0.17711 -0.0513,0.35716 -0.07849,0.53551 -0.101709,0.66722 -0.206751,1.33373 -0.30027,2.00218 -0.157758,1.24784 -0.223163,2.50427 -0.36068,3.75455 -0.162174,1.18795 -0.38212,2.36696 -0.532805,3.55639 -0.123193,1.14102 -0.15549,2.28882 -0.249992,3.43205 -0.07304,0.8701 -0.10886,1.74144 -0.226329,2.60709 -0.171247,0.99349 -0.1982,1.99477 -0.164693,2.99927 -0.0045,1.34086 0.221739,2.66177 0.415634,3.98358 0.159872,1.11638 0.349374,2.2276 0.488447,3.34687 0.114094,1.09421 0.212802,2.19086 0.299006,3.28774 0.01974,0.94613 0.03263,1.88789 0.145806,2.82856 0.115737,1.05398 0.269288,2.10319 0.453316,3.14731 0.233246,0.94307 0.242845,1.90839 0.201941,2.87252 -0.09046,1.27323 -0.132683,2.54944 -0.231574,3.82197 -0.13593,1.38821 -0.251116,2.77831 -0.392531,4.16597 -0.119501,1.30569 -0.161221,2.61892 -0.205152,3.92928 -0.03818,1.36654 -0.03765,2.73493 -0.0019,4.10153 0.08683,1.51992 0.280268,3.03251 0.4431,4.54587 0.168177,1.06584 0.250164,2.1404 0.281564,3.21826 0.02463,1.04514 0.135737,2.08525 0.218893,3.12661 0.01577,1.21925 0.0831,2.42938 0.241879,3.63836 0.221978,1.50092 0.240168,3.02125 0.408223,4.52736 0.316058,1.64956 0.39029,3.32816 0.502486,4.99942 0.115324,1.08073 0.215464,2.16265 0.306771,3.24572 0.02307,0.55971 0.0928,1.1235 0.02355,1.68255 -0.03907,0.57752 -0.01849,1.15706 -0.01217,1.73538 -0.02138,0.4083 0.03085,0.81544 0.0182,1.22307 -0.0085,0.37345 -0.04049,0.74422 -0.09454,1.11355 -0.03915,0.31004 -0.05758,0.62143 -0.137723,0.92335 -0.07685,0.21118 -0.06339,0.43737 -0.09807,0.65544 5.29e-4,-0.006 0.0016,-0.0224 0.0016,-0.0168 0.0024,0.26241 -0.05132,0.51445 -0.102587,0.77322 -0.0071,0.0634 -0.01521,0.12668 -0.02127,0.19018 -0.01228,0.12871 -0.0278,0.24878 -0.05034,0.37643 -0.0043,0.024 -0.01106,0.0476 -0.01693,0.0713 -0.0016,0.007 0.0028,-0.0133 0.0042,-0.0199 -0.0086,0.0524 -0.02257,0.10426 -0.02569,0.15729 -0.0024,0.0407 0.0047,0.0814 0.0093,0.12193 0.0024,0.0214 0.01045,0.0848 0.01167,0.0634 0.02191,-0.38143 -0.0087,-0.17126 -0.0297,-0.0565 0.02522,-0.0297 -0.03692,0.19675 -7.94e-4,0.15835 0.15685,-0.16626 0.378328,-0.76096 0.425929,-0.53739 0.06346,0.29807 -0.240721,0.55995 -0.361556,0.83972 -0.0154,0.0356 -0.004,0.0285 -0.03395,0.0321 -0.0029,-2.5e-4 -0.0058,-5.3e-4 -0.0088,-8e-4 0.02601,-0.0521 0.05221,-0.10419 0.07804,-0.15642 0.108222,-0.21886 0.05516,0.48519 0.08089,0.72798 0.03282,0.30972 0.346924,-0.51736 0.523476,-0.77394 -0.0803,0.31743 -0.428649,0.72061 -0.108324,0.46917 0,0 0.01569,-0.11219 0.01569,-0.11219 v 0 c -0.167383,-0.4197 -0.53059,0.0435 -0.43834,0.41092 0.225115,-0.22261 0.466489,-0.42991 0.675349,-0.66784 0.01476,-0.0168 -0.04558,-0.0695 -0.04762,-0.0473 -0.08532,0.93034 0.0279,0.71972 0.183509,0.22771 0.0029,-0.25804 0.02233,-0.63376 -0.08143,-0.57881 -0.229526,0.12156 -0.677413,0.41768 -0.494551,0.60213 0.378222,0.3815 0.569928,-0.80492 0.560983,-0.48554 -0.005,0.0132 -0.01773,0.0533 -0.01503,0.0395 0.04628,-0.2372 0.04133,-0.46447 0.0031,-0.12453 0.074,-0.24065 0.09614,-0.49524 0.115546,-0.74513 0.05134,-0.27881 0.12202,-0.5683 0.107662,-0.85352 -0.0021,-0.0409 -0.01561,0.0812 -0.014,0.1221 0.0011,0.0261 0.0105,-0.0512 0.01577,-0.0768 0.02252,-0.17959 0.02077,-0.36236 0.07632,-0.53633 0.08962,-0.3387 0.126828,-0.6857 0.160285,-1.03413 0.05759,-0.40669 0.09562,-0.81477 0.104084,-1.22582 0.01,-0.419 -0.03817,-0.83554 -0.01786,-1.2551 -7.94e-4,-0.53693 -0.03019,-1.07465 0.003,-1.61099 0.07664,-0.62634 0.01373,-1.25472 -0.02167,-1.8824 -0.09079,-1.07698 -0.183687,-2.15348 -0.299572,-3.22807 -0.107791,-1.68667 -0.184039,-3.38047 -0.504531,-5.04454 -0.170519,-1.51195 -0.185026,-3.0392 -0.408554,-4.54621 -0.157435,-1.19327 -0.220011,-2.38688 -0.240675,-3.59029 -0.08613,-1.0247 -0.197903,-2.04839 -0.221967,-3.07722 -0.03665,-1.10263 -0.119018,-2.20237 -0.288788,-3.29325 -0.16551,-1.48639 -0.354798,-2.97273 -0.443547,-4.4659 -0.03567,-1.3475 -0.04064,-2.69685 -0.0041,-4.04434 0.04302,-1.28926 0.07735,-2.58161 0.197022,-3.86617 0.138025,-1.39523 0.248542,-2.79291 0.386657,-4.18815 0.09918,-1.28422 0.142124,-2.57227 0.231688,-3.85724 0.03878,-1.03017 0.03356,-2.06418 -0.215226,-3.07207 -0.177897,-1.02847 -0.327085,-2.06141 -0.440272,-3.09909 -0.112823,-0.92757 -0.117173,-1.85637 -0.141882,-2.78925 -0.08788,-1.11197 -0.188577,-2.22403 -0.313434,-3.33237 -0.148135,-1.1243 -0.33987,-2.24118 -0.50062,-3.36364 -0.192146,-1.28667 -0.413089,-2.5734 -0.412023,-3.87888 -0.03267,-0.95386 -0.0042,-1.90323 0.155268,-2.8471 0.114599,-0.88184 0.157763,-1.76825 0.229397,-2.65425 0.0891,-1.12943 0.126849,-2.26259 0.241683,-3.39 0.154173,-1.19437 0.372079,-2.37909 0.532763,-3.5726 0.136535,-1.24141 0.207531,-2.4882 0.355428,-3.72824 0.130161,-0.93163 0.260646,-1.86665 0.440801,-2.7889 0.343974,-0.94363 0.76182,-1.85944 1.084117,-2.81154 0.323553,-0.80638 0.617148,-1.62471 0.88388,-2.45165 0.38843,-0.97261 0.888892,-1.89306 1.369515,-2.82214 0.242313,-0.51067 0.261721,-0.50637 0.425011,-1.00081 0.03509,-0.10624 0.06425,-0.21441 0.09203,-0.3228 0.01037,-0.0405 0.0058,-0.0849 0.0223,-0.12331 0.08965,-0.20794 0.304546,-0.45835 0.424082,-0.61703 0.790359,-0.92718 1.547369,-1.90452 2.488319,-2.68589 0.59875,-0.41593 1.24961,-0.75034 1.89616,-1.0848 0.7046,-0.34621 1.40854,-0.69341 2.10587,-1.05425 0.30169,-0.15485 0.43748,-0.21816 0.72951,-0.39411 0.38391,-0.23133 0.73943,-0.5203 1.18117,-0.63754 0.93404,-0.26746 1.84264,-0.6052 2.7496,-0.95268 0.78715,-0.21867 1.59371,-0.32436 2.41172,-0.31944 1.09164,-0.0357 2.17962,-0.10636 3.2673,-0.20669 0.88759,-0.0374 1.77766,-0.0624 2.6341,0.21924 0.75898,0.25247 1.49727,0.56372 2.24819,0.83779 0.83449,0.46376 1.52308,1.13344 2.00315,1.96237 0.48558,0.94111 0.96372,1.8875 1.43299,2.83628 0.31225,0.82548 0.65036,1.63975 0.98316,2.45689 0.28732,0.83001 0.55683,1.66473 0.79857,2.50928 0.23031,1.10923 0.38831,2.24499 0.40555,3.37811 -0.0318,1.08906 -0.11785,2.17891 0.0459,3.26391 0.1048,1.23449 0.21942,2.46554 0.47198,3.68021 0.15573,1.04472 0.26931,2.10354 0.57595,3.11764 0.43495,1.58101 0.7066,3.19737 0.94444,4.81858 0.19202,1.36164 0.32391,2.72989 0.16219,4.10372 -0.0791,1.42507 -0.0603,2.84915 -0.0948,4.2754 -0.11974,2.3157 -0.36848,4.62359 -0.43067,6.94265 -0.0499,0.90392 -0.0613,1.28747 -0.15393,2.20524 -0.16018,1.58734 -0.44184,3.16048 -0.57119,4.75126 -0.21391,2.25253 -0.37117,4.51203 -0.36198,6.77609 -0.007,0.90833 -0.005,1.83732 -0.0527,2.74478 -0.13265,2.50855 -0.52957,4.99341 -0.65647,7.50246 -0.0308,1.55137 -0.0258,3.10375 -0.0714,4.65477 -0.0366,1.24449 -0.0829,1.89665 -0.15294,3.14509 -0.0336,0.59846 -0.0667,1.19694 -0.10008,1.79541 -0.0873,1.48248 -0.13433,2.9778 -0.32264,4.45234 -0.0965,0.75581 -0.39862,2.41449 -0.51936,3.1149 -0.0999,0.57966 -0.19743,1.15974 -0.29614,1.73961 -0.0957,0.62588 -0.20068,1.25041 -0.28697,1.87765 -0.28561,2.07606 -0.10562,1.09615 -0.34825,3.02263 -0.17708,1.40598 -0.44051,2.79924 -0.60907,4.20642 -0.0582,0.5438 -0.12569,1.08669 -0.1746,1.63141 -0.19467,2.16854 -0.22965,4.3492 -0.43489,6.51704 -0.16024,1.44335 -0.34486,2.88604 -0.6545,4.30625 -0.11478,0.4369 -0.24358,0.86822 -0.37794,1.29878 0.34668,-0.40062 -0.20372,0.20354 0.12476,-0.1141 0.17385,-0.0856 -0.23801,0.11928 0.0407,-0.01 0.15969,-0.0239 -0.34433,0.0499 -0.35671,0.0587 -0.29788,0.0553 -0.59452,0.11685 -0.89216,0.17289 -0.41067,0.0993 -0.8269,0.17242 -1.23428,0.28477 -0.55356,0.15089 -1.11031,0.30523 -1.68794,0.32305 -0.77989,0.0645 -1.54489,0.22947 -2.32331,0.30912 -0.81395,0.0717 -1.62974,0.14854 -2.44759,0.10267 -0.76011,0.0129 -1.51648,0.0227 -2.2716,-0.0874 -0.96256,-0.087 -1.92412,-0.0951 -2.88975,-0.11201 -0.94329,-0.0693 -1.89243,-0.10414 -2.82489,-0.27302 -0.91619,-0.17071 -1.83628,-0.32826 -2.72428,-0.61969 -0.72574,-0.21217 -1.45644,-0.39962 -2.18189,-0.6122 -0.87126,-0.27933 -1.74798,-0.5332 -2.640014,-0.73543 -0.22334,-0.0867 -0.346094,-0.28564 -0.575501,-0.3767 -0.570272,-0.22638 -1.497282,0.01 -2.071812,-0.01 0,0 0.07294,0.73271 0.07294,0.73271 z" />
    <path
       style="fill:#999999;stroke-width:1.85031"
       d="m 423.18544,802.3617 c -0.92423,-0.1205 -6.09152,-0.46432 -11.48286,-0.76405 -5.39134,-0.29972 -11.69291,-0.94044 -14.00349,-1.4238 -6.93652,-1.4511 -24.21819,-6.4163 -26.43753,-7.59577 -1.13931,-0.60548 -2.84371,-1.10088 -3.78756,-1.10088 -1.6977,0 -1.71254,-0.0255 -1.38347,-2.38059 0.18294,-1.30933 0.58536,-3.76694 0.89425,-5.46136 1.11733,-6.1291 1.22245,-21.18427 0.2273,-32.55402 -1.22532,-13.99962 -1.82508,-20.31439 -2.52074,-26.5407 -1.05664,-9.45725 -2.23375,-23.51094 -2.86188,-34.16852 -0.34499,-5.85346 -1.17463,-15.17978 -1.84366,-20.72516 -1.53992,-12.76404 -1.6364,-36.3362 -0.20748,-50.69263 0.50595,-5.08327 1.20092,-13.77944 1.54437,-19.32482 0.59621,-9.62611 0.5604,-10.52623 -0.79106,-19.88495 -0.77855,-5.39134 -1.68364,-14.14164 -2.01133,-19.44511 -0.32768,-5.30347 -1.47518,-15.76408 -2.55,-23.24579 -2.02956,-14.12759 -2.33518,-20.04926 -1.42554,-27.62131 0.29511,-2.45654 0.81316,-8.49943 1.15123,-13.42866 0.33807,-4.92922 1.09243,-12.23905 1.67635,-16.24404 0.58392,-4.005 1.34222,-10.18054 1.6851,-13.72342 1.2872,-13.30017 2.05495,-16.62127 6.70224,-28.99248 2.4255,-6.45673 5.6889,-14.27035 7.25199,-17.36358 1.56309,-3.09324 2.84198,-6.01036 2.84198,-6.48249 0,-1.09902 8.17588,-10.84476 10.73606,-12.7975 3.9804,-3.036 22.082,-12.03932 28.92836,-14.38831 6.57261,-2.25506 7.36123,-2.3936 16.80418,-2.95221 13.21799,-0.78192 16.63273,-0.52197 22.67233,1.72594 8.84459,3.29192 12.84806,8.56037 19.60287,25.79681 4.47696,11.42397 6.54185,21.71623 5.75397,28.68013 -0.64306,5.68401 1.84151,24.92586 4.79518,37.13627 0.89428,3.69692 2.14495,10.25055 2.77928,14.56363 1.30078,8.84459 1.23469,17.03593 -0.36835,45.65137 -0.80895,14.44041 -1.32262,20.29619 -3.36581,38.36956 -0.45277,4.005 -1.06022,14.8437 -1.34989,24.086 -0.28967,9.24231 -0.91795,20.33307 -1.39618,24.64614 -0.47823,4.31308 -1.1161,15.27781 -1.4175,24.36608 -0.99649,30.04794 -1.99372,42.9348 -4.45615,57.58509 -1.22697,7.2999 -2.50194,15.79319 -2.83328,18.87396 -0.33132,3.08076 -1.08645,8.87821 -1.67806,12.88321 -1.63996,11.10211 -2.11745,15.84283 -2.79267,27.7269 -0.70457,12.40085 -2.39841,25.6998 -3.80285,29.85762 l -0.94965,2.81143 -5.88147,1.33922 c -3.2348,0.73656 -8.52812,1.71034 -11.76293,2.16393 -5.89053,0.82599 -19.52813,1.4505 -22.68565,1.03886 z"
       id="path999"
       transform="scale(0.26458333)" />
    <path
       style="fill:#000000;stroke-width:0.874001"
       id="path1001"
       d="m 104.83661,130.82645 c -0.0637,1.06136 -0.0711,2.14783 -0.33648,3.18574 -0.24027,0.93979 -0.0648,0.01 -0.27682,0.79335 -0.0405,0.14977 -0.0626,0.30395 -0.0938,0.45592 -0.18625,1.25889 -0.3588,2.51918 -0.49717,3.78425 -0.17147,1.41131 -0.18003,2.83381 -0.0955,4.25095 0.098,1.31046 -0.0899,2.61071 -0.2869,3.90219 -0.24564,1.69181 -0.11539,3.40324 -0.0452,5.10248 0.0619,1.04622 0.0587,2.10079 0.18009,3.14322 0.0858,0.73657 0.23794,1.46425 0.32838,2.20026 0.0517,0.42114 0.0848,0.84436 0.12719,1.26655 0.0126,0.44577 0.0343,0.89139 0.0377,1.33733 0.003,0.39002 -0.0155,0.77993 -0.0186,1.16995 -0.011,1.38478 0.008,2.76912 -0.008,4.15396 2.1e-4,2.08046 -0.23197,4.14634 -0.48847,6.20758 -0.19386,1.35084 -0.30133,2.70994 -0.50297,4.0596 -0.1671,1.21364 -0.54961,2.3815 -0.71397,3.59481 -0.1362,1.20471 -0.23869,2.41151 -0.23825,3.62432 -0.019,1.11116 -0.1743,2.20665 -0.41653,3.28938 -0.11981,0.42228 -0.0614,0.22837 -0.17261,0.58256 0,0 0.0507,0.0252 0.0507,0.0252 v 0 c 0.22618,-0.32631 0.12773,-0.13906 0.27228,-0.57327 0.25691,-1.09202 0.404,-2.20106 0.42533,-3.32381 0.002,-1.20567 0.10371,-2.40533 0.23781,-3.60311 0.16103,-1.21293 0.54461,-2.37988 0.71072,-3.59277 0.20351,-1.35077 0.3108,-2.7111 0.50156,-4.06369 0.25887,-2.06679 0.48879,-4.13888 0.48673,-6.2251 0.0148,-1.38478 -0.005,-2.76888 0.002,-4.15361 0.002,-0.39206 0.0185,-0.78407 0.0146,-1.17612 -0.004,-0.44933 -0.0263,-0.89833 -0.0394,-1.3475 -0.0433,-0.42417 -0.0774,-0.84938 -0.12988,-1.27252 -0.0909,-0.73284 -0.24248,-1.45746 -0.32831,-2.19091 -0.12179,-1.04074 -0.12011,-2.09351 -0.17979,-3.13819 -0.073,-1.69083 -0.20494,-3.3935 0.0341,-5.07771 0.18737,-1.30081 0.3757,-2.60992 0.2666,-3.92787 -0.0941,-1.41115 -0.0888,-2.82788 0.0824,-4.23388 0.13807,-1.26235 0.30953,-2.51983 0.49202,-3.77652 0.0295,-0.14803 0.0494,-0.29831 0.0885,-0.4441 0.28919,-1.07853 -0.0636,0.53815 0.27932,-0.80606 0.2663,-1.04379 0.27715,-2.13523 0.33817,-3.20288 0,0 -0.0879,0 -0.0879,0 z" />
    <path
       style="fill:#000000;stroke-width:0.874001"
       id="path1003"
       d="m 108.632,201.45327 c -0.1942,-1.35514 -0.35326,-2.73869 -0.20827,-4.10859 0.13232,-1.25027 0.42319,-2.46447 0.74747,-3.67525 0.63203,-2.02514 0.90424,-4.13883 1.2597,-6.2247 0.21869,-1.19603 0.21222,-2.41395 0.29386,-3.62235 0.0649,-0.96132 0.12475,-1.48315 0.21937,-2.42105 0.0446,-0.29422 0.0834,-0.58938 0.13379,-0.88265 0.14596,-0.8488 0.42828,-1.63715 0.59039,-2.47156 0.0464,-0.23894 0.0743,-0.48113 0.11139,-0.72169 0.11251,-1.19375 0.22679,-2.39577 0.19145,-3.59669 -0.0202,-0.68579 -0.0578,-0.8447 -0.1457,-1.5235 -0.0954,-1.17931 -0.42245,-2.35463 -0.37219,-3.54517 0.0108,-0.25654 0.0847,-0.54227 0.13722,-0.78858 0.10984,-0.76913 0.44217,-1.53051 0.42759,-2.31721 -0.004,-0.23173 -0.0808,-0.54393 -0.13318,-0.78147 0,0 -0.0557,0.0101 -0.0557,0.0101 v 0 c 0.14374,1.02901 -0.25434,2.04667 -0.42785,3.04867 -0.0565,0.26995 -0.12929,0.55268 -0.1404,0.83108 -0.0478,1.19793 0.27785,2.38084 0.37767,3.5671 0.0888,0.66996 0.12582,0.8218 0.14801,1.49902 0.0391,1.19189 -0.0652,2.38579 -0.17388,3.57111 -0.0359,0.23584 -0.0623,0.47331 -0.10759,0.70753 -0.0581,0.30061 -0.22079,0.86596 -0.29811,1.16128 -0.14303,0.5463 -0.19282,0.73847 -0.29324,1.32524 -0.0506,0.29599 -0.0892,0.59391 -0.13384,0.89087 -0.0994,0.98549 -0.1506,1.41344 -0.21709,2.42987 -0.0786,1.20227 -0.0641,2.41451 -0.28404,3.60417 -0.3546,2.08088 -0.62149,4.19142 -1.2613,6.20924 -0.33038,1.22134 -0.62442,2.44679 -0.7557,3.70923 -0.14363,1.3811 0.0253,2.77531 0.22478,4.14033 0,0 0.14543,-0.0243 0.14543,-0.0243 z" />
    <path
       style="fill:#000000;stroke-width:0.874001"
       id="path1007"
       d="m 111.29428,114.2048 c -0.26234,1.24982 -0.47848,2.50788 -0.6509,3.77304 -0.007,0.18485 -0.0223,0.36955 -0.0222,0.55456 1e-5,0.49818 0.0338,0.72192 0.0652,1.21142 0.0513,0.80068 0.0722,1.60168 0.0937,2.40362 -0.0519,0.97071 0.12442,1.94132 0.075,2.91117 -0.0197,0.38738 -0.0458,0.45829 -0.11576,0.86542 -0.10423,0.5311 -0.21357,1.06116 -0.32423,1.59095 0,0 0.0548,0.0144 0.0548,0.0144 v 0 c 0.16483,-0.51968 0.31194,-1.04413 0.41477,-1.5803 0.0727,-0.42104 0.0987,-0.48755 0.11886,-0.88773 0.0488,-0.97224 -0.12327,-1.94493 -0.075,-2.91793 -0.0288,-1.03817 -0.0197,-0.96012 -0.0641,-1.83986 -0.0297,-0.58787 -0.0966,-1.17637 -0.0978,-1.76539 -2.6e-4,-0.18035 0.014,-0.36044 0.021,-0.54066 0.17199,-1.26233 0.38124,-2.51861 0.64372,-3.76562 0,0 -0.137,-0.0271 -0.137,-0.0271 z" />
    <path
       style="fill:#000000;stroke-width:0.874001"
       id="path1009"
       d="m 112.99922,154.37589 c 0.0441,-0.4264 0.0862,-0.85303 0.13239,-1.27922 0.13914,-1.28294 0.15772,-1.46514 0.34882,-2.73287 0.17327,-1.14946 0.36737,-2.26881 0.46583,-3.42683 0.004,-0.25734 0.007,-0.5147 0.0109,-0.77203 0.004,-0.24229 -0.007,-0.48538 0.0133,-0.72683 0.0816,-0.96321 0.3977,-1.8764 0.68031,-2.79288 0.35635,-1.30951 0.50069,-2.66528 0.62657,-4.013 0.0782,-0.76299 0.14759,-1.52327 0.18773,-2.28916 0,0 -0.0563,-0.006 -0.0563,-0.006 v 0 c -0.12502,0.75648 -0.24557,1.51366 -0.29865,2.27953 -0.12678,1.33595 -0.26934,2.68008 -0.62455,3.97794 -0.28635,0.93369 -0.60482,1.85947 -0.68597,2.84067 -0.02,0.24178 -0.009,0.48512 -0.0123,0.7277 -0.004,0.25345 -0.006,0.50692 -0.008,0.76038 -0.0925,1.15922 -0.2818,2.26825 -0.4493,3.4195 -0.18232,1.25311 -0.20596,1.4733 -0.33496,2.74034 -0.0435,0.42721 -0.0819,0.85493 -0.12288,1.28239 0,0 0.1275,0.0105 0.1275,0.0105 z" />
    <path
       style="fill:#000000;stroke-width:0.874001"
       id="path1011"
       d="m 120.0452,171.83316 c 0.32932,1.23483 0.58976,2.50229 0.46058,3.78687 -0.0885,0.88005 -0.33403,1.7515 -0.53255,2.61138 -0.15312,0.71218 -0.18618,1.44162 -0.31741,2.15719 -0.0681,0.37139 -0.16279,0.75525 -0.24832,1.12192 -0.43239,1.85998 -0.4572,3.78112 -0.45392,5.68118 -0.0279,1.73813 -0.14869,3.47256 -0.21244,5.20948 0,0 0.0565,0.004 0.0565,0.004 v 0 c 0.17063,-1.73381 0.31877,-3.47107 0.37175,-5.21311 0.007,-1.88291 0.0308,-3.78646 0.45776,-5.62996 0.0915,-0.38968 0.18057,-0.74524 0.25241,-1.13778 0.13005,-0.71056 0.16279,-1.43466 0.31252,-2.14221 0.20188,-0.87452 0.44853,-1.76022 0.53528,-2.65574 0.12689,-1.30978 -0.13723,-2.60054 -0.47847,-3.85819 0,0 -0.2037,0.0651 -0.2037,0.0651 z" />
    <path
       style="fill:#000000;stroke-width:0.874001"
       id="path1013"
       d="m 120.71133,163.11153 c -0.15493,-0.99804 -0.43269,-1.98713 -0.49503,-2.99896 -0.0222,-0.36069 -7.9e-4,-0.51731 0.0188,-0.90522 0.0467,-0.85421 0.15347,-1.70516 0.15546,-2.56162 0.001,-0.51542 -0.0222,-0.66424 -0.0649,-1.17579 -0.15916,-1.29577 -0.30622,-2.58607 -0.33063,-3.89245 0.0213,-1.09669 -0.1566,-2.18334 -0.15706,-3.27919 -1.7e-4,-0.40018 0.0235,-0.80003 0.0352,-1.20004 0.10166,-0.96239 0.0446,-0.76185 0.23885,-1.56721 0.0443,-0.18341 0.2052,-0.48737 0.0436,-0.66337 0,0 -0.0398,0.0403 -0.0398,0.0403 v 0 c 0.0713,0.0442 0.0144,0.002 -0.0481,0.19436 -0.0423,0.13015 -0.0895,0.25898 -0.12349,0.39154 -0.18773,0.73215 -0.15403,0.75441 -0.24285,1.59931 -0.012,0.40377 -0.0364,0.80738 -0.0361,1.21134 7.9e-4,1.0949 0.18199,2.18041 0.156,3.27622 0.0247,1.3102 0.17196,2.60424 0.33024,3.90393 0.0425,0.49658 0.067,0.65572 0.0663,1.15612 -0.001,0.85541 -0.10743,1.70561 -0.14853,2.55911 -0.0157,0.40034 -0.036,0.55687 -0.007,0.92848 0.078,1.01478 0.35824,2.00622 0.5238,3.00696 0,0 0.1257,-0.0238 0.1257,-0.0238 z" />
    <path
       style="fill:#000000;stroke-width:0.874001"
       id="path1015"
       d="m 119.6042,111.22602 c 0.56869,0.55674 1.30671,1.12419 1.54806,1.92992 0.0251,0.0839 0.008,0.48282 0.014,0.57424 0.006,0.0865 0.024,0.17166 0.0359,0.25748 0.27327,0.70288 0.65425,1.35635 0.91697,2.06446 0.12823,0.55755 0.0844,0.28832 0.14052,0.8062 0,0 0.0371,-0.002 0.0371,-0.002 v 0 c 0.01,-0.53987 0.03,-0.25871 -0.0759,-0.84222 -0.25928,-0.70155 -0.63145,-1.35018 -0.91229,-2.0421 -0.0119,-0.0807 -0.0303,-0.16078 -0.0358,-0.24221 -0.0105,-0.15305 0.019,-0.47657 -0.0248,-0.61874 -0.25239,-0.81853 -0.99749,-1.39779 -1.57908,-1.96505 0,0 -0.0646,0.0796 -0.0646,0.0796 z" />
    <path
       style="fill:#000000;stroke-width:0.874001"
       id="path1017"
       d="m 113.32223,203.99065 c 0.48192,-0.67655 0.88443,-1.38884 1.08528,-2.19874 0.0739,-0.29807 0.084,-0.6005 0.1722,-0.8943 0.27429,-0.62832 0.32436,-1.32581 0.36239,-2.00208 -0.0197,-0.43759 0.0421,-0.86811 0.007,-1.30388 -0.0212,-0.1928 -0.0148,-0.38508 -0.0385,-0.57724 0,0 -0.0555,-0.0112 -0.0555,-0.0112 v 0 c -0.10069,0.19642 -0.10316,0.38104 -0.0734,0.60231 0.0366,0.42773 -0.0302,0.851 -0.006,1.28066 -0.037,0.66388 -0.0831,1.34787 -0.35016,1.96564 -0.0863,0.29475 -0.0997,0.59507 -0.17198,0.89357 -0.19244,0.79467 -0.5829,1.49465 -1.05722,2.1565 0,0 0.12622,0.0887 0.12622,0.0887 z" />
    <path
       style="fill:#000000;stroke-width:0.874001"
       id="path1019"
       d="m 101.04391,194.21237 c 0.0308,0.32908 0.10026,0.98447 0.11298,1.36464 0.003,0.0834 -1.7e-4,0.16705 -0.008,0.2501 -10e-4,0.0137 -0.0126,0.0244 -0.0189,0.0366 -0.004,0.0374 -0.0135,0.0746 -0.0118,0.11209 0.003,0.0753 0.0182,0.14955 0.0273,0.22432 0.0909,0.60934 0.25554,1.20089 0.4224,1.79294 0.14891,0.58473 0.16535,1.01247 0.10146,1.60028 -0.0415,0.43446 -0.0374,0.87113 -0.0481,1.30692 0,0 0.0562,0.007 0.0562,0.007 v 0 c 0.094,-0.42842 0.10809,-0.86209 0.13369,-1.29913 0.0582,-0.59461 0.03,-1.06273 -0.12114,-1.64957 -0.16705,-0.58561 -0.32724,-1.17205 -0.41965,-1.77479 -0.0448,-0.31243 0.0199,-0.29951 0.008,-0.6147 -0.0156,-0.41936 -0.0805,-0.97947 -0.11951,-1.37133 0,0 -0.11527,0.0147 -0.11527,0.0147 z" />
  </g>
</svg>
