<?xml version="1.0" encoding="UTF-8" standalone="no"?>
<!-- Created with Inkscape (http://www.inkscape.org/) -->

<svg
   width="210mm"
   height="297mm"
   viewBox="0 0 210 297"
   version="1.1"
   id="svg9111"
   inkscape:version="1.2 (dc2aedaf03, 2022-05-15)"
   sodipodi:docname="caule-sinuoso.svg"
   xmlns:inkscape="http://www.inkscape.org/namespaces/inkscape"
   xmlns:sodipodi="http://sodipodi.sourceforge.net/DTD/sodipodi-0.dtd"
   xmlns="http://www.w3.org/2000/svg"
   xmlns:svg="http://www.w3.org/2000/svg">
  <sodipodi:namedview
     id="namedview9113"
     pagecolor="#505050"
     bordercolor="#eeeeee"
     borderopacity="1"
     inkscape:showpageshadow="0"
     inkscape:pageopacity="0"
     inkscape:pagecheckerboard="0"
     inkscape:deskcolor="#505050"
     inkscape:document-units="mm"
     showgrid="false"
     inkscape:zoom="1.2623761"
     inkscape:cx="506.98046"
     inkscape:cy="621.84322"
     inkscape:window-width="2560"
     inkscape:window-height="1369"
     inkscape:window-x="2552"
     inkscape:window-y="-8"
     inkscape:window-maximized="1"
     inkscape:current-layer="layer1" />
  <defs
     id="defs9108" />
  <g
     inkscape:label="Camada 1"
     inkscape:groupmode="layer"
     id="layer1">
    <path
       id="path9254"
       style="fill:#000000;stroke-width:0.874001"
       d="m 135.39897,49.649683 c -0.44263,0.186276 -0.89717,0.346131 -1.32757,0.559139 -1.18893,0.58839 -2.33795,1.350234 -3.41736,2.108915 -2.72392,1.914555 -5.30079,4.030115 -7.92458,6.076115 -1.65373,1.399834 -2.44624,2.04072 -4.02766,3.49436 -2.35653,2.166144 -4.5906,4.463003 -6.79287,6.784082 -1.29109,1.414459 -2.172,2.344655 -3.40444,3.849894 -2.31401,2.826231 -4.35429,5.872635 -6.36964,8.913668 -0.4434,0.774704 -0.92196,1.530591 -1.33015,2.324406 -1.676128,3.25959 -2.865652,6.931515 -3.351734,10.571448 -0.08644,0.647297 -0.09169,1.302965 -0.137459,1.954402 0.05852,0.78414 0.06479,1.57385 0.1757,2.352312 0.629567,4.418636 2.476271,8.553676 4.033343,12.694836 0.88183,2.04001 1.15793,2.77822 2.20555,4.78058 1.93499,3.69847 4.20922,7.21901 6.49521,10.70529 1.40547,1.9807 2.23654,3.22953 3.78685,5.1046 2.48255,3.00262 5.33299,5.65924 8.17986,8.3075 4.25595,3.9055 8.69032,7.62222 12.70466,11.7843 1.41956,1.47499 2.09499,2.14337 3.47162,3.71863 2.44664,2.79967 4.62417,5.81463 6.78201,8.83822 2.93608,4.19571 5.93633,8.43161 7.48947,13.3718 0.20416,0.76661 0.44912,1.52376 0.61236,2.30012 0.85182,4.05114 0.57367,8.2116 0.0315,12.27987 -0.77914,5.14349 -1.57125,9.99353 -4.05557,14.66008 -2.726,5.24362 -5.59495,10.46826 -9.42165,15.00529 -4.37419,5.03137 -8.92221,9.90601 -13.41623,14.82958 -2.79205,3.1615 -5.60347,6.30283 -8.44445,9.42062 -0.46979,0.51556 -4.08772,4.44367 -5.24154,5.76915 -0.0688,0.14738 -0.13815,0.29462 -0.20722,0.44184 -0.10128,0.20678 -0.19597,0.41643 -0.29921,0.62218 0.16307,-0.20169 0.32246,-0.40648 0.49041,-0.60409 0.91322,-1.07483 4.97341,-5.46738 5.48184,-6.02393 2.84611,-3.11542 5.66124,-6.25645 8.45995,-9.41441 4.50191,-4.91778 9.05559,-9.7876 13.43484,-14.81615 3.84873,-4.55444 6.73408,-9.80169 9.47487,-15.06833 2.505,-4.70049 3.30504,-9.58726 4.09019,-14.76912 0.54684,-4.10299 0.82529,-8.2994 -0.0315,-12.38529 -0.16544,-0.78882 -0.41337,-1.5578 -0.62012,-2.33681 -1.56118,-4.98127 -4.58059,-9.25404 -7.53856,-13.48445 -2.16373,-3.0324 -4.34849,-6.05479 -6.80113,-8.86303 -1.37772,-1.57733 -2.0657,-2.25918 -3.48713,-3.7362 -4.01646,-4.17029 -8.45507,-7.89302 -12.71499,-11.80497 -2.83683,-2.64021 -5.67721,-5.28889 -8.15144,-8.28166 -1.54092,-1.86395 -2.36723,-3.1045 -3.76514,-5.07359 -2.27988,-3.47488 -4.54691,-6.98476 -6.47557,-10.6717 -1.03793,-1.98414 -1.31588,-2.72649 -2.18954,-4.74855 -1.54569,-4.11856 -3.388296,-8.22926 -4.012153,-12.62352 -0.108395,-0.763478 -0.112348,-1.538251 -0.168466,-2.307353 0.04579,-0.634107 0.0521,-1.272206 0.13746,-1.902209 0.487404,-3.597319 1.661176,-7.224223 3.320209,-10.445874 0.40399,-0.784473 0.87752,-1.530884 1.3162,-2.296501 2.007,-3.026394 4.03761,-6.058857 6.34122,-8.87181 1.23697,-1.51057 2.091,-2.410337 3.38584,-3.828706 2.19573,-2.315332 4.42599,-4.603435 6.77788,-6.761862 1.56412,-1.435529 2.37934,-2.096085 4.01422,-3.478857 3.21341,-2.485076 6.33994,-5.10656 9.74153,-7.338053 0.81046,-0.531727 1.86612,-1.137942 2.71611,-1.635559 z m -30.4953,221.268667 c -0.0113,6e-4 -0.006,-10e-6 -0.0165,5.1e-4 0.005,0.006 0.0113,0.0119 0.0165,0.0181 8e-5,-0.006 -7e-5,-0.0125 0,-0.0186 z m -0.01,0.67179 c -0.0577,0.004 -0.11529,0.009 -0.1726,0.0139 -0.028,0.001 -0.0562,0.002 -0.0842,0.004 -3.9e-4,0.0381 -6.7e-4,0.0739 -0.002,0.11679 0.008,-10e-4 0.0164,-0.002 0.0248,-0.002 0.007,-2.1e-4 0.0147,2e-5 0.0222,5.2e-4 0.0225,0.003 0.0446,0.008 0.0667,0.0129 0.0475,-0.0207 0.0955,-0.0412 0.14366,-0.0605 5e-4,-0.0312 8.5e-4,-0.0576 0.001,-0.0853 z" />
    <path
       id="path9266"
       style="fill:#000000;stroke-width:0.874001"
       d="m 113.7667,50.701298 c -1.49483,1.241586 -2.96382,2.506167 -4.32945,3.885551 -1.25379,1.184537 -2.47246,2.403886 -3.67988,3.635437 -1.56645,1.613535 -3.12466,3.237544 -4.60385,4.931999 -1.501865,1.703464 -2.893817,3.496802 -4.270545,5.301485 -1.281816,1.693354 -2.417537,3.489781 -3.596679,5.254459 -0.982114,1.405289 -1.871816,2.871138 -2.668571,4.38888 -0.872226,1.641663 -1.585778,3.349516 -2.25361,5.081343 -1.138499,2.748007 -1.812072,5.494845 -2.268078,8.416024 -0.294304,2.111311 -0.549879,4.250742 -0.437183,6.386691 0.04339,0.822336 0.149552,1.369552 0.275436,2.180743 0.449918,2.88459 1.225565,5.68849 2.136303,8.45633 0.483526,1.36199 1.047838,2.69296 1.567863,4.0411 0.654391,1.73553 1.342812,3.45672 2.07946,5.15886 1.048691,2.41616 2.300194,4.73841 3.606498,7.02334 1.447675,2.41348 2.951473,4.79298 4.486548,7.1515 1.448428,2.23885 3.014988,4.399 4.661728,6.49521 1.41961,1.83054 2.98984,3.52273 4.64055,5.14233 1.94269,1.93552 3.90904,3.84806 5.95571,5.67407 2.09092,1.86301 4.18071,3.72758 6.26783,5.59501 1.84,1.63695 3.62368,3.33476 5.34644,5.09426 1.35389,1.36164 2.64191,2.78146 3.89382,4.23643 1.42363,1.62683 2.67548,3.389 3.94033,5.13871 0.96864,1.32969 1.91904,2.67235 2.85667,4.02404 0.78168,1.1412 1.56314,2.28413 2.26912,3.47421 0.72391,1.19692 1.3427,2.44838 1.88929,3.73465 0.47494,1.10632 0.6938,2.2853 0.80667,3.47628 0.0998,1.26294 0.0763,2.52664 0.0176,3.79046 -0.0914,1.5927 -0.2937,3.17744 -0.5979,4.74287 -0.16054,1.04076 -0.33902,2.07787 -0.53227,3.11298 -0.32689,1.55045 -0.70165,3.10334 -1.24953,4.59197 -0.55127,1.19583 -1.19228,2.34921 -1.80558,3.514 -0.85164,1.63967 -1.7384,3.25922 -2.69286,4.84105 -0.98303,1.67784 -2.05832,3.29614 -3.21944,4.855 -1.12259,1.53334 -2.44653,2.89983 -3.71347,4.31136 -1.68313,1.9035 -3.38815,3.78743 -5.10356,5.66167 -1.11083,1.2115 -2.2194,2.42555 -3.329,3.63802 -1.84301,1.98278 -3.63182,4.01351 -5.41931,6.04615 -1.13183,1.28588 -2.2845,2.55415 -3.42976,3.82819 -1.57567,1.75973 -3.17965,3.49355 -4.7718,5.23844 -1.23038,1.34401 -2.43636,2.70853 -3.59461,4.11499 -1.54523,1.92664 -3.00455,3.93437 -4.195098,6.10144 -0.878713,1.61892 -1.721947,3.25515 -2.4722,4.93768 -0.850418,1.90395 -1.456106,3.89836 -1.996261,5.90817 -0.574479,2.04204 -0.715067,4.14453 -0.781864,6.25181 0.02097,0.65834 -0.0019,1.3231 -0.0088,1.98696 0.09955,0.01 0.198763,0.0216 0.297656,0.0372 0.129185,0.0214 0.257796,0.0468 0.383439,0.0842 0.09679,0.0297 0.192751,0.0616 0.285771,0.1018 0.01071,0.005 0.02076,0.01 0.03049,0.0145 0.0012,-0.73207 0.03563,-1.46651 0.01085,-2.19263 0.06393,-2.03042 0.193928,-4.05604 0.748275,-6.02392 0.525659,-1.95953 1.115132,-3.90402 1.94355,-5.76037 0.738555,-1.65764 1.570956,-3.26879 2.436027,-4.86379 1.158019,-2.11374 2.586409,-4.06747 4.090189,-5.94692 1.14722,-1.39374 2.34289,-2.74447 3.56154,-4.07624 1.59381,-1.74671 3.19929,-3.48289 4.77645,-5.24464 1.14769,-1.27674 2.30263,-2.54731 3.437,-3.83594 1.78314,-2.02769 3.56781,-4.05377 5.40639,-6.03168 1.10958,-1.21247 2.21766,-2.42654 3.32848,-3.63802 1.71758,-1.87665 3.42501,-3.76261 5.11028,-5.66838 1.2873,-1.43426 2.63146,-2.82407 3.77135,-4.38268 1.17958,-1.58543 2.27461,-3.22911 3.2737,-4.9351 0.96447,-1.59847 1.86068,-3.23532 2.72128,-4.89221 0.63395,-1.20398 1.2997,-2.39478 1.85984,-3.63544 0.56258,-1.54238 0.95908,-3.14661 1.29346,-4.75268 0.19274,-1.03283 0.37216,-2.06726 0.53123,-3.10575 0.31347,-1.61319 0.52106,-3.24631 0.61495,-4.88756 0.0597,-1.31077 0.0845,-2.62185 -0.0207,-3.93154 -0.12405,-1.29296 -0.3674,-2.57199 -0.88263,-3.7729 -0.56557,-1.32642 -1.20182,-2.6188 -1.94924,-3.85351 -0.71849,-1.21011 -1.51173,-2.3733 -2.30735,-3.53363 -0.94135,-1.357 -1.8956,-2.70513 -2.86804,-4.04007 -1.28139,-1.77257 -2.55043,-3.55743 -3.99252,-5.20536 -1.26608,-1.47106 -2.5683,-2.90654 -3.93723,-4.28346 -1.73846,-1.77506 -3.53819,-3.48807 -5.3945,-5.13974 -2.08749,-1.86776 -4.17743,-3.73271 -6.26887,-5.59604 -2.03503,-1.81532 -3.98928,-3.71717 -5.92109,-5.64152 -1.62006,-1.58942 -3.16153,-3.24913 -4.55424,-5.0462 -1.62881,-2.07273 -3.17759,-4.20956 -4.61006,-6.42338 -1.524612,-2.34258 -3.018091,-4.70539 -4.456572,-7.10189 -1.288383,-2.25257 -2.522537,-4.54265 -3.556889,-6.92465 -0.731461,-1.68961 -1.414784,-3.3982 -2.064473,-5.12113 -0.514054,-1.33253 -1.070948,-2.64857 -1.55081,-3.99407 -0.894318,-2.71611 -1.65641,-5.46693 -2.098063,-8.29769 -0.116168,-0.741398 -0.222497,-1.295697 -0.26355,-2.045867 -0.113712,-2.077886 0.140385,-4.159079 0.42478,-6.213057 0.444477,-2.85128 1.099634,-5.528648 2.213302,-8.210869 0.653364,-1.696238 1.351871,-3.368716 2.206067,-4.97644 0.779579,-1.486937 1.652837,-2.921169 2.614827,-4.297412 1.167561,-1.747354 2.291561,-3.526539 3.55999,-5.203817 1.363252,-1.787297 2.741871,-3.563393 4.229201,-5.250326 1.4663,-1.680228 3.01193,-3.28959 4.56458,-4.889624 1.20674,-1.230928 2.4251,-2.449549 3.67781,-3.633886 1.33998,-1.364388 2.79925,-2.597145 4.26589,-3.82664 z M 93.840267,272.21543 v 5.1e-4 c 0.01346,0.003 0.02685,0.006 0.04031,0.009 -0.0014,-0.003 -0.0028,-0.006 -0.0041,-0.009 -0.01205,-2.8e-4 -0.02408,-1.3e-4 -0.03617,-5.1e-4 z m 0.521415,0.0563 c -1.36e-4,-10e-4 -3.96e-4,0.001 -5.17e-4,0.002 3.2e-4,8.7e-4 0.001,0.002 0.001,0.003 -2.24e-4,-0.001 -2.29e-4,-0.003 -5.17e-4,-0.005 z m 0.09974,0.41083 c 0.0025,0.008 0.0053,0.0158 0.0078,0.0238 -4.98e-4,-0.008 -0.0016,-0.0151 -0.0021,-0.0227 -0.0019,-4.2e-4 -0.0038,-10e-4 -0.0057,-0.001 z m -0.569991,1.62161 c -9.7e-4,0.002 -0.0021,0.003 -0.0031,0.004 0.0027,0.007 0.0056,0.0134 0.0083,0.0202 -0.0017,-0.008 -0.0035,-0.0162 -0.0052,-0.0243 z" />
    <path
       style="fill:#000000;stroke-width:0.874001"
       id="path9268"
       d="m 113.80286,51.514657 c 0.26174,0.04409 0.52387,0.09878 0.78979,0.110967 0.11478,0.0053 0.20258,0.0026 0.31771,0.0013 0.24313,-0.0072 0.48674,0.0044 0.72983,-0.0021 0.18751,-0.0051 0.23178,-0.01281 0.41145,-0.03134 0.41513,-0.06509 0.82996,-0.131099 1.24361,-0.205402 0.49619,-0.07515 0.98839,-0.170984 1.48108,-0.265721 0.48262,-0.08201 0.97222,-0.113974 1.45923,-0.161028 0.38414,-0.02923 0.76977,-0.0258 1.15396,-0.05562 0.19263,-0.01495 0.47301,-0.04755 0.66379,-0.06863 0.59137,-0.06761 1.18686,-0.08426 1.78107,-0.110304 0.58845,-0.02434 1.17653,0.01714 1.76463,0.03174 0.60231,0.0061 1.20453,0.0168 1.80688,0.01596 0.528,-0.0013 1.056,-0.01733 1.58287,-0.05188 0.54993,-0.04742 1.09043,-0.165954 1.61689,-0.328824 0.39884,-0.152691 0.81133,-0.259101 1.23001,-0.339484 0.18547,-0.04258 0.36798,-0.0963 0.55358,-0.138525 0.14669,-0.04139 0.29583,-0.0731 0.44327,-0.111588 0.18245,-0.05401 0.37233,-0.07915 0.56088,-0.101291 0.14607,-0.0084 0.29275,0.0078 0.43908,0.01206 0.14197,0.01013 0.28037,-0.02492 0.42083,-0.03341 0.13192,-0.02 0.26477,-0.01241 0.39744,-0.01042 0.1539,0.0021 0.30741,-0.0097 0.46119,-0.01273 0.0972,0.0037 0.19271,-0.01648 0.28792,-0.03287 0.0804,-0.01013 0.15904,-0.02548 0.23643,-0.04909 -0.5348,-0.175268 -0.0182,0.0191 -0.0107,0.01976 0.0639,0.0057 0.13012,-0.01347 0.18821,-0.04079 0.0677,-0.03186 0.0735,-0.115826 0.13659,-0.143205 -0.0686,0.03314 -0.11782,-0.01373 -0.09,-0.08727 0,0 0.0237,-0.01363 0.0237,-0.01363 v 0 c 0.013,-0.09525 -0.0366,-0.140803 -0.12585,-0.09777 -0.006,0.0075 -0.0759,0.09074 -0.0731,0.09285 0.0921,0.06984 0.55223,0.09813 -0.12849,-0.158173 -0.0754,-0.01733 -0.15495,0.01513 -0.23052,0.01635 -0.0728,0.01085 -0.14542,0.02315 -0.21933,0.02117 -0.14901,2.65e-4 -0.29789,0.0078 -0.44692,0.005 -0.14768,-0.0035 -0.29564,-0.01159 -0.44276,0.0078 -0.12349,0.01053 -0.24579,0.03568 -0.37036,0.02836 -0.1709,-0.005 -0.34235,-0.02074 -0.51305,-0.0076 -0.20966,0.02701 -0.42112,0.05432 -0.62383,0.116335 -0.14496,0.03805 -0.29194,0.06927 -0.43437,0.116382 -0.17414,0.04615 -0.34968,0.08967 -0.52655,0.123785 -0.18939,0.03234 -0.37963,0.06082 -0.56679,0.104942 -0.24581,0.05795 -0.48637,0.135575 -0.72604,0.214514 -0.48971,0.141718 -0.99513,0.228131 -1.5026,0.274801 -0.51575,0.03193 -1.03262,0.04911 -1.54939,0.04881 -0.59751,0.003 -1.19495,-0.0051 -1.79244,-0.0099 -0.60031,-0.01275 -1.20065,-0.05412 -1.80117,-0.02648 -0.60696,0.0266 -1.21549,0.04244 -1.8191,0.116258 -0.23408,0.02799 -0.40098,0.05041 -0.63447,0.069 -0.3908,0.03111 -0.78316,0.0321 -1.17385,0.06406 -0.50368,0.0511 -1.00955,0.09196 -1.50851,0.179203 -0.1017,0.0209 -0.20339,0.0418 -0.30509,0.0627 -0.0807,0.01754 -0.16127,0.036 -0.2422,0.05264 -0.21594,0.0444 -0.43355,0.07825 -0.65062,0.116248 -0.092,0.01611 -0.18377,0.03372 -0.27565,0.05058 -0.4009,0.0807 -0.80388,0.149564 -1.20441,0.231958 -0.36521,0.04886 -0.73319,0.06801 -1.10116,0.08328 -0.13717,0.0083 -0.27723,0.02582 -0.4147,0.02633 -0.20908,7.94e-4 -0.41638,-0.03977 -0.62372,-0.05934 0,0 -0.0542,0.339455 -0.0542,0.339455 z" />
    <path
       style="fill:#000000;stroke-width:0.874001"
       id="path9270"
       d="m 135.67055,49.375708 c -0.20803,0.02805 -0.41381,0.07289 -0.59543,0.182589 -0.11197,0.06763 -0.0803,0.07062 -0.17895,0.135072 -0.0321,0.02098 -0.0668,0.03758 -0.10025,0.05638 -0.30609,0.148527 -0.62011,0.278974 -0.91842,0.443095 -0.13673,0.09629 -0.18913,0.124161 -0.30802,0.244954 -0.0391,0.03972 -0.0717,0.08531 -0.10761,0.127961 0,0 0.0331,0.04597 0.0331,0.04597 v 0 c 0.051,-0.0199 0.10314,-0.03718 0.15308,-0.05966 0.11292,-0.05084 0.21834,-0.117385 0.33272,-0.165286 0.30615,-0.157411 0.62135,-0.296132 0.92504,-0.458128 0.04,-0.0263 0.0816,-0.0503 0.11998,-0.07889 0.0508,-0.03781 0.0901,-0.08963 0.14129,-0.12695 0.15264,-0.111394 0.33476,-0.155196 0.51799,-0.187616 0,0 -0.0145,-0.159498 -0.0145,-0.159498 z" />
    <path
       style="fill:#000000;stroke-width:0.874001"
       id="path9272"
       d="m 132.69317,51.238305 c 0.27162,-0.09514 0.53951,-0.20257 0.79729,-0.330927 0.0866,-0.04314 0.16895,-0.09151 0.25716,-0.131551 0.25638,-0.101687 0.52153,-0.179163 0.78536,-0.258744 0.25447,-0.07599 0.49825,-0.181388 0.75011,-0.265144 0.28618,-0.102248 0.57004,-0.21086 0.8568,-0.311489 0.14279,-0.05393 0.28583,-0.107648 0.42476,-0.171005 0.0908,-0.03817 0.17534,-0.08824 0.2621,-0.134173 0.033,-0.0056 0.0599,-0.03328 0.0908,-0.04252 0.0773,-0.03779 0.0673,-0.07644 -0.004,-0.234309 -0.006,-0.0136 -0.0283,-0.0095 -0.0425,-0.01426 -0.12048,-0.03191 -0.24549,-0.01609 -0.36824,-0.01101 -0.14669,-0.0066 -0.29413,0.01045 -0.44032,-0.0041 -0.16415,-0.04482 -0.31959,-0.11248 -0.48556,-0.152051 -0.16254,-0.02802 -0.32739,-0.03923 -0.49201,-0.04585 -0.14529,-0.0011 -0.18006,-0.04064 -0.0976,0.256384 0.008,0.02736 0.051,0.02506 0.0773,0.03578 0.0311,0.0127 0.0632,0.02294 0.0949,0.03442 0.21969,0.06745 0.44329,0.115943 0.67314,0.124415 0.002,-5.3e-4 0.21088,0.01082 0.14784,-0.0036 -0.0709,-0.04132 0.0147,0.01497 -0.0171,-0.185891 -0.001,-0.009 -0.0171,0.007 -0.0261,0.0085 -0.0132,0.0024 -0.0266,0.0024 -0.04,0.0029 -0.0653,0.0019 -0.0719,-7.93e-4 -0.14174,-0.006 -0.15808,-0.0061 -0.30776,-0.04996 -0.45658,-0.09941 -0.0586,-0.01701 -0.11153,-0.05056 -0.17104,-0.06421 -0.0804,-0.0173 -0.0793,-0.019 -0.0414,0.231195 0.004,0.02614 0.0498,0.01765 0.075,0.0259 0.12165,0.0401 0.24408,0.0766 0.36753,0.110667 0.12393,0.03079 0.24995,0.05427 0.37674,0.06968 0.0457,0.0056 0.0959,0.0034 0.1413,0.01246 -0.10313,-0.04911 -0.003,0.01445 -0.0636,-0.162531 -0.003,-0.0091 -0.0184,0.0057 -0.0275,0.0089 -0.0221,0.0079 -0.0435,0.0176 -0.0659,0.02434 -0.0599,0.01805 -0.17295,0.03911 -0.22513,0.04978 -0.3658,0.07153 -0.72975,0.163253 -1.10312,0.184737 0.10231,0.0032 -0.0157,-0.0099 0.0623,0.200914 0.007,0.01783 0.0364,-0.024 0.0684,-0.03777 0.0152,-0.0065 0.0319,-0.0083 0.0478,-0.01262 0.0446,-0.01217 0.0892,-0.02463 0.13382,-0.03694 0.35444,-0.09212 0.71925,-0.130623 1.08315,-0.162193 0.11419,-0.01646 0.228,-0.02312 0.34297,-0.01823 0.0509,0.0021 0.10152,-1.27e-4 0.15186,-0.0075 0.007,-0.0021 0.0275,-0.0043 0.0206,-0.0063 -0.008,-0.0024 -0.0163,0.0042 -0.0247,0.0051 -0.006,7.94e-4 -0.0234,-0.0034 -0.0183,-1.48e-4 0.0143,0.0092 0.0457,0.0084 0.0629,0.0117 -0.0739,-0.01344 0.0387,0.01026 -0.0587,-0.18052 -0.006,-0.01135 -0.0224,0.01222 -0.0339,0.01751 -0.0156,0.0072 -0.0315,0.01397 -0.0476,0.01992 -0.0721,0.02662 -0.0798,0.02574 -0.16032,0.04535 -0.21559,0.04982 -0.43261,0.09313 -0.65264,0.117327 -0.17881,0.01577 -0.35461,0.05298 -0.53194,0.07923 -0.17762,0.02072 -0.34859,0.07167 -0.5134,0.13952 -0.0997,0.04285 -0.19513,0.09457 -0.29188,0.143436 0.048,0.05885 0.0806,0.134789 0.14403,0.176543 0.0259,0.01701 0.06,-0.01519 0.0902,-0.02241 0.13665,-0.0328 0.27516,-0.05707 0.4123,-0.0878 0.11863,-0.02558 0.23497,-0.06411 0.35664,-0.07197 0.0528,-0.004 0.0883,0.0013 -0.0635,-0.141364 -0.0121,-0.01132 -0.0273,0.01879 -0.0409,0.02817 -0.1291,0.05728 -0.269,0.167672 -0.41577,0.171625 -0.14943,-0.01691 -0.0906,0.0011 -0.0118,0.197236 0.0715,-0.03388 0.1499,-0.05508 0.2198,-0.09247 0.0639,-0.03418 0.0803,-0.05042 0.13541,-0.09324 0,0 -0.0134,-0.05503 -0.0134,-0.05503 v 0 c -0.16107,-0.02916 -0.2678,-0.01733 -0.41975,0.04159 0.0375,0.240864 -0.0326,0.212564 0.10544,0.214223 0.1919,-0.01783 0.36221,-0.123367 0.52836,-0.212815 0.0238,-0.01868 0.0655,-0.02635 0.0714,-0.056 0.038,-0.190918 0.0138,-0.222589 -0.10968,-0.216281 -0.13263,0.0092 -0.26034,0.04589 -0.38901,0.07765 -0.13881,0.03119 -0.27868,0.05679 -0.41683,0.09088 -0.033,0.0081 -0.0874,-0.0072 -0.099,0.02484 -0.0245,0.06771 0.008,0.143812 0.0119,0.21572 0.0919,-0.04658 0.1834,-0.09401 0.27724,-0.136715 0.14858,-0.06188 0.30306,-0.107204 0.46344,-0.125706 0.17477,-0.02596 0.34829,-0.06011 0.52441,-0.07628 0.22933,-0.02556 0.45602,-0.06918 0.68075,-0.121353 0.0884,-0.02222 0.17316,-0.0444 0.25585,-0.08344 0.0155,-0.0073 0.0419,-0.0072 0.0454,-0.02397 0.0143,-0.06845 0.01,-0.140108 0.003,-0.209722 -7.9e-4,-0.008 -0.0156,-0.004 -0.0234,-0.0061 -0.0466,-0.0039 -0.0633,-0.015 -0.11794,-0.0088 -0.002,1.8e-4 0.003,-7.94e-4 0.005,-0.0011 -0.0259,0.01458 -0.069,-0.0043 -0.0966,0.0013 -0.12566,-0.01151 -0.25041,-0.004 -0.37576,0.01061 -0.37975,0.02741 -0.75996,0.06526 -1.12887,0.16451 -0.0521,0.01524 -0.10535,0.02721 -0.15642,0.0457 -0.0377,0.01365 -0.0736,0.03206 -0.10926,0.05046 -0.002,0.0011 -0.003,0.006 -7.9e-4,0.0064 0.005,0.0011 0.0155,-0.0088 0.0151,-0.0036 -0.006,0.07394 -0.0376,0.146222 -0.0321,0.220183 10e-4,0.01648 0.0327,0.0048 0.0491,0.0071 0.38237,-0.02786 0.75649,-0.114805 1.13139,-0.190463 0.1166,-0.02323 0.24034,-0.03996 0.34876,-0.09248 0.0278,-0.01347 0.0676,-0.01868 0.0798,-0.04703 0.0229,-0.05318 0.0268,-0.116379 0.0149,-0.173032 -0.005,-0.02193 -0.0389,-0.02236 -0.0583,-0.03353 -0.16586,-0.03569 -0.33969,-0.03472 -0.50201,-0.09031 -0.11903,-0.03274 -0.23712,-0.06755 -0.35456,-0.105645 -0.0198,-0.0064 -0.0454,-0.03548 -0.0591,-0.01984 -0.0501,0.05725 -0.0682,0.136078 -0.10222,0.204115 7.9e-4,1.43e-4 0.001,2.65e-4 0.002,5.3e-4 0.0383,0.0087 0.10676,0.03449 0.15347,0.05227 0.16691,0.05306 0.33454,0.101063 0.51104,0.107881 0.0646,0.0037 0.12034,0.0093 0.18483,0.0035 0.0285,-0.0026 0.0569,-0.007 0.0847,-0.0136 0.0168,-0.004 0.0419,-0.0021 0.0486,-0.01794 0.0772,-0.184555 0.0911,-0.163052 0.0134,-0.214479 -0.0746,-0.02726 -0.15192,-0.02455 -0.23088,-0.02698 -0.20463,-0.0086 -0.40361,-0.06066 -0.5984,-0.12151 -0.0256,-0.0094 -0.0516,-0.01794 -0.077,-0.02816 -0.0232,-0.0094 -0.0517,-0.04902 -0.0687,-0.03059 -0.2063,0.223277 -0.13504,0.207632 -0.0226,0.209357 0.14894,0.0059 0.29808,0.01498 0.44543,0.03851 0.17669,0.04101 0.34075,0.118703 0.51833,0.155503 0.15766,0.01511 0.31592,0.0016 0.47412,0.006 0.0952,-0.0039 0.19268,-0.01566 0.2871,7.94e-4 0.0699,0.01016 0.002,0.0032 -0.0131,-0.181372 -2.3e-4,-0.0029 0.004,-0.0041 0.007,-0.0056 0.0104,-0.0067 0.0215,-0.01222 0.0319,-0.01902 0.007,-0.0049 -0.0316,0.0167 -0.0239,0.01212 -0.0185,0.01132 -0.0426,0.02598 -0.0834,0.0407 -0.0838,0.04302 -0.16287,0.09474 -0.25137,0.128929 -0.13253,0.06077 -0.26939,0.111466 -0.40561,0.163245 -0.28501,0.102537 -0.56841,0.209423 -0.85296,0.313251 -0.24835,0.08661 -0.48976,0.191016 -0.74061,0.27029 -0.27369,0.08434 -0.55046,0.163264 -0.8123,0.28072 -0.0871,0.04359 -0.16891,0.09464 -0.25481,0.140174 -0.24775,0.131326 -0.50862,0.234842 -0.76401,0.349856 0,0 0.0571,0.166251 0.0571,0.166251 z" />
    <path
       style="fill:#000000;stroke-width:0.874001"
       id="path9274"
       d="m 113.96624,51.04172 c 0.25542,0.06874 0.51744,0.11157 0.78259,0.102386 0.0599,-0.0021 0.11946,-0.01095 0.17911,-0.01728 0.72084,-0.07629 -0.34492,0.03239 0.35472,-0.03842 0.0947,-0.01019 0.28367,-0.02376 0.37313,-0.06089 0.051,-0.02119 0.0911,-0.06244 0.13671,-0.09366 0,0 -0.005,-0.05646 -0.005,-0.05646 v 0 c -0.0498,-0.02363 -0.0958,-0.05765 -0.14933,-0.0709 -0.0706,-0.01749 -0.31584,-0.01119 -0.3833,-0.01077 -0.0614,0.0053 -0.12292,0.009 -0.18415,0.01577 -0.0379,0.0042 -0.27394,0.03928 -0.32307,0.04256 -0.24016,0.01603 -0.47855,-0.01577 -0.71261,-0.06877 0,0 -0.0693,0.256424 -0.0693,0.256424 z" />
    <path
       style="fill:#000000;stroke-width:0.874001"
       id="path9276"
       d="m 113.78877,51.065548 c 0.20849,-0.03224 0.42226,-0.08477 0.63544,-0.06909 0.0428,0.0031 0.0838,0.01921 0.12631,0.02529 0.0301,0.0043 0.0604,0.0068 0.0906,0.01021 0.20824,0.02175 0.41752,0.02825 0.62674,0.02991 0.20414,-0.0013 0.40765,-0.01789 0.61167,-0.02315 0.17674,0.0068 0.35324,-0.0062 0.52989,-0.008 0.12661,0.01466 0.25303,0.01468 0.37997,0.0064 0.083,-0.01479 0.16666,-0.01796 0.24946,-0.03286 0.0745,-0.02851 0.14663,-0.02916 0.22544,-0.02267 0.0771,0.01386 0.15451,0.02651 0.23255,0.03374 0.0672,0.01146 0.13395,0.0051 0.2009,-0.0034 0.0865,-0.01003 0.17357,-0.01503 0.26027,-0.02471 0.0667,-0.0019 0.13363,-0.0163 0.20083,-0.02125 0.0533,-0.0045 0.10618,2.54e-4 0.15949,-2.65e-4 0.0568,5.29e-4 0.0248,-2.64e-4 0.0908,0.0127 0.011,1.19e-4 0.0376,0.01042 0.0331,2.65e-4 -0.0399,-0.08838 -0.0925,-0.170717 -0.14628,-0.251386 -0.003,-0.0049 -0.009,0.0083 -0.0139,0.01111 -0.007,0.0038 -0.015,0.0057 -0.0226,0.0085 -0.0567,0.02064 -0.0332,0.01259 -0.0995,0.0312 -0.14958,0.04839 -0.30188,0.08805 -0.45526,0.122338 -0.12458,0.03223 -0.25018,0.04488 -0.37828,0.04535 -0.16519,0.0068 -0.32632,0.04594 -0.48951,0.06951 -0.11717,0.0069 -0.23209,0.03459 -0.34874,0.04544 -0.0571,0.0053 -0.11531,0.0039 -0.1725,0.0039 -0.1953,-0.0013 -0.38977,-0.01709 -0.58438,-0.03135 -0.17612,-0.0086 -0.34843,-0.04306 -0.52503,-0.03752 -0.14149,0.02273 -0.28498,0.02027 -0.42778,0.02249 -0.12728,0.01773 -0.25378,0.0282 -0.38227,0.02705 -0.0929,0.0011 -0.18538,0.01143 -0.27824,0.01066 -0.0624,-0.0053 -0.1206,-0.0053 -0.18125,0.01127 0.0897,-0.02357 0.0566,0.0021 0.17914,0.07625 0.003,0.0016 -0.004,-0.0123 -0.003,-0.0091 0.004,0.06077 0.009,-0.03984 0.001,0.05807 -5.3e-4,-0.02685 0.005,-0.05449 -0.001,-0.08056 -0.0218,-0.08822 -0.1129,-0.136454 -0.18444,-0.1788 7.9e-4,-0.0098 0.0479,0.05857 0.0429,0.05071 -0.0178,-0.02822 -0.0354,-0.05544 -0.055,-0.08228 -0.002,-0.003 -0.009,-0.0122 -0.007,-0.009 10e-4,0.0019 0.0733,0.154405 0.0204,0.0745 -0.21327,-0.322196 -0.0547,-0.125372 -0.0353,-0.102084 0.004,0.04807 0.0286,0.101669 -0.0124,0.140142 -0.0174,0.01632 -0.0425,0.02278 -0.0602,0.03875 -0.003,0.0026 0.005,0.0071 0.009,0.0077 0.0186,0.0029 0.0377,0.0011 0.0565,0.0024 0.0293,0.0019 0.0586,0.0049 0.0879,0.0073 0.14079,0.01053 0.27877,0.0428 0.41902,0.05774 0.12374,0.01318 0.16053,0.01238 0.28382,0.01683 0.22754,0.0049 0.44786,-0.05025 0.66891,-0.09525 0.18082,-0.03567 0.36613,-0.0299 0.54916,-0.04575 0.19071,-0.02177 0.38166,-0.0279 0.57318,-0.01823 0.14963,0.01619 0.29923,0.01275 0.44927,0.0084 0.16615,0.0078 0.32898,0.0056 0.4929,-0.02283 0.12225,-0.02326 0.24444,-0.04627 0.36481,-0.078 0.11234,-0.02498 0.22642,-0.04956 0.34122,-0.06033 0.099,-0.0063 0.19647,-0.02671 0.29451,-0.04104 0.0861,-0.01199 0.16545,-0.04941 0.25115,-0.06184 10e-4,-0.0051 0.18956,-0.02975 0.11291,-0.02201 0.0412,0.003 0.0818,0.0013 0.12281,-0.0037 0.0632,-0.0021 0.12659,-0.0032 0.18987,-0.0031 0.0925,-0.0086 0.18414,-0.02588 0.27553,-0.04235 0.10577,-0.02125 0.21285,-0.02855 0.3191,-0.04826 0.13464,-0.0303 0.27382,-0.0223 0.41097,-0.02532 0.14287,0.0024 0.28568,0.0097 0.42854,0.01484 0.1323,0.0021 0.25868,0.04071 0.38417,0.07817 0.12883,0.02405 0.25824,0.04988 0.38958,0.05305 0.10679,-0.0057 0.21218,0.01281 0.31773,0.02529 0.12998,0.01852 0.2597,0.03994 0.39056,0.05099 0.0757,0.0096 0.13043,-0.03688 0.19776,-0.05973 0,0 0.0179,-0.05372 0.0179,-0.05372 v 0 c -0.0503,-0.05733 -0.0893,-0.123799 -0.1681,-0.144897 -0.13209,-0.03797 -0.26764,-0.06569 -0.40373,-0.08457 -0.11394,-0.01339 -0.22806,-0.03086 -0.34318,-0.02619 -0.10447,-0.0042 -0.20727,-0.02294 -0.31003,-0.04154 -0.15079,-0.0501 -0.30262,-0.10156 -0.46369,-0.102378 -0.14871,-0.0034 -0.29714,-0.01267 -0.44583,-0.01389 -0.15389,0.005 -0.30968,-0.0038 -0.46086,0.03082 -0.10452,0.02151 -0.21063,0.02619 -0.31495,0.04848 -0.0749,0.01357 -0.14995,0.02609 -0.22516,0.03753 -0.0753,0.0019 -0.15114,5.29e-4 -0.22598,0.0097 -0.0222,0.0039 -0.0443,5.29e-4 -0.0667,-0.0013 -0.0601,0.0013 -0.11771,0.01511 -0.17695,0.02437 -0.0854,0.01426 -0.16547,0.04353 -0.24968,0.0626 -0.0925,0.01503 -0.18471,0.03225 -0.27773,0.04383 -0.13071,0.01344 -0.26234,0.02922 -0.39009,0.06025 -0.11126,0.02941 -0.22421,0.05088 -0.33765,0.07015 -0.14935,0.02416 -0.29775,0.02119 -0.44882,0.01278 -0.14181,0.0024 -0.28317,0.0065 -0.42438,-0.01191 -0.20676,-0.0127 -0.41345,-0.01069 -0.61954,0.01315 -0.19569,0.01765 -0.39406,0.009 -0.58713,0.05038 -0.19548,0.04186 -0.39091,0.0922 -0.59226,0.09147 -0.23236,-0.0062 -0.46105,-0.03653 -0.69164,-0.06325 -0.10729,-0.0061 -0.239,-0.02879 -0.32803,0.05012 -0.0171,0.01516 -0.0342,0.03397 -0.0392,0.05628 -0.01,0.04313 -0.002,0.08836 -0.003,0.132543 0.0137,0.02 0.0372,0.0839 0.0412,0.05998 0.006,-0.03758 -0.0156,-0.07549 -0.033,-0.109384 -0.008,-0.01521 8e-4,0.03427 0.003,0.05121 0.004,0.02874 0.0192,0.05337 0.0325,0.07849 0.001,0.0027 0.004,0.0049 0.005,0.0073 0.002,0.0029 0.026,0.03585 0.0269,0.03636 0.005,0.0026 -0.009,-0.01971 -0.006,-0.01513 0.0229,0.03536 0.0386,0.07089 0.0777,0.09194 0.0193,0.01193 0.0399,0.03633 0.0622,0.0405 9e-5,1.8e-5 -0.0167,-0.04185 -0.0172,-0.04574 -0.003,-0.02238 0.001,-0.04504 0.002,-0.06756 -0.0182,0.148164 0.0547,0.285631 0.23079,0.239667 -0.0127,0.003 -0.0252,0.0071 -0.0381,0.0089 -0.005,7.93e-4 -0.0215,-0.0019 -0.0161,-0.0013 0.0394,0.0043 0.079,0.0052 0.11863,0.0068 0.0939,5.29e-4 0.18745,-0.0076 0.28122,-0.01162 0.12888,-0.0016 0.25717,-0.0063 0.38467,-0.02706 0.14518,-5.29e-4 0.29135,0.0047 0.43541,-0.01678 0.16426,-0.0059 0.32472,0.03715 0.48886,0.0406 0.20328,0.01728 0.40657,0.03312 0.61075,0.03431 0.0884,-5.3e-4 0.12776,0.0013 0.21611,-0.0069 0.11667,-0.01098 0.23177,-0.03803 0.34904,-0.0445 0.15021,-0.01984 0.29779,-0.05457 0.44895,-0.06646 0.15242,-0.0031 0.30184,-0.01987 0.44926,-0.06109 0.15716,-0.04054 0.31375,-0.08417 0.46677,-0.138551 0.0776,-0.02358 0.1554,-0.04498 0.22533,-0.08786 0.0213,-0.01307 0.0625,-0.02061 0.0597,-0.04545 -0.0122,-0.1056 -0.0718,-0.200329 -0.0998,-0.302874 -0.002,-0.0056 0.0116,5.29e-4 0.0173,7.94e-4 0.007,0.0021 0.0147,0.0054 0.0224,0.0065 0.005,7.93e-4 -0.01,-0.0039 -0.0144,-0.0054 -0.0385,-0.01191 -0.0764,-0.0177 -0.11669,-0.01871 -0.0109,-2.64e-4 -0.0218,5.29e-4 -0.0327,7.94e-4 -0.0602,0.0038 -0.12082,-0.0098 -0.18101,0.0016 -0.0691,0.0072 -0.13719,0.02037 -0.2069,0.02088 -0.0885,0.0099 -0.17718,0.01553 -0.2657,0.02437 -0.0416,0.0053 -0.0794,0.01095 -0.12128,5.29e-4 -0.0817,-0.0097 -0.16271,-0.02312 -0.2438,-0.03667 -0.10443,-0.0066 -0.21025,-0.0081 -0.31159,0.0213 -0.0666,0.0108 -0.1358,7.94e-4 -0.20256,0.01413 -0.12348,0.0019 -0.24625,0.0034 -0.3694,-0.01058 -0.17856,0.0021 -0.35699,0.01233 -0.53565,0.01003 -0.20246,0.0055 -0.40391,0.02513 -0.60612,0.03575 -0.20151,0.0069 -0.40326,0.0013 -0.60484,0.0028 -0.0824,0.0021 -0.16333,-0.0091 -0.24578,-0.0065 -0.23328,0.0073 -0.46182,0.06162 -0.68766,0.11585 0,0 0.0635,0.250875 0.0635,0.250875 z" />
    <path
       style="fill:#000000;stroke-width:0.874001"
       id="path9278"
       d="m 116.29888,51.01722 c -0.078,0.01513 -0.15576,0.03139 -0.23395,0.04541 -0.0517,0.0093 -0.10376,0.01688 -0.15577,0.0245 -0.0155,0.0024 -0.0483,-0.01048 -0.0467,0.0051 0.0269,0.273619 0.0103,0.230965 0.13023,0.210439 0.27725,-0.05539 0.56002,-0.07667 0.84166,-0.09572 0.0524,-0.0019 0.10483,-0.0043 0.15726,-0.0055 0.11614,-0.0026 0.0697,-0.0024 0.14551,0.0035 0.003,2.28e-4 -0.008,0.0016 -0.009,-0.0011 -0.0157,-0.0781 0.006,-0.169664 -0.0389,-0.235778 -0.0206,-0.03063 -0.0732,0.0097 -0.10975,0.01461 -0.12512,0.01913 -0.25183,0.02585 -0.37705,0.04416 -0.068,0.0099 -0.13868,0.0118 -0.20284,0.03631 -0.0581,0.0222 -0.10447,0.06739 -0.1567,0.101084 0,0 0.008,0.05605 0.008,0.05605 v 0 c 0.0562,0.01794 0.11006,0.04581 0.16847,0.05384 0.0681,0.0094 0.13762,7.93e-4 0.20634,-0.0024 0.17191,-0.0078 0.22667,-0.0182 0.38909,-0.03969 0.18183,-0.02745 0.13955,0.01408 0.17789,-0.268737 10e-4,-0.0104 -0.0203,-0.0055 -0.0306,-0.0071 -0.0592,-0.0088 -0.11749,-0.01045 -0.17759,-0.01058 -0.0556,-1.21e-4 -0.11116,0.0021 -0.16675,0.003 -0.30032,0.01738 -0.60783,0.03289 -0.89809,0.116819 -0.1121,0.05029 -0.12616,0.01 -0.0267,0.259077 0.007,0.01783 0.0381,-0.0051 0.057,-0.0087 0.0534,-0.01008 0.1067,-0.02109 0.15992,-0.03224 0.0786,-0.01651 0.15705,-0.03383 0.23557,-0.05074 0,0 -0.0469,-0.215665 -0.0469,-0.215665 z" />
    <path
       style="fill:#000000;stroke-width:0.874001"
       id="path9280"
       d="m 134.42716,50.537578 c 0.11433,-0.139663 0.22795,-0.290328 0.38976,-0.379 0.0723,-0.03961 0.0928,-0.0319 0.16751,-0.0525 0.0373,-0.01027 0.0738,-0.02299 0.11075,-0.03449 0.15611,-0.08664 0.0856,-0.04017 0.21366,-0.13624 0,0 -0.0209,-0.05264 -0.0209,-0.05264 v 0 c -0.14715,0.0141 -0.0706,0.0065 -0.22951,0.02299 -0.12275,0.01595 -0.24613,0.02249 -0.35794,0.08289 -0.18203,0.0983 -0.3102,0.268827 -0.43876,0.424545 0,0 0.16546,0.124444 0.16546,0.124444 z" />
    <path
       id="path9284"
       style="fill:#000000;stroke-width:0.874001"
       d="m 93.831999,271.43253 -0.05633,0.16381 c 0.117577,0.0202 0.234357,0.0444 0.348816,0.0786 0.09679,0.0297 0.192751,0.0616 0.285771,0.1018 0.03716,0.0161 0.0685,0.0342 0.09405,0.0538 0.356491,0.0587 0.720328,0.0822 1.080038,0.11265 0.158946,0.0135 0.317568,0.0282 0.476456,0.0424 0.460097,0.0403 0.918139,0.1044 1.377694,0.14986 0.273319,0.027 0.301688,0.0264 0.574125,0.0444 0.435893,0.0294 0.872863,0.0334 1.309481,0.0227 0.315423,-0.0119 0.631038,-0.0137 0.946717,-0.014 0.35463,0.005 0.70946,-0.0125 1.0635,-0.0326 0.23627,-0.013 0.46448,-0.0796 0.69763,-0.11421 0.19015,-0.0198 0.3794,-0.0187 0.56999,-0.0367 0.13069,-0.0167 0.26229,-0.0201 0.39377,-0.0248 0.1306,-0.008 0.26146,-0.0186 0.39171,-0.031 0.076,-0.009 0.15074,-0.0235 0.22738,-0.0243 0.0684,-0.003 0.1362,-0.005 0.20464,-0.006 0.0962,0 0.17402,-0.0359 0.262,-0.0641 0.0256,-0.007 0.0531,-0.005 0.0796,-0.005 0.0479,0.003 0.0951,-0.008 0.14262,-0.0109 0.0319,-0.004 0.0638,-0.007 0.0951,-0.0145 0.007,-0.002 0.0143,-0.004 0.0212,-0.006 h 5.1e-4 c 0.004,-0.001 0.009,-0.003 0.0129,-0.004 0.001,0 0.004,-3e-5 0.003,0 -0.006,0.003 -0.0105,0.003 -0.016,0.004 0.007,9.3e-4 0.0143,0.001 0.0212,0.001 0.0237,-0.0205 0.0496,-0.0398 0.0775,-0.0548 0.0461,-0.0236 0.0941,-0.0415 0.14573,-0.0429 0.007,-2.1e-4 0.0137,10e-6 0.0212,5.1e-4 0.0231,0.003 0.0461,0.007 0.0687,0.0119 0.0209,-0.009 0.042,-0.0184 0.063,-0.0274 l -0.0181,-0.10955 c -0.0256,0.002 -0.051,0.004 -0.0765,0.007 -0.24692,0.0114 -0.49945,0.0199 -0.74208,-0.0356 l 5.2e-4,5.1e-4 c -0.0835,-0.0191 -0.13206,-0.0524 -0.14624,-0.0873 -0.004,1.8e-4 -0.007,0.001 -0.0109,0.001 -0.0727,-0.003 -0.14539,0.003 -0.21807,0.004 -0.0881,0.003 -0.17439,0.0138 -0.26097,0.0294 -0.12262,0.0119 -0.24541,0.0223 -0.36845,0.0284 -0.13909,0.007 -0.27877,0.009 -0.41703,0.0279 -0.19797,0.0196 -0.39741,0.0137 -0.59479,0.0398 -0.12378,0.0198 -0.10392,0.0153 -0.23048,0.0408 -0.14084,0.0285 -0.28093,0.0648 -0.4253,0.0703 -0.3465,0.0198 -0.69357,0.0391 -1.04076,0.0336 -0.319033,0.003 -0.638233,0.008 -0.957049,0.0191 -0.424865,0.0132 -0.850228,0.0142 -1.274858,-0.007 -0.250012,-0.0119 -0.307492,-0.0129 -0.558622,-0.0326 -0.463587,-0.0365 -0.925939,-0.0843 -1.390096,-0.11369 -0.482409,-0.0254 -0.481237,-0.0277 -0.963766,-0.0434 -0.14347,-0.005 -0.287096,-0.005 -0.430464,-0.0114 -0.102241,-0.005 -0.204365,-0.0116 -0.305925,-0.0243 -0.185669,-0.0233 -0.371949,-0.0702 -0.553971,-0.11162 z" />
    <path
       id="path9388"
       style="fill:#000000;stroke-width:0.874001"
       d="m 113.78634,250.90355 c -0.21019,0.2029 -0.40634,0.41845 -0.56018,0.66766 -0.0883,0.1431 -0.16393,0.29355 -0.25269,0.43666 -0.30362,0.47992 -0.54356,0.99581 -0.7984,1.50224 -0.20566,0.40328 -0.42841,0.79786 -0.62426,1.20613 -0.13981,0.29144 -0.18808,0.41073 -0.31471,0.70176 -0.17508,0.44948 -0.39021,0.88332 -0.55242,1.3379 -0.0651,0.18243 -0.11925,0.37515 -0.17415,0.56069 -0.19875,0.71459 -0.33757,1.44295 -0.47077,2.17196 -0.0472,0.27712 -0.0844,0.5553 -0.0889,0.83665 -10e-4,0.0879 0.003,0.1762 0.001,0.26406 -0.006,0.25015 -0.0222,0.42877 -0.0408,0.68161 -0.009,0.12568 -0.02,0.251 -0.0289,0.37673 -0.0156,0.22251 -0.0267,0.378 -0.0258,0.59944 10e-4,0.30887 0.0244,0.61815 0.0393,0.92656 0.0326,0.57145 0.0182,1.14464 -0.004,1.71617 -0.0291,0.52448 -0.0859,1.0466 -0.12867,1.56993 -0.025,0.35229 -0.0432,0.70688 -0.0196,1.05989 0.0153,0.22889 0.0367,0.35584 0.0672,0.58343 0.0714,0.53309 0.15686,1.06409 0.24804,1.59421 0.0125,0.0562 0.0235,0.11308 0.0372,0.16899 0.0584,0.2366 0.0137,0.0251 0.0739,0.25786 0.0352,0.13605 0.059,0.27612 0.0889,0.41341 0.0239,0.16809 0.0908,0.32466 0.13281,0.48783 0.0215,0.11512 0.0533,0.22493 0.0951,0.33434 0.0326,0.0945 0.0415,0.0274 0.19378,-0.031 l 0.0346,0.045 c 0.18926,-0.0819 0.22723,-0.0293 0.18603,-0.1602 -0.032,-0.0969 -0.0629,-0.1915 -0.077,-0.29352 -0.0374,-0.16023 -0.0967,-0.31448 -0.1204,-0.47801 -0.0314,-0.14886 -0.058,-0.29886 -0.0971,-0.44597 -0.0205,-0.077 -0.0476,-0.1522 -0.0672,-0.22944 -0.0123,-0.0484 -0.0226,-0.0975 -0.0336,-0.14624 -0.0903,-0.52461 -0.17538,-1.05006 -0.24598,-1.57769 -0.0246,-0.18209 -0.0515,-0.35614 -0.0641,-0.5395 -0.0232,-0.33528 -0.006,-0.67318 0.0186,-1.00769 0.0408,-0.52948 0.10245,-1.05737 0.12919,-1.58802 0.0228,-0.5847 0.0343,-1.17088 5.2e-4,-1.75544 -0.0145,-0.29822 -0.037,-0.59742 -0.0398,-0.89607 -0.002,-0.22 0.008,-0.35129 0.0243,-0.57465 0.009,-0.12603 0.0184,-0.25175 0.0279,-0.37775 0.0219,-0.30011 0.0348,-0.42257 0.0408,-0.71675 0.002,-0.0813 -0.003,-0.16256 -0.002,-0.24391 0.004,-0.26026 0.0379,-0.51817 0.0837,-0.77412 0.12816,-0.71384 0.26621,-1.42662 0.4563,-2.127 0.0447,-0.15303 0.10793,-0.37679 0.16072,-0.52917 0.15594,-0.45017 0.36729,-0.87886 0.53382,-1.32498 0.10935,-0.25719 0.17975,-0.4283 0.29972,-0.68368 0.19253,-0.40982 0.41232,-0.80603 0.61598,-1.21026 0.24413,-0.5001 0.47498,-1.00811 0.75758,-1.48828 0.0998,-0.17121 0.0758,-0.12193 0.16175,-0.29818 0.0228,-0.0468 0.0418,-0.0954 0.0667,-0.14107 0.12782,-0.23422 0.3056,-0.43421 0.49144,-0.62374 z" />
    <path
       id="path9390"
       style="fill:#000000;stroke-width:0.874001"
       d="m 110.40411,270.62999 v 5.2e-4 c -0.0396,-0.001 -0.0941,0.0103 -0.11575,0.009 -0.0736,0.005 -0.1473,0.006 -0.22014,0.0191 -0.10757,0.008 -0.2081,0.0443 -0.31316,0.0672 -0.12778,0.0397 -0.25483,0.0808 -0.38654,0.10646 -0.17679,0.0505 -0.34888,0.11696 -0.53175,0.14469 -0.22055,0.0464 -0.43684,0.10649 -0.65164,0.17467 -0.22208,0.0588 -0.44597,0.1096 -0.66921,0.16381 -0.20384,0.043 -0.40519,0.0955 -0.6072,0.14573 -0.21652,0.0447 -0.43323,0.0883 -0.65061,0.12867 -0.20602,0.0335 -0.41151,0.0676 -0.62063,0.0744 -0.0874,0.005 -0.17468,0.005 -0.262,0.005 -0.007,0.001 -0.013,0.003 -0.0196,0.004 -0.0318,0.007 -0.0635,0.0115 -0.0961,0.0145 -0.0313,0.002 -0.0626,-6.8e-4 -0.0935,-0.006 -0.023,-0.003 -0.0451,-0.008 -0.0672,-0.0145 -0.008,6e-5 -0.0165,-1.1e-4 -0.0248,0 0.12044,0.12616 0.002,-0.0151 -0.0889,-0.0413 -0.0363,-0.0103 -0.0756,-0.003 -0.11317,0 -0.13688,0.0109 -0.43832,0.0609 -0.5488,0.078 l 0.045,0.25941 c 0.1425,-0.0209 0.37721,-0.0599 0.53433,-0.0682 0.006,0 0.0131,0.001 0.0212,0.003 0.0305,0.0168 0.0696,0.0373 0.0894,0.0486 0.2104,0.018 0.42085,0.0288 0.632,0.0289 0.22136,0.004 0.4412,-0.0116 0.66094,-0.0367 0.22567,-0.0317 0.4504,-0.0711 0.67438,-0.11317 0.20311,-0.0477 0.40465,-0.10123 0.60978,-0.14005 0.23063,-0.0541 0.46294,-0.0995 0.69247,-0.15813 0.20811,-0.0637 0.41793,-0.11611 0.632,-0.15503 0.19393,-0.0249 0.3753,-0.0962 0.56276,-0.14624 0.13561,-0.0269 0.26715,-0.0682 0.39894,-0.10904 0.0733,-0.006 0.14287,-0.0495 0.21549,-0.0491 0.0787,-0.01 0.15737,-0.0181 0.23616,-0.0269 0.0717,-0.0119 0.13948,-0.0164 0.20257,-0.0548 0.0563,-0.0836 0.042,-0.0324 5.2e-4,-0.15916 l -0.0377,-0.0424 c -0.0528,-0.10665 -0.0496,-0.0602 -0.0439,-0.13229 -0.003,-0.0166 -0.0217,-0.0221 -0.0455,-0.0227 z" />
    <path
       id="path9392"
       style="fill:#000000;stroke-width:0.874001"
       d="m 110.24495,271.09146 c -0.23719,0.002 -0.47384,0.0273 -0.71055,0.0388 -0.12794,0.006 -0.25537,-0.005 -0.38292,-0.0129 -0.22525,-0.022 -0.44995,0.0102 -0.67541,0.007 -0.0789,-0.007 -0.1582,-0.008 -0.2372,-0.007 -0.008,0.004 -0.0143,0.006 -0.0238,0.0103 -0.16643,0.0484 -0.33713,0.0892 -0.51005,0.10645 -0.007,0.0219 -0.0134,0.0437 -0.0217,0.0651 -0.0101,0.0293 -0.0204,0.059 -0.0305,0.0884 l 0.0393,0.0408 c 0.0175,0.003 0.0351,0.005 0.0527,0.007 0.0253,0.0249 0.0464,0.0548 0.076,0.0744 0.0456,0.0303 0.11262,0.008 0.20619,0.0196 0.15059,-1.8e-4 0.30039,-0.0161 0.45113,-0.008 0.21995,-0.005 0.43747,-0.0455 0.65784,-0.0388 0.42561,0.01 0.84731,-0.0563 1.27331,-0.0506 v -0.33796 c -0.0548,-0.002 -0.10959,-0.003 -0.16433,-0.003 z" />
    <path
       id="path9394"
       style="fill:#000000;stroke-width:0.874001"
       d="m 103.93888,271.55758 -0.0165,0.16382 v 5.2e-4 c 0.24281,0.007 0.49386,0.0567 0.7369,0.0145 0.0219,-0.004 0.15012,-0.0488 0.17002,-0.0543 0.0456,-0.0127 0.092,-0.0223 0.13798,-0.0336 0.0207,-0.003 0.0411,-0.007 0.0615,-0.0114 -0.006,-0.01 -3.5e-4,-0.0237 0.005,-0.0543 1.3e-4,-8.6e-4 3.9e-4,-0.002 5.2e-4,-0.003 -0.10443,0.008 -0.20901,0.014 -0.31264,0.0238 -0.24692,0.0114 -0.49945,0.0199 -0.74208,-0.0356 l 5.2e-4,5.1e-4 c -0.0147,-0.003 -0.0283,-0.007 -0.0408,-0.0114 z" />
    <path
       style="fill:#000000;stroke-width:0.874001"
       id="path9396"
       d="m 104.17647,272.05151 c 0.27678,-0.0262 0.76034,-0.065 1.04867,-0.11663 0.10399,-0.0185 0.20348,-0.0579 0.30726,-0.0777 0,0 0.0116,-0.0554 0.0116,-0.0554 v 0 c -0.24433,-0.12155 -0.5568,-0.0496 -0.80781,-0.0241 -0.19297,0.0196 -0.38569,0.0418 -0.57853,0.0627 0,0 0.0189,0.21108 0.0189,0.21108 z" />
    <path
       style="fill:#000000;stroke-width:0.874001"
       id="path9559"
       d="m 103.65194,271.88914 c 0.26206,-0.0624 0.52762,-0.0183 0.79209,-0.0106 0.0478,0.003 0.0956,-10e-5 0.14346,-1.3e-4 0.23868,-0.0212 0.14983,-0.007 0.42298,-0.0632 0.0711,-0.0146 0.14468,-0.0212 0.21277,-0.0464 0.0575,-0.0212 0.10649,-0.0608 0.15974,-0.0912 0,0 -0.004,-0.0565 -0.004,-0.0565 v 0 c -0.0623,-0.0217 -0.12151,-0.057 -0.18702,-0.0649 -0.0711,-0.008 -0.14268,0.0114 -0.21403,0.0169 -0.24391,0.0188 -0.18363,0.0143 -0.3898,0.0278 -0.33287,0 -0.66971,-0.0514 -0.99585,0.0433 0,0 0.06,0.24471 0.06,0.24471 z" />
    <path
       style="fill:#000000;stroke-width:0.874001"
       id="path9561"
       d="m 103.76742,271.88115 c 0.20871,0.0461 0.41949,0.0829 0.63247,0.10202 0.11495,0.0103 0.2302,0.0119 0.34547,0.0154 0.10409,0.003 0.17558,0.0103 0.28029,-0.0259 0.007,-0.003 0.1597,-0.0894 0.19615,-0.11004 0,0 -0.0103,-0.0557 -0.0103,-0.0557 v 0 c -0.0224,-0.004 -0.0452,-0.007 -0.0673,-0.0124 -0.0455,-0.0116 -0.0888,-0.0325 -0.13518,-0.04 -0.039,-0.006 -0.21099,-0.005 -0.25862,-0.005 -0.10983,0 -0.2205,0.003 -0.33023,0 -0.20646,-0.008 -0.41163,-0.0363 -0.61658,-0.0605 0,0 -0.0363,0.19291 -0.0363,0.19291 z" />
    <path
       style="fill:#000000;stroke-width:0.874001"
       id="path9563"
       d="m 103.92224,271.92094 c 0.33604,-0.0106 0.67392,0 1.00781,-0.0469 0.17446,-0.0246 0.23638,-0.0448 0.40858,-0.0876 0.23671,-0.0663 0.12232,-0.0257 0.3435,-0.12097 0,0 -0.007,-0.0562 -0.007,-0.0562 v 0 c -0.25026,-0.0387 -0.12552,-0.0368 -0.3742,-0.007 -0.0517,0.008 -0.33661,0.0533 -0.39384,0.0606 -0.33053,0.0422 -0.66413,0.0421 -0.99591,0.0695 0,0 0.0107,0.18817 0.0107,0.18817 z" />
    <path
       style="fill:#000000;stroke-width:0.874001"
       id="path9565"
       d="m 109.93156,271.18519 c 0.12017,-0.0744 0.27728,-0.0665 0.39917,-0.13671 0.0437,-0.0251 0.0715,-0.0711 0.1072,-0.10668 0,0 -0.0124,-0.0553 -0.0124,-0.0553 v 0 c -0.0545,-0.0154 -0.10703,-0.0486 -0.16356,-0.0457 -0.0625,0.003 -0.35776,0.12888 -0.40748,0.14907 0,0 0.0771,0.19529 0.0771,0.19529 z" />
    <path
       style="fill:#000000;stroke-width:0.874001"
       id="path9567"
       d="m 110.37449,271.04953 c -0.0598,0.004 -0.27723,0.008 -0.34808,0.044 -0.0281,0.014 -0.0487,0.0432 -0.0606,0.0724 -0.01,0.0243 -7.9e-4,0.0528 -0.001,0.0791 0,0 0.0444,-0.0351 0.0444,-0.0351 v 0 c -0.005,0.0204 -0.0237,0.0414 -0.0156,0.0608 0.028,0.0677 0.16271,0.0409 0.19424,0.0396 0.0664,-0.003 0.13259,-0.008 0.19888,-0.0122 0,0 -0.0121,-0.24873 -0.0121,-0.24873 z" />
    <path
       style="fill:#000000;stroke-width:0.874001"
       id="path9569"
       d="m 110.33873,271.16055 c 0.0748,-0.20399 0.0212,0.23239 0.0516,0.17847 0.0176,-0.0312 -0.0128,-0.0875 0.0179,-0.10621 0.14119,-0.0859 0.2804,0.0314 0.15797,-0.0718 -0.14851,0.007 -0.16799,-0.0399 -0.22381,0.0554 -0.003,0.006 0.043,-0.0517 0.049,-0.0313 0.004,0.0122 -0.0162,0.0196 -0.0219,0.0308 -0.0106,0.0212 -0.0177,0.0437 -0.0266,0.0655 0,0 0.001,0.0566 0.001,0.0566 v 0 c 0.0158,0.0365 0.0241,0.0893 0.0768,0.0943 0.0811,0.008 0.089,-0.0251 0.14638,-0.0638 0.006,-0.004 -0.008,0.0161 -0.0156,0.0167 -0.0559,0.003 -0.11179,-0.005 -0.16769,-0.007 -0.003,-0.003 -0.0113,-0.0114 -0.009,-0.008 0.006,0.0101 0.01,0.0262 0.0212,0.028 0.0799,0.0124 0.16776,0.0447 0.24227,0.0132 0.10104,-0.0426 -0.0159,-0.31763 -0.0321,-0.36312 0,0 -0.26735,0.11248 -0.26735,0.11248 z" />
    <path
       style="fill:#b3b3b3;stroke-width:2.61674"
       d="m 360.51111,1026.1002 -3.48503,-0.3596 0.46601,-9.2565 c 0.85626,-17.00817 5.50697,-33.22655 14.75029,-51.43874 9.54819,-18.81285 16.31606,-27.90938 40.53116,-54.4769 7.15596,-7.85114 17.28305,-19.07997 22.50466,-24.95294 5.22161,-5.87298 14.86543,-16.55991 21.43071,-23.74874 47.38636,-51.88692 50.9575,-56.35592 64.44797,-80.6516 12.0853,-21.76505 14.3502,-27.76514 17.84774,-47.28175 3.71513,-20.73073 4.33176,-35.84695 1.89038,-46.34118 -2.00171,-8.60432 -9.53304,-22.25423 -22.29069,-40.40001 -21.8376,-31.06059 -31.10822,-41.233 -67.47092,-74.03404 -40.06355,-36.1394 -51.70295,-48.73614 -68.96182,-74.63389 -18.56261,-27.85407 -27.90589,-45.12509 -37.63671,-69.57131 -7.01953,-17.6348 -11.00253,-29.64824 -13.91968,-41.98432 -1.99688,-8.44442 -2.24267,-10.92117 -2.20116,-22.1804 0.11065,-30.01417 9.06698,-55.9051 30.32942,-87.67614 17.10645,-25.56102 34.72251,-46.01294 60.09146,-69.76505 11.95082,-11.18916 12.61972,-11.68432 15.78411,-11.68432 1.81743,0 5.92456,-0.50131 9.12695,-1.11403 7.64658,-1.46303 17.06407,-2.13851 33.52861,-2.40486 11.07815,-0.17921 14.44973,-0.51872 19.00925,-1.91418 3.04842,-0.93299 6.76563,-1.69634 8.26047,-1.69634 2.52218,0 2.03748,0.44627 -6.73081,6.19714 -24.92331,16.3465 -54.77786,42.26052 -78.18987,67.86953 -14.52348,15.88638 -32.99527,41.72571 -40.10412,56.0998 -6.50728,13.15768 -10.93245,28.80418 -11.69448,41.34924 -0.8391,13.81391 2.4537,27.57302 12.98271,54.24891 6.32617,16.02772 12.37096,28.19669 21.34767,42.97572 22.08765,36.36455 32.63627,48.79351 70.35937,82.9012 36.71314,33.19454 48.12059,45.06123 65.18147,67.80557 27.59905,36.79309 38.41357,56.94311 41.87364,78.02056 3.0769,18.74326 -1.15408,56.78179 -8.89994,80.01476 -3.13529,9.40398 -13.08582,29.07998 -22.9581,45.39695 -11.33214,18.72983 -19.16547,28.28852 -56.92709,69.46581 -6.59251,7.18882 -16.60688,18.23882 -22.25415,24.55555 -5.64728,6.31673 -17.57543,19.53669 -26.507,29.37768 -15.9779,17.60478 -16.30162,18.03128 -20.11679,26.504 -2.13266,4.73621 -4.39017,10.4092 -5.01669,12.60664 -1.59983,5.61124 -2.80741,36.48288 -1.68404,43.05228 0.46971,2.7468 0.71937,5.1288 0.55479,5.2934 -0.16458,0.1645 -2.9672,1.0066 -6.22806,1.8712 -4.90778,1.3014 -9.33941,1.6366 -25.73275,1.9464 -10.89216,0.2059 -21.37218,0.2124 -23.28894,0.014 z"
       id="path9596"
       transform="scale(0.26458333)" />
    <path
       style="fill:#000000;stroke-width:0.874001"
       id="path9598"
       d="m 116.29738,57.683577 c -1.67834,0.693338 -3.4442,1.393777 -4.79899,2.651802 -0.59411,0.551675 -0.48204,0.611828 -0.83179,1.206039 -0.11942,0.202901 -0.25583,0.395312 -0.38375,0.592966 -2.87914,3.24603 -5.77803,6.476775 -8.78885,9.601946 -2.096681,2.138447 -4.159026,4.343313 -5.852672,6.823271 -0.342479,0.501483 -0.647337,1.027649 -0.971005,1.541476 -0.300556,0.578786 -0.618569,1.148836 -0.901671,1.736357 -0.594643,1.234075 -1.393618,3.175127 -1.875652,4.391993 -0.832178,2.100778 -1.56106,4.207835 -2.193309,6.375236 0,0 0.05406,0.01691 0.05406,0.01691 v 0 c 1.417625,-4.242975 2.948313,-8.477504 5.051269,-12.435668 0.321567,-0.510733 0.62452,-1.033674 0.9647,-1.532202 1.688846,-2.474981 3.745177,-4.675193 5.83548,-6.810402 3.01244,-3.136103 5.92401,-6.368063 8.79359,-9.634629 0.12833,-0.202293 0.26528,-0.399376 0.38501,-0.606878 0.3316,-0.574672 0.21785,-0.63247 0.78957,-1.170083 1.33824,-1.258414 3.09405,-1.95821 4.75505,-2.6607 0,0 -0.031,-0.08743 -0.031,-0.08743 z" />
    <path
       style="fill:#000000;stroke-width:0.874001"
       id="path9600"
       d="m 93.6163,105.03082 c 0.04735,1.57285 0.566272,3.04121 0.992579,4.53287 0.235609,0.8244 0.334867,1.33743 0.526103,2.19597 0.710557,3.5021 2.072145,6.80897 3.50326,10.0663 1.251368,2.83592 2.959278,5.42869 4.938618,7.80666 0.32038,0.3849 0.66354,0.75025 0.99531,1.12537 1.72454,1.78225 3.73317,3.24984 5.56387,4.91578 1.27319,1.15861 1.78282,1.7009 2.97504,2.90179 1.27225,1.31618 2.65289,2.51238 4.11161,3.61623 5.07884,3.84332 -2.06013,-1.66534 3.14025,2.28809 0.47493,0.36104 0.93553,0.74055 1.40329,1.11083 2.16283,1.82646 4.2732,3.72266 6.21833,5.78228 1.57487,1.66756 2.13365,2.39669 3.61908,4.17981 0.47853,0.60241 0.95707,1.20482 1.4356,1.80723 0,0 0.045,-0.0344 0.045,-0.0344 v 0 c -0.45652,-0.62127 -0.91303,-1.24253 -1.36955,-1.8638 -0.59776,-0.7424 -1.17734,-1.49981 -1.79327,-2.22722 -2.41761,-2.85519 -5.16644,-5.40306 -8.02736,-7.80551 -0.46998,-0.37156 -0.9329,-0.75222 -1.40994,-1.11467 -5.00255,-3.80096 1.73387,1.39723 -3.13442,-2.28365 -1.45259,-1.09829 -2.82867,-2.28724 -4.09448,-3.59834 -1.20401,-1.21264 -1.69937,-1.74106 -2.98645,-2.91114 -1.82514,-1.65922 -3.82605,-3.12228 -5.5474,-4.89532 -2.37711,-2.6866 -4.47077,-5.56903 -5.911574,-8.87568 -1.435327,-3.24354 -2.796037,-6.53834 -3.522461,-10.02528 -0.188643,-0.81344 -0.313497,-1.41533 -0.547275,-2.20316 -0.438637,-1.47821 -0.967669,-2.93202 -1.025245,-4.49567 0,0 -0.09853,0.005 -0.09853,0.005 z" />
    <path
       style="fill:#000000;stroke-width:0.874001"
       id="path9602"
       d="m 105.76425,253.88587 c 0.11977,-1.36857 0.3748,-2.71359 1.06833,-3.9175 0.27715,-0.48112 1.14603,-1.58717 1.45531,-2.00687 0.27474,-0.37284 0.54177,-0.75131 0.81265,-1.12696 0.86547,-1.24711 1.67744,-2.54245 2.70494,-3.66775 0.64632,-0.70784 1.44002,-1.25271 2.1888,-1.8423 0.23235,-0.21535 0.4773,-0.41788 0.69706,-0.64607 0.7978,-0.8284 1.4734,-1.77484 2.22244,-2.64546 0.64259,-0.74687 0.92529,-1.0198 1.59592,-1.71268 1.84315,-1.77958 3.48587,-3.74238 5.0029,-5.80279 0.30406,-0.42852 0.60312,-0.86063 0.91219,-1.28555 0.68546,-0.94242 1.03408,-1.41668 1.82185,-2.27351 2.64535,-2.87723 -0.41669,0.56217 1.90325,-1.90661 0.29495,-0.31388 0.56555,-0.64977 0.84832,-0.97466 1.05646,-1.27961 1.79716,-2.7677 2.62091,-4.19673 0.33895,-0.588 0.69559,-1.16884 1.04775,-1.74905 1.47811,-2.34765 3.13836,-4.56957 4.75832,-6.81906 1.01664,-1.31267 1.87661,-2.73391 2.82238,-4.09638 0.8169,-1.107 1.4945,-2.29692 2.12387,-3.51735 0.63871,-1.15587 1.19387,-2.3431 1.61662,-3.59396 0,0 -0.0295,-0.0104 -0.0295,-0.0104 v 0 c -0.45523,1.23433 -1.07797,2.38896 -1.68523,3.55378 -0.62705,1.21621 -1.29894,2.40415 -2.11567,3.50562 -0.94356,1.36292 -1.8098,2.77954 -2.83305,4.08609 -1.62777,2.24844 -3.3,4.46652 -4.78216,6.81616 -0.34805,0.57346 -0.7161,1.17308 -1.05025,1.75333 -0.81825,1.42093 -1.55386,2.90046 -2.60239,4.17381 -0.27972,0.32258 -0.54699,0.65638 -0.83914,0.96774 -2.53937,2.70636 1.00719,-1.25908 -1.91067,1.91596 -0.78891,0.85845 -1.14569,1.33916 -1.83158,2.28278 -0.30844,0.42435 -0.60608,0.85644 -0.90912,1.28466 -1.5117,2.05657 -3.14955,4.01552 -4.98651,5.79244 -0.67813,0.70197 -0.95109,0.9653 -1.60169,1.72209 -0.74461,0.86615 -1.41735,1.80809 -2.20943,2.63306 -0.21696,0.22597 -0.45932,0.42611 -0.68898,0.63916 -0.75654,0.59571 -1.556,1.14652 -2.20887,1.8619 -1.0293,1.12786 -1.84172,2.426 -2.70789,3.67637 -0.27011,0.37514 -0.53664,0.75288 -0.81031,1.12542 -0.33122,0.45087 -1.17166,1.52209 -1.46184,2.03281 -0.69343,1.22047 -0.94734,2.58048 -1.05908,3.96422 0,0 0.0995,0.004 0.0995,0.004 z" />
    <path
       style="fill:#000000;stroke-width:0.874001"
       id="path9604"
       d="m 144.42657,173.3893 c 0.88467,1.28118 1.93732,2.48358 2.54435,3.9367 0.4148,0.99298 0.44685,2.09963 0.54099,3.15373 0.19448,1.98215 0.1148,1.06583 0.24767,2.7482 0,0 0.0565,-0.004 0.0565,-0.004 v 0 c -0.12577,-1.6834 -0.0648,-0.76514 -0.17378,-2.75536 -0.0935,-1.07376 -0.12957,-2.19128 -0.55656,-3.20088 -0.616,-1.45647 -1.67299,-2.66462 -2.5679,-3.94683 0,0 -0.0912,0.0688 -0.0912,0.0688 z" />
  </g>
</svg>
