<?xml version="1.0" encoding="UTF-8" standalone="no"?>
<!-- Created with Inkscape (http://www.inkscape.org/) -->

<svg
   width="400"
   height="400"
   viewBox="0 0 105.83333 105.83333"
   version="1.1"
   id="svg1854"
   inkscape:version="1.2 (dc2aedaf03, 2022-05-15)"
   sodipodi:docname="curly.svg"
   xmlns:inkscape="http://www.inkscape.org/namespaces/inkscape"
   xmlns:sodipodi="http://sodipodi.sourceforge.net/DTD/sodipodi-0.dtd"
   xmlns="http://www.w3.org/2000/svg"
   xmlns:svg="http://www.w3.org/2000/svg">
  <sodipodi:namedview
     id="namedview1856"
     pagecolor="#505050"
     bordercolor="#eeeeee"
     borderopacity="1"
     inkscape:showpageshadow="0"
     inkscape:pageopacity="0"
     inkscape:pagecheckerboard="0"
     inkscape:deskcolor="#505050"
     inkscape:document-units="mm"
     showgrid="false"
     inkscape:zoom="0.89263468"
     inkscape:cx="119.30973"
     inkscape:cy="215.65373"
     inkscape:window-width="1276"
     inkscape:window-height="1076"
     inkscape:window-x="0"
     inkscape:window-y="0"
     inkscape:window-maximized="1"
     inkscape:current-layer="g25231" />
  <defs
     id="defs1851" />
  <g
     inkscape:label="Camada 1"
     inkscape:groupmode="layer"
     id="layer1">
    <g
       id="g25231"
       transform="matrix(1.137313,0,0,1.137313,-22.8854,-191.41505)">
      <path
         id="path9776"
         style="fill:#000000;stroke-width:0.874001"
         sodipodi:type="inkscape:offset"
         inkscape:radius="0.83464462"
         inkscape:original="M 52.0625 194.75 C 50.262666 194.62515 48.500692 195.008 46.78125 195.50977 C 46.503538 195.59077 46.241346 195.71422 45.970703 195.81641 C 44.658476 196.43909 43.425443 197.3561 42.488281 198.47266 C 42.319802 198.67339 42.17166 198.89053 42.013672 199.09961 C 41.357421 200.07535 40.927097 201.18657 40.802734 202.35938 C 40.781774 202.55703 40.783087 202.75655 40.773438 202.95508 C 40.787517 204.37353 41.485392 205.34241 42.355469 206.39258 C 43.178815 207.33241 44.18743 208.06803 45.248047 208.71484 C 45.797237 208.98826 46.338949 209.28657 46.925781 209.47461 C 47.264117 209.58303 47.40366 209.59998 47.75 209.66602 C 48.307368 209.74262 48.874873 209.74841 49.431641 209.66211 C 51.042297 209.41205 50.540625 209.55018 51.412109 209.27734 C 51.839777 209.06253 52.302999 208.88714 52.673828 208.57422 C 52.889252 208.39244 53.016748 208.21584 53.195312 207.99805 C 53.670586 207.35866 54.01301 206.63956 54.269531 205.88867 C 54.427829 205.37825 54.50481 204.86106 54.5 204.32812 C 54.48442 203.88951 54.357314 203.47682 54.111328 203.11523 C 53.837593 202.7616 53.43343 202.57057 53.035156 202.39258 C 52.699585 202.24138 52.349243 202.13848 51.982422 202.10938 C 51.650872 202.14607 50.265217 202.22331 50.929688 202.42773 L 51.074219 202.41211 C 52.462136 202.12587 50.285905 202.53302 50.894531 202.51562 C 51.23147 202.56203 51.559521 202.65243 51.873047 202.78516 C 52.256209 202.9463 52.654771 203.11479 52.925781 203.44336 C 53.163801 203.78056 53.281074 204.17281 53.294922 204.58594 C 53.297622 205.08565 53.230793 205.58316 53.058594 206.05469 C 52.801941 206.79194 52.463235 207.50072 51.980469 208.11914 C 51.468624 208.70808 50.956775 209.07263 50.193359 209.27734 C 49.494139 209.48117 49.811789 209.36423 50.589844 209.29883 C 50.730039 209.28703 50.311877 209.34352 50.171875 209.35742 C 49.905987 209.38382 49.59076 209.38945 49.324219 209.37695 C 49.184014 209.36995 49.044166 209.3535 48.904297 209.3418 C 47.998427 209.18847 47.133361 208.90087 46.351562 208.40625 C 45.277454 207.77848 44.251238 207.06599 43.414062 206.13477 C 42.559987 205.13125 41.848796 204.11416 41.845703 202.74219 C 41.854703 202.54786 41.853337 202.35371 41.873047 202.16016 C 41.988929 201.02113 42.44636 199.94531 43.074219 198.99805 C 43.232231 198.79249 43.378928 198.57839 43.546875 198.38086 C 44.498552 197.26155 45.710592 196.3889 47.017578 195.73242 C 47.289498 195.63015 47.568334 195.54575 47.832031 195.42383 C 47.886901 195.39843 47.593546 195.4516 47.652344 195.4375 C 48.772564 195.17007 49.923118 195.04612 51.074219 195.11914 C 51.762916 195.18714 51.981806 195.19024 52.658203 195.33398 C 53.697846 195.55487 54.686856 195.95117 55.632812 196.42969 C 57.005392 197.21435 58.346549 198.08206 59.414062 199.26562 C 59.871164 199.83512 60.317214 200.41468 60.648438 201.07031 C 61.007402 201.78087 61.233357 202.55352 61.425781 203.32227 C 61.579414 204.07489 61.638841 204.27323 61.71875 205.04297 C 61.852545 206.3318 61.775806 207.62633 61.560547 208.90234 C 61.135939 211.1389 60.567483 213.34673 59.8125 215.49609 C 59.106168 217.46003 58.340994 219.40847 57.363281 221.25586 C 56.439171 222.92531 55.470047 224.56944 54.464844 226.19141 C 53.469209 227.78226 52.435831 229.34737 51.476562 230.96094 C 50.695923 232.3087 49.914808 233.657 49.160156 235.01953 C 48.435999 236.37044 47.731361 237.7453 47.341797 239.23633 C 46.947311 240.85117 46.712052 242.49755 46.732422 244.16406 C 46.758112 245.84875 46.902132 247.53074 47.314453 249.16992 C 47.626863 250.36536 47.98557 251.59315 48.683594 252.62695 L 49.287109 252.91992 C 48.640825 251.82368 48.29221 250.60828 47.988281 249.38281 C 47.763078 248.29645 47.581983 247.19866 47.515625 246.08984 C 47.472875 245.37555 47.487197 245.02471 47.492188 244.31055 C 47.514437 242.61622 47.827229 240.95104 48.265625 239.32031 C 48.677542 237.85392 49.413262 236.52078 50.142578 235.19531 C 50.918115 233.83937 51.689329 232.48098 52.464844 231.125 C 53.395836 229.45996 54.428163 227.85539 55.451172 226.24609 C 56.489286 224.64675 57.438458 222.99359 58.318359 221.30273 C 59.295137 219.4523 60.033024 217.49164 60.742188 215.52734 C 61.499896 213.37543 62.043663 211.15494 62.490234 208.91992 C 62.785107 207.34346 62.833767 205.73897 62.576172 204.1543 C 62.529722 203.86856 62.464663 203.58666 62.408203 203.30273 C 62.164916 202.26474 61.818384 201.239 61.285156 200.31055 C 60.990987 199.79834 60.780331 199.56335 60.416016 199.10156 C 59.389493 197.83599 58.010103 196.96275 56.619141 196.15234 C 55.69398 195.61295 54.692057 195.21615 53.646484 194.98242 C 52.967595 194.83065 52.754263 194.82592 52.0625 194.75 z "
         d="m 52.121094,193.91797 c -1.954861,-0.13561 -3.81718,0.27827 -5.574219,0.79101 -0.360986,0.10529 -0.641612,0.23953 -0.871094,0.32618 a 0.83472808,0.83472808 0 0 0 -0.0625,0.0273 c -1.41601,0.67193 -2.739415,1.65272 -3.763672,2.87305 -0.204143,0.24322 -0.360241,0.47261 -0.501953,0.66015 a 0.83472808,0.83472808 0 0 0 -0.02734,0.0391 c -0.725726,1.07903 -1.207833,2.31811 -1.347656,3.63671 -0.02756,0.25986 -0.02505,0.4748 -0.0332,0.64258 a 0.83472808,0.83472808 0 0 0 0,0.0488 c 0.01676,1.6884 0.882343,2.88735 1.773438,3.96289 a 0.83472808,0.83472808 0 0 0 0.01563,0.0176 c 0.903729,1.03159 1.985971,1.81357 3.085937,2.48437 a 0.83472808,0.83472808 0 0 0 0.0625,0.0352 c 0.528393,0.26307 1.105952,0.58587 1.794922,0.80664 0.377773,0.12106 0.590242,0.15356 0.921875,0.2168 a 0.83472808,0.83472808 0 0 0 0.04297,0.006 c 0.627454,0.0862 1.274688,0.0944 1.921875,-0.006 a 0.83472808,0.83472808 0 0 0 0.002,0 c 0.795287,-0.12347 1.037798,-0.14592 1.275391,-0.18555 0.237592,-0.0396 0.395682,-0.0918 0.826171,-0.22656 a 0.83472808,0.83472808 0 0 0 0.125,-0.0508 c 0.37449,-0.1881 0.91061,-0.37583 1.425782,-0.81055 0.295002,-0.24893 0.465144,-0.48819 0.626953,-0.68555 a 0.83472808,0.83472808 0 0 0 0.02539,-0.0312 c 0.539512,-0.72581 0.916081,-1.52623 1.19336,-2.33789 a 0.83472808,0.83472808 0 0 0 0.0078,-0.0215 c 0.182871,-0.58966 0.273158,-1.19823 0.267578,-1.81641 a 0.83472808,0.83472808 0 0 0 0,-0.0215 c -0.02064,-0.58099 -0.196304,-1.15712 -0.533203,-1.65235 a 0.83472808,0.83472808 0 0 0 -0.0293,-0.043 c -0.428092,-0.55304 -0.987144,-0.78973 -1.396484,-0.97266 -0.403744,-0.18155 -0.847804,-0.31557 -1.326172,-0.35352 a 0.83472808,0.83472808 0 0 0 -0.158203,0.002 c -0.103073,0.0114 -0.564331,0.0404 -0.941406,0.10156 -0.09427,0.0153 -0.185933,0.0339 -0.289063,0.0625 -0.103129,0.0286 -0.205633,0.0178 -0.443359,0.22656 -0.118863,0.10436 -0.308708,0.35327 -0.298828,0.68164 0.0016,0.0546 0.04062,0.0573 0.05078,0.10547 -0.0039,0.0904 -0.0079,0.18134 -0.0078,0.18164 9e-5,5.6e-4 0.12271,0.31979 0.123046,0.32031 3.37e-4,5.3e-4 0.171286,0.19288 0.171875,0.19336 5.89e-4,4.9e-4 0.101782,0.0722 0.142579,0.0937 0.0408,0.0216 0.07593,0.036 0.105468,0.0469 0.118168,0.0435 0.170967,0.0457 0.216797,0.0508 0.03539,0.004 0.05063,0.001 0.07617,0.002 0.258672,0.037 0.508654,0.10681 0.75,0.20899 a 0.83472808,0.83472808 0 0 0 0.002,0 c 0.36868,0.15505 0.596574,0.28161 0.707031,0.40429 0.121825,0.18435 0.19325,0.39146 0.203125,0.64649 7.1e-4,0.41605 -0.05415,0.80765 -0.183593,1.16211 a 0.83472808,0.83472808 0 0 0 -0.0059,0.0137 c -0.233288,0.67013 -0.53449,1.28113 -0.935547,1.80078 -0.435252,0.4977 -0.750183,0.72584 -1.357422,0.88867 a 0.83472808,0.83472808 0 0 0 -0.01758,0.006 c -0.09931,0.0289 -0.140582,0.0413 -0.201172,0.0586 -0.136724,0.004 -0.271325,0.0134 -0.392578,0.008 -0.0884,-0.004 -0.20626,-0.0177 -0.335937,-0.0293 -0.816774,-0.13982 -1.566337,-0.39109 -2.232422,-0.8125 a 0.83472808,0.83472808 0 0 0 -0.02344,-0.0156 c -1.035712,-0.60533 -1.984643,-1.27192 -2.736329,-2.10743 -5.96e-4,-6.6e-4 -0.0014,-0.001 -0.002,-0.002 -0.811243,-0.95534 -1.34891,-1.75603 -1.353515,-2.83008 0.0085,-0.20367 0.0088,-0.37699 0.02148,-0.50195 0.09859,-0.96904 0.496687,-1.91885 1.064453,-2.77734 0.16,-0.21047 0.294369,-0.40185 0.416016,-0.54492 0.859928,-1.01141 1.973029,-1.81841 3.193359,-2.4336 0.191517,-0.0695 0.425073,-0.15201 0.675781,-0.25781 0.982075,-0.2171 1.975862,-0.34096 2.960938,-0.2793 0.677854,0.0664 0.836936,0.0645 1.470703,0.19922 0.941044,0.19994 1.858242,0.56464 2.755859,1.01758 1.3314,0.76229 2.577651,1.57945 3.541016,2.64258 0.442167,0.55176 0.842682,1.08176 1.123047,1.63672 0.311581,0.61676 0.522439,1.32606 0.708984,2.07031 0.149716,0.73011 0.199732,0.88253 0.275391,1.61133 0.124083,1.19527 0.05335,2.41016 -0.150391,3.62304 -0.417794,2.19925 -0.974402,4.3644 -1.71289,6.4668 -0.700059,1.94613 -1.4533,3.85471 -2.400391,5.64453 -2.78e-4,5.3e-4 2.78e-4,0.001 0,0.002 -0.914526,1.65156 -1.873209,3.27971 -2.869141,4.88672 -0.987768,1.57815 -2.024173,3.14836 -2.996093,4.78321 a 0.83472808,0.83472808 0 0 0 -0.0059,0.008 c -0.780613,1.34772 -1.564366,2.70035 -2.324218,4.07226 a 0.83472808,0.83472808 0 0 0 -0.0059,0.01 c -0.729048,1.36003 -1.468604,2.79261 -1.888672,4.40039 a 0.83472808,0.83472808 0 0 0 -0.0039,0.0137 c -0.407367,1.66757 -0.654225,3.38301 -0.632812,5.13477 a 0.83472808,0.83472808 0 0 0 0,0.004 c 0.02629,1.72378 0.173366,3.46973 0.607421,5.19532 a 0.83472808,0.83472808 0 0 0 0.002,0.008 c 0.316579,1.21139 0.689058,2.53499 1.484376,3.71289 a 0.83472808,0.83472808 0 0 0 0.326171,0.2832 l 0.603516,0.29297 a 0.83472808,0.83472808 0 0 0 1.083984,-1.17383 c -0.574895,-0.97515 -0.906412,-2.10508 -1.205078,-3.30859 -0.218047,-1.05539 -0.388765,-2.10564 -0.451172,-3.14844 -0.04111,-0.68692 -0.02849,-0.99925 -0.02344,-1.72265 0.02162,-1.59626 0.319624,-3.19059 0.746094,-4.77735 1.7e-4,-6.3e-4 -1.71e-4,-0.001 0,-0.002 0.377044,-1.33646 1.069428,-2.60914 1.794922,-3.92773 l 0.002,-0.004 c 0.0015,-0.003 0.0024,-0.005 0.0039,-0.008 0.774219,-1.3537 1.543926,-2.70792 2.316406,-4.0586 a 0.83472808,0.83472808 0 0 0 0.0039,-0.006 c 0.912634,-1.6322 1.934155,-3.223 2.957032,-4.83203 l 0.0059,-0.008 c 1.051757,-1.62101 2.011916,-3.29488 2.900391,-5.00195 v -0.002 c 1.00896,-1.91172 1.759184,-3.90808 2.470703,-5.8789 a 0.83472808,0.83472808 0 0 0 0.002,-0.006 c 0.775899,-2.20358 1.32803,-4.46219 1.779297,-6.72071 a 0.83472808,0.83472808 0 0 0 0.002,-0.01 c 0.31064,-1.66075 0.364425,-3.36552 0.08984,-5.05469 -0.0523,-0.32176 -0.120679,-0.61162 -0.173829,-0.87891 a 0.83472808,0.83472808 0 0 0 -0.0059,-0.0293 c -0.255592,-1.09049 -0.623266,-2.19355 -1.210937,-3.2168 -0.324966,-0.56583 -0.584809,-0.86349 -0.9375,-1.31055 a 0.83472808,0.83472808 0 0 0 -0.0078,-0.008 c -1.138634,-1.40379 -2.616475,-2.32366 -4.025391,-3.14453 -0.997807,-0.58174 -2.079876,-1.01083 -3.210937,-1.26367 -0.711617,-0.15909 -0.996825,-0.17375 -1.673828,-0.24805 a 0.83472808,0.83472808 0 0 0 -0.0332,-0.002 z" />
      <path
         id="path9778"
         style="fill:#000000;stroke-width:0.874001"
         sodipodi:type="inkscape:offset"
         inkscape:radius="0.70013392"
         inkscape:original="M 80.882812 197.42773 C 80.27333 197.40106 79.643937 197.4789 78.957031 197.56445 C 78.035514 197.67815 77.139284 197.90337 76.314453 198.34375 C 75.426165 198.82237 74.579355 199.37304 73.808594 200.02734 C 72.901023 200.78579 72.085074 201.6442 71.339844 202.5625 C 70.664421 203.42985 70.021323 204.32244 69.433594 205.25195 C 68.824996 206.20666 68.25661 207.18744 67.613281 208.11914 C 66.994666 209.04099 66.327892 209.92676 65.648438 210.80469 C 65.061977 211.5476 64.464001 212.28286 63.828125 212.98438 C 63.282756 213.57949 62.726372 214.17941 62.03125 214.60352 C 61.409313 214.96269 60.740847 215.20402 60.037109 215.35156 L 61.029297 215.36523 C 61.7606 215.21383 62.451955 214.9572 63.103516 214.5957 C 63.809477 214.16862 64.369607 213.56145 64.919922 212.95703 C 65.558396 212.25881 66.155141 211.52452 66.732422 210.77539 C 67.422352 209.88983 68.058943 208.96599 68.679688 208.03125 C 69.270017 207.04441 69.883211 206.07081 70.501953 205.10156 C 71.099932 204.16496 71.761636 203.27326 72.453125 202.4043 C 72.966133 201.78148 73.542612 201.20653 74.164062 200.69141 C 74.453643 200.45138 74.763073 200.23605 75.060547 200.00586 C 75.875559 199.36726 76.758708 198.83235 77.679688 198.36328 C 78.339125 198.03589 79.06074 197.9187 79.779297 197.80273 C 79.850481 197.80299 79.866791 197.8084 79.910156 197.81445 C 80.065795 197.83615 80.220795 197.86725 80.373047 197.90625 C 80.853091 198.02898 81.258073 198.24314 81.681641 198.49219 C 82.724859 199.1337 83.326898 200.19134 83.880859 201.24414 C 84.454089 202.40598 84.753096 203.66512 84.939453 204.93945 C 85.120232 206.40493 85.006128 207.87402 84.767578 209.32422 C 84.543248 210.41962 84.238685 211.53465 83.572266 212.45312 C 83.456601 212.61255 83.320915 212.75649 83.195312 212.9082 C 82.582988 213.53479 81.828344 214.02321 80.957031 214.1875 C 80.889949 214.20015 80.821719 214.20491 80.753906 214.21289 C 80.643776 214.19878 80.524956 214.18636 80.412109 214.16406 C 79.893584 214.06131 79.455087 213.86032 78.994141 213.61133 C 78.05914 213.02209 77.47888 212.10722 76.996094 211.14062 C 76.713387 210.46452 76.496279 209.73014 76.568359 208.98828 C 76.579819 208.87024 76.611503 208.75533 76.632812 208.63867 C 76.839021 207.89901 77.361385 207.37735 77.957031 206.92969 C 78.066352 206.85604 78.197168 206.83116 78.314453 206.77539 C 78.611332 206.87183 78.886821 207.00789 79.085938 207.25781 C 79.185608 207.39288 79.308085 207.55411 79.460938 207.63477 C 80.047327 207.94422 79.497307 207.56674 79.876953 207.83984 L 80.027344 207.82617 C 80.306906 207.58275 80.676495 207.47317 80.517578 207.03125 C 80.318193 206.65519 79.983048 206.42292 79.572266 206.3125 C 78.781334 206.2035 79.293573 206.25573 77.623047 206.44727 C 77.210654 206.49457 76.833788 206.70638 76.498047 206.93555 C 75.894781 207.42225 75.378073 207.9803 75.173828 208.75 C 75.152768 208.87403 75.123678 208.99785 75.111328 209.12305 C 75.039838 209.84816 75.286786 210.55014 75.5625 211.20703 C 76.047923 212.18551 76.603379 213.13181 77.521484 213.76758 C 77.906503 213.99445 78.003276 214.07584 78.425781 214.23242 C 79.556909 214.65161 80.795136 214.5219 81.978516 214.47461 C 82.422421 214.40841 82.607975 214.4032 83.03125 214.25 C 83.718765 214.00112 84.31014 213.54633 84.806641 213.01953 C 84.933686 212.86091 85.071472 212.70982 85.1875 212.54297 C 85.843399 211.59978 86.128366 210.45914 86.347656 209.34961 C 86.572959 207.85109 86.666971 206.33342 86.447266 204.82617 C 86.237293 203.51051 85.955841 202.2077 85.351562 201.00781 C 84.788428 199.93279 84.100303 198.93718 83.130859 198.18555 C 82.985454 198.09485 82.846337 197.99504 82.695312 197.91406 C 82.082993 197.58572 81.492295 197.45441 80.882812 197.42773 z M 80.460938 214.25 C 80.455082 214.2507 80.449211 214.25123 80.443359 214.25195 C 80.270515 214.25595 79.751029 214.27142 79.923828 214.26562 C 80.102684 214.25957 80.281311 214.24868 80.460938 214.25 z "
         d="m 80.914062,196.72852 c -0.689954,-0.0302 -1.355699,0.055 -2.042968,0.14062 -0.978282,0.1207 -1.963499,0.36451 -2.886719,0.85742 a 0.70020393,0.70020393 0 0 0 -0.002,0 c -0.920551,0.49601 -1.808307,1.07265 -2.623047,1.76367 -0.948589,0.79273 -1.794228,1.68417 -2.5625,2.63086 a 0.70020393,0.70020393 0 0 0 -0.0098,0.0117 c -0.686121,0.88109 -1.342492,1.79077 -1.945312,2.74414 -0.618635,0.9706 -1.182834,1.94315 -1.804688,2.84375 a 0.70020393,0.70020393 0 0 0 -0.0059,0.008 c -0.604536,0.90087 -1.259908,1.77543 -1.935547,2.64843 -0.580821,0.73566 -1.169584,1.45545 -1.787109,2.13672 -0.540985,0.59026 -1.05526,1.1312 -1.638672,1.48828 -0.548412,0.31507 -1.140666,0.53058 -1.777344,0.66407 a 0.70020393,0.70020393 0 0 0 0.134766,1.38476 l 0.992187,0.0137 a 0.70020393,0.70020393 0 0 0 0.152344,-0.0137 c 0.799325,-0.16548 1.559119,-0.44851 2.271484,-0.84375 a 0.70020393,0.70020393 0 0 0 0.02344,-0.0117 c 0.817079,-0.4943 1.41831,-1.16087 1.970703,-1.76758 0.655815,-0.71727 1.263815,-1.46509 1.847656,-2.22265 l 0.002,-0.002 c 0.706035,-0.9064 1.351891,-1.8445 1.976563,-2.78515 a 0.70020393,0.70020393 0 0 0 0.01758,-0.0273 c 0.584824,-0.97763 1.193337,-1.94526 1.810547,-2.9121 0.578354,-0.90587 1.223278,-1.77515 1.902344,-2.62891 0.483797,-0.58736 1.029021,-1.13161 1.617187,-1.61914 0.25931,-0.21494 0.560765,-0.42525 0.876953,-0.66992 a 0.70020393,0.70020393 0 0 0 0.0039,-0.004 c 0.769302,-0.60278 1.611881,-1.11368 2.5,-1.56641 0.518902,-0.25723 1.146754,-0.36844 1.835937,-0.48046 0.123008,0.0177 0.247932,0.0427 0.371094,0.0742 0.380084,0.0972 0.717484,0.27078 1.121093,0.50782 0.846853,0.52341 1.392059,1.43668 1.935547,2.46875 0.524282,1.06468 0.808125,2.24414 0.988282,3.47265 0.167863,1.36915 0.06298,2.76575 -0.167969,4.17188 -0.217563,1.05664 -0.506506,2.05889 -1.070313,2.83594 -0.07372,0.10161 -0.190919,0.23066 -0.320312,0.38476 -0.536512,0.54624 -1.165943,0.94384 -1.857422,1.07422 -0.0053,9.9e-4 -0.04377,0.006 -0.06055,0.008 -0.08215,-0.0104 -0.16707,-0.0211 -0.21875,-0.0312 h -0.002 c -0.411301,-0.0817 -0.770778,-0.242 -1.193359,-0.46875 -0.752356,-0.48009 -1.260215,-1.24739 -1.714844,-2.15234 -0.258421,-0.62182 -0.427265,-1.24081 -0.373047,-1.79883 0.003,-0.0306 0.02373,-0.12851 0.04492,-0.23633 0.139774,-0.49398 0.512797,-0.87038 1.005859,-1.2539 0.07174,0.0414 0.182228,0.0762 0.222656,0.12695 l -0.01562,-0.0195 c 0.104323,0.14137 0.254415,0.39173 0.611328,0.58008 0.14644,0.0773 0.218593,0.11317 0.333984,0.15429 0.0096,0.003 0.01708,0.0102 0.02734,0.0137 0.03347,0.0113 0.07027,0.0263 0.148437,0.0371 0.0022,3.1e-4 0.0074,-3.1e-4 0.0098,0 a 0.70020393,0.70020393 0 0 0 0.285156,0.0781 l 0.150391,-0.0137 a 0.70020393,0.70020393 0 0 0 0.396484,-0.16992 c 0.06378,-0.0555 0.232418,-0.13091 0.457031,-0.36719 0.224614,-0.23629 0.376601,-0.79047 0.232422,-1.19141 a 0.70020393,0.70020393 0 0 0 -0.03906,-0.0918 c -0.295595,-0.55752 -0.826527,-0.91687 -1.382813,-1.0664 a 0.70020393,0.70020393 0 0 0 -0.08594,-0.0176 c -0.390199,-0.0538 -0.591519,-0.0779 -0.830078,-0.0469 -0.23856,0.031 -0.47486,0.0857 -1.294922,0.17968 -0.599497,0.0688 -1.068127,0.35201 -1.439453,0.60547 a 0.70020393,0.70020393 0 0 0 -0.04492,0.0332 c -0.654764,0.52825 -1.30274,1.20814 -1.560547,2.17969 a 0.70020393,0.70020393 0 0 0 -0.01367,0.0625 c -0.01612,0.0949 -0.05185,0.23467 -0.07031,0.42188 -0.09127,0.92569 0.215089,1.74037 0.501954,2.42383 a 0.70020393,0.70020393 0 0 0 0.01953,0.0391 c 0.500053,1.00797 1.110729,2.08053 2.1875,2.82617 a 0.70020393,0.70020393 0 0 0 0.04297,0.0273 c 0.366127,0.21574 0.551655,0.34564 1.015625,0.51758 1.33137,0.4934 2.672407,0.33119 3.824218,0.28516 a 0.70020393,0.70020393 0 0 0 0.07617,-0.006 c 0.421054,-0.0628 0.70743,-0.086 1.1875,-0.25977 0.823374,-0.29806 1.498,-0.82583 2.046875,-1.4082 a 0.70020393,0.70020393 0 0 0 0.03711,-0.043 c 0.108249,-0.13515 0.256953,-0.29617 0.408203,-0.51367 0.752688,-1.08237 1.049474,-2.32386 1.273437,-3.45703 a 0.70020393,0.70020393 0 0 0 0.0039,-0.0332 c 0.23138,-1.53893 0.335056,-3.12667 0.101563,-4.72851 a 0.70020393,0.70020393 0 0 0 -0.002,-0.008 c -0.213982,-1.34078 -0.505539,-2.71972 -1.16211,-4.02344 a 0.70020393,0.70020393 0 0 0 -0.0039,-0.01 c -0.58947,-1.12529 -1.332851,-2.21401 -2.412109,-3.05078 a 0.70020393,0.70020393 0 0 0 -0.05859,-0.041 c -0.119852,-0.0748 -0.272195,-0.18534 -0.476562,-0.29492 -0.709073,-0.38023 -1.421319,-0.53816 -2.111329,-0.56836 z m -0.597656,10.625 c 0.0039,0.005 0.01042,0.0169 0.0098,0.0176 -0.0027,-0.003 -0.0073,-0.0145 -0.0098,-0.0176 z" />
      <path
         id="path9780"
         style="fill:#000000;stroke-width:0.874001"
         sodipodi:type="inkscape:offset"
         inkscape:radius="0.65832531"
         inkscape:original="M 63.236328 178.23047 C 62.718076 178.20357 62.558511 178.23726 62.050781 178.28516 C 60.883728 178.53337 59.654068 178.70086 58.6875 179.44336 C 58.367841 179.68891 58.261977 179.8275 57.992188 180.11914 C 57.332935 180.92165 57.164441 181.83318 57.082031 182.83789 C 57.041041 184.03619 57.219755 185.21828 57.517578 186.375 C 57.79349 187.37939 58.3051 188.26625 58.996094 189.03711 C 59.551835 189.60338 60.171931 189.87981 60.941406 190.01367 C 61.284221 190.05737 61.629788 190.04123 61.970703 189.99023 C 62.972056 189.84038 63.656234 189.80737 64.509766 189.47852 C 65.309342 189.12266 65.979128 188.54719 66.572266 187.91406 C 66.962177 187.44035 67.328862 186.89791 67.466797 186.28906 C 67.492387 186.1761 67.502181 186.05982 67.519531 185.94531 C 67.52006 185.68862 67.543152 185.48532 67.451172 185.23633 C 67.291374 184.80377 66.917935 184.38176 66.490234 184.20117 C 66.26393 184.10557 66.016483 184.0737 65.779297 184.00977 C 65.550676 183.97977 65.322368 183.94992 65.09375 183.91992 L 65.003906 183.94531 C 65.081296 184.02211 65.158942 184.09899 65.236328 184.17578 C 65.277478 184.27538 65.307969 184.37994 65.359375 184.47461 C 65.422145 184.5902 65.508204 184.69328 65.578125 184.80469 C 65.842119 185.22531 66.043947 185.64786 65.988281 186.1582 C 65.852968 186.9026 65.53676 187.42193 65.027344 187.97656 C 64.427796 188.60024 63.758378 189.16264 62.941406 189.47852 C 62.728271 189.5518 62.673652 189.5594 62.541016 189.59375 C 62.507741 189.59246 62.497736 189.59705 62.455078 189.5957 C 61.717901 189.5028 61.056011 189.25002 60.511719 188.72461 C 59.790269 187.9875 59.297041 187.13691 59.001953 186.14453 C 58.696659 184.9891 58.497231 183.80784 58.556641 182.60742 C 58.631461 181.5672 58.803868 180.75363 59.486328 179.92969 C 59.828548 179.57795 60.1693 179.25632 60.601562 179.01367 C 60.749386 178.93067 61.229409 178.80985 61.060547 178.79492 C 60.742581 178.76682 60.43675 178.93881 60.119141 178.9707 C 59.932539 178.9894 60.484027 178.87927 60.666016 178.83398 C 60.857955 178.81038 61.049299 178.77757 61.242188 178.76367 C 62.277412 178.68937 63.299856 178.90131 64.257812 179.28711 C 64.782338 179.53184 64.88986 179.56502 65.386719 179.86719 C 66.082668 180.29042 66.717069 180.80733 67.335938 181.33398 C 68.091341 181.98732 68.857266 182.63592 69.527344 183.37891 C 70.148194 184.05522 70.675218 184.80362 71.142578 185.59375 C 71.644199 186.44035 72.10738 187.31174 72.416016 188.25 C 72.799887 189.38623 73.087024 190.55686 73.164062 191.75781 C 73.211093 192.90656 73.16073 194.05661 72.949219 195.18945 C 72.726826 196.26288 72.483201 197.33148 72.177734 198.38477 C 71.913828 199.36913 71.642574 200.35395 71.255859 201.29883 C 70.917481 202.03732 70.540314 202.76333 70.033203 203.40234 L 70.896484 203.28125 C 71.386569 202.61528 71.786657 201.88828 72.15625 201.15039 C 72.613493 200.25025 72.888043 199.27393 73.162109 198.30664 C 73.448531 197.2083 73.752302 196.11708 73.947266 194.99805 C 74.136136 193.8517 74.23671 192.69267 74.228516 191.53125 C 74.201346 190.3392 73.94691 189.17212 73.611328 188.0332 C 73.314288 187.0754 72.888137 186.17003 72.421875 185.28516 C 71.983429 184.46961 71.437043 183.72071 70.869141 182.99219 C 70.22228 182.22724 69.460433 181.57634 68.710938 180.91602 C 68.096054 180.38421 67.469698 179.85485 66.779297 179.42188 C 66.283486 179.11093 66.175965 179.07539 65.652344 178.82031 C 64.88605 178.49497 64.070822 178.27373 63.236328 178.23047 z M 63.470703 189.5293 C 63.585345 189.5156 63.243637 189.56708 63.128906 189.58008 C 63.088061 189.58468 63.079082 189.57882 63.046875 189.58203 C 63.233019 189.55794 63.155445 189.56703 63.470703 189.5293 z "
         d="m 63.269531,177.57227 c -0.553653,-0.0287 -0.789416,0.0102 -1.28125,0.0566 a 0.65839115,0.65839115 0 0 0 -0.07422,0.0117 c -1.13396,0.24118 -2.484405,0.40357 -3.626953,1.28126 -0.358874,0.27567 -0.519858,0.47165 -0.777343,0.75 a 0.65839115,0.65839115 0 0 0 -0.02539,0.0293 c -0.779536,0.94893 -0.972859,2.03679 -1.058594,3.08203 a 0.65839115,0.65839115 0 0 0 -0.002,0.0312 c -0.04373,1.27843 0.148061,2.5246 0.457031,3.72461 a 0.65839115,0.65839115 0 0 0 0.002,0.01 c 0.304755,1.10938 0.872345,2.09026 1.623047,2.92773 a 0.65839115,0.65839115 0 0 0 0.01953,0.0215 c 0.652196,0.66455 1.441325,1.01421 2.302734,1.16406 a 0.65839115,0.65839115 0 0 0 0.0293,0.004 c 0.418032,0.0533 0.825743,0.0322 1.210937,-0.0254 0.97194,-0.14544 1.727862,-0.1809 2.677735,-0.54687 a 0.65839115,0.65839115 0 0 0 0.03125,-0.0137 c 0.915675,-0.40753 1.649272,-1.04846 2.27539,-1.7168 a 0.65839115,0.65839115 0 0 0 0.02734,-0.0312 c 0.41792,-0.50774 0.854428,-1.12656 1.029297,-1.89844 0.0391,-0.1726 0.04759,-0.3051 0.06055,-0.39062 a 0.65839115,0.65839115 0 0 0 0.0078,-0.0957 c 4.49e-4,-0.21793 0.03538,-0.54761 -0.109375,-0.93946 -0.227099,-0.61474 -0.682492,-1.14393 -1.322265,-1.41406 v 0.002 c -0.336456,-0.14213 -0.615742,-0.1724 -0.794922,-0.2207 a 0.65839115,0.65839115 0 0 0 -0.08594,-0.0176 c -0.228824,-0.03 -0.457133,-0.0599 -0.685546,-0.0898 a 0.65839115,0.65839115 0 0 0 -0.265626,0.0195 l -0.08984,0.0254 a 0.65839115,0.65839115 0 0 0 -0.283203,1.09961 c 0.04592,0.0456 0.09096,0.0914 0.136718,0.13672 0.02392,0.0677 0.03939,0.12214 0.103516,0.24023 0.104864,0.19311 0.202412,0.30497 0.240234,0.36524 0.233221,0.37159 0.33038,0.61845 0.304688,0.91015 -0.113771,0.59887 -0.328804,0.96724 -0.779297,1.45899 -0.563321,0.58519 -1.158421,1.07138 -1.837891,1.33594 -0.108768,0.0369 -0.160151,0.0506 -0.216796,0.0645 -0.611281,-0.0846 -1.104167,-0.27233 -1.519532,-0.67188 -0.640204,-0.6575 -1.069921,-1.39499 -1.335937,-2.2832 -0.293843,-1.11407 -0.476506,-2.22428 -0.421875,-3.32813 0.07101,-0.97475 0.203677,-1.58269 0.769531,-2.27343 0.319112,-0.32634 0.604083,-0.59104 0.939453,-0.7793 -0.07243,0.0407 0.114568,-0.0409 0.25,-0.0898 0.04388,-0.0159 0.108511,-0.0475 0.166016,-0.0742 0.89649,-0.0552 1.799292,0.12439 2.666015,0.47265 0.0019,7.8e-4 0.0039,0.001 0.0059,0.002 0.490833,0.22798 0.568752,0.24879 1.033203,0.53125 0.644378,0.39187 1.253556,0.88572 1.865234,1.40625 0.757388,0.65501 1.499504,1.28648 2.128906,1.98437 a 0.65839115,0.65839115 0 0 0 0.0039,0.004 c 0.582744,0.6348 1.083513,1.34521 1.533203,2.10547 0.491229,0.82906 0.929492,1.65791 1.214844,2.52539 a 0.65839115,0.65839115 0 0 0 0.002,0.006 c 0.370763,1.09743 0.639848,2.20947 0.71289,3.33008 0.04501,1.10761 -0.0042,2.20284 -0.203125,3.27148 -3.55e-4,0.002 3.56e-4,0.004 0,0.006 -0.219959,1.0609 -0.460534,2.10776 -0.757812,3.13281 a 0.65839115,0.65839115 0 0 0 -0.0039,0.0137 c -0.262416,0.97881 -0.527266,1.93192 -0.892578,2.82618 -0.327033,0.71211 -0.679561,1.38249 -1.13086,1.95117 a 0.65839115,0.65839115 0 0 0 0.607422,1.0625 l 0.863281,-0.1211 a 0.65839115,0.65839115 0 0 0 0.4375,-0.26171 c 0.524269,-0.71243 0.941111,-1.47339 1.31836,-2.22657 v 0.004 c 0.496102,-0.97664 0.776952,-1.99644 1.050781,-2.96289 a 0.65839115,0.65839115 0 0 0 0.0039,-0.0137 c 0.284609,-1.09139 0.594486,-2.19968 0.796875,-3.36133 a 0.65839115,0.65839115 0 0 0 0.002,-0.006 c 0.194347,-1.17959 0.297547,-2.37561 0.289063,-3.57813 a 0.65839115,0.65839115 0 0 0 0,-0.0117 c -0.02908,-1.27586 -0.299986,-2.49862 -0.644531,-3.66796 a 0.65839115,0.65839115 0 0 0 -0.002,-0.01 c -0.31504,-1.01584 -0.760852,-1.95702 -1.236328,-2.85937 a 0.65839115,0.65839115 0 0 0 -0.002,-0.006 c -0.466867,-0.86842 -1.036762,-1.6452 -1.613281,-2.38477 a 0.65839115,0.65839115 0 0 0 -0.01758,-0.0215 c -0.692531,-0.81896 -1.480137,-1.48864 -2.22461,-2.14453 a 0.65839115,0.65839115 0 0 0 -0.0059,-0.004 c -0.618705,-0.53512 -1.268535,-1.08862 -2.011719,-1.55469 -0.512976,-0.32171 -0.674133,-0.38468 -1.1875,-0.63476 a 0.65839115,0.65839115 0 0 0 -0.03125,-0.0137 c -0.822072,-0.34902 -1.712379,-0.59445 -2.640625,-0.64257 z m -0.267578,11.52539 0.107422,0.94922 c -0.05143,-0.0561 -0.201172,-0.22071 -0.201172,-0.22071 0,0 0.01563,-0.62695 0.01563,-0.62695 0,0 0.04746,-0.0617 0.07813,-0.10156 z" />
    </g>
  </g>
</svg>
