<?xml version="1.0" encoding="UTF-8" standalone="no"?>
<!-- Created with Inkscape (http://www.inkscape.org/) -->

<svg
   width="210mm"
   height="297mm"
   viewBox="0 0 210 297"
   version="1.1"
   id="svg9639"
   inkscape:version="1.2 (dc2aedaf03, 2022-05-15)"
   sodipodi:docname="encaracolados.svg"
   xmlns:inkscape="http://www.inkscape.org/namespaces/inkscape"
   xmlns:sodipodi="http://sodipodi.sourceforge.net/DTD/sodipodi-0.dtd"
   xmlns="http://www.w3.org/2000/svg"
   xmlns:svg="http://www.w3.org/2000/svg">
  <sodipodi:namedview
     id="namedview9641"
     pagecolor="#505050"
     bordercolor="#eeeeee"
     borderopacity="1"
     inkscape:showpageshadow="0"
     inkscape:pageopacity="0"
     inkscape:pagecheckerboard="0"
     inkscape:deskcolor="#505050"
     inkscape:document-units="mm"
     showgrid="false"
     inkscape:zoom="1.7852694"
     inkscape:cx="369.69211"
     inkscape:cy="690.65208"
     inkscape:window-width="2560"
     inkscape:window-height="1369"
     inkscape:window-x="2552"
     inkscape:window-y="-8"
     inkscape:window-maximized="1"
     inkscape:current-layer="layer1" />
  <defs
     id="defs9636" />
  <g
     inkscape:label="Camada 1"
     inkscape:groupmode="layer"
     id="layer1">
    <path
       style="fill:#000000;stroke-width:0.874001"
       id="path9772"
       d="m 78.63575,143.08554 c -0.31519,0.56095 -0.428343,1.2212 -0.259485,1.84969 0.03451,0.12842 0.09281,0.24924 0.139172,0.37388 0.348289,0.61915 0.752474,1.02677 1.461542,1.16843 0.263437,0.009 0.492516,-0.0651 0.699067,-0.23061 0.936681,-0.75082 1.0066,-0.65606 1.371608,-1.4637 0.328854,-0.86096 0.347562,-1.79067 0.332154,-2.70012 -0.04395,-0.73899 -0.180663,-1.4824 -0.433109,-2.18035 -0.153817,-0.42531 -0.252019,-0.59114 -0.452606,-0.98842 -0.536072,-0.92782 -1.057123,-1.37899 -2.043236,-1.7698 -0.886747,-0.26252 -1.512124,-0.24674 -2.369841,0.0857 -0.816263,0.46028 -1.551193,1.11504 -2.086952,1.88654 -0.211278,0.30424 -0.282318,0.47256 -0.449102,0.80166 -0.36701,0.80722 -0.487018,1.69455 -0.438335,2.57675 0.01266,0.22945 0.04733,0.45714 0.07098,0.68571 0.188795,1.35808 0.630696,2.66866 1.267322,3.88174 0.14333,0.2731 0.304895,0.53624 0.457345,0.80436 0.646238,1.03266 1.445638,1.95971 2.466066,2.63803 0.64052,0.42578 0.876412,0.49904 1.568056,0.81119 1.261853,0.45435 2.630111,0.61908 3.918376,0.15242 0.265591,-0.0966 0.512912,-0.23748 0.769386,-0.35618 1.165921,-0.76571 2.283405,-1.64255 3.104647,-2.7821 0.423563,-0.58773 0.839348,-1.33199 1.138277,-1.99003 0.158645,-0.34923 0.28398,-0.71265 0.425965,-1.06897 0.106426,-0.36553 0.239407,-0.72437 0.319273,-1.09661 0.347691,-1.62052 0.315364,-3.36145 -0.122662,-4.96091 -0.120904,-0.4415 -0.299305,-0.8652 -0.448941,-1.29779 -0.712526,-1.70668 -1.751158,-3.2679 -3.231942,-4.40511 -0.960046,-0.7373 -1.277385,-0.79873 -2.377216,-1.28504 -1.884349,-0.55112 -3.87411,-0.74645 -5.818214,-0.40596 -1.225584,0.21465 -1.552819,0.3938 -2.701876,0.8193 -0.396077,0.19922 -0.803039,0.37815 -1.188207,0.59772 -1.34265,0.76544 -2.713762,1.8453 -3.640312,3.08783 -0.636545,0.85361 -0.658836,1.08824 -1.061862,2.07302 -0.557114,1.64881 -0.606594,3.39141 -0.268778,5.09382 0.236637,1.19251 0.470174,1.69957 0.884353,2.84226 1.113715,2.56297 2.723533,4.87732 4.582591,6.95452 0.366143,0.40911 0.75373,0.79851 1.130593,1.19777 1.827414,1.81924 3.822183,3.47349 5.967989,4.90524 0.390794,0.26074 0.793078,0.50385 1.189623,0.75578 2.146138,1.30939 4.419153,2.38949 6.721192,3.3921 1.658768,0.69219 3.318073,1.38236 4.949145,2.13808 1.180212,0.5597 2.341047,1.15272 3.457796,1.83062 0.996237,0.59929 1.938084,1.29717 2.842213,2.02749 0.97027,0.71919 1.76422,1.63597 2.47268,2.60619 0.69799,0.98537 1.16926,2.09294 1.5577,3.22906 0.41904,1.32044 0.68511,2.68143 0.91776,4.04493 0.24182,1.36632 0.32126,2.75217 0.39574,4.13532 0.0617,0.71507 0.0697,1.62725 0.37732,2.2923 0.0877,0.18964 0.40679,0.58516 0.53584,0.75247 0,0 0.10357,-0.0189 0.10357,-0.0189 v 0 c 0.21484,-0.36874 0.3749,-0.60615 0.51767,-1.02106 0.28494,-0.82808 0.2546,-1.73662 0.24074,-2.59767 -0.0712,-1.38857 -0.18396,-2.77582 -0.43526,-4.14516 -0.24098,-1.37106 -0.49643,-2.74657 -0.93691,-4.0701 -0.40861,-1.1464 -0.89807,-2.2687 -1.60107,-3.2692 -0.31489,-0.43621 -0.40962,-0.58729 -0.76048,-0.9945 -0.54509,-0.63264 -1.1677,-1.18842 -1.79473,-1.73731 -0.96772,-0.76792 -1.94529,-1.51946 -2.998807,-2.16882 -1.158099,-0.67256 -2.347653,-1.29516 -3.574312,-1.83359 -1.66461,-0.72468 -3.355584,-1.38298 -5.04772,-2.04035 -2.367948,-0.97335 -4.709517,-2.02566 -6.887404,-3.38263 -1.066213,-0.67516 -1.405237,-0.87072 -2.435168,-1.59921 -1.70375,-1.20508 -3.319995,-2.53463 -4.810471,-3.99613 -0.935278,-0.96938 -1.393755,-1.40456 -2.25,-2.45552 -1.41203,-1.73314 -2.623447,-3.63295 -3.501591,-5.69201 -0.414347,-1.15824 -0.630943,-1.61954 -0.860668,-2.82789 -0.321967,-1.69353 -0.253848,-3.41812 0.318806,-5.0492 0.415209,-0.89431 0.507065,-1.22178 1.109448,-2.00791 0.231553,-0.30219 0.515068,-0.56097 0.762678,-0.85015 0.0059,-0.006 -0.02488,-0.0149 -0.0176,-0.0201 1.167775,-0.81199 0.938759,-0.6392 2.231386,-1.31061 1.118653,-0.41662 1.520274,-0.61948 2.707901,-0.84317 1.920491,-0.36175 3.8818,-0.24187 5.748302,0.32656 1.088904,0.47607 1.399769,0.53462 2.352498,1.25798 1.476781,1.12124 2.516392,2.66307 3.214257,4.36338 0.143313,0.43087 0.315124,0.8533 0.429924,1.29264 0.315994,1.20905 0.40331,2.50123 0.252773,3.74154 -0.09942,0.81912 -0.304831,1.46944 -0.518317,2.26282 -0.141806,0.35172 -0.266352,0.71091 -0.42542,1.05517 -0.313669,0.67884 -0.715853,1.3752 -1.16343,1.97536 -0.213609,0.28644 -0.497036,0.5192 -0.692201,0.8185 -0.03877,0.0595 0.255965,-0.11339 0.202255,-0.0669 -0.232861,0.20117 -0.499415,0.35966 -0.749121,0.5395 -0.249767,0.12231 -0.489938,0.26655 -0.74933,0.36682 -1.26898,0.49055 -2.628307,0.36263 -3.890558,-0.0659 -0.263289,-0.11322 -0.533553,-0.21143 -0.789864,-0.33967 -1.364591,-0.68272 -2.444657,-1.75916 -3.250755,-3.04401 -0.151803,-0.26518 -0.313536,-0.52491 -0.45542,-0.79553 -0.63111,-1.20371 -1.058239,-2.51188 -1.228408,-3.86088 -0.104513,-1.20076 -0.1279,-2.15016 0.409574,-3.26149 0.193357,-0.36131 0.226751,-0.45082 0.463776,-0.7857 0.08508,-0.12024 0.399,-0.42095 0.270138,-0.34964 -0.223918,0.12388 -0.389099,0.33337 -0.569218,0.51516 -0.184624,0.18634 0.780497,-0.69372 0.63953,-0.45854 0.117393,-0.0517 0.23112,-0.11268 0.352216,-0.15497 0.631846,-0.2207 1.315661,-0.18513 1.954169,-0.0197 0.131138,0.0466 0.265934,0.0841 0.393462,0.13996 0.712047,0.31162 1.231491,0.88098 1.617546,1.54243 0.492736,0.97316 0.786373,1.97212 0.818158,3.06998 0.01037,0.89533 -0.03917,1.79087 -0.395521,2.62648 -0.04765,0.0974 -0.08884,0.19824 -0.143015,0.29218 -0.04925,0.0854 -0.256875,0.28389 -0.166505,0.24446 0.257172,-0.11213 0.458615,-0.32362 0.694866,-0.47494 0.07084,-0.0453 -0.126882,0.11143 -0.197846,0.15659 -0.201789,0.12832 -0.221424,0.10816 -0.450142,0.14537 -0.08152,-0.009 -0.164731,-0.007 -0.244541,-0.0261 -0.533521,-0.12487 -0.922106,-0.56764 -1.184707,-1.01983 -0.04511,-0.11718 -0.102199,-0.23044 -0.135327,-0.35155 -0.163574,-0.59902 -0.04973,-1.23005 0.26718,-1.75572 0,0 -0.859965,0.51915 -0.859965,0.51915 z" />
    <path
       style="fill:#000000;stroke-width:0.874001"
       id="path9774"
       d="m 148.51571,199.96806 c -0.12959,0.67796 -0.3813,1.34502 -0.87145,1.8471 -0.0993,0.10168 -0.21394,0.1871 -0.32091,0.28065 -0.30641,0.18876 -0.3619,0.25052 -0.7081,0.35527 -0.11978,0.0362 -0.49067,0.0987 -0.36736,0.0774 1.23554,-0.2135 0.82069,-0.0882 0.38281,-0.18927 -0.13044,-0.0301 -0.25425,-0.0839 -0.38138,-0.12592 -0.81772,-0.35276 -1.38717,-1.00765 -1.81591,-1.76703 -0.40758,-0.88502 -0.29493,-1.4409 0.0815,-2.30033 0.51094,-0.89733 1.28458,-1.42788 2.18819,-1.87768 -0.38852,-2.6e-4 1.45536,-0.42701 1.07943,-0.36946 -0.21712,0.0332 -0.52014,-0.01 -0.63461,0.17745 -0.10038,0.1644 0.38086,-0.0602 0.57282,-0.0762 0.54284,-0.0453 0.59801,-0.0163 1.13937,0.0336 1.03471,0.20498 1.89454,0.66429 2.54663,1.50983 0.14447,0.18733 0.2609,0.39468 0.39134,0.59202 0.66186,1.25174 0.90415,2.6763 0.87071,4.08444 -0.008,0.32681 -0.0462,0.65219 -0.0692,0.97828 -0.20679,1.42285 -0.70189,2.77323 -1.54611,3.94514 -0.56861,0.78932 -0.88295,1.02907 -1.58238,1.69951 -1.2387,0.9415 -0.64031,0.56706 -2.01455,1.29109 -0.9811,0.5169 -1.20834,0.71288 -2.29195,0.94264 -1.16184,0.24635 -0.95394,0.45188 -1.27247,0.0541 -0.39167,-0.11175 -0.79842,-0.18009 -1.17501,-0.33525 -1.19526,-0.49245 -2.20932,-1.38546 -2.95589,-2.42806 -0.70879,-0.98984 -0.78791,-1.3671 -1.25086,-2.48896 -0.12042,-0.45089 -0.27053,-0.89489 -0.36127,-1.35269 -0.34501,-1.74078 -0.28336,-3.7921 0.1908,-5.50511 0.11581,-0.4184 0.2966,-0.81604 0.44491,-1.22406 0.66772,-1.57907 1.71308,-2.95546 3.03844,-4.04352 0.89098,-0.73147 1.25954,-0.88953 2.26022,-1.46894 1.17786,-0.58109 2.40419,-1.12576 3.6919,-1.41844 0.031,-0.007 -0.0544,0.0946 -0.0226,0.0926 1.52943,-0.21646 0.76473,-0.1479 2.29393,-0.20784 1.51694,0.0293 3.01334,0.34789 4.39636,0.97725 0.83166,0.37846 1.06697,0.56722 1.82373,1.05365 0.76905,0.64106 1.50708,1.35609 2.07616,2.18671 0.5672,0.82787 0.92607,1.71465 1.27342,2.64691 0.46408,1.42087 0.56329,2.91556 0.29883,4.38609 -0.0536,0.29779 -0.13246,0.59046 -0.19869,0.88569 -0.51179,1.76509 -1.2317,3.46077 -1.97617,5.13812 -0.54603,1.15906 -1.11746,2.31817 -1.84979,3.37385 -0.52957,0.76339 -0.72074,0.94661 -1.33355,1.65779 -0.9268,1.01388 -1.95214,1.93691 -3.07942,2.72332 -0.65347,0.45587 -0.85783,0.55638 -1.54073,0.95392 -1.37485,0.75599 -2.8396,1.32754 -4.29937,1.8947 -1.35452,0.51915 -2.71912,1.01141 -4.07128,1.5367 -1.32028,0.50764 -2.61787,1.06916 -3.90183,1.66185 -1.24984,0.55956 -2.42953,1.25046 -3.57565,1.99595 -1.04588,0.69486 -2.05212,1.44523 -3.03443,2.22657 -0.43419,0.39346 -0.90835,0.74156 -1.35275,1.12205 -0.44961,0.38495 -0.86356,0.81487 -1.30143,1.21331 -1.06875,1.14698 -2.10932,2.3196 -3.07561,3.55445 -0.70154,0.90357 -1.2361,1.91238 -1.7309,2.93863 -0.37898,0.8004 -0.66564,1.64047 -0.92641,2.48552 -0.1611,0.55254 -0.30442,1.10989 -0.43339,1.67071 -0.10386,0.43962 0.0334,0.48877 0.40245,0.73304 0.10413,0.0689 0.21018,0.13495 0.31528,0.20241 0,0 0.1468,0.0465 0.1468,0.0465 v 0 c 0.10391,0.001 0.20784,0.001 0.31174,0.003 0.12019,0.002 0.24304,0.0345 0.36051,0.009 0.15298,-0.0332 0.19798,-0.3189 0.22251,-0.42769 0.13593,-0.62469 0.27864,-1.24835 0.45591,-1.86284 0.26103,-0.87157 0.55692,-1.73252 0.9257,-2.56519 0.48378,-1.01265 1.00345,-2.01103 1.68377,-2.90882 0.94082,-1.23323 1.95207,-2.41296 3.03249,-3.52642 0.14644,-0.16267 0.2877,-0.33014 0.43931,-0.488 0.3435,-0.35768 0.51339,-0.47955 0.86976,-0.82469 0.43845,-0.42464 0.8655,-0.85829 1.35961,-1.2216 0.97635,-0.77575 1.97387,-1.52539 3.01562,-2.21187 1.13667,-0.73506 2.31071,-1.40855 3.54104,-1.97619 1.24809,-0.58802 2.50356,-1.16204 3.78901,-1.66461 1.34057,-0.52444 2.69372,-1.0157 4.03361,-1.54189 1.43937,-0.57737 2.88375,-1.15721 4.23495,-1.92501 0.25723,-0.15248 0.51927,-0.29715 0.7717,-0.45745 1.4191,-0.90116 2.68327,-2.02825 3.81164,-3.27007 0.57329,-0.667 0.85483,-0.95905 1.35381,-1.67695 0.73718,-1.0606 1.29812,-2.2335 1.85327,-3.39494 0.77041,-1.7421 1.50082,-3.51011 1.96699,-5.36175 0.0656,-0.29937 0.14435,-0.59616 0.19696,-0.89809 0.26003,-1.49243 0.14263,-3.01266 -0.32817,-4.45159 -0.1139,-0.30242 -0.2136,-0.61058 -0.34171,-0.90726 -0.39843,-0.92263 -0.9638,-1.89084 -1.59,-2.67639 -0.51997,-0.6523 -0.88614,-0.92566 -1.51063,-1.47628 -0.30167,-0.21369 -0.58975,-0.448 -0.90501,-0.64108 -1.62587,-0.99576 -3.50761,-1.45672 -5.40131,-1.48006 -0.82092,0.0423 -1.51981,0.0453 -2.3291,0.22135 -2.08398,0.45347 -4.1479,1.05274 -6.03797,2.05638 -1.02537,0.60934 -1.32497,0.73169 -2.23833,1.49186 -1.30827,1.08884 -2.30857,2.46228 -2.98727,4.02055 -0.35514,1.05617 -0.51756,1.38374 -0.68392,2.48054 -0.27799,1.83283 -0.10813,3.69576 0.45702,5.45776 0.44932,1.11346 0.54589,1.53445 1.23216,2.52371 0.73334,1.05712 1.74287,1.97601 2.93069,2.4962 0.37328,0.16347 0.77871,0.24051 1.16807,0.36077 0.78093,0.0294 1.56149,0.10518 2.34278,0.0881 0.85341,-0.0186 1.58557,-0.24783 2.37949,-0.53308 0.37702,-0.13546 0.75898,-0.26595 1.11309,-0.45329 0.7089,-0.37504 1.43852,-0.97566 2.07277,-1.46316 0.69343,-0.67122 1.03399,-0.93982 1.59817,-1.72912 0.87877,-1.22943 1.35507,-2.67658 1.56405,-4.16112 0.0267,-0.33076 0.07,-0.66059 0.08,-0.99227 0.0439,-1.45616 -0.22856,-2.90881 -0.86746,-4.22024 -0.12907,-0.20438 -0.24369,-0.41863 -0.38723,-0.61313 -0.65146,-0.88278 -1.5417,-1.41658 -2.60233,-1.65018 -0.19395,-0.022 -0.38688,-0.0568 -0.58185,-0.066 -0.30493,-0.0144 -0.87168,0.0179 -1.16997,0.0809 -0.96782,0.20427 -1.92947,0.41402 -2.83372,0.81694 -0.91543,0.48212 -1.65492,1.01994 -2.14713,1.95746 -0.34447,0.82273 -0.43833,1.43642 -0.034,2.26416 0.43675,0.77967 1.02062,1.46742 1.83987,1.86284 0.12832,0.0495 0.25246,0.11156 0.38494,0.14843 0.61551,0.17125 1.25813,-0.0158 1.87248,-0.10304 0.20588,-0.0292 0.52768,-0.14936 0.70567,-0.25176 0.11297,-0.065 0.21177,-0.15198 0.31765,-0.22797 0.0974,-0.0965 0.20385,-0.18457 0.29212,-0.28944 0.44693,-0.53095 0.62054,-1.22102 0.73791,-1.88862 0,0 -0.9243,0.0907 -0.9243,0.0907 z" />
    <path
       style="fill:#000000;stroke-width:0.874001"
       id="path9776"
       d="m 49.28763,252.91915 c -0.646284,-1.09624 -0.994746,-2.31066 -1.298675,-3.53613 -0.225203,-1.08636 -0.40754,-2.18472 -0.473898,-3.29354 -0.04275,-0.71429 -0.02841,-1.06489 -0.02342,-1.77905 0.02225,-1.69433 0.334701,-3.36003 0.773097,-4.99076 0.411917,-1.46639 1.147987,-2.79845 1.877303,-4.12392 0.775537,-1.35594 1.546908,-2.71429 2.322423,-4.07027 0.930992,-1.66504 1.964637,-3.27002 2.987646,-4.87932 1.038114,-1.59934 1.985465,-3.253 2.865366,-4.94386 0.976778,-1.85043 1.715119,-3.80986 2.424282,-5.77416 0.757708,-2.15191 1.301586,-4.37267 1.748157,-6.60769 0.294873,-1.57646 0.344385,-3.18122 0.08679,-4.76589 -0.04645,-0.28574 -0.112919,-0.56787 -0.169379,-0.8518 -0.243287,-1.03799 -0.588544,-2.06409 -1.121772,-2.99254 -0.294169,-0.51221 -0.50618,-0.74608 -0.870495,-1.20787 -1.026523,-1.26557 -2.404674,-2.13939 -3.795636,-2.9498 -0.925161,-0.53939 -1.92823,-0.93646 -2.973803,-1.17019 -0.678889,-0.15177 -0.892138,-0.15569 -1.583901,-0.23161 -1.799834,-0.12485 -3.560533,0.25642 -5.279975,0.75819 -0.277712,0.081 -0.541287,0.20438 -0.81193,0.30657 -1.312227,0.62268 -2.544336,1.5408 -3.481498,2.65736 -0.168479,0.20073 -0.315979,0.41817 -0.473967,0.62725 -0.656251,0.97574 -1.086958,2.08713 -1.211321,3.25993 -0.02096,0.19765 -0.01934,0.39704 -0.02899,0.59557 0.01408,1.41845 0.712108,2.38629 1.582185,3.43646 0.823346,0.93983 1.831943,1.67574 2.89256,2.32255 0.54919,0.27342 1.090573,0.57284 1.677405,0.76088 0.338336,0.10842 0.477557,0.12418 0.823897,0.19022 0.557368,0.0766 1.125122,0.0823 1.68189,-0.004 1.610656,-0.25006 1.108136,-0.11237 1.97962,-0.38521 0.427668,-0.21481 0.89208,-0.38855 1.262909,-0.70147 0.215424,-0.18178 0.34244,-0.3583 0.521005,-0.57609 0.475273,-0.63939 0.817536,-1.35887 1.074057,-2.10976 0.158298,-0.51042 0.235958,-1.02893 0.231148,-1.56187 -0.01558,-0.43861 -0.143711,-0.85124 -0.389697,-1.21283 -0.273735,-0.35363 -0.67777,-0.54422 -1.076044,-0.72221 -0.335571,-0.1512 -0.685559,-0.25354 -1.05238,-0.28264 -0.33155,0.0367 -1.71721,0.11304 -1.05274,0.31746 0,0 0.144859,-0.0144 0.144859,-0.0144 v 0 c 1.387917,-0.28624 -0.789421,0.12038 -0.180795,0.10299 0.336939,0.0464 0.6663,0.13708 0.979826,0.26981 0.383162,0.16114 0.780359,0.32979 1.051369,0.65836 0.23802,0.3372 0.356122,0.72865 0.36997,1.14178 0.0027,0.49971 -0.06495,0.99804 -0.237149,1.46957 -0.256653,0.73725 -0.595564,1.44643 -1.07833,2.06485 -0.511845,0.58894 -1.023633,0.9517 -1.787049,1.15641 -0.69922,0.20383 -0.381045,0.0877 0.39701,0.0223 0.140195,-0.0118 -0.277979,0.0447 -0.417981,0.0586 -0.265888,0.0264 -0.580869,0.0324 -0.84741,0.0199 -0.140205,-0.007 -0.279736,-0.0234 -0.419605,-0.0351 -0.90587,-0.15333 -1.770669,-0.44141 -2.552467,-0.93603 -1.074108,-0.62777 -2.101668,-1.34065 -2.938844,-2.27187 -0.854075,-1.00352 -1.564904,-2.01978 -1.567997,-3.39175 0.009,-0.19433 0.0073,-0.38946 0.02701,-0.58301 0.115882,-1.13903 0.573685,-2.21493 1.201544,-3.16219 0.158012,-0.20556 0.306091,-0.41916 0.474038,-0.61669 0.951677,-1.11931 2.16203,-1.99265 3.469016,-2.64913 0.27192,-0.10227 0.552064,-0.18488 0.815761,-0.3068 0.05487,-0.0254 -0.239668,0.0273 -0.18087,0.0132 1.12022,-0.26743 2.270565,-0.39153 3.421666,-0.31851 0.688697,0.068 0.909325,0.0704 1.585722,0.21414 1.039643,0.22089 2.027073,0.61809 2.97303,1.09661 1.372579,0.78466 2.713948,1.65186 3.781462,2.83542 0.457102,0.56949 0.904452,1.14991 1.235676,1.80554 0.358965,0.71056 0.585012,1.48237 0.777436,2.25112 0.153633,0.75262 0.213,0.95056 0.292909,1.7203 0.133795,1.28883 0.05639,2.584 -0.158869,3.86001 -0.424608,2.23656 -0.993629,4.44405 -1.748612,6.59341 -0.706332,1.96394 -1.471803,3.91188 -2.449516,5.75927 -0.92411,1.66945 -1.892622,3.31332 -2.897825,4.93529 -0.995635,1.59085 -2.028724,3.15778 -2.987992,4.77135 -0.78064,1.34776 -1.562222,2.69519 -2.316874,4.05772 -0.724157,1.35091 -1.428727,2.72635 -1.818291,4.21738 -0.394486,1.61484 -0.629108,3.26134 -0.608738,4.92785 0.02569,1.68469 0.169916,3.36649 0.582237,5.00567 0.31241,1.19544 0.669896,2.42353 1.36792,3.45733 0,0 0.604528,0.29131 0.604528,0.29131 z" />
    <path
       style="fill:#000000;stroke-width:0.874001"
       id="path9778"
       d="m 61.029688,215.36617 c 0.731303,-0.1514 1.422852,-0.40879 2.074413,-0.77029 0.705961,-0.42708 1.265274,-1.03492 1.815589,-1.63934 0.638474,-0.69822 1.235496,-1.43232 1.812777,-2.18145 0.68993,-0.88556 1.326462,-1.80944 1.947206,-2.74418 0.59033,-0.98684 1.203637,-1.95988 1.822379,-2.92913 0.597979,-0.9366 1.259617,-1.82885 1.951106,-2.69781 0.513008,-0.62282 1.089318,-1.19696 1.710769,-1.71208 0.289581,-0.24003 0.59885,-0.45528 0.896324,-0.68547 0.815012,-0.6386 1.699387,-1.1734 2.620367,-1.64247 0.853226,-0.4236 1.772867,-0.63485 2.715114,-0.72529 -0.316637,0.0458 -0.649253,0.0281 -0.949909,0.1375 -0.146103,0.0531 0.310798,0.0175 0.464772,0.039 0.155639,0.0217 0.310422,0.0516 0.462674,0.0906 0.480044,0.12273 0.88545,0.33659 1.309018,0.58564 1.043218,0.64151 1.644457,1.7007 2.198418,2.7535 0.57323,1.16184 0.871701,2.42036 1.058058,3.69469 0.180779,1.46548 0.06778,2.93497 -0.17077,4.38517 -0.22433,1.0954 -0.52877,2.21037 -1.195189,3.12885 -0.115665,0.15942 -0.251201,0.30342 -0.376804,0.45513 -0.612325,0.62659 -1.368295,1.11525 -2.239608,1.27954 -0.16965,0.032 -0.342619,0.0428 -0.513932,0.0641 -0.172844,0.004 -0.691332,0.0188 -0.518533,0.013 0.33105,-0.0112 0.668862,0.0378 0.993291,-0.0291 0.166759,-0.0343 -0.338759,-0.0383 -0.505772,-0.0713 -0.518525,-0.10275 -0.955895,-0.3038 -1.416841,-0.55279 -0.935001,-0.58924 -1.516004,-1.50445 -1.99879,-2.47105 -0.282707,-0.67611 -0.499898,-1.41137 -0.427818,-2.15323 0.01146,-0.11804 0.04261,-0.23333 0.06392,-0.34999 0.206208,-0.73966 0.730411,-1.26025 1.326057,-1.70791 0.265811,-0.17907 0.555022,-0.30714 0.868334,-0.37526 0.09023,-0.0196 0.365564,-0.0521 0.273769,-0.0422 -1.357346,0.1468 -1.580943,0.12159 -0.960839,0.15438 0.397671,0.0603 0.702701,0.28487 0.947123,0.59166 0.09967,0.13507 0.221348,0.29518 0.374201,0.37584 0.58639,0.30945 0.03662,-0.0671 0.416266,0.206 0,0 0.150087,-0.0142 0.150087,-0.0142 v 0 c 0.279562,-0.24342 0.649349,-0.35274 0.490432,-0.79466 -0.199385,-0.37606 -0.533892,-0.60792 -0.944674,-0.71834 -0.790932,-0.109 -0.279807,-0.0575 -1.950333,0.13404 -0.412393,0.0473 -0.789519,0.25863 -1.12526,0.4878 -0.603266,0.4867 -1.118494,1.04553 -1.322739,1.81523 -0.02106,0.12403 -0.05083,0.2469 -0.06318,0.3721 -0.07149,0.72511 0.175011,1.4281 0.450725,2.08499 0.485423,0.97848 1.041876,1.92523 1.959981,2.561 0.385019,0.22687 0.482036,0.30692 0.904541,0.4635 1.131128,0.41919 2.369429,0.28972 3.552809,0.24243 0.443905,-0.0662 0.629719,-0.0711 1.052994,-0.2243 0.687515,-0.24888 1.278499,-0.70427 1.775,-1.23107 0.127045,-0.15862 0.265107,-0.30901 0.381135,-0.47586 0.655899,-0.94319 0.939482,-2.0842 1.158772,-3.19373 0.225303,-1.49852 0.320598,-3.01618 0.100893,-4.52343 -0.209973,-1.31566 -0.492051,-2.61897 -1.09633,-3.81886 -0.563134,-1.07502 -1.251463,-2.0698 -2.220907,-2.82143 -0.145405,-0.0907 -0.285189,-0.19108 -0.436213,-0.27206 -1.22464,-0.65668 -2.363346,-0.52058 -3.737158,-0.34947 -0.921517,0.1137 -1.818658,0.33973 -2.643489,0.78011 -0.888288,0.47862 -1.734473,1.02795 -2.505234,1.68225 -0.907571,0.75845 -1.722956,1.61746 -2.468186,2.53576 -0.675423,0.86735 -1.318213,1.76049 -1.905942,2.69 -0.608598,0.95471 -1.178584,1.93475 -1.821913,2.86645 -0.618615,0.92185 -1.284732,1.809 -1.964187,2.68693 -0.58646,0.74291 -1.184445,1.47734 -1.820321,2.17885 -0.545369,0.59511 -1.100814,1.1941 -1.795936,1.61821 -0.621937,0.35917 -1.291283,0.60138 -1.995021,0.74892 0,0 0.99251,0.0146 0.99251,0.0146 z" />
    <path
       style="fill:#000000;stroke-width:0.874001"
       id="path9780"
       d="m 70.896847,203.28081 c 0.490085,-0.66597 0.889368,-1.3926 1.258961,-2.13049 0.457243,-0.90014 0.732092,-1.87578 1.006158,-2.84307 0.286422,-1.09834 0.590174,-2.19061 0.785138,-3.30964 0.18887,-1.14635 0.288663,-2.30451 0.280469,-3.46593 -0.02717,-1.19205 -0.2804,-2.359 -0.615982,-3.49792 -0.29704,-0.9578 -0.724072,-1.86381 -1.190334,-2.74868 -0.438446,-0.81555 -0.983451,-1.56395 -1.551353,-2.29247 -0.646861,-0.76495 -1.410422,-1.41701 -2.159918,-2.07733 -0.614883,-0.53181 -1.239422,-1.05958 -1.929823,-1.49255 -0.495811,-0.31095 -0.604893,-0.34688 -1.128514,-0.60196 -0.766294,-0.32534 -1.581422,-0.54778 -2.415916,-0.59104 -0.518252,-0.0269 -0.677796,0.007 -1.185526,0.0549 -1.167053,0.24821 -2.395262,0.41534 -3.36183,1.15784 -0.319659,0.24555 -0.425575,0.38416 -0.695365,0.6758 -0.659252,0.80251 -0.82841,1.71415 -0.91082,2.71886 -0.04099,1.1983 0.137229,2.38077 0.435052,3.53749 0.275912,1.00439 0.788746,1.89172 1.47974,2.66258 0.555741,0.56627 1.174218,0.84351 1.943693,0.97737 0.342815,0.0437 0.68852,0.0266 1.029435,-0.0244 1.001353,-0.14985 1.68637,-0.18345 2.539902,-0.5123 0.799576,-0.35586 1.469832,-0.93096 2.06297,-1.56409 0.389911,-0.47371 0.756441,-1.01577 0.894376,-1.62462 0.02559,-0.11296 0.03471,-0.22904 0.05206,-0.34355 5.29e-4,-0.25669 0.02294,-0.46008 -0.06904,-0.70907 -0.159798,-0.43256 -0.532358,-0.85403 -0.960059,-1.03462 -0.226304,-0.0956 -0.474372,-0.12786 -0.711558,-0.19179 -0.228621,-0.03 -0.457242,-0.0599 -0.68586,-0.0899 0,0 -0.08866,0.0253 -0.08866,0.0253 v 0 c 0.07739,0.0768 0.154773,0.15356 0.232159,0.23035 0.04115,0.0996 0.07204,0.20401 0.123446,0.29868 0.06277,0.11559 0.147601,0.21781 0.217522,0.32922 0.263994,0.42062 0.466728,0.84489 0.411062,1.35523 -0.135313,0.7444 -0.451572,1.26324 -0.960988,1.81787 -0.599548,0.62368 -1.269529,1.18485 -2.086501,1.50073 -0.758942,0.26095 -1.317231,0.27278 0.530685,0.0516 0.114642,-0.0137 -0.227846,0.0382 -0.342577,0.0512 -0.335508,0.0378 -0.339294,0.0257 -0.673772,0.0151 -0.737177,-0.0929 -1.398789,-0.34479 -1.943081,-0.8702 -0.72145,-0.73711 -1.214583,-1.58777 -1.509671,-2.58015 -0.305294,-1.15543 -0.504891,-2.33692 -0.445481,-3.53734 0.07482,-1.04022 0.245904,-1.85355 0.928364,-2.67749 0.34222,-0.35174 0.684332,-0.67439 1.116595,-0.91704 0.147823,-0.083 0.628224,-0.2033 0.459362,-0.21823 -0.317966,-0.0281 -0.623774,0.14371 -0.941383,0.1756 -0.186602,0.0187 0.363977,-0.0906 0.545966,-0.13589 0.191939,-0.0236 0.382926,-0.057 0.575815,-0.0709 1.035225,-0.0743 2.058913,0.13725 3.016869,0.52305 0.524526,0.24473 0.632187,0.27751 1.129046,0.57968 0.695949,0.42323 1.32978,0.94042 1.948648,1.46707 0.755404,0.65334 1.520246,1.3028 2.190324,2.04579 0.62085,0.67631 1.149485,1.42508 1.616845,2.21521 0.501621,0.8466 0.964126,1.71736 1.272762,2.65562 0.383871,1.13623 0.671611,2.30729 0.748649,3.50824 0.04703,1.14875 -0.0041,2.29728 -0.215611,3.43012 -0.222393,1.07343 -0.466656,2.14272 -0.772123,3.19601 -0.263906,0.98436 -0.534387,1.96893 -0.921102,2.91381 -0.338378,0.73849 -0.714962,1.46521 -1.222073,2.10422 0,0 0.862843,-0.12192 0.862843,-0.12192 z" />
    <path
       style="fill:#000000;stroke-width:0.874001"
       id="path9784"
       d="m 153.75252,131.38419 c -1.18797,0.52688 -1.73132,1.12587 -2.63966,2.18553 -0.0972,0.11342 -0.13828,0.26485 -0.20741,0.39728 -0.30541,0.78954 -0.31507,1.4233 0.1348,2.16567 0.0945,0.1559 0.21312,0.2958 0.31968,0.4437 0.54443,0.63163 1.24864,1.11319 2.08825,1.23294 0.16021,0.0229 0.32302,0.0204 0.48453,0.0306 0.76531,-0.0414 1.53907,-0.15617 2.22552,-0.52139 0.45565,-0.24243 0.67866,-0.47049 1.06856,-0.80363 1.01543,-0.91952 0.0412,0.002 0.96159,-0.98722 0.16503,-0.17741 0.36025,-0.32652 0.51517,-0.51282 0.11649,-0.14009 0.64751,-0.97092 0.7188,-1.13999 0.28824,-0.68365 0.52088,-1.38943 0.78132,-2.08414 0.16344,-0.79323 0.19674,-1.63095 -0.0604,-2.41185 -0.14913,-0.45291 -0.30502,-0.64 -0.55971,-1.03611 -0.58618,-0.77123 -1.36347,-1.33221 -2.29716,-1.60599 -0.21761,-0.0638 -0.44244,-0.0997 -0.66365,-0.14961 -1.28995,-0.1773 -2.62916,-0.10694 -3.88942,0.23217 -0.30509,0.0821 -0.6024,0.19077 -0.9036,0.28616 -1.40095,0.53907 -2.79999,1.19826 -3.94258,2.19187 -0.20027,0.17415 -0.38255,0.36797 -0.57382,0.55196 -0.93682,0.94306 -1.82187,1.96692 -2.44989,3.14451 -0.39619,0.74288 -0.69333,1.52867 -0.97687,2.31894 -0.50222,1.47066 -0.43016,3.02252 -0.37608,4.54976 0.11327,1.22174 0.28135,2.43591 0.59453,3.62255 0.39191,1.27251 0.91026,2.50003 1.46841,3.70706 0.47921,1.08641 1.04366,2.12897 1.66603,3.1393 0.57359,0.92577 1.1647,1.83959 1.77003,2.74475 0.56773,0.99303 0.95088,2.06397 1.20879,3.17412 0.14156,0.74549 0.21754,1.50862 0.19149,2.26819 -0.0113,0.32978 -0.0676,0.70637 -0.10777,1.02788 -0.18408,1.2091 -0.6445,2.32862 -1.26285,3.37481 -0.63589,1.01882 -1.48832,1.8627 -2.37445,2.66145 -1.09348,0.92763 -2.22258,1.81192 -3.33226,2.72001 -0.74775,0.59852 -1.45913,1.23896 -2.1725,1.87727 -0.68162,0.60988 -0.93781,0.80882 -1.58265,1.47646 -0.27498,0.28469 -0.53379,0.58456 -0.80069,0.87685 -0.88276,0.99969 -1.58839,2.11017 -2.09122,3.34635 -0.17997,0.44246 -0.29156,0.91071 -0.47134,1.35325 -0.16979,0.41797 -0.38396,0.81652 -0.57595,1.22478 0,0 0.0579,0.0159 0.0579,0.0159 v 0 c 0.23153,-0.39711 0.42853,-0.81648 0.6946,-1.19133 0.30176,-0.42513 0.66588,-0.80238 1.00288,-1.20015 0.90165,-1.06426 1.81929,-2.11532 2.74241,-3.16095 0.81174,-0.8935 1.62088,-1.79384 2.50726,-2.61544 0.36568,-0.33894 1.13284,-0.97856 1.52812,-1.30507 0.22826,-0.18855 0.45874,-0.3744 0.68811,-0.56161 1.13291,-0.90586 2.28344,-1.79044 3.39523,-2.72226 0.92052,-0.81561 1.82454,-1.66586 2.50022,-2.7035 0.64125,-1.07411 1.13247,-2.19784 1.33738,-3.44138 0.0325,-0.20153 0.0776,-0.40144 0.0975,-0.6046 0.09,-0.91711 0.0226,-1.85245 -0.13697,-2.75696 -0.2392,-1.13283 -0.61924,-2.22034 -1.19855,-3.22816 -0.23819,-0.49051 -0.3469,-0.73847 -0.61894,-1.20612 -0.42851,-0.73661 -0.90497,-1.44692 -1.33262,-2.18433 -0.65834,-1.116 -1.30312,-2.23975 -1.84523,-3.41835 -0.54847,-1.17872 -1.11625,-2.3553 -1.46389,-3.61377 -0.34656,-1.18658 -0.61126,-2.39473 -0.73278,-3.62694 -0.0304,-0.244 -0.071,-0.48696 -0.0913,-0.73202 -0.10818,-1.30593 0.052,-2.61021 0.35503,-3.8805 0.23687,-0.83644 0.48033,-1.6304 0.90477,-2.39531 0.13341,-0.24044 0.55208,-0.45367 0.43356,-0.70179 -0.10772,-0.2255 -0.71646,0.6862 -0.50341,0.55557 0.22255,-0.13645 0.35537,-0.3825 0.53305,-0.57374 1.3871,-1.13934 2.89789,-2.13255 4.59829,-2.74129 0.29549,-0.0947 0.58715,-0.20234 0.88647,-0.28412 1.27119,-0.34734 2.59641,-0.40923 3.89741,-0.2135 0.21475,0.0472 0.43299,0.0806 0.64426,0.14147 0.96706,0.27872 1.82837,0.8695 2.42751,1.67474 0.65601,1.17331 0.91828,2.06462 0.47649,3.38923 0.11245,-0.28578 0.24979,-0.56298 0.33734,-0.85734 0.0613,-0.20595 -0.15604,0.4016 -0.25804,0.59073 -0.10524,0.19514 -0.24388,0.37037 -0.36161,0.55824 -0.11774,0.18788 -0.20575,0.39611 -0.34473,0.56887 -0.0703,0.0874 -0.92907,0.88514 -1.01554,0.966 -0.6605,0.49484 -0.44102,0.3443 -1.09933,0.78558 -0.56581,0.37928 -1.13486,0.71052 -1.83749,0.72365 -0.15581,-0.004 -0.31233,0.003 -0.46742,-0.0123 -0.78301,-0.0778 -1.45167,-0.46081 -1.96845,-1.04465 -0.60827,-0.87079 -0.75911,-1.37453 -0.33448,-2.38274 0.38602,-0.6613 0.3192,-0.46469 -0.52899,0.32078 -0.10592,0.0981 0.2058,-0.20311 0.31759,-0.29447 0.19468,-0.15909 0.46914,-0.34106 0.7031,-0.44057 0.11188,-0.0476 0.23213,-0.0724 0.3482,-0.10855 0,0 0.83951,-1.16041 0.83951,-1.16041 z" />
    <path
       style="fill:#000000;stroke-width:0.874001"
       id="path9786"
       d="m 145.32379,142.30336 c -1.08851,-0.18644 -2.15238,-0.4841 -3.23084,-0.71516 -1.41689,-0.34729 -2.83425,-0.69632 -4.21272,-1.17608 -1.55204,-0.50101 -3.00042,-1.24971 -4.39686,-2.08191 -1.28038,-0.80691 -2.47742,-1.77211 -3.42693,-2.9593 -0.20874,-0.26099 -0.3936,-0.54023 -0.59039,-0.81034 -1.04256,-1.64109 -1.77083,-3.46757 -2.1111,-5.38395 -0.0698,-0.39303 -0.10806,-0.791 -0.16208,-1.1865 -0.15084,-1.8689 -0.16435,-3.76699 0.17756,-5.61763 0.0573,-0.31008 0.1389,-0.61517 0.20835,-0.92276 0.22458,-0.79332 0.54247,-1.56884 1.01582,-2.24935 0.14333,-0.20607 0.23139,-0.52373 0.47498,-0.58436 0.21492,-0.0535 -0.56217,0.45963 -0.36301,0.55649 0.22076,0.10736 0.38903,-0.2995 0.58354,-0.44924 1.05974,-0.66993 2.24963,-1.06754 3.49671,-1.18737 0.25861,-0.0248 0.51886,-0.0276 0.7783,-0.0415 1.3597,0.0427 2.75818,0.2977 3.9219,1.04612 0.21561,0.13867 0.4089,0.30932 0.61335,0.46398 0.88171,0.81996 1.45108,1.89072 1.66696,3.07462 0.0419,0.22964 0.0561,0.46346 0.0842,0.69519 0.086,1.31225 -0.25469,2.58373 -0.75245,3.78473 -0.39975,0.83206 -0.89064,1.63643 -1.50303,2.33141 -0.15377,0.17451 -0.61995,0.68945 -0.49069,0.49609 0.15176,-0.227 0.37281,-0.39906 0.55921,-0.59859 -0.56955,0.47428 -1.20827,0.89324 -1.92938,1.09661 -0.34357,0.0969 -0.60474,0.11218 -0.95533,0.15137 -0.90469,0.0827 -1.68458,-0.20131 -2.42352,-0.69862 -0.72881,-0.56778 -1.03781,-1.31769 -1.21691,-2.19757 -0.13387,-0.89162 0.1358,-1.73883 0.49758,-2.54145 0.14955,-0.27678 0.17114,-0.34086 0.35313,-0.58828 0.0583,-0.0793 0.25378,-0.3005 0.18608,-0.22911 -1.37131,1.44599 -0.9758,0.99556 -0.40722,0.6326 0.38779,-0.2224 0.81819,-0.2785 1.25339,-0.20181 0.46678,0.12431 0.79146,0.45876 1.0739,0.83072 0.175,0.20234 0.22204,0.18978 0.26119,0.45725 0,0 0.08,-0.0777 0.08,-0.0777 v 0 c 0.23667,-0.4207 0.51139,-0.82471 0.48491,-1.32917 -0.0314,-0.0859 -0.0527,-0.17606 -0.0941,-0.25755 -0.19073,-0.37563 -0.54851,-0.65893 -0.92022,-0.83616 -0.50307,-0.15193 -0.81279,-0.0809 -1.28538,0.13865 -0.21456,0.11475 -0.25364,0.11401 -0.42463,0.29189 -0.68216,0.70964 -1.33183,1.27169 -1.7294,2.14638 -0.34998,0.83269 -0.59531,1.71324 -0.4464,2.62363 0.19719,0.86722 0.52754,1.6997 1.25534,2.25757 0.1147,0.079 0.224,0.16656 0.34409,0.23714 0.66663,0.39175 1.43919,0.54861 2.20413,0.56267 0.16176,-0.0155 0.32523,-0.0183 0.48528,-0.0465 0.91554,-0.161 1.74956,-0.6332 2.46407,-1.20879 0.51297,-0.50087 1.03907,-0.98865 1.53892,-1.50262 0.16321,-0.16782 0.30241,-0.35753 0.44822,-0.54067 0.58091,-0.72965 1.10992,-1.50552 1.47953,-2.36562 0.50547,-1.2892 0.77733,-2.46459 0.64687,-3.86313 -0.0329,-0.2351 -0.0521,-0.47252 -0.0986,-0.7053 -0.24538,-1.22649 -0.85942,-2.31699 -1.78771,-3.15491 -0.19809,-0.14659 -0.38614,-0.3078 -0.59425,-0.43976 -1.20768,-0.7658 -2.6498,-1.05334 -4.05786,-1.12718 -0.26342,0.0125 -0.52759,0.0141 -0.79027,0.0376 -1.24807,0.11166 -2.48144,0.46459 -3.52138,1.17698 -1.11725,0.82465 -0.59471,0.3755 -2.02022,2.03327 -0.29444,0.34241 -0.64796,0.83736 -0.85705,1.23773 -0.26281,0.5032 -0.4162,1.00917 -0.6024,1.5433 -0.19364,0.80126 -0.27382,1.0349 -0.37503,1.87073 -0.18469,1.52515 -0.16429,3.0705 -0.0351,4.59849 0.0522,0.40167 0.0874,0.80591 0.15657,1.205 0.32759,1.89005 1.04083,3.69936 2.0147,5.34634 0.19302,0.27142 0.37123,0.554 0.57905,0.81426 0.18416,0.23063 0.39008,0.44329 0.59483,0.65585 0.85214,0.88467 1.79678,1.67421 2.84078,2.32365 1.39508,0.83405 2.82668,1.61268 4.38522,2.09949 1.39059,0.39829 2.78031,0.80223 4.19357,1.1145 1.09542,0.26068 2.21544,0.40083 3.30936,0.67219 0,0 1.1009,-0.72866 1.1009,-0.72866 z" />
  </g>
</svg>
