<?xml version="1.0" encoding="UTF-8" standalone="no"?>
<!-- Created with Inkscape (http://www.inkscape.org/) -->

<svg
   width="400"
   height="400"
   viewBox="0 0 105.83333 105.83333"
   version="1.1"
   id="svg1854"
   xmlns="http://www.w3.org/2000/svg"
   xmlns:svg="http://www.w3.org/2000/svg">
  <defs
     id="defs1851" />
  <g
     id="layer1">
    <g
       id="g19522"
       transform="translate(-58.565526,-70.949624)">
      <path
         style="fill:#000000;stroke-width:0.264583"
         id="path1975"
         d="m 79.199705,132.06576 c 1.605528,-2.46172 2.81311,-5.1441 4.194449,-7.72998 1.826919,-3.33346 3.975861,-6.5037 6.549777,-9.30967 0.548392,-0.59782 1.139825,-1.1547 1.709741,-1.73206 0.4984,-0.43339 0.977121,-0.8905 1.495198,-1.30017 0.9816,-0.7762 1.778182,-1.25646 2.852008,-1.86686 1.247974,-0.70939 2.057935,-1.14252 3.432607,-1.67239 0.708255,-0.273 1.439065,-0.48343 2.158605,-0.72515 4.32842,-1.12531 8.82387,-1.47002 13.28455,-1.29453 0.8367,0.0329 1.6713,0.10642 2.50696,0.15963 2.3508,0.24004 4.72053,0.56288 6.97568,1.30175 1.47605,0.48361 2.42361,0.97568 3.84114,1.59081 0.81289,0.35276 1.63082,0.69383 2.44622,1.04075 0.83081,0.32041 1.66037,0.64409 2.49245,0.96124 2.25867,0.86087 2.50703,0.90716 4.71102,1.85043 1.75779,0.75231 3.46259,1.61503 5.17736,2.4585 1.77276,0.8544 3.56163,1.7138 5.46253,2.24804 0.75526,0.21226 0.91869,0.21678 1.66849,0.33518 1.55254,0.12714 3.10778,0.23964 4.66399,0.31381 0.34169,0.026 0.68348,0.0206 1.02373,0.0508 0.24205,0.0135 0.47572,0.0396 0.71807,0.0147 -0.10261,0.0221 0.1489,-0.0238 0.11264,-0.0129 -0.0232,0.007 -0.091,-3.1e-4 -0.0712,0.0136 0.28846,0.20242 0.0693,-0.61956 -0.2107,-0.77208 -0.25325,-0.13798 -0.56843,0.0981 -0.85264,0.14711 -0.31267,0.0819 -0.62802,0.15424 -0.93801,0.24581 -0.58338,0.17234 -1.11839,0.38406 -1.69084,0.58766 -1.14316,0.40659 -2.29229,0.79569 -3.43556,1.20207 -1.43062,0.5118 -2.83527,1.09801 -4.11501,1.92641 -0.99941,0.64694 -1.90481,1.45334 -2.81868,2.21191 -2.19752,1.78753 -4.40613,3.55988 -6.66664,5.26718 -1.72391,1.21027 -3.43293,2.47972 -5.31135,3.44779 -0.22781,0.1174 -1.45243,0.67717 -1.66963,0.77703 -1.28395,0.64661 -2.66183,1.05684 -4.01946,1.51214 -0.89692,0.30079 -1.79097,0.61013 -2.68767,0.91158 -2.12291,0.74947 -4.3134,1.27532 -6.51243,1.74394 -1.29812,0.26758 -2.60286,0.51828 -3.93002,0.57734 -0.47135,0.021 -1.45643,0.0187 -1.9064,0.0201 -1.61753,0.005 -3.23419,-0.0284 -4.84969,-0.10777 -1.33993,-0.0394 -2.67091,-0.19726 -4.00425,-0.32159 -1.047512,-0.0381 -2.085936,-0.17247 -3.125293,-0.29766 -1.111777,-0.17371 -2.207639,-0.43643 -3.293882,-0.72725 -1.59236,-0.43769 -3.184883,-0.86206 -4.745605,-1.40444 -0.869776,-0.33695 -1.747952,-0.65597 -2.647278,-0.905 -0.635264,-0.17686 -1.263432,-0.37395 -1.88331,-0.59843 -0.651853,-0.23776 -1.300593,-0.48388 -1.957725,-0.70678 -0.6472,-0.21107 -1.288435,-0.4395 -1.931821,-0.66183 -0.368292,-0.11945 -0.726847,-0.2594 -1.100848,-0.35996 -0.310119,-0.14546 -0.686362,-0.1057 -0.998738,-0.22583 -0.178697,-0.0813 -0.364384,-0.12581 -0.561651,-0.0887 -0.05604,0.0106 -0.217002,0.0427 -0.161605,0.0562 0.12893,0.0316 0.265493,0.001 0.398238,0.002 -0.240203,-0.1474 -0.192526,-0.17406 -0.370509,0.11553 0,0 -0.108254,0.0333 -0.108254,0.0333 v 0 c -0.076,0.81605 3.78e-4,0.58244 -0.06927,0.52825 1.369316,0.27316 -0.124806,-0.0261 0.626177,0.19102 0.336483,0.0911 0.690129,0.11105 1.019879,0.23379 0.353934,0.0937 0.69029,0.23524 1.040824,0.34161 0.645008,0.22288 1.287884,0.45181 1.936688,0.66349 0.651518,0.22071 1.292985,0.46941 1.942061,0.69716 0.641303,0.23219 1.292477,0.43057 1.949636,0.61341 0.882036,0.24271 1.740933,0.56121 2.595246,0.88679 1.581007,0.54471 3.190878,0.9828 4.804112,1.42035 1.125807,0.30433 2.2637,0.57079 3.41694,0.74896 1.047291,0.12098 2.092408,0.26244 3.147628,0.29804 1.34567,0.12152 2.68848,0.28602 4.04066,0.3222 1.63011,0.08 3.26139,0.11304 4.89356,0.10488 0.57044,-7.7e-4 1.3893,0.005 1.96678,-0.0224 1.36637,-0.0656 2.70901,-0.3226 4.04554,-0.59982 2.22838,-0.48342 4.44856,-1.02235 6.59947,-1.78817 0.89366,-0.30446 1.78463,-0.61674 2.67841,-0.92084 1.38412,-0.47093 2.78711,-0.89946 4.09842,-1.55789 0.36351,-0.16717 1.36694,-0.62321 1.72253,-0.80824 1.90741,-0.99256 3.6448,-2.28357 5.39515,-3.52101 2.26776,-1.71716 4.48607,-3.49627 6.69066,-5.29371 0.88106,-0.73146 1.75209,-1.51441 2.71388,-2.14088 1.23695,-0.8057 2.5992,-1.36836 3.98294,-1.86711 1.14498,-0.40703 2.29621,-0.79548 3.44064,-1.20391 0.52424,-0.18708 1.08933,-0.40753 1.6238,-0.56669 0.29106,-0.0867 0.58717,-0.15537 0.88076,-0.23305 0.2255,-0.0445 0.49821,0.0117 0.67652,-0.13337 0.86371,-0.70261 0.54059,-0.80229 0.11658,-0.74972 -0.18913,0.0285 -0.37151,-0.0168 -0.56209,-0.0152 -0.35124,-0.0311 -0.70307,-0.0252 -1.0553,-0.051 -1.52982,-0.0692 -3.05807,-0.18363 -4.58497,-0.29803 -0.69368,-0.10565 -0.86254,-0.11188 -1.56416,-0.30504 -1.86779,-0.5142 -3.62181,-1.36167 -5.36751,-2.18519 -1.73291,-0.8424 -3.45716,-1.7018 -5.23408,-2.44963 -2.2024,-0.92689 -2.48561,-0.98453 -4.73527,-1.82641 -0.82756,-0.30969 -1.65263,-0.62599 -2.47896,-0.93899 -0.81529,-0.33765 -1.63358,-0.66813 -2.44586,-1.01295 -1.56575,-0.66467 -2.30276,-1.07206 -3.93801,-1.59187 -2.29658,-0.73002 -4.70275,-1.05204 -7.09359,-1.26766 -0.84411,-0.047 -1.68737,-0.11355 -2.53235,-0.14099 -4.51343,-0.14664 -9.06087,0.2142 -13.43528,1.37101 -0.73194,0.24793 -1.475576,0.4637 -2.195819,0.74381 -1.40507,0.54644 -2.203441,0.97931 -3.473002,1.71089 -1.10593,0.63728 -1.891814,1.11728 -2.903246,1.92573 -0.523913,0.41876 -1.008277,0.88474 -1.512416,1.32712 -0.574976,0.58576 -1.17165,1.15099 -1.724925,1.75729 -2.585571,2.8334 -4.742371,6.03271 -6.563075,9.40184 -1.358446,2.59348 -2.530933,5.28549 -4.083212,7.77514 0,0 0.208191,0.12375 0.208191,0.12375 z" />
      <path
         style="fill:#000000;stroke-width:0.264583"
         id="path1977"
         d="m 78.436947,132.68042 c -0.167026,0.15651 -0.321667,0.33204 -0.511394,0.46291 -0.04687,0.0323 -0.135946,0.0733 -0.183487,0.10213 -0.274992,0.19938 -0.569016,0.37037 -0.861455,0.54243 -0.381166,0.19657 -0.758618,0.39986 -1.135919,0.60378 -0.318428,0.17707 -0.632095,0.36227 -0.947278,0.54489 -0.337036,0.18585 -0.6672,0.38354 -0.995188,0.58482 -0.303028,0.17867 -0.60484,0.35934 -0.896982,0.55542 -0.192987,0.12318 -0.390829,0.23945 -0.589796,0.35295 -0.157606,0.0869 -0.307002,0.18769 -0.459801,0.28266 -0.160665,0.10595 -0.320531,0.21374 -0.470823,0.3342 -0.125082,0.11415 -0.251669,0.22629 -0.383396,0.33271 -0.125971,0.12149 -0.254523,0.23838 -0.389502,0.34991 -0.08683,0.0643 -0.157158,0.1506 -0.244995,0.21338 -0.0822,0.0659 -0.157319,0.1418 -0.235622,0.21306 -0.106418,0.10278 -0.224083,0.19279 -0.335327,0.29025 -0.01348,0.0134 -0.02628,0.0276 -0.0404,0.0402 -0.0024,0.002 -0.0017,-0.006 7.5e-5,-0.009 0.0041,-0.006 0.02053,-0.0146 0.01459,-0.0133 -0.01724,0.003 -0.103545,0.0502 -0.10657,0.0518 -0.06709,0.0584 -0.130879,0.11243 -0.203138,0.16178 0.02682,-0.0367 -0.149716,0.1249 -0.09669,0.0874 0.03936,-0.0278 0.07247,-0.0643 0.113482,-0.0895 0.01823,-0.0115 0.19448,-0.0554 -0.02153,0.001 -0.280097,0.0778 0.202178,0.17354 0.244596,0.5696 0.03133,0.29248 -0.424964,-0.17366 -0.267376,-0.002 0.13289,0.12993 0.279438,0.24458 0.426757,0.35743 0.188306,0.12709 0.356095,0.27944 0.524868,0.43041 0.07436,0.0719 0.156651,0.13535 0.227981,0.21036 0.04992,0.0601 0.09545,0.0989 0.174716,0.13328 0.03113,0.014 0.130323,0.0382 0.10031,0.0219 -0.03952,-0.0213 -0.08613,-0.0251 -0.129202,-0.0376 -0.06052,-0.0514 -0.110847,-0.0769 -0.131248,-0.16077 -0.01273,-0.0525 0.03075,-0.12812 -0.01145,-0.16193 -0.04047,-0.0319 -0.02372,0.11029 0.0025,0.15473 0.05593,0.095 0.127747,0.28177 0.229076,0.23849 0.191625,-0.0819 0.251604,-0.33228 0.378051,-0.49794 0.0433,0.28796 0.0573,0.12676 -0.0068,0.30184 -7.48e-4,0.002 0.005,-7e-5 0.0068,-0.002 0.01159,-0.009 0.0226,-0.0192 0.0335,-0.029 0.05405,-0.049 0.03959,-0.0367 0.09834,-0.10272 0.104851,-0.11116 0.219352,-0.21569 0.330271,-0.3221 0.183519,-0.16559 0.364713,-0.33375 0.546988,-0.50074 0.172289,-0.15082 0.353333,-0.28895 0.537727,-0.42435 0.232128,-0.18549 0.48455,-0.34322 0.733307,-0.50502 0.239107,-0.1604 0.509817,-0.26234 0.765798,-0.39169 0.271891,-0.14009 0.533545,-0.29865 0.802073,-0.44481 0.337354,-0.17694 0.663945,-0.37405 1.004838,-0.54413 0.291604,-0.15275 0.593021,-0.28465 0.895952,-0.41294 0.32315,-0.14805 0.645246,-0.29679 0.978427,-0.4211 0.309961,-0.11803 0.626511,-0.21713 0.937112,-0.33365 0.348882,-0.14493 0.699439,-0.28651 1.033262,-0.4641 0.219124,-0.11043 0.435968,-0.22505 0.653603,-0.33829 0.118188,-0.0678 0.232701,-0.14034 0.341717,-0.22202 0.04834,-0.0362 0.09285,-0.077 0.14629,-0.10522 0.123973,-0.072 0.227456,-0.17414 0.353407,-0.24253 0.0968,-0.0615 0.15892,-0.10576 0.278353,-0.19123 0.04858,-0.0374 0.06895,-0.0394 0.134521,-0.0819 0.0666,-0.0429 0.136198,-0.0929 0.181178,-0.15964 0.0075,-0.0112 -0.01813,0.0198 -0.02676,0.03 0.05997,-0.0328 0.109803,-0.0889 0.154145,-0.14441 0.10073,-0.0453 -0.132178,0.11948 -0.09755,0.0914 0.02306,-0.0181 0.04884,-0.0321 0.07053,-0.0516 0.278743,-0.24838 -0.14036,-0.29365 -0.438248,-0.48888 -0.266455,0.21737 0.493854,0.52752 0.451611,0.47843 -0.142821,-0.16597 -0.289004,-0.32907 -0.437741,-0.48975 -0.0028,-0.003 -0.01184,0.004 -0.0089,0.007 0.08857,0.0832 0.182211,0.16087 0.273354,0.24127 0,0 -0.105833,-0.0404 -0.105833,-0.0404 v 0 c 0.08278,0.10226 0.162767,0.20682 0.24837,0.30674 0.0028,0.003 0.01073,-0.005 0.0087,-0.007 -0.128631,-0.17717 -0.260176,-0.35225 -0.394789,-0.52491 -0.0026,-0.003 -0.01154,0.004 -0.009,0.007 0.392232,0.53062 0.566183,0.37934 0.392831,0.52643 -0.164304,-0.12818 -0.347731,-0.23478 -0.493625,-0.38357 -0.01544,-0.0162 0.06849,-0.10605 0.08326,-0.11785 0.01687,-0.0147 0.07423,-0.0259 0.05541,-0.0381 -0.01903,-0.0126 -0.04045,0.0218 -0.05765,0.0366 -0.028,0.0249 -0.05218,0.054 -0.07834,0.081 0.03663,-0.0419 0.114427,-0.0886 -0.0012,-0.012 -0.08112,0.0699 -0.06738,0.0702 -0.125216,0.11229 -0.05004,0.0345 -0.106772,0.0584 -0.153886,0.0977 -0.06798,0.0487 -0.175806,0.12999 -0.220214,0.15415 -0.130803,0.0754 -0.247391,0.16979 -0.372533,0.25379 -0.154297,0.0996 -0.292603,0.22165 -0.454324,0.3102 -0.21513,0.1175 -0.433787,0.22789 -0.65111,0.34138 -0.310351,0.16543 -0.636747,0.2958 -0.961078,0.43125 -0.307646,0.11995 -0.624562,0.21301 -0.932659,0.33196 -0.338896,0.12679 -0.66823,0.27408 -0.998844,0.42069 -0.322068,0.12628 -0.64286,0.25661 -0.948502,0.41962 -0.347239,0.1745 -0.681597,0.37306 -1.025107,0.55472 -0.262557,0.14317 -0.519665,0.2961 -0.784323,0.43548 -0.278523,0.14125 -0.572533,0.25304 -0.832809,0.42836 -0.254208,0.17067 -0.518081,0.3281 -0.756554,0.5211 -0.205909,0.14672 -0.404358,0.30176 -0.597393,0.4651 -0.189843,0.16884 -0.374288,0.34335 -0.563195,0.51317 -0.127717,0.12253 -0.259703,0.24193 -0.37948,0.37173 -0.02424,0.0469 -0.0932,0.0775 -0.123684,0.11716 -0.155432,0.20177 -0.101842,0.157 -0.09483,0.44978 0.138045,-0.14183 0.225328,-0.36602 0.414142,-0.4255 0.09786,-0.0308 0.154605,0.14066 0.203784,0.23072 0.02244,0.0411 0.0108,0.18568 -0.0011,0.14042 -0.01491,-0.0568 0.0044,-0.11874 -0.0083,-0.17608 -0.0203,-0.0919 -0.08122,-0.12697 -0.145898,-0.18515 -0.04854,-0.0159 -0.09852,-0.0283 -0.145775,-0.0477 -0.0248,-0.0106 0.0544,0.008 0.07862,0.0201 0.101253,0.0498 0.12288,0.10769 0.04596,0.0164 -0.08302,-0.0854 -0.174278,-0.1614 -0.262625,-0.241 -0.180797,-0.16157 -0.361043,-0.3241 -0.561936,-0.46109 -0.118808,-0.0901 -0.237043,-0.18109 -0.344371,-0.28477 -0.01037,-0.0112 -0.01998,-0.0232 -0.03101,-0.0337 -0.02144,-0.0193 -0.383503,-0.3732 -0.398219,-0.12501 -0.01227,0.20676 0.181105,0.37295 0.258191,0.5652 0.0059,0.0154 -0.03108,0.0113 -0.03817,0.0108 -0.155137,0.0322 -0.01335,0.005 0.01218,-0.01 0.237019,-0.13679 0.139772,-0.10561 0.09318,-0.0705 0.03069,-0.0214 0.18882,-0.13666 0.188467,-0.15573 -1.46e-4,-0.01 -0.01926,0.009 -0.02849,0.0145 0.07572,-0.0386 0.16858,-0.0769 0.221121,-0.1508 0.10849,-0.10171 0.226262,-0.19273 0.331674,-0.29752 0.0171,-0.015 0.171441,-0.15679 0.169849,-0.16362 -6.61e-4,-0.004 -0.01604,0.007 -0.01196,0.005 0.01516,-0.0123 0.0322,-0.0223 0.04834,-0.0335 0.08737,-0.072 0.165948,-0.15418 0.249981,-0.23009 0.131853,-0.11343 0.257922,-0.23148 0.377539,-0.35767 0.127216,-0.10824 0.254262,-0.21693 0.374497,-0.33299 0.132251,-0.10836 0.275307,-0.20387 0.414166,-0.30347 0.148914,-0.0927 0.293571,-0.1922 0.445075,-0.28062 0.206828,-0.12402 0.409569,-0.25526 0.612271,-0.38574 0.283162,-0.20009 0.577909,-0.38175 0.870191,-0.56809 0.315234,-0.21174 0.629768,-0.42524 0.965814,-0.6034 0.306353,-0.18722 0.614854,-0.3705 0.926559,-0.5488 0.379553,-0.20925 0.763728,-0.40953 1.145821,-0.61389 0.299539,-0.17642 0.597442,-0.35976 0.864459,-0.58355 0.06495,-0.0502 0.133271,-0.094 0.195478,-0.14769 0.185243,-0.15996 0.349506,-0.34174 0.512995,-0.52339 0,0 -0.228613,-0.21305 -0.228613,-0.21305 z" />
      <path
         style="fill:#000000;stroke-width:0.264583"
         id="path1979"
         d="m 79.05643,132.48694 c 0.05184,-0.073 0.102861,-0.1465 0.15469,-0.21945 0.02957,-0.0402 0.05958,-0.0802 0.08876,-0.12066 0.0076,-0.0108 0.03143,-0.0259 0.02075,-0.0336 -0.140277,-0.1022 -0.304549,-0.0712 -0.207784,-0.14373 0.06452,0.0568 0.1204,0.12518 0.192907,0.17149 0.01154,0.007 0.01849,-0.0203 0.02654,-0.0314 0.04662,-0.0675 0.03084,-0.0631 0.03141,-0.17186 5.15e-4,-0.006 -0.0046,-0.023 -0.0036,-0.0172 0.0056,0.0339 0.01169,0.0677 0.01752,0.10153 -0.0021,0.01 0.01408,-0.0279 0.01414,-0.0199 5.14e-4,0.008 -0.0045,0.0147 -0.0065,0.0225 -0.0013,0.005 -0.0074,0.0204 -0.006,0.0151 0.05431,-0.14113 0.05083,-0.0767 0.03616,-0.19234 0.03376,0.0629 -0.02752,0.166 0.03172,0.0354 0.01075,-0.0544 0.05693,-0.13027 0.02244,-0.17976 -0.125506,-0.0962 -0.06513,-0.0757 -0.166138,-0.0954 0,0 -0.06501,0.0928 -0.06501,0.0928 v 0 c -0.06487,0.0122 -0.02218,0.011 -0.121203,-0.0418 -0.02806,0.0318 -0.0185,0.0688 -0.03122,0.11057 -5.16e-4,0.006 -0.0083,0.0148 -0.0024,0.0186 0.005,0.003 0.01144,-0.0191 0.0095,-0.0139 -0.02444,0.0661 -0.04166,0.11948 -0.01555,0.18932 -0.0064,-0.10199 -0.01062,-0.0219 0.04065,-0.15175 0.01622,-0.041 -0.06987,0.12631 -0.04962,0.12091 0.0039,0.0408 0.0064,0.0817 0.01143,0.12233 0.0042,0.034 0.01057,-0.0677 0.01871,-0.10102 7.36e-4,-0.004 0.01203,-0.0131 0.01118,-0.009 -8.84e-4,0.008 -0.0089,0.0139 -0.01297,0.0212 0.04236,0.0834 0.08468,0.16672 0.127013,0.25008 0.136509,-0.0887 0.06203,-0.0887 -0.123464,-0.22745 -0.0048,-0.004 -0.0045,0.0112 -0.008,0.0161 -0.02618,0.0428 -0.05407,0.0845 -0.08113,0.12683 -0.04855,0.0752 -0.09872,0.14931 -0.148085,0.22397 0,0 0.193564,0.13215 0.193564,0.13215 z" />
      <path
         style="fill:#000000;stroke-width:0.264583"
         id="path1981"
         d="m 69.643375,138.71706 c -0.189793,0.12219 -0.434632,0.19082 -0.59188,0.36311 -0.03474,0.0376 -0.07829,0.16101 -0.114685,0.18282 -0.125464,0.11331 -0.257124,0.21985 -0.385593,0.33008 -0.128356,0.12987 -0.268069,0.24748 -0.401082,0.37243 -0.183873,0.15672 -0.370161,0.31052 -0.556897,0.46388 -0.146964,0.11057 -0.303817,0.20769 -0.456115,0.3111 -0.174318,0.11587 -0.351597,0.22564 -0.532408,0.33121 -0.122574,0.085 -0.260945,0.14091 -0.392494,0.2094 0.02853,-0.0215 -0.03239,-0.0124 -0.04469,-0.008 -0.200182,0.0958 -0.125636,0.0532 0.311823,0.53322 0.02651,0.0292 0.07318,-0.0294 0.110059,-0.0434 0.121865,-0.046 0.244612,-0.0887 0.365928,-0.13617 0.21191,-0.10697 0.43422,-0.18944 0.654708,-0.27675 0.179791,-0.0756 0.368385,-0.12432 0.554078,-0.18226 0.110656,-0.0452 0.227732,-0.0495 0.344693,-0.0597 0.18651,-0.019 0.373143,-0.0365 0.559621,-0.0558 0.188497,-0.0249 0.37857,-0.0369 0.565634,-0.0715 0.05403,-0.0146 0.103115,-0.004 0.157838,-0.001 0.08401,-0.009 0.168179,-10e-4 0.252358,-0.003 0.109018,0.002 0.216813,-0.0174 0.324908,-0.0292 0.159915,-0.005 -0.06323,-0.004 0.08208,-0.003 -0.04154,0.01 0.08564,-0.008 0.126709,-0.0195 0.02663,-0.008 0.220683,-0.13847 0.03939,-0.0203 0.139036,-0.0281 0.249184,-0.13614 0.346655,-0.23132 0.126716,-0.11759 0.239852,-0.24574 0.335274,-0.38967 0.05307,-0.0935 0.11039,-0.18489 0.180795,-0.26638 0.04893,-0.0656 0.08305,-0.11371 0.0994,-0.20429 0.007,-0.0389 -0.0049,-0.0791 -0.0041,-0.1187 5.15e-4,-0.006 0.004,0.0115 0.0061,0.0168 -0.0024,0.0414 0.0016,0.1647 -0.0071,0.12422 -0.0158,-0.0725 -1.31e-4,-0.14924 -0.01416,-0.22211 -0.0055,-0.0288 -0.02256,-0.0559 -0.0433,-0.0766 -0.0971,-0.0974 -0.156577,-0.12503 -0.276286,-0.14942 -0.139614,-0.0224 -0.281048,-0.007 -0.418773,0.0201 -0.16402,0.0232 -0.324106,0.0638 -0.482896,0.11028 -0.241153,0.079 -0.489665,0.12673 -0.737502,0.17849 -0.23555,0.0584 -0.454378,0.16453 -0.685784,0.23614 -0.105843,0.0156 -0.204229,0.0756 -0.310124,0.0874 -0.07607,0.0179 -0.15283,0.0295 -0.228855,0.0481 -0.103442,0.049 -0.153983,0.0214 -0.01321,0.0284 0.09299,0.0231 0.07998,0.016 -0.162562,0.0234 -0.05564,0.002 0.201787,-0.0365 0.09441,-0.0123 -0.248625,0.0559 -0.0077,-0.0168 -0.131275,0.0219 -0.06017,0.0275 -0.05595,0.0215 -0.11062,0.0638 -0.01428,0.0111 0.03109,-0.0189 0.04492,-0.0306 -0.02016,0.01 -0.03761,0.023 -0.05499,0.0367 0.123662,0.11964 0.229418,0.26112 0.370996,0.35891 0.02384,0.0164 0.04225,-0.0394 0.06359,-0.0588 0.15768,-0.14451 0.320921,-0.28069 0.488341,-0.41374 0.199829,-0.16947 0.408381,-0.32875 0.60146,-0.50607 0.140185,-0.10839 0.269003,-0.23175 0.389228,-0.3618 -0.243913,0.0856 0.02802,0.0228 -0.331563,-0.33172 -0.02158,-0.0206 -0.03356,0.0495 -0.05115,0.0737 -0.07322,0.0973 -0.07321,0.0921 -0.16326,0.18737 -0.06908,0.0848 -0.173128,0.1564 -0.219186,0.25966 -0.01328,0.0302 -0.06313,0.0749 -0.03509,0.0924 0.128011,0.0801 0.284438,0.10168 0.426655,0.15253 0.05556,-0.0308 0.11046,-0.0628 0.166673,-0.0923 0.05554,-0.0291 0.112353,-0.0558 0.16869,-0.0835 0.03881,-0.019 0.07726,-0.0389 0.11665,-0.0567 0.0054,-0.002 0.02214,-3.4e-4 0.01731,-0.004 -0.225863,-0.15565 -0.147737,-0.16732 -0.256957,-0.14488 -0.111801,0.25382 -0.234213,0.50947 -0.28283,0.78458 0.02101,0.061 0.01309,0.14214 0.06306,0.18307 0.183614,0.15039 0.564461,-0.0379 0.757572,-0.10518 -0.11491,0.0276 0.159099,-0.0332 -0.213757,-0.17529 -0.03069,-0.0112 -0.02167,0.0614 -0.03395,0.0915 -0.03334,0.0814 -0.07231,0.16076 -0.107177,0.24151 -0.07172,0.22251 -0.02165,0.27779 0.241646,0.31212 0.0312,0.004 0.198886,-0.0435 0.230188,-0.0518 0.158964,-0.043 0.193392,-0.002 -0.09419,-0.2911 -0.0152,-0.016 -0.03269,0.0296 -0.05038,0.0427 -0.04742,0.0348 -0.11292,0.0709 -0.162794,0.10003 -0.06275,0.0365 -0.132154,0.0548 -0.201029,0.0752 -0.01154,0.004 -0.0467,0.0153 -0.03535,0.0105 0.04076,-0.0171 0.0417,-0.0157 0.07549,-0.0206 0.06081,0.081 0.108163,0.17402 0.182391,0.24286 0.01346,0.0123 0.01899,-0.0312 0.0305,-0.0453 0.04444,-0.0577 0.107521,-0.10939 0.128915,-0.18232 0.01221,-0.0406 0.01182,-0.0839 0.01761,-0.12586 -0.04389,-0.059 -0.07328,-0.13233 -0.131673,-0.17703 -0.06627,-0.0507 -0.423158,-0.007 -0.526428,-0.009 -0.09819,-0.007 -0.196151,-0.0278 -0.294936,-0.0259 -8.05e-4,-2.6e-4 -0.0021,-5.3e-4 -0.0022,-3.7e-4 0.06398,0.10453 0.08763,0.24922 0.191902,0.31362 0.05745,0.0356 0.123468,-0.0553 0.186425,-0.08 0.142818,-0.0559 0.289353,-0.10174 0.438895,-0.13527 0.07946,-0.0127 0.02393,0.002 0.01775,-0.009 -0.05109,-0.0919 -0.07726,-0.1977 -0.137145,-0.28416 -0.0093,-0.0142 -0.02075,0.0268 -0.03369,0.0378 -0.01775,0.0159 -0.0374,0.0293 -0.05615,0.0439 -0.09467,0.0655 -0.18833,0.13513 -0.294577,0.18137 -0.04957,0.0216 -0.105765,0.0334 -0.157133,0.0504 -0.01881,0.0106 -0.06802,0.014 -0.05612,0.0318 0.07256,0.10805 0.151606,0.22578 0.26802,0.284 0.04815,0.0239 0.09278,-0.0544 0.139947,-0.0802 0.139361,-0.0763 0.2767,-0.13056 0.426969,-0.18054 0.103014,-0.0231 0.206096,-0.0396 0.29992,-0.0899 -0.03117,0.005 -0.07526,0.0402 -0.09358,0.0144 -0.06214,-0.0872 -0.05072,-0.21297 -0.110895,-0.30159 -0.01484,-0.0219 -0.04868,0.0209 -0.07369,0.0297 -0.03578,0.0128 -0.07175,0.0257 -0.108434,0.0355 -0.09524,0.0252 -0.17666,0.0322 -0.275722,0.0455 0.248246,0.11838 -0.217542,-0.0256 -0.166346,-0.004 0.02496,0.0107 0.05742,0.006 0.07818,0.0241 0.03366,0.0282 0.03499,0.0925 0.07628,0.10742 0.02369,0.009 0.02075,-0.0459 0.03303,-0.0678 0.02156,-0.0398 0.04648,-0.0775 0.06941,-0.11649 0.0933,-0.15205 0.208572,-0.28842 0.314835,-0.4311 0.006,-0.008 0.02259,-0.0174 0.01619,-0.024 -0.08669,-0.0869 -0.186325,-0.1599 -0.279458,-0.23989 -0.223594,0.10487 -0.437993,0.22818 -0.653919,0.34781 -0.06175,0.0337 -0.187075,0.062 0.216089,0.24301 0.04023,0.0181 0.06291,-0.0618 0.09435,-0.0928 0.109481,-0.10409 0.227768,-0.19819 0.346007,-0.29197 0.04765,-0.0378 0.06732,-0.0497 0.06245,-0.0529 -0.108639,-0.0704 -0.226929,-0.12452 -0.340453,-0.18669 -0.176154,0.13268 -0.34486,0.27468 -0.516754,0.41273 -0.02084,0.0167 -0.04149,0.0337 -0.06251,0.0502 -0.0057,0.004 -0.02166,0.007 -0.01743,0.0121 0.07317,0.0838 0.156559,0.15803 0.234813,0.23709 0.232123,-0.13239 0.463754,-0.26531 0.702641,-0.38555 0.09128,-0.0566 0.18569,-0.10414 0.282186,-0.15019 0.253872,-0.14183 0.48284,-0.32261 0.724703,-0.48306 0.122985,-0.0943 0.262934,-0.16678 0.385344,-0.26129 -0.07459,-0.0722 -0.130905,-0.17016 -0.223729,-0.21667 -0.02922,-0.0151 -0.04569,0.0475 -0.06991,0.0696 -0.03234,0.0292 -0.06704,0.0556 -0.10121,0.0827 -0.143567,0.11424 -0.292455,0.21783 -0.444293,0.32065 -0.195381,0.12716 -0.381252,0.27063 -0.536474,0.44528 -0.105041,0.1453 -0.07807,0.23091 0.189791,0.25814 0.0593,0.006 0.106623,-0.0532 0.158864,-0.0819 0.154155,-0.0844 0.245498,-0.14231 0.394941,-0.23322 0.08351,-0.0578 0.171898,-0.1083 0.255436,-0.16607 0.01491,-0.0103 0.05728,-0.0221 0.04294,-0.0332 -0.19123,-0.14653 -0.165961,-0.12444 -0.227875,-0.0217 -0.02077,0.0353 -0.04321,0.0696 -0.06481,0.1044 -0.08155,0.107 -0.172803,0.20542 -0.26636,0.30173 -0.04369,0.0448 -0.08068,0.0832 -0.0784,0.0855 0.06011,0.0602 0.141012,0.0952 0.211522,0.14274 0.257554,-0.17796 0.487253,-0.39259 0.716944,-0.60432 0.02034,-0.0195 0.07553,-0.0326 0.06223,-0.0575 -0.04139,-0.0772 -0.126918,-0.1209 -0.190343,-0.18138 -0.04188,0.0277 -0.08356,0.0557 -0.125719,0.0831 -0.174312,0.11315 -0.212562,0.14176 -0.397046,0.23522 -0.05363,0.0271 -0.107843,0.0532 -0.163674,0.0754 -0.02748,0.0109 -0.05669,0.0173 -0.0856,0.0237 -0.009,0.002 0.01622,-0.007 0.02481,-0.0101 0.04065,0.0358 0.06822,0.0976 0.121393,0.10797 0.02933,0.006 0.03194,-0.0507 0.05034,-0.0743 0.04422,-0.0591 0.08926,-0.1176 0.13739,-0.17356 0.251819,-0.29671 0.533277,-0.56168 0.81672,-0.82742 0.06604,-0.0556 0.130833,-0.11253 0.198037,-0.16667 0.102138,-0.0824 0.265364,-0.13146 -0.132983,-0.21495 -0.04043,-0.009 -0.06057,0.0562 -0.09172,0.0834 -0.170644,0.14873 -0.209389,0.17735 -0.391618,0.32529 -0.193972,0.16517 -0.392619,0.32503 -0.584792,0.49234 -0.04393,0.0383 -0.07816,0.0921 -0.131987,0.1148 0.07115,0.0514 0.126747,0.14155 0.213543,0.15411 0.05464,0.008 0.0853,-0.0702 0.128125,-0.10507 0.19851,-0.16223 0.401626,-0.31844 0.601388,-0.47908 0.06137,-0.0725 0.0896,-0.0989 -0.211694,-0.15894 -0.04628,-0.009 -0.07644,0.0554 -0.114521,0.0833 -0.207411,0.15168 -0.415221,0.29778 -0.632467,0.43517 -0.257188,0.15061 -0.09446,0.0598 -0.298443,0.16622 -0.01565,0.008 -0.05822,0.0126 -0.04602,0.025 0.05852,0.0601 0.124439,0.13825 0.208241,0.14159 0.06488,0.002 0.09834,-0.0849 0.14702,-0.12782 0.06562,-0.0577 0.13061,-0.11614 0.195871,-0.17423 0.268962,-0.24786 0.544849,-0.48802 0.815311,-0.73421 0.02678,-0.0249 0.105059,-0.0479 0.08051,-0.0751 -0.234269,-0.2602 -0.256757,-0.16353 -0.411678,-0.0228 -0.305572,0.25347 -0.624271,0.49697 -0.970646,0.69282 0.144814,-0.067 -0.210385,0.0852 0.226079,0.1798 0.05737,0.0124 0.08125,-0.0847 0.123131,-0.12575 0.13945,-0.13696 0.284639,-0.26804 0.427608,-0.40125 0.01281,-0.0159 0.05533,-0.0341 0.0393,-0.0472 -0.07734,-0.0637 -0.166137,-0.13322 -0.266401,-0.13877 -0.06424,-0.004 -0.104684,0.0751 -0.156377,0.11349 -0.19338,0.14378 -0.384037,0.29148 -0.575507,0.4378 -0.05884,0.0418 -0.117098,0.0843 -0.176405,0.12538 -0.08448,0.0585 -0.402634,0.20905 0.09254,0.23046 0.05982,0.003 0.08941,-0.0797 0.133217,-0.12057 0.06141,-0.0572 0.121457,-0.1158 0.182229,-0.17367 0.05501,-0.0533 0.109456,-0.10729 0.165091,-0.15997 0.138299,-0.13079 0.06811,-0.0629 0.167909,-0.14837 0.003,-0.003 -0.0065,0.009 -0.0095,0.006 -0.06277,-0.0594 -0.10019,-0.15425 -0.180557,-0.186 -0.03718,-0.0147 -0.06012,0.0527 -0.09013,0.079 -0.235161,0.21617 -0.494703,0.4001 -0.754638,0.58393 0.06288,0.065 0.10367,0.16383 0.188544,0.19515 0.04151,0.0154 0.06499,-0.0599 0.09802,-0.0894 0.103694,-0.0922 0.213152,-0.17963 0.313078,-0.27585 -0.103383,-0.0214 -0.206715,-0.0848 -0.31034,-0.0642 -0.0084,10e-4 -0.234566,0.24153 -0.261183,0.27183 -0.01768,0.0209 -0.06468,0.0415 -0.05084,0.0648 0.170872,0.28292 0.195806,0.20761 0.439084,0.14388 0.521934,-0.16599 1.027276,-0.37869 1.518722,-0.61939 0.103273,-0.0437 0.201604,-0.0985 0.303633,-0.14494 0.0088,-0.004 0.03624,-0.009 0.0268,-0.01 -0.161677,-0.0216 -0.01003,0.12412 -0.172905,-0.2022 -0.244879,0.2229 -0.500205,0.4345 -0.753181,0.64824 0.201868,0.0405 -0.147403,0.0585 -0.112487,0.0921 0.0709,0.0683 0.142778,0.14406 0.234659,0.17936 0.03093,0.0114 0.05249,-0.0394 0.07856,-0.0592 0.175558,-0.13424 0.134932,-0.10389 0.33315,-0.26393 0.08851,-0.0717 0.177999,-0.14218 0.265528,-0.21508 0.07579,-0.0632 0.150179,-0.12808 0.224215,-0.19331 0.04331,-0.0381 0.08579,-0.0771 0.127864,-0.11661 0.01078,-0.01 0.03889,-0.0203 0.03015,-0.0312 -0.209495,-0.25688 -0.156924,-0.25362 -0.303767,-0.13144 -0.03648,0.0315 -0.07291,0.0628 -0.109407,0.0943 -0.08948,0.0771 -0.177841,0.15557 -0.268114,0.23173 -0.07823,0.0659 -0.07998,0.0666 -0.148996,0.11506 -0.0077,0.006 0.01579,-0.0115 0.02369,-0.0173 0.0583,0.0764 0.09154,0.18159 0.17506,0.22924 0.0326,0.0188 0.04591,-0.0597 0.06727,-0.0908 0.113192,-0.1607 0.221063,-0.32462 0.336607,-0.4838 0.0697,-0.10432 0.129819,-0.21348 0.197623,-0.31892 0.04843,-0.10619 0.115369,-0.20144 0.1766,-0.30023 0.02377,-0.0612 0.09105,-0.10816 0.108921,-0.17234 0.0088,-0.0308 0.01359,-0.0627 0.02045,-0.0941 0.01125,0.003 -0.02615,0.0598 -0.01893,0.0502 0.115046,-0.15475 -0.03777,-0.1128 -0.268974,-0.2262 -0.197144,0.12668 -0.396833,0.25457 -0.573879,0.4091 -0.09353,0.0816 -0.177235,0.16816 -0.264887,0.25585 -0.167304,0.18392 -0.371563,0.32762 -0.552891,0.4963 -0.07734,0.0893 -0.184052,0.14115 -0.268759,0.22105 -0.01356,0.0191 -0.05909,0.0433 -0.04043,0.0573 0.09184,0.0693 0.19757,0.1363 0.312311,0.14681 0.04905,0.005 0.06863,-0.0709 0.101288,-0.10779 0.122151,-0.13817 0.240031,-0.27778 0.367489,-0.41134 0.134489,-0.13388 0.266905,-0.27001 0.385343,-0.41838 5.56e-4,-8.3e-4 0.04078,-0.0578 0.04505,-0.067 0.0031,-0.008 -0.0079,0.0143 -0.01381,0.0199 -0.0088,0.009 -0.04126,0.0261 -0.02931,0.0229 0.127343,-0.0336 -0.09286,-0.1645 -0.196996,-0.27626 -0.232384,0.17138 -0.458446,0.35271 -0.684064,0.53342 -0.133309,0.10778 -0.231008,0.16422 0.200297,0.245 0.0481,0.009 0.07629,-0.0614 0.114674,-0.0917 0.05404,-0.0427 0.108552,-0.0848 0.162785,-0.12722 0.135193,-0.10578 0.279407,-0.20185 0.399613,-0.32553 0.04709,-0.0477 0.08239,-0.10136 0.134024,-0.14395 0.07464,-0.0774 0.158841,-0.14237 0.242792,-0.20882 0.08427,-0.0802 0.155547,-0.17269 0.24122,-0.25136 0.09485,-0.10608 0.01973,0.006 0.121292,-0.10945 0.04559,-0.0314 -0.03391,0.0215 0.04039,-0.0244 -0.0074,-0.0103 0.04661,-0.0204 0.03432,-0.0288 -0.08288,-0.0578 -0.164671,-0.12597 -0.2624,-0.15193 -0.02634,-0.007 -0.02506,0.0481 -0.03868,0.0715 -0.02566,0.0438 -0.07011,0.10828 -0.09954,0.15043 -0.106448,0.13103 -0.205717,0.2675 -0.308689,0.40123 -0.08519,0.0999 -0.152142,0.21255 -0.217644,0.32588 -0.06967,0.13708 -0.136913,0.27423 -0.172589,0.42428 -0.03163,0.11114 -0.04669,0.22822 -0.08878,0.33613 -0.05269,0.10576 -0.0654,0.23134 -0.124848,0.33346 -0.06786,0.17472 -0.08289,0.2372 0.238015,0.30135 0.0326,0.007 0.161366,-0.14465 0.18129,-0.1666 0.106713,-0.11133 0.170887,-0.25191 0.254082,-0.37936 0.06742,-0.0731 0.09291,-0.16274 0.09261,-0.26008 1.47e-4,-0.004 3.66e-4,0.0114 -0.0038,0.012 -0.113497,0.0202 -0.228144,0.0332 -0.342216,0.0498 0.0062,0.0959 -0.01317,0.18996 -0.01647,0.2852 0.0088,0.1952 0.07007,0.13667 0.353074,0.0902 0.01967,-0.003 0.166785,-0.19579 0.178581,-0.21082 0.049,-0.081 0.131472,-0.15064 0.161648,-0.24295 0.0088,-0.0274 0.0469,-0.073 0.0206,-0.0841 -0.113329,-0.0481 -0.242767,-0.0411 -0.364143,-0.0616 -0.151616,0.1853 -0.288259,0.38266 -0.4123,0.58734 -0.0165,0.0329 -0.03918,0.0715 -0.04503,0.10899 -0.0022,0.0132 0.0088,-0.0256 0.01503,-0.0377 0.0051,-0.0104 0.02988,-0.0343 0.02041,-0.0278 -0.03302,0.0235 -0.04752,0.0654 -0.06462,0.099 -0.02629,0.0611 -0.04628,0.12295 -0.05731,0.18877 0.12279,0.0162 0.244496,0.0516 0.368315,0.0488 0.02198,-4.6e-4 0.02166,-0.0383 0.03206,-0.0577 0.062,-0.11447 0.117486,-0.23171 0.175962,-0.34797 0.06924,-0.12646 0.113475,-0.26801 0.203141,-0.38227 0.06621,-0.0791 0.111964,-0.17125 0.16831,-0.25703 0.03145,-0.0788 0.07751,-0.14531 0.120723,-0.21832 0.02826,-0.0936 0.06746,-0.17603 0.115677,-0.2605 0.05015,-0.0791 0.085,-0.16853 0.120672,-0.2553 0.0022,-0.002 0.0073,-0.009 0.0063,-0.005 -0.02769,0.0613 0.02271,-0.038 0.0438,-0.0636 0.03393,-0.0585 0.04836,-0.12563 0.07854,-0.18446 0.01862,-0.029 0.05943,-0.1706 0.03044,-0.0784 0.04024,-0.0689 0.06772,-0.14307 0.08717,-0.22012 -0.08333,0.18884 0.04064,-0.0183 0.06236,-0.0539 -0.02139,0.11746 0.03359,-0.053 0.01745,-0.0655 -0.0715,-0.0557 -0.164805,-0.0754 -0.247204,-0.11305 0,0 -0.01915,0.11167 -0.01915,0.11167 v 0 c -0.05822,-0.0337 -0.123817,-0.0571 -0.175103,-0.10067 -0.01227,-0.0102 0.0059,-0.0327 6.82e-4,-0.0479 -0.01646,-0.0481 -0.04651,0.23377 -0.05228,0.13494 0.06279,-0.003 0.08731,-0.0998 0.01358,0.0738 0.0088,-0.0138 -0.0097,0.0743 -0.02437,0.0792 -0.02259,0.0447 -0.02403,0.0432 -0.04134,0.10035 -0.0023,0.008 -0.0082,0.033 -0.0041,0.0254 0.0544,-0.10351 0.01742,-0.0574 0.0083,-0.0355 -0.0037,0.008 -0.09908,0.21644 -0.05277,0.14716 -0.02409,0.0365 -0.02398,0.0339 -0.04524,0.0758 -0.0048,0.01 -0.02155,0.0381 -0.01427,0.0298 0.09058,-0.0973 -0.01758,-0.0125 -0.0221,0.0355 -0.03458,0.0739 -0.05922,0.15298 -0.10378,0.22171 -0.04706,0.0829 -0.09757,0.16762 -0.112683,0.26319 -0.03646,0.0688 -0.08933,0.1296 -0.111742,0.20341 -0.047,0.0782 -0.09163,0.15843 -0.147585,0.23059 -0.101293,0.13585 -0.171817,0.28617 -0.24153,0.44014 -0.05681,0.11329 -0.110806,0.22763 -0.169608,0.33991 -0.01159,0.0227 -0.05626,0.0536 -0.03514,0.0677 0.09732,0.0659 0.218722,0.086 0.328113,0.129 -0.01906,0.0616 0.01184,-0.0511 0.01814,-0.0574 -0.06307,0.0748 0.07019,-0.0931 0.05481,-0.10101 0.114086,-0.18947 0.240498,-0.37073 0.378591,-0.54356 -0.08728,-0.061 -0.188462,-0.10593 -0.261835,-0.18305 -0.01687,-0.0185 0.01599,-0.0475 0.01999,-0.072 0.0013,-0.005 -0.0071,0.008 -0.01022,0.0123 -0.01062,0.0144 -0.02078,0.029 -0.0311,0.0437 -0.08552,0.12096 -0.0068,0.0107 -0.09522,0.1343 -0.09461,0.12155 -0.03163,0.0418 -0.122622,0.15496 -0.02109,0.0256 -0.08925,0.0586 -0.0624,0.0773 0.279607,0.19474 0.261935,-0.0294 0.282136,0.11608 -0.0051,-0.0262 -0.0018,-0.003 0.0052,-0.0564 0.01038,-0.0826 0.0103,-0.16579 0.01073,-0.24894 -0.115612,-0.01 -0.23073,-0.0279 -0.346679,-0.0286 -0.0086,-7e-5 -0.005,0.0353 -0.0037,0.0265 0.0153,-0.10314 0.01337,-0.0269 -0.03356,0.0182 -0.07715,0.11285 -0.129376,0.24228 -0.225476,0.34225 -0.01715,0.0202 -0.03672,0.0386 -0.05144,0.0605 -0.02091,0.0322 0.230294,0.31744 0.214108,0.19421 0.05534,-0.1235 0.0904,-0.25432 0.137584,-0.38095 0.03411,-0.12134 0.05201,-0.24593 0.0833,-0.36796 0.02471,-0.12015 0.08276,-0.22801 0.137018,-0.33727 0.05522,-0.10123 0.109655,-0.20343 0.180599,-0.29484 0.10643,-0.13781 0.211343,-0.27693 0.31536,-0.41652 0.01687,-0.0241 0.16077,-0.23953 0.156118,-0.24742 -0.0539,-0.0911 -0.151104,-0.14887 -0.21931,-0.22989 -0.0037,-0.005 0.02377,-0.009 0.01366,-0.0137 0.03169,-0.0228 -0.145779,0.0831 -0.109894,0.0773 -0.0043,0.004 -0.01937,0.0147 -0.01313,0.0129 0.0165,-0.006 0.03567,-0.0103 0.04631,-0.0241 0.0475,-0.0619 -0.07985,0.0438 -0.112489,0.0729 -0.01253,0.0104 -0.02356,0.0222 -0.03534,0.0333 -0.0766,0.0766 -0.154141,0.15188 -0.224895,0.23419 -0.08191,0.0728 -0.170253,0.13851 -0.246802,0.21739 -0.05246,0.0473 -0.0925,0.10064 -0.141346,0.15044 -0.113829,0.11619 -0.249516,0.2099 -0.377324,0.30908 -0.05646,0.0441 -0.113632,0.0874 -0.169324,0.13247 -0.04298,0.0348 -0.127595,0.052 -0.126596,0.10723 0.009,0.46907 0.09239,0.33937 0.219211,0.24615 0.209744,-0.16135 0.414596,-0.32906 0.624684,-0.48986 -0.132327,-0.30299 -0.05492,-0.41345 -0.210126,-0.20776 -0.110745,0.14204 -0.239279,0.26892 -0.36483,0.39766 -0.126753,0.13599 -0.249714,0.27375 -0.370652,0.41484 -0.02484,0.029 -0.09002,0.0501 -0.0761,0.0857 0.03854,0.0986 0.145982,0.15479 0.204511,0.243 0.007,0.0101 -0.01678,0.018 -0.02557,0.0267 0.08198,-0.0699 0.185332,-0.12319 0.255208,-0.21075 0.187848,-0.16864 0.388078,-0.32386 0.561826,-0.50755 0.06417,-0.0642 0.169622,-0.17232 0.239176,-0.23274 0.169645,-0.14753 0.364894,-0.26386 0.552488,-0.38629 -0.06063,-0.0785 -0.123191,-0.15553 -0.181887,-0.23545 -0.002,-0.002 0.0167,-0.0216 0.0141,-0.0177 -0.02684,0.0454 -0.05033,0.0726 -0.05502,0.1268 -0.003,0.0468 -0.0067,0.0643 0.0179,-0.0331 0.0013,-0.005 -0.0043,0.0111 -0.007,0.0164 -0.02683,0.0505 -0.06539,0.0933 -0.09226,0.14382 -0.05746,0.0996 -0.124664,0.19416 -0.168052,0.30123 -0.06092,0.10295 -0.109643,0.21005 -0.175471,0.31006 -0.08661,0.12757 -0.17815,0.2517 -0.263099,0.38038 -0.02627,0.0395 -0.05259,0.0791 -0.07546,0.12073 -0.0052,0.009 -0.01226,0.0203 -0.0083,0.0297 0.03882,0.0913 0.08912,0.17723 0.133666,0.26588 0.212125,-0.1262 0.373364,-0.3266 0.571855,-0.47153 0.145364,-0.11245 0.124184,-0.0548 -0.08273,-0.30551 -0.0067,-0.009 -0.01646,0.0141 -0.02431,0.0215 -0.04145,0.0367 -0.08232,0.0742 -0.124057,0.1107 -0.0724,0.0633 -0.144998,0.1264 -0.21846,0.18846 -0.0865,0.073 -0.174246,0.1445 -0.261323,0.21678 -0.108577,0.0877 -0.216839,0.17586 -0.325793,0.26309 -0.02962,0.0237 -0.09557,0.0331 -0.08947,0.0706 0.0159,0.0971 0.08614,0.17803 0.143307,0.25812 0.02777,0.039 0.09493,-0.29913 0.105988,-0.0967 0.257864,-0.22274 0.520861,-0.43961 0.776426,-0.66485 -0.01504,-0.089 -0.0056,-0.18574 -0.04496,-0.26692 -0.01221,-0.0252 -0.05629,-0.003 -0.08407,10e-4 -0.129356,0.0191 -0.23421,0.13572 -0.359887,0.16498 -0.479389,0.22873 -0.963123,0.44854 -1.469367,0.61301 -0.203709,0.0653 -0.248832,0.0142 -0.154014,0.28363 0.0065,0.0184 0.02242,-0.0322 0.03517,-0.047 0.03247,-0.0378 0.0665,-0.0744 0.100604,-0.11076 0.04928,-0.0524 0.137048,-0.0837 0.151342,-0.15433 0.02144,-0.10546 -0.0369,-0.21218 -0.05535,-0.31827 -0.10554,0.0907 -0.212197,0.18018 -0.315849,0.27303 -0.02613,0.024 -0.08418,0.0377 -0.07833,0.0728 0.01493,0.0896 0.08683,0.15962 0.130218,0.23945 0.26678,-0.18872 0.523743,-0.3904 0.769782,-0.60568 0.153651,-0.13099 0.146942,-0.0691 -0.03682,-0.31219 -0.0029,-0.005 -0.05696,0.0433 -0.0875,0.0712 -0.03847,0.0352 -0.07655,0.0709 -0.11426,0.10692 -0.05494,0.0524 -0.109128,0.10565 -0.163649,0.1585 -0.05904,0.0564 -0.117565,0.11333 -0.177254,0.16904 -0.04268,0.0398 -0.122866,0.0596 -0.129907,0.11755 -0.05069,0.41807 0.102796,0.25775 0.226096,0.16942 0.06032,-0.0433 0.119446,-0.0882 0.179203,-0.13228 0.188858,-0.14436 0.377451,-0.28904 0.572091,-0.42561 0.05381,-0.0378 0.149823,-0.0467 0.163168,-0.11109 0.01915,-0.0928 -0.04059,-0.18724 -0.08408,-0.27135 -0.0076,-0.0154 -0.02646,0.0211 -0.04001,0.0314 -0.148509,0.13462 -0.297266,0.27027 -0.44156,0.40933 -0.04091,0.0392 -0.113758,0.0651 -0.118932,0.1215 -0.0095,0.10523 0.03925,0.20923 0.07993,0.30674 0.0055,0.0139 0.02736,-0.0113 0.04102,-0.0168 0.374997,-0.19484 0.706028,-0.46694 1.032343,-0.73199 0.156232,-0.14507 0.243461,-0.14878 0.0053,-0.40453 -0.02299,-0.0241 -0.04559,0.0491 -0.06937,0.0726 -0.263083,0.25422 -0.53434,0.50009 -0.795787,0.75606 -0.06192,0.0594 -0.123268,0.11947 -0.185815,0.17825 -0.04345,0.0409 -0.120445,0.062 -0.132187,0.12052 -0.01755,0.087 0.021,0.17867 0.05551,0.26046 0.0031,0.006 0.339742,-0.19384 0.355311,-0.2021 0.221628,-0.13825 0.433566,-0.28632 0.647577,-0.43587 0.03895,-0.0272 0.113227,-0.0333 0.117461,-0.0806 0.0076,-0.086 -0.05903,-0.16214 -0.08855,-0.2432 -7.92e-4,-2.6e-4 -0.0013,5e-5 -0.0022,-3.7e-4 -0.204375,0.15822 -0.408443,0.31706 -0.607724,0.4817 -0.04479,0.0369 -0.128974,0.0542 -0.133277,0.11216 -0.0067,0.0902 0.07081,0.16627 0.106177,0.24946 0.249,-0.19797 0.480464,-0.41797 0.731706,-0.61348 0.136395,-0.1076 0.278716,-0.21706 0.410262,-0.33099 0.04435,-0.0384 0.134682,-0.0609 0.129241,-0.11918 -0.035,-0.37218 -0.156288,-0.24171 -0.261904,-0.15268 -0.06937,0.0585 -0.136965,0.11909 -0.205407,0.17867 -0.289501,0.2771 -0.577101,0.55523 -0.835409,0.8624 -0.05362,0.0635 -0.104924,0.12894 -0.15297,0.19669 -0.02847,0.0405 -0.07654,0.0785 -0.07546,0.12804 0.0017,0.0791 0.05536,0.14823 0.08305,0.22235 0.0294,-1.3e-4 0.05938,0.005 0.08834,-4.1e-4 0.0793,-0.0155 0.237233,-0.095 0.292981,-0.12429 0.184834,-0.0972 0.360473,-0.21103 0.540069,-0.31723 -0.04256,-0.0738 -0.06391,-0.16472 -0.127619,-0.22116 -0.01999,-0.0182 -0.03713,0.0391 -0.05682,0.0577 -0.04424,0.0431 -0.08854,0.0863 -0.13378,0.12848 -0.11892,0.11078 -0.272575,0.24891 -0.396773,0.35509 -0.03829,0.0327 -0.07798,0.0638 -0.116994,0.0957 0.02634,0.0699 0.04711,0.1421 0.07916,0.20952 0.0033,0.007 0.0063,-0.0137 0.01144,-0.0191 0.01456,-0.0166 0.03062,-0.0319 0.04593,-0.0478 0.104244,-0.10744 0.209259,-0.21474 0.29522,-0.33801 0.0056,-0.009 0.145979,-0.21427 0.138671,-0.23363 -0.100005,-0.27731 -0.179307,-0.17768 -0.313984,-0.0973 -0.05241,0.0312 -0.105157,0.0619 -0.157733,0.0929 -0.144436,0.0811 -0.24031,0.1363 -0.387137,0.2134 -0.03887,0.0204 -0.120055,0.0149 -0.117842,0.0588 0.0034,0.0686 0.102774,0.0973 0.128681,0.16088 0.01494,0.0366 -0.0626,0.10389 -0.01944,0.0646 0.157572,-0.14352 0.308188,-0.29447 0.495622,-0.40112 0.159346,-0.10805 0.317584,-0.21654 0.468492,-0.33633 0.04091,-0.0324 0.08123,-0.0658 0.120584,-0.10014 0.02091,-0.0186 0.06789,-0.0311 0.06056,-0.0581 -0.02786,-0.10263 -0.101465,-0.18684 -0.152229,-0.28023 -0.123981,0.0213 -0.282804,0.19356 -0.399537,0.24488 -0.231663,0.14983 -0.453445,0.31414 -0.685656,0.46321 -0.09668,0.0474 -0.194429,0.0918 -0.285694,0.14975 -0.276016,0.13386 -0.546611,0.28461 -0.800889,0.45598 0.06453,0.0937 0.115896,0.19795 0.193589,0.28103 0.0119,0.0124 0.0302,-0.0169 0.04442,-0.0266 0.02432,-0.0164 0.04783,-0.034 0.07091,-0.0519 0.170317,-0.13248 0.3336,-0.27396 0.5069,-0.40269 -0.03666,-0.11891 -0.07558,-0.23718 -0.110093,-0.35676 -4.41e-4,-0.003 0.0079,-0.007 0.0051,-0.006 -0.154697,0.10471 -0.290602,0.23697 -0.430719,0.35936 -0.03684,0.0387 -0.114409,0.0631 -0.11043,0.11645 0.02856,0.38209 0.08234,0.39288 0.234428,0.29024 0.204558,-0.12294 0.416719,-0.2343 0.634022,-0.33286 -0.0504,-0.10071 -0.09229,-0.20616 -0.151129,-0.3022 -0.0049,-0.009 -0.01477,0.0135 -0.0214,0.0209 -0.01627,0.019 -0.03253,0.0379 -0.04799,0.0575 -0.106786,0.1332 -0.209048,0.2702 -0.300528,0.41447 -0.02872,0.048 -0.149303,0.22887 -0.149679,0.30385 -0.0019,0.35779 0.165743,0.31356 0.425908,0.29869 0.163416,-0.0248 0.319412,-0.0501 0.474231,-0.1103 0.04034,-0.0157 0.108232,-0.0109 0.118512,-0.0529 0.02838,-0.11619 0.0234,-0.24609 -0.01792,-0.35831 -0.01274,-0.0345 -0.07313,0.008 -0.109658,0.0119 -0.09157,0.0154 -0.181186,0.0494 -0.273259,0.0628 -0.173286,0.0585 -0.334555,0.12308 -0.495271,0.21133 -0.03907,0.0214 -0.1141,0.0227 -0.115521,0.0674 -0.01351,0.40987 0.226151,0.32203 0.08459,0.37025 0.062,-0.029 0.12846,-0.0452 0.190846,-0.074 0.129938,-0.0601 0.249409,-0.14062 0.364213,-0.22544 0.03028,-0.0263 0.06103,-0.0519 0.09015,-0.0794 0.01553,-0.0145 0.04677,-0.0257 0.04382,-0.0466 -0.05206,-0.33723 -0.0326,-0.34578 -0.24514,-0.32297 -0.174871,0.0378 -0.343909,0.0885 -0.51068,0.15428 -0.06881,0.0271 -0.17127,0.0215 -0.203764,0.0879 -0.06376,0.13032 -0.04183,0.28748 -0.0506,0.4323 -8.84e-4,0.008 0.01637,7.8e-4 0.02431,0.002 0.09699,0.004 0.198734,0.003 0.297806,0.0182 0.04812,10e-4 0.337118,10e-4 0.36767,-0.0145 0.0074,-0.003 -0.01168,-0.011 -0.01748,-0.0164 -0.02647,-0.0498 -0.05298,-0.0996 -0.07941,-0.14953 0.007,-0.0232 0.013,-0.0469 0.02058,-0.0701 0.0013,-0.005 -4.42e-4,0.0108 -0.0031,0.0162 -0.01056,0.0179 -0.02366,0.0342 -0.03596,0.0511 -0.02349,0.0314 -0.10881,0.13598 -0.10607,0.14922 0.02703,0.11413 0.09229,0.21565 0.138429,0.32347 0.12737,-0.0139 0.243626,-0.097 0.359924,-0.14705 0.02873,-0.0176 0.262546,-0.16561 0.260945,-0.17716 -0.0524,-0.37754 -0.02761,-0.35 -0.218551,-0.30548 -0.03057,0.008 -0.06097,0.016 -0.09171,0.0231 -0.03225,0.007 -0.09753,-0.0125 -0.09725,0.0206 4.36e-4,0.0436 0.07414,0.0502 0.09827,0.0863 0.01706,0.026 0.01498,0.0605 0.01835,0.0914 0.0011,0.007 -0.0097,0.0252 -0.0065,0.0191 0.0045,-0.008 0.0068,-0.0178 0.01063,-0.0265 0.06422,-0.13878 0.383604,-0.69291 -0.0675,-0.64335 -0.11713,0.0317 -0.230701,0.0731 -0.346848,0.10819 -0.03294,0.01 -0.09238,-0.006 -0.09945,0.0276 -0.01518,0.0725 0.232697,0.0678 0.09711,0.20005 0.05383,-0.24504 0.165166,-0.47573 0.271426,-0.70119 0.07438,-0.22822 0.116962,-0.19547 -0.186593,-0.39095 -0.02519,-0.0159 -0.05858,0.0112 -0.08697,0.0205 -0.17838,0.0584 -0.345653,0.14835 -0.507782,0.2413 0.06919,0.0946 0.156865,0.17817 0.207477,0.28389 0.01258,0.0262 -0.02308,0.0533 -0.03287,0.0807 -0.0065,0.0174 0.02857,-0.024 0.04204,-0.0371 0.01959,-0.0201 0.03849,-0.041 0.05789,-0.0614 0.0329,-0.0333 0.06601,-0.0666 0.09899,-0.0999 0.112559,-0.11852 0.113314,-0.11378 0.208301,-0.23297 0.01277,-0.0162 0.04368,-0.0308 0.0363,-0.05 -0.153059,-0.39801 -0.131658,-0.48401 -0.384054,-0.32167 -0.128796,0.11415 -0.241349,0.2461 -0.382031,0.34689 -0.183495,0.16946 -0.383565,0.31975 -0.573312,0.48198 -0.176747,0.14064 -0.351136,0.28374 -0.519064,0.43489 -0.03122,0.0276 -0.108502,0.0461 -0.09208,0.0844 0.06902,0.16088 0.206724,0.28261 0.310089,0.42391 -0.01657,0.0143 0.03656,-0.0237 0.05556,-0.0344 0.02645,-0.0148 -0.0813,0.0569 -0.07918,0.0444 -0.02103,0.006 -0.08767,0.004 -0.06579,0.005 0.08197,0.005 0.312268,-0.0539 -0.0363,-0.0105 -0.01467,0.002 0.02861,0.008 0.04281,0.0114 0.08262,0.007 0.178933,5.3e-4 0.246474,-0.0334 0.0694,-0.017 0.139813,-0.0271 0.209916,-0.0418 0.122027,-0.0292 0.237773,-0.0788 0.360401,-0.10646 0.214424,-0.0669 0.418828,-0.15995 0.634993,-0.22094 0.260716,-0.0546 0.52347,-0.10021 0.777071,-0.18422 0.137634,-0.0379 0.274971,-0.0743 0.418868,-0.0763 0.06218,-0.006 0.126399,-0.009 0.186323,0.0112 0.04227,0.0165 -0.02902,-0.0174 -0.09335,-0.0907 -0.06762,-0.0774 3.2e-5,-0.14539 -0.03145,-0.24915 -0.01385,-0.0456 -0.0085,0.095 -0.01271,0.14242 0.02154,0.0834 -0.0058,-0.0116 0.0071,-0.0735 0.03139,-0.15161 0.07388,-0.1393 0.03074,-0.0919 -0.07643,0.10167 -0.155303,0.20159 -0.214024,0.31529 -0.07128,0.10819 -0.156191,0.20282 -0.250195,0.29243 -0.05232,0.0522 -0.05926,0.081 -0.121599,0.0946 -0.286301,0.15394 -0.06885,0.0273 -0.03702,0.0194 0.03452,-0.009 0.07078,-0.007 0.10599,-0.0124 0.01896,-0.003 -0.108018,0.005 -0.05737,-1.8e-4 0.09808,0.004 -0.12381,-0.003 -0.132987,0.008 -0.08297,0.0136 -0.166951,0.0236 -0.250907,0.0281 -0.07719,-0.002 -0.168581,-0.007 -0.235309,-4.7e-4 0.04417,0.007 -0.04983,-0.007 -0.08556,-0.009 -0.05465,-0.003 -0.0827,-5.5e-4 -0.137247,0.006 -0.02128,0.003 -0.04239,0.006 -0.06353,0.009 -0.168752,0.0346 -0.342738,0.0395 -0.512877,0.0657 -0.180914,0.0188 -0.362033,0.0352 -0.542651,0.0563 -0.161336,0.0101 -0.321828,0.0273 -0.47587,0.0802 -0.203221,0.0592 -0.406241,0.11968 -0.603358,0.19735 -0.219688,0.087 -0.441913,0.16864 -0.652733,0.27598 -0.121531,0.0477 -0.244446,0.0913 -0.366204,0.13837 -0.04089,0.0158 -0.126825,0.005 -0.122332,0.0483 0.02096,0.20348 0.130404,0.3879 0.187524,0.58432 0.0023,0.005 -0.0099,0.005 -0.01529,0.007 0.0155,-0.0315 0.07348,-0.0497 0.101225,-0.0703 0.106404,-0.0985 0.253713,-0.14663 0.363365,-0.24188 0.187518,-0.11992 0.373549,-0.24141 0.551955,-0.37475 0.156396,-0.12048 0.313353,-0.24149 0.459813,-0.37386 0.183722,-0.16875 0.37021,-0.33498 0.541766,-0.51632 0.124283,-0.12665 0.252985,-0.24866 0.370812,-0.38157 0.14205,-0.13373 0.287777,-0.26453 0.417786,-0.4101 0.01918,-0.0332 0.04183,-0.0643 0.05822,-0.0989 0.0054,-0.0108 0.0081,-0.023 0.0073,-0.0354 -2.93e-4,-0.006 -0.01184,-0.0111 -0.0089,-0.0164 0.09733,-0.17527 0.355961,-0.22443 0.499317,-0.33691 0,0 -0.133563,-0.25856 -0.133563,-0.25856 z" />
      <circle
         id="path2005"
         style="fill:#000000;stroke:#000000;stroke-width:0.264583"
         cx="142.02974"
         cy="60.31992"
         r="0.0049351798"
         transform="rotate(36.033838)" />
      <path
         style="fill:#000000;stroke-width:0.264583"
         id="path2009"
         d="m 79.744469,132.02751 c 0.422291,-0.41132 0.854173,-0.81457 1.315899,-1.18178 0.301752,-0.23999 0.618068,-0.4618 0.921441,-0.7 0.879609,-0.73596 1.682097,-1.557 2.497119,-2.36214 0.386438,-0.40594 0.826639,-0.75668 1.213969,-1.16158 0.607255,-0.6348 -0.163605,0.11164 0.604269,-0.65683 0.196711,-0.19686 0.40019,-0.38684 0.600283,-0.58026 0.543108,-0.52232 1.105244,-1.02574 1.702956,-1.48512 0.380473,-0.29242 0.773897,-0.56934 1.156958,-0.85855 0.618577,-0.4663 1.177486,-1.00792 1.808709,-1.45783 0.443241,-0.31593 0.544756,-0.36715 1.01339,-0.6553 0.895037,-0.53153 1.850361,-0.9482 2.793855,-1.38373 0.196372,-0.0898 0.393307,-0.17847 0.589113,-0.26954 0.41319,-0.1922 0.566201,-0.27987 0.977313,-0.44091 0.562129,-0.2202 1.140215,-0.4026 1.712631,-0.59358 1.035174,-0.3686 2.098056,-0.64673 3.162126,-0.91661 1.19646,-0.28891 2.39338,-0.57658 3.59322,-0.85128 1.17624,-0.27587 2.39283,-0.24832 3.59244,-0.22204 1.10673,0.0709 2.21213,-0.004 3.31655,-0.0702 1.41549,-0.11364 2.82119,0.1266 4.21758,0.32483 1.17834,0.21692 2.36948,0.33251 3.56456,0.40051 1.00419,0.0218 2.00507,0.0923 3.00513,0.18043 1.21543,0.11954 2.42646,0.27646 3.64331,0.3815 1.02415,0.0533 2.02771,0.26523 3.0155,0.52965 0.83192,0.23404 1.6553,0.49598 2.48955,0.72195 0.53753,0.15761 1.09362,0.22701 1.64483,0.31612 0.47043,0.0761 0.51212,0.087 0.96652,0.17315 0.74109,0.18308 1.498,0.27332 2.25249,0.37978 0.94021,0.14908 1.88894,0.21086 2.83775,0.27321 0.66257,0.0272 1.32218,0.0915 1.98231,0.15072 0.68266,0.0615 1.37127,0.15663 2.05616,0.0782 0.3853,-0.0777 0.77742,-0.11169 1.16942,-0.13204 0.29977,-0.003 0.59796,-0.0305 0.8963,-0.0565 0.34158,-0.0365 0.68451,-0.0599 1.02575,-0.0992 0.3809,-0.073 0.76561,-0.11941 1.14888,-0.17707 0.49248,-0.0943 0.99165,-0.13857 1.49078,-0.17981 0.31026,-0.0142 0.62098,-0.0267 0.92964,-0.0624 0.17578,-0.009 0.34761,-0.0422 0.51919,-0.0785 0.17473,-0.0248 0.34933,-0.0296 0.51881,-0.0815 0.10854,-0.0555 0.23218,-0.0602 0.35017,-0.0831 0.15667,-0.0325 0.31619,-0.0504 0.47097,-0.0917 0.12069,-0.0449 0.24394,-0.0813 0.36638,-0.12086 0.0692,-0.0303 0.13941,-0.0373 0.21178,-0.0506 0.0812,-0.0414 0.15831,-0.04 0.24682,-0.0477 0.13557,-0.0169 0.26966,-0.0418 0.4047,-0.062 0.15516,-0.004 0.20611,-0.0277 0.29453,-0.15002 0,0 0.0157,-0.11222 0.0157,-0.11222 v 0 c -0.0872,-0.16422 -0.13376,-0.17608 -0.32075,-0.19277 -0.14777,-0.008 -0.29078,0.004 -0.43651,0.0306 -0.0462,0.004 -0.3087,0.0249 -0.32334,0.0599 -0.002,0.007 0.0149,-0.003 0.0223,-0.004 -0.0869,0.0257 -0.18279,0.0251 -0.26665,0.065 -0.11472,0.0379 -0.23099,0.0707 -0.34421,0.11218 -0.14232,0.0404 -0.29232,0.0459 -0.43699,0.0758 -0.14019,0.0273 -0.28773,0.0348 -0.41794,0.0973 -0.11304,0.0624 -0.33447,0.0181 -0.46069,0.0634 -0.15839,0.0339 -0.31603,0.0681 -0.47898,0.0736 -0.29902,0.0449 -0.60536,0.0367 -0.90614,0.0619 -0.51018,0.0422 -1.02048,0.0881 -1.52433,0.18176 -0.37676,0.0568 -0.75456,0.10511 -1.129,0.17645 -0.33778,0.0356 -0.6763,0.0639 -1.01423,0.0981 -0.29169,0.0254 -0.58347,0.0477 -0.87628,0.0551 -0.4041,0.017 -0.80889,0.0545 -1.20497,0.13893 -0.64921,0.0818 -1.30666,-0.009 -1.95468,-0.0603 -0.66393,-0.0596 -1.32715,-0.12527 -1.99364,-0.1516 -0.93729,-0.0616 -1.87457,-0.12306 -2.80295,-0.27359 -0.39832,-0.0544 -0.79902,-0.099 -1.19604,-0.16228 -0.32873,-0.0524 -0.30433,-0.057 -0.62398,-0.12511 -0.13677,-0.0291 -0.27386,-0.0566 -0.41078,-0.0849 -0.4578,-0.0847 -0.51103,-0.0976 -0.98399,-0.17213 -0.53365,-0.0841 -1.07137,-0.15295 -1.59157,-0.30495 -0.83502,-0.22604 -1.66114,-0.48222 -2.49261,-0.72074 -1.01574,-0.26607 -2.04516,-0.48935 -3.09823,-0.53206 -1.21761,-0.0958 -2.4293,-0.24766 -3.64577,-0.35623 -1.0055,-0.0756 -2.01232,-0.121 -3.02078,-0.13254 -1.18472,-0.0536 -2.36699,-0.15261 -3.53378,-0.37403 -1.42089,-0.19874 -2.8501,-0.43931 -4.28988,-0.31988 -1.09439,0.0702 -2.19012,0.14128 -3.28711,0.0774 -1.22812,-0.0268 -2.47273,-0.0508 -3.67629,0.23448 -1.20271,0.27538 -2.40135,0.56905 -3.59965,0.86289 -1.07002,0.27916 -2.137004,0.57284 -3.176998,0.95159 -0.577843,0.20082 -1.159443,0.39298 -1.724824,0.6276 -0.384449,0.15952 -0.595754,0.27178 -0.978668,0.45437 -0.19497,0.093 -0.390644,0.18446 -0.585959,0.27669 -0.949205,0.44574 -1.911276,0.87019 -2.808976,1.41624 -0.459583,0.28486 -0.596423,0.35738 -1.029346,0.67341 -0.625979,0.45696 -1.177174,1.00801 -1.790557,1.48083 -0.381049,0.29439 -0.773135,0.57627 -1.15138,0.87404 -0.596439,0.46953 -1.159667,0.98037 -1.709026,1.50356 -0.200002,0.19704 -0.403333,0.39078 -0.600009,0.59114 -0.635351,0.64722 -0.100606,0.12368 -0.593696,0.65994 -0.379173,0.41238 -0.810379,0.77262 -1.196951,1.17771 -0.808987,0.80629 -1.592269,1.6418 -2.457262,2.38932 -0.299344,0.24412 -0.609379,0.47416 -0.907882,0.71918 -0.343228,0.28174 -0.512537,0.43502 -0.851018,0.75111 -0.155724,0.14543 -0.308172,0.29434 -0.462256,0.44152 0,0 0.03746,0.0371 0.03746,0.0371 z" />
      <path
         style="fill:#000000;stroke-width:0.264583"
         id="path2029"
         d="m 83.423449,129.35563 c 0.721104,-0.35932 1.440009,-0.73253 2.201613,-1.00108 0.384457,-0.13556 0.610231,-0.17861 1.010048,-0.27495 1.58046,-0.36008 3.096633,-0.96196 4.689671,-1.27153 0.27269,-0.053 0.549231,-0.0838 0.823845,-0.12566 0.29142,-0.0235 0.582451,-0.0524 0.874261,-0.0704 0.657866,-0.0407 1.380857,-0.0595 2.04008,-0.0762 0.208193,-0.005 1.686085,-0.0391 1.940008,-0.0388 0.309573,4.7e-4 0.619036,0.0124 0.928543,0.0185 0.293939,0.0238 0.588444,0.0414 0.881797,0.0715 0.441114,0.0453 1.755385,0.22083 2.145745,0.27434 0.73595,0.1009 1.61729,0.22293 2.34566,0.3604 0.40217,0.0759 0.80077,0.16971 1.20115,0.25456 0.39361,0.10121 0.78865,0.19703 1.18084,0.30363 1.06185,0.28858 0.90253,0.28647 1.95819,0.5443 0.95211,0.23253 1.91739,0.37722 2.88552,0.52273 1.85091,0.24327 3.68527,0.59267 5.50244,1.0174 0.68185,0.1607 1.36067,0.33885 2.05773,0.42171 0.1715,0.0204 0.34357,0.0457 0.51628,0.044 0.15876,-0.001 0.31553,-0.0355 0.47329,-0.0533 0,0 0.0151,-0.11227 0.0151,-0.11227 v 0 c -0.14939,-0.0592 -0.29283,-0.13635 -0.44809,-0.17777 -0.1632,-0.0435 -0.33397,-0.0506 -0.50101,-0.0755 -0.18329,-0.0274 -0.36766,-0.0481 -0.55001,-0.0813 -0.39357,-0.0715 -1.12516,-0.24849 -1.47838,-0.3309 -0.31699,-0.0734 -0.63299,-0.15115 -0.95095,-0.22013 -1.51535,-0.32872 -3.04913,-0.57048 -4.58407,-0.78558 -0.95607,-0.13962 -1.90821,-0.28067 -2.84859,-0.50718 -1.03201,-0.24859 -0.91835,-0.25587 -1.96168,-0.53917 -0.39716,-0.10783 -0.79688,-0.20601 -1.19531,-0.30901 -0.40547,-0.0851 -0.80922,-0.17897 -1.21642,-0.25544 -0.771,-0.14479 -1.57955,-0.25487 -2.35705,-0.36012 -0.42388,-0.0574 -1.695333,-0.22498 -2.163255,-0.27228 -0.300433,-0.0304 -0.601992,-0.0484 -0.902986,-0.0726 -0.313547,-0.005 -0.627064,-0.0151 -0.94064,-0.0146 -0.325146,5.5e-4 -1.656347,0.0363 -1.943892,0.0447 -0.684246,0.0201 -1.3738,0.0401 -2.05687,0.087 -0.299072,0.0205 -0.59723,0.0526 -0.895856,0.079 -0.281789,0.0453 -0.565708,0.0789 -0.84539,0.13583 -1.594192,0.3244 -3.106298,0.94003 -4.674393,1.36029 -0.405461,0.11337 -0.634353,0.16656 -1.023986,0.31655 -0.759479,0.29237 -1.459993,0.70355 -2.169071,1.09776 0,0 0.03605,0.0715 0.03605,0.0715 z" />
      <path
         style="fill:#000000;stroke-width:0.264583"
         id="path2031"
         d="m 88.924477,123.19682 c 1.23216,-0.42293 2.501052,-0.72321 3.76063,-1.05067 1.427964,-0.37099 2.886204,-0.60822 4.363476,-0.62424 0.697471,-0.008 1.424723,0.04 2.120028,0.0749 1.423609,0.0924 2.839459,0.2801 4.248749,0.49795 0.53135,0.0821 1.06319,0.16266 1.59146,0.26279 0.66345,0.12574 1.32192,0.27646 1.98289,0.41469 1.68982,0.41673 1.37755,0.31668 2.88323,0.76443 0.81594,0.24264 1.16692,0.37697 1.97108,0.57325 0.72263,0.17639 1.19137,0.25259 1.91757,0.38665 1.33887,0.21583 2.64895,0.56494 3.96422,0.88777 0.98981,0.24294 0.95707,0.22971 1.9465,0.44826 1.08686,0.1931 2.16664,0.439 3.25931,0.59959 0.63601,0.0935 1.24526,0.15806 1.8831,0.23086 0.18569,0.0115 0.37141,0.023 0.55712,0.0345 0,0 0.0178,-0.11188 0.0178,-0.11188 v 0 c -0.18071,-0.047 -0.36149,-0.0939 -0.54222,-0.14088 -1.70105,-0.31679 -3.40771,-0.6011 -5.10812,-0.92143 -0.92057,-0.19567 -1.02078,-0.21162 -1.94181,-0.42913 -1.32362,-0.31259 -2.64401,-0.64468 -3.99132,-0.84367 -0.72549,-0.12918 -1.17771,-0.19882 -1.89933,-0.37252 -0.74691,-0.17979 -1.21789,-0.34462 -1.9688,-0.56652 -1.57399,-0.46512 -1.12555,-0.33132 -2.90091,-0.76681 -0.66422,-0.13818 -1.32608,-0.28824 -1.99266,-0.41454 -0.53002,-0.10043 -1.06336,-0.18278 -1.59643,-0.26553 -1.41617,-0.21983 -2.84011,-0.40218 -4.270742,-0.49416 -0.763673,-0.0341 -1.378052,-0.0744 -2.140233,-0.0593 -1.489505,0.0294 -2.964409,0.26841 -4.392068,0.69352 -1.255962,0.34952 -2.523811,0.66453 -3.752699,1.10334 0,0 0.03012,0.0888 0.03012,0.0888 z" />
      <path
         style="fill:#000000;stroke-width:0.264583"
         id="path2033"
         d="m 101.90297,117.2626 c 0.94008,-0.19528 1.91261,-0.33798 2.87262,-0.2092 0.42387,0.0569 0.63165,0.12916 1.04207,0.24241 1.49781,0.48656 3.02673,0.86531 4.53208,1.32609 0.23331,0.0798 0.46826,0.15506 0.69995,0.23949 0.45361,0.1653 1.18993,0.46501 1.62365,0.63894 0.89673,0.35961 1.78844,0.72894 2.67805,1.10584 1.18857,0.46579 2.3917,0.89611 3.61121,1.27404 0.83807,0.25972 1.68563,0.49283 2.52864,0.73576 1.6156,0.47507 3.25519,0.85436 4.89667,1.22631 0.95285,0.20381 1.89529,0.46579 2.86235,0.59714 0.43052,0.0585 0.66249,0.0669 1.09152,0.0955 0.8448,0.0268 1.6874,0.0856 2.52616,0.18895 0.32272,0.0213 0.64145,0.0806 0.96249,0.11554 0.0862,0.009 0.17331,0.0292 0.25944,0.0191 0.0583,-0.007 0.21925,-0.0779 0.29764,-0.11147 0,0 0.0254,-0.11041 0.0254,-0.11041 v 0 c -0.0695,-0.0724 -0.16936,-0.18181 -0.24985,-0.22132 -0.0791,-0.0389 -0.16985,-0.0479 -0.25609,-0.0661 -0.32247,-0.0679 -0.65115,-0.0973 -0.97831,-0.13154 -0.84864,-0.0992 -1.70027,-0.16104 -2.55491,-0.17787 -0.38063,-0.0237 -0.66891,-0.0362 -1.04926,-0.0831 -0.95883,-0.11825 -1.89557,-0.36252 -2.84188,-0.54966 -1.63875,-0.34217 -3.27015,-0.71725 -4.87982,-1.17978 -2.05603,-0.58809 -4.11447,-1.17621 -6.10015,-1.97923 -0.89297,-0.37623 -1.78746,-0.74582 -2.68873,-1.10177 -0.47328,-0.18693 -1.15813,-0.46116 -1.64772,-0.6332 -0.23643,-0.0831 -0.47634,-0.1559 -0.7145,-0.23384 -1.51584,-0.43865 -3.05767,-0.77851 -4.57028,-1.2293 -0.43059,-0.10492 -0.64798,-0.17343 -1.09144,-0.21883 -0.98154,-0.1005 -1.97315,0.0462 -2.92573,0.27598 0,0 0.0387,0.15541 0.0387,0.15541 z" />
      <path
         style="fill:#000000;stroke-width:0.264583"
         id="path2037"
         d="m 116.31821,116.55347 c 1.05139,0.25544 2.07063,0.61378 3.08349,0.98985 0.74287,0.29833 1.47746,0.62014 2.24845,0.84171 0.15691,0.0451 0.31622,0.0816 0.47433,0.12235 1.07372,0.26275 2.13688,0.56407 3.21232,0.81991 1.56808,0.34918 3.13998,0.69304 4.67531,1.16953 0.81185,0.28513 1.65509,0.45984 2.49294,0.64778 0.719,0.14298 1.40025,0.41577 2.09324,0.64624 0.65563,0.2026 1.28039,0.48483 1.89805,0.78058 0.31427,0.1455 0.61649,0.31441 0.92322,0.47465 0.29564,0.16077 0.0156,0.0332 0.34659,0.11139 0.029,0.007 0.0539,0.0257 0.0808,0.0387 0,0 0.0906,-0.0681 0.0906,-0.0681 v 0 c -0.0559,-0.18144 -0.0735,-0.36108 -0.25184,-0.47023 -0.29676,-0.25223 -0.60366,-0.40871 -0.95826,-0.56909 -0.63739,-0.30505 -1.2822,-0.59713 -1.95965,-0.80343 -0.70941,-0.23978 -1.41236,-0.50607 -2.14841,-0.6555 -0.82553,-0.18143 -1.65637,-0.34789 -2.45991,-0.61486 -1.55048,-0.46716 -3.13447,-0.8058 -4.71945,-1.13287 -1.07674,-0.24291 -2.14125,-0.53448 -3.22017,-0.76758 -0.37445,-0.085 -0.56053,-0.12151 -0.93149,-0.22908 -0.6065,-0.17588 -1.19521,-0.40559 -1.78711,-0.62385 -1.03118,-0.34595 -2.07761,-0.64017 -3.13603,-0.89162 0,0 -0.047,0.18355 -0.047,0.18355 z" />
      <path
         style="fill:#000000;stroke-width:0.264583"
         id="path2039"
         d="m 139.56771,120.10271 c 0.603,0.25834 1.16977,0.58878 1.74878,0.8944 0.58889,0.30077 0.3104,0.15506 0.83619,0.43566 0.18196,0.0945 0.32999,0.2314 0.48054,0.36688 0,0 0.0378,-0.0242 0.0378,-0.0242 v 0 c -0.0189,-0.0527 -0.0267,-0.11082 -0.0566,-0.15825 -0.10776,-0.17113 -0.21942,-0.21291 -0.38915,-0.3229 -0.86339,-0.44553 -1.74429,-0.8581 -2.62371,-1.27069 0,0 -0.0339,0.079 -0.0339,0.079 z" />
      <path
         style="fill:#000000;stroke-width:0.264583"
         id="path2047"
         d="m 84.025573,128.28451 c 0.157654,-0.38795 0.346861,-0.76621 0.469394,-1.16797 0.05039,-0.16515 0.07192,-0.33916 0.102882,-0.50856 0.06469,-0.36702 0.104181,-0.73812 0.194788,-1.10044 0.07218,-0.28861 0.117739,-0.40224 0.215727,-0.6916 0.04466,-0.11035 0.08893,-0.22085 0.134057,-0.33099 0.100041,-0.24445 0.149418,-0.37182 0.263654,-0.60321 0.136272,-0.27607 0.296441,-0.53943 0.450379,-0.80574 0.386227,-0.62393 0.705288,-1.28191 1.004098,-1.95082 0.279401,-0.68948 0.636687,-1.33599 1.062698,-1.94432 0.437833,-0.56363 0.953666,-1.06128 1.450473,-1.57213 0.621633,-0.59522 1.245121,-1.1868 1.845694,-1.80366 0.487302,-0.5225 1.013821,-1.00777 1.581667,-1.44178 0.202275,-0.15465 0.514319,-0.36433 0.723862,-0.50789 0.125288,-0.0862 0.251353,-0.17136 0.375965,-0.25858 0.200027,-0.14 0.533522,-0.38468 0.744425,-0.52158 0.644138,-0.41805 1.307018,-0.80575 1.972541,-1.18827 0.785359,-0.45963 1.647333,-0.75981 2.497077,-1.07525 0.507541,-0.20098 1.038316,-0.32997 1.557716,-0.49382 0.19756,-0.0623 0.72777,-0.24381 0.90825,-0.30513 0.47076,-0.16274 0.94917,-0.29788 1.43041,-0.42483 0.12532,-0.0331 0.25479,-0.0533 0.37578,-0.0998 0.10637,-0.0408 0.20121,-0.10695 0.30177,-0.16046 0,0 -0.0181,-0.11183 -0.0181,-0.11183 v 0 c -0.11722,-0.0182 -0.23302,-0.0559 -0.35166,-0.0547 -0.13584,10e-4 -0.26982,0.0341 -0.40276,0.062 -0.49634,0.10427 -0.97293,0.28524 -1.45797,0.42901 -0.15984,0.0543 -0.71183,0.24312 -0.89348,0.30044 -0.52774,0.16653 -1.06797,0.2944 -1.583193,0.50024 -0.86979,0.32295 -1.753038,0.62917 -2.555424,1.10271 -0.672953,0.39123 -1.344443,0.78497 -1.992381,1.2171 -0.190422,0.12697 -0.558383,0.40228 -0.737437,0.53098 -0.123133,0.0885 -0.247685,0.17508 -0.371517,0.26263 -0.193316,0.13502 -0.555564,0.3844 -0.741313,0.52828 -0.576098,0.44621 -1.108715,0.94606 -1.604997,1.47907 -0.593444,0.62524 -1.212341,1.21766 -1.832676,1.81548 -1.165481,1.21862 0.418169,-0.4409 -0.599033,0.63565 -0.300868,0.3184 -0.615139,0.62576 -0.865798,0.98771 -0.436715,0.63196 -0.794705,1.28513 -1.06776,2.00525 -0.282174,0.66723 -0.578845,1.32688 -0.941111,1.95548 -0.312037,0.57923 -0.620046,1.15985 -0.824859,1.78832 -0.101401,0.30003 -0.147186,0.41161 -0.219201,0.71182 -0.08767,0.36545 -0.123616,0.74012 -0.180806,1.11075 -0.02177,0.16099 -0.03395,0.33331 -0.07635,0.49047 -0.108565,0.40231 -0.297961,0.77923 -0.447761,1.16606 0,0 0.10232,0.0439 0.10232,0.0439 z" />
      <path
         style="fill:#000000;stroke-width:0.264583"
         id="path2049"
         d="m 89.952795,122.50265 c 0.260083,-0.47635 0.475357,-0.98217 0.770925,-1.43924 0.11452,-0.17715 0.266143,-0.33645 0.399147,-0.49957 0.394288,-0.55052 0.874909,-1.02856 1.366164,-1.4913 0.724813,-0.70177 1.493473,-1.35789 2.31074,-1.94958 0.876221,-0.62202 1.76116,-1.23208 2.675107,-1.79761 0.08811,-0.049 0.174805,-0.1009 0.26444,-0.14712 0.708147,-0.36471 -0.265187,0.16911 0.600764,-0.30109 0.495368,-0.26897 0.982093,-0.55208 1.479729,-0.81698 0.954279,-0.46869 1.916449,-0.92404 2.848779,-1.43568 0.75956,-0.47781 1.54484,-0.91457 2.2832,-1.42524 0.54121,-0.3972 1.09691,-0.78002 1.58593,-1.24159 0.23487,-0.25639 0.41563,-0.55026 0.58562,-0.85126 0,0 -0.0541,-0.0418 -0.0541,-0.0418 v 0 c -0.23856,0.22935 -0.46283,0.47186 -0.7052,0.69724 -0.50809,0.42136 -1.04725,0.8037 -1.57444,1.20047 -0.73551,0.4976 -1.50856,0.9362 -2.26113,1.40711 -0.93118,0.51145 -1.89627,0.95749 -2.845494,1.43389 -0.497209,0.2648 -0.984699,0.54537 -1.478466,0.81632 -0.109459,0.06 -0.220612,0.11688 -0.330925,0.17531 -0.0915,0.0457 -0.184515,0.0886 -0.274528,0.13726 -0.09246,0.0501 -0.181643,0.10589 -0.272518,0.1588 -0.907818,0.58682 -1.789425,1.21205 -2.64559,1.87204 -0.808927,0.61551 -1.58402,1.27364 -2.309231,1.98655 -0.490871,0.47352 -0.974767,0.95749 -1.370424,1.51606 -0.137284,0.17138 -0.2857,0.33885 -0.402696,0.52535 -0.291018,0.46363 -0.505454,0.97136 -0.759324,1.45475 0,0 0.113471,0.0569 0.113471,0.0569 z" />
      <path
         style="fill:#000000;stroke-width:0.264583"
         id="path2051"
         d="m 100.57512,117.09351 c 0.62954,-0.6373 1.33054,-1.23212 2.13363,-1.64097 0.2099,-0.10686 0.43217,-0.18743 0.64803,-0.28168 0.50355,-0.24042 0.96431,-0.55625 1.43853,-0.84744 0.41602,-0.25546 0.39266,-0.23679 0.83418,-0.48653 0.9906,-0.51065 1.94599,-1.08721 2.94545,-1.58049 0.79773,-0.359 1.57402,-0.76251 2.35936,-1.14752 0.81293,-0.39166 1.56559,-0.89206 2.35099,-1.3332 0.42588,-0.20844 0.82606,-0.46228 1.23754,-0.6964 0.21434,-0.12195 0.43267,-0.23676 0.64888,-0.35536 0.22007,-0.157 0.12261,-0.11262 0.27261,-0.16998 0,0 -0.0266,-0.11012 -0.0266,-0.11012 v 0 c -0.1825,0.0245 -0.0645,0.008 -0.35366,0.0502 -0.11321,0.0448 -0.22912,0.0832 -0.33954,0.13444 -0.44013,0.20412 -0.84561,0.4825 -1.2734,0.71086 -0.10537,0.0563 -0.21069,0.11272 -0.31604,0.16908 -0.7803,0.43874 -1.52773,0.93663 -2.33231,1.3322 -0.78693,0.3858 -1.55984,0.79906 -2.35272,1.17261 -0.98749,0.52685 -1.93306,1.1247 -2.90718,1.67528 -0.3498,0.21044 -0.49247,0.29263 -0.82875,0.50838 -0.46233,0.29662 -0.91199,0.61711 -1.4078,0.85755 -0.0664,0.0285 -0.60137,0.25738 -0.66046,0.28788 -0.81166,0.41902 -1.52503,1.02251 -2.15709,1.67497 0,0 0.0864,0.0763 0.0864,0.0763 z" />
      <path
         style="fill:#000000;stroke-width:0.264583"
         id="path2053"
         d="m 109.50325,116.04588 c 0.58168,-0.32459 1.17147,-0.65185 1.81117,-0.85 0.35813,-0.11095 0.73799,-0.15756 1.10566,-0.2259 0.83,-0.18311 1.61852,-0.50742 2.42146,-0.77924 0.83562,-0.24947 1.67188,-0.49675 2.5064,-0.75038 0.83106,-0.27692 1.67534,-0.50906 2.51434,-0.75962 0.85505,-0.282 1.71356,-0.55082 2.55014,-0.88477 0.6552,-0.2806 1.28756,-0.61129 1.92077,-0.93765 0.25019,-0.15326 0.51856,-0.26355 0.78758,-0.37668 0.10795,-0.0454 0.21075,-0.10355 0.32151,-0.14152 0.0737,-0.0253 0.15257,-0.0314 0.22884,-0.0471 0,0 -0.0205,-0.11137 -0.0205,-0.11137 v 0 c -0.9102,0.14882 0.69906,-0.10447 -0.60374,0.053 -0.31054,0.0375 -0.60329,0.16097 -0.88699,0.28454 -0.62564,0.31709 -1.24322,0.65127 -1.88373,0.93792 -0.82509,0.33443 -1.67241,0.60389 -2.51782,0.88165 -0.83665,0.25891 -1.68058,0.49425 -2.50821,0.78226 -0.43511,0.13442 -0.86905,0.27284 -1.30474,0.40535 -0.073,0.0222 -0.765,0.22644 -0.85269,0.25466 -0.11883,0.0382 -0.2358,0.0819 -0.35371,0.12279 -0.78233,0.29454 -1.54695,0.64735 -2.36212,0.84375 -0.37856,0.0768 -0.76841,0.13047 -1.13658,0.25082 -0.64745,0.21163 -1.24488,0.54981 -1.83209,0.88814 0,0 0.0951,0.15932 0.0951,0.15932 z" />
      <path
         style="fill:#000000;stroke-width:0.264583"
         id="path2055"
         d="m 123.99286,116.31657 c 0.48487,-0.21352 0.97898,-0.42541 1.50289,-0.52372 0.51418,-0.0965 1.04248,-0.13688 1.56128,-0.20299 0.55538,-0.11459 1.1127,-0.21368 1.6714,-0.31044 0.58084,-0.0961 1.16884,-0.13331 1.7558,-0.16887 0.80262,-0.0513 1.59739,-0.17609 2.37432,-0.3827 0.77631,-0.24634 1.58197,-0.37673 2.36966,-0.58024 0.34616,-0.0955 0.67573,-0.23586 0.9968,-0.39454 0.11179,-0.0553 0.21321,-0.1108 0.33145,-0.14917 0.0314,-0.0107 0.20555,-0.0622 0.23403,-0.0995 0.0208,-0.0273 0.0109,-0.0677 0.0164,-0.10159 0,0 -0.0274,-0.10993 -0.0274,-0.10993 v 0 c -0.0233,-0.0268 -0.0367,-0.0677 -0.0699,-0.0802 -0.0528,-0.0199 -0.23271,0.0357 -0.27038,0.0453 -0.13157,0.0459 -0.24773,0.1076 -0.37233,0.17018 -0.2135,0.10721 -0.31623,0.15991 -0.55098,0.24637 -0.12447,0.0458 -0.25178,0.0834 -0.37766,0.12513 -0.7889,0.20426 -1.59557,0.33478 -2.37436,0.57744 -0.75186,0.20617 -1.52345,0.32388 -2.30139,0.37471 -0.60112,0.0365 -1.20345,0.0823 -1.79517,0.19924 -0.27511,0.0548 -0.55335,0.1012 -0.82564,0.16925 -0.63307,0.15821 0.21471,-0.0389 -0.50528,0.13937 -0.10561,0.0262 -0.21239,0.0476 -0.31859,0.0714 -0.52322,0.0922 -1.0536,0.15051 -1.57305,0.26312 -0.53474,0.11593 -1.03881,0.33044 -1.52825,0.57056 0,0 0.0764,0.15177 0.0764,0.15177 z" />
      <path
         style="fill:#000000;stroke-width:0.264583"
         id="path2057"
         d="m 135.26464,118.63347 c 0.65529,-0.15043 1.31335,-0.28843 1.97306,-0.41795 0.5164,-0.10823 1.03901,-0.17769 1.56345,-0.23162 0.47508,-0.0514 0.95053,-0.0968 1.42428,-0.16002 0.40798,-0.0181 0.79857,-0.13495 1.19542,-0.2179 0.33766,-0.0746 0.68426,-0.0861 1.02674,-0.127 0.242,-0.0277 0.48298,-0.0559 0.72127,-0.10673 0.20323,-0.0576 0.41425,-0.0705 0.62081,-0.10889 0.0566,-0.0272 0.22204,-0.0168 0.26774,-0.0601 0.0156,-0.0147 0.0228,-0.0364 0.0345,-0.0543 0,0 -0.10905,-0.26136 -0.10905,-0.26136 v 0 c 1e-5,-0.0136 0.0102,-0.031 9.6e-4,-0.0402 -0.0112,-0.0106 -0.23714,0.0505 -0.26398,0.0494 -0.20888,0.041 -0.42313,0.0547 -0.62952,0.11066 -0.22619,0.049 -0.45466,0.0773 -0.68467,0.10271 -0.35559,0.0381 -0.71395,0.0588 -1.06481,0.13133 -0.38562,0.0882 -0.76644,0.1975 -1.16335,0.22414 -0.47471,0.0634 -0.94879,0.13345 -1.41973,0.22053 -0.52434,0.0989 -1.05164,0.18384 -1.56614,0.3294 -0.65045,0.17141 -1.30667,0.31571 -1.9617,0.46946 0,0 0.0346,0.14833 0.0346,0.14833 z" />
      <path
         style="fill:#b3b3b3;stroke:#000000;stroke-width:0.198039"
         d="m 401.02946,523.40188 c -5.19436,-0.18671 -10.04307,-0.49378 -13.86274,-0.87793 -1.57937,-0.15883 -4.65393,-0.42351 -6.83236,-0.58818 -5.18074,-0.39159 -10.26728,-1.00089 -13.46667,-1.61313 -5.60109,-1.07183 -19.13122,-4.75027 -25.44804,-6.91858 -1.7972,-0.61691 -5.40647,-1.83068 -8.02059,-2.69727 -11.63608,-3.85742 -13.71679,-4.55801 -17.82353,-6.00137 -8.32883,-2.92726 -12.93989,-4.42584 -14.0417,-4.5635 -0.60957,-0.0762 -1.1083,-0.21732 -1.1083,-0.31369 0,-0.0964 -0.13597,-0.17522 -0.30215,-0.17522 -0.27083,0 -0.27083,-0.0605 0,-0.58429 0.16618,-0.32135 0.30215,-0.76793 0.30215,-0.9924 0,-0.22446 0.65655,-1.49881 1.45901,-2.83189 2.01188,-3.34224 4.72264,-8.39121 9.39073,-17.49088 6.82105,-13.2965 11.72122,-21.35779 18.65235,-30.68504 4.31336,-5.80451 7.77162,-9.84034 12.86856,-15.01777 7.51453,-7.63319 11.53314,-10.80373 19.41759,-15.31982 7.39633,-4.23648 11.09371,-5.93789 17.59896,-8.09841 9.1623,-3.04299 20.06995,-4.993 33.89124,-6.05888 4.9504,-0.38177 20.55093,-0.31838 26.14118,0.10623 12.36,0.9388 22.49296,2.7042 30.24042,5.26861 3.15568,1.04453 5.34394,1.92423 10.75371,4.32309 10.12777,4.49098 14.49689,6.26165 27.80467,11.26839 9.76947,3.67553 15.01367,5.97305 27.0522,11.85178 11.13087,5.4355 14.43894,6.94393 19.329,8.81376 2.80012,1.07068 6.86593,2.29574 9.19358,2.77008 1.91577,0.39041 7.66671,0.9862 9.53878,0.9882 0.51094,5.9e-4 0.98407,0.0901 1.05139,0.19903 0.0705,0.11412 -0.11389,0.19804 -0.43521,0.19804 -0.30669,0 -0.86892,0.0901 -1.24943,0.20033 -1.19576,0.34625 -2.98245,0.57936 -6.83634,0.89193 -2.05345,0.16654 -5.43215,0.56253 -7.50824,0.87997 -2.07608,0.31744 -5.02235,0.67647 -6.54726,0.79785 -5.0077,0.3986 -7.10854,0.59402 -8.6147,0.80132 -0.81691,0.11244 -2.10912,0.15553 -2.87157,0.0958 -0.76245,-0.0598 -2.90128,-0.23723 -4.75294,-0.39435 -1.85167,-0.15712 -4.83711,-0.37963 -6.63432,-0.49448 -6.63112,-0.42373 -13.07693,-1.20739 -18.02157,-2.191 -1.57936,-0.31418 -4.34201,-0.80603 -6.13922,-1.093 -2.40346,-0.38378 -4.96981,-1.0093 -9.70392,-2.36522 -6.99658,-2.00393 -10.33082,-2.76461 -13.49842,-3.07957 -15.8013,-1.57113 -18.70848,-1.79787 -27.79276,-2.16766 -5.32261,-0.21666 -8.33302,-0.50622 -13.16961,-1.26673 -6.85043,-1.07717 -8.23724,-1.20331 -13.26863,-1.20684 -2.66858,-0.002 -6.58975,0.0696 -8.71373,0.15887 l -3.86176,0.16228 0.85191,-0.52618 c 1.76493,-1.0901 4.63075,-2.11437 7.55481,-2.70015 1.74812,-0.3502 4.47837,-1.1177 6.94132,-1.95126 3.63951,-1.23176 9.70346,-3.1109 18.31863,-5.67668 4.09208,-1.21872 10.47172,-3.3266 12.97092,-4.2857 1.14333,-0.43876 4.19858,-1.86235 6.78946,-3.16353 2.59088,-1.30117 5.08647,-2.47672 5.54575,-2.61233 1.25412,-0.3703 1.10323,-0.8106 -0.25417,-0.74161 -2.03398,0.10337 -3.06409,0.47037 -7.92157,2.82221 -5.99176,2.90102 -6.6519,3.13218 -26.93333,9.43136 -2.66858,0.82883 -6.58562,2.17335 -8.70453,2.98782 -2.41625,0.92875 -4.70509,1.66188 -6.13922,1.96642 -4.01627,0.85287 -7.12092,2.04681 -10.09889,3.88367 -0.64663,0.39886 -0.95115,0.42247 -5.74314,0.44543 -5.92806,0.0284 -7.07033,0.16573 -13.17991,1.58451 -10.98336,2.55056 -16.47124,4.02509 -22.02308,5.91731 -5.51222,1.87872 -6.91606,2.45284 -13.22791,5.40972 -10.60535,4.96823 -12.61622,6.20142 -19.11079,11.71988 -1.58917,1.35032 -2.12129,1.67887 -3.42615,2.11538 -0.91022,0.3045 -1.51278,0.61042 -1.46688,0.74474 0.0428,0.12538 0.2924,0.19841 0.55458,0.16229 0.60743,-0.0837 0.58761,-0.0647 -2.4939,2.38767 -3.10865,2.47396 -7.83144,6.85629 -9.72574,9.02461 -1.66717,1.90833 -5.42426,5.53179 -5.42426,5.23132 0,-0.10522 0.13395,-0.5119 0.29766,-0.90373 0.16372,-0.39183 0.52555,-2.02911 0.80407,-3.6384 0.84304,-4.87111 1.90461,-7.76134 4.46387,-12.1534 0.78741,-1.35129 2.04885,-3.74911 2.80322,-5.32847 4.63366,-9.70125 4.01448,-8.85798 13.39537,-18.24354 4.20455,-4.20665 8.3362,-8.19074 9.18144,-8.85354 3.90559,-3.06259 11.54325,-8.04368 16.38575,-10.68636 1.83202,-0.99979 5.95502,-2.67752 9.50588,-3.86813 4.5418,-1.52287 10.89413,-3.52673 12.9776,-4.09381 2.23416,-0.60809 3.26162,-1.07144 3.26162,-1.47088 0,-0.59215 -1.53737,-0.68349 -3.4371,-0.20421 -1.74669,0.44066 -11.44954,3.51601 -14.48545,4.5912 -6.01682,2.1309 -8.66114,3.41913 -14.55589,7.09118 -2.34242,1.45918 -8.56214,5.82204 -10.49608,7.36254 -1.23568,0.98429 -11.01351,10.62 -14.42541,14.21574 -3.43414,3.61918 -5.1037,6.17308 -7.09449,10.85241 -1.1858,2.7872 -2.11767,4.72237 -4.58427,9.51995 -2.0634,4.01333 -3.04577,6.98477 -3.61451,10.93302 -0.30716,2.13238 -0.61811,3.4603 -1.11658,4.7684 l -0.69086,1.81298 -3.49626,3.44711 c -1.92293,1.89591 -4.83301,4.5263 -6.46684,5.8453 -3.44539,2.78152 -6.39678,5.49155 -6.20194,5.69477 0.0744,0.0776 1.10248,-0.73667 2.28459,-1.80954 1.1821,-1.07287 3.25033,-2.78926 4.59606,-3.8142 3.07743,-2.34386 5.84993,-4.92975 14.66933,-13.68202 7.82726,-7.76767 9.71295,-9.46806 14.27951,-12.87638 l 3.14673,-2.34861 2.92169,-0.79433 c 12.13972,-3.30049 17.28471,-4.18217 24.39383,-4.18029 13.89978,0.004 33.16852,3.14074 49.1877,8.00804 5.20148,1.58043 7.1302,2.04575 12.7567,3.07766 4.982,0.91371 4.78981,0.87128 13.52366,2.98559 9.7875,2.36939 18.85115,4.11778 25.58179,4.93478 3.97899,0.48299 5.31233,0.51439 5.31233,0.12513 0,-0.38647 -1.3135,-0.67135 -11.48627,-2.49125 -10.07679,-1.80273 -12.07703,-2.20057 -17.42746,-3.46623 -7.81907,-1.84964 -9.37821,-2.17852 -14.63505,-3.08707 -5.57599,-0.9637 -7.84123,-1.4974 -13.4383,-3.16613 -16.61869,-4.95475 -34.8267,-7.91164 -48.71861,-7.91164 -7.00187,0 -10.88629,0.6069 -20.24141,3.16251 -3.20996,0.87689 -5.91124,1.56936 -6.00284,1.53882 -0.27548,-0.0918 3.17256,-2.8517 5.50189,-4.40383 3.20656,-2.13666 5.82584,-3.51238 12.77353,-6.70898 8.06636,-3.71129 14.63999,-5.99709 23.97512,-8.3367 6.53125,-1.63688 10.44333,-1.77846 14.74155,-0.53351 13.76247,3.9862 18.70292,5.44877 20.2,5.98002 1.98167,0.70321 9.42353,3.68405 14.03592,5.6221 11.65093,4.89553 26.42632,9.30043 46.16801,13.7638 7.86634,1.7785 8.89537,1.93774 14.85295,2.29849 2.72304,0.16489 6.45142,0.47623 8.2853,0.69188 4.19808,0.49364 4.72045,0.49338 5.30795,-0.003 l 0.46753,-0.39475 -0.61033,-0.5629 c -0.477,-0.43994 -0.93124,-0.61296 -2.07942,-0.79207 -2.57399,-0.40154 -7.08275,-0.80474 -11.47005,-1.02571 -5.7288,-0.28854 -6.28914,-0.37302 -15.6451,-2.35853 -9.45641,-2.00682 -13.20938,-2.93917 -22.08138,-5.48567 -7.87589,-2.26058 -15.21416,-4.69689 -19.90294,-6.60777 -15.33764,-6.25075 -17.26748,-6.94896 -24.35883,-8.81292 -2.34181,-0.61555 -6.40842,-1.69537 -9.03691,-2.39961 -5.02626,-1.34666 -6.47116,-1.6471 -8.09348,-1.68292 -0.91659,-0.0202 -0.8209,-0.0636 1.28725,-0.5834 5.07772,-1.25197 5.1123,-1.25503 14.55589,-1.2889 4.79255,-0.0172 10.58519,-0.14475 12.87255,-0.28347 3.21894,-0.19522 4.78541,-0.20099 6.93137,-0.0255 3.62995,0.29682 9.02407,1.02894 8.91239,1.20964 -0.0483,0.0782 0.68926,0.34634 1.63909,0.59587 2.63948,0.69344 8.01415,2.54019 12.52009,4.30194 2.23289,0.87303 4.50539,1.72804 5.05,1.90002 1.77957,0.56198 14.12381,3.65401 20.2,5.05977 5.76013,1.33264 9.02585,2.19757 13.76373,3.64535 1.2526,0.38276 4.10437,1.11807 6.33726,1.63402 4.18284,0.96651 10.67225,3.04632 13.80066,4.423 0.97164,0.42758 2.87553,1.3333 4.23089,2.01272 2.88822,1.44782 3.79851,1.79583 4.14205,1.5835 0.43228,-0.26716 -0.13302,-1.5071 -1.04721,-2.29699 -0.7783,-0.67245 -3.97982,-2.32901 -6.86757,-3.55345 -2.58815,-1.09742 -9.89552,-3.43042 -12.6831,-4.0493 -4.02365,-0.89331 -6.471,-1.51428 -9.07581,-2.30286 -3.18067,-0.96291 -7.83829,-2.1149 -13.59109,-3.36155 -4.51854,-0.97918 -10.75118,-2.43616 -17.72451,-4.14338 -1.47044,-0.36 -4.18853,-1.20448 -6.0402,-1.87664 -1.85167,-0.67215 -4.34696,-1.53099 -5.5451,-1.90853 l -2.17843,-0.68643 1.38627,0.0974 c 0.76246,0.0535 3.07951,0.19574 5.14902,0.31597 8.14741,0.47333 12.66692,0.82443 17.71105,1.37589 2.89383,0.31638 6.82107,0.71894 8.72719,0.89458 3.60431,0.33211 8.08761,1.14709 11.04992,2.00866 9.27317,2.69705 10.90594,3.1196 14.10107,3.64924 1.90612,0.31598 4.5351,0.79218 5.84215,1.05824 4.95907,1.00943 11.90953,1.86576 18.71471,2.30575 1.79721,0.1162 5.18368,0.38452 7.52549,0.59626 5.15514,0.46612 5.78699,0.47341 8.81275,0.10163 1.30706,-0.1606 4.23733,-0.43402 6.51171,-0.60762 2.27436,-0.17359 4.54686,-0.39296 5.05,-0.48749 2.44392,-0.45915 6.76662,-1.00325 9.52947,-1.19948 3.09989,-0.22016 6.05529,-0.61691 7.32614,-0.98351 0.38052,-0.10976 0.87066,-0.19498 1.08922,-0.18936 0.54453,0.014 -0.0275,0.23406 -6.43497,2.47574 -7.23982,2.53288 -9.36953,3.38314 -13.36765,5.33685 -5.36341,2.62088 -7.52529,4.10116 -14.77155,10.11437 -9.85508,8.17813 -23.98118,19.26248 -29.87507,23.44211 -10.38161,7.36212 -13.86364,9.45665 -22.04296,13.25947 -5.0762,2.36008 -7.80512,3.43476 -13.81337,5.43986 -2.12397,0.70882 -7.04206,2.36012 -10.92909,3.66954 -8.34592,2.8115 -10.9794,3.58836 -17.87259,5.27232 -9.12825,2.22996 -16.45019,3.60121 -21.59931,4.0451 -2.6766,0.23074 -16.79669,0.22775 -23.26961,-0.005 z m 48.19492,-30.80619 c 0.67513,-0.0925 0.91882,-0.21347 0.91882,-0.45597 0,-0.45909 -1.4288,-0.92681 -3.96079,-1.2966 -1.14368,-0.16702 -3.46074,-0.62032 -5.14902,-1.00731 -8.76039,-2.00809 -11.92251,-2.61593 -19.50687,-3.74967 -11.01167,-1.64608 -12.83908,-2.0231 -22.08137,-4.55567 -6.25706,-1.71455 -11.29515,-2.63148 -21.7045,-3.95016 -6.43659,-0.81541 -9.10925,-0.92655 -16.91315,-0.7033 -13.52673,0.38695 -15.82039,0.7375 -25.94314,3.96499 -2.34182,0.74665 -5.68373,1.76653 -7.42647,2.26639 -4.05539,1.16319 -4.71036,1.42142 -8.42602,3.32207 -3.27719,1.67636 -4.13336,2.21448 -3.89791,2.44993 0.0806,0.0806 1.46064,-0.48788 3.06665,-1.26339 4.03475,-1.94829 5.49319,-2.49008 9.20644,-3.42007 1.77071,-0.44347 5.4474,-1.46505 8.17044,-2.27019 5.99972,-1.77396 7.53939,-2.16651 10.43648,-2.66087 3.72536,-0.6357 8.48628,-0.86993 17.98216,-0.88471 l 9.01078,-0.014 5.34706,0.74486 c 11.72771,1.63372 15.7186,2.41021 22.7154,4.41964 6.42504,1.84522 9.68948,2.52751 17.38755,3.63411 6.34351,0.91189 11.42937,1.85973 18.81372,3.50627 8.67023,1.93326 10.14836,2.17113 11.95374,1.92368 z m -107.8057,-32.1073 c 2.87136,-5.63129 9.70862,-12.56846 18.6313,-18.90353 3.9708,-2.81926 8.22646,-5.55801 10.10067,-6.50034 0.91561,-0.46036 2.74796,-1.4441 4.07189,-2.18609 1.32393,-0.74199 4.88938,-2.59157 7.92321,-4.11018 8.32685,-4.16808 15.7637,-8.83966 19.95865,-12.53737 1.03952,-0.9163 2.95686,-3.65806 2.76979,-3.96075 -0.0616,-0.0996 -0.9799,0.60817 -2.04076,1.57284 -5.05701,4.59849 -12.02583,9.10838 -21.05189,13.6238 -2.93233,1.46694 -6.5401,3.3369 -8.01727,4.15546 -1.47718,0.81857 -3.30782,1.80156 -4.06809,2.18442 -2.71805,1.36879 -11.18195,7.39673 -15.70898,11.18784 -3.01181,2.52221 -7.85687,7.35293 -9.81165,9.78263 -1.28516,1.59738 -2.14941,2.94989 -3.24021,5.07075 -0.81817,1.59078 -1.43008,2.94982 -1.3598,3.0201 0.34075,0.34076 0.65341,-0.0663 1.84314,-2.39958 z m 197.84217,-0.41623 c 0,-0.7409 -1.18102,-1.51439 -5.64411,-3.69654 -5.1697,-2.52762 -5.96114,-2.87879 -6.12306,-2.71688 -0.24618,0.24618 -0.085,0.41433 0.69753,0.72742 1.55544,0.62236 9.78568,5.08251 10.27299,5.56715 0.58673,0.58354 0.79665,0.61486 0.79665,0.11885 z m -21.38823,-12.9852 c 1.90612,-0.37829 5.8273,-0.95716 8.71372,-1.28638 2.88642,-0.32923 6.0501,-0.77236 7.0304,-0.98474 0.98029,-0.21239 2.98544,-0.53106 4.45588,-0.70817 1.47044,-0.17711 3.52015,-0.47341 4.5549,-0.65844 1.5976,-0.28568 1.88997,-0.39639 1.93835,-0.73394 0.0313,-0.21864 -0.0677,-0.56801 -0.22004,-0.77639 -0.27185,-0.37176 -0.33613,-0.36919 -3.42366,0.13688 -1.73063,0.28367 -3.77043,0.572 -4.53289,0.64074 -0.76245,0.0687 -2.13771,0.2996 -3.05612,0.51302 -0.9184,0.21343 -2.96338,0.56965 -4.54436,0.79161 -4.17311,0.58588 -7.45184,1.22969 -12.59952,2.47403 -2.50519,0.60558 -4.70171,1.14251 -4.88113,1.19319 -0.20289,0.0573 -0.29023,0.22977 -0.23103,0.45618 0.0924,0.35321 0.14336,0.35312 1.7125,-0.003 0.88951,-0.20181 3.17687,-0.67643 5.083,-1.05472 z m -135.83939,-6.17125 c 2.34869,-2.14244 5.14256,-4.01543 7.53528,-5.05158 1.99356,-0.8633 1.99792,-0.8657 5.71782,-3.15149 3.94429,-2.42368 12.82763,-7.18717 19.80392,-10.61941 3.53995,-1.74161 8.04039,-4.10295 10.00098,-5.24743 1.96059,-1.14447 4.81235,-2.77993 6.33726,-3.63435 4.60877,-2.58235 5.04192,-2.86279 4.9185,-3.18443 -0.0839,-0.21865 -0.29539,-0.26156 -0.83217,-0.16883 -1.38071,0.23851 -3.76443,1.48615 -11.71084,6.12948 -1.90613,1.11381 -6.22834,3.41444 -9.60491,5.11252 -5.87592,2.95501 -15.38165,8.37451 -20.00196,11.40372 -1.19814,0.78554 -3.02505,1.82558 -4.0598,2.31121 -4.08789,1.91852 -5.98065,3.17226 -8.74694,5.79386 -1.53328,1.45307 -1.91373,2.00872 -1.37536,2.00872 0.0838,0 0.992,-0.76589 2.01822,-1.70199 z m 88.48345,-1.95162 c 2.38789,-0.95497 3.63299,-1.24821 7.16466,-1.68739 1.69416,-0.21068 3.47651,-0.47135 3.96078,-0.57926 2.55586,-0.56956 7.2624,-1.22843 10.68343,-1.4956 4.42727,-0.34576 6.68391,-0.69598 9.90197,-1.53677 1.25259,-0.32727 3.76167,-0.93834 5.57573,-1.35793 3.7111,-0.85837 4.5961,-1.14416 7.35571,-2.37531 1.88254,-0.83987 1.93851,-0.88351 1.88138,-1.46684 -0.0549,-0.56002 -0.10924,-0.59829 -0.79365,-0.55854 -0.40412,0.0235 -1.29529,0.32583 -1.98039,0.6719 -1.72534,0.87152 -3.45465,1.43304 -6.63857,2.15559 -1.49967,0.34034 -3.88521,0.92086 -5.30119,1.29006 -3.67421,0.958 -5.3711,1.24003 -9.5636,1.58955 -4.18589,0.34897 -7.40474,0.84592 -10.22442,1.57854 -1.05868,0.27507 -3.05492,0.68338 -4.43608,0.90735 -4.49402,0.72877 -5.99138,1.12749 -8.55559,2.27824 -1.09524,0.49151 -1.38482,0.80461 -1.05202,1.13741 0.1879,0.18789 0.14511,0.19955 2.02185,-0.551 z"
         id="path8684"
         transform="scale(0.26458333)" />
      <path
         style="fill:#b3b3b3;stroke:#000000;stroke-width:0.198039"
         d="m 273.29415,522.72985 c 0,-0.086 2.07621,-4.33097 2.4908,-5.09268 0.26014,-0.47792 0.25594,-0.55147 -0.0409,-0.7176 -0.27556,-0.1542 -0.1523,-0.29967 0.7386,-0.87165 0.58814,-0.37761 2.0942,-1.35844 3.3468,-2.17963 2.71877,-1.7824 6.80274,-4.19593 9.80294,-5.7933 2.88767,-1.53746 4.87829,-2.88767 6.39262,-4.33602 l 1.24361,-1.18941 0.93483,0.33381 c 0.51415,0.18359 1.46953,0.43015 2.12306,0.5479 1.65595,0.29838 6.71438,1.96881 6.50739,2.14891 -1.9513,1.6979 -7.14932,4.45116 -11.06074,5.85859 -4.28887,1.54325 -8.76336,3.526 -12.09228,5.35838 -1.73706,0.95615 -4.05786,2.19769 -5.15734,2.75897 -1.09947,0.56128 -2.72587,1.52118 -3.61422,2.13311 -0.88834,0.61194 -1.61517,1.08022 -1.61517,1.04062 z"
         id="path8686"
         transform="scale(0.26458333)" />
    </g>
  </g>
</svg>
