<?xml version="1.0" encoding="UTF-8" standalone="no"?>
<!-- Created with Inkscape (http://www.inkscape.org/) -->

<svg
   width="210mm"
   height="297mm"
   viewBox="0 0 210 297"
   version="1.1"
   id="svg10812"
   sodipodi:docname="folha-abano.svg"
   inkscape:version="1.2 (dc2aedaf03, 2022-05-15)"
   xmlns:inkscape="http://www.inkscape.org/namespaces/inkscape"
   xmlns:sodipodi="http://sodipodi.sourceforge.net/DTD/sodipodi-0.dtd"
   xmlns="http://www.w3.org/2000/svg"
   xmlns:svg="http://www.w3.org/2000/svg">
  <sodipodi:namedview
     id="namedview10814"
     pagecolor="#505050"
     bordercolor="#eeeeee"
     borderopacity="1"
     inkscape:showpageshadow="0"
     inkscape:pageopacity="0"
     inkscape:pagecheckerboard="0"
     inkscape:deskcolor="#505050"
     inkscape:document-units="mm"
     showgrid="false"
     inkscape:zoom="1.7852694"
     inkscape:cx="341.68513"
     inkscape:cy="728.74157"
     inkscape:window-width="2560"
     inkscape:window-height="1369"
     inkscape:window-x="2552"
     inkscape:window-y="-8"
     inkscape:window-maximized="1"
     inkscape:current-layer="layer1" />
  <defs
     id="defs10809" />
  <g
     inkscape:label="Camada 1"
     inkscape:groupmode="layer"
     id="layer1">
    <path
       id="path10935"
       style="fill:#000000;stroke-width:0.874001"
       d="m 125.54944,109.46877 c -0.0994,0.10267 -0.19649,0.20769 -0.29765,0.30851 -0.24231,0.23304 -0.48376,0.46622 -0.73123,0.6935 0.007,0.011 0.0131,0.022 0.0196,0.0331 8.8e-4,0.001 0.0132,0.0181 0.0295,0.0408 0.0545,-0.0497 0.10742,-0.10104 0.16226,-0.15037 0.2832,-0.27588 0.57343,-0.54433 0.85525,-0.82166 -0.02,-0.0348 -0.0331,-0.0696 -0.0377,-0.10387 z m -3.39411,8.75089 c -0.22135,0.38594 -0.44232,0.77209 -0.65732,1.16168 -0.77871,1.3678 -1.56076,2.73403 -2.30942,4.11862 -0.78766,1.47701 -1.5451,2.97104 -2.23345,4.4974 -0.74648,1.65475 -1.4635,3.32299 -2.14561,5.00537 -0.83342,1.99054 -1.70745,3.9636 -2.62051,5.91902 -1.0328,2.23668 -2.11558,4.44996 -3.11609,6.7014 -0.93309,2.18676 -1.79933,4.4015 -2.57245,6.65024 -0.31545,0.92055 -0.63316,1.84028 -0.95395,2.75901 0.003,9.3e-4 0.006,0.002 0.009,0.003 0.0173,0.0166 0.0152,0.0167 0.0145,0.0403 0,-0.0133 -0.006,0.0229 -0.007,0.0238 -0.0121,0.0455 -0.0266,0.0902 -0.0413,0.13487 -0.0384,0.1105 -0.0826,0.21911 -0.12867,0.3266 -0.0387,0.0877 -0.0798,0.17422 -0.12247,0.25993 -0.31758,0.90076 -0.63943,1.80002 -0.97049,2.69596 -0.68431,1.92549 -1.37185,3.84968 -2.03346,5.78311 -0.61942,1.86768 -1.16852,3.75636 -1.75028,5.63583 -0.635729,2.03399 -1.290132,4.06446 -1.787493,6.13813 -0.493297,2.18556 -0.902289,4.38927 -1.091406,6.62492 -0.219641,2.34415 -0.375776,4.69433 -0.651123,7.03316 -0.251396,2.11408 -0.528573,4.22551 -0.747241,6.34328 -0.0497,-1.19003 -0.08956,-2.38008 -0.122473,-3.57084 -0.08497,-2.27447 -0.217688,-4.54741 -0.276986,-6.82284 -0.06889,-3.17501 -0.109835,-6.35449 0.07855,-9.52655 0.0397,-0.52906 0.0717,-1.05905 0.118856,-1.5875 0.220004,-2.4656 0.635476,-4.90954 1.137398,-7.33185 0.730176,-3.33159 1.583521,-6.63248 2.599325,-9.88932 0.247925,-0.85249 0.488245,-1.70713 0.723985,-2.56264 -0.0548,0.0265 -0.11668,0.0609 -0.18293,0.12558 -0.0739,0.0973 -0.14345,0.19763 -0.22686,0.28732 -0.206686,0.74725 -0.417642,1.49365 -0.633555,2.23862 -1.009488,3.25857 -1.876569,6.55637 -2.60966,9.88725 -0.50097,2.42182 -0.94706,4.86328 -1.160653,7.32979 -0.04583,0.52929 -0.07365,1.06009 -0.110588,1.59008 -0.176537,3.16175 -0.152016,6.33058 -0.102319,9.49555 0.05063,2.26741 0.173294,4.53232 0.24443,6.79906 0.0337,1.60346 0.0816,3.20641 0.156062,4.8085 0.0378,0.74821 0.07417,1.49657 0.109555,2.24482 -0.0013,0.0904 -0.0058,0.18081 -0.0057,0.2713 0.0011,0.10106 0.0032,0.36346 0.0078,0.36587 0.0028,0.001 0.0039,0.002 0.0067,0.003 -4.79e-4,0.008 -0.001,0.0165 -0.001,0.0248 -0.01108,0.1417 -0.02188,0.18829 0.218075,0.0868 0.21055,0.10396 0.23296,0.0855 0.247013,-0.0646 0.01283,-0.17784 6.68e-4,-0.35644 -0.01292,-0.53382 -0.01359,-0.20575 -0.0251,-0.41174 -0.03824,-0.61753 0.01669,-0.8729 0.09827,-1.74456 0.172599,-2.6138 0.205592,-2.26366 0.492706,-4.51946 0.760678,-6.77633 0.281702,-2.35579 0.42498,-4.72436 0.646989,-7.08587 0.197207,-2.23584 0.59849,-4.44335 1.091406,-6.6306 0.496165,-2.08095 1.148857,-4.11942 1.788517,-6.15932 0.58527,-1.87972 1.13347,-3.77013 1.75804,-5.63738 0.66733,-1.93556 1.34891,-3.8664 2.03605,-5.79499 0.11796,-0.31892 0.23299,-0.63894 0.34881,-0.9586 -0.006,-0.004 -0.0121,-0.007 -0.0181,-0.0109 0.0155,-0.0357 0.0411,-0.0674 0.0594,-0.10232 0.62027,-1.71571 1.21419,-3.44061 1.80506,-5.16661 0.76458,-2.25357 1.63342,-4.46965 2.56677,-6.65799 1.01778,-2.24097 2.07712,-4.46304 3.1073,-6.6983 0.917,-1.95625 1.79376,-3.92989 2.6293,-5.92212 0.68051,-1.69713 1.39982,-3.37746 2.14199,-5.04827 0.68045,-1.5339 1.4489,-3.02564 2.22932,-4.51032 0.63522,-1.18477 1.30807,-2.34872 1.96784,-3.51968 0.0386,-0.0904 0.0785,-0.18073 0.12041,-0.26976 0.0487,-0.10351 0.0974,-0.20694 0.14004,-0.31315 0.0537,-0.12319 0.10083,-0.24942 0.15193,-0.37363 0.05,-0.11143 0.0968,-0.22375 0.13746,-0.33899 0.0432,-0.10384 0.0757,-0.21098 0.11058,-0.31781 z m -6.42699,1.33067 c -0.80317,1.25647 -1.56054,2.54153 -2.31149,3.83025 -0.002,0.0185 -0.003,0.0372 -0.0119,0.0532 -0.008,0.0139 -0.0237,0.0281 -0.0434,0.0424 -0.27536,0.47291 -0.5525,0.945 -0.82734,1.41801 -1.45456,2.45786 -2.8629,4.94112 -4.19923,7.46517 -0.95097,1.83465 -1.93934,3.65147 -2.8298,5.51698 -0.58625,1.22819 -0.66333,1.4421 -1.19424,2.67994 -1.11975,2.68518 -1.89422,5.49254 -2.6107,8.30647 -0.42869,1.86267 -0.90137,3.71298 -1.40198,5.55625 0.11006,0.0786 0.19644,0.14079 0.24908,0.1819 0.53022,-1.93284 1.02759,-3.87377 1.46709,-5.83065 0.70827,-2.81335 1.47505,-5.61963 2.58796,-8.30492 0.52144,-1.22657 0.60521,-1.45739 1.18132,-2.67426 0.88451,-1.86832 1.86403,-3.68913 2.80913,-5.52679 1.32394,-2.52942 2.71638,-5.02091 4.16771,-7.47965 0.85091,-1.46878 1.69349,-2.94354 2.58227,-4.38991 0.0627,-0.13351 0.12711,-0.26628 0.19069,-0.39894 0.0657,-0.14821 0.13029,-0.29681 0.19482,-0.44545 z" />
    <path
       id="path10939"
       style="fill:#000000;stroke-width:0.874001"
       d="m 105.17394,156.07729 c -0.004,0.0131 -0.008,0.0261 -0.0119,0.0393 -0.0413,0.11116 -0.0834,0.25797 -0.1664,0.35088 0.10391,0.16674 0.204,0.3358 0.30024,0.50695 0.003,-0.004 0.006,-0.008 0.009,-0.0114 0.0858,-0.10657 0.18268,-0.20566 0.28991,-0.29146 -0.13233,-0.2037 -0.27144,-0.40264 -0.42065,-0.59428 z m 0.68471,1.28313 c -0.002,8.7e-4 -0.004,0.003 -0.004,0.007 0.0267,0.0398 0.0563,0.075 0.0889,0.1049 -0.004,-0.0144 -0.01,-0.0277 -0.0176,-0.0403 -0.01,-0.0153 -0.0485,-0.0695 -0.0646,-0.0718 -9.3e-4,-1.3e-4 -0.002,-2.2e-4 -0.003,0 z m -0.20205,0.23823 c -0.0182,0.0199 -0.0172,0.0548 0.0305,0.12506 0.0892,0.13128 0.12905,0.20435 0.15089,0.24339 0.016,0.01 0.0321,0.0189 0.0481,0.0284 0.005,-0.004 0.0118,-0.009 0.0202,-0.0145 0.0104,-0.0196 0.0225,-0.0355 0.0341,-0.0527 0.004,-0.0369 0.008,-0.074 0.0103,-0.1111 -0.0979,-0.0728 -0.19562,-0.14578 -0.29352,-0.21859 z m 0.22944,0.39687 c -0.0214,0.0158 -0.0234,0.0157 -0.0481,-0.0284 -0.0241,-0.0144 -0.0482,-0.029 -0.0723,-0.0434 0.0281,0.0621 0.0568,0.1239 0.0847,0.18604 0.0132,-0.0401 0.0299,-0.0738 0.0465,-0.10749 -0.004,-0.002 -0.007,-0.005 -0.0109,-0.007 z m 7.44244,38.87825 c -0.019,-0.002 -0.0378,-0.002 -0.0568,0.001 -0.20086,0.0326 -0.34398,0.10074 -0.50075,0.18139 -0.0335,0.1722 -0.0669,0.34446 -0.10283,0.51625 -0.35655,1.61299 -0.75806,3.21781 -1.29553,4.78162 -0.57858,1.66445 -1.22473,3.30449 -1.88981,4.93613 -0.65288,1.56919 -1.33658,3.12547 -2.07171,4.65811 -0.76,1.57292 -1.53699,3.13754 -2.30786,4.70514 -0.8481,1.69517 -1.71798,3.37882 -2.59416,5.05964 -0.82601,1.57792 -1.68503,3.13805 -2.58589,4.67465 -0.87389,1.46048 -1.810868,2.87824 -2.793628,4.26796 -0.748191,1.12357 -1.475212,2.26227 -2.118734,3.44992 -0.240135,0.44098 -0.481333,0.88202 -0.697632,1.33532 -0.114028,-0.21421 -0.226562,-0.42956 -0.346749,-0.64027 -0.431821,-0.74203 -0.871771,-1.4797 -1.271757,-2.23966 -0.54347,-1.06035 -1.039885,-2.14497 -1.477429,-3.25355 -0.556199,-1.38816 -1.103147,-2.78083 -1.588533,-4.19561 -0.550627,-1.63331 -1.067959,-3.27774 -1.598869,-4.91753 -0.577059,-1.787 -1.099369,-3.59209 -1.523938,-5.42189 -0.474379,-2.11194 -0.890734,-4.23796 -1.158069,-6.38721 -0.309176,-2.60004 -0.529266,-5.21003 -0.591178,-7.82898 -0.02641,-1.04392 -0.04566,-2.08888 -0.05013,-3.13366 -0.07595,0.009 -0.211782,0.0282 -0.392225,0.0543 0.0028,1.02689 0.0197,2.05375 0.04444,3.07991 0.05996,2.61248 0.259201,5.21752 0.564824,7.81193 0.272216,2.13268 0.678551,4.24545 1.143082,6.3438 0.40993,1.818 0.955168,3.60073 1.524972,5.37383 0.555672,1.60663 1.084606,3.22211 1.625224,4.83381 0.480602,1.41432 1.026326,2.80513 1.577681,4.19303 0.434715,1.10981 0.930491,2.19436 1.471228,3.25613 0.397216,0.75991 0.836039,1.49702 1.265039,2.23914 0.176694,0.31055 0.337893,0.62944 0.506946,0.94413 0.03968,0.0769 0.07531,0.15597 0.100769,0.23874 0.03864,0.14405 -0.01166,0.0596 0.258382,0.10232 0.164983,0.16953 0.216082,0.25677 0.180868,0.10335 -0.0067,-0.024 -0.01578,-0.0473 -0.02377,-0.0708 0.02449,0.006 0.04405,0.01 0.07183,0.017 0.242403,-0.54594 0.527613,-1.07107 0.810286,-1.5968 0.636823,-1.18101 1.352511,-2.31552 2.09703,-3.4308 0.980469,-1.38383 1.914922,-2.79569 2.782255,-4.25297 0.90733,-1.5417 1.77107,-3.10777 2.60605,-4.68964 0.87913,-1.68808 1.75113,-3.37994 2.60552,-5.08082 0.7837,-1.58286 1.57288,-3.16336 2.34766,-4.75062 0.74039,-1.53129 1.42852,-3.08673 2.0836,-4.65604 0.67432,-1.64909 1.32751,-3.30708 1.91461,-4.98936 0.53976,-1.56588 0.94314,-3.1713 1.29398,-4.78834 0.0572,-0.27751 0.11022,-0.55556 0.16174,-0.83406 z" />
    <path
       id="path10961"
       style="fill:#000000;stroke-width:0.874001"
       d="m 119.02478,123.16613 c -0.0421,0.002 -0.0896,0.009 -0.14625,0.0212 l -0.0326,0.0388 c 0.0498,0.16217 0.14468,0.25706 0.2899,0.34675 0.32324,0.24158 0.6328,0.50081 0.93069,0.77308 0.15251,0.12369 0.30892,0.2434 0.46819,0.35863 0.0676,-0.13633 0.10731,-0.2418 0.13901,-0.31936 -0.12852,-0.0951 -0.25531,-0.19277 -0.3793,-0.29352 -0.2989,-0.27142 -0.60751,-0.53196 -0.92863,-0.7767 -0.13588,-0.10789 -0.21426,-0.15361 -0.34055,-0.14882 z m 1.78645,1.55907 c -0.0287,-7.2e-4 -0.0935,0.0329 -0.15813,0.0646 0.0357,0.0247 0.0719,0.0482 0.108,0.0724 0.0118,-0.0201 0.0244,-0.0409 0.0382,-0.0625 0.0346,-0.0541 0.0334,-0.0739 0.0119,-0.0744 z m 0.74569,0.21291 c 0.0216,0.0278 0.0429,0.0557 0.0636,0.0842 0.0514,0.066 0.10099,0.1333 0.15142,0.19999 0.16127,0.0588 0.32454,0.12163 0.48214,0.19534 0.0107,-0.005 0.0213,-0.01 0.032,-0.0145 -0.2252,-0.18111 -0.47526,-0.3269 -0.72916,-0.46509 z m 24.30188,41.22797 c -0.0287,0.19358 -0.0481,0.38893 -0.0553,0.58447 -0.007,0.15541 0.007,0.30723 0.0408,0.45837 0.0349,0.15753 0.0438,0.31522 0.0388,0.47594 -0.003,0.0345 -0.0131,0.17305 -0.0331,0.19585 -0.0156,0.0178 -0.034,0.0324 -0.0543,0.0444 0.0551,0.26905 0.11064,0.53805 0.16072,0.80822 0.25048,1.25914 0.50272,2.51827 0.75757,3.77651 0.28518,1.34634 0.57946,2.69186 0.9803,4.00958 0.46644,1.53442 0.97035,3.05691 1.4578,4.58473 0.50542,1.6232 0.99039,3.25293 1.38337,4.90771 0.40062,1.66557 0.75823,3.34105 1.01338,5.03587 0.23622,1.4993 0.46337,3.00062 0.68213,4.50257 0.151,1.02911 0.30214,2.05835 0.48421,3.0825 0.19386,1.01779 0.42023,2.02792 0.70848,3.02358 0.22812,0.90566 0.4017,1.82406 0.48886,2.75488 0.0835,0.81223 0.16713,1.62504 0.19482,2.44171 0.0287,0.74802 0.0442,1.49626 0.0517,2.24482 0.002,0.54936 0.002,1.09861 -0.003,1.64796 -5e-5,0.13599 0.001,0.27226 -0.006,0.40825 -0.0828,-0.0406 -0.16688,-0.0787 -0.2496,-0.11938 -0.48425,-0.24049 -0.96842,-0.48133 -1.45365,-0.71985 -0.64386,-0.31776 -1.29142,-0.62959 -1.95906,-0.89503 -0.81803,-0.32506 -1.64889,-0.61458 -2.49597,-0.85525 -0.99177,-0.2955 -1.98957,-0.57328 -2.96984,-0.90537 -0.97999,-0.3468 -1.94078,-0.74109 -2.86443,-1.2206 -0.90377,-0.45021 -1.80147,-0.91908 -2.76262,-1.23868 -0.94149,-0.28294 -1.89363,-0.53144 -2.82102,-0.8599 -0.9061,-0.33607 -1.80779,-0.6892 -2.73937,-0.95033 -1.04872,-0.31648 -2.1171,-0.56056 -3.19618,-0.75034 -1.23019,-0.23564 -2.47062,-0.40968 -3.70365,-0.62942 -1.12738,-0.20561 -2.24898,-0.43945 -3.36052,-0.71933 -1.03691,-0.27396 -2.07881,-0.53018 -3.10575,-0.84026 -0.98054,-0.28592 -1.95029,-0.61017 -2.94246,-0.85525 -0.92278,-0.21013 -1.85257,-0.38425 -2.79156,-0.50539 -0.75602,-0.0916 -1.51424,-0.16565 -2.27531,-0.19792 l -0.25839,0.13177 c 0.75047,0.0358 1.49756,0.11343 2.24224,0.21084 0.92898,0.12623 1.84972,0.29784 2.76263,0.51005 0.97817,0.26036 1.94641,0.55864 2.91455,0.85421 1.02236,0.29014 2.04701,0.57484 3.08146,0.81907 1.10836,0.28774 2.22925,0.52325 3.35535,0.72915 1.22906,0.2051 2.45839,0.40838 3.68815,0.60927 1.07452,0.18064 2.12778,0.45655 3.18068,0.73174 0.91984,0.25573 1.80185,0.62413 2.69235,0.96376 0.91754,0.33674 1.87039,0.55979 2.80603,0.83975 0.97005,0.26945 1.86089,0.75174 2.75642,1.20044 0.92157,0.48242 1.88108,0.87797 2.85977,1.2268 0.97797,0.33412 1.97386,0.61238 2.96364,0.90847 0.83704,0.24191 1.65883,0.53163 2.46755,0.85473 0.66136,0.26351 1.30105,0.57589 1.93787,0.89297 0.48311,0.23731 0.96387,0.47883 1.44487,0.72037 0.19027,0.0957 0.38029,0.19268 0.57361,0.28215 0.0588,0.029 0.12132,0.0479 0.185,0.0625 0.004,7.9e-4 0.008,0.001 0.0119,0.002 0.14233,-0.0317 0.29023,-0.0455 0.43098,-0.0822 0.10604,0.006 0.19634,0.009 0.11162,0.002 -0.0252,-0.003 -0.0501,-0.008 -0.0749,-0.015 0.0322,-0.01 0.0645,-0.0181 0.0956,-0.031 0.006,-0.002 0.0108,-0.51844 0.0103,-0.5705 -0.002,-0.54942 -0.002,-1.09908 -0.008,-1.64848 -0.0111,-0.72651 -0.0298,-1.45205 -0.0574,-2.17816 -0.0369,-0.82813 -0.10838,-1.65448 -0.19327,-2.47892 -0.0821,-0.94537 -0.25835,-1.87738 -0.49041,-2.79621 -0.29046,-0.99453 -0.51535,-2.00494 -0.71469,-3.02101 -0.19641,-1.04346 -0.34116,-2.09546 -0.50694,-3.14399 -0.23644,-1.51153 -0.4821,-3.02132 -0.72089,-4.53254 -0.25287,-1.69426 -0.62004,-3.36809 -1.02164,-5.03225 -0.39528,-1.66242 -0.88663,-3.29846 -1.39681,-4.92838 -0.48489,-1.52424 -0.98567,-3.04338 -1.45056,-4.57389 -0.39942,-1.31655 -0.69254,-2.66115 -0.97824,-4.00595 -0.25593,-1.26996 -0.52543,-2.5371 -0.78186,-3.80701 -0.15105,-0.81562 -0.3278,-1.62568 -0.51883,-2.43241 z" />
    <path
       id="path10965"
       style="fill:#000000;stroke-width:0.874001"
       d="m 114.1119,121.78792 c -0.37567,0.29887 -0.77019,0.57068 -1.17512,0.82682 0.10723,0.10235 0.10005,0.0619 0.11162,0.0703 0.31694,-0.21131 0.6279,-0.4318 0.92604,-0.67025 z m -32.33963,18.73012 c -0.20754,0.13503 -0.417432,0.26643 -0.624252,0.40256 -1.406825,0.91196 -2.723623,1.9497 -3.991487,3.04426 -1.127725,0.99873 -2.17982,2.0786 -3.224093,3.16311 -1.039177,1.09285 -2.075104,2.18845 -3.078882,3.31401 -0.870286,0.95856 -1.659373,1.98419 -2.428275,3.0241 -0.619342,0.84905 -1.228774,1.70377 -1.783354,2.59675 -0.579252,0.96778 -1.113233,1.96164 -1.654163,2.95124 -0.642842,1.14382 -1.244363,2.30998 -1.833479,3.48195 -0.630843,1.25827 -1.265821,2.51421 -1.873788,3.78375 -0.551031,1.14426 -1.057668,2.30859 -1.568379,3.47111 -0.462349,1.05622 -0.926457,2.11153 -1.379244,3.1719 -0.443499,1.03074 -0.825955,2.08596 -1.196827,3.14451 -0.398824,1.15504 -0.76396,2.32153 -1.133781,3.48609 -0.346705,1.10677 -0.679326,2.2181 -0.976167,3.33933 -0.270629,1.0081 -0.447439,2.03615 -0.585494,3.06958 -0.145314,1.21701 -0.317155,2.43006 -0.547771,3.63389 -0.222088,1.19677 -0.48337,2.3854 -0.774112,3.56722 -0.270799,1.03937 -0.542561,2.07857 -0.787549,3.12436 -0.192825,0.87716 -0.363411,1.75903 -0.526066,2.64222 -0.122314,0.65849 -0.271856,1.31149 -0.421163,1.96422 -0.08106,0.36315 -0.170789,0.72388 -0.243396,1.08882 -0.02429,0.11096 -0.05243,0.22126 -0.0739,0.3328 0.01,0.073 0.0077,0.14524 0.0041,0.21859 -0.006,0.13921 -0.04567,0.27342 -0.0832,0.40669 -0.01998,0.0635 -0.05072,0.10147 -0.01705,0.15916 0.369625,-0.0107 0.790381,-0.24311 1.143083,-0.38498 0.386459,-0.13444 0.762387,-0.32323 1.161169,-0.42117 0.05923,-0.0146 -0.114513,0.043 -0.171565,0.0646 0.615902,-0.18334 1.250462,-0.2911 1.881022,-0.4098 0.870132,-0.17794 1.750338,-0.29063 2.630847,-0.40101 1.001712,-0.11465 2.007053,-0.19571 3.011702,-0.27957 0.901379,-0.0834 1.803435,-0.16039 2.705262,-0.23977 0.860605,-0.0623 1.719467,-0.1414 2.573486,-0.2651 0.915276,-0.13022 1.815513,-0.34245 2.718697,-0.53589 0.865444,-0.18241 1.73395,-0.3498 2.601392,-0.52245 0.773948,-0.15517 1.550285,-0.29981 2.330607,-0.41909 0.625413,-0.0935 1.250703,-0.18857 1.877921,-0.26924 0.489103,-0.0594 0.979338,-0.10677 1.469678,-0.15503 0.572669,-0.0568 1.148584,-0.0611 1.723409,-0.0522 0.631557,0.0139 1.26278,0.0365 1.893941,0.0625 0.468797,0.0193 0.938637,0.0236 1.407666,0.0124 0.314936,-0.0149 0.62913,-0.0381 0.943612,-0.0605 0.239712,-0.0163 0.479944,-0.0273 0.719336,-0.0481 0.14523,-0.0129 0.290351,-0.0272 0.435115,-0.0444 0.05916,-0.003 0.114282,-0.0101 0.170016,-0.0295 0.04672,-0.0531 0.09385,-0.10613 0.14056,-0.15916 0.07438,-0.0121 0.148858,-0.0241 0.223242,-0.0362 0.06131,-0.0319 -0.08696,-5.3e-4 -0.100252,-0.002 -0.14495,0.0156 -0.289609,0.0351 -0.435116,0.0455 -0.236411,0.0209 -0.473187,0.0306 -0.710034,0.045 -0.310999,0.0173 -0.62151,0.0438 -0.93276,0.0568 -0.464635,0.009 -0.929414,0.007 -1.393713,-0.0155 -0.632931,-0.0257 -1.266568,-0.047 -1.899626,-0.0692 -0.574262,-0.009 -1.149462,-0.0101 -1.721858,0.0444 -0.490569,0.048 -0.98098,0.0967 -1.469678,0.16123 -0.629657,0.081 -1.257115,0.1788 -1.885156,0.2713 -0.779504,0.1328 -1.559162,0.26654 -2.333708,0.42633 -0.871529,0.17365 -1.741751,0.35208 -2.611727,0.5333 -0.906923,0.19568 -1.813421,0.39994 -2.731099,0.5395 -0.857848,0.11709 -1.718125,0.20375 -2.581238,0.27182 -0.90503,0.081 -1.809804,0.16956 -2.716113,0.23461 -1.004604,0.0831 -2.009907,0.16422 -3.011703,0.27699 -0.877239,0.10734 -1.750406,0.24612 -2.618962,0.40979 -0.629922,0.1177 -1.263843,0.2237 -1.879988,0.40308 -0.634682,0.20358 -1.272546,0.40146 -1.888774,0.65732 -0.02566,0.0103 -0.115691,0.0461 -0.202055,0.0806 0.0058,-0.0256 0.01237,-0.0554 0.01602,-0.0615 0.03572,-0.13585 0.06424,-0.27499 0.07235,-0.41547 0.0024,-0.0712 -8.97e-4,-0.1411 -0.0041,-0.21188 0.01712,-0.11113 0.04985,-0.21937 0.06873,-0.33021 0.0696,-0.36755 0.144703,-0.73355 0.226342,-1.09864 0.140528,-0.64714 0.279835,-1.29515 0.40411,-1.94562 0.167291,-0.87533 0.322546,-1.75345 0.517281,-2.62309 0.244412,-1.04531 0.516674,-2.08341 0.784965,-3.12281 0.291277,-1.18514 0.540803,-2.37989 0.768946,-3.57859 0.217952,-1.20668 0.401619,-2.41923 0.54932,-3.63647 0.140121,-1.03136 0.316184,-2.05716 0.584977,-3.0639 0.296693,-1.12414 0.617159,-2.24188 0.970484,-3.34967 0.37007,-1.1642 0.73447,-2.3308 1.134814,-3.48506 0.37206,-1.05856 0.749102,-2.11663 1.196309,-3.14657 0.452194,-1.06242 0.908325,-2.1227 1.368392,-3.18172 0.499108,-1.17302 1.009641,-2.34174 1.558562,-3.49229 0.607141,-1.27203 1.231768,-2.53563 1.860351,-3.79719 0.593082,-1.1759 1.200684,-2.34438 1.831413,-3.50056 0.54102,-0.99033 1.07816,-1.98363 1.65933,-2.95124 0.553209,-0.88627 1.150022,-1.74362 1.778703,-2.57814 0.764788,-1.03718 1.550676,-2.05918 2.41639,-3.01532 1.004141,-1.1275 2.023667,-2.24041 3.070614,-3.32848 1.045316,-1.08653 2.093373,-2.17207 3.216341,-3.17965 1.071173,-0.94538 2.212346,-1.80062 3.411678,-2.57865 0.25435,-0.16749 0.512425,-0.32934 0.767912,-0.49506 0.03502,-0.0639 0.06989,-0.12782 0.104903,-0.19172 z m -30.297893,62.36777 v 5.1e-4 c -0.01539,0.006 -0.03015,0.0109 -0.04444,0.0176 4.2e-4,-0.002 1.5e-4,-0.002 0.0016,-0.004 0.0084,-0.003 0.03711,-0.0116 0.04289,-0.0139 z" />
    <path
       id="path10967"
       style="fill:#000000;stroke-width:0.874001"
       d="m 118.07135,161.79167 c 0.55818,0.21198 1.10219,0.4585 1.61385,0.76843 0.78129,0.45388 1.52893,0.96029 2.26963,1.47743 1.15119,0.78868 2.31483,1.55888 3.45199,2.36782 1.24685,0.88485 2.50404,1.75645 3.72277,2.67994 1.29188,1.0277 2.53402,2.11635 3.69744,3.28868 1.23341,1.24461 2.4956,2.47187 3.57085,3.85972 1.21897,1.58839 2.35286,3.2388 3.46697,4.90202 1.29483,1.92197 2.58757,3.84701 3.77599,5.83737 1.0954,1.86539 2.10883,3.77487 3.03496,5.7304 0.90371,1.90057 1.77307,3.81857 2.5275,5.78415 0.62282,1.61502 1.21499,3.24149 1.82004,4.86327 0.47769,1.29942 0.94619,2.60198 1.42214,3.90208 0.32536,0.88382 0.65186,1.76816 1.01182,2.6386 0.27239,0.62826 0.56431,1.24798 0.90951,1.8402 l 0.13229,0.0811 v -5.2e-4 c -0.34083,-0.58862 -0.62654,-1.20521 -0.89504,-1.82934 -0.3513,-0.86146 -0.65827,-1.74006 -0.98288,-2.61173 -0.47121,-1.30078 -0.93604,-2.60366 -1.41232,-3.9026 -0.59687,-1.6231 -1.20055,-3.24359 -1.8216,-4.85759 -0.76303,-1.96276 -1.62406,-3.88452 -2.52697,-5.78621 -0.92037,-1.96055 -1.93637,-3.86969 -3.03289,-5.7366 -1.18966,-1.99285 -2.48432,-3.91954 -3.77238,-5.84925 -1.10872,-1.66315 -2.24439,-3.30785 -3.45251,-4.90048 -1.06841,-1.39803 -2.32903,-2.63021 -3.56309,-3.87883 -1.15894,-1.18152 -2.40021,-2.27571 -3.69486,-3.30523 -1.21834,-0.93046 -2.48108,-1.8012 -3.73156,-2.68769 -1.13313,-0.80936 -2.29333,-1.58008 -3.44113,-2.36833 -0.73598,-0.52448 -1.48304,-1.03203 -2.25619,-1.50017 -0.56426,-0.35174 -1.17688,-0.59986 -1.80764,-0.8015 z" />
    <path
       id="path10969"
       style="fill:#000000;stroke-width:0.874001"
       d="m 86.367338,158.00638 c -1.328072,0.90721 -2.64242,1.83354 -3.878833,2.86494 -1.547371,1.26778 -3.056389,2.58867 -4.367175,4.10621 -1.507409,1.74813 -2.935517,3.56075 -4.332552,5.39812 -1.688173,2.1953 -3.365292,4.4009 -4.912879,6.69881 -1.522532,2.2441 -3.010079,4.51123 -4.496366,6.77943 -1.401939,2.11335 -2.801774,4.22891 -4.309298,6.26939 -1.316348,1.78349 -2.614602,3.58021 -3.89692,5.3883 -1.03761,1.44084 -2.094388,2.86745 -3.117639,4.3186 -0.667419,0.92252 -1.339873,1.8415 -2.003495,2.76676 l 0.26665,-0.0987 c 0.658463,-0.93196 1.336853,-1.84948 2.007113,-2.77295 1.041134,-1.44285 2.107478,-2.86724 3.149679,-4.3093 1.274667,-1.81733 2.572291,-3.61801 3.882967,-5.40949 1.517499,-2.03332 2.905759,-4.15796 4.308264,-6.27093 1.490367,-2.2681 2.977775,-4.53791 4.504118,-6.78202 1.558833,-2.29915 3.240365,-4.51077 4.923213,-6.71949 1.409972,-1.8351 2.830733,-3.66285 4.345472,-5.4131 1.304544,-1.51395 2.808937,-2.82567 4.336169,-4.10621 1.157373,-0.94349 2.3665,-1.82141 3.578076,-2.69338 z" />
    <path
       id="path10971"
       style="fill:#000000;stroke-width:0.874001"
       d="m 100.73597,154.17405 c -6.5e-4,4.1e-4 -0.001,6.3e-4 -0.002,0.001 l 0.002,-5.2e-4 z m -0.002,0.001 -0.27647,0.10128 c -0.0629,0.0401 -0.12572,0.0806 -0.1881,0.12144 0.0179,0.0128 0.0441,0.0317 0.0605,0.0434 0.13311,-0.0909 0.2676,-0.17988 0.40411,-0.26613 z" />
    <path
       id="path11204"
       style="fill:#000000;stroke-width:0.874001"
       d="m 114.9072,121.60963 -0.047,0.008 c -0.21979,0.0904 -0.4404,0.17878 -0.65319,0.28526 -0.30142,0.13606 -0.60208,0.27418 -0.90485,0.40721 l 0.26096,-0.0434 v 5.2e-4 c 0.31508,-0.1357 0.62875,-0.27534 0.94258,-0.41393 0.11259,-0.0604 0.24621,-0.0938 0.34882,-0.17312 0.0232,-0.0179 0.0349,-0.047 0.0527,-0.0703 z" />
    <path
       id="path11206"
       style="fill:#000000;stroke-width:0.874001"
       d="m 128.44177,101.83564 c -0.015,0.004 -0.0853,0.0406 -0.17415,0.0884 -0.17933,0.0167 -0.21192,0.0337 -0.31832,0.15606 -0.18959,0.21574 -0.36657,0.44192 -0.54726,0.66508 -0.48048,0.60668 -0.9679,1.20794 -1.45831,1.80661 -0.70209,0.86693 -1.39615,1.74064 -2.09496,2.61017 -0.59665,0.73667 -1.20369,1.46459 -1.79369,2.20659 -0.57039,0.74348 -1.12482,1.49895 -1.66243,2.26653 -0.57791,0.82367 -1.14174,1.65679 -1.71514,2.48357 -0.54134,0.76279 -1.1027,1.51123 -1.64228,2.27531 -0.42297,0.6046 -0.84767,1.21009 -1.19889,1.86035 -0.28704,0.52683 -0.56218,1.05993 -0.82476,1.59939 -0.21276,0.42245 -0.41447,0.85025 -0.60048,1.28519 -0.15523,0.35249 -0.32088,0.70032 -0.51004,1.03611 l 0.25166,-0.0506 c 0.20042,-0.3378 0.37369,-0.69017 0.54157,-1.0449 0.19372,-0.441 0.40623,-0.87264 0.6165,-1.30586 0.26142,-0.54523 0.53741,-1.08311 0.82889,-1.61282 0.35859,-0.64612 0.78498,-1.24997 1.20716,-1.85519 0.54253,-0.76301 1.09644,-1.51732 1.6366,-2.28203 0.57346,-0.82828 1.13915,-1.66234 1.71979,-2.48564 0.54024,-0.76587 1.0936,-1.5222 1.66449,-2.26549 0.59134,-0.74014 1.19936,-1.46651 1.79214,-2.20555 0.69443,-0.87197 1.38697,-1.74558 2.09187,-2.60914 0.50128,-0.6012 0.99228,-1.21054 1.48466,-1.81901 0.0719,-0.0863 0.14306,-0.17316 0.21446,-0.25994 -0.0104,0.0423 -0.0208,0.0846 -0.0305,0.12713 -0.0142,0.0474 -0.021,0.0974 -0.0372,0.14418 -0.0168,0.0464 -0.0337,0.0928 -0.0512,0.139 -0.0955,0.24302 -0.19072,0.48583 -0.27854,0.73174 -0.20738,0.60294 -0.44233,1.19543 -0.67592,1.78852 -0.35672,0.90365 -0.73698,1.79782 -1.10846,2.69545 -0.37419,0.90688 -0.72508,1.82341 -1.07229,2.74091 0.0215,0.0411 0.0376,0.0791 0.0393,0.10542 0.002,0.0304 -0.0632,0.0603 -0.11111,0.0858 -0.28869,0.78867 -0.5938,1.5709 -0.90795,2.34973 -0.27071,0.66074 -0.55588,1.31511 -0.85111,1.96525 -0.23873,0.52028 -0.49366,1.03316 -0.73794,1.55081 -0.20801,0.44058 -0.41516,0.8816 -0.61134,1.32757 -0.15684,0.35511 -0.30725,0.71228 -0.45992,1.06918 -0.12544,0.28528 -0.26236,0.56513 -0.39946,0.84491 -0.14662,0.31137 -0.31702,0.61064 -0.48627,0.91002 -0.14957,0.25024 -0.26851,0.51635 -0.39533,0.77825 -0.0755,0.18303 -0.15344,0.36492 -0.23977,0.54312 -0.0697,0.14178 -0.13793,0.28435 -0.20619,0.42685 -0.0636,0.1365 -0.14491,0.26314 -0.22014,0.39326 -0.0696,0.12017 -0.1395,0.23981 -0.21394,0.35708 -0.0453,0.0681 -0.0938,0.13414 -0.13281,0.20619 -0.0185,0.0373 -0.0421,0.0712 -0.0677,0.10387 -0.002,0.009 -0.0132,0.0101 -0.0145,0.0109 0.0508,-0.0113 0.0951,-0.0199 0.13488,-0.0264 v 5.1e-4 c 0.007,0.017 0.11337,-0.0168 0.35708,-0.017 0.003,-0.007 0.005,-0.0158 0.0114,-0.0222 0.0226,-0.0346 0.0411,-0.0716 0.0605,-0.10801 0.0415,-0.0688 0.0867,-0.13514 0.12868,-0.2036 0.0738,-0.11691 0.13979,-0.23803 0.20825,-0.35812 0.0754,-0.13418 0.14678,-0.27055 0.20929,-0.41134 0.0646,-0.14224 0.13006,-0.2841 0.19689,-0.4253 0.0832,-0.17885 0.16013,-0.36034 0.23306,-0.54364 0.10795,-0.27212 0.24327,-0.53201 0.38757,-0.78651 0.17069,-0.29961 0.33904,-0.60084 0.48679,-0.91261 0.13725,-0.27957 0.27255,-0.56067 0.39533,-0.84697 0.15106,-0.35969 0.29249,-0.72299 0.44855,-1.08056 0.19587,-0.44832 0.39082,-0.89726 0.60255,-1.33842 0.24347,-0.51516 0.4971,-1.02531 0.73174,-1.54461 0.29337,-0.65008 0.57665,-1.30468 0.84439,-1.96577 0.32647,-0.81039 0.62733,-1.63097 0.92139,-2.45359 0.35719,-0.9542 0.72368,-1.90538 1.11208,-2.84738 0.37258,-0.90088 0.74701,-1.80054 1.10639,-2.70681 0.23485,-0.59318 0.46767,-1.1876 0.67644,-1.79059 0.0884,-0.24623 0.18069,-0.49064 0.28112,-0.73225 0.0172,-0.0468 0.0383,-0.0939 0.045,-0.14366 0.002,-0.0464 0.011,-0.0918 0.0217,-0.13694 0.027,-0.1164 0.055,-0.23257 0.0868,-0.34779 0.0131,-0.0601 0.0249,-0.11149 0.0202,-0.1111 -0.01,8.2e-4 -0.014,0.001 -0.0233,0.002 0.0526,-0.0461 0.10025,-0.0855 0.0765,-0.0796 z" />
    <path
       id="path11499"
       style="fill:#000000;stroke-width:0.874001"
       d="m 119.07594,123.42916 c 0.59043,0.26933 1.18128,0.53784 1.77198,0.80667 0.0275,0.008 0.0604,0.0237 0.10129,0.046 0.001,4.8e-4 0.002,0.001 0.003,0.002 0.25258,0.11494 0.50499,0.23027 0.75757,0.3452 1.50516,0.68117 2.99349,1.39688 4.47053,2.13682 1.76135,0.90119 3.51416,1.81859 5.28598,2.69906 1.63155,0.78462 3.25414,1.58668 4.85759,2.42724 1.59992,0.87055 3.16777,1.7983 4.72788,2.73782 2.05792,1.20863 4.17311,2.313 6.31279,3.36878 1.79135,0.85713 3.57296,1.73669 5.37796,2.5647 1.38724,0.62104 2.77805,1.23758 4.1889,1.80351 0.96505,0.38131 1.92939,0.76241 2.90473,1.11673 0.78451,0.28202 1.56799,0.56883 2.36109,0.82579 0.52909,0.17914 1.06065,0.35034 1.59526,0.51211 0.0826,0.0253 0.1656,0.0508 0.24804,0.077 -0.23854,0.28347 -0.51,0.53812 -0.77411,0.79737 -0.69484,0.70899 -1.42024,1.38696 -2.15077,2.05879 -0.89689,0.80899 -1.82581,1.58131 -2.71973,2.39365 -0.92882,0.8466 -1.80974,1.74281 -2.66289,2.66495 -0.67068,0.7361 -1.28223,1.52249 -1.90118,2.30167 -0.48897,0.61839 -0.98095,1.23383 -1.49706,1.82986 -0.56629,0.63364 -1.1237,1.2757 -1.6769,1.92082 -0.5598,0.63117 -1.08241,1.29133 -1.56011,1.98644 -0.47167,0.70884 -0.88084,1.45646 -1.28881,2.20296 -0.23666,0.441 -0.47622,0.8805 -0.69505,1.33067 -0.17586,0.34862 -0.35098,0.69718 -0.52348,1.04748 -0.12827,0.25265 -0.24463,0.51149 -0.35812,0.77102 -0.0732,0.1674 -0.14259,0.33606 -0.20722,0.50694 -0.0476,0.11924 -0.0819,0.24309 -0.11318,0.36742 -0.0218,0.0728 -0.0372,0.14688 -0.0506,0.22118 0.0205,0.12753 0.0258,0.25552 0.0217,0.3855 -0.003,0.0345 -0.0131,0.17306 -0.0331,0.19586 -0.0114,0.0129 -0.0243,0.0243 -0.0382,0.0341 4.7e-4,0.0107 -7.7e-4,0.0214 0,0.032 0.0368,0.0978 0.1074,0.184 0.16175,0.27389 l 0.0388,0.0362 c 0.0488,0.0182 0.17456,0.0929 0.22272,0.032 0.0125,-0.11822 0.005,-0.23775 0.0181,-0.35605 0.0142,-0.16651 0.0382,-0.33118 0.0853,-0.49196 0.0348,-0.12709 0.0658,-0.25445 0.11989,-0.37517 0.0629,-0.17088 0.13139,-0.33979 0.20361,-0.50695 0.11171,-0.25974 0.22573,-0.51869 0.35243,-0.77153 0.17239,-0.35034 0.34577,-0.70008 0.52297,-1.04799 0.22347,-0.44292 0.43941,-0.88974 0.67386,-1.32706 0.39885,-0.7457 0.79738,-1.49283 1.25884,-2.20245 0.47007,-0.69883 0.99528,-1.35503 1.54719,-1.99109 0.56223,-0.6579 1.1291,-1.31158 1.7079,-1.95492 0.50938,-0.58945 0.99354,-1.19978 1.4702,-1.81591 0.60577,-0.77595 1.2089,-1.55502 1.86604,-2.28875 0.83982,-0.92522 1.7076,-1.82536 2.62671,-2.6727 0.89582,-0.8177 1.82867,-1.59312 2.72645,-2.40864 0.71963,-0.66826 1.43567,-1.34011 2.13578,-2.02882 0.27219,-0.27131 0.55362,-0.53521 0.80512,-0.8263 0.0259,-0.0345 0.0995,-0.12702 0.0935,-0.14211 -0.007,-0.0182 -0.01,-0.0263 -0.016,-0.0429 0.0901,0.0389 0.12808,0.0443 -0.0413,-0.11163 -0.083,-0.2294 -0.0879,-0.26483 -0.27079,-0.32762 -0.18345,-0.0572 -0.36524,-0.11993 -0.55087,-0.17002 -0.54068,-0.15722 -1.08176,-0.31242 -1.61954,-0.47956 -0.79687,-0.25796 -1.59293,-0.51806 -2.38125,-0.8015 -0.97401,-0.35353 -1.94307,-0.72034 -2.90835,-1.09709 -1.41154,-0.56259 -2.82791,-1.1133 -4.20956,-1.7477 -1.80085,-0.82224 -3.60168,-1.64497 -5.37745,-2.52077 -1.92786,-0.95065 -3.83509,-1.94373 -5.67304,-3.0608 -1.57459,-0.93264 -3.13597,-1.88914 -4.73924,-2.77192 -1.60047,-0.86996 -3.24265,-1.658 -4.88239,-2.4505 -1.78551,-0.88208 -3.55193,-1.80182 -5.32629,-2.70578 -1.48427,-0.74006 -2.96994,-1.47908 -4.49172,-2.13992 -0.89164,-0.40117 -1.78198,-0.80511 -2.67322,-1.20716 z" />
    <path
       id="path11501"
       style="fill:#000000;stroke-width:0.874001"
       d="m 82.480237,108.24507 c 0.0088,0.0217 0.0049,0.0239 0.02739,0.03 0.0184,0.0138 0.03813,0.0248 0.05736,0.0367 -0.02312,-0.002 -0.04603,-0.003 -0.06925,-0.003 -0.02019,2.2e-4 0.01253,0.0385 0.01809,0.0579 0.0067,0.0234 0.01278,0.0467 0.0186,0.0703 0.02341,0.0952 0.04282,0.19181 0.06253,0.28784 0.06133,0.31081 0.145256,0.6157 0.225827,0.92191 0.133246,0.43318 0.23381,0.87444 0.313159,1.32033 0.143063,0.77843 0.208961,1.56638 0.256832,2.35541 0.05952,0.98434 0.08751,1.97002 0.125057,2.95538 0.04458,0.95015 0.04954,1.90153 0.08217,2.85202 0.02466,0.90109 0.07547,1.80127 0.126607,2.70113 0.04705,0.85182 0.09912,1.70337 0.150895,2.55488 0.04514,0.80137 0.08307,1.60288 0.111622,2.40502 0.0373,0.72691 0.02286,1.45368 -0.01034,2.18023 -0.03383,0.72659 -0.09233,1.45131 -0.163814,2.17506 -0.06402,0.68966 -0.174164,1.37395 -0.311092,2.05259 -0.116167,0.57527 -0.266935,1.14237 -0.412895,1.71049 -0.126865,0.54141 -0.27713,1.07636 -0.421163,1.61334 -0.104016,0.40414 -0.232443,0.80112 -0.374654,1.1932 -0.103992,0.29348 -0.221799,0.58178 -0.340031,0.86972 -0.08031,0.19881 -0.150057,0.40184 -0.232027,0.59996 -0.05068,0.13054 -0.118871,0.2521 -0.191203,0.37156 -0.04364,0.0781 -0.08851,0.15545 -0.12299,0.23822 -0.04397,0.0911 -0.09897,0.17631 -0.157096,0.2589 -0.0616,0.0798 -0.117763,0.16338 -0.173116,0.24753 -0.05224,0.0822 -0.09346,0.17093 -0.133842,0.25942 -0.03023,0.0664 -0.06702,0.12972 -0.10697,0.19069 -0.06462,0.0741 -0.08034,0.14169 -0.09095,0.24029 -0.01987,0.2122 0.0074,0.11203 -0.0801,0.30231 l 0.03307,0.031 c 0.164785,-0.11618 0.07448,-0.0763 0.272851,-0.11885 0.09999,-0.0138 0.191094,-0.0324 0.251664,-0.11937 0.04084,-0.0637 0.08192,-0.12735 0.111622,-0.19741 0.03844,-0.0867 0.07992,-0.17196 0.130741,-0.25218 0.05682,-0.0923 0.123474,-0.17818 0.186035,-0.26665 0.06195,-0.0883 0.123488,-0.17755 0.171566,-0.2744 0.03281,-0.0724 0.07012,-0.1427 0.10542,-0.21394 0.06438,-0.122 0.138085,-0.23926 0.187068,-0.36897 0.07877,-0.19931 0.152957,-0.40007 0.231511,-0.59945 0.119462,-0.2882 0.236002,-0.57763 0.341581,-0.87126 0.14224,-0.39451 0.270326,-0.79401 0.372587,-1.20096 0.145921,-0.54215 0.289275,-1.08491 0.422197,-1.63039 0.145473,-0.57701 0.282143,-1.15599 0.402042,-1.73892 0.131307,-0.6848 0.234778,-1.37379 0.301791,-2.06809 0.07291,-0.72369 0.134895,-1.44832 0.168465,-2.17506 0.02971,-0.7288 0.03409,-1.45886 0.01189,-2.18798 -0.0338,-0.80731 -0.06955,-1.61444 -0.10697,-2.42156 -0.0483,-0.85615 -0.08921,-1.71242 -0.14211,-2.56832 -0.05224,-0.89657 -0.11145,-1.79337 -0.134876,-2.6913 -0.01503,-0.95837 -0.03058,-1.91706 -0.0708,-2.87476 -0.03645,-0.98555 -0.06952,-1.97113 -0.123507,-2.9559 -0.05799,-0.78908 -0.107095,-1.58108 -0.239262,-2.36213 -0.08158,-0.45973 -0.173291,-0.9159 -0.293005,-1.36735 -0.08369,-0.31901 -0.155097,-0.64299 -0.205672,-0.96894 -0.0043,-0.0212 -0.03433,-0.16687 -0.06046,-0.28267 0.03784,0.0206 0.07597,0.0407 0.113172,0.0625 0.169153,0.0934 0.337046,0.18989 0.508496,0.27905 0.19758,0.10603 0.394682,0.21201 0.595312,0.31213 0.285385,0.15139 0.567011,0.30986 0.850594,0.46457 0.307927,0.16819 0.612584,0.34328 0.927075,0.49868 0.386376,0.22524 0.773258,0.45023 1.150318,0.69091 0.502102,0.29686 0.965633,0.64878 1.441772,0.98444 0.613277,0.45771 1.210109,0.93857 1.861385,1.34307 0.486778,0.31162 0.979836,0.61459 1.492416,0.88212 0.59295,0.30113 1.193979,0.58652 1.792138,0.87694 0.820923,0.3881 1.644397,0.77233 2.473751,1.14205 0.987277,0.43671 1.968062,0.89054 2.981214,1.26556 0.936984,0.32968 1.870874,0.66957 2.828764,0.93534 1.1859,0.33419 2.37516,0.65636 3.57033,0.95602 1.20815,0.32174 2.41882,0.63534 3.62097,0.97927 1.04919,0.29667 2.09308,0.6105 3.13676,0.92604 0.67622,0.20264 1.35523,0.39609 2.0283,0.60926 l -0.0992,-0.22582 v -5.2e-4 c -0.67936,-0.21672 -1.3618,-0.42329 -2.04794,-0.61753 -1.05059,-0.31368 -2.1013,-0.62568 -3.1564,-0.92398 -1.21015,-0.34089 -2.42512,-0.66516 -3.64525,-0.96841 -1.20188,-0.31364 -2.40809,-0.61214 -3.60237,-0.95395 -0.95669,-0.27863 -1.898974,-0.6035 -2.828765,-0.96118 -1.015907,-0.39035 -2.012735,-0.83053 -3.006018,-1.27486 -0.842427,-0.3614 -1.66916,-0.75662 -2.496488,-1.15083 -0.61101,-0.28197 -1.218003,-0.57154 -1.816427,-0.87954 -0.498893,-0.25852 -0.982444,-0.5419 -1.455208,-0.84491 -0.423741,-0.31117 -0.85131,-0.6156 -1.272274,-0.93069 -0.451456,-0.3722 -0.938427,-0.69776 -1.412317,-1.03973 -0.375361,-0.24183 -0.761615,-0.46614 -1.1467,-0.69195 -0.294044,-0.19779 -0.608101,-0.36482 -0.918807,-0.53485 -0.282125,-0.15349 -0.561443,-0.31157 -0.844393,-0.46354 -0.192725,-0.11396 -0.393117,-0.21415 -0.590144,-0.32039 -0.170984,-0.0883 -0.337482,-0.1845 -0.505913,-0.2775 -0.132723,-0.0761 -0.267712,-0.14798 -0.402559,-0.22014 -0.06842,-0.029 -0.117018,-0.0636 -0.173633,-0.10594 -0.01712,-0.0123 -0.0083,-0.0316 -0.01705,-0.008 -0.05206,-0.006 -0.104133,-0.016 -0.156063,-0.0248 -0.0959,-0.0318 -0.193377,-0.0597 -0.288871,-0.0925 z" />
    <path
       style="fill:#000000;stroke-width:0.874001"
       id="path11844"
       d="m 163.76156,145.01839 c -0.90598,-0.13459 -1.82193,-0.19124 -2.73433,-0.26618 -1.86818,-0.18887 -3.74272,-0.29248 -5.61848,-0.36608 -2.71573,-0.0624 -5.43156,-0.10972 -8.14703,-0.1842 -3.02958,-0.0772 -6.06021,-0.0976 -9.09039,-0.13948 -1.84205,-0.017 -3.68553,-0.0601 -5.52712,0.0109 -1.14836,0.0443 -1.3427,0.0762 -2.47903,0.17824 -1.89056,0.21845 -3.78282,0.51026 -5.61855,1.02377 -0.31993,0.0895 -0.63528,0.19462 -0.95293,0.29192 0,0 -0.008,0.0183 -0.008,0.0183 v 0 c 2.1473,-0.39257 4.28581,-0.8569 6.4645,-1.04638 1.15809,-0.0902 1.31742,-0.11561 2.48791,-0.15389 1.84986,-0.0605 3.7012,-0.014 5.5513,0.003 3.03204,0.0363 6.06446,0.0619 9.09551,0.15283 2.72333,0.0808 5.44726,0.12447 8.17091,0.19067 1.87163,0.0719 3.73986,0.1887 5.6066,0.34192 0.9164,0.0521 1.83543,0.0802 2.74747,0.1892 0,0 0.0518,-0.24414 0.0518,-0.24414 z" />
    <path
       style="fill:#000000;stroke-width:0.874001"
       id="path11846"
       d="m 82.775321,108.62928 c 0.506806,0.6253 0.926571,1.3143 1.33528,2.00578 0.782416,1.36757 1.500288,2.77069 2.207239,4.17833 0.674889,1.34313 1.331574,2.69516 2.020216,4.03136 0.638585,1.26907 1.382717,2.47961 2.137111,3.68193 0.716912,1.09609 1.399598,2.21358 2.071774,3.33758 0.702562,1.14785 1.354442,2.32495 1.965963,3.5235 0.675881,1.30394 1.228839,2.66485 1.741093,4.03967 0.421063,1.2372 0.818978,2.48174 1.242711,3.71823 0,0 0.01799,0.009 0.01799,0.009 v 0 c -0.244737,-1.23066 -0.533998,-2.44993 -0.957583,-3.63352 -0.490696,-1.39026 -1.028615,-2.76397 -1.714553,-4.07164 -0.622916,-1.21695 -1.257855,-2.4277 -1.956871,-3.60323 -0.671703,-1.1258 -1.371222,-2.23373 -2.07753,-3.33804 -0.757933,-1.20102 -1.505638,-2.41042 -2.147803,-3.67857 -0.690443,-1.33827 -1.360418,-2.68675 -2.040654,-4.03019 -0.723749,-1.41127 -1.44875,-2.82256 -2.223659,-4.20664 -0.41434,-0.69985 -0.839507,-1.397 -1.372539,-2.01485 0,0 -0.24819,0.0516 -0.24819,0.0516 z" />
    <path
       style="fill:#000000;stroke-width:0.874001"
       id="path11850"
       d="m 94.342661,235.48931 c 0.128275,-0.88901 0.111381,-1.7929 0.130018,-2.68919 0.02265,-1.68815 0.03036,-3.37619 0.07486,-5.06397 0.05568,-2.03939 0.192522,-4.07517 0.316892,-6.11116 0.123708,-2.01377 0.301844,-4.02367 0.48728,-6.03253 0.185381,-1.7911 0.316783,-3.58608 0.39883,-5.38466 0.05852,-1.4013 0.100132,-2.80323 0.148112,-4.20491 0.02959,-1.05672 0.119925,-2.10996 0.223393,-3.16155 0.08114,-0.77211 0.132492,-1.54682 0.178765,-2.32166 0.02082,-0.49971 0.0846,-1.00186 0.024,-1.50044 -0.0305,-0.0651 -0.06099,-0.13023 -0.09148,-0.19534 0,0 -0.0424,-0.007 -0.0424,-0.007 v 0 c -0.02524,0.0558 -0.05046,0.11168 -0.07569,0.16752 -0.05459,0.49344 -0.04073,0.99233 -0.08375,1.48696 -0.04628,0.77454 -0.103288,1.54853 -0.1772,2.32095 -0.09715,1.04863 -0.189738,2.09829 -0.213481,3.15173 -0.04529,1.40266 -0.07284,2.80591 -0.132805,4.2081 -0.07895,1.79886 -0.205677,3.59471 -0.38612,5.38643 -0.185301,2.00969 -0.358606,4.02065 -0.477512,6.03555 -0.120126,2.03412 -0.252249,4.06786 -0.312412,6.10494 -0.04769,1.68892 -0.06086,3.37812 -0.09638,5.06728 -0.01593,0.89015 -7.93e-4,1.78668 -0.117247,2.67075 0,0 0.224322,0.0721 0.224322,0.0721 z" />
    <path
       style="fill:#000000;stroke-width:0.874001"
       id="path11852"
       d="m 85.782525,121.79257 c -0.196906,1.19726 -0.332682,2.40345 -0.483177,3.60712 0,0 0.01849,-0.008 0.01849,-0.008 v 0 c 0.151202,-1.21166 0.300162,-2.42459 0.519221,-3.62633 0,0 -0.05454,0.0268 -0.05454,0.0268 z" />
    <path
       style="fill:#000000;stroke-width:0.874001"
       id="path11854"
       d="m 88.261758,121.74243 c -0.11307,1.39178 -0.282062,2.77832 -0.406842,4.16907 -0.119166,1.32821 -0.164119,2.03499 -0.258977,3.35657 0,0 0.01834,-0.008 0.01834,-0.008 v 0 c 0.09126,-1.27135 0.143576,-2.08065 0.259,-3.35652 0.112033,-1.23838 0.269357,-2.46999 0.404625,-3.70567 0.01794,-0.16392 0.0319,-0.32825 0.04785,-0.49238 0,0 -0.064,0.0369 -0.064,0.0369 z" />
    <path
       style="fill:#000000;stroke-width:0.874001"
       id="path11856"
       d="m 91.469418,123.9847 c -0.141277,3.275 -0.425051,6.54259 -0.674852,9.81069 -0.05228,0.68521 -0.104571,1.37042 -0.156855,2.05564 0,0 0.01947,-0.005 0.01947,-0.005 v 0 c 0.05229,-0.68521 0.104571,-1.37042 0.156858,-2.05563 0.0328,-0.42965 0.309155,-4.05352 0.34494,-4.50584 0.140261,-1.77292 0.314844,-3.54476 0.387758,-5.32222 0,0 -0.07733,0.0219 -0.07733,0.0219 z" />
    <path
       style="fill:#000000;stroke-width:0.874001"
       id="path11858"
       d="m 93.056661,130.82254 c 0.06361,2.78867 -0.133858,5.57754 -0.35097,8.35601 0,0 0.01974,-0.003 0.01974,-0.003 v 0 c 0.232291,-2.79035 0.490845,-5.58897 0.453673,-8.39155 0,0 -0.122438,0.0388 -0.122438,0.0388 z" />
    <path
       style="fill:#000000;stroke-width:0.874001"
       id="path11860"
       d="m 58.397515,189.23889 c -0.22016,-2.9891 0.05618,-5.99118 0.305152,-8.97005 0.05253,-0.54507 0.105063,-1.09014 0.157594,-1.63521 0,0 -0.02,-2e-4 -0.02,-2e-4 v 0 c -0.05253,0.54508 -0.105061,1.09015 -0.157594,1.63523 -0.276577,2.97723 -0.60027,5.9749 -0.420171,8.96767 0,0 0.135019,0.003 0.135019,0.003 z" />
    <path
       style="fill:#000000;stroke-width:0.874001"
       id="path11862"
       d="m 62.600691,185.82633 c 0.272124,-2.89892 0.836544,-5.76151 1.330621,-8.62837 0,0 -0.02,-2.7e-4 -0.02,-2.7e-4 v 0 c -0.362646,2.10423 -0.302623,1.76787 -0.674502,3.8777 -0.27807,1.57761 -0.58497,3.15446 -0.742466,4.75014 0,0 0.106344,7.9e-4 0.106344,7.9e-4 z" />
    <path
       style="fill:#000000;stroke-width:0.874001"
       id="path11864"
       d="m 67.471519,179.45627 c 0.326716,-2.55265 0.822267,-5.08003 1.281502,-7.61112 0.314158,-1.74432 0.618262,-3.49031 0.935664,-5.23404 0,0 -0.01998,0.001 -0.01998,0.001 v 0 c -0.318016,1.7471 -0.648205,3.49181 -0.979768,5.23639 -0.480433,2.528 -1.003697,5.05327 -1.332418,7.60647 0,0 0.114991,0.001 0.114991,0.001 z" />
    <path
       style="fill:#000000;stroke-width:0.874001"
       id="path11868"
       d="m 72.91724,168.76546 c 0.154865,-1.93766 0.336642,-3.87324 0.52008,-5.80839 0.117126,-1.31561 0.270881,-2.62705 0.436822,-3.93719 0,0 -0.01984,0.002 -0.01984,0.002 v 0 c -0.227261,1.31372 -0.450506,2.6288 -0.584464,3.95623 -0.19776,1.93198 -0.402738,3.86584 -0.520689,5.80435 0,0 0.1681,-0.0174 0.1681,-0.0174 z" />
    <path
       style="fill:#000000;stroke-width:0.874001"
       id="path11870"
       d="m 63.932011,177.08812 c 0.296262,-1.76452 0.72753,-3.50291 1.099529,-5.25217 0.312986,-1.47175 0.612635,-2.94632 0.923314,-4.41856 0.622781,-2.88367 0.313372,-1.47916 0.926525,-4.21392 0,0 -0.01987,0.002 -0.01987,0.002 v 0 c -0.61315,2.73479 -0.303741,1.33027 -0.926523,4.21395 -0.420542,1.99285 -0.511709,2.46268 -0.955458,4.42057 -0.3967,1.7503 -0.852845,3.4889 -1.175557,5.25508 0,0 0.128048,-0.007 0.128048,-0.007 z" />
    <path
       style="fill:#000000;stroke-width:0.874001"
       id="path11872"
       d="m 78.207888,164.5222 c 0.237714,-2.60945 0.642426,-5.20253 1.047861,-7.79042 0.533553,-3.39274 1.404474,-6.7158 2.315501,-10.02261 0.114196,-0.37777 0.228393,-0.75553 0.34259,-1.13329 0,0 -0.01966,0.004 -0.01966,0.004 v 0 c -0.114197,0.37777 -0.228391,0.75555 -0.342588,1.13332 -0.989444,3.29156 -1.813444,6.63504 -2.370921,10.02855 -0.408247,2.58598 -0.825111,5.17499 -1.087736,7.78038 0,0 0.114958,5.2e-4 0.114958,5.2e-4 z" />
    <path
       style="fill:#000000;stroke-width:0.874001"
       id="path11874"
       d="m 56.937938,196.2393 c 2.485774,-0.47177 4.978429,-0.90506 7.471683,-1.33518 2.770494,-0.47966 1.401111,-0.25041 4.10796,-0.68887 0,0 0.01495,-0.0133 0.01495,-0.0133 v 0 c -2.682568,0.43536 -1.335156,0.22177 -4.042272,0.64054 -2.475212,0.41061 -4.948476,0.83263 -7.413755,1.29975 0,0 -0.13857,0.097 -0.13857,0.097 z" />
    <path
       style="fill:#000000;stroke-width:0.874001"
       id="path11876"
       d="m 61.373665,189.934 c 2.325769,-0.0616 4.635738,-0.36544 6.940706,-0.6604 2.462958,-0.33137 4.910013,-0.7649 7.361621,-1.16862 0,0 0.01315,-0.0151 0.01315,-0.0151 v 0 c -2.42691,0.39533 -4.858999,0.75888 -7.295113,1.09313 -2.291535,0.28835 -4.588314,0.57779 -6.899833,0.63583 0,0 -0.120537,0.11513 -0.120537,0.11513 z" />
    <path
       style="fill:#000000;stroke-width:0.874001"
       id="path11878"
       d="m 67.109175,182.8946 c 2.43291,-0.47012 4.855726,-0.99025 7.276581,-1.51838 2.119876,-0.45441 1.090356,-0.24298 3.08791,-0.63744 0,0 0.01228,-0.0158 0.01228,-0.0158 v 0 c -1.982036,0.39139 -0.965629,0.19498 -3.049466,0.58795 -2.407944,0.4703 -4.811085,0.9648 -7.216328,1.44873 0,0 -0.110984,0.13492 -0.110984,0.13492 z" />
    <path
       style="fill:#000000;stroke-width:0.874001"
       id="path11880"
       d="m 70.727884,177.1977 c 2.505972,-0.69414 5.020588,-1.35655 7.532357,-2.0293 1.82577,-0.50607 0.944104,-0.26752 2.644391,-0.71791 0,0 0.01188,-0.0161 0.01188,-0.0161 v 0 c -1.669378,0.4187 -0.806474,0.2042 -2.588898,0.64274 -2.495232,0.65064 -4.992915,1.29281 -7.480427,1.97245 0,0 -0.119314,0.1481 -0.119314,0.1481 z" />
    <path
       style="fill:#000000;stroke-width:0.874001"
       id="path11882"
       d="m 75.255288,170.85888 c 1.785943,-0.9048 3.708596,-1.49633 5.619827,-2.07056 1.256398,-0.35973 2.522318,-0.68331 3.790466,-0.99831 0,0 0.01191,-0.0161 0.01191,-0.0161 v 0 c -1.245354,0.29008 -2.495383,0.56322 -3.726458,0.9109 -1.899295,0.55664 -3.817678,1.13355 -5.574186,2.06268 0,0 -0.121565,0.11135 -0.121565,0.11135 z" />
    <path
       style="fill:#000000;stroke-width:0.874001"
       id="path11884"
       d="m 81.771825,164.18905 c 2.240814,-0.84403 4.532781,-1.54781 6.81722,-2.26304 2.033857,-0.62986 1.038637,-0.32115 2.985693,-0.926 0,0 0.01143,-0.0164 0.01143,-0.0164 v 0 c -1.907617,0.54531 -0.932169,0.26375 -2.92613,0.84542 -1.499251,0.45705 -2.997446,0.91593 -4.48767,1.40182 -0.596609,0.19452 -1.266385,0.41264 -1.863703,0.63465 -0.144706,0.0538 -0.286576,0.11492 -0.429864,0.17237 0,0 -0.106984,0.15119 -0.106984,0.15119 z" />
    <path
       style="fill:#000000;stroke-width:0.874001"
       id="path11886"
       d="m 86.964921,113.15228 c 1.396347,1.32126 2.912602,2.5038 4.447797,3.65721 1.393322,1.03948 2.831346,2.01625 4.273597,2.98585 0,0 0.01998,0.001 0.01998,0.001 v 0 c -1.404162,-0.98872 -2.817294,-1.96498 -4.201922,-2.98113 -1.527109,-1.14905 -3.032619,-2.33077 -4.416284,-3.65227 0,0 -0.123153,-0.0109 -0.123153,-0.0109 z" />
    <path
       style="fill:#000000;stroke-width:0.874001"
       id="path11888"
       d="m 88.967875,116.88051 c 0.135215,0.19808 0.220282,0.33146 0.385001,0.52353 0.769456,0.89725 1.67758,1.67435 2.551313,2.46548 1.272135,1.14234 2.594565,2.22642 3.90679,3.32185 0,0 0.01995,10e-4 0.01995,10e-4 v 0 c -1.280494,-1.10417 -2.57614,-2.19096 -3.837885,-3.31667 -1.024509,-0.93927 -2.108856,-1.85845 -2.913425,-3.00203 0,0 -0.111744,0.006 -0.111744,0.006 z" />
    <path
       style="fill:#000000;stroke-width:0.874001"
       id="path11890"
       d="m 93.684761,124.80199 c 1.247653,0.97067 2.421318,2.03126 3.595611,3.08808 1.225743,1.1065 2.450322,2.2143 3.673828,3.32328 0,0 0.0195,0.004 0.0195,0.004 v 0 c -1.168124,-1.11537 -2.348668,-2.21743 -3.549467,-3.29767 -1.179406,-1.06404 -2.350328,-2.14072 -3.598944,-3.12421 0,0 -0.140531,0.006 -0.140531,0.006 z" />
    <path
       style="fill:#000000;stroke-width:0.874001"
       id="path11892"
       d="m 97.156547,130.83182 c 0.703236,0.74486 1.413816,1.48263 2.125485,2.21942 0,0 0.01884,0.007 0.01884,0.007 v 0 c -0.644565,-0.74412 -1.309568,-1.4687 -1.994096,-2.17639 0,0 -0.150225,-0.0498 -0.150225,-0.0498 z" />
    <path
       style="fill:#000000;stroke-width:0.874001"
       id="path11894"
       d="m 151.63792,206.78103 c -1.01336,-1.0023 -2.07649,-1.94906 -3.21039,-2.8142 -0.45043,-0.34366 -0.91312,-0.67096 -1.36969,-1.00644 -3.36609,-2.30963 -6.89954,-4.35994 -10.35173,-6.5359 0,0 -0.0187,-0.007 -0.0187,-0.007 v 0 c 3.47238,2.18588 7.02636,4.24663 10.40304,6.58068 0.46059,0.34151 0.92759,0.67454 1.38178,1.02453 1.14503,0.88232 2.21196,1.8534 3.2434,2.86433 0,0 -0.0777,-0.10594 -0.0777,-0.10594 z" />
    <path
       style="fill:#000000;stroke-width:0.874001"
       id="path11896"
       d="m 149.61368,201.49091 c -1.29863,-1.70697 -2.85554,-3.1892 -4.41175,-4.65584 -1.27185,-1.15857 -2.57068,-2.28892 -3.91016,-3.36896 -0.74738,-0.60262 -1.57172,-1.22565 -2.33759,-1.81091 0,0 -0.0198,-0.003 -0.0198,-0.003 v 0 c 2.11282,1.63201 4.17813,3.32756 6.14988,5.12861 1.55573,1.45101 3.08889,2.93488 4.41417,4.60474 0,0 0.11521,0.1054 0.11521,0.1054 z" />
    <path
       style="fill:#000000;stroke-width:0.874001"
       id="path11898"
       d="m 149.06424,206.86447 c -1.92366,-1.77617 -4.0143,-3.36028 -6.08165,-4.96297 -2.15534,-1.68077 -4.32235,-3.34605 -6.49123,-5.00918 0,0 -0.0185,-0.008 -0.0185,-0.008 v 0 c 2.14545,1.64514 4.25952,3.33109 6.41191,4.96738 2.13602,1.65856 4.30152,3.29796 6.25845,5.16936 0,0 -0.079,-0.15705 -0.079,-0.15705 z" />
    <path
       style="fill:#000000;stroke-width:0.874001"
       id="path11900"
       d="m 143.82083,189.84033 c -0.12172,-0.0949 -0.23831,-0.19679 -0.36514,-0.28475 -0.87555,-0.60724 -1.84136,-1.08952 -2.76451,-1.61696 -1.49589,-0.85467 -1.45513,-0.84032 -2.96839,-1.74334 -1.47574,-0.87149 -2.90749,-1.81651 -4.38075,-2.69192 -0.67942,-0.40371 -1.89781,-1.07976 -2.60896,-1.4775 0,0 -0.0199,0.002 -0.0199,0.002 v 0 c 2.28016,1.38137 4.53057,2.8118 6.82617,4.16807 0.98549,0.57992 1.97355,1.16586 2.9666,1.73308 1.04952,0.59948 2.15056,1.137 3.10654,1.88423 0,0 0.20832,0.027 0.20832,0.027 z" />
    <path
       style="fill:#000000;stroke-width:0.874001"
       id="path11902"
       d="m 125.30971,173.52292 c 1.78228,0.68256 3.37094,1.7794 4.96817,2.80508 1.51514,1.00551 3.06676,1.95393 4.61539,2.90643 0,0 0.0193,-0.005 0.0193,-0.005 v 0 c -1.50316,-0.98538 -3.01762,-1.95307 -4.52733,-2.92835 -1.59974,-1.02767 -3.19532,-2.11689 -4.97244,-2.81763 0,0 -0.10307,0.0398 -0.10307,0.0398 z" />
    <path
       style="fill:#000000;stroke-width:0.874001"
       id="path11904"
       d="m 135.50119,172.09314 c -0.24091,-2.36896 -0.18219,-4.75395 -0.10592,-7.12956 0.0498,-1.55153 0.14457,-3.10039 0.25719,-4.64835 0,0 -0.0194,0.005 -0.0194,0.005 v 0 c -0.11304,1.55377 -0.24006,3.10664 -0.32385,4.6624 -0.0935,2.37706 -0.17806,4.76299 0.0314,7.13679 0,0 0.16057,-0.0262 0.16057,-0.0262 z" />
    <path
       style="fill:#000000;stroke-width:0.874001"
       id="path11906"
       d="m 130.54155,165.85199 c -0.20311,-2.30992 -0.31466,-4.6274 -0.45329,-6.94197 -0.0321,-0.49367 -0.0642,-0.98735 -0.0963,-1.48103 0,0 -0.0194,0.005 -0.0194,0.005 v 0 c 0.0242,0.49562 0.0485,0.99123 0.0727,1.48684 0.10434,2.32093 0.17912,4.64482 0.36572,6.96095 0,0 0.13057,-0.0296 0.13057,-0.0296 z" />
    <path
       style="fill:#000000;stroke-width:0.874001"
       id="path11908"
       d="m 143.64966,185.3125 c -0.2879,-1.79388 -0.52651,-3.59547 -0.81562,-5.38913 -0.25986,-1.61221 -0.49883,-2.90762 -0.78718,-4.52046 -0.52294,-2.87706 -0.27218,-1.48093 -0.75329,-4.18821 0,0 -0.0199,-0.002 -0.0199,-0.002 v 0 c 0.48065,2.70468 0.23804,1.3098 0.7259,4.18498 0.29007,1.7524 0.46446,2.76495 0.72693,4.50833 0.26969,1.79142 0.48811,3.59008 0.76306,5.38066 0,0 0.16006,0.0261 0.16006,0.0261 z" />
    <path
       style="fill:#000000;stroke-width:0.874001"
       id="path11910"
       d="m 148.8158,194.21715 c -0.0309,-2.28565 -0.0695,-4.57046 -0.15001,-6.85502 -0.16156,-2.65325 -0.0644,-1.3337 -0.2907,-3.95872 0,0 -0.0192,-0.006 -0.0192,-0.006 v 0 c 0.14217,2.60053 0.0817,1.29272 0.18058,3.92347 0.0534,2.27242 0.0703,4.54542 0.12673,6.81774 0,0 0.15261,0.0781 0.15261,0.0781 z" />
    <path
       style="fill:#000000;stroke-width:0.874001"
       id="path11912"
       d="m 119.32436,138.49635 c 1.61994,1.101 3.24747,2.19086 4.86922,3.28923 1.16852,0.784 2.37157,1.51415 3.57154,2.24837 0,0 0.0198,0.003 0.0198,0.003 v 0 c -1.15432,-0.73202 -2.3032,-1.47233 -3.43021,-2.24611 -1.62647,-1.10373 -3.25418,-2.20547 -4.8849,-3.30289 0,0 -0.14548,0.009 -0.14548,0.009 z" />
    <path
       style="fill:#000000;stroke-width:0.874001"
       id="path11914"
       d="m 123.91462,135.34133 c 1.81103,0.96663 3.47139,2.19417 5.15801,3.35838 2.67498,1.85867 5.38699,3.66239 8.09914,5.46597 0,0 0.0199,-0.002 0.0199,-0.002 v 0 c -2.62712,-1.82697 -5.24898,-3.66134 -7.87676,-5.48742 -1.6947,-1.1873 -3.37029,-2.43811 -5.22294,-3.37206 0,0 -0.17736,0.0371 -0.17736,0.0371 z" />
    <path
       style="fill:#000000;stroke-width:0.874001"
       id="path11916"
       d="m 133.3725,135.31789 c 2.12716,1.46619 4.21344,2.98943 6.28375,4.53442 0.58225,0.4342 1.1645,0.86841 1.74675,1.30261 0,0 0.0199,-0.002 0.0199,-0.002 v 0 c -0.53854,-0.43827 -1.07708,-0.87653 -1.61562,-1.31479 -2.04005,-1.56041 -4.10735,-3.08438 -6.22293,-4.54137 0,0 -0.21187,0.021 -0.21187,0.021 z" />
    <path
       style="fill:#000000;stroke-width:0.874001"
       id="path11918"
       d="m 142.68477,137.29446 c 1.8203,1.17677 3.54913,2.48995 5.27228,3.80296 1.12935,0.85347 2.26283,1.70077 3.38419,2.5647 0,0 0.0193,0.005 0.0193,0.005 v 0 c -1.04364,-0.85121 -2.08264,-1.70836 -3.14488,-2.53645 -1.72624,-1.3308 -3.44003,-2.69258 -5.29346,-3.84462 0,0 -0.23744,0.008 -0.23744,0.008 z" />
    <path
       style="fill:#000000;stroke-width:0.874001"
       id="path11920"
       d="m 120.68212,153.35449 c 1.46649,-1.56381 3.18645,-2.85991 4.87997,-4.16359 1.46312,-1.1102 0.7528,-0.56155 2.13219,-1.64434 0,0 -0.0187,-0.007 -0.0187,-0.007 v 0 c -1.49614,1.01625 -0.74575,0.48755 -2.2495,1.5885 -1.71238,1.2985 -3.4383,2.59945 -4.94992,4.13404 0,0 0.20592,0.0926 0.20592,0.0926 z" />
    <path
       style="fill:#000000;stroke-width:0.874001"
       id="path11922"
       d="m 128.92657,150.12516 c 1.48927,-1.39209 3.1847,-2.53874 4.85714,-3.69547 0,0 -0.0187,-0.007 -0.0187,-0.007 v 0 c -0.34868,0.20405 -0.70159,0.40103 -1.04605,0.61214 -1.42872,0.8756 -2.80138,1.86345 -4.03261,3.002 0,0 0.24025,0.0883 0.24025,0.0883 z" />
    <path
       style="fill:#000000;stroke-width:0.874001"
       id="path11924"
       d="m 134.38729,152.60665 c 1.00502,-0.91344 2.02348,-1.816 3.0957,-2.65059 0.34368,-0.26752 0.69622,-0.52345 1.04432,-0.78518 1.37565,-1.02101 2.8604,-1.8858 4.23577,-2.90687 0.28204,-0.20939 0.55154,-0.43516 0.82731,-0.65274 0,0 -0.019,-0.006 -0.019,-0.006 v 0 c -0.32647,0.19642 -0.65714,0.38603 -0.97942,0.58926 -1.45047,0.9147 -2.85052,1.91045 -4.26575,2.87763 -0.34731,0.25797 -0.69959,0.50937 -1.04193,0.77391 -1.07674,0.83207 -2.09505,1.73827 -3.09735,2.6575 0,0 0.20036,0.10332 0.20036,0.10332 z" />
    <path
       style="fill:#000000;stroke-width:0.874001"
       id="path11926"
       d="m 145.81963,152.05622 c 1.53385,-0.5219 2.93613,-1.36253 4.32246,-2.18661 1.27339,-0.81314 2.57514,-1.59301 3.80121,-2.47812 0.24791,-0.17897 0.48439,-0.37325 0.72658,-0.55988 0,0 -0.0169,-0.0108 -0.0169,-0.0108 v 0 c -0.29712,0.15169 -0.60098,0.29084 -0.89136,0.45506 -0.31352,0.1773 -0.61463,0.37576 -0.91882,0.56865 -0.98205,0.62273 -1.94613,1.27421 -2.94341,1.87299 -1.37738,0.81975 -2.76532,1.66002 -4.27839,2.20756 0,0 0.19859,0.13112 0.19859,0.13112 z" />
    <path
       style="fill:#000000;stroke-width:0.874001"
       id="path11928"
       d="m 93.693304,229.4651 c -0.572153,-1.9581 -0.941239,-3.97156 -1.370105,-5.96469 -0.377351,-1.78353 -0.792633,-3.55868 -1.196205,-5.33638 0,0 -0.01979,-0.003 -0.01979,-0.003 v 0 c 0.378124,1.77205 0.738749,3.54742 1.102895,5.32238 0.109865,0.54024 0.219731,1.08049 0.329599,1.62074 0.09287,0.46667 0.184269,0.93364 0.27862,1.40002 0.177831,0.87901 0.346223,1.76532 0.583848,2.63093 0.02882,0.10498 0.06435,0.208 0.09652,0.31199 0,0 0.194606,0.018 0.194606,0.018 z" />
    <path
       style="fill:#000000;stroke-width:0.874001"
       id="path11930"
       d="m 90.927162,207.55624 c 0.320723,1.61561 0.709943,3.21597 1.112033,4.81288 0.33867,1.27913 0.742347,2.5393 1.118431,3.80762 0,0 0.01987,-0.002 0.01987,-0.002 v 0 c -0.36958,-1.26721 -0.715425,-2.53998 -1.03207,-3.82164 -0.396928,-1.60007 -0.779431,-3.20385 -1.103911,-4.82045 0,0 -0.114353,0.0239 -0.114353,0.0239 z" />
    <path
       style="fill:#000000;stroke-width:0.874001"
       id="path11932"
       d="m 91.969769,199.40662 c 0.455234,1.85732 0.782677,3.74301 1.151136,5.61874 0.611375,2.91301 0.04489,0.32225 0.738629,3.19747 0.113321,0.46966 0.215395,0.94196 0.323091,1.41295 0,0 0.0199,-0.002 0.0199,-0.002 v 0 c -0.107696,-0.47098 -0.225718,-0.93971 -0.323088,-1.41293 -0.219538,-1.06694 -0.369675,-2.1475 -0.615272,-3.20945 -0.356653,-1.87372 -0.652465,-3.76679 -1.153385,-5.60864 0,0 -0.14101,0.004 -0.14101,0.004 z" />
    <path
       style="fill:#000000;stroke-width:0.874001"
       id="path11934"
       d="m 97.486329,206.2407 c 1.121079,-1.86977 2.614441,-3.47788 4.074631,-5.08281 1.47751,-1.55833 0.75779,-0.80923 2.15731,-2.24911 0,0 -0.02,2.5e-4 -0.02,2.5e-4 v 0 c -1.39994,1.44035 -0.67788,0.69261 -2.16512,2.24425 -1.07198,1.14626 -1.27475,1.34492 -2.295632,2.50626 -0.708454,0.80593 -1.400845,1.62801 -1.968752,2.54148 0,0 0.21757,0.0397 0.21757,0.0397 z" />
    <path
       style="fill:#000000;stroke-width:0.874001"
       id="path11936"
       d="m 96.493136,213.36672 c 1.090035,-1.40838 2.269135,-2.74426 3.445779,-4.08002 0.871925,-0.97335 1.734595,-1.9545 2.611015,-2.92381 0,0 -0.0197,-0.003 -0.0197,-0.003 v 0 c -0.92008,0.96577 -1.8557,1.91702 -2.74825,2.90862 -1.192247,1.325 -2.394328,2.64849 -3.459462,4.0798 0,0 0.17063,0.0188 0.17063,0.0188 z" />
    <path
       style="fill:#000000;stroke-width:0.874001"
       id="path11938"
       d="m 95.642278,222.83581 c 1.24592,-1.86773 2.615398,-3.64786 3.99919,-5.41431 0.327539,-0.43061 0.655072,-0.86121 0.982612,-1.29182 0,0 -0.02,5.3e-4 -0.02,5.3e-4 v 0 c -0.38236,0.43212 -0.764719,0.86424 -1.147079,1.29637 -1.403472,1.75358 -2.817284,3.5084 -4.038267,5.39657 0,0 0.223533,0.0127 0.223533,0.0127 z" />
    <path
       style="fill:#000000;stroke-width:0.874001"
       id="path11940"
       d="m 89.382152,211.57697 c 0.811892,1.33247 1.498549,2.73868 2.210533,4.12623 0,0 0.01971,-0.003 0.01971,-0.003 v 0 c -0.627914,-1.41322 -1.232149,-2.84589 -2.043671,-4.16677 0,0 -0.186565,0.044 -0.186565,0.044 z" />
    <path
       style="fill:#000000;stroke-width:0.874001"
       id="path11942"
       d="m 84.447569,155.70885 c 0.459857,-1.67076 1.262939,-3.20906 2.056279,-4.73925 0,0 -0.01926,0.005 -0.01926,0.005 v 0 c -0.841288,1.54639 -1.713865,3.05592 -2.18031,4.76707 0,0 0.143285,-0.0332 0.143285,-0.0332 z" />
    <path
       style="fill:#000000;stroke-width:0.874001"
       id="path11944"
       d="m 90.856188,152.1181 c 0.747649,-1.97133 1.80703,-3.80469 2.889329,-5.6071 0,0 -0.01905,0.006 -0.01905,0.006 v 0 c -0.227097,0.34685 -0.460721,0.68953 -0.681294,1.04057 -0.817986,1.30182 -1.578827,2.67991 -2.182656,4.09606 -0.07057,0.16552 -0.123413,0.33805 -0.185119,0.50707 0,0 0.178798,-0.0427 0.178798,-0.0427 z" />
    <path
       style="fill:#000000;stroke-width:0.874001"
       id="path11946"
       d="m 90.147313,158.33157 c 1.341777,-0.24547 2.702648,-0.34568 4.06182,-0.43452 0,0 0.01942,-0.005 0.01942,-0.005 v 0 c -1.428253,0.0535 -2.857024,0.16973 -4.264279,0.42805 0,0 0.183033,0.0112 0.183033,0.0112 z" />
    <path
       style="fill:#000000;stroke-width:0.874001"
       id="path11948"
       d="m 120.45861,167.74056 c -2.3054,-1.05182 -4.59895,-2.14148 -6.98632,-2.99935 -0.6597,-0.23706 -1.3307,-0.44143 -1.99606,-0.66215 -0.59396,-0.17677 -1.18792,-0.35354 -1.78188,-0.53031 0,0 -0.0197,0.004 -0.0197,0.004 v 0 c 0.59396,0.17676 1.18792,0.35353 1.78188,0.5303 0.65222,0.22297 1.30997,0.4304 1.95667,0.66892 2.34154,0.86358 4.58775,1.95228 6.84452,3.0112 0,0 0.20088,-0.0222 0.20088,-0.0222 z" />
    <path
       style="fill:#000000;stroke-width:0.874001"
       id="path11950"
       d="m 121.26437,158.77936 c -0.5831,-0.7387 -1.06911,-1.54815 -1.59155,-2.32894 -0.35069,-0.52413 -0.7086,-1.0434 -1.06289,-1.5651 0,0 -0.0192,0.006 -0.0192,0.006 v 0 c 0.80059,1.31588 1.56363,2.66533 2.4856,3.90183 0,0 0.188,-0.0136 0.188,-0.0136 z" />
    <path
       style="fill:#000000;stroke-width:0.874001"
       id="path11952"
       d="m 121.86668,143.14576 c -1.43248,-0.38193 -2.88483,-0.68025 -4.3104,-1.09157 -0.53994,-0.15579 -1.07553,-0.32628 -1.61329,-0.48941 0,0 -0.016,0.012 -0.016,0.012 v 0 c 0.49418,0.19192 0.98201,0.40108 1.48254,0.57578 1.3907,0.48542 2.8391,0.76341 4.26742,1.10867 0,0 0.18976,-0.11542 0.18976,-0.11542 z" />
    <path
       style="fill:#000000;stroke-width:0.874001"
       id="path11954"
       d="m 120.81495,148.30564 c -1.29942,0.10951 -2.40491,0.88821 -3.48893,1.53587 0,0 0.0192,-0.006 0.0192,-0.006 v 0 c 1.02928,-0.60497 2.07075,-1.30696 3.29614,-1.40959 0,0 0.17364,-0.12052 0.17364,-0.12052 z" />
    <path
       style="fill:#000000;stroke-width:0.874001"
       id="path11956"
       d="m 106.24377,170.144 c 1.18869,3.87386 1.99941,7.84938 2.89159,11.79823 0,0 0.0198,-0.003 0.0198,-0.003 v 0 c -0.89214,-3.94889 -1.7154,-7.91772 -2.78423,-11.82371 0,0 -0.12714,0.0285 -0.12714,0.0285 z" />
    <path
       style="fill:#b3b3b3;stroke-width:0.874001"
       id="path11958"
       d="m 85.954493,184.23618 c 1.180203,-2.71595 2.638232,-5.2977 4.110392,-7.86283 0.382376,-0.62385 0.764755,-1.2477 1.14713,-1.87155 0,0 -0.01974,0.003 -0.01974,0.003 v 0 c -0.384161,0.62417 -0.768323,1.24834 -1.152488,1.87251 -1.511146,2.56405 -3.006195,5.14918 -4.200387,7.87989 0,0 0.115081,-0.0213 0.115081,-0.0213 z" />
    <path
       style="fill:#b3b3b3;stroke-width:2.61674"
       d="m 351.59162,880.08639 c -7.26357,-13.25142 -19.57083,-48.32816 -24.45884,-69.70981 -3.95626,-17.30587 -6.28587,-37.58749 -6.30103,-54.85687 -0.007,-7.7419 -0.20809,-9.30785 -1.19641,-9.30785 -0.73935,0 -1.18824,0.74815 -1.18824,1.9804 v 1.98039 h -13.01327 c -14.97436,0 -19.52436,0.52243 -41.24948,4.73629 -9.56709,1.85565 -21.80539,3.59089 -30.89412,4.38041 -19.45148,1.68971 -29.93804,3.49269 -37.17087,6.3909 -2.28119,0.91407 -1.36405,-0.82921 4.9014,-9.31651 16.46899,-22.3092 36.1612,-50.27184 49.49475,-70.28179 30.61862,-45.95005 48.79873,-67.93745 68.48753,-82.83019 4.0091,-3.03251 7.14606,-5.65688 6.97102,-5.83192 -0.79855,-0.79855 -17.54377,12.35148 -25.94461,20.37431 -4.6009,4.39388 -4.52524,4.97967 -1.7879,-13.84261 2.41186,-16.58427 4.24323,-25.63476 8.38021,-41.41421 1.75524,-6.69491 3.04108,-12.32282 2.85743,-12.50647 -0.56441,-0.56442 -6.72659,22.5157 -8.80979,32.99667 -2.57136,12.93692 -6.16247,37.89092 -5.58687,38.82225 0.24777,0.4009 -1.71511,3.30812 -4.36195,6.46048 -6.92286,8.24508 -23.25092,29.83254 -29.56034,39.08199 -4.6687,6.84418 -5.34143,7.54448 -4.94634,5.14902 0.25151,-1.52491 2.04763,-11.66562 3.99137,-22.53492 1.94375,-10.86931 3.3994,-19.89705 3.23479,-20.06166 -0.16461,-0.16461 -0.48801,0.35139 -0.71867,1.14668 -0.44493,1.53404 -7.19084,38.05864 -8.0221,43.4343 -0.3557,2.30024 -3.69491,7.96364 -12.14371,20.59608 -12.60878,18.85234 -45.46155,64.66778 -45.99131,64.13802 -0.46283,-0.46283 1.0876,-8.21428 4.74885,-23.74203 1.7464,-7.40666 4.38559,-20.59608 5.86487,-29.3098 4.90122,-28.87073 15.16652,-56.93911 34.85968,-95.31672 13.70378,-26.70561 20.61338,-36.22741 41.54168,-57.24665 8.35213,-8.38842 16.08293,-15.38639 19.42069,-17.5797 5.07545,-3.3352 5.73339,-4.08924 7.76831,-8.90287 3.33321,-7.88477 6.77038,-21.85721 7.81376,-31.76366 0.71337,-6.7732 0.7063,-14.00606 -0.0306,-31.2902 -1.12776,-26.45169 -2.25673,-44.66729 -2.93985,-47.43358 -0.84033,-3.40282 2.35747,2.18431 12.69492,22.1804 5.29311,10.23863 11.3207,21.32794 13.39465,24.64291 l 3.77082,6.02722 -1.23011,16.94533 c -0.67657,9.31993 -1.45401,19.26239 -1.72768,22.09435 -0.27366,2.83196 -0.27433,4.93998 -0.002,4.68449 0.41287,-0.38662 3.59332,-35.67004 3.6712,-40.72763 0.0674,-4.37788 14.09035,22.81867 18.58437,36.04314 3.73587,10.99347 3.57253,10.5742 3.96609,10.18064 0.64955,-0.64954 -2.75845,-12.75809 -5.62444,-19.98357 -3.5903,-9.0518 -8.1226,-17.52338 -17.21692,-32.18139 -3.91957,-6.31745 -11.51008,-19.97244 -16.8678,-30.34442 -5.35772,-10.37198 -10.46429,-19.87348 -11.34793,-21.11444 -0.88364,-1.24097 -1.60663,-2.44463 -1.60663,-2.67481 0,-0.88678 13.40597,7.05471 20.70006,12.26238 14.17164,10.11797 34.94253,18.99562 60.89438,26.02676 21.53314,5.83398 31.06048,8.67067 31.96709,9.51795 0.37354,0.34909 -0.0721,1.03675 -0.99019,1.52813 -1.89521,1.01428 -2.29659,2.61295 -0.48113,1.91629 0.65353,-0.25078 1.18824,-0.22242 1.18824,0.063 0,0.28545 -3.34196,6.29447 -7.42655,13.35339 -18.12608,31.32505 -28.30461,52.4228 -33.39798,69.22631 -2.99696,9.88725 -9.03062,33.35436 -9.47771,36.86231 -0.15114,1.1859 -0.49046,2.50512 -0.75404,2.93159 -1.54149,2.49419 -10.23394,34.86131 -13.18906,49.11063 -4.59124,22.13863 -5.41472,41.21504 -3.84603,89.09552 0.58681,17.91071 1.05594,33.27786 1.04252,34.14924 -0.12144,7.88525 -2.25248,44.1393 -3.46899,59.01569 -1.28962,15.77054 -2.63096,41.16683 -3.36801,63.76864 l -0.18083,5.5451 -3.69078,-6.73334 z m 2.50254,-13.40412 c 0,-0.40129 -0.68539,-3.69864 -1.52308,-7.32745 -0.83771,-3.62882 -2.83886,-12.65785 -4.447,-20.06451 -1.60814,-7.40667 -3.20849,-13.774 -3.55633,-14.14962 -0.34784,-0.37563 1.29684,8.68685 3.65484,20.13884 2.35799,11.45198 4.28726,21.11667 4.28726,21.47707 0,0.36041 0.35647,0.65528 0.79216,0.65528 0.43568,0 0.79215,-0.32833 0.79215,-0.72961 z m -5.74982,-66.03646 c -2.24795,-9.02573 -4.33044,-16.41041 -4.62776,-16.41041 -0.56408,0 1.62163,10.70216 3.721,18.21961 5.77331,20.67312 6.26291,19.69624 0.90676,-1.8092 z m -5.70155,5.83947 c -1.98853,-3.95939 -3.99811,-7.1989 -4.46573,-7.1989 -1.0237,0 -1.2339,-0.49949 3.61633,8.59353 4.9889,9.35297 5.67851,8.2207 0.8494,-1.39463 z m 13.49675,-15.53968 c -0.27658,-1.10194 -1.763,-8.67694 -3.30315,-16.83333 -3.23397,-17.1264 -4.10715,-20.77099 -4.97634,-20.77099 -0.55602,0 3.93526,23.79015 6.05673,32.08235 0.44587,1.74275 1.03144,4.14893 1.30127,5.34706 0.26984,1.19814 0.7007,2.17843 0.95748,2.17843 0.25677,0 0.24057,-0.90158 -0.036,-2.00352 z M 226.95297,739.92093 c 4.79255,-0.86385 13.16961,-2.30109 18.61569,-3.19386 11.67482,-1.91385 13.77069,-2.35759 13.31027,-2.81801 -0.18883,-0.18883 -3.52825,0.19239 -7.42092,0.84716 -27.67086,4.65442 -35.69285,6.16168 -36.38739,6.83688 -0.51637,0.50199 -0.10269,0.61836 1.18823,0.33427 1.08922,-0.2397 5.90157,-1.1426 10.69412,-2.00644 z m 28.12157,-23.89866 c 14.93492,-1.88308 30.13323,-4.4185 30.79972,-5.13808 0.26977,-0.29126 -0.9354,-0.27069 -2.67814,0.0457 -8.98325,1.63096 -30.59746,4.5094 -40.20197,5.35383 -5.99069,0.5267 -10.89216,1.22435 -10.89216,1.55033 0,0.74387 7.21858,0.17455 22.97255,-1.81181 z m -33.79577,-15.95355 c 0.27914,-8.38696 0.67499,-17.56608 0.87966,-20.39804 l 0.37213,-5.14902 -0.69694,4.35686 c -0.85369,5.33677 -2.40614,26.00442 -2.40614,32.03276 0,2.42356 0.30235,4.40646 0.67188,4.40646 0.36953,0 0.90027,-6.86206 1.17941,-15.24902 z m 18.34833,-15.6451 c 1.75556,-11.61949 8.65396,-46.22488 12.69539,-63.6856 0.59449,-2.56845 0.79003,-4.35081 0.43453,-3.96079 -1.87453,2.05655 -16.99817,79.0424 -16.63469,84.67776 0.1867,2.89461 1.34365,-2.72759 3.50477,-17.03137 z m 89.21064,4.5549 c 3.82048,-7.62592 12.97139,-24.16528 15.55911,-28.12157 0.64119,-0.98029 0.85745,-1.77869 0.48058,-1.77421 -1.27501,0.0152 -20.88523,35.26136 -20.88523,37.53783 0,1.52137 1.21392,-0.39315 4.84554,-7.64205 z m -55.46525,-1.38627 c 10.53161,-2.17843 19.33767,-3.96079 19.56901,-3.96079 0.23135,0 0.21228,-0.20835 -0.0424,-0.463 -0.59131,-0.5913 -37.96731,6.79882 -38.97321,7.70593 -1.08564,0.97901 -1.45688,1.04167 19.44657,-3.28214 z m 12.99225,-22.57167 c 20.36818,-5.43838 19.61202,-5.21371 19.13905,-5.68667 -0.59835,-0.59836 -38.54689,9.51217 -38.54689,10.26994 0,0.36724 0.62382,0.48562 1.38627,0.26306 0.76245,-0.22255 8.87216,-2.40339 18.02157,-4.84633 z m 8.71373,-23.23333 c 2.61412,-0.93724 9.17317,-2.95035 14.57567,-4.47359 9.74707,-2.74816 13.15691,-4.07582 7.94304,-3.09269 -10.33144,1.94811 -33.21283,9.85497 -33.21283,11.47698 0,0.40388 1.33677,0.0726 2.97059,-0.73614 1.63382,-0.80876 5.10941,-2.23731 7.72353,-3.17456 z m -17.47528,-20.73619 c 0.69443,-8.06019 1.44407,-16.08078 1.66586,-17.82353 0.30615,-2.40555 0.22344,-2.76566 -0.34346,-1.49536 -1.74133,3.90193 -5.04953,39.19044 -3.33349,35.55811 0.41167,-0.87137 1.31666,-8.17902 2.01109,-16.23922 z m 68.19487,-12.52094 c -0.71053,-0.71053 -36.85684,10.71296 -36.85684,11.64803 0,0.35925 8.36032,-2.04707 18.57849,-5.34737 10.21816,-3.30029 18.44342,-6.13559 18.27835,-6.30066 z m 5.91963,-11.25246 c 5.02082,-0.69667 4.97822,-0.70548 -1.71102,-0.35374 -3.77302,0.19839 -7.69419,0.71324 -8.71372,1.14411 -1.97774,0.83583 -0.47297,0.72174 10.42474,-0.79037 z m -30.929,-12.0717 c 0.55442,-1.85167 2.23784,-5.80938 3.74093,-8.79491 1.50309,-2.98553 2.53743,-5.62371 2.29853,-5.86261 -0.49169,-0.49168 -8.35209,15.50586 -8.36966,17.03399 -0.0255,2.2152 1.38654,0.77513 2.3302,-2.37647 z m 25.6483,-16.0313 c 1.54922,-3.26221 4.07289,-8.07457 5.60817,-10.69412 3.83793,-6.54843 2.39952,-6.03719 -1.64379,0.58424 -5.36562,8.78686 -8.74186,16.04118 -7.46574,16.04118 0.37653,0 1.95214,-2.66909 3.50136,-5.9313 z m 5.55469,-62.98636 c 0.30618,-8.61966 0.24011,-10.50805 -0.22174,-6.33725 -0.90234,8.14857 -1.62,27.64311 -0.83112,22.57647 0.33919,-2.17843 0.81297,-9.48608 1.05286,-16.23922 z m 22.64026,-4.5549 c -2.23713,-2.96931 -6.64013,-7.32745 -7.40285,-7.32745 -0.44131,0 1.13387,1.96059 3.50037,4.35686 4.33734,4.39189 5.82854,5.52701 3.90248,2.97059 z m 7.18772,-6.09673 c 0,-0.59921 -26.42429,-24.20327 -27.09509,-24.20327 -1.39819,0 -0.37987,1.33687 3.16411,4.15392 2.05204,1.63113 8.00862,6.87499 13.23686,11.65303 8.57007,7.83211 10.69412,9.49978 10.69412,8.39632 z m -49.22744,-18.85621 c 0.55801,-6.64422 1.18749,-13.32805 1.39883,-14.85295 0.26579,-1.91774 0.15586,-2.4062 -0.35659,-1.58431 -0.40747,0.65353 -1.16243,6.71353 -1.67768,13.46667 -0.51526,6.75313 -1.05883,12.90225 -1.20792,13.6647 -0.1491,0.76246 -0.0236,1.38628 0.27885,1.38628 0.30247,0 1.00649,-5.43618 1.56451,-12.08039 z m -8.27131,-13.66471 c 0.31237,-2.14869 0.22125,-2.77209 -0.28309,-1.93671 -0.40905,0.67755 -0.92719,4.06402 -1.15142,7.52549 -0.41873,6.46424 -0.18585,5.55697 1.43451,-5.58878 z m 37.62881,1.74379 c -2.57146,-1.84333 -18.72396,-16.43842 -21.60048,-19.51778 -2.11362,-2.26268 -4.05272,-3.90419 -4.3091,-3.64781 -0.25638,0.25638 1.29472,2.28523 3.44688,4.50856 5.12151,5.29085 21.94192,19.74447 22.4206,19.2658 0.20469,-0.20469 0.22363,-0.47864 0.0421,-0.60877 z m 0.066,-11.9792 c 0,-0.18339 -4.18853,-3.29813 -9.30784,-6.92165 -5.11931,-3.62351 -12.6052,-9.35298 -16.6353,-12.73215 -4.0301,-3.37917 -7.32745,-5.81205 -7.32745,-5.40639 0,1.37183 12.30852,11.2584 26.5907,21.35843 5.16364,3.65161 6.67989,4.49186 6.67989,3.70176 z"
       id="path11960"
       transform="scale(0.26458333)" />
    <path
       style="fill:#b3b3b3;stroke-width:2.61674"
       d="m 357.30539,879.29423 c -0.0436,-11.90526 1.43782,-40.73977 3.11334,-60.6 0.84542,-10.02079 1.92652,-26.57308 2.40245,-36.78286 0.47594,-10.20979 1.03608,-18.83952 1.24477,-19.17718 0.20868,-0.33766 0.55713,-4.63891 0.77433,-9.55832 0.2172,-4.91943 1.26274,-16.78675 2.32342,-26.37185 1.06069,-9.5851 2.49072,-23.66569 3.17784,-31.2902 1.53075,-16.9856 3.90239,-29.06866 9.12214,-46.47572 5.91479,-19.72488 18.05185,-55.26736 18.97816,-55.57614 0.4429,-0.14762 0.80527,-1.11256 0.80527,-2.14429 0,-2.02936 7.17649,-22.72905 11.66254,-33.63916 1.52275,-3.70334 6.79087,-15.46844 11.70693,-26.14468 4.91607,-10.67623 11.33247,-25.1133 14.25868,-32.08236 2.92621,-6.96905 7.28783,-16.84293 9.69247,-21.94194 l 4.37209,-9.27093 2.54803,1.94348 c 2.9462,2.24717 3.72443,2.43192 3.07097,0.72902 -0.39803,-1.03726 -0.16687,-1.07814 1.58433,-0.28024 1.12771,0.51381 1.83765,1.27841 1.57764,1.69909 -0.26,0.42069 0.0185,1.07605 0.61896,1.45635 1.47678,0.93538 2.48392,0.89452 1.88384,-0.0764 -0.26927,-0.43569 -0.10062,-0.79216 0.37478,-0.79216 1.73473,0 54.63005,27.06497 66.56248,34.05805 24.33079,14.25922 49.01396,25.94884 77.23531,36.57763 8.90345,3.35325 9.76166,3.82158 6.33725,3.4584 -10.50255,-1.11387 -32.26064,-1.98574 -61.96291,-2.48289 l -32.6531,-0.54655 -21.60965,-15.01166 c -19.11332,-13.27751 -26.47083,-18.02945 -27.91534,-18.02945 -1.21038,0 -0.16864,1.44802 1.63196,2.26843 1.13277,0.51613 11.86653,7.61364 23.8528,15.77225 l 21.79321,14.83384 -12.96065,0.49741 c -10.81321,0.415 -24.46968,2.06132 -28.6034,3.44823 -0.5459,0.18315 -2.54352,0.7305 -4.43917,1.21633 -6.67272,1.71015 -2.63685,1.54787 8.66035,-0.34822 6.28187,-1.05433 15.34275,-2.15845 20.1353,-2.4536 10.63956,-0.65525 87.54735,0.98316 106.11773,2.26068 l 13.43536,0.92427 -11.45497,10.41737 c -13.94011,12.67741 -18.81451,17.70905 -28.96149,29.89572 -13.62566,16.36462 -15.79296,19.38583 -20.84584,29.05907 -2.7142,5.1961 -5.28002,9.44746 -5.70181,9.44746 -1.21555,0 -0.64491,5.84531 1.75355,17.96247 2.81003,14.1964 3.88175,18.30293 8.7389,33.48501 5.80584,18.14743 8.96692,31.81983 12.13488,52.48617 1.55591,10.15003 3.70609,22.19754 4.7782,26.77224 2.49834,10.66054 3.74326,21.58667 3.42982,30.10197 l -0.24785,6.73333 -4.68206,-12.67451 c -19.16722,-51.88629 -25.29824,-64.82235 -44.25708,-93.37952 -13.78344,-20.76161 -19.06086,-27.47771 -30.00173,-38.1806 -10.40002,-10.17379 -17.44125,-15.68136 -37.11012,-29.02719 -13.07169,-8.86946 -16.56763,-10.91467 -18.6568,-10.91467 -0.7194,0 0.71904,1.06629 3.19656,2.36954 5.13316,2.70019 20.27375,12.96495 33.67985,22.83366 14.01399,10.31621 28.57247,25.47521 39.32002,40.94191 23.38844,33.65808 31.3474,49.08181 47.06858,91.21461 4.84995,12.99787 9.17018,24.29038 9.6005,25.09445 0.43033,0.80406 0.63004,1.61431 0.4438,1.80054 -0.18623,0.18623 -3.05357,-0.89865 -6.37187,-2.41085 -3.31831,-1.51219 -10.76981,-4.23506 -16.55892,-6.0508 -5.7891,-1.81575 -14.35456,-5.04212 -19.03437,-7.16972 -8.48506,-3.85761 -27.62821,-10.57396 -36.64421,-12.85658 -2.61412,-0.66182 -10.81294,-2.29962 -18.21961,-3.63954 -7.40667,-1.33992 -19.28095,-4.05565 -26.38729,-6.03496 -14.07518,-3.92031 -23.28647,-5.88048 -27.63382,-5.88048 -2.09086,0 -2.67905,-0.28293 -2.35324,-1.13198 0.23891,-0.62259 0.67977,-2.43999 0.97968,-4.03866 0.4671,-2.48985 0.34915,-2.86711 -0.82253,-2.63077 -1.02111,0.20598 -1.92779,2.48467 -3.57693,8.98965 -4.28531,16.90328 -11.5645,34.57832 -26.75144,64.95687 -12.35685,24.71751 -18.66275,36.01119 -28.50142,51.04518 -4.25554,6.50268 -8.52362,13.18417 -9.48463,14.84777 l -1.74729,3.02471 z m 6.71211,-39.80588 c 1.21676,-1.85167 5.40813,-7.57002 9.31415,-12.70746 3.90602,-5.13743 6.9153,-9.52734 6.68729,-9.75536 -0.75748,-0.75747 -19.58752,23.43559 -19.58752,25.16628 0,1.57578 1.53406,0.4193 3.58608,-2.70346 z m 1.9641,-33.66667 c 0.003,-0.32677 4.97617,-6.28516 11.05194,-13.24088 6.07577,-6.95571 10.93533,-12.75829 10.79902,-12.89459 -0.50695,-0.50695 -15.32768,15.3963 -21.40352,22.96684 -2.21083,2.75471 -2.67595,3.76274 -1.73618,3.76274 0.70601,0 1.28595,-0.26735 1.28874,-0.59411 z m 198.03416,-23.63774 c 0,-1.31894 -44.77245,-36.66765 -45.46129,-35.89256 -0.15474,0.17411 7.53199,6.37621 17.08163,13.78245 9.54963,7.40624 19.57437,15.49913 22.27719,17.9842 4.60312,4.23227 6.10247,5.24598 6.10247,4.12591 z m 4.93429,-5.0289 c -5.05401,-4.71427 -16.5125,-13.14912 -22.57798,-16.62015 -5.24061,-2.999 -2.54563,-0.82605 6.72309,5.42077 4.668,3.14608 10.90623,7.99594 13.86275,10.77748 2.95653,2.78153 5.73197,5.05696 6.16766,5.05649 0.43568,-4.7e-4 -1.4433,-2.08604 -4.17552,-4.63459 z m -197.99977,-0.64317 c 2.25879,-3.32889 6.85774,-8.8104 15.57185,-18.56018 l 5.89071,-6.59081 -6.15892,5.94118 c -6.32879,6.10504 -18.69309,20.33812 -18.69309,21.51843 0,1.50015 1.49683,0.48063 3.38945,-2.30862 z m 192.35804,-18.31069 c -6.0629,-7.65504 -36.79157,-34.9583 -37.99249,-33.75737 -0.1967,0.1967 0.67709,1.16346 1.94174,2.14836 9.40933,7.32794 21.83042,18.43105 28.83662,25.77681 8.4114,8.81905 11.65954,11.44498 7.21413,5.8322 z m -24.2455,-2.48343 c -0.26927,-0.43569 -0.91414,-0.7867 -1.43303,-0.78003 -0.56688,0.007 -0.46917,0.31863 0.24479,0.78003 1.52183,0.98348 1.79606,0.98348 1.18824,0 z m -14.25883,-8.71373 c -0.26927,-0.43569 -0.91413,-0.7867 -1.43303,-0.78003 -0.56687,0.007 -0.46917,0.31863 0.2448,0.78003 1.52182,0.98349 1.79605,0.98349 1.18823,0 z m -5.94118,-3.47995 c 0,-0.17124 -0.55321,-0.52362 -1.22938,-0.78309 -0.70495,-0.27051 -1.02292,-0.13772 -0.7454,0.31133 0.4652,0.75271 1.97478,1.11333 1.97478,0.47176 z m 43.37325,-29.07464 c -0.23837,-10.96398 -0.77226,-20.22012 -1.19039,-20.63825 -0.48278,-0.48278 -0.6589,1.34319 -0.48487,5.02714 0.15031,3.18192 0.49311,12.46913 0.76178,20.63825 0.26866,8.16911 0.68136,14.85294 0.91709,14.85294 0.23573,0 0.23411,-8.94604 -0.004,-19.88008 z m -19.52412,2.15826 c -0.49596,-0.5976 -5.44108,-3.69825 -10.98916,-6.89035 -5.54808,-3.1921 -13.47389,-7.91486 -17.61291,-10.49503 -10.40717,-6.48759 -19.88537,-11.81266 -20.29553,-11.40251 -0.3662,0.3662 25.73763,16.4027 38.91122,23.90453 4.35686,2.48105 8.26022,4.83925 8.67412,5.24044 1.19006,1.15352 2.31246,0.84809 1.31226,-0.35708 z m 0.23844,-18.91544 c -1.13265,-7.81365 -7.43087,-44.81809 -8.12331,-47.72746 -1.40154,-5.88881 -0.92407,-1.07145 1.04979,10.59173 1.90071,11.23095 5.95851,38.32408 5.95851,39.78379 0,0.39523 0.36068,0.71861 0.80152,0.71861 0.4914,0 0.6127,-1.30257 0.31349,-3.36667 z M 408.38634,667.30658 c -5.09575,-21.99598 -6.13326,-25.7828 -6.55556,-23.92712 -0.16725,0.73492 0.42533,3.78549 1.31685,6.77905 1.29029,4.33254 8.58167,35.10434 8.83653,37.29281 0.0344,0.29535 0.22548,0.14199 0.42463,-0.34081 0.19916,-0.48281 -1.61095,-9.39457 -4.02245,-19.80393 z m 101.69674,9.69706 c -0.79614,-0.70084 -25.24627,-16.23649 -28.58271,-18.16149 -4.49394,-2.59282 -7.7905,-3.89892 -7.7905,-3.0866 0,0.3314 2.22794,1.71666 4.95098,3.07837 2.72304,1.36172 10.82564,6.22798 18.00579,10.81391 7.18014,4.58594 13.21044,8.18244 13.40065,7.99223 0.19022,-0.19022 0.19732,-0.47661 0.0158,-0.63642 z m 2.11739,-45.45726 c 0.0391,-10.78281 0.31373,-21.03101 0.6104,-22.77375 0.43212,-2.53836 0.36172,-2.87671 -0.3539,-1.70102 -1.10511,1.81554 -2.10269,44.08179 -1.04041,44.08066 0.40132,-4.4e-4 0.74395,-8.56986 0.78391,-19.60589 z m -56.71021,2.53901 c 0,-1.82535 -39.60842,-17.2586 -40.92195,-15.94507 -0.19491,0.19492 2.24896,1.14049 5.43084,2.10126 6.68269,2.01787 19.78245,7.2981 28.33935,11.42297 5.85537,2.82259 7.15176,3.26141 7.15176,2.42084 z m 37.21755,-23.08563 c -0.53495,-8.63159 -1.1525,-15.87203 -1.37233,-16.08988 -0.50156,-0.49703 0.50674,26.39731 1.12252,29.94087 1.06211,6.11195 1.1579,0.80109 0.24981,-13.85099 z m -34.18095,-11.1389 c -0.92561,-2.0826 -9.73742,-14.45686 -10.29486,-14.45686 -0.37575,0 0.26303,1.515 1.41951,3.36667 5.0165,8.03199 7.62915,11.68431 8.35826,11.68431 0.42962,0 0.66232,-0.26735 0.51709,-0.59412 z m -57.69543,-3.41342 c 0,-0.89708 -0.35648,-1.41075 -0.79216,-1.14148 -0.43569,0.26927 -0.79216,1.00325 -0.79216,1.63107 0,0.62781 0.35647,1.14148 0.79216,1.14148 0.43568,0 0.79216,-0.73398 0.79216,-1.63107 z m 60.32019,-20.92592 c 2.57668,-2.38555 8.63445,-7.37613 13.4617,-11.09019 4.82726,-3.71406 8.32306,-6.75282 7.76846,-6.75282 -2.64811,0 -29.5621,22.08307 -26.9974,22.15151 0.59529,0.0158 3.19055,-1.92294 5.76724,-4.3085 z m 62.06806,-10.83754 c 2.17843,-1.587 7.32274,-5.1648 11.4318,-7.95067 8.15311,-5.52766 11.03565,-8.96767 3.51536,-4.19522 -15.03261,9.53985 -31.70751,22.66812 -30.75321,24.21221 0.24368,0.39427 3.00855,-1.51013 6.14416,-4.23201 3.13561,-2.72187 7.48346,-6.24731 9.66189,-7.83431 z m 37.32622,6.08629 c 7.6757,-4.03463 24.06594,-14.67932 24.06594,-15.62969 0,-0.92921 -3.44961,0.94158 -14.42004,7.82025 -5.17844,3.24699 -11.88019,7.08486 -14.89278,8.5286 -3.01258,1.44374 -5.2504,2.852 -4.97294,3.12947 0.76474,0.76474 3.15701,-0.13615 10.21982,-3.84863 z m -69.13884,-6.22758 c 2.24792,-1.88863 6.50971,-5.13987 9.47065,-7.22497 2.96094,-2.08512 5.21126,-3.96339 5.00069,-4.17395 -0.99163,-0.99163 -19.49402,12.41266 -19.49402,14.12268 0,1.24539 0.84171,0.78893 5.02268,-2.72376 z m -36.55767,-2.90277 c 0.73673,-3.4e-4 1.58339,-0.39522 1.88146,-0.87749 0.9335,-1.51044 -4.45508,0.0543 -8.96412,2.60313 -2.28736,1.29293 -4.15883,2.48773 -4.15883,2.65509 0,0.16737 2.22794,-0.74968 4.95098,-2.0379 2.72304,-1.28822 5.55377,-2.34249 6.29051,-2.34283 z m 12.46029,-28.16453 c -8.77778,-5.90505 -16.15688,-10.53917 -16.39801,-10.29804 -0.24113,0.24112 -0.28988,0.57596 -0.10835,0.74409 1.6864,1.56181 30.67765,20.24019 31.449,20.26184 0.55934,0.0157 -6.16485,-4.80285 -14.94264,-10.70789 z m 103.33586,7.71168 c -18.15527,-14.53234 -29.2394,-22.57726 -30.51887,-22.15077 -0.5078,0.16927 1.89686,2.29804 5.3437,4.7306 3.44682,2.43256 10.72284,7.803 16.16892,11.93431 5.44608,4.13131 10.07487,7.35543 10.28621,7.16471 0.21133,-0.19071 -0.36465,-0.9462 -1.27996,-1.67885 z m -109.61224,0.0542 c -0.002,-0.63999 -22.37049,-6.59334 -22.88232,-6.09016 -0.51242,0.50375 3.83902,2.06476 12.19026,4.37306 8.36702,2.31267 10.69541,2.6866 10.69206,1.7171 z m 72.42739,-8.97478 c -1.42172,-1.57098 -22.07705,-17.13272 -26.70299,-20.11804 -3.85233,-2.48608 -3.27972,-0.61617 0.6475,2.11447 2.07206,1.44074 8.96314,6.45158 15.31349,11.13521 6.35035,4.68363 11.70061,8.51569 11.88946,8.51569 0.18884,0 -0.32751,-0.7413 -1.14746,-1.64733 z"
       id="path11962"
       transform="scale(0.26458333)" />
    <path
       style="fill:#808080;stroke-width:2.61674"
       d="m 363.30238,718.88245 c -0.87737,-23.53301 -0.75411,-50.99022 0.27235,-60.66741 1.84143,-17.36046 5.51747,-34.2841 13.49263,-62.11692 2.12228,-7.40667 5.32843,-19.34844 7.12477,-26.53726 7.2788,-29.12933 10.72613,-38.52625 22.57464,-61.53507 8.9658,-17.41083 24.60915,-45.05649 26.65029,-47.09763 0.81241,-0.81241 1.29163,-1.47712 1.06494,-1.47712 -0.2267,0 0.308,-1.41168 1.18823,-3.13707 0.88023,-1.72539 1.60133,-3.77509 1.60245,-4.5549 0.003,-2.0651 3.97547,-8.31529 15.51039,-24.40344 10.62103,-14.81354 28.09652,-37.04599 28.66925,-36.47325 0.39225,0.39224 -9.14937,24.20651 -10.22135,25.51076 -0.40993,0.49875 -0.64933,1.21169 -0.53201,1.58432 0.44566,1.41549 -12.63451,31.24417 -18.84588,42.97709 -1.937,3.65889 -3.35416,6.82019 -3.14924,7.02511 0.20492,0.20492 -1.00949,3.12139 -2.69869,6.48104 -1.68919,3.35965 -6.49717,14.059 -10.68439,23.77634 -4.18722,9.71734 -11.64969,26.44312 -16.58328,37.1684 -11.24117,24.43755 -10.41501,22.29448 -28.51262,73.96237 -6.73932,19.24046 -15.89676,48.99235 -17.86563,58.04418 -2.2834,10.49789 -2.98645,15.59128 -4.80834,34.83516 -0.90745,9.5851 -2.09505,20.99216 -2.63911,25.34902 l -0.98919,7.92157 z"
       id="path11964"
       transform="scale(0.26458333)" />
  </g>
</svg>
