<?xml version="1.0" encoding="UTF-8" standalone="no"?>
<!-- Created with Inkscape (http://www.inkscape.org/) -->

<svg
   width="400"
   height="400"
   viewBox="0 0 105.83333 105.83333"
   version="1.1"
   id="svg1854"
   xmlns="http://www.w3.org/2000/svg"
   xmlns:svg="http://www.w3.org/2000/svg">
  <defs
     id="defs1851" />
  <g
     id="layer1">
    <g
       id="g22647"
       transform="matrix(-0.74268025,0,0,0.74268025,132.82087,-72.656519)">
      <path
         id="path10935"
         style="fill:#000000;stroke-width:0.874001"
         d="m 125.54944,109.46877 c -0.0994,0.10267 -0.19649,0.20769 -0.29765,0.30851 -0.24231,0.23304 -0.48376,0.46622 -0.73123,0.6935 0.007,0.011 0.0131,0.022 0.0196,0.0331 8.8e-4,0.001 0.0132,0.0181 0.0295,0.0408 0.0545,-0.0497 0.10742,-0.10104 0.16226,-0.15037 0.2832,-0.27588 0.57343,-0.54433 0.85525,-0.82166 -0.02,-0.0348 -0.0331,-0.0696 -0.0377,-0.10387 z m -3.39411,8.75089 c -0.22135,0.38594 -0.44232,0.77209 -0.65732,1.16168 -0.77871,1.3678 -1.56076,2.73403 -2.30942,4.11862 -0.78766,1.47701 -1.5451,2.97104 -2.23345,4.4974 -0.74648,1.65475 -1.4635,3.32299 -2.14561,5.00537 -0.83342,1.99054 -1.70745,3.9636 -2.62051,5.91902 -1.0328,2.23668 -2.11558,4.44996 -3.11609,6.7014 -0.93309,2.18676 -1.79933,4.4015 -2.57245,6.65024 -0.31545,0.92055 -0.63316,1.84028 -0.95395,2.75901 0.003,9.3e-4 0.006,0.002 0.009,0.003 0.0173,0.0166 0.0152,0.0167 0.0145,0.0403 0,-0.0133 -0.006,0.0229 -0.007,0.0238 -0.0121,0.0455 -0.0266,0.0902 -0.0413,0.13487 -0.0384,0.1105 -0.0826,0.21911 -0.12867,0.3266 -0.0387,0.0877 -0.0798,0.17422 -0.12247,0.25993 -0.31758,0.90076 -0.63943,1.80002 -0.97049,2.69596 -0.68431,1.92549 -1.37185,3.84968 -2.03346,5.78311 -0.61942,1.86768 -1.16852,3.75636 -1.75028,5.63583 -0.635729,2.03399 -1.290132,4.06446 -1.787493,6.13813 -0.493297,2.18556 -0.902289,4.38927 -1.091406,6.62492 -0.219641,2.34415 -0.375776,4.69433 -0.651123,7.03316 -0.251396,2.11408 -0.528573,4.22551 -0.747241,6.34328 -0.0497,-1.19003 -0.08956,-2.38008 -0.122473,-3.57084 -0.08497,-2.27447 -0.217688,-4.54741 -0.276986,-6.82284 -0.06889,-3.17501 -0.109835,-6.35449 0.07855,-9.52655 0.0397,-0.52906 0.0717,-1.05905 0.118856,-1.5875 0.220004,-2.4656 0.635476,-4.90954 1.137398,-7.33185 0.730176,-3.33159 1.583521,-6.63248 2.599325,-9.88932 0.247923,-0.85249 0.488243,-1.70713 0.723983,-2.56264 -0.0548,0.0265 -0.11668,0.0609 -0.18293,0.12558 -0.0739,0.0973 -0.14345,0.19763 -0.22686,0.28732 -0.206684,0.74725 -0.41764,1.49365 -0.633553,2.23862 -1.009488,3.25857 -1.876569,6.55637 -2.60966,9.88725 -0.50097,2.42182 -0.94706,4.86328 -1.160653,7.32979 -0.04583,0.52929 -0.07365,1.06009 -0.110588,1.59008 -0.176537,3.16175 -0.152016,6.33058 -0.102319,9.49555 0.05063,2.26741 0.173294,4.53232 0.24443,6.79906 0.0337,1.60346 0.0816,3.20641 0.156062,4.8085 0.0378,0.74821 0.07417,1.49657 0.109555,2.24482 -0.0013,0.0904 -0.0058,0.18081 -0.0057,0.2713 0.0011,0.10106 0.0032,0.36346 0.0078,0.36587 0.0028,0.001 0.0039,0.002 0.0067,0.003 -4.79e-4,0.008 -10e-4,0.0165 -10e-4,0.0248 -0.01108,0.1417 -0.02188,0.18829 0.218075,0.0868 0.21055,0.10396 0.23296,0.0855 0.247013,-0.0646 0.01283,-0.17784 6.68e-4,-0.35644 -0.01292,-0.53382 -0.01359,-0.20575 -0.0251,-0.41174 -0.03824,-0.61753 0.01669,-0.8729 0.09827,-1.74456 0.172599,-2.6138 0.205592,-2.26366 0.492706,-4.51946 0.760678,-6.77633 0.281702,-2.35579 0.42498,-4.72436 0.646989,-7.08587 0.197207,-2.23584 0.59849,-4.44335 1.091406,-6.6306 0.496165,-2.08095 1.148856,-4.11942 1.788516,-6.15932 0.58527,-1.87972 1.13347,-3.77013 1.75804,-5.63738 0.66733,-1.93556 1.34891,-3.8664 2.03605,-5.79499 0.11796,-0.31892 0.23299,-0.63894 0.34881,-0.9586 -0.006,-0.004 -0.0121,-0.007 -0.0181,-0.0109 0.0155,-0.0357 0.0411,-0.0674 0.0594,-0.10232 0.62027,-1.71571 1.21419,-3.44061 1.80506,-5.16661 0.76458,-2.25357 1.63342,-4.46965 2.56677,-6.65799 1.01778,-2.24097 2.07712,-4.46304 3.1073,-6.6983 0.917,-1.95625 1.79376,-3.92989 2.6293,-5.92212 0.68051,-1.69713 1.39982,-3.37746 2.14199,-5.04827 0.68045,-1.5339 1.4489,-3.02564 2.22932,-4.51032 0.63522,-1.18477 1.30807,-2.34872 1.96784,-3.51968 0.0386,-0.0904 0.0785,-0.18073 0.12041,-0.26976 0.0487,-0.10351 0.0974,-0.20694 0.14004,-0.31315 0.0537,-0.12319 0.10083,-0.24942 0.15193,-0.37363 0.05,-0.11143 0.0968,-0.22375 0.13746,-0.33899 0.0432,-0.10384 0.0757,-0.21098 0.11058,-0.31781 z m -6.42699,1.33067 c -0.80317,1.25647 -1.56054,2.54153 -2.31149,3.83025 -0.002,0.0185 -0.003,0.0372 -0.0119,0.0532 -0.008,0.0139 -0.0237,0.0281 -0.0434,0.0424 -0.27536,0.47291 -0.5525,0.945 -0.82734,1.41801 -1.45456,2.45786 -2.8629,4.94112 -4.19923,7.46517 -0.95097,1.83465 -1.93934,3.65147 -2.8298,5.51698 -0.58625,1.22819 -0.66333,1.4421 -1.19424,2.67994 -1.11975,2.68518 -1.89422,5.49254 -2.6107,8.30647 -0.42869,1.86267 -0.90137,3.71298 -1.40198,5.55625 0.11006,0.0786 0.19644,0.14079 0.24908,0.1819 0.53022,-1.93284 1.02759,-3.87377 1.46709,-5.83065 0.70827,-2.81335 1.47505,-5.61963 2.58796,-8.30492 0.52144,-1.22657 0.60521,-1.45739 1.18132,-2.67426 0.88451,-1.86832 1.86403,-3.68913 2.80913,-5.52679 1.32394,-2.52942 2.71638,-5.02091 4.16771,-7.47965 0.85091,-1.46878 1.69349,-2.94354 2.58227,-4.38991 0.0627,-0.13351 0.12711,-0.26628 0.19069,-0.39894 0.0657,-0.14821 0.13029,-0.29681 0.19482,-0.44545 z" />
      <path
         id="path22553"
         style="fill:#000000;stroke-width:0.874001"
         d="m 104.9668,154.95508 a 1.1430467,1.1430467 0 0 0 -0.85157,0.75781 c -0.007,0.008 -0.0704,0.10374 0.0293,-0.008 a 1.1430467,1.1430467 0 0 0 -0.11914,1.36523 c 0.0914,0.1466 0.18239,0.30293 0.27344,0.46485 a 1.1430467,1.1430467 0 0 0 0.27344,0.17187 c 0.001,0.0534 -0.0538,0.12494 -0.0449,0.16797 0.0534,0.25889 0.13872,0.37442 0.20704,0.47461 a 1.1430467,1.1430467 0 0 0 -0.01,0.0449 c 0.0291,0.0644 0.0561,0.12576 0.082,0.18359 a 1.1430467,1.1430467 0 0 0 1.7793,0.1543 l 0.0137,0.13281 a 1.1430467,1.1430467 0 0 0 0.29883,-0.33007 1.1430467,1.1430467 0 0 0 0.0195,-0.0547 1.1430467,1.1430467 0 0 0 0.0137,-0.0117 1.1430467,1.1430467 0 0 0 0.0273,-0.0977 1.1430467,1.1430467 0 0 0 0.11719,-0.32031 c 9.8e-4,-0.009 0.009,-0.0635 0.0156,-0.16406 a 1.1430467,1.1430467 0 0 0 -0.084,-0.49024 1.1430467,1.1430467 0 0 0 0.0371,-0.23046 c -0.0314,-0.11312 -0.0763,-0.21759 -0.14062,-0.32422 a 1.1430467,1.1430467 0 0 0 -0.0215,-0.0352 c -0.0301,-0.046 -0.0488,-0.072 -0.0996,-0.13476 -0.0135,-0.0166 -0.0437,-0.0473 -0.0644,-0.0703 a 1.1430467,1.1430467 0 0 0 -0.16406,-0.55273 c -0.14871,-0.22892 -0.30778,-0.45454 -0.47852,-0.67383 a 1.1430467,1.1430467 0 0 0 -1.10937,-0.41992 z m -0.88477,0.78711 c -0.0261,0.0235 0.0156,-0.11163 0,0 z m 0.73047,1.08593 c -0.11958,0.13075 -0.0905,0.32052 -0.13867,0.50977 a 1.1430467,1.1430467 0 0 0 -0.15821,0.25586 z m 8.63477,38.90821 c -0.2817,-0.0178 -0.40596,0.009 -0.35938,0.01 -0.36607,0.0594 -0.66649,0.20575 -0.83984,0.29493 a 1.1430467,1.1430467 0 0 0 -0.59766,0.79687 c -0.0329,0.16932 -0.0672,0.33578 -0.10156,0.5 -0.35108,1.58718 -0.74163,3.14377 -1.25586,4.64063 -0.56834,1.63497 -1.2074,3.25741 -1.86914,4.88086 -0.64603,1.55241 -1.32193,3.08836 -2.04492,4.5957 -0.75602,1.5646 -1.52945,3.12677 -2.30079,4.69531 -0.84242,1.68365 -1.70845,3.35934 -2.58203,5.03516 -0.81828,1.56308 -1.668673,3.10707 -2.55859,4.625 -0.854695,1.42782 -1.774828,2.8176 -2.742188,4.18554 a 1.1430467,1.1430467 0 0 0 -0.01758,0.0273 c -0.65305,0.98069 -1.280512,2.00218 -1.875,3.05273 -0.197433,-0.34444 -0.409696,-0.69529 -0.589843,-1.03711 l -0.0039,-0.008 c -6.58e-4,-0.001 -0.0013,-0.003 -0.002,-0.004 -0.525913,-1.02693 -1.006911,-2.07441 -1.427734,-3.14062 a 1.1430467,1.1430467 0 0 0 -0.002,-0.006 c -0.55339,-1.38115 -1.090278,-2.75321 -1.564453,-4.13477 l -0.002,-0.006 c -0.545027,-1.61695 -1.061602,-3.25482 -1.59375,-4.89843 -0.568983,-1.76199 -1.081044,-3.5328 -1.496094,-5.32032 v -0.002 c -4.63e-4,-0.002 -0.0015,-0.004 -0.002,-0.006 -0.468622,-2.08699 -0.876236,-4.17167 -1.136719,-6.26367 v -0.006 c -0.305755,-2.5724 -0.523211,-5.14406 -0.583984,-7.71484 a 1.1430467,1.1430467 0 0 0 0,-0.002 c -0.02625,-1.03771 -0.0444,-2.07638 -0.04883,-3.11132 a 1.1430467,1.1430467 0 0 0 -1.277343,-1.12891 c -0.110045,0.013 -0.240989,0.0324 -0.421875,0.0586 a 1.1430467,1.1430467 0 0 0 -0.978516,1.13477 c 0.0028,1.03771 0.02005,2.07188 0.04492,3.10351 0.06094,2.65236 0.263056,5.29312 0.572265,7.91797 a 1.1430467,1.1430467 0 0 0 0.002,0.0117 c 0.278276,2.18016 0.690995,4.32605 1.160156,6.44531 a 1.1430467,1.1430467 0 0 0 0,0.006 c 0.42255,1.87397 0.979714,3.6876 1.552734,5.47071 a 1.1430467,1.1430467 0 0 0 0.0078,0.0234 c 0.551507,1.59459 1.078687,3.20719 1.621093,4.82422 a 1.1430467,1.1430467 0 0 0 0.002,0.004 c 0.492014,1.4479 1.045168,2.85729 1.597656,4.24805 0.449481,1.14688 0.961086,2.26464 1.515625,3.35351 a 1.1430467,1.1430467 0 0 0 0.0039,0.01 c 0.416747,0.79727 0.864942,1.54952 1.289063,2.2832 0.156212,0.27513 0.311139,0.58236 0.488281,0.91211 0.0082,0.018 0.02076,0.0435 0.01758,0.0332 -0.0038,-3.7e-4 -0.02042,-0.027 0.03906,0.13282 0.0385,0.10342 0.137352,0.32536 0.36914,0.50976 0.127997,0.10183 0.221972,0.10014 0.339844,0.13672 0.0319,0.028 -0.0025,0.008 0.05273,0.0527 0.07038,0.0564 0.127064,0.19646 0.59961,0.25196 0.05907,0.007 0.196785,0.006 0.197265,0.006 4.81e-4,-3e-5 0.235895,-0.037 0.236328,-0.0371 8.67e-4,-2.4e-4 0.460258,-0.24745 0.460938,-0.24805 3.4e-4,-3e-4 0.159863,-0.17539 0.160156,-0.17578 2.94e-4,-3.9e-4 0.07881,-0.11526 0.105469,-0.16797 0.03847,-0.0761 0.0517,-0.13302 0.06836,-0.19141 0.216859,-0.48698 0.483748,-0.98356 0.765625,-1.50781 v -0.002 c 0.611685,-1.13423 1.309335,-2.23696 2.042969,-3.33594 l -0.01953,0.0254 c 0.994785,-1.40403 1.946416,-2.84208 2.832036,-4.33008 a 1.1430467,1.1430467 0 0 0 0.002,-0.004 c 0.91784,-1.55956 1.793,-3.14161 2.63476,-4.73633 a 1.1430467,1.1430467 0 0 0 0.002,-0.006 c 0.88057,-1.69084 1.75528,-3.38569 2.61328,-5.09375 a 1.1430467,1.1430467 0 0 0 0.002,-0.006 c 0.78267,-1.58079 1.57389,-3.16461 2.35156,-4.75781 a 1.1430467,1.1430467 0 0 0 0.002,-0.004 c 0.7514,-1.55406 1.44793,-3.12833 2.10937,-4.71289 a 1.1430467,1.1430467 0 0 0 0.004,-0.008 c 0.67816,-1.6585 1.33864,-3.33454 1.93554,-5.04492 a 1.1430467,1.1430467 0 0 0 0,-0.004 c 0.5612,-1.62808 0.9741,-3.27918 1.33008,-4.91992 a 1.1430467,1.1430467 0 0 0 0.002,-0.0117 c 0.0593,-0.28758 0.11355,-0.57378 0.16601,-0.85742 a 1.1430467,1.1430467 0 0 0 -1.0039,-1.34375 z" />
      <path
         id="path22556"
         style="fill:#000000;stroke-width:0.874001"
         d="m 118.98242,122.05078 c -0.37905,-0.0909 -1.3346,0.69885 -0.98633,0.45313 a 1.1153258,1.1153258 0 0 0 -0.21679,1.05078 c 0.13242,0.43122 0.51729,0.8098 0.77148,0.96679 l -0.082,-0.0566 c 0.28899,0.21599 0.57034,0.45145 0.8457,0.70313 a 1.1153258,1.1153258 0 0 0 0.0488,0.043 c 0.16815,0.13637 0.34119,0.27082 0.51758,0.39844 a 1.1153258,1.1153258 0 0 0 0.0996,0.0195 1.1153258,1.1153258 0 0 0 0.0371,0.0781 c 0.0662,0.0458 0.10845,0.0703 0.12304,0.0801 a 1.1153258,1.1153258 0 0 0 0.79883,0.14844 1.1153258,1.1153258 0 0 0 0.44922,0.33398 c 0.14917,0.0544 0.28301,0.10696 0.39258,0.1582 a 1.1153258,1.1153258 0 0 0 0.9375,0 1.1153258,1.1153258 0 0 0 0.26563,-1.89453 c -0.3112,-0.25027 -0.62121,-0.42741 -0.89454,-0.57617 a 1.1153258,1.1153258 0 0 0 -0.36914,0.0684 1.1153258,1.1153258 0 0 0 -0.38281,-0.53711 c -0.11774,-0.0871 -0.23152,-0.1737 -0.33984,-0.26172 -0.30007,-0.2706 -0.61186,-0.5346 -0.93946,-0.78515 -2.8e-4,-2.3e-4 -0.002,2.2e-4 -0.002,0 -0.17952,-0.14215 -0.66499,-0.40615 -1.07422,-0.39063 z m 26.83008,43.00195 a 1.1153258,1.1153258 0 0 0 -1.05664,0.94922 c -0.0327,0.22072 -0.057,0.45398 -0.0664,0.69727 -0.0115,0.25598 0.0123,0.51193 0.0664,0.7539 0.009,0.0415 0.0137,0.10058 0.0117,0.1875 -1.1e-4,-3.6e-4 -0.001,-0.004 0.008,-0.043 0.01,-0.0425 -0.0914,-0.0765 0.23633,-0.45118 0.0706,-0.0806 0.14139,-0.13822 0.21484,-0.18164 a 1.1153258,1.1153258 0 0 0 -0.52344,1.18555 c 0.0563,0.27467 0.1117,0.53424 0.15821,0.78516 a 1.1153258,1.1153258 0 0 0 0.002,0.0137 c 0.25068,1.26016 0.50266,2.5215 0.75781,3.78125 a 1.1153258,1.1153258 0 0 0 0.002,0.01 c 0.28599,1.3502 0.5855,2.72807 1.0039,4.10352 0.47193,1.55246 0.97807,3.08003 1.46289,4.59961 0.50166,1.61134 0.97657,3.21423 1.35938,4.82617 a 1.1153258,1.1153258 0 0 0 0.002,0.004 c 0.39619,1.64713 0.74575,3.28949 0.99414,4.93945 a 1.1153258,1.1153258 0 0 0 0.002,0.008 c 0.23546,1.49447 0.46147,2.99203 0.67968,4.49024 a 1.1153258,1.1153258 0 0 0 0,0.002 c 0.15104,1.02936 0.30428,2.0692 0.49024,3.11523 a 1.1153258,1.1153258 0 0 0 0.002,0.0137 c 0.19841,1.04168 0.43357,2.08598 0.73438,3.125 l -0.0117,-0.0391 c 0.21707,0.86182 0.37824,1.72559 0.45898,2.58789 a 1.1153258,1.1153258 0 0 0 0.002,0.01 c 0.0836,0.81276 0.16351,1.59998 0.18946,2.36523 a 1.1153258,1.1153258 0 0 0 0,0.006 c 0.0282,0.73404 0.0434,1.47138 0.0508,2.2129 3.1e-4,0.0858 -2.4e-4,0.17023 0,0.25585 -0.0341,-0.0168 -0.0674,-0.034 -0.10156,-0.0508 h -0.002 c -0.65022,-0.32089 -1.32382,-0.64727 -2.03906,-0.93164 -0.84317,-0.33505 -1.70567,-0.63493 -2.58984,-0.88672 l -0.0137,-0.004 c -0.99941,-0.29761 -1.98052,-0.57304 -2.91797,-0.89063 -0.94129,-0.33362 -1.84724,-0.70598 -2.70703,-1.15234 a 1.1153258,1.1153258 0 0 0 -0.0156,-0.008 c -0.89037,-0.44354 -1.83561,-0.94348 -2.91016,-1.30079 a 1.1153258,1.1153258 0 0 0 -0.0312,-0.01 c -0.96224,-0.28918 -1.88856,-0.53113 -2.75195,-0.83594 l -0.0156,-0.006 c -0.88615,-0.3289 -1.80984,-0.69323 -2.80469,-0.97265 -1.09304,-0.32918 -2.19925,-0.57995 -3.31055,-0.77539 -1.26006,-0.24083 -2.49771,-0.41523 -3.69726,-0.62891 h -0.004 c -1.10349,-0.20132 -2.1957,-0.42875 -3.27148,-0.69922 l -0.0137,-0.004 c -1.0446,-0.27582 -2.06946,-0.52868 -3.05468,-0.82617 a 1.1153258,1.1153258 0 0 0 -0.01,-0.002 c -0.95274,-0.27782 -1.93803,-0.60776 -2.98828,-0.86719 a 1.1153258,1.1153258 0 0 0 -0.0195,-0.006 c -0.95043,-0.21642 -1.91525,-0.39684 -2.89649,-0.52343 a 1.1153258,1.1153258 0 0 0 -0.008,-0.002 c -0.77381,-0.0937 -1.56203,-0.16915 -2.36328,-0.20312 a 1.1153258,1.1153258 0 0 0 -0.55078,0.11914 l -0.25781,0.13086 a 1.1153258,1.1153258 0 0 0 0.45117,2.10742 c 0.70699,0.0337 1.42131,0.10863 2.14453,0.20312 0.88504,0.12025 1.76344,0.28405 2.63672,0.48633 0.94685,0.25235 1.8977,0.5431 2.86328,0.83789 a 1.1153258,1.1153258 0 0 0 0.0215,0.006 c 1.01796,0.28889 2.05216,0.57832 3.10743,0.82813 0.003,6.8e-4 0.005,0.001 0.008,0.002 0.005,0.001 0.0103,0.003 0.0156,0.004 1.13474,0.2938 2.27314,0.53233 3.41016,0.74023 a 1.1153258,1.1153258 0 0 0 0.0176,0.002 c 1.23001,0.20526 2.46009,0.41019 3.6914,0.61133 1.00095,0.16864 2.01732,0.43191 3.0625,0.70508 0.83124,0.2311 1.6818,0.58383 2.59375,0.93164 a 1.1153258,1.1153258 0 0 0 0.0117,0.004 c 1.00253,0.36793 1.97888,0.59436 2.8711,0.86133 a 1.1153258,1.1153258 0 0 0 0.0215,0.006 c 0.80844,0.22456 1.63723,0.66337 2.55469,1.12305 0.97658,0.50988 1.98009,0.9226 2.98633,1.28125 a 1.1153258,1.1153258 0 0 0 0.0137,0.004 c 1.01791,0.34776 2.02714,0.62968 3.0039,0.92187 a 1.1153258,1.1153258 0 0 0 0.01,0.004 c 0.79516,0.22981 1.58221,0.50631 2.36328,0.81836 a 1.1153258,1.1153258 0 0 0 0.002,0 c 0.61046,0.24323 1.22478,0.54144 1.85547,0.85547 a 1.1153258,1.1153258 0 0 0 0.004,0.002 c 0.47543,0.23354 0.95182,0.47487 1.43359,0.7168 0.18186,0.0915 0.3762,0.18923 0.58203,0.28515 0.002,0.001 0.004,8.3e-4 0.006,0.002 0.16102,0.0786 0.29964,0.11723 0.40821,0.14257 a 1.1153258,1.1153258 0 0 0 0.51953,0.008 c 0.0266,-0.006 0.16712,-0.0344 0.26172,-0.0508 0.009,2.9e-4 0.0179,0.002 0.0273,0.002 0.014,3.4e-4 0.0236,8.6e-4 0.0644,0 0.0205,-4.3e-4 0.15764,-0.0136 0.15821,-0.0137 1.4e-4,-3e-5 0.17961,-0.0449 0.17968,-0.0449 0,0 -0.0143,-0.0429 -0.0156,-0.0469 h -0.002 c 0,0 0,-0.004 0,-0.004 -0.0114,-0.0339 -0.0653,-0.19228 -0.125,-0.36914 -0.004,-0.012 -0.004,-0.0131 -0.008,-0.0254 -0.10059,-0.29815 -0.20703,-0.61133 -0.20703,-0.61133 0,0 0.002,-0.002 0.002,-0.002 -4e-5,-1.5e-4 5e-5,-0.002 0,-0.002 -0.001,-0.004 -0.0156,-0.0449 -0.0156,-0.0449 0,0 0.0241,0.0148 0.0254,0.0156 0.0115,-0.034 0.0949,-0.2822 0.1875,-0.55664 l 0.004,0.30273 0.006,0.3711 c 0.26186,0.15708 0.73435,0.44144 0.73437,0.4414 5e-5,-7e-5 0.0996,-0.22056 0.0996,-0.2207 9e-5,-2.8e-4 0.0357,-0.12661 0.041,-0.15625 0.0107,-0.0593 0.012,-0.0797 0.0137,-0.0976 0.003,-0.0359 0.003,-0.0489 0.004,-0.0645 0.002,-0.0311 0.003,-0.0568 0.004,-0.0859 0.002,-0.0583 0.003,-0.12661 0.004,-0.19726 0.002,-0.13882 0.005,-0.22465 0.004,-0.32813 v -0.004 c -0.002,-0.54783 -0.004,-1.09853 -0.01,-1.65235 a 1.1153258,1.1153258 0 0 0 0,-0.006 c -0.0112,-0.73352 -0.0287,-1.46718 -0.0566,-2.20312 a 1.1153258,1.1153258 0 0 0 -0.002,-0.006 c -0.038,-0.85329 -0.10996,-1.69463 -0.19531,-2.52539 -5.2e-4,-0.006 -0.001,-0.0116 -0.002,-0.0176 -0.0892,-1.01302 -0.27586,-1.99996 -0.51758,-2.95703 a 1.1153258,1.1153258 0 0 0 -0.0117,-0.0391 c -0.27627,-0.94595 -0.49419,-1.91952 -0.68945,-2.91406 l -0.002,-0.008 c -0.18864,-1.00363 -0.33037,-2.04088 -0.49804,-3.10156 v -0.002 c -0.23666,-1.5129 -0.48315,-3.02025 -0.7207,-4.52344 l -0.002,-0.01 c -0.26003,-1.7392 -0.63302,-3.44052 -1.03711,-5.11523 l -0.002,-0.004 c -0.40507,-1.70282 -0.90359,-3.36486 -1.41602,-5.00195 a 1.1153258,1.1153258 0 0 0 -0.002,-0.004 c -0.48713,-1.53128 -0.9854,-3.04446 -1.44531,-4.55859 -0.38102,-1.25589 -0.6671,-2.56739 -0.95117,-3.9043 l -0.002,-0.0117 c -0.25695,-1.27457 -0.52727,-2.53717 -0.78125,-3.79493 l 0.002,0.0176 c -0.15516,-0.83781 -0.33307,-1.66589 -0.52735,-2.48633 a 1.1153258,1.1153258 0 0 0 -1.13281,-0.85547 z m 8.03516,47.46875 c 0.0241,0.0134 -0.106,-0.0179 0,0 z" />
      <path
         id="path10965"
         style="fill:#000000;stroke-width:0.874001"
         d="m 114.40625,120.65625 a 1.1687957,1.1687957 0 0 0 -1.02344,0.2168 c -0.33618,0.26745 -0.69368,0.51567 -1.07031,0.7539 a 1.1687957,1.1687957 0 0 0 -0.18164,1.83399 c 0.0491,0.0468 0.21081,0.11396 0.2832,0.17187 a 1.1687957,1.1687957 0 0 0 1.28321,0.0254 c 0.33537,-0.2236 0.67441,-0.46382 1.00781,-0.73047 a 1.1687957,1.1687957 0 0 0 0.27148,-0.3125 l 0.13672,-0.22851 a 1.1687957,1.1687957 0 0 0 -0.70703,-1.73047 z m -1.73437,3.13086 c 0.0111,0.007 0.0723,0.0202 0.0918,0.0195 -0.0165,-0.002 -0.0665,-0.008 -0.0664,-0.008 4e-5,1e-5 -0.0194,-0.009 -0.0254,-0.0117 z M 82.123047,139.4043 a 1.1687957,1.1687957 0 0 0 -0.988281,0.13281 c -0.195091,0.12693 -0.403493,0.25926 -0.621094,0.40234 -1.467145,0.95107 -2.826842,2.02329 -4.121094,3.14063 a 1.1687957,1.1687957 0 0 0 -0.01172,0.01 c -1.170805,1.03689 -2.24367,2.14082 -3.291015,3.22852 a 1.1687957,1.1687957 0 0 0 -0.0059,0.006 c -1.040515,1.09426 -2.084479,2.19717 -3.103515,3.33984 -0.910285,1.00352 -1.718952,2.05901 -2.494141,3.10742 a 1.1687957,1.1687957 0 0 0 -0.0039,0.006 c -0.624083,0.85555 -1.251171,1.73268 -1.832031,2.66797 a 1.1687957,1.1687957 0 0 0 -0.0098,0.0176 c -0.597731,0.99865 -1.139452,2.00548 -1.677734,2.99023 -0.653987,1.16429 -1.26263,2.34209 -1.853516,3.51758 a 1.1687957,1.1687957 0 0 0 0,0.002 c -0.629771,1.25613 -1.267721,2.51831 -1.882813,3.80273 -0.563194,1.16978 -1.074915,2.34512 -1.583984,3.50391 a 1.1687957,1.1687957 0 0 0 0,0.002 c -0.461409,1.05407 -0.92829,2.11262 -1.384766,3.18164 -0.461604,1.07301 -0.851501,2.15187 -1.224609,3.2168 a 1.1687957,1.1687957 0 0 0 -0.002,0.006 c -0.40605,1.17596 -0.773564,2.35165 -1.142578,3.51367 a 1.1687957,1.1687957 0 0 0 -0.002,0.004 c -0.349633,1.11612 -0.686969,2.24513 -0.990235,3.39063 -0.288895,1.07708 -0.471678,2.15486 -0.613281,3.21484 a 1.1687957,1.1687957 0 0 0 -0.002,0.0156 c -0.143205,1.19934 -0.313456,2.3833 -0.537109,3.55078 a 1.1687957,1.1687957 0 0 0 0,0.008 c -0.217516,1.17213 -0.47379,2.33951 -0.759766,3.50196 -0.269329,1.03369 -0.542724,2.07682 -0.791016,3.13671 a 1.1687957,1.1687957 0 0 0 -0.002,0.0156 c -0.196841,0.89543 -0.371051,1.79058 -0.535156,2.68164 -0.116639,0.62766 -0.261301,1.26526 -0.410156,1.91602 a 1.1687957,1.1687957 0 0 0 -0.002,0.006 c -0.07654,0.34289 -0.169824,0.7103 -0.25,1.11329 -0.01877,0.0835 -0.04757,0.19322 -0.07617,0.34179 a 1.1687957,1.1687957 0 0 0 -0.0098,0.37891 c -0.0076,-0.0558 -0.0028,-0.0582 -0.0059,0.004 a 1.1687957,1.1687957 0 0 0 0,0.006 c 0.0014,-0.0326 -0.01234,0.0366 -0.0293,0.10546 0.02289,-0.0727 0.0068,-0.0662 -0.04687,0.14844 -0.05369,0.21459 -0.0163,0.69234 0.134766,0.95117 a 1.1687957,1.1687957 0 0 0 1.042968,0.57813 c 0.832846,-0.0241 1.303634,-0.3717 1.544922,-0.46875 0.391909,-0.13971 0.668726,-0.25736 0.882813,-0.32422 a 1.1687957,1.1687957 0 0 0 0.0059,0.004 c 0.525995,-0.15658 1.119858,-0.25967 1.763672,-0.38086 a 1.1687957,1.1687957 0 0 0 0.01758,-0.004 c 0.81293,-0.16624 1.661999,-0.27457 2.541016,-0.38477 h -0.01172 c 0.977054,-0.11182 1.971008,-0.1934 2.976562,-0.27734 a 1.1687957,1.1687957 0 0 0 0.0098,0 c 0.888761,-0.0822 1.782468,-0.15723 2.681641,-0.23633 l 0.01758,-0.002 c 0.869311,-0.0632 1.750245,-0.14517 2.636718,-0.27344 0.984169,-0.14002 1.910702,-0.35861 2.798829,-0.54883 0.851711,-0.17947 1.716059,-0.34639 2.585937,-0.51953 a 1.1687957,1.1687957 0 0 0 0.002,0 c 0.764391,-0.15325 1.520994,-0.29679 2.275391,-0.41211 l -0.0039,0.002 c 0.622825,-0.0931 1.236949,-0.18527 1.845703,-0.26368 0.471849,-0.0573 0.955347,-0.10607 1.445312,-0.15429 0.500208,-0.0496 1.028814,-0.0553 1.582031,-0.0469 0.620839,0.0137 1.244153,0.0367 1.871094,0.0625 0.491649,0.0202 0.987442,0.0255 1.484375,0.0137 a 1.1687957,1.1687957 0 0 0 0.02734,0 c 0.334298,-0.0158 0.657615,-0.0403 0.96875,-0.0625 0.224975,-0.0153 0.471584,-0.0274 0.740234,-0.0508 a 1.1687957,1.1687957 0 0 0 0.002,0 c 0.12027,-0.0107 0.25428,-0.0241 0.390626,-0.0391 0.138655,-0.007 0.319021,-0.0341 0.496093,-0.0957 a 1.1687957,1.1687957 0 0 0 0.261719,-0.17578 1.1687957,1.1687957 0 0 0 0.255859,-0.0859 c 0.029,-0.0151 0.06488,-0.0341 0.119141,-0.0703 0.02713,-0.0181 0.05807,-0.0397 0.09961,-0.0742 0.04154,-0.0345 0.157752,-0.15961 0.158203,-0.16016 4.52e-4,-5.5e-4 0.21666,-0.40189 0.216797,-0.40234 6.9e-5,-2.3e-4 0.05079,-0.3748 0.05078,-0.375 -6e-6,-2.1e-4 -0.09563,-0.42951 -0.0957,-0.42969 -7.8e-5,-1.8e-4 -0.21665,-0.33187 -0.216797,-0.33203 -1.47e-4,-1.6e-4 -0.224396,-0.18932 -0.22461,-0.18945 -2.13e-4,-1.4e-4 -0.17941,-0.0936 -0.179687,-0.0937 -2.78e-4,-1.2e-4 -0.09333,-0.0361 -0.13086,-0.0469 -0.300269,-0.0865 -0.333868,-0.0473 -0.388672,-0.0449 -0.0548,0.002 -0.08308,0.007 -0.107421,0.01 -0.0155,0.002 -0.01617,0.002 -0.02734,0.004 0.02838,-0.002 0.217627,0.004 0.216797,0.004 a 1.1687957,1.1687957 0 0 0 -0.246094,0 c -0.0052,6e-4 -0.01631,0.002 -0.01953,0.002 -0.165153,0.018 -0.29578,0.0348 -0.382813,0.041 a 1.1687957,1.1687957 0 0 0 -0.01953,0.002 c -0.199303,0.0176 -0.425084,0.0276 -0.677734,0.043 -0.329844,0.0185 -0.631229,0.0431 -0.90625,0.0547 -0.438463,0.008 -0.869883,0.005 -1.292969,-0.0156 a 1.1687957,1.1687957 0 0 0 -0.0098,0 c -0.636947,-0.0259 -1.270954,-0.0481 -1.904297,-0.0703 a 1.1687957,1.1687957 0 0 0 -0.02344,0 c -0.585719,-0.009 -1.204742,-0.0128 -1.851563,0.0488 a 1.1687957,1.1687957 0 0 0 -0.002,0 c -0.493209,0.0482 -0.995729,0.10035 -1.507812,0.16796 -0.648894,0.0836 -1.283913,0.18207 -1.904297,0.27344 a 1.1687957,1.1687957 0 0 0 -0.02539,0.004 c -0.780125,0.1329 -1.572696,0.26848 -2.373047,0.43359 -0.872809,0.17393 -1.745145,0.35196 -2.615234,0.53321 a 1.1687957,1.1687957 0 0 0 -0.0078,0.002 c -0.912991,0.19699 -1.7953,0.39407 -2.658203,0.52539 -6.1e-4,9e-5 -0.0013,-9e-5 -0.002,0 -0.824592,0.11213 -1.657319,0.19541 -2.498047,0.26172 a 1.1687957,1.1687957 0 0 0 -0.01172,0.002 c -0.911382,0.0816 -1.809035,0.16881 -2.695313,0.23242 a 1.1687957,1.1687957 0 0 0 -0.01172,0.002 c -1.003307,0.083 -2.020889,0.1638 -3.046875,0.27929 a 1.1687957,1.1687957 0 0 0 -0.01172,0.002 c -0.905282,0.11077 -1.803162,0.25412 -2.69336,0.42187 -0.613774,0.11465 -1.285716,0.22263 -1.990234,0.42773 a 1.1687957,1.1687957 0 0 0 -0.03125,0.01 c -0.07372,0.0237 -0.157623,0.0562 -0.232422,0.0801 0.0066,-0.0299 0.01285,-0.06 0.01953,-0.0898 a 1.1687957,1.1687957 0 0 0 0.002,-0.008 c 0.140811,-0.64844 0.282467,-1.30626 0.410157,-1.97461 0.169267,-0.88567 0.322687,-1.75049 0.509765,-2.58593 0.23908,-1.02173 0.507159,-2.04677 0.775391,-3.08594 a 1.1687957,1.1687957 0 0 0 0.0039,-0.0137 c 0.29799,-1.21246 0.550661,-2.42713 0.78125,-3.63868 a 1.1687957,1.1687957 0 0 0 0.002,-0.0117 c 0.220677,-1.22177 0.408362,-2.45045 0.558594,-3.68555 0.136563,-1.00517 0.304336,-1.98421 0.554688,-2.92188 a 1.1687957,1.1687957 0 0 0 0.002,-0.002 c 0.292444,-1.10804 0.606743,-2.20695 0.953125,-3.29297 a 1.1687957,1.1687957 0 0 0 0,-0.002 c 0.370843,-1.16663 0.733024,-2.32081 1.125,-3.45117 0.370726,-1.05477 0.73944,-2.08594 1.166015,-3.06836 a 1.1687957,1.1687957 0 0 0 0.0039,-0.008 c 0.451299,-1.06031 0.904608,-2.11801 1.363281,-3.17382 a 1.1687957,1.1687957 0 0 0 0.0039,-0.008 c 0.496172,-1.16612 0.999345,-2.31814 1.537109,-3.44531 0.602478,-1.26226 1.225995,-2.52182 1.853516,-3.78125 l -0.0039,0.004 c 0.588988,-1.16779 1.189447,-2.32274 1.8125,-3.46485 0.539101,-0.98681 1.067416,-1.95984 1.626953,-2.89257 0.532355,-0.85286 1.109391,-1.68268 1.720703,-2.49414 a 1.1687957,1.1687957 0 0 0 0.0078,-0.01 c 0.755634,-1.02477 1.51819,-2.01419 2.341797,-2.92383 a 1.1687957,1.1687957 0 0 0 0.0059,-0.008 c 0.996865,-1.11933 2.005337,-2.22059 3.039062,-3.29492 1.041656,-1.08273 2.069848,-2.14482 3.148438,-3.11328 1.024322,-0.90403 2.119835,-1.72498 3.27539,-2.47461 a 1.1687957,1.1687957 0 0 0 0.0059,-0.004 c 0.242156,-0.15946 0.498502,-0.32145 0.761719,-0.49219 a 1.1687957,1.1687957 0 0 0 0.388671,-0.41797 c 0.04121,-0.0752 0.07466,-0.13874 0.103516,-0.1914 a 1.1687957,1.1687957 0 0 0 -0.673828,-1.67578 z m -29.787109,63.55078 0.224609,0.17773 a 1.1687957,1.1687957 0 0 0 0.0059,-0.008 l 0.0098,0.008 a 1.1687957,1.1687957 0 0 0 0.0059,-0.0137 c -1.44e-4,5.8e-4 2.5e-4,-0.003 0,-0.002 a 1.1687957,1.1687957 0 0 0 0.002,-0.004 c 8.53e-4,-0.003 0.0011,-0.008 0.002,-0.0117 a 1.1687957,1.1687957 0 0 0 0.03125,-0.0488 1.1687957,1.1687957 0 0 0 0.777343,0.4043 c -0.03546,0.003 -0.09586,0.004 -0.0957,0.004 1.94e-4,0 -0.316506,-0.041 -0.316406,-0.041 5e-5,2e-5 -0.404324,-0.19924 -0.404297,-0.19922 0,0 -0.01615,-0.0162 -0.01953,-0.0195 -0.0034,0.0134 -0.0078,0.0314 -0.0078,0.0312 9e-5,-3e-4 -0.08997,0.22094 -0.08984,0.2207 1.27e-4,-2.3e-4 -0.06856,0.11483 -0.08008,0.13086 -0.01152,0.016 -0.0099,0.0102 -0.0039,0.002 l -0.410156,0.30859 a 1.1687957,1.1687957 0 0 0 0.5625,-0.7207 c -0.05658,-0.0557 -0.158203,-0.15625 -0.158203,-0.15625 0,0 -0.02369,-0.0424 -0.03516,-0.0625 z M 51.828125,204 c -0.01775,0.0101 0.06553,-0.016 0,0 z" />
      <path
         id="path10967"
         style="fill:#000000;stroke-width:0.874001"
         d="m 118.07135,161.79167 c 0.55818,0.21198 1.10219,0.4585 1.61385,0.76843 0.78129,0.45388 1.52893,0.96029 2.26963,1.47743 1.15119,0.78868 2.31483,1.55888 3.45199,2.36782 1.24685,0.88485 2.50404,1.75645 3.72277,2.67994 1.29188,1.0277 2.53402,2.11635 3.69744,3.28868 1.23341,1.24461 2.4956,2.47187 3.57085,3.85972 1.21897,1.58839 2.35286,3.2388 3.46697,4.90202 1.29483,1.92197 2.58757,3.84701 3.77599,5.83737 1.0954,1.86539 2.10883,3.77487 3.03496,5.7304 0.90371,1.90057 1.77307,3.81857 2.5275,5.78415 0.62282,1.61502 1.21499,3.24149 1.82004,4.86327 0.47769,1.29942 0.94619,2.60198 1.42214,3.90208 0.32536,0.88382 0.65186,1.76816 1.01182,2.6386 0.27239,0.62826 0.56431,1.24798 0.90951,1.8402 l 0.13229,0.0811 v -5.2e-4 c -0.34083,-0.58862 -0.62654,-1.20521 -0.89504,-1.82934 -0.3513,-0.86146 -0.65827,-1.74006 -0.98288,-2.61173 -0.47121,-1.30078 -0.93604,-2.60366 -1.41232,-3.9026 -0.59687,-1.6231 -1.20055,-3.24359 -1.8216,-4.85759 -0.76303,-1.96276 -1.62406,-3.88452 -2.52697,-5.78621 -0.92037,-1.96055 -1.93637,-3.86969 -3.03289,-5.7366 -1.18966,-1.99285 -2.48432,-3.91954 -3.77238,-5.84925 -1.10872,-1.66315 -2.24439,-3.30785 -3.45251,-4.90048 -1.06841,-1.39803 -2.32903,-2.63021 -3.56309,-3.87883 -1.15894,-1.18152 -2.40021,-2.27571 -3.69486,-3.30523 -1.21834,-0.93046 -2.48108,-1.8012 -3.73156,-2.68769 -1.13313,-0.80936 -2.29333,-1.58008 -3.44113,-2.36833 -0.73598,-0.52448 -1.48304,-1.03203 -2.25619,-1.50017 -0.56426,-0.35174 -1.17688,-0.59986 -1.80764,-0.8015 z" />
      <path
         id="path10969"
         style="fill:#000000;stroke-width:0.874001"
         d="m 86.367338,158.00638 c -1.328072,0.90721 -2.64242,1.83354 -3.878833,2.86494 -1.547371,1.26778 -3.056389,2.58867 -4.367175,4.10621 -1.507409,1.74813 -2.935517,3.56075 -4.332552,5.39812 -1.688173,2.1953 -3.365292,4.4009 -4.912879,6.69881 -1.522532,2.2441 -3.010079,4.51123 -4.496366,6.77943 -1.401939,2.11335 -2.801774,4.22891 -4.309298,6.26939 -1.316348,1.78349 -2.614602,3.58021 -3.89692,5.3883 -1.03761,1.44084 -2.094388,2.86745 -3.117639,4.3186 -0.667419,0.92252 -1.339873,1.8415 -2.003495,2.76676 l 0.26665,-0.0987 c 0.658463,-0.93196 1.336853,-1.84948 2.007113,-2.77295 1.041134,-1.44285 2.107478,-2.86724 3.149679,-4.3093 1.274667,-1.81733 2.572291,-3.61801 3.882967,-5.40949 1.517499,-2.03332 2.905759,-4.15796 4.308264,-6.27093 1.490367,-2.2681 2.977775,-4.53791 4.504118,-6.78202 1.558833,-2.29915 3.240365,-4.51077 4.923213,-6.71949 1.409972,-1.8351 2.830733,-3.66285 4.345472,-5.4131 1.304544,-1.51395 2.808937,-2.82567 4.336169,-4.10621 1.157373,-0.94349 2.3665,-1.82141 3.578076,-2.69338 z" />
      <path
         id="path10971"
         style="fill:#000000;stroke-width:0.874001"
         d="m 100.73597,154.17405 c -6.5e-4,4.1e-4 -10e-4,6.3e-4 -0.002,0.001 l 0.002,-5.2e-4 z m -0.002,0.001 -0.27647,0.10128 c -0.0629,0.0401 -0.12572,0.0806 -0.1881,0.12144 0.0179,0.0128 0.0441,0.0317 0.0605,0.0434 0.13311,-0.0909 0.2676,-0.17988 0.40411,-0.26613 z" />
      <path
         id="path11204"
         style="fill:#000000;stroke-width:0.874001"
         d="m 114.9072,121.60963 -0.047,0.008 c -0.21979,0.0904 -0.4404,0.17878 -0.65319,0.28526 -0.30142,0.13606 -0.60208,0.27418 -0.90485,0.40721 l 0.26096,-0.0434 v 5.2e-4 c 0.31508,-0.1357 0.62875,-0.27534 0.94258,-0.41393 0.11259,-0.0604 0.24621,-0.0938 0.34882,-0.17312 0.0232,-0.0179 0.0349,-0.047 0.0527,-0.0703 z" />
      <path
         id="path22562"
         style="fill:#000000;stroke-width:0.874001"
         d="m 128.42578,100.94531 c -9.4e-4,2e-5 -0.15756,0.015 -0.19922,0.0254 a 0.89089915,0.89089915 0 0 0 -0.0156,0.004 c -0.15937,0.0425 -0.14266,0.0507 -0.16797,0.0625 -0.0253,0.0118 -0.0438,0.0227 -0.0644,0.0332 -0.0232,0.0118 -0.0492,0.0258 -0.0742,0.0391 -0.0758,0.0177 -0.12407,0.008 -0.21875,0.0547 -0.21663,0.10705 -0.33897,0.25242 -0.40821,0.33203 -0.21186,0.24135 -0.39391,0.47642 -0.5664,0.68946 a 0.89089915,0.89089915 0 0 0 -0.008,0.008 c -0.47604,0.60108 -0.96048,1.1983 -1.44921,1.79492 a 0.89089915,0.89089915 0 0 0 -0.002,0.004 c -0.70576,0.87146 -1.4011,1.7446 -2.09765,2.61133 l 0.004,-0.002 c -0.59102,0.72973 -1.20189,1.45972 -1.80078,2.21289 a 0.89089915,0.89089915 0 0 0 -0.01,0.0117 c -0.57798,0.75337 -1.14031,1.51841 -1.68555,2.29688 h 0.002 c -0.58389,0.83219 -1.14944,1.6674 -1.71875,2.48828 -0.53057,0.74732 -1.09111,1.49415 -1.63867,2.26953 a 0.89089915,0.89089915 0 0 0 -0.002,0.004 c -0.42217,0.60345 -0.86763,1.23376 -1.25196,1.94531 -0.29338,0.53853 -0.57362,1.08186 -0.84179,1.63281 -0.21733,0.43191 -0.42562,0.87367 -0.61914,1.32617 -0.14718,0.3337 -0.29981,0.65278 -0.4668,0.94922 a 0.89089915,0.89089915 0 0 0 0.95117,1.31055 l 0.25195,-0.0508 a 0.89089915,0.89089915 0 0 0 0.58985,-0.41797 c 0.22454,-0.37846 0.40872,-0.75706 0.58008,-1.11914 a 0.89089915,0.89089915 0 0 0 0.0117,-0.0234 c 0.18316,-0.41697 0.38968,-0.83886 0.60156,-1.27539 a 0.89089915,0.89089915 0 0 0 0.002,-0.004 c 0.25374,-0.52921 0.52353,-1.05179 0.80664,-1.5664 l 0.002,-0.002 c 0.32627,-0.58749 0.73039,-1.16466 1.15234,-1.76953 v -0.002 c 0.001,-0.002 0.003,-0.002 0.004,-0.004 0.53582,-0.75343 1.08947,-1.50537 1.63477,-2.27734 a 0.89089915,0.89089915 0 0 0 0.004,-0.006 c 0.57709,-0.83356 1.14089,-1.66662 1.71484,-2.48047 0.5306,-0.7522 1.07196,-1.49259 1.63086,-2.2207 l 0.0117,-0.0137 c 0.57961,-0.72504 1.18461,-1.44951 1.78125,-2.19336 a 0.89089915,0.89089915 0 0 0 0.002,-0.002 c 0.0736,-0.0924 0.14718,-0.18301 0.2207,-0.27539 -0.0444,0.10681 -0.0865,0.21122 -0.13085,0.31836 a 0.89089915,0.89089915 0 0 0 -0.002,0 c -0.38013,0.92128 -0.73411,1.84821 -1.08203,2.76758 a 0.89089915,0.89089915 0 0 0 0.006,0.10547 0.89089915,0.89089915 0 0 0 -0.0801,0.0937 c -0.28433,0.77678 -0.58677,1.54959 -0.89844,2.32226 -0.26506,0.64678 -0.54486,1.2887 -0.83593,1.92969 -0.23146,0.50435 -0.48193,1.01238 -0.73047,1.53907 -0.20773,0.43998 -0.42019,0.88851 -0.62305,1.3496 -0.16131,0.36525 -0.31186,0.72506 -0.46289,1.07813 l 0.002,-0.01 c -0.11529,0.26221 -0.24741,0.53222 -0.38476,0.8125 a 0.89089915,0.89089915 0 0 0 -0.006,0.0137 c -0.12528,0.26605 -0.27724,0.54146 -0.44141,0.83203 -0.18403,0.30789 -0.31538,0.59755 -0.43554,0.8457 a 0.89089915,0.89089915 0 0 0 -0.0215,0.0488 c -0.0719,0.17423 -0.14182,0.33937 -0.21679,0.49414 -0.074,0.15061 -0.14172,0.2953 -0.20704,0.43164 a 0.89089915,0.89089915 0 0 0 -0.004,0.008 c -0.0286,0.0614 -0.0948,0.16725 -0.18555,0.32422 -0.0704,0.1216 -0.13333,0.2316 -0.19336,0.32617 -0.0309,0.0454 -0.0862,0.12404 -0.15039,0.23828 a 0.89089915,0.89089915 0 0 0 -0.16797,0.35547 c 0.0475,-0.21382 0.19253,-0.25798 0.32422,-0.36719 a 0.89089915,0.89089915 0 0 0 -0.0684,1.02344 c 0.0441,0.0681 0.0877,0.13651 0.0879,0.13672 4.1e-4,4.3e-4 0.21033,0.16372 0.21094,0.16406 6e-4,3.4e-4 0.1238,0.059 0.17187,0.0742 0.0481,0.0152 0.0878,0.0236 0.1211,0.0293 0.12117,0.0207 0.16102,0.0126 0.19726,0.01 0.001,-8e-5 0.005,0.002 0.006,0.002 0.002,-1.8e-4 0.0113,1.3e-4 0.0137,0 0.0748,-0.004 0.0925,-0.009 0.11524,-0.0117 0.0455,-0.005 0.0859,-0.01 0.16602,-0.01 a 0.89089915,0.89089915 0 0 0 0.81835,-0.53906 c 0.0357,-0.0832 0.007,0.0746 -0.17578,0.25781 a 0.89089915,0.89089915 0 0 0 0.11524,-0.14453 c 0.0433,-0.0663 0.0611,-0.10013 0.0781,-0.13281 0.0254,-0.0422 0.0681,-0.10868 0.11914,-0.19141 l 0.004,-0.006 c 0.0898,-0.1428 0.16072,-0.27269 0.22461,-0.38476 a 0.89089915,0.89089915 0 0 0 0.004,-0.006 c 0.0839,-0.1493 0.16611,-0.30807 0.24218,-0.47852 v -0.002 c 0.0614,-0.13516 0.12571,-0.27134 0.19141,-0.41016 a 0.89089915,0.89089915 0 0 0 0.004,-0.006 c 0.0933,-0.20049 0.17533,-0.39728 0.25195,-0.58984 a 0.89089915,0.89089915 0 0 0 0,-0.002 c 0.0855,-0.21544 0.19888,-0.4369 0.33203,-0.67188 l 0.002,-0.002 c 0.1702,-0.29877 0.34838,-0.61767 0.51172,-0.96094 l 0.002,-0.006 c 0.13857,-0.28233 0.28016,-0.57316 0.41211,-0.88086 a 0.89089915,0.89089915 0 0 0 0.004,-0.006 c 0.15684,-0.37346 0.29709,-0.73505 0.44336,-1.07031 v -0.002 c 0.19647,-0.44971 0.38647,-0.88891 0.58789,-1.3086 a 0.89089915,0.89089915 0 0 0 0.002,-0.004 c 0.23821,-0.50403 0.49634,-1.01881 0.74024,-1.5586 0.29722,-0.65862 0.58449,-1.32415 0.85742,-1.99804 a 0.89089915,0.89089915 0 0 0 0,-0.002 c 0.33176,-0.82352 0.63515,-1.64892 0.92969,-2.47265 l 0.004,-0.0117 c 0.35397,-0.94538 0.71628,-1.88361 1.09766,-2.80859 h -0.002 c 0.37187,-0.89917 0.75001,-1.80269 1.11328,-2.71875 0.23464,-0.59267 0.47017,-1.19714 0.68554,-1.81836 l 0.004,-0.01 c 0.0839,-0.23342 0.17005,-0.46111 0.26172,-0.68164 a 0.89089915,0.89089915 0 0 0 0.0137,-0.0352 c 0.001,-0.004 0.0619,-0.10797 0.0918,-0.33007 a 0.89089915,0.89089915 0 0 0 0.006,-0.0508 c -6.9e-4,0.003 3.5e-4,-0.006 0,-0.004 1.4e-4,-6.3e-4 -1.5e-4,-0.001 0,-0.002 0.0245,-0.10558 0.0515,-0.20966 0.0781,-0.30665 0.005,-0.01 0.002,8.4e-4 0.008,-0.01 0.0169,-0.0319 0.0565,-0.12852 0.0566,-0.12891 1.3e-4,-3.8e-4 0.0469,-0.23602 0.0469,-0.23633 2e-5,-3e-4 -0.0702,-0.40015 -0.0703,-0.40039 -1e-4,-2.3e-4 -0.30838,-0.38265 -0.3086,-0.38281 -2.1e-4,-1.5e-4 -0.32778,-0.1425 -0.32812,-0.14258 -3.4e-4,-7e-5 -0.20461,-0.0195 -0.20508,-0.0195 z m -4.23828,9.22657 a 0.89089915,0.89089915 0 0 0 -0.14844,0.17187 c 0.009,-0.0107 0.012,-0.05 0.0195,-0.0586 0.0687,-0.0779 0.10154,-0.0957 0.12891,-0.11328 z m -0.30078,0.625 a 0.89089915,0.89089915 0 0 0 0.0215,0.36132 c 2.3e-4,4.5e-4 -0.0428,0.0242 -0.0605,-0.25 -0.004,-0.057 0.0331,-0.0612 0.0391,-0.11132 z m -5.46289,12.125 c -0.004,0.002 -0.0239,0.0118 -0.0371,0.0176 0.002,-7.7e-4 0.006,-0.009 0.008,-0.01 0.016,-0.006 0.016,-0.004 0.0293,-0.008 z" />
      <path
         id="path22559"
         style="fill:#000000;stroke-width:0.874001"
         d="m 119.14062,122.5625 a 0.86927797,0.86927797 0 0 0 -0.42578,1.6582 c 0.59104,0.26961 1.18289,0.53788 1.77344,0.80664 a 0.86927797,0.86927797 0 0 0 0.0449,0.0176 0.86927797,0.86927797 0 0 0 0.0391,0.0195 c 2.1e-4,1.1e-4 0.005,0.002 0.0195,0.008 a 0.86927797,0.86927797 0 0 0 0.002,0.002 c 0.0169,0.007 0.0444,0.0185 0.0234,0.01 0.24199,0.11023 0.48459,0.22317 0.73242,0.33594 a 0.86927797,0.86927797 0 0 0 0.002,0 c 1.49295,0.67564 2.97085,1.38733 4.43946,2.12305 1.75409,0.89753 3.50906,1.81664 5.28906,2.70117 a 0.86927797,0.86927797 0 0 0 0.01,0.004 c 1.62575,0.78183 3.23867,1.57981 4.83008,2.41406 1.57764,0.85878 3.13105,1.77793 4.6836,2.71289 a 0.86927797,0.86927797 0 0 0 0.01,0.006 c 2.08307,1.2234 4.21594,2.335 6.36719,3.39648 a 0.86927797,0.86927797 0 0 0 0.01,0.004 c 1.78487,0.85403 3.56861,1.73539 5.38868,2.57031 a 0.86927797,0.86927797 0 0 0 0.008,0.004 c 1.38888,0.62177 2.79028,1.24458 4.2207,1.81836 a 0.86927797,0.86927797 0 0 0 0.004,0.002 c 0.96471,0.38118 1.93691,0.76506 2.92773,1.125 a 0.86927797,0.86927797 0 0 0 0.002,0.002 c 0.78234,0.28124 1.57587,0.56869 2.38867,0.83204 l -0.0117,-0.002 c 0.16777,0.0568 0.33906,0.10853 0.50781,0.16407 -0.61376,0.61548 -1.24646,1.21681 -1.89844,1.8164 -0.8785,0.79216 -1.80427,1.56511 -2.71484,2.39258 a 0.86927797,0.86927797 0 0 0 -0.002,0 c -0.95182,0.86756 -1.85129,1.7813 -2.7168,2.7168 a 0.86927797,0.86927797 0 0 0 -0.004,0.004 c -0.70159,0.77003 -1.32273,1.57375 -1.9375,2.34766 a 0.86927797,0.86927797 0 0 0 -0.002,0.002 c -0.48383,0.6119 -0.96655,1.21307 -1.46484,1.78906 -0.56889,0.63655 -1.12528,1.27966 -1.67774,1.92383 -0.58107,0.65515 -1.12698,1.3428 -1.62695,2.07032 a 0.86927797,0.86927797 0 0 0 -0.006,0.01 c -0.49934,0.75043 -0.92189,1.52264 -1.33008,2.26953 a 0.86927797,0.86927797 0 0 0 -0.002,0.006 c -0.2351,0.43809 -0.48049,0.88727 -0.71094,1.36133 -0.17443,0.3458 -0.34847,0.69163 -0.52148,1.04297 -0.13973,0.27587 -0.26093,0.54773 -0.375,0.80859 -0.0757,0.17323 -0.14783,0.34982 -0.2168,0.53125 -8.8e-4,0.002 -0.001,0.004 -0.002,0.006 -0.001,0.003 -0.003,0.006 -0.004,0.01 -0.0613,0.15675 -0.1006,0.2977 -0.13281,0.42382 -0.0366,0.12208 -0.0582,0.22954 -0.0742,0.31836 a 0.86927797,0.86927797 0 0 0 -0.002,0.29297 c 0.009,0.0571 0.0117,0.1243 0.01,0.20703 -8.8e-4,0.009 -0.003,0.0248 -0.004,0.0293 -5e-4,0.004 0.001,-0.006 0.004,-0.0176 8.3e-4,-0.004 2.3e-4,0.002 0.002,-0.006 0.007,-0.0296 -0.0778,-0.0502 0.17969,-0.34375 l 0.004,-0.004 c 0.002,-0.002 0.0331,-0.0431 0.11328,-0.0996 a 0.86927797,0.86927797 0 0 0 -0.36914,0.75 c -0.004,-0.0799 -0.007,-0.0624 0.002,0.0547 a 0.86927797,0.86927797 0 0 0 0.0527,0.24414 c 0.10397,0.2763 0.21805,0.39548 0.23047,0.41601 a 0.86927797,0.86927797 0 0 0 0.14453,0.18164 l 0.0391,0.0371 a 0.86927797,0.86927797 0 0 0 0.29492,0.1836 c -0.1078,-0.0402 0.005,0.0146 0.16406,0.0625 0.0793,0.024 0.18835,0.0579 0.375,0.0449 0.18666,-0.013 0.49069,-0.12491 0.66993,-0.35157 a 0.86927797,0.86927797 0 0 0 0.18359,-0.44726 c 0.022,-0.20801 0.0147,-0.32576 0.0176,-0.35156 a 0.86927797,0.86927797 0 0 0 0.002,-0.0215 c 0.0117,-0.13684 0.0296,-0.2431 0.0527,-0.32226 a 0.86927797,0.86927797 0 0 0 0.004,-0.0137 c 0.0377,-0.13784 0.0626,-0.21972 0.0762,-0.25 a 0.86927797,0.86927797 0 0 0 0.0234,-0.0547 c 0.0572,-0.15543 0.11952,-0.31201 0.18555,-0.46485 0.11037,-0.25662 0.21699,-0.50088 0.33008,-0.72656 a 0.86927797,0.86927797 0 0 0 0.002,-0.006 c 0.17104,-0.34759 0.34456,-0.69162 0.51953,-1.03515 a 0.86927797,0.86927797 0 0 0 0,-0.004 c 0.2282,-0.45229 0.44138,-0.89323 0.66406,-1.30859 0.3987,-0.74543 0.78797,-1.46827 1.22266,-2.13672 0.442,-0.65591 0.94095,-1.28147 1.47461,-1.89649 a 0.86927797,0.86927797 0 0 0 0.004,-0.006 c 0.55984,-0.6551 1.12197,-1.30239 1.69336,-1.9375 a 0.86927797,0.86927797 0 0 0 0.0117,-0.0137 c 0.52372,-0.60603 1.0173,-1.22631 1.49805,-1.84765 l 0.002,-0.004 c 0.60542,-0.77552 1.19537,-1.53598 1.82227,-2.23633 l 0.004,-0.004 c 0.82712,-0.91105 1.67591,-1.79247 2.56836,-2.61523 0.8747,-0.79819 1.80534,-1.5728 2.72071,-2.4043 a 0.86927797,0.86927797 0 0 0 0.008,-0.006 c 0.7217,-0.67017 1.4443,-1.34843 2.1543,-2.04687 a 0.86927797,0.86927797 0 0 0 0.004,-0.004 c 0.25985,-0.259 0.55854,-0.53615 0.84961,-0.87304 a 0.86927797,0.86927797 0 0 0 0.0371,-0.0469 c -4e-5,6e-5 0.0245,-0.0327 0.041,-0.0547 0.0129,-0.009 0.0468,-0.0331 0.0469,-0.0332 4.4e-4,-4.6e-4 0.20098,-0.34311 0.20117,-0.34375 2e-4,-6.4e-4 0.0372,-0.31167 0.0371,-0.3125 -5e-5,-8.3e-4 -0.0215,-0.14977 -0.0371,-0.20117 -0.0156,-0.0514 -0.0318,-0.0893 -0.0469,-0.1211 -0.0301,-0.0637 -0.0553,-0.10265 -0.0762,-0.13281 -0.0417,-0.0603 -0.0685,-0.0895 -0.0937,-0.11719 -0.01,-0.0106 -0.0182,-0.0178 -0.0274,-0.0273 -0.0291,-0.0714 -0.0235,-0.11142 -0.10937,-0.22461 -0.17381,-0.22914 -0.44672,-0.35198 -0.58203,-0.39844 a 0.86927797,0.86927797 0 0 0 -0.0254,-0.008 c -0.16246,-0.0506 -0.35037,-0.11475 -0.56641,-0.17383 l -0.0156,-0.006 c -0.53283,-0.15491 -1.05997,-0.3059 -1.57813,-0.46679 l -0.01,-0.004 c -0.79191,-0.25637 -1.57621,-0.51119 -2.34375,-0.78711 l -0.002,-0.002 c -0.96546,-0.35045 -1.92745,-0.71544 -2.88672,-1.08985 l 0.006,0.004 c -1.41589,-0.56432 -2.81749,-1.11038 -4.16797,-1.73047 a 0.86927797,0.86927797 0 0 0 -0.002,-0.002 c -1.8005,-0.82208 -3.59292,-1.64145 -5.35352,-2.50977 -1.91659,-0.94509 -3.80229,-1.92631 -5.60742,-3.02343 a 0.86927797,0.86927797 0 0 0 -0.008,-0.006 c -1.56713,-0.92823 -3.13491,-1.88942 -4.76172,-2.78516 a 0.86927797,0.86927797 0 0 0 -0.004,-0.002 c -1.62397,-0.88274 -3.27769,-1.67594 -4.91406,-2.4668 l -0.006,-0.004 c -1.77254,-0.87578 -3.53384,-1.79211 -5.31054,-2.69726 a 0.86927797,0.86927797 0 0 0 -0.006,-0.002 c -1.48462,-0.74023 -2.98565,-1.48727 -4.53516,-2.16015 -0.88646,-0.39887 -1.77367,-0.80234 -2.66211,-1.20313 a 0.86927797,0.86927797 0 0 0 -0.29297,-0.0742 z m 1.19532,2.33203 a 0.86927797,0.86927797 0 0 0 0.23242,0.16211 c 6.6e-4,3e-4 0.001,0.002 0.002,0.002 a 0.86927797,0.86927797 0 0 0 0.0137,0.008 c -0.0137,-0.007 -0.0195,-0.008 -0.0312,-0.0137 -5.8e-4,-3.5e-4 -0.006,-0.004 -0.006,-0.004 -0.009,-0.005 -0.0274,-0.0137 -0.0273,-0.0137 3.4e-4,1.9e-4 -0.18384,-0.14088 -0.18359,-0.14063 z" />
      <path
         id="path22568"
         style="fill:#000000;stroke-width:0.874001"
         d="m 82.779297,107.375 a 0.91813506,0.91813506 0 0 0 -0.138672,0.0332 l 0.0039,-0.01 c -0.02298,-0.002 -0.07487,-0.008 -0.148437,-0.008 a 0.91813506,0.91813506 0 0 0 -0.0098,0 c -0.03788,4.2e-4 -0.08189,0.002 -0.130859,0.01 -0.04896,0.007 -0.163627,0.0409 -0.164063,0.041 -4.49e-4,1.5e-4 -0.0969,0.0639 -0.193359,0.12695 a 0.91813506,0.91813506 0 0 0 -0.207031,0.16406 c -0.03911,0.0712 -0.18927,0.34696 -0.189454,0.34766 -1.03e-4,4e-4 -0.02731,0.16556 -0.02734,0.16601 -3.3e-5,4.5e-4 -0.0025,0.0934 0,0.13086 0.01098,0.16392 0.03392,0.15447 0.05664,0.20313 a 0.91813506,0.91813506 0 0 0 -0.002,0.01 c -0.002,-0.005 0.01214,0.0235 0.0098,0.0195 0.01513,0.0271 0.03115,0.12315 0.03906,0.13867 0.04233,0.083 0.03483,0.15616 -0.04687,-0.12891 0.0089,0.0312 0.01329,0.0454 0.01172,0.0391 0.01721,0.0702 0.03476,0.15485 0.05469,0.25196 0.06935,0.34946 0.155625,0.67141 0.234375,0.9707 a 0.91813506,0.91813506 0 0 0 0.01172,0.0352 c 0.120393,0.39139 0.2132,0.79561 0.28711,1.21093 a 0.91813506,0.91813506 0 0 0 0.002,0.006 c 0.132079,0.71867 0.195117,1.46832 0.242187,2.24414 0.05834,0.96477 0.08527,1.94423 0.123047,2.93555 a 0.91813506,0.91813506 0 0 0 0,0.008 c 0.04338,0.9246 0.04879,1.87147 0.08203,2.83985 0.02521,0.91707 0.07788,1.82472 0.128906,2.72265 0.0472,0.85434 0.09864,1.70946 0.15039,2.56055 0.04467,0.79373 0.08114,1.58762 0.109375,2.38086 a 0.91813506,0.91813506 0 0 0 0.002,0.0137 c 0.0351,0.68403 0.02074,1.38147 -0.01172,2.0918 -0.03287,0.70498 -0.0898,1.4146 -0.160156,2.12695 a 0.91813506,0.91813506 0 0 0 0,0.006 c -0.06027,0.6493 -0.164832,1.30065 -0.296876,1.95508 -0.109009,0.53982 -0.253382,1.09186 -0.40039,1.66406 a 0.91813506,0.91813506 0 0 0 -0.0059,0.0195 c -0.120596,0.51466 -0.267962,1.0393 -0.414062,1.58399 a 0.91813506,0.91813506 0 0 0 -0.002,0.01 c -0.09444,0.36692 -0.214248,0.73423 -0.349609,1.10742 a 0.91813506,0.91813506 0 0 0 -0.002,0.006 c -0.09472,0.26733 -0.206903,0.54242 -0.324218,0.82813 a 0.91813506,0.91813506 0 0 0 -0.002,0.006 c -0.09194,0.2276 -0.160375,0.4271 -0.228515,0.59179 a 0.91813506,0.91813506 0 0 0 -0.0078,0.0195 c -0.01915,0.0493 -0.05832,0.12484 -0.121093,0.22851 a 0.91813506,0.91813506 0 0 0 -0.01563,0.0273 c -0.03877,0.0694 -0.104719,0.17551 -0.169922,0.33203 l 0.02148,-0.0449 c -0.01411,0.0292 -0.04029,0.0724 -0.08008,0.12891 -0.0703,0.0931 -0.134776,0.18539 -0.191406,0.27149 a 0.91813506,0.91813506 0 0 0 -0.0078,0.0117 c -0.09895,0.15571 -0.154071,0.285 -0.193359,0.3711 -0.0046,0.0102 -0.01726,0.0351 -0.03906,0.0684 l 0.07617,-0.0996 c -0.195159,0.22378 -0.295785,0.59076 -0.3125,0.74609 a 0.91813506,0.91813506 0 0 0 -0.002,0.0117 c -0.02465,0.2633 0.108109,-0.22924 0,0.006 a 0.91813506,0.91813506 0 0 0 0.205078,1.05078 l 0.0332,0.0312 a 0.91813506,0.91813506 0 0 0 1.105469,0.0781 c 0.173144,-0.0305 0.553582,-0.10124 0.802734,-0.45899 a 0.91813506,0.91813506 0 0 0 0.01953,-0.0293 c 0.04057,-0.0633 0.113815,-0.17132 0.183594,-0.33593 l -0.0059,0.0156 c 0.03118,-0.0703 0.05493,-0.11665 0.06641,-0.13476 a 0.91813506,0.91813506 0 0 0 0.0059,-0.0117 c 0.02172,-0.0353 0.07534,-0.10514 0.154297,-0.2168 a 0.91813506,0.91813506 0 0 0 0.002,-0.002 c 0.06586,-0.0939 0.155672,-0.22025 0.242187,-0.39453 a 0.91813506,0.91813506 0 0 0 0.01367,-0.0293 c 0.01386,-0.0306 0.04464,-0.0893 0.08203,-0.16406 l 0.0098,-0.0195 c 0.04351,-0.0796 0.132392,-0.21669 0.21875,-0.43946 l 0.0039,-0.008 c 0.08124,-0.20596 0.150838,-0.40006 0.220703,-0.57813 l 0.0059,-0.0156 c 0.119596,-0.28878 0.239956,-0.58609 0.351562,-0.89648 0.147913,-0.41025 0.285166,-0.83298 0.396485,-1.27344 l 0.002,-0.006 c 0.145555,-0.54088 0.289275,-1.08692 0.423828,-1.63867 v -0.002 c 0.147458,-0.58495 0.28673,-1.17531 0.410156,-1.77539 a 0.91813506,0.91813506 0 0 0 0.0039,-0.0117 c 0.135571,-0.70703 0.244249,-1.42448 0.314453,-2.15039 v -0.004 c 0.0737,-0.73192 0.137277,-1.46976 0.171876,-2.21875 a 0.91813506,0.91813506 0 0 0 0,-0.006 c 0.03058,-0.75026 0.03459,-1.50259 0.01172,-2.25391 a 0.91813506,0.91813506 0 0 0 0,-0.0117 c -0.03388,-0.80912 -0.06996,-1.61773 -0.107422,-2.42578 a 0.91813506,0.91813506 0 0 0 -0.002,-0.008 c -0.04795,-0.84993 -0.08929,-1.70753 -0.142578,-2.57031 v -0.004 c -0.05226,-0.89656 -0.10988,-1.7792 -0.132812,-2.64844 v -0.01 c -0.01495,-0.9533 -0.02974,-1.91438 -0.07031,-2.88282 v -0.006 c -0.03628,-0.98125 -0.07039,-1.97266 -0.125,-2.96875 a 0.91813506,0.91813506 0 0 0 0,-0.0156 c -0.05753,-0.78287 -0.109134,-1.60327 -0.251953,-2.44727 a 0.91813506,0.91813506 0 0 0 0,-0.008 c -0.04131,-0.23282 -0.102628,-0.47253 -0.152344,-0.70898 0.106663,0.0584 0.20963,0.11451 0.31836,0.17383 0.276344,0.15094 0.575374,0.32179 0.902343,0.48632 0.388468,0.22646 0.764893,0.44381 1.119141,0.66993 a 0.91813506,0.91813506 0 0 0 0.02734,0.0176 c 0.439926,0.2601 0.88361,0.59615 1.378906,0.94532 0.587295,0.43905 1.193969,0.92783 1.896484,1.36523 0.496599,0.31791 1.014081,0.63657 1.564453,0.92383 a 0.91813506,0.91813506 0 0 0 0.0078,0.004 c 0.607043,0.30828 1.212853,0.59646 1.806641,0.88476 a 0.91813506,0.91813506 0 0 0 0.0078,0.004 c 0.823651,0.38939 1.655072,0.77634 2.494141,1.15039 a 0.91813506,0.91813506 0 0 0 0.002,0.002 c 0.977613,0.43244 1.974647,0.89528 3.033203,1.28711 a 0.91813506,0.91813506 0 0 0 0.01367,0.004 c 0.931621,0.32779 1.883543,0.67479 2.886723,0.95312 l -0.002,-0.002 c 1.1914,0.33574 2.38885,0.66225 3.59571,0.96484 1.20787,0.3216 2.40935,0.63241 3.59179,0.97071 a 0.91813506,0.91813506 0 0 0 0.002,0 c 1.03962,0.29396 2.07845,0.60664 3.12109,0.92187 a 0.91813506,0.91813506 0 0 0 0.002,0 c 0.68434,0.20507 1.35973,0.39774 2.01563,0.60547 a 0.91813506,0.91813506 0 0 0 1.11718,-1.24805 l -0.0215,-0.0469 v 0.19336 a 0.91813506,0.91813506 0 0 0 -0.63867,-0.875 c -0.68411,-0.21824 -1.37175,-0.42484 -2.06445,-0.6211 l -0.0117,-0.004 c -1.04793,-0.31287 -2.0997,-0.62457 -3.15821,-0.92383 a 0.91813506,0.91813506 0 0 0 -0.002,0 c -1.21422,-0.34204 -2.43344,-0.66958 -3.66016,-0.97461 l -0.0117,-0.002 c -1.20435,-0.31418 -2.39872,-0.60927 -3.56641,-0.94336 l -0.004,-0.002 c -0.92708,-0.27015 -1.84404,-0.58628 -2.75195,-0.93554 -0.987608,-0.37948 -1.97006,-0.81261 -2.960938,-1.25586 a 0.91813506,0.91813506 0 0 0 -0.01367,-0.006 c -0.819713,-0.35166 -1.634996,-0.74029 -2.462891,-1.13477 a 0.91813506,0.91813506 0 0 0 -0.0098,-0.006 c -0.603589,-0.27854 -1.198468,-0.56049 -1.779296,-0.85937 l -0.002,-0.002 c -0.466599,-0.2419 -0.921321,-0.51083 -1.371093,-0.79883 -0.0025,-0.002 -0.0053,-0.002 -0.0078,-0.004 -0.402205,-0.29484 -0.798427,-0.57957 -1.183594,-0.86719 l -0.0332,-0.0254 c -0.488758,-0.3993 -0.983444,-0.72822 -1.427734,-1.04883 a 0.91813506,0.91813506 0 0 0 -0.03906,-0.0273 c -0.383486,-0.24706 -0.764595,-0.46591 -1.132812,-0.68164 -0.345587,-0.23246 -0.682981,-0.41105 -0.988281,-0.57813 a 0.91813506,0.91813506 0 0 0 -0.002,-0.002 c -0.262961,-0.14306 -0.534462,-0.29527 -0.816407,-0.44726 l -0.0332,-0.0176 c -0.21771,-0.1267 -0.420983,-0.22926 -0.589844,-0.32031 a 0.91813506,0.91813506 0 0 0 -0.01367,-0.008 c -0.145663,-0.0752 -0.305858,-0.1651 -0.484374,-0.26367 l 0.01367,0.006 c -0.147252,-0.0844 -0.28991,-0.15971 -0.425781,-0.23242 a 0.91813506,0.91813506 0 0 0 -0.06445,-0.0312 c 0.120279,0.0918 0.114496,0.15973 0.167969,0.26758 -0.100678,0.0623 -0.722656,0.44726 -0.722656,0.44726 0,0 0.631064,-0.36594 0.734374,-0.42578 0.01584,0.0339 0.0443,0.0577 0.05469,0.0859 -0.09558,0.041 -0.789062,0.33984 -0.789062,0.33984 0,0 -0.262484,-0.33657 -0.421876,-0.54101 l 0.01563,-0.0508 0.496093,-0.30274 0.03906,0.01 c -0.01503,-0.005 -0.02275,-0.007 -0.03711,-0.0117 l 0.0098,-0.006 c -0.0095,-0.001 -0.03193,-0.004 -0.04687,-0.006 -0.0759,-0.0243 -0.152391,-0.0503 -0.205078,-0.0684 z m 0.697265,0.25 c 0.0038,0.003 0.0021,0.005 0.0059,0.008 0.0073,0.004 0.03212,0.0206 0.0098,0.004 a 0.91813506,0.91813506 0 0 0 -0.01563,-0.0117 z" />
      <path
         style="fill:#000000;stroke-width:0.874001"
         id="path11844"
         d="m 163.76156,145.01839 c -0.90598,-0.13459 -1.82193,-0.19124 -2.73433,-0.26618 -1.86818,-0.18887 -3.74272,-0.29248 -5.61848,-0.36608 -2.71573,-0.0624 -5.43156,-0.10972 -8.14703,-0.1842 -3.02958,-0.0772 -6.06021,-0.0976 -9.09039,-0.13948 -1.84205,-0.017 -3.68553,-0.0601 -5.52712,0.0109 -1.14836,0.0443 -1.3427,0.0762 -2.47903,0.17824 -1.89056,0.21845 -3.78282,0.51026 -5.61855,1.02377 -0.31993,0.0895 -0.63528,0.19462 -0.95293,0.29192 0,0 -0.008,0.0183 -0.008,0.0183 v 0 c 2.1473,-0.39257 4.28581,-0.8569 6.4645,-1.04638 1.15809,-0.0902 1.31742,-0.11561 2.48791,-0.15389 1.84986,-0.0605 3.7012,-0.014 5.5513,0.003 3.03204,0.0363 6.06446,0.0619 9.09551,0.15283 2.72333,0.0808 5.44726,0.12447 8.17091,0.19067 1.87163,0.0719 3.73986,0.1887 5.6066,0.34192 0.9164,0.0521 1.83543,0.0802 2.74747,0.1892 0,0 0.0518,-0.24414 0.0518,-0.24414 z" />
      <path
         style="fill:#000000;stroke-width:0.874001"
         id="path11846"
         d="m 82.775321,108.62928 c 0.506806,0.6253 0.926571,1.3143 1.33528,2.00578 0.782416,1.36757 1.500288,2.77069 2.207239,4.17833 0.674889,1.34313 1.331574,2.69516 2.020216,4.03136 0.638585,1.26907 1.382717,2.47961 2.137111,3.68193 0.716912,1.09609 1.399598,2.21358 2.071774,3.33758 0.702562,1.14785 1.354442,2.32495 1.965963,3.5235 0.675881,1.30394 1.228839,2.66485 1.741093,4.03967 0.421063,1.2372 0.818978,2.48174 1.242711,3.71823 0,0 0.01799,0.009 0.01799,0.009 v 0 c -0.244737,-1.23066 -0.533998,-2.44993 -0.957583,-3.63352 -0.490696,-1.39026 -1.028615,-2.76397 -1.714553,-4.07164 -0.622916,-1.21695 -1.257855,-2.4277 -1.956871,-3.60323 -0.671703,-1.1258 -1.371222,-2.23373 -2.07753,-3.33804 -0.757933,-1.20102 -1.505638,-2.41042 -2.147803,-3.67857 -0.690443,-1.33827 -1.360418,-2.68675 -2.040654,-4.03019 -0.723749,-1.41127 -1.44875,-2.82256 -2.223659,-4.20664 -0.41434,-0.69985 -0.839507,-1.397 -1.372539,-2.01485 0,0 -0.24819,0.0516 -0.24819,0.0516 z" />
      <path
         style="fill:#000000;stroke-width:0.874001"
         id="path11850"
         d="m 94.342661,235.48931 c 0.128275,-0.88901 0.111381,-1.7929 0.130018,-2.68919 0.02265,-1.68815 0.03036,-3.37619 0.07486,-5.06397 0.05568,-2.03939 0.192522,-4.07517 0.316892,-6.11116 0.123708,-2.01377 0.301844,-4.02367 0.48728,-6.03253 0.185381,-1.7911 0.316783,-3.58608 0.39883,-5.38466 0.05852,-1.4013 0.100132,-2.80323 0.148112,-4.20491 0.02959,-1.05672 0.119925,-2.10996 0.223393,-3.16155 0.08114,-0.77211 0.132492,-1.54682 0.178765,-2.32166 0.02082,-0.49971 0.0846,-1.00186 0.024,-1.50044 -0.0305,-0.0651 -0.06099,-0.13023 -0.09148,-0.19534 0,0 -0.0424,-0.007 -0.0424,-0.007 v 0 c -0.02524,0.0558 -0.05046,0.11168 -0.07569,0.16752 -0.05459,0.49344 -0.04073,0.99233 -0.08375,1.48696 -0.04628,0.77454 -0.103288,1.54853 -0.1772,2.32095 -0.09715,1.04863 -0.189738,2.09829 -0.213481,3.15173 -0.04529,1.40266 -0.07284,2.80591 -0.132805,4.2081 -0.07895,1.79886 -0.205677,3.59471 -0.38612,5.38643 -0.185301,2.00969 -0.358606,4.02065 -0.477512,6.03555 -0.120126,2.03412 -0.252249,4.06786 -0.312412,6.10494 -0.04769,1.68892 -0.06086,3.37812 -0.09638,5.06728 -0.01593,0.89015 -7.93e-4,1.78668 -0.117247,2.67075 0,0 0.224322,0.0721 0.224322,0.0721 z" />
      <path
         style="fill:#000000;stroke-width:0.874001"
         id="path11852"
         d="m 85.782525,121.79257 c -0.196906,1.19726 -0.332682,2.40345 -0.483177,3.60712 0,0 0.01849,-0.008 0.01849,-0.008 v 0 c 0.151202,-1.21166 0.300162,-2.42459 0.519221,-3.62633 0,0 -0.05454,0.0268 -0.05454,0.0268 z" />
      <path
         style="fill:#000000;stroke-width:0.874001"
         id="path11854"
         d="m 88.261758,121.74243 c -0.11307,1.39178 -0.282062,2.77832 -0.406842,4.16907 -0.119166,1.32821 -0.164119,2.03499 -0.258977,3.35657 0,0 0.01834,-0.008 0.01834,-0.008 v 0 c 0.09126,-1.27135 0.143576,-2.08065 0.259,-3.35652 0.112033,-1.23838 0.269357,-2.46999 0.404625,-3.70567 0.01794,-0.16392 0.0319,-0.32825 0.04785,-0.49238 0,0 -0.064,0.0369 -0.064,0.0369 z" />
      <path
         style="fill:#000000;stroke-width:0.874001"
         id="path11856"
         d="m 91.469418,123.9847 c -0.141277,3.275 -0.425051,6.54259 -0.674852,9.81069 -0.05228,0.68521 -0.104571,1.37042 -0.156855,2.05564 0,0 0.01947,-0.005 0.01947,-0.005 v 0 c 0.05229,-0.68521 0.104571,-1.37042 0.156858,-2.05563 0.0328,-0.42965 0.309155,-4.05352 0.34494,-4.50584 0.140261,-1.77292 0.314844,-3.54476 0.387758,-5.32222 0,0 -0.07733,0.0219 -0.07733,0.0219 z" />
      <path
         style="fill:#000000;stroke-width:0.874001"
         id="path11858"
         d="m 93.056661,130.82254 c 0.06361,2.78867 -0.133858,5.57754 -0.35097,8.35601 0,0 0.01974,-0.003 0.01974,-0.003 v 0 c 0.232291,-2.79035 0.490845,-5.58897 0.453673,-8.39155 0,0 -0.122438,0.0388 -0.122438,0.0388 z" />
      <path
         style="fill:#000000;stroke-width:0.874001"
         id="path11860"
         d="m 58.397515,189.23889 c -0.22016,-2.9891 0.05618,-5.99118 0.305152,-8.97005 0.05253,-0.54507 0.105063,-1.09014 0.157594,-1.63521 0,0 -0.02,-2e-4 -0.02,-2e-4 v 0 c -0.05253,0.54508 -0.105061,1.09015 -0.157594,1.63523 -0.276577,2.97723 -0.60027,5.9749 -0.420171,8.96767 0,0 0.135019,0.003 0.135019,0.003 z" />
      <path
         style="fill:#000000;stroke-width:0.874001"
         id="path11862"
         d="m 62.600691,185.82633 c 0.272124,-2.89892 0.836544,-5.76151 1.330621,-8.62837 0,0 -0.02,-2.7e-4 -0.02,-2.7e-4 v 0 c -0.362646,2.10423 -0.302623,1.76787 -0.674502,3.8777 -0.27807,1.57761 -0.58497,3.15446 -0.742466,4.75014 0,0 0.106344,7.9e-4 0.106344,7.9e-4 z" />
      <path
         style="fill:#000000;stroke-width:0.874001"
         id="path11864"
         d="m 67.471519,179.45627 c 0.326716,-2.55265 0.822267,-5.08003 1.281502,-7.61112 0.314158,-1.74432 0.618262,-3.49031 0.935664,-5.23404 0,0 -0.01998,0.001 -0.01998,0.001 v 0 c -0.318016,1.7471 -0.648205,3.49181 -0.979768,5.23639 -0.480433,2.528 -1.003697,5.05327 -1.332418,7.60647 0,0 0.114991,0.001 0.114991,0.001 z" />
      <path
         style="fill:#000000;stroke-width:0.874001"
         id="path11868"
         d="m 72.91724,168.76546 c 0.154865,-1.93766 0.336642,-3.87324 0.52008,-5.80839 0.117126,-1.31561 0.270881,-2.62705 0.436822,-3.93719 0,0 -0.01984,0.002 -0.01984,0.002 v 0 c -0.227261,1.31372 -0.450506,2.6288 -0.584464,3.95623 -0.19776,1.93198 -0.402738,3.86584 -0.520689,5.80435 0,0 0.1681,-0.0174 0.1681,-0.0174 z" />
      <path
         style="fill:#000000;stroke-width:0.874001"
         id="path11870"
         d="m 63.932011,177.08812 c 0.296262,-1.76452 0.72753,-3.50291 1.099529,-5.25217 0.312986,-1.47175 0.612635,-2.94632 0.923314,-4.41856 0.622781,-2.88367 0.313372,-1.47916 0.926525,-4.21392 0,0 -0.01987,0.002 -0.01987,0.002 v 0 c -0.61315,2.73479 -0.303741,1.33027 -0.926523,4.21395 -0.420542,1.99285 -0.511709,2.46268 -0.955458,4.42057 -0.3967,1.7503 -0.852845,3.4889 -1.175557,5.25508 0,0 0.128048,-0.007 0.128048,-0.007 z" />
      <path
         style="fill:#000000;stroke-width:0.874001"
         id="path11872"
         d="m 78.207888,164.5222 c 0.237714,-2.60945 0.642426,-5.20253 1.047861,-7.79042 0.533553,-3.39274 1.404474,-6.7158 2.315501,-10.02261 0.114196,-0.37777 0.228393,-0.75553 0.34259,-1.13329 0,0 -0.01966,0.004 -0.01966,0.004 v 0 c -0.114197,0.37777 -0.228391,0.75555 -0.342588,1.13332 -0.989444,3.29156 -1.813444,6.63504 -2.370921,10.02855 -0.408247,2.58598 -0.825111,5.17499 -1.087736,7.78038 0,0 0.114958,5.2e-4 0.114958,5.2e-4 z" />
      <path
         style="fill:#000000;stroke-width:0.874001"
         id="path11874"
         d="m 56.937938,196.2393 c 2.485774,-0.47177 4.978429,-0.90506 7.471683,-1.33518 2.770494,-0.47966 1.401111,-0.25041 4.10796,-0.68887 0,0 0.01495,-0.0133 0.01495,-0.0133 v 0 c -2.682568,0.43536 -1.335156,0.22177 -4.042272,0.64054 -2.475212,0.41061 -4.948476,0.83263 -7.413755,1.29975 0,0 -0.13857,0.097 -0.13857,0.097 z" />
      <path
         style="fill:#000000;stroke-width:0.874001"
         id="path11876"
         d="m 61.373665,189.934 c 2.325769,-0.0616 4.635738,-0.36544 6.940706,-0.6604 2.462958,-0.33137 4.910013,-0.7649 7.361621,-1.16862 0,0 0.01315,-0.0151 0.01315,-0.0151 v 0 c -2.42691,0.39533 -4.858999,0.75888 -7.295113,1.09313 -2.291535,0.28835 -4.588314,0.57779 -6.899833,0.63583 0,0 -0.120537,0.11513 -0.120537,0.11513 z" />
      <path
         style="fill:#000000;stroke-width:0.874001"
         id="path11878"
         d="m 67.109175,182.8946 c 2.43291,-0.47012 4.855726,-0.99025 7.276581,-1.51838 2.119876,-0.45441 1.090356,-0.24298 3.08791,-0.63744 0,0 0.01228,-0.0158 0.01228,-0.0158 v 0 c -1.982036,0.39139 -0.965629,0.19498 -3.049466,0.58795 -2.407944,0.4703 -4.811085,0.9648 -7.216328,1.44873 0,0 -0.110984,0.13492 -0.110984,0.13492 z" />
      <path
         style="fill:#000000;stroke-width:0.874001"
         id="path11880"
         d="m 70.727884,177.1977 c 2.505972,-0.69414 5.020588,-1.35655 7.532357,-2.0293 1.82577,-0.50607 0.944104,-0.26752 2.644391,-0.71791 0,0 0.01188,-0.0161 0.01188,-0.0161 v 0 c -1.669378,0.4187 -0.806474,0.2042 -2.588898,0.64274 -2.495232,0.65064 -4.992915,1.29281 -7.480427,1.97245 0,0 -0.119314,0.1481 -0.119314,0.1481 z" />
      <path
         style="fill:#000000;stroke-width:0.874001"
         id="path11882"
         d="m 75.255288,170.85888 c 1.785943,-0.9048 3.708596,-1.49633 5.619827,-2.07056 1.256398,-0.35973 2.522318,-0.68331 3.790466,-0.99831 0,0 0.01191,-0.0161 0.01191,-0.0161 v 0 c -1.245354,0.29008 -2.495383,0.56322 -3.726458,0.9109 -1.899295,0.55664 -3.817678,1.13355 -5.574186,2.06268 0,0 -0.121565,0.11135 -0.121565,0.11135 z" />
      <path
         style="fill:#000000;stroke-width:0.874001"
         id="path11884"
         d="m 81.771825,164.18905 c 2.240814,-0.84403 4.532781,-1.54781 6.81722,-2.26304 2.033857,-0.62986 1.038637,-0.32115 2.985693,-0.926 0,0 0.01143,-0.0164 0.01143,-0.0164 v 0 c -1.907617,0.54531 -0.932169,0.26375 -2.92613,0.84542 -1.499251,0.45705 -2.997446,0.91593 -4.48767,1.40182 -0.596609,0.19452 -1.266385,0.41264 -1.863703,0.63465 -0.144706,0.0538 -0.286576,0.11492 -0.429864,0.17237 0,0 -0.106984,0.15119 -0.106984,0.15119 z" />
      <path
         style="fill:#000000;stroke-width:0.874001"
         id="path11886"
         d="m 86.964921,113.15228 c 1.396347,1.32126 2.912602,2.5038 4.447797,3.65721 1.393322,1.03948 2.831346,2.01625 4.273597,2.98585 0,0 0.01998,0.001 0.01998,0.001 v 0 c -1.404162,-0.98872 -2.817294,-1.96498 -4.201922,-2.98113 -1.527109,-1.14905 -3.032619,-2.33077 -4.416284,-3.65227 0,0 -0.123153,-0.0109 -0.123153,-0.0109 z" />
      <path
         style="fill:#000000;stroke-width:0.874001"
         id="path11888"
         d="m 88.967875,116.88051 c 0.135215,0.19808 0.220282,0.33146 0.385001,0.52353 0.769456,0.89725 1.67758,1.67435 2.551313,2.46548 1.272135,1.14234 2.594565,2.22642 3.90679,3.32185 0,0 0.01995,10e-4 0.01995,10e-4 v 0 c -1.280494,-1.10417 -2.57614,-2.19096 -3.837885,-3.31667 -1.024509,-0.93927 -2.108856,-1.85845 -2.913425,-3.00203 0,0 -0.111744,0.006 -0.111744,0.006 z" />
      <path
         style="fill:#000000;stroke-width:0.874001"
         id="path11890"
         d="m 93.684761,124.80199 c 1.247653,0.97067 2.421318,2.03126 3.595611,3.08808 1.225743,1.1065 2.450322,2.2143 3.673828,3.32328 0,0 0.0195,0.004 0.0195,0.004 v 0 c -1.168124,-1.11537 -2.348668,-2.21743 -3.549467,-3.29767 -1.179406,-1.06404 -2.350328,-2.14072 -3.598944,-3.12421 0,0 -0.140531,0.006 -0.140531,0.006 z" />
      <path
         style="fill:#000000;stroke-width:0.874001"
         id="path11892"
         d="m 97.156547,130.83182 c 0.703236,0.74486 1.413816,1.48263 2.125485,2.21942 0,0 0.01884,0.007 0.01884,0.007 v 0 c -0.644565,-0.74412 -1.309568,-1.4687 -1.994096,-2.17639 0,0 -0.150225,-0.0498 -0.150225,-0.0498 z" />
      <path
         style="fill:#000000;stroke-width:0.874001"
         id="path11894"
         d="m 151.63792,206.78103 c -1.01336,-1.0023 -2.07649,-1.94906 -3.21039,-2.8142 -0.45043,-0.34366 -0.91312,-0.67096 -1.36969,-1.00644 -3.36609,-2.30963 -6.89954,-4.35994 -10.35173,-6.5359 0,0 -0.0187,-0.007 -0.0187,-0.007 v 0 c 3.47238,2.18588 7.02636,4.24663 10.40304,6.58068 0.46059,0.34151 0.92759,0.67454 1.38178,1.02453 1.14503,0.88232 2.21196,1.8534 3.2434,2.86433 0,0 -0.0777,-0.10594 -0.0777,-0.10594 z" />
      <path
         style="fill:#000000;stroke-width:0.874001"
         id="path11896"
         d="m 149.61368,201.49091 c -1.29863,-1.70697 -2.85554,-3.1892 -4.41175,-4.65584 -1.27185,-1.15857 -2.57068,-2.28892 -3.91016,-3.36896 -0.74738,-0.60262 -1.57172,-1.22565 -2.33759,-1.81091 0,0 -0.0198,-0.003 -0.0198,-0.003 v 0 c 2.11282,1.63201 4.17813,3.32756 6.14988,5.12861 1.55573,1.45101 3.08889,2.93488 4.41417,4.60474 0,0 0.11521,0.1054 0.11521,0.1054 z" />
      <path
         style="fill:#000000;stroke-width:0.874001"
         id="path11898"
         d="m 149.06424,206.86447 c -1.92366,-1.77617 -4.0143,-3.36028 -6.08165,-4.96297 -2.15534,-1.68077 -4.32235,-3.34605 -6.49123,-5.00918 0,0 -0.0185,-0.008 -0.0185,-0.008 v 0 c 2.14545,1.64514 4.25952,3.33109 6.41191,4.96738 2.13602,1.65856 4.30152,3.29796 6.25845,5.16936 0,0 -0.079,-0.15705 -0.079,-0.15705 z" />
      <path
         style="fill:#000000;stroke-width:0.874001"
         id="path11900"
         d="m 143.82083,189.84033 c -0.12172,-0.0949 -0.23831,-0.19679 -0.36514,-0.28475 -0.87555,-0.60724 -1.84136,-1.08952 -2.76451,-1.61696 -1.49589,-0.85467 -1.45513,-0.84032 -2.96839,-1.74334 -1.47574,-0.87149 -2.90749,-1.81651 -4.38075,-2.69192 -0.67942,-0.40371 -1.89781,-1.07976 -2.60896,-1.4775 0,0 -0.0199,0.002 -0.0199,0.002 v 0 c 2.28016,1.38137 4.53057,2.8118 6.82617,4.16807 0.98549,0.57992 1.97355,1.16586 2.9666,1.73308 1.04952,0.59948 2.15056,1.137 3.10654,1.88423 0,0 0.20832,0.027 0.20832,0.027 z" />
      <path
         style="fill:#000000;stroke-width:0.874001"
         id="path11902"
         d="m 125.30971,173.52292 c 1.78228,0.68256 3.37094,1.7794 4.96817,2.80508 1.51514,1.00551 3.06676,1.95393 4.61539,2.90643 0,0 0.0193,-0.005 0.0193,-0.005 v 0 c -1.50316,-0.98538 -3.01762,-1.95307 -4.52733,-2.92835 -1.59974,-1.02767 -3.19532,-2.11689 -4.97244,-2.81763 0,0 -0.10307,0.0398 -0.10307,0.0398 z" />
      <path
         style="fill:#000000;stroke-width:0.874001"
         id="path11904"
         d="m 135.50119,172.09314 c -0.24091,-2.36896 -0.18219,-4.75395 -0.10592,-7.12956 0.0498,-1.55153 0.14457,-3.10039 0.25719,-4.64835 0,0 -0.0194,0.005 -0.0194,0.005 v 0 c -0.11304,1.55377 -0.24006,3.10664 -0.32385,4.6624 -0.0935,2.37706 -0.17806,4.76299 0.0314,7.13679 0,0 0.16057,-0.0262 0.16057,-0.0262 z" />
      <path
         style="fill:#000000;stroke-width:0.874001"
         id="path11906"
         d="m 130.54155,165.85199 c -0.20311,-2.30992 -0.31466,-4.6274 -0.45329,-6.94197 -0.0321,-0.49367 -0.0642,-0.98735 -0.0963,-1.48103 0,0 -0.0194,0.005 -0.0194,0.005 v 0 c 0.0242,0.49562 0.0485,0.99123 0.0727,1.48684 0.10434,2.32093 0.17912,4.64482 0.36572,6.96095 0,0 0.13057,-0.0296 0.13057,-0.0296 z" />
      <path
         style="fill:#000000;stroke-width:0.874001"
         id="path11908"
         d="m 143.64966,185.3125 c -0.2879,-1.79388 -0.52651,-3.59547 -0.81562,-5.38913 -0.25986,-1.61221 -0.49883,-2.90762 -0.78718,-4.52046 -0.52294,-2.87706 -0.27218,-1.48093 -0.75329,-4.18821 0,0 -0.0199,-0.002 -0.0199,-0.002 v 0 c 0.48065,2.70468 0.23804,1.3098 0.7259,4.18498 0.29007,1.7524 0.46446,2.76495 0.72693,4.50833 0.26969,1.79142 0.48811,3.59008 0.76306,5.38066 0,0 0.16006,0.0261 0.16006,0.0261 z" />
      <path
         style="fill:#000000;stroke-width:0.874001"
         id="path11910"
         d="m 148.8158,194.21715 c -0.0309,-2.28565 -0.0695,-4.57046 -0.15001,-6.85502 -0.16156,-2.65325 -0.0644,-1.3337 -0.2907,-3.95872 0,0 -0.0192,-0.006 -0.0192,-0.006 v 0 c 0.14217,2.60053 0.0817,1.29272 0.18058,3.92347 0.0534,2.27242 0.0703,4.54542 0.12673,6.81774 0,0 0.15261,0.0781 0.15261,0.0781 z" />
      <path
         style="fill:#000000;stroke-width:0.874001"
         id="path11912"
         d="m 119.32436,138.49635 c 1.61994,1.101 3.24747,2.19086 4.86922,3.28923 1.16852,0.784 2.37157,1.51415 3.57154,2.24837 0,0 0.0198,0.003 0.0198,0.003 v 0 c -1.15432,-0.73202 -2.3032,-1.47233 -3.43021,-2.24611 -1.62647,-1.10373 -3.25418,-2.20547 -4.8849,-3.30289 0,0 -0.14548,0.009 -0.14548,0.009 z" />
      <path
         style="fill:#000000;stroke-width:0.874001"
         id="path11914"
         d="m 123.91462,135.34133 c 1.81103,0.96663 3.47139,2.19417 5.15801,3.35838 2.67498,1.85867 5.38699,3.66239 8.09914,5.46597 0,0 0.0199,-0.002 0.0199,-0.002 v 0 c -2.62712,-1.82697 -5.24898,-3.66134 -7.87676,-5.48742 -1.6947,-1.1873 -3.37029,-2.43811 -5.22294,-3.37206 0,0 -0.17736,0.0371 -0.17736,0.0371 z" />
      <path
         style="fill:#000000;stroke-width:0.874001"
         id="path11916"
         d="m 133.3725,135.31789 c 2.12716,1.46619 4.21344,2.98943 6.28375,4.53442 0.58225,0.4342 1.1645,0.86841 1.74675,1.30261 0,0 0.0199,-0.002 0.0199,-0.002 v 0 c -0.53854,-0.43827 -1.07708,-0.87653 -1.61562,-1.31479 -2.04005,-1.56041 -4.10735,-3.08438 -6.22293,-4.54137 0,0 -0.21187,0.021 -0.21187,0.021 z" />
      <path
         style="fill:#000000;stroke-width:0.874001"
         id="path11918"
         d="m 142.68477,137.29446 c 1.8203,1.17677 3.54913,2.48995 5.27228,3.80296 1.12935,0.85347 2.26283,1.70077 3.38419,2.5647 0,0 0.0193,0.005 0.0193,0.005 v 0 c -1.04364,-0.85121 -2.08264,-1.70836 -3.14488,-2.53645 -1.72624,-1.3308 -3.44003,-2.69258 -5.29346,-3.84462 0,0 -0.23744,0.008 -0.23744,0.008 z" />
      <path
         style="fill:#000000;stroke-width:0.874001"
         id="path11920"
         d="m 120.68212,153.35449 c 1.46649,-1.56381 3.18645,-2.85991 4.87997,-4.16359 1.46312,-1.1102 0.7528,-0.56155 2.13219,-1.64434 0,0 -0.0187,-0.007 -0.0187,-0.007 v 0 c -1.49614,1.01625 -0.74575,0.48755 -2.2495,1.5885 -1.71238,1.2985 -3.4383,2.59945 -4.94992,4.13404 0,0 0.20592,0.0926 0.20592,0.0926 z" />
      <path
         style="fill:#000000;stroke-width:0.874001"
         id="path11922"
         d="m 128.92657,150.12516 c 1.48927,-1.39209 3.1847,-2.53874 4.85714,-3.69547 0,0 -0.0187,-0.007 -0.0187,-0.007 v 0 c -0.34868,0.20405 -0.70159,0.40103 -1.04605,0.61214 -1.42872,0.8756 -2.80138,1.86345 -4.03261,3.002 0,0 0.24025,0.0883 0.24025,0.0883 z" />
      <path
         style="fill:#000000;stroke-width:0.874001"
         id="path11924"
         d="m 134.38729,152.60665 c 1.00502,-0.91344 2.02348,-1.816 3.0957,-2.65059 0.34368,-0.26752 0.69622,-0.52345 1.04432,-0.78518 1.37565,-1.02101 2.8604,-1.8858 4.23577,-2.90687 0.28204,-0.20939 0.55154,-0.43516 0.82731,-0.65274 0,0 -0.019,-0.006 -0.019,-0.006 v 0 c -0.32647,0.19642 -0.65714,0.38603 -0.97942,0.58926 -1.45047,0.9147 -2.85052,1.91045 -4.26575,2.87763 -0.34731,0.25797 -0.69959,0.50937 -1.04193,0.77391 -1.07674,0.83207 -2.09505,1.73827 -3.09735,2.6575 0,0 0.20036,0.10332 0.20036,0.10332 z" />
      <path
         style="fill:#000000;stroke-width:0.874001"
         id="path11926"
         d="m 145.81963,152.05622 c 1.53385,-0.5219 2.93613,-1.36253 4.32246,-2.18661 1.27339,-0.81314 2.57514,-1.59301 3.80121,-2.47812 0.24791,-0.17897 0.48439,-0.37325 0.72658,-0.55988 0,0 -0.0169,-0.0108 -0.0169,-0.0108 v 0 c -0.29712,0.15169 -0.60098,0.29084 -0.89136,0.45506 -0.31352,0.1773 -0.61463,0.37576 -0.91882,0.56865 -0.98205,0.62273 -1.94613,1.27421 -2.94341,1.87299 -1.37738,0.81975 -2.76532,1.66002 -4.27839,2.20756 0,0 0.19859,0.13112 0.19859,0.13112 z" />
      <path
         style="fill:#000000;stroke-width:0.874001"
         id="path11928"
         d="m 93.693304,229.4651 c -0.572153,-1.9581 -0.941239,-3.97156 -1.370105,-5.96469 -0.377351,-1.78353 -0.792633,-3.55868 -1.196205,-5.33638 0,0 -0.01979,-0.003 -0.01979,-0.003 v 0 c 0.378124,1.77205 0.738749,3.54742 1.102895,5.32238 0.109865,0.54024 0.219731,1.08049 0.329599,1.62074 0.09287,0.46667 0.184269,0.93364 0.27862,1.40002 0.177831,0.87901 0.346223,1.76532 0.583848,2.63093 0.02882,0.10498 0.06435,0.208 0.09652,0.31199 0,0 0.194606,0.018 0.194606,0.018 z" />
      <path
         style="fill:#000000;stroke-width:0.874001"
         id="path11930"
         d="m 90.927162,207.55624 c 0.320723,1.61561 0.709943,3.21597 1.112033,4.81288 0.33867,1.27913 0.742347,2.5393 1.118431,3.80762 0,0 0.01987,-0.002 0.01987,-0.002 v 0 c -0.36958,-1.26721 -0.715425,-2.53998 -1.03207,-3.82164 -0.396928,-1.60007 -0.779431,-3.20385 -1.103911,-4.82045 0,0 -0.114353,0.0239 -0.114353,0.0239 z" />
      <path
         style="fill:#000000;stroke-width:0.874001"
         id="path11932"
         d="m 91.969769,199.40662 c 0.455234,1.85732 0.782677,3.74301 1.151136,5.61874 0.611375,2.91301 0.04489,0.32225 0.738629,3.19747 0.113321,0.46966 0.215395,0.94196 0.323091,1.41295 0,0 0.0199,-0.002 0.0199,-0.002 v 0 c -0.107696,-0.47098 -0.225718,-0.93971 -0.323088,-1.41293 -0.219538,-1.06694 -0.369675,-2.1475 -0.615272,-3.20945 -0.356653,-1.87372 -0.652465,-3.76679 -1.153385,-5.60864 0,0 -0.14101,0.004 -0.14101,0.004 z" />
      <path
         style="fill:#000000;stroke-width:0.874001"
         id="path11934"
         d="m 97.486329,206.2407 c 1.121079,-1.86977 2.614441,-3.47788 4.074631,-5.08281 1.47751,-1.55833 0.75779,-0.80923 2.15731,-2.24911 0,0 -0.02,2.5e-4 -0.02,2.5e-4 v 0 c -1.39994,1.44035 -0.67788,0.69261 -2.16512,2.24425 -1.07198,1.14626 -1.27475,1.34492 -2.295632,2.50626 -0.708454,0.80593 -1.400845,1.62801 -1.968752,2.54148 0,0 0.21757,0.0397 0.21757,0.0397 z" />
      <path
         style="fill:#000000;stroke-width:0.874001"
         id="path11936"
         d="m 96.493136,213.36672 c 1.090035,-1.40838 2.269135,-2.74426 3.445779,-4.08002 0.871925,-0.97335 1.734595,-1.9545 2.611015,-2.92381 0,0 -0.0197,-0.003 -0.0197,-0.003 v 0 c -0.92008,0.96577 -1.8557,1.91702 -2.74825,2.90862 -1.192247,1.325 -2.394328,2.64849 -3.459462,4.0798 0,0 0.17063,0.0188 0.17063,0.0188 z" />
      <path
         style="fill:#000000;stroke-width:0.874001"
         id="path11938"
         d="m 95.642278,222.83581 c 1.24592,-1.86773 2.615398,-3.64786 3.99919,-5.41431 0.327539,-0.43061 0.655072,-0.86121 0.982612,-1.29182 0,0 -0.02,5.3e-4 -0.02,5.3e-4 v 0 c -0.38236,0.43212 -0.764719,0.86424 -1.147079,1.29637 -1.403472,1.75358 -2.817284,3.5084 -4.038267,5.39657 0,0 0.223533,0.0127 0.223533,0.0127 z" />
      <path
         style="fill:#000000;stroke-width:0.874001"
         id="path11940"
         d="m 89.382152,211.57697 c 0.811892,1.33247 1.498549,2.73868 2.210533,4.12623 0,0 0.01971,-0.003 0.01971,-0.003 v 0 c -0.627914,-1.41322 -1.232149,-2.84589 -2.043671,-4.16677 0,0 -0.186565,0.044 -0.186565,0.044 z" />
      <path
         style="fill:#000000;stroke-width:0.874001"
         id="path11942"
         d="m 84.447569,155.70885 c 0.459857,-1.67076 1.262939,-3.20906 2.056279,-4.73925 0,0 -0.01926,0.005 -0.01926,0.005 v 0 c -0.841288,1.54639 -1.713865,3.05592 -2.18031,4.76707 0,0 0.143285,-0.0332 0.143285,-0.0332 z" />
      <path
         style="fill:#000000;stroke-width:0.874001"
         id="path11944"
         d="m 90.856188,152.1181 c 0.747649,-1.97133 1.80703,-3.80469 2.889329,-5.6071 0,0 -0.01905,0.006 -0.01905,0.006 v 0 c -0.227097,0.34685 -0.460721,0.68953 -0.681294,1.04057 -0.817986,1.30182 -1.578827,2.67991 -2.182656,4.09606 -0.07057,0.16552 -0.123413,0.33805 -0.185119,0.50707 0,0 0.178798,-0.0427 0.178798,-0.0427 z" />
      <path
         style="fill:#000000;stroke-width:0.874001"
         id="path11946"
         d="m 90.147313,158.33157 c 1.341777,-0.24547 2.702648,-0.34568 4.06182,-0.43452 0,0 0.01942,-0.005 0.01942,-0.005 v 0 c -1.428253,0.0535 -2.857024,0.16973 -4.264279,0.42805 0,0 0.183033,0.0112 0.183033,0.0112 z" />
      <path
         style="fill:#000000;stroke-width:0.874001"
         id="path11948"
         d="m 120.45861,167.74056 c -2.3054,-1.05182 -4.59895,-2.14148 -6.98632,-2.99935 -0.6597,-0.23706 -1.3307,-0.44143 -1.99606,-0.66215 -0.59396,-0.17677 -1.18792,-0.35354 -1.78188,-0.53031 0,0 -0.0197,0.004 -0.0197,0.004 v 0 c 0.59396,0.17676 1.18792,0.35353 1.78188,0.5303 0.65222,0.22297 1.30997,0.4304 1.95667,0.66892 2.34154,0.86358 4.58775,1.95228 6.84452,3.0112 0,0 0.20088,-0.0222 0.20088,-0.0222 z" />
      <path
         style="fill:#000000;stroke-width:0.874001"
         id="path11950"
         d="m 121.26437,158.77936 c -0.5831,-0.7387 -1.06911,-1.54815 -1.59155,-2.32894 -0.35069,-0.52413 -0.7086,-1.0434 -1.06289,-1.5651 0,0 -0.0192,0.006 -0.0192,0.006 v 0 c 0.80059,1.31588 1.56363,2.66533 2.4856,3.90183 0,0 0.188,-0.0136 0.188,-0.0136 z" />
      <path
         style="fill:#000000;stroke-width:0.874001"
         id="path11952"
         d="m 121.86668,143.14576 c -1.43248,-0.38193 -2.88483,-0.68025 -4.3104,-1.09157 -0.53994,-0.15579 -1.07553,-0.32628 -1.61329,-0.48941 0,0 -0.016,0.012 -0.016,0.012 v 0 c 0.49418,0.19192 0.98201,0.40108 1.48254,0.57578 1.3907,0.48542 2.8391,0.76341 4.26742,1.10867 0,0 0.18976,-0.11542 0.18976,-0.11542 z" />
      <path
         style="fill:#000000;stroke-width:0.874001"
         id="path11954"
         d="m 120.81495,148.30564 c -1.29942,0.10951 -2.40491,0.88821 -3.48893,1.53587 0,0 0.0192,-0.006 0.0192,-0.006 v 0 c 1.02928,-0.60497 2.07075,-1.30696 3.29614,-1.40959 0,0 0.17364,-0.12052 0.17364,-0.12052 z" />
      <path
         style="fill:#000000;stroke-width:0.874001"
         id="path11956"
         d="m 106.24377,170.144 c 1.18869,3.87386 1.99941,7.84938 2.89159,11.79823 0,0 0.0198,-0.003 0.0198,-0.003 v 0 c -0.89214,-3.94889 -1.7154,-7.91772 -2.78423,-11.82371 0,0 -0.12714,0.0285 -0.12714,0.0285 z" />
      <path
         style="fill:#b3b3b3;stroke-width:0.874001"
         id="path11958"
         d="m 85.954493,184.23618 c 1.180203,-2.71595 2.638232,-5.2977 4.110392,-7.86283 0.382376,-0.62385 0.764755,-1.2477 1.14713,-1.87155 0,0 -0.01974,0.003 -0.01974,0.003 v 0 c -0.384161,0.62417 -0.768323,1.24834 -1.152488,1.87251 -1.511146,2.56405 -3.006195,5.14918 -4.200387,7.87989 0,0 0.115081,-0.0213 0.115081,-0.0213 z" />
      <path
         style="fill:#b3b3b3;stroke-width:2.61674"
         d="m 351.59162,880.08639 c -7.26357,-13.25142 -19.57083,-48.32816 -24.45884,-69.70981 -3.95626,-17.30587 -6.28587,-37.58749 -6.30103,-54.85687 -0.007,-7.7419 -0.20809,-9.30785 -1.19641,-9.30785 -0.73935,0 -1.18824,0.74815 -1.18824,1.9804 v 1.98039 h -13.01327 c -14.97436,0 -19.52436,0.52243 -41.24948,4.73629 -9.56709,1.85565 -21.80539,3.59089 -30.89412,4.38041 -19.45148,1.68971 -29.93804,3.49269 -37.17087,6.3909 -2.28119,0.91407 -1.36405,-0.82921 4.9014,-9.31651 16.46899,-22.3092 36.1612,-50.27184 49.49475,-70.28179 30.61862,-45.95005 48.79873,-67.93745 68.48753,-82.83019 4.0091,-3.03251 7.14606,-5.65688 6.97102,-5.83192 -0.79855,-0.79855 -17.54377,12.35148 -25.94461,20.37431 -4.6009,4.39388 -4.52524,4.97967 -1.7879,-13.84261 2.41186,-16.58427 4.24323,-25.63476 8.38021,-41.41421 1.75524,-6.69491 3.04108,-12.32282 2.85743,-12.50647 -0.56441,-0.56442 -6.72659,22.5157 -8.80979,32.99667 -2.57136,12.93692 -6.16247,37.89092 -5.58687,38.82225 0.24777,0.4009 -1.71511,3.30812 -4.36195,6.46048 -6.92286,8.24508 -23.25092,29.83254 -29.56034,39.08199 -4.6687,6.84418 -5.34143,7.54448 -4.94634,5.14902 0.25151,-1.52491 2.04763,-11.66562 3.99137,-22.53492 1.94375,-10.86931 3.3994,-19.89705 3.23479,-20.06166 -0.16461,-0.16461 -0.48801,0.35139 -0.71867,1.14668 -0.44493,1.53404 -7.19084,38.05864 -8.0221,43.4343 -0.3557,2.30024 -3.69491,7.96364 -12.14371,20.59608 -12.60878,18.85234 -45.46155,64.66778 -45.99131,64.13802 -0.46283,-0.46283 1.0876,-8.21428 4.74885,-23.74203 1.7464,-7.40666 4.38559,-20.59608 5.86487,-29.3098 4.90122,-28.87073 15.16652,-56.93911 34.85968,-95.31672 13.70378,-26.70561 20.61338,-36.22741 41.54168,-57.24665 8.35213,-8.38842 16.08293,-15.38639 19.42069,-17.5797 5.07545,-3.3352 5.73339,-4.08924 7.76831,-8.90287 3.33321,-7.88477 6.77038,-21.85721 7.81376,-31.76366 0.71337,-6.7732 0.7063,-14.00606 -0.0306,-31.2902 -1.12776,-26.45169 -2.25673,-44.66729 -2.93985,-47.43358 -0.84033,-3.40282 2.35747,2.18431 12.69492,22.1804 5.29311,10.23863 11.3207,21.32794 13.39465,24.64291 l 3.77082,6.02722 -1.23011,16.94533 c -0.67657,9.31993 -1.45401,19.26239 -1.72768,22.09435 -0.27366,2.83196 -0.27433,4.93998 -0.002,4.68449 0.41287,-0.38662 3.59332,-35.67004 3.6712,-40.72763 0.0674,-4.37788 14.09035,22.81867 18.58437,36.04314 3.73587,10.99347 3.57253,10.5742 3.96609,10.18064 0.64955,-0.64954 -2.75845,-12.75809 -5.62444,-19.98357 -3.5903,-9.0518 -8.1226,-17.52338 -17.21692,-32.18139 -3.91957,-6.31745 -11.51008,-19.97244 -16.8678,-30.34442 -5.35772,-10.37198 -10.46429,-19.87348 -11.34793,-21.11444 -0.88364,-1.24097 -1.60663,-2.44463 -1.60663,-2.67481 0,-0.88678 13.40597,7.05471 20.70006,12.26238 14.17164,10.11797 34.94253,18.99562 60.89438,26.02676 21.53314,5.83398 31.06048,8.67067 31.96709,9.51795 0.37354,0.34909 -0.0721,1.03675 -0.99019,1.52813 -1.89521,1.01428 -2.29659,2.61295 -0.48113,1.91629 0.65353,-0.25078 1.18824,-0.22242 1.18824,0.063 0,0.28545 -3.34196,6.29447 -7.42655,13.35339 -18.12608,31.32505 -28.30461,52.4228 -33.39798,69.22631 -2.99696,9.88725 -9.03062,33.35436 -9.47771,36.86231 -0.15114,1.1859 -0.49046,2.50512 -0.75404,2.93159 -1.54149,2.49419 -10.23394,34.86131 -13.18906,49.11063 -4.59124,22.13863 -5.41472,41.21504 -3.84603,89.09552 0.58681,17.91071 1.05594,33.27786 1.04252,34.14924 -0.12144,7.88525 -2.25248,44.1393 -3.46899,59.01569 -1.28962,15.77054 -2.63096,41.16683 -3.36801,63.76864 l -0.18083,5.5451 -3.69078,-6.73334 z m 2.50254,-13.40412 c 0,-0.40129 -0.68539,-3.69864 -1.52308,-7.32745 -0.83771,-3.62882 -2.83886,-12.65785 -4.447,-20.06451 -1.60814,-7.40667 -3.20849,-13.774 -3.55633,-14.14962 -0.34784,-0.37563 1.29684,8.68685 3.65484,20.13884 2.35799,11.45198 4.28726,21.11667 4.28726,21.47707 0,0.36041 0.35647,0.65528 0.79216,0.65528 0.43568,0 0.79215,-0.32833 0.79215,-0.72961 z m -5.74982,-66.03646 c -2.24795,-9.02573 -4.33044,-16.41041 -4.62776,-16.41041 -0.56408,0 1.62163,10.70216 3.721,18.21961 5.77331,20.67312 6.26291,19.69624 0.90676,-1.8092 z m -5.70155,5.83947 c -1.98853,-3.95939 -3.99811,-7.1989 -4.46573,-7.1989 -1.0237,0 -1.2339,-0.49949 3.61633,8.59353 4.9889,9.35297 5.67851,8.2207 0.8494,-1.39463 z m 13.49675,-15.53968 c -0.27658,-1.10194 -1.763,-8.67694 -3.30315,-16.83333 -3.23397,-17.1264 -4.10715,-20.77099 -4.97634,-20.77099 -0.55602,0 3.93526,23.79015 6.05673,32.08235 0.44587,1.74275 1.03144,4.14893 1.30127,5.34706 0.26984,1.19814 0.7007,2.17843 0.95748,2.17843 0.25677,0 0.24057,-0.90158 -0.036,-2.00352 z M 226.95297,739.92093 c 4.79255,-0.86385 13.16961,-2.30109 18.61569,-3.19386 11.67482,-1.91385 13.77069,-2.35759 13.31027,-2.81801 -0.18883,-0.18883 -3.52825,0.19239 -7.42092,0.84716 -27.67086,4.65442 -35.69285,6.16168 -36.38739,6.83688 -0.51637,0.50199 -0.10269,0.61836 1.18823,0.33427 1.08922,-0.2397 5.90157,-1.1426 10.69412,-2.00644 z m 28.12157,-23.89866 c 14.93492,-1.88308 30.13323,-4.4185 30.79972,-5.13808 0.26977,-0.29126 -0.9354,-0.27069 -2.67814,0.0457 -8.98325,1.63096 -30.59746,4.5094 -40.20197,5.35383 -5.99069,0.5267 -10.89216,1.22435 -10.89216,1.55033 0,0.74387 7.21858,0.17455 22.97255,-1.81181 z m -33.79577,-15.95355 c 0.27914,-8.38696 0.67499,-17.56608 0.87966,-20.39804 l 0.37213,-5.14902 -0.69694,4.35686 c -0.85369,5.33677 -2.40614,26.00442 -2.40614,32.03276 0,2.42356 0.30235,4.40646 0.67188,4.40646 0.36953,0 0.90027,-6.86206 1.17941,-15.24902 z m 18.34833,-15.6451 c 1.75556,-11.61949 8.65396,-46.22488 12.69539,-63.6856 0.59449,-2.56845 0.79003,-4.35081 0.43453,-3.96079 -1.87453,2.05655 -16.99817,79.0424 -16.63469,84.67776 0.1867,2.89461 1.34365,-2.72759 3.50477,-17.03137 z m 89.21064,4.5549 c 3.82048,-7.62592 12.97139,-24.16528 15.55911,-28.12157 0.64119,-0.98029 0.85745,-1.77869 0.48058,-1.77421 -1.27501,0.0152 -20.88523,35.26136 -20.88523,37.53783 0,1.52137 1.21392,-0.39315 4.84554,-7.64205 z m -55.46525,-1.38627 c 10.53161,-2.17843 19.33767,-3.96079 19.56901,-3.96079 0.23135,0 0.21228,-0.20835 -0.0424,-0.463 -0.59131,-0.5913 -37.96731,6.79882 -38.97321,7.70593 -1.08564,0.97901 -1.45688,1.04167 19.44657,-3.28214 z m 12.99225,-22.57167 c 20.36818,-5.43838 19.61202,-5.21371 19.13905,-5.68667 -0.59835,-0.59836 -38.54689,9.51217 -38.54689,10.26994 0,0.36724 0.62382,0.48562 1.38627,0.26306 0.76245,-0.22255 8.87216,-2.40339 18.02157,-4.84633 z m 8.71373,-23.23333 c 2.61412,-0.93724 9.17317,-2.95035 14.57567,-4.47359 9.74707,-2.74816 13.15691,-4.07582 7.94304,-3.09269 -10.33144,1.94811 -33.21283,9.85497 -33.21283,11.47698 0,0.40388 1.33677,0.0726 2.97059,-0.73614 1.63382,-0.80876 5.10941,-2.23731 7.72353,-3.17456 z m -17.47528,-20.73619 c 0.69443,-8.06019 1.44407,-16.08078 1.66586,-17.82353 0.30615,-2.40555 0.22344,-2.76566 -0.34346,-1.49536 -1.74133,3.90193 -5.04953,39.19044 -3.33349,35.55811 0.41167,-0.87137 1.31666,-8.17902 2.01109,-16.23922 z m 68.19487,-12.52094 c -0.71053,-0.71053 -36.85684,10.71296 -36.85684,11.64803 0,0.35925 8.36032,-2.04707 18.57849,-5.34737 10.21816,-3.30029 18.44342,-6.13559 18.27835,-6.30066 z m 5.91963,-11.25246 c 5.02082,-0.69667 4.97822,-0.70548 -1.71102,-0.35374 -3.77302,0.19839 -7.69419,0.71324 -8.71372,1.14411 -1.97774,0.83583 -0.47297,0.72174 10.42474,-0.79037 z m -30.929,-12.0717 c 0.55442,-1.85167 2.23784,-5.80938 3.74093,-8.79491 1.50309,-2.98553 2.53743,-5.62371 2.29853,-5.86261 -0.49169,-0.49168 -8.35209,15.50586 -8.36966,17.03399 -0.0255,2.2152 1.38654,0.77513 2.3302,-2.37647 z m 25.6483,-16.0313 c 1.54922,-3.26221 4.07289,-8.07457 5.60817,-10.69412 3.83793,-6.54843 2.39952,-6.03719 -1.64379,0.58424 -5.36562,8.78686 -8.74186,16.04118 -7.46574,16.04118 0.37653,0 1.95214,-2.66909 3.50136,-5.9313 z m 5.55469,-62.98636 c 0.30618,-8.61966 0.24011,-10.50805 -0.22174,-6.33725 -0.90234,8.14857 -1.62,27.64311 -0.83112,22.57647 0.33919,-2.17843 0.81297,-9.48608 1.05286,-16.23922 z m 22.64026,-4.5549 c -2.23713,-2.96931 -6.64013,-7.32745 -7.40285,-7.32745 -0.44131,0 1.13387,1.96059 3.50037,4.35686 4.33734,4.39189 5.82854,5.52701 3.90248,2.97059 z m 7.18772,-6.09673 c 0,-0.59921 -26.42429,-24.20327 -27.09509,-24.20327 -1.39819,0 -0.37987,1.33687 3.16411,4.15392 2.05204,1.63113 8.00862,6.87499 13.23686,11.65303 8.57007,7.83211 10.69412,9.49978 10.69412,8.39632 z m -49.22744,-18.85621 c 0.55801,-6.64422 1.18749,-13.32805 1.39883,-14.85295 0.26579,-1.91774 0.15586,-2.4062 -0.35659,-1.58431 -0.40747,0.65353 -1.16243,6.71353 -1.67768,13.46667 -0.51526,6.75313 -1.05883,12.90225 -1.20792,13.6647 -0.1491,0.76246 -0.0236,1.38628 0.27885,1.38628 0.30247,0 1.00649,-5.43618 1.56451,-12.08039 z m -8.27131,-13.66471 c 0.31237,-2.14869 0.22125,-2.77209 -0.28309,-1.93671 -0.40905,0.67755 -0.92719,4.06402 -1.15142,7.52549 -0.41873,6.46424 -0.18585,5.55697 1.43451,-5.58878 z m 37.62881,1.74379 c -2.57146,-1.84333 -18.72396,-16.43842 -21.60048,-19.51778 -2.11362,-2.26268 -4.05272,-3.90419 -4.3091,-3.64781 -0.25638,0.25638 1.29472,2.28523 3.44688,4.50856 5.12151,5.29085 21.94192,19.74447 22.4206,19.2658 0.20469,-0.20469 0.22363,-0.47864 0.0421,-0.60877 z m 0.066,-11.9792 c 0,-0.18339 -4.18853,-3.29813 -9.30784,-6.92165 -5.11931,-3.62351 -12.6052,-9.35298 -16.6353,-12.73215 -4.0301,-3.37917 -7.32745,-5.81205 -7.32745,-5.40639 0,1.37183 12.30852,11.2584 26.5907,21.35843 5.16364,3.65161 6.67989,4.49186 6.67989,3.70176 z"
         id="path22565"
         transform="scale(0.26458333)" />
      <path
         style="fill:#b3b3b3;stroke-width:2.61674"
         d="m 357.30539,879.29423 c -0.0436,-11.90526 1.43782,-40.73977 3.11334,-60.6 0.84542,-10.02079 1.92652,-26.57308 2.40245,-36.78286 0.47594,-10.20979 1.03608,-18.83952 1.24477,-19.17718 0.20868,-0.33766 0.55713,-4.63891 0.77433,-9.55832 0.2172,-4.91943 1.26274,-16.78675 2.32342,-26.37185 1.06069,-9.5851 2.49072,-23.66569 3.17784,-31.2902 1.53075,-16.9856 3.90239,-29.06866 9.12214,-46.47572 5.91479,-19.72488 18.05185,-55.26736 18.97816,-55.57614 0.4429,-0.14762 0.80527,-1.11256 0.80527,-2.14429 0,-2.02936 7.17649,-22.72905 11.66254,-33.63916 1.52275,-3.70334 6.79087,-15.46844 11.70693,-26.14468 4.91607,-10.67623 11.33247,-25.1133 14.25868,-32.08236 2.92621,-6.96905 7.28783,-16.84293 9.69247,-21.94194 l 4.37209,-9.27093 2.54803,1.94348 c 2.9462,2.24717 3.72443,2.43192 3.07097,0.72902 -0.39803,-1.03726 -0.16687,-1.07814 1.58433,-0.28024 1.12771,0.51381 1.83765,1.27841 1.57764,1.69909 -0.26,0.42069 0.0185,1.07605 0.61896,1.45635 1.47678,0.93538 2.48392,0.89452 1.88384,-0.0764 -0.26927,-0.43569 -0.10062,-0.79216 0.37478,-0.79216 1.73473,0 54.63005,27.06497 66.56248,34.05805 24.33079,14.25922 49.01396,25.94884 77.23531,36.57763 8.90345,3.35325 9.76166,3.82158 6.33725,3.4584 -10.50255,-1.11387 -32.26064,-1.98574 -61.96291,-2.48289 l -32.6531,-0.54655 -21.60965,-15.01166 c -19.11332,-13.27751 -26.47083,-18.02945 -27.91534,-18.02945 -1.21038,0 -0.16864,1.44802 1.63196,2.26843 1.13277,0.51613 11.86653,7.61364 23.8528,15.77225 l 21.79321,14.83384 -12.96065,0.49741 c -10.81321,0.415 -24.46968,2.06132 -28.6034,3.44823 -0.5459,0.18315 -2.54352,0.7305 -4.43917,1.21633 -6.67272,1.71015 -2.63685,1.54787 8.66035,-0.34822 6.28187,-1.05433 15.34275,-2.15845 20.1353,-2.4536 10.63956,-0.65525 87.54735,0.98316 106.11773,2.26068 l 13.43536,0.92427 -11.45497,10.41737 c -13.94011,12.67741 -18.81451,17.70905 -28.96149,29.89572 -13.62566,16.36462 -15.79296,19.38583 -20.84584,29.05907 -2.7142,5.1961 -5.28002,9.44746 -5.70181,9.44746 -1.21555,0 -0.64491,5.84531 1.75355,17.96247 2.81003,14.1964 3.88175,18.30293 8.7389,33.48501 5.80584,18.14743 8.96692,31.81983 12.13488,52.48617 1.55591,10.15003 3.70609,22.19754 4.7782,26.77224 2.49834,10.66054 3.74326,21.58667 3.42982,30.10197 l -0.24785,6.73333 -4.68206,-12.67451 c -19.16722,-51.88629 -25.29824,-64.82235 -44.25708,-93.37952 -13.78344,-20.76161 -19.06086,-27.47771 -30.00173,-38.1806 -10.40002,-10.17379 -17.44125,-15.68136 -37.11012,-29.02719 -13.07169,-8.86946 -16.56763,-10.91467 -18.6568,-10.91467 -0.7194,0 0.71904,1.06629 3.19656,2.36954 5.13316,2.70019 20.27375,12.96495 33.67985,22.83366 14.01399,10.31621 28.57247,25.47521 39.32002,40.94191 23.38844,33.65808 31.3474,49.08181 47.06858,91.21461 4.84995,12.99787 9.17018,24.29038 9.6005,25.09445 0.43033,0.80406 0.63004,1.61431 0.4438,1.80054 -0.18623,0.18623 -3.05357,-0.89865 -6.37187,-2.41085 -3.31831,-1.51219 -10.76981,-4.23506 -16.55892,-6.0508 -5.7891,-1.81575 -14.35456,-5.04212 -19.03437,-7.16972 -8.48506,-3.85761 -27.62821,-10.57396 -36.64421,-12.85658 -2.61412,-0.66182 -10.81294,-2.29962 -18.21961,-3.63954 -7.40667,-1.33992 -19.28095,-4.05565 -26.38729,-6.03496 -14.07518,-3.92031 -23.28647,-5.88048 -27.63382,-5.88048 -2.09086,0 -2.67905,-0.28293 -2.35324,-1.13198 0.23891,-0.62259 0.67977,-2.43999 0.97968,-4.03866 0.4671,-2.48985 0.34915,-2.86711 -0.82253,-2.63077 -1.02111,0.20598 -1.92779,2.48467 -3.57693,8.98965 -4.28531,16.90328 -11.5645,34.57832 -26.75144,64.95687 -12.35685,24.71751 -18.66275,36.01119 -28.50142,51.04518 -4.25554,6.50268 -8.52362,13.18417 -9.48463,14.84777 l -1.74729,3.02471 z m 6.71211,-39.80588 c 1.21676,-1.85167 5.40813,-7.57002 9.31415,-12.70746 3.90602,-5.13743 6.9153,-9.52734 6.68729,-9.75536 -0.75748,-0.75747 -19.58752,23.43559 -19.58752,25.16628 0,1.57578 1.53406,0.4193 3.58608,-2.70346 z m 1.9641,-33.66667 c 0.003,-0.32677 4.97617,-6.28516 11.05194,-13.24088 6.07577,-6.95571 10.93533,-12.75829 10.79902,-12.89459 -0.50695,-0.50695 -15.32768,15.3963 -21.40352,22.96684 -2.21083,2.75471 -2.67595,3.76274 -1.73618,3.76274 0.70601,0 1.28595,-0.26735 1.28874,-0.59411 z m 198.03416,-23.63774 c 0,-1.31894 -44.77245,-36.66765 -45.46129,-35.89256 -0.15474,0.17411 7.53199,6.37621 17.08163,13.78245 9.54963,7.40624 19.57437,15.49913 22.27719,17.9842 4.60312,4.23227 6.10247,5.24598 6.10247,4.12591 z m 4.93429,-5.0289 c -5.05401,-4.71427 -16.5125,-13.14912 -22.57798,-16.62015 -5.24061,-2.999 -2.54563,-0.82605 6.72309,5.42077 4.668,3.14608 10.90623,7.99594 13.86275,10.77748 2.95653,2.78153 5.73197,5.05696 6.16766,5.05649 0.43568,-4.7e-4 -1.4433,-2.08604 -4.17552,-4.63459 z m -197.99977,-0.64317 c 2.25879,-3.32889 6.85774,-8.8104 15.57185,-18.56018 l 5.89071,-6.59081 -6.15892,5.94118 c -6.32879,6.10504 -18.69309,20.33812 -18.69309,21.51843 0,1.50015 1.49683,0.48063 3.38945,-2.30862 z m 192.35804,-18.31069 c -6.0629,-7.65504 -36.79157,-34.9583 -37.99249,-33.75737 -0.1967,0.1967 0.67709,1.16346 1.94174,2.14836 9.40933,7.32794 21.83042,18.43105 28.83662,25.77681 8.4114,8.81905 11.65954,11.44498 7.21413,5.8322 z m -24.2455,-2.48343 c -0.26927,-0.43569 -0.91414,-0.7867 -1.43303,-0.78003 -0.56688,0.007 -0.46917,0.31863 0.24479,0.78003 1.52183,0.98348 1.79606,0.98348 1.18824,0 z m -14.25883,-8.71373 c -0.26927,-0.43569 -0.91413,-0.7867 -1.43303,-0.78003 -0.56687,0.007 -0.46917,0.31863 0.2448,0.78003 1.52182,0.98349 1.79605,0.98349 1.18823,0 z m -5.94118,-3.47995 c 0,-0.17124 -0.55321,-0.52362 -1.22938,-0.78309 -0.70495,-0.27051 -1.02292,-0.13772 -0.7454,0.31133 0.4652,0.75271 1.97478,1.11333 1.97478,0.47176 z m 43.37325,-29.07464 c -0.23837,-10.96398 -0.77226,-20.22012 -1.19039,-20.63825 -0.48278,-0.48278 -0.6589,1.34319 -0.48487,5.02714 0.15031,3.18192 0.49311,12.46913 0.76178,20.63825 0.26866,8.16911 0.68136,14.85294 0.91709,14.85294 0.23573,0 0.23411,-8.94604 -0.004,-19.88008 z m -19.52412,2.15826 c -0.49596,-0.5976 -5.44108,-3.69825 -10.98916,-6.89035 -5.54808,-3.1921 -13.47389,-7.91486 -17.61291,-10.49503 -10.40717,-6.48759 -19.88537,-11.81266 -20.29553,-11.40251 -0.3662,0.3662 25.73763,16.4027 38.91122,23.90453 4.35686,2.48105 8.26022,4.83925 8.67412,5.24044 1.19006,1.15352 2.31246,0.84809 1.31226,-0.35708 z m 0.23844,-18.91544 c -1.13265,-7.81365 -7.43087,-44.81809 -8.12331,-47.72746 -1.40154,-5.88881 -0.92407,-1.07145 1.04979,10.59173 1.90071,11.23095 5.95851,38.32408 5.95851,39.78379 0,0.39523 0.36068,0.71861 0.80152,0.71861 0.4914,0 0.6127,-1.30257 0.31349,-3.36667 z M 408.38634,667.30658 c -5.09575,-21.99598 -6.13326,-25.7828 -6.55556,-23.92712 -0.16725,0.73492 0.42533,3.78549 1.31685,6.77905 1.29029,4.33254 8.58167,35.10434 8.83653,37.29281 0.0344,0.29535 0.22548,0.14199 0.42463,-0.34081 0.19916,-0.48281 -1.61095,-9.39457 -4.02245,-19.80393 z m 101.69674,9.69706 c -0.79614,-0.70084 -25.24627,-16.23649 -28.58271,-18.16149 -4.49394,-2.59282 -7.7905,-3.89892 -7.7905,-3.0866 0,0.3314 2.22794,1.71666 4.95098,3.07837 2.72304,1.36172 10.82564,6.22798 18.00579,10.81391 7.18014,4.58594 13.21044,8.18244 13.40065,7.99223 0.19022,-0.19022 0.19732,-0.47661 0.0158,-0.63642 z m 2.11739,-45.45726 c 0.0391,-10.78281 0.31373,-21.03101 0.6104,-22.77375 0.43212,-2.53836 0.36172,-2.87671 -0.3539,-1.70102 -1.10511,1.81554 -2.10269,44.08179 -1.04041,44.08066 0.40132,-4.4e-4 0.74395,-8.56986 0.78391,-19.60589 z m -56.71021,2.53901 c 0,-1.82535 -39.60842,-17.2586 -40.92195,-15.94507 -0.19491,0.19492 2.24896,1.14049 5.43084,2.10126 6.68269,2.01787 19.78245,7.2981 28.33935,11.42297 5.85537,2.82259 7.15176,3.26141 7.15176,2.42084 z m 37.21755,-23.08563 c -0.53495,-8.63159 -1.1525,-15.87203 -1.37233,-16.08988 -0.50156,-0.49703 0.50674,26.39731 1.12252,29.94087 1.06211,6.11195 1.1579,0.80109 0.24981,-13.85099 z m -34.18095,-11.1389 c -0.92561,-2.0826 -9.73742,-14.45686 -10.29486,-14.45686 -0.37575,0 0.26303,1.515 1.41951,3.36667 5.0165,8.03199 7.62915,11.68431 8.35826,11.68431 0.42962,0 0.66232,-0.26735 0.51709,-0.59412 z m -57.69543,-3.41342 c 0,-0.89708 -0.35648,-1.41075 -0.79216,-1.14148 -0.43569,0.26927 -0.79216,1.00325 -0.79216,1.63107 0,0.62781 0.35647,1.14148 0.79216,1.14148 0.43568,0 0.79216,-0.73398 0.79216,-1.63107 z m 60.32019,-20.92592 c 2.57668,-2.38555 8.63445,-7.37613 13.4617,-11.09019 4.82726,-3.71406 8.32306,-6.75282 7.76846,-6.75282 -2.64811,0 -29.5621,22.08307 -26.9974,22.15151 0.59529,0.0158 3.19055,-1.92294 5.76724,-4.3085 z m 62.06806,-10.83754 c 2.17843,-1.587 7.32274,-5.1648 11.4318,-7.95067 8.15311,-5.52766 11.03565,-8.96767 3.51536,-4.19522 -15.03261,9.53985 -31.70751,22.66812 -30.75321,24.21221 0.24368,0.39427 3.00855,-1.51013 6.14416,-4.23201 3.13561,-2.72187 7.48346,-6.24731 9.66189,-7.83431 z m 37.32622,6.08629 c 7.6757,-4.03463 24.06594,-14.67932 24.06594,-15.62969 0,-0.92921 -3.44961,0.94158 -14.42004,7.82025 -5.17844,3.24699 -11.88019,7.08486 -14.89278,8.5286 -3.01258,1.44374 -5.2504,2.852 -4.97294,3.12947 0.76474,0.76474 3.15701,-0.13615 10.21982,-3.84863 z m -69.13884,-6.22758 c 2.24792,-1.88863 6.50971,-5.13987 9.47065,-7.22497 2.96094,-2.08512 5.21126,-3.96339 5.00069,-4.17395 -0.99163,-0.99163 -19.49402,12.41266 -19.49402,14.12268 0,1.24539 0.84171,0.78893 5.02268,-2.72376 z m -36.55767,-2.90277 c 0.73673,-3.4e-4 1.58339,-0.39522 1.88146,-0.87749 0.9335,-1.51044 -4.45508,0.0543 -8.96412,2.60313 -2.28736,1.29293 -4.15883,2.48773 -4.15883,2.65509 0,0.16737 2.22794,-0.74968 4.95098,-2.0379 2.72304,-1.28822 5.55377,-2.34249 6.29051,-2.34283 z m 12.46029,-28.16453 c -8.77778,-5.90505 -16.15688,-10.53917 -16.39801,-10.29804 -0.24113,0.24112 -0.28988,0.57596 -0.10835,0.74409 1.6864,1.56181 30.67765,20.24019 31.449,20.26184 0.55934,0.0157 -6.16485,-4.80285 -14.94264,-10.70789 z m 103.33586,7.71168 c -18.15527,-14.53234 -29.2394,-22.57726 -30.51887,-22.15077 -0.5078,0.16927 1.89686,2.29804 5.3437,4.7306 3.44682,2.43256 10.72284,7.803 16.16892,11.93431 5.44608,4.13131 10.07487,7.35543 10.28621,7.16471 0.21133,-0.19071 -0.36465,-0.9462 -1.27996,-1.67885 z m -109.61224,0.0542 c -0.002,-0.63999 -22.37049,-6.59334 -22.88232,-6.09016 -0.51242,0.50375 3.83902,2.06476 12.19026,4.37306 8.36702,2.31267 10.69541,2.6866 10.69206,1.7171 z m 72.42739,-8.97478 c -1.42172,-1.57098 -22.07705,-17.13272 -26.70299,-20.11804 -3.85233,-2.48608 -3.27972,-0.61617 0.6475,2.11447 2.07206,1.44074 8.96314,6.45158 15.31349,11.13521 6.35035,4.68363 11.70061,8.51569 11.88946,8.51569 0.18884,0 -0.32751,-0.7413 -1.14746,-1.64733 z"
         id="path11962"
         transform="scale(0.26458333)" />
      <path
         style="fill:#808080;stroke-width:2.61674"
         d="m 363.30238,718.88245 c -0.87737,-23.53301 -0.75411,-50.99022 0.27235,-60.66741 1.84143,-17.36046 5.51747,-34.2841 13.49263,-62.11692 2.12228,-7.40667 5.32843,-19.34844 7.12477,-26.53726 7.2788,-29.12933 10.72613,-38.52625 22.57464,-61.53507 8.9658,-17.41083 24.60915,-45.05649 26.65029,-47.09763 0.81241,-0.81241 1.29163,-1.47712 1.06494,-1.47712 -0.2267,0 0.308,-1.41168 1.18823,-3.13707 0.88023,-1.72539 1.60133,-3.77509 1.60245,-4.5549 0.003,-2.0651 3.97547,-8.31529 15.51039,-24.40344 10.62103,-14.81354 28.09652,-37.04599 28.66925,-36.47325 0.39225,0.39224 -9.14937,24.20651 -10.22135,25.51076 -0.40993,0.49875 -0.64933,1.21169 -0.53201,1.58432 0.44566,1.41549 -12.63451,31.24417 -18.84588,42.97709 -1.937,3.65889 -3.35416,6.82019 -3.14924,7.02511 0.20492,0.20492 -1.00949,3.12139 -2.69869,6.48104 -1.68919,3.35965 -6.49717,14.059 -10.68439,23.77634 -4.18722,9.71734 -11.64969,26.44312 -16.58328,37.1684 -11.24117,24.43755 -10.41501,22.29448 -28.51262,73.96237 -6.73932,19.24046 -15.89676,48.99235 -17.86563,58.04418 -2.2834,10.49789 -2.98645,15.59128 -4.80834,34.83516 -0.90745,9.5851 -2.09505,20.99216 -2.63911,25.34902 l -0.98919,7.92157 z"
         id="path11964"
         transform="scale(0.26458333)" />
    </g>
  </g>
</svg>
