<?xml version="1.0" encoding="UTF-8" standalone="no"?>
<!-- Created with Inkscape (http://www.inkscape.org/) -->

<svg
   width="100"
   height="150"
   viewBox="0 0 26.458333 39.6875"
   version="1.1"
   id="svg7499"
   inkscape:version="1.2 (dc2aedaf03, 2022-05-15)"
   sodipodi:docname="thorn-2.svg"
   xmlns:inkscape="http://www.inkscape.org/namespaces/inkscape"
   xmlns:sodipodi="http://sodipodi.sourceforge.net/DTD/sodipodi-0.dtd"
   xmlns="http://www.w3.org/2000/svg"
   xmlns:svg="http://www.w3.org/2000/svg">
  <sodipodi:namedview
     id="namedview7501"
     pagecolor="#505050"
     bordercolor="#eeeeee"
     borderopacity="1"
     inkscape:showpageshadow="0"
     inkscape:pageopacity="0"
     inkscape:pagecheckerboard="0"
     inkscape:deskcolor="#505050"
     inkscape:document-units="mm"
     showgrid="false"
     inkscape:zoom="1.2623761"
     inkscape:cx="117.23923"
     inkscape:cy="25.745102"
     inkscape:window-width="1276"
     inkscape:window-height="1076"
     inkscape:window-x="1280"
     inkscape:window-y="0"
     inkscape:window-maximized="1"
     inkscape:current-layer="layer1" />
  <defs
     id="defs7496" />
  <g
     inkscape:label="Camada 1"
     inkscape:groupmode="layer"
     id="layer1">
    <g
       id="g24698"
       transform="translate(-80.955919,-149.11717)">
      <path
         id="path7620"
         style="fill:#000000;fill-opacity:0.987952;stroke-width:0.874001"
         sodipodi:type="inkscape:offset"
         inkscape:radius="0.38368639"
         inkscape:original="M 93.744141 154.92578 C 93.730461 154.92499 93.745495 154.96954 93.732422 154.96484 C 93.700942 155.10119 93.681192 155.24011 93.664062 155.37891 C 93.627472 155.73068 93.594983 156.0834 93.595703 156.4375 C 93.587403 156.99747 93.588994 157.5578 93.558594 158.11719 C 93.503744 158.97944 93.411883 159.83805 93.304688 160.69531 C 93.170737 161.84044 93.05009 162.98659 92.925781 164.13281 C 92.767026 165.66684 92.630032 167.20353 92.552734 168.74414 C 92.447956 170.59851 92.349373 172.45187 92.251953 174.30664 C 92.152573 175.9532 92.001615 177.59605 91.847656 179.23828 C 91.763476 180.30981 91.677813 181.38168 91.570312 182.45117 L 91.798828 182.42969 C 91.804778 182.34635 91.810457 182.26303 91.816406 182.17969 C 91.880517 182.21735 91.938945 182.26445 92.003906 182.30078 C 92.107141 182.36138 92.209006 182.42338 92.316406 182.47656 C 92.448412 182.52446 92.582141 182.57232 92.71875 182.60547 C 92.872047 182.64987 93.021674 182.70385 93.173828 182.75195 C 93.355734 182.80895 93.537278 182.87051 93.726562 182.89844 C 94.034561 182.94714 94.347143 182.96162 94.658203 182.97852 C 94.829383 182.98552 95.000549 182.99184 95.171875 182.99414 C 95.355001 182.99714 95.538979 182.99906 95.720703 182.97266 C 95.835267 182.95206 95.94844 182.92241 96.056641 182.87891 C 96.156311 182.84261 96.255018 182.80275 96.359375 182.78125 C 96.459355 182.75785 96.559615 182.73351 96.662109 182.72461 C 96.706109 182.72261 96.754159 182.73184 96.794922 182.71484 C 96.804722 182.68084 96.797916 182.67558 96.791016 182.64258 C 96.784716 182.57538 96.792656 182.50865 96.785156 182.44141 C 96.777656 182.29572 96.771322 182.14959 96.763672 182.00391 C 96.751392 181.81424 96.741494 181.62371 96.746094 181.43359 C 96.748494 181.20743 96.749302 180.98163 96.732422 180.75586 C 96.709722 180.37756 96.685738 179.99826 96.648438 179.62109 C 96.604407 179.2082 96.551478 178.79722 96.476562 178.38867 C 96.407893 177.99373 96.351402 177.59734 96.304688 177.19922 C 96.244807 176.7673 96.164623 176.33984 96.080078 175.91211 C 95.959563 175.26431 95.840322 174.61523 95.734375 173.96484 C 95.604251 173.18904 95.469415 172.41482 95.330078 171.64062 C 95.202729 170.89264 95.071922 170.14459 94.984375 169.39062 C 94.912615 168.69468 94.855326 167.99712 94.853516 167.29688 C 94.840206 166.63242 94.826485 165.96736 94.828125 165.30273 C 94.827966 164.7025 94.82609 164.10087 94.78125 163.50195 C 94.72481 162.88263 94.626479 162.27031 94.542969 161.6543 C 94.479109 161.07133 94.434549 160.4866 94.414062 159.90039 C 94.396332 159.36852 94.394914 158.83638 94.371094 158.30469 C 94.347224 157.75547 94.323742 157.20686 94.289062 156.6582 C 94.258692 156.19752 94.229338 155.73447 94.136719 155.28125 C 94.109249 155.17307 94.102659 155.13362 94.068359 155.0332 C 94.053593 154.98997 93.993532 155.02234 93.982422 155.00586 C 93.988033 154.98393 93.989058 154.96101 93.996094 154.93945 C 94.013647 154.91652 93.898457 154.97906 93.880859 154.9707 C 93.840285 154.97079 93.866054 154.93206 93.744141 154.92578 z M 93.886719 155.75586 C 93.921747 156.06987 93.957613 156.38383 93.976562 156.69922 C 94.006502 157.24482 94.027315 157.79183 94.046875 158.33789 C 94.067645 158.87329 94.066484 159.40789 94.083984 159.94336 C 94.101444 160.53065 94.14605 161.11696 94.207031 161.70117 C 94.284641 162.31413 94.384819 162.92317 94.4375 163.53906 C 94.48116 164.13744 94.480855 164.73828 94.484375 165.33789 C 94.481375 166.00269 94.497929 166.66742 94.511719 167.33203 C 94.510119 168.02965 94.568932 168.72301 94.642578 169.41602 C 94.729898 170.17079 94.860048 170.91936 94.988281 171.66797 C 95.125065 172.44289 95.262517 173.21806 95.392578 173.99414 C 95.49576 174.64486 95.611404 175.29309 95.728516 175.94141 C 95.807706 176.36519 95.883495 176.79012 95.945312 177.2168 C 95.989253 177.6197 96.050347 178.02028 96.117188 178.41992 C 96.190687 178.82381 96.243893 179.23074 96.289062 179.63867 C 96.321523 180.0029 96.350081 180.36723 96.369141 180.73242 C 96.382241 180.95735 96.380763 181.18304 96.376953 181.4082 C 96.371453 181.59895 96.383411 181.79013 96.394531 181.98047 C 96.399731 182.12568 96.408546 182.2707 96.410156 182.41602 C 96.412956 182.48342 96.400327 182.55004 96.398438 182.61719 C 96.395237 182.63239 96.400772 182.69577 96.388672 182.63477 C 96.339582 182.62307 96.290082 182.62686 96.240234 182.63086 C 96.134716 182.64586 96.029815 182.66821 95.925781 182.69141 C 95.814325 182.71261 95.709166 182.75446 95.601562 182.78906 C 95.490376 182.83036 95.374885 182.85585 95.257812 182.87305 C 95.075462 182.89275 94.892028 182.89112 94.708984 182.88672 C 94.568007 182.88508 94.427956 182.87891 94.287109 182.87305 C 94.270882 182.87104 94.255526 182.87009 94.207031 182.86328 C 94.020164 182.83838 93.84102 182.77975 93.662109 182.72266 C 93.509349 182.67636 93.35797 182.62198 93.205078 182.57617 C 93.070109 182.54137 92.937731 182.49841 92.806641 182.45117 C 92.69187 182.42777 92.594505 182.35912 92.496094 182.29883 C 92.429074 182.25703 92.353384 182.23011 92.285156 182.19141 C 92.237166 182.16161 92.183479 182.14812 92.128906 182.13672 C 92.085876 182.12452 92.042725 182.12465 91.998047 182.12305 C 91.945997 182.11905 91.895796 182.11337 91.84375 182.10938 L 91.822266 182.10742 C 91.891075 181.14369 91.959503 180.18031 92.03125 179.2168 C 92.181329 177.57441 92.329197 175.93146 92.429688 174.28516 C 92.523708 172.42987 92.621289 170.57482 92.736328 168.7207 C 92.824298 167.178 92.962654 165.63996 93.125 164.10352 C 93.253725 162.95584 93.388831 161.80888 93.525391 160.66211 C 93.631907 159.80633 93.726895 158.95003 93.789062 158.08984 C 93.824772 157.52969 93.825324 156.96713 93.839844 156.40625 C 93.840829 156.18846 93.867339 155.9725 93.886719 155.75586 z "
         d="m 93.763672,154.54297 c -0.0045,6.1e-4 -0.175144,0.031 -0.175781,0.0312 -6.45e-4,2.8e-4 -0.14407,0.11076 -0.144532,0.11133 -2.31e-4,2.8e-4 -0.03887,0.0582 -0.03906,0.0586 -1.91e-4,3.5e-4 -0.01777,0.034 -0.02344,0.0488 -0.01133,0.0297 -0.01619,0.0517 -0.01953,0.0703 -0.0018,0.0102 0.0011,0.006 0,0.0137 a 0.38372476,0.38372476 0 0 0 -0.002,0.002 c -0.03642,0.15773 -0.05846,0.30963 -0.07617,0.45312 a 0.38372476,0.38372476 0 0 0 0,0.008 c -0.0369,0.35478 -0.07108,0.71957 -0.07031,1.09766 -0.0083,0.56244 -0.0076,1.11532 -0.03711,1.6582 -0.05417,0.85063 -0.145404,1.70064 -0.251953,2.55274 a 0.38372476,0.38372476 0 0 0 0,0.002 c -0.134295,1.14807 -0.254684,2.29599 -0.378906,3.44141 a 0.38372476,0.38372476 0 0 0 0,0.002 c -0.159129,1.53765 -0.297205,3.08034 -0.375,4.63086 -0.104785,1.85456 -0.203387,3.70821 -0.300781,5.5625 -0.0989,1.63726 -0.250504,3.27555 -0.404297,4.91601 a 0.38372476,0.38372476 0 0 0 0,0.006 c -0.08415,1.07119 -0.168413,2.13884 -0.275391,3.20313 a 0.38372476,0.38372476 0 0 0 0.416016,0.42187 l 0.228515,-0.0215 a 0.38372476,0.38372476 0 0 0 0.105469,-0.10938 c 0.06686,0.039 0.128561,0.0783 0.207031,0.11719 a 0.38372476,0.38372476 0 0 0 0.03906,0.0176 c 0.133077,0.0483 0.280271,0.10105 0.443359,0.14063 l -0.01758,-0.004 c 0.13756,0.0398 0.285379,0.0914 0.447266,0.14258 0.175142,0.0549 0.374453,0.1253 0.607422,0.16015 0.335965,0.0531 0.661692,0.0672 0.970703,0.084 a 0.38372476,0.38372476 0 0 0 0.0059,0 c 0.172193,0.007 0.346108,0.0132 0.523438,0.0156 0.184653,0.003 0.388571,0.007 0.609375,-0.0254 a 0.38372476,0.38372476 0 0 0 0.01367,-0.002 c 0.134361,-0.0242 0.27203,-0.0597 0.410157,-0.11523 l -0.01172,0.006 c 0.107996,-0.0393 0.190606,-0.0717 0.25,-0.084 a 0.38372476,0.38372476 0 0 0 0.0098,-0.002 c 0.102045,-0.0239 0.184133,-0.0413 0.248046,-0.0469 h -0.01562 c -0.02215,0.001 0.07851,0.0382 0.263671,-0.0391 a 0.38372476,0.38372476 0 0 0 0.220703,-0.24805 c 0.01291,-0.0448 0.02443,-0.13161 0.01563,-0.19531 -0.004,-0.0287 -0.0037,-0.0186 -0.0059,-0.0273 -4.21e-4,-0.0182 0.0054,-0.0804 -0.0078,-0.19922 -0.0069,-0.13617 -0.01218,-0.27399 -0.01953,-0.41406 a 0.38372476,0.38372476 0 0 0 0,-0.006 c -0.01207,-0.18641 -0.02171,-0.36454 -0.01758,-0.53516 a 0.38372476,0.38372476 0 0 0 0,-0.006 c 0.0024,-0.22608 0.0042,-0.4616 -0.01367,-0.70508 v -0.006 c -0.02265,-0.37725 -0.04794,-0.75832 -0.08594,-1.14258 a 0.38372476,0.38372476 0 0 0 0,-0.004 c -0.04462,-0.41844 -0.09842,-0.83785 -0.175781,-1.25977 l 0.002,0.002 c -0.06733,-0.38725 -0.123945,-0.77614 -0.169922,-1.16797 a 0.38372476,0.38372476 0 0 0 0,-0.008 c -0.06137,-0.44267 -0.143756,-0.87574 -0.228516,-1.30468 v -0.004 c -0.120167,-0.64596 -0.23884,-1.29152 -0.34375,-1.93555 -0.130388,-0.77737 -0.266657,-1.55446 -0.40625,-2.33007 l 0.002,0.004 c -0.127214,-0.74718 -0.257897,-1.48714 -0.34375,-2.22461 v -0.006 c -0.07092,-0.68865 -0.127153,-1.37274 -0.128906,-2.05078 a 0.38372476,0.38372476 0 0 0 0,-0.006 c -0.01331,-0.66461 -0.02702,-1.32761 -0.02539,-1.98633 -1.6e-4,-0.60096 -6.67e-4,-1.21287 -0.04688,-1.83007 a 0.38372476,0.38372476 0 0 0 0,-0.006 c -0.05802,-0.63667 -0.157563,-1.25346 -0.240234,-1.86328 -0.06237,-0.57135 -0.106946,-1.14434 -0.126953,-1.7168 -0.01747,-0.52404 -0.01867,-1.05717 -0.04297,-1.59961 -0.02386,-0.54905 -0.04702,-1.0985 -0.08203,-1.65234 a 0.38372476,0.38372476 0 0 0 0,-0.002 c -0.03033,-0.46003 -0.06046,-0.93987 -0.160156,-1.42773 a 0.38372476,0.38372476 0 0 0 -0.0039,-0.0176 c -0.0256,-0.1008 -0.03679,-0.16206 -0.07617,-0.27734 -0.01005,-0.0294 -0.04807,-0.045 -0.06836,-0.0742 -0.01552,-0.0402 -0.04291,-0.10733 -0.04297,-0.10742 -8.2e-5,-1.3e-4 -0.103379,-0.10733 -0.103515,-0.10743 -1.37e-4,-9e-5 -0.09942,-0.0507 -0.09961,-0.0508 -3.77e-4,-1.2e-4 -0.120522,-0.0195 -0.121094,-0.0195 -5.72e-4,0 -0.04611,0.002 -0.06055,0.004 -0.02887,0.004 -0.04248,0.0101 -0.05469,0.0137 -0.01269,0.004 -0.0113,0.003 -0.01953,0.006 -0.0344,-0.008 -0.06393,-0.0295 -0.0957,-0.0312 z m -0.07227,0.041 c -3.93e-4,5e-5 0.05902,0.006 0.109375,0.0117 -0.0081,0.003 -0.01821,0.007 -0.01367,0.006 0.0017,-5.6e-4 0.01362,-0.002 0.01953,-0.004 0.02392,0.003 0.05495,0.006 0.05469,0.006 a 0.38372476,0.38372476 0 0 0 -0.259766,0.0215 c 0.04458,-0.0198 0.09011,-0.041 0.08984,-0.041 z m 0.214844,0.006 c 0.01432,0.001 0.106771,0.0247 0.138672,0.0352 a 0.38372476,0.38372476 0 0 0 -0.09961,-0.0215 c -0.01356,-0.005 -0.02505,-0.01 -0.03906,-0.0137 z m -0.378906,0.0684 a 0.38372476,0.38372476 0 0 0 -0.160156,0.20899 c 0.0075,-0.0252 0.01778,-0.0571 0.01758,-0.0566 -2.84e-4,6.5e-4 0.09809,-0.1332 0.09766,-0.13282 -9.3e-5,9e-5 0.02979,-0.0128 0.04492,-0.0195 z m 0.283203,6.86719 c 0.0069,0.0713 0.0082,0.14366 0.01563,0.21484 a 0.38372476,0.38372476 0 0 0 0,0.01 c 0.0788,0.62236 0.177524,1.22613 0.228516,1.82227 0.04188,0.57782 0.04336,1.16831 0.04687,1.76757 -0.003,0.671 0.0136,1.33775 0.02734,2 -0.0012,0.71704 0.05886,1.42134 0.132813,2.11719 a 0.38372476,0.38372476 0 0 0 0,0.004 c 0.08899,0.76923 0.219531,1.5235 0.347656,2.27148 a 0.38372476,0.38372476 0 0 0 0.002,0.002 c 0.136819,0.77511 0.272683,1.54857 0.402344,2.32226 0.103877,0.65494 0.220794,1.30489 0.33789,1.95313 a 0.38372476,0.38372476 0 0 0 0,0.002 c 0.0788,0.42171 0.154225,0.84135 0.214844,1.25976 0.045,0.40901 0.105181,0.81218 0.171875,1.21094 a 0.38372476,0.38372476 0 0 0 0.002,0.006 c 0.07062,0.38809 0.121646,0.78409 0.166016,1.1836 0.03222,0.36151 0.06137,0.72154 0.08008,1.08007 a 0.38372476,0.38372476 0 0 0 0,0.002 c 0.01214,0.20838 0.01158,0.42593 0.0078,0.64843 -0.0057,0.21185 0.0066,0.41216 0.01758,0.59961 0.0037,0.0999 0.0065,0.1897 0.0098,0.28125 -0.05618,0.011 -0.115712,0.0196 -0.167968,0.0312 -0.158994,0.0302 -0.278019,0.0801 -0.369141,0.10938 a 0.38372476,0.38372476 0 0 0 -0.01563,0.006 c -0.07591,0.0282 -0.164212,0.048 -0.259766,0.0625 -0.15081,0.0157 -0.313879,0.016 -0.490234,0.0117 a 0.38372476,0.38372476 0 0 0 -0.0059,0 c -0.122617,-0.001 -0.248962,-0.006 -0.378907,-0.0117 -0.0041,-5.1e-4 -0.0066,-0.002 -0.0098,-0.002 -0.02093,-0.002 -0.02775,-0.003 -0.06445,-0.008 a 0.38372476,0.38372476 0 0 0 -0.002,0 c -0.140527,-0.0187 -0.297792,-0.0673 -0.478515,-0.125 a 0.38372476,0.38372476 0 0 0 -0.0059,-0.002 c -0.140288,-0.0425 -0.292823,-0.0967 -0.458985,-0.14649 a 0.38372476,0.38372476 0 0 0 -0.01367,-0.004 c -0.119778,-0.0309 -0.239899,-0.0708 -0.363281,-0.11524 a 0.38372476,0.38372476 0 0 0 -0.05469,-0.0137 c -0.0123,-0.003 -0.07336,-0.0361 -0.183593,-0.10351 l -0.002,-0.002 c -0.105372,-0.0653 -0.176309,-0.0889 -0.208985,-0.10547 -0.103299,-0.0641 -0.192969,-0.08 -0.257812,-0.0937 9.6e-5,-0.001 0.0019,-0.003 0.002,-0.004 -0.0076,-0.002 -0.0084,-1.6e-4 -0.01563,-0.002 -0.0024,-4.9e-4 -0.0075,-0.003 -0.0098,-0.004 l 0.02539,0.006 c 0.05989,-0.83917 0.119228,-1.67731 0.18164,-2.51563 v -0.006 c 0.14993,-1.64081 0.297617,-3.28579 0.398438,-4.9375 a 0.38372476,0.38372476 0 0 0 0,-0.004 c 0.094,-1.8548 0.191751,-3.70883 0.306641,-5.56055 a 0.38372476,0.38372476 0 0 0 0,-0.002 c 0.08746,-1.5337 0.224879,-3.06387 0.386718,-4.59571 v -0.002 c 0.09791,-0.87287 0.20149,-1.74623 0.304688,-2.61914 z m 2.716797,20.78711 c 0.02956,0.009 0.06448,0.0195 0.06445,0.0195 -6.2e-5,-4e-5 0.08796,0.0704 0.08789,0.0703 -1.34e-4,-1.4e-4 0.05679,0.0823 0.05664,0.082 -3.08e-4,-6e-4 0.02038,0.0489 0.02344,0.0586 0.0031,0.01 0.0051,0.0146 0.0059,0.0176 a 0.38372476,0.38372476 0 0 0 -0.238281,-0.24805 z" />
      <path
         style="fill:#b3b3b3;fill-opacity:0.987952;stroke-width:1.30837"
         d="m 354.04267,690.42512 c -1.22646,-0.40554 -3.23161,-1.15252 -4.45588,-1.65995 -2.61891,-1.08548 -2.48051,-0.23646 -1.6439,-10.08469 1.16001,-13.65518 1.39955,-17.05396 2.19551,-31.15273 0.87994,-15.58604 1.39315,-21.64753 3.14714,-37.17081 0.62766,-5.555 1.28249,-11.52588 1.45517,-13.26863 0.2894,-2.92079 0.33559,-2.56452 0.59057,4.55491 0.15213,4.24794 0.55984,9.85495 0.90602,12.46002 0.369,2.77681 0.6311,7.61109 0.6335,11.68431 0.005,9.19799 0.51456,14.61508 2.40272,25.56352 3.91118,22.67894 4.39567,26.07731 4.61152,32.34664 l 0.21365,6.20545 -1.53658,0.45432 c -2.82732,0.83595 -6.11686,0.86206 -8.51944,0.0676 z"
         id="path7691"
         transform="scale(0.26458333)" />
    </g>
  </g>
</svg>
