<?xml version="1.0" encoding="UTF-8" standalone="no"?>
<!-- Created with Inkscape (http://www.inkscape.org/) -->

<svg
   width="210mm"
   height="297mm"
   viewBox="0 0 210 297"
   version="1.1"
   id="svg7499"
   inkscape:version="1.2 (dc2aedaf03, 2022-05-15)"
   sodipodi:docname="espinho-2.svg"
   xmlns:inkscape="http://www.inkscape.org/namespaces/inkscape"
   xmlns:sodipodi="http://sodipodi.sourceforge.net/DTD/sodipodi-0.dtd"
   xmlns="http://www.w3.org/2000/svg"
   xmlns:svg="http://www.w3.org/2000/svg">
  <sodipodi:namedview
     id="namedview7501"
     pagecolor="#505050"
     bordercolor="#eeeeee"
     borderopacity="1"
     inkscape:showpageshadow="0"
     inkscape:pageopacity="0"
     inkscape:pagecheckerboard="0"
     inkscape:deskcolor="#505050"
     inkscape:document-units="mm"
     showgrid="false"
     inkscape:zoom="2.5247521"
     inkscape:cx="366.3726"
     inkscape:cy="609.16871"
     inkscape:window-width="2560"
     inkscape:window-height="1369"
     inkscape:window-x="2552"
     inkscape:window-y="-8"
     inkscape:window-maximized="1"
     inkscape:current-layer="layer1" />
  <defs
     id="defs7496" />
  <g
     inkscape:label="Camada 1"
     inkscape:groupmode="layer"
     id="layer1">
    <path
       style="fill:#000000;fill-opacity:0.987952;stroke-width:0.874001"
       id="path7620"
       d="m 91.797983,182.42938 c 0.07647,-1.07117 0.15282,-2.14239 0.232566,-3.21333 0.150079,-1.64239 0.298495,-3.28397 0.398986,-4.93027 0.09402,-1.85529 0.191619,-3.71033 0.306658,-5.56445 0.08797,-1.5427 0.22598,-3.08148 0.388326,-4.61792 0.128725,-1.14768 0.265022,-2.29448 0.401582,-3.44125 0.106516,-0.85578 0.201509,-1.71263 0.263676,-2.57282 0.03571,-0.56015 0.03636,-1.12158 0.05088,-1.68246 0.0016,-0.35382 0.03305,-0.70609 0.07624,-1.05693 0.02222,-0.13731 0.03534,-0.27818 0.07871,-0.41106 0.03483,-0.0455 0.129273,-0.17923 -0.227848,0.0628 -0.02223,0.0151 0.01651,0.0511 0.02347,0.0771 0.02487,0.093 0.03405,0.14825 0.0536,0.24596 0.07817,0.45455 0.104955,0.91522 0.132575,1.37491 0.02994,0.5456 0.04928,1.09175 0.06884,1.63781 0.02077,0.5354 0.01987,1.07127 0.03737,1.60674 0.01746,0.58729 0.06296,1.1727 0.123941,1.75691 0.07761,0.61296 0.177467,1.22217 0.230148,1.83806 0.04366,0.59838 0.04324,1.1987 0.04676,1.79831 -0.003,0.6648 0.01259,1.32946 0.02638,1.99407 -0.0016,0.69762 0.05723,1.39212 0.130876,2.08513 0.08732,0.75477 0.217437,1.50359 0.34567,2.2522 0.136784,0.77492 0.274463,1.54966 0.404524,2.32574 0.103182,0.65072 0.21934,1.2992 0.336452,1.94752 0.07919,0.42378 0.155594,0.84784 0.217411,1.27452 0.04394,0.4029 0.103897,0.80335 0.170738,1.20299 0.0735,0.40389 0.128194,0.81082 0.173363,1.21875 0.03246,0.36423 0.05969,0.72911 0.07875,1.0943 0.0131,0.22493 0.01151,0.45022 0.0077,0.67538 -0.0055,0.19075 0.0064,0.38141 0.01752,0.57175 0.0052,0.14521 0.01479,0.29028 0.0164,0.4356 0.0028,0.0674 -0.0093,0.13385 -0.01119,0.201 -0.0032,0.0152 0.0024,0.0796 -0.0097,0.0186 -0.04909,-0.0117 -0.09911,-0.008 -0.148958,-0.004 -0.105518,0.015 -0.210142,0.037 -0.314176,0.0602 -0.111456,0.0212 -0.217051,0.0634 -0.324655,0.098 -0.111186,0.0413 -0.22638,0.067 -0.343453,0.0842 -0.182351,0.0197 -0.365958,0.0169 -0.549002,0.0125 -0.172315,-0.002 -0.344419,-0.0108 -0.516589,-0.0175 -0.16679,-0.007 -0.490839,-0.0314 0.262554,0.0223 0.02543,0.002 -0.05077,-0.005 -0.07615,-0.007 -0.10274,-0.0101 -0.06826,-0.006 -0.172249,-0.0206 -0.186867,-0.0249 -0.366416,-0.0827 -0.545327,-0.13979 -0.15276,-0.0463 -0.302525,-0.10175 -0.455417,-0.14756 -0.134969,-0.0348 -0.267412,-0.0774 -0.398502,-0.12464 -0.114771,-0.0234 -0.212966,-0.0922 -0.311377,-0.15249 -0.06702,-0.0418 -0.142606,-0.0679 -0.210834,-0.1066 -0.04799,-0.0298 -0.101383,-0.0437 -0.155956,-0.0551 -0.04303,-0.0122 -0.0856,-0.0121 -0.130278,-0.0137 -0.05205,-0.004 -0.104095,-0.009 -0.156141,-0.013 0,0 -0.05529,-0.005 -0.05529,-0.005 v 0 c -0.0453,0.003 -0.09059,0.006 -0.135884,0.009 -0.103537,-0.002 -0.05871,-0.002 -0.01558,0.009 0.05269,0.0107 0.106796,0.0155 0.155273,0.0405 0.07464,0.039 0.13988,0.0956 0.213516,0.13678 0.103235,0.0606 0.204843,0.12376 0.312243,0.17694 0.132006,0.0479 0.264655,0.0943 0.401264,0.12745 0.153297,0.0444 0.303181,0.0985 0.455335,0.1466 0.181906,0.057 0.363387,0.11914 0.552672,0.14707 0.307999,0.0487 0.621062,0.0624 0.932122,0.0793 0.17118,0.007 0.342381,0.0135 0.513707,0.0158 0.183126,0.003 0.36735,0.005 0.549074,-0.0214 0.114564,-0.0206 0.226507,-0.0505 0.334708,-0.094 0.09967,-0.0363 0.198311,-0.0761 0.302668,-0.0976 0.09998,-0.0234 0.200705,-0.0464 0.303199,-0.0553 0.044,-0.002 0.09227,0.007 0.133033,-0.01 0.0098,-0.034 0.0031,-0.0391 -0.0038,-0.0721 -0.0063,-0.0672 0.0013,-0.13498 -0.0062,-0.20222 -0.0075,-0.14569 -0.01423,-0.29142 -0.02188,-0.4371 -0.01228,-0.18967 -0.02241,-0.37988 -0.01781,-0.57 0.0024,-0.22616 0.005,-0.45246 -0.01188,-0.67823 -0.0227,-0.3783 -0.04747,-0.75663 -0.08477,-1.1338 -0.04403,-0.41289 -0.09749,-0.8249 -0.172405,-1.23345 -0.06867,-0.39494 -0.124502,-0.79135 -0.171217,-1.18947 -0.05988,-0.43192 -0.140084,-0.86009 -0.224629,-1.28782 -0.120515,-0.6478 -0.240382,-1.29573 -0.346329,-1.94612 -0.130124,-0.7758 -0.264819,-1.55081 -0.404156,-2.325 -0.127349,-0.74799 -0.257419,-1.49606 -0.344966,-2.25002 -0.07176,-0.69594 -0.130276,-1.39329 -0.132086,-2.09354 -0.01331,-0.66446 -0.02635,-1.32901 -0.02471,-1.99364 -1.59e-4,-0.60023 -0.0013,-1.20118 -0.04614,-1.8001 -0.05644,-0.61932 -0.155665,-1.2325 -0.239175,-1.84851 -0.06386,-0.58297 -0.108175,-1.16757 -0.128662,-1.75378 -0.01773,-0.53187 -0.01847,-1.06417 -0.04229,-1.59586 -0.02387,-0.54922 -0.04798,-1.0985 -0.08266,-1.64716 -0.03037,-0.46068 -0.05918,-0.92388 -0.151799,-1.3771 -0.02747,-0.10818 -0.03454,-0.14632 -0.06884,-0.24674 -0.05593,-0.16376 -0.03436,-0.0935 -0.323707,-0.10839 -0.01368,-7.9e-4 3e-6,0.0436 -0.01307,0.0389 -0.03148,0.13635 -0.05046,0.27522 -0.06759,0.41402 -0.03659,0.35177 -0.06922,0.70427 -0.0685,1.05837 -0.0083,0.55997 -0.007,1.12031 -0.0374,1.6797 -0.05485,0.86225 -0.146293,1.72129 -0.253489,2.57855 -0.133951,1.14513 -0.253826,2.29182 -0.378135,3.43804 -0.158755,1.53403 -0.2966,3.07013 -0.373898,4.61074 -0.104778,1.85437 -0.203957,3.70901 -0.301377,5.56378 -0.09938,1.64656 -0.249422,3.28828 -0.403381,4.93051 -0.08418,1.07153 -0.169346,2.14309 -0.276846,3.21258 0,0 0.226835,-0.0213 0.226835,-0.0213 z" />
    <path
       style="fill:#b3b3b3;fill-opacity:0.987952;stroke-width:1.30837"
       d="m 354.04267,690.42512 c -1.22646,-0.40554 -3.23161,-1.15252 -4.45588,-1.65995 -2.61891,-1.08548 -2.48051,-0.23646 -1.6439,-10.08469 1.16001,-13.65518 1.39955,-17.05396 2.19551,-31.15273 0.87994,-15.58604 1.39315,-21.64753 3.14714,-37.17081 0.62766,-5.555 1.28249,-11.52588 1.45517,-13.26863 0.2894,-2.92079 0.33559,-2.56452 0.59057,4.55491 0.15213,4.24794 0.55984,9.85495 0.90602,12.46002 0.369,2.77681 0.6311,7.61109 0.6335,11.68431 0.005,9.19799 0.51456,14.61508 2.40272,25.56352 3.91118,22.67894 4.39567,26.07731 4.61152,32.34664 l 0.21365,6.20545 -1.53658,0.45432 c -2.82732,0.83595 -6.11686,0.86206 -8.51944,0.0676 z"
       id="path7691"
       transform="scale(0.26458333)" />
  </g>
</svg>
