<?xml version="1.0" encoding="UTF-8" standalone="no"?>
<!-- Created with Inkscape (http://www.inkscape.org/) -->

<svg
   width="210mm"
   height="297mm"
   viewBox="0 0 210 297"
   version="1.1"
   id="svg7314"
   inkscape:version="1.2 (dc2aedaf03, 2022-05-15)"
   sodipodi:docname="espinho-1.svg"
   xmlns:inkscape="http://www.inkscape.org/namespaces/inkscape"
   xmlns:sodipodi="http://sodipodi.sourceforge.net/DTD/sodipodi-0.dtd"
   xmlns="http://www.w3.org/2000/svg"
   xmlns:svg="http://www.w3.org/2000/svg">
  <sodipodi:namedview
     id="namedview7316"
     pagecolor="#505050"
     bordercolor="#eeeeee"
     borderopacity="1"
     inkscape:showpageshadow="0"
     inkscape:pageopacity="0"
     inkscape:pagecheckerboard="0"
     inkscape:deskcolor="#505050"
     inkscape:document-units="mm"
     showgrid="false"
     inkscape:zoom="2.5247521"
     inkscape:cx="368.35299"
     inkscape:cy="659.86675"
     inkscape:window-width="2560"
     inkscape:window-height="1369"
     inkscape:window-x="2552"
     inkscape:window-y="-8"
     inkscape:window-maximized="1"
     inkscape:current-layer="layer1" />
  <defs
     id="defs7311" />
  <g
     inkscape:label="Camada 1"
     inkscape:groupmode="layer"
     id="layer1">
    <path
       style="fill:#000000;fill-opacity:0.987952;stroke-width:0.874001"
       id="path7486"
       d="m 88.268145,186.0238 c 0.376655,0.46674 0.94734,0.6645 1.505717,0.81943 0.72481,0.16967 1.470361,0.19979 2.211253,0.2239 0.614793,0.0297 1.229534,0.007 1.843468,-0.0273 0.572183,-0.021 1.127329,-0.14548 1.685451,-0.26267 0.270394,-0.0628 0.538433,-0.13534 0.805807,-0.20981 0.155229,-0.0457 0.308158,-0.098 0.463389,-0.14368 0.137774,-0.0393 0.274939,-0.0812 0.409797,-0.12958 0.113075,-0.0431 0.228042,-0.0805 0.343731,-0.11588 0.03869,-0.0103 0.07544,-0.027 0.110599,-0.0459 0.01355,-0.01 0.02831,-0.0173 0.04334,-0.0244 0.0094,-0.004 0.01048,-0.009 0.01484,-0.0186 0.0046,-0.009 0.0083,-0.0186 0.01199,-0.0275 -0.0058,-0.0152 -0.0097,-0.0313 -0.01733,-0.0457 -0.03018,-0.0569 -0.09896,-0.10818 -0.135343,-0.15989 -0.08611,-0.12237 -0.140404,-0.22375 -0.21731,-0.35603 -0.443513,-0.84023 -0.882018,-1.68269 -1.34584,-2.51199 -0.537922,-0.95669 -1.097418,-1.90104 -1.640419,-2.8548 -0.481595,-0.83585 -0.902661,-1.70284 -1.304153,-2.57922 -0.342979,-0.7672 -0.656958,-1.54696 -0.976453,-2.32414 -0.221138,-0.52992 -0.417679,-1.06926 -0.610121,-1.61005 -0.08944,-0.26221 -0.193066,-0.51929 -0.294748,-0.77692 -0.06567,-0.16412 -0.11905,-0.33256 -0.174644,-0.50023 -0.02659,-0.0641 -0.03601,-0.13264 -0.04949,-0.20001 -0.0059,-0.0246 -0.0104,-0.0495 -0.01701,-0.0738 -0.516245,0.15235 -0.481978,0.0762 -0.521131,0.40516 -0.02008,0.18991 -0.02783,0.38082 -0.03737,0.57148 -0.02233,0.29892 -0.0554,0.59692 -0.08684,0.89499 -0.04383,0.38876 -0.09428,0.77671 -0.145539,1.16454 -0.06238,0.44589 -0.12332,0.89203 -0.175112,1.33928 -0.0528,0.44605 -0.0984,0.89286 -0.153532,1.33864 -0.05037,0.41441 -0.117245,0.82659 -0.180827,1.23912 -0.06567,0.42685 -0.110937,0.85646 -0.153768,1.28609 -0.03753,0.34029 -0.07478,0.68094 -0.09299,1.02289 -0.01585,0.29422 -0.04654,0.58757 -0.09351,0.87841 -0.04579,0.3039 -0.09297,0.60753 -0.131527,0.91244 -0.03433,0.28047 -0.09558,0.55573 -0.161322,0.83007 -0.05384,0.19034 -0.09829,0.38311 -0.14896,0.57427 -0.03537,0.12907 -0.07089,0.25827 -0.09218,0.39054 -0.01624,0.10091 -0.03872,0.19987 -0.07505,0.29543 -0.02148,0.0602 -0.03484,0.12477 -0.0651,0.18131 -0.02299,0.0425 -0.04559,0.0842 -0.0776,0.12052 -0.02524,0.0333 -0.04247,0.0702 -0.05825,0.10859 -0.01847,0.0357 -0.03072,0.0739 -0.04459,0.11146 -0.0093,0.0225 -0.0061,0.0481 -0.0027,0.0717 0.0083,0.028 0.0024,0.0562 0.0053,0.0845 0.0031,0.0348 2.65e-4,0.0692 0.0021,0.10421 -0.0019,0.0223 0.0019,0.0405 0.0089,0.0615 0.01339,0.031 0.03935,0.0424 0.06813,0.0556 0.02201,0.009 0.0402,0.0214 0.05747,0.0372 0.0173,0.0186 0.03825,0.0329 0.05941,0.0468 0.07824,0.006 0.165539,-0.0408 0.238717,-0.0681 0,0 0.05236,-0.0211 0.05236,-0.0211 v 0 c 0.05389,-0.0234 0.169384,-0.0519 0.18941,-0.0954 -0.01966,-0.01 -0.04125,-0.0186 -0.05689,-0.0343 -0.01982,-0.0202 -0.04021,-0.0424 -0.06734,-0.0522 -0.01683,-0.008 -0.04075,-0.0172 -0.0516,-0.0217 -0.0036,-0.0127 -0.0052,-0.0279 -0.0041,-0.0426 -5.29e-4,-0.0414 -0.0069,-0.0823 -0.0078,-0.12364 0.0024,-0.0301 -2.64e-4,-0.0586 -0.0062,-0.088 -1.13e-4,-0.0183 0.0036,-0.034 0.01125,-0.0504 0.01365,-0.0367 0.03067,-0.072 0.04663,-0.10766 0.0181,-0.0346 0.03773,-0.0682 0.06341,-0.0978 0.02891,-0.0415 0.05201,-0.087 0.07398,-0.13242 0.0232,-0.0608 0.04185,-0.1231 0.0619,-0.18495 0.03164,-0.0972 0.06026,-0.19505 0.0737,-0.29675 0.02424,-0.12823 0.06006,-0.25338 0.09354,-0.37948 0.05239,-0.18876 0.09553,-0.38018 0.146111,-0.56946 0.06361,-0.28115 0.11153,-0.56589 0.151426,-0.85133 0.03898,-0.30498 0.08677,-0.60867 0.133128,-0.9126 0.03215,-0.29941 0.074,-0.59791 0.08983,-0.89892 0.02916,-0.3286 0.05839,-0.65685 0.09411,-0.98485 0.04402,-0.42913 0.09023,-0.85827 0.15788,-1.28443 0.06398,-0.41262 0.129619,-0.82523 0.178033,-1.24001 0.05526,-0.45143 0.104579,-0.90362 0.149193,-1.35622 0.05164,-0.45215 0.109225,-0.90368 0.169794,-1.3547 0.05266,-0.38861 0.105063,-0.77726 0.148743,-1.16701 0.03255,-0.29894 0.06542,-0.59798 0.09041,-0.89766 0.0209,-0.18404 0.0232,-0.36913 0.04466,-0.55311 0.04013,-0.31614 0.108509,-0.2706 -0.452739,-0.11059 0.0062,0.0167 0.01421,0.0326 0.01887,0.0499 0.02466,0.0838 0.04258,0.16982 0.07495,0.25132 0.0574,0.16786 0.11077,0.3372 0.178866,0.50119 0.100772,0.25746 0.209153,0.51196 0.299998,0.77324 0.193802,0.54108 0.399788,1.07776 0.622398,1.60771 0.317965,0.76867 0.630803,1.53978 0.971007,2.29895 0.398222,0.87465 0.816769,1.74069 1.301798,2.57123 0.544269,0.95861 1.092774,1.91483 1.631704,2.87645 0.441343,0.81695 0.860721,1.64446 1.262549,2.48154 7.94e-4,0.002 0.287303,0.55479 0.309187,0.52524 0.0059,-0.008 0.0011,-0.0197 0.0016,-0.0296 -0.0042,0.009 -0.009,0.0174 -0.01265,0.0265 -0.0019,0.004 -0.0035,0.009 -0.0061,0.0114 -0.0096,0.007 -0.01878,0.0147 -0.03081,0.0179 -0.0354,0.014 -0.07117,0.0268 -0.107892,0.0371 -0.114165,0.0365 -0.227052,0.0765 -0.339691,0.11746 -0.13435,0.0454 -0.269859,0.0871 -0.406021,0.12671 -0.151307,0.0457 -0.302146,0.0925 -0.45397,0.1365 -0.260643,0.0733 -0.521758,0.14542 -0.785854,0.20531 0.117348,-0.0243 0.234987,-0.0472 0.352044,-0.0728 0.05889,-0.0129 -0.118177,0.024 -0.177525,0.0346 -0.283178,0.0506 -0.569828,0.0782 -0.856274,0.10228 -0.618993,0.0488 -1.239422,0.065 -1.860264,0.0472 -0.739701,-0.0216 -1.484183,-0.0487 -2.208832,-0.21266 -0.546843,-0.15204 -1.116814,-0.34012 -1.487625,-0.7966 0,0 -0.472866,0.11754 -0.472866,0.11754 z" />
    <path
       style="fill:#999999;fill-opacity:0.987952;stroke-width:1.30837"
       d="m 342.67983,705.78585 c -2.98276,-0.52582 -6.01314,-1.88954 -5.74597,-2.58578 0.11753,-0.30626 0.0164,-0.55684 -0.22477,-0.55684 -0.53171,0 -0.58226,-1.27852 -0.0713,-1.80216 0.9658,-0.98967 2.47476,-8.80126 3.37609,-17.47736 0.70261,-6.76326 2.93694,-24.92565 3.23055,-26.26042 0.16897,-0.76815 0.71209,0.26349 2.50224,4.75294 3.74544,9.39307 6.43896,15.00923 11.44966,23.87326 5.05894,8.94936 9.46485,17.5493 9.15142,17.86273 -0.10464,0.10464 -1.79054,0.67331 -3.74645,1.26371 -3.20337,0.96694 -4.26353,1.08475 -10.68561,1.18735 -3.92117,0.0626 -8.07733,-0.0532 -9.2359,-0.25743 z"
       id="path7488"
       transform="scale(0.26458333)" />
  </g>
</svg>
