<?xml version="1.0" encoding="UTF-8" standalone="no"?>
<!-- Created with Inkscape (http://www.inkscape.org/) -->

<svg
   width="210mm"
   height="297mm"
   viewBox="0 0 210 297"
   version="1.1"
   id="svg10812"
   sodipodi:docname="folha-asa.svg"
   inkscape:version="1.2 (dc2aedaf03, 2022-05-15)"
   xmlns:inkscape="http://www.inkscape.org/namespaces/inkscape"
   xmlns:sodipodi="http://sodipodi.sourceforge.net/DTD/sodipodi-0.dtd"
   xmlns="http://www.w3.org/2000/svg"
   xmlns:svg="http://www.w3.org/2000/svg">
  <sodipodi:namedview
     id="namedview10814"
     pagecolor="#505050"
     bordercolor="#eeeeee"
     borderopacity="1"
     inkscape:showpageshadow="0"
     inkscape:pageopacity="0"
     inkscape:pagecheckerboard="0"
     inkscape:deskcolor="#505050"
     inkscape:document-units="mm"
     showgrid="false"
     inkscape:zoom="1.7852694"
     inkscape:cx="341.68513"
     inkscape:cy="549.49691"
     inkscape:window-width="2560"
     inkscape:window-height="1369"
     inkscape:window-x="2552"
     inkscape:window-y="-8"
     inkscape:window-maximized="1"
     inkscape:current-layer="layer1" />
  <defs
     id="defs10809" />
  <g
     inkscape:label="Camada 1"
     inkscape:groupmode="layer"
     id="layer1">
    <path
       id="path10935"
       style="fill:#000000;stroke-width:0.874001"
       d="m 125.54944,109.46877 c -0.0994,0.10267 -0.19649,0.20769 -0.29765,0.30851 -0.24231,0.23304 -0.48376,0.46622 -0.73123,0.6935 0.007,0.011 0.0131,0.022 0.0196,0.0331 8.8e-4,0.001 0.0132,0.0181 0.0295,0.0408 0.0545,-0.0497 0.10742,-0.10104 0.16226,-0.15037 0.2832,-0.27588 0.57343,-0.54433 0.85525,-0.82166 -0.02,-0.0348 -0.0331,-0.0696 -0.0377,-0.10387 z m -3.39411,8.75037 c -0.22143,0.38607 -0.44225,0.77247 -0.65732,1.1622 -0.77871,1.3678 -1.56076,2.73403 -2.30942,4.11862 -0.78766,1.47712 -1.54499,2.97104 -2.23345,4.4974 -0.74648,1.65486 -1.4635,3.32288 -2.14561,5.00537 -0.83342,1.99054 -1.70745,3.9636 -2.62051,5.91902 -1.0328,2.23668 -2.11558,4.44996 -3.11609,6.7014 -0.93309,2.18676 -1.79933,4.4015 -2.57245,6.65024 -0.31545,0.92055 -0.63316,1.84028 -0.95395,2.75901 0.003,9.3e-4 0.006,0.002 0.009,0.003 0.0173,0.0166 0.0152,0.0167 0.0145,0.0403 0,-0.0133 -0.006,0.0229 -0.007,0.0238 -0.0121,0.0455 -0.0266,0.0902 -0.0413,0.13488 -0.0384,0.1105 -0.0826,0.2191 -0.12867,0.32659 -0.0387,0.0877 -0.0798,0.17422 -0.12247,0.25993 -0.31758,0.90076 -0.63943,1.80002 -0.97049,2.69596 -0.68431,1.92549 -1.37185,3.84968 -2.03346,5.78311 -0.61942,1.86768 -1.16841,3.75636 -1.75028,5.63583 -0.635685,2.03399 -1.290132,4.06446 -1.787493,6.13813 -0.493308,2.18567 -0.902289,4.38927 -1.091406,6.62492 -0.219641,2.34426 -0.375776,4.69433 -0.651123,7.03316 -0.251396,2.11408 -0.528573,4.22551 -0.747241,6.34328 -0.0497,-1.19003 -0.08956,-2.38008 -0.122473,-3.57084 -0.08497,-2.27447 -0.217688,-4.54741 -0.276986,-6.82284 -0.06889,-3.17501 -0.109813,-6.35449 0.07855,-9.52655 0.0397,-0.52906 0.0717,-1.05905 0.118856,-1.5875 0.220004,-2.4656 0.635465,-4.90943 1.137398,-7.33185 0.730176,-3.33159 1.58351,-6.63237 2.599325,-9.88932 0.825535,-2.83864 1.592625,-5.69117 2.240685,-8.57622 0.70827,-2.81335 1.47505,-5.61963 2.58796,-8.30492 0.52144,-1.22657 0.60521,-1.45738 1.18132,-2.67425 0.88451,-1.86832 1.86392,-3.68914 2.80913,-5.5268 1.32394,-2.52942 2.71638,-5.02091 4.16771,-7.47965 0.85091,-1.46878 1.69349,-2.94354 2.58227,-4.38991 0.0627,-0.13351 0.12711,-0.26628 0.19069,-0.39894 0.0657,-0.14821 0.13029,-0.29681 0.19482,-0.44545 -1.11766,1.74861 -2.15165,3.54978 -3.19412,5.34386 -1.45456,2.45797 -2.8629,4.94102 -4.19923,7.46518 -0.95097,1.83465 -1.93934,3.65146 -2.8298,5.51697 -0.58625,1.22819 -0.66333,1.4421 -1.19424,2.67994 -1.11975,2.68518 -1.89422,5.49254 -2.6107,8.30647 -0.66297,2.88062 -1.42316,5.73406 -2.245855,8.5726 -1.009499,3.25857 -1.876558,6.55627 -2.60966,9.88726 -0.50097,2.42182 -0.94706,4.86327 -1.160653,7.32978 -0.04583,0.52929 -0.07365,1.0601 -0.110588,1.59009 -0.176548,3.16175 -0.152016,6.33057 -0.102319,9.49554 0.05063,2.26752 0.173294,4.53222 0.24443,6.79907 0.0337,1.60346 0.0816,3.2064 0.156062,4.80849 0.0378,0.74821 0.07417,1.49657 0.109555,2.24482 -0.0013,0.0904 -0.0058,0.18082 -0.0057,0.27131 0.0011,0.10106 0.0032,0.36345 0.0078,0.36586 0.0028,0.001 0.0039,0.002 0.0067,0.003 -4.79e-4,0.008 -7.47e-4,0.0165 -0.001,0.0248 -0.01108,0.1417 -0.02188,0.18818 0.218075,0.0868 0.210561,0.10396 0.23296,0.0855 0.247013,-0.0646 0.01283,-0.17784 6.57e-4,-0.35644 -0.01292,-0.53382 -0.01359,-0.20575 -0.0251,-0.41174 -0.03824,-0.61753 0.01669,-0.8729 0.09827,-1.74455 0.172599,-2.61379 0.205592,-2.26377 0.492706,-4.51946 0.760678,-6.77633 0.281713,-2.35579 0.42498,-4.72437 0.646989,-7.08588 0.197218,-2.23584 0.59849,-4.44324 1.091406,-6.6306 0.496176,-2.08095 1.148857,-4.11941 1.788517,-6.15931 0.58527,-1.87972 1.13347,-3.77014 1.75804,-5.63739 0.66733,-1.93556 1.34891,-3.86629 2.03605,-5.79499 0.76488,-2.06782 1.48121,-4.15263 2.19521,-6.23838 0.76458,-2.25357 1.63342,-4.46954 2.56677,-6.65799 1.01778,-2.24097 2.07701,-4.46293 3.1073,-6.6983 0.917,-1.95625 1.79376,-3.92989 2.6293,-5.92212 0.68051,-1.69713 1.39982,-3.37735 2.14199,-5.04827 0.68045,-1.5339 1.4489,-3.02564 2.22932,-4.51032 0.63522,-1.18477 1.30807,-2.34861 1.96784,-3.51968 0.0386,-0.0904 0.0785,-0.18021 0.12041,-0.26924 0.0487,-0.10351 0.0974,-0.20694 0.14004,-0.31315 0.0537,-0.12319 0.10083,-0.24942 0.15193,-0.37363 0.05,-0.11143 0.0968,-0.22375 0.13746,-0.33899 0.0432,-0.10384 0.0757,-0.2115 0.11058,-0.31833 z" />
    <path
       id="path10939"
       style="fill:#000000;stroke-width:0.874001"
       d="m 105.17394,156.07678 c -0.004,0.0133 -0.008,0.0265 -0.0119,0.0398 -0.0413,0.11116 -0.0834,0.25797 -0.1664,0.35088 0.22767,0.36532 0.44137,0.73872 0.62167,1.1312 0.41008,0.87704 0.78058,1.77141 1.18287,2.65203 0.42541,0.90854 0.86875,1.80876 1.30845,2.71043 0.48128,0.97625 0.96396,1.95267 1.38699,2.95589 0.52593,1.29812 0.99261,2.61848 1.50689,3.92121 0.5666,1.35524 1.1458,2.70842 1.5999,4.10673 0.45258,1.47857 0.80499,2.98183 0.9679,4.52272 0.16969,1.44119 0.30257,2.88711 0.34726,4.33824 0.0373,1.43856 0.0152,2.87704 -0.0589,4.31446 -0.0711,1.58549 -0.17872,3.16937 -0.34416,4.74803 -0.21095,1.91106 -0.45222,3.82069 -0.84646,5.70405 -0.35655,1.61303 -0.75806,3.21781 -1.29553,4.78162 -0.57858,1.66445 -1.22473,3.30449 -1.88981,4.93613 -0.65288,1.56919 -1.33658,3.12547 -2.07171,4.65811 -0.76004,1.57292 -1.53695,3.13754 -2.30786,4.70514 -0.8481,1.69517 -1.71798,3.37882 -2.59416,5.05964 -0.82601,1.57792 -1.68503,3.13805 -2.58589,4.67465 -0.873894,1.46048 -1.810864,2.87824 -2.793628,4.26796 -0.748195,1.12357 -1.475208,2.26227 -2.118734,3.44992 -0.240135,0.44098 -0.481333,0.88202 -0.697632,1.33532 -0.114028,-0.21421 -0.226562,-0.42952 -0.346749,-0.64027 -0.431825,-0.74203 -0.871771,-1.4797 -1.271757,-2.23966 -0.543474,-1.06035 -1.039885,-2.14497 -1.477429,-3.25355 -0.556203,-1.38816 -1.103143,-2.78083 -1.588533,-4.19561 -0.550627,-1.63331 -1.067955,-3.27774 -1.598869,-4.91753 -0.577059,-1.787 -1.099365,-3.59209 -1.523938,-5.42189 -0.474379,-2.11194 -0.890734,-4.23796 -1.158069,-6.38721 -0.309176,-2.60008 -0.529266,-5.21003 -0.591178,-7.82898 -0.06348,-2.50955 -0.110877,-5.02472 0.08527,-7.53029 0.203512,-2.34898 0.511234,-4.6879 0.962732,-7.00319 0.434704,-2.22373 0.885473,-4.44508 1.443322,-6.64197 0.500917,-2.04651 1.011326,-4.09142 1.588534,-6.11797 0.571038,-1.98402 1.150561,-3.96836 1.892391,-5.8968 0.800498,-1.98838 1.706332,-3.93122 2.728516,-5.81618 0.296744,-0.54952 0.601826,-1.09425 0.910022,-1.63711 -0.111541,0.12783 -0.220486,0.25808 -0.325045,0.39171 -0.108927,0.13952 -0.218801,0.27835 -0.328146,0.41754 -0.01981,0.0257 -0.0266,0.0343 -0.03049,0.0326 -0.0053,0.009 -0.01123,0.0196 -0.0186,0.031 -0.01361,0.0211 -0.0496,0.0584 -0.08165,0.0455 -0.147051,0.26345 -0.29634,0.52556 -0.439766,0.79117 -1.023764,1.88974 -1.938338,3.83412 -2.741435,5.82703 -0.746607,1.93099 -1.331428,3.91852 -1.908411,5.90507 -0.577885,2.0191 -1.086812,4.05728 -1.601452,6.09316 -0.552968,2.19413 -1.011756,4.41016 -1.449524,6.62957 -0.460621,2.30668 -0.777043,4.63736 -0.983403,6.97942 -0.202318,2.49518 -0.161046,5.0005 -0.100769,7.50032 0.05996,2.61248 0.259201,5.21752 0.564824,7.81193 0.27222,2.13272 0.678547,4.24545 1.143082,6.3438 0.40993,1.81804 0.955168,3.60073 1.524972,5.37383 0.555676,1.60663 1.084606,3.22211 1.625224,4.83381 0.480606,1.41432 1.026322,2.80513 1.577681,4.19303 0.434715,1.10981 0.930487,2.19436 1.471228,3.25613 0.397216,0.75991 0.836035,1.49702 1.265039,2.23914 0.176694,0.31055 0.337893,0.62944 0.506946,0.94413 0.03968,0.0769 0.07531,0.15597 0.100769,0.23874 0.03864,0.14405 -0.01166,0.0596 0.258382,0.10232 0.164983,0.16953 0.216082,0.25677 0.180868,0.10335 -0.0067,-0.024 -0.01578,-0.0473 -0.02377,-0.0708 0.02449,0.006 0.04405,0.01 0.07183,0.017 0.242407,-0.54594 0.527613,-1.07107 0.810286,-1.5968 0.636823,-1.18101 1.352507,-2.31552 2.09703,-3.4308 0.980473,-1.38383 1.914902,-2.79569 2.782255,-4.25297 0.90733,-1.5417 1.77107,-3.10777 2.60605,-4.68964 0.87913,-1.68812 1.75113,-3.37994 2.60552,-5.08082 0.7837,-1.58286 1.57288,-3.16336 2.34766,-4.75062 0.74039,-1.53129 1.42852,-3.08669 2.0836,-4.65604 0.67432,-1.64909 1.32751,-3.30708 1.91461,-4.98936 0.53976,-1.56588 0.94314,-3.1713 1.29398,-4.78834 0.39264,-1.90341 0.64302,-3.83168 0.85731,-5.76192 0.16864,-1.5792 0.27985,-3.16363 0.35708,-4.74958 0.0656,-1.43893 0.0914,-2.87921 0.0538,-4.31912 -0.0407,-1.45439 -0.18051,-2.9022 -0.3483,-4.34651 -0.16443,-1.54501 -0.51736,-3.0521 -0.96842,-4.53564 -0.45777,-1.41253 -1.04175,-2.7794 -1.59422,-4.15633 -0.52397,-1.30636 -0.98077,-2.63727 -1.50792,-3.9424 -0.42722,-1.01616 -0.91078,-2.00752 -1.38906,-3.00033 -0.44579,-0.9069 -0.88957,-1.81456 -1.32292,-2.72748 -0.4072,-0.88938 -0.79132,-1.78895 -1.23144,-2.66289 -0.25123,-0.50903 -0.55304,-0.98505 -0.89866,-1.42885 z m -10.274306,2.90525 c -0.02192,0.0285 -0.04367,0.0572 -0.06563,0.0858 0.01275,-0.0126 0.02546,-0.0252 0.03824,-0.0377 0.0093,-0.0159 0.01811,-0.0321 0.02739,-0.0481 z" />
    <path
       style="fill:#000000;stroke-width:0.874001"
       id="path10961"
       d="m 112.1993,199.02366 c 0.75082,0.0358 1.4981,0.11325 2.24312,0.21071 0.92898,0.12623 1.84997,0.29795 2.76288,0.51016 0.97827,0.26036 1.94634,0.55872 2.91448,0.85429 1.02236,0.29014 2.04719,0.57486 3.08164,0.81909 1.10837,0.28774 2.22894,0.52285 3.35504,0.72875 1.22907,0.2051 2.45847,0.40834 3.68823,0.60923 1.07452,0.18064 2.12795,0.45652 3.18095,0.73171 0.91984,0.25573 1.80141,0.62429 2.69191,0.96392 0.91754,0.33674 1.87057,0.55999 2.80621,0.83995 0.97005,0.26956 1.8609,0.75142 2.75643,1.20012 0.92157,0.48242 1.88127,0.8782 2.85997,1.22703 0.97797,0.33412 1.97371,0.61259 2.96359,0.90868 0.83704,0.24191 1.65866,0.53127 2.46748,0.85437 0.66136,0.26351 1.30102,0.57593 1.93784,0.89301 0.48311,0.23731 0.96403,0.47903 1.44503,0.72057 0.19027,0.0957 0.38015,0.19246 0.57347,0.28193 0.0588,0.029 0.12132,0.0481 0.185,0.0627 0.004,7.9e-4 0.008,0.001 0.0117,0.002 0.18785,-0.0418 0.38577,-0.0517 0.56355,-0.12544 0.006,-0.002 0.0107,-0.51879 0.0102,-0.57085 -0.002,-0.54942 -0.002,-1.09881 -0.008,-1.64821 -0.0111,-0.72655 -0.0298,-1.45283 -0.0574,-2.17894 -0.0369,-0.82813 -0.10835,-1.65437 -0.19324,-2.47881 -0.0821,-0.94537 -0.25878,-1.87705 -0.49084,-2.79599 -0.29046,-0.99453 -0.51526,-2.00458 -0.7146,-3.02065 -0.19641,-1.04346 -0.34088,-2.09569 -0.50666,-3.14422 -0.23644,-1.51157 -0.48234,-3.02164 -0.72113,-4.53286 -0.25287,-1.69426 -0.61985,-3.36722 -1.02145,-5.03145 -0.39528,-1.66246 -0.88641,-3.29856 -1.39669,-4.92855 -0.48489,-1.52424 -0.98583,-3.04318 -1.45072,-4.57369 -0.39942,-1.31662 -0.69287,-2.66132 -0.97857,-4.00612 -0.25593,-1.27 -0.52508,-2.53721 -0.78151,-3.80712 -0.21609,-1.16692 -0.46997,-2.32557 -0.76903,-3.47391 -0.22621,-0.86692 -0.4772,-1.72704 -0.71393,-2.59105 -0.13797,-0.49856 -0.22684,-1.00791 -0.31863,-1.5163 -0.0785,-0.45037 -0.18436,-0.89477 -0.30824,-1.3346 -0.1169,-0.38909 -0.25684,-0.77078 -0.39341,-1.15327 -0.11044,-0.30881 -0.20076,-0.62406 -0.30131,-0.9361 -0.0897,-0.26973 -0.1482,-0.54788 -0.20826,-0.82523 -0.0717,-0.32709 -0.14534,-0.65355 -0.23147,-0.97718 -0.0923,-0.34281 -0.18927,-0.68446 -0.29321,-1.02392 -0.13437,-0.42388 -0.29309,-0.83934 -0.44517,-1.25702 -0.14075,-0.39139 -0.28353,-0.78202 -0.42664,-1.17256 -0.0928,-0.26739 -0.19749,-0.53015 -0.30272,-0.7928 -0.0863,-0.24493 -0.19058,-0.48007 -0.31275,-0.70904 -0.29233,-0.56318 -0.5891,-1.12361 -0.90451,-1.67424 -0.55201,-0.91315 -1.05675,-1.85328 -1.57793,-2.78401 -0.6852,-1.18619 -1.40939,-2.34948 -2.13305,-3.51246 -0.65847,-1.08764 -1.38932,-2.12744 -2.13456,-3.15651 -0.61757,-0.8386 -1.20127,-1.70108 -1.78508,-2.56326 -0.52936,-0.79557 -1.12288,-1.54472 -1.73027,-2.28136 -0.49431,-0.60416 -1.01348,-1.18744 -1.50968,-1.78994 -0.48592,-0.6625 -1.02247,-1.27825 -1.60541,-1.85628 -0.57756,-0.55609 -1.21159,-1.0476 -1.84566,-1.53645 -0.57749,-0.43319 -1.15242,-0.86845 -1.65798,-1.38522 -0.44556,-0.49441 -0.79895,-1.0619 -1.15565,-1.62136 -0.25327,-0.43163 -0.54672,-0.82907 -0.90873,-1.17455 -0.30005,-0.27266 -0.65738,-0.46512 -1.01219,-0.65524 -0.39472,-0.20656 -0.75299,-0.47343 -1.09776,-0.75358 -0.2989,-0.27142 -0.6074,-0.53185 -0.92852,-0.77659 -0.18118,-0.14386 -0.26018,-0.17739 -0.48674,-0.12772 0,0 -0.0328,0.039 -0.0328,0.039 v 0 c 0.0498,0.16217 0.14483,0.25715 0.29005,0.34684 0.32324,0.24158 0.63247,0.50045 0.93036,0.77272 0.34638,0.28094 0.70526,0.55029 1.09917,0.76177 0.35094,0.18974 0.70202,0.38458 0.99515,0.65964 0.35319,0.35054 0.64471,0.74691 0.89348,1.17829 0.35384,0.56118 0.7082,1.12756 1.1545,1.62135 0.50316,0.51736 1.07079,0.9592 1.64751,1.39168 0.63372,0.49108 1.26809,0.98414 1.84401,1.54358 0.5825,0.57725 1.11338,1.19637 1.59653,1.85961 0.4943,0.60424 1.01381,1.18741 1.50787,1.79195 0.60541,0.73302 1.19679,1.47853 1.72049,2.27313 0.58239,0.86019 1.15985,1.72394 1.77637,2.56036 0.74433,1.02396 1.46797,2.06279 2.12812,3.1437 0.72264,1.15914 1.44235,2.32054 2.11847,3.50767 0.51838,0.9285 1.01805,1.86753 1.56292,2.78105 0.3101,0.54918 0.59857,1.10951 0.88215,1.67279 0.116,0.22553 0.21823,0.45532 0.29941,0.69585 0.10355,0.2574 0.20184,0.51673 0.29831,0.7769 0.14611,0.38929 0.28768,0.78025 0.42699,1.17202 0.15145,0.41725 0.3093,0.83241 0.44135,1.25641 0.10066,0.34025 0.19956,0.6811 0.28965,1.02432 0.0856,0.32328 0.16058,0.6488 0.22967,0.97596 0.0617,0.27871 0.11919,0.55854 0.20841,0.8302 0.10126,0.31209 0.19277,0.62727 0.304,0.93607 0.13464,0.37682 0.26892,0.75404 0.38358,1.13754 0.12244,0.43313 0.21884,0.87344 0.29733,1.31662 0.082,0.50571 0.18062,1.00901 0.31674,1.50325 0.23138,0.84847 0.48677,1.69043 0.70452,2.54269 0.29261,1.1492 0.54722,2.30708 0.76333,3.47325 0.25048,1.25914 0.50285,2.51796 0.7577,3.7762 0.28518,1.34634 0.57957,2.69199 0.98041,4.00971 0.46644,1.53442 0.97024,3.05688 1.45769,4.5847 0.50542,1.6232 0.99019,3.25307 1.38317,4.90785 0.40062,1.66557 0.7584,3.34129 1.01355,5.03611 0.23622,1.4993 0.46324,3.00016 0.682,4.50211 0.151,1.02911 0.30216,2.05859 0.48423,3.08274 0.19386,1.01779 0.42013,2.02794 0.70838,3.02371 0.22812,0.90566 0.40177,1.82376 0.48893,2.75458 0.0835,0.81234 0.16723,1.62518 0.19492,2.44185 0.0287,0.74802 0.0443,1.4962 0.0518,2.24476 0.002,0.54936 0.002,1.09869 -0.003,1.64804 -5e-5,0.15131 0.002,0.30328 -0.007,0.45443 -0.002,0.036 -0.0439,0.0971 -0.009,0.10771 0.16869,0.052 0.72057,0.0687 0.52681,0.0537 -0.0633,-0.007 -0.12631,-0.0229 -0.18464,-0.0486 -0.19757,-0.0853 -0.38932,-0.18366 -0.58235,-0.27854 -0.48425,-0.24049 -0.96835,-0.48127 -1.45358,-0.71979 -0.64386,-0.31776 -1.29109,-0.62947 -1.95874,-0.89491 -0.81803,-0.32506 -1.64921,-0.61464 -2.49629,-0.85531 -0.99177,-0.2955 -1.98934,-0.57331 -2.96971,-0.9054 -0.97999,-0.3468 -1.9407,-0.74109 -2.86435,-1.2206 -0.90378,-0.45021 -1.80177,-0.91892 -2.76292,-1.23852 -0.94149,-0.28294 -1.89342,-0.53167 -2.82082,-0.86013 -0.9061,-0.33607 -1.80768,-0.68886 -2.73926,-0.94999 -1.04882,-0.31648 -2.11697,-0.56066 -3.19605,-0.75044 -1.23019,-0.23564 -2.47059,-0.40953 -3.70362,-0.62927 -1.12738,-0.20561 -2.24919,-0.43945 -3.36073,-0.71933 -1.03691,-0.27396 -2.07853,-0.53035 -3.10557,-0.84043 -0.98054,-0.28592 -1.95036,-0.61031 -2.94253,-0.85539 -0.92278,-0.21013 -1.85276,-0.3844 -2.79175,-0.50554 -0.75602,-0.0916 -1.51396,-0.16519 -2.27513,-0.19746 0,0 -0.25851,0.1315 -0.25851,0.1315 z" />
    <path
       id="path10965"
       style="fill:#000000;stroke-width:0.874001"
       d="m 114.1119,121.78792 c -0.68912,0.54834 -1.43938,1.01027 -2.2071,1.43867 -1.02782,0.52926 -2.04794,1.07181 -3.05615,1.63762 -1.03139,0.59491 -2.0581,1.19798 -3.10162,1.77147 -1.04657,0.5641 -2.11118,1.09317 -3.17293,1.62781 -1.31199,0.64272 -2.590131,1.349 -3.849377,2.08876 -1.26514,0.75985 -2.52184,1.53402 -3.797701,2.27583 -1.467985,0.84273 -2.965998,1.63049 -4.431254,2.47789 -1.655563,0.9825 -3.284575,2.00907 -4.923213,3.01945 -1.492111,0.90409 -2.967298,1.836 -4.424537,2.79518 -1.406839,0.91196 -2.723609,1.9497 -3.991487,3.04426 -1.127732,0.9988 -2.179813,2.0786 -3.224093,3.16311 -1.039184,1.09285 -2.075097,2.18845 -3.078882,3.31401 -0.870293,0.95856 -1.659366,1.98412 -2.428275,3.0241 -0.619342,0.84905 -1.228774,1.70377 -1.783354,2.59675 -0.579259,0.96785 -1.113233,1.96164 -1.654163,2.95124 -0.642849,1.14382 -1.244356,2.30991 -1.833479,3.48195 -0.630843,1.25827 -1.265821,2.51421 -1.873788,3.78375 -0.551038,1.14426 -1.057661,2.30859 -1.568379,3.47111 -0.462349,1.05622 -0.92645,2.11153 -1.379244,3.1719 -0.443499,1.03074 -0.825955,2.08596 -1.196827,3.14451 -0.398831,1.15504 -0.76396,2.32153 -1.133781,3.48609 -0.346712,1.10677 -0.679319,2.2181 -0.976167,3.33933 -0.270629,1.0081 -0.447439,2.03615 -0.585494,3.06958 -0.145314,1.21701 -0.317155,2.43006 -0.547771,3.63389 -0.222095,1.19677 -0.483363,2.3854 -0.774112,3.56722 -0.270799,1.03937 -0.542554,2.07857 -0.787549,3.12436 -0.192825,0.87716 -0.363404,1.75903 -0.526066,2.64222 -0.122314,0.65849 -0.271856,1.31149 -0.421163,1.96422 -0.08106,0.36315 -0.170789,0.72388 -0.243396,1.08882 -0.02429,0.11096 -0.05243,0.22126 -0.0739,0.3328 0.01,0.073 0.0077,0.14524 0.0041,0.21859 -0.006,0.13921 -0.04567,0.27342 -0.0832,0.40669 -0.01998,0.0635 -0.05072,0.10147 -0.01705,0.15916 0.369625,-0.0107 0.790381,-0.24304 1.143083,-0.38498 0.386459,-0.13444 0.76238,-0.32323 1.161169,-0.42117 0.05923,-0.0146 -0.114513,0.043 -0.171565,0.0646 0.615909,-0.18334 1.250462,-0.2911 1.881022,-0.4098 0.870139,-0.17794 1.750331,-0.29063 2.630847,-0.40101 1.001719,-0.11465 2.007046,-0.19571 3.011702,-0.27957 0.901386,-0.0834 1.803435,-0.16039 2.705262,-0.23977 0.860612,-0.0623 1.71946,-0.1414 2.573486,-0.2651 0.915283,-0.13022 1.815506,-0.34245 2.718697,-0.53589 0.865451,-0.18241 1.73395,-0.3498 2.601392,-0.52245 0.773955,-0.15517 1.550278,-0.29981 2.330607,-0.41909 0.62542,-0.0935 1.250696,-0.18857 1.877921,-0.26924 0.489103,-0.0594 0.979338,-0.10677 1.469678,-0.15503 0.572676,-0.0568 1.148577,-0.0611 1.723409,-0.0522 0.631564,0.0139 1.262773,0.0365 1.893941,0.0625 0.468797,0.0193 0.93863,0.0236 1.407666,0.0124 0.314936,-0.0149 0.62913,-0.0381 0.943612,-0.0605 0.239712,-0.0163 0.479944,-0.0273 0.719336,-0.0481 0.14523,-0.0129 0.290344,-0.0272 0.435115,-0.0444 0.05916,-0.003 0.114282,-0.0101 0.170016,-0.0295 0.04672,-0.0531 0.09385,-0.10613 0.14056,-0.15916 0.07438,-0.0121 0.148858,-0.0241 0.223242,-0.0362 0.06131,-0.0319 -0.08696,-4e-5 -0.100252,-0.002 -0.14495,0.0156 -0.289609,0.0351 -0.435116,0.0455 -0.236411,0.0209 -0.473187,0.0306 -0.710034,0.045 -0.310999,0.0173 -0.62151,0.0438 -0.93276,0.0568 -0.464642,0.009 -0.929414,0.007 -1.393713,-0.0155 -0.632938,-0.0257 -1.266568,-0.047 -1.899626,-0.0692 -0.574269,-0.009 -1.149455,-0.0101 -1.721858,0.0444 -0.490569,0.048 -0.980973,0.0967 -1.469678,0.16123 -0.629664,0.081 -1.257108,0.1788 -1.885156,0.2713 -0.779504,0.1328 -1.559155,0.26654 -2.333708,0.42633 -0.871536,0.17365 -1.741744,0.35208 -2.611727,0.5333 -0.90693,0.19568 -1.813414,0.39994 -2.731099,0.5395 -0.857848,0.11709 -1.718118,0.20375 -2.581238,0.27182 -0.905037,0.081 -1.809797,0.16956 -2.716113,0.23461 -1.004611,0.0831 -2.0099,0.16422 -3.011703,0.27699 -0.877246,0.10734 -1.750406,0.24612 -2.618962,0.40979 -0.629929,0.1177 -1.263836,0.2237 -1.879988,0.40308 -0.634682,0.20358 -1.272546,0.40146 -1.888774,0.65732 -0.02566,0.0103 -0.115691,0.0461 -0.202055,0.0806 0.0058,-0.0256 0.01237,-0.0554 0.01602,-0.0615 0.03572,-0.13585 0.06424,-0.27499 0.07235,-0.41547 0.0024,-0.0712 -6.59e-4,-0.1411 -0.0041,-0.21188 0.01712,-0.11113 0.04985,-0.21937 0.06873,-0.33021 0.0696,-0.36755 0.144696,-0.73355 0.226342,-1.09864 0.140528,-0.64714 0.279835,-1.29515 0.40411,-1.94562 0.167291,-0.87533 0.322546,-1.75338 0.517281,-2.62309 0.244412,-1.04531 0.516674,-2.08341 0.784965,-3.12281 0.291277,-1.18514 0.540803,-2.37982 0.768946,-3.57859 0.217959,-1.20668 0.401619,-2.41916 0.54932,-3.63647 0.140121,-1.03136 0.316184,-2.05716 0.584977,-3.0639 0.296693,-1.12414 0.617159,-2.24188 0.970484,-3.34967 0.370077,-1.1642 0.73447,-2.3308 1.134814,-3.48506 0.37206,-1.05863 0.749095,-2.11663 1.196309,-3.14657 0.452194,-1.06242 0.908318,-2.1227 1.368392,-3.18172 0.499108,-1.17302 1.009641,-2.34167 1.558562,-3.49229 0.607148,-1.27203 1.231761,-2.53563 1.860351,-3.79719 0.593082,-1.1759 1.200677,-2.34438 1.831413,-3.50056 0.541027,-0.99033 1.078153,-1.98363 1.65933,-2.95124 0.553209,-0.88627 1.150015,-1.74362 1.778703,-2.57814 0.764795,-1.03718 1.550669,-2.05918 2.41639,-3.01532 1.004148,-1.1275 2.02366,-2.24041 3.070614,-3.32848 1.045323,-1.08653 2.093366,-2.17207 3.216341,-3.17965 1.07118,-0.94538 2.212339,-1.80062 3.411678,-2.57865 1.458057,-0.96008 2.935151,-1.89057 4.426086,-2.7988 1.651051,-1.00341 3.2854,-2.0344 4.950602,-3.01428 1.464639,-0.84701 2.965226,-1.62895 4.42557,-2.48357 1.277809,-0.74277 2.544324,-1.5042 3.806486,-2.27325 1.258063,-0.74144 2.533851,-1.45333 3.852481,-2.08256 1.07223,-0.52393 2.13655,-1.06418 3.18688,-1.63091 1.0507,-0.5784 2.08031,-1.19419 3.12229,-1.788 1.0125,-0.57372 2.04313,-1.11187 3.07423,-1.65106 0.77617,-0.43753 1.53337,-0.91018 2.23036,-1.46762 z m -62.637523,81.09789 v 5.1e-4 c -0.01539,0.006 -0.03015,0.0109 -0.04444,0.0176 4.2e-4,-0.002 5e-4,-0.002 0.0016,-0.004 0.0084,-0.003 0.03711,-0.0116 0.04289,-0.0139 z" />
    <path
       style="fill:#000000;stroke-width:0.874001"
       id="path10967"
       d="m 154.49923,211.81243 c -0.34083,-0.58862 -0.62675,-1.20526 -0.89525,-1.82939 -0.3513,-0.86146 -0.65839,-1.74001 -0.98304,-2.61168 -0.47121,-1.30078 -0.9358,-2.60389 -1.41208,-3.90283 -0.59687,-1.6231 -1.20078,-3.24346 -1.82183,-4.85746 -0.76303,-1.96276 -1.62379,-3.88424 -2.5267,-5.78593 -0.92037,-1.96055 -1.93633,-3.87009 -3.03285,-5.737 -1.18966,-1.99285 -2.48444,-3.91949 -3.7725,-5.84924 -1.10872,-1.66315 -2.24436,-3.30792 -3.45248,-4.90055 -1.06845,-1.39803 -2.3288,-2.62989 -3.56286,-3.87851 -1.15898,-1.18152 -2.40024,-2.27587 -3.69489,-3.30539 -1.21834,-0.93046 -2.48132,-1.80109 -3.7318,-2.68758 -1.13317,-0.80936 -2.29307,-1.58008 -3.44087,-2.36833 -0.73598,-0.52448 -1.48329,-1.03212 -2.25644,-1.50026 -0.56426,-0.35174 -1.17661,-0.59979 -1.80737,-0.80143 0,0 -0.037,-0.005 -0.037,-0.005 v 0 c 0.55818,0.21198 1.10207,0.45847 1.61373,0.7684 0.78129,0.45388 1.5289,0.95993 2.2696,1.47707 1.15119,0.78868 2.31497,1.55914 3.45213,2.36808 1.24689,0.88485 2.50398,1.75661 3.72271,2.6801 1.29192,1.0277 2.53429,2.11628 3.69775,3.28865 1.23341,1.24461 2.49526,2.47183 3.57051,3.85968 1.21901,1.58839 2.35299,3.23851 3.4671,4.90177 1.29483,1.92197 2.58744,3.84694 3.7759,5.83734 1.0954,1.86539 2.10916,3.77477 3.03529,5.73034 0.90371,1.90057 1.77275,3.81865 2.52718,5.78423 0.62282,1.61506 1.21504,3.24163 1.82009,4.86341 0.47769,1.29946 0.9464,2.6022 1.42235,3.9023 0.3254,0.88382 0.65195,1.7678 1.01191,2.63824 0.27239,0.62826 0.56412,1.24787 0.90932,1.84009 0,0 0.13242,0.0813 0.13242,0.0813 z" />
    <path
       style="fill:#000000;stroke-width:0.874001"
       id="path10969"
       d="m 51.318908,202.49807 c 0.658463,-0.93196 1.336895,-1.84955 2.007156,-2.77302 1.041135,-1.44285 2.107504,-2.8672 3.149706,-4.30926 1.274669,-1.81733 2.571988,-3.61804 3.882665,-5.40952 1.517501,-2.03332 2.905881,-4.15795 4.308387,-6.27093 1.490369,-2.2681 2.977857,-4.53777 4.504201,-6.78188 1.558835,-2.29915 3.240556,-4.51053 4.923406,-6.71925 1.409973,-1.83511 2.83038,-3.66297 4.34512,-5.41322 1.304546,-1.51395 2.809271,-2.82581 4.336505,-4.10635 1.157374,-0.94349 2.366409,-1.82148 3.577986,-2.69345 0,0 0.01349,-0.0148 0.01349,-0.0148 v 0 c -1.328073,0.90721 -2.642843,1.83333 -3.879257,2.86473 -1.547373,1.26778 -3.056004,2.58909 -4.366792,4.10663 -1.50741,1.74813 -2.935422,3.56045 -4.332459,5.39782 -1.688174,2.19531 -3.365402,4.40112 -4.91299,6.69904 -1.522534,2.2441 -3.010418,4.51095 -4.496707,6.77916 -1.40194,2.11335 -2.801596,4.22914 -4.309121,6.26962 -1.31635,1.78349 -2.614403,3.57999 -3.896722,5.38808 -1.037611,1.44084 -2.0945,2.86774 -3.117752,4.31889 -0.66742,0.92252 -1.340067,1.84127 -2.00369,2.76653 0,0 0.266872,-0.0988 0.266872,-0.0988 z" />
    <path
       id="path10971"
       style="fill:#000000;stroke-width:0.874001"
       d="m 100.73597,154.17457 -0.27854,0.1018 c -0.542176,0.34547 -1.064062,0.71833 -1.555457,1.13275 -0.511896,0.46035 -1.016735,0.92886 -1.519287,1.3994 -0.465557,0.4368 -0.944442,0.85886 -1.423169,1.28106 -0.159587,0.13993 -0.317334,0.28168 -0.474906,0.42374 0.03176,-0.0123 0.0658,-0.0177 0.0987,-0.0269 l 0.08475,-0.0346 c 0.0085,-0.003 0.01532,-0.005 0.02067,-0.006 0.01606,-0.001 0.01773,0.0108 0.0031,0.0341 -0.01606,0.0256 -0.03201,0.0514 -0.04806,0.077 -0.01513,0.0333 -0.02614,0.0686 -0.04547,0.0997 -0.0068,0.011 -0.01601,0.0229 -0.02584,0.0351 0.260662,-0.23859 0.521503,-0.47706 0.784448,-0.71313 0.468244,-0.41958 0.925821,-0.85065 1.378211,-1.28726 0.489049,-0.46514 0.966355,-0.94332 1.470711,-1.39217 0.483068,-0.41104 0.993569,-0.78608 1.530139,-1.12499 z m -7.733378,7.11016 c -0.01888,0.0326 -0.03814,0.065 -0.05684,0.0977 0.0081,-0.008 0.016,-0.0166 0.02377,-0.0258 0.01103,-0.024 0.02173,-0.048 0.03307,-0.0718 z" />
    <path
       style="fill:#000000;stroke-width:0.874001"
       id="path11192"
       d="m 93.663721,161.01504 c 0.04207,-0.1294 0.117652,-0.24563 0.189638,-0.36009 0.118528,-0.18328 0.246943,-0.35981 0.378523,-0.53387 0.138197,-0.17998 0.285986,-0.35231 0.435909,-0.52256 0.139652,-0.16399 0.28007,-0.32738 0.422225,-0.48921 0.127608,-0.1556 0.25732,-0.30931 0.393173,-0.45778 0.117113,-0.12759 0.24502,-0.24439 0.375635,-0.35787 0.04809,-0.0415 0.09877,-0.0798 0.148426,-0.11933 0.01132,-0.009 0.02869,-0.0138 0.03374,-0.0273 0.0029,-0.008 -0.01648,0.002 -0.02471,0.003 0,0 -0.02432,0.0121 -0.02432,0.0121 v 0 c -0.03458,0.0203 -0.06975,0.0396 -0.103728,0.0608 -0.07319,0.0458 -0.137824,0.10438 -0.204049,0.15925 -0.132196,0.11683 -0.261694,0.23714 -0.380873,0.3674 -0.131749,0.14789 -0.256905,0.30125 -0.383871,0.45322 -0.131916,0.1564 -0.267398,0.30978 -0.402635,0.46331 -0.14047,0.16931 -0.285255,0.33526 -0.416377,0.51211 -0.130281,0.1723 -0.262033,0.34373 -0.378132,0.52611 -0.07652,0.12041 -0.154668,0.24066 -0.210828,0.37235 0,0 0.152262,-0.0617 0.152262,-0.0617 z" />
    <path
       style="fill:#000000;stroke-width:0.874001"
       id="path11194"
       d="m 95.904922,158.26261 c -0.05715,0.0816 -0.124127,0.15589 -0.190521,0.23001 -0.01722,0.0189 -0.03413,0.038 -0.05168,0.0566 -0.01865,0.0197 -0.03832,0.0385 -0.0569,0.0583 -0.07121,0.0758 -0.138284,0.15591 -0.205004,0.23567 -0.04225,0.0504 -0.04868,0.056 -0.08676,0.10952 -0.01643,0.0231 -0.05218,0.0705 -0.05678,0.10267 -0.0016,0.0114 0.0055,0.0224 0.0082,0.0336 0,0 0.01834,-0.008 0.01834,-0.008 v 0 c 0.03182,-0.0271 0.06471,-0.053 0.09546,-0.0813 0.07955,-0.0732 0.145378,-0.15979 0.211603,-0.24469 0.09141,-0.1136 0.184256,-0.22603 0.277326,-0.33825 0.05889,-0.0709 0.115779,-0.14327 0.169439,-0.21825 0,0 -0.132741,0.0641 -0.132741,0.0641 z" />
    <path
       style="fill:#000000;stroke-width:0.874001"
       id="path11196"
       d="m 95.682315,158.30464 c -0.05475,0.0963 -0.111945,0.19127 -0.1734,0.28339 -0.07959,0.12188 -0.163777,0.24056 -0.250934,0.35712 -0.09301,0.117 -0.189894,0.23071 -0.286811,0.34447 -0.101544,0.11879 -0.203927,0.23689 -0.303614,0.35725 -0.08286,0.0952 -0.156877,0.19771 -0.226698,0.30274 -0.01836,0.0276 -0.04042,0.0533 -0.05431,0.0835 -0.01024,0.0222 -0.01138,0.0476 -0.01707,0.0715 -0.02005,0.0283 -0.04011,0.0565 -0.06017,0.0848 0,0 0.01879,-0.007 0.01879,-0.007 v 0 c 0.02595,-0.0304 0.05193,-0.0609 0.0779,-0.0913 0.0418,-0.038 0.08573,-0.0737 0.125386,-0.11395 0.02839,-0.0288 0.05234,-0.0617 0.07831,-0.0927 0.09004,-0.10752 0.177215,-0.21735 0.261623,-0.32935 0.09782,-0.11801 0.19663,-0.23517 0.294611,-0.35305 0.09171,-0.11093 0.186002,-0.22063 0.264167,-0.3418 0.07668,-0.11207 0.148056,-0.22746 0.213577,-0.34645 0.04905,-0.0884 0.102116,-0.17453 0.146643,-0.26539 0,0 -0.107976,0.0562 -0.107976,0.0562 z" />
    <path
       style="fill:#000000;stroke-width:0.874001"
       id="path11198"
       d="m 93.9069,160.67162 c 0.07692,-0.10085 0.149127,-0.20512 0.225875,-0.30608 0.14062,-0.19418 0.286255,-0.38469 0.431702,-0.57527 0.02787,-0.0364 0.05589,-0.0727 0.0836,-0.10924 0.06875,-0.0906 0.09842,-0.13231 0.168338,-0.22221 0.0847,-0.10892 0.171844,-0.216 0.257897,-0.32385 0.148897,-0.18797 0.296466,-0.37692 0.440431,-0.56871 0.06945,-0.0974 0.03906,-0.0497 0.09271,-0.14187 0,0 -0.01794,0.009 -0.01794,0.009 v 0 c -0.136803,0.12486 -0.07081,0.0614 -0.198197,0.19014 -0.02909,0.032 -0.05894,0.0634 -0.08728,0.0961 -0.135244,0.15608 -0.254309,0.32535 -0.386979,0.48352 -0.168296,0.21389 -0.340389,0.42488 -0.503471,0.64277 -0.140763,0.18699 -0.282614,0.37316 -0.416393,0.56526 -0.07131,0.1016 -0.150236,0.19752 -0.22008,0.30015 0,0 0.129799,-0.0396 0.129799,-0.0396 z" />
    <path
       style="fill:#000000;stroke-width:0.874001"
       id="path11200"
       d="m 94.960796,159.4092 c 0.102301,-0.10261 0.193556,-0.21581 0.28471,-0.3283 0.02035,-0.0254 0.04109,-0.0505 0.06104,-0.0762 0.02122,-0.0274 0.04122,-0.0556 0.06243,-0.083 0.08903,-0.1148 0.182443,-0.22637 0.274978,-0.33835 0.06281,-0.0722 0.126611,-0.14357 0.18917,-0.216 0.02352,-0.0272 0.06227,-0.0718 0.08227,-0.1037 0.0058,-0.009 0.0089,-0.0197 0.01341,-0.0296 -0.0063,-0.003 -0.0127,-0.007 -0.01905,-0.01 0,0 -0.02193,0.0106 -0.02193,0.0106 v 0 c -0.03174,0.0218 -0.06349,0.0436 -0.09524,0.0654 -0.04559,0.0363 -0.09646,0.0751 -0.13916,0.11522 -0.09028,0.0849 -0.165915,0.18398 -0.242261,0.28107 -0.127643,0.159 -0.255354,0.31812 -0.378079,0.48092 -0.04699,0.0623 -0.09455,0.12411 -0.140954,0.18685 -2.64e-4,5.3e-4 -0.05246,0.0699 -0.05774,0.0782 -0.0044,0.007 -0.0074,0.0148 -0.01117,0.0221 0,0 0.137571,-0.0552 0.137571,-0.0552 z" />
    <path
       style="fill:#000000;stroke-width:0.874001"
       id="path11202"
       d="m 93.889003,160.78407 c 0.08849,-0.11606 0.173519,-0.23449 0.256511,-0.35457 0.02119,-0.0285 0.04285,-0.0568 0.06358,-0.0857 0.02138,-0.0298 0.04146,-0.0605 0.06276,-0.0904 0.08764,-0.12293 0.178795,-0.24345 0.268555,-0.36483 0.02582,-0.0353 0.101094,-0.13171 0.117131,-0.17734 0.0073,-0.0208 0.0021,-0.0441 0.0032,-0.0662 0,0 -0.01865,0.007 -0.01865,0.007 v 0 c -0.04402,0.0386 -0.09021,0.0749 -0.132049,0.11593 -0.06366,0.0624 -0.106918,0.12406 -0.160194,0.19415 -0.128233,0.17581 -0.255918,0.35209 -0.381503,0.52976 -0.07976,0.10984 -0.159303,0.21971 -0.23359,0.33335 0,0 0.154287,-0.0414 0.154287,-0.0414 z" />
    <path
       style="fill:#000000;stroke-width:0.874001"
       id="path11204"
       d="m 113.56333,122.26682 c 0.31508,-0.1357 0.62861,-0.275 0.94244,-0.41359 0.11259,-0.0604 0.24625,-0.0939 0.34886,-0.17323 0.0232,-0.0179 0.0348,-0.0471 0.0526,-0.0704 0,0 -0.0473,0.008 -0.0473,0.008 v 0 c -0.21979,0.0904 -0.44003,0.17849 -0.65282,0.28497 -0.30142,0.13606 -0.60196,0.27408 -0.90473,0.40711 0,0 0.26091,-0.0432 0.26091,-0.0432 z" />
    <path
       id="path11206"
       style="fill:#000000;stroke-width:0.874001"
       d="m 128.44177,101.83564 c -0.015,0.004 -0.0853,0.0406 -0.17415,0.0884 -0.17933,0.0167 -0.21192,0.0337 -0.31832,0.15606 -0.18959,0.21574 -0.36657,0.44192 -0.54726,0.66508 -0.48048,0.60668 -0.9679,1.20794 -1.45831,1.80661 -0.70209,0.86693 -1.39615,1.74064 -2.09496,2.61017 -0.59665,0.73667 -1.20369,1.46459 -1.79369,2.20659 -0.57039,0.74348 -1.12482,1.49895 -1.66243,2.26653 -0.57791,0.82367 -1.14174,1.65679 -1.71514,2.48357 -0.54134,0.76279 -1.1027,1.51123 -1.64228,2.27531 -0.42297,0.6046 -0.84767,1.21009 -1.19889,1.86035 -0.28704,0.52683 -0.56218,1.05993 -0.82476,1.59939 -0.21276,0.42245 -0.41447,0.85025 -0.60048,1.28519 -0.15523,0.35249 -0.32088,0.70032 -0.51004,1.03611 l 0.25166,-0.0506 c 0.20042,-0.3378 0.37369,-0.69017 0.54157,-1.0449 0.19372,-0.441 0.40623,-0.87264 0.6165,-1.30586 0.26142,-0.54523 0.53741,-1.08311 0.82889,-1.61282 0.35859,-0.64612 0.78498,-1.24997 1.20716,-1.85519 0.54253,-0.76301 1.09644,-1.51732 1.6366,-2.28203 0.57346,-0.82828 1.13915,-1.66234 1.71979,-2.48564 0.54024,-0.76587 1.0936,-1.5222 1.66449,-2.26549 0.59134,-0.74014 1.19936,-1.46651 1.79214,-2.20555 0.69443,-0.87197 1.38697,-1.74558 2.09187,-2.60914 0.50128,-0.6012 0.99228,-1.21054 1.48466,-1.81901 0.0719,-0.0863 0.14306,-0.17316 0.21446,-0.25994 -0.0104,0.0423 -0.0208,0.0846 -0.0305,0.12713 -0.0142,0.0474 -0.021,0.0974 -0.0372,0.14418 -0.0168,0.0464 -0.0337,0.0928 -0.0512,0.139 -0.0955,0.24302 -0.19072,0.48583 -0.27854,0.73174 -0.20738,0.60294 -0.44233,1.19543 -0.67592,1.78852 -0.35672,0.90365 -0.73698,1.79782 -1.10846,2.69545 -0.37419,0.90688 -0.72508,1.82341 -1.07229,2.74091 0.0215,0.0411 0.0376,0.0791 0.0393,0.10542 0.002,0.0304 -0.0632,0.0603 -0.11111,0.0858 -0.28869,0.78867 -0.5938,1.5709 -0.90795,2.34973 -0.27071,0.66074 -0.55588,1.31511 -0.85111,1.96525 -0.23873,0.52028 -0.49366,1.03316 -0.73794,1.55081 -0.20801,0.44058 -0.41516,0.8816 -0.61134,1.32757 -0.15684,0.35511 -0.30725,0.71228 -0.45992,1.06918 -0.12544,0.28528 -0.26236,0.56513 -0.39946,0.84491 -0.14662,0.31137 -0.31702,0.61064 -0.48627,0.91002 -0.14957,0.25024 -0.26851,0.51635 -0.39533,0.77825 -0.0755,0.18303 -0.15344,0.36492 -0.23977,0.54312 -0.0697,0.14178 -0.13793,0.28435 -0.20619,0.42685 -0.0636,0.1365 -0.14491,0.26314 -0.22014,0.39326 -0.0696,0.12017 -0.1395,0.23981 -0.21394,0.35708 -0.0453,0.0681 -0.0938,0.13414 -0.13281,0.20619 -0.0185,0.0373 -0.0421,0.0712 -0.0677,0.10387 -0.002,0.009 -0.0132,0.0101 -0.0145,0.0109 0.0508,-0.0113 0.0951,-0.0199 0.13488,-0.0264 v 5.1e-4 c 0.007,0.017 0.11337,-0.0168 0.35708,-0.017 0.003,-0.007 0.005,-0.0158 0.0114,-0.0222 0.0226,-0.0346 0.0411,-0.0716 0.0605,-0.10801 0.0415,-0.0688 0.0867,-0.13514 0.12868,-0.2036 0.0738,-0.11691 0.13979,-0.23803 0.20825,-0.35812 0.0754,-0.13418 0.14678,-0.27055 0.20929,-0.41134 0.0646,-0.14224 0.13006,-0.2841 0.19689,-0.4253 0.0832,-0.17885 0.16013,-0.36034 0.23306,-0.54364 0.10795,-0.27212 0.24327,-0.53201 0.38757,-0.78651 0.17069,-0.29961 0.33904,-0.60084 0.48679,-0.91261 0.13725,-0.27957 0.27255,-0.56067 0.39533,-0.84697 0.15106,-0.35969 0.29249,-0.72299 0.44855,-1.08056 0.19587,-0.44832 0.39082,-0.89726 0.60255,-1.33842 0.24347,-0.51516 0.4971,-1.02531 0.73174,-1.54461 0.29337,-0.65008 0.57665,-1.30468 0.84439,-1.96577 0.32647,-0.81039 0.62733,-1.63097 0.92139,-2.45359 0.35719,-0.9542 0.72368,-1.90538 1.11208,-2.84738 0.37258,-0.90088 0.74701,-1.80054 1.10639,-2.70681 0.23485,-0.59318 0.46767,-1.1876 0.67644,-1.79059 0.0884,-0.24623 0.18069,-0.49064 0.28112,-0.73225 0.0172,-0.0468 0.0383,-0.0939 0.045,-0.14366 0.002,-0.0464 0.011,-0.0918 0.0217,-0.13694 0.027,-0.1164 0.055,-0.23257 0.0868,-0.34779 0.0131,-0.0601 0.0249,-0.11149 0.0202,-0.1111 -0.01,8.2e-4 -0.014,0.001 -0.0233,0.002 0.0526,-0.0461 0.10025,-0.0855 0.0765,-0.0796 z" />
    <path
       style="fill:#b3b3b3;fill-opacity:1;stroke-width:1.85031"
       d="m 194.92857,765.34499 c 0,-0.44411 5.25345,-8.04236 11.67434,-16.88499 24.29754,-33.46179 28.59721,-39.58417 41.81408,-59.54002 15.04868,-22.72163 20.14614,-29.95179 32.14898,-45.59969 16.76335,-21.85409 23.83347,-29.22508 38.84515,-40.49821 7.4574,-5.60021 9.44691,-7.78664 2.84713,-3.12896 -9.78499,6.90559 -20.70582,16.3605 -26.7079,23.12287 -11.9864,13.50475 -28.27787,35.57697 -47.89871,64.89473 -9.22677,13.78678 -20.642,30.38795 -25.36717,36.89148 -4.72518,6.50353 -12.4982,17.25979 -17.27339,23.9028 -4.77519,6.64301 -8.76237,11.85699 -8.86041,11.58663 -0.2643,-0.72891 3.05975,-17.02994 5.3077,-26.02873 2.62335,-10.50158 4.42893,-19.50109 5.52342,-27.53014 1.6612,-12.18649 4.24212,-22.27832 10.07796,-39.40654 7.25623,-21.29709 28.60361,-66.1164 38.5517,-80.94017 8.97188,-13.36911 27.6283,-34.17957 39.73066,-44.3179 7.62912,-6.39103 32.76645,-22.41039 53.0647,-33.81674 5.08327,-2.85648 13.27531,-7.59939 18.20453,-10.5398 4.92923,-2.9404 14.38159,-8.16096 21.00524,-11.60123 6.62365,-3.44027 15.82394,-8.40498 20.44509,-11.03269 4.62115,-2.62771 9.78844,-5.47257 11.48286,-6.32191 1.69443,-0.84934 4.81079,-2.65936 6.92526,-4.02226 2.11447,-1.3629 3.91414,-2.40157 3.99927,-2.30815 0.0851,0.0934 -2.83504,5.2751 -6.48927,11.51486 -11.83012,20.20048 -24.89793,45.10222 -29.61001,56.42418 -3.54206,8.5107 -7.40183,21.10856 -11.55177,37.70361 l -3.82367,15.29033 -2.55059,1.83384 c -3.52755,2.53625 -16.06165,14.18075 -18.84131,17.50405 -1.25797,1.504 -2.99015,3.80169 -3.8493,5.10597 -0.85913,1.30427 -1.82231,2.21056 -2.14039,2.01397 -0.32551,-0.20117 -0.41046,-0.0858 -0.19433,0.26391 0.21121,0.34174 -0.99141,3.36385 -2.67248,6.71581 -7.78797,15.52877 -12.8263,30.39901 -19.87256,58.65234 -6.72889,26.98077 -9.62219,45.07688 -10.44875,65.35167 l -0.38068,9.3377 -2.603,0.33441 c -1.43165,0.18391 -7.77029,0.28758 -14.08586,0.23035 -12.98966,-0.1177 -18.00486,0.50775 -39.03051,4.8675 -9.50195,1.97027 -15.02172,2.74281 -27.72691,3.88063 -18.23704,1.63324 -27.81371,3.10159 -34.76788,5.33082 -3.91516,1.25505 -4.90122,1.40869 -4.90122,0.76367 z"
       id="path18572"
       transform="scale(0.26458333)" />
    <path
       style="fill:#b3b3b3;fill-opacity:1;stroke-width:1.85031"
       d="m 353.87577,884.64685 c -6.23412,-10.83426 -11.29141,-23.16045 -18.34705,-44.71757 -9.52028,-29.08731 -12.98443,-46.98985 -14.63228,-75.61885 -0.7562,-13.13778 -0.35673,-32.81474 0.87032,-42.8696 1.73332,-14.20346 5.01655,-30.64583 10.17451,-50.95377 6.57029,-25.86859 10.43512,-37.18977 17.91674,-52.48314 3.63593,-7.43231 5.55377,-10.63085 8.39648,-14.00349 3.63295,-4.31021 18.55241,-18.65459 19.40246,-18.65459 0.69015,0 0.59744,0.41178 -2.39734,10.64853 -8.23916,28.16301 -12.46914,48.03884 -14.00582,65.81052 -0.88148,10.19437 -0.74944,42.36892 0.28276,68.89717 0.47948,12.32307 0.87223,23.47685 0.87277,24.78618 8.2e-4,2.00684 0.17686,2.38059 1.12126,2.38059 1.02526,0 1.12028,-0.37343 1.12028,-4.40264 0,-4.7344 1.05719,-16.22755 2.81528,-30.60608 0.6027,-4.92923 1.60313,-14.75968 2.22316,-21.84545 2.3053,-26.34501 3.46954,-31.97519 12.97286,-62.73563 4.47862,-14.49643 14.27863,-43.29905 15.01296,-44.12365 0.21196,-0.23802 1.32389,1.72811 2.47096,4.36918 1.14707,2.64107 4.58204,10.01961 7.63328,16.39675 4.97335,10.39442 7.29234,15.95322 15.23562,36.521 6.30718,16.33136 8.43924,36.78936 6.59647,63.29577 -2.59906,37.38494 -9.60829,58.87165 -36.1258,110.74329 -10.58488,20.70534 -14.99698,28.46368 -23.84082,41.92219 -4.26123,6.48471 -8.98445,14.00448 -10.49606,16.71059 l -2.74838,4.92023 z"
       id="path18574"
       transform="scale(0.26458333)" />
    <path
       style="fill:#b3b3b3;fill-opacity:1;stroke-width:1.85031"
       d="m 574.98326,793.97817 c -2.77269,-1.34306 -9.45235,-3.86027 -14.8437,-5.59382 -14.0368,-4.51343 -15.69906,-5.14036 -23.88222,-9.00731 -4.04696,-1.91239 -9.59234,-4.14277 -12.32307,-4.9564 -2.73073,-0.81363 -7.35956,-2.34083 -10.28629,-3.39378 -7.88709,-2.83755 -14.67366,-4.50306 -27.26042,-6.69003 -13.31023,-2.31268 -20.41027,-3.93903 -31.8343,-7.29199 -10.8793,-3.19309 -14.53864,-4.014 -21.66751,-4.86072 l -5.86134,-0.69617 0.7296,-3.11113 c 4.20844,-17.94556 6.15808,-53.48829 3.929,-71.62748 -1.4139,-11.50568 -3.41955,-18.64366 -9.83248,-34.9933 -3.11676,-7.94611 -5.66683,-14.57436 -5.66683,-14.72945 0,-0.28673 -8.8429,-18.94833 -14.33392,-30.24957 l -3.01887,-6.21323 4.39342,-12.55145 c 5.99662,-17.13155 8.65672,-23.5829 18.57131,-45.03955 4.6977,-10.16653 11.87633,-26.29855 15.95249,-35.84893 6.68037,-15.65197 12.80812,-28.84718 13.3964,-28.84718 0.12208,0 1.29957,0.9003 2.61663,2.00068 1.31707,1.10038 3.3116,2.46847 4.43229,3.04021 2.30549,1.17617 5.25211,4.2473 7.25566,7.56225 2.35671,3.89927 3.87394,5.46852 10.56861,10.93102 5.01484,4.09184 8.2323,7.37414 13.85372,14.13288 13.94487,16.76616 32.46362,44.9142 42.20473,64.15015 1.9435,3.83786 6.03954,15.3812 7.34795,20.70778 0.66291,2.69873 2.04289,7.67947 3.06662,11.06831 2.67321,8.84914 7.71618,29.88984 10.67309,44.5311 3.15034,15.59905 3.35675,16.39735 8.17076,31.60077 7.38561,23.32495 9.12482,30.86318 13.06352,56.62121 1.41325,9.2423 3.43614,20.4591 4.49532,24.92621 2.35518,9.93313 2.95541,14.81031 3.37784,27.44684 0.40727,12.18313 0.63233,12.48062 -7.59041,-10.03295 -13.12013,-35.92245 -18.95881,-49.31028 -29.56938,-67.80121 -4.56208,-7.95029 -19.89568,-31.14567 -26.30709,-39.79515 -5.05793,-6.82354 -18.12111,-20.52756 -25.6015,-26.85744 -10.60546,-8.97429 -39.48539,-28.59911 -45.39039,-30.84419 -2.44326,-0.92892 -1.46526,0.25106 1.07316,1.2948 5.27231,2.16786 35.6266,23.38889 45.09673,31.52764 13.08753,11.24759 21.2801,20.93642 35.48293,41.96345 10.52201,15.57763 16.45363,25.60764 22.85694,38.64963 6.75044,13.74903 9.27466,19.67847 15.45608,36.3067 6.35765,17.1023 12.28338,32.90864 12.79551,34.13085 0.56196,1.34114 0.17717,1.23377 -5.59059,-1.56005 z"
       id="path18576"
       transform="scale(0.26458333)" />
    <path
       style="fill:#999999;fill-opacity:1;stroke-width:1.85031"
       d="m 362.97641,714.03868 c -0.92512,-26.81017 -0.52154,-49.27932 1.10421,-61.47609 2.12304,-15.92748 6.37899,-34.52155 13.09244,-57.20034 1.69792,-5.73577 4.87771,-17.58273 7.0662,-26.32656 7.81449,-31.22187 10.71588,-38.90119 24.94753,-66.03036 8.18151,-15.59607 22.95329,-41.47298 24.24397,-42.47011 0.52661,-0.40684 0.89365,-0.97638 0.81566,-1.26565 -0.078,-0.28926 0.6202,-1.87616 1.55156,-3.52643 0.93135,-1.65027 1.55178,-3.36947 1.37873,-3.82044 -0.41449,-1.08016 2.71043,-6.55058 8.11884,-14.21262 2.40723,-3.41029 6.7353,-9.56685 9.61794,-13.68124 4.23096,-6.03885 24.71498,-32.24369 26.93055,-34.45177 0.90814,-0.90507 0.0992,1.412 -4.6934,13.44335 -2.4544,6.16153 -4.96252,11.90136 -5.57361,12.75517 -0.6111,0.85381 -0.96561,1.78776 -0.78782,2.07543 0.71445,1.156 -7.44189,20.00061 -17.17161,39.67375 -2.78903,5.63933 -4.94135,10.38295 -4.78292,10.54137 0.15843,0.15843 -1.5605,4.11457 -3.81986,8.79142 -2.25935,4.67686 -7.05662,15.4351 -10.66059,23.90721 -3.60397,8.47211 -10.18694,23.19573 -14.62882,32.71916 -8.77244,18.80818 -13.35866,29.95497 -18.57248,45.14024 -1.8511,5.39134 -4.91762,14.08751 -6.81448,19.32481 -5.6324,15.55125 -8.20016,23.20906 -13.52319,40.33005 -8.90191,28.63211 -10.74651,37.38814 -12.80329,60.77515 -1.15904,13.17908 -3.72265,35.83704 -4.09712,36.21151 -0.1095,0.1095 -0.5318,-9.44266 -0.93844,-21.22701 z"
       id="path18578"
       transform="scale(0.26458333)" />
  </g>
</svg>
