<?xml version="1.0" encoding="UTF-8" standalone="no"?>
<!-- Created with Inkscape (http://www.inkscape.org/) -->

<svg
   width="400"
   height="400"
   viewBox="0 0 105.83333 105.83333"
   version="1.1"
   id="svg1854"
   xmlns="http://www.w3.org/2000/svg"
   xmlns:svg="http://www.w3.org/2000/svg">
  <defs
     id="defs1851" />
  <g
     id="layer1">
    <g
       id="g19858"
       transform="matrix(-0.73321892,0,0,0.73321892,128.39288,-71.318133)">
      <path
         id="path10935"
         style="fill:#000000;stroke-width:0.874001"
         d="m 125.54944,109.46877 c -0.0994,0.10267 -0.19649,0.20769 -0.29765,0.30851 -0.24231,0.23304 -0.48376,0.46622 -0.73123,0.6935 0.007,0.011 0.0131,0.022 0.0196,0.0331 8.8e-4,0.001 0.0132,0.0181 0.0295,0.0408 0.0545,-0.0497 0.10742,-0.10104 0.16226,-0.15037 0.2832,-0.27588 0.57343,-0.54433 0.85525,-0.82166 -0.02,-0.0348 -0.0331,-0.0696 -0.0377,-0.10387 z m -3.39411,8.75037 c -0.22143,0.38607 -0.44225,0.77247 -0.65732,1.1622 -0.77871,1.3678 -1.56076,2.73403 -2.30942,4.11862 -0.78766,1.47712 -1.54499,2.97104 -2.23345,4.4974 -0.74648,1.65486 -1.4635,3.32288 -2.14561,5.00537 -0.83342,1.99054 -1.70745,3.9636 -2.62051,5.91902 -1.0328,2.23668 -2.11558,4.44996 -3.11609,6.7014 -0.93309,2.18676 -1.79933,4.4015 -2.57245,6.65024 -0.31545,0.92055 -0.63316,1.84028 -0.95395,2.75901 0.003,9.3e-4 0.006,0.002 0.009,0.003 0.0173,0.0166 0.0152,0.0167 0.0145,0.0403 0,-0.0133 -0.006,0.0229 -0.007,0.0238 -0.0121,0.0455 -0.0266,0.0902 -0.0413,0.13488 -0.0384,0.1105 -0.0826,0.2191 -0.12867,0.32659 -0.0387,0.0877 -0.0798,0.17422 -0.12247,0.25993 -0.31758,0.90076 -0.63943,1.80002 -0.97049,2.69596 -0.68431,1.92549 -1.37185,3.84968 -2.03346,5.78311 -0.61942,1.86768 -1.16841,3.75636 -1.75028,5.63583 -0.635685,2.03399 -1.290132,4.06446 -1.787493,6.13813 -0.493308,2.18567 -0.902289,4.38927 -1.091406,6.62492 -0.219641,2.34426 -0.375776,4.69433 -0.651123,7.03316 -0.251396,2.11408 -0.528573,4.22551 -0.747241,6.34328 -0.0497,-1.19003 -0.08956,-2.38008 -0.122473,-3.57084 -0.08497,-2.27447 -0.217688,-4.54741 -0.276986,-6.82284 -0.06889,-3.17501 -0.109813,-6.35449 0.07855,-9.52655 0.0397,-0.52906 0.0717,-1.05905 0.118856,-1.5875 0.220004,-2.4656 0.635465,-4.90943 1.137398,-7.33185 0.730176,-3.33159 1.58351,-6.63237 2.599325,-9.88932 0.825533,-2.83864 1.592623,-5.69117 2.240683,-8.57622 0.70827,-2.81335 1.47505,-5.61963 2.58796,-8.30492 0.52144,-1.22657 0.60521,-1.45738 1.18132,-2.67425 0.88451,-1.86832 1.86392,-3.68914 2.80913,-5.5268 1.32394,-2.52942 2.71638,-5.02091 4.16771,-7.47965 0.85091,-1.46878 1.69349,-2.94354 2.58227,-4.38991 0.0627,-0.13351 0.12711,-0.26628 0.19069,-0.39894 0.0657,-0.14821 0.13029,-0.29681 0.19482,-0.44545 -1.11766,1.74861 -2.15165,3.54978 -3.19412,5.34386 -1.45456,2.45797 -2.8629,4.94102 -4.19923,7.46518 -0.95097,1.83465 -1.93934,3.65146 -2.8298,5.51697 -0.58625,1.22819 -0.66333,1.4421 -1.19424,2.67994 -1.11975,2.68518 -1.89422,5.49254 -2.6107,8.30647 -0.66297,2.88062 -1.42316,5.73406 -2.245853,8.5726 -1.009499,3.25857 -1.876558,6.55627 -2.60966,9.88726 -0.50097,2.42182 -0.94706,4.86327 -1.160653,7.32978 -0.04583,0.52929 -0.07365,1.0601 -0.110588,1.59009 -0.176548,3.16175 -0.152016,6.33057 -0.102319,9.49554 0.05063,2.26752 0.173294,4.53222 0.24443,6.79907 0.0337,1.60346 0.0816,3.2064 0.156062,4.80849 0.0378,0.74821 0.07417,1.49657 0.109555,2.24482 -0.0013,0.0904 -0.0058,0.18082 -0.0057,0.27131 0.0011,0.10106 0.0032,0.36345 0.0078,0.36586 0.0028,0.001 0.0039,0.002 0.0067,0.003 -4.79e-4,0.008 -7.47e-4,0.0165 -10e-4,0.0248 -0.01108,0.1417 -0.02188,0.18818 0.218075,0.0868 0.210561,0.10396 0.23296,0.0855 0.247013,-0.0646 0.01283,-0.17784 6.57e-4,-0.35644 -0.01292,-0.53382 -0.01359,-0.20575 -0.0251,-0.41174 -0.03824,-0.61753 0.01669,-0.8729 0.09827,-1.74455 0.172599,-2.61379 0.205592,-2.26377 0.492706,-4.51946 0.760678,-6.77633 0.281713,-2.35579 0.42498,-4.72437 0.646989,-7.08588 0.197218,-2.23584 0.59849,-4.44324 1.091406,-6.6306 0.496176,-2.08095 1.148856,-4.11941 1.788516,-6.15931 0.58527,-1.87972 1.13347,-3.77014 1.75804,-5.63739 0.66733,-1.93556 1.34891,-3.86629 2.03605,-5.79499 0.76488,-2.06782 1.48121,-4.15263 2.19521,-6.23838 0.76458,-2.25357 1.63342,-4.46954 2.56677,-6.65799 1.01778,-2.24097 2.07701,-4.46293 3.1073,-6.6983 0.917,-1.95625 1.79376,-3.92989 2.6293,-5.92212 0.68051,-1.69713 1.39982,-3.37735 2.14199,-5.04827 0.68045,-1.5339 1.4489,-3.02564 2.22932,-4.51032 0.63522,-1.18477 1.30807,-2.34861 1.96784,-3.51968 0.0386,-0.0904 0.0785,-0.18021 0.12041,-0.26924 0.0487,-0.10351 0.0974,-0.20694 0.14004,-0.31315 0.0537,-0.12319 0.10083,-0.24942 0.15193,-0.37363 0.05,-0.11143 0.0968,-0.22375 0.13746,-0.33899 0.0432,-0.10384 0.0757,-0.2115 0.11058,-0.31833 z" />
      <path
         id="path10939"
         style="fill:#000000;stroke-width:0.874001"
         d="m 104.83789,154.28125 a 1.8257535,1.8257535 0 0 0 -1.21289,1.0918 1.8257535,1.8257535 0 0 0 -0.17773,2.05859 c 0.20155,0.32341 0.37508,0.63227 0.51171,0.92969 a 1.8257535,1.8257535 0 0 0 0.004,0.0117 c 0.3878,0.82938 0.75805,1.71608 1.17773,2.63476 a 1.8257535,1.8257535 0 0 0 0.008,0.0156 c 0.43553,0.93016 0.88262,1.84075 1.32031,2.73828 a 1.8257535,1.8257535 0 0 0 0.004,0.006 c 0.48149,0.97669 0.94686,1.92278 1.34179,2.85937 0.50158,1.24004 0.96283,2.54488 1.49024,3.88086 a 1.8257535,1.8257535 0 0 0 0.0137,0.0352 c 0.56758,1.35758 1.11956,2.65947 1.53906,3.94726 0.42763,1.3986 0.74989,2.78137 0.89649,4.16797 a 1.8257535,1.8257535 0 0 0 0.004,0.0215 c 0.16607,1.41045 0.29354,2.80675 0.33594,4.18359 0.0357,1.38539 0.015,2.77406 -0.0566,4.16406 a 1.8257535,1.8257535 0 0 0 -0.002,0.0117 c -0.0698,1.55632 -0.17697,3.10507 -0.33789,4.64063 -0.20812,1.88419 -0.44257,3.72619 -0.81446,5.50586 -0.3489,1.57771 -0.73376,3.11197 -1.23633,4.57422 -0.56172,1.61543 -1.1965,3.22516 -1.85546,4.84179 -0.64202,1.54264 -1.31148,3.06611 -2.02735,4.5586 -0.75383,1.55996 -1.52709,3.12017 -2.29883,4.68945 -0.83915,1.67704 -1.70207,3.34645 -2.57422,5.01953 -0.81389,1.55471 -1.657364,3.08847 -2.541011,4.5957 -0.84323,1.40832 -1.752811,2.78184 -2.710937,4.13672 a 1.8257535,1.8257535 0 0 0 -0.0293,0.043 c -0.443186,0.66554 -0.857536,1.39036 -1.285156,2.0918 -0.0013,-0.002 -0.0026,-0.005 -0.0039,-0.008 v -0.002 c -0.518856,-1.01243 -0.993077,-2.04301 -1.40625,-3.08984 a 1.8257535,1.8257535 0 0 0 -0.002,-0.01 c -0.551852,-1.3773 -1.085142,-2.73747 -1.552734,-4.09961 -0.542639,-1.60961 -1.060043,-3.24608 -1.59375,-4.89453 v -0.002 c -0.565247,-1.75055 -1.070726,-3.5056 -1.480469,-5.27148 -0.465935,-2.07537 -0.868618,-4.13803 -1.125,-6.19922 -0.303684,-2.55578 -0.519988,-5.10461 -0.580078,-7.64649 a 1.8257535,1.8257535 0 0 0 0,-0.004 c -0.06326,-2.50069 -0.104761,-4.95217 0.08203,-7.33985 5e-5,-6.3e-4 -4.9e-5,-0.001 0,-0.002 0.198843,-2.28965 0.49744,-4.55832 0.933594,-6.79492 0.433039,-2.21522 0.878552,-4.40329 1.421875,-6.54297 a 1.8257535,1.8257535 0 0 0 0.0039,-0.0156 c 0.499167,-2.03935 1.002855,-4.05897 1.56836,-6.04492 l 0.002,-0.006 c 0.567837,-1.97283 1.133508,-3.90034 1.835937,-5.72851 0.774822,-1.92335 1.649579,-3.79655 2.634766,-5.61328 a 1.8257535,1.8257535 0 0 0 0,-0.004 c 0.288419,-0.53411 0.588506,-1.06987 0.892578,-1.60547 a 1.8257535,1.8257535 0 0 0 0.01172,-0.44141 1.8257535,1.8257535 0 0 0 0.150391,-0.004 c 0.03289,-0.0325 0.0456,-0.0453 0.0332,-0.0332 a 1.8257535,1.8257535 0 0 0 0.298828,-0.38281 c 0.0092,-0.0158 0.01981,-0.033 0.03125,-0.0527 a 1.8257535,1.8257535 0 0 0 -3.027344,-2.0293 c -0.01627,0.0212 -0.03821,0.0512 -0.06641,0.0879 a 1.8257535,1.8257535 0 0 0 0.05664,0.58399 1.8257535,1.8257535 0 0 0 -0.451171,0.16992 c -0.133913,0.15346 -0.262934,0.31055 -0.386719,0.46875 a 1.8257535,1.8257535 0 0 0 -0.002,0.002 c -0.105162,0.1347 -0.213361,0.27295 -0.324219,0.41406 0.0076,-0.0114 0.01279,-0.0273 0.128906,-0.14258 0.06266,-0.0622 0.143536,-0.161 0.414063,-0.30664 0.06763,-0.0364 0.250347,-0.11145 0.25,-0.11132 -3.48e-4,1.2e-4 0.361636,-0.0899 0.361328,-0.0898 -3.1e-5,1e-5 0.0442,0.007 0.04883,0.008 a 1.8257535,1.8257535 0 0 0 0.01367,0.125 c 0.23405,-0.0193 0.468627,-0.0495 0.748047,0.0586 a 1.8257535,1.8257535 0 0 0 -0.720703,0.23437 1.8257535,1.8257535 0 0 0 0.0039,0.0293 1.8257535,1.8257535 0 0 0 -1.53711,0.54102 c -0.142318,0.25497 -0.295068,0.52536 -0.451172,0.81445 -1.056051,1.94948 -2.001254,3.95497 -2.830078,6.01172 a 1.8257535,1.8257535 0 0 0 -0.0098,0.0234 c -0.782903,2.02486 -1.380809,4.06207 -1.958985,6.05273 a 1.8257535,1.8257535 0 0 0 -0.002,0.008 c -0.589302,2.05899 -1.101466,4.11601 -1.615234,6.14844 a 1.8257535,1.8257535 0 0 0 0,0.002 c -0.565693,2.24462 -1.030738,4.49016 -1.470703,6.72071 -0.474936,2.37918 -0.800405,4.77554 -1.011719,7.17382 a 1.8257535,1.8257535 0 0 0 -0.002,0.0117 c -0.211934,2.61378 -0.164004,5.1848 -0.103516,7.69336 0.06155,2.6759 0.264851,5.33769 0.576172,7.98047 a 1.8257535,1.8257535 0 0 0 0.002,0.0176 c 0.2819,2.20856 0.697991,4.37605 1.169922,6.50781 a 1.8257535,1.8257535 0 0 0 0.002,0.008 c 0.43009,1.90745 0.99342,3.74022 1.56836,5.5293 a 1.8257535,1.8257535 0 0 0 0.01367,0.0391 c 0.549021,1.58739 1.075665,3.19619 1.61914,4.81641 a 1.8257535,1.8257535 0 0 0 0.002,0.008 c 0.497959,1.46539 1.055201,2.88136 1.607422,4.27149 0.459173,1.17225 0.978701,2.31 1.542969,3.41797 a 1.8257535,1.8257535 0 0 0 0.0098,0.0176 c 0.428409,0.81959 0.881519,1.57995 1.302734,2.3086 0.138849,0.24485 0.288174,0.53458 0.460937,0.85742 3.06e-4,5.7e-4 -3.05e-4,0.001 0,0.002 0.0067,0.0125 0.01083,0.0206 0.01758,0.0332 l -0.01563,-0.0254 c 0.0056,0.0258 -0.02185,-0.0404 0.0332,0.10743 0.06004,0.16127 0.213984,0.51383 0.582031,0.80664 0.128949,0.10258 0.212489,0.0795 0.341797,0.13672 0.04215,0.0357 -0.0159,-0.003 0.05078,0.0508 0.108061,0.0865 0.19305,0.30813 0.945313,0.39648 0.09403,0.0111 0.315925,0.01 0.316406,0.01 4.8e-4,-3e-5 0.374566,-0.0604 0.375,-0.0606 8.66e-4,-2.3e-4 0.735648,-0.39588 0.736328,-0.39648 3.4e-4,-3e-4 0.255566,-0.27695 0.255859,-0.27735 2.94e-4,-3.9e-4 0.12163,-0.18368 0.164063,-0.26758 0.04278,-0.0846 0.05194,-0.14222 0.07617,-0.21289 7.1e-5,-2e-4 0.0019,2.1e-4 0.002,0 0.202959,-0.45709 0.465418,-0.94142 0.75,-1.4707 v -0.002 c 0.596791,-1.10661 1.280495,-2.19175 2.007812,-3.28125 0.993089,-1.40346 1.943949,-2.84187 2.832029,-4.33399 a 1.8257535,1.8257535 0 0 0 0.006,-0.008 c 0.92412,-1.57022 1.80262,-3.16127 2.64844,-4.76367 a 1.8257535,1.8257535 0 0 0 0.004,-0.008 c 0.88141,-1.69252 1.75703,-3.39117 2.61718,-5.10352 a 1.8257535,1.8257535 0 0 0 0.006,-0.01 c 0.78206,-1.57954 1.57215,-3.16497 2.35156,-4.76171 a 1.8257535,1.8257535 0 0 0 0.002,-0.006 c 0.75797,-1.56765 1.4617,-3.15238 2.12695,-4.7461 a 1.8257535,1.8257535 0 0 0 0.004,-0.0117 c 0.68046,-1.66411 1.3445,-3.35291 1.94726,-5.08007 a 1.8257535,1.8257535 0 0 0 0.004,-0.006 c 0.574,-1.66523 0.99055,-3.34315 1.34961,-4.99805 a 1.8257535,1.8257535 0 0 0 0.004,-0.0176 c 0.41089,-1.99185 0.66798,-3.97689 0.88477,-5.92969 a 1.8257535,1.8257535 0 0 0 0,-0.008 c 0.17329,-1.62275 0.28867,-3.24121 0.36719,-4.85351 a 1.8257535,1.8257535 0 0 0 0,-0.004 c 0.0671,-1.47184 0.0937,-2.95694 0.0547,-4.45117 a 1.8257535,1.8257535 0 0 0 0,-0.004 c -0.0429,-1.53248 -0.18985,-3.02716 -0.35938,-4.48828 v -0.004 c -0.18032,-1.69135 -0.56101,-3.31161 -1.03516,-4.87109 a 1.8257535,1.8257535 0 0 0 -0.01,-0.0312 c -0.49203,-1.51824 -1.09671,-2.92269 -1.63867,-4.27344 h 0.002 c -0.50105,-1.24921 -0.95844,-2.58035 -1.50977,-3.94531 a 1.8257535,1.8257535 0 0 0 -0.01,-0.0234 c -0.45346,-1.07856 -0.95194,-2.09828 -1.42774,-3.08593 a 1.8257535,1.8257535 0 0 0 -0.006,-0.0117 c -0.44022,-0.89559 -0.87645,-1.79011 -1.30078,-2.6836 l -0.0117,-0.0234 c -0.38957,-0.85193 -0.77717,-1.75906 -1.24414,-2.6875 l -0.002,-0.002 c -0.30735,-0.6223 -0.67549,-1.20316 -1.09375,-1.74023 a 1.8257535,1.8257535 0 0 0 -1.77539,-0.67383 z m -1.41016,1.26758 c -0.028,0.0255 0.0189,-0.12002 0,0 z" />
      <path
         id="path10961"
         style="fill:#000000;stroke-width:0.874001"
         d="m 118.44336,121.20508 a 2.0306725,2.0306725 0 0 0 -1.11133,0.66797 l -0.0332,0.0391 a 2.0306725,2.0306725 0 0 0 -0.39453,1.91016 c 0.20022,0.65202 0.82239,1.26629 1.16601,1.47851 l -0.14843,-0.10156 c 0.26088,0.19498 0.51851,0.40975 0.77539,0.64453 a 2.0306725,2.0306725 0 0 0 0.0898,0.0781 c 0.3869,0.3138 0.84452,0.66674 1.41797,0.9746 0.31722,0.17189 0.48355,0.28379 0.54492,0.3379 0.19998,0.20249 0.37772,0.43466 0.54492,0.7246 a 2.0306725,2.0306725 0 0 0 0.043,0.0684 c 0.35125,0.55708 0.75956,1.23027 1.36523,1.90039 a 2.0306725,2.0306725 0 0 0 0.0508,0.0547 c 0.63068,0.64849 1.28466,1.15301 1.88281,1.60156 0.61869,0.47963 1.17993,0.92257 1.64062,1.36914 0.50265,0.49904 0.96195,1.03114 1.37891,1.60352 a 2.0306725,2.0306725 0 0 0 0.0684,0.0898 c 0.52961,0.64741 1.04945,1.23211 1.50781,1.79297 a 2.0306725,2.0306725 0 0 0 0.006,0.008 c 0.58837,0.71238 1.13349,1.40226 1.5918,2.09765 a 2.0306725,2.0306725 0 0 0 0.0137,0.0215 c 0.57808,0.85382 1.16911,1.73887 1.82227,2.625 0.7253,0.99812 1.41602,1.9907 2.03125,2.99804 a 2.0306725,2.0306725 0 0 0 0.01,0.0156 c 0.71796,1.15163 1.41957,2.28552 2.06836,3.42383 0.50477,0.90412 1.0128,1.86129 1.5918,2.83203 0.2754,0.49022 0.53936,1.0043 0.81054,1.54297 a 2.0306725,2.0306725 0 0 0 0.01,0.0176 c 0.0828,0.16089 0.14177,0.29789 0.18164,0.41602 a 2.0306725,2.0306725 0 0 0 0.041,0.10938 c 0.0919,0.22855 0.18091,0.46785 0.27539,0.72265 a 2.0306725,2.0306725 0 0 0 0.004,0.008 c 0.14144,0.37684 0.2782,0.75658 0.41407,1.13868 a 2.0306725,2.0306725 0 0 0 0.006,0.0137 c 0.15776,0.43465 0.30252,0.82067 0.41015,1.16601 1.6e-4,5.2e-4 -1.6e-4,0.001 0,0.002 0.0952,0.32219 0.18441,0.63357 0.26367,0.93554 a 2.0306725,2.0306725 0 0 0 0.002,0.004 c 0.075,0.28329 0.14359,0.57657 0.20703,0.87695 a 2.0306725,2.0306725 0 0 0 0.004,0.0195 c 0.0578,0.26126 0.12506,0.60733 0.26172,1.02344 0.0865,0.26706 0.1815,0.59942 0.32227,0.99024 0.13279,0.37166 0.25258,0.71145 0.3457,1.02148 0.0979,0.34892 0.17799,0.71509 0.2461,1.09961 l -0.004,-0.0293 c 0.089,0.54922 0.20014,1.12446 0.36328,1.7168 0.24128,0.88447 0.49294,1.71379 0.69531,2.50586 0.28164,1.10609 0.52647,2.2199 0.73438,3.3418 a 2.0306725,2.0306725 0 0 0 0.004,0.0273 c 0.25093,1.2614 0.50444,2.52066 0.75977,3.78125 a 2.0306725,2.0306725 0 0 0 0.004,0.0176 c 0.28705,1.35519 0.59115,2.76056 1.02343,4.18164 0.47581,1.56512 0.98384,3.09564 1.4668,4.60937 l -0.006,-0.0137 c 0.50018,1.60637 0.97208,3.19194 1.34766,4.77344 a 2.0306725,2.0306725 0 0 0 0,0.006 c 0.39246,1.63165 0.73758,3.25187 0.98047,4.86523 a 2.0306725,2.0306725 0 0 0 0.002,0.0137 c 0.23488,1.49079 0.46,2.98363 0.67773,4.47852 a 2.0306725,2.0306725 0 0 0 0,0.002 c 0.15107,1.02956 0.30499,2.07858 0.49414,3.14258 a 2.0306725,2.0306725 0 0 0 0.006,0.0254 c 0.20215,1.06132 0.44088,2.1324 0.75196,3.20703 l -0.0176,-0.0684 c 0.20801,0.82583 0.36007,1.64315 0.43554,2.44922 a 2.0306725,2.0306725 0 0 0 0.002,0.0176 c 0.0836,0.81335 0.16103,1.57968 0.18554,2.30274 a 2.0306725,2.0306725 0 0 0 0,0.01 c 0.0126,0.32866 0.0138,0.66293 0.0215,0.99414 -0.29017,-0.13146 -0.55263,-0.26985 -0.86133,-0.39258 -0.86363,-0.34318 -1.75176,-0.65323 -2.66601,-0.91406 l -0.0254,-0.008 c -1.00216,-0.2983 -1.96485,-0.5703 -2.86524,-0.875 -0.002,-8.2e-4 -0.005,-0.001 -0.008,-0.002 -0.90911,-0.32268 -1.77261,-0.67847 -2.58008,-1.09766 a 2.0306725,2.0306725 0 0 0 -0.0293,-0.0156 c -0.87937,-0.43805 -1.86168,-0.9594 -3.02929,-1.34765 a 2.0306725,2.0306725 0 0 0 -0.0566,-0.0195 c -0.97869,-0.29412 -1.88538,-0.5326 -2.69727,-0.81836 l -0.0215,-0.008 c -0.002,-8.1e-4 -0.006,-0.001 -0.008,-0.002 -0.86607,-0.32163 -1.79878,-0.68622 -2.83203,-0.97851 l -0.01,-0.002 c -1.12961,-0.34039 -2.26945,-0.60344 -3.41211,-0.80469 -1.28814,-0.24593 -2.53113,-0.41934 -3.70703,-0.6289 h 0.01 c -1.08673,-0.1982 -2.15771,-0.42006 -3.20703,-0.6836 l -0.0156,-0.004 c -0.003,-6.5e-4 -0.005,-0.001 -0.008,-0.002 -1.05099,-0.27741 -2.06375,-0.52707 -3.01562,-0.81446 a 2.0306725,2.0306725 0 0 0 -0.0176,-0.006 c -0.92993,-0.27116 -1.92748,-0.60575 -3.02539,-0.87695 a 2.0306725,2.0306725 0 0 0 -0.0352,-0.01 c -0.97311,-0.22159 -1.9665,-0.40799 -2.98242,-0.53906 a 2.0306725,2.0306725 0 0 0 -0.0156,-0.002 c -0.78839,-0.0955 -1.59927,-0.17557 -2.4336,-0.21094 a 2.0306725,2.0306725 0 0 0 -1.00586,0.21875 l -0.25781,0.13086 a 2.0306725,2.0306725 0 0 0 0.82227,3.83789 c 0.67464,0.0322 1.3674,0.10455 2.07617,0.19727 0.85148,0.11601 1.6979,0.27548 2.54101,0.4707 0.91414,0.24433 1.8443,0.52906 2.80469,0.82227 a 2.0306725,2.0306725 0 0 0 0.0391,0.0117 c 1.01658,0.2885 2.05747,0.57642 3.12696,0.83008 1.17055,0.30389 2.33968,0.54957 3.5,0.76172 a 2.0306725,2.0306725 0 0 0 0.0312,0.004 c 1.2308,0.20539 2.46076,0.40997 3.69336,0.61133 0.94528,0.15938 1.93151,0.41492 2.9746,0.6875 0.75663,0.211 1.57715,0.54693 2.50391,0.90039 a 2.0306725,2.0306725 0 0 0 0.0234,0.01 c 1.07227,0.39353 2.06724,0.6226 2.92383,0.87891 a 2.0306725,2.0306725 0 0 0 0.0391,0.0117 c 0.6761,0.18787 1.45335,0.58995 2.38867,1.05859 l -0.0312,-0.0156 c 1.03166,0.54005 2.0814,0.96927 3.1211,1.33984 a 2.0306725,2.0306725 0 0 0 0.0254,0.01 c 1.05064,0.35895 2.07085,0.64262 3.03711,0.93165 a 2.0306725,2.0306725 0 0 0 0.0176,0.006 c 0.76075,0.21987 1.51876,0.48603 2.27735,0.78907 a 2.0306725,2.0306725 0 0 0 0.002,0.002 c 0.5674,0.22607 1.158,0.51195 1.78516,0.82422 a 2.0306725,2.0306725 0 0 0 0.01,0.004 c 0.47202,0.23186 0.94633,0.47114 1.42774,0.71289 0.17585,0.0884 0.3732,0.1866 0.58789,0.28711 0.002,8.3e-4 0.002,0.001 0.004,0.002 0.24139,0.11845 0.43593,0.16804 0.58399,0.20312 a 2.0306725,2.0306725 0 0 0 0.94922,0.0215 c 0.0948,-0.0211 0.2524,-0.0504 0.4707,-0.10547 l -0.50195,0.0625 c -0.4217,-0.001 -0.12402,-0.006 -0.10547,-0.004 0,0 -0.002,0 -0.002,0 -0.007,-8.4e-4 -0.0127,-2.3e-4 -0.0508,-0.006 -0.0191,-0.003 -0.13497,-0.0254 -0.13476,-0.0254 5e-5,1e-5 -0.11527,-0.0293 -0.11524,-0.0293 0,0 -0.0781,-0.0234 -0.0781,-0.0234 0,0 -0.11914,-0.043 -0.11914,-0.043 0,0 -0.47657,-0.26758 -0.47657,-0.26758 0,0 -0.42773,-0.43555 -0.42773,-0.43554 0,0 0.20022,-1.47791 0.29688,-2.19532 l 1.67578,-0.99414 c -0.008,0.001 0.1663,0.0341 0.0664,0.01 l 0.0488,2.20312 c 0.486,0.29096 1.31639,0.78909 1.31641,0.78907 4e-5,-8e-5 0.18354,-0.40026 0.18359,-0.4004 9e-5,-2.7e-4 0.0647,-0.23521 0.0742,-0.28906 0.0191,-0.10769 0.0205,-0.14064 0.0234,-0.17187 0.006,-0.0625 0.007,-0.085 0.008,-0.10743 0.002,-0.045 0.001,-0.0728 0.002,-0.10546 0.002,-0.0652 0.003,-0.13663 0.004,-0.20899 0.002,-0.13987 0.005,-0.20224 0.004,-0.33789 v -0.008 c -0.002,-0.54159 -0.002,-1.09232 -0.008,-1.6543 a 2.0306725,2.0306725 0 0 0 -0.002,-0.01 c -0.0113,-0.73928 -0.0284,-1.48047 -0.0566,-2.22461 a 2.0306725,2.0306725 0 0 0 0,-0.0137 c -0.0392,-0.87944 -0.11471,-1.73874 -0.20117,-2.58007 -0.0944,-1.07445 -0.29218,-2.10846 -0.54297,-3.10157 a 2.0306725,2.0306725 0 0 0 -0.0195,-0.0703 c -0.26432,-0.90502 -0.47608,-1.85148 -0.66797,-2.82812 -0.18413,-0.97823 -0.32832,-2.01032 -0.49805,-3.08399 v -0.002 c -0.23667,-1.51303 -0.48184,-3.01666 -0.71875,-4.51563 -0.26641,-1.78496 -0.64648,-3.51737 -1.05469,-5.20898 v 0.008 c -0.41349,-1.739 -0.91856,-3.42124 -1.43359,-5.0664 a 2.0306725,2.0306725 0 0 0 -0.002,-0.008 c -0.4893,-1.53808 -0.98785,-3.04919 -1.44336,-4.54882 -0.36814,-1.2135 -0.65141,-2.50042 -0.93555,-3.83789 -0.2551,-1.26516 -0.52108,-2.51493 -0.77148,-3.75391 -0.2242,-1.21069 -0.4885,-2.41805 -0.80078,-3.61719 -0.23556,-0.90273 -0.48745,-1.77297 -0.71875,-2.61719 a 2.0306725,2.0306725 0 0 0 -0.002,-0.004 c -0.10198,-0.36853 -0.18313,-0.81331 -0.27539,-1.32422 l -0.002,-0.0117 c -0.0927,-0.52895 -0.2142,-1.03575 -0.35156,-1.52344 a 2.0306725,2.0306725 0 0 0 -0.01,-0.0332 c -0.14084,-0.46878 -0.29582,-0.88446 -0.42773,-1.25391 -0.0807,-0.22553 -0.1667,-0.5195 -0.28125,-0.875 a 2.0306725,2.0306725 0 0 0 -0.006,-0.0176 c -0.039,-0.11736 -0.0853,-0.3235 -0.14844,-0.61523 a 2.0306725,2.0306725 0 0 0 -0.002,-0.006 c -0.0744,-0.33929 -0.15364,-0.69309 -0.25196,-1.0625 a 2.0306725,2.0306725 0 0 0 -0.002,-0.006 c -0.097,-0.36013 -0.20031,-0.72342 -0.3125,-1.08984 a 2.0306725,2.0306725 0 0 0 -0.006,-0.0195 c -0.15707,-0.49551 -0.32631,-0.93573 -0.4707,-1.33203 l -0.002,-0.008 c -0.13761,-0.38262 -0.27687,-0.76271 -0.41601,-1.14257 l -0.0117,-0.0332 c -0.0983,-0.2804 -0.19888,-0.53241 -0.29297,-0.76758 -0.12414,-0.35232 -0.27517,-0.68233 -0.43945,-0.99023 -0.29431,-0.56674 -0.59975,-1.14571 -0.9336,-1.72852 a 2.0306725,2.0306725 0 0 0 -0.0234,-0.041 c -0.51603,-0.85362 -1.01176,-1.77444 -1.54493,-2.72656 a 2.0306725,2.0306725 0 0 0 -0.0137,-0.0234 c -0.70348,-1.21785 -1.43497,-2.39088 -2.15429,-3.54688 -0.70645,-1.16688 -1.47031,-2.25259 -2.22657,-3.29687 a 2.0306725,2.0306725 0 0 0 -0.01,-0.0117 c -0.58279,-0.79138 -1.14825,-1.62745 -1.72852,-2.48438 l -0.004,-0.004 c -0.58706,-0.88174 -1.22,-1.68279 -1.84375,-2.43946 l -0.006,-0.006 c -0.52871,-0.64584 -1.04891,-1.22948 -1.50977,-1.78907 l 0.0703,0.0899 c -0.55315,-0.75419 -1.16067,-1.44937 -1.8125,-2.09571 a 2.0306725,2.0306725 0 0 0 -0.0215,-0.0215 c -0.68124,-0.65592 -1.37609,-1.19008 -2.01367,-1.68164 a 2.0306725,2.0306725 0 0 0 -0.0215,-0.0176 c -0.56012,-0.42016 -1.03022,-0.78738 -1.39258,-1.15234 -0.28031,-0.31722 -0.57288,-0.76377 -0.92773,-1.32032 l 0.0391,0.0645 c -0.32291,-0.55033 -0.72715,-1.11076 -1.25781,-1.61719 a 2.0306725,2.0306725 0 0 0 -0.0371,-0.0332 c -0.54284,-0.49329 -1.06237,-0.75087 -1.41797,-0.94141 a 2.0306725,2.0306725 0 0 0 -0.0176,-0.01 c -0.20447,-0.10701 -0.45681,-0.28667 -0.75781,-0.53126 l 0.084,0.0723 c -0.32593,-0.29596 -0.67074,-0.58539 -1.03321,-0.86328 l -0.002,-0.002 c -0.14409,-0.1145 -0.42363,-0.35387 -0.93359,-0.49805 -0.51124,-0.14454 -0.99559,-0.0749 -1.24805,-0.0195 z m 36.69336,91.45703 0.0137,0.62695 c -0.19426,0.0564 0.0833,-0.0319 0.17773,-0.0547 -0.002,-0.005 -0.11107,-0.33125 -0.1914,-0.57227 z" />
      <path
         id="path10965"
         style="fill:#000000;stroke-width:0.874001"
         d="m 114.57812,119.99414 a 1.8536182,1.8536182 0 0 0 -1.62109,0.3418 c -0.57381,0.45658 -1.23461,0.86945 -1.95508,1.27148 -1.02383,0.52781 -2.04412,1.06935 -3.05859,1.63867 a 1.8536182,1.8536182 0 0 0 -0.0195,0.0117 c -1.03901,0.59931 -2.05692,1.19502 -3.07031,1.75196 -1.0079,0.5429 -2.05157,1.06303 -3.11329,1.59765 l 0.0195,-0.008 c -1.36599,0.66917 -2.686694,1.39769 -3.974614,2.1543 a 1.8536182,1.8536182 0 0 0 -0.01563,0.008 c -1.27831,0.76776 -2.526047,1.54037 -3.773437,2.26562 -1.424616,0.81751 -2.92202,1.60381 -4.427735,2.47461 a 1.8536182,1.8536182 0 0 0 -0.01758,0.01 c -1.683825,0.99927 -3.322684,2.03103 -4.951172,3.03516 -1.504095,0.91155 -2.989999,1.85163 -4.458984,2.81835 -1.502518,0.97399 -2.885601,2.0666 -4.195313,3.19727 a 1.8536182,1.8536182 0 0 0 -0.01758,0.0156 c -1.195993,1.05926 -2.28286,2.17604 -3.332031,3.26563 a 1.8536182,1.8536182 0 0 0 -0.0078,0.008 c -1.037852,1.09145 -2.082728,2.1952 -3.107422,3.34375 -0.0029,0.003 -0.0049,0.007 -0.0078,0.01 -6.19e-4,6.9e-4 -0.0013,0.001 -0.002,0.002 -0.934205,1.03022 -1.755787,2.10408 -2.535156,3.1582 a 1.8536182,1.8536182 0 0 0 -0.0078,0.01 c -0.62686,0.85936 -1.263115,1.74889 -1.859375,2.70898 a 1.8536182,1.8536182 0 0 0 -0.01563,0.0274 c -0.608528,1.01675 -1.15466,2.03172 -1.691406,3.01367 -0.660101,1.17562 -1.27161,2.36195 -1.863281,3.53906 a 1.8536182,1.8536182 0 0 0 0,0.002 c -0.629143,1.25488 -1.269406,2.51936 -1.888672,3.8125 -0.570767,1.18548 -1.085301,2.36803 -1.59375,3.52539 a 1.8536182,1.8536182 0 0 0 0,0.002 c -0.460863,1.05282 -0.930037,2.11345 -1.388672,3.1875 -0.471941,1.09729 -0.865969,2.19153 -1.240234,3.25976 a 1.8536182,1.8536182 0 0 0 -0.002,0.008 c -0.410296,1.18824 -0.779898,2.37072 -1.148438,3.53125 a 1.8536182,1.8536182 0 0 0 -0.0039,0.006 c -0.351362,1.12161 -0.691015,2.26022 -0.998047,3.41992 -0.299629,1.11754 -0.487161,2.22315 -0.630859,3.29883 a 1.8536182,1.8536182 0 0 0 -0.002,0.0254 c -0.141968,1.18899 -0.309723,2.35771 -0.529296,3.5039 a 1.8536182,1.8536182 0 0 0 -0.002,0.0117 c -0.214847,1.15772 -0.466813,2.31181 -0.75,3.46289 -0.268614,1.03093 -0.542641,2.07598 -0.792968,3.14453 a 1.8536182,1.8536182 0 0 0 -0.0059,0.0234 c -0.199195,0.90614 -0.374104,1.80942 -0.539062,2.70508 -0.113352,0.60997 -0.255623,1.23675 -0.404297,1.88672 a 1.8536182,1.8536182 0 0 0 -0.002,0.01 c -0.07159,0.32073 -0.163542,0.68674 -0.246094,1.09571 -7.7e-4,0.004 -0.003,0.0157 -0.0039,0.0195 -0.0012,0.006 -0.0027,0.01 -0.0039,0.0156 -0.01657,0.0721 -0.04386,0.17783 -0.07617,0.34571 a 1.8536182,1.8536182 0 0 0 -0.01563,0.60156 c -0.01799,-0.13131 -0.009,-0.18057 -0.01172,-0.125 a 1.8536182,1.8536182 0 0 0 0,0.0117 c 0.0065,-0.15054 0.02579,-0.15576 -0.01367,-0.0156 l 0.01563,-0.0547 c 0.04215,-0.13396 0.02298,-0.13853 -0.05859,0.1875 -0.08158,0.32602 -0.02268,1.06735 0.207032,1.46093 a 1.8536182,1.8536182 0 0 0 1.654297,0.91992 c 1.104022,-0.032 1.604775,-0.44851 1.78125,-0.51953 0.413534,-0.14846 0.678898,-0.25841 0.816406,-0.30273 a 1.8536182,1.8536182 0 0 0 0.01172,0.006 c 0.473333,-0.1409 1.043735,-0.24258 1.695313,-0.36524 a 1.8536182,1.8536182 0 0 0 0.02734,-0.006 c 0.773361,-0.15814 1.600098,-0.2658 2.470703,-0.375 l 0.01953,-0.002 c 0.956564,-0.10907 1.936112,-0.19001 2.935547,-0.27344 a 1.8536182,1.8536182 0 0 0 0.01563,-0.002 c 0.881619,-0.0816 1.772177,-0.15738 2.669922,-0.23633 l 0.02734,-0.002 c 0.875583,-0.0637 1.767454,-0.1462 2.673828,-0.27734 1.02238,-0.14546 1.962131,-0.36662 2.839843,-0.55469 l 0.0059,-0.002 c 0.843882,-0.1778 1.702745,-0.34413 2.574219,-0.51758 a 1.8536182,1.8536182 0 0 0 0.0039,-0.002 c 0.75677,-0.15172 1.501007,-0.2895 2.238281,-0.40234 l 0.0059,-0.002 c 0.62343,-0.0932 1.233936,-0.18455 1.833984,-0.26172 0.457603,-0.0554 0.930972,-0.10265 1.416016,-0.15039 a 1.8536182,1.8536182 0 0 0 0.002,0 c 0.458098,-0.0454 0.957613,-0.0511 1.498047,-0.043 0.614565,0.0135 1.234896,0.0348 1.859374,0.0605 0.505038,0.0208 1.016009,0.0279 1.529297,0.0156 a 1.8536182,1.8536182 0 0 0 0.04297,-0.002 c 0.345713,-0.0164 0.671084,-0.0405 0.980469,-0.0625 0.216341,-0.0147 0.468112,-0.0279 0.753906,-0.0527 a 1.8536182,1.8536182 0 0 0 0.0039,0 c 0.107857,-0.01 0.236692,-0.0235 0.365235,-0.0371 0.185233,-0.009 0.437379,-0.0464 0.685547,-0.13281 a 1.8536182,1.8536182 0 0 0 0.289062,-0.19531 1.8536182,1.8536182 0 0 0 0.320313,-0.10547 c 0.04332,-0.0225 0.09564,-0.0515 0.179687,-0.10742 0.04203,-0.028 0.09312,-0.0614 0.158203,-0.11524 0.06508,-0.0538 0.249549,-0.24945 0.25,-0.25 4.51e-4,-5.4e-4 0.343613,-0.63822 0.34375,-0.63867 6.9e-5,-2.2e-4 0.08008,-0.59745 0.08008,-0.59765 -5e-6,-2e-4 -0.154219,-0.68733 -0.154296,-0.6875 -7.8e-5,-1.8e-4 -0.34751,-0.52914 -0.347657,-0.5293 -1.47e-4,-1.6e-4 -0.359161,-0.29674 -0.359375,-0.29688 -2.13e-4,-1.3e-4 -0.282925,-0.14832 -0.283203,-0.14843 -2.78e-4,-1.2e-4 -0.14992,-0.0537 -0.208984,-0.0703 -0.270008,-0.0759 -0.265599,-0.043 -0.34375,-0.0391 a 1.8536182,1.8536182 0 0 0 -0.458985,-0.01 c -0.02028,0.003 -0.0545,0.007 -0.05664,0.008 -0.0019,2.9e-4 0.0014,-0.002 0.03516,-0.006 -0.178884,0.0194 -0.30222,0.0351 -0.357422,0.0391 a 1.8536182,1.8536182 0 0 0 -0.03125,0.004 c -0.17756,0.0157 -0.398247,0.0251 -0.660156,0.041 -0.325998,0.0183 -0.606574,0.0413 -0.853516,0.0527 -0.0033,6e-5 -0.0064,-7e-5 -0.0098,0 -0.43152,0.008 -0.852833,0.006 -1.259766,-0.0137 a 1.8536182,1.8536182 0 0 0 -0.01563,0 c -0.639306,-0.026 -1.274694,-0.0481 -1.908203,-0.0703 a 1.8536182,1.8536182 0 0 0 -0.03516,-0.002 c -0.592437,-0.009 -1.237306,-0.013 -1.927735,0.0527 a 1.8536182,1.8536182 0 0 0 -0.0039,0.002 c -0.494757,0.0484 -1.005463,0.0985 -1.53125,0.16797 -0.660224,0.085 -1.298033,0.18466 -1.914062,0.27539 a 1.8536182,1.8536182 0 0 0 -0.04102,0.008 c -0.780492,0.13297 -1.581012,0.26927 -2.396484,0.4375 -0.873107,0.17401 -1.747489,0.35204 -2.617188,0.5332 a 1.8536182,1.8536182 0 0 0 -0.01172,0.002 c -0.914161,0.19724 -1.780463,0.39106 -2.609375,0.51757 -0.0031,4.8e-4 -0.0067,0.001 -0.0098,0.002 -0.80475,0.10915 -1.622137,0.19063 -2.449219,0.25586 a 1.8536182,1.8536182 0 0 0 -0.01953,0.002 c -0.915112,0.0819 -1.807094,0.1677 -2.681641,0.23047 a 1.8536182,1.8536182 0 0 0 -0.01953,0.002 c -1.002556,0.0829 -2.026243,0.16612 -3.066407,0.28321 a 1.8536182,1.8536182 0 0 0 -0.01758,0.002 c -0.921722,0.11278 -1.835404,0.2576 -2.738281,0.42773 -0.363589,0.0679 -0.813554,0.17682 -1.236328,0.26758 0.07135,-0.3397 0.146444,-0.67174 0.212891,-1.01953 0.169249,-0.88558 0.321012,-1.73832 0.501953,-2.54883 l 0.002,-0.008 c 6.94e-4,-0.003 0.0013,-0.007 0.002,-0.01 0.235857,-1.00732 0.503484,-2.02618 0.771484,-3.06445 a 1.8536182,1.8536182 0 0 0 0.0059,-0.0215 c 0.301919,-1.22844 0.555083,-2.45466 0.787109,-3.67383 a 1.8536182,1.8536182 0 0 0 0.0039,-0.0156 c 0.222306,-1.23074 0.41078,-2.47103 0.5625,-3.71679 0.134479,-0.98983 0.299517,-1.93874 0.539063,-2.83594 a 1.8536182,1.8536182 0 0 0 0.002,-0.006 c 0.289954,-1.09861 0.601046,-2.1865 0.943359,-3.25977 a 1.8536182,1.8536182 0 0 0 0,-0.002 c 0.37191,-1.16997 0.733287,-2.31939 1.121094,-3.4375 0.368907,-1.04955 0.731145,-2.06359 1.144531,-3.01562 a 1.8536182,1.8536182 0 0 0 0.0059,-0.0117 c 0.450779,-1.0591 0.90347,-2.11601 1.361328,-3.16993 a 1.8536182,1.8536182 0 0 0 0.0059,-0.0117 c 0.494442,-1.16206 0.994137,-2.30634 1.525391,-3.41993 0.598511,-1.25393 1.21818,-2.50813 1.84375,-3.76367 l 0.002,-0.002 c 9.14e-4,-0.002 0.001,-0.004 0.002,-0.006 0.585062,-1.15985 1.181955,-2.30668 1.798828,-3.4375 v -0.002 c 0.537987,-0.98478 1.058342,-1.94483 1.605469,-2.85743 0.0022,-0.004 0.0056,-0.006 0.0078,-0.01 0.518338,-0.82962 1.081078,-1.639 1.679687,-2.43359 a 1.8536182,1.8536182 0 0 0 0.01172,-0.0156 c 0.750287,-1.0175 1.497941,-1.98872 2.296875,-2.87109 a 1.8536182,1.8536182 0 0 0 0.01172,-0.0117 c 0.992617,-1.11456 1.995507,-2.20912 3.021484,-3.27539 1.040033,-1.08103 2.054088,-2.13013 3.107422,-3.07617 l 0.0078,-0.006 c 0.0013,-0.001 0.0026,-0.003 0.0039,-0.004 0.993628,-0.87586 2.056039,-1.67215 3.181641,-2.40234 a 1.8536182,1.8536182 0 0 0 0.01172,-0.006 c 1.436624,-0.94597 2.894946,-1.86561 4.36914,-2.76368 l 0.002,-0.002 c 1.664185,-1.01143 3.284391,-2.03405 4.912109,-2.99219 l 0.01172,-0.006 c 1.413599,-0.81705 2.910857,-1.59864 4.417968,-2.48046 l 0.0039,-0.002 c 1.292336,-0.75126 2.5688,-1.51893 3.835937,-2.29101 l -0.02344,0.0156 c 1.232231,-0.72622 2.462631,-1.41214 3.710941,-2.00781 a 1.8536182,1.8536182 0 0 0 0.0156,-0.006 c 1.08961,-0.53242 2.17488,-1.08487 3.25195,-1.66602 a 1.8536182,1.8536182 0 0 0 0.0137,-0.008 c 1.08994,-0.60001 2.12757,-1.22207 3.14648,-1.80273 l -0.004,0.004 c 0.97513,-0.55254 1.98722,-1.08126 3.01954,-1.62109 a 1.8536182,1.8536182 0 0 0 0.0508,-0.0273 c 0.82344,-0.46418 1.66849,-0.98691 2.47851,-1.63477 a 1.8536182,1.8536182 0 0 0 0.43164,-0.49609 l 0.13672,-0.22852 a 1.8536182,1.8536182 0 0 0 -1.12305,-2.74414 z m -30.306636,76.66602 c 0.135527,-0.0179 0.699399,-0.0132 0.458985,0.01 -0.05861,0.003 -0.222527,-0.031 -0.257813,-0.0293 -0.08233,0.004 -0.122975,0.01 -0.15625,0.0137 -0.02942,0.004 -0.02886,0.004 -0.04492,0.006 z m -32.792968,5.22851 0.273437,0.21485 a 1.8536182,1.8536182 0 0 0 -0.248047,0.52539 c -0.03342,-0.20696 -0.06836,-0.41993 -0.06836,-0.41993 0,0 0.04297,-0.32031 0.04297,-0.32031 z m 0.160156,1.21289 a 1.8536182,1.8536182 0 0 0 1.208984,0.62696 1.8536182,1.8536182 0 0 0 0.365235,-0.46875 l 0.03125,0.0254 c -0.0067,0.0318 -0.03549,0.086 -0.05859,0.14648 a 1.8536182,1.8536182 0 0 0 0.05469,-0.13281 c -0.0029,0.0118 -0.003,0.0208 -0.01367,0.0566 -0.0072,0.0242 -0.01645,0.0558 -0.03711,0.11133 -0.01542,0.0414 -0.07331,0.15249 -0.109375,0.22461 -0.01947,0.0442 -0.03961,0.10064 -0.04883,0.12109 l -0.0078,0.008 a 1.8536182,1.8536182 0 0 0 0.0039,0.002 c -0.0042,0.009 -0.02542,0.0625 -0.02539,0.0625 1.9e-4,-3.1e-4 0.0196,-0.0357 0.0332,-0.0586 a 1.8536182,1.8536182 0 0 0 0.5625,0.29297 c -0.02541,0.005 -0.04815,0.009 -0.109375,0.0156 -0.04048,0.004 -0.181834,0.0117 -0.18164,0.0117 1.93e-4,0 -0.504006,-0.0645 -0.503907,-0.0644 5e-6,0 -0.04615,-0.0231 -0.05469,-0.0273 l -0.464844,0.39648 A 1.8536182,1.8536182 0 0 0 52.636719,204 c -0.182538,-0.0902 -0.476583,-0.23634 -0.476563,-0.23633 0,0 -0.326172,-0.32031 -0.326172,-0.32031 0,0 -0.113863,-0.19871 -0.195312,-0.3418 z m 0.419922,1.54297 c -0.03625,0.0192 0.125172,-0.0329 0,0 z" />
      <path
         style="fill:#000000;stroke-width:0.874001"
         id="path10967"
         d="m 154.49923,211.81243 c -0.34083,-0.58862 -0.62675,-1.20526 -0.89525,-1.82939 -0.3513,-0.86146 -0.65839,-1.74001 -0.98304,-2.61168 -0.47121,-1.30078 -0.9358,-2.60389 -1.41208,-3.90283 -0.59687,-1.6231 -1.20078,-3.24346 -1.82183,-4.85746 -0.76303,-1.96276 -1.62379,-3.88424 -2.5267,-5.78593 -0.92037,-1.96055 -1.93633,-3.87009 -3.03285,-5.737 -1.18966,-1.99285 -2.48444,-3.91949 -3.7725,-5.84924 -1.10872,-1.66315 -2.24436,-3.30792 -3.45248,-4.90055 -1.06845,-1.39803 -2.3288,-2.62989 -3.56286,-3.87851 -1.15898,-1.18152 -2.40024,-2.27587 -3.69489,-3.30539 -1.21834,-0.93046 -2.48132,-1.80109 -3.7318,-2.68758 -1.13317,-0.80936 -2.29307,-1.58008 -3.44087,-2.36833 -0.73598,-0.52448 -1.48329,-1.03212 -2.25644,-1.50026 -0.56426,-0.35174 -1.17661,-0.59979 -1.80737,-0.80143 0,0 -0.037,-0.005 -0.037,-0.005 v 0 c 0.55818,0.21198 1.10207,0.45847 1.61373,0.7684 0.78129,0.45388 1.5289,0.95993 2.2696,1.47707 1.15119,0.78868 2.31497,1.55914 3.45213,2.36808 1.24689,0.88485 2.50398,1.75661 3.72271,2.6801 1.29192,1.0277 2.53429,2.11628 3.69775,3.28865 1.23341,1.24461 2.49526,2.47183 3.57051,3.85968 1.21901,1.58839 2.35299,3.23851 3.4671,4.90177 1.29483,1.92197 2.58744,3.84694 3.7759,5.83734 1.0954,1.86539 2.10916,3.77477 3.03529,5.73034 0.90371,1.90057 1.77275,3.81865 2.52718,5.78423 0.62282,1.61506 1.21504,3.24163 1.82009,4.86341 0.47769,1.29946 0.9464,2.6022 1.42235,3.9023 0.3254,0.88382 0.65195,1.7678 1.01191,2.63824 0.27239,0.62826 0.56412,1.24787 0.90932,1.84009 0,0 0.13242,0.0813 0.13242,0.0813 z" />
      <path
         style="fill:#000000;stroke-width:0.874001"
         id="path10969"
         d="m 51.318908,202.49807 c 0.658463,-0.93196 1.336895,-1.84955 2.007156,-2.77302 1.041135,-1.44285 2.107504,-2.8672 3.149706,-4.30926 1.274669,-1.81733 2.571988,-3.61804 3.882665,-5.40952 1.517501,-2.03332 2.905881,-4.15795 4.308387,-6.27093 1.490369,-2.2681 2.977857,-4.53777 4.504201,-6.78188 1.558835,-2.29915 3.240556,-4.51053 4.923406,-6.71925 1.409973,-1.83511 2.83038,-3.66297 4.34512,-5.41322 1.304546,-1.51395 2.809271,-2.82581 4.336505,-4.10635 1.157374,-0.94349 2.366409,-1.82148 3.577986,-2.69345 0,0 0.01349,-0.0148 0.01349,-0.0148 v 0 c -1.328073,0.90721 -2.642843,1.83333 -3.879257,2.86473 -1.547373,1.26778 -3.056004,2.58909 -4.366792,4.10663 -1.50741,1.74813 -2.935422,3.56045 -4.332459,5.39782 -1.688174,2.19531 -3.365402,4.40112 -4.91299,6.69904 -1.522534,2.2441 -3.010418,4.51095 -4.496707,6.77916 -1.40194,2.11335 -2.801596,4.22914 -4.309121,6.26962 -1.31635,1.78349 -2.614403,3.57999 -3.896722,5.38808 -1.037611,1.44084 -2.0945,2.86774 -3.117752,4.31889 -0.66742,0.92252 -1.340067,1.84127 -2.00369,2.76653 0,0 0.266872,-0.0988 0.266872,-0.0988 z" />
      <path
         id="path10971"
         style="fill:#000000;stroke-width:0.874001"
         d="m 100.73597,154.17457 -0.27854,0.1018 c -0.542176,0.34547 -1.064062,0.71833 -1.555457,1.13275 -0.511896,0.46035 -1.016735,0.92886 -1.519287,1.3994 -0.465557,0.4368 -0.944442,0.85886 -1.423169,1.28106 -0.159587,0.13993 -0.317334,0.28168 -0.474906,0.42374 0.03176,-0.0123 0.0658,-0.0177 0.0987,-0.0269 l 0.08475,-0.0346 c 0.0085,-0.003 0.01532,-0.005 0.02067,-0.006 0.01606,-0.001 0.01773,0.0108 0.0031,0.0341 -0.01606,0.0256 -0.03201,0.0514 -0.04806,0.077 -0.01513,0.0333 -0.02614,0.0686 -0.04547,0.0997 -0.0068,0.011 -0.01601,0.0229 -0.02584,0.0351 0.260662,-0.23859 0.521503,-0.47706 0.784448,-0.71313 0.468244,-0.41958 0.925821,-0.85065 1.378211,-1.28726 0.489049,-0.46514 0.966355,-0.94332 1.470711,-1.39217 0.483068,-0.41104 0.993569,-0.78608 1.530139,-1.12499 z m -7.733378,7.11016 c -0.01888,0.0326 -0.03814,0.065 -0.05684,0.0977 0.0081,-0.008 0.016,-0.0166 0.02377,-0.0258 0.01103,-0.024 0.02173,-0.048 0.03307,-0.0718 z" />
      <path
         style="fill:#000000;stroke-width:0.874001"
         id="path11192"
         d="m 93.663721,161.01504 c 0.04207,-0.1294 0.117652,-0.24563 0.189638,-0.36009 0.118528,-0.18328 0.246943,-0.35981 0.378523,-0.53387 0.138197,-0.17998 0.285986,-0.35231 0.435909,-0.52256 0.139652,-0.16399 0.28007,-0.32738 0.422225,-0.48921 0.127608,-0.1556 0.25732,-0.30931 0.393173,-0.45778 0.117113,-0.12759 0.24502,-0.24439 0.375635,-0.35787 0.04809,-0.0415 0.09877,-0.0798 0.148426,-0.11933 0.01132,-0.009 0.02869,-0.0138 0.03374,-0.0273 0.0029,-0.008 -0.01648,0.002 -0.02471,0.003 0,0 -0.02432,0.0121 -0.02432,0.0121 v 0 c -0.03458,0.0203 -0.06975,0.0396 -0.103728,0.0608 -0.07319,0.0458 -0.137824,0.10438 -0.204049,0.15925 -0.132196,0.11683 -0.261694,0.23714 -0.380873,0.3674 -0.131749,0.14789 -0.256905,0.30125 -0.383871,0.45322 -0.131916,0.1564 -0.267398,0.30978 -0.402635,0.46331 -0.14047,0.16931 -0.285255,0.33526 -0.416377,0.51211 -0.130281,0.1723 -0.262033,0.34373 -0.378132,0.52611 -0.07652,0.12041 -0.154668,0.24066 -0.210828,0.37235 0,0 0.152262,-0.0617 0.152262,-0.0617 z" />
      <path
         style="fill:#000000;stroke-width:0.874001"
         id="path11194"
         d="m 95.904922,158.26261 c -0.05715,0.0816 -0.124127,0.15589 -0.190521,0.23001 -0.01722,0.0189 -0.03413,0.038 -0.05168,0.0566 -0.01865,0.0197 -0.03832,0.0385 -0.0569,0.0583 -0.07121,0.0758 -0.138284,0.15591 -0.205004,0.23567 -0.04225,0.0504 -0.04868,0.056 -0.08676,0.10952 -0.01643,0.0231 -0.05218,0.0705 -0.05678,0.10267 -0.0016,0.0114 0.0055,0.0224 0.0082,0.0336 0,0 0.01834,-0.008 0.01834,-0.008 v 0 c 0.03182,-0.0271 0.06471,-0.053 0.09546,-0.0813 0.07955,-0.0732 0.145378,-0.15979 0.211603,-0.24469 0.09141,-0.1136 0.184256,-0.22603 0.277326,-0.33825 0.05889,-0.0709 0.115779,-0.14327 0.169439,-0.21825 0,0 -0.132741,0.0641 -0.132741,0.0641 z" />
      <path
         style="fill:#000000;stroke-width:0.874001"
         id="path11196"
         d="m 95.682315,158.30464 c -0.05475,0.0963 -0.111945,0.19127 -0.1734,0.28339 -0.07959,0.12188 -0.163777,0.24056 -0.250934,0.35712 -0.09301,0.117 -0.189894,0.23071 -0.286811,0.34447 -0.101544,0.11879 -0.203927,0.23689 -0.303614,0.35725 -0.08286,0.0952 -0.156877,0.19771 -0.226698,0.30274 -0.01836,0.0276 -0.04042,0.0533 -0.05431,0.0835 -0.01024,0.0222 -0.01138,0.0476 -0.01707,0.0715 -0.02005,0.0283 -0.04011,0.0565 -0.06017,0.0848 0,0 0.01879,-0.007 0.01879,-0.007 v 0 c 0.02595,-0.0304 0.05193,-0.0609 0.0779,-0.0913 0.0418,-0.038 0.08573,-0.0737 0.125386,-0.11395 0.02839,-0.0288 0.05234,-0.0617 0.07831,-0.0927 0.09004,-0.10752 0.177215,-0.21735 0.261623,-0.32935 0.09782,-0.11801 0.19663,-0.23517 0.294611,-0.35305 0.09171,-0.11093 0.186002,-0.22063 0.264167,-0.3418 0.07668,-0.11207 0.148056,-0.22746 0.213577,-0.34645 0.04905,-0.0884 0.102116,-0.17453 0.146643,-0.26539 0,0 -0.107976,0.0562 -0.107976,0.0562 z" />
      <path
         style="fill:#000000;stroke-width:0.874001"
         id="path11198"
         d="m 93.9069,160.67162 c 0.07692,-0.10085 0.149127,-0.20512 0.225875,-0.30608 0.14062,-0.19418 0.286255,-0.38469 0.431702,-0.57527 0.02787,-0.0364 0.05589,-0.0727 0.0836,-0.10924 0.06875,-0.0906 0.09842,-0.13231 0.168338,-0.22221 0.0847,-0.10892 0.171844,-0.216 0.257897,-0.32385 0.148897,-0.18797 0.296466,-0.37692 0.440431,-0.56871 0.06945,-0.0974 0.03906,-0.0497 0.09271,-0.14187 0,0 -0.01794,0.009 -0.01794,0.009 v 0 c -0.136803,0.12486 -0.07081,0.0614 -0.198197,0.19014 -0.02909,0.032 -0.05894,0.0634 -0.08728,0.0961 -0.135244,0.15608 -0.254309,0.32535 -0.386979,0.48352 -0.168296,0.21389 -0.340389,0.42488 -0.503471,0.64277 -0.140763,0.18699 -0.282614,0.37316 -0.416393,0.56526 -0.07131,0.1016 -0.150236,0.19752 -0.22008,0.30015 0,0 0.129799,-0.0396 0.129799,-0.0396 z" />
      <path
         style="fill:#000000;stroke-width:0.874001"
         id="path11200"
         d="m 94.960796,159.4092 c 0.102301,-0.10261 0.193556,-0.21581 0.28471,-0.3283 0.02035,-0.0254 0.04109,-0.0505 0.06104,-0.0762 0.02122,-0.0274 0.04122,-0.0556 0.06243,-0.083 0.08903,-0.1148 0.182443,-0.22637 0.274978,-0.33835 0.06281,-0.0722 0.126611,-0.14357 0.18917,-0.216 0.02352,-0.0272 0.06227,-0.0718 0.08227,-0.1037 0.0058,-0.009 0.0089,-0.0197 0.01341,-0.0296 -0.0063,-0.003 -0.0127,-0.007 -0.01905,-0.01 0,0 -0.02193,0.0106 -0.02193,0.0106 v 0 c -0.03174,0.0218 -0.06349,0.0436 -0.09524,0.0654 -0.04559,0.0363 -0.09646,0.0751 -0.13916,0.11522 -0.09028,0.0849 -0.165915,0.18398 -0.242261,0.28107 -0.127643,0.159 -0.255354,0.31812 -0.378079,0.48092 -0.04699,0.0623 -0.09455,0.12411 -0.140954,0.18685 -2.64e-4,5.3e-4 -0.05246,0.0699 -0.05774,0.0782 -0.0044,0.007 -0.0074,0.0148 -0.01117,0.0221 0,0 0.137571,-0.0552 0.137571,-0.0552 z" />
      <path
         style="fill:#000000;stroke-width:0.874001"
         id="path11202"
         d="m 93.889003,160.78407 c 0.08849,-0.11606 0.173519,-0.23449 0.256511,-0.35457 0.02119,-0.0285 0.04285,-0.0568 0.06358,-0.0857 0.02138,-0.0298 0.04146,-0.0605 0.06276,-0.0904 0.08764,-0.12293 0.178795,-0.24345 0.268555,-0.36483 0.02582,-0.0353 0.101094,-0.13171 0.117131,-0.17734 0.0073,-0.0208 0.0021,-0.0441 0.0032,-0.0662 0,0 -0.01865,0.007 -0.01865,0.007 v 0 c -0.04402,0.0386 -0.09021,0.0749 -0.132049,0.11593 -0.06366,0.0624 -0.106918,0.12406 -0.160194,0.19415 -0.128233,0.17581 -0.255918,0.35209 -0.381503,0.52976 -0.07976,0.10984 -0.159303,0.21971 -0.23359,0.33335 0,0 0.154287,-0.0414 0.154287,-0.0414 z" />
      <path
         style="fill:#000000;stroke-width:0.874001"
         id="path11204"
         d="m 113.56333,122.26682 c 0.31508,-0.1357 0.62861,-0.275 0.94244,-0.41359 0.11259,-0.0604 0.24625,-0.0939 0.34886,-0.17323 0.0232,-0.0179 0.0348,-0.0471 0.0526,-0.0704 0,0 -0.0473,0.008 -0.0473,0.008 v 0 c -0.21979,0.0904 -0.44003,0.17849 -0.65282,0.28497 -0.30142,0.13606 -0.60196,0.27408 -0.90473,0.40711 0,0 0.26091,-0.0432 0.26091,-0.0432 z" />
      <path
         id="path11206"
         style="fill:#000000;stroke-width:0.874001"
         d="m 128.42578,100.97656 c -9.4e-4,2e-5 -0.15122,0.0174 -0.1914,0.0273 a 0.85829406,0.85829406 0 0 0 -0.0137,0.002 c -0.15367,0.041 -0.1393,0.049 -0.16406,0.0606 -0.0248,0.0115 -0.0421,0.0209 -0.0625,0.0312 -0.0228,0.0116 -0.0495,0.026 -0.0742,0.0391 -0.0756,0.0172 -0.12411,0.01 -0.21875,0.0566 -0.20806,0.10281 -0.32747,0.24091 -0.39648,0.32031 -6.5e-4,7.4e-4 -0.001,0.001 -0.002,0.002 -3.6e-4,4.3e-4 -0.002,0.002 -0.002,0.002 -0.21063,0.24002 -0.39193,0.47443 -0.56445,0.6875 a 0.85829406,0.85829406 0 0 0 -0.006,0.008 c -0.47621,0.60128 -0.96238,1.20018 -1.45117,1.79688 a 0.85829406,0.85829406 0 0 0 -0.002,0.002 c -0.70562,0.87129 -1.40102,1.74646 -2.09765,2.61328 -0.59017,0.72858 -1.19947,1.45962 -1.79688,2.21094 a 0.85829406,0.85829406 0 0 0 -0.01,0.0117 c -0.5777,0.753 -1.13864,1.51685 -1.6836,2.29492 -0.58367,0.83188 -1.14734,1.66719 -1.71679,2.48828 -0.53091,0.74779 -1.09148,1.49466 -1.63868,2.26953 a 0.85829406,0.85829406 0 0 0 -0.002,0.002 c -0.4222,0.6035 -0.86884,1.23406 -1.25195,1.94336 -0.2909,0.53399 -0.56789,1.07487 -0.83399,1.6211 -6.5e-4,0.001 -0.001,0.003 -0.002,0.004 -0.001,0.003 -0.003,0.005 -0.004,0.008 -0.21681,0.43094 -0.42618,0.87107 -0.61914,1.32226 -0.14765,0.33486 -0.30073,0.65486 -0.46875,0.95313 a 0.85829406,0.85829406 0 0 0 0.91797,1.26367 l 0.25196,-0.0508 a 0.85829406,0.85829406 0 0 0 0.56835,-0.4043 c 0.22366,-0.37697 0.4069,-0.75342 0.57813,-1.11523 a 0.85829406,0.85829406 0 0 0 0.01,-0.0215 c 0.18355,-0.41785 0.39169,-0.84093 0.60351,-1.27734 a 0.85829406,0.85829406 0 0 0 0.002,-0.004 c 0.25402,-0.52978 0.52325,-1.05324 0.80664,-1.56836 l 0.002,-0.002 c 0.32715,-0.58908 0.73276,-1.16721 1.1543,-1.77149 0.53726,-0.75561 1.09223,-1.50962 1.63867,-2.2832 a 0.85829406,0.85829406 0 0 0 0.004,-0.008 c 0.57698,-0.83338 1.14065,-1.66629 1.71485,-2.48047 0.53135,-0.75327 1.07303,-1.49346 1.63281,-2.22266 l 0.01,-0.0117 c 0.58042,-0.72613 1.18626,-1.44914 1.7832,-2.19336 a 0.85829406,0.85829406 0 0 0 0.002,-0.002 c 0.12,-0.15067 0.2396,-0.29872 0.35938,-0.44922 -0.073,0.17524 -0.14197,0.34735 -0.21485,0.52344 -0.37991,0.92075 -0.73414,1.84632 -1.08203,2.76563 a 0.85829406,0.85829406 0 0 0 0.006,0.10742 0.85829406,0.85829406 0 0 0 -0.082,0.0937 c -0.2845,0.77721 -0.58473,1.55131 -0.89648,2.32422 v -0.006 c -0.26574,0.6486 -0.54608,1.29293 -0.8379,1.93554 -0.23162,0.50468 -0.48221,1.01299 -0.73046,1.53907 -0.20773,0.43998 -0.42044,0.88902 -0.62305,1.34961 -0.16088,0.3643 -0.31203,0.7235 -0.46289,1.07617 -0.11487,0.26064 -0.24681,0.52909 -0.38281,0.80664 a 0.85829406,0.85829406 0 0 0 -0.006,0.0117 c -0.12899,0.27392 -0.28637,0.55507 -0.45508,0.85351 l 0.0117,-0.0176 c -0.18277,0.30579 -0.31124,0.59315 -0.43164,0.8418 a 0.85829406,0.85829406 0 0 0 -0.0215,0.0469 c -0.072,0.17455 -0.14335,0.34046 -0.21875,0.49609 -0.0738,0.15024 -0.14163,0.29512 -0.20703,0.43164 a 0.85829406,0.85829406 0 0 0 -0.004,0.008 c -0.0299,0.0641 -0.0954,0.17025 -0.18554,0.32618 -0.0707,0.12213 -0.13451,0.23038 -0.19531,0.32617 -0.0317,0.0466 -0.0871,0.12522 -0.15235,0.24219 a 0.85829406,0.85829406 0 0 0 -0.004,0.008 0.85829406,0.85829406 0 0 0 -0.1582,0.33593 c 0.0459,-0.20654 0.18727,-0.24834 0.31446,-0.35351 a 0.85829406,0.85829406 0 0 0 -0.0567,0.99219 c 0.0396,0.0611 0.0799,0.12284 0.0801,0.12304 4.1e-4,4.4e-4 0.20252,0.15787 0.20313,0.15821 6e-4,3.4e-4 0.11772,0.0576 0.16406,0.0723 0.0463,0.0146 0.0851,0.0219 0.11719,0.0273 0.10924,0.0187 0.14302,0.0125 0.17773,0.01 a 0.85829406,0.85829406 0 0 0 0.008,0.004 c 0.003,-7.7e-4 0.01,-0.001 0.0137,-0.002 0.002,-1.3e-4 0.008,9e-5 0.01,0 0.0726,-0.004 0.0903,-0.009 0.11328,-0.0117 0.0459,-0.005 0.0883,-0.01 0.16993,-0.01 a 0.85829406,0.85829406 0 0 0 0.78906,-0.51953 c 0.0345,-0.0804 0.006,0.0718 -0.16992,0.24805 a 0.85829406,0.85829406 0 0 0 0.11132,-0.13868 c 0.043,-0.0658 0.0593,-0.10038 0.0762,-0.13281 l 0.01,-0.0137 c 0.003,-0.005 0.0116,-0.0214 0.0137,-0.0254 0.0255,-0.0405 0.0573,-0.0849 0.0977,-0.15039 l 0.004,-0.008 c 0.0887,-0.14117 0.16083,-0.27095 0.2246,-0.38282 a 0.85829406,0.85829406 0 0 0 0.002,-0.006 c 0.0835,-0.14865 0.16664,-0.30729 0.24219,-0.47656 v -0.002 c 0.0615,-0.13541 0.12569,-0.27131 0.1914,-0.41016 a 0.85829406,0.85829406 0 0 0 0.002,-0.006 c 0.0929,-0.19968 0.17547,-0.39761 0.25196,-0.58984 0.0864,-0.21773 0.2022,-0.43982 0.33594,-0.67578 v -0.002 c 0.17025,-0.29886 0.34887,-0.61677 0.51171,-0.95899 l 0.002,-0.006 c 0.13849,-0.28216 0.28051,-0.57401 0.41211,-0.88086 a 0.85829406,0.85829406 0 0 0 0.002,-0.006 c 0.15687,-0.37352 0.29845,-0.73381 0.44531,-1.07031 0.1967,-0.45022 0.38585,-0.88957 0.58789,-1.31055 a 0.85829406,0.85829406 0 0 0 0.002,-0.004 c 0.2384,-0.50444 0.49472,-1.01957 0.73828,-1.5586 a 0.85829406,0.85829406 0 0 0 0.002,0 c 0.29709,-0.65831 0.58273,-1.32266 0.85547,-1.99609 a 0.85829406,0.85829406 0 0 0 0.002,-0.002 c 0.33152,-0.82291 0.63522,-1.64911 0.92969,-2.47266 l 0.004,-0.0117 c 0.35382,-0.94499 0.71437,-1.88367 1.0957,-2.80859 v -0.002 c 0.37167,-0.89868 0.74843,-1.80165 1.11133,-2.71679 a 0.85829406,0.85829406 0 0 0 0.002,0 c 0.23491,-0.59334 0.47023,-1.19709 0.68555,-1.81836 l 0.002,-0.008 c 0.0843,-0.23462 0.17142,-0.46165 0.26367,-0.6836 a 0.85829406,0.85829406 0 0 0 0.0117,-0.0332 c 0.002,-0.005 0.0608,-0.10842 0.0898,-0.32422 a 0.85829406,0.85829406 0 0 0 0.008,-0.0781 c -0.001,0.0313 -0.002,0.0296 0,0.0195 0.0252,-0.10858 0.0525,-0.21469 0.0801,-0.31446 a 0.85829406,0.85829406 0 0 0 0,-0.002 c 0.005,-0.01 0.002,8e-4 0.008,-0.01 0.0163,-0.0308 0.0545,-0.12266 0.0547,-0.12304 1.3e-4,-3.8e-4 0.0449,-0.22821 0.0449,-0.22852 2e-5,-3.1e-4 -0.0663,-0.38648 -0.0664,-0.38672 -1e-4,-2.3e-4 -0.29665,-0.36898 -0.29687,-0.36914 -2.2e-4,-1.5e-4 -0.31607,-0.13664 -0.31641,-0.13672 -3.4e-4,-7e-5 -0.19875,-0.0195 -0.19922,-0.0195 z m -4.2207,9.22461 a 0.85829406,0.85829406 0 0 0 -0.14063,0.16016 c 0.008,-0.01 0.0106,-0.0467 0.0176,-0.0547 0.0649,-0.0737 0.0969,-0.0886 0.12305,-0.10547 z m -0.28906,0.59961 a 0.85829406,0.85829406 0 0 0 0.0215,0.34375 c 0.001,0.002 -0.0396,0.0249 -0.0566,-0.23828 -0.003,-0.0538 0.0297,-0.058 0.0352,-0.10547 z m -5.48633,12.15234 c -0.004,0.002 -0.0203,0.0108 -0.0312,0.0156 0.002,-6e-4 0.004,-0.007 0.006,-0.008 0.0139,-0.005 0.0136,-0.004 0.0254,-0.008 z" />
      <path
         id="path18572"
         style="fill:#b3b3b3;fill-opacity:1;stroke-width:1.85031"
         d="m 430.46875,462.22461 c -0.0851,-0.0934 -1.88358,0.94569 -3.99805,2.30859 -2.11447,1.3629 -5.23135,3.1741 -6.92578,4.02344 -1.69442,0.84934 -6.86127,3.6926 -11.48242,6.32031 -4.62115,2.62771 -13.82166,7.59294 -20.44531,11.03321 -6.62365,3.44027 -16.07663,8.66116 -21.00586,11.60156 -4.92922,2.94041 -13.12181,7.68258 -18.20508,10.53906 -20.29825,11.40635 -45.43533,27.42538 -53.06445,33.81641 -12.10236,10.13833 -30.75859,30.94925 -39.73047,44.31836 -9.94809,14.82377 -31.29455,59.64431 -38.55078,80.9414 -5.83584,17.12822 -8.41693,27.21976 -10.07813,39.40625 -1.09449,8.02905 -2.90009,17.02772 -5.52344,27.5293 -2.24795,8.99879 -5.57289,25.30039 -5.30859,26.0293 0.098,0.27036 4.08614,-4.94293 8.86133,-11.58594 4.77519,-6.64301 12.54826,-17.40077 17.27344,-23.9043 4.72517,-6.50353 16.14041,-23.10384 25.36718,-36.89062 19.62084,-29.31776 35.91204,-51.38978 47.89844,-64.89453 6.00208,-6.76237 16.92204,-16.21746 26.70703,-23.12305 6.59978,-4.65768 4.60975,-2.4713 -2.84765,3.12891 -15.01168,11.27313 -22.0804,18.64395 -38.84375,40.49804 -12.00284,15.6479 -17.10171,22.87798 -32.15039,45.59961 -13.21687,19.95585 -17.51496,26.07923 -41.8125,59.54102 -6.42089,8.84263 -11.67579,16.44065 -11.67579,16.88476 0,0.64502 0.98719,0.49138 4.90235,-0.76367 6.95417,-2.22923 16.53054,-3.69879 34.76758,-5.33203 12.70519,-1.13782 18.22461,-1.91059 27.72656,-3.88086 21.02565,-4.35975 26.04159,-4.98489 39.03125,-4.86719 6.31557,0.0572 12.65429,-0.0466 14.08594,-0.23047 l 2.60351,-0.33398 0.37891,-9.33789 c 0.82656,-20.27479 3.72033,-38.37079 10.44922,-65.35156 7.04626,-28.25333 12.08507,-43.12358 19.87304,-58.65235 1.68107,-3.35196 2.88309,-6.3731 2.67188,-6.71484 -0.21613,-0.34971 -0.1302,-0.4668 0.19531,-0.26563 0.31808,0.19659 1.2815,-0.7094 2.14063,-2.01367 0.85915,-1.30428 2.58968,-3.60147 3.84765,-5.10547 2.77966,-3.3233 15.31425,-14.96765 18.8418,-17.5039 l 2.55078,-1.83399 3.82422,-15.29101 c 4.14994,-16.59505 8.00872,-29.19243 11.55078,-37.70313 4.71208,-11.32196 17.78121,-36.22335 29.61133,-56.42383 3.65423,-6.23976 6.57338,-11.42222 6.48828,-11.51562 z"
         transform="scale(0.26458333)" />
      <path
         style="fill:#b3b3b3;fill-opacity:1;stroke-width:1.85031"
         d="m 353.87577,884.64685 c -6.23412,-10.83426 -11.29141,-23.16045 -18.34705,-44.71757 -9.52028,-29.08731 -12.98443,-46.98985 -14.63228,-75.61885 -0.7562,-13.13778 -0.35673,-32.81474 0.87032,-42.8696 1.73332,-14.20346 5.01655,-30.64583 10.17451,-50.95377 6.57029,-25.86859 10.43512,-37.18977 17.91674,-52.48314 3.63593,-7.43231 5.55377,-10.63085 8.39648,-14.00349 3.63295,-4.31021 18.55241,-18.65459 19.40246,-18.65459 0.69015,0 0.59744,0.41178 -2.39734,10.64853 -8.23916,28.16301 -12.46914,48.03884 -14.00582,65.81052 -0.88148,10.19437 -0.74944,42.36892 0.28276,68.89717 0.47948,12.32307 0.87223,23.47685 0.87277,24.78618 8.2e-4,2.00684 0.17686,2.38059 1.12126,2.38059 1.02526,0 1.12028,-0.37343 1.12028,-4.40264 0,-4.7344 1.05719,-16.22755 2.81528,-30.60608 0.6027,-4.92923 1.60313,-14.75968 2.22316,-21.84545 2.3053,-26.34501 3.46954,-31.97519 12.97286,-62.73563 4.47862,-14.49643 14.27863,-43.29905 15.01296,-44.12365 0.21196,-0.23802 1.32389,1.72811 2.47096,4.36918 1.14707,2.64107 4.58204,10.01961 7.63328,16.39675 4.97335,10.39442 7.29234,15.95322 15.23562,36.521 6.30718,16.33136 8.43924,36.78936 6.59647,63.29577 -2.59906,37.38494 -9.60829,58.87165 -36.1258,110.74329 -10.58488,20.70534 -14.99698,28.46368 -23.84082,41.92219 -4.26123,6.48471 -8.98445,14.00448 -10.49606,16.71059 l -2.74838,4.92023 z"
         id="path18574"
         transform="scale(0.26458333)" />
      <path
         id="path18576"
         style="fill:#b3b3b3;fill-opacity:1;stroke-width:1.85031"
         d="m 451.14453,468.27734 c -0.58828,0 -6.71611,13.19374 -13.39648,28.84571 -4.07616,9.55038 -11.25543,25.68308 -15.95313,35.84961 -9.91459,21.45665 -12.57369,27.90751 -18.57031,45.03906 l -4.39453,12.55273 3.01953,6.21289 c 5.49102,11.30124 14.33398,29.96327 14.33398,30.25 0,0.15509 2.54926,6.78241 5.66602,14.72852 6.41293,16.34964 8.42008,23.48846 9.83398,34.99414 2.22908,18.13919 0.27876,53.68139 -3.92968,71.62695 l -0.73047,3.11133 5.86328,0.69531 c 7.12887,0.84672 10.78671,1.66824 21.66601,4.86133 11.42403,3.35296 18.52376,4.97834 31.83399,7.29102 12.58676,2.18697 19.37463,3.85385 27.26172,6.6914 2.92673,1.05295 7.55442,2.57895 10.28515,3.39258 2.73073,0.81363 8.27726,3.04464 12.32422,4.95703 8.18316,3.86695 9.84406,4.49439 23.88086,9.00782 5.39135,1.73355 12.07106,4.25069 14.84375,5.59375 5.76776,2.79382 6.15376,2.90168 5.5918,1.56054 -0.51213,-1.22221 -6.43727,-17.02856 -12.79492,-34.13086 -6.18142,-16.62823 -8.70659,-22.55761 -15.45703,-36.30664 -6.40331,-13.04199 -12.33542,-23.07276 -22.85743,-38.65039 -14.20283,-21.02703 -22.39489,-30.7153 -35.48242,-41.96289 -9.47013,-8.13875 -39.82534,-29.36144 -45.09765,-31.5293 -2.53842,-1.04374 -3.51553,-2.22188 -1.07227,-1.29296 5.905,2.24508 34.78517,21.86946 45.39062,30.84375 7.4804,6.32988 20.54364,20.03388 25.60157,26.85742 6.41141,8.64948 21.74456,31.84463 26.30664,39.79492 10.61057,18.49093 16.45018,31.87833 29.57031,67.80078 8.22274,22.51357 7.99711,22.21633 7.58984,10.0332 -0.42243,-12.63653 -1.02372,-17.51413 -3.3789,-27.44726 -1.05918,-4.46711 -3.08089,-15.68348 -4.49414,-24.92578 -3.9387,-25.75803 -5.67885,-33.29615 -13.06446,-56.6211 -4.81401,-15.20342 -5.01958,-16.00251 -8.16992,-31.60156 -2.95691,-14.64126 -8.00062,-35.68211 -10.67383,-44.53125 -1.02373,-3.38884 -2.40349,-8.36963 -3.0664,-11.06836 -1.30841,-5.32658 -5.40416,-16.86917 -7.34766,-20.70703 -9.74111,-19.23595 -28.26021,-47.38423 -42.20508,-64.15039 -5.62142,-6.75874 -8.83867,-10.04097 -13.85351,-14.13281 -6.69467,-5.4625 -8.21165,-7.03237 -10.56836,-10.93164 -2.00355,-3.31495 -4.95037,-6.38438 -7.25586,-7.56055 -1.12069,-0.57174 -3.11457,-1.94064 -4.43164,-3.04102 -1.31706,-1.10038 -2.49511,-2 -2.61719,-2 z"
         transform="scale(0.26458333)" />
      <path
         style="fill:#999999;fill-opacity:1;stroke-width:1.85031"
         d="m 362.97641,714.03868 c -0.92512,-26.81017 -0.52154,-49.27932 1.10421,-61.47609 2.12304,-15.92748 6.37899,-34.52155 13.09244,-57.20034 1.69792,-5.73577 4.87771,-17.58273 7.0662,-26.32656 7.81449,-31.22187 10.71588,-38.90119 24.94753,-66.03036 8.18151,-15.59607 22.95329,-41.47298 24.24397,-42.47011 0.52661,-0.40684 0.89365,-0.97638 0.81566,-1.26565 -0.078,-0.28926 0.6202,-1.87616 1.55156,-3.52643 0.93135,-1.65027 1.55178,-3.36947 1.37873,-3.82044 -0.41449,-1.08016 2.71043,-6.55058 8.11884,-14.21262 2.40723,-3.41029 6.7353,-9.56685 9.61794,-13.68124 4.23096,-6.03885 24.71498,-32.24369 26.93055,-34.45177 0.90814,-0.90507 0.0992,1.412 -4.6934,13.44335 -2.4544,6.16153 -4.96252,11.90136 -5.57361,12.75517 -0.6111,0.85381 -0.96561,1.78776 -0.78782,2.07543 0.71445,1.156 -7.44189,20.00061 -17.17161,39.67375 -2.78903,5.63933 -4.94135,10.38295 -4.78292,10.54137 0.15843,0.15843 -1.5605,4.11457 -3.81986,8.79142 -2.25935,4.67686 -7.05662,15.4351 -10.66059,23.90721 -3.60397,8.47211 -10.18694,23.19573 -14.62882,32.71916 -8.77244,18.80818 -13.35866,29.95497 -18.57248,45.14024 -1.8511,5.39134 -4.91762,14.08751 -6.81448,19.32481 -5.6324,15.55125 -8.20016,23.20906 -13.52319,40.33005 -8.90191,28.63211 -10.74651,37.38814 -12.80329,60.77515 -1.15904,13.17908 -3.72265,35.83704 -4.09712,36.21151 -0.1095,0.1095 -0.5318,-9.44266 -0.93844,-21.22701 z"
         id="path18578"
         transform="scale(0.26458333)" />
    </g>
  </g>
</svg>
