<?xml version="1.0" encoding="UTF-8" standalone="no"?>
<!-- Created with Inkscape (http://www.inkscape.org/) -->

<svg
   width="210mm"
   height="297mm"
   viewBox="0 0 210 297"
   version="1.1"
   id="svg13853"
   inkscape:version="1.2 (dc2aedaf03, 2022-05-15)"
   sodipodi:docname="grao-seco.svg"
   xmlns:inkscape="http://www.inkscape.org/namespaces/inkscape"
   xmlns:sodipodi="http://sodipodi.sourceforge.net/DTD/sodipodi-0.dtd"
   xmlns="http://www.w3.org/2000/svg"
   xmlns:svg="http://www.w3.org/2000/svg">
  <sodipodi:namedview
     id="namedview13855"
     pagecolor="#505050"
     bordercolor="#eeeeee"
     borderopacity="1"
     inkscape:showpageshadow="0"
     inkscape:pageopacity="0"
     inkscape:pagecheckerboard="0"
     inkscape:deskcolor="#505050"
     inkscape:document-units="mm"
     showgrid="false"
     inkscape:zoom="1.4770342"
     inkscape:cx="259.3034"
     inkscape:cy="427.88446"
     inkscape:window-width="2560"
     inkscape:window-height="1369"
     inkscape:window-x="2552"
     inkscape:window-y="-8"
     inkscape:window-maximized="1"
     inkscape:current-layer="layer1" />
  <defs
     id="defs13850" />
  <g
     inkscape:label="Camada 1"
     inkscape:groupmode="layer"
     id="layer1">
    <path
       id="path13974"
       style="fill:#000000;stroke-width:0.874001"
       d="m 74.696216,62.105253 -0.01912,0.0093 c -0.0044,0.0078 -0.0057,0.01676 -0.0083,0.02532 0.0092,-0.01155 0.01833,-0.02298 0.02739,-0.03462 z m 0.916223,0.182418 c -4.35e-4,0.0011 -0.0011,0.002 -0.0015,0.0031 h 5.16e-4 c 3.05e-4,-10e-4 7.63e-4,-0.0021 0.001,-0.0031 z m -0.691431,0.478007 c -0.0084,0.01211 -0.01697,0.02406 -0.02532,0.03617 4.14e-4,0.0016 0.0011,0.0031 0.0016,0.0047 0.0079,-0.01363 0.01581,-0.02723 0.02377,-0.04082 z m 0.324528,0.3545 c -0.0073,0.01304 -0.01448,0.02617 -0.0217,0.03927 -0.04416,0.08082 -0.08745,0.162095 -0.129708,0.243913 0.0044,0.01039 0.01009,0.02103 0.01447,0.03152 -0.05157,0.171465 -0.101704,0.343413 -0.155546,0.51418 -0.251315,0.797065 -1.19801,3.574553 -1.433505,4.408 -0.844801,2.989884 -1.326777,6.05172 -1.842264,9.110038 -0.161068,0.979109 -0.322105,1.95818 -0.483175,2.937289 -0.136369,0.791122 -0.277139,1.581569 -0.408761,2.373498 -0.136022,0.818399 -0.344145,2.070894 -0.409277,2.937288 -0.07793,1.036634 -0.123172,3.221918 -0.148828,4.154269 -0.05874,4.122837 -0.374032,8.251565 -0.141077,12.37444 0.102571,1.81528 0.261715,3.07874 0.455786,4.87619 0.08851,0.81401 0.180783,1.62785 0.265617,2.44222 0.148436,1.42497 0.267063,2.85306 0.422714,4.27726 0.268565,2.45732 0.63368,4.8991 1.009757,7.34167 0.164525,0.94627 0.318668,1.89469 0.49351,2.83911 0.367253,1.9837 0.624452,3.17917 1.091923,5.13457 0.489074,2.04578 1.055335,4.0721 1.592151,6.10557 0.874514,3.45895 1.946015,6.85976 3.042191,10.25312 0.340669,1.1808 0.761322,2.33118 1.353406,3.40858 0.206111,0.30852 0.356152,0.65667 0.575159,0.95601 0.101213,0.098 0.09762,0.11256 0.180351,0.19585 -7.54e-4,0.0151 -6.74e-4,0.0305 -0.0021,0.0455 0.0025,0.002 0.0028,0.002 0.0052,0.004 -0.0084,0.0158 -0.0051,0.0247 0.02274,0.0176 0.0021,0.002 0.0043,0.004 0.0062,0.005 l 5.17e-4,0.001 c 5.37e-4,3.2e-4 8.91e-4,-2.9e-4 0.0016,0 0.01558,0.0118 0.03115,0.0221 0.04341,0.0186 9.8e-4,-3.2e-4 0.0022,0.004 0.0031,0.002 0.0014,-0.002 0.0017,-0.003 0.0031,-0.005 0.0052,-0.002 0.01256,-0.007 0.01912,-0.0119 4.95e-4,0.0105 0.002,0.0205 0.0047,0.03 -0.0024,0.007 -0.0054,0.0141 -0.0078,0.0212 -0.0032,0.01 0.01749,0.0304 0.0217,0.0212 0.0016,-0.004 0.0025,-0.004 0.0041,-0.008 0.0031,0.004 0.0049,0.008 0.0088,0.0119 0.02021,-0.0481 0.04025,-0.0961 0.06046,-0.14418 0.04592,-0.0259 0.09205,-0.0516 0.137976,-0.0775 -0.0043,-0.004 -0.0097,-0.005 -0.01447,-0.008 0.0034,-0.002 0.0042,-0.003 0.0078,-0.005 0.0086,-0.005 -0.01382,-0.0228 -0.02325,-0.0191 0.200902,-0.15198 0.399127,-1.40002 0.414962,-1.50792 0.123219,-0.8395 0.205536,-1.87028 0.28267,-2.68717 0.251489,-2.64991 0.638654,-5.28506 0.845944,-7.93957 0.1622,-2.07714 0.154824,-2.62785 0.223242,-4.74493 0.01506,-4.32768 0.08924,-8.6584 -0.06253,-12.98422 -0.04891,-0.74961 -0.09425,-1.49959 -0.146761,-2.24896 -0.121105,-1.72821 -0.207127,-2.32524 -0.237195,-4.04575 -0.03551,-2.03225 0.04846,-4.07166 0.06615,-6.10402 0.02082,-2.79543 -0.13294,-5.59614 -0.51263,-8.36693 -0.208829,-1.523892 -0.332416,-1.980502 -0.645955,-3.469555 -0.108937,-0.50872 -0.229724,-1.014852 -0.326596,-1.526006 -0.212656,-1.122089 -0.287814,-1.736437 -0.396875,-2.853055 -0.08446,-0.864769 -0.140653,-1.718576 -0.270267,-2.578138 -0.506156,-2.379667 -0.519205,-4.820688 -0.745691,-7.23315 -0.02839,-0.186336 -0.0501,-0.373962 -0.08527,-0.559139 -0.14206,-0.748006 -0.329662,-1.486638 -0.452169,-2.23914 -0.112845,-0.693141 -0.140452,-1.042513 -0.211873,-1.725992 -0.187148,-1.446268 -0.532257,-2.862907 -0.745175,-4.305164 -0.203361,-1.249923 -0.306665,-2.511316 -0.434598,-3.769796 -0.165463,-0.853056 -0.250676,-1.719101 -0.421163,-2.570902 -0.155347,-0.462111 -0.364504,-0.907331 -0.587045,-1.341004 -0.124362,-0.299458 -0.295872,-0.57457 -0.455786,-0.855245 -0.111096,-0.209208 -0.203627,-0.429787 -0.362252,-0.608748 -0.116305,-0.109384 -0.180979,-0.269994 -0.240812,-0.416512 -0.0086,-0.02206 -0.01591,-0.04454 -0.02429,-0.06666 0.0079,-0.02705 0.0159,-0.05408 0.02377,-0.08113 -0.07165,0.0058 -0.105302,0.0064 -0.117823,-0.02377 z m -0.03514,0.538469 c 0.0487,0.09198 0.105636,0.178133 0.179834,0.24753 0.152977,0.152363 0.208746,0.375903 0.322461,0.554488 0.156179,0.278273 0.325159,0.550311 0.448552,0.845943 0.210346,0.409681 0.404922,0.830742 0.557588,1.265039 0.171747,0.841647 0.249147,1.699518 0.415996,2.542481 0.128842,1.262789 0.228504,2.529607 0.434082,3.783748 0.210698,1.438338 0.553429,2.850353 0.74104,4.292244 0.07114,0.679437 0.101912,1.063934 0.21394,1.751831 0.121962,0.748901 0.308899,1.484151 0.451652,2.228288 0.03442,0.179433 0.05552,0.360972 0.0832,0.541569 0.230418,2.417833 0.238604,4.864721 0.745691,7.250204 0.130784,0.855591 0.18337,1.705754 0.267684,2.566768 0.108646,1.109472 0.191375,1.770284 0.401526,2.883028 0.09649,0.510913 0.217522,1.016485 0.326078,1.524972 0.312258,1.481555 0.432573,1.924616 0.639754,3.441133 0.376849,2.758427 0.526924,5.546467 0.504879,8.329207 -0.01961,2.03769 -0.104135,4.0824 -0.06976,6.12004 0.02967,1.75906 0.112805,2.28854 0.236161,4.0535 0.05215,0.7462 0.09678,1.49321 0.145211,2.23966 0.151784,4.3186 0.07712,8.64208 0.06253,12.96251 -0.06779,2.07588 -0.06356,2.68711 -0.222209,4.7253 -0.206626,2.6545 -0.595082,5.28966 -0.845943,7.93956 -0.106651,1.13041 -0.161095,2.30904 -0.412378,3.42305 -0.03216,0.14259 -0.08847,0.27827 -0.132809,0.41755 -0.02289,0.0471 -0.04959,0.0932 -0.07338,0.14004 -0.0053,-0.006 -0.0116,-0.0123 -0.01705,-0.0181 -0.214995,-0.28501 -0.350333,-0.62951 -0.552938,-0.92397 -0.579022,-1.06413 -1.001121,-2.19382 -1.333252,-3.35949 -1.097304,-3.38769 -2.170203,-6.78294 -3.047359,-10.23607 -0.536049,-2.03053 -1.104032,-4.05321 -1.593702,-6.09575 -0.464529,-1.93767 -0.726192,-3.15501 -1.091923,-5.12062 -0.175378,-0.94255 -0.330363,-1.88849 -0.495577,-2.8329 -0.377211,-2.43764 -0.744168,-4.8748 -1.014408,-7.3272 -0.157014,-1.4249 -0.276807,-2.85369 -0.426847,-4.27932 -0.0857,-0.81423 -0.178724,-1.62789 -0.268201,-2.44172 -0.196226,-1.8028 -0.353151,-3.03659 -0.45837,-4.85758 -0.237932,-4.117774 0.0733,-8.241778 0.12454,-12.359969 0.02207,-0.827838 0.07148,-3.176901 0.14056,-4.135148 0.06295,-0.873196 0.263902,-2.098653 0.399459,-2.926436 0.129817,-0.792742 0.269063,-1.58413 0.403593,-2.376083 0.15942,-0.979109 0.319104,-1.958179 0.478524,-2.937288 0.508462,-3.048782 0.97998,-6.106531 1.810742,-9.089368 0.202388,-0.726667 1.207776,-3.731128 1.420585,-4.415751 0.03478,-0.111895 0.06655,-0.224708 0.100252,-0.33693 z" />
    <path
       style="fill:#000000;stroke-width:0.874001"
       id="path13976"
       d="m 73.953332,88.990944 c 0.03559,0.512892 0.0733,1.025639 0.106759,1.538674 0.06381,0.978418 0.131887,2.007547 0.143958,2.98913 0.01738,1.414941 -0.06345,2.830068 -0.105641,4.243919 -0.04278,3.507593 0.07428,7.014193 0.0816,10.521753 -0.02854,2.78118 0.116322,5.55348 0.385474,8.32009 0.291166,2.91085 0.90424,5.76965 1.512464,8.62606 0.111771,0.58468 0.223544,1.16937 0.335315,1.75405 0.08826,0.48343 0.173601,0.9674 0.264784,1.45029 0.109699,0.58093 0.187169,1.13044 0.438185,1.66108 0,0 0.05504,-0.0134 0.05504,-0.0134 v 0 c -0.02207,-0.56398 -0.193159,-1.1351 -0.296296,-1.68374 -1.07064,-5.69518 0.671599,3.46706 -0.60124,-3.21009 -0.608763,-2.84884 -1.223832,-5.69955 -1.515808,-8.60307 -0.27024,-2.76056 -0.414406,-5.52689 -0.398232,-8.302 -0.01953,-3.50619 -0.138526,-7.01106 -0.120711,-10.517417 0.03118,-1.416433 0.09742,-2.834542 0.06654,-4.251571 -0.01929,-0.885039 -0.103388,-2.112772 -0.164592,-2.990916 -0.03576,-0.51312 -0.07576,-1.025935 -0.113633,-1.538904 0,0 -0.07397,0.006 -0.07397,0.006 z" />
    <path
       style="fill:#000000;stroke-width:0.874001"
       id="path13978"
       d="m 74.82016,77.220346 c 0.199628,1.415569 0.348401,2.84398 0.658958,4.241739 0.20797,0.936046 0.518866,1.850202 0.76296,2.777294 0.452845,2.098427 0.940176,4.186428 1.500622,6.258798 0.622085,2.287376 0.909121,4.649666 1.22637,6.994465 0.318407,2.625928 0.35823,5.277808 0.430448,7.919658 0.06567,1.89122 -0.0641,3.77687 -0.190825,5.66226 -0.02622,2.27763 -0.324829,4.54351 -0.345417,6.81974 0.0127,0.2449 0.01466,0.49058 0.03812,0.73468 0.01299,0.13521 0.196872,1.3705 0.21416,1.49429 0.08246,0.59041 0.127693,1.17649 0.171868,1.77056 0.119171,1.36877 0.370519,2.72288 0.626528,4.07165 0.265824,1.42346 0.315939,2.86957 0.422785,4.30959 0.07174,0.86717 0.02858,0.45991 0.123275,1.22245 0,0 0.05656,-0.003 0.05656,-0.003 v 0 c 0.01262,-0.76764 0.0099,-0.35789 0.0045,-1.22929 -0.04795,-1.45383 -0.129915,-2.90656 -0.393139,-4.34033 -0.254529,-1.34084 -0.506703,-2.68639 -0.625268,-4.04722 -0.04555,-0.59884 -0.09099,-1.19044 -0.17452,-1.78561 -0.01207,-0.0859 -0.203591,-1.36696 -0.214124,-1.47429 -0.02352,-0.23975 -0.02588,-0.48112 -0.03881,-0.72168 0.01728,-2.27214 0.317093,-4.53411 0.340082,-6.80771 0.125452,-1.89187 0.252156,-3.78413 0.183399,-5.6816 -0.07493,-2.64867 -0.1152,-5.30769 -0.442854,-7.939651 -0.324922,-2.351241 -0.620665,-4.720215 -1.257676,-7.0114 -0.571135,-2.068762 -1.060694,-4.155755 -1.54097,-6.247157 -0.251418,-0.922512 -0.569902,-1.832157 -0.781164,-2.764978 -0.315831,-1.394531 -0.465937,-2.820992 -0.674418,-4.233219 0,0 -0.08142,0.01 -0.08142,0.01 z" />
    <path
       style="fill:#cccccc;stroke-width:2.23645"
       d="m 301.75342,559.4175 c -4.46859,-9.54354 -17.57534,-54.33288 -23.03723,-78.72451 -3.70546,-16.54775 -6.80244,-37.56235 -10.37672,-70.41137 -2.16237,-19.87296 -2.69575,-41.82847 -1.70234,-70.07285 0.6429,-18.27886 0.80159,-19.76814 4.43656,-41.63749 2.0734,-12.47432 4.52632,-26.09872 5.45094,-30.27644 1.69052,-7.63829 6.92163,-25.11141 7.81972,-26.11969 0.26501,-0.29752 1.55941,1.68279 2.87645,4.40071 2.40665,4.9665 3.2688,8.82971 4.57796,20.51341 0.65266,5.82464 2.56372,18.06439 5.44404,34.86717 0.73405,4.28223 1.64999,12.05118 2.03542,17.26433 0.38544,5.21315 0.98778,11.15411 1.33856,13.20213 0.35077,2.04802 1.08892,7.83665 1.64033,12.86361 0.55141,5.02697 1.7967,12.79592 2.7673,17.26433 0.9706,4.46841 2.21954,11.4757 2.77542,15.57174 1.30059,9.58345 2.54105,61.67572 2.55535,107.30964 0.0115,36.85107 0.29932,32.04907 -4.33883,72.39951 -0.3611,3.1415 -0.91315,5.96843 -1.22677,6.28205 -0.31362,0.31361 -1.67989,-1.79971 -3.03616,-4.69628 z m 2.69604,-70.43086 c -0.23334,-4.74769 -1.01323,-11.83114 -1.73308,-15.74101 -3.33592,-18.11915 -3.66577,-26.41124 -2.19488,-55.17814 1.31585,-25.73476 -0.14061,-50.49623 -4.04202,-68.71878 -0.74244,-3.46779 -6.97533,-28.43282 -9.97283,-39.94491 -0.72717,-2.79276 -1.70469,-7.89589 -2.17226,-11.34029 -0.46757,-3.44441 -1.1039,-6.26255 -1.41408,-6.26255 -0.31018,0 -0.42568,0.83782 -0.25668,1.86183 0.169,1.02402 0.62827,4.14683 1.02058,6.93959 0.39232,2.79276 1.73564,9.03838 2.98516,13.87916 4.20776,16.3013 8.48524,34.48879 9.47719,40.2962 3.45984,20.25568 4.27091,40.98765 2.70442,69.12845 -1.29507,23.26492 -1.12051,27.26174 2.08096,47.64686 0.8772,5.58552 1.78919,12.89747 2.02663,16.24878 0.48353,6.82451 0.94865,9.81697 1.52586,9.81697 0.21412,0 0.19838,-3.88447 -0.035,-8.63216 z m -16.61959,-19.60693 c -2.23299,-11.46516 -4.40414,-23.8924 -4.82478,-27.61608 -1.11512,-9.87143 -1.98284,-39.59617 -2.0159,-69.0573 -0.03,-26.70754 -0.45224,-36.89827 -1.52896,-36.89827 -0.37005,0 -0.40878,0.9089 -0.0938,2.20036 0.2952,1.21019 0.47024,13.62527 0.38899,27.58907 -0.18626,32.0111 0.86203,69.02131 2.2424,79.16916 1.12261,8.25288 7.99887,44.1509 8.89181,46.42034 1.59712,4.05914 0.61563,-2.93594 -3.05979,-21.80728 z"
       id="path14007"
       transform="scale(0.26458333)" />
  </g>
</svg>
