<?xml version="1.0" encoding="UTF-8" standalone="no"?>
<!-- Created with Inkscape (http://www.inkscape.org/) -->

<svg
   width="210mm"
   height="297mm"
   viewBox="0 0 210 297"
   version="1.1"
   id="svg13011"
   inkscape:version="1.2 (dc2aedaf03, 2022-05-15)"
   sodipodi:docname="semente-de-queda.svg"
   xmlns:inkscape="http://www.inkscape.org/namespaces/inkscape"
   xmlns:sodipodi="http://sodipodi.sourceforge.net/DTD/sodipodi-0.dtd"
   xmlns="http://www.w3.org/2000/svg"
   xmlns:svg="http://www.w3.org/2000/svg">
  <sodipodi:namedview
     id="namedview13013"
     pagecolor="#505050"
     bordercolor="#eeeeee"
     borderopacity="1"
     inkscape:showpageshadow="0"
     inkscape:pageopacity="0"
     inkscape:pagecheckerboard="0"
     inkscape:deskcolor="#505050"
     inkscape:document-units="mm"
     showgrid="false"
     inkscape:zoom="5.9081369"
     inkscape:cx="444.13324"
     inkscape:cy="543.657"
     inkscape:window-width="2560"
     inkscape:window-height="1369"
     inkscape:window-x="2552"
     inkscape:window-y="-8"
     inkscape:window-maximized="1"
     inkscape:current-layer="layer1" />
  <defs
     id="defs13008" />
  <g
     inkscape:label="Camada 1"
     inkscape:groupmode="layer"
     id="layer1">
    <path
       id="path13132"
       style="fill:#000000;stroke-width:0.874001"
       d="m 116.60787,128.18701 -0.2868,0.0977 c 0.63414,1.71792 0.96426,3.51631 1.29036,5.31078 0.28403,1.78867 0.63245,3.56614 0.93172,5.35213 0.26807,1.86808 0.54054,3.73297 0.87488,5.59036 0.0825,0.52728 0.21281,1.05855 0.2372,1.5937 0.0528,0.30825 0.0488,0.63495 0.13022,0.93741 0.0193,0.0381 0.0347,0.0783 0.0579,0.1142 -0.002,0.007 -0.005,0.012 -0.007,0.0202 0.0576,0.0864 0.13494,0.16286 0.17311,0.25941 0.0589,0.14894 -0.12015,-0.17217 -0.11162,-0.0176 0.0112,0.20304 0.0742,0.40246 0.13281,0.59532 0.27004,0.90189 0.36734,1.84805 0.51056,2.77657 0.26968,1.30226 0.47261,2.61465 0.61392,3.93671 0.009,0.0692 0.0156,0.13857 0.0232,0.20774 -0.0394,-0.053 -0.0796,-0.10559 -0.12247,-0.1571 -0.0809,-0.11772 -0.15635,-0.23806 -0.24701,-0.34881 -0.1344,-0.20288 -0.26661,-0.40665 -0.42737,-0.59015 -0.1128,-0.1373 -0.22958,-0.27912 -0.37413,-0.3824 -0.14212,-0.10756 -0.26278,-0.2113 -0.37363,-0.35037 -0.19877,-0.16406 -0.39948,-0.32674 -0.58446,-0.50643 -0.30466,-0.24115 -0.64185,-0.41062 -1.0144,-0.52193 -0.40389,-0.13837 -0.83675,0.0721 -1.19528,0.25115 -0.35069,0.19744 -0.72583,0.37647 -0.9834,0.6966 -0.21522,0.27146 -0.45102,0.53091 -0.59325,0.85111 -0.29045,0.71031 -0.45139,1.45301 -0.5519,2.2133 -0.11633,0.80949 -0.19747,1.62178 -0.15813,2.44119 0.0383,1.03905 0.54196,2.00028 1.0728,2.87063 0.12407,0.13668 0.23636,0.28517 0.37207,0.41031 0.61096,0.56337 1.38294,0.98448 2.16938,1.2392 0.74136,0.0624 1.25349,-0.12063 1.74563,-0.68885 0.55066,-0.71563 1.04935,-1.47945 1.32343,-2.34869 0.24,-0.80717 0.45083,-1.6252 0.46302,-2.47323 0.0372,-0.79135 0.0288,-1.57557 -0.0419,-2.36213 -0.0235,-0.0409 -0.0452,-0.083 -0.0656,-0.12558 -0.0523,-0.12269 -0.0967,-0.24848 -0.13022,-0.37775 -0.0332,-0.12073 -0.0659,-0.24163 -0.0889,-0.36484 -0.0232,-0.11642 -0.0468,-0.23273 -0.0631,-0.35036 -0.0149,-0.11375 -0.0312,-0.22707 -0.0481,-0.34055 -0.0181,-0.10987 -0.0316,-0.22041 -0.0532,-0.3297 -0.0234,-0.11868 -0.0486,-0.23746 -0.0698,-0.35656 -0.0205,-0.10341 -0.0434,-0.20634 -0.0672,-0.30903 -0.0267,-0.11456 -0.0533,-0.22904 -0.0749,-0.34468 -0.0225,-0.11622 -0.0454,-0.23243 -0.0641,-0.34933 -0.0187,-0.11643 -0.0353,-0.23301 -0.047,-0.35037 -0.0103,-0.10003 -0.0216,-0.20001 -0.0382,-0.29921 -0.0187,-0.1108 -0.0393,-0.22121 -0.0594,-0.33176 -0.0221,-0.12685 -0.0448,-0.25374 -0.062,-0.38137 -0.0202,-0.13509 -0.04,-0.27037 -0.0548,-0.40618 -0.0134,-0.13727 -0.0235,-0.27466 -0.0305,-0.41238 -0.004,-0.0675 -0.005,-0.13503 -0.007,-0.20257 -0.003,-0.0141 -0.006,-0.0282 -0.009,-0.0424 -0.0256,-0.1447 -0.052,-0.28937 -0.0775,-0.43408 -0.0232,-0.13347 -0.0464,-0.26666 -0.06,-0.40153 -0.007,-0.0692 -0.0141,-0.13869 -0.0196,-0.20826 -0.0147,-0.0479 -0.0289,-0.096 -0.0445,-0.14366 -0.0322,-0.11082 -0.0698,-0.2203 -0.094,-0.33331 -0.0241,-0.12052 -0.0487,-0.24121 -0.0636,-0.36329 -0.0184,-0.14159 -0.0274,-0.2847 -0.0543,-0.42529 -0.01,-0.0907 -0.018,-0.18154 -0.0258,-0.27234 -0.003,2e-4 -0.006,5e-5 -0.009,0.001 -0.0434,-0.10831 -0.0309,-0.22949 -0.0455,-0.34417 -0.0211,-0.16652 -0.0793,-0.32639 -0.0744,-0.49609 -0.0347,-0.55186 -0.15857,-1.09859 -0.25063,-1.64228 -0.34363,-1.85418 -0.62053,-3.71738 -0.89659,-5.5826 -0.3126,-1.78537 -0.66836,-3.56244 -0.95963,-5.35162 -0.34097,-1.80711 -0.69873,-3.61541 -1.34049,-5.34592 z m 1.14515,24.29722 c 0.0497,-0.002 0.0916,0.006 0.12196,0.0269 0.33007,0.0991 0.63288,0.23974 0.90123,0.45682 0.18082,0.17984 0.38073,0.33925 0.57619,0.50282 0.10958,0.13529 0.24394,0.25404 0.38809,0.3638 0.12066,0.0765 0.2093,0.1977 0.29973,0.30954 0.14957,0.17278 0.27363,0.36246 0.39687,0.55449 0.093,0.11398 0.16916,0.23666 0.25218,0.3576 0.11756,0.16912 0.26049,0.31108 0.35347,0.49196 0.0391,0.0668 0.10029,0.10288 0.16123,0.14573 -0.005,-0.0701 -0.009,-0.14018 -0.0139,-0.21033 l 0.0351,-0.0176 c 0.051,0.69216 0.0524,1.38338 0.0196,2.07998 -0.0122,0.81111 -0.21718,1.59239 -0.44701,2.3642 -0.25854,0.81543 -0.73015,1.52951 -1.24695,2.2009 -0.33714,0.40737 -0.81813,0.57769 -1.33635,0.50952 -0.69537,-0.25966 -1.38606,-0.63273 -1.93322,-1.14153 -0.116,-0.10786 -0.20981,-0.23737 -0.31471,-0.35605 -0.44505,-0.78601 -0.94359,-1.64899 -0.96169,-2.57814 -0.043,-0.79354 0.0357,-1.58093 0.14676,-2.36523 0.0983,-0.72257 0.23907,-1.43383 0.51831,-2.10891 0.13199,-0.2772 0.33696,-0.50845 0.52814,-0.74569 0.22453,-0.27081 0.55481,-0.41971 0.85576,-0.58911 0.12866,-0.0606 0.48373,-0.24454 0.69918,-0.25167 z" />
    <path
       id="path13138"
       style="fill:#000000;stroke-width:0.874001"
       d="m 108.22854,122.35894 v 5.2e-4 l -5.2e-4,0.001 c -0.64626,-0.008 -1.29248,0.0476 -1.93528,0.11369 -0.6709,0.07 -1.34121,0.14537 -2.01435,0.19017 -0.49587,0.0373 -0.99266,0.0401 -1.48932,0.0289 -0.46518,-0.0122 -0.92908,-0.0469 -1.39319,-0.0801 -0.56135,-0.0364 -1.12441,0.0114 -1.677419,0.1111 -0.15163,0.0273 -0.301515,0.0643 -0.452169,0.0966 -0.878754,0.2232 -1.668779,0.68024 -2.466516,1.09605 -0.521993,0.28528 -1.057728,0.55545 -1.546159,0.89762 -0.163697,0.11469 -0.245242,0.18663 -0.398942,0.31316 -0.392024,0.30648 -0.77712,0.62063 -1.142049,0.95912 -0.322321,0.26254 -0.580681,0.57881 -0.802018,0.92811 -0.19884,0.31866 -0.440112,0.60606 -0.624251,0.93379 -0.178591,0.33388 -0.347532,0.67222 -0.482142,1.02629 -0.142628,0.41983 -0.194584,0.8634 -0.214457,1.30432 0.0097,0.36058 0.04049,0.73144 0.156063,1.0759 0.02696,0.0804 0.06069,0.15853 0.09095,0.23771 0.114996,0.2642 0.247505,0.52997 0.449585,0.74001 0.113995,0.1185 0.170077,0.15008 0.302824,0.24598 0.321542,0.21519 0.703503,0.28455 1.078487,0.3452 0.557201,0.0812 1.123621,0.0299 1.68,-0.032 0.495339,-0.0625 0.981449,-0.17749 1.473296,-0.26045 0.216826,-0.0366 0.722948,-0.1096 0.922941,-0.13901 0.850519,-0.11095 1.689098,-0.29919 2.540925,-0.39894 0.64375,-0.0375 1.2851,-0.0994 1.92495,-0.1788 0.52081,-0.0515 1.04129,-0.10562 1.56063,-0.17054 0.51657,-0.0632 1.03267,-0.12878 1.55029,-0.18293 0.46781,-0.0332 0.93221,-0.0941 1.39733,-0.15193 0.52668,-0.0726 1.05793,-0.10284 1.58854,-0.12867 0.5979,-0.0225 1.20116,-0.0293 1.79627,0.0419 0.30783,0.0415 0.61197,0.10777 0.91519,0.17467 0.20834,0.0444 0.40407,0.12923 0.60203,0.20516 0.16874,0.0694 0.34545,0.11507 0.51935,0.16898 0.13615,0.0495 0.27684,0.0837 0.41599,0.1235 0.16319,0.0529 0.3376,0.0653 0.49971,0.11989 0.25176,0.0985 0.46819,0.26604 0.68989,0.41703 0.22807,0.15453 0.46004,0.30187 0.66972,0.48111 0.17995,0.17513 0.39079,0.31516 0.56844,0.49248 0.14016,0.14578 0.27195,0.29974 0.40825,0.44906 0.14234,0.14814 0.26672,0.31224 0.36793,0.49093 0.105,0.22284 0.23124,0.43389 0.3514,0.64854 0.0862,0.17993 0.16796,0.36321 0.24288,0.54829 0.0552,0.14737 0.10462,0.29664 0.15451,0.44596 0.0725,0.19239 0.13296,0.38893 0.20568,0.58136 0.061,0.25589 0.11413,0.51159 0.20825,0.7581 0.0722,0.11677 0.14732,0.22625 0.20774,0.34933 0.0432,0.0747 0.0397,0.15239 0.0641,0.23358 0.027,0.0901 0.071,0.20156 0.10387,0.28887 0.0811,0.24924 0.17595,0.49452 0.23048,0.75137 0.0526,0.27508 0.10078,0.55059 0.16071,0.82424 0.0354,0.23703 0.076,0.4733 0.11937,0.709 0.0265,0.21074 0.0926,0.4128 0.1354,0.62012 0.0242,0.13291 0.0538,0.26488 0.0858,0.39636 0.004,0.008 0.008,0.0168 0.0119,0.0253 0.0272,0.0707 0.0611,0.13896 0.0915,0.20826 0.0301,0.0712 0.0673,0.13894 0.0956,0.21084 0.0267,0.0627 0.0465,0.12757 0.0641,0.19327 0.0151,0.0567 0.0219,0.11481 0.0269,0.17311 0.002,0.0233 0.004,0.0452 0.004,0.0661 0.0296,0.10582 0.0538,0.21306 0.077,0.32039 0.008,0.0386 0.0161,0.0771 0.0238,0.11576 0.0229,0.009 0.0462,0.0376 0.062,0.0884 0.0328,0.10507 0.0663,0.21057 0.0956,0.31678 0.0349,0.12951 0.0808,0.25508 0.12247,0.38241 0.0396,0.12734 0.0717,0.25666 0.10387,0.38602 0.0268,0.10687 0.0474,0.21536 0.0708,0.32298 0.0196,0.0825 0.0313,0.16653 0.0413,0.25063 0.008,0.0797 0.02,0.15893 0.031,0.23823 0.0128,0.0913 0.0341,0.18078 0.0537,0.27078 0.0238,0.10377 0.047,0.2075 0.0692,0.31161 0.023,0.12158 0.054,0.24159 0.0853,0.36122 0.0412,0.13874 0.073,0.27976 0.10077,0.42168 0.0284,0.14177 0.0463,0.2852 0.0656,0.42839 0.0176,0.14231 0.0263,0.28544 0.0424,0.42789 0.0175,0.16404 0.0368,0.32795 0.0589,0.49144 0.0178,0.1434 0.0417,0.28601 0.063,0.42891 0.0185,0.12497 0.0403,0.24946 0.0636,0.37362 0.0196,0.0946 0.0481,0.18699 0.0734,0.28009 0.0226,0.0897 0.0452,0.17905 0.0631,0.26975 0.0214,0.0948 0.0321,0.19154 0.0444,0.28784 0.009,0.0896 0.0198,0.17868 0.0326,0.26768 0.0186,0.12205 0.0326,0.24464 0.0496,0.36691 0.0103,0.0764 0.0212,0.15269 0.0331,0.22892 0.0157,0.0619 0.0315,0.12386 0.0486,0.18552 0.0229,0.0866 0.0452,0.17327 0.0636,0.26097 0.0225,0.0942 0.0412,0.18965 0.0568,0.28525 0.0134,0.0967 0.0301,0.19275 0.0501,0.28835 0.0171,0.0996 0.0361,0.19931 0.0517,0.29921 0.015,0.0935 0.0271,0.1872 0.0424,0.2806 0.0174,0.0945 0.0313,0.18956 0.0393,0.28526 0.008,0.0924 0.0179,0.18583 0.0119,0.27853 -0.007,0.10276 -0.0758,0.12331 -0.10904,0.0563 0.01,0.19018 0.0473,0.37678 0.0863,0.56276 0.0298,0.12936 0.0785,0.25244 0.10284,0.38292 10e-4,0.0753 0.0419,0.17361 0.0615,0.25942 0.0216,0.0952 0.0712,0.1786 0.0925,0.2713 0.0185,0.0391 0.0373,0.0782 0.0558,0.1173 0.0155,0.0331 -0.0163,-0.0289 -0.016,-0.0202 7.9e-4,0.0184 0.008,0.0402 0.01,0.0589 -0.0262,-0.049 -3.4e-4,0.0189 0.0253,0.0811 -2e-5,0.0203 1.3e-4,0.021 0,0.047 0.0395,0.15813 -0.009,-0.0803 0.0362,0.20619 0.0119,0.023 0.0247,0.0448 0.0367,0.0677 4.7e-4,0.007 -3.8e-4,0.004 5.1e-4,0.0155 0.0157,0.12311 0.0884,0.21617 0.15503,0.3147 0.0191,0.0173 0.0186,0.017 0.0341,0.031 0.004,0.0143 0.0311,0.0556 0.0491,0.0553 0.004,-1e-4 0.008,-5.1e-4 0.0119,-5.1e-4 0.11642,0.10281 0.0696,0.0573 0.006,-5.2e-4 0.14737,-0.007 0.29176,-0.0457 0.4377,-0.0682 -0.0168,0.0187 -0.0711,0.0697 -0.0501,0.0558 0.0689,-0.0459 0.10649,-0.11867 0.13488,-0.19327 0.009,-0.012 0.0219,-0.0334 0.0382,-0.0584 -0.0154,-0.0614 -0.0297,-0.1232 -0.0413,-0.18551 -0.0232,-0.11642 -0.0468,-0.23274 -0.0631,-0.35037 -0.0149,-0.11375 -0.0315,-0.22707 -0.0486,-0.34055 -0.0181,-0.10987 -0.0316,-0.2204 -0.0532,-0.32969 -0.004,-0.0213 -0.008,-0.0432 -0.0124,-0.0646 -0.0184,0.007 -0.0369,0.0144 -0.0553,0.0212 0.0175,0.0331 0.0347,0.0656 0.0522,0.0987 -0.0423,0.003 -0.0818,0.007 -0.10026,0.0181 4.4e-4,-0.0119 0.001,-0.0242 5.2e-4,-0.0336 -2.6e-4,-0.005 -0.003,0.0102 -0.003,0.0155 -0.001,0.007 -0.001,0.0145 -0.001,0.0217 -0.01,0.007 -0.0135,0.0171 -0.007,0.0305 0.002,0.003 0.003,0.006 0.005,0.008 3.5e-4,0.0161 0.002,0.0322 0.002,0.0496 0.0159,0.0792 0.0252,0.12671 0.0103,0.20826 -0.007,0.0663 -0.008,0.13186 -0.008,0.19792 -0.001,-0.003 -5.6e-4,-0.007 -0.003,-0.0103 h -5.2e-4 c 0.004,0.001 -0.002,-0.0179 -0.0114,-0.0408 0.002,0.009 0.004,0.0183 0.006,0.0274 0.002,0.004 0.003,0.009 0.004,0.0129 -3.7e-4,-2.5e-4 -6.3e-4,5e-4 -0.002,-5.2e-4 -7.6e-4,-0.004 -0.002,-0.009 -0.003,-0.0129 -0.007,-0.0201 -0.0149,-0.0404 -0.0207,-0.061 -0.003,-0.011 0.006,0.0117 0.015,0.0336 -0.0119,-0.064 -0.0254,-0.12739 -0.0527,-0.18706 -0.004,-0.009 -0.0118,-0.0255 -0.0186,-0.0398 -0.0217,-0.0676 -0.0471,-0.13394 -0.0734,-0.19998 -0.0186,-0.081 -0.0512,-0.15615 -0.0548,-0.23616 -0.0246,-0.13214 -0.0647,-0.25895 -0.10077,-0.38809 -0.0315,-0.17508 -0.0652,-0.35115 -0.0672,-0.52969 -0.01,-0.21665 -0.0313,-0.4325 -0.0739,-0.64544 -0.0564,-0.23962 -0.1162,-0.4822 -0.23513,-0.6997 -0.073,-0.13888 -0.1348,-0.26111 -0.13281,-0.42374 -0.0277,-0.21389 -0.0799,-0.42333 -0.10232,-0.63821 -0.0252,-0.1756 -0.061,-0.34909 -0.0956,-0.52296 -0.0424,-0.21779 -0.0676,-0.43842 -0.10335,-0.65733 -0.0406,-0.22836 -0.10419,-0.45173 -0.13436,-0.68212 -0.0387,-0.20306 -0.0911,-0.40351 -0.11834,-0.60875 -0.048,-0.25084 -0.14142,-0.48867 -0.18397,-0.74053 -0.0483,-0.21791 -0.10332,-0.43406 -0.13332,-0.65577 -0.0495,-0.23615 -0.0998,-0.47142 -0.1018,-0.71417 -0.0238,-0.233 -0.0641,-0.46376 -0.0465,-0.6997 -0.0106,-0.30379 -0.0352,-0.60559 -0.0858,-0.90537 -0.0278,-0.29969 -0.0749,-0.59399 -0.16899,-0.88108 -0.0595,-0.20019 -0.12059,-0.39997 -0.1788,-0.60048 -0.0432,-0.16051 -0.0744,-0.32423 -0.11782,-0.48473 -0.0549,-0.20471 -0.10634,-0.41091 -0.14366,-0.6196 -0.0431,-0.20194 -0.106,-0.39867 -0.13281,-0.60409 -0.0448,-0.24249 -0.0834,-0.48602 -0.12454,-0.72916 -0.0604,-0.27536 -0.11157,-0.55241 -0.1664,-0.82889 -0.0684,-0.28511 -0.16729,-0.56102 -0.26665,-0.83664 -0.0112,-0.0274 -0.0717,-0.17309 -0.0863,-0.21652 -0.0406,-0.12108 -0.0534,-0.2518 -0.1297,-0.35916 -0.057,-0.0982 -0.10591,-0.20646 -0.18862,-0.28628 -0.10101,-0.2406 -0.12681,-0.50222 -0.20723,-0.74931 -0.0702,-0.1856 -0.12858,-0.3745 -0.19947,-0.55966 -0.0544,-0.16123 -0.10795,-0.32239 -0.1695,-0.4811 -0.0854,-0.20582 -0.17448,-0.41123 -0.27336,-0.61082 -0.12123,-0.21603 -0.24973,-0.42805 -0.35709,-0.65164 -0.12397,-0.215 -0.2706,-0.41493 -0.4439,-0.59325 -0.1444,-0.15485 -0.28025,-0.31778 -0.42995,-0.46767 -0.18985,-0.18384 -0.40492,-0.33894 -0.59893,-0.51831 -0.22642,-0.19238 -0.47608,-0.35231 -0.72347,-0.51625 -0.26903,-0.17908 -0.53148,-0.37434 -0.83974,-0.48214 -0.16717,-0.0485 -0.33998,-0.0729 -0.50798,-0.11886 -0.13688,-0.0409 -0.27608,-0.073 -0.41031,-0.12247 -0.16293,-0.0485 -0.32756,-0.0922 -0.48576,-0.15503 -0.22395,-0.0827 -0.44479,-0.17632 -0.68058,-0.22169 -0.32113,-0.0686 -0.64339,-0.13569 -0.96945,-0.17622 -0.62574,-0.0689 -1.25793,-0.0665 -1.88619,-0.0393 -0.54271,0.0322 -1.08564,0.0648 -1.62419,0.14263 -0.46093,0.0592 -0.92224,0.11996 -1.38596,0.15451 -0.52158,0.0527 -1.03998,0.12562 -1.56063,0.18655 -0.51912,0.0649 -1.03933,0.12093 -1.56011,0.17105 -0.63901,0.0793 -1.27984,0.14432 -1.92288,0.18087 -0.856169,0.10381 -1.698984,0.28823 -2.553847,0.40204 -0.221132,0.0325 -0.70752,0.10166 -0.941028,0.14108 -0.480081,0.0811 -0.954741,0.19518 -1.438155,0.25683 -0.510384,0.0575 -1.029855,0.10413 -1.541508,0.0341 -0.295789,-0.0486 -0.604515,-0.0964 -0.859896,-0.26355 -0.07815,-0.0549 -0.138707,-0.0912 -0.205155,-0.15916 -0.162332,-0.166 -0.265036,-0.38179 -0.357601,-0.59118 -0.04495,-0.12103 -0.09091,-0.2303 -0.120406,-0.35553 -0.05762,-0.24467 -0.08,-0.4988 -0.08733,-0.74931 0.01704,-0.38376 0.06467,-0.77168 0.188102,-1.13688 0.125493,-0.32874 0.293199,-0.6376 0.461471,-0.9462 0.179169,-0.31854 0.430045,-0.5884 0.617533,-0.90227 0.196323,-0.30685 0.434024,-0.57254 0.722436,-0.79736 0.3617,-0.32494 0.74245,-0.62595 1.129647,-0.91984 0.566343,-0.45317 1.207729,-0.79483 1.848466,-1.13069 0.74968,-0.3877 1.49104,-0.8184 2.313037,-1.03507 0.643777,-0.14145 1.299607,-0.24686 1.961117,-0.20929 0.47618,0.0206 0.9526,0.0418 1.42937,0.0248 0.51243,-0.0121 1.02361,-0.0462 1.53273,-0.10697 0.67115,-0.0798 1.34117,-0.16923 2.01383,-0.23564 0.8294,-0.0834 1.66414,-0.15277 2.49752,-0.0822 0.30228,0.0289 0.53375,0.0476 0.83767,0.092 0.55706,0.0814 1.10574,0.21121 1.65623,0.3266 0.31016,0.0796 0.44766,0.10608 0.75396,0.22376 0.527,0.20249 1.01247,0.49747 1.49294,0.78961 0.2385,0.16229 0.28882,0.18638 0.51314,0.38396 0.40266,0.35464 0.74272,0.77301 1.1095,1.16272 0.20001,0.2174 0.4012,0.43207 0.5674,0.67748 0.10433,0.15401 0.16715,0.2816 0.2589,0.44235 0.0313,0.0548 0.0636,0.10893 0.0956,0.1633 0.0332,0.0504 0.15963,0.21082 0.1788,0.26613 0.10019,0.28901 0.0365,0.61348 0.0594,0.9095 l 0.27337,0.007 c -0.0163,-0.31972 0.0409,-0.66179 -0.0532,-0.97565 -0.0403,-0.13451 -0.13558,-0.24727 -0.2067,-0.36587 -0.14962,-0.30099 -0.30857,-0.5956 -0.50953,-0.8661 -0.13503,-0.18176 -0.25871,-0.31592 -0.40876,-0.48731 -0.44508,-0.49398 -0.86157,-1.02443 -1.387,-1.43815 -0.0875,-0.0689 -0.18125,-0.12907 -0.27182,-0.19379 -0.4942,-0.31758 -1.00056,-0.6272 -1.54822,-0.84542 -0.33257,-0.13251 -0.4748,-0.16262 -0.81081,-0.25529 -0.56104,-0.12485 -1.12049,-0.26441 -1.6893,-0.35088 -0.32672,-0.0497 -0.54694,-0.0673 -0.87023,-0.0992 -0.21423,-0.019 -0.42846,-0.0288 -0.64285,-0.0315 z m 12.86484,31.08441 c 0.008,0.0113 0.0164,0.0224 0.0227,0.0346 0.006,0.0107 -0.0329,-0.0453 -0.0222,-0.0289 -1.2e-4,-0.002 -3.7e-4,-0.004 -5.2e-4,-0.006 z m -0.57102,0.45113 c 10e-4,0.003 0.002,0.0579 0.002,0.1385 -9e-4,-0.002 -0.002,-0.004 -0.003,-0.007 -0.004,-0.0126 -6.1e-4,-0.13561 0.001,-0.13126 z m 0.0858,0.4961 0.004,0.004 c -8e-4,-7.9e-4 -0.003,-0.004 -0.003,-0.002 4e-5,0.002 -3.3e-4,-2.3e-4 -5.2e-4,-0.002 z m 0.64286,0.0119 h 5.1e-4 c 0.0193,0.002 0.0483,0.0601 0.0341,0.047 -0.009,-0.009 -0.0174,-0.0187 -0.0263,-0.0279 -0.003,-0.006 -0.004,-0.009 -0.008,-0.0165 0,-5e-5 -3.4e-4,-0.002 -5.1e-4,-0.003 z" />
    <path
       id="path13140"
       style="fill:#000000;stroke-width:0.874001"
       d="m 118.47856,152.0424 c -0.0111,-9e-5 -0.0219,1.2e-4 -0.0331,5.2e-4 -0.2254,0.004 -0.45623,-0.003 -0.67541,0.0537 -0.0214,0.026 -0.0432,0.0516 -0.0646,0.0775 -0.004,0.002 -0.008,0.003 -0.0119,0.004 -0.22444,0.0495 -0.38192,0.0591 -0.6196,0.0853 l 0.0222,0.31626 v 0.001 c 0.24359,-0.0236 0.41728,-0.0331 0.65061,-0.0775 0.0422,-0.008 0.0878,-0.0118 0.12454,-0.0341 0.0347,-0.021 0.0632,-0.051 0.0904,-0.0816 -0.005,0.008 -0.009,0.016 -0.0139,0.0238 -5.3e-4,0.007 -0.008,0.0192 -0.001,0.0207 0.0283,0.007 0.0577,-5.2e-4 0.0868,-5.2e-4 0.13545,5e-5 0.27193,-9.9e-4 0.40721,0.006 0.16478,0.0196 0.32448,0.0671 0.48886,0.0894 0.10461,-0.001 0.1903,0.0343 0.27544,0.0909 0.11211,0.0798 0.24228,0.12357 0.36742,0.17725 0.0712,0.0444 0.13349,0.0978 0.20825,0.13746 0.0506,0.0594 0.11698,0.10642 0.17829,0.15451 0.0676,0.0561 0.13343,0.11116 0.20722,0.15813 0.021,0.017 0.0762,0.0501 0.12506,0.0522 l 0.18293,-0.40721 c 0.009,-0.004 0.0266,-0.002 0.0264,-0.0114 -2.2e-4,-0.0171 -0.1092,-0.0667 -0.11731,-0.0718 0.002,4.9e-4 0.006,0.002 0.0145,0.005 -0.0416,-0.034 -0.13174,-0.10756 -0.14366,-0.11162 -0.0841,-0.0627 -0.1621,-0.1339 -0.25218,-0.18759 -0.0846,0.128 -0.2364,0.0708 -0.2341,-0.139 -0.009,-0.003 -0.018,-0.006 -0.0274,-0.008 -0.10638,-0.0383 -0.21493,-0.072 -0.31212,-0.13125 -0.14195,-0.0762 -0.29124,-0.13385 -0.45527,-0.13023 -0.16565,-0.007 -0.32796,-0.0607 -0.49454,-0.062 z" />
    <path
       style="fill:#000000;stroke-width:0.874001"
       id="path13142"
       d="m 121.44218,156.208 c 0.0531,0.20925 0.0995,0.35111 0.12201,0.55648 0.002,0.0208 -0.0233,0.0722 -0.005,0.0626 0.0571,-0.0298 0.17926,-0.0819 0.14015,-0.13308 -0.0403,-0.0527 -0.1412,0.025 -0.18396,0.0757 -0.0354,0.0419 -0.012,0.10904 -0.0179,0.16356 0.0167,0.15337 0.0303,0.31093 0.0184,0.46522 -0.0279,0.13773 -0.0218,0.27863 -0.0232,0.41824 -0.004,0.15001 0.004,0.29974 0.003,0.44982 0.012,0.17685 0.0181,0.35223 0.011,0.52934 0.004,0.14065 -2.6e-4,0.283 -0.0212,0.42234 -0.0198,0.13414 -0.0425,0.26778 -0.0656,0.40158 -0.0203,0.14702 -0.0265,0.29814 -0.0572,0.44351 -0.0348,0.14558 -0.0591,0.29312 -0.0855,0.44037 -0.0174,0.1326 -0.0584,0.25983 -0.0882,0.38967 -0.0512,0.12242 -0.0721,0.25364 -0.11084,0.38009 -0.0436,0.10189 -0.11237,0.18714 -0.17591,0.27634 -0.0551,0.0746 -0.11057,0.14833 -0.16587,0.22261 -0.0569,0.1015 -0.1287,0.19595 -0.20673,0.28253 -0.0102,0.0121 -0.0203,0.0244 -0.0306,0.0365 -0.0297,0.0348 -0.0616,0.0677 -0.0912,0.10251 -0.0329,0.0387 -0.0369,0.0571 -0.0288,0.0297 -0.1029,0.0616 -0.14902,0.18406 -0.24127,0.25501 -0.0415,0.006 -0.11472,0.0867 -0.16801,0.13087 -0.0617,0.0466 -0.12153,0.0951 -0.17879,0.14718 -0.0591,0.0358 -0.0845,0.11847 -0.14566,0.14971 -0.0325,0.0351 -0.0941,0.069 -0.11204,0.1168 -0.005,0.0129 0.0157,-0.023 0.0263,-0.0318 0.0171,-0.0141 0.0373,-0.0241 0.056,-0.0361 -0.0478,0.009 -0.0943,0.0528 -0.13215,0.0683 0.06,-0.0248 0.049,-0.0198 -0.0108,-0.004 -0.0423,0.0108 -0.0813,0.0303 -0.11953,0.0491 -0.0172,0.005 0.0234,-0.0132 0.0359,-0.0115 0.063,0.009 0.24119,0.0742 0.18594,0.0427 -0.0611,-0.0348 -0.13403,-0.0487 -0.20423,-0.0532 -0.0162,-10e-4 -0.0714,0.0246 -0.10241,0.0387 -0.002,0.001 -0.009,0.004 -0.007,0.003 0.123,-0.0467 0.064,-0.0159 -0.0152,-0.012 -0.0609,0.013 -0.0671,0.0148 -0.12728,0.0215 0.26007,0.048 -2.6e-4,-0.0186 -0.0638,-0.0284 -0.002,-5.2e-4 -0.008,-0.001 -0.006,-0.001 0.0157,2.7e-4 0.0559,0.0254 0.0451,0.014 -0.021,-0.0219 -0.0909,-0.0443 -0.11837,-0.0556 -0.0702,-0.0226 -0.14219,-0.0395 -0.21232,-0.0624 -0.0746,-0.0257 -0.15389,-0.034 -0.23214,-0.0404 -0.0225,-0.006 -0.0594,-0.0205 -0.0112,-0.003 0.008,-0.0261 -0.26775,-0.0551 -0.18381,-0.0384 -0.0349,-0.0211 -0.0904,-0.01 -0.13037,-0.0275 0.0784,0.0352 -0.0667,-0.0224 -0.0498,-0.0174 0.0106,0.003 0.0404,0.0159 0.0317,0.009 -0.0311,-0.0236 -0.0629,-0.0462 -0.0944,-0.0693 -0.01,-0.0155 -0.20417,-0.0513 -0.12598,-0.0326 -0.21809,-0.0726 -0.003,0.0138 -0.0992,-0.0347 -0.0793,-0.0394 -0.12954,-0.0478 -0.19846,-0.0665 -0.0335,-0.0104 -0.0684,-0.0169 -0.10182,-0.0277 -0.006,-0.002 0.013,0.005 0.0197,0.004 0.0122,-8e-4 -0.0207,-0.0132 -0.0314,-0.0192 -0.0542,-0.0355 -0.1224,-0.0436 -0.17815,-0.0744 -0.0521,-0.0318 -0.11688,-0.0625 -0.15364,-0.11304 -0.0639,-0.0518 -0.13881,-0.0892 -0.1966,-0.14878 0.003,0.003 0.0123,0.0113 0.009,0.008 -0.0703,-0.0678 -0.13798,-0.13817 -0.20939,-0.20478 -0.14129,-0.16862 -0.21882,-0.0957 -0.40667,-0.0235 -0.0395,0.0152 -0.0799,0.0278 -0.11979,0.0417 0,0 0.003,0.0565 0.003,0.0565 v 0 c 0.1054,0.0302 0.12598,0.009 0.15225,0.14033 0.002,0.01 -0.0285,-10e-4 -0.0281,0.008 0.001,0.0275 0.0791,0.0929 0.0881,0.11016 0.0669,0.0622 0.13355,0.12548 0.19228,0.19024 0.0592,0.0565 0.12208,0.10563 0.19075,0.15031 0.009,0.006 0.0324,0.0242 0.0269,0.0154 -0.009,-0.0141 -0.0252,-0.0219 -0.0378,-0.0328 0.0862,0.088 0.1859,0.16404 0.29785,0.21634 0.0506,0.0224 0.0996,0.0367 0.14622,0.0604 0.067,0.037 0.13621,0.066 0.21126,0.082 0.0102,0.003 0.12734,0.0329 0.1272,0.0321 -0.003,-0.0214 -0.0402,-0.0161 -0.0609,-0.0225 -0.0165,-0.005 0.0878,0.04 0.0457,0.0247 0.0404,0.0219 0.0792,0.041 0.12382,0.0537 0.0163,0.005 0.0473,0.0267 0.0499,0.01 0.003,-0.017 -0.0324,-0.0114 -0.0489,-0.016 -0.008,-0.002 0.0158,0.006 0.0237,0.009 0.003,0.001 0.18062,0.0543 0.0833,0.0172 -0.0191,-0.017 -0.0351,-0.0384 -0.0573,-0.051 -0.014,-0.008 0.02,0.0251 0.0314,0.0364 0.0566,0.0559 0.11885,0.0983 0.19712,0.11625 0.0561,0.0171 0.11772,0.0267 0.15725,0.0346 0.0237,0.005 0.19362,0.0354 0.0729,-0.008 0.0746,0.0363 0.15214,0.0589 0.23533,0.0629 -0.0569,-0.0134 0.0912,0.0105 0.10106,0.0174 0.0608,0.0188 0.12137,0.0397 0.18381,0.0523 0.0622,0.0159 0.11255,0.0705 0.18044,0.0704 0.0403,0.006 0.084,0.005 0.18045,0.0302 0.0109,-10e-4 0.14811,-0.0188 0.12086,-0.0189 0.0589,-0.007 0.0931,-0.004 0.17912,-0.0376 0.0758,-0.038 -0.0106,0.008 -0.0341,0.003 -0.0573,-0.0101 -0.22234,-0.0641 -0.16436,-0.0589 0.17027,0.0151 0.16421,0.0967 0.27985,0.0382 0.1069,-0.0549 -0.0402,0.0116 0.0518,-0.0228 0.027,-0.0148 0.0632,-0.012 0.0884,-0.0323 0.017,-0.01 0.12366,-0.0666 0.0477,-0.035 -0.003,0.001 0.006,-0.003 0.009,-0.004 0.10004,-0.0494 0.12471,-0.0712 0.17641,-0.12754 0.0602,-0.0511 0.1109,-0.10959 0.16444,-0.16682 0.0592,-0.0514 0.11794,-0.1022 0.17973,-0.15064 0.0136,-0.0127 0.0275,-0.0252 0.0407,-0.0382 0.006,-0.006 0.0122,-0.0126 0.0176,-0.0195 0.006,-0.007 -0.0129,7.9e-4 -0.008,-0.002 0.12092,-0.0728 -0.006,0.0164 0.11648,-0.0739 0.0823,-0.0787 0.14348,-0.17381 0.22852,-0.24897 0.0701,-0.0685 0.13142,-0.14469 0.19032,-0.22342 0.0827,-0.0991 0.16734,-0.21318 0.2171,-0.3312 0.0465,-0.0773 0.0976,-0.15221 0.14925,-0.2261 0.0883,-0.12408 0.17557,-0.24968 0.22879,-0.39393 0.0393,-0.13761 0.0636,-0.27844 0.11305,-0.41314 0.023,-0.13751 0.0716,-0.27031 0.083,-0.41021 0.0175,-0.14505 0.042,-0.28898 0.0712,-0.43212 0.0245,-0.14927 0.0329,-0.30136 0.0487,-0.45179 0.0205,-0.13726 0.0423,-0.2742 0.0592,-0.41177 0.0188,-0.15179 0.0232,-0.30651 0.0104,-0.45896 0.003,-0.18039 -0.008,-0.35911 -0.0265,-0.53854 -8e-4,-0.15272 -0.0105,-0.30479 -0.0152,-0.45734 -0.008,-0.13407 -0.0169,-0.26811 0.005,-0.40166 5.3e-4,-0.16229 -0.0159,-0.32523 -0.041,-0.48556 -0.009,-0.005 -0.0159,-0.0145 -0.0257,-0.0145 -0.0486,-3e-5 -0.17768,0.0503 -0.145,0.0144 0.0533,-0.0586 0.16008,-0.0407 0.21807,-0.0947 0.0254,-0.0237 1.5e-4,-0.0696 -0.005,-0.104 -0.0322,-0.22652 -0.0725,-0.34287 -0.13512,-0.57872 0,0 -0.22353,0.0637 -0.22353,0.0637 z" />
    <path
       style="fill:#000000;stroke-width:0.874001"
       id="path13144"
       d="m 92.303779,131.13703 c 0.225679,-0.21362 0.415644,-0.46518 0.644707,-0.67561 0.02051,-0.0188 0.05016,-0.0245 0.07333,-0.04 0.0404,-0.0269 0.07958,-0.0556 0.119375,-0.0834 0.30439,-0.24829 0.617511,-0.48354 0.953571,-0.68714 0.329203,-0.18664 0.659144,-0.37207 0.989934,-0.5559 0.339817,-0.19279 0.690988,-0.36512 1.051367,-0.51578 0.370591,-0.14712 0.74268,-0.28957 1.118692,-0.42216 0.320974,-0.11363 0.650222,-0.2014 0.978157,-0.29217 0.298976,-0.0722 0.602581,-0.12423 0.904354,-0.18351 0.397862,-0.0834 0.80133,-0.13574 1.204514,-0.18561 0.39131,-0.053 0.78307,-0.098 1.1779,-0.1107 0.54265,-0.0188 1.08309,0.0488 1.62476,0.0713 0.70138,-0.003 1.40191,-0.0331 2.1024,0.0157 0.56648,0.0587 1.13543,0.0848 1.70309,0.12851 0.52022,0.0449 1.03842,0.11086 1.55053,0.21292 0.48445,0.10139 0.95961,0.24003 1.43737,0.36807 0.36194,0.0986 0.72771,0.18186 1.09681,0.24856 0.38772,0.0613 0.77858,0.0986 1.16987,0.1274 0.29465,0.0253 0.58993,0.0418 0.88288,0.0831 0.35778,0.046 0.71533,0.0937 1.07283,0.14186 0.24947,0.0381 0.49993,0.0673 0.75157,0.0861 0.18539,0.0205 0.37045,0.0212 0.55642,0.0184 0.15158,0.0123 0.30292,-0.006 0.4542,-0.0138 0.0982,5.3e-4 0.19428,-0.0247 0.292,-0.0289 0.0815,-0.003 0.16188,-0.013 0.24132,-0.0317 0.14573,-0.0574 0.0334,-0.0105 -0.0516,0.007 -0.0143,0.003 -0.0291,-0.002 -0.0436,-5.3e-4 -0.008,5.3e-4 0.0169,0.002 0.0253,0.002 0.0314,-2.6e-4 0.0629,-7.9e-4 0.0942,-0.003 0.0159,-0.001 0.0314,-0.005 0.0471,-0.008 -0.0306,0.005 0.0567,-0.0103 0.0423,-0.01 -0.1549,0.004 -0.0964,0.0131 0.0147,0.003 0.0817,-0.008 0.0768,-0.0107 0.14249,-0.0384 0.0618,-0.11053 0.12433,-0.1859 0.0873,-0.33347 -0.009,-0.0343 -0.06,-0.0375 -0.09,-0.0562 0,0 -0.0497,0.0271 -0.0497,0.0271 v 0 c -0.0237,-0.007 -0.0635,0.002 -0.0711,-0.0214 -0.0265,-0.0831 0.0286,-0.17632 0.0154,-0.26131 -0.0696,-0.0115 -0.1422,-0.004 -0.21259,0.001 0.0865,0.004 0.006,-0.008 -0.0335,-0.002 -0.10323,0.0155 -0.22674,0.0631 -0.0989,0.0164 0.0373,-0.004 -0.0882,0.0128 -0.10266,0.01 -0.0968,0.007 -0.19215,0.0236 -0.28877,0.0317 -0.14656,0.01 -0.2926,0.0284 -0.43979,0.0219 -0.16464,0.009 -0.32876,0.0138 -0.49377,0.004 -0.24374,-0.008 -0.48709,-0.0237 -0.73067,-0.0356 -0.35124,-0.0179 -0.70077,-0.0578 -1.04912,-0.10568 -0.30619,-0.0426 -0.6148,-0.0592 -0.92252,-0.0873 -0.37064,-0.0255 -0.74042,-0.0629 -1.10795,-0.11767 -0.35318,-0.0634 -0.70247,-0.14557 -1.0487,-0.23981 -0.49079,-0.13151 -0.97984,-0.27061 -1.47797,-0.37243 -0.53545,-0.102 -1.07635,-0.16823 -1.62008,-0.20747 -0.56962,-0.0399 -1.14033,-0.0592 -1.70917,-0.11033 -0.70779,-0.0428 -1.41424,-7.9e-4 -2.12223,0.0157 -0.55333,-0.0102 -1.10521,-0.0667 -1.65894,-0.0497 -0.40964,0.0175 -0.81641,0.0624 -1.2224,0.11932 -0.413825,0.0564 -0.829308,0.10609 -1.236891,0.1999 -0.313568,0.0655 -0.628113,0.12924 -0.936016,0.21845 -0.333857,0.10238 -0.670523,0.19686 -0.997913,0.31911 -0.382162,0.1397 -0.758508,0.29342 -1.134359,0.44928 -0.375002,0.16225 -0.732975,0.35889 -1.080275,0.57408 -0.323453,0.20322 -0.647552,0.40539 -0.970542,0.6093 -0.331605,0.22114 -0.647872,0.463 -0.953474,0.71892 -0.06979,0.0522 -0.161941,0.10487 -0.225628,0.16622 -0.223568,0.21537 -0.406702,0.47218 -0.633191,0.68477 0,0 0.19336,0.18637 0.19336,0.18637 z" />
    <path
       id="path13146"
       style="fill:#000000;stroke-width:0.874001"
       d="m 117.96799,140.22762 v 0.001 c -0.0331,0.46352 0.0112,0.92581 0.0682,1.38596 0.002,0.004 0.003,0.008 0.005,0.0114 0.0272,0.0707 0.0611,0.13896 0.0915,0.20826 0.0301,0.0712 0.0673,0.13894 0.0956,0.21084 0.0267,0.0627 0.0465,0.12757 0.0641,0.19327 0.0151,0.0567 0.0219,0.11481 0.0269,0.17311 0.002,0.0212 0.003,0.0412 0.004,0.0605 0.0303,0.10745 0.0534,0.21704 0.077,0.32608 0.008,0.0385 0.0152,0.0772 0.0227,0.11576 0.009,0.003 0.0174,0.009 0.0258,0.0176 -0.0395,-0.31012 -0.0921,-0.61892 -0.12661,-0.92966 -0.0961,-0.66782 0.003,0.0174 -0.10697,-0.72916 -0.0168,-0.11384 -0.0363,-0.22733 -0.0501,-0.34158 -0.0276,-0.22973 -0.0332,-0.46188 -0.0295,-0.69298 z m 2.0836,11.78687 c 0.003,0.0307 0.007,0.0617 0.009,0.0925 0.004,0.0948 0.006,0.19063 -0.0119,0.28423 h -0.001 c -0.0207,0.10956 -0.0719,0.16985 -0.12505,0.185 0.004,0.0177 0.008,0.0355 0.0124,0.0532 0.0242,0.0911 0.061,0.17801 0.093,0.26665 0.0257,0.0592 0.0537,0.1181 0.0858,0.17415 0.038,0.0288 0.0116,0.0144 0.0873,-0.005 l 0.12661,-0.0491 c 0.0688,-0.0436 0.0599,-0.0143 0.0615,-0.0677 -0.0185,-0.0518 -0.0419,-0.10161 -0.0651,-0.15142 -0.0247,-0.0808 -0.0515,-0.16087 -0.0739,-0.24236 -0.0168,-0.0733 -0.0316,-0.14656 -0.047,-0.22014 -0.0286,0.0662 -0.0971,0.052 -0.11214,-0.0481 -0.0132,-0.0882 -0.0212,-0.1772 -0.0372,-0.2651 -4.6e-4,-0.002 -0.001,-0.005 -0.002,-0.007 z" />
    <path
       id="path13148"
       style="fill:#000000;stroke-width:0.874001"
       d="m 119.89449,148.3651 c -0.0583,1.5e-4 -0.0577,0.046 -0.0455,0.10904 -0.005,0.0106 -2.5e-4,0.0248 0.008,0.0398 0.002,0.008 0.003,0.016 0.005,0.0243 0.041,0.17616 0.0765,0.35219 0.10336,0.53123 0.056,0.37243 0.0276,0.22583 0.0698,0.5762 0.0102,0.0844 0.0228,0.16842 0.0341,0.25269 0.0118,0.0584 0.0226,0.11705 0.0357,0.17519 0.0383,0.17229 0.0916,0.34147 0.1416,0.51056 0.009,0.0259 0.0184,0.0516 0.0274,0.0775 0.005,0.0263 0.009,0.0528 0.014,0.0791 0.0176,0.0846 0.0343,0.16929 0.0527,0.25373 0.0366,0.16786 0.0478,0.18891 0.0755,0.34778 0.0278,0.15961 0.0438,0.31851 0.0522,0.48008 -2.3e-4,0.26737 0.0576,0.52928 0.0987,0.7922 0.017,0.15949 0.0483,0.31635 0.0749,0.47439 0.0257,0.16539 0.07,0.32749 0.10542,0.49092 0.0326,0.15282 0.0511,0.30803 0.0801,0.46147 0.0305,0.13987 0.0399,0.28283 0.0599,0.42427 0.01,0.0702 0.0243,0.14018 0.0238,0.21135 0.002,0.0444 0.008,0.0888 0.007,0.13333 0.002,0.0603 0.0261,0.11593 0.0496,0.17053 0.024,0.0455 0.0547,0.0868 0.0884,0.12557 0.009,0.0191 0.024,0.0493 0.0372,0.0734 0.0212,0.0322 0.0313,0.0681 0.0372,0.10593 0.004,0.0595 0.002,0.11952 0.0129,0.17829 8.1e-4,0.003 0.001,0.007 0.002,0.0114 -1.2e-4,0.002 -5.2e-4,0.005 -5.2e-4,0.007 -2.6e-4,0.01 3.8e-4,0.0189 0.002,0.0284 0.007,0.0404 0.0111,0.0539 0.0181,0.0889 0.0148,0.0466 0.009,0.0407 0.0326,0.0894 0.0889,0.0417 0.26334,0.0117 0.20826,-0.0873 0.0121,-0.005 0.016,-0.0161 0.009,-0.0382 0.003,0.007 0.004,0.009 0.005,0.0114 -0.002,-0.006 -0.007,-0.0182 -0.008,-0.0243 -0.004,-0.0181 -0.004,-0.0403 -0.0103,-0.0574 -2.6e-4,-5e-4 -4.3e-4,1.8e-4 -5.2e-4,0.001 7e-5,-0.002 -3.1e-4,-0.003 -5.2e-4,-0.003 0.003,-0.0156 0.007,-0.0349 0.006,-0.0491 -0.002,-0.0156 -0.008,-0.0303 -0.009,-0.046 -5.3e-4,-0.007 0.005,0.0134 0.007,0.0202 -0.004,-0.0528 -0.002,-0.11989 -0.009,-0.17776 -0.0115,-0.0604 -0.0253,-0.12044 -0.0532,-0.1757 -0.0209,-0.0498 -0.0461,-0.0999 -0.0811,-0.14108 -0.017,-0.0173 -0.0285,-0.0355 -0.0434,-0.0548 -2.6e-4,-2.6e-4 0.001,0.003 0.002,0.004 -4.7e-4,-4e-4 -0.001,-9.2e-4 -0.003,-0.002 -0.007,-0.015 -0.0148,-0.0294 -0.0217,-0.0444 -0.0148,-0.0325 -0.008,-0.0268 -0.0119,-0.0103 7.9e-4,-0.0486 -0.001,-0.0968 -0.006,-0.14521 -0.004,-0.0817 -0.0126,-0.16235 -0.0274,-0.24288 -0.0227,-0.14707 -0.033,-0.2962 -0.0729,-0.44028 -0.0385,-0.15106 -0.067,-0.30413 -0.0982,-0.45682 -0.003,-0.0126 -0.005,-0.0252 -0.008,-0.0377 l 0.0496,0.003 c -2e-5,3.4e-4 2e-5,8.4e-4 0,0.001 l 5.2e-4,-0.001 c 0.0131,-0.2178 0.0603,-0.43521 0.0527,-0.65423 -0.002,-0.0619 -0.0125,-0.13494 -0.0202,-0.19637 -0.0272,-0.18725 -0.0676,-0.37195 -0.12764,-0.55138 -0.0427,-0.15943 -0.0717,-0.31819 -0.12505,-0.47491 -0.0654,-0.19269 -0.11335,-0.39067 -0.17364,-0.58498 -0.0343,-0.10059 -0.0702,-0.20053 -0.10542,-0.30076 -0.002,-0.0112 -0.005,-0.0224 -0.007,-0.0336 -0.0913,-0.48446 -0.0649,-0.34058 -0.16588,-0.89607 -0.0702,-0.3859 -0.13529,-0.77334 -0.22428,-1.15549 -0.0109,-0.0514 -0.0222,-0.10267 -0.0341,-0.154 -4.8e-4,-0.028 0.005,-0.0615 -0.016,-0.0723 -0.002,-0.0127 -0.004,-0.0232 -0.005,-0.0233 -0.004,-2.1e-4 0.003,0.0102 -5.2e-4,0.0114 -0.004,0.001 -0.009,0.002 -0.0134,0.004 -0.0763,-0.0325 -0.12742,-0.0471 -0.15968,-0.047 z m 0.85938,3.92638 c 0.0307,0.12513 0.0573,0.25128 0.0708,0.37982 0.006,0.0477 0.0146,0.11809 0.0165,0.16692 1.2e-4,0.003 -1e-4,0.007 0,0.01 -0.0152,-0.0897 -0.0293,-0.17977 -0.0398,-0.27026 -0.0142,-0.0957 -0.0314,-0.19079 -0.0475,-0.28629 z" />
    <path
       id="path13150"
       style="fill:#000000;stroke-width:0.874001"
       d="m 119.11779,142.39079 -0.14779,0.0171 c 0.0294,0.37148 -0.004,0.74306 -0.0413,1.11311 -0.0221,-0.12721 -0.035,-0.16724 -0.0698,-0.29973 -0.0276,-0.058 -0.0443,-0.13717 -0.15709,-0.0739 -0.0306,0.0172 -0.0214,0.0673 -0.0274,0.10181 -0.006,0.0322 -0.005,0.0651 -0.007,0.0977 -0.002,0.0324 -0.003,0.0503 -0.004,0.0729 -0.0166,-0.091 -0.0197,-0.0953 -0.0584,-0.18862 -0.0135,0.007 -0.0284,0.012 -0.0434,0.017 0.007,0.0236 0.0136,0.0472 0.0201,0.0708 0.0349,0.12951 0.0808,0.25508 0.12247,0.38241 0.0396,0.12734 0.0717,0.25666 0.10387,0.38602 0.0268,0.10687 0.0474,0.21536 0.0708,0.32298 0.0196,0.0825 0.0313,0.16653 0.0413,0.25063 0.008,0.0797 0.02,0.15893 0.031,0.23823 0.0128,0.0913 0.0341,0.18078 0.0537,0.27078 0.0238,0.10377 0.047,0.2075 0.0692,0.31161 0.023,0.12158 0.054,0.24159 0.0853,0.36122 0.0412,0.13874 0.073,0.27976 0.10077,0.42168 0.0284,0.14177 0.0463,0.2852 0.0656,0.42839 0.0141,0.11378 0.0226,0.22804 0.0336,0.3421 0.008,0.0161 0.0153,0.032 0.0233,0.0481 0.0331,0.0554 0.0635,0.11436 0.10284,0.16588 0.009,0.0115 0.0143,0.038 0.0279,0.0331 0.0921,-0.0334 0.17331,-0.0917 0.25993,-0.13746 -0.009,-0.0561 -0.0135,-0.11291 -0.0253,-0.16847 -0.0298,-0.14066 -0.13359,-0.53409 -0.16795,-0.65732 -0.0945,-0.33875 -0.19724,-0.67505 -0.30334,-1.01028 -0.0443,-0.1467 -0.0877,-0.29432 -0.12454,-0.44338 -0.002,-0.18197 -0.003,-0.36428 -0.006,-0.54622 -7.9e-4,-0.0587 -0.003,-0.117 -0.004,-0.1757 -0.002,-0.0563 -0.005,-0.11267 -0.006,-0.16898 -8e-4,-0.0514 2.5e-4,-0.1031 5.1e-4,-0.15451 0.017,-0.31555 0.0444,-0.63259 0.03,-0.94878 -0.004,-0.0879 -0.0132,-0.17554 -0.0222,-0.26304 -0.007,-0.0726 -0.0179,-0.14466 -0.0269,-0.21704 z m 0.61754,4.68395 c 0.004,0.003 0.007,0.0111 0.008,0.014 -0.003,-0.005 -0.005,-0.009 -0.008,-0.014 z" />
    <path
       id="path13152"
       style="fill:#000000;stroke-width:0.874001"
       d="m 119.10177,143.26567 c -0.0304,0.1488 -0.0529,0.2999 -0.0512,0.45217 2.6e-4,0.0322 0.005,0.0641 0.006,0.0961 0.003,0.0599 0.005,0.11993 0.008,0.17983 -0.002,0.23023 0.049,0.45515 0.0816,0.68162 0.0256,0.19809 0.0808,0.3908 0.11213,0.58807 0.0239,0.18879 0.052,0.37709 0.0832,0.56483 0.0195,0.15656 0.0864,0.3016 0.10542,0.45785 0.017,0.12951 0.0365,0.25903 0.0486,0.38912 0.0178,0.1178 0.0219,0.2368 0.0274,0.35554 0.0108,0.13635 0.0363,0.27091 0.0641,0.40463 0.0296,0.12835 0.0564,0.25706 0.0879,0.38498 0.0224,0.068 0.0287,0.13935 0.0413,0.20929 0.0199,0.0959 0.0115,0.0496 0.0274,0.13901 0.0194,0.14131 0.036,0.28309 0.0527,0.42478 0.005,0.13512 0.0176,0.26981 0.0269,0.40463 0.0165,0.18516 0.0347,0.3699 0.0517,0.55501 0.017,0.17294 0.0339,0.34583 0.0553,0.51831 0.019,0.16296 0.0481,0.32503 0.0853,0.48472 0.0327,0.13498 0.0663,0.26935 0.0873,0.4067 0.0181,0.13997 0.0453,0.27753 0.0868,0.41238 0.0318,0.0847 0.0436,0.17405 0.0692,0.26045 0.065,0.014 0.1289,0.0344 0.19379,0.0496 0.008,0.24518 0.0124,0.49103 0.0496,0.73381 0.007,0.0315 0.0145,0.0632 0.0222,0.0946 0.0229,0.0935 0.0202,0.0653 0.0372,0.16743 0.0142,0.0846 0.0231,0.17065 0.0336,0.2558 0.005,0.027 0.009,0.0538 0.015,0.0806 0.0316,0.14851 0.008,0.0131 0.0388,0.16744 0.024,0.12017 0.0436,0.24118 0.0661,0.36173 0.004,0.0789 0.0526,0.14467 0.0724,0.21859 0.007,0.0282 0.0133,0.0566 0.0207,0.0848 0.009,0.0243 0.0404,0.12489 0.062,0.14418 0.027,0.0242 0.0648,0.0331 0.0971,0.0496 l 0.0563,-0.005 c 0.0285,-0.0264 0.0652,-0.0459 0.0853,-0.0791 0.0182,-0.03 0.0131,-0.13545 0.0129,-0.16743 -0.009,-0.0682 -0.006,-0.0732 -0.0258,-0.13746 -0.0178,-0.0587 -0.054,-0.10997 -0.062,-0.17208 -0.0423,-0.19547 -0.0778,-0.3926 -0.12713,-0.58653 -0.0243,-0.17821 -0.0452,-0.35747 -0.10542,-0.52813 -0.049,-0.25412 -0.0469,-0.5145 -0.0636,-0.77205 -9e-4,-0.0512 -0.001,-0.10271 -0.002,-0.15399 0.0119,-0.0356 0.0224,-0.0722 0.0326,-0.11111 0.0179,-0.10659 0.0253,-0.21424 0.0253,-0.32194 -6e-5,-3.3e-4 6e-5,-8.2e-4 0,-0.001 -0.002,-0.0109 -0.004,-0.0217 -0.006,-0.0326 -0.0221,-0.12685 -0.0448,-0.25374 -0.062,-0.38137 -0.0202,-0.13509 -0.04,-0.27037 -0.0548,-0.40618 -10e-4,-0.0131 -0.002,-0.0262 -0.004,-0.0393 -0.0457,-0.16297 -0.0741,-0.32887 -0.0904,-0.49713 -0.0316,-0.23925 -0.0602,-0.47916 -0.0997,-0.71727 -0.0428,-0.24449 -0.12982,-0.47721 -0.21445,-0.70952 -0.0713,-0.19435 -0.14115,-0.38879 -0.20413,-0.58601 -0.039,-0.1381 -0.0627,-0.2796 -0.0879,-0.42064 -0.012,-0.0828 -0.0248,-0.1654 -0.0403,-0.24753 -0.008,-0.0433 -0.0189,-0.0861 -0.0284,-0.12919 -0.007,-0.0213 -0.002,-0.0547 -0.0114,-0.0734 -0.005,-0.0453 -0.0102,-0.0909 -0.0181,-0.13591 -0.0182,-0.13594 -0.044,-0.27093 -0.0667,-0.40618 -0.0144,-0.0713 -0.0162,-0.0902 -0.0382,-0.15761 -0.033,-0.10076 -0.0785,-0.19806 -0.10077,-0.30231 -0.0404,-0.18334 -0.0719,-0.3674 -0.0966,-0.55345 -0.034,-0.19668 -0.0866,-0.38896 -0.12557,-0.58447 -0.0145,-0.0824 -0.0346,-0.16306 -0.0517,-0.24494 -0.0266,-0.12737 -0.0252,-0.12023 -0.0444,-0.25683 -0.007,-0.0507 -0.0134,-0.10172 -0.0202,-0.15245 -0.0111,-0.10172 -0.008,-0.0891 -0.0253,-0.18862 -0.007,-0.0404 -0.028,-0.14031 -0.0295,-0.17673 -0.003,-0.0793 0.0143,-0.23009 0.0212,-0.30231 z" />
    <path
       style="fill:#000000;stroke-width:0.874001"
       id="path13522"
       d="m 119.83288,152.57611 c 0.0845,0.0399 0.14138,0.0682 0.22427,0.10301 0.0136,0.006 0.0267,0.0145 0.0414,0.0155 0.0281,-0.002 0.0561,-0.005 0.0842,-0.007 0.009,-0.006 0.0174,-0.0156 0.0283,-0.0167 0.008,-7.9e-4 -0.0116,0.0104 -0.0174,0.0156 0.0562,0.0197 0.1225,0.0503 0.18392,0.0442 0.0153,-0.002 0.0297,-0.008 0.0445,-0.0123 0.0368,-0.0399 0.0251,-0.0166 0.0349,-0.07 0,0 -0.0207,-0.0527 -0.0207,-0.0527 v 0 c -0.009,-0.0433 -10e-4,-0.0244 -0.0209,-0.0578 -0.0169,-0.0177 -0.045,-0.0202 -0.068,-0.0267 -0.0616,-0.0173 -0.12259,-0.0352 -0.1876,-0.0308 -0.0235,0.008 -0.0471,0.0157 -0.0704,0.0243 -0.002,8e-4 0.004,-2.6e-4 0.006,-2.6e-4 0.0228,-1e-5 0.046,0.005 0.0684,2.6e-4 0.01,-0.002 -0.019,-0.005 -0.0281,-0.008 -0.0597,-0.0231 -0.16988,-0.0726 -0.22065,-0.095 0,0 -0.0821,0.17508 -0.0821,0.17508 z" />
    <path
       style="fill:#000000;stroke-width:0.874001"
       id="path13524"
       d="m 119.67364,152.49829 c 0.0863,0.0154 0.17784,0.0295 0.26342,0.0513 0.0149,0.005 0.0297,0.0102 0.0446,0.0154 -0.004,-2.7e-4 -0.0115,-0.005 -0.0113,-0.001 1.5e-4,0.004 0.007,0.005 0.0115,0.007 0.0198,0.006 0.0402,0.009 0.0603,0.0135 0.0734,0.019 0.14728,0.031 0.22308,0.0336 0.0538,-0.003 0.10738,-0.004 0.1607,-0.012 0.036,-0.007 0.0718,-0.0156 0.10846,-0.0181 0.0301,-0.007 0.0244,-0.005 0.0508,-0.0135 0.005,-0.002 -0.009,0.004 -0.0138,0.004 -0.005,-5e-5 -0.01,-0.003 -0.0146,-0.005 0,0 -0.0375,-0.30041 -0.0375,-0.30041 v 0 c -0.007,-0.001 -0.0148,-0.004 -0.0222,-0.004 -0.056,0.005 -0.0245,0.0102 -0.0129,0.005 -0.038,0.009 -0.0757,0.0185 -0.11329,0.0288 -0.0325,0.004 -0.0673,0.003 -0.1005,0.008 -0.0694,8e-4 -0.13585,-0.0184 -0.20472,-0.0249 0.0107,0.004 0.0217,0.007 0.0322,0.0112 7.9e-4,2.7e-4 0.002,0.002 7.9e-4,0.002 -0.0135,-0.004 -0.0262,-0.0112 -0.0399,-0.0151 -0.11463,-0.0328 -0.23548,-0.0384 -0.35246,-0.0575 0,0 -0.0328,0.27049 -0.0328,0.27049 z" />
    <path
       style="fill:#000000;stroke-width:0.874001"
       id="path13526"
       d="m 120.08166,152.09412 c 0.18558,-0.0376 -0.19527,0.11744 -0.13663,0.11201 0.0286,-0.003 0.0542,-0.0514 0.0785,-0.0359 0.0806,0.0515 0.11415,0.15944 0.195,0.2106 0.0233,0.0147 0.0128,-0.0552 0.008,-0.0822 -0.007,-0.0396 -0.0293,-0.075 -0.0439,-0.11252 -0.1805,-0.0819 -0.11036,-0.0899 -0.24728,-0.0561 -0.006,0.002 -0.0115,0.007 -0.0176,0.006 -0.009,-0.002 0.016,-0.009 0.0243,-0.0123 5.3e-4,-5.3e-4 0.001,-7.9e-4 0.002,-10e-4 -0.008,-0.001 -0.0155,-0.002 -0.0233,-0.003 -0.0286,-0.003 -0.0438,-0.002 -0.0741,0.001 -0.0206,0.002 -0.041,0.009 -0.0233,0.003 -0.0201,-2.6e-4 -0.0521,0.004 -0.0641,0.001 -0.0427,-0.008 -0.0857,-0.005 -0.12862,-0.004 0.0207,-0.007 -0.10577,0.006 -0.069,-0.002 -0.0265,-0.003 -0.0521,0.001 -0.0786,0.004 -0.006,-5.3e-4 -0.0721,0.003 -0.0434,-1.2e-4 0.004,5.2e-4 0.0172,0.002 0.013,0.001 -0.007,-0.002 -0.0141,-0.003 -0.0212,-0.004 -0.005,-8e-4 -0.0216,-0.004 -0.0163,-0.002 0.0375,0.0113 0.015,0.003 0.007,-4e-5 0.008,0.002 0.03,0.009 0.0225,0.007 -0.0503,-0.0159 -0.0994,-0.0264 -0.15241,-0.017 -0.13364,0.006 0.18852,0.0573 0.0786,0.009 -0.38094,0.0451 -0.0948,-0.0187 -0.0715,-0.0122 0.0392,0.0108 0.0709,0.04 0.10479,0.0624 0.014,0.009 -0.0288,-0.018 -0.0448,-0.0227 -0.0768,-0.0223 -0.0669,-0.0213 -0.11484,-0.0131 -0.0258,0.005 -0.0539,1.8e-4 -0.0793,0.01 -0.0141,0.005 -0.0485,0.0412 -0.0523,0.0449 -0.0216,0.0916 -0.0261,0.0449 0.0281,0.13782 0,0 0.0499,0.0267 0.0499,0.0267 v 0 c 0.0696,0.0555 0.0559,0.0216 0.062,0.0906 -0.007,0.008 -0.0145,0.0154 -0.0198,0.0243 -0.001,0.002 0.003,0.006 0.001,0.007 -0.009,0.007 -0.0306,-0.002 0.028,0.004 0.0247,0.0112 0.0582,0.0259 -0.0694,-0.0146 -0.0129,-0.004 -0.0476,-0.0259 -0.0364,-0.0183 0.0373,0.0252 0.0716,0.0585 0.11474,0.0713 0.0178,0.005 0.30636,-0.0446 -0.0537,-0.0154 -0.0578,-0.0274 -0.01,-0.003 0.13352,0.0152 0.005,5.3e-4 0.0188,-0.004 0.014,-0.003 -0.006,2.7e-4 -0.0126,0.002 -0.0189,0.003 -0.0266,0.01 -0.0884,-0.018 -0.0188,0.005 0.0367,0.006 0.0383,0.01 0.0763,0.014 0.0496,0.002 0.0999,0.002 0.14876,-0.008 -0.0397,-7.9e-4 0.0366,-0.002 0.038,-0.004 0.0156,-0.002 0.0381,-0.009 0.0714,-0.008 0.0264,-0.003 0.0477,-0.0122 0.0758,-0.004 0.0378,0.001 0.0744,-0.003 0.11193,-0.006 0.0133,-0.001 0.0266,-0.003 0.0398,-0.004 0.0183,-0.002 -0.0753,-0.009 0.0161,1e-4 0.0418,0.002 0.0597,0.005 0.10276,-0.003 0.018,-0.003 0.0355,-0.01 0.0529,-0.0153 0.005,-0.002 0.0186,-0.007 0.0136,-0.007 -0.12859,-0.005 0.0485,0.0607 -0.18418,-0.0697 -0.009,-0.0296 -0.0223,-0.0582 -0.0262,-0.0888 -0.002,-0.0131 0.001,-0.0481 0.01,-0.0384 0.0696,0.0766 0.0993,0.18983 0.18294,0.25079 0.0523,0.0381 0.24258,-0.15668 0.26693,-0.17858 0,0 -0.24155,-0.25544 -0.24155,-0.25544 z" />
    <path
       style="fill:#000000;stroke-width:0.874001"
       id="path13528"
       d="m 120.14939,152.25235 c 0.0355,-0.0315 0.0709,-0.0631 0.10637,-0.0946 0,0 -0.0185,-0.0535 -0.0185,-0.0535 v 0 c -0.0472,-0.003 -0.0944,-0.006 -0.14158,-0.009 0,0 0.0537,0.15708 0.0537,0.15708 z" />
    <path
       style="fill:#000000;stroke-width:0.874001"
       id="path13530"
       d="m 120.13459,152.01316 c 0.0301,0.20478 -0.002,0.11196 0.0891,0.2809 0,0 0.0566,-7.9e-4 0.0566,-7.9e-4 v 0 c 0.0847,-0.1853 0.0621,-0.0855 0.0602,-0.30118 0,0 -0.20594,0.0212 -0.20594,0.0212 z" />
    <path
       style="fill:#999999;stroke-width:0.559111"
       d="m 348.30227,493.70415 c -0.10175,-2.99536 0.25313,-4.7341 1.48091,-7.25568 0.83456,-1.71402 1.44044,-2.6604 3.93405,-6.145 1.1174,-1.56147 6.61936,-5.9944 9.74703,-7.8532 2.83694,-1.68601 9.14861,-4.85119 10.68964,-5.36065 3.18571,-1.05318 4.34757,-1.18202 10.90827,-1.20964 3.30476,-0.0139 6.42757,-0.0772 6.93958,-0.1406 15.30637,-1.89599 18.75515,-1.94207 26.40426,-0.35285 3.63971,0.75621 5.14994,1.23178 7.10884,2.23859 3.40769,1.75143 4.70512,2.67178 6.94319,4.92527 2.98831,3.00889 4.63607,4.94917 5.61923,6.61677 0.46733,0.79266 0.9949,1.64624 1.17239,1.89685 0.22066,0.31158 0.35552,0.88133 0.42651,1.80195 l 0.10382,1.3463 -1.67399,0.1264 c -1.94375,0.14676 -7.58957,-0.01 -9.23473,-0.25566 -0.6209,-0.0929 -2.75413,-0.31955 -4.7405,-0.50371 -4.01802,-0.3725 -4.75111,-0.50502 -9.36381,-1.6927 -5.54143,-1.42682 -6.58743,-1.5793 -13.79453,-2.01099 -7.55855,-0.45274 -18.6995,-0.3979 -22.24682,0.1095 -5.39539,0.77175 -9.05623,1.70927 -13.61586,3.48697 -3.10127,1.20911 -4.87558,2.12227 -8.20782,4.22421 -3.43553,2.16709 -5.96646,4.10634 -7.44889,5.70751 l -1.11988,1.20957 z"
       id="path13532"
       transform="scale(0.26458333)" />
    <path
       style="fill:#999999;stroke-width:0.559111"
       d="m 448.56303,534.89623 c -0.46459,-1.93074 -0.93516,-4.08169 -1.04572,-4.77988 -0.71703,-4.52813 -2.14192,-9.52297 -3.15769,-11.06897 -0.23835,-0.36278 -0.61092,-1.32305 -0.82793,-2.13395 -1.02122,-3.81595 -3.26689,-8.89233 -4.90016,-11.0769 -1.5932,-2.13097 -4.39824,-4.69315 -7.17009,-6.54929 -2.3478,-1.57218 -3.06034,-1.913 -5.05838,-2.41948 -0.93306,-0.23651 -2.59998,-0.74029 -3.70427,-1.11949 -5.427,-1.86357 -11.30093,-2.15093 -20.62619,-1.00907 -1.48947,0.18238 -4.1172,0.48936 -5.8394,0.68217 -1.7222,0.19281 -5.41626,0.60887 -8.20902,0.92459 -2.79276,0.31572 -6.10598,0.65927 -7.36272,0.76345 -1.25675,0.10418 -4.37956,0.52297 -6.93959,0.93064 -2.56002,0.40768 -5.26392,0.82934 -6.00866,0.93703 -0.74473,0.10769 -2.80122,0.46077 -4.56997,0.78462 -6.66897,1.22108 -10.89587,0.89898 -12.76778,-0.97293 -0.71441,-0.71441 -2.08833,-3.45871 -1.57174,-3.13944 0.0926,0.0572 0.60741,-0.39613 1.14409,-1.00742 1.28902,-1.46821 4.31836,-3.71468 7.35466,-5.45399 7.59675,-4.35173 13.70678,-6.28375 23.44361,-7.41298 1.88757,-0.21891 3.02383,-0.24736 5.58552,-0.13985 1.76875,0.0742 4.43456,0.11543 5.92404,0.0915 1.55045,-0.0248 4.8064,0.10858 7.61661,0.31214 7.74948,0.56134 8.67178,0.70159 14.5562,2.21356 4.29219,1.10285 5.98753,1.40714 9.39382,1.68603 1.25674,0.1029 4.03681,0.42181 6.17792,0.70871 3.67219,0.49204 6.63898,0.62315 9.72314,0.42967 l 0.5832,-0.0366 0.39502,1.26943 c 1.20664,3.87765 2.79939,11.12852 3.94105,17.94136 0.2886,1.7222 1.13233,6.55875 1.87494,10.74789 0.74262,4.18914 1.65659,9.71118 2.03106,12.27121 0.37446,2.56003 0.8247,5.55931 1.00054,6.66506 0.2698,1.69662 0.28371,2.04645 0.0892,2.24101 -0.19456,0.19456 -0.36242,-0.31745 -1.07527,-3.2799 z"
       id="path13534"
       transform="scale(0.26458333)" />
    <path
       style="fill:#808080;stroke-width:0.559111"
       d="m 445.44186,613.98816 c -2.66531,-1.18692 -5.54642,-3.17005 -6.67085,-4.5917 -0.79492,-1.00504 -2.725,-4.78458 -3.28679,-6.43628 -0.9318,-2.73957 -1.01845,-5.98223 -0.30896,-11.56157 0.61996,-4.8752 1.49942,-8.18637 2.65363,-9.99089 1.0587,-1.6552 2.63642,-3.04649 4.51576,-3.98217 1.39826,-0.69616 1.83978,-0.83794 2.6235,-0.84244 1.40632,-0.008 2.77306,0.71507 5.00743,2.64945 2.75584,2.38585 3.61726,3.28914 4.89091,5.12867 1.8619,2.68915 2.97742,4.14917 3.17013,4.14917 0.28915,0 0.0732,9.06918 -0.2559,10.74789 -0.86249,4.39926 -2.20697,7.85524 -4.24956,10.92345 -2.17828,3.27203 -3.41396,4.23035 -5.58961,4.33498 -1.05305,0.0507 -1.33103,-0.008 -2.49969,-0.52856 z"
       id="path13536"
       transform="scale(0.26458333)" />
    <path
       style="fill:#808080;stroke-width:0.559111"
       d="m 450.95344,615.72761 c 2.37268,-1.2872 5.88089,-6.40622 7.22698,-10.54529 0.28006,-0.86117 0.49836,-1.32895 0.50221,-1.07615 0.01,0.62879 -0.60578,3.621 -0.97452,4.73874 -0.36049,1.09272 -1.99056,3.40964 -3.27897,4.66062 -2.39885,2.32915 -3.03589,2.76827 -4.00205,2.75868 -0.38456,-0.004 -0.30361,-0.0863 0.52635,-0.5366 z"
       id="path13538"
       transform="scale(0.26458333)" />
    <path
       style="fill:#808080;stroke-width:0.559111"
       d="m 452.63965,579.15197 c -1.3259,-1.21546 -2.3863,-2.23436 -2.35644,-2.26422 0.12608,-0.12608 1.97862,0.95262 3.0746,1.79028 0.99693,0.76195 1.23169,1.04082 1.48047,1.75865 0.16262,0.46921 0.27687,0.86934 0.25389,0.88917 -0.023,0.0198 -1.12661,-0.95841 -2.45252,-2.17388 z"
       id="path13542"
       transform="scale(0.26458333)" />
  </g>
</svg>
