<?xml version="1.0" encoding="UTF-8" standalone="no"?>
<!-- Created with Inkscape (http://www.inkscape.org/) -->

<svg
   width="210mm"
   height="297mm"
   viewBox="0 0 210 297"
   version="1.1"
   id="svg12207"
   inkscape:version="1.2 (dc2aedaf03, 2022-05-15)"
   sodipodi:docname="grao-1.svg"
   xmlns:inkscape="http://www.inkscape.org/namespaces/inkscape"
   xmlns:sodipodi="http://sodipodi.sourceforge.net/DTD/sodipodi-0.dtd"
   xmlns="http://www.w3.org/2000/svg"
   xmlns:svg="http://www.w3.org/2000/svg">
  <sodipodi:namedview
     id="namedview12209"
     pagecolor="#505050"
     bordercolor="#eeeeee"
     borderopacity="1"
     inkscape:showpageshadow="0"
     inkscape:pageopacity="0"
     inkscape:pagecheckerboard="0"
     inkscape:deskcolor="#505050"
     inkscape:document-units="mm"
     showgrid="false"
     inkscape:zoom="8.3553674"
     inkscape:cx="389.21089"
     inkscape:cy="451.32666"
     inkscape:window-width="2560"
     inkscape:window-height="1369"
     inkscape:window-x="2552"
     inkscape:window-y="-8"
     inkscape:window-maximized="1"
     inkscape:current-layer="layer1" />
  <defs
     id="defs12204" />
  <g
     inkscape:label="Camada 1"
     inkscape:groupmode="layer"
     id="layer1">
    <path
       style="fill:#000000;stroke-width:0.874001"
       id="path12894"
       d="m 107.36227,114.77245 c 0.14521,0.39306 0.341,0.75996 0.58543,1.09973 0.0647,0.09 0.13744,0.17399 0.20455,0.26222 0.21783,0.28637 0.17392,0.23048 0.36605,0.5254 0.42166,0.70257 0.67575,1.48158 0.93445,2.25363 0.0505,0.14317 0.10326,0.28557 0.15155,0.42951 0.12589,0.37515 0.15765,0.48343 0.24212,0.87819 0.11563,0.54038 0.0424,0.29499 0.15335,0.82869 0.0272,0.13101 0.0611,0.26055 0.0917,0.39083 0.13547,0.51698 0.27294,1.03446 0.37247,1.55993 0.089,0.4701 0.14282,0.94745 0.2094,1.42107 0.10119,0.80301 0.1238,1.61407 0.14706,2.42243 -0.007,0.54151 -0.0846,1.07956 -0.22781,1.6016 -0.0258,0.0939 -0.14567,0.47644 -0.17465,0.56953 -0.16846,0.5395 -0.39083,1.02926 -0.70535,1.49738 -0.24141,0.33251 -0.47256,0.67278 -0.72083,1.00024 -0.31416,0.41744 -0.61258,0.84637 -0.93027,1.26118 -0.26182,0.31493 -0.55212,0.60315 -0.83665,0.89696 -0.30893,0.34264 -0.62792,0.67358 -0.98252,0.96875 -0.29378,0.23743 -0.59811,0.46735 -0.9294,0.65076 -0.23221,0.12855 -0.28909,0.1423 -0.51986,0.23077 -0.0595,0.0136 -0.11816,0.0309 -0.17836,0.0407 -0.21235,0.0345 -0.4407,0.022 -0.65412,0.0223 -0.43492,7.9e-4 -0.2996,0.002 -0.72892,-0.0125 -0.72251,-0.0383 -1.42182,-0.23409 -2.1298,-0.36666 -0.27332,-0.0518 -0.55182,-0.10841 -0.8057,-0.22729 -0.24914,-0.11667 -0.476731,-0.28015 -0.700294,-0.43833 -0.38196,-0.25799 -0.711247,-0.57397 -1.015875,-0.9174 -0.295445,-0.32586 -0.594627,-0.64949 -0.834562,-1.01928 -0.234363,-0.38586 -0.381794,-0.81135 -0.498441,-1.24493 -0.100041,-0.50021 -0.199041,-1.00149 -0.27959,-1.50532 -0.08583,-0.46765 -0.123976,-0.94142 -0.14455,-1.41582 -0.03052,-0.45481 -0.05406,-0.90929 -0.03546,-1.36494 0.02257,-0.3996 0.06891,-0.7974 0.103801,-1.19607 0.05288,-0.47443 0.130107,-0.94713 0.223428,-1.41534 0.09286,-0.44687 0.208618,-0.88783 0.337725,-1.3254 0.134114,-0.53643 0.33501,-1.04998 0.571253,-1.54859 0.177496,-0.41808 0.345948,-0.84033 0.511096,-1.26349 0.149998,-0.37912 0.301226,-0.75749 0.433747,-1.14313 0.147204,-0.37676 0.282298,-0.75782 0.415058,-1.13984 0.128108,-0.38425 0.272891,-0.76239 0.404899,-1.14519 0.07189,-0.24591 0.183015,-0.47695 0.283565,-0.71181 0.0692,-0.19023 0.12824,-0.38429 0.18104,-0.57968 0.048,-0.16428 0.0683,-0.33376 0.10432,-0.50056 0.0219,-0.0361 0.0426,-0.35166 0.0325,-0.17815 0.0654,-0.0114 -0.15271,0.27202 -0.12785,0.21838 0.14011,-0.30232 0.1396,-0.12503 0.16464,-0.34968 5.3e-4,0.003 2.6e-4,0.0128 0.001,0.01 0.0426,-0.15292 -0.0325,0.0878 0.0249,-0.0846 -5.3e-4,-0.0681 -0.004,-0.13632 -0.002,-0.20443 2.7e-4,-0.011 0.009,0.0212 0.007,0.0321 -0.0103,0.0752 -0.0595,0.14965 -0.0425,0.22358 0.0114,0.0497 0.0471,-0.0912 0.0617,-0.14012 0.0271,-0.091 0.0141,-0.12614 0.002,-0.21328 -0.0145,0.24947 0.0197,0.0924 -0.0576,0.25276 -0.008,0.0168 0.0264,-0.0276 0.0335,-0.045 0.0644,-0.15862 0.0774,-0.24129 0.055,-0.12379 -0.22212,0.004 -0.44425,0.008 -0.666384,0.0115 -0.0013,-0.007 -0.01042,-0.0199 -0.0037,-0.0197 0.226494,0.005 0.479354,-0.0723 0.678744,0.0353 -0.0757,0.0694 -0.15143,0.13887 -0.22715,0.20831 -0.0116,0.002 -0.0306,-0.004 -0.0348,0.008 -0.004,0.009 0.0186,0.007 0.0279,0.0104 0.13688,0.053 0.28144,0.0363 0.42428,0.0389 0.1214,0.002 0.24289,-0.007 0.36415,-0.0139 0.0747,0.003 0.14793,-0.0223 0.22242,-0.0186 0.10977,-0.007 0.0303,-8e-4 0.11204,-0.009 0.005,-5.3e-4 -0.009,5.3e-4 -0.0136,0.002 -0.011,0.003 0.046,0.0117 -0.007,0.002 0.095,0.0263 0.18008,0.0101 0.27185,-0.0132 0.008,-0.002 -0.0155,0.006 -0.0237,0.007 -0.0225,0.003 -0.0455,0.002 -0.068,0.004 -0.003,2.6e-4 0.005,0.002 0.007,0.003 0.0568,0.0219 0.11713,0.025 0.17718,0.0276 0.0143,5.3e-4 -0.0288,0.002 -0.0429,-7.9e-4 -0.0305,-0.006 -0.0598,-0.0168 -0.0897,-0.0251 0.35738,0.2083 0.26607,-1.75849 0.2614,2.7e-4 -10e-6,0.002 0.009,-6e-5 0.007,5.3e-4 -0.009,0.002 -0.0184,0.003 -0.0276,0.004 0.0433,0.004 0.087,5.3e-4 0.13014,-10e-4 -0.005,0.003 -0.0465,-0.002 -0.0365,-0.002 0.0561,0.002 0.10528,0.003 0.16149,-10e-4 0.0975,-0.0156 0.0892,-0.013 0.1921,-0.002 0.11171,0.0198 0.22551,0.0121 0.33826,0.0148 0.11269,0.0113 0.2412,0.008 0.35958,0.0212 0.15286,0.0109 0.30477,0.0297 0.45687,0.0485 0.12389,0.0144 0.24625,0.0282 0.36809,0.0543 0.14701,0.0489 0.2997,0.0734 0.45283,0.0931 0.11018,0.0234 0.22186,0.039 0.33339,0.0561 0.14944,0.042 0.30429,0.0464 0.4571,0.0657 0.21166,0.0368 0.42535,0.0527 0.64005,0.0504 0.14297,0.009 0.28582,0.008 0.42895,0.005 0.0998,0.002 0.19908,-0.006 0.2987,-0.009 0.11281,0.007 0.22038,-0.0143 0.32728,-0.0478 -0.041,0.0216 0.1852,-0.0176 0.19957,-0.02 0.14761,-0.0299 -0.019,0.002 0.0923,-0.0165 0.007,-0.001 0.0294,-0.004 0.022,-0.004 -0.0681,0.006 -0.0476,0.005 -0.0271,0.006 0.0914,-0.009 0.0588,-0.003 0.12982,-0.0185 0.0124,-0.003 0.0494,-0.0112 0.0369,-0.01 -0.0228,0.003 -0.0485,-7.9e-4 -0.0679,0.0115 -0.0162,0.0102 0.0383,-0.003 0.0574,-0.005 0.0304,-0.006 0.04,-0.002 0.0889,-0.006 -0.12333,-0.0137 0.14571,0.0234 0.0329,0.002 -0.0162,-0.003 -0.0317,-0.009 -0.0476,-0.0131 0.0351,0.008 0.0706,0.0135 0.10529,0.0227 0.003,7.9e-4 -0.14208,-0.0389 -0.11231,-0.0362 0.0806,0.0147 0.16118,0.0293 0.24176,0.0439 -7.9e-4,5.3e-4 -0.001,0.001 -0.002,0.002 0.1729,-0.002 0.53113,0.0181 -0.32757,-0.38193 -0.074,-0.0345 -0.0266,0.20288 0.0458,0.24051 0.45864,0.23832 0.46238,0.19472 0.62549,0.007 -0.26848,-0.38544 -0.11418,-0.41073 -0.34864,-0.31381 0,0 -0.0477,0.0306 -0.0477,0.0306 v 0 c -0.0451,0.2628 -0.002,0.2041 -0.17942,-0.12542 0.15283,-0.1661 0.14687,-0.19016 0.5703,0.0619 0.0622,0.037 0.0899,0.25759 0.0317,0.21466 -0.50339,-0.37131 -0.14464,-0.44903 -0.39716,-0.44095 -0.0923,0.006 -0.26046,0.0105 0.14907,0.0517 0.003,2.6e-4 -0.18994,-0.0811 -0.1855,-0.06 0.006,0.0267 0.0529,0.0136 0.0793,0.0204 -0.0907,-0.0274 -0.18049,-0.0337 -0.27467,-0.0327 -0.0422,2.7e-4 -0.0846,0.004 -0.12639,0.008 0.0584,0.005 -0.19926,0.019 -0.0761,0.017 -0.0687,3e-5 -0.14226,0.009 -0.20875,0.026 -0.0947,0.0166 -0.19101,0.0198 -0.28463,0.0422 -0.016,0.005 -0.0323,0.009 -0.0481,0.0144 -0.001,5.3e-4 0.002,10e-4 0.003,0.002 0.0116,-7.9e-4 0.0233,-0.002 0.0349,-0.002 -0.0463,0.002 -0.0917,0.0105 -0.13831,0.006 -0.0981,0.004 -0.19497,0.012 -0.29341,0.0103 -0.141,0.005 -0.28137,0.003 -0.42231,-0.002 -0.1845,0.006 -0.36776,-0.009 -0.55004,-0.0375 -0.14755,-0.0149 -0.29474,-0.0214 -0.43956,-0.0576 -0.11626,-0.0143 -0.23149,-0.0318 -0.34676,-0.0519 -0.13318,-0.0141 -0.2632,-0.041 -0.39096,-0.0819 -0.14273,-0.0305 -0.28648,-0.0464 -0.43127,-0.0638 -0.15557,-0.0171 -0.31075,-0.037 -0.46677,-0.0486 -0.13886,-0.0137 -0.27717,-0.01 -0.41558,-0.0236 -0.0941,-0.002 -0.18905,0.007 -0.28214,-0.0104 -0.10514,-0.0103 -0.21199,-0.0199 -0.31662,2e-4 -0.0331,0.006 -0.027,-5.3e-4 -0.0877,7.9e-4 -0.0379,-2.2e-4 -0.0757,0.001 -0.0742,0.003 0.008,0.0105 0.0263,8e-4 0.0395,0.001 0.0151,5.3e-4 -0.0889,-0.003 -0.0453,-0.003 -0.0573,8e-4 -0.16453,-1.2e-4 -0.16852,0.0129 -0.0644,0.20965 -0.33679,0.58762 -0.12536,0.64596 0.66491,0.18348 0.52472,-0.51485 0.31273,-0.59747 -0.12035,-0.0387 -0.0811,-0.0365 -0.17943,-0.0402 -0.009,-2.6e-4 0.0179,8e-4 0.0267,0.002 0.0173,0.003 0.0338,0.0107 0.0513,0.0119 0.0325,0.002 -0.16436,-0.0381 -0.0944,-0.0254 -0.0859,-0.0165 -0.16402,-0.0201 -0.24996,-0.001 -0.004,7.9e-4 0.12133,0.008 0.11577,0.0131 -0.0932,-0.0244 -0.18979,-0.0402 -0.28599,-0.0246 -0.0844,0.001 -0.16686,0.0145 -0.2508,0.0183 -0.10646,0.003 -0.21312,0.008 -0.31955,0.004 -0.10967,-0.003 -0.15931,0.0137 -0.23158,-0.0148 -0.0608,-0.0183 -0.21216,-0.0713 -0.2687,-0.0487 -0.12753,0.051 -0.441536,0.11916 -0.348379,0.2201 0.148829,0.16127 0.431969,0.0789 0.649689,0.10639 0.008,0.001 -0.003,-0.0166 -0.005,-0.0249 -0.22733,-0.0175 -0.45467,-0.0349 -0.682005,-0.0524 -0.03545,0.15965 0.01159,-0.003 0.0497,-0.0833 0.04726,-0.0999 -0.328203,0.5222 -0.105294,0.33645 -0.0043,-0.0507 -0.01045,-0.0704 0.01011,-0.12419 0.0091,-0.0239 0.04453,-0.091 0.03922,-0.0659 -0.02056,0.0968 -0.06384,0.18781 -0.08561,0.28439 -0.0038,0.017 0.0075,0.0687 0.0099,0.0514 0.0079,-0.0566 0.0045,-0.11422 0.0068,-0.17132 0.03868,-0.10493 -0.073,0.21088 -0.05151,0.21522 6e-5,3e-5 0.0045,-10e-4 0.0031,0.002 0.04476,-0.0602 0.08952,-0.12047 0.134274,-0.18071 0.04264,-0.0981 -0.282205,0.33035 -0.16977,0.2775 -0.0013,0.0139 -0.0036,0.0277 -0.0039,0.0416 -0.0064,0.22483 0.04846,-0.19303 -0.0044,0.018 -0.0049,0.0196 -0.0087,0.0395 -0.0131,0.0592 -0.03264,0.15416 -0.05339,0.30957 -0.09491,0.46184 -0.04508,0.16348 -0.09562,0.32545 -0.149514,0.48621 -0.107288,0.25078 -0.226533,0.49712 -0.305877,0.75883 -0.131556,0.3818 -0.277492,0.75834 -0.404743,1.14175 -0.1348,0.38275 -0.269161,0.76559 -0.416423,1.14379 -0.129098,0.37635 -0.277445,0.74525 -0.423534,1.11527 -0.158957,0.40759 -0.319291,0.81506 -0.491197,1.21731 -0.251489,0.53245 -0.466796,1.08049 -0.610959,1.65271 -0.135248,0.4585 -0.258107,0.92006 -0.353346,1.38882 -0.0978,0.49391 -0.180491,0.99225 -0.23545,1.49273 -0.03589,0.41008 -0.08312,0.81928 -0.105982,1.23032 -0.01839,0.47567 0.0011,0.95028 0.0346,1.42504 0.02212,0.50213 0.06106,1.00376 0.152014,1.49879 0.08513,0.52872 0.186018,1.05536 0.293606,1.57988 0.137369,0.50627 0.311226,1.00285 0.586036,1.45302 0.259905,0.40039 0.574278,0.75768 0.895935,1.10963 0.341907,0.38672 0.711827,0.74351 1.139568,1.03587 0.276209,0.19382 0.555024,0.38659 0.863511,0.5272 0.29489,0.1344 0.61493,0.20484 0.93127,0.26567 0.7455,0.1412 1.48204,0.34779 2.24376,0.38404 0.42713,0.0135 0.33403,0.0144 0.75948,0.0129 0.2758,-0.001 0.56021,0.007 0.83229,-0.0474 0.0908,-0.0183 0.17879,-0.0486 0.26819,-0.0729 0.098,-0.0397 0.19831,-0.0743 0.29406,-0.11915 0.49185,-0.23063 0.93235,-0.55661 1.34885,-0.90176 0.36951,-0.31602 0.69988,-0.67055 1.02527,-1.03152 0.30282,-0.31676 0.61146,-0.6284 0.88181,-0.97435 0.30879,-0.42568 0.60654,-0.85908 0.90141,-1.29448 0.23908,-0.34596 0.47079,-0.69713 0.70757,-1.04468 0.3303,-0.51581 0.57246,-1.0777 0.74833,-1.66461 0.22805,-0.76813 0.41838,-1.54809 0.40687,-2.3566 -0.0241,-0.82935 -0.0558,-1.66183 -0.17101,-2.4842 -0.0727,-0.48583 -0.13744,-0.97435 -0.2356,-1.45592 -0.10755,-0.52761 -0.24946,-1.04769 -0.39301,-1.56633 -0.0309,-0.12267 -0.0643,-0.24473 -0.0927,-0.36799 -0.065,-0.2816 -0.11143,-0.5673 -0.1778,-0.84858 -0.0912,-0.38641 -0.14201,-0.55353 -0.27122,-0.92004 -0.0497,-0.14107 -0.10443,-0.28033 -0.15665,-0.42051 -0.28583,-0.80057 -0.55994,-1.61274 -1.02696,-2.33093 -0.0634,-0.0925 -0.1239,-0.18709 -0.19024,-0.27753 -0.27228,-0.37123 -0.13624,-0.15625 -0.4031,-0.50356 -0.23665,-0.308 -0.43238,-0.64012 -0.57754,-1.00139 0,0 -0.32362,0.12156 -0.32362,0.12156 z" />
    <path
       style="fill:#000000;stroke-width:0.874001"
       id="path12896"
       d="m 101.74808,114.90804 c 0.0214,0.18952 0.0567,0.43001 0.0551,0.6284 -1.6e-4,0.0212 -0.024,0.0808 -0.0145,0.0619 0.1339,-0.26609 -0.0794,0.0273 -0.09,0.0405 -0.0775,0.24086 -0.11464,0.49052 -0.19289,0.73147 -0.10143,0.27263 -0.16625,0.55596 -0.25117,0.83339 -0.10443,0.29749 -0.18079,0.60383 -0.29251,0.89872 -0.10452,0.25025 -0.17941,0.51237 -0.25329,0.77306 -0.041,0.12903 -0.0606,0.26513 -0.10512,0.3931 -0.009,0.0265 -0.0764,0.16725 -0.0801,0.17526 -0.11579,0.19252 -0.2182,0.38712 -0.26869,0.60645 -0.0465,0.21066 -0.11322,0.41476 -0.17783,0.62017 -0.0473,0.18921 -0.09112,0.37429 -0.166833,0.55421 -0.08391,0.23324 -0.126341,0.47723 -0.206058,0.71168 -0.100248,0.28325 -0.198834,0.56606 -0.278484,0.85583 -0.04611,0.26256 -0.141428,0.5108 -0.219218,0.76452 -0.05721,0.13903 -0.07327,0.28899 -0.109659,0.43322 -0.01127,0.0447 -0.02961,0.0874 -0.04274,0.13162 -0.05614,0.15926 -0.07825,0.32636 -0.09961,0.49294 -0.03622,0.21734 -0.09322,0.43047 -0.135441,0.64647 -0.01344,0.15429 -0.03422,0.30753 -0.05534,0.46091 -0.02773,0.29673 0.02772,0.5991 0.06423,0.89431 0.0345,0.28432 0.0924,0.56583 0.160047,0.84403 0.06105,0.24308 0.187116,0.45984 0.284845,0.68832 0.101391,0.27866 0.26457,0.52743 0.408472,0.78486 0.171439,0.3115 0.319639,0.63309 0.515699,0.93031 0.18751,0.24788 0.37717,0.49295 0.60787,0.70195 0.22799,0.19403 0.45251,0.3912 0.70034,0.55961 0.24048,0.16205 0.47612,0.331 0.72442,0.48106 0.27452,0.15634 0.57145,0.26715 0.87073,0.36551 0.2018,0.0711 0.41065,0.0658 0.62002,0.0688 0.19985,0.007 0.39338,-0.0383 0.58727,-0.0785 0.23767,-0.0352 0.45601,-0.13364 0.67541,-0.22582 0.26992,-0.11468 0.54226,-0.22068 0.80067,-0.36004 0.25588,-0.15027 0.52161,-0.27968 0.75703,-0.46173 0.11105,-0.11329 0.23822,-0.21391 0.34446,-0.33192 0.0578,-0.0642 0.16008,-0.19566 0.21811,-0.26921 0.15039,-0.17497 0.25105,-0.37756 0.34692,-0.58525 0.12956,-0.26413 0.22608,-0.54152 0.32621,-0.81743 0.12513,-0.27614 0.22706,-0.55568 0.29508,-0.8511 0.0432,-0.24873 0.14761,-0.48057 0.21147,-0.72346 0.0281,-0.10706 0.0503,-0.23274 0.0712,-0.34207 0.0724,-0.32367 0.12025,-0.65209 0.16252,-0.98084 0.0412,-0.25139 0.0592,-0.50623 0.0778,-0.76017 0.007,-0.31443 0.0111,-0.629 0.0165,-0.94352 0.021,-0.33039 -0.0497,-0.65066 -0.12142,-0.97022 -0.0545,-0.3416 -0.0862,-0.68576 -0.14471,-1.02674 -0.0249,-0.20486 -0.0407,-0.41056 -0.0731,-0.61479 -0.0351,-0.17645 -0.0617,-0.35448 -0.091,-0.53203 -0.0104,-0.18667 -0.0667,-0.36513 -0.0943,-0.54908 -0.0161,-0.18893 -0.0618,-0.37304 -0.0855,-0.56096 -0.0395,-0.20514 -0.0829,-0.40644 -0.0969,-0.61526 -0.0281,-0.21897 -0.0806,-0.43352 -0.11318,-0.65197 -0.01,-0.22247 -0.0657,-0.43458 -0.13382,-0.64518 -0.0709,-0.23413 -0.16498,-0.45882 -0.27297,-0.67794 -0.10863,-0.17544 -0.16885,-0.37159 -0.23526,-0.56508 -0.0698,-0.17972 -0.11681,-0.36653 -0.16467,-0.55269 -0.0389,-0.15067 -0.0952,-0.29587 -0.14364,-0.44374 -0.002,-0.0104 -0.006,-0.0207 -0.007,-0.0313 -7.9e-4,-0.006 0.006,0.0229 0.005,0.017 -0.01,-0.0806 -0.0191,-0.0948 -0.0511,-0.18443 -0.009,-0.0252 -0.0222,-0.0491 -0.009,-0.0235 5.3e-4,10e-4 10e-4,0.002 0.002,0.003 -0.005,-0.0228 -0.009,-0.0458 -0.0158,-0.0682 -0.0243,-0.0739 -0.0203,-0.0581 -0.0335,-0.10528 -0.003,-0.0115 -0.006,-0.023 -0.01,-0.0345 -10e-4,-0.004 0.002,0.007 0.003,0.0108 -0.0105,-0.0878 -0.0231,-0.17461 -0.0492,-0.26009 -0.0189,-0.0777 0.0162,0.0773 -0.014,-0.0701 -0.003,-0.0131 0.006,0.0263 0.007,0.0396 -0.006,0.12094 -0.009,-0.20375 -0.0137,-0.10591 0.0314,0.0573 -0.0461,-0.28504 -0.0412,-0.22665 0.0115,0.13436 0.039,0.10419 0.0268,0.20152 0.0216,-0.21792 0.002,-0.18701 -0.22719,-0.45646 -0.0172,-0.0202 -0.12715,-0.0339 -0.14915,-0.0375 -0.0554,0.24064 -0.11652,0.48002 -0.16607,0.72192 -0.001,0.006 0.0117,0.0122 0.0165,0.008 0.17637,-0.14096 0.35263,-0.28265 0.51846,-0.43587 0.009,-0.009 -0.003,-0.0493 -0.006,-0.0372 -0.0246,0.0914 -0.12308,0.20883 -0.0584,0.27791 0.0593,0.0633 0.0601,-0.16263 0.0902,-0.24394 0.008,-0.38609 -0.036,-0.33322 -0.62848,-0.26664 -0.0371,0.004 0.0803,0.0295 0.0908,0.0653 0.0147,0.0502 -0.0175,0.10308 -0.0263,0.15461 0,0 0.0311,0.0473 0.0311,0.0473 v 0 c 0.0524,0.0113 0.10352,0.0324 0.15707,0.034 0.0734,0.002 0.29065,-0.006 0.21907,-0.0227 -0.55552,-0.12677 -0.53835,0.13639 -0.58667,-0.11347 -5.3e-4,-0.003 0.002,0.01 0.005,0.006 0.13741,-0.24691 0.082,-0.16924 -0.0278,0.19558 -7.9e-4,0.002 -5.3e-4,0.009 0.002,0.008 0.17829,-0.11398 0.35236,-0.23447 0.53088,-0.34808 0.003,-0.002 0.01,0.002 0.009,0.005 -0.0734,0.23102 -0.15286,0.46005 -0.22929,0.69008 -0.19523,-0.0362 -0.33711,-0.22285 -0.29851,-0.39816 -0.0167,0.12203 0.008,0.0998 0.0245,0.25417 0.004,0.0406 -0.0446,-0.13287 -0.0257,-0.13404 -0.003,0.0523 -0.002,0.0999 0.004,0.15213 0.001,0.0115 0.002,0.0454 0.005,0.0343 0.005,-0.0165 0.0167,-0.055 -1.9e-4,-0.0517 -0.0171,0.003 -0.001,0.0347 -0.002,0.0521 0.008,0.1113 0.0147,0.11148 0.0358,0.21702 0.003,0.0117 0.008,0.0471 0.009,0.0352 0.002,-0.0142 -0.002,-0.0573 -0.001,-0.043 7.9e-4,0.0507 0.002,0.10122 0.008,0.15167 0.0168,0.11084 0.046,0.1892 0.0627,0.28956 0.008,0.0288 0.0159,0.0578 0.0252,0.0863 0.006,0.0169 0.003,0.0547 0.0195,0.0495 0.017,-0.005 -0.008,-0.0346 -0.0117,-0.0519 -0.003,-0.0151 0.0352,0.19294 0.0354,0.18317 0.0418,0.13331 0.0859,0.2659 0.11833,0.40174 0.0524,0.20566 0.10004,0.41317 0.17802,0.61143 0.0758,0.22745 0.15107,0.45653 0.2741,0.66398 0.0907,0.18304 0.16845,0.37087 0.228,0.56663 0.0561,0.17814 0.099,0.33018 0.10378,0.52061 0.03,0.19835 0.0721,0.39418 0.10642,0.59154 0.0175,0.22172 0.0512,0.439 0.10188,0.65547 0.0241,0.19548 0.0683,0.38712 0.0885,0.58309 0.0286,0.18456 0.0783,0.3647 0.0937,0.55128 0.0262,0.17785 0.0537,0.35571 0.087,0.53235 0.0313,0.20768 0.047,0.41654 0.0737,0.62458 0.058,0.35499 0.0893,0.71344 0.15168,1.06773 0.0561,0.25787 0.12288,0.51316 0.10447,0.78009 -0.007,0.30008 -0.0134,0.60014 -0.0174,0.90021 -0.0174,0.23925 -0.0327,0.47948 -0.0734,0.7161 -0.0402,0.31362 -0.0853,0.62693 -0.15444,0.93569 -0.006,0.0339 -0.0375,0.21174 -0.0484,0.25347 -0.0684,0.26288 -0.18155,0.51377 -0.22918,0.7826 -0.0124,0.057 -0.0349,0.16698 -0.0531,0.22799 -0.0536,0.18043 -0.153,0.34426 -0.20976,0.52373 -0.0945,0.25664 -0.18111,0.51658 -0.30266,0.76236 -0.067,0.15151 -0.13243,0.29716 -0.24322,0.42344 -0.049,0.0629 -0.0916,0.13093 -0.14397,0.19108 -0.0869,0.0999 -0.19375,0.18247 -0.28084,0.28252 -0.19527,0.16176 -0.43364,0.25663 -0.64534,0.39434 -0.23261,0.13317 -0.4837,0.22495 -0.72752,0.33503 -0.17192,0.076 -0.34107,0.15781 -0.52925,0.18527 -0.13849,0.0306 -0.27689,0.0651 -0.41984,0.0634 -0.13152,-5.3e-4 -0.26156,0.0123 -0.3895,-0.0305 -0.2445,-0.0774 -0.48618,-0.16743 -0.71204,-0.29004 -0.23881,-0.14331 -0.46579,-0.30464 -0.69622,-0.46087 -0.22316,-0.14479 -0.41861,-0.32476 -0.62374,-0.49354 -0.18877,-0.15588 -0.32172,-0.36556 -0.4794,-0.55075 -0.18812,-0.27898 -0.31861,-0.58891 -0.487,-0.87963 -0.13188,-0.23543 -0.28405,-0.46162 -0.37682,-0.71663 -0.08336,-0.18917 -0.183904,-0.37095 -0.247327,-0.56829 -0.06388,-0.25392 -0.1211,-0.51034 -0.159377,-0.76928 -0.02522,-0.15092 -0.04214,-0.30257 -0.06618,-0.45362 -0.005,-0.0312 -0.02641,-0.12834 -0.0265,-0.16591 -6.6e-5,-0.027 0.0059,-0.0536 0.0088,-0.0804 0.01609,-0.13936 0.03567,-0.27862 0.04275,-0.41878 0.04157,-0.23177 0.107944,-0.45941 0.141681,-0.69293 0.01487,-0.13042 0.03169,-0.26111 0.07404,-0.38601 0.05066,-0.1863 0.07985,-0.37567 0.134948,-0.56081 0.07548,-0.26127 0.169705,-0.51724 0.215265,-0.78647 0.0724,-0.28085 0.165,-0.55476 0.25854,-0.82927 0.0669,-0.22326 0.11301,-0.45066 0.17828,-0.67424 0.0734,-0.19746 0.12467,-0.39841 0.16978,-0.60388 0.0684,-0.22482 0.13358,-0.44963 0.18222,-0.67982 0.005,-0.0278 0.002,-0.0575 0.012,-0.0839 0.0526,-0.14001 0.13419,-0.26963 0.19625,-0.40513 0.0391,-0.0917 0.078,-0.17635 0.10766,-0.27182 0.04,-0.12878 0.0495,-0.26569 0.0875,-0.39506 0.0592,-0.2479 0.1274,-0.49537 0.214,-0.73503 0.10456,-0.31204 0.18153,-0.63215 0.27506,-0.94755 0.0337,-0.13942 0.0571,-0.28072 0.0904,-0.42008 0.051,-0.21305 0.0277,-0.0775 0.0819,-0.29232 0.011,-0.0435 0.0187,-0.0877 0.0281,-0.1316 0.0524,-0.21859 0.0797,-0.44161 0.11307,-0.66371 -0.0165,0.005 -0.0563,0.0311 -0.0496,0.0152 0.0335,-0.0786 0.24654,-0.0174 0.16023,-0.19994 0.0161,-0.0435 0.0122,-0.0923 0.0108,-0.13865 -0.006,-0.19454 -0.0525,-0.48087 -0.0773,-0.66021 0,0 -0.3704,0.0585 -0.3704,0.0585 z" />
    <path
       style="fill:#000000;stroke-width:0.874001"
       id="path12898"
       d="m 101.94869,114.85113 c 0.0486,0.0151 -0.20144,0.57578 -0.0771,0.62405 0.028,0.0109 0.059,-0.0114 0.0885,-0.0171 0,0 -0.0566,0.003 -0.0566,0.003 v 0 c 0.0311,0.0229 0.0548,0.067 0.0934,0.0686 0.14306,0.006 0.21574,-0.55145 0.24434,-0.60484 0,0 -0.29256,-0.0739 -0.29256,-0.0739 z" />
    <path
       style="fill:#000000;stroke-width:0.874001"
       id="path12900"
       d="m 101.84452,114.72762 c 0.003,0.0242 0.0456,0.51618 0.0825,0.61292 0.008,0.0198 0.0373,0.0202 0.056,0.0303 0,0 0.0564,0.005 0.0564,0.005 v 0 c 0.0213,-0.0169 0.0576,-0.0244 0.0638,-0.0508 0.0259,-0.11065 -0.0308,-0.58298 -0.0344,-0.622 0,0 -0.22428,0.0242 -0.22428,0.0242 z" />
    <path
       style="fill:#000000;stroke-width:0.874001"
       id="path12902"
       d="m 101.97006,114.80513 c -0.0302,0.11715 -0.0722,0.2309 -0.10528,0.34719 -0.0147,0.0517 -0.0168,0.0681 -0.0275,0.12173 -0.0202,0.1159 -0.0341,0.23265 -0.0467,0.34958 -0.0153,0.0963 -0.0327,0.19241 -0.0537,0.28766 -0.007,0.038 -0.0154,0.0754 -0.0247,0.11283 -0.009,0.0233 -0.005,0.0552 -0.0168,0.0774 0.004,-0.018 -0.007,0.0303 -0.005,0.0228 0.0372,-0.13819 0.0825,-0.0246 0.22519,0.0739 0.0242,-0.0434 0.0451,-0.0889 0.0638,-0.13496 0.0111,-0.0274 0.0197,-0.0556 0.0262,-0.0845 10e-4,-0.006 0.002,-0.0119 0.003,-0.0178 1.9e-4,-7.9e-4 8e-4,-0.002 0.002,-0.002 7.9e-4,7.9e-4 -1e-4,0.002 -1.6e-4,0.003 0.0216,-0.0315 0.0335,-0.0678 0.0473,-0.10304 0.029,-0.0575 0.0546,-0.11664 0.0782,-0.17665 0.0208,-0.0582 0.0408,-0.11673 0.0623,-0.17471 0.0356,-0.0863 0.0662,-0.17439 0.10256,-0.26033 0.0361,-0.0727 0.0547,-0.15083 0.0675,-0.23044 0.003,-0.0464 0.0132,-0.0916 0.0232,-0.13685 0.007,-0.0283 0.007,-0.0569 0.006,-0.0858 -1.9e-4,-0.004 -2.7e-4,-0.007 -8e-4,-0.011 -1.1e-4,-0.001 -5.3e-4,-0.005 -5.3e-4,-0.004 -5.3e-4,0.006 -5.3e-4,0.0123 -7.9e-4,0.0184 0.007,-0.0132 0.005,-0.0527 -1.1e-4,-0.0771 0.004,-0.007 -0.003,-0.0568 -0.004,-0.0606 -0.0148,-0.0228 -0.0254,-0.0488 -0.0443,-0.0683 -0.0115,-0.0118 -0.0282,-0.0178 -0.044,-0.0225 -0.0439,-0.0131 -0.0853,0.002 -0.12657,0.0151 -0.0338,0.0122 -0.0668,0.0267 -0.094,0.0508 -0.007,0.007 -0.0139,0.0144 -0.0209,0.0217 -0.0382,0.0403 -0.0613,0.0904 -0.0813,0.1414 -0.0279,0.0836 -0.0307,0.17253 -0.0429,0.2592 -0.0138,0.0959 -0.0259,0.19214 -0.0426,0.28761 -0.0189,0.10494 -0.067,0.0618 0.23359,0.048 0.009,-5.3e-4 0.003,-0.0175 0.004,-0.0263 0.004,-0.0319 0.004,-0.052 0.005,-0.0855 0.001,-0.0205 0.002,-0.0411 0.004,-0.0616 0.002,-0.0212 0.004,-0.0423 0.005,-0.0635 0.004,-0.0665 -2.4e-4,-0.13166 -0.0134,-0.19684 -0.012,-0.0594 -0.0261,-0.11832 -0.0454,-0.1758 -0.0115,-0.0248 -0.0372,-0.0903 -0.065,-0.10038 -0.0218,-0.008 -0.0455,-0.009 -0.0682,-0.0133 0.006,-0.005 0.0373,5.3e-4 0.0364,8e-4 -0.0255,0.008 -0.0544,0.003 -0.0789,0.0133 -0.0145,0.006 -0.0343,0.0435 -0.043,0.0584 -0.0261,0.038 -0.0386,0.0823 -0.0478,0.12683 -0.008,0.0421 -0.0111,0.0848 -0.0199,0.1267 -0.007,0.0515 -0.0142,0.10287 -0.0185,0.15462 -0.003,0.0496 -0.007,0.0991 -0.0133,0.14838 -0.008,0.0476 -0.007,0.0963 -0.0163,0.1438 -0.004,0.0413 -0.0102,0.0821 -0.0199,0.1224 -0.009,0.0406 -0.0208,0.0806 -0.032,0.12069 -0.0149,0.0404 -0.0216,0.0825 -0.0288,0.12472 -0.002,0.0409 -0.006,0.0833 0.004,0.12372 0.003,0.0118 0.007,0.0233 0.0103,0.0349 0.013,0.018 0.0228,0.0387 0.039,0.0539 0.0372,0.0349 0.0974,0.0399 0.14351,0.0253 0.0133,-0.004 0.0255,-0.0112 0.0382,-0.0168 0.007,-0.004 0.0139,-0.009 0.0207,-0.0132 0.005,-0.003 0.0398,-0.0266 0.0453,-0.0336 7.9e-4,-10e-4 -0.002,0.002 -0.003,0.002 0.0452,-0.0253 0.0693,-0.071 0.0888,-0.1168 0.008,-0.0774 -0.008,-0.0856 -0.0518,-0.14829 0,0 -0.0532,-0.0195 -0.0532,-0.0195 v 0 c -0.0703,0.0143 -0.0866,0.0108 -0.1347,0.0651 -0.0106,0.0243 -0.002,0.007 0.0109,0.001 0.002,-5.3e-4 -0.002,0.002 -0.004,0.003 -0.0142,0.009 -0.0274,0.0202 -0.0401,0.0312 0.0375,-0.007 0.0796,-0.004 0.10866,0.0255 0.0137,0.0138 0.0217,0.0322 0.0325,0.0482 0.002,0.007 0.003,0.0147 0.005,0.0219 1.8e-4,5.3e-4 1.7e-4,-0.001 1.6e-4,-0.002 -2e-5,-0.004 -2.6e-4,-0.009 -2.5e-4,-0.013 7e-5,-0.0122 8e-4,-0.0245 2.1e-4,-0.0367 0.003,-0.0313 0.0109,-0.0615 0.0208,-0.0913 0.0125,-0.0455 0.026,-0.0908 0.0341,-0.13744 0.009,-0.0486 0.0164,-0.0972 0.0198,-0.14649 0.004,-0.0508 0.002,-0.10141 0.004,-0.15222 0.002,-0.0536 0.004,-0.10752 2.6e-4,-0.16113 -0.001,-0.0474 5.3e-4,-0.095 -0.003,-0.14237 -4e-5,-0.0409 -1.5e-4,-0.0816 -0.002,-0.12239 -0.002,-0.0277 0.008,-0.054 0.0153,-0.0804 -8e-4,-0.0157 0.002,0.003 -0.0156,0.007 -0.0229,0.005 -0.0476,7.9e-4 -0.0702,0.007 -0.0168,0.005 0.0547,0.005 0.0513,0.002 -0.0205,-0.005 -0.0419,-0.007 -0.0616,-0.0147 -0.006,-0.002 -0.01,-0.009 -0.0148,-0.0142 -5.3e-4,-5.2e-4 0.001,1.9e-4 0.002,5.3e-4 0.001,0.002 0.002,0.003 0.003,0.005 0.006,0.0132 0.005,0.0126 0.01,0.0272 0.012,0.0487 0.0103,0.0993 0.011,0.14906 -0.002,0.0945 -0.0287,0.18599 -0.0422,0.27922 -0.004,0.0362 -0.006,0.044 -0.008,0.0757 -2.7e-4,0.005 -0.006,0.0145 -8e-4,0.0156 0.0786,0.016 0.15922,0.0205 0.23851,0.0329 0.003,5.3e-4 -0.0239,0.0189 -0.004,-0.008 0.0117,-0.098 0.0255,-0.1958 0.0365,-0.2939 0.007,-0.0689 0.0109,-0.13914 0.0276,-0.20655 0.0101,-0.0263 0.0192,-0.0524 0.0398,-0.0727 5.3e-4,-0.001 0.003,-0.003 0.002,-0.003 -0.004,8e-4 -0.0147,0.007 -0.0108,0.005 0.01,-0.003 0.0198,-0.007 0.0299,-0.01 0.002,-5.3e-4 0.0138,-0.004 0.0189,-0.006 8e-4,-2.6e-4 -0.002,8e-4 -0.002,8e-4 -0.01,-10e-4 -0.0202,-0.002 -0.0295,-0.005 -0.0473,-0.0183 -0.0398,-0.0287 -0.068,-0.0784 -7.9e-4,-0.006 -0.001,-0.0116 -0.002,-0.0174 -1.2e-4,-7.9e-4 1.6e-4,0.002 1.7e-4,0.003 5e-5,0.006 -8e-5,0.0126 10e-6,0.019 2.5e-4,0.018 2.1e-4,0.0361 0.004,0.0538 0.003,0.0161 7.9e-4,0.002 0.003,-0.0212 2.6e-4,-0.003 0.003,-0.0112 0.002,-0.009 -0.002,0.004 -0.002,0.008 -0.003,0.0125 -7.9e-4,0.003 -10e-4,0.007 -0.002,0.0101 -0.003,0.0265 -0.002,0.049 -0.005,0.0745 -0.009,0.0486 -0.0205,0.0965 -0.0267,0.14555 -0.003,0.0175 -0.005,0.0351 -0.008,0.0524 -0.008,0.0418 -0.025,0.081 -0.0422,0.11984 -0.0408,0.0893 -0.0725,0.18224 -0.11071,0.27265 -0.021,0.0566 -0.0399,0.1139 -0.0625,0.16985 -0.0226,0.0579 -0.0492,0.11367 -0.0754,0.16992 -0.0125,0.0269 -0.0207,0.0554 -0.0381,0.0798 -0.005,0.0102 -0.0109,0.0201 -0.0153,0.0305 -0.0133,0.0313 -0.0171,0.0653 -0.0294,0.0969 -0.0159,0.0397 -0.0315,0.0794 -0.0523,0.11686 0.062,0.0506 0.11857,0.1085 0.1859,0.15165 0.0109,0.007 0.0378,-0.0655 0.0381,-0.0717 0.007,-0.0288 0.0141,-0.0578 0.0175,-0.0874 0.01,-0.0404 0.0167,-0.0815 0.0258,-0.12207 0.0201,-0.104 0.0418,-0.20784 0.0537,-0.31322 0.009,-0.11147 0.0225,-0.22257 0.0386,-0.33325 0.0219,-0.15712 0.075,-0.30789 0.10194,-0.46413 0,0 -0.19149,-0.0432 -0.19149,-0.0432 z" />
    <path
       style="fill:#000000;stroke-width:0.874001"
       id="path12904"
       d="m 105.99137,115.10402 c -0.004,0.14635 0.0335,0.2884 0.0616,0.43069 0.0164,0.0831 0.018,0.0972 0.0308,0.17717 0.005,0.0354 0.008,0.0868 0.027,0.11944 0.0101,0.0175 0.0269,0.0301 0.0403,0.0452 0,0 0.0558,-0.01 0.0558,-0.01 v 0 c 0.008,-0.0173 0.0187,-0.0335 0.0229,-0.052 0.009,-0.0389 -0.002,-0.089 -0.007,-0.12656 -0.0151,-0.0815 -0.0175,-0.0995 -0.0371,-0.18352 -0.0304,-0.13047 -0.0712,-0.25974 -0.071,-0.39523 0,0 -0.12294,-0.005 -0.12294,-0.005 z" />
    <path
       style="fill:#000000;stroke-width:0.874001"
       id="path12906"
       d="m 106.03362,115.14203 c 0.0514,0.13689 0.0841,0.27907 0.1063,0.42332 0.011,0.0715 0.0141,0.14505 0.0333,0.21526 0.008,0.029 0.0212,0.0564 0.0318,0.0846 0.0144,0.0181 0.0288,0.0361 0.0432,0.0542 0,0 0.0558,-0.009 0.0558,-0.009 v 0 c 0.008,-0.0189 0.0162,-0.0379 0.0244,-0.0568 0.005,-0.0277 0.0122,-0.0551 0.0153,-0.0831 0.0215,-0.19503 -0.0181,-0.39462 -0.0957,-0.57374 -0.0192,-0.0443 -0.0453,-0.0853 -0.0679,-0.12797 0,0 -0.14656,0.0737 -0.14656,0.0737 z" />
    <path
       style="fill:#000000;stroke-width:0.874001"
       id="path12908"
       d="m 107.43299,114.73467 c 0.0164,0.0282 0.0339,0.056 0.0493,0.0847 0.0119,0.0222 0.0228,0.045 0.0327,0.0682 0.0376,0.0879 0.003,0.0175 0.003,0.0171 0.0254,-0.077 0.0169,-0.068 0.056,-0.0902 -0.0238,0.0299 -0.057,0.0543 -0.0713,0.0897 -0.008,0.0202 5.3e-4,0.0447 0.009,0.0648 0.007,0.0174 0.0195,0.0524 0.0361,0.0434 0.19447,-0.10536 0.17601,-0.10177 0.14454,-0.21356 -0.0219,-0.0811 -0.0365,-0.16385 -0.0709,-0.24095 -0.005,-0.0214 -0.0129,-0.0417 -0.0224,-0.0616 -5.3e-4,-6e-5 -0.002,2.7e-4 -0.002,-1.9e-4 -0.005,-0.009 -0.007,-0.0202 -0.0104,-0.0302 -0.002,-0.005 -0.004,-0.01 -0.006,-0.0145 -0.0134,-0.0292 -0.0238,-0.0423 -0.0425,-0.0645 -0.008,0.002 -0.0106,-0.0122 -0.0178,-0.0125 -0.001,-6e-5 0.002,0.003 0.001,0.004 -1.8e-4,7.9e-4 -0.002,-9e-5 -0.002,-5.3e-4 -0.032,-0.0334 0.006,10e-4 -0.0345,-0.0338 -0.0466,-0.0305 -0.0848,-0.0328 -0.13843,-0.0184 -0.0518,0.0269 -0.0998,0.0583 -0.1417,0.0991 -0.008,0.0102 -0.0165,0.0195 -0.0228,0.0305 -0.0218,0.0381 -0.0319,0.088 -0.0317,0.13174 7e-5,0.0139 0.002,0.0277 0.002,0.0416 0.004,0.0164 0.006,0.0332 0.0113,0.0492 0.0228,0.068 0.0671,0.11539 0.13318,0.14235 0.0111,0.004 0.023,0.006 0.0345,0.01 0.0321,0.002 0.0654,0.0122 0.0978,0.007 0.0117,-0.002 0.0232,-0.005 0.0347,-0.008 0.004,-0.002 0.009,-0.004 0.0133,-0.005 0.003,-8e-4 -0.0101,0.003 -0.007,0.003 0.005,8e-4 0.0113,-0.002 0.0161,-0.002 0.0184,-0.007 0.0368,-0.0136 0.0552,-0.0204 -0.001,10e-4 -0.006,0.004 -0.004,0.003 0.0193,-0.0103 0.0452,-0.028 0.0544,-0.0479 0.0108,-0.0231 0.0149,-0.0487 0.0224,-0.0731 -0.001,-0.0151 -0.002,-0.0303 -0.004,-0.0453 -0.002,-0.0138 -0.0115,-0.0483 -0.0155,-0.063 -0.007,-0.0242 -0.0133,-0.0467 -0.023,-0.0698 -0.003,-0.006 -0.006,-0.0119 -0.009,-0.0179 -5.2e-4,-0.001 -0.002,-0.005 -10e-4,-0.004 10e-4,0.003 0.005,0.0107 0.002,0.009 -0.002,-8e-4 -0.002,-0.004 -0.004,-0.006 -10e-4,-10e-4 -0.003,-0.002 -0.004,-0.002 -0.0425,0.0492 -0.0851,0.0983 -0.12762,0.14752 2.6e-4,-0.001 -6e-5,-0.003 0.001,-0.003 0.007,1e-5 0.0137,0.002 0.0204,0.003 0.01,0.002 0.0195,0.006 0.0296,0.008 0.0419,0.005 0.0244,0.002 0.0526,0.007 -0.004,-0.004 -0.0111,-0.006 -0.0121,-0.0117 -0.005,-0.0276 -0.007,-0.0561 -0.006,-0.0841 2.3e-4,-0.005 0.0121,-0.0137 0.0103,-0.009 -0.003,0.008 -0.0116,0.0134 -0.0154,0.0213 -0.0111,0.0231 5.3e-4,0.0245 0.0159,0.0444 0,0 0.0461,0.0329 0.0461,0.0329 v 0 c 0.0126,1.2e-4 0.0252,2.1e-4 0.0377,2.6e-4 0.002,3e-5 0.006,-0.002 0.007,1.5e-4 5.3e-4,0.003 -0.008,0.009 -0.005,0.007 0.0489,-0.0324 0.0388,-0.1005 -0.004,-0.13287 -0.0473,-0.044 0.019,0.0195 -0.0351,-0.0397 -0.0121,-0.0132 -0.0448,-0.0403 -0.0582,-0.0485 -0.0144,-0.009 -0.0308,-0.0312 -0.0453,-0.0226 -0.0608,0.036 -0.10479,0.0949 -0.15718,0.14239 -0.0131,0.0108 0.0131,0.0623 0.0208,0.0739 0.0122,0.0174 0.0206,0.0368 0.0299,0.0558 0.002,0.004 0.002,0.0121 0.006,0.0117 0.004,-2.6e-4 0.002,-0.008 0.003,-0.0125 0.007,-0.0187 0.0123,-0.0385 0.0219,-0.0562 0.005,-0.008 0.0128,-0.0142 0.0197,-0.0208 0.003,-0.003 0.0134,-0.007 0.0103,-0.005 -0.005,0.003 -0.02,0.0104 -0.0145,0.009 0.0177,-0.004 0.0344,-0.012 0.0516,-0.018 -0.0232,5.3e-4 -0.0466,0.005 -0.0682,0.0136 0.003,-2.7e-4 0.023,-0.005 0.0248,-0.002 10e-4,10e-4 -0.003,3e-5 -0.005,-2e-5 -0.008,-2.7e-4 -0.0167,-8e-4 -0.0251,-0.002 0.004,0.003 0.0328,0.0277 0.0118,0.0134 -10e-4,-0.0107 8e-4,-0.0213 0.002,-0.032 2e-4,-0.002 0.002,-0.007 5.2e-4,-0.006 -0.004,0.004 -0.005,0.009 -0.008,0.0134 -0.003,0.003 -0.006,0.005 -0.009,0.008 0.0128,-0.0181 0.033,-0.0302 0.0495,-0.0445 0.005,-0.005 0.0217,-0.0118 0.0152,-0.0143 -0.008,-0.003 -0.0168,0.007 -0.0253,0.0103 -0.0273,0.006 -0.0518,0.003 -0.0742,-0.0141 -0.005,-0.004 -0.01,-0.008 -0.014,-0.0129 -0.003,-0.003 -0.005,-0.0116 -0.007,-0.009 -0.003,0.002 0.0216,0.0273 0.0176,0.0353 -0.012,-0.0141 -0.01,-0.0119 -0.002,0.003 0.008,0.014 2.7e-4,0.002 -0.004,-0.006 -0.001,-0.002 -0.002,-0.004 -0.003,-0.006 0.006,0.0164 0.005,0.0304 0.012,0.056 0.009,0.03 0.018,0.06 0.0329,0.0876 0.0112,0.0111 0.0192,0.0396 0.0244,0.0523 0.0202,0.0491 0.0391,0.0987 0.0587,0.14811 0.0627,0.14735 -0.005,0.03 0.20563,-0.0545 0.016,-0.006 0.0258,0.0245 0.0318,0.0406 0.0269,0.0718 -0.017,0.0832 -0.0654,0.13886 0.009,-0.004 0.0201,-0.005 0.026,-0.0125 0.0209,-0.0271 0.0418,-0.0559 0.0521,-0.0886 0.005,-0.0169 -0.003,-0.0355 -0.008,-0.0526 -0.005,-0.0186 -0.0133,-0.0364 -0.022,-0.0537 -0.0399,-0.0791 -0.0534,-0.0914 -0.10666,-0.1652 0,0 -0.14475,0.10144 -0.14475,0.10144 z" />
    <path
       style="fill:#000000;stroke-width:0.874001"
       id="path12910"
       d="m 100.22659,114.70877 c 0.0496,-0.006 0.11017,-0.0163 0.16118,-0.0152 0.0274,5.3e-4 0.0572,0.009 0.0841,0.0143 0.0565,0.0116 0.0384,0.008 0.10705,0.0157 0.0439,5.3e-4 0.0885,0.006 0.13249,0.002 0.0332,-0.002 0.0194,-0.007 0.0391,0.003 -0.002,0.002 -0.007,0.008 -0.007,0.005 -0.003,-0.10103 0.0113,-0.20306 -0.002,-0.30324 -0.002,-0.0139 -0.0268,-0.008 -0.0403,-0.0119 -0.0435,-0.0121 -0.0869,-0.0242 -0.13065,-0.0354 -0.085,-0.0195 -0.17317,-0.0178 -0.25989,-0.0161 -0.0421,-10e-4 -0.0858,0.006 -0.1272,-0.002 -0.0377,-0.006 -0.0738,-0.008 -0.11154,0.004 -0.0158,0.005 -0.0298,0.0143 -0.0447,0.0214 -0.07398,0.0526 -0.112055,0.13306 -0.153179,0.21101 -0.01897,0.0382 -0.03666,0.077 -0.05427,0.11585 -0.0078,0.0171 -0.01453,0.0352 -0.02426,0.0513 -0.0069,0.0139 0.0052,-0.0124 0.0028,-0.01 -0.07748,0.082 0.153874,0.073 0.256869,0.0915 0.01,0.002 0.004,-0.0199 0.006,-0.0297 0.003,-0.009 0.006,-0.0181 0.009,-0.0272 0.0159,-0.0447 0.0409,-0.085 0.0641,-0.12614 0.0207,-0.0384 0.0274,-0.0645 0.0319,-0.1077 0.002,-0.031 -0.009,-0.0597 -0.0119,-0.0894 -0.0842,-0.0145 -0.167231,-0.0411 -0.252664,-0.0437 -0.01307,-2.7e-4 -0.01111,0.0237 -0.01617,0.0357 -0.02267,0.054 -0.05335,0.12596 -0.06302,0.18212 -0.0067,0.0389 -0.0067,0.0786 -0.01011,0.11798 0.0041,0.0874 0.0051,0.18818 0.07903,0.25046 0.04744,0.04 0.0928,0.0403 0.148784,0.0332 0.0603,-0.0123 0.12082,-0.0399 0.16715,-0.0812 0.0124,-0.0111 0.0232,-0.0239 0.0347,-0.0358 0.0353,-0.0418 0.0613,-0.0898 0.0895,-0.13626 0.0203,-0.0334 0.0424,-0.0655 0.064,-0.098 0.016,-0.0203 0.0243,-0.0439 0.0342,-0.0672 5.3e-4,-0.001 -2e-4,0.003 -5.3e-4,0.004 -8e-4,0.004 -10e-4,0.007 -0.003,0.0106 -0.002,0.006 -0.005,0.0117 -0.008,0.0176 -0.001,0.002 -0.002,0.009 -0.004,0.007 -0.0557,-0.054 -0.0988,-0.12201 -0.16168,-0.16741 -0.0115,-0.008 -0.023,0.0168 -0.0332,0.0268 -0.0419,0.0408 -0.072,0.091 -0.1021,0.14054 -0.0522,0.0926 -0.0762,0.19603 -0.103,0.29778 -0.01852,0.0702 -0.01725,0.0645 -0.0361,0.12942 -0.0055,0.0316 -0.05487,0.12929 -0.02469,0.15793 0.01664,0.0158 0.03809,0.0256 0.05714,0.0383 0,0 0.0502,0.0262 0.0502,0.0262 v 0 c 0.0256,2.4e-4 0.0519,0.007 0.0767,7.9e-4 0.0122,-0.003 0.0197,-0.016 0.0272,-0.026 0.027,-0.0365 0.0273,-0.0918 0.0457,-0.13189 0.0247,-0.0908 0.0114,-0.0393 0.035,-0.13665 0.0194,-0.0799 0.0343,-0.16214 0.0731,-0.23561 0.007,-0.0121 0.0136,-0.0244 0.0211,-0.0362 0.0709,-0.11059 0.072,-0.0239 -0.1133,-0.22556 -0.002,-0.003 -0.004,0.006 -0.005,0.009 -0.01,0.021 -0.009,0.0157 -0.0134,0.0337 -8e-4,0.003 -0.005,0.0127 -0.002,0.0103 10e-4,-7.9e-4 0.0213,-0.0425 0.005,-0.007 -0.0462,0.0693 -0.0898,0.14019 -0.13161,0.21225 -0.0214,0.0298 -0.0482,0.0546 -0.08062,0.0722 0.01921,0.006 0.02869,0.007 0.0438,0.0242 0.003,0.003 0.005,0.0156 0.004,0.0117 -0.0139,-0.0553 -0.009,-0.004 -0.005,-0.0963 0.0164,-0.0704 0.0282,-0.12192 0.0573,-0.18768 0.005,-0.0116 0.0104,-0.023 0.016,-0.0344 0.003,-0.006 0.0151,-0.0143 0.009,-0.0166 -0.0769,-0.0295 -0.157846,-0.0472 -0.236771,-0.0707 -5.29e-4,-0.003 -8e-6,-0.0127 -0.0013,-0.01 -0.0039,0.009 -0.0021,0.0504 -0.0021,0.0602 -1.3e-5,0.004 -0.0031,0.0152 5.3e-5,0.0125 0.0032,-0.003 8e-5,-0.008 1.19e-4,-0.0127 7.94e-4,-0.005 0.0057,-0.0205 0.0042,-0.0154 -0.0021,0.007 -0.006,0.0131 -0.0066,0.0201 -2.64e-4,0.004 0.01564,-0.0384 0.0043,-0.014 -0.03273,0.0581 -0.06941,0.11433 -0.08915,0.17884 -0.0056,0.0184 -0.01188,0.0366 -0.01685,0.0552 -0.0033,0.0122 -0.01852,0.0305 -0.0078,0.0371 0.08095,0.0499 0.174744,0.0755 0.259689,0.11834 0.003,0.002 -0.005,0.0117 -0.008,0.009 -0.008,-0.0103 0.0468,-0.0247 0.0194,-0.0342 0.0237,-0.052 0.0443,-0.10545 0.0741,-0.15447 0.0149,-0.0254 0.0295,-0.0515 0.0481,-0.0745 0.003,-0.003 0.006,-0.006 0.009,-0.009 0.002,-10e-4 0.007,-0.005 0.005,-0.003 -0.006,0.005 -0.0124,0.01 -0.0186,0.0142 -0.007,0.003 -0.014,0.008 -0.0217,0.0101 -0.0317,0.009 -0.0564,-7.9e-4 -0.0153,0.008 0.0604,0.0109 0.12157,0.009 0.1827,0.0103 0.0655,0.003 0.13113,0.006 0.19659,0.0102 0.0411,0.006 0.0819,0.0132 0.12283,0.0207 0.0102,0.002 0.0282,0.0154 0.0305,0.005 0.0217,-0.0959 0.0268,-0.19485 0.0345,-0.29285 2.6e-4,-0.004 -0.008,0.004 -0.0121,0.005 0.01,0.0139 0.003,0.009 0.0298,0.005 0.002,-1.7e-4 -0.003,-2.7e-4 -0.004,-2.7e-4 -0.0323,-0.002 -0.0645,-0.003 -0.0967,-0.006 -0.0141,-0.001 -0.0282,-0.002 -0.0422,-0.003 -0.0474,-0.006 -0.0562,-0.0133 -0.10961,-0.0181 -0.0981,-0.009 -0.19505,0.002 -0.29045,0.0259 0,0 0.0614,0.26445 0.0614,0.26445 z" />
    <path
       style="fill:#000000;stroke-width:0.874001"
       id="path12914"
       d="m 106.3655,116.80869 c -0.0109,0.0272 -0.0222,0.0543 -0.0328,0.0817 -0.0331,0.0853 -0.0418,0.1074 -0.067,0.19375 -0.007,0.0238 -0.0124,0.0479 -0.0191,0.0718 -0.0148,0.0533 -0.0175,0.0595 -0.0347,0.11167 -0.0131,0.0418 -0.0265,0.0835 -0.0392,0.12546 -0.0371,0.12279 -0.0396,0.14199 -0.0792,0.26127 -0.0394,0.11869 -0.0858,0.23048 -0.13511,0.34535 -0.0513,0.12038 -0.10182,0.2414 -0.16039,0.35849 -0.0271,0.0543 -0.0561,0.1076 -0.084,0.16145 -0.1925,0.37098 0.007,-0.0124 -0.1478,0.2849 -0.0701,0.13092 -0.16079,0.25132 -0.27455,0.34758 -0.0281,0.0238 -0.0583,0.0449 -0.0874,0.0674 -0.0265,0.0175 -0.0526,0.0358 -0.0796,0.0527 -0.0529,0.033 -0.10792,0.0626 -0.16118,0.0951 -0.0859,0.0524 -0.16984,0.10816 -0.25592,0.16035 -0.0329,0.0199 -0.0668,0.0382 -0.10026,0.0573 -0.0242,0.01 -0.0477,0.0215 -0.0724,0.0298 -0.0231,0.008 -0.12138,0.0244 -0.13409,0.0263 -0.0773,0.0121 -0.15496,0.019 -0.23293,0.0252 -0.0713,0.006 -0.14453,0.0109 -0.21335,-0.0134 -0.045,-0.0158 -0.0819,-0.0379 -0.12416,-0.0604 -0.1253,-0.0817 -0.25064,-0.16331 -0.37139,-0.2517 -0.073,-0.0568 -0.14755,-0.11128 -0.2196,-0.16919 -0.0288,-0.0232 -0.055,-0.0436 -0.0804,-0.07 -0.0111,-0.0115 -0.0212,-0.024 -0.0318,-0.036 -0.0558,-0.0724 -0.11826,-0.13969 -0.17318,-0.21286 -0.0159,-0.0211 -0.0455,-0.0651 -0.06,-0.0863 -0.0808,-0.11879 -0.15707,-0.24054 -0.23116,-0.36359 -0.0632,-0.10868 -0.12977,-0.21554 -0.19152,-0.32508 -0.0414,-0.0785 -0.0724,-0.16194 -0.10418,-0.2446 -0.0256,-0.076 -0.0546,-0.15084 -0.0809,-0.22663 -0.0211,-0.072 -0.0461,-0.14259 -0.0708,-0.21337 -0.0203,-0.063 -0.0448,-0.12446 -0.0633,-0.18802 -0.0265,-0.084 -0.057,-0.16657 -0.0888,-0.24867 -0.026,-0.0612 -0.0474,-0.12417 -0.0716,-0.18605 -0.0135,-0.028 -0.0225,-0.0578 -0.032,-0.0874 -0.01,-0.0232 -0.0183,-0.0451 -0.0256,-0.0692 0.0103,0.01 -0.002,0.0313 0.008,0.0393 0.007,0.005 -0.001,-0.0179 -0.004,-0.0266 -0.0117,-0.0455 -0.009,-0.0328 -0.0251,-0.0664 -0.063,-0.0973 0.0537,0.0885 -0.016,-0.0269 -0.003,-0.005 -0.007,-0.008 -0.01,-0.0127 0.0106,0.0208 0.0254,0.04 0.0319,0.0624 0.0101,0.0345 0.008,0.0483 0.002,0.0747 -7.9e-4,0.003 -0.006,0.0266 -0.006,0.0204 -0.002,-0.0364 2.7e-4,-0.0729 5.3e-4,-0.10928 -0.0504,-0.0264 0.0208,0.004 -0.0869,0.0465 -0.015,0.006 -0.0315,-0.006 -0.0473,-0.01 0,0 -0.0566,5.3e-4 -0.0566,5.3e-4 v 0 c -0.0157,1.7e-4 -0.0334,-0.007 -0.0472,5.3e-4 -0.10606,0.0576 -0.0347,0.0738 -0.0857,0.0589 5.3e-4,-0.0348 0.003,-0.0696 0.002,-0.10433 -2.5e-4,-0.006 -0.004,0.0111 -0.006,0.0168 -0.001,0.005 -0.006,0.026 -0.006,0.0264 5.3e-4,0.0804 5.3e-4,0.0584 0.0377,0.13402 -0.002,-0.003 -0.004,-0.005 -0.006,-0.008 -0.0552,-0.0987 0.0485,0.0774 -0.003,-0.008 -0.002,-0.005 -0.007,-0.0191 -0.006,-0.0141 0.002,0.006 0.008,0.0224 0.007,0.0165 -0.002,-0.0108 -0.006,-0.0208 -0.009,-0.0315 -10e-4,-0.007 -0.004,-0.0273 -0.002,-0.0205 0.009,0.0518 -0.001,0.0127 0.0111,0.0539 0.007,0.018 0.0126,0.0367 0.0186,0.0552 2.4e-4,7.9e-4 -0.001,-0.002 -0.001,-0.002 0.009,0.0347 0.0134,0.0701 0.0222,0.10485 0.0152,0.0639 0.0326,0.12722 0.0476,0.19113 0.0217,0.0786 0.0448,0.15676 0.0673,0.23509 0.0178,0.0678 0.0387,0.13461 0.0582,0.2019 0.0201,0.0748 0.0396,0.14971 0.0609,0.22416 0.0249,0.0811 0.0497,0.16223 0.0733,0.24372 0.0359,0.10589 0.0728,0.21207 0.12128,0.31295 0.0617,0.11371 0.12314,0.22751 0.18406,0.34162 0.0757,0.13368 0.15378,0.26596 0.23374,0.39711 0.0823,0.12397 0.17496,0.24034 0.26934,0.35525 0.0197,0.0218 0.0385,0.0443 0.0589,0.0653 0.103,0.10609 0.22924,0.18639 0.34337,0.27931 0.14125,0.10498 0.28769,0.20333 0.43784,0.29512 0.10436,0.0522 0.13847,0.076 0.25258,0.10582 0.11444,0.03 0.23316,0.0236 0.34965,0.0148 0.0567,-0.005 0.12176,-0.0109 0.17761,-0.0193 0.15889,-0.0238 0.31446,-0.0647 0.45579,-0.14333 0.12313,-0.0748 0.11931,-0.0704 0.24464,-0.15551 0.0377,-0.0256 0.0743,-0.0529 0.11209,-0.0784 0.0935,-0.063 0.19198,-0.11882 0.28113,-0.1883 0.0389,-0.0324 0.0793,-0.0631 0.11663,-0.0973 0.14446,-0.1323 0.2576,-0.29375 0.34625,-0.46765 0.14004,-0.27859 0.28673,-0.55447 0.39725,-0.84668 0.0188,-0.0511 0.0387,-0.10179 0.0562,-0.15331 0.0194,-0.0569 0.0541,-0.18007 0.0694,-0.23694 0.0138,-0.0514 0.0574,-0.22245 0.0691,-0.27221 0.0103,-0.0439 0.0192,-0.0881 0.0288,-0.1322 0.005,-0.0241 0.0102,-0.0481 0.014,-0.0724 0.003,-0.019 0.004,-0.0383 0.007,-0.0575 0.0139,-0.10574 0.0301,-0.21212 0.06,-0.31463 0,0 -0.28035,-0.10345 -0.28035,-0.10345 z" />
    <path
       style="fill:#666666;stroke-width:0.395351"
       d="m 388.54295,512.18091 c -1.22827,-0.17163 -6.58437,-1.2275 -7.88943,-1.55527 -1.54388,-0.38775 -4.13319,-1.95206 -6.0628,-3.66279 -1.03273,-0.91558 -3.40611,-3.53715 -4.41093,-4.8722 -1.45195,-1.92912 -2.26428,-4.04649 -2.99569,-7.80843 -0.9206,-4.735 -1.15688,-6.84019 -1.26818,-11.29927 -0.13436,-5.38238 0.62421,-10.97577 2.30352,-16.98533 0.7602,-2.72045 1.02581,-3.47035 2.14422,-6.05375 1.68268,-3.88677 3.68196,-9.12885 5.9968,-15.72353 0.62099,-1.76913 1.33809,-3.708 1.59354,-4.30861 0.52304,-1.2297 0.96659,-2.70421 1.31856,-4.3833 0.34659,-1.65349 0.34358,-1.64602 0.6421,-1.59045 0.14307,0.0266 0.90642,0.005 1.69633,-0.0492 1.92554,-0.13085 3.17161,-0.0706 3.17161,0.15339 0,0.0933 -0.0502,0.16971 -0.11151,0.16971 -0.0613,0 -0.10859,0.44432 -0.10501,0.98739 0.005,0.75847 -0.0822,1.30648 -0.37616,2.36375 -0.80818,2.90671 -1.48878,5.16583 -2.18145,7.24085 -0.39553,1.18487 -0.98186,3.04189 -1.30297,4.12672 -0.32266,1.09008 -0.79419,2.37552 -1.05408,2.87355 -0.48776,0.93468 -0.58663,1.21352 -1.20989,3.4122 -0.45939,1.62059 -0.96176,3.26748 -1.89844,6.22354 -0.3963,1.2507 -0.80857,2.62407 -0.91615,3.05194 -0.10757,0.42786 -0.37525,1.37037 -0.59483,2.09446 -0.58149,1.91753 -0.89313,3.12829 -1.03196,4.0094 -0.0674,0.42786 -0.22233,1.23573 -0.34426,1.79525 -0.12193,0.55952 -0.28832,1.58281 -0.36976,2.27399 -0.13272,1.12637 -0.12196,1.46143 0.10379,3.23145 0.13853,1.08613 0.36921,2.48643 0.51264,3.11177 0.2658,1.15897 1.21605,3.50518 1.98741,4.90703 0.23543,0.42787 0.88358,1.61274 1.44033,2.63304 0.55675,1.0203 1.2577,2.1994 1.55766,2.62022 1.21576,1.7056 3.1542,3.44291 5.87629,5.26659 1.64692,1.10337 2.51997,1.56072 4.0818,2.13826 1.01355,0.37479 1.30521,0.42861 2.57899,0.47589 2.31877,0.0861 3.87842,-0.3298 7.34145,-1.95754 2.41763,-1.13637 3.73887,-2.00307 4.92902,-3.23332 1.57376,-1.62678 2.28034,-2.8266 3.42184,-5.81056 1.56543,-4.09213 2.38026,-7.1042 2.98898,-11.049 0.26408,-1.71134 0.32324,-2.5671 0.37234,-5.38576 0.053,-3.04553 0.0361,-3.46029 -0.1863,-4.54798 -0.13457,-0.65826 -0.41099,-2.46249 -0.61427,-4.0094 -0.20327,-1.54691 -0.69082,-4.77836 -1.08344,-7.18101 -0.39262,-2.40265 -0.82495,-5.09553 -0.96072,-5.98418 -0.42258,-2.76564 -0.87076,-4.28168 -1.83177,-6.19613 -0.64841,-1.29172 -2.57528,-7.51797 -2.58653,-8.3578 -0.002,-0.15932 1.4129,-0.40784 2.29527,-0.4031 l 0.63521,0.003 0.63024,1.1635 c 0.34663,0.63993 1.16477,1.87573 1.81808,2.74621 2.23944,2.98389 2.85365,4.28418 5.10361,10.80455 0.96333,2.79174 1.33762,4.18362 1.72184,6.40307 0.13675,0.78991 0.54101,2.5962 0.89837,4.01397 1.39384,5.52993 2.04443,9.83554 2.33222,15.4346 0.27781,5.40477 0.0587,7.4997 -1.20542,11.52412 -0.59152,1.88317 -1.35531,3.72519 -2.02745,4.88956 -1.18731,2.05679 -6.74671,9.56919 -8.44715,11.4146 -4.68558,5.08504 -7.34712,7.29825 -10.31096,8.5741 l -0.92585,0.39855 -2.99209,0.0229 c -2.0403,0.0156 -3.37589,-0.0307 -4.19861,-0.14567 z"
       id="path12916"
       transform="scale(0.26458333)" />
    <path
       style="fill:#808080;stroke-width:0.395351"
       d="m 390.04868,495.79513 c -1.40807,-0.49837 -2.0744,-0.85076 -3.78271,-2.00044 -3.1992,-2.15304 -4.58333,-3.5349 -5.86342,-5.85381 -0.37882,-0.68625 -1.02762,-1.85515 -1.44175,-2.59756 -1.04668,-1.87631 -2.0041,-4.09731 -2.25573,-5.23277 -0.45077,-2.03405 -0.72599,-4.27098 -0.63318,-5.14639 0.25728,-2.42694 1.80026,-9.01721 2.90023,-12.38725 0.22559,-0.69117 0.55524,-1.79525 0.73254,-2.45351 0.1773,-0.65826 0.50338,-1.84313 0.72461,-2.63304 0.22123,-0.78991 0.53235,-1.94785 0.69138,-2.5732 0.15903,-0.62534 0.51108,-1.6062 0.78233,-2.17967 0.27126,-0.57347 0.57705,-1.40826 0.67953,-1.85509 0.43791,-1.90923 1.99013,-7.11747 2.08769,-7.00491 0.0422,0.0487 0.1715,0.4387 0.28724,0.86657 0.47692,1.76314 0.97407,2.86133 2.17203,4.79797 0.87178,1.40934 1.65134,2.23687 3.02927,3.21567 1.42033,1.00891 2.02264,1.31659 2.74061,1.39996 0.79845,0.0927 2.35601,-0.15323 3.08556,-0.48723 0.89535,-0.4099 2.76538,-1.70873 3.42884,-2.3815 0.72037,-0.73047 2.30939,-3.85225 2.85536,-5.6096 l 0.37946,-1.22142 0.38863,0.77141 c 0.48923,0.9711 1.08,2.63976 1.18412,3.34461 0.0438,0.29622 0.18586,1.18487 0.31577,1.97478 0.12992,0.78991 0.50554,3.10579 0.83473,5.14639 0.32918,2.04061 0.65168,4.03334 0.71666,4.4283 0.065,0.39495 0.17347,1.20282 0.24108,1.79525 0.24029,2.10567 0.60106,4.56591 0.85119,5.80465 0.22976,1.13788 0.24649,1.49684 0.17698,3.79721 -0.11116,3.67919 -0.64625,7.44196 -1.40876,9.90656 -0.20366,0.65826 -0.46756,1.60076 -0.58645,2.09446 -0.11889,0.49369 -0.33198,1.16691 -0.47354,1.49604 -0.14156,0.32913 -0.50267,1.24471 -0.80247,2.03462 -1.65681,4.36537 -3.02976,5.71084 -8.05458,7.89338 -2.68226,1.16504 -4.40203,1.40923 -5.98325,0.84956 z"
       id="path12987"
       transform="scale(0.26458333)" />
    <path
       style="fill:#b3b3b3;stroke-width:0.395351"
       d="m 392.66056,452.01051 c -0.95085,-0.48138 -2.51359,-1.6826 -3.0958,-2.37962 -1.06241,-1.27192 -2.39163,-3.58666 -2.80622,-4.88683 -0.11544,-0.36204 -0.48011,-1.40742 -0.81037,-2.32306 l -0.60048,-1.66481 0.18918,-1.02807 c 0.10405,-0.56544 0.2231,-1.2517 0.26457,-1.52501 0.0534,-0.35175 0.14283,-0.51456 0.30622,-0.55729 0.18407,-0.0481 0.23083,-0.16754 0.23083,-0.58951 0,-0.29103 0.12861,-0.84811 0.2858,-1.23796 0.15719,-0.38985 0.32382,-0.99157 0.37028,-1.33715 l 0.0845,-0.62834 0.85648,1.4e-4 c 0.98908,1.7e-4 3.86646,0.31273 4.55855,0.49518 1.47987,0.39013 5.43743,0.93851 6.78322,0.93992 l 0.91062,9.6e-4 0.149,0.92755 c 0.13572,0.84485 0.29794,1.51714 1.14144,4.73046 l 0.27568,1.05019 -0.58124,1.82222 c -0.70275,2.20314 -2.24395,5.4121 -2.94751,6.13708 -0.54249,0.55899 -2.72731,1.94124 -3.29616,2.08535 -1.01879,0.25809 -1.71581,0.24844 -2.26857,-0.0314 z"
       id="path12989"
       transform="scale(0.26458333)" />
  </g>
</svg>
