<?xml version="1.0" encoding="UTF-8" standalone="no"?>
<!-- Created with Inkscape (http://www.inkscape.org/) -->

<svg
   width="210mm"
   height="297mm"
   viewBox="0 0 210 297"
   version="1.1"
   id="svg13570"
   inkscape:version="1.2 (dc2aedaf03, 2022-05-15)"
   sodipodi:docname="semente-gravidade.svg"
   xmlns:inkscape="http://www.inkscape.org/namespaces/inkscape"
   xmlns:sodipodi="http://sodipodi.sourceforge.net/DTD/sodipodi-0.dtd"
   xmlns="http://www.w3.org/2000/svg"
   xmlns:svg="http://www.w3.org/2000/svg">
  <sodipodi:namedview
     id="namedview13572"
     pagecolor="#505050"
     bordercolor="#eeeeee"
     borderopacity="1"
     inkscape:showpageshadow="0"
     inkscape:pageopacity="0"
     inkscape:pagecheckerboard="0"
     inkscape:deskcolor="#505050"
     inkscape:document-units="mm"
     showgrid="false"
     inkscape:zoom="2.0888418"
     inkscape:cx="453.36128"
     inkscape:cy="517.9904"
     inkscape:window-width="2560"
     inkscape:window-height="1369"
     inkscape:window-x="2552"
     inkscape:window-y="-8"
     inkscape:window-maximized="1"
     inkscape:current-layer="layer1" />
  <defs
     id="defs13567" />
  <g
     inkscape:label="Camada 1"
     inkscape:groupmode="layer"
     id="layer1">
    <path
       style="fill:#000000;stroke-width:0.874001"
       id="path13693"
       d="m 102.65748,74.275301 c -2.800072,2.619774 -4.786376,5.900362 -6.700136,9.182986 -1.893149,3.413062 -3.666995,6.89328 -5.020956,10.559963 -0.935148,2.532491 -1.113173,3.388952 -1.83565,5.99749 -1.41723,5.24255 -1.845794,10.65575 -2.287857,16.04475 -0.247174,3.01489 -0.451112,6.05914 -0.07408,9.07355 0.165555,1.32364 0.393501,2.25141 0.672245,3.55591 0.360016,1.42811 0.711091,2.86102 1.151311,4.26732 0.291015,0.92966 0.654076,1.83546 1.005014,2.74341 0.323667,0.82624 0.579385,1.6808 0.929031,2.49711 0.347361,0.81097 0.779952,1.57748 1.218915,2.34087 0.67465,1.08585 1.282327,2.2124 2.080799,3.2142 0.576022,0.54317 1.137981,1.10647 1.735061,1.6275 0.379365,0.34475 0.826865,0.44833 1.318295,0.50878 0.582546,0.0713 1.108871,-0.0603 1.596151,-0.38021 0.428991,-0.41178 0.651719,-0.7941 0.858129,-1.35359 0.273127,-0.63605 0.263924,-1.28293 0.204491,-1.95702 -0.03261,-0.68459 -0.276013,-1.33186 -0.474078,-1.98085 -0.208687,-0.71256 -0.502256,-1.39122 -0.810038,-2.06501 -0.258614,-0.57676 -0.59782,-1.11156 -0.92067,-1.65343 -0.362813,-0.5426 -0.726305,-1.08223 -1.071105,-1.63669 -0.424601,-0.66008 -0.723082,-1.38711 -1.074124,-2.08645 -0.313229,-0.62622 -0.61391,-1.25793 -0.889727,-1.90152 -0.241014,-0.59827 -0.552167,-1.15771 -0.85266,-1.72619 -0.250724,-0.59067 -0.470513,-1.1933 -0.702987,-1.79122 -0.217382,-0.70782 -0.512257,-1.38688 -0.704112,-2.10219 -0.17998,-0.72499 -0.322799,-1.45821 -0.479488,-2.18839 -0.253312,-0.75959 -0.330378,-1.55314 -0.46196,-2.33797 -0.22605,-1.07761 -0.236591,-2.18187 -0.320532,-3.27562 -0.106865,-0.80502 -0.15774,-1.61451 -0.179359,-2.42586 0.0035,-0.88537 -0.129955,-1.76133 -0.195204,-2.64247 -0.0422,-0.86311 -0.147047,-1.71997 -0.173082,-2.58409 0.0013,-0.75109 -0.04543,-1.50066 -0.06783,-2.25108 -7.94e-4,-0.72354 0.03067,-1.44867 0.110903,-2.16798 0.07094,-0.70076 0.126418,-1.40281 0.195643,-2.10378 0.06443,-0.60827 0.130998,-1.21614 0.196771,-1.82428 0.08552,-0.71949 0.262385,-1.42358 0.409596,-2.132049 0.186505,-0.802331 0.397571,-1.599362 0.531659,-2.412516 0.142105,-0.9148 0.407824,-1.802416 0.63056,-2.698874 0.205986,-0.768604 0.594921,-1.466268 0.941766,-2.1766 0.295863,-0.634305 0.530395,-1.294615 0.797298,-1.941717 0.256704,-0.717137 0.539883,-1.422995 0.852393,-2.117378 0.267057,-0.513525 0.401478,-1.080487 0.626514,-1.610585 0.279207,-0.522425 0.592304,-1.024768 0.879724,-1.542534 0.285403,-0.546994 0.637773,-1.052856 0.936175,-1.592535 0.260451,-0.528928 0.602411,-1.010042 0.876978,-1.530659 0.25065,-0.448202 0.525732,-0.882182 0.797859,-1.31758 0.263239,-0.433811 0.52557,-0.865214 0.820128,-1.278623 0.279246,-0.450355 0.554796,-0.902962 0.837306,-1.351275 0.19991,-0.358637 0.45107,-0.68598 0.66009,-1.03823 0.12922,-0.256598 0.27295,-0.507659 0.43747,-0.74345 0.11603,-0.21535 0.24584,-0.420174 0.3765,-0.626288 0.0781,-0.150487 0.15439,-0.29877 0.2552,-0.435234 0.0483,-0.09672 0.13897,-0.144449 0.19703,-0.239662 0.0444,-0.04446 0.10746,-0.12696 0.1494,-0.192619 0.0337,-0.08849 0.0252,-0.04696 0.0628,-0.131001 0.1078,-0.283533 -0.44607,-0.105241 -0.49793,-0.100404 0,0 0.0198,0.05308 0.0198,0.05308 v 0 c 0.54736,-0.550957 0.10848,-0.117051 0.0863,-0.121779 -7.9e-4,0.0013 -0.0718,0.141248 -0.0397,0.09105 -0.0271,0.0375 -0.11501,0.14627 -0.15672,0.2061 0.0708,-0.03679 -0.16218,0.118015 -0.16192,0.183409 -0.10669,0.144423 -0.19566,0.297884 -0.27494,0.458881 -0.12701,0.201072 -0.25635,0.399695 -0.36471,0.612055 -0.16997,0.245449 -0.32443,0.502584 -0.45603,0.770665 -0.20188,0.350586 -0.45998,0.669438 -0.65294,1.026467 -0.278123,0.441555 -0.548723,0.887759 -0.82385,1.331209 -0.299434,0.420467 -0.566965,0.858739 -0.834403,1.300003 -0.277529,0.444127 -0.560091,0.885725 -0.81411,1.343848 -0.274036,0.517522 -0.616309,0.995341 -0.872852,1.523042 -0.299765,0.538705 -0.650724,1.045583 -0.936956,1.591932 -0.294833,0.531117 -0.617857,1.045485 -0.898101,1.584762 -0.221369,0.528515 -0.361128,1.089326 -0.62088,1.602517 -0.312631,0.699498 -0.596802,1.410272 -0.852598,2.132743 -0.259085,0.640278 -0.491488,1.291799 -0.782463,1.918137 -0.359511,0.736528 -0.76078,1.460838 -0.972503,2.258306 -0.224776,0.9072 -0.494432,1.805217 -0.637211,2.7311 -0.133911,0.807146 -0.345395,1.598128 -0.529355,2.394921 -0.152429,0.721376 -0.331883,1.439155 -0.416999,2.172545 -0.06585,0.60945 -0.132511,1.21859 -0.198141,1.82803 -0.06904,0.69927 -0.122262,1.39982 -0.193165,2.09889 -0.08188,0.73882 -0.117022,1.48322 -0.114241,2.22644 0.02259,0.75047 0.06654,1.50021 0.06588,2.25133 0.02675,0.87001 0.13257,1.73275 0.174972,2.60177 0.06296,0.87511 0.19952,1.74444 0.195236,2.62368 0.02387,0.81772 0.07052,1.63448 0.179419,2.44586 0.0831,1.10656 0.09718,2.22306 0.323176,3.3135 0.133006,0.79108 0.210709,1.59134 0.46659,2.35693 0.160245,0.73661 0.299998,1.47757 0.484436,2.20879 0.197001,0.72962 0.492972,1.42387 0.719098,2.14477 0.23844,0.61325 0.461589,1.23238 0.726326,1.83505 0.299122,0.5563 0.611293,1.10175 0.847288,1.69019 0.279165,0.65103 0.58365,1.28983 0.904373,1.92145 0.356547,0.70997 0.664802,1.44555 1.096867,2.11506 0.343522,0.5524 0.707303,1.08888 1.068895,1.6293 0.315582,0.52967 0.645737,1.05313 0.900888,1.6157 0.300583,0.658 0.587481,1.32083 0.790758,2.0169 0.190148,0.62291 0.427625,1.24405 0.459502,1.90105 0.05594,0.61934 0.07125,1.20454 -0.182611,1.7888 -0.06475,0.18238 -0.129098,0.40757 -0.234897,0.57866 -0.13023,0.2106 -0.321569,0.39125 -0.472358,0.5861 -0.402201,0.28091 -0.846463,0.37063 -1.332772,0.31653 -0.417716,-0.0482 -0.788014,-0.12132 -1.111832,-0.41443 -0.583986,-0.50177 -1.130604,-1.04834 -1.695945,-1.57007 -0.793969,-0.9815 -1.391441,-2.0934 -2.065507,-3.15738 -0.433054,-0.74607 -0.862433,-1.49454 -1.206277,-2.28747 -0.353349,-0.81483 -0.611386,-1.66866 -0.936366,-2.49441 -0.350277,-0.89817 -0.713478,-1.79394 -1.003324,-2.71419 -0.44029,-1.39791 -0.790038,-2.82289 -1.149173,-4.24297 -0.27365,-1.27607 -0.505412,-2.22195 -0.66925,-3.51636 -0.379248,-2.99625 -0.17853,-6.02281 0.0655,-9.02013 0.435102,-5.37079 0.8582,-10.76504 2.261679,-15.99167 0.716111,-2.60886 0.884587,-3.43811 1.813401,-5.971119 1.341181,-3.6576 3.098763,-7.131431 4.977641,-10.537751 1.891128,-3.272414 3.855485,-6.54132 6.623985,-9.163931 0,0 -0.1426,-0.146026 -0.1426,-0.146026 z" />
    <path
       style="fill:#000000;stroke-width:0.874001"
       id="path13695"
       d="m 89.100595,131.27604 c 0.49756,0.0589 1.074277,0.14567 1.588429,0.15413 0.207769,0.003 0.296698,-0.0321 0.08949,-0.29096 -0.03941,-0.0493 -0.117314,-0.0464 -0.175972,-0.0696 0.05676,0.0622 0.09079,0.15885 0.170283,0.18665 0.157165,0.055 0.557533,-0.20161 0.682953,-0.30226 0.255254,-0.12469 0.457489,-0.27364 0.633103,-0.49664 0.172675,-0.14502 0.294503,-0.34576 0.458121,-0.49629 0.175125,-0.095 0.257604,-0.24724 0.364712,-0.39928 0.101624,-0.16467 0.227137,-0.31425 0.297365,-0.49342 -0.0049,-0.12514 0.06211,-0.20127 0.107371,-0.30945 0.08958,-0.44687 -0.318765,-0.2233 -0.498171,-0.1311 0,0 0.0092,0.0559 0.0092,0.0559 v 0 c 0.234397,0.0637 0.210354,0.1262 0.197816,-0.0358 0.0011,-0.004 0.0024,-0.008 0.0035,-0.0123 -7.94e-4,0.01 -0.0013,0.0194 -0.0021,0.0291 0.0097,0.10025 -0.143182,0.21324 -0.09869,0.33213 -0.04187,0.10376 -0.180586,0.28693 -0.254614,0.4156 -0.08604,0.1471 -0.157281,0.26159 -0.317709,0.35878 -0.160893,0.1712 -0.297526,0.3661 -0.469831,0.52885 -0.172511,0.2268 -0.338812,0.32281 -0.585904,0.46472 -0.287353,0.24402 -0.582798,0.18608 -0.828635,0.49427 0.109273,0.0632 0.324842,0.18265 0.360177,-0.0725 0.0061,-0.0437 -0.08569,0.0266 -0.129839,0.0262 -0.529889,-0.004 -1.04816,-0.0842 -1.574207,-0.14495 0,0 -0.02685,0.20823 -0.02685,0.20823 z" />
    <path
       style="fill:#000000;stroke-width:0.874001"
       id="path13697"
       d="m 88.22555,131.17828 c 0.02376,0.0106 0.0475,0.0212 0.07124,0.0319 0.04308,0.0193 0.08357,0.0405 0.13032,0.0493 0.03519,0.007 0.03461,-0.008 0.03394,0.007 0.0024,0.002 0.0043,0.005 0.0071,0.007 0.0068,0.004 0.04236,0.0155 0.04485,0.0163 0.02535,0.008 0.05074,0.0141 0.07569,0.0232 0.04216,0.0178 0.08576,0.0317 0.128532,0.048 0.04193,0.0175 0.08529,0.0308 0.128743,0.0439 0.03822,0.0119 0.07803,0.017 0.116806,0.0266 0.04081,0.0102 0.08327,0.008 0.124963,0.008 0.03486,-0.004 0.06959,-0.008 0.104253,-0.0134 0.04187,-0.005 0.0818,-0.0185 0.123153,-0.0255 0.04926,-0.007 0.0988,-0.0129 0.147416,-0.0237 0.03507,-0.006 0.04092,-0.003 0.08005,-0.005 0.04125,-0.003 0.0822,-0.005 0.123438,-0.002 0.05137,7.9e-4 0.104397,1.7e-4 0.152599,-0.0204 0.03036,-0.013 0.05745,-0.0346 0.08393,-0.0537 0.0098,-0.0247 0.01955,-0.0495 0.02932,-0.0742 0,0 -2.65e-4,-0.0566 -2.65e-4,-0.0566 v 0 c -0.01468,-0.0246 -0.02934,-0.0491 -0.04402,-0.0737 -0.04522,-0.0261 -0.03073,-0.0167 -0.07093,-0.0435 -0.008,-0.005 -0.02791,-0.0198 -0.03775,-0.0241 -0.01566,-0.007 -0.04509,-0.0147 -0.06082,-0.0192 -0.06523,-0.0118 -0.131072,-0.0265 -0.197657,-0.0161 -0.04459,0.003 -0.08977,0.001 -0.133532,0.0124 -0.04646,0.008 -0.09273,0.0175 -0.139467,0.0242 -0.03734,0.007 -0.07445,0.0149 -0.11117,0.0246 -0.02349,0.004 -0.04755,0.006 -0.07032,0.0128 -0.01553,0.002 -0.03006,0.005 -0.04559,0.003 -0.05744,-0.004 0.03342,0.003 -0.0412,-0.004 -0.01595,-0.002 -0.02453,0.002 -0.04011,-0.003 -0.03759,-0.009 -0.0751,-0.0184 -0.111508,-0.0316 -0.05094,-0.0148 -0.102643,-0.0262 -0.154062,-0.0393 -0.06427,-0.0124 -0.129307,-0.0241 -0.194963,-0.0235 -0.01027,5.3e-4 -0.0209,-7.9e-4 -0.03081,0.002 -0.0082,0.002 0.02958,0.01 0.02172,0.0131 -0.0076,0.003 -0.01614,-0.003 -0.02408,-0.005 -0.04608,-0.0115 -0.07724,-0.0222 -0.12392,-0.0369 0,0 -0.09585,0.24038 -0.09585,0.24038 z" />
    <path
       style="fill:#000000;stroke-width:0.874001"
       id="path13699"
       d="m 89.692069,131.28489 c 0.04896,0.0226 0.100568,0.0392 0.148669,0.0637 0.0083,-8e-4 0.0091,0.008 0.01418,0.011 0.0062,0.004 0.01299,0.007 0.0195,0.01 0.0087,0.004 0.01746,0.008 0.02593,0.012 0.03075,0.0158 0.0088,0.009 0.04733,0.0248 0.04532,0.0188 0.0913,0.0282 0.139144,0.0381 0.07695,0.0107 0.151096,0.0347 0.22745,0.0481 0.03862,0.003 0.07608,0.0134 0.114344,0.0188 0.03276,0.005 0.04394,0.005 0.07782,0.007 0.06075,5.3e-4 0.12097,0.007 0.181721,0.007 0.06616,-0.003 0.132638,-0.004 0.198215,-0.014 0.07293,-0.008 0.141531,-0.031 0.207455,-0.0627 0.07523,-0.0413 0.143613,-0.0928 0.207843,-0.14942 0.0532,-0.0515 0.109186,-0.0999 0.163902,-0.14976 0.06496,-0.0674 0.1295,-0.13521 0.193622,-0.20341 0.07603,-0.0843 0.153019,-0.1676 0.231066,-0.25001 0.07758,-0.0821 0.152786,-0.1664 0.229282,-0.2495 0.06368,-0.0686 0.132051,-0.13326 0.191368,-0.20587 0.01397,-0.0171 0.02706,-0.0349 0.04059,-0.0523 0.05064,-0.0725 0.105465,-0.14226 0.153175,-0.21679 0.01921,-0.03 0.03713,-0.0608 0.05623,-0.0908 0.05031,-0.0765 0.109304,-0.14677 0.161467,-0.22203 0.04054,-0.0622 0.08158,-0.12404 0.124817,-0.18442 0.03376,-0.0476 0.06584,-0.0963 0.09975,-0.14384 0.01955,-0.0333 0.04751,-0.0601 0.07131,-0.0901 0.01199,-0.0151 0.02331,-0.0308 0.03495,-0.0462 0.01561,-0.0191 0.03103,-0.0385 0.04565,-0.0584 0.0029,-0.004 0.01005,-0.0164 0.01577,-0.0217 0.03303,-0.0346 0.06111,-0.0736 0.08691,-0.11381 0.01789,-0.0298 0.01487,-0.019 0.03712,-0.0566 0.02122,-0.0422 0.0093,-0.0142 0.0044,-0.007 -0.0046,0.006 -0.0097,0.0124 -0.01439,0.0187 -0.0019,0.002 0.0038,-0.005 0.0056,-0.007 0.003,-0.004 0.0058,-0.008 0.0087,-0.012 -0.281495,0.12997 -0.110455,0.082 -0.108812,0.0231 0.0011,-0.0359 -0.01064,-0.0711 -0.01593,-0.10663 0,0 -0.07574,-0.10671 -0.07574,-0.10671 v 0 c -0.006,-0.0351 -0.01669,-0.0697 -0.01783,-0.10529 -0.0021,-0.066 0.164121,-0.10099 -0.124719,0.0272 0.019,-0.0266 -0.006,0.004 -0.01717,0.0188 -0.007,0.009 -0.0176,0.0263 -0.0227,0.0379 -0.0013,0.003 0.0033,-0.006 0.005,-0.008 0.0068,-0.0141 -0.02987,0.0425 -0.03381,0.0494 0.0044,-0.006 0.0055,-0.008 -0.0069,0.008 -0.01082,0.0139 -0.0204,0.0271 -0.03181,0.0405 -0.004,0.005 -0.0079,0.01 -0.01183,0.0143 -0.03354,0.0401 -0.0632,0.083 -0.09249,0.12628 -0.0045,0.008 -0.009,0.0154 -0.01344,0.0232 -0.0013,0.004 -0.0019,0.007 -0.0036,0.0108 -0.01775,0.0354 -0.04358,0.0663 -0.06639,0.0983 -0.03354,0.0473 -0.0654,0.0957 -0.09908,0.14291 -0.04468,0.0625 -0.08744,0.12631 -0.130079,0.19022 -0.05283,0.0777 -0.116652,0.147 -0.170093,0.22432 -0.0619,0.0894 -0.125481,0.17781 -0.195516,0.26114 -0.07175,0.0783 -0.155626,0.14346 -0.230675,0.2185 -0.07885,0.081 -0.155054,0.16433 -0.23292,0.24624 -0.0772,0.0815 -0.154223,0.16319 -0.227809,0.248 -0.0597,0.0607 -0.117176,0.12342 -0.175387,0.18547 -0.05052,0.0483 -0.102862,0.0947 -0.15349,0.14294 -0.03573,0.0318 -0.07089,0.0641 -0.113007,0.0876 -0.0032,0.002 -0.0064,0.004 -0.0096,0.007 0.0013,5.3e-4 0.005,7.9e-4 0.0039,0.002 -0.0033,0.003 -0.0079,0.003 -0.0118,0.004 -0.01701,0.006 -0.03402,0.0107 -0.05217,0.0131 -0.04246,0.0117 -0.08693,0.0117 -0.130294,0.018 -0.0528,0.005 -0.106198,-7.9e-4 -0.158755,0.008 -0.05407,0.003 -0.107513,-0.007 -0.161499,-0.008 -0.02627,0.002 -0.0078,0.002 -0.04688,-0.001 -0.0575,-0.004 -0.115059,-0.008 -0.172707,-0.009 -0.01916,-5.3e-4 -0.03831,-0.002 -0.05747,-0.002 -0.006,9e-5 -0.01185,0.002 -0.01778,10e-4 -0.01654,-10e-4 -0.04159,-0.008 -0.05649,-0.0114 -0.007,-0.001 -0.01405,-0.002 -0.02109,-0.003 -0.01257,-0.002 -0.02506,-0.005 -0.03767,-0.007 -0.01318,-0.002 -0.02671,-10e-4 -0.03983,-0.004 -0.03732,-0.007 -0.08319,-0.021 -0.118348,-0.0309 0,0 -0.0961,0.27365 -0.0961,0.27365 z" />
    <circle
       id="path13750"
       style="fill:#502d16;stroke:#000000;stroke-width:0.264583"
       cx="-20.646408"
       cy="109.81863"
       r="0.013933175" />
    <path
       style="fill:#502d16;stroke-width:1.58141"
       d="m 363.09899,548.69471 c -3.19049,-1.94563 -8.69183,-8.01156 -11.811,-13.02315 -5.25966,-8.45074 -7.37285,-12.74864 -11.11395,-22.60408 -2.9941,-7.88757 -5.53884,-15.33624 -5.53884,-16.21266 0,-0.11408 1.88501,-0.0348 4.18892,0.17607 2.30391,0.21091 4.65305,0.27468 5.22031,0.1417 0.56726,-0.13297 2.53111,-1.94094 4.36411,-4.01769 l 3.33274,-3.77592 4.66897,9.72239 c 2.56794,5.34732 6.17638,12.05417 8.01877,14.90412 10.05033,15.54666 12.70804,28.91937 6.78162,34.12283 -1.39811,1.22757 -2.05652,1.45824 -4.15786,1.45674 -1.58695,-9.6e-4 -3.02763,-0.32557 -3.95379,-0.89035 z"
       id="path13821"
       transform="scale(0.26458333)" />
    <path
       style="fill:#b3b3b3;stroke-width:1.58141"
       d="m 334.34254,494.64477 c -0.62945,-0.41612 -3.0924,-10.42938 -4.56117,-18.54362 -2.00134,-11.05644 -1.29466,-32.70526 2.03156,-62.23545 3.47723,-30.87095 11.15874,-57.45501 23.79293,-82.34228 1.60402,-3.15964 2.92757,-5.51194 2.94122,-5.22733 0.0366,0.76294 -7.82533,20.24233 -9.54392,23.64683 -1.75018,3.4671 -3.04894,8.23563 -5.95611,21.86855 -3.51834,16.49894 -4.82219,33.63083 -3.65601,48.03841 0.30902,3.81791 0.75802,9.95767 0.99777,13.64393 0.89888,13.82075 1.46887,20.22476 2.15364,24.19685 1.37098,7.95258 4.01755,18.47525 5.94113,23.62173 l 1.94778,5.21124 -1.05809,1.7304 c -0.58195,0.95173 -2.12075,2.86142 -3.41955,4.24376 l -2.36146,2.51336 -4.35885,-0.007 c -2.39737,-0.004 -4.59826,-0.1656 -4.89087,-0.35905 z"
       id="path13823"
       transform="scale(0.26458333)" />
    <path
       style="fill:#b3b3b3;stroke-width:1.11822"
       d="m 335.31388,494.61576 c -0.87421,-0.18742 -1.08229,-0.47362 -1.63214,-2.24493 -1.1524,-3.71242 -3.57314,-14.97982 -4.16101,-19.36757 -1.79509,-13.39814 0.53772,-50.26347 4.76594,-75.31591 3.81707,-22.61631 11.03649,-45.2262 20.24469,-63.40261 1.22617,-2.42039 2.23735,-4.19986 2.24705,-3.95437 0.0215,0.54254 -5.13931,13.29795 -7.47258,18.46933 -2.13132,4.72378 -3.19837,8.32991 -5.33065,18.0151 -3.67456,16.69053 -5.10939,28.48563 -5.11713,42.06568 -0.003,5.96036 1.91349,34.97901 2.8989,43.88492 0.93409,8.44208 4.07853,21.87189 6.94492,29.66163 0.72813,1.97877 1.32387,3.82241 1.32387,4.09698 0,0.66655 -1.64992,2.93654 -4.31193,5.93242 l -2.18074,2.45424 -3.60862,-0.0401 c -1.98474,-0.022 -4.05949,-0.13672 -4.61057,-0.25486 z"
       id="path13825"
       transform="scale(0.26458333)" />
    <path
       style="fill:#000000;stroke-width:0.874001"
       id="path13827"
       d="m 92.344911,137.90939 c 0.01855,0.15679 0.02209,0.22082 0.06073,0.38276 0.04096,0.17173 0.09292,0.32482 0.154371,0.49018 0.117269,0.31559 0.12505,0.32053 0.262417,0.63229 0.135016,0.26876 0.182729,0.3802 0.338838,0.63023 0.05604,0.0898 0.116671,0.1766 0.177726,0.26303 0.120182,0.17012 0.227132,0.2996 0.344498,0.46962 0.05226,0.0757 0.100791,0.15392 0.151186,0.23088 0.175217,0.27354 0.352681,0.54588 0.547275,0.80621 0.145467,0.1946 0.303146,0.38039 0.455451,0.56962 0.193765,0.24441 0.362508,0.50822 0.570142,0.74165 0.07411,0.0833 0.153588,0.1617 0.230344,0.24258 0.112628,0.12514 0.191053,0.27518 0.286784,0.41259 0.06178,0.0887 0.09338,0.12613 0.159261,0.20938 0.0236,0.0292 0.0471,0.0585 0.07078,0.0876 0.05477,0.0674 0.09604,0.11565 0.147548,0.18494 0.09567,0.12871 0.180453,0.26517 0.267885,0.39948 0.07506,0.12795 0.185632,0.22751 0.278783,0.34102 0.06308,0.0769 0.07489,0.099 0.132633,0.18451 0.0662,0.11285 0.126754,0.22849 0.209336,0.33062 0.05701,0.0705 0.07593,0.0859 0.140838,0.15088 0.04406,0.0421 0.08314,0.0845 0.135078,0.11707 0.01574,0.01 0.03382,0.0153 0.05074,0.023 0,0 0.05048,-0.0257 0.05048,-0.0257 v 0 c 5.29e-4,-0.0244 0.0067,-0.0493 0.0019,-0.0732 -0.01291,-0.0634 -0.05368,-0.11386 -0.08789,-0.16606 -0.05117,-0.0754 -0.105257,-0.14949 -0.152376,-0.2276 -0.03803,-0.063 -0.04666,-0.0851 -0.08209,-0.1524 -0.01895,-0.036 -0.03838,-0.0718 -0.05757,-0.10765 -0.0682,-0.11547 -0.06634,-0.12119 -0.144782,-0.22227 -0.08244,-0.10624 -0.181351,-0.19989 -0.24827,-0.31806 -0.0643,-0.10121 -0.12587,-0.20414 -0.190515,-0.30513 -0.0894,-0.13965 -0.192035,-0.27013 -0.295133,-0.39977 -0.04927,-0.0631 -0.09842,-0.12444 -0.144261,-0.19022 -0.105585,-0.15149 -0.193934,-0.31604 -0.321403,-0.4514 -0.07321,-0.0762 -0.149254,-0.14974 -0.220051,-0.22819 -0.208243,-0.23075 -0.376182,-0.49329 -0.571648,-0.73429 -0.151728,-0.18356 -0.306956,-0.36469 -0.451847,-0.55378 -0.163195,-0.21297 -0.219242,-0.29578 -0.370116,-0.51728 -0.06159,-0.0904 -0.122232,-0.18149 -0.183345,-0.27224 -0.05456,-0.0789 -0.107395,-0.15903 -0.163693,-0.23671 -0.103457,-0.14274 -0.245221,-0.31562 -0.349178,-0.45605 -0.155625,-0.21023 -0.211093,-0.29297 -0.342776,-0.52424 -0.06051,-0.10627 -0.116218,-0.21522 -0.174326,-0.32283 -0.127484,-0.26637 -0.165978,-0.34241 -0.285705,-0.60971 -0.09551,-0.21323 -0.190704,-0.43005 -0.252389,-0.65605 -0.01442,-0.0529 -0.02307,-0.10716 -0.03462,-0.16073 0,0 -0.100928,0.0114 -0.100928,0.0114 z" />
    <path
       style="fill:#000000;stroke-width:0.874001"
       id="path13829"
       d="m 93.995813,137.73799 c 0.06914,0.24368 0.168891,0.47706 0.286044,0.70137 0.100263,0.19198 0.197688,0.33775 0.309388,0.52326 0.04974,0.0826 0.09805,0.16607 0.147073,0.2491 0.193903,0.3321 0.324123,0.69622 0.512107,1.03125 0.108275,0.19297 0.157903,0.25183 0.28602,0.43048 0.09223,0.12484 0.193413,0.25574 0.275352,0.38844 0.05297,0.0858 0.232304,0.42453 0.260188,0.47608 0.153273,0.28336 0.13072,0.2407 0.283758,0.5127 0.199512,0.35546 0.423714,0.69622 0.64589,1.03772 0.09984,0.13997 0.16823,0.29976 0.270269,0.43818 0.0449,0.0609 0.09854,0.12304 0.147246,0.18105 0.06355,0.0764 0.131368,0.1508 0.181626,0.23719 0.02977,0.0512 0.03707,0.0746 0.06058,0.13112 0.05241,0.14867 0.09191,0.30158 0.125328,0.45551 0.03322,0.1553 0.04478,0.31326 0.05813,0.47106 0.01439,0.12959 0.0016,0.26358 0.03075,0.39154 0.0079,0.0345 0.01514,0.0703 0.03289,0.10088 0.01931,0.0332 0.05071,0.0578 0.07607,0.0867 0,0 0.05625,-0.007 0.05625,-0.007 v 0 c 0.01826,-0.031 0.04188,-0.0594 0.05474,-0.093 0.01209,-0.0316 0.01524,-0.066 0.01902,-0.0996 0.01458,-0.12932 -0.0056,-0.26236 5.29e-4,-0.3922 -0.0013,-0.17216 -0.01527,-0.34359 -0.04258,-0.5137 -0.02969,-0.17458 -0.05981,-0.34993 -0.113522,-0.51903 -0.01326,-0.0344 -0.02484,-0.0694 -0.03977,-0.10306 -0.05965,-0.13438 -0.154964,-0.2483 -0.250495,-0.35831 -0.03416,-0.0399 -0.0963,-0.11112 -0.12877,-0.15366 -0.103076,-0.13504 -0.171646,-0.29315 -0.273558,-0.42909 -0.223663,-0.33254 -0.459216,-0.65789 -0.656026,-1.00762 -0.201226,-0.34887 -0.07966,-0.13424 -0.284501,-0.506 -0.04982,-0.0904 -0.212162,-0.3891 -0.281284,-0.49743 -0.09587,-0.15025 -0.178171,-0.24938 -0.287928,-0.39096 -0.125375,-0.16538 -0.168,-0.21232 -0.275315,-0.39159 -0.19926,-0.33289 -0.349937,-0.69295 -0.55881,-1.0205 -0.05211,-0.0824 -0.103563,-0.16532 -0.156332,-0.24735 -0.05417,-0.0842 -0.110929,-0.16675 -0.164475,-0.25135 -0.181669,-0.28705 -0.348846,-0.58436 -0.460037,-0.90661 0,0 -0.145814,0.0441 -0.145814,0.0441 z" />
    <path
       style="fill:#000000;stroke-width:0.874001"
       id="path13831"
       d="m 95.134445,136.4589 c 0.03008,0.0643 0.05896,0.12923 0.09025,0.19298 0.09217,0.18779 0.139449,0.27119 0.236421,0.45295 0.09854,0.1847 0.196498,0.36963 0.296802,0.55338 0.113913,0.21859 0.23876,0.43134 0.354155,0.6491 0.05818,0.1098 0.13272,0.26131 0.188219,0.37283 0.111543,0.23621 0.265674,0.44715 0.410716,0.66295 0.08533,0.12696 0.118822,0.18236 0.201594,0.31374 0.03149,0.053 0.06315,0.10595 0.09445,0.15909 0.09701,0.16463 0.09413,0.16527 0.197604,0.32847 0.102974,0.16241 0.213199,0.3203 0.319186,0.48075 0.02705,0.0436 0.05505,0.0867 0.08114,0.13091 0.04271,0.0724 0.06358,0.11274 0.09566,0.18688 0.05113,0.11818 0.0399,0.10458 0.0938,0.22298 0.01701,0.0374 0.03565,0.074 0.05347,0.11107 0.02013,0.0353 0.03969,0.071 0.0604,0.10605 0.01895,0.032 0.03955,0.0631 0.05852,0.0951 0.03257,0.0549 0.09711,0.17073 0.125039,0.22378 0.04244,0.0806 0.06719,0.13491 0.105915,0.21657 0.0382,0.0895 0.07862,0.17855 0.11176,0.27013 0.01913,0.0529 0.02833,0.0877 0.04415,0.14193 0.04651,0.15408 0.0612,0.31464 0.09174,0.47211 0.02363,0.10406 0.05388,0.20663 0.07349,0.3116 0.0021,0.0117 0.01969,0.12179 0.02156,0.13359 0.01696,0.13079 0.06502,0.25374 0.102838,0.37916 0.02342,0.10141 0.06432,0.19945 0.07812,0.30306 0.0026,0.019 0.0034,0.0382 0.0051,0.0573 0.0013,0.11957 0.01164,0.23905 0.01103,0.35864 -0.0035,0.0513 0.0026,0.10257 0.0026,0.15376 -3e-6,0.007 -0.0038,0.0671 -0.0044,0.0766 -0.0052,0.044 -0.0038,0.0883 -0.01013,0.13231 -0.0028,0.0199 -0.02929,0.095 -0.01886,0.10865 0.0056,0.007 0.01492,0.0107 0.02238,0.016 0.0083,0.0129 0.01651,0.0257 0.02474,0.0386 0,0 0.04024,0.0399 0.04024,0.0399 v 0 c 0.01908,0.002 0.03817,0.004 0.05726,0.006 0.0158,-0.007 0.03286,-0.011 0.04737,-0.0202 0.02783,-0.0176 0.05223,-0.10063 0.06501,-0.13061 0.01585,-0.0517 0.02944,-0.10404 0.04327,-0.15618 0.01484,-0.0861 0.01947,-0.17341 0.02447,-0.26055 0.0026,-0.12968 -0.0043,-0.25936 -0.0063,-0.38902 -0.0024,-0.027 -0.0039,-0.0541 -0.0071,-0.081 -0.01405,-0.11572 -0.05005,-0.22735 -0.07954,-0.33967 -0.03253,-0.11339 -0.07991,-0.22299 -0.09328,-0.34124 -0.02458,-0.15364 -0.05825,-0.30499 -0.09882,-0.45523 -0.03278,-0.16667 -0.04698,-0.33702 -0.09849,-0.49978 -0.04631,-0.15674 -0.106627,-0.30782 -0.175773,-0.45592 -0.058,-0.12199 -0.11838,-0.2419 -0.184862,-0.35956 -0.100716,-0.17825 -0.02627,-0.0432 -0.118004,-0.19512 -0.0176,-0.0291 -0.03404,-0.059 -0.05106,-0.0884 -0.01609,-0.0325 -0.03313,-0.0645 -0.04829,-0.0974 -0.02257,-0.049 -0.07765,-0.18419 -0.09837,-0.2308 -0.05537,-0.12459 -0.122951,-0.24284 -0.199204,-0.35588 -0.104529,-0.1582 -0.21354,-0.31352 -0.31559,-0.47333 -0.109937,-0.17216 -0.09127,-0.1465 -0.196546,-0.32298 -0.03266,-0.0548 -0.06571,-0.1093 -0.09857,-0.16395 -0.111019,-0.17794 -0.09517,-0.15686 -0.209851,-0.32447 -0.139441,-0.20383 -0.28901,-0.40178 -0.399759,-0.62365 -0.08636,-0.1675 -0.108707,-0.21467 -0.202142,-0.38019 -0.121536,-0.2153 -0.251976,-0.42565 -0.379942,-0.63713 -0.109458,-0.17796 -0.221596,-0.3542 -0.331679,-0.53176 -0.143356,-0.23123 -0.115845,-0.19229 -0.261294,-0.43338 -0.03576,-0.0593 -0.0723,-0.11808 -0.108448,-0.17712 0,0 -0.134093,0.0659 -0.134093,0.0659 z" />
    <path
       style="fill:#333333;stroke-width:1.58141"
       d="m 361.73944,547.40063 c -6.58515,-5.02813 -14.5021,-17.29478 -19.97964,-30.95676 -2.56024,-6.38571 -6.64586,-17.94766 -6.64586,-18.80722 0,-0.54852 0.85066,-0.61867 4.67596,-0.38563 l 4.67596,0.28487 3.61276,-3.84038 3.61276,-3.84039 4.37204,8.92125 c 2.40463,4.90668 5.92081,11.50641 7.81374,14.66606 6.63756,11.07928 10.05214,19.591 9.98274,24.88455 l -0.0315,2.40329 -0.67204,-2.49481 c -0.68321,-2.53628 -2.41813,-5.92791 -5.4582,-10.67038 -0.92832,-1.44817 -3.01111,-4.8647 -4.62841,-7.5923 -1.70895,-2.88215 -3.08124,-4.73163 -3.27645,-4.41578 -0.36919,0.59737 3.43223,7.99216 6.73668,13.1047 3.29103,5.09175 4.77865,8.39847 5.69126,12.65071 0.81324,3.78919 0.81208,3.98209 -0.0317,5.26607 l -0.87591,1.33281 -0.50634,-2.15431 c -0.27849,-1.18486 -1.84436,-4.20089 -3.47971,-6.70228 -4.30271,-6.58132 -6.89364,-10.75228 -9.28307,-14.94422 -1.98385,-3.48038 -2.8237,-4.42836 -2.8237,-3.18724 0,0.79263 4.37811,8.75394 8.76085,15.93103 5.05507,8.27808 5.60118,9.34267 5.60118,10.91887 0,2.19984 -1.19759,1.57126 -3.61321,-1.89647 -1.23808,-1.7773 -3.80996,-5.17033 -5.71531,-7.54007 -4.7952,-5.96392 -8.57291,-11.63908 -9.59564,-14.41527 -1.03353,-2.80549 -1.66141,-3.6425 -1.66141,-2.21476 0,3.05899 3.88467,9.87613 10.02082,17.58537 2.68234,3.36998 6.23118,8.10647 6.90648,9.21777 0.78344,1.28926 -2.0155,0.54752 -4.18509,-1.10908 z"
       id="path15524"
       transform="scale(0.26458333)" />
  </g>
</svg>
