<?xml version="1.0" encoding="UTF-8" standalone="no"?>
<!-- Created with Inkscape (http://www.inkscape.org/) -->

<svg
   width="210mm"
   height="297mm"
   viewBox="0 0 210 297"
   version="1.1"
   id="svg7085"
   inkscape:version="1.2 (dc2aedaf03, 2022-05-15)"
   sodipodi:docname="cactus-arm-2.svg"
   xmlns:inkscape="http://www.inkscape.org/namespaces/inkscape"
   xmlns:sodipodi="http://sodipodi.sourceforge.net/DTD/sodipodi-0.dtd"
   xmlns="http://www.w3.org/2000/svg"
   xmlns:svg="http://www.w3.org/2000/svg">
  <sodipodi:namedview
     id="namedview7087"
     pagecolor="#505050"
     bordercolor="#eeeeee"
     borderopacity="1"
     inkscape:showpageshadow="0"
     inkscape:pageopacity="0"
     inkscape:pagecheckerboard="0"
     inkscape:deskcolor="#505050"
     inkscape:document-units="mm"
     showgrid="false"
     inkscape:zoom="3.5705387"
     inkscape:cx="304.15578"
     inkscape:cy="603.55038"
     inkscape:window-width="2560"
     inkscape:window-height="1369"
     inkscape:window-x="2552"
     inkscape:window-y="-8"
     inkscape:window-maximized="1"
     inkscape:current-layer="layer1" />
  <defs
     id="defs7082" />
  <g
     inkscape:label="Camada 1"
     inkscape:groupmode="layer"
     id="layer1">
    <path
       style="fill:#000000;fill-opacity:0.987952;stroke-width:0.874001"
       id="path7208"
       d="m 84.418468,181.57465 c 1.185376,-0.59683 2.35341,-1.21546 3.427029,-1.99891 0.854866,-0.65766 1.58591,-1.45761 2.298078,-2.2631 0.480494,-0.54169 0.904174,-1.12925 1.299123,-1.73514 0.237159,-0.37658 0.451548,-0.7667 0.659254,-1.16014 0.0717,-0.11453 0.148847,-0.22719 0.217731,-0.34439 0.0046,-0.0423 0.06864,-0.092 0.06997,-0.0933 0.03321,-0.0246 0.03338,-0.0977 0.03459,-0.10318 -0.09927,-0.21006 -0.195258,-0.42219 -0.290341,-0.6344 -0.184618,-0.40125 -0.415518,-0.77906 -0.620313,-1.17024 -0.254153,-0.4713 -0.455287,-0.96564 -0.619712,-1.47444 -0.188008,-0.6046 -0.338506,-1.21899 -0.475404,-1.83685 -0.156175,-0.73149 -0.263596,-1.47177 -0.402248,-2.20662 -0.19416,-0.93171 -0.39991,-1.86089 -0.6311,-2.78412 -0.23739,-0.95173 -0.547892,-1.88167 -0.870625,-2.807 -0.250449,-0.71246 -0.546396,-1.40736 -0.821402,-2.11034 -0.213966,-0.51685 -0.409958,-1.04073 -0.610896,-1.56274 -0.198311,-0.57754 -0.400526,-1.15375 -0.598707,-1.73142 -0.278821,-0.79895 -0.58605,-1.58787 -0.902653,-2.37253 -0.330766,-0.83692 -0.723294,-1.64572 -1.146659,-2.43906 -0.38296,-0.68675 -0.80392,-1.35406 -1.267656,-1.98911 -0.456477,-0.60262 -0.995457,-1.13414 -1.521896,-1.67428 -0.511733,-0.55318 -1.049137,-1.07929 -1.616157,-1.57535 -0.660813,-0.60282 -1.433073,-1.04634 -2.228715,-1.44315 -0.982266,-0.46378 -2.009757,-0.81675 -3.043341,-1.14524 -0.758759,-0.24846 -1.538518,-0.40624 -2.331471,-0.48823 -0.601107,-0.0744 -1.205296,-0.076 -1.809107,-0.047 -0.590132,0.0399 -1.177317,0.11296 -1.761006,0.20754 -1.102344,0.19716 -2.194719,0.45178 -3.264228,0.78434 -0.664012,0.21054 -1.307317,0.4709 -1.90985,0.82041 -0.584097,0.33845 -1.110948,0.7412 -1.612003,1.1894 -0.368096,0.35041 -0.720931,0.71897 -1.050975,1.10566 -0.293375,0.34874 -0.545719,0.7284 -0.778436,1.11939 -0.307369,0.49561 -0.527198,1.03261 -0.732771,1.5761 -0.263652,0.7105 -0.384488,1.4592 -0.524582,2.20035 -0.129561,0.68809 -0.185544,1.38402 -0.165925,2.08322 0.02299,0.59275 0.119456,1.17777 0.227867,1.75973 0.133371,0.72317 0.315642,1.43565 0.479282,2.15224 0.160917,0.74671 0.314073,1.49348 0.544129,2.22241 0.256902,0.73044 0.585591,1.4317 0.931748,2.12319 0.450004,0.86003 0.944137,1.69604 1.460612,2.51754 0.474636,0.75157 1.006295,1.46415 1.601438,2.12405 0.461084,0.50241 0.962869,0.96472 1.442516,1.44884 0.524375,0.49368 1.045057,0.99115 1.569111,1.48516 0.569781,0.51921 1.12997,1.04534 1.663981,1.60152 0.56525,0.58827 1.130268,1.17686 1.703596,1.75728 0.580438,0.61122 1.167488,1.21535 1.779958,1.79461 0.612781,0.53364 1.221087,1.07218 1.847223,1.59029 0.592818,0.44386 1.167321,0.91181 1.754868,1.36289 0.498131,0.39675 1.014785,0.76559 1.561414,1.09202 0.478584,0.29389 0.988137,0.53056 1.510329,0.7349 0.369594,0.14248 0.742686,0.27499 1.116283,0.40642 0.268536,0.0988 0.539231,0.19175 0.804717,0.29859 0.206547,0.1083 0.434821,0.16311 0.645459,0.255 0.171942,0.0719 0.340976,0.15051 0.511881,0.22474 0.151866,0.0575 0.296468,0.13155 0.44209,0.2029 0.147007,0.0756 0.2965,0.14484 0.449699,0.2068 0.141263,0.0639 0.291367,0.10176 0.439123,0.14665 0.159745,0.0632 0.325493,0.051 0.493006,0.0398 0.107964,-0.0122 0.215927,-0.0243 0.32389,-0.0365 0,0 0.109532,-0.0181 0.109532,-0.0181 v 0 c 0.08169,-0.0228 0.163373,-0.0455 0.24506,-0.0683 0.142441,-0.0628 0.03362,-0.0706 -0.05724,-0.10272 -0.113683,-0.0555 -0.227531,-0.10788 -0.341653,-0.16217 -0.146651,-0.0641 -0.29513,-0.12481 -0.434973,-0.20319 -0.148233,-0.069 -0.29184,-0.14877 -0.44527,-0.20608 -0.173566,-0.0683 -0.339061,-0.15557 -0.513254,-0.22264 -0.221763,-0.0948 -0.423765,-0.23773 -0.656897,-0.31256 -0.268163,-0.10685 -0.538996,-0.20602 -0.811244,-0.30213 -0.373973,-0.1345 -0.751838,-0.25814 -1.122527,-0.40189 -0.524401,-0.19819 -1.036148,-0.42778 -1.516576,-0.71887 -0.551479,-0.32049 -1.0776,-0.67787 -1.577554,-1.07477 -0.608658,-0.45282 -1.219377,-0.90677 -1.790592,-1.40624 -0.635267,-0.52686 -1.272995,-1.05457 -1.860679,-1.63467 -0.618898,-0.57601 -1.21162,-1.17827 -1.799707,-1.78556 -0.586017,-0.57578 -1.163288,-1.16062 -1.739362,-1.74631 -0.557835,-0.55612 -1.122196,-1.10603 -1.708809,-1.63189 -0.528482,-0.48708 -1.051817,-0.97955 -1.575806,-1.47145 -0.507746,-0.43878 -0.987083,-0.90909 -1.451893,-1.39296 -0.598974,-0.65175 -1.138496,-1.35395 -1.611003,-2.10321 -0.518998,-0.8164 -1.009734,-1.65124 -1.460616,-2.50734 -0.347385,-0.68505 -0.68122,-1.3793 -0.932548,-2.10639 -0.230939,-0.7229 -0.385368,-1.4645 -0.542859,-2.20628 -0.163941,-0.71498 -0.340833,-1.42725 -0.470929,-2.14954 -0.109791,-0.58966 -0.220861,-1.18045 -0.235535,-1.78223 -0.01029,-0.69342 0.04694,-1.38249 0.174882,-2.06497 0.117568,-0.75409 0.271486,-1.50423 0.535027,-2.22268 0.208442,-0.54759 0.444125,-1.08692 0.733195,-1.59691 0.239025,-0.38715 0.49821,-0.76177 0.79746,-1.10544 0.329123,-0.37606 0.692393,-0.71407 1.060209,-1.05177 0.503348,-0.43231 1.07289,-0.7861 1.633812,-1.13841 0.609262,-0.33339 1.251998,-0.59297 1.915996,-0.7977 0.280591,-0.0852 1.581513,-0.44262 0.100651,-0.0697 -0.106432,0.0268 0.282736,-0.0648 0.742984,-0.15478 0.111096,-0.0217 0.222554,-0.0416 0.333833,-0.0624 0.57981,-0.0981 1.162372,-0.1737 1.750049,-0.20428 0.598064,-0.035 1.196909,-0.0388 1.792907,0.0334 0.78959,0.0995 1.574218,0.22808 2.332429,0.47959 1.033399,0.30008 2.053365,0.64998 3.029659,1.10582 0.791101,0.38991 1.56274,0.82031 2.221224,1.41563 0.567286,0.49497 1.115616,1.00963 1.627511,1.56246 0.521578,0.54071 1.065379,1.06313 1.527056,1.65791 0.464484,0.61653 0.911381,1.24723 1.283914,1.92486 0.438608,0.78425 0.842063,1.58691 1.181899,2.4195 0.316664,0.76874 0.634172,1.53813 0.908148,2.32331 0.196215,0.56729 0.390366,1.13552 0.606266,1.69573 0.19965,0.52336 0.403043,1.04529 0.617763,1.56267 0.276193,0.70164 0.574003,1.39489 0.825346,2.10617 0.333949,0.95134 0.635754,1.91419 0.889749,2.89015 0.229473,0.92167 0.432885,1.84941 0.624218,2.77972 0.137554,0.7359 0.243372,1.47756 0.403336,2.20921 0.129442,0.60693 0.266769,1.21289 0.456692,1.80433 0.163047,0.51484 0.37066,1.01096 0.616768,1.49197 0.194524,0.37771 0.410578,0.74372 0.607795,1.12007 0.09955,0.21748 0.2003,0.43448 0.286504,0.65772 0.03974,0.087 0.05501,-0.0226 0.08953,-0.009 -0.003,0.0474 -0.02088,0.0855 -0.04836,0.12573 -0.07341,0.11475 -0.157898,0.22216 -0.207926,0.34906 -0.198535,0.38177 -0.427974,0.7442 -0.653156,1.11071 -0.393345,0.60101 -0.813532,1.18459 -1.290351,1.72297 -0.705477,0.80276 -1.439257,1.59055 -2.291525,2.2407 -1.071187,0.77049 -2.223614,1.419 -3.434032,1.9463 0,0 0.81965,0.0526 0.81965,0.0526 z" />
    <path
       style="fill:#000000;fill-opacity:0.987952;stroke-width:0.874001"
       id="path7210"
       d="m 83.555315,181.12824 c 0.02188,-0.0292 -7.94e-4,-0.0805 0.02529,-0.10533 0.01135,-0.0108 0.02866,0.0126 0.04261,0.0197 0.04912,0.0249 0.09262,0.0566 0.137174,0.0887 0.0075,0.005 0.08127,0.06 0.09013,0.0643 0.03027,0.0149 0.122698,0.0429 0.153564,0.0463 0.0609,0.007 0.122521,0.004 0.18361,0.009 0.03829,0.003 0.07623,0.01 0.114343,0.0143 0,0 0.04701,-0.004 0.04701,-0.004 v 0 c 0.01709,-0.0103 0.03304,-0.0228 0.05131,-0.0308 0.03574,-0.0156 0.07684,-0.0193 0.110054,-0.0398 0.0084,-0.005 0.0051,-0.02 0.0024,-0.0294 -0.01048,-0.0358 -0.04366,-0.044 -0.07282,-0.0605 -0.01876,-0.0106 -0.03754,-0.0211 -0.05631,-0.0317 -0.05115,-0.0295 -0.102246,-0.0585 -0.151527,-0.0911 -0.01154,-0.008 -0.02688,-0.0115 -0.03442,-0.0231 -0.02159,-0.0332 -0.03372,-0.0716 -0.05057,-0.10746 -0.01262,-0.0171 -0.02524,-0.0343 -0.03787,-0.0515 0,0 -0.553943,0.33269 -0.553943,0.33269 z" />
    <path
       style="fill:#000000;fill-opacity:0.987952;stroke-width:0.874001"
       id="path7212"
       d="m 83.187362,180.86637 c 0.07022,0.0197 0.130923,0.0602 0.192328,0.0979 0.06241,0.0409 0.12338,0.084 0.186224,0.12418 0.04099,0.0316 0.08607,0.0573 0.129818,0.0848 0.03096,0.0202 0.0635,0.0379 0.09423,0.0584 0.02312,0.0162 0.04912,0.0279 0.07539,0.038 0.01648,0.007 0.03386,0.0122 0.05139,0.0157 0.0061,0.002 0.02291,0.003 0.02647,0.008 0.315093,-9e-5 0.630182,-1.8e-4 0.945275,-2.7e-4 0.0044,-7.9e-4 0.01132,0.003 0.01381,-0.002 0.01127,-0.009 -0.0013,-0.0303 0.0067,-0.0418 5.29e-4,-7.9e-4 0.0021,-7.9e-4 0.003,-0.001 0.0065,-0.0112 0.0013,-0.0248 0.006,-0.0367 0.0027,-0.0152 0.0013,-0.0289 -0.0035,-0.0436 -0.0052,-0.02 -0.01461,-0.0378 -0.0244,-0.0559 -0.01019,-0.0106 -0.0205,-0.0209 -0.02791,-0.0336 -0.004,-0.008 -0.0098,-0.0148 -0.0168,-0.0197 -0.0064,-0.002 -0.0071,-0.002 -0.01492,-8e-4 -0.175911,0.015 -0.351801,0.0302 -0.527701,0.0453 0,0 0.103206,0.003 0.103206,0.003 v 0 c -0.170791,0.0105 -0.348858,0.0124 -0.520793,0.0368 -0.01146,0.005 -0.0019,0.005 0.0038,0.0125 0.0075,0.004 0.01466,0.005 0.02291,0.007 0.01064,0.004 0.02016,0.01 0.02838,0.0181 0.0064,0.004 0.01328,0.009 0.02003,0.0119 -0.0021,-0.004 -5.29e-4,-7.9e-4 -0.0011,-0.003 8.5e-5,-0.002 -0.007,-0.006 -0.0047,-0.0115 -7.93e-4,0.001 -2.64e-4,0.003 -0.0016,0.004 -5.29e-4,2.5e-4 -7.94e-4,-0.001 -7.94e-4,-0.002 -0.0045,-0.0237 1.56e-4,0.0311 5.29e-4,-0.0334 5.29e-4,-0.002 -1.4e-4,-0.002 -0.0021,-0.001 0.311353,-5e-5 0.622707,-1e-4 0.934063,-1.5e-4 -0.01389,0.003 -0.02721,0.005 -0.04148,0.003 -0.02643,-0.001 -0.05287,-7.9e-4 -0.07928,-0.002 -0.03274,-0.002 -0.06514,-0.007 -0.0969,-0.0155 -0.04443,-0.0139 -0.08641,-0.0342 -0.129534,-0.0516 -0.07233,-0.0293 -0.145241,-0.0575 -0.220668,-0.078 -0.09986,-0.0324 -0.199639,-0.065 -0.295714,-0.10767 -0.07721,-0.034 -0.156062,-0.0642 -0.232252,-0.10055 0,0 -0.601464,0.0732 -0.601464,0.0732 z" />
    <path
       style="fill:#000000;fill-opacity:0.987952;stroke-width:0.874001"
       id="path7214"
       d="m 83.649451,180.78841 c 0.0204,0.032 0.0509,0.0552 0.07184,0.0868 0.0051,0.004 0.01064,0.008 0.01524,0.0131 0.0037,0.004 0.0059,0.009 0.0093,0.0129 0.01053,0.0124 0.01214,0.0114 0.02402,0.0224 0.02506,0.0231 -0.0052,-0.002 0.02228,0.0202 0.0041,0.003 0.01005,0.004 0.0123,0.009 0.0081,0.0163 0.0097,0.0354 0.01781,0.0518 0.0021,0.004 0.0086,0.005 0.0122,0.008 0.004,0.004 0.0064,0.009 0.01029,0.0131 0.0055,0.006 0.01249,0.01 0.01873,0.0143 0.01233,0.005 0.02133,0.0152 0.03144,0.0236 0.0021,0.002 0.0048,0.003 0.0067,0.005 0.003,0.004 0.0051,0.008 0.0077,0.0118 0.0058,0.01 0.0186,0.0138 0.02503,0.023 0.0028,0.004 0.0045,0.008 0.0067,0.0127 0.0048,0.007 0.01487,0.008 0.02019,0.0132 0.0016,0.002 0.0021,0.004 0.0035,0.006 -0.0159,-0.0721 -0.02471,-0.0819 2.1e-5,-0.0605 0.0043,0.004 0.0065,0.007 0.01148,0.0102 0.0092,0.005 0.02056,0.0137 0.02686,0.0218 0.0063,0.008 0.01582,0.0128 0.02294,0.0204 0.0127,0.0121 0.01992,0.007 0.04066,0.005 0.03072,-0.003 0.06144,-0.006 0.09216,-0.009 0.05629,-0.0156 0.11077,-0.0407 0.168865,-0.0466 0.07508,-0.008 0.150891,0.004 0.226337,0.006 0,0 0.10609,0.006 0.10609,0.006 v 0 c 0.07698,-1.9e-4 0.154562,0.009 0.230931,-5.3e-4 0.05847,-0.007 0.113059,-0.0333 0.16959,-0.05 0.02996,-0.003 0.05992,-0.007 0.08987,-0.0105 0.03067,-0.007 0.03094,-0.004 0.01344,-0.0132 -0.0086,-0.004 -0.01595,-0.009 -0.02476,-0.0128 -0.01093,-0.005 -0.01995,-0.0134 -0.02826,-0.0221 -0.0062,-0.006 -0.01326,-0.009 -0.0204,-0.0133 -0.0321,-0.0201 -0.01889,-0.0118 -0.03286,-0.0834 -0.0061,-0.003 -0.01254,-0.005 -0.01865,-0.008 -0.0113,-0.005 -0.02132,-0.0135 -0.03372,-0.0166 -0.0028,0.002 -0.0052,0.005 -0.0084,0.005 -0.0034,2.7e-4 -0.0065,-0.002 -0.0097,-0.003 -0.0164,-0.005 -0.03229,-0.0121 -0.04912,-0.016 -0.0041,7.9e-4 -0.0081,0.003 -0.01225,0.002 -0.0052,-5.3e-4 -0.01,-0.003 -0.01505,-0.005 -0.0213,-0.006 -0.04326,-0.0107 -0.06399,-0.0189 -1.48e-4,-3e-5 -0.03488,-0.009 -0.03493,-0.009 -0.0064,-7.9e-4 -0.01302,7.9e-4 -0.01939,-2.2e-4 -0.0067,-0.001 -0.01421,-0.0105 -0.01929,-0.006 -0.0098,0.009 -0.0048,0.0282 -0.01521,0.0361 -0.0062,0.005 -0.01476,-0.005 -0.02215,-0.008 -0.05843,-0.0186 -0.117565,-0.035 -0.175908,-0.0538 -0.07088,-0.0194 -0.139536,-0.0452 -0.209148,-0.0686 0,0 -0.701413,0.0735 -0.701413,0.0735 z" />
    <path
       style="fill:#000000;fill-opacity:0.987952;stroke-width:0.874001"
       id="path7216"
       d="m 64.982446,155.62412 c 0.05806,0.81858 0.332492,1.59581 0.611471,2.36031 0.437015,1.15035 1.01868,2.23501 1.621224,3.30502 0.442661,0.73549 0.219797,0.36966 0.668546,1.09752 0,0 0.01966,0.004 0.01966,0.004 v 0 c -0.426249,-0.7211 -0.218916,-0.35818 -0.622128,-1.0887 -0.581591,-1.07794 -1.176266,-2.15359 -1.59988,-3.30655 -0.272799,-0.76025 -0.542608,-1.536 -0.575839,-2.351 0,0 -0.123063,-0.0203 -0.123063,-0.0203 z" />
    <path
       style="fill:#000000;fill-opacity:0.987952;stroke-width:0.874001"
       id="path7218"
       d="m 75.180996,154.72931 c 0.188095,0.53653 0.344757,1.08419 0.502375,1.63039 0,0 0.01847,0.008 0.01847,0.008 v 0 c -0.09313,-0.53652 -0.19277,-1.07295 -0.374444,-1.58814 0,0 -0.146396,-0.0499 -0.146396,-0.0499 z" />
    <path
       style="fill:#000000;fill-opacity:0.987952;stroke-width:0.874001"
       id="path7220"
       d="m 75.008316,168.76285 c 0.743214,0.60731 1.429967,1.2807 2.13732,1.92884 1.069173,0.98932 2.229863,1.87145 3.383026,2.7589 0,0 0.01945,0.005 0.01945,0.005 v 0 c -1.084792,-0.88754 -2.170129,-1.77678 -3.20344,-2.72434 -0.710624,-0.6622 -1.406105,-1.34447 -2.159278,-1.95862 0,0 -0.177067,-0.009 -0.177067,-0.009 z" />
    <path
       style="fill:#000000;fill-opacity:0.987952;stroke-width:0.874001"
       id="path7222"
       d="m 70.472971,146.15384 c 0.572302,0.19159 1.128686,0.42485 1.685147,0.65743 0.668946,0.28118 1.342914,0.55315 1.995366,0.87172 0.387585,0.18924 0.533254,0.27583 0.907002,0.48248 0.734489,0.42301 1.413262,0.93099 2.05776,1.47931 0.242131,0.18669 0.443865,0.42273 0.688147,0.60672 0.08275,0.0623 0.172868,0.11423 0.2593,0.17134 0,0 0.02947,-0.002 0.02947,-0.002 v 0 c -0.03195,-0.0641 -0.0545,-0.13376 -0.09586,-0.19219 -0.171892,-0.24286 -0.437472,-0.41044 -0.639524,-0.62386 -0.660413,-0.54886 -1.349814,-1.06561 -2.102519,-1.48279 -0.151273,-0.0824 -0.300641,-0.16851 -0.453822,-0.24736 -0.815813,-0.41997 -1.678014,-0.7398 -2.521897,-1.09678 -0.567558,-0.23253 -1.137028,-0.45977 -1.721567,-0.64681 0,0 -0.087,0.0231 -0.087,0.0231 z" />
    <path
       style="fill:#000000;fill-opacity:0.987952;stroke-width:0.874001"
       id="path7224"
       d="m 80.835793,159.04163 c 0.05493,0.77849 0.239352,1.53897 0.431535,2.29272 0.283102,1.0627 0.644909,2.10172 0.986547,3.14639 0.301373,0.86618 0.458922,1.76917 0.611719,2.67027 0.04297,0.21064 0.12519,0.64409 0.191844,0.85103 0.04721,0.14658 0.113101,0.28646 0.169654,0.42969 0,0 0.01929,0.005 0.01929,0.005 v 0 c -0.01156,-0.1308 -0.01791,-0.26216 -0.03469,-0.3924 -0.03596,-0.27932 -0.105749,-0.55364 -0.134205,-0.83417 -0.144346,-0.90753 -0.316188,-1.81145 -0.614701,-2.68324 -0.346715,-1.04478 -0.721836,-2.0812 -1.01315,-3.14344 -0.195636,-0.75738 -0.380757,-1.52144 -0.434494,-2.30451 0,0 -0.179364,-0.0376 -0.179364,-0.0376 z" />
    <path
       style="fill:#999999;fill-opacity:0.987952;stroke-width:0.925156"
       d="m 318.29931,682.69539 c -0.92423,-0.35513 -3.31883,-1.40383 -5.32133,-2.33046 -2.0025,-0.92662 -5.46836,-2.34596 -7.70192,-3.1541 -6.36554,-2.30316 -9.53188,-4.07491 -15.63044,-8.74614 -6.19158,-4.74249 -10.27053,-8.42184 -19.79839,-17.85881 -5.39134,-5.33992 -12.51211,-12.23382 -15.82394,-15.31978 -6.96701,-6.49188 -9.29161,-8.89 -11.62289,-11.99049 -3.70571,-4.9284 -9.77771,-15.94953 -11.3414,-20.58544 -0.75341,-2.23368 -3.13687,-12.5285 -4.07314,-17.59302 -0.81592,-4.41355 -0.89207,-8.27288 -0.24898,-12.61857 1.45703,-9.84584 4.40104,-16.21488 10.00618,-21.64731 7.23576,-7.01278 15.57424,-10.41256 27.08381,-11.04265 5.46736,-0.29931 10.90641,0.62374 18.39929,3.12252 6.82841,2.27718 11.48509,4.61461 15.28779,7.67373 2.47309,1.98949 10.52864,10.08162 12.55844,12.61546 4.72292,5.8957 9.3139,15.05444 13.40725,26.74667 0.64713,1.84846 2.24877,6.07051 3.55921,9.38233 5.70538,14.41902 7.59021,20.80853 9.8832,33.50359 1.958,10.84046 2.83823,13.68543 6.36577,20.57474 l 2.37891,4.64601 -2.027,3.38431 c -1.11484,1.86136 -2.85503,4.4876 -3.86708,5.83607 -2.38045,3.17176 -8.25266,9.22726 -10.79946,11.13653 -2.86181,2.14543 -7.60563,4.94217 -8.35391,4.9251 -0.35175,-0.008 -1.39574,-0.30516 -2.31997,-0.66029 z m -13.86346,-27.17335 c 0,-0.0667 -2.17404,-1.94482 -4.8312,-4.17353 -2.65716,-2.2287 -6.97374,-6.03082 -9.59239,-8.44915 -5.05626,-4.66945 -5.82337,-5.29319 -6.31022,-5.13091 -0.56817,0.18939 10.58976,10.14911 16.76449,14.96421 3.57063,2.7844 3.96932,3.06457 3.96932,2.78938 z m 10.36258,-19.14318 c 0,-0.64858 -1.48415,-9.12911 -1.84858,-10.56293 -0.23492,-0.92423 -1.35434,-4.51613 -2.48761,-7.98199 -2.62465,-8.02692 -4.06571,-13.70983 -4.06585,-16.034 -3e-5,-0.55795 -0.14045,-0.77019 -0.50956,-0.77019 -0.46691,0 -0.48974,0.16563 -0.27297,1.98059 0.33148,2.77541 2.0991,9.46813 4.28093,16.20888 1.15902,3.58077 2.21631,7.56446 2.8218,10.63207 0.99334,5.0326 1.46553,6.74732 1.85804,6.74732 0.12309,0 0.2238,-0.0989 0.2238,-0.21975 z m -58.50817,-23.46427 c -1.66383,-2.81998 -5.47043,-10.12288 -6.55987,-12.58501 -1.53424,-3.46737 -2.87668,-7.61461 -3.30569,-10.21236 -0.19109,-1.15707 -0.46332,-1.97068 -0.6594,-1.97068 -0.54573,0 0.0422,3.08634 1.33387,7.00175 1.58822,4.8144 8.669,18.73343 9.54243,18.75799 0.13075,0.004 -0.0274,-0.44259 -0.35134,-0.99169 z m 29.66769,-23.55554 c -0.61404,-3.11038 -1.12102,-4.57335 -1.58487,-4.57335 -0.28204,0 -0.38264,0.15535 -0.27769,0.42883 0.0905,0.23586 0.55754,1.69378 1.03786,3.23983 0.95215,3.06474 1.33377,3.48339 0.8247,0.90469 z m 9.2356,-20.97584 c 0,-0.5303 -0.85202,-1.44225 -3.147,-3.36833 -3.28032,-2.75304 -6.44254,-4.81706 -10.24702,-6.68836 -5.10974,-2.51331 -16.28509,-6.82649 -15.45317,-5.96423 0.077,0.0798 2.53463,1.1226 5.46136,2.31726 9.77819,3.99137 13.97267,6.382 19.8445,11.31033 2.76765,2.32294 3.54133,2.84581 3.54133,2.39333 z"
       id="path7295"
       transform="scale(0.26458333)" />
  </g>
</svg>
