<?xml version="1.0" encoding="UTF-8" standalone="no"?>
<!-- Created with Inkscape (http://www.inkscape.org/) -->

<svg
   width="350"
   height="390"
   viewBox="0 0 92.604167 103.1875"
   version="1.1"
   id="svg6261"
   inkscape:version="1.2 (dc2aedaf03, 2022-05-15)"
   sodipodi:docname="cactus-arm-2.svg"
   inkscape:export-filename="default.svg"
   inkscape:export-xdpi="96"
   inkscape:export-ydpi="96"
   xmlns:inkscape="http://www.inkscape.org/namespaces/inkscape"
   xmlns:sodipodi="http://sodipodi.sourceforge.net/DTD/sodipodi-0.dtd"
   xmlns="http://www.w3.org/2000/svg"
   xmlns:svg="http://www.w3.org/2000/svg">
  <sodipodi:namedview
     id="namedview6263"
     pagecolor="#505050"
     bordercolor="#eeeeee"
     borderopacity="1"
     inkscape:showpageshadow="0"
     inkscape:pageopacity="0"
     inkscape:pagecheckerboard="0"
     inkscape:deskcolor="#505050"
     inkscape:document-units="mm"
     showgrid="false"
     inkscape:zoom="0.5"
     inkscape:cx="358"
     inkscape:cy="149"
     inkscape:window-width="2560"
     inkscape:window-height="1080"
     inkscape:window-x="0"
     inkscape:window-y="0"
     inkscape:window-maximized="1"
     inkscape:current-layer="layer1" />
  <defs
     id="defs6258" />
  <g
     inkscape:label="Camada 1"
     inkscape:groupmode="layer"
     id="layer1"
     transform="translate(-59.262597,-139.07322)">
    <g
       id="g35475"
       transform="matrix(-1,0,0,1,176.67977,61.423585)"
       inkscape:label="g35475">
      <g
         id="g35535"
         transform="translate(-6.4201831,8.4453664)">
        <path
           id="path6860"
           style="fill:#000000;fill-opacity:0.987952;stroke-width:0.874001"
           d="m 68.903803,76.668281 4.1e-5,5.15e-4 c -0.410132,0.04039 -0.815628,0.113563 -1.206991,0.25743 -0.756321,0.278537 -1.474334,0.642879 -2.181557,1.028134 -1.027194,0.546353 -2.055975,1.090178 -3.07028,1.66028 -0.995648,0.563436 -1.995234,1.13484 -2.867397,1.882497 -0.871716,0.780091 -1.725802,1.627364 -2.257412,2.682272 -0.391557,0.901839 -0.633233,1.851875 -0.822109,2.815581 -0.234008,1.224977 -0.429129,2.457361 -0.52924,3.701424 -0.111193,1.433566 -0.143309,2.870924 -0.130645,4.308695 -0.0089,1.273663 -0.01058,2.547136 0.01429,3.820653 0.02952,1.414308 0.0897,2.827428 0.216639,4.236808 0.09598,1.56113 0.169781,3.12606 0.371748,4.67798 0.212755,1.51591 0.441606,3.02992 0.674558,4.54278 0.217165,1.26205 0.433854,2.53141 0.834533,3.75079 0.0754,0.20013 0.143098,0.40338 0.226443,0.60033 0.52329,1.23653 1.303589,2.34174 1.978947,3.49525 0.925784,1.5519 1.798137,3.13309 2.529388,4.78763 0.532441,1.07258 1.090716,2.13369 1.744048,3.13874 0.580343,0.8651 1.204165,1.69936 1.926516,2.45276 0.757636,0.85112 1.470118,1.73848 2.040949,2.72924 0.73955,1.20275 1.468112,2.41639 2.360056,3.51552 0.967933,1.25936 1.886699,2.55236 2.785446,3.86196 1.097017,1.5199 2.244326,3.00533 3.508555,4.39137 1.385831,1.51118 2.819948,2.98031 4.121385,4.56675 1.130209,1.36278 2.247068,2.74248 3.51802,3.97899 1.022786,0.9771 2.084422,1.91577 3.238129,2.73751 1.095714,0.7782 2.208858,1.53377 3.263463,2.36792 0.814684,0.6496 1.615357,1.31935 2.474119,1.9112 0.641411,0.43515 1.301556,0.83731 1.997682,1.18004 0.427953,0.22497 0.855939,0.45721 1.206429,0.79656 0.225655,0.21618 0.443447,0.4372 0.613042,0.70207 0.146868,0.20876 0.286966,0.42258 0.436163,0.62967 0.127901,0.18596 0.257511,0.37063 0.375863,0.56295 0.06367,0.10169 0.128398,0.2042 0.16253,0.32032 0.01741,0.0468 0.04832,0.0819 0.08703,0.10915 -0.002,0.0118 -0.0023,0.0239 -0.0044,0.0356 -0.06779,0.092 0.153663,0.098 0.356527,0.0305 0.209732,-0.0173 0.398399,-0.10155 0.326358,-0.15836 -0.0071,-0.0325 -0.01197,-0.0654 -0.0096,-0.0993 0.0034,-0.0995 0.01176,-0.19879 0.0046,-0.29846 0.0016,-0.2706 7.3e-5,-0.54094 -0.0039,-0.81154 -0.01304,-0.62969 -0.02515,-1.25961 -0.04511,-1.88914 -0.01578,-1.06034 -0.0359,-2.12069 -0.06048,-3.18085 -0.0252,-1.35157 -0.06843,-2.70241 -0.09053,-4.05405 -0.01862,-1.24088 -0.007,-2.48332 -0.07953,-3.72263 -0.03036,-0.42139 -0.06423,-0.84409 -0.117865,-1.2638 0.01012,-0.003 0.0203,-0.006 0.03043,-0.008 l -5.57e-4,-4.8e-4 c -0.06271,-0.0284 -0.12507,-0.057 -0.188214,-0.0844 -0.0907,-0.0396 -0.182631,-0.0774 -0.272389,-0.11918 -0.111631,-0.0528 -0.222779,-0.10678 -0.32564,-0.17558 -0.0363,-0.0248 -0.07337,-0.0488 -0.109154,-0.0747 -5.4e-5,0.0144 -8.14e-4,0.0287 -6.6e-4,0.0431 -0.128033,-0.0336 -0.255855,-0.067 -0.3839,-0.1004 -0.164946,-0.053 -0.320589,-0.12661 -0.458322,-0.23338 -0.203701,-0.15361 -0.434399,-0.27599 -0.603328,-0.47733 -0.282081,-0.27312 -0.525946,-0.58548 -0.836105,-0.82676 -0.328403,-0.37997 -0.657789,-0.75863 -1.002013,-1.12451 -0.431074,-0.4525 -0.881821,-0.88579 -1.312595,-1.33863 -0.05105,-0.0518 -0.355689,-0.35748 -0.403146,-0.4182 -0.07206,-0.0922 -0.125718,-0.19748 -0.19498,-0.2918 -0.165147,-0.2249 -0.373868,-0.41894 -0.505645,-0.66868 -0.323419,-0.48011 -0.607496,-0.98371 -0.8459,-1.51184 -0.244702,-0.52801 -0.483436,-1.05849 -0.738476,-1.58163 -0.214395,-0.44572 -0.42634,-0.89333 -0.662679,-1.32797 -0.3112,-0.55349 -0.637991,-1.09718 -0.958729,-1.64536 -0.425638,-0.75135 -0.83671,-1.50981 -1.233307,-2.2771 -0.401463,-0.735 -0.822954,-1.45676 -1.2348,-2.18573 -0.303354,-0.65117 -0.515075,-1.33387 -0.637017,-2.04285 -0.156498,-0.8533 -0.283038,-1.71327 -0.486423,-2.55728 -0.184855,-0.75203 -0.399335,-1.49562 -0.61137,-2.24036 -0.142956,-0.50544 -0.280337,-1.01255 -0.429953,-1.51614 -0.08986,-0.34025 -0.174659,-0.68267 -0.219575,-1.03221 -0.05184,-0.38168 -0.08962,-0.76617 -0.168885,-1.14358 -0.115862,-0.54725 -0.28373,-1.08103 -0.408704,-1.6262 -0.192068,-0.80333 -0.360673,-1.61197 -0.506413,-2.42503 -0.149178,-0.81403 -0.279947,-1.63213 -0.3519,-2.4571 -0.06314,-0.78663 -0.09427,-1.57453 -0.135908,-2.36244 -0.05767,-0.80226 -0.124609,-1.60388 -0.230282,-2.40154 -0.08107,-0.77981 -0.159151,-1.56133 -0.123262,-2.34687 0.0268,-0.98206 0.125793,-1.95964 0.183284,-2.94013 0.06991,-1.08705 0.118592,-2.17627 0.134922,-3.26546 0.0045,-0.98976 -0.03317,-1.97879 -0.06519,-2.967919 -0.0096,-0.727118 -0.0079,-1.45382 0.06859,-2.178197 0.03385,-0.573106 0.105912,-1.143034 0.132016,-1.716702 0.03542,-0.657403 0.07683,-1.314634 0.131879,-1.970716 0.05502,-0.840649 0.105182,-1.681588 0.143077,-2.523214 0.0481,-0.789098 0.125861,-1.577957 0.117054,-2.369231 -0.03477,-0.873482 -0.128473,-1.746101 -0.472124,-2.559974 -0.425994,-1.036324 -0.947417,-2.027873 -1.557738,-2.968074 -0.632707,-0.998217 -1.236276,-2.0197 -1.946817,-2.964889 -0.477275,-0.556332 -1.02389,-1.043432 -1.6113,-1.482135 -0.726392,-0.528586 -1.505226,-0.975377 -2.325464,-1.343515 -0.87536,-0.380138 -1.770964,-0.731651 -2.725068,-0.850617 -0.867057,-0.102289 -1.738796,-0.17493 -2.612764,-0.160786 -0.183158,0.0054 -0.366595,0.01166 -0.549856,0.02177 -0.137441,0.0076 -0.274516,0.01738 -0.411228,0.03085 z m -0.05943,0.565175 c 0.181913,-0.01187 0.364422,-0.01947 0.546394,-0.02616 0.870683,-0.01822 1.739516,0.05236 2.603388,0.15376 0.950208,0.10967 1.843765,0.449771 2.714021,0.829211 0.816254,0.36202 1.583279,0.816939 2.302674,1.343786 0.584101,0.442664 1.123553,0.936279 1.607943,1.485514 0.718083,0.925304 1.312792,1.941025 1.932884,2.933346 0.603649,0.927918 1.089045,1.918482 1.500825,2.943602 0.329164,0.805818 0.405053,1.670561 0.425779,2.531546 -0.0035,0.790594 -0.08123,1.57806 -0.126572,2.366883 -0.05001,0.85618 -0.09863,1.712774 -0.170641,2.567414 -0.0677,0.66154 -0.110978,1.325057 -0.15378,1.988544 -0.0402,0.56535 -0.08904,1.13014 -0.152025,1.693421 -0.05976,0.718382 -0.09525,1.43904 -0.07785,2.159757 0.05037,0.98206 0.06025,1.96481 0.05685,2.94785 0.0043,1.08554 -0.09508,2.16625 -0.175764,3.24748 -0.0946,0.96469 -0.173657,1.93035 -0.242713,2.8972 -0.02683,0.77855 0.02242,1.55828 0.100861,2.33259 0.113395,0.79677 0.172566,1.59891 0.221488,2.40172 0.0247,0.78725 0.05099,1.57388 0.106139,2.35964 0.06289,0.81743 0.197104,1.6262 0.329357,2.43455 0.137616,0.81935 0.293417,1.63555 0.463723,2.44868 0.113405,0.53962 0.239111,1.07726 0.332072,1.62092 0.06488,0.37936 0.09886,0.76274 0.147681,1.14425 0.04497,0.35494 0.126283,0.70383 0.219351,1.04881 0.142917,0.48857 0.287123,0.97623 0.414265,1.46919 0.204108,0.72842 0.402213,1.45798 0.571474,2.19534 0.177139,0.81129 0.280567,1.63555 0.424142,2.45288 0.115624,0.7203 0.330348,1.41319 0.634899,2.07465 0.375515,0.73074 0.823718,1.42058 1.220225,2.13972 0.412397,0.79303 0.798605,1.599 1.239256,2.3772 0.308944,0.55155 0.631124,1.09574 0.934251,1.65043 0.234255,0.43209 0.437596,0.88002 0.647842,1.32398 0.244818,0.50761 0.485678,1.0163 0.719246,1.52925 0.234973,0.53237 0.510315,1.04474 0.820415,1.5367 0.17252,0.19898 0.297795,0.44313 0.484912,0.6299 0.05067,0.0506 0.119042,0.0802 0.171551,0.12882 0.143485,0.13297 0.267728,0.28536 0.403765,0.42593 0.435884,0.44347 0.87694,0.88209 1.306352,1.33187 0.345451,0.35811 0.670295,0.73517 0.994799,1.11213 0.23102,0.38387 0.53754,0.71131 0.853109,1.02603 0.20707,0.18103 0.396323,0.38806 0.613291,0.55637 0.142402,0.11452 0.300675,0.20391 0.469268,0.27293 0.156529,0.0561 0.317182,0.0989 0.477492,0.14266 0.136186,0.0365 0.272399,0.071 0.411078,0.0967 0.115566,0.02 0.232439,0.028 0.349215,0.0363 0.09932,0.005 0.198515,0.007 0.297944,0.005 0.195031,-0.004 0.391444,-0.0243 0.586075,-0.055 0.05198,0.43217 0.08354,0.86699 0.113038,1.30048 0.06275,1.23381 0.04261,2.46981 0.04388,3.70474 0.0077,1.35754 0.02774,2.71537 0.03657,4.07289 0.0052,1.06493 0.0074,2.1296 4e-4,3.19448 -0.0052,0.6041 5.61e-4,1.20824 -0.0056,1.81234 -0.126276,-0.20308 -0.264384,-0.3989 -0.401727,-0.59458 -0.185622,-0.26975 -0.395698,-0.52139 -0.629367,-0.75053 -0.353106,-0.34154 -0.783728,-0.57848 -1.213994,-0.80685 -0.698847,-0.33527 -1.362305,-0.73417 -2.008559,-1.1605 -0.863718,-0.58627 -1.662193,-1.25891 -2.483203,-1.90166 -1.064929,-0.82536 -2.177336,-1.58675 -3.274839,-2.36753 -1.166601,-0.81338 -2.222725,-1.76677 -3.248781,-2.74754 -1.288526,-1.21882 -2.408835,-2.59569 -3.544496,-3.95355 -1.311926,-1.59168 -2.761161,-3.06071 -4.144402,-4.58874 -1.264244,-1.38848 -2.399231,-2.88648 -3.498379,-4.40671 -0.894314,-1.29956 -1.800764,-2.58825 -2.761869,-3.83947 -0.892023,-1.11243 -1.633672,-2.3288 -2.367808,-3.54757 -0.574715,-0.99118 -1.273148,-1.89337 -2.033041,-2.74698 -0.723256,-0.74949 -1.349595,-1.57811 -1.929212,-2.44113 -0.662367,-1.02211 -1.236711,-2.09582 -1.78137,-3.18397 -0.760452,-1.65247 -1.648243,-3.23743 -2.576512,-4.79992 -0.56451,-0.96308 -1.179621,-1.90015 -1.67085,-2.90458 -0.269498,-0.55105 -0.284574,-0.63361 -0.494939,-1.20144 -0.39093,-1.23807 -0.612083,-2.52292 -0.832272,-3.80021 -0.238792,-1.51194 -0.457452,-3.02725 -0.669408,-4.5432 -0.209518,-1.56564 -0.281578,-3.14483 -0.407113,-4.71818 -0.122936,-1.41399 -0.198124,-2.829642 -0.218103,-4.24861 -0.02285,-1.278208 -0.01535,-2.55663 -0.02373,-3.834931 -0.02679,-1.441612 0.01135,-2.881387 0.124667,-4.318585 0.113357,-1.248657 0.315033,-2.485848 0.557694,-3.715108 0.192723,-0.96218 0.43853,-1.910572 0.838265,-2.808063 0.236977,-0.465157 0.54236,-0.894414 0.895416,-1.279672 -0.01415,0.01786 -0.01785,0.02626 -0.0019,0.01519 0.136952,-0.0951 0.246341,-0.224742 0.369585,-0.337039 0.863701,-0.758292 1.862929,-1.330567 2.857525,-1.895704 1.008478,-0.566433 2.031327,-1.106301 3.05555,-1.643547 0.705414,-0.378066 1.418121,-0.742007 2.167258,-1.025433 0.517199,-0.193109 1.058972,-0.266044 1.604699,-0.301741 z" />
        <path
           style="fill:#999999;fill-opacity:1;stroke-width:0.489561"
           d="m 97.995018,162.6792 c -0.343197,-0.43935 -0.97417,-0.90498 -2.038753,-1.50451 -0.847952,-0.47753 -2.155352,-1.34674 -2.905336,-1.93156 -0.74998,-0.58483 -2.322567,-1.75893 -3.494634,-2.60911 -2.623027,-1.90267 -4.24957,-3.36258 -6.062534,-5.44146 -1.429265,-1.63891 -3.741356,-4.24548 -5.909585,-6.66226 -1.789619,-1.99478 -6.598097,-8.52337 -8.238465,-11.18558 -0.536254,-0.8703 -1.599058,-2.32396 -2.361787,-3.23035 -1.613161,-1.91701 -2.527361,-3.33557 -3.811377,-5.91407 -0.509053,-1.02226 -1.648184,-3.1054 -2.531402,-4.62921 -0.883217,-1.5238 -1.742405,-3.1275 -1.909308,-3.56377 -0.800936,-2.0936 -1.716663,-8.32559 -2.056726,-13.99708 -0.413108,-6.889731 -0.291124,-11.512301 0.398091,-15.085558 0.778919,-4.038327 1.498767,-4.820782 7.231984,-7.860953 2.844897,-1.508572 3.602976,-1.768843 5.168599,-1.774519 3.340848,-0.01212 5.835132,0.875426 8.101323,2.882692 1.365652,1.209618 3.007418,3.652925 4.09519,6.09454 0.844299,1.895112 0.86195,2.727617 0.228695,10.786199 -0.100231,1.275518 -0.168252,3.400339 -0.151155,4.721839 0.01709,1.32149 -0.07033,3.61705 -0.19428,5.10125 -0.214082,2.5635 -0.207704,2.92253 0.127408,7.17436 0.252054,3.19814 0.463216,5.01872 0.739684,6.37764 0.212805,1.046 0.50061,2.56176 0.639571,3.36836 0.138955,0.80659 0.484263,2.31775 0.767348,3.35812 0.283081,1.04036 0.600256,2.41996 0.70483,3.06577 0.302678,1.86921 0.575205,2.68403 1.380238,4.12674 1.62502,2.91221 2.950814,5.42286 3.801808,7.19948 1.148943,2.39863 1.112101,2.34404 2.652672,3.93081 0.723256,0.74493 1.603552,1.71071 1.956215,2.14616 1.230281,1.51908 2.209818,2.07847 3.463631,1.978 l 0.568877,-0.0456 0.0635,0.79249 c 0.05887,0.7347 0.14618,12.45186 0.09543,12.80788 -0.01251,0.0877 -0.246398,-0.12681 -0.51976,-0.47676 z"
           id="path6959" />
        <path
           style="fill:#000000;fill-opacity:0.987952;stroke-width:0.874001"
           id="path7010"
           d="m 64.770726,85.563308 c -0.426963,0.806032 -0.779966,1.643901 -1.081468,2.503852 -0.421902,1.26606 -0.654487,2.577528 -0.775755,3.903048 -0.0973,1.774424 0.0058,3.551675 0.04894,5.326271 0.03305,1.865705 9.16e-4,3.731641 0.0165,5.597461 0.01284,1.84979 0.247182,3.68522 0.567337,5.50383 0.318309,1.77204 0.900511,3.47505 1.542246,5.15157 0.545953,1.40113 1.16641,2.77111 1.787582,4.13995 0.604362,1.33925 1.235173,2.66631 1.875038,3.98888 0.618659,1.304 1.237319,2.60753 1.896215,3.89178 0.732212,1.44184 1.517953,2.85442 2.339912,4.24669 0.954645,1.62818 2.048562,3.16239 3.212972,4.64514 1.099608,1.37298 2.175094,2.76504 3.230087,4.17253 0.860381,1.15347 1.738457,2.29413 2.56586,3.47169 0.859016,1.27459 1.704769,2.55829 2.549411,3.8425 0.909245,1.45232 1.883503,2.85622 2.953754,4.19403 0.72298,0.83725 0.35889,0.42697 1.091733,1.23132 0,0 0.01992,0.002 0.01992,0.002 v 0 c -0.625699,-0.80244 -0.303547,-0.39454 -0.967127,-1.22316 -1.054364,-1.33826 -2.001574,-2.74875 -2.910675,-4.18927 -0.846258,-1.28688 -1.688049,-2.57676 -2.539971,-3.8598 -0.836212,-1.1861 -1.69888,-2.35237 -2.58622,-3.50082 -1.06338,-1.40307 -2.148545,-2.78924 -3.249392,-4.16312 -1.170143,-1.4854 -2.275672,-3.01915 -3.235519,-4.65099 -0.826577,-1.39447 -1.624283,-2.80603 -2.358876,-4.25151 -0.661752,-1.28329 -1.288658,-2.58344 -1.908998,-3.88721 -0.642139,-1.3231 -1.271888,-2.65233 -1.882276,-3.99041 -0.620036,-1.36855 -1.25134,-2.73295 -1.800073,-4.1323 -0.646392,-1.67646 -1.230602,-3.38012 -1.551596,-5.15335 -0.32767,-1.81931 -0.55893,-3.65707 -0.57564,-5.50856 -0.01816,-1.86527 0.0088,-3.730698 -0.02791,-5.595806 -0.04717,-1.775991 -0.147649,-3.555104 -0.04957,-5.330921 0.120044,-1.322252 0.347378,-2.632506 0.764196,-3.896687 0.296519,-0.858345 0.642129,-1.697142 1.071532,-2.49863 0,0 -0.03213,0.01986 -0.03213,0.01986 z" />
        <path
           style="fill:#000000;fill-opacity:0.987952;stroke-width:0.874001"
           id="path7012"
           d="m 70.095468,80.835455 c 0.06979,1.059041 -0.05578,2.116044 -0.191248,3.164511 -0.227761,1.499905 -0.488396,2.994306 -0.70628,4.495793 -0.265868,1.652478 -0.194524,3.325069 -0.07241,4.985931 0.165294,1.698203 0.389498,3.389831 0.571572,5.086313 0.200859,1.933077 0.399536,3.866337 0.654989,5.793077 0.307586,2.27749 0.818608,4.51727 1.451618,6.72422 0.799168,2.63217 1.86035,5.17381 2.90066,7.71707 0.986343,2.39183 1.98349,4.7792 2.962853,7.17391 0.527537,1.26044 0.990439,2.54502 1.393661,3.85012 0.316268,1.11331 0.57221,2.24023 0.935602,3.33979 0.502985,1.44741 1.217001,2.80745 1.932063,4.15837 0.793805,1.47555 1.603878,2.94227 2.41417,4.40882 0.790889,1.4049 1.587996,2.80672 2.418151,4.18885 0.120614,0.23038 0.241227,0.46077 0.361843,0.69116 0,0 0.01976,0.002 0.01976,0.002 v 0 c -0.10701,-0.22846 -0.214031,-0.45692 -0.321046,-0.68537 -0.108537,-0.24238 -0.206689,-0.48968 -0.325609,-0.72713 -0.59149,-1.18106 -1.347069,-2.2768 -1.949357,-3.45244 -0.815789,-1.46954 -1.625105,-2.94269 -2.416998,-4.42529 -0.709476,-1.3608 -1.420692,-2.72935 -1.928504,-4.18112 -0.358746,-1.10339 -0.613995,-2.23275 -0.930648,-3.34831 -0.410602,-1.30753 -0.878129,-2.59545 -1.417794,-3.85581 -0.998764,-2.39368 -2.01142,-4.78156 -2.997399,-7.18057 -1.035782,-2.5446 -2.092015,-5.08752 -2.890322,-7.71937 -0.62952,-2.21311 -1.148788,-4.45553 -1.469352,-6.73623 -0.269678,-1.92537 -0.472948,-3.85848 -0.685299,-5.790851 -0.187803,-1.695909 -0.416938,-3.38682 -0.592623,-5.084023 -0.132541,-1.657162 -0.207082,-3.325762 0.0532,-4.976155 0.211908,-1.500111 0.470274,-2.992677 0.692547,-4.491179 0.131715,-1.039626 0.249213,-2.087617 0.190802,-3.137284 0,0 -0.05862,0.01032 -0.05862,0.01032 z" />
        <path
           style="fill:#000000;fill-opacity:0.987952;stroke-width:0.874001"
           id="path7014"
           d="m 75.886955,83.502715 c -0.374418,0.834066 -0.539678,1.730304 -0.670158,2.628612 -0.128644,0.975141 -0.175391,1.95804 -0.16767,2.940836 0.01923,1.328481 0.147723,2.650979 0.302101,3.969453 0.210997,1.676255 0.453594,3.348304 0.667617,5.024157 0.215855,1.571616 0.298092,3.156127 0.387037,4.738577 0.05593,1.36615 0.185838,2.72501 0.386233,4.07703 0.204642,1.26534 0.383743,2.53451 0.573845,3.80203 0.168073,1.0333 0.351465,2.06383 0.511314,3.09847 0.139075,0.94422 0.294771,1.88597 0.461492,2.82568 0.134916,0.95779 0.460025,1.86516 0.792426,2.76784 0.05655,0.16198 0.113098,0.32396 0.169648,0.48594 0,0 0.02817,-0.008 0.02817,-0.008 v 0 c -0.03424,-0.16826 -0.06848,-0.33652 -0.10273,-0.50479 -0.239372,-0.93096 -0.570082,-1.83977 -0.707757,-2.79554 -0.165645,-0.93766 -0.320434,-1.87725 -0.460786,-2.81904 -0.163453,-1.03573 -0.348855,-2.06759 -0.521575,-3.10176 -0.195438,-1.26725 -0.388943,-2.53477 -0.598755,-3.79974 -0.202151,-1.35315 -0.346249,-2.71232 -0.405489,-4.07997 -0.09712,-1.58228 -0.179205,-3.167177 -0.399774,-4.738532 -0.220308,-1.677514 -0.465006,-3.351754 -0.674805,-5.030645 -0.150401,-1.320555 -0.277848,-2.644342 -0.297963,-3.974413 -0.0053,-0.980651 0.03915,-1.961735 0.161706,-2.935393 0.125718,-0.898839 0.292176,-1.794766 0.677343,-2.624402 0,0 -0.111505,0.05341 -0.111505,0.05341 z" />
        <path
           style="fill:#000000;fill-opacity:0.987952;stroke-width:0.874001"
           id="path7016"
           d="m 79.665814,122.50387 c 0.368638,0.83996 0.719212,1.68717 1.043051,2.5454 0.34208,0.93572 0.645825,1.88418 1.027031,2.80513 0.460614,1.03306 0.996423,2.03036 1.498813,3.04336 0.09906,0.20668 0.198116,0.41336 0.297173,0.62002 0,0 0.01985,-0.002 0.01985,-0.002 v 0 c -0.08695,-0.20874 -0.173902,-0.41748 -0.260851,-0.62622 -0.468324,-1.02655 -0.995895,-2.02367 -1.461135,-3.05153 -0.382761,-0.92274 -0.693735,-1.8713 -1.039874,-2.808 -0.329989,-0.85614 -0.685402,-1.70158 -1.047129,-2.54474 0,0 -0.07695,0.0188 -0.07695,0.0188 z" />
      </g>
    </g>
  </g>
</svg>
