<?xml version="1.0" encoding="UTF-8" standalone="no"?>
<!-- Created with Inkscape (http://www.inkscape.org/) -->

<svg
   width="210mm"
   height="297mm"
   viewBox="0 0 210 297"
   version="1.1"
   id="svg6261"
   inkscape:version="1.2 (dc2aedaf03, 2022-05-15)"
   sodipodi:docname="galho-1.svg"
   xmlns:inkscape="http://www.inkscape.org/namespaces/inkscape"
   xmlns:sodipodi="http://sodipodi.sourceforge.net/DTD/sodipodi-0.dtd"
   xmlns="http://www.w3.org/2000/svg"
   xmlns:svg="http://www.w3.org/2000/svg">
  <sodipodi:namedview
     id="namedview6263"
     pagecolor="#505050"
     bordercolor="#eeeeee"
     borderopacity="1"
     inkscape:showpageshadow="0"
     inkscape:pageopacity="0"
     inkscape:pagecheckerboard="0"
     inkscape:deskcolor="#505050"
     inkscape:document-units="mm"
     showgrid="false"
     inkscape:zoom="2.8284271"
     inkscape:cx="304.05591"
     inkscape:cy="623.31463"
     inkscape:window-width="2560"
     inkscape:window-height="1369"
     inkscape:window-x="2552"
     inkscape:window-y="-8"
     inkscape:window-maximized="1"
     inkscape:current-layer="layer1" />
  <defs
     id="defs6258" />
  <g
     inkscape:label="Camada 1"
     inkscape:groupmode="layer"
     id="layer1">
    <path
       id="path6797"
       style="fill:#000000;stroke-width:0.874001"
       d="m 144.67644,146.07222 c -3.7e-4,5.1e-4 -6.7e-4,0.001 -0.001,0.002 3.1e-4,-2.3e-4 7.2e-4,-2.8e-4 0.001,-5.2e-4 z m -0.001,0.002 c -0.0102,0.007 -0.0173,0.0107 -0.031,0.0217 -1.5e-4,5.1e-4 -0.002,-1.8e-4 -0.002,5.1e-4 l 5.2e-4,5.2e-4 c -0.001,9.8e-4 -0.001,0.001 -0.003,0.002 -8e-5,-1.2e-4 -0.001,-0.001 -0.001,-0.002 -0.009,-0.0131 -0.01,0.005 -0.008,0.0336 -0.0267,-0.008 -0.0444,-0.01 -0.0336,0.002 l -0.006,0.006 c -0.002,2e-4 -0.003,-2.1e-4 -0.004,0 5.8e-4,5e-4 -0.001,0.001 0.002,0.002 -0.001,0.001 -0.003,0.003 -0.004,0.005 l -5.2e-4,-5.1e-4 c -0.002,-0.003 -0.001,-0.002 -0.002,-0.005 v -5.2e-4 -5.1e-4 c 2.1e-4,8e-4 -0.002,-0.001 -0.001,0 -0.006,0.001 -0.016,0.0141 -0.0253,0.0217 -0.05,0.007 -0.10072,0.0101 -0.14676,0.0336 -0.10284,0.0498 -0.20509,0.10083 -0.30541,0.15555 -0.0996,0.0502 -0.19486,0.10984 -0.28577,0.17415 -0.0755,0.0421 -0.1449,0.0919 -0.21342,0.14469 -0.0867,0.0612 -0.17617,0.11852 -0.25735,0.18707 -0.0799,0.0766 -0.17026,0.14004 -0.26097,0.20412 -0.13128,0.0849 -0.25341,0.18129 -0.3824,0.26923 -0.15421,0.0961 -0.30691,0.19465 -0.44442,0.3142 -0.28829,0.20373 -0.56473,0.42343 -0.8201,0.66766 -0.3129,0.28246 -0.62888,0.56208 -0.95705,0.82682 -0.21816,0.18027 -0.46274,0.32074 -0.7028,0.46974 -0.30467,0.18878 -0.61552,0.36585 -0.94155,0.51573 -0.3361,0.15967 -0.65987,0.34387 -0.99838,0.49816 -0.28579,0.1301 -0.56452,0.27463 -0.85163,0.40101 -0.67365,0.26047 -1.36363,0.47445 -2.03657,0.73639 -0.37719,0.17582 -0.74724,0.36747 -1.11983,0.55242 -0.50167,0.16503 -1.00881,0.31783 -1.495,0.52555 -0.45127,0.21723 -0.88377,0.4712 -1.32343,0.71055 -0.50078,0.26843 -0.9534,0.61315 -1.43247,0.91674 -1.62742,0.96701 -3.3787,1.70983 -4.99091,2.70578 -0.7517,0.46319 -1.4885,0.95189 -2.24431,1.40818 -0.59986,0.36214 -0.86869,0.49479 -1.47898,0.83716 -0.25286,0.14185 -0.504,0.28764 -0.75603,0.43098 -1.27882,0.7432 -2.59489,1.42451 -3.83284,2.23656 -0.91284,0.60346 -1.83788,1.1864 -2.76417,1.76888 -0.91073,0.63134 -0.56253,0.37652 -1.44746,1.0449 -0.54812,0.41417 -1.08661,0.87712 -1.68826,1.21491 -0.12786,0.0718 -0.26342,0.12771 -0.39533,0.19172 -2.38107,1.1559 -4.62435,2.56922 -6.93549,3.85403 -0.22375,0.12123 -0.91321,0.49026 -1.14464,0.63252 -0.77425,0.47591 -1.46587,1.06644 -2.158004,1.65158 -1.06233,0.84447 -2.218279,1.56208 -3.328996,2.33991 -0.753134,0.50871 -1.510643,1.01289 -2.251542,1.53944 -0.04802,0.0341 -1.183461,0.86783 -1.193209,0.87488 -0.220672,0.15968 -0.443457,0.31602 -0.665075,0.47439 -0.774393,0.50683 -0.934772,0.6261 -1.751831,1.10019 -1.319439,0.76559 -2.692293,1.43449 -4.010092,2.20297 -0.888356,0.49144 -1.029433,0.58726 -2.016931,1.04748 -1.808794,0.84297 -3.681786,1.54968 -5.450313,2.4784 -0.86089,0.48245 -1.709293,0.98774 -2.572453,1.46606 -0.894723,0.49581 -0.938511,0.48883 -1.840198,1.00769 -0.282027,0.1623 -0.558439,0.33417 -0.837675,0.50126 -0.643482,0.41845 -0.955322,0.61087 -1.586466,1.06247 -0.880745,0.63019 -1.71252,1.32656 -2.605009,1.94097 -0.742505,0.52183 -1.484509,1.04479 -2.230872,1.56114 -0.396033,0.27399 -0.753596,0.52337 -1.163753,0.77515 -0.172011,0.1056 -0.348843,0.20215 -0.523482,0.30334 -0.594995,0.31545 -1.191491,0.62953 -1.805575,0.90692 -0.268259,0.12119 -0.546855,0.21779 -0.81442,0.34055 -0.131196,0.0602 -0.258086,0.12999 -0.387057,0.19482 -0.72068,0.4271 -1.430277,0.88797 -2.075842,1.42265 -0.358936,0.35832 -0.66584,0.75694 -0.873848,1.22318 -0.0654,0.12999 -0.129442,0.26036 -0.19327,0.39119 0.04208,-0.48532 0.07174,-0.97164 0.175183,-1.44952 0.153712,-1.02515 0.254585,-2.05822 0.435632,-3.0794 0.253849,-1.35797 0.524578,-2.71296 0.700216,-4.08399 0.311591,-2.17036 0.658295,-4.33616 0.947746,-6.50968 0.206277,-1.71885 0.330886,-3.44533 0.415995,-5.17436 0.01397,-0.19146 0.02394,-0.38248 0.04186,-0.57361 0.02368,-0.25262 0.08243,-0.5588 0.08372,-0.81287 0.0015,-0.28693 -0.03059,-0.57111 -0.07855,-0.85318 -0.01044,-0.0196 -0.02234,-0.0385 -0.03411,-0.0574 -0.01828,-0.0293 -0.02216,-0.0531 -0.01757,-0.0703 -4.85e-4,-0.002 -7.52e-4,-0.004 -0.001,-0.006 -9.2e-4,-0.006 -8.21e-4,-0.0116 -0.001,-0.0176 -9.6e-5,-0.005 -3.95e-4,-0.01 -5.17e-4,-0.015 -1.22e-4,-0.005 -3.99e-4,-0.011 -5.17e-4,-0.016 -2.13e-4,-0.007 -3.36e-4,-0.0137 -5.16e-4,-0.0207 -2.04e-4,-0.007 2.23e-4,-0.0142 5.16e-4,-0.0212 5e-4,-0.007 0.0014,-0.0137 0.0021,-0.0207 1.57e-4,-0.002 -1.42e-4,-0.003 0,-0.005 v -5.2e-4 c -4.2e-5,-5.2e-4 4.1e-5,-0.001 0,-0.002 -4.63e-4,-0.006 -8.71e-4,-0.0121 -0.001,-0.0181 -8.4e-5,-0.002 4e-5,-0.004 0,-0.007 v -5.2e-4 c -0.0509,-0.24506 -0.109782,-0.48881 -0.17415,-0.72967 -0.03385,-0.0435 -0.05986,-0.0761 -0.0925,-0.12196 l -0.06356,0.0181 -5.17e-4,-5.2e-4 c 0.165579,0.64164 0.32823,1.301 0.310058,1.96991 -0.0049,0.1805 -0.07854,0.60434 -0.09767,0.78341 -0.02069,0.19374 -0.03358,0.38877 -0.05013,0.58291 -0.09868,1.72518 -0.2278,3.44819 -0.443901,5.16299 -0.303284,2.1702 -0.656793,4.33277 -0.970483,6.50142 -0.178295,1.36741 -0.452472,2.71933 -0.707967,4.07365 -0.183392,1.0236 -0.286419,2.05855 -0.442867,3.08612 -0.111302,0.51125 -0.138399,1.03322 -0.190686,1.55184 -0.0213,0.12054 -0.02325,0.24289 -0.03514,0.36432 -0.0021,0.0212 -0.01708,0.0419 -0.01189,0.0625 0.01136,0.0451 0.02533,0.0896 0.03824,0.13436 0.0469,4.5e-4 0.197289,0.0126 0.251147,-0.014 0.03495,-0.0173 0.192199,-0.3427 0.211873,-0.38189 0.278154,-0.55407 -0.04135,0.0773 0.248564,-0.49402 0.196302,-0.43822 0.483724,-0.81305 0.821139,-1.15032 0.63184,-0.5136 1.319452,-0.9636 2.020031,-1.37821 0.123108,-0.062 0.243661,-0.12861 0.36897,-0.18604 0.261951,-0.12002 0.535169,-0.21547 0.797884,-0.33383 0.622048,-0.28024 1.226336,-0.59586 1.828829,-0.91518 1.373044,-0.79609 2.653216,-1.74278 3.950663,-2.65462 0.894633,-0.61607 1.730118,-1.31327 2.613794,-1.94407 0.623049,-0.44475 0.936389,-0.6378 1.571997,-1.05007 0.276166,-0.16518 0.549355,-0.33527 0.828374,-0.49557 0.823746,-0.47329 1.008314,-0.54621 1.829345,-1.00046 0.864703,-0.47865 1.714902,-0.98276 2.577621,-1.46503 1.762214,-0.9206 3.626573,-1.62402 5.427575,-2.46186 0.999719,-0.46508 1.141018,-0.56055 2.041736,-1.0573 1.320408,-0.765 2.692569,-1.43572 4.013192,-2.20038 0.854463,-0.49475 0.962934,-0.58105 1.771468,-1.11001 0.225142,-0.16076 0.451148,-0.32016 0.675411,-0.48214 0.02133,-0.0154 1.136967,-0.83152 1.197343,-0.87437 0.738142,-0.52363 1.492745,-1.02592 2.24224,-1.53324 1.117693,-0.78178 2.282704,-1.50062 3.350184,-2.35179 0.686263,-0.57758 1.369113,-1.16353 2.136303,-1.63298 0.2165,-0.13255 0.91888,-0.50887 1.12138,-0.61857 2.31076,-1.27536 4.54677,-2.69114 6.92516,-3.84059 0.13201,-0.0637 0.26839,-0.11976 0.39636,-0.1912 0.62308,-0.34788 1.17726,-0.81939 1.74408,-1.24799 0.86847,-0.65688 0.54629,-0.42016 1.43608,-1.03663 0.92546,-0.58019 1.84793,-1.16179 2.75539,-1.76991 1.22556,-0.81933 2.53233,-1.50493 3.8039,-2.24793 0.251,-0.14311 0.50146,-0.28807 0.75345,-0.42943 0.67235,-0.37729 0.81628,-0.439 1.48259,-0.83406 0.76156,-0.45153 1.50679,-0.92998 2.26705,-1.38389 1.628,-0.96735 3.38687,-1.68899 5.03173,-2.6231 0.48219,-0.28579 0.92638,-0.63399 1.42575,-0.8909 0.43867,-0.23357 0.86352,-0.4932 1.3069,-0.71778 0.46175,-0.21552 0.95261,-0.35922 1.43454,-0.52142 0.38842,-0.18818 0.77105,-0.38937 1.16272,-0.57154 0.66401,-0.25641 1.34481,-0.4676 2.0128,-0.71365 0.29925,-0.11965 0.58891,-0.26069 0.88366,-0.39119 0.34319,-0.15212 0.66924,-0.33844 1.00821,-0.4992 0.34156,-0.15677 0.67079,-0.33758 0.98909,-0.53692 0.25765,-0.15859 0.51737,-0.31084 0.75137,-0.50332 0.33344,-0.26851 0.65216,-0.55427 0.971,-0.83975 0.24064,-0.23459 0.50571,-0.43967 0.7798,-0.63303 0.13082,-0.11413 0.27642,-0.20774 0.42323,-0.29921 0.13293,-0.0841 0.25259,-0.18687 0.38654,-0.26923 0.11637,-0.0801 0.23022,-0.16322 0.33228,-0.26097 0.0663,-0.0487 0.13502,-0.0931 0.20309,-0.13953 0.0559,-0.0417 0.1119,-0.0823 0.17208,-0.11368 0.089,-0.0532 0.16911,-0.12614 0.26562,-0.1664 0.0669,-0.0341 0.13382,-0.0682 0.20102,-0.1018 0.003,-0.003 0.007,-0.007 0.0103,-0.0103 0.002,-0.009 0.005,-0.0183 0.006,-0.0274 0.0107,-0.0479 0.0224,-0.0958 0.0336,-0.14366 0.0144,-0.0577 0.0289,-0.1156 0.046,-0.1726 0.0102,-0.033 0.0241,-0.0646 0.0367,-0.0966 v -5.2e-4 c 9.7e-4,-0.0163 0.001,-0.0329 0.003,-0.0491 0.002,-0.017 0.007,-0.0338 0.0139,-0.0496 0.006,-0.0132 0.0132,-0.0255 0.0217,-0.0372 z m -85.373087,52.14927 c -0.01811,-1.7e-4 -0.02428,0.002 0.0021,0.008 -7.33e-4,-0.003 -0.0013,-0.005 -0.0021,-0.008 z" />
    <path
       id="path6863"
       style="fill:#000000;stroke-width:0.874001"
       d="m 146.50372,139.0742 -5.2e-4,0.002 5.2e-4,0.001 c -0.0137,0.002 -0.0316,0.007 -0.0481,0.0103 -0.006,-0.004 -0.0242,0.001 -0.046,0.0103 -0.0728,0.0194 -0.13183,0.0391 -0.0579,5.2e-4 -0.0651,0.0248 -0.13094,0.05 -0.19379,0.0811 -0.0778,0.0306 -0.16216,0.0407 -0.23616,0.0827 -0.0591,0.029 -0.0682,0.0357 -0.15244,0.0357 -0.0912,0.0363 -0.0924,0.0357 -0.0992,0.0377 -0.089,0.002 -0.16675,0.0282 -0.23255,0.0853 -0.005,0.001 -0.005,0.003 -0.0109,0.004 -0.0836,0.0149 -0.15065,0.017 -0.22634,0.0713 -0.0219,0.0207 -0.0277,0.0319 -0.0935,0.0491 -0.0849,0.0389 -0.16394,0.0896 -0.2527,0.11937 -0.10998,0.0448 -0.21016,0.11013 -0.32556,0.14315 -0.10326,0.0462 -0.21344,0.0833 -0.30748,0.14727 -0.0895,0.065 -0.20314,0.0917 -0.29352,0.15607 -0.27808,0.17509 -0.55051,0.35896 -0.83303,0.5271 -0.46574,0.29728 -0.92445,0.60524 -1.38027,0.91777 -0.53195,0.3454 -1.06302,0.69293 -1.61644,1.00356 -0.4629,0.26357 -0.91696,0.54178 -1.3839,0.79736 -0.54585,0.26404 -1.07961,0.54716 -1.59525,0.86662 -0.70305,0.34528 -1.42545,0.65902 -2.0562,1.13223 -0.59137,0.38456 -1.22888,0.67892 -1.87379,0.96273 -0.76168,0.3402 -1.54436,0.63054 -2.2934,0.99942 -1.27786,0.52011 -2.59527,0.93123 -3.87935,1.43506 -0.35691,0.13081 -0.69024,0.25663 -1.05265,0.37517 -0.79606,0.26038 -1.61143,0.45291 -2.41846,0.67489 -0.97316,0.28997 -1.92713,0.63651 -2.90008,0.92708 -0.72359,0.23066 -1.41932,0.53034 -2.12803,0.8015 -0.67387,0.2419 -1.34642,0.48735 -2.02159,0.72554 -0.88454,0.29071 -1.7902,0.52414 -2.64428,0.90123 -0.54253,0.24641 -1.09332,0.48034 -1.61334,0.77205 -0.60387,0.3652 -1.18859,0.76103 -1.77043,1.16014 -1.07522,0.75632 -2.07083,1.6219 -3.17914,2.3306 -0.89012,0.5368 -1.77751,1.07904 -2.67425,1.60507 -0.91347,0.51792 -1.83694,1.02536 -2.69131,1.63866 -0.48232,0.33617 -0.96302,0.67481 -1.44281,1.01441 -0.908144,0.52184 -1.859295,0.9639 -2.792073,1.43919 -0.955456,0.48875 -1.922748,0.95424 -2.912483,1.36994 -0.914067,0.45873 -1.746308,1.07256 -2.706812,1.44022 -0.392493,0.16032 -0.763063,0.30668 -1.148767,0.48576 -0.818846,0.38023 -1.600707,0.8305 -2.376082,1.2914 -0.468167,0.27072 -0.933683,0.54344 -1.392163,0.83044 -0.111356,0.0697 -0.982008,0.6233 -1.117245,0.70486 -0.176019,0.10617 -0.355853,0.20567 -0.533817,0.30851 -0.483572,0.25594 -0.789403,0.42149 -1.277959,0.66559 -0.674801,0.33718 -1.363194,0.64902 -2.018998,1.0232 -0.958652,0.5281 -1.91999,1.05239 -2.864425,1.60558 -0.892263,0.55872 -1.786906,1.11431 -2.672705,1.6831 -0.896654,0.56605 -1.794745,1.12929 -2.690275,1.69706 -0.151805,0.0864 -0.301881,0.17675 -0.455786,0.25941 -0.699797,0.37587 -1.443427,0.66278 -2.138887,1.04749 -0.805442,0.40004 -1.629437,0.76085 -2.457215,1.11207 -0.597171,0.2504 -1.207393,0.50877 -1.854667,0.59066 -0.455385,0.0349 -0.911232,-0.012 -1.350305,-0.14159 -0.372878,-0.11448 -0.7632,-0.24103 -1.064018,-0.49868 -0.143547,-0.1406 -0.302246,-0.27104 -0.421679,-0.43305 -0.09058,-0.14649 -0.202511,-0.27577 -0.281637,-0.42891 -0.128407,-0.22399 -0.244039,-0.46198 -0.419613,-0.65319 -0.100905,-0.10345 -0.19546,-0.19911 -0.242879,-0.34055 -0.05266,-0.13344 -0.09875,-0.26653 -0.128157,-0.40772 -0.02045,-0.0794 -0.02647,-0.15525 -0.04393,-0.2341 -0.04295,-0.194 -0.09962,-0.38386 -0.15813,-0.57361 -0.03164,-0.0528 -0.06179,-0.10607 -0.09198,-0.15968 -0.04628,-0.0832 -0.09176,-0.16691 -0.135393,-0.25166 l -0.116788,0.0377 -0.001,0.001 c 0.07474,0.27422 0.167729,0.54412 0.238229,0.81958 0.0049,0.0163 0.0099,0.0327 0.01447,0.0491 0.01064,0.037 0.01807,0.0747 0.02481,0.11265 0.0012,0.006 0.0029,0.0113 0.0041,0.017 0.019,0.0911 0.01935,0.13996 0.04237,0.23823 0.03135,0.15041 0.08236,0.29205 0.136426,0.43512 0.05879,0.16893 0.172285,0.29206 0.294039,0.41703 0.158001,0.17973 0.265381,0.39975 0.382406,0.60771 0.08037,0.15554 0.19308,0.28839 0.284737,0.43718 0.124844,0.18189 0.298831,0.32316 0.454236,0.47801 0.323382,0.29075 0.74887,0.43383 1.157035,0.56172 0.467465,0.14036 0.952758,0.18513 1.438155,0.15813 0.676664,-0.0745 1.315006,-0.33843 1.938383,-0.59789 0.833986,-0.3511 1.663174,-0.71378 2.473751,-1.11621 0.695545,-0.38603 1.440853,-0.67076 2.141988,-1.04542 0.157888,-0.0844 0.311877,-0.17692 0.467672,-0.2651 0.901539,-0.56579 1.805082,-1.12787 2.706811,-1.69343 0.886817,-0.56669 1.782492,-1.11934 2.676323,-1.67484 0.941689,-0.54741 1.900091,-1.06531 2.855123,-1.58905 0.652831,-0.36899 1.339138,-0.67405 2.01073,-1.00614 0.515665,-0.25499 0.779671,-0.39784 1.289843,-0.66611 1.027854,-0.60029 2.025255,-1.24932 3.057178,-1.8433 0.768786,-0.45741 1.54465,-0.90326 2.357479,-1.27899 0.360895,-0.16682 0.760651,-0.32528 1.129647,-0.47594 0.970285,-0.36568 1.808641,-0.9856 2.731616,-1.44435 0.990772,-0.41591 1.959685,-0.88235 2.916101,-1.3715 0.938155,-0.4766 1.893903,-0.92035 2.807061,-1.44435 0.48911,-0.34308 0.97735,-0.68768 1.46761,-1.0294 0.84574,-0.60741 1.76051,-1.10982 2.66496,-1.62264 0.89888,-0.52821 1.78914,-1.07034 2.682,-1.60868 1.11963,-0.70392 2.12448,-1.5698 3.21531,-2.31562 0.58076,-0.38687 1.15911,-0.77798 1.75648,-1.13895 0.50864,-0.28193 1.04643,-0.50952 1.57562,-0.74983 0.84192,-0.37002 1.73427,-0.59954 2.60656,-0.88367 0.67888,-0.23829 1.35725,-0.47832 2.0345,-0.7214 0.70671,-0.26259 1.39699,-0.56222 2.11615,-0.79065 0.97204,-0.28442 1.92477,-0.62833 2.89595,-0.9157 0.80877,-0.22024 1.62559,-0.41329 2.4231,-0.67386 0.35377,-0.11559 0.72231,-0.25267 1.07281,-0.38034 1.28963,-0.50261 2.61117,-0.91715 3.89382,-1.43868 0.75454,-0.36726 1.5413,-0.6607 2.30735,-1.00252 0.53302,-0.2558 1.0877,-0.47436 1.59577,-0.7798 0.11322,-0.0681 0.22185,-0.14272 0.33279,-0.21445 0.61608,-0.46689 1.32601,-0.77003 2.01383,-1.11001 0.096,-0.0541 0.19348,-0.10626 0.28836,-0.16227 0.3505,-0.20688 0.14742,-0.10664 0.51883,-0.31161 0.25585,-0.14103 0.5215,-0.26557 0.78445,-0.39274 0.47579,-0.25842 0.93841,-0.54171 1.40921,-0.80977 0.56017,-0.31479 1.09748,-0.66728 1.63608,-1.01699 0.45534,-0.31174 0.91204,-0.62033 1.37614,-0.9188 0.28124,-0.16973 0.55412,-0.35218 0.82993,-0.5302 0.10162,-0.0564 0.20769,-0.10335 0.30385,-0.16899 0.0717,-0.0479 0.16005,-0.0763 0.24082,-0.11162 0.10368,-0.0323 0.20328,-0.0865 0.29817,-0.13126 0.10125,-0.0299 0.18972,-0.0892 0.28525,-0.13229 0.0756,-0.0173 0.13643,-0.0632 0.19276,-0.11369 -0.15129,0.0872 0.14331,-0.0103 0.15813,-0.0181 0.0214,-0.0113 0.04,-0.027 0.0599,-0.0408 0.004,-0.003 0.001,5e-4 0.004,-0.003 0.0443,0.001 0.10507,-0.0199 0.15193,-0.0403 0.0247,0.002 0.0494,7.5e-4 0.0739,-0.005 -0.0646,0.10797 -0.12079,0.22011 -0.16071,0.34003 -0.0421,0.13699 -0.0774,0.27611 -0.11886,0.41342 -0.0669,0.16754 -0.10835,0.34013 -0.12609,0.51934 -0.0447,0.18236 -0.0313,0.35981 0.007,0.54209 0.0144,0.16404 0.0143,0.32629 0.0455,0.48938 0.0251,0.11393 0.0362,0.23006 0.0543,0.34519 -0.007,0.10616 0.0208,0.21545 0.016,0.3204 -0.0422,0.12563 -0.0298,0.27788 -0.0264,0.41031 -0.005,0.10596 -0.0582,0.21 -0.0935,0.31212 -0.0493,0.12734 -0.1276,0.23234 -0.2098,0.33797 -0.0758,0.11219 -0.13708,0.23155 -0.22169,0.33796 -0.085,0.11551 -0.15543,0.23991 -0.22635,0.36432 -0.0679,0.14499 -0.15208,0.28508 -0.18913,0.44183 2.4e-4,-0.005 0.004,-0.0172 5.1e-4,-0.014 -0.0406,0.0311 -0.0748,0.19931 -0.0894,0.25167 -0.0623,0.12085 -0.10989,0.2492 -0.15968,0.37568 -0.0398,0.10023 -0.0741,0.19427 -0.12712,0.28733 -0.0417,0.0601 -0.0631,0.12843 -0.092,0.19533 -0.0419,0.0884 -0.0502,0.18388 -0.0491,0.28009 -0.007,0.0985 0.0366,0.18655 0.077,0.27285 0.03,0.0694 0.0928,0.10763 0.14625,0.15555 0.0142,0.0127 0.0215,0.0325 0.0367,0.0439 0.005,0.0103 0.01,0.0155 0.0145,0.0212 0.003,-0.002 0.007,-0.004 0.0103,-0.006 0.01,-0.006 0.0192,-0.0116 0.0284,-0.0181 0.003,-0.002 0.005,-0.004 0.008,-0.006 0.006,-0.005 0.0126,-0.01 0.0186,-0.015 0.0112,-0.0105 0.0212,-0.0224 0.0315,-0.0336 0.002,-0.008 0.004,-0.0164 0.006,-0.0248 0.0107,-0.0479 0.0224,-0.0958 0.0336,-0.14366 0.0144,-0.0577 0.0289,-0.1156 0.046,-0.1726 0.0103,-0.0332 0.023,-0.0664 0.0357,-0.0987 0.001,-0.0165 0.001,-0.0327 0.003,-0.0491 0.002,-0.017 0.007,-0.0338 0.0139,-0.0496 0.007,-0.0151 0.015,-0.0297 0.0253,-0.0429 0.009,-0.0117 0.0179,-0.0226 0.0269,-0.0341 7.1e-4,-8.1e-4 0.001,-0.002 0.002,-0.003 0.005,-0.01 0.008,-0.02 0.015,-0.0294 0.0627,-0.11432 0.10512,-0.22998 0.15244,-0.34985 0.0532,-0.13519 0.10507,-0.27097 0.16692,-0.40256 0.03,-0.10328 0.0549,-0.2063 0.0987,-0.30541 -0.014,0.0296 0.0373,-0.0936 0.0889,-0.20412 0.014,-0.0301 0.0282,-0.0599 0.0424,-0.0899 0.0588,-0.10791 0.11363,-0.21811 0.1819,-0.32039 0.0772,-0.10979 0.14369,-0.225 0.21032,-0.34055 0.10752,-0.14821 0.21179,-0.29435 0.26924,-0.47181 0.0501,-0.15339 0.11715,-0.30977 0.10852,-0.47335 -0.008,-0.1419 -0.008,-0.28212 0.0134,-0.42323 -0.0129,-0.11829 -0.024,-0.23487 -0.03,-0.3545 -0.0196,-0.12067 -0.0355,-0.24203 -0.0605,-0.36174 -0.0346,-0.15885 -0.0208,-0.31857 -0.0486,-0.478 -0.026,-0.14803 -0.046,-0.28372 -0.004,-0.43254 0.0142,-0.15347 0.0525,-0.29682 0.10852,-0.4408 0.0404,-0.1346 0.0734,-0.27152 0.11472,-0.40566 0.0398,-0.12785 0.1027,-0.24572 0.18087,-0.3545 0.0521,-0.0758 0.20076,-0.23969 0.22014,-0.31936 0.002,-0.008 -0.0155,0.006 -0.0232,0.009 -0.0181,0.001 -0.0187,-2.5e-4 -0.0315,5.2e-4 0.0113,-0.004 0.0224,-0.008 0.0336,-0.0129 0.0147,-0.009 0.061,-0.0306 0.0444,-0.0269 -0.0302,0.007 -0.0822,0.0335 -0.11111,0.0403 -0.003,-1e-5 -0.009,1.4e-4 -0.0114,0 -0.005,-3.4e-4 -0.0109,1.5e-4 -0.0109,-0.005 -2.2e-4,-0.0143 0.001,-0.0238 0.001,-0.0372 0.0283,-0.0488 0.0883,-0.14804 0.12299,-0.35192 0.003,-0.0157 -0.0172,-0.0189 -0.0465,-0.0155 z m -0.60927,0.58704 c -2.7e-4,-1.9e-4 -0.008,0.004 -0.0429,0.0233 -0.003,4.4e-4 -0.004,0.001 -0.009,0.002 0.0276,-0.0122 0.045,-0.0216 0.0517,-0.0253 z m -1.25108,6.94893 v 5.2e-4 c 4.6e-4,-3e-5 0.001,-2.8e-4 0.002,-5.2e-4 -4e-4,-5e-5 -0.001,-2e-5 -0.002,0 z" />
    <path
       id="path6865"
       style="fill:#000000;stroke-width:0.874001"
       d="m 62.007585,173.9837 -0.06615,0.0367 c 0.0054,0.011 0.02291,0.0441 0.02739,0.0579 9e-5,0.003 -8.5e-5,0.006 0,0.009 -5.3e-4,1.6e-4 -0.0021,-1.6e-4 -0.0021,5.2e-4 -7.94e-4,0.0125 0.0038,0.0225 0.0072,0.0346 0.0097,0.0338 0.02121,0.0674 0.03617,0.0992 9.7e-5,2.1e-4 0.0262,0.0514 0.02739,0.0537 0.01262,0.0266 0.02306,0.054 0.03566,0.0806 0.0067,0.0142 0.0095,0.0193 0.01033,0.0207 3.72e-4,4.1e-4 4.31e-4,-1e-4 0.0067,0.0155 0.0011,0.004 0.0029,0.007 0.0036,0.0114 5.29e-4,0.003 -4.71e-4,0.006 0,0.008 0.007,0.0354 0.02755,0.0673 0.04651,0.0966 0.03141,0.0422 0.06319,0.084 0.09612,0.12506 0.02037,0.0272 0.04327,0.0515 0.0646,0.078 0.0074,0.009 0.01437,0.0185 0.0217,0.0279 0.01386,0.0184 0.02899,0.0351 0.04444,0.0522 0.01135,0.0126 0.0074,0.007 0.01292,0.016 0.0038,0.0128 0.01189,0.0244 0.01705,0.0367 l -0.0016,-0.002 c 8.67e-4,0.003 0.0023,0.005 0.0036,0.008 0.0011,0.002 0.01234,0.0264 0.01292,0.0274 0.01313,0.0232 0.01657,0.029 0.01654,0.0284 0.009,0.0205 0.02164,0.039 0.03411,0.0574 0.008,0.0139 0.02136,0.0253 0.02894,0.0393 0.0011,0.002 0.0087,0.012 0.0088,0.015 1.2e-5,5e-4 -0.001,7.5e-4 -0.0015,0 2.82e-4,5.3e-4 1.76e-4,0.001 5.16e-4,0.002 l 5.17e-4,5.2e-4 5.17e-4,5.1e-4 c 8.62e-4,0.001 0.0019,0.002 0.0026,0.004 -1.22e-4,9.1e-4 -0.0013,-8.8e-4 -0.0021,-0.002 0.0029,0.01 0.0054,0.0199 0.0088,0.0295 -0.0071,-0.006 -0.0034,-0.0174 -0.0088,-0.0238 -0.0019,-0.002 2.2e-5,0.006 0,0.008 -1.7e-5,0.002 -4.21e-4,0.003 -5.17e-4,0.004 v 0.001 5.1e-4 c -3.8e-5,5e-4 -9.7e-5,0.001 0,0.003 4.7e-5,0.0127 -3.65e-4,0.0248 0.0021,0.0377 0.0013,0.005 3e-4,0.007 0.0016,0.008 0.0018,0.0189 0.0041,0.0337 0.0098,0.0512 h -5.17e-4 c 1.69e-4,0.002 0.0027,0.008 0.0036,0.0114 0.0037,0.0113 0.009,0.0226 0.01344,0.0336 0.0019,0.003 0.004,0.006 0.0057,0.01 0.0018,0.003 0.0034,0.006 0.0052,0.009 5.96e-4,0.001 0.0063,0.0107 0.0072,0.0124 l 5.17e-4,5.1e-4 v 5.2e-4 c 0.0027,0.005 0.0052,0.009 0.0083,0.0129 0.01283,0.0184 0.01158,0.0164 0.02325,0.0279 0.0078,0.005 0.02339,0.0167 0.02894,0.0181 l 5.17e-4,-5.2e-4 c -7.97e-4,-0.002 -0.0048,-0.006 -0.0031,-0.007 0.0032,-0.003 0.0086,-0.001 0.01292,-0.001 0.02198,0.001 0.01827,0.002 0.0155,0.003 0.0026,-2.5e-4 0.0084,-0.001 0.0217,-0.002 0.01961,-0.0231 0.03568,-0.049 0.05271,-0.0739 l 0.02584,-0.0506 c 0.0022,-0.006 0.0044,-0.0113 0.0067,-0.0171 -0.02926,-0.0563 -0.05749,-0.11328 -0.08475,-0.17054 -0.06628,-0.13992 -0.129615,-0.28105 -0.186035,-0.42529 -0.0018,-0.004 -0.0034,-0.009 -0.0052,-0.0134 -0.01802,-0.0182 -0.03592,-0.0363 -0.05374,-0.0548 -0.120988,-0.12938 -0.235128,-0.26526 -0.345715,-0.40359 -0.02226,-0.0287 -0.04077,-0.0523 -0.05943,-0.077 z" />
    <path
       id="path6867"
       style="fill:#000000;stroke-width:0.874001"
       d="m 62.702116,175.05236 c -0.0075,0.0153 5.69e-4,0.0431 0.0036,0.0568 0.0013,0.005 0.0042,0.0121 0.0041,0.0176 -1.85e-4,0.014 -0.0028,0.0283 -0.0031,0.0424 -8.5e-5,0.0124 0.0011,0.0244 5.17e-4,0.0367 -0.0013,0.0247 -0.005,0.0483 -0.0083,0.0729 l 0.136943,0.0274 c -0.04605,-0.0838 -0.09102,-0.16824 -0.133842,-0.25374 z" />
    <path
       id="path6869"
       style="fill:#000000;stroke-width:0.874001"
       d="m 62.312992,174.46687 v 0.001 c 1.03e-4,2.5e-4 9.43e-4,2.6e-4 0.001,5.2e-4 -9e-5,-9e-5 -7.38e-4,-7.4e-4 -0.001,-0.002 z m -0.0021,0.002 v 0.001 c -0.0026,0.001 -0.0025,0.005 -0.0047,0.01 -0.0048,0.007 -0.0097,0.013 -0.01447,0.0196 l -0.115238,0.13177 c -0.0044,0.007 -0.009,0.0138 -0.01344,0.0207 -4.36e-4,0.003 -5.89e-4,0.005 -0.001,0.008 0.0033,0.005 0.007,0.01 0.01033,0.0145 -0.002,-0.005 -0.0039,-0.01 -0.0052,-0.0145 0.005,0.008 0.01063,0.0161 0.0155,0.0238 6.23e-4,9.9e-4 0.001,0.002 0.0015,0.003 l 5.17e-4,5.2e-4 c 4.26e-4,9.7e-4 0.001,0.002 0.001,0.003 7.6e-5,2.3e-4 -3.57e-4,0.001 0,0.001 -0.0018,-0.001 -0.004,-0.002 -0.0062,-0.003 -7.12e-4,-0.001 -0.0014,-0.002 -0.0021,-0.003 h 5.17e-4 c 9.79e-4,6.3e-4 0.0021,0.001 0.0021,0.001 -0.0017,-0.003 -0.0042,-0.006 -0.0062,-0.009 5.69e-4,0.001 8.47e-4,0.003 0.0016,0.005 -0.0013,-10e-4 -0.0028,-0.002 -0.0041,-0.003 0.0011,0.002 0.0014,0.003 0.0021,0.004 6.12e-4,5e-4 1.48e-4,0.001 0.0016,0.002 5.83e-4,0.001 0.0015,0.002 0.0021,0.003 2.81e-4,3.6e-4 0.001,5.2e-4 0.001,5.2e-4 l 5.17e-4,5.2e-4 c 0.0029,0.004 0.0059,0.007 0.0083,0.007 h 5.17e-4 c 3.29e-4,-1.9e-4 0.001,-1.1e-4 0.001,-5.1e-4 3e-4,-3.9e-4 4.14e-4,-0.001 5.17e-4,-0.001 8.26e-4,0.002 0.0016,0.003 0.0026,0.005 l -5.17e-4,5.2e-4 v 5.1e-4 c 3.37e-4,3.2e-4 0.0012,0.001 0.0016,0.001 -3.04e-4,-4.6e-4 -2.29e-4,-0.001 -5.17e-4,-0.002 6.38e-4,2.9e-4 0.0014,0.001 0.0026,0.002 4.67e-4,4.3e-4 0.0016,0.001 0.0021,0.001 4.38e-4,6.2e-4 1.4e-4,0.001 5.17e-4,0.002 -9.75e-4,-7.5e-4 -0.0021,-0.001 -0.0031,-0.002 0.0025,0.003 0.0055,0.006 0.0078,0.01 1.72e-4,2.7e-4 -0.001,2.6e-4 -0.001,5.2e-4 0.0014,0.002 0.0058,0.008 0.0067,0.009 -0.0059,-0.004 -0.0095,-0.0106 -0.01447,-0.015 -0.0016,-0.002 -0.0029,-0.004 -0.0052,-0.005 -0.0013,-2.3e-4 -1.04e-4,0.003 5.17e-4,0.004 0.0034,0.007 0.0066,0.0147 0.01085,0.0212 0.0039,0.006 0.0084,0.0101 0.01292,0.0155 0.0073,0.009 0.01341,0.0187 0.02015,0.0284 8.34e-4,0.001 0.0017,0.003 0.0026,0.004 5.5e-5,-0.004 5.4e-5,-0.009 5.17e-4,-0.0134 4e-4,-0.004 5.52e-4,-0.008 0.0016,-0.0124 1.35e-4,0 3.27e-4,-4.6e-4 5.17e-4,-0.001 v -5.2e-4 c 7.86e-4,-3.1e-4 0.0018,-8.3e-4 0.0026,-0.001 7.2e-4,-0.002 0.0016,-0.003 0.0036,-0.004 0.0022,-0.004 0.0056,-0.005 0.0098,-0.006 0.0072,-4.8e-4 0.01652,0.004 0.02636,0.0155 0.03053,0.0349 0.05507,0.0746 0.07803,0.11472 0.03778,0.0662 0.07045,0.13512 0.102836,0.20412 0.01581,0.0343 0.0307,0.0693 0.04496,0.10439 0.0053,0.006 0.01056,0.012 0.01602,0.0181 0.0063,0.006 0.02134,0.0164 0.02635,0.0217 0.01344,0.0143 0.02085,0.0328 0.03049,0.0496 0.02519,0.0399 0.05705,0.0754 0.0832,0.11472 l 0.128158,-0.0625 v -5.1e-4 c -0.009,-0.0328 -0.02385,-0.0637 -0.03256,-0.0966 -5.29e-4,-0.002 -0.0026,-0.0142 -0.0031,-0.0165 -0.0013,-0.005 -0.0022,-0.0103 -0.0036,-0.0155 -0.0079,-0.0212 -0.01655,-0.0427 -0.02377,-0.0641 -0.0026,-0.008 -0.0041,-0.0147 -0.0072,-0.0222 -0.0026,-0.006 -0.01588,-0.0308 -0.01964,-0.0377 -0.0093,-0.017 -0.02017,-0.0331 -0.03101,-0.0491 -0.0075,-0.0111 -0.01519,-0.0209 -0.02067,-0.0331 -0.0176,-0.0309 -0.03584,-0.0615 -0.05323,-0.0925 -0.01193,-0.0225 -0.02463,-0.0448 -0.03669,-0.0672 -0.01201,-0.0216 -0.02365,-0.0437 -0.03514,-0.0656 -0.0108,-0.0214 -0.02272,-0.0422 -0.03359,-0.0636 -0.01087,-0.0187 -0.02038,-0.0378 -0.03152,-0.0563 -0.01148,-0.0211 -0.02595,-0.0401 -0.04082,-0.0589 -0.0038,-0.004 -0.0076,-0.008 -0.01137,-0.0119 -0.0014,-0.002 -0.0028,-0.002 -0.0036,-0.003 6e-4,7.5e-4 7.5e-4,0.002 0.0016,0.003 0.0013,0.002 0.01266,0.0194 0.0036,0.0103 -6.17e-4,-6.4e-4 -0.0014,-0.001 -0.0021,-0.002 -3.34e-4,-0.001 -0.006,-0.007 -0.01344,-0.0129 -0.0027,-0.003 -0.0057,-0.005 -0.0078,-0.007 -0.0027,-0.002 -0.0056,-0.004 -0.0083,-0.007 v -5.1e-4 l -5.17e-4,-5.2e-4 c -6.29e-4,-10e-4 -0.0014,-0.002 -0.0021,-0.003 -4.68e-4,-7.7e-4 -0.0011,-2.4e-4 -0.0016,-0.002 -0.0011,-0.002 -0.0019,-0.003 -0.0031,-0.005 -8.69e-4,-0.001 -0.0017,-0.003 -0.0021,-0.004 -0.0037,-0.005 -0.0056,-0.008 -0.0072,-0.0103 -0.0063,-0.0129 -0.0144,-0.0248 -0.02325,-0.0357 -0.0087,-0.008 -0.01512,-0.013 -0.01964,-0.0171 -3.32e-4,-1.8e-4 -0.001,-3.1e-4 -0.001,-5.2e-4 -2.34e-4,-1.9e-4 -0.001,-2.8e-4 -0.001,-5.1e-4 h -5.17e-4 c -0.0013,-1.8e-4 -0.0024,-3.1e-4 -0.0031,0 z m -0.148828,0.1912 c -0.01099,-0.0159 -0.02209,-0.0326 -0.03307,-0.0486 -3.58e-4,7.3e-4 -0.001,2.9e-4 -0.001,0 v 5.2e-4 c 0.0028,0.0128 0.01,0.0287 0.01809,0.0398 4.53e-4,3.7e-4 2.65e-4,0.001 0.0016,0.002 2.64e-4,3.9e-4 0.001,0.001 0.001,0.001 0.0015,0.002 0.0031,0.004 0.0047,0.006 -0.0013,-0.002 -0.0024,-0.004 -0.0036,-0.006 0.002,0.002 0.0049,0.004 0.0072,0.006 3.82e-4,6.9e-4 0.001,0.001 0.001,0.002 v 5.2e-4 h 5.17e-4 5.17e-4 5.16e-4 5.17e-4 c 4.78e-4,-1.8e-4 0.0012,-0.001 0.0016,-0.001 1.9e-4,-3.3e-4 4.03e-4,-0.001 5.17e-4,-0.002 z m -0.0041,0.003 c -9.59e-4,-5e-5 -0.0017,0 -0.0026,0 h -5.17e-4 v 5.2e-4 c 3.01e-4,5.5e-4 9.42e-4,0.002 0.001,0.002 0.0026,0.004 0.0061,0.008 0.0093,0.0114 -3.3e-4,-6.3e-4 -6.34e-4,-0.001 -0.001,-0.002 0.0013,0.001 0.0029,0.002 0.0041,0.004 7.99e-4,7e-4 0.0017,0.001 0.0026,0.002 -8.7e-4,-0.001 -0.0019,-0.003 -0.0031,-0.005 -0.0018,-10e-4 -0.0043,-0.003 -0.0067,-0.005 -2.59e-4,-4.5e-4 -2.83e-4,-0.001 -5.17e-4,-0.002 -6e-4,-0.001 -0.0015,-0.003 -0.0026,-0.005 z m 0.21239,-0.0997 c 0.0014,0.016 0.0011,0.046 0,0.0357 -0.0014,-0.0119 4.13e-4,-0.0237 0,-0.0357 z m 0.01447,5.1e-4 c 6.36e-4,4.6e-4 0.0014,0.001 0.0021,0.001 10e-4,6.7e-4 0.0017,-8e-4 0.0026,0.002 0.0072,0.0121 0.0086,0.0179 0.01344,0.031 10e-4,0.004 0.0016,0.007 0.0021,0.009 l -5.16e-4,-5.1e-4 c -0.0026,-0.006 -0.0092,-0.0238 -0.01964,-0.0419 z m -0.258383,0.001 c -2.79e-4,0.004 -1.26e-4,0.0126 0,0.0217 1.74e-4,-0.007 6.45e-4,-0.0145 0,-0.0217 z m 0.03566,0.10128 c 0.0021,0.003 0.0042,0.006 0.0057,0.008 0.0027,0.002 0.0043,0.002 0.0026,0 -0.0014,-0.002 -0.0049,-0.005 -0.0083,-0.008 z m 0.02429,0.0253 h 5.17e-4 c 1.84e-4,3.6e-4 2.6e-4,-0.001 5.17e-4,0.002 -3.42e-4,-5e-4 -0.001,0.001 -0.001,-0.002 z m 0.0083,0.006 c 0.0082,0.007 0.01583,0.0154 0.02274,0.0238 v 5.1e-4 c 0.0013,9.4e-4 0.003,0.002 0.0041,0.004 0.0016,10e-4 0.001,10e-4 -0.0016,0 2.69e-4,2.6e-4 0.001,2.8e-4 0.001,5.2e-4 0.003,0.004 -0.0019,-1.9e-4 -0.0078,-0.005 v -5.2e-4 c 0.0029,0.002 0.0052,0.004 0.0067,0.005 -7.79e-4,-9e-4 -0.0017,-0.002 -0.0026,-0.004 -0.0022,-0.002 -0.0044,-0.003 -0.0067,-0.005 -4.29e-4,-5.2e-4 -8.5e-4,-6.6e-4 -0.0016,-0.001 -5e-4,-3.9e-4 -0.0011,-0.001 -0.0016,-0.001 -4.25e-4,-2.5e-4 -0.001,-9.7e-4 -0.001,-0.001 -4.62e-4,-2.6e-4 -0.001,-0.001 -0.001,-0.001 h -5.16e-4 c -2.85e-4,-2.8e-4 -2.27e-4,-0.001 -5.17e-4,-0.001 h -5.17e-4 c -7.02e-4,-8.1e-4 -0.0013,-0.002 -0.0021,-0.003 l -5.17e-4,-5.2e-4 c -0.0024,-0.004 -0.0047,-0.007 -0.0067,-0.0109 z" />
    <path
       id="path6871"
       style="fill:#000000;stroke-width:0.874001"
       d="m 62.24633,174.49271 -0.10697,0.0455 c 0.01791,0.0359 0.03762,0.0791 0.06098,0.11214 0.0086,0.0121 0.01793,0.0249 0.02997,0.0336 0.0085,0.006 0.01997,0.006 0.02997,0.01 l 0.02894,-0.016 c 0.0028,-0.01 0.0084,-0.0179 0.0083,-0.0279 -7.2e-5,-0.0136 -0.0049,-0.0273 -0.0088,-0.0403 -0.0054,-0.0182 -0.03656,-0.10076 -0.04237,-0.11627 z" />
    <path
       id="path6873"
       style="fill:#000000;stroke-width:0.874001"
       d="m 61.818449,173.68552 c -0.0038,0.003 -0.0076,0.005 -0.01137,0.008 -0.0021,0.008 -0.0054,0.0164 -0.0062,0.0248 -7.94e-4,0.008 8.44e-4,0.0163 0.0015,0.0243 0.0041,0.037 0.01145,0.074 0.03152,0.10593 0.02643,0.042 0.05992,0.0875 0.09767,0.11989 0.009,0.008 0.01938,0.0145 0.02894,0.0217 0.0105,0.004 0.02071,0.01 0.03152,0.0129 4.25e-4,1.2e-4 0.001,3.3e-4 0.0015,5.1e-4 6.03e-4,0.0113 0.001,0.0176 0.0041,0.005 l 0.02739,-0.001 c -0.01889,-0.0245 -0.03704,-0.0482 -0.05788,-0.0775 -0.0499,-0.0702 -0.09377,-0.14484 -0.135392,-0.22014 -0.0045,-0.008 -0.009,-0.0158 -0.01344,-0.0238 z m 0.167948,0.27802 c 0.004,7.1e-4 0.0054,0.014 0.0062,0.0269 -0.003,-0.003 -0.0061,-0.006 -0.0078,-0.009 -0.0024,-0.005 -0.0052,-0.0136 -5.17e-4,-0.017 7.79e-4,-5.6e-4 0.0014,-6.3e-4 0.0021,-5.2e-4 z" />
    <path
       id="path6875"
       style="fill:#000000;stroke-width:0.874001"
       d="m 62.100602,174.10307 c 0.02232,0.0476 0.04103,0.0967 0.06253,0.14469 0.01937,0.0432 0.03058,0.0707 0.06253,0.10542 0.0096,0.0105 0.022,0.018 0.03307,0.0269 l 0.02997,-0.0119 c 0.0013,-0.012 0.004,-0.0238 0.0047,-0.0357 -0.06585,-0.0752 -0.129958,-0.15173 -0.192753,-0.22944 z" />
    <path
       id="path6877"
       style="fill:#000000;stroke-width:0.874001"
       d="m 62.149178,174.16301 c 4.57e-4,0.002 0.0012,0.004 0.0021,0.006 0.0026,0.008 0.0058,0.0162 0.0088,0.0243 0.01754,0.034 0.02997,0.0906 0.06666,0.10956 0.0087,0.005 0.01933,0.004 0.02894,0.006 l 0.01188,-0.007 c -0.03985,-0.0461 -0.07964,-0.092 -0.118339,-0.13901 z" />
    <path
       id="path6879"
       style="fill:#000000;stroke-width:0.874001"
       d="m 62.120756,174.12736 c 0.0031,0.008 0.0058,0.0159 0.0067,0.0186 0.0068,0.0207 0.0126,0.0407 0.02067,0.061 0.0079,0.0233 0.01358,0.0473 0.02067,0.0708 0.0026,0.009 0.0058,0.017 0.0083,0.0258 0.0021,0.007 0.0035,0.0142 0.0052,0.0212 0.0021,0.007 0.0041,0.0141 0.0062,0.0212 0.0093,0.0325 0.02618,0.0621 0.03824,0.0935 0.0065,0.0168 0.01204,0.0343 0.01809,0.0512 0.01275,0.0323 0.02829,0.0719 0.05426,0.0961 0.01244,0.0116 0.02831,0.0189 0.04237,0.0284 l 0.05323,-0.0196 c 0.0042,-0.0175 0.01116,-0.0343 0.0124,-0.0522 0.0024,-0.0349 -0.0145,-0.0725 -0.02532,-0.1049 -0.0017,-0.004 -0.003,-0.008 -0.0047,-0.0124 -0.08859,-0.0967 -0.173533,-0.19694 -0.256315,-0.29869 z" />
    <path
       id="path6881"
       style="fill:#000000;stroke-width:0.874001"
       d="m 62.740356,175.12833 c -1.8e-5,6.7e-4 2.7e-5,0.001 0,0.002 -2.12e-4,0.005 -9e-4,0.0102 -0.0016,0.0155 -1.38e-4,0.005 0.0018,0.0498 0.0021,0.0517 0.0028,0.0366 0.0069,0.0727 0.0124,0.10904 0.0049,0.0326 0.0073,0.0535 0.01964,0.0842 0.005,0.0124 0.01201,0.0239 0.01809,0.0357 0.0404,0.0354 0.02683,0.0173 0.04703,0.0496 l 0.03566,-0.005 c 0.0091,-0.0365 0.0034,-0.0202 0.02222,-0.0574 -0.0097,-0.0171 -0.01927,-0.0345 -0.02894,-0.0517 -0.04303,-0.0774 -0.08579,-0.15492 -0.126608,-0.23358 z" />
    <path
       id="path6883"
       style="fill:#000000;stroke-width:0.874001"
       d="m 62.296973,174.33716 c 0.0044,0.0295 0.0081,0.0591 0.01033,0.0889 v 5.1e-4 0.001 c 9.87e-4,0.0137 0.0015,0.0271 0.0021,0.0408 0.01081,-7.7e-4 0.02169,-0.001 0.03256,-0.002 0.0021,0.003 0.0046,0.005 0.0067,0.008 -0.0095,0.002 -0.01047,0.003 5.17e-4,5.2e-4 0.01159,0.0142 0.02301,0.0272 0.03566,0.0403 0.02249,0.0198 0.03795,0.0475 0.05633,0.0708 0.0113,0.0132 0.02276,0.0258 0.03307,0.0398 0.01389,0.0188 0.01113,0.0161 0.02429,0.0367 0.0039,0.006 0.0079,0.0125 0.01188,0.0186 0.01729,0.0262 0.03479,0.0525 0.05374,0.0775 -0.03232,-0.0732 -0.06333,-0.14711 -0.0925,-0.22169 -0.0028,-0.007 -0.0055,-0.0147 -0.0083,-0.0217 -0.01699,-0.0172 -0.03384,-0.0348 -0.05064,-0.0522 -0.0018,-0.002 -0.0039,-0.004 -0.0057,-0.006 -4.1e-4,1.9e-4 -0.001,3.1e-4 -0.001,5.2e-4 -5.09e-4,2.5e-4 -1.5e-5,2.7e-4 -0.0016,5.2e-4 l 5.16e-4,-0.001 c -2.58e-4,-5e-5 -0.001,-5e-5 -0.001,0 3.56e-4,-1.4e-4 0.001,-3.8e-4 0.001,-5.2e-4 v 5.2e-4 h 5.17e-4 c 5.19e-4,-1e-5 2e-4,-1e-5 0.0016,0 -0.0096,-0.0103 -0.01891,-0.0206 -0.02842,-0.031 1.8e-4,6e-4 3.17e-4,0.001 5.17e-4,0.002 -0.0084,0.002 -0.01766,0.003 -0.03772,0.002 -0.0011,-5e-5 -0.0016,-0.003 -5.16e-4,-0.003 0.0021,-10e-4 0.02482,-0.004 0.02894,-0.005 0.0015,-1.9e-4 0.003,-2.8e-4 0.0047,-5.2e-4 -6.59e-4,-7.2e-4 -0.0014,-0.001 -0.0021,-0.002 -0.0061,-0.001 -0.01535,-0.004 -0.01809,-0.006 0.0048,2.5e-4 0.0097,9e-4 0.01447,0.002 -0.02382,-0.0261 -0.04847,-0.0519 -0.07183,-0.0785 z m 0.0124,0.13178 c -0.0098,6.9e-4 -0.01928,0.001 -0.02894,0.003 -0.0013,2.5e-4 -0.0017,0.001 -0.0016,0.002 0.0045,0.005 0.03122,0.0122 0.03101,0.006 -1.24e-4,-0.003 -3.68e-4,-0.007 -5.17e-4,-0.0103 z m 0.501261,0.79116 c 7.82e-4,0.0178 1.44e-4,0.035 0.0016,0.0527 7.93e-4,0.0103 0.0014,0.0207 0.0031,0.031 7.94e-4,0.005 0.0025,0.0106 0.0031,0.015 0.0041,0.037 -0.0028,0.0741 -0.0031,0.1111 l 0.10387,0.0124 v -0.001 c 0.0017,-0.008 0.0028,-0.0128 0.0041,-0.0191 -0.01896,-0.0328 -0.03774,-0.0657 -0.05633,-0.0987 -0.01904,-0.0342 -0.03762,-0.0689 -0.05633,-0.10336 z" />
    <path
       id="path6891"
       style="fill:#000000;stroke-width:0.874001"
       d="m 62.355367,174.79915 -0.02791,0.0196 c 0.01073,0.0166 0.02068,0.034 0.03049,0.0512 0.03778,0.0662 0.07045,0.13512 0.102836,0.20412 0.01757,0.0382 0.03385,0.0773 0.04961,0.11627 9.59e-4,0.002 0.0016,0.005 0.0026,0.007 0.0145,0.0334 0.02874,0.0669 0.04082,0.10128 0.0012,0.003 0.0024,0.006 0.0036,0.009 0.0085,0.0223 0.01364,0.0335 0.01809,0.0491 0.0045,0.0116 0.0087,0.0233 0.0124,0.0351 6.09e-4,0.001 8.26e-4,0.003 0.0016,0.005 0.0017,0.004 0.0033,0.008 0.0047,0.0119 0.0028,0.008 0.005,0.0158 0.0072,0.0238 0.01426,0.0235 0.02898,0.0472 0.04393,0.0703 0.02779,0.0414 0.05457,0.0832 0.07803,0.12712 8e-6,-0.001 -1.5e-5,-0.002 0,-0.003 -0.0019,-0.0123 -0.0034,-0.0246 -0.0062,-0.0367 -0.0052,-0.0225 -0.0094,-0.0271 -0.0186,-0.0465 -0.01294,-0.0275 -0.02591,-0.0539 -0.04031,-0.0806 -0.01664,-0.0356 -0.03275,-0.0717 -0.04909,-0.10749 -0.0068,-0.0149 -0.02298,-0.0487 -0.02946,-0.0641 -0.0053,-0.0125 -0.01005,-0.0251 -0.01499,-0.0377 -0.03522,-0.0827 -0.06661,-0.16712 -0.0956,-0.25218 -0.0072,-0.0256 -0.01492,-0.0499 -0.02687,-0.0739 -0.02278,-0.0457 -0.054,-0.0862 -0.08682,-0.12506 z" />
    <path
       id="path6893"
       style="fill:#000000;stroke-width:0.874001"
       d="m 62.450452,174.94953 -0.04134,0.0165 c 0.01777,0.0356 0.03475,0.072 0.05168,0.10801 0.01633,0.0355 0.0313,0.0718 0.04599,0.108 0.0011,0.003 0.0025,0.005 0.0036,0.008 3.67e-4,8.4e-4 6.68e-4,0.002 0.001,0.003 0.01613,0.0371 0.03241,0.0743 0.04548,0.11266 2.09e-4,5e-4 3.08e-4,0.001 5.17e-4,0.002 1.76e-4,5.2e-4 3.41e-4,0.001 5.17e-4,0.002 0.0079,0.0206 0.01281,0.0319 0.01705,0.0465 0.0046,0.0118 0.0091,0.0235 0.01292,0.0357 6.09e-4,0.001 8.26e-4,0.003 0.0016,0.005 0.0017,0.004 0.0033,0.008 0.0047,0.0119 0.0028,0.008 0.005,0.0158 0.0072,0.0238 0.01426,0.0235 0.02898,0.0467 0.04393,0.0698 0.03317,0.0494 0.06523,0.0995 0.09147,0.15296 0.02188,0.0456 0.03879,0.0931 0.05581,0.14056 0.01223,0.0352 0.02454,0.0702 0.03669,0.10542 0.01401,0.0391 0.02604,0.079 0.03721,0.11886 0.01253,0.0436 0.02084,0.0881 0.02842,0.13281 l 0.01499,-0.006 c 0.0016,-0.007 0.0031,-0.0144 0.0047,-0.0217 0.0081,-0.0144 0.01916,-0.0272 0.02429,-0.0429 0.0029,-0.009 4.6e-4,-0.0185 -5.17e-4,-0.0279 -0.003,-0.0231 -0.0056,-0.0243 -0.01499,-0.0434 -0.01762,-0.0358 -0.0087,-0.019 -0.02946,-0.0584 -0.03078,-0.0604 -0.05846,-0.12206 -0.0894,-0.18242 -0.0043,-0.008 -0.0089,-0.0162 -0.01292,-0.0248 -0.02506,-0.0534 -0.04207,-0.11082 -0.07131,-0.16227 -0.0083,-0.0161 -0.02924,-0.0569 -0.03566,-0.0708 -0.03133,-0.068 -0.05674,-0.13851 -0.08888,-0.20619 -0.01926,-0.0444 -0.03849,-0.0887 -0.05581,-0.13384 -0.0282,-0.0735 -0.05304,-0.14825 -0.08888,-0.21859 z" />
    <path
       id="path6899"
       style="fill:#000000;stroke-width:0.874001"
       d="m 62.709867,175.25442 -0.12764,0.0501 c 0.0019,0.0293 0.0038,0.0663 0.0083,0.0935 0.0012,0.003 0.0026,0.006 0.0036,0.009 0.0028,0.008 0.005,0.0155 0.0072,0.0233 0.01434,0.0237 0.02888,0.0471 0.04393,0.0703 0.03317,0.0494 0.06523,0.0995 0.09147,0.15296 0.0072,0.0151 0.01382,0.0306 0.02015,0.046 l 0.04909,-0.015 c -0.0016,-0.0691 -0.008,-0.0302 0.03617,-0.11266 -0.0027,-0.0124 -0.0045,-0.0249 -0.0078,-0.0372 -0.0098,-0.0357 -0.02703,-0.0824 -0.04031,-0.11576 -0.0099,-0.025 -0.01982,-0.0502 -0.03152,-0.0744 -0.01842,-0.0381 -0.03162,-0.0577 -0.05271,-0.0899 z" />
    <path
       id="path6903"
       style="fill:#000000;stroke-width:0.874001"
       d="m 62.624084,175.20429 -0.08837,0.0455 c 3.5e-4,8.6e-4 7.17e-4,0.002 0.001,0.003 0.0061,0.0151 0.01172,0.0301 0.01705,0.0455 0.0012,0.003 0.0024,0.006 0.0036,0.009 0.0084,0.022 0.01317,0.0333 0.01757,0.0486 0.0044,0.0114 0.0087,0.023 0.0124,0.0346 1.68e-4,5.3e-4 3.51e-4,0.001 5.17e-4,0.002 0.0023,0.006 0.0045,0.0108 0.0062,0.0155 0.0029,0.008 0.0054,0.0165 0.0078,0.0248 0.01411,0.0232 0.02869,0.0459 0.04341,0.0687 0.03317,0.0494 0.06523,0.0995 0.09147,0.15296 0.02188,0.0456 0.03879,0.0931 0.05581,0.14056 0.01223,0.0352 0.02454,0.0702 0.03669,0.10542 1.29e-4,3.6e-4 3.88e-4,8.7e-4 5.17e-4,0.001 l 0.04393,-0.0212 c 0.01878,-0.0573 0.0173,-0.0291 0.0067,-0.0853 -0.0039,-0.0147 -0.008,-0.0291 -0.01137,-0.0439 -0.0105,-0.0467 -0.009,-0.0521 -0.01757,-0.0987 -0.003,-0.0163 -0.0057,-0.0326 -0.0098,-0.0486 -0.01206,-0.0471 -0.02145,-0.0655 -0.04031,-0.11214 -0.014,-0.0305 -0.0434,-0.0966 -0.05994,-0.12557 -0.01397,-0.0245 -0.04519,-0.0685 -0.06408,-0.093 -0.0098,-0.0127 -0.01988,-0.0248 -0.02997,-0.0372 -0.0076,-0.0101 -0.01564,-0.0204 -0.02325,-0.0305 z" />
    <path
       id="path6905"
       style="fill:#000000;stroke-width:0.874001"
       d="m 62.888668,176.11587 c 0.0023,0.0125 0.0046,0.0251 0.0067,0.0377 0.006,0.0357 0.0083,0.0722 0.0093,0.10852 l 0.05839,-0.0274 c -0.01384,-0.0277 -0.02255,-0.0578 -0.03566,-0.0858 -0.0044,-0.01 -0.0072,-0.021 -0.0155,-0.0274 -0.0064,-0.005 -0.01501,-0.005 -0.02325,-0.006 z" />
    <path
       id="path6907"
       style="fill:#000000;stroke-width:0.874001"
       d="m 62.894352,176.11328 -0.0057,0.004 c 0.0023,0.0122 0.0046,0.0244 0.0067,0.0367 0.006,0.0356 0.0083,0.0718 0.0093,0.108 l 0.09819,-0.0548 v -5.2e-4 c -0.06255,-0.0671 -0.02698,-0.0351 -0.108521,-0.093 z" />
    <path
       id="path6909"
       style="fill:#000000;stroke-width:0.874001"
       d="m 62.8835,176.08796 c 0.0045,0.0217 0.0082,0.0437 0.01189,0.0656 0.01,0.059 0.0099,0.11962 0.01033,0.17932 1.3e-5,0.001 -1.4e-5,0.003 0,0.004 0.0039,0.006 0.0076,0.0115 0.01395,0.0212 l 0.112138,-0.0677 c -0.01704,-0.0342 -0.03158,-0.0643 -0.05116,-0.0977 -0.0095,-0.0162 -0.01875,-0.0325 -0.02997,-0.0475 -0.01745,-0.0234 -0.0385,-0.0472 -0.06718,-0.0574 z" />
    <path
       id="path6911"
       style="fill:#000000;stroke-width:0.874001"
       d="m 62.311959,174.64567 -5.17e-4,0.001 -5.17e-4,0.001 c -0.0014,-2e-5 -0.0027,4.1e-4 -0.0041,5.1e-4 l -5.17e-4,5.2e-4 c -0.0082,6.3e-4 -0.01609,0.002 -0.02429,0.004 l -0.05116,0.0248 c -0.0087,0.006 -0.01847,0.0107 -0.02635,0.0176 -0.0088,0.008 -0.01409,0.0207 -0.01602,0.032 -7.93e-4,0.004 -3.7e-4,0.0181 0.0016,0.0227 5.29e-4,0.002 0.0016,0.003 0.0026,0.005 0.0067,0.0182 0.01259,0.0362 0.01809,0.0548 0.0085,0.0208 0.0031,0.008 0.01137,0.0258 0.0021,0.005 0.0042,0.0101 0.0067,0.0145 0.0011,0.002 0.0025,0.004 0.0036,0.006 3.72e-4,7e-4 6.97e-4,0.001 0.001,0.002 -1.7e-5,-7e-4 1.8e-5,-0.001 0,-0.002 -2.04e-4,-0.007 2.23e-4,-0.0137 5.16e-4,-0.0207 5e-4,-0.007 0.0014,-0.0137 0.0021,-0.0207 1.57e-4,-0.002 -1.42e-4,-0.003 0,-0.005 v -5.1e-4 c -4.2e-5,-5.2e-4 4.1e-5,-0.001 0,-0.002 -4.63e-4,-0.006 -8.71e-4,-0.0121 -0.001,-0.0181 -3.35e-4,-0.009 -4.09e-4,-0.0179 5.17e-4,-0.0269 4e-4,-0.004 5.52e-4,-0.008 0.0016,-0.0124 1.35e-4,0 3.27e-4,-4.6e-4 5.17e-4,-0.001 v -5.2e-4 c 7.86e-4,-3.1e-4 0.0018,-8.3e-4 0.0026,-0.001 7.66e-4,-0.002 0.0019,-0.003 0.0041,-0.004 0.0022,-0.003 0.0055,-0.004 0.0093,-0.005 0.0072,-4.8e-4 0.01652,0.004 0.02636,0.0155 0.03053,0.0349 0.05507,0.0746 0.07803,0.11473 0.03778,0.0662 0.07045,0.13512 0.102836,0.20412 0.01633,0.0355 0.0313,0.0718 0.04599,0.108 0.0011,0.003 0.0025,0.005 0.0036,0.008 v 0.001 c 0.01599,0.0368 0.03189,0.0737 0.04496,0.11162 6.49e-4,0.002 0.0014,0.003 0.0021,0.005 v 5.1e-4 c 0.0078,0.0202 0.0129,0.0311 0.01705,0.045 2.01e-4,5.1e-4 3.18e-4,0.001 5.17e-4,0.002 0.0048,0.0121 0.009,0.0243 0.01292,0.0367 6.09e-4,0.001 0.0014,0.003 0.0021,0.005 0.0017,0.004 0.0033,0.008 0.0047,0.0119 0.0028,0.008 0.005,0.0158 0.0072,0.0238 0.01426,0.0235 0.02898,0.0467 0.04393,0.0698 0.03317,0.0494 0.06523,0.0995 0.09147,0.15296 0.02188,0.0456 0.03879,0.0931 0.05581,0.14056 0.01223,0.0352 0.02454,0.0702 0.03669,0.10542 0.01401,0.0391 0.02604,0.079 0.03721,0.11885 0.01277,0.0445 0.02124,0.0898 0.02894,0.1354 0.01,0.059 0.0099,0.11961 0.01034,0.17931 1.61e-4,0.0169 3.85e-4,0.0337 5.17e-4,0.0507 0.0067,0.005 0.01393,0.0105 0.02119,0.0155 l 0.109554,-0.0961 v -0.001 c -0.0019,-0.004 -0.01343,-0.0306 -0.01499,-0.0362 -0.0011,-0.004 -0.001,-0.007 -0.001,-0.0114 -5.29e-4,-0.003 -0.0029,-0.0184 -0.0031,-0.0191 -0.0016,-0.005 -0.0041,-0.01 -0.0062,-0.015 -0.0019,-0.004 -0.0041,-0.007 -0.0057,-0.0114 -0.0029,-0.007 -0.0055,-0.013 -0.0083,-0.0202 -0.005,-0.0122 -0.01036,-0.0248 -0.01602,-0.0367 -0.0053,-0.009 -0.0098,-0.0175 -0.01499,-0.0264 -0.0036,-0.006 -0.0044,-0.007 -0.0067,-0.0124 -8.5e-5,-5.3e-4 -2.53e-4,-5.5e-4 -5.17e-4,-0.002 -5.3e-4,-10e-4 -8.44e-4,-0.002 -0.0021,-0.003 -0.0016,-0.004 -0.0022,-0.008 -0.0036,-0.0114 -0.0021,-0.005 -0.0046,-0.0101 -0.0067,-0.0145 -0.0021,-0.005 -0.0035,-0.0101 -0.0057,-0.015 -0.0024,-0.005 -0.0075,-0.0143 -0.01034,-0.0196 -0.006,-0.01 -0.01023,-0.02 -0.01447,-0.0305 -0.001,-0.002 -0.0023,-0.004 -0.0026,-0.005 l -5.17e-4,-5.2e-4 c -4.09e-4,-8.6e-4 -0.0011,-0.003 -0.0021,-0.007 -5.29e-4,-0.002 -0.0021,-0.004 -0.0026,-0.006 -2.65e-4,-0.002 -2.51e-4,-0.003 -5.16e-4,-0.005 -7.93e-4,-0.004 -0.0018,-0.009 -0.0031,-0.0129 -7.92e-4,-0.002 -0.0021,-0.005 -0.0026,-0.007 -5.3e-4,-0.002 -0.001,-0.0129 -0.001,-0.014 -0.0016,-0.014 -0.0042,-0.0284 -0.0062,-0.0424 -7.94e-4,-0.004 -0.0018,-0.007 -0.0026,-0.0103 -5.29e-4,-0.003 -4.6e-5,-0.006 -5.17e-4,-0.0103 -0.0013,-0.0122 -0.0018,-0.0246 -0.0036,-0.0367 -7.94e-4,-0.005 -0.0016,-0.0101 -0.0026,-0.0145 -2.65e-4,-0.004 -3.86e-4,-0.009 -5.17e-4,-0.0134 -0.0011,-0.0112 -0.0025,-0.0225 -0.0036,-0.0336 -0.0021,-0.0197 -0.0021,-0.0165 -0.0031,-0.0403 -0.0064,-0.036 -0.01195,-0.0721 -0.01602,-0.10852 -0.0065,-0.0498 -0.01464,-0.10026 -0.03307,-0.14728 -0.0046,-0.0116 -0.01,-0.0232 -0.01499,-0.0346 -0.0082,-0.0184 -0.01785,-0.0359 -0.02635,-0.0543 -0.0064,-0.0138 -0.0115,-0.0282 -0.01809,-0.0419 -0.0036,-0.007 -0.0075,-0.0144 -0.01137,-0.0217 -0.0039,-0.007 -0.008,-0.0148 -0.01189,-0.0222 -0.01609,-0.0319 -0.03161,-0.064 -0.04754,-0.0961 -0.0067,-0.0132 -0.01311,-0.0268 -0.02015,-0.0398 -0.01127,-0.0209 -0.0044,-0.005 -0.01602,-0.0279 -0.0029,-0.006 -0.0056,-0.0118 -0.0083,-0.0176 -0.0084,-0.0189 -0.02079,-0.0356 -0.03152,-0.0532 -0.0034,-0.006 -0.006,-0.0118 -0.0093,-0.0176 -0.0096,-0.012 -0.01815,-0.0253 -0.02791,-0.0372 -0.0062,-0.008 -0.0133,-0.0142 -0.02015,-0.0212 -0.0049,-0.008 -0.01168,-0.014 -0.01705,-0.0212 -0.003,-0.004 -0.0061,-0.008 -0.0088,-0.0124 -0.0071,-0.0107 -0.01424,-0.0203 -0.02067,-0.0315 -0.01328,-0.0215 8.43e-4,-6.1e-4 -0.01344,-0.0212 -0.0024,-0.003 -0.0047,-0.007 -0.0072,-0.0124 -0.0026,-0.004 -0.0057,-0.007 -0.0083,-0.0114 -0.0044,-0.006 -0.0053,-0.008 -0.0062,-0.0103 l -5.17e-4,-5.2e-4 c 4.5e-4,7.5e-4 -9.63e-4,-6.2e-4 -0.001,-0.002 -7.57e-4,-0.001 -0.0019,-0.003 -0.0057,-0.008 -0.0088,-0.0139 -0.01931,-0.0272 -0.02997,-0.0398 v -5.2e-4 l -5.17e-4,-5.1e-4 c -8.1e-5,-3.2e-4 9.4e-5,-0.001 0,-0.001 -0.0011,-0.002 -0.0024,-0.004 -0.0036,-0.006 -0.0041,-0.01 -0.0073,-0.0201 -0.01137,-0.03 -0.0034,-0.008 -0.0076,-0.0156 -0.01189,-0.0233 -0.0011,-0.002 -0.0022,-0.003 -0.0031,-0.005 -0.0019,-0.003 -0.0025,-0.005 -0.0026,-0.005 v -5.2e-4 c -5.18e-4,-6.9e-4 -0.0023,-0.002 -0.0052,-0.007 -7.94e-4,-0.002 -0.0023,-0.003 -0.0031,-0.004 -0.0013,-0.003 -0.0016,-0.006 -0.0031,-0.009 -0.0019,-0.005 -0.0059,-0.008 -0.0083,-0.0124 -0.0011,-0.002 -0.0024,-0.005 -0.0031,-0.007 -0.0063,-0.0134 -0.0099,-0.0272 -0.0155,-0.0408 -0.0035,-0.009 -0.0071,-0.0161 -0.01137,-0.0243 -0.0013,-0.003 -0.0018,-0.005 -0.0036,-0.008 -0.0011,-0.002 -0.004,-0.002 -0.0057,-0.003 -0.0097,-0.007 -0.0074,-0.006 -0.02119,-0.009 -0.0064,-0.002 -0.013,-0.005 -0.01964,-0.005 -0.0014,-2e-5 -0.0018,-5e-4 -0.0031,-5.2e-4 z" />
    <path
       style="fill:#000000;stroke-width:0.874001"
       id="path7870"
       d="m 62.70154,191.78912 c 0.369207,-0.50527 0.724498,-1.07473 1.267849,-1.41765 0.197974,-0.12495 0.54312,-0.19622 0.770982,-0.27212 0.675444,-0.32821 1.292127,-0.76417 1.936663,-1.14784 0.572905,-0.28929 1.086646,-0.6749 1.623314,-1.02356 0.505396,-0.32432 1.054161,-0.56756 1.569315,-0.87473 0.653817,-0.44735 1.308968,-0.89272 1.96606,-1.33526 0.686602,-0.47624 1.348939,-0.9863 2.024087,-1.47866 0.878456,-0.60926 1.601658,-1.41076 2.467417,-2.03573 0.179556,-0.12962 0.369562,-0.24411 0.554344,-0.36616 0.167516,-0.095 0.332978,-0.19362 0.502552,-0.28485 0.236339,-0.12715 0.482463,-0.23547 0.719188,-0.3619 0.392861,-0.20981 0.774565,-0.44205 1.162952,-0.66 0.403122,-0.24149 0.840296,-0.41421 1.262018,-0.61806 0,0 -0.0074,-0.0186 -0.0074,-0.0186 v 0 c -0.449802,0.14406 -0.877575,0.34285 -1.286142,0.58043 -0.38753,0.21747 -0.76759,0.45106 -1.159568,0.6604 -0.06765,0.0361 -0.684223,0.34191 -0.722384,0.3625 -0.170712,0.0921 -0.337129,0.19195 -0.505693,0.28793 -0.551214,0.36549 -0.593047,0.37198 -1.109358,0.80232 -0.638712,0.53235 -1.227354,1.12847 -1.913583,1.60277 -0.674574,0.49194 -1.334548,1.00382 -2.021687,1.47818 -0.656251,0.44196 -1.308245,0.89012 -1.962372,1.33522 -0.51471,0.30912 -1.064837,0.55183 -1.570156,0.87756 -0.534461,0.35057 -1.049409,0.733 -1.620862,1.02317 -0.641151,0.38171 -1.254778,0.81535 -1.925976,1.14296 -0.243297,0.0811 -0.573513,0.14504 -0.787606,0.2811 -0.547177,0.34772 -0.907323,0.92113 -1.277686,1.4329 0,0 0.04375,0.0276 0.04375,0.0276 z" />
    <path
       style="fill:#000000;stroke-width:0.874001"
       id="path7872"
       d="m 64.396016,185.0132 c 0.263668,-0.13536 0.52523,-0.2749 0.791006,-0.40608 0.504926,-0.24922 0.786088,-0.38016 1.286701,-0.57298 0.248295,-0.0956 0.692078,-0.24084 0.936418,-0.33177 0.223616,-0.0832 0.444992,-0.17233 0.667488,-0.2585 0.974019,-0.39014 1.962058,-0.74964 2.878347,-1.26669 0.185364,-0.1046 0.962379,-0.5832 1.171953,-0.71173 0.127043,-0.0708 0.252307,-0.14483 0.381122,-0.21231 0.358336,-0.18772 0.730266,-0.33929 1.078217,-0.54799 0.344389,-0.20656 0.548412,-0.35801 0.881785,-0.59059 0.723148,-0.5206 1.439523,-1.05384 2.216255,-1.49382 0.203219,-0.11511 0.413047,-0.21815 0.61957,-0.32722 1.262597,-0.5316 2.613689,-0.87247 3.807444,-1.56163 0.115358,-0.0666 0.221496,-0.14803 0.332245,-0.22204 0.522931,-0.44354 1.094415,-0.81963 1.728187,-1.08509 0.2726,-0.11417 0.896014,-0.31947 1.161928,-0.40958 0.748181,-0.24061 1.447623,-0.59461 2.121644,-0.99372 0,0 -0.0094,-0.0177 -0.0094,-0.0177 v 0 c -0.704024,0.33295 -1.382752,0.72405 -2.131422,0.95498 -0.271963,0.0926 -0.890048,0.29702 -1.167347,0.41387 -0.635786,0.26791 -1.209882,0.64498 -1.734556,1.09093 -0.109008,0.073 -0.213429,0.15333 -0.327025,0.21894 -1.193652,0.68947 -2.544622,1.03064 -3.806801,1.56351 -0.207436,0.10958 -0.418264,0.21298 -0.622305,0.32876 -0.777269,0.44108 -1.493893,0.97636 -2.217455,1.4981 -0.407312,0.28315 -0.810746,0.56567 -1.252421,0.7939 -0.03155,0.0163 -0.656275,0.31207 -0.705596,0.33769 -0.129746,0.0674 -0.255749,0.14176 -0.383624,0.21264 -0.131734,0.0802 -1.075106,0.65575 -1.169374,0.70913 -0.913702,0.5174 -1.900126,0.87473 -2.871491,1.26571 -0.221964,0.086 -0.44287,0.17472 -0.66589,0.25791 -0.220697,0.0823 -0.712264,0.24677 -0.938295,0.33458 -0.493223,0.19159 -0.794858,0.33268 -1.28914,0.5784 -0.265618,0.13204 -0.526875,0.27268 -0.790313,0.40902 0,0 0.02212,0.0413 0.02212,0.0413 z" />
    <path
       style="fill:#000000;stroke-width:0.874001"
       id="path7874"
       d="m 100.25038,166.12804 c -0.756772,0.3259 -1.464789,0.74702 -2.136417,1.22206 -0.509749,0.36054 -0.99432,0.75966 -1.496087,1.1314 -0.777507,0.55609 -1.540674,1.13403 -2.255287,1.76989 -0.398804,0.35485 -0.764799,0.74179 -1.14399,1.11666 -0.809209,0.72919 -1.628584,1.44738 -2.443188,2.1707 -0.552998,0.51342 -1.189816,0.9381 -1.660152,1.53411 -0.01971,0.0399 -0.03944,0.0798 -0.05917,0.11967 0,0 0.04783,0.0303 0.04783,0.0303 v 0 c 0.02537,-0.0312 0.05077,-0.0624 0.07615,-0.0936 0.521277,-0.54161 1.112451,-1.00389 1.673796,-1.50219 0.816131,-0.72468 1.635882,-1.44564 2.44575,-2.17711 0.377132,-0.37287 0.740035,-0.7592 1.135783,-1.1131 0.711319,-0.63612 1.471826,-1.21377 2.242791,-1.77491 0.496768,-0.37644 0.97595,-0.78007 1.48128,-1.14482 0.663593,-0.47898 1.364128,-0.90311 2.114411,-1.23333 0,0 -0.0235,-0.0558 -0.0235,-0.0558 z" />
    <path
       style="fill:#000000;stroke-width:0.874001"
       id="path7876"
       d="m 104.71124,163.38817 c 0.47399,-0.4657 0.95356,-0.96142 1.54791,-1.27755 0.28179,-0.14989 0.60396,-0.18187 0.91055,-0.24792 0.63326,-0.19176 1.21918,-0.51029 1.86166,-0.67613 0.31127,-0.0803 0.63461,-0.12101 0.95166,-0.16893 0.70922,-0.11117 1.38464,-0.36063 2.04653,-0.63004 0.45636,-0.18576 0.77597,-0.33255 1.19892,-0.56644 0.15589,-0.0862 0.30637,-0.18182 0.45955,-0.27273 0.63349,-0.39434 1.25774,-0.80673 1.92212,-1.14834 0.24814,-0.1276 0.50172,-0.24432 0.75251,-0.36663 0.12635,-0.0637 0.25186,-0.12912 0.37905,-0.19114 1.0703,-0.52185 -0.10908,0.0668 1.09243,-0.51516 0.67475,-0.32682 1.33583,-0.6773 1.9955,-1.03317 0.72647,-0.36406 1.37662,-0.84691 2.02316,-1.33344 0.10031,-0.0739 0.20148,-0.14655 0.30095,-0.22155 0.24179,-0.1823 0.47771,-0.37003 0.73131,-0.53631 0.15019,-0.0985 0.43657,-0.27025 0.58493,-0.36027 0.43759,-0.2463 0.88361,-0.48149 1.36229,-0.63865 0.30126,-0.0989 0.42176,-0.11398 0.73545,-0.17839 0.89613,-0.13442 1.75111,-0.43047 2.59393,-0.7524 0.91183,-0.40066 1.84873,-0.73863 2.78273,-1.08301 0,0 -0.0178,-0.0538 -0.0178,-0.0538 v 0 c -0.95599,0.28272 -1.90127,0.6051 -2.81697,1.00091 -0.83506,0.32134 -1.68107,0.62084 -2.56785,0.76499 -0.31466,0.0681 -0.44899,0.0879 -0.75175,0.18924 -0.48447,0.16217 -0.93732,0.40117 -1.38156,0.65021 -0.0272,0.0167 -0.548,0.33611 -0.59058,0.36394 -0.25469,0.1665 -0.4922,0.35484 -0.73427,0.53843 -0.0995,0.0755 -0.20082,0.14866 -0.30123,0.22298 -0.64191,0.48305 -1.28669,0.96342 -2.00849,1.32403 -0.65677,0.35682 -1.31531,0.70685 -1.9882,1.03276 -0.87295,0.42282 -0.30096,0.12829 -1.0955,0.51666 -0.12667,0.0619 -0.2515,0.12756 -0.37725,0.19134 -0.25184,0.12353 -0.50704,0.24033 -0.75647,0.36865 -0.66576,0.34252 -1.28923,0.75922 -1.92373,1.15487 -1.134,0.67353 -2.36197,1.21812 -3.66581,1.4572 -0.30476,0.0474 -0.66817,0.0965 -0.96705,0.17351 -0.63928,0.16474 -1.22377,0.47882 -1.85213,0.67462 -0.32059,0.0691 -0.65119,0.10459 -0.94557,0.2625 -0.60015,0.32195 -1.08248,0.82652 -1.56238,1.29716 0,0 0.0715,0.068 0.0715,0.068 z" />
    <path
       style="fill:#000000;stroke-width:0.874001"
       id="path7878"
       d="m 140.96633,144.67661 c -0.93344,0.40214 -1.85113,0.84031 -2.78525,1.24081 -0.56834,0.2682 -1.12681,0.55661 -1.69746,0.82044 -0.58142,0.26659 -1.15373,0.55235 -1.73607,0.81687 0,0 0.009,0.0226 0.009,0.0226 v 0 c 0.60506,-0.21299 1.19219,-0.468 1.77122,-0.74379 0.56995,-0.26355 1.12683,-0.55335 1.69307,-0.82382 0.93204,-0.40512 1.84941,-0.84371 2.7831,-1.2452 0,0 -0.0377,-0.088 -0.0377,-0.088 z" />
    <path
       style="fill:#000000;stroke-width:0.874001"
       id="path7880"
       d="m 85.964947,179.04167 c 0.460452,-0.40762 0.918816,-0.84181 1.484511,-1.10292 0.242856,-0.1121 0.521232,-0.13232 0.781645,-0.17336 0.484214,-0.11154 0.908468,-0.37662 1.348147,-0.59614 0.422693,-0.25238 0.842473,-0.50888 1.270675,-0.75213 0.314489,-0.18446 0.567396,-0.44952 0.858353,-0.66554 0.186751,-0.13866 0.245153,-0.16965 0.44545,-0.29535 0.445061,-0.27152 0.910746,-0.50667 1.362001,-0.76736 0.633775,-0.43633 1.3159,-0.7879 1.993842,-1.14791 0.328171,-0.18304 0.628727,-0.41145 0.961938,-0.58592 0.0956,-0.0501 0.426225,-0.19992 0.509958,-0.23832 0.513207,-0.23058 1.00081,-0.51081 1.481534,-0.80172 0.440235,-0.27902 0.903322,-0.51609 1.294876,-0.86398 0.264593,-0.30413 0.530033,-0.60394 0.822323,-0.88269 0.29549,-0.27081 0.59914,-0.53242 0.89634,-0.80137 0.22332,-0.19493 0.48354,-0.34372 0.69229,-0.55473 0.13039,-0.12171 0.26668,-0.23706 0.40318,-0.35198 0.13484,-0.15874 0.29137,-0.25115 0.48188,-0.32956 0.0461,-0.0182 0.0922,-0.0365 0.13825,-0.0547 0,0 -0.005,-0.0193 -0.005,-0.0193 v 0 c -0.05,0.008 -0.1,0.0168 -0.14997,0.0251 -0.22227,0.0649 -0.3565,0.15407 -0.51011,0.32464 -0.13805,0.11624 -0.27764,0.2311 -0.40774,0.35617 -0.20904,0.20877 -0.47263,0.35137 -0.69271,0.5484 -0.29954,0.26746 -0.60634,0.52656 -0.90382,0.79631 -0.2937,0.27618 -0.557928,0.57565 -0.822355,0.87875 -0.386879,0.34484 -0.846257,0.57903 -1.283108,0.85288 -0.477824,0.28917 -0.962221,0.56866 -1.471882,0.7988 -0.08266,0.0382 -0.421894,0.19363 -0.515848,0.24243 -0.33334,0.17315 -0.633841,0.39944 -0.960456,0.58399 -0.678762,0.36048 -1.363236,0.71012 -1.996416,1.14934 -0.453178,0.25959 -0.916974,0.5003 -1.364356,0.76992 -0.188772,0.11857 -0.276616,0.1684 -0.453495,0.29982 -0.287565,0.21367 -0.536171,0.47744 -0.846852,0.66013 -0.42549,0.24593 -0.84437,0.50179 -1.261949,0.76073 -0.42776,0.22681 -0.850654,0.47885 -1.324972,0.59566 -0.268521,0.0423 -0.552445,0.0672 -0.802426,0.18363 -0.569611,0.26539 -1.031457,0.70296 -1.493547,1.11693 0,0 0.04016,0.0413 0.04016,0.0413 z" />
    <path
       style="fill:#000000;stroke-width:0.874001"
       id="path7882"
       d="m 100.64013,168.2281 c 0.26614,-0.3301 0.70114,-0.57568 0.88912,-0.97386 0.0547,-0.11583 -0.002,-0.0867 0.0172,-0.18726 0.005,-0.0275 0.0207,-0.0519 0.0311,-0.0779 0.20313,-0.24532 0.27126,-0.54382 0.36922,-0.8367 0.11654,-0.33044 0.42931,-0.53112 0.57395,-0.84267 0.0439,-0.17472 0.12163,-0.33592 0.18939,-0.50193 0.0785,-0.19385 0.22135,-0.3557 0.35165,-0.51667 0.22569,-0.24738 0.44107,-0.50258 0.65361,-0.76127 0.21417,-0.29423 0.44275,-0.57744 0.6646,-0.86575 0.12414,-0.16286 0.22526,-0.34099 0.34413,-0.50772 0.16065,-0.2195 0.34198,-0.42095 0.53878,-0.60827 0.26266,-0.25575 0.57692,-0.44008 0.90127,-0.60452 0.0392,-0.0263 0.0784,-0.0526 0.11766,-0.0789 0,0 -0.0121,-0.032 -0.0121,-0.032 v 0 c -0.0479,0.007 -0.0958,0.0132 -0.14369,0.0199 -0.36087,0.12301 -0.67344,0.34396 -0.95032,0.60452 -0.20115,0.194 -0.38729,0.40158 -0.55264,0.62728 -0.11798,0.16574 -0.22042,0.34134 -0.34256,0.50394 -0.21795,0.28923 -0.44677,0.57022 -0.65998,0.86308 -0.21445,0.25775 -0.42801,0.51546 -0.6562,0.76135 -0.1368,0.17126 -0.28495,0.34482 -0.36504,0.5512 -0.0637,0.16669 -0.13767,0.32911 -0.17277,0.5052 -0.12481,0.3208 -0.4706,0.51315 -0.56786,0.85412 -0.0469,0.14403 -0.0733,0.29921 -0.13299,0.43864 -0.0606,0.14158 -0.15572,0.26483 -0.23197,0.39763 -0.0117,0.0367 -0.0279,0.0722 -0.0351,0.11 -0.009,0.0482 0.0191,0.0889 -0.003,0.1374 -0.18267,0.39299 -0.61108,0.63383 -0.87127,0.96008 0,0 0.0563,0.061 0.0563,0.061 z" />
    <circle
       id="path7884"
       style="fill:#000000;stroke:#000000;stroke-width:0.264583"
       cx="105.25127"
       cy="167.13454"
       r="0.0098522417" />
    <path
       style="fill:#000000;stroke-width:0.874001"
       id="path7886"
       d="m 105.84883,166.7082 c 1.11116,-0.88219 2.43911,-1.36315 3.75477,-1.84306 0.12215,-0.0493 0.24429,-0.0985 0.36644,-0.14774 0,0 -0.007,-0.0188 -0.007,-0.0188 v 0 c -0.12534,0.0402 -0.25067,0.0804 -0.37601,0.12054 -1.32891,0.46114 -2.65332,0.96798 -3.77096,1.84758 0,0 0.0326,0.0415 0.0326,0.0415 z" />
    <circle
       id="path7888"
       style="fill:#000000;stroke:#000000;stroke-width:0.264583"
       cx="65.437332"
       cy="188.23128"
       r="0.0098522417" />
    <path
       style="fill:#000000;stroke-width:0.874001"
       id="path7890"
       d="m 65.832431,187.75157 c 0.359902,-0.41824 0.663059,-0.88262 1.02127,-1.30213 0.131125,-0.15356 0.289616,-0.2865 0.436367,-0.42446 0.409578,-0.39797 0.827048,-0.78773 1.245317,-1.17652 0.302078,-0.27497 0.666454,-0.46061 1.014421,-0.66826 0.383611,-0.21675 0.784328,-0.39644 1.157589,-0.63111 0.428196,-0.30886 0.894857,-0.55498 1.361236,-0.79953 0.429546,-0.23321 0.843161,-0.50061 1.301821,-0.67426 0.297754,-0.0934 0.583208,-0.22058 0.878406,-0.3221 0.293108,-0.0956 0.565463,-0.2422 0.83669,-0.38644 0.273857,-0.15648 0.554767,-0.29901 0.830937,-0.45119 0.29392,-0.1577 0.599487,-0.29381 0.901004,-0.4366 0.452191,-0.17915 0.877943,-0.41357 1.295612,-0.66109 0.47707,-0.27765 0.929536,-0.59048 1.419645,-0.84562 0.343313,-0.14522 0.186023,-0.084 0.470027,-0.18843 0,0 -0.0078,-0.0303 -0.0078,-0.0303 v 0 c -0.309906,0.0481 -0.14029,0.01 -0.504507,0.13282 -0.110408,0.0513 -0.223687,0.0969 -0.331221,0.15394 -0.381746,0.20266 -0.719651,0.481 -1.10294,0.68179 -0.414753,0.24588 -0.838732,0.47656 -1.285264,0.65998 -0.301929,0.14633 -0.60652,0.28888 -0.902192,0.4471 -0.275775,0.15199 -0.555119,0.29655 -0.830328,0.44975 -0.265957,0.1432 -0.53235,0.28928 -0.820185,0.38457 -0.297092,0.0999 -0.582594,0.22953 -0.881181,0.32414 -0.461926,0.17573 -0.88011,0.44164 -1.311926,0.67879 -0.469575,0.24386 -0.937715,0.49285 -1.367788,0.8033 -0.372297,0.23439 -0.773316,0.41276 -1.154707,0.63164 -0.353203,0.2108 -0.723757,0.40004 -1.027883,0.68199 -0.418515,0.38902 -0.831929,0.78375 -1.240729,1.18293 -0.147833,0.14276 -0.303289,0.28185 -0.433496,0.44159 -0.348448,0.42747 -0.655606,0.88813 -1.003588,1.31598 0,0 0.03536,0.0277 0.03536,0.0277 z" />
    <path
       style="fill:#000000;stroke-width:0.874001"
       id="path7892"
       d="m 80.03864,182.95568 c 0.439529,-0.38849 0.927698,-0.72359 1.359892,-1.12079 0.04045,-0.0372 0.360286,-0.3571 0.360961,-0.35778 0.39783,-0.40702 0.835959,-0.75324 1.153403,-1.22932 0.223459,-0.42567 0.395978,-0.87415 0.618136,-1.30082 0.133921,-0.2181 0.254349,-0.44837 0.426683,-0.64003 0.104349,-0.11606 0.21469,-0.20626 0.331761,-0.30845 0.03805,-0.0288 0.0761,-0.0576 0.114154,-0.0864 0,0 -0.01246,-0.021 -0.01246,-0.021 v 0 c -0.0454,0.0208 -0.09081,0.0416 -0.136215,0.0625 -0.06457,0.0438 -0.133538,0.0819 -0.193702,0.13157 -0.267382,0.221 -0.424013,0.53532 -0.596371,0.82818 -0.213037,0.42955 -0.377105,0.8797 -0.592732,1.30755 -0.04104,0.0629 -0.07857,0.12828 -0.123116,0.18877 -0.280123,0.3804 -0.709822,0.68187 -1.021244,1.03564 -0.119259,0.1189 -0.234897,0.24157 -0.358071,0.35641 -0.429006,0.39999 -0.917829,0.73379 -1.353693,1.12579 0,0 0.02262,0.0282 0.02262,0.0282 z" />
    <path
       style="fill:#000000;stroke-width:0.874001"
       id="path7894"
       d="m 112.98811,157.07991 c 0.69501,-0.36717 1.36507,-0.78368 2.07237,-1.12787 0.52765,-0.25677 1.07471,-0.47105 1.61712,-0.69381 0.33223,-0.15934 0.19219,-0.10038 0.41484,-0.189 0,0 -0.0111,-0.0354 -0.0111,-0.0354 v 0 c -0.23687,0.0561 -0.0878,0.0188 -0.44504,0.11996 -0.55307,0.21079 -1.09915,0.43243 -1.62884,0.69815 -0.70422,0.35326 -1.37162,0.776 -2.06,1.15785 0,0 0.0407,0.0701 0.0407,0.0701 z" />
    <path
       style="fill:#000000;stroke-width:0.874001"
       id="path7896"
       d="m 141.46915,146.44453 c -0.4126,0.18027 -0.83746,0.34771 -1.21849,0.59176 -0.058,0.0372 -0.11047,0.0825 -0.16775,0.12082 -0.18327,0.12255 -0.27404,0.16919 -0.46882,0.27985 -0.58046,0.25911 -1.082,0.64418 -1.59732,1.00851 -0.53885,0.34829 -0.27866,0.18941 -0.77826,0.48041 0,0 0.014,0.0269 0.014,0.0269 v 0 c 0.53138,-0.24416 0.25717,-0.10398 0.81855,-0.42843 0.5217,-0.34916 1.01979,-0.7352 1.59373,-0.99932 0.2153,-0.12537 0.27374,-0.15296 0.47336,-0.29332 0.0539,-0.0379 0.10245,-0.0833 0.15733,-0.11976 0.37342,-0.24835 0.79569,-0.41507 1.20307,-0.59604 0,0 -0.0293,-0.0714 -0.0293,-0.0714 z" />
    <path
       id="path7898"
       style="fill:#000000;stroke-width:0.874001"
       d="m 145.62109,140.02453 c 0.007,0.0555 -0.60186,0.62912 -0.58757,0.74724 0.004,0.0365 0.055,0.0533 0.0661,0.0884 0.004,0.0122 -0.0234,0.0121 -0.0305,0.0227 -0.0216,0.0324 -0.0359,0.0693 -0.0537,0.10387 -0.17796,0.23709 -0.23659,0.51825 -0.32195,0.79427 -0.0715,0.13393 -0.0784,0.28846 -0.11213,0.4346 -0.0595,0.0824 -0.0289,0.17569 -0.0424,0.26717 -0.0227,0.17637 -0.0323,0.35471 -0.0651,0.52968 -0.0226,0.12901 -0.01,0.25966 -0.01,0.38964 0.002,0.12515 -0.0155,0.25122 0.006,0.37517 0.0307,0.0492 0.003,0.13426 -0.0103,0.21291 -0.0163,0.0938 -0.0242,0.1895 -0.031,0.28473 -0.0157,0.0897 -3e-4,0.18235 -0.0202,0.27182 -3.9e-4,6.6e-4 -6.5e-4,0.001 -0.001,0.002 -0.002,0.0211 -0.005,0.0421 -0.009,0.063 -0.0119,0.0671 -0.0258,0.13398 -0.045,0.19948 -0.0157,0.0544 -0.0315,0.10883 -0.0532,0.16123 -0.0149,0.0362 -0.0285,0.0732 -0.0455,0.10852 -0.0135,0.0257 -0.0256,0.0524 -0.0393,0.078 -7.1e-4,0.0252 -0.002,0.0503 -0.003,0.0755 -0.003,0.0614 -0.007,0.12295 -0.0186,0.18345 -0.009,0.0436 -0.0193,0.0868 -0.031,0.12971 -0.0102,0.031 -0.0203,0.062 -0.0356,0.0909 -0.0118,0.0223 -0.0274,0.0293 -0.0377,0.0243 -0.0225,0.0406 -0.0469,0.0803 -0.0677,0.11938 -0.0292,0.0686 -0.0812,0.12306 -0.13074,0.1788 l -5.2e-4,5.1e-4 c -0.015,0.0263 -0.0298,0.0528 -0.0439,0.0796 -0.0242,0.0455 -0.0482,0.0917 -0.0687,0.139 -0.011,0.0321 -0.0206,0.0645 -0.0294,0.0972 -0.012,0.0379 -0.0246,0.0757 -0.0326,0.11472 -0.005,0.0217 -0.009,0.0434 -0.0145,0.0651 l 0.0269,0.0222 c 0.0389,-0.0135 0.081,0.0243 0.10904,-0.0119 0.0365,-0.0585 0.0477,-0.11366 0.0734,-0.17364 0.0403,-0.0477 0.0802,-0.0933 0.10749,-0.14934 0.068,-0.0855 0.15447,-0.1598 0.19482,-0.26355 0.0632,-0.1275 0.15882,-0.25541 0.14573,-0.40566 -0.002,-0.009 -8.8e-4,-0.0437 0.0129,-0.0692 0.007,-0.0791 -0.0105,-0.15582 0.0403,-0.23513 0.0447,-0.10342 0.0618,-0.21415 0.0956,-0.32194 0.0175,-0.0933 0.0317,-0.18428 0.0734,-0.27027 0.0163,-0.097 0.01,-0.19492 0.0217,-0.29197 0.005,-0.0903 0.0115,-0.18158 0.0279,-0.27027 0.0123,-0.0846 0.0487,-0.20595 0.005,-0.2868 -0.0197,-0.10715 0.004,-0.22143 -0.004,-0.3297 -0.001,-0.12078 -0.0166,-0.24164 -0.003,-0.36225 0.0254,-0.18004 0.0328,-0.36223 0.0558,-0.5426 0.004,-0.0928 -0.0229,-0.16594 0.0217,-0.2527 0.0271,-0.14419 0.0319,-0.2941 0.0987,-0.42633 0.0737,-0.23955 0.10144,-0.41594 0.22635,-0.64441 0.0258,-0.0471 0.0506,-0.0948 0.076,-0.14211 0.0196,-0.0469 0.0517,-0.0902 0.0589,-0.14056 0.005,-0.0385 -0.0151,-0.0766 -0.0227,-0.11472 -0.0106,0.0123 -0.033,0.0534 -0.0315,0.0372 0.002,-0.0267 0.0196,-0.0504 0.0351,-0.0723 0.14834,-0.21031 0.38008,-0.47631 0.53485,-0.66146 z" />
    <path
       id="path7902"
       style="fill:#000000;stroke-width:0.874001"
       d="m 144.27595,145.58905 c -5.5e-4,1e-4 -0.001,4.5e-4 -0.002,5.1e-4 -0.007,0.001 -0.0183,0.0429 -0.0248,0.0434 -0.0107,0.0223 -0.0208,0.0444 -0.0238,0.0693 -0.007,0.0285 -0.025,0.0536 -0.03,0.0827 -0.002,0.008 -0.005,0.0136 -0.008,0.0207 -0.009,0.0201 -0.0188,0.0401 -0.0274,0.0605 -0.002,-0.0291 -0.0132,-0.0359 -0.0682,-0.0325 -0.0606,-0.039 -0.0543,-0.0371 -0.0894,0.0176 -0.0326,0.0527 -0.0652,0.10529 -0.10077,0.15606 -0.0223,0.0318 -0.0318,0.0443 -0.0346,0.0481 0.006,-0.01 0.0328,-0.0496 -0.0227,0.0248 -0.01,0.0129 -0.0174,0.0262 -0.0264,0.0398 -0.0111,0.0226 -0.0231,0.0453 -0.0336,0.0682 -0.01,0.021 -0.0195,0.0429 -0.0289,0.0651 -0.002,0.008 -0.004,0.0161 -0.007,0.0243 -0.012,0.0379 -0.0246,0.0757 -0.0326,0.11472 -0.008,0.0375 -0.0164,0.0754 -0.0264,0.11265 -0.009,0.0351 -0.0189,0.0703 -0.0326,0.10387 -6.9e-4,0.002 -0.001,0.003 -0.002,0.005 0.006,5.7e-4 0.0126,3.7e-4 0.0212,5.2e-4 0.0883,0.049 0.0862,0.0402 0.10439,-0.0129 0.005,0.0177 0.013,0.0399 0.0212,0.0424 0.0828,0.0252 0.0959,0.0256 0.12454,-0.0289 0.0189,-0.0269 0.0318,-0.0577 0.0522,-0.0837 0.0236,-0.0249 0.0476,-0.0491 0.0713,-0.0739 0.0124,-0.002 0.0259,-0.003 0.0419,-0.006 0.0138,-0.002 0.0108,-0.0253 0.016,-0.0382 0.008,-0.0195 0.0127,-0.0309 0.016,-0.0393 0.0207,-0.0301 0.0382,-0.0619 0.0625,-0.0894 l -0.007,-0.006 c 0.002,-0.005 0.004,-0.009 0.006,-0.0145 0.004,-0.01 0.008,-0.02 0.0124,-0.03 0.005,-0.005 0.007,-0.0118 0.008,-0.0196 0.0282,-0.068 0.0564,-0.13609 0.0832,-0.20464 -0.008,-0.006 -0.0156,-0.012 -0.0233,-0.0181 0.006,-0.0179 0.0123,-0.0359 0.0186,-0.0538 0.008,-0.0276 0.0242,-0.0509 0.0351,-0.077 0.004,-0.01 0.007,-0.02 0.0114,-0.03 0.0112,-0.0297 0.0227,-0.0588 0.0315,-0.0894 0.004,-0.0106 0.005,-0.033 0.0119,-0.0429 0.002,-0.006 0.0237,-0.034 0.0217,-0.0388 -0.006,-0.014 -0.0188,-0.025 -0.0289,-0.0357 l -0.0496,-0.0274 c -0.0115,-0.003 -0.0269,-0.007 -0.0398,-0.006 l 5.2e-4,-5.2e-4 c -4e-4,0 -7.1e-4,1e-5 -0.001,0 z m 0.01,0.42374 h 5.1e-4 c -4.4e-4,0.002 -8.6e-4,0.004 -0.002,0.004 h -5.2e-4 c 5.6e-4,-0.002 0.001,-0.002 0.002,-0.004 z m -0.43098,0.55811 c 3.6e-4,9e-5 7.8e-4,4.2e-4 0.001,5.2e-4 0.002,5.3e-4 -0.004,0.003 -0.004,0.003 l 0.003,-0.003 z" />
    <path
       style="fill:#000000;stroke-width:0.874001"
       id="path8065"
       d="m 145.17718,140.88593 c 0.003,-0.0281 0.005,-0.0567 0.0105,-0.0845 5.3e-4,-0.003 0.003,-0.011 0.003,-0.008 -7.9e-4,0.006 -0.002,0.013 -0.004,0.0191 -0.002,0.006 -0.0128,0.0245 -0.01,0.0182 0.007,-0.0164 0.0156,-0.0323 0.0234,-0.0485 0.004,-0.0218 0.0137,-0.0418 0.0209,-0.0626 0.006,-0.0173 0.005,-0.0183 0.0148,-0.0304 0.001,-0.001 0.003,-0.002 0.004,-0.003 0.004,-0.005 0.008,-0.01 0.0118,-0.0147 0.0202,-0.0244 0.0401,-0.0484 0.0578,-0.0748 0.0169,-0.0176 0.0309,-0.038 0.0478,-0.0556 0.0418,-0.0436 -0.0363,0.0435 0.0306,-0.0324 0.0316,-0.0408 0.0685,-0.0772 0.10583,-0.11268 0.0483,-0.0431 0.095,-0.0879 0.14012,-0.1343 0.0478,-0.0484 0.0905,-0.10149 0.13637,-0.15165 0.0525,-0.056 0.0969,-0.11857 0.14388,-0.17907 0.0349,-0.0439 0.0573,-0.0956 0.0809,-0.14601 0.0292,-0.0624 0.007,-0.0114 0.0363,-0.0812 0.0189,-0.0613 0.0191,-0.0275 -0.0252,-0.0996 -0.006,-0.01 -0.0122,-0.0196 -0.0183,-0.0294 0,0 -0.0515,-0.0237 -0.0515,-0.0237 v 0 c -0.0257,-0.006 -0.0786,-0.0202 -0.0973,-0.0162 -0.0146,0.003 -0.0216,0.0205 -0.0323,0.0308 -0.0114,0.0139 -0.0234,0.0274 -0.0342,0.0418 -0.0347,0.046 -0.0621,0.0972 -0.0967,0.14327 -0.0408,0.0555 -0.0816,0.11118 -0.12775,0.16245 -0.0423,0.0492 -0.0844,0.0985 -0.12636,0.14793 -0.042,0.046 -0.0851,0.091 -0.13024,0.13393 -0.0454,0.0474 -0.0842,0.10004 -0.1233,0.15263 -0.0172,0.0268 -0.0358,0.0532 -0.045,0.0841 -0.001,0.004 -0.002,0.009 -0.003,0.0131 -5.3e-4,0.003 -2.6e-4,0.007 -0.001,0.0104 -0.002,0.005 -0.004,0.0105 -0.006,0.0157 -0.0238,0.0401 -0.0486,0.0796 -0.0691,0.12156 -0.0193,0.0444 -0.0351,0.0943 -0.0325,0.14323 0.006,-0.0107 0.0132,-0.0213 0.0194,-0.0321 0.004,-0.008 -0.0104,0.0147 -0.0141,0.0229 -0.0212,0.0471 -0.0134,0.10198 -0.0188,0.15168 0,0 0.17952,0.008 0.17952,0.008 z" />
    <path
       style="fill:#000000;stroke-width:0.874001"
       id="path8067"
       d="m 145.03891,140.87836 c -0.003,0.0208 -0.005,0.0415 -0.008,0.0622 0,0 0.021,0.008 0.021,0.008 v 0 c 0.0118,-0.0177 0.0237,-0.0353 0.0356,-0.053 0,0 -0.0488,-0.0172 -0.0488,-0.0172 z" />
    <path
       style="fill:#000000;stroke-width:0.874001"
       id="path8069"
       d="m 145.0246,140.72153 c -0.009,0.0493 -0.0247,0.0979 -0.0261,0.14836 -2.7e-4,0.0109 -0.001,0.0222 0.002,0.0326 0.004,0.0125 0.012,0.0231 0.0181,0.0346 0,0 0.0318,0.01 0.0318,0.01 v 0 c 0.012,-0.009 0.0263,-0.0147 0.0361,-0.0258 0.008,-0.009 0.0118,-0.0211 0.0159,-0.0325 0.0173,-0.0482 0.0164,-0.10087 0.0236,-0.15085 0,0 -0.10129,-0.016 -0.10129,-0.016 z" />
    <path
       style="fill:#000000;stroke-width:0.874001"
       id="path8071"
       d="m 145.00102,140.91082 c -0.005,0.0232 -0.0269,0.12701 -0.0296,0.1524 -0.002,0.018 -2.6e-4,0.0363 -5.3e-4,0.0544 0,0 0.0226,0.009 0.0226,0.009 v 0 c 0.0136,-0.0152 0.0304,-0.0279 0.0407,-0.0455 0.0267,-0.0455 0.0374,-0.10607 0.0495,-0.15605 0,0 -0.0827,-0.0146 -0.0827,-0.0146 z" />
    <path
       style="fill:#000000;stroke-width:0.874001"
       id="path8073"
       d="m 144.62843,142.26512 c 0.005,-0.0388 0.007,-0.078 0.0108,-0.11692 0.002,-0.0201 0.006,-0.0401 0.007,-0.0603 7.9e-4,-0.023 -0.002,-0.046 -0.002,-0.0689 0,0 -0.0198,-0.003 -0.0198,-0.003 v 0 c -0.007,0.0221 -0.017,0.0436 -0.0224,0.0663 -0.005,0.0203 -0.006,0.0412 -0.008,0.0619 -0.005,0.0476 -0.006,0.0701 -0.008,0.11818 0,0 0.0429,0.003 0.0429,0.003 z" />
    <path
       style="fill:#000000;stroke-width:0.874001"
       id="path8075"
       d="m 144.61103,142.36678 c 0.0407,-0.14825 0.0172,-0.0596 0.0553,-0.21082 0.009,-0.036 0.0192,-0.0718 0.0274,-0.10811 0.007,-0.0314 0.0155,-0.0626 0.0183,-0.0947 0.003,-0.0304 -0.002,-0.0609 -0.002,-0.0914 2.1e-4,-0.0176 0.003,-0.0351 0.004,-0.0526 0,0 -0.0277,-0.006 -0.0277,-0.006 v 0 c -0.0287,0.0777 -0.0101,0.0335 -0.0598,0.13072 -0.0113,0.0302 -0.0171,0.0622 -0.0241,0.0937 -0.0234,0.1063 -0.037,0.21459 -0.0581,0.32133 0,0 0.067,0.0178 0.067,0.0178 z" />
    <path
       style="fill:#000000;stroke-width:0.874001"
       id="path8077"
       d="m 144.67037,142.18523 c 0.009,-0.0274 0.018,-0.0547 0.0271,-0.0821 0.0118,-0.034 0.024,-0.0678 0.0353,-0.10193 0.0104,-0.0315 0.0193,-0.0634 0.0298,-0.0948 0.0303,-0.0904 0.065,-0.17936 0.0993,-0.26824 0.0124,-0.0292 0.0659,-0.153 0.0744,-0.18346 0.004,-0.0153 0.0251,-0.14329 0.0295,-0.16957 0,0 -0.052,-0.0224 -0.052,-0.0224 v 0 c -0.0146,0.0191 -0.0292,0.0383 -0.0438,0.0574 -0.0202,0.0263 -0.0431,0.0506 -0.0606,0.0787 -0.0343,0.0554 -0.0601,0.13001 -0.0834,0.19014 -0.0103,0.0305 -0.0215,0.0608 -0.031,0.0916 -0.0492,0.15925 -0.0789,0.32427 -0.0934,0.49015 0,0 0.0688,0.0145 0.0688,0.0145 z" />
    <path
       style="fill:#000000;stroke-width:0.874001"
       id="path8079"
       d="m 144.91113,141.53374 c 0.0417,-0.12581 0.0866,-0.25321 0.1426,-0.37347 0.0186,-0.04 0.0401,-0.0785 0.0604,-0.11766 0.0179,-0.0345 0.0383,-0.0678 0.054,-0.1033 0.0175,-0.0396 0.0304,-0.0811 0.0456,-0.12157 0.002,-0.049 0.003,-0.0979 0.005,-0.1469 0,0 -0.052,-0.0225 -0.052,-0.0225 v 0 c -0.0338,0.0326 -0.0676,0.0652 -0.10134,0.0978 -0.0219,0.0365 -0.0457,0.072 -0.0658,0.10954 -0.0423,0.0791 -0.0744,0.16251 -0.10339,0.24721 -0.046,0.13441 -0.0812,0.27247 -0.0948,0.41418 0,0 0.11007,0.0167 0.11007,0.0167 z" />
    <path
       style="fill:#000000;stroke-width:0.874001"
       id="path8081"
       d="m 144.62454,143.81074 c -0.006,-0.18376 0.003,0.045 -0.008,-0.14652 -0.002,-0.0288 -0.002,-0.0577 -0.003,-0.0865 -0.002,-0.0409 -0.0114,-0.17111 -0.0127,-0.21098 -0.001,-0.0431 -0.001,-0.0863 -0.001,-0.12944 0.0131,-0.1194 -0.0183,-0.23666 -0.0198,-0.35526 -5.3e-4,-0.0421 0.008,-0.0838 0.0121,-0.12562 0,0 -0.0564,-0.005 -0.0564,-0.005 v 0 c -0.004,0.0424 -0.005,0.0852 -0.0122,0.12722 -0.0665,0.38722 -0.0247,-0.0136 -0.0564,0.36314 0.006,0.11596 0.004,0.13772 0.019,0.24669 0.0233,0.16819 0.009,0.0383 0.034,0.18622 0.004,0.0245 0.006,0.0492 0.01,0.0737 0.003,0.0229 0.007,0.0457 0.0101,0.0686 0,0 0.0857,-0.006 0.0857,-0.006 z" />
    <path
       style="fill:#000000;stroke-width:0.874001"
       id="path8083"
       d="m 144.63036,143.96703 c -0.009,-0.13378 -0.004,-0.0679 -0.0167,-0.2346 -0.004,-0.0537 -0.004,-0.10788 -0.0119,-0.16113 -0.0129,-0.0855 -0.034,-0.16952 -0.051,-0.25427 0,0 -0.0214,0.002 -0.0214,0.002 v 0 c 7.9e-4,0.0857 -8e-4,0.17154 0.002,0.25724 0.002,0.054 0.008,0.10774 0.012,0.16157 0.009,0.11406 0.0115,0.13366 0.0215,0.23398 0,0 0.0652,-0.005 0.0652,-0.005 z" />
    <path
       style="fill:#000000;stroke-width:0.874001"
       id="path8085"
       d="m 144.65113,143.63688 c 5.3e-4,-0.0889 0.002,-0.25698 7.9e-4,-0.34118 -10e-4,-0.0683 -5.3e-4,-0.13667 -0.006,-0.20478 -0.004,-0.0557 -0.0144,-0.11079 -0.0216,-0.16618 0,0 -0.0293,5.3e-4 -0.0293,5.3e-4 v 0 c -0.005,0.0553 -0.0134,0.11046 -0.0165,0.16597 -0.0101,0.18267 -8e-4,0.36543 0.0137,0.54754 0,0 0.0586,-0.002 0.0586,-0.002 z" />
    <path
       style="fill:#999999;stroke-width:1.1679"
       d="m 225.58484,744.58344 c -0.0194,-1.27406 1.90072,-14.19522 2.94222,-19.79899 0.72049,-3.87663 3.48033,-22.05519 5.17972,-34.1179 0.49026,-3.47995 1.28631,-12.87009 1.80783,-21.32485 0.44005,-7.13386 0.44719,-7.17466 1.05018,-5.99932 0.33391,0.65087 0.83533,2.05345 1.11427,3.11685 0.56702,2.16171 4.16288,7.82595 5.89165,9.28062 2.51329,2.11479 8.36605,3.28992 11.94569,2.39847 2.78123,-0.69262 7.60724,-2.71666 15.75704,-6.60855 6.05198,-2.89008 10.09918,-5.1771 18.91511,-10.68867 12.04684,-7.53148 18.25977,-11.08078 27.36566,-15.63337 3.1737,-1.58673 8.90637,-4.77896 12.73927,-7.09386 7.79599,-4.70842 13.56639,-7.80169 17.77983,-9.53101 1.55564,-0.63848 4.45817,-2.08502 6.45008,-3.21453 1.99191,-1.12951 5.25344,-2.78639 7.24784,-3.68196 8.30716,-3.73024 18.25477,-9.02538 22.49426,-11.97376 2.40481,-1.67243 7.25733,-4.7282 10.78338,-6.79059 9.32625,-5.45493 12.86453,-7.70895 17.30315,-11.02277 10.80282,-8.06528 15.97036,-10.88464 25.80799,-14.08058 3.3439,-1.08633 8.38676,-2.8453 11.20635,-3.90882 6.36613,-2.40124 15.18799,-5.26374 21.92031,-7.11265 6.37567,-1.75096 20.38803,-6.84295 28.8146,-10.47101 7.49512,-3.22703 8.91357,-3.92613 12.10081,-5.96402 1.31718,-0.84219 4.94046,-2.85754 8.05173,-4.47856 7.28468,-3.79542 10.25859,-5.54491 18.03123,-10.60741 8.30844,-5.41149 12.70414,-7.62751 10.69205,-5.39023 -0.30711,0.34149 -1.05427,2.05278 -1.66036,3.80287 -0.89905,2.59603 -1.1652,4.09346 -1.44527,8.13173 -0.35815,5.16384 -0.83425,7.56953 -1.78758,9.03236 -0.31081,0.47692 -0.75138,1.42398 -0.97905,2.10457 -0.32015,0.95706 -1.15339,1.77192 -3.67752,3.59635 -1.79498,1.2974 -4.64674,3.55231 -6.33725,5.0109 -4.63399,3.99826 -11.22146,7.56314 -19.36916,10.48183 -2.10945,0.75565 -4.65637,1.78995 -5.65983,2.29844 -1.00346,0.50849 -3.20492,1.40675 -4.89213,1.99613 -3.15919,1.10356 -8.61108,3.95754 -12.14968,6.36015 -1.10602,0.75096 -5.71989,3.32441 -10.25305,5.71878 -4.53316,2.39437 -10.46949,5.75697 -13.19185,7.47245 -2.72236,1.71548 -9.08632,5.462 -14.14214,8.3256 -5.05581,2.86359 -10.22653,5.84127 -11.49048,6.61706 -6.68641,4.10397 -16.11578,10.39143 -19.41037,12.94272 -2.45926,1.90443 -5.61416,3.86955 -9.22273,5.74463 -6.18941,3.21614 -25.80623,14.31404 -29.43139,16.65033 -1.30891,0.84355 -3.3772,2.37935 -4.59619,3.4129 -3.04681,2.58328 -6.37631,4.99846 -14.23719,10.3275 -3.69463,2.50466 -8.6267,5.93288 -10.96015,7.61827 -6.65887,4.80952 -10.71198,7.33761 -19.26866,12.01865 -12.01256,6.57163 -15.20254,8.19079 -21.56676,10.94682 -8.56969,3.71111 -13.8637,6.30003 -20.08656,9.82287 -3.05033,1.72683 -7.2166,4.06605 -9.25837,5.19826 -4.71364,2.61383 -9.38329,5.72595 -16.28151,10.85088 -12.93563,9.61037 -18.75923,13.30481 -26.85064,17.03382 -7.319,3.37304 -12.68133,7.33985 -14.44634,10.68674 -0.64896,1.23058 -0.72801,1.28333 -0.74004,0.49386 z m 13.0156,-21.54067 c 1.64874,-2.26407 3.49164,-3.72863 5.17462,-4.1123 1.11111,-0.2533 6.26406,-3.22481 12.55115,-7.23779 2.04177,-1.30324 4.58735,-2.81081 5.65685,-3.35017 3.97221,-2.0032 16.60279,-11.0653 22.76215,-16.33123 2.16212,-1.84849 4.96528,-3.95794 6.22923,-4.68766 4.26431,-2.4619 10.83595,-6.01043 12.13991,-6.55525 0.71231,-0.29763 1.29512,-0.6358 1.29512,-0.7515 0,-0.5158 -2.28861,0.45073 -6.54074,2.76228 -7.83804,4.26094 -9.94925,5.62291 -13.51737,8.72022 -5.98918,5.1989 -18.01688,13.78074 -23.60574,16.84284 -1.36118,0.74578 -3.58856,2.09087 -4.94974,2.98909 -4.89099,3.22748 -11.04111,6.76605 -12.40174,7.13556 -0.76276,0.20714 -1.89649,0.76117 -2.51939,1.23119 -1.94179,1.46519 -4.74615,5.43995 -3.83811,5.43995 0.0209,0 0.72462,-0.94285 1.5638,-2.09523 z m 9.17318,-11.60496 c -0.14352,-0.74524 -0.77099,-0.69825 -0.93089,0.0697 -0.0667,0.32031 0.1282,0.54901 0.46787,0.54901 0.36414,0 0.53755,-0.23172 0.46302,-0.61872 z m 3.35876,-4.43504 c 2.94249,-3.84168 8.92818,-9.12932 12.57379,-11.10745 1.67742,-0.91018 3.84536,-2.15386 4.81763,-2.76374 3.02289,-1.89617 8.37311,-4.63024 10.96015,-5.60086 3.08823,-1.15866 14.43858,-6.89349 18.89696,-9.5478 1.83733,-1.09386 3.55703,-1.98884 3.82156,-1.98884 0.26453,0 0.38988,-0.14738 0.27855,-0.32751 -0.34063,-0.55115 -2.27332,0.20794 -5.65899,2.22263 -4.73765,2.81921 -15.14099,8.07811 -18.57551,9.38994 -1.65286,0.63132 -4.7553,2.15322 -6.89429,3.382 -2.139,1.22879 -5.54874,3.16458 -7.5772,4.30176 -4.32035,2.42205 -9.69894,7.18013 -13.08096,11.57186 -1.18032,1.53271 -2.14604,2.84528 -2.14604,2.91682 0,0.59641 0.91857,-0.27398 2.58435,-2.44881 z m -4.96201,-8.96388 c 1.40494,-0.70933 4.82983,-2.13685 7.61087,-3.17226 7.31937,-2.72508 12.27411,-4.87131 15.09611,-6.53915 1.36118,-0.80448 4.20864,-2.4042 6.32769,-3.55493 2.11905,-1.15074 5.85788,-3.5012 8.3085,-5.22324 5.82648,-4.09424 8.07673,-5.29321 14.22071,-7.57702 6.16071,-2.29002 8.25893,-3.31821 11.27141,-5.52332 2.84533,-2.08275 4.48832,-2.91942 8.41444,-4.28495 3.70822,-1.28975 9.95691,-4.25544 9.38151,-4.45256 -0.22662,-0.0776 -1.49942,0.40436 -2.82842,1.0711 -1.32901,0.66675 -4.08692,1.80906 -6.12869,2.53848 -4.62543,1.65242 -6.34025,2.51104 -9.02082,4.51675 -2.79777,2.09341 -5.40293,3.36975 -11.71027,5.73718 -6.18437,2.32127 -7.68761,3.12618 -13.65296,7.31043 -2.47983,1.73943 -5.90046,3.89298 -7.60139,4.78569 -1.70094,0.89271 -4.21014,2.30887 -5.57599,3.14703 -3.43286,2.10659 -8.15082,4.25613 -15.01752,6.84214 -5.80806,2.18731 -11.49718,4.75356 -11.86787,5.35335 -0.32305,0.52271 0.10466,0.37235 2.77269,-0.97472 z m 58.36526,-7.92478 c 1.00011,-0.78997 3.38579,-2.97759 5.30152,-4.86136 3.05679,-3.00581 3.67687,-3.82999 5.06591,-6.73345 0.87053,-1.81962 2.22694,-4.00723 3.01425,-4.86136 1.57542,-1.70912 1.32327,-2.08703 -0.41602,-0.62352 -0.68164,0.57357 -1.82858,2.43494 -2.99548,4.86136 -1.73444,3.60656 -2.16459,4.19566 -5.19813,7.11896 -1.81897,1.75286 -4.18227,3.93348 -5.25177,4.84581 -2.38864,2.03764 -2.02336,2.23071 0.47972,0.25356 z m 22.0583,-14.58525 c 2.35729,-2.08278 3.51856,-2.71255 6.26931,-3.39995 2.91454,-0.72833 8.90575,-3.83569 11.78159,-6.11056 1.59356,-1.26055 4.84048,-3.28471 11.45856,-7.14339 7.36815,-4.29601 9.04792,-5.23469 10.84188,-6.05862 4.19012,-1.92445 9.4133,-5.41677 11.88719,-7.94801 2.73261,-2.79596 10.20918,-9.17934 10.75136,-9.17934 0.18911,0 0.45651,-0.1823 0.59421,-0.40511 0.52197,-0.84456 -1.81365,0.11224 -3.03707,1.24416 -0.68059,0.62969 -2.03293,1.76987 -3.0052,2.53374 -0.97227,0.76388 -3.27921,2.84335 -5.12653,4.62106 -3.73944,3.59855 -5.57817,4.86555 -12.02081,8.28308 -9.77011,5.18262 -18.37222,10.29574 -23.68808,14.08028 -3.78844,2.69711 -8.14442,4.94434 -10.71913,5.52995 -2.48294,0.56473 -5.75552,2.48562 -7.45528,4.376 -1.06065,1.17959 -10e-6,0.87376 1.468,-0.42329 z m 21.12583,-22.89827 c 2.91681,-2.59092 6.49654,-5.85915 7.95495,-7.26273 2.87796,-2.76978 4.25154,-3.89936 10.96015,-9.01327 5.36033,-4.08612 8.04136,-5.90922 10.60661,-7.21248 1.0695,-0.54335 1.75826,-1.05173 1.53058,-1.12974 -0.53287,-0.18256 -3.59373,1.36776 -6.30355,3.19275 -5.25871,3.5416 -15.14382,11.32017 -18.71237,14.72474 -2.15328,2.05433 -6.61973,6.11923 -9.92546,9.03312 -6.42185,5.66065 -7.2177,6.45009 -7.23608,7.17785 -0.006,0.25612 1.3008,-0.71899 2.90505,-2.1669 1.60425,-1.44792 5.3033,-4.75242 8.22012,-7.34334 z M 382.22628,634.273 c 0.95298,-0.97326 1.7327,-2.07756 1.7327,-2.45401 0,-0.37645 0.14421,-0.77358 0.32046,-0.88251 0.17625,-0.10893 0.56308,-0.91012 0.85962,-1.78042 0.29654,-0.8703 0.92864,-2.10313 1.40466,-2.73963 0.47603,-0.63649 1.18088,-1.87321 1.56633,-2.74825 0.38546,-0.87505 1.33305,-2.30694 2.10575,-3.18198 0.7727,-0.87505 2.60578,-3.18648 4.07353,-5.13651 2.83313,-3.76407 4.80034,-5.74613 6.70748,-6.75813 0.9066,-0.48108 1.02859,-0.65112 0.5416,-0.75493 -0.89048,-0.18983 -3.45701,1.40334 -4.88108,3.02991 -0.66433,0.75879 -1.987,2.45669 -2.93928,3.7731 -0.95228,1.31641 -2.59049,3.40609 -3.64046,4.64373 -1.04997,1.23765 -2.31078,3.15869 -2.8018,4.26898 -0.49103,1.1103 -1.27909,2.47782 -1.75124,3.03894 -0.47216,0.56113 -0.85846,1.22466 -0.85846,1.47453 0,1.05245 -2.15728,5.06436 -3.32844,6.18993 -1.1773,1.13147 -1.56457,1.7868 -1.05591,1.7868 0.11651,0 0.99156,-0.7963 1.94454,-1.76955 z m 15.97635,-2.86655 c -0.59673,-0.59673 -1.30582,-0.0288 -0.77006,0.61669 0.29586,0.35649 0.5393,0.40099 0.79498,0.1453 0.25568,-0.25568 0.24805,-0.48902 -0.0249,-0.76199 z m 12.3164,-6.64692 c 4.32005,-1.70004 6.83222,-2.98626 4.55265,-2.33095 -4.98882,1.43415 -15.2028,6.52171 -15.2028,7.57248 0,0.1852 1.33216,-0.49962 2.96036,-1.52183 1.62819,-1.02221 5.0886,-2.69608 7.68979,-3.7197 z m -12.35751,-9.22641 c 2.81442,-2.42832 3.81636,-3.01319 5.78545,-3.37721 0.77109,-0.14255 2.8207,-0.80517 4.55467,-1.47249 1.73398,-0.66732 4.67731,-1.50457 6.54074,-1.86056 5.97242,-1.14095 10.58978,-3.03563 16.82309,-6.90314 2.13899,-1.32716 7.07106,-3.97043 10.96015,-5.87392 9.69827,-4.74678 13.06328,-6.68289 18.208,-10.47623 5.71598,-4.21455 9.71328,-6.22287 14.31891,-7.19408 1.94455,-0.41005 5.20608,-1.34956 7.24785,-2.0878 4.81205,-1.73987 12.12296,-4.57616 12.33041,-4.78361 0.88322,-0.88321 -3.18086,0.35681 -11.09298,3.38466 -2.13899,0.81857 -6.00285,2.02093 -8.58633,2.67192 -5.72534,1.44268 -8.82991,2.98711 -14.70593,7.31574 -5.34194,3.93519 -6.90767,4.84399 -17.1896,9.97737 -4.56968,2.28147 -10.28848,5.34626 -12.70844,6.81065 -5.73016,3.46747 -10.12758,5.28276 -15.28805,6.31103 -2.27239,0.4528 -5.61347,1.37574 -7.42462,2.05098 -1.81114,0.67524 -4.17888,1.47132 -5.26164,1.76907 -1.49278,0.41049 -2.62517,1.10152 -4.68458,2.85871 -2.39577,2.04418 -3.19519,3.00356 -2.50275,3.00356 0.11725,0 1.32129,-0.95609 2.67565,-2.12465 z m 42.366,-28.42722 c 3.69309,-1.58536 1.80693,-1.45704 -2.19094,0.14905 -3.87466,1.5566 -11.28911,5.61239 -11.51858,6.3008 -0.0755,0.2266 2.46114,-0.90995 5.63704,-2.52567 3.17591,-1.61572 6.80853,-3.3816 8.07248,-3.92418 z m 83.08505,-26.71052 c 2.51884,-1.68578 8.2893,-5.08555 9.98788,-5.88454 0.72921,-0.343 1.32583,-0.75328 1.32583,-0.91171 0,-0.39699 -0.0805,-0.37999 -1.90619,0.40259 -2.78296,1.19291 -14.33499,8.39857 -14.34991,8.95085 -0.01,0.36745 2.55673,-0.96054 4.94239,-2.55719 z m -12.73641,-3.01547 c 0.82205,-0.29003 4.06381,-1.74651 7.20391,-3.23662 3.1401,-1.49011 7.70716,-3.59952 10.14903,-4.68758 2.44186,-1.08806 4.4306,-2.13739 4.41941,-2.33184 -0.0112,-0.19445 -0.17943,-0.30189 -0.37388,-0.23874 -1.91353,0.62143 -22.39095,10.16902 -22.96329,10.70663 -0.46683,0.43849 -0.16113,0.3971 1.56482,-0.21185 z"
       id="path9334"
       transform="scale(0.26458333)" />
    <path
       style="fill:#999999;stroke-width:0.206457"
       d="m 545.66447,549.59375 c 0.023,-0.32204 0.0929,-0.69609 0.16358,-0.875 0.30276,-0.76656 0.61888,-2.18128 0.70491,-3.15465 0.047,-0.53193 0.11476,-1.15068 0.15056,-1.375 0.0366,-0.22959 0.061,-1.2547 0.0559,-2.34535 -0.005,-1.06563 0.0229,-2.28906 0.0621,-2.71875 0.0392,-0.42969 0.0833,-0.93594 0.0979,-1.125 0.0667,-0.86211 0.44651,-2.30804 0.78801,-3 0.0594,-0.12031 0.15709,-0.37344 0.21713,-0.5625 0.06,-0.18906 0.29253,-0.72344 0.51664,-1.1875 0.24016,-0.49729 0.42061,-0.95924 0.43946,-1.125 0.0244,-0.21463 0.10284,-0.37008 0.33116,-0.65625 0.37734,-0.47296 1.37071,-1.45931 1.37071,-1.36102 0,0.0405 -0.10981,0.41961 -0.24402,0.84237 -0.30534,0.96181 -0.52542,2.25121 -0.49049,2.87369 0.0457,0.81527 0.17902,2.05892 0.3337,3.11371 0.17234,1.17523 0.19803,1.94337 0.10976,3.28125 -0.0559,0.84754 -0.0826,0.98873 -0.27821,1.47138 -0.119,0.29363 -0.356,0.73814 -0.52668,0.98779 -0.17067,0.24966 -0.465,0.69088 -0.65406,0.98051 -0.18906,0.28962 -0.50759,0.76792 -0.70784,1.06288 -0.40028,0.5896 -1.02141,1.74108 -1.22916,2.27869 -0.0731,0.18906 -0.18744,0.4581 -0.25417,0.59786 -0.0667,0.13976 -0.12133,0.28811 -0.12133,0.32968 0,0.10508 -0.18614,0.59783 -0.55858,1.47871 l -0.3171,0.75 z"
       id="path9474"
       transform="scale(0.26458333)" />
  </g>
</svg>
