<?xml version="1.0" encoding="UTF-8" standalone="no"?>
<!-- Created with Inkscape (http://www.inkscape.org/) -->

<svg
   width="210mm"
   height="297mm"
   viewBox="0 0 210 297"
   version="1.1"
   id="svg9532"
   inkscape:version="1.2 (dc2aedaf03, 2022-05-15)"
   sodipodi:docname="wavy.svg"
   xmlns:inkscape="http://www.inkscape.org/namespaces/inkscape"
   xmlns:sodipodi="http://sodipodi.sourceforge.net/DTD/sodipodi-0.dtd"
   xmlns="http://www.w3.org/2000/svg"
   xmlns:svg="http://www.w3.org/2000/svg">
  <sodipodi:namedview
     id="namedview9534"
     pagecolor="#505050"
     bordercolor="#eeeeee"
     borderopacity="1"
     inkscape:showpageshadow="0"
     inkscape:pageopacity="0"
     inkscape:pagecheckerboard="0"
     inkscape:deskcolor="#505050"
     inkscape:document-units="mm"
     showgrid="false"
     inkscape:zoom="0.73851713"
     inkscape:cx="555.16654"
     inkscape:cy="508.45131"
     inkscape:window-width="2560"
     inkscape:window-height="1080"
     inkscape:window-x="0"
     inkscape:window-y="0"
     inkscape:window-maximized="1"
     inkscape:current-layer="layer1" />
  <defs
     id="defs9529" />
  <g
     inkscape:label="Camada 1"
     inkscape:groupmode="layer"
     id="layer1">
    <path
       id="path9708"
       style="fill:#000000;stroke-width:0.874001"
       d="m 173.21837,105.54291 c -0.45846,0.005 -0.91677,0.0206 -1.3746,0.0506 -0.43555,0.0373 -0.86098,0.12669 -1.26658,0.29404 -0.24181,0.0993 -0.46916,0.22317 -0.66611,0.3974 -0.14681,0.12989 -0.31932,0.22304 -0.46664,0.35191 -0.005,0.004 0.0114,-0.005 0.0171,-0.008 -0.19135,0.13035 -0.38389,0.26443 -0.54622,0.43047 -0.0913,0.13227 -0.22967,0.23793 -0.32143,0.37207 -0.24455,0.23994 -0.42567,0.5369 -0.64647,0.79788 -0.39766,0.4902 -0.77586,0.99294 -1.29553,1.36374 -0.58408,0.49067 -1.16983,0.97964 -1.76888,1.45159 -0.69557,0.53105 -1.42103,1.04996 -1.93528,1.77044 -0.41398,0.50114 -0.87852,0.96341 -1.36168,1.39733 -0.69021,0.54826 -1.4024,1.0687 -2.18384,1.48156 -0.75765,0.4073 -1.50955,0.82875 -2.22881,1.30122 -0.65984,0.46663 -1.2796,0.99344 -1.98231,1.39733 -0.95507,0.52927 -1.94772,1.01305 -2.97191,1.39113 -1.00535,0.30521 -2.00326,0.63374 -3.01118,0.92966 -1.06125,0.3131 -2.08317,0.72582 -3.13366,1.07125 -1.12477,0.31998 -2.25578,0.61831 -3.38636,0.91674 -1.66887,0.42522 -3.34796,0.80829 -5.02398,1.20406 -1.77483,0.41732 -3.56051,0.82299 -5.19762,1.65674 -1.39513,0.64349 -2.74404,1.37288 -4.0845,2.12287 -0.14899,0.082 -0.6752,0.37465 -0.87075,0.47078 -0.65194,0.32043 -1.33974,0.57016 -1.9575,0.96014 -1.57841,0.87069 -3.17874,1.72092 -4.6638,2.74557 -0.99145,0.79536 -1.88815,1.71265 -2.57039,2.79156 -0.25868,0.43716 -0.33709,0.54214 -0.5426,0.99477 -0.23729,0.52262 -0.38996,1.08201 -0.65836,1.59164 -0.40028,0.86987 -0.81943,1.74147 -1.35754,2.53524 -0.78825,1.00816 -1.5958,2.00302 -2.33681,3.04685 -0.59967,0.9443 -1.15783,1.9145 -1.76113,2.85667 -0.67666,1.13413 -1.39072,2.24617 -2.14095,3.33313 -0.49032,0.72003 -0.93343,1.47114 -1.43971,2.18075 -0.63793,0.92205 -1.28609,1.83691 -1.88257,2.78691 -0.47593,0.74156 -0.92757,1.5059 -1.48932,2.18642 -0.61697,0.73563 -1.23767,1.46826 -1.82624,2.22726 -0.62503,0.67207 -1.3802,1.21237 -2.0469,1.84175 -0.71241,0.58091 -1.489013,1.07985 -2.292887,1.52549 -0.783042,0.40783 -1.613709,0.70695 -2.406055,1.09605 -1.113013,0.52845 -2.243589,1.02374 -3.402893,1.44229 -0.724409,0.24778 -1.459999,0.47362 -2.175061,0.74776 -0.484579,0.18577 -1.119446,0.46614 -1.594735,0.66611 -0.305253,0.12842 -0.611467,0.25423 -0.917257,0.38137 -1.821552,0.73651 -3.638571,1.48419 -5.490621,2.14199 -1.103576,0.44541 -2.209121,0.88544 -3.278869,1.40922 -1.010842,0.48768 -2.035412,0.94654 -3.036507,1.45365 -0.692221,0.38166 -1.366942,0.793 -2.000912,1.26659 -0.264406,0.16957 -0.551498,0.29965 -0.810803,0.47749 -0.176065,0.11504 -0.358161,0.21548 -0.542086,0.31678 -0.167691,0.11815 -0.330649,0.26563 -0.52865,0.33176 -0.02627,0.009 -0.06295,0.002 -0.09043,0.007 -0.01167,-0.11802 -0.01866,-0.23533 -0.0041,-0.35864 -0.03571,-0.49808 -0.02512,-0.99817 -0.03927,-1.49706 0.0068,-0.67729 0.01948,-1.35315 0.108004,-2.02624 0.06868,-0.87286 0.222404,-1.73695 0.281637,-2.61121 0.08263,-0.84416 0.0742,-1.69654 0.106453,-2.54351 -0.03726,-0.86077 -0.02097,-1.72042 0.06925,-2.57814 0.06185,-1.09103 0.03922,-2.1834 0.07183,-3.27525 0.06729,-1.05882 0.145341,-2.12235 0.05116,-3.18223 -0.01669,-1.43057 0.232516,-2.85552 0.05013,-4.28708 l -0.223759,0.0119 c 0.183645,1.42915 -0.07587,2.85 -0.05994,4.27778 0.09133,1.05411 0.01088,2.11146 -0.05788,3.16415 -0.03174,1.09221 -0.01338,2.18464 -0.0801,3.27577 -0.09555,0.86574 -0.115535,1.73454 -0.08217,2.60397 -0.03644,0.83416 -0.03252,1.67427 -0.119372,2.50527 -0.06616,0.87567 -0.226287,1.73964 -0.302307,2.6138 -0.0905,0.67996 -0.107563,1.36301 -0.116789,2.04742 0.01016,0.50722 0.0028,1.01486 0.03617,1.52135 -0.01847,0.18082 -0.0052,0.35418 0.01809,0.53227 0.08772,0.0463 0.166632,0.11559 0.263033,0.13901 0.229994,0.0559 0.652845,-0.28838 0.830957,-0.41548 0.18242,-0.0946 0.358783,-0.19724 0.531751,-0.30851 0.261428,-0.17288 0.546587,-0.30279 0.811836,-0.46974 0.630502,-0.46649 1.300545,-0.87233 1.987476,-1.24901 0.997374,-0.50081 2.020408,-0.94851 3.028239,-1.42834 1.0643,-0.51781 2.163895,-0.95204 3.2613,-1.39268 1.854977,-0.64947 3.676185,-1.38784 5.501473,-2.11512 0.307515,-0.12644 0.615341,-0.25179 0.922424,-0.3793 0.517708,-0.21497 1.069783,-0.45713 1.595768,-0.65423 0.709801,-0.26599 1.44051,-0.4817 2.159558,-0.72088 1.177672,-0.41612 2.326838,-0.90973 3.459221,-1.43557 0.802575,-0.38119 1.63759,-0.68175 2.429309,-1.08573 0.838307,-0.45182 1.64206,-0.96768 2.38487,-1.56321 0.69061,-0.63664 1.45262,-1.19888 2.10426,-1.87637 0.60307,-0.75973 1.2273,-1.50126 1.85364,-2.24172 0.57578,-0.69705 1.04311,-1.47769 1.53323,-2.23604 0.59511,-0.94415 1.2422,-1.85242 1.87689,-2.76986 0.50727,-0.71055 0.952,-1.4627 1.44229,-2.18436 0.7576,-1.09446 1.47849,-2.21392 2.16059,-3.3569 0.60291,-0.93615 1.15736,-1.90276 1.75804,-2.84014 0.73556,-1.0268 1.53465,-2.00665 2.31252,-3.00137 0.5694,-0.82309 1.0089,-1.73135 1.4304,-2.63704 0.27557,-0.51645 0.42928,-1.08596 0.67128,-1.61644 0.17424,-0.38196 0.28856,-0.55165 0.50643,-0.91933 0.65015,-1.01921 1.50001,-1.88932 2.44274,-2.6386 1.46378,-0.99987 3.03669,-1.83294 4.58835,-2.68717 0.92945,-0.50759 1.90147,-0.91655 2.83084,-1.42369 1.3321,-0.73722 2.66957,-1.45972 4.0535,-2.09548 1.60363,-0.81197 3.3511,-1.20764 5.08857,-1.61282 1.67998,-0.39506 3.36333,-0.77721 5.03639,-1.20096 1.13616,-0.29849 2.27177,-0.60061 3.40238,-0.91984 1.05371,-0.34189 2.07703,-0.75722 3.14037,-1.07022 1.00899,-0.29798 2.00897,-0.62605 3.01584,-0.93172 1.0662,-0.38564 2.09628,-0.88833 3.0887,-1.43661 0.72475,-0.41028 1.36181,-0.95156 2.03915,-1.43143 0.69952,-0.45752 1.42917,-0.8685 2.16524,-1.26401 0.81317,-0.42894 1.55783,-0.96531 2.27635,-1.53531 0.51791,-0.45788 1.00935,-0.95158 1.45314,-1.48208 0.48442,-0.68635 1.17477,-1.17491 1.83451,-1.67845 0.60749,-0.47648 1.20035,-0.97296 1.79163,-1.46968 0.55041,-0.39335 0.95552,-0.92458 1.37717,-1.44435 0.21696,-0.22936 0.36372,-0.52752 0.59583,-0.74259 0.12284,-0.1421 0.24621,-0.28282 0.36794,-0.4253 0.13032,-0.11642 0.27351,-0.21883 0.41806,-0.31729 0.15968,-0.14089 0.34503,-0.24705 0.50695,-0.38706 0.14566,-0.12876 0.31272,-0.22313 0.49351,-0.29249 0.35109,-0.1415 0.716,-0.22487 1.09244,-0.25425 0.89528,-0.0575 1.79228,-0.0552 2.68872,-0.0372 0.72087,0.0238 1.44117,0.0682 2.16266,0.062 0.46625,10e-4 0.93232,0.0172 1.39836,0.0258 0.16913,-0.002 0.33837,0.003 0.50747,-5.2e-4 0.15699,-0.007 0.41006,-3.4e-4 0.51986,0.0165 0.12213,0.066 0.27612,0.0592 0.40825,0.0341 0.12001,-0.0721 0.0706,-0.13257 0,-0.21084 0.0623,-0.152 0.17302,-0.2833 -0.005,-0.36845 -0.10635,-0.0136 -0.15408,-0.015 -0.17054,-0.0114 h -5.1e-4 c -0.016,-0.007 -0.0112,-0.008 -0.0439,-0.0202 -0.23457,-0.0633 -0.48016,-0.0516 -0.72089,-0.0481 -0.16153,0.004 -0.32359,-0.003 -0.48524,0.001 -0.47064,-0.006 -0.94101,-0.0264 -1.4118,-0.0248 -0.71614,0.003 -1.43103,-0.036 -2.14664,-0.0589 -0.45847,-0.009 -0.91716,-0.0154 -1.37562,-0.008 z"
       inkscape:export-filename="wavy.svg"
       inkscape:export-xdpi="96"
       inkscape:export-ydpi="96" />
    <path
       id="path9712"
       style="fill:#000000;stroke-width:0.874001"
       d="m 169.61962,100.51686 c -0.0829,0.002 -0.16565,0.007 -0.24805,0.0181 -0.0955,0.0179 -0.33488,0.0587 -0.41082,0.12712 -0.009,0.008 0.0247,-0.002 0.0372,-0.003 -0.20734,0.0403 -0.12938,0.013 -0.27285,0.12299 -0.0505,0.003 -0.11219,0.008 -0.18707,0.0191 l 0.009,-0.006 c -8.5e-4,6.2e-4 -0.0279,0.008 -0.0207,0.007 0.005,-7.1e-4 0.007,-7e-4 0.0114,-0.001 -0.0489,0.0331 -0.0964,0.0683 -0.1447,0.10232 0.0575,-0.0599 0.0583,-0.0657 0.0584,-0.0641 -0.0707,0.0239 -0.13607,0.0513 -0.19689,0.0966 -0.14442,0.11343 -0.30344,0.20811 -0.4532,0.31419 -0.19913,0.1261 -0.39446,0.25744 -0.58911,0.39016 -0.25855,0.16237 -0.55048,0.2595 -0.81339,0.41444 -0.26085,0.1288 -0.54128,0.20708 -0.8015,0.33745 -0.38515,0.19727 -0.78538,0.35893 -1.18494,0.52452 -0.45384,0.19275 -0.89962,0.40577 -1.33739,0.63252 -0.42151,0.23162 -0.82558,0.49415 -1.2578,0.7059 -0.44307,0.23367 -0.88376,0.47226 -1.33171,0.69659 -0.52425,0.23099 -1.05406,0.44855 -1.58078,0.67386 -0.45214,0.19838 -0.91562,0.37212 -1.35495,0.5979 -0.39552,0.21244 -0.78977,0.42975 -1.13637,0.7183 -0.3263,0.24019 -0.64023,0.49575 -1.00459,0.67955 -0.42166,0.25667 -0.84014,0.51722 -1.26969,0.76067 -0.42498,0.22364 -0.87058,0.41065 -1.264,0.6904 -0.46351,0.29656 -0.93614,0.57622 -1.40922,0.85731 -0.64469,0.40762 -1.26921,0.84685 -1.91461,1.25367 -0.59002,0.39419 -1.16346,0.81325 -1.76475,1.19063 -0.58069,0.37541 -1.16396,0.74657 -1.75442,1.10639 -0.59014,0.32758 -1.17946,0.66106 -1.79162,0.94568 -0.59537,0.24894 -1.20074,0.46839 -1.80661,0.68988 -0.60126,0.24266 -1.19662,0.50089 -1.80919,0.71417 -0.4922,0.1779 -0.98139,0.36775 -1.4888,0.49919 -0.4694,0.14153 -0.93874,0.28262 -1.42007,0.37931 -0.44568,0.0865 -0.89836,0.13789 -1.33583,0.26355 -0.55554,0.13428 -1.13027,0.23062 -1.64383,0.49299 -0.30732,0.12984 -0.63278,0.21517 -0.95963,0.2806 -0.39609,0.0667 -0.79792,0.0982 -1.19786,0.1323 -0.42087,0.003 -0.84154,0.0275 -1.2578,0.093 -0.27402,0.0454 -0.54731,0.10233 -0.82579,0.11007 -0.4166,0.0122 -0.83696,0.0479 -1.25212,0 -0.40347,-0.0335 -0.80797,-0.0319 -1.20975,0.0238 -0.42871,0.0436 -0.84175,0.15908 -1.25832,0.26561 -0.37452,0.10124 -0.73468,0.23633 -1.08262,0.40876 -0.31863,0.13587 -0.6393,0.26507 -0.96687,0.37776 -0.27309,0.13176 -0.54106,0.27268 -0.8046,0.42271 -0.38607,0.22915 -0.75786,0.48269 -1.14101,0.71675 -0.34261,0.24183 -0.70297,0.45431 -1.06816,0.66043 -0.4148,0.23975 -0.8125,0.50526 -1.19992,0.78703 -0.34408,0.24314 -0.65969,0.52206 -0.98806,0.78548 -0.20325,0.13712 -0.40524,0.27626 -0.62321,0.38964 -0.16445,0.0692 -0.33847,0.1078 -0.51108,0.15141 -0.006,0.005 -0.0113,0.009 -0.0171,0.014 -0.16354,0.13349 -0.32632,0.26753 -0.49402,0.39584 -0.13778,0.10602 -0.27585,0.21155 -0.4098,0.32246 -0.0327,0.0261 -0.0656,0.0521 -0.0982,0.0786 -4.4e-4,4.2e-4 -0.001,6.4e-4 -0.002,0.001 -0.005,0.005 -0.009,0.0103 -0.014,0.015 0.0225,-0.008 0.0452,-0.0154 0.0677,-0.0233 0.30676,-0.0995 0.62056,-0.17212 0.93431,-0.24494 0.24909,-0.0684 0.5019,-0.11932 0.74311,-0.21291 0.25445,-0.12314 0.48663,-0.28354 0.72244,-0.4377 0.33407,-0.26402 0.65077,-0.5492 0.99994,-0.79375 0.37334,-0.27312 0.75614,-0.5315 1.15806,-0.76068 0.37941,-0.21399 0.75221,-0.43711 1.1095,-0.68626 0.37252,-0.22482 0.73127,-0.47282 1.10587,-0.69401 0.25039,-0.14218 0.50442,-0.27656 0.76378,-0.40153 0.32125,-0.10415 0.63152,-0.2367 0.94258,-0.36742 0.32561,-0.16266 0.66324,-0.29009 1.01389,-0.38602 0.38862,-0.0974 0.77255,-0.20955 1.17202,-0.25063 0.3684,-0.0491 0.73872,-0.0553 1.10846,-0.0212 0.43602,0.0507 0.87719,0.0135 1.31465,5.2e-4 0.30352,-0.005 0.60208,-0.0636 0.9002,-0.11524 0.38705,-0.0601 0.77806,-0.0851 1.16944,-0.0853 0.42949,-0.0302 0.8597,-0.0694 1.28468,-0.13953 0.36849,-0.0675 0.7298,-0.17246 1.07693,-0.31264 0.48869,-0.25112 1.03658,-0.33926 1.56528,-0.4687 0.42883,-0.12358 0.87308,-0.17396 1.31052,-0.25683 0.49998,-0.10055 0.98776,-0.24385 1.47484,-0.39275 0.51607,-0.1341 1.01429,-0.32626 1.51567,-0.50539 0.61855,-0.21784 1.22159,-0.47633 1.82883,-0.72347 0.60774,-0.22202 1.21505,-0.44232 1.81229,-0.69195 0.6327,-0.28921 1.23997,-0.63278 1.84589,-0.9741 0.59868,-0.36874 1.19171,-0.74748 1.78128,-1.13068 0.6028,-0.37959 1.17724,-0.8004 1.7694,-1.19579 0.64088,-0.40595 1.26243,-0.84199 1.90273,-1.2485 0.4743,-0.28029 0.9472,-0.56142 1.41128,-0.85835 0.38148,-0.27028 0.81335,-0.45119 1.22525,-0.66714 0.44221,-0.24417 0.8673,-0.51547 1.29863,-0.77773 0.37757,-0.19208 0.70636,-0.45438 1.04438,-0.70539 0.32717,-0.27247 0.69891,-0.47702 1.07229,-0.67747 0.42709,-0.21973 0.87873,-0.38558 1.31775,-0.57981 0.52545,-0.22803 1.05646,-0.44296 1.58078,-0.67386 0.46033,-0.22667 0.90957,-0.47544 1.36426,-0.71314 0.43549,-0.21267 0.84206,-0.47806 1.26659,-0.71107 0.4237,-0.21628 0.85347,-0.42138 1.29036,-0.60978 0.41241,-0.16856 0.82499,-0.33553 1.22008,-0.54209 0.2592,-0.12076 0.53118,-0.20606 0.78961,-0.32917 0.28318,-0.15601 0.58462,-0.27221 0.86093,-0.4408 0.19412,-0.13462 0.39267,-0.26088 0.59428,-0.38396 0.16623,-0.11149 0.33755,-0.21705 0.49868,-0.3359 0.0523,-0.0148 0.10239,-0.0433 0.15089,-0.078 -0.0126,0.004 -0.0324,0.011 -0.0248,0.006 0.0134,-0.007 0.0272,-0.0128 0.0408,-0.0191 5.4e-4,1.9e-4 6.7e-4,3.3e-4 0.001,5.2e-4 -8.8e-4,8.7e-4 -0.003,0.002 -0.004,0.004 0.002,-8.9e-4 0.004,-0.002 0.005,-0.003 0.0222,0.007 0.0555,0.0136 0.10697,0.0181 -0.0516,0.082 0.0814,0.006 0.19534,-0.0724 0.001,-1.5e-4 0.002,6e-5 0.003,0 0.14141,-0.0415 0.26958,-0.10564 0.41548,-0.13074 0.28248,-0.028 0.56915,0.0132 0.85111,0.0357 0.43985,0.008 0.86995,0.0942 1.30121,0.17105 0.48794,0.0827 0.97554,0.16786 1.46709,0.22634 0.39116,0.0456 0.78367,0.0722 1.17719,0.0842 0.35182,0.0143 0.70282,0.0348 1.05472,0.0481 0.40936,0.0217 0.81889,0.042 1.22835,0.0615 0.14512,-0.008 0.28278,0.0387 0.42633,0.0424 0.0581,0.0337 0.0146,0.006 0.12661,0.14263 0.0983,0.10991 0.157,0.24269 0.19585,0.38395 0.0837,0.1984 0.1367,0.40729 0.21859,0.60617 0.0338,0.0812 0.0833,0.28815 0.14056,0.45062 0.0817,0.18329 0.12967,0.37692 0.20309,0.56379 0.0835,0.1657 0.17685,0.32792 0.27698,0.48472 0.0597,0.14302 0.18606,0.2429 0.26149,0.37414 0.058,0.12013 0.14105,0.22617 0.22737,0.32711 0.1577,0.13356 0.22507,0.19679 0.29404,0.27285 0.0168,0.01 0.0337,0.0188 0.0501,0.0289 0.0203,0.0282 0.0427,0.0587 0.046,0.063 -0.005,-0.006 -0.007,-0.0194 -0.0139,-0.0165 -0.0158,0.007 0.0132,0.0326 0.0207,0.0481 0.0399,0.0815 0.0258,0.051 0.0977,0.14521 0.0159,0.0157 0.0318,0.0319 0.0475,0.0481 0.0225,0.0233 -0.0781,-0.10286 -0.0563,-0.0791 0.0363,0.0398 0.0622,0.0882 0.0982,0.12816 0.003,0.003 0.006,0.003 0.0114,0.008 0.0832,0.0785 0.0178,0.0422 0.19017,0.1602 0.0642,0.0463 0.13609,0.0819 0.19327,0.12971 0.0584,0.0436 0.17467,0.1146 0.25734,0.10542 0.0633,-0.11441 0.0318,-0.0414 0.0682,-0.22738 l 0.0207,0.0527 c 0.19165,-0.23766 0.15033,-0.1272 0.19637,-0.29404 -0.0222,-0.0403 -0.10604,-0.0943 -0.15555,-0.12195 -0.0794,-0.0656 -0.16732,-0.11539 -0.2527,-0.17312 -0.005,-0.003 -0.0211,-0.0113 -0.0351,-0.0196 -0.005,-0.004 -0.0197,-0.0228 -0.0176,-0.0186 -0.0145,-0.0142 -0.0289,-0.0283 -0.0434,-0.0424 -0.002,-0.004 -0.003,-0.006 -0.005,-0.008 -0.0145,-0.0208 -0.033,-0.0389 -0.0496,-0.0579 5.3e-4,0.002 0.001,0.003 0.001,0.005 0.0258,0.065 -0.0751,-0.15132 -0.0853,-0.15452 -0.0477,-0.0572 -0.0861,-0.12423 -0.14314,-0.17208 -0.0804,-0.0673 -0.11667,-0.086 -0.12661,-0.0822 -0.0511,-0.0388 -0.10539,-0.0715 -0.15451,-0.11421 -0.0682,-0.0809 -0.13292,-0.16431 -0.17828,-0.26096 -0.0838,-0.12687 -0.19187,-0.2345 -0.26097,-0.37156 -0.0783,-0.12586 -0.15533,-0.25299 -0.22634,-0.3824 -0.0697,-0.18194 -0.12242,-0.36884 -0.19947,-0.54777 -0.0584,-0.15942 -0.0947,-0.32595 -0.15555,-0.4837 -0.0808,-0.17557 -0.11345,-0.37045 -0.19689,-0.5457 -0.0702,-0.218 -0.16162,-0.42873 -0.31729,-0.60048 -0.0802,-0.0888 -0.18466,-0.22553 -0.2744,-0.26407 -0.0893,-0.0534 -0.18881,-0.0906 -0.29507,-0.0811 -0.0839,0.0105 -0.28626,-0.0755 -0.39946,-0.045 -0.41147,-0.0196 -0.82268,-0.0377 -1.23404,-0.0599 -0.35377,-0.0132 -0.70713,-0.0356 -1.06091,-0.0481 -0.37607,-0.01 -0.75029,-0.0343 -1.12397,-0.0785 -0.48061,-0.0567 -0.95739,-0.14164 -1.43505,-0.21859 -0.45121,-0.0785 -0.90247,-0.16267 -1.36219,-0.16795 -0.24753,-0.0155 -0.49714,-0.0444 -0.74569,-0.0393 z m -0.78393,0.20671 c 0.0138,-0.003 0.0222,-9.6e-4 0.0202,0.0124 0.0824,0.0625 0.0499,0.0375 -0.12712,0.046 0.0149,-0.0105 0.0717,-0.05 0.10697,-0.0584 z m -0.18087,0.032 c 0.0205,-0.0117 -0.0493,1.2e-4 -0.0698,0.0119 -0.0137,0.008 -0.0251,0.0188 -0.0382,0.0274 0.004,-0.003 0.0748,-0.0204 0.108,-0.0393 z m -0.14883,0.0667 c 0.0135,-0.007 -0.029,0.008 -0.0434,0.0129 -0.003,9.4e-4 -0.005,0.002 -0.008,0.003 1.8e-4,0.003 0.003,0.009 0.0512,-0.016 z m 0.24133,0.4625 c -0.004,0.003 -0.009,0.005 -0.0124,0.008 0.003,-8.8e-4 0.004,-8.2e-4 0.006,-0.002 0.002,-0.003 0.004,-0.004 0.006,-0.006 z m 10.57713,3.62304 c 0.002,4.9e-4 0.003,0.003 0.005,0.003 0.0623,0.0895 0.0266,0.0401 -0.005,-0.003 z m 0.27957,0.34468 c 2.8e-4,-9e-4 0.0131,0.008 0.0176,0.0134 0.003,0.004 0.005,0.008 0.008,0.0119 -0.008,-0.008 -0.0173,-0.0167 -0.0258,-0.0253 z m -67.26979,21.88652 c -0.007,0.008 -0.0144,0.0156 -0.0217,0.0233 1.2e-4,10e-4 4e-4,0.003 5.2e-4,0.004 0.007,-0.006 0.014,-0.0118 0.0212,-0.0176 0.003,-0.002 0.005,-0.005 0.008,-0.007 -0.003,-7.8e-4 -0.006,-0.002 -0.008,-0.003 z m 0.45372,0.17518 c -0.0656,0.0543 -0.13239,0.10708 -0.20154,0.15658 -0.12618,0.0967 -0.25551,0.18911 -0.38241,0.28474 -0.0414,0.0614 -0.11679,0.1417 -0.1142,0.17105 -0.12856,0.13534 -0.31307,0.21852 -0.43253,0.3669 -0.14563,0.18928 -0.29168,0.37886 -0.42323,0.57826 -0.16917,0.26151 -0.34085,0.5216 -0.49971,0.78962 -0.20719,0.35147 -0.36323,0.72966 -0.57775,1.07693 -0.21211,0.3497 -0.42211,0.70035 -0.6227,1.05679 -0.14886,0.25174 -0.25796,0.52416 -0.39636,0.78186 -0.12909,0.23233 -0.25438,0.46961 -0.41702,0.68058 -0.26272,0.34064 -0.51552,0.68937 -0.79892,1.01337 -0.30869,0.33014 -0.61509,0.66278 -0.8816,1.02888 -0.28943,0.35788 -0.58872,0.7079 -0.86817,1.07384 -0.25955,0.33078 -0.46592,0.70353 -0.79375,0.97565 -0.30824,0.27048 -0.59254,0.566 -0.89607,0.84181 -0.35572,0.34497 -0.70142,0.70192 -1.03662,1.0666 -0.29386,0.33708 -0.56488,0.694 -0.85112,1.03766 -0.31642,0.37312 -0.70435,0.6666 -1.04851,1.01338 -0.65894,0.67642 -1.31185,1.35855 -1.930115,2.07274 -0.480884,0.54116 -0.952318,1.0899 -1.481563,1.58543 -0.774622,0.80189 -1.554527,1.60121 -2.403988,2.32492 -0.578137,0.51347 -1.165041,1.0162 -1.719792,1.55547 -0.376189,0.35751 -0.751748,0.71538 -1.123445,1.07745 -0.244462,0.20797 -0.529136,0.36718 -0.756026,0.5979 -0.196197,0.17397 -0.430853,0.2986 -0.627869,0.47232 -0.444235,0.36104 -0.884556,0.72593 -1.347205,1.0635 -0.200503,0.17028 -0.402003,0.34574 -0.646472,0.45062 -0.213491,0.0947 -0.425484,0.19317 -0.634586,0.29714 -0.126455,0.0501 -0.256325,0.0939 -0.384473,0.13901 -0.147442,0.0355 -0.293825,0.0762 -0.444934,0.0951 -0.325345,0.0405 -0.635909,0.13487 -0.950847,0.22376 -0.396266,0.10319 -0.79656,0.18969 -1.189074,0.30747 -0.492218,0.14292 -0.997952,0.23346 -1.509986,0.26666 -0.493643,0.021 -0.988905,6.2e-4 -1.480013,0.0625 -0.590325,0.0509 -1.175369,0.14609 -1.765783,0.19689 -0.668249,0.0428 -1.332767,0.0359 -1.984892,-0.13849 -0.282274,-0.0696 -0.558812,-0.15166 -0.824239,-0.27234 -0.310547,-0.1222 -0.610457,-0.26841 -0.917257,-0.39946 -0.303902,-0.11832 -0.609913,-0.23007 -0.912606,-0.3514 -0.413498,-0.18034 -0.830262,-0.35334 -1.238167,-0.54622 -0.73332,-0.35684 -1.431591,-0.78444 -2.171444,-1.12964 l -0.09664,0.18448 h 5.17e-4 c 0.744592,0.34095 1.430336,0.79246 2.154907,1.16892 0.407958,0.19994 0.822289,0.38606 1.231967,0.5824 0.298624,0.13864 0.606325,0.25492 0.906404,0.39015 0.297741,0.15326 0.593312,0.31013 0.90072,0.44339 0.276875,0.14011 0.568329,0.23383 0.867131,0.31367 0.69137,0.18793 1.397903,0.2031 2.107882,0.16382 0.594245,-0.0443 1.182876,-0.14201 1.776635,-0.19017 0.486012,-0.0587 0.97574,-0.0356 1.463994,-0.0579 0.545466,-0.0336 1.083644,-0.12944 1.608687,-0.27853 0.389131,-0.11538 0.78519,-0.20166 1.178223,-0.3018 0.29601,-0.082 0.587736,-0.17528 0.894002,-0.20722 0.161271,-0.0172 0.31899,-0.0534 0.478524,-0.076 0.160305,-0.0299 0.315861,-0.0858 0.469222,-0.14108 0.220625,-0.0998 0.438697,-0.20575 0.660941,-0.30231 0.28707,-0.12649 0.526732,-0.32914 0.761711,-0.53226 0.454561,-0.34113 0.891224,-0.70422 1.332218,-1.06247 0.206133,-0.17032 0.435795,-0.30841 0.639238,-0.48162 0.227248,-0.22508 0.503137,-0.38745 0.750342,-0.58705 0.383594,-0.36566 0.767222,-0.7316 1.150317,-1.09812 0.552214,-0.53372 1.134924,-1.03346 1.70894,-1.54306 0.859058,-0.73111 1.645172,-1.54087 2.429825,-2.34973 0.534741,-0.49946 1.011734,-1.05272 1.497067,-1.59887 0.613057,-0.70932 1.263697,-1.38405 1.916157,-2.05672 0.35681,-0.34924 0.74664,-0.65557 1.07074,-1.03663 0.28478,-0.34281 0.55727,-0.69579 0.84801,-1.03353 0.32606,-0.35342 0.65859,-0.70345 1.00614,-1.03611 0.29861,-0.26976 0.57681,-0.56133 0.88005,-0.82579 0.3528,-0.2903 0.57583,-0.68821 0.85266,-1.04335 0.27676,-0.36527 0.57353,-0.71421 0.8599,-1.07177 0.26016,-0.35619 0.55762,-0.68142 0.85834,-1.00304 0.29461,-0.33386 0.5566,-0.69456 0.82838,-1.04696 0.17739,-0.23004 0.31709,-0.48627 0.4563,-0.74052 0.14185,-0.24829 0.23668,-0.52249 0.38809,-0.76481 0.19806,-0.35774 0.41065,-0.70722 0.6227,-1.05679 0.21547,-0.34929 0.37318,-0.7292 0.58033,-1.08314 0.15707,-0.26119 0.32281,-0.51674 0.48834,-0.77256 0.12287,-0.18769 0.25221,-0.37271 0.39274,-0.54777 0.1231,-0.11155 0.26146,-0.20322 0.38499,-0.31367 0.0687,-0.097 0.14511,-0.18896 0.21136,-0.28836 0.0962,-0.20768 0.14507,-0.43598 0.16898,-0.66301 z" />
    <path
       id="path9714"
       style="fill:#000000;stroke-width:0.874001"
       d="m 119.02788,122.88966 c -0.0164,3.9e-4 -0.018,0.0199 -0.046,0.0253 -0.0165,0.009 -0.0741,0.043 -0.0749,0.0439 -0.0326,0.018 -0.0937,0.0535 -0.0971,0.0589 0.002,3e-5 0.007,-0.002 0.0186,-0.007 -0.0126,0.007 -0.13338,0.086 -0.0987,0.0703 -0.0495,0.0463 -0.12806,0.0602 -0.17776,0.10749 -0.0648,0.0371 -0.12239,0.0847 -0.18345,0.12764 -0.0887,0.0726 -0.1776,0.14552 -0.26097,0.22427 -0.10642,0.0821 -0.21153,0.16607 -0.32194,0.24288 -0.11251,0.0682 -0.22597,0.1339 -0.3483,0.18345 -0.13519,0.0712 -0.26606,0.15174 -0.38913,0.24237 -0.11413,0.0852 -0.22983,0.1677 -0.34675,0.24908 -0.15089,0.0987 -0.30963,0.18341 -0.46302,0.27802 -0.23377,0.15029 -0.46281,0.30781 -0.69711,0.45733 -0.25634,0.17832 -0.50993,0.36103 -0.74259,0.56999 -0.26241,0.1988 -0.52251,0.40039 -0.77412,0.61289 -0.27786,0.2156 -0.55675,0.431 -0.81545,0.66972 -0.0246,0.0252 -0.0498,0.0493 -0.0734,0.0755 -0.0316,0.0349 -0.0557,0.0762 -0.0873,0.1111 -0.14441,0.15929 -0.32826,0.27796 -0.4899,0.41755 l 0.12454,0.16588 c 0.17183,-0.14216 0.3594,-0.26989 0.51315,-0.43305 0.0574,-0.0609 0.10664,-0.12627 0.1664,-0.18552 0.25108,-0.23275 0.52389,-0.43983 0.79633,-0.64647 0.25487,-0.20595 0.51769,-0.40092 0.78393,-0.59169 0.23748,-0.19801 0.49092,-0.37551 0.74776,-0.54726 0.2347,-0.14231 0.46395,-0.29306 0.69815,-0.43615 0.1571,-0.0903 0.31899,-0.17119 0.47284,-0.26716 0.12403,-0.0826 0.24613,-0.16702 0.3669,-0.25425 0.11126,-0.076 0.22322,-0.15576 0.34624,-0.21187 0.12953,-0.0525 0.25038,-0.12158 0.37052,-0.19224 0.12228,-0.0784 0.23467,-0.17061 0.35243,-0.25528 0.0897,-0.0764 0.17991,-0.15147 0.27337,-0.22324 0.0479,-0.0308 0.0907,-0.0689 0.14107,-0.0956 0.0671,-0.0435 0.13914,-0.0778 0.20619,-0.12144 -10e-4,1.7e-4 0.0769,-0.0589 0.0672,-0.0512 0.0302,-0.0194 0.0531,-0.0435 0.078,-0.0543 0.0269,-0.0139 0.0292,-0.0148 0.0465,-0.0274 -0.0104,0.009 0.004,4.3e-4 0.0176,-0.006 0.0188,-0.008 0.10037,-0.0444 0.10439,-0.0656 0.002,-0.008 -0.004,-0.0156 -0.006,-0.0233 -0.0203,-0.14167 0.0202,-0.10773 -0.0641,-0.14573 l -0.0527,0.0202 c -0.0729,-0.004 -0.0372,0.0106 -0.0579,-0.10283 -0.0104,-0.006 -0.0191,-0.008 -0.0248,-0.008 z" />
    <path
       id="path9818"
       style="fill:#000000;stroke-width:0.874001"
       d="m 118.17987,123.28136 c -0.01,-6.9e-4 -0.0251,0.005 -0.0512,0.0124 -0.0292,0.0131 -0.0452,0.0227 -0.0563,0.031 -0.001,7.9e-4 -0.003,0.002 -0.005,0.004 -0.019,0.0156 -0.0199,0.0263 -0.0501,0.0465 -0.0823,0.0534 -0.16096,0.11126 -0.23719,0.17311 -0.0974,0.0726 -0.19487,0.14365 -0.29714,0.20929 -0.0889,0.0739 -0.1779,0.14754 -0.26872,0.21911 -0.0966,0.0768 -0.19704,0.14719 -0.30024,0.21498 -0.11391,0.0739 -0.23309,0.1386 -0.34933,0.20877 -0.13364,0.0825 -0.26455,0.16976 -0.40359,0.24339 -0.10221,0.0613 -0.19385,0.13628 -0.29973,0.19069 -0.12635,0.059 -0.2453,0.12753 -0.35915,0.20826 -0.10543,0.0614 -0.20894,0.12687 -0.29869,0.21032 -0.0951,0.0825 -0.18803,0.16871 -0.29249,0.23926 -0.13062,0.0866 -0.25884,0.17644 -0.39222,0.2589 -0.12959,0.0813 -0.25905,0.16266 -0.37879,0.25838 -0.13757,0.10015 -0.27451,0.20088 -0.39946,0.31678 -0.12374,0.10074 -0.22822,0.21874 -0.32814,0.34313 -0.1037,0.1293 -0.20938,0.25715 -0.30903,0.38964 -0.0187,0.0248 -0.0295,0.0504 -0.047,0.0744 -0.11782,0.1606 -0.26765,0.29424 -0.39636,0.44545 l 0.11885,0.11472 c 0.13403,-0.1525 0.28415,-0.29052 0.41496,-0.44597 0.0196,-0.0233 0.0352,-0.0479 0.0558,-0.0703 0.10555,-0.12522 0.21238,-0.24916 0.3235,-0.36949 0.097,-0.1091 0.19173,-0.21671 0.30696,-0.30644 0.1254,-0.10928 0.25941,-0.20772 0.39532,-0.30334 0.11613,-0.0926 0.24404,-0.16734 0.36949,-0.24598 0.1356,-0.0812 0.26407,-0.17379 0.39739,-0.25838 0.11422,-0.0752 0.21506,-0.16887 0.31936,-0.25683 0.0792,-0.0735 0.17012,-0.13048 0.26303,-0.18449 0.10758,-0.0756 0.21837,-0.14325 0.33848,-0.19688 0.11629,-0.0533 0.21323,-0.136 0.3235,-0.19999 0.1415,-0.0722 0.27475,-0.15871 0.40979,-0.24185 0.1185,-0.07 0.2394,-0.1351 0.35502,-0.2098 0.10964,-0.0715 0.2177,-0.14501 0.32143,-0.2248 0.0937,-0.072 0.1861,-0.14564 0.27698,-0.22117 0.1,-0.0607 0.19517,-0.12755 0.28887,-0.19741 0.0457,-0.0363 0.092,-0.0718 0.13953,-0.10542 0.0376,-0.0134 0.0752,-0.0467 0.0971,-0.061 0.0181,-0.0143 0.0612,-0.0477 0.0605,-0.0501 -2.2e-4,-9.1e-4 -2.9e-4,-0.002 -5.1e-4,-0.003 0.0437,-0.0381 0.0974,-0.0882 0.032,-0.0496 -0.0103,0.013 -0.0174,0.0218 -0.0217,0.0279 -0.002,-0.009 -0.0102,-0.0217 -0.0243,-0.0388 -0.0318,-0.15297 -0.0162,-0.19763 -0.0419,-0.19947 z" />
    <path
       id="path9820"
       style="fill:#000000;stroke-width:0.874001"
       d="m 114.74545,125.52774 c -0.0267,-0.002 -0.0649,0.0586 -0.0858,0.0599 -0.0799,0.0578 -0.15874,0.11692 -0.24288,0.16847 -0.0686,0.0462 -0.13874,0.0889 -0.20671,0.13591 -0.0806,0.0519 -0.16023,0.10556 -0.25063,0.13952 -0.11019,0.0466 -0.22043,0.0924 -0.32298,0.15503 -0.0855,0.0496 -0.18157,0.0811 -0.25424,0.1509 -0.0629,0.0591 -0.11888,0.12377 -0.17519,0.18913 -0.011,0.0124 -0.0218,0.0251 -0.0326,0.0377 -0.0636,0.051 -0.1124,0.11688 -0.16537,0.17828 -0.0675,0.0884 -0.13553,0.17659 -0.2036,0.26458 -0.0801,0.10953 -0.16347,0.21571 -0.25167,0.31885 -0.073,0.0878 -0.13674,0.18212 -0.2036,0.2744 -0.0659,0.0966 -0.13956,0.18923 -0.19999,0.28939 -9e-4,0.001 -0.002,0.003 -0.003,0.004 -0.052,0.0568 -0.10267,0.11262 -0.10232,0.11627 3.5e-4,0.004 4.9e-4,0.008 0.001,0.0114 -0.002,0.003 -0.005,0.006 -0.007,0.008 0.003,-0.003 0.005,-0.005 0.008,-0.007 0.0105,0.0688 0.0519,0.13175 0.093,0.18811 0.002,0.003 0.0104,-5.7e-4 0.0196,-0.007 0.0173,0.0487 0.0393,0.0482 0.0997,0.0109 0.0624,-0.055 0.11407,-0.12208 0.17105,-0.18242 0.0602,-0.0735 0.12197,-0.14574 0.17983,-0.22117 0.0552,-0.0728 0.1051,-0.14984 0.15503,-0.22635 0.0421,-0.0527 0.0917,-0.099 0.13177,-0.15348 0.0523,-0.0591 0.0916,-0.12561 0.13385,-0.19171 0.0626,-0.085 0.12446,-0.17064 0.19017,-0.25322 0.011,-0.0149 0.0219,-0.0296 0.0331,-0.0444 0.0617,-0.052 0.12823,-0.0986 0.1912,-0.14883 0.0874,-0.0735 0.17228,-0.1513 0.25218,-0.23306 0.0373,-0.0377 0.0789,-0.0692 0.10491,-0.11627 0.0114,-0.0549 0.0202,-0.0739 -0.0258,-0.0832 0.0863,-0.0477 0.17674,-0.0861 0.2682,-0.12299 0.10245,-0.0397 0.1949,-0.0984 0.2868,-0.15761 0.0684,-0.0493 0.14091,-0.0915 0.21084,-0.1385 0.0865,-0.0526 0.16719,-0.11331 0.24908,-0.1726 0.0288,-0.0263 0.0879,-0.0487 0.0966,-0.0925 0.003,-0.0153 -0.003,-0.0315 -0.004,-0.047 l -0.11627,-0.076 c -0.006,-0.008 -0.008,-0.0209 -0.0176,-0.0248 -0.002,-6.9e-4 -0.003,-0.001 -0.005,-0.002 z" />
    <path
       id="path9822"
       style="fill:#000000;stroke-width:0.874001"
       d="m 115.77691,125.19804 c -0.002,0.006 6e-5,0.005 -0.008,0.008 -0.0204,0.008 -0.0345,0.0119 -0.046,0.0165 -0.002,-0.005 -0.004,-0.0104 -0.006,-0.0155 -0.1195,0.0272 -0.22386,0.0881 -0.32814,0.14934 -0.0918,0.0624 -0.18879,0.11739 -0.29146,0.15968 -0.0699,0.0265 -0.12837,0.0741 -0.19378,0.10904 -0.15093,0.0839 -0.27844,0.20304 -0.4036,0.32039 -0.11115,0.11339 -0.23273,0.21381 -0.36173,0.30593 -0.1278,0.0706 -0.22811,0.17529 -0.33435,0.27285 -0.0979,0.0817 -0.17918,0.17939 -0.25735,0.27957 -0.0914,0.1248 -0.19398,0.23964 -0.29558,0.35605 -0.0476,0.0659 -0.11072,0.11535 -0.16692,0.17312 -0.0572,0.0661 -0.11729,0.12709 -0.1819,0.18551 -0.0497,0.0435 -0.0901,0.0965 -0.13436,0.14522 -0.0491,0.0506 -0.10738,0.0898 -0.15968,0.13694 -0.0627,0.0542 -0.102,0.1282 -0.15916,0.18707 -0.0289,0.0154 -0.0938,0.0833 -0.10181,0.14262 -0.003,0.023 0.004,0.0463 0.006,0.0693 l 0.0387,0.0413 c 0.0279,-8e-4 0.0561,0.004 0.0832,-0.002 0.0479,-0.0119 0.0957,-0.0697 0.13591,-0.0961 0.0532,-0.0567 0.0942,-0.1228 0.14986,-0.17725 0.0552,-0.0531 0.12027,-0.0944 0.17157,-0.15193 0.039,-0.0431 0.0748,-0.0889 0.11782,-0.12764 0.0697,-0.0611 0.1337,-0.1255 0.1943,-0.19586 0.0593,-0.0611 0.12346,-0.11642 0.17415,-0.18552 0.10137,-0.12145 0.20341,-0.24248 0.29714,-0.37 0.0448,-0.0593 0.0905,-0.11754 0.1416,-0.17105 0.0972,-0.0811 0.19773,-0.15796 0.29714,-0.23668 0.13345,-0.10987 0.26321,-0.22402 0.39584,-0.33486 0.19491,-0.15789 0.40928,-0.2896 0.61908,-0.42633 0.10448,-0.0761 0.20986,-0.1479 0.32401,-0.20877 0.0682,-0.0366 0.13416,-0.0759 0.20464,-0.10749 0.0228,-0.009 0.0435,-0.0197 0.0631,-0.0326 5.2e-4,-1.2e-4 0.001,-3.9e-4 0.002,-5.1e-4 v -5.2e-4 c 0.007,-0.004 0.0133,-0.009 0.0196,-0.0139 6.5e-4,7e-5 0.002,-1.3e-4 0.002,0 0.002,8e-4 0.008,0.006 0.007,0.004 -0.001,-0.003 -0.002,-0.006 -0.003,-0.009 0.002,-0.002 0.004,-0.003 0.006,-0.005 -0.002,9.9e-4 -0.004,0.002 -0.007,0.003 -0.006,-0.0181 -0.0129,-0.0363 -0.0196,-0.0543 0.003,-0.0476 0.006,-0.095 0.009,-0.14263 z m 0.0176,0.19379 c 0.0138,-0.006 0.0278,-0.0126 0.0181,-0.016 -0.006,0.006 -0.012,0.0108 -0.0181,0.016 z" />
    <path
       style="fill:#000000;stroke-width:0.874001"
       id="path9856"
       d="m 76.608381,156.5138 c 0.446659,0.15007 1.592193,0.53598 2.068518,0.69226 0.351676,0.11539 0.815683,0.28294 1.195731,0.32762 0.497115,0.0584 0.715642,-0.0266 1.231503,-0.11798 0.184719,-0.0407 0.369438,-0.0813 0.554154,-0.12199 0,0 -0.0074,-0.0364 -0.0074,-0.0364 v 0 c -0.184756,0.0344 -0.369509,0.0688 -0.554265,0.10319 -0.427069,0.0402 -0.77316,0.10593 -1.193773,0.0428 -0.33328,-0.05 -0.880169,-0.24651 -1.176952,-0.34463 -0.100647,-0.0333 -2.046655,-0.67985 -2.069068,-0.6873 0,0 -0.04846,0.14237 -0.04846,0.14237 z" />
    <path
       style="fill:#000000;stroke-width:0.874001"
       id="path9858"
       d="m 75.546748,169.00216 c 0.481235,-0.73068 1.03187,-1.4217 1.698604,-1.99292 0.448016,-0.38384 0.959411,-0.69703 1.457063,-1.01034 0.664374,-0.37212 1.300136,-0.79029 1.943764,-1.19637 0,0 -0.02834,-0.049 -0.02834,-0.049 v 0 c -0.674846,0.35588 -1.352238,0.70788 -2.004132,1.10508 -0.505878,0.32109 -1.024329,0.64153 -1.479568,1.03407 -0.675169,0.58217 -1.231506,1.28469 -1.714317,2.0307 0,0 0.126928,0.0788 0.126928,0.0788 z" />
    <path
       style="fill:#000000;stroke-width:0.874001"
       id="path9860"
       d="m 76.064747,162.49029 c 1.052401,-0.32134 2.099408,-0.67845 3.181553,-0.8894 0.120209,-0.0234 0.925068,-0.15208 1.037564,-0.17021 1.260676,-0.23871 2.474055,-0.6673 3.68931,-1.06969 0.160406,-0.0617 0.32375,-0.1163 0.481216,-0.18518 0.543436,-0.23769 0.576363,-0.28929 1.102112,-0.5881 0.350943,-0.19947 0.703937,-0.39529 1.05601,-0.59275 1.511604,-0.84778 0.747345,-0.40224 2.204233,-1.28147 1.292191,-0.83031 2.340113,-1.95156 3.393845,-3.05279 0,0 -0.02238,-0.0218 -0.02238,-0.0218 v 0 c -1.067543,1.07445 -2.174864,2.12242 -3.430156,2.97771 -1.891205,1.14952 -0.232373,0.15553 -2.19615,1.2903 -0.852295,0.4925 -1.673955,1.06529 -2.607154,1.39846 -1.21067,0.40089 -2.422435,0.82768 -3.683923,1.03841 -0.225283,0.0313 -0.819629,0.11109 -1.046814,0.15304 -1.088252,0.20094 -2.137828,0.56564 -3.192351,0.89231 0,0 0.03308,0.10117 0.03308,0.10117 z" />
    <path
       style="fill:#000000;stroke-width:0.874001"
       id="path9862"
       d="m 88.465151,163.02233 c 1.38109,-0.67502 2.85542,-1.2395 4.144417,-2.08973 0.535382,-0.35314 0.738275,-0.54539 1.21529,-0.94628 1.57966,-1.31676 2.985947,-2.82098 4.351988,-4.35367 0.709295,-0.80588 1.053748,-1.81277 1.435211,-2.79564 0.395173,-1.01819 0.223621,-0.60034 0.688003,-1.63013 0.55527,-1.11221 1.22079,-2.16602 1.92137,-3.19143 0.26096,-0.38197 0.52265,-0.76404 0.80515,-1.13036 0.67218,-0.87157 0.9739,-1.15164 1.71367,-1.93077 1.2832,-1.3168 0.65019,-0.66478 1.89921,-1.95589 0,0 -0.0193,-0.0194 -0.0193,-0.0194 v 0 c -1.29733,1.24437 -0.6475,0.60804 -1.94855,1.90996 -0.75789,0.79468 -1.03606,1.04752 -1.72532,1.93877 -1.04608,1.35266 -1.94798,2.82375 -2.73883,4.33736 -0.470947,1.04472 -0.289858,0.60546 -0.690189,1.63536 -0.377486,0.97112 -0.715208,1.96798 -1.416989,2.76393 -1.362599,1.52893 -2.767417,3.02751 -4.345651,4.33802 -0.455899,0.38023 -0.694934,0.59934 -1.202198,0.93459 -1.288241,0.85139 -2.748727,1.41343 -4.126852,2.09387 0,0 0.03955,0.0914 0.03955,0.0914 z" />
    <path
       style="fill:#000000;stroke-width:0.874001"
       id="path9864"
       d="m 121.97742,127.06709 c -1.21602,0.43062 -2.47884,0.85978 -3.51562,1.65756 -0.81416,0.62647 -1.51,1.55124 -2.16951,2.33437 -0.19139,0.22906 -0.75945,0.89318 -0.94317,1.16869 -0.22379,0.33559 -0.33729,0.5997 -0.5013,0.94727 0,0 0.0508,0.025 0.0508,0.025 v 0 c 0.0609,-0.11875 0.11119,-0.24352 0.1826,-0.35624 0.38397,-0.60603 0.88657,-1.12477 1.33075,-1.68429 0.63038,-0.7544 1.35304,-1.71346 2.12489,-2.31822 1.02105,-0.80002 2.27213,-1.22927 3.47386,-1.66587 0,0 -0.0333,-0.10827 -0.0333,-0.10827 z" />
    <path
       style="fill:#000000;stroke-width:0.874001"
       id="path9870"
       d="m 111.85658,139.58476 c 0.34353,-0.74028 0.36468,-0.74937 0.63934,-1.46937 0.1225,-0.32114 0.13086,-0.40654 0.25076,-0.69165 0.0901,-0.21421 0.18966,-0.42431 0.28115,-0.63792 0.29255,-0.62944 0.4394,-1.29856 0.56619,-1.97553 0.12099,-0.61253 0.18805,-1.23205 0.33785,-1.83852 0.12319,-0.54436 0.36265,-1.04792 0.50205,-1.58735 0.1124,-0.53127 0.28049,-1.04763 0.46006,-1.55929 0.21064,-0.59596 0.59987,-1.09167 1.03267,-1.54215 0.74941,-0.68543 1.57161,-1.28248 2.42437,-1.83151 0.7783,-0.45036 1.54146,-0.92641 2.32762,-1.36302 0.97477,-0.57208 2.0608,-0.88587 3.11825,-1.26066 0.77475,-0.28262 1.49109,-0.7014 2.26847,-0.97707 0.43914,-0.15573 0.71528,-0.22313 1.1666,-0.34782 0.13262,-0.0256 0.26525,-0.0511 0.39787,-0.0767 0,0 -0.008,-0.056 -0.008,-0.056 v 0 c -0.13591,0.0146 -0.27183,0.0292 -0.40775,0.0437 -0.57814,0.0796 -0.66853,0.0691 -1.22379,0.23459 -0.78927,0.23524 -1.50497,0.66031 -2.27813,0.93798 -1.07219,0.37633 -2.17097,0.69734 -3.15739,1.27828 -0.79099,0.43951 -1.55875,0.91907 -2.3402,1.37513 -0.86636,0.56284 -1.7034,1.17264 -2.46191,1.8764 -0.45378,0.47704 -0.86307,1.00117 -1.07868,1.63198 -0.17965,0.51849 -0.35134,1.04043 -0.46381,1.57842 -0.13864,0.54045 -0.38187,1.04438 -0.49902,1.59131 -0.14655,0.61223 -0.20589,1.2365 -0.31464,1.85608 -0.11857,0.66464 -0.2483,1.32393 -0.52214,1.94677 -0.0902,0.21679 -0.18763,0.43062 -0.27306,0.64933 -0.28165,0.7211 -0.46143,1.48351 -0.83778,2.16778 0,0 0.0934,0.0468 0.0934,0.0468 z" />
    <path
       style="fill:#000000;stroke-width:0.874001"
       id="path9872"
       d="m 140.88515,121.33786 c 0.96829,0.0119 1.93642,-0.0129 2.90455,-0.025 0.37699,-0.005 1.06719,0.002 1.44473,-0.0478 0.31876,-0.0424 0.63182,-0.12016 0.94773,-0.18023 1.74811,-0.49179 3.33778,-1.39576 4.93011,-2.24591 0,0 -0.0243,-0.0511 -0.0243,-0.0511 v 0 c -1.6533,0.69619 -3.19113,1.67315 -4.93414,2.14837 -0.3094,0.0593 -0.616,0.13575 -0.92821,0.1778 -0.3826,0.0515 -1.0571,0.0453 -1.43834,0.0514 -0.9668,0.0154 -1.93348,0.0471 -2.90053,0.0386 0,0 -0.002,0.13378 -0.002,0.13378 z" />
    <path
       style="fill:#000000;stroke-width:0.874001"
       id="path9874"
       d="m 159.38143,110.16621 c -0.82118,0.43682 -1.60724,0.93234 -2.36843,1.46558 -0.31845,0.22309 -0.5144,0.39602 -0.87188,0.55543 -0.1818,0.0811 -0.37527,0.13298 -0.56291,0.19946 -0.19514,0.0445 -0.38864,0.097 -0.58542,0.1336 -0.38349,0.0714 -0.74583,0.0975 -1.13197,0.14478 -0.48558,0.0595 -0.96303,0.14345 -1.44224,0.24061 -0.79321,0.15742 -1.57746,0.35805 -2.33245,0.6511 -0.51872,0.20133 -0.88485,0.38255 -1.38896,0.61791 -0.74219,0.37625 -0.39543,0.17838 -1.0447,0.58578 0,0 0.0266,0.05 0.0266,0.05 v 0 c 0.69521,-0.30713 0.33321,-0.14473 1.08548,-0.48835 1.19841,-0.53555 2.39208,-1.00455 3.69267,-1.229 0.40967,-0.0858 0.51944,-0.11372 0.93641,-0.18085 0.74653,-0.12018 1.50857,-0.1616 2.23452,-0.38996 0.19288,-0.0736 0.39188,-0.13277 0.57862,-0.22077 0.35822,-0.16879 0.55363,-0.3455 0.87356,-0.57265 0.75422,-0.53551 1.53919,-1.02384 2.35355,-1.46338 0,0 -0.0524,-0.0993 -0.0524,-0.0993 z" />
    <path
       style="fill:#000000;stroke-width:0.874001"
       id="path9876"
       d="m 134.12382,121.34954 c 1.36972,-0.58548 2.80855,-0.97431 4.21601,-1.45266 0.11224,-0.0248 0.22447,-0.0496 0.33671,-0.0744 0,0 -0.012,-0.0554 -0.012,-0.0554 v 0 c -0.1134,0.0241 -0.22681,0.0481 -0.34022,0.0722 -1.4625,0.29566 -2.86454,0.84452 -4.25006,1.3859 0,0 0.0495,0.12427 0.0495,0.12427 z" />
    <path
       style="fill:#000000;stroke-width:0.874001"
       id="path9878"
       d="m 162.0874,106.69869 c 0.76738,-0.24059 1.54422,-0.4645 2.2848,-0.78201 0.41985,-0.18002 0.82705,-0.40049 1.23482,-0.60573 0.77054,-0.37257 1.53592,-0.75495 2.32902,-1.07758 0.82587,-0.29803 1.70864,-0.41981 2.58386,-0.40862 0.34628,0.059 0.56702,0.14874 0.82396,0.37983 0,0 0.0421,-0.0379 0.0421,-0.0379 v 0 c -0.22893,-0.30701 -0.45915,-0.52069 -0.85996,-0.57815 -0.15417,-0.006 -0.30828,-0.0211 -0.46252,-0.0175 -0.75499,0.0175 -1.51461,0.175 -2.22441,0.42562 -0.79779,0.32917 -1.56623,0.72101 -2.33976,1.10291 -0.39978,0.20624 -0.7968,0.43374 -1.20702,0.61878 -0.7291,0.32889 -1.49902,0.55803 -2.25797,0.80464 0,0 0.0531,0.17575 0.0531,0.17575 z" />
    <path
       style="fill:#000000;stroke-width:0.874001"
       id="path9880"
       d="m 108.8835,137.79637 c -1.06384,0.76993 -2.13446,1.53042 -3.20086,2.29679 -0.37673,0.27074 -0.85566,0.60858 -1.21762,0.90575 -0.23138,0.18997 -0.45287,0.39167 -0.67931,0.5875 -0.99443,1.05044 -0.54774,0.54682 -1.35265,1.49959 0,0 0.0259,0.0223 0.0259,0.0223 v 0 c 0.82084,-0.93037 0.36162,-0.4442 1.39454,-1.44238 0.22777,-0.19106 0.45153,-0.38702 0.68332,-0.57318 0.36689,-0.29465 0.83811,-0.62787 1.2174,-0.89951 1.06786,-0.76476 2.13767,-1.52681 3.20032,-2.29882 0,0 -0.071,-0.0981 -0.071,-0.0981 z" />
    <path
       style="fill:#000000;stroke-width:0.874001"
       id="path9882"
       d="m 177.55205,101.85682 c 0.0767,0.0607 0.14277,0.13228 0.20986,0.20279 0.0205,0.0215 0.0487,0.033 0.0653,0.0569 0.0667,0.0744 0.14096,0.14411 0.19804,0.22641 0.0516,0.10576 0.10239,0.21156 0.16004,0.31421 0.0568,0.11286 0.09,0.23561 0.12866,0.35547 0.0444,0.13748 0.0851,0.27524 0.14505,0.407 0.0596,0.11106 0.10603,0.22803 0.1509,0.34558 0.0411,0.11315 0.0779,0.22771 0.11912,0.34085 0.0349,0.10373 0.0876,0.19995 0.12786,0.30153 0.0365,0.0776 0.0603,0.16002 0.0951,0.23833 0.0331,0.0874 0.0664,0.1748 0.0935,0.26431 0.0235,0.0701 0.0417,0.14168 0.063,0.21236 0.024,0.0938 0.0513,0.1807 0.0972,0.26642 0.0377,0.0566 0.0732,0.11379 0.10616,0.17291 0.0236,0.0438 0.056,0.0831 0.0759,0.12886 0.0183,0.0369 0.0237,0.0565 0.0322,0.0833 0.015,0.0354 0.0299,0.07 0.0389,0.10741 0.005,0.0211 0.004,0.046 0.004,0.0646 -1e-4,-0.003 7.9e-4,-0.0113 -2.7e-4,-0.009 -0.008,0.0203 -0.018,0.14541 -0.006,0.0493 0.0392,-0.0918 -0.0447,0.0689 -0.0116,0.0111 -0.0667,0.1212 -0.009,0.0467 0.22141,0.27774 0.004,0.004 0.0109,-7.9e-4 0.0163,-0.002 0.0164,-0.004 0.0327,-0.009 0.049,-0.0131 0.0735,-0.0185 0.12609,-0.0731 0.18825,-0.11123 0.0488,-0.0352 0.0831,-0.0804 0.11115,-0.13322 0.0284,-0.0543 0.0339,-0.11455 0.0235,-0.17515 -0.004,-0.0373 -0.008,-0.0713 -0.0126,-0.11078 -0.0129,-0.059 -0.0208,-0.11834 -0.0322,-0.17755 -0.0143,-0.0568 -0.0256,-0.11422 -0.046,-0.1692 -0.013,-0.0432 -0.0202,-0.0882 -0.0302,-0.1323 -0.0133,-0.0613 -0.0458,-0.11524 -0.0665,-0.17374 -0.0169,-0.0579 -0.0559,-0.10837 -0.0724,-0.16603 -0.0157,-0.0536 -0.03,-0.10757 -0.0488,-0.16024 -0.0173,-0.0616 -0.0433,-0.11959 -0.0737,-0.17565 -0.0238,-0.0455 -0.0453,-0.0915 -0.0716,-0.1361 -0.0186,-0.0297 -0.0271,-0.0639 -0.045,-0.0939 -0.003,-0.006 0.007,0.0237 0.009,0.0173 0.001,-0.008 -0.005,-0.0146 -0.008,-0.0219 -0.0176,-0.0442 -0.0301,-0.0907 -0.0528,-0.13524 -0.0146,-0.0515 -0.0405,-0.10087 -0.0703,-0.14608 -0.0214,-0.0298 -0.0357,-0.0645 -0.0523,-0.097 -0.0213,-0.0539 -0.0554,-0.10112 -0.0815,-0.15235 -0.0274,-0.0559 -0.0544,-0.11199 -0.0833,-0.16715 -0.0244,-0.0691 -0.067,-0.12884 -0.11483,-0.18337 -0.026,-0.0288 -0.0423,-0.0644 -0.062,-0.0974 -0.0252,-0.0393 -0.0507,-0.0779 -0.0729,-0.11888 -0.0259,-0.0457 -0.0565,-0.0876 -0.0795,-0.13459 -0.0323,-0.0672 -0.0612,-0.1363 -0.10132,-0.19932 0.002,0.003 0.008,0.0131 0.008,0.009 -5.3e-4,-0.0136 -0.041,-0.0862 -0.0494,-0.1049 -0.0232,-0.0394 -0.0375,-0.0806 -0.0565,-0.12172 -0.0288,-0.0623 -0.0699,-0.11745 -0.1052,-0.17603 -0.0244,-0.0454 -0.0643,-0.0784 -0.0932,-0.12025 -0.0465,-0.0725 -0.10261,-0.13775 -0.15963,-0.20206 -0.0515,-0.0551 -0.0863,-0.12219 -0.13113,-0.18248 -0.0336,-0.049 -0.0674,-0.0976 -0.10273,-0.14552 -0.0349,-0.0481 -0.0856,-0.0786 -0.13252,-0.11314 -0.0362,-0.0299 -0.0761,-0.0544 -0.11563,-0.0795 -7.9e-4,-5.3e-4 -0.003,-0.002 -0.003,-0.002 0.002,0.002 0.0106,0.007 0.008,0.006 -0.0386,-0.0169 0.0783,0.002 -0.0448,-0.0293 -0.004,-0.001 -1.1e-4,0.0108 -0.004,0.0125 -0.0195,0.008 -0.0412,0.0103 -0.0617,0.0155 -0.0225,0.0296 -0.0449,0.0592 -0.0674,0.0887 0,0 -2.7e-4,0.0566 -2.7e-4,0.0566 v 0 c -0.008,0.0297 -0.0167,0.0593 -0.025,0.0889 -0.0108,0.009 -0.0269,0.0142 -0.0323,0.0272 -0.003,0.008 0.0186,0.0183 0.0114,0.0231 -0.002,0.002 -0.0587,-0.0417 5.3e-4,0.006 0.007,0.005 0.0136,0.0101 0.0204,0.0151 0.03,0.0202 0.0576,0.044 0.0869,0.0652 0.0134,0.0106 0.0554,0.0435 0.058,0.0412 0.035,0.0473 0.0669,0.0962 0.10068,0.14438 0.0499,0.0701 0.0874,0.14882 0.14863,0.21064 0.048,0.056 0.096,0.11238 0.13634,0.17422 0.0245,0.0336 0.0519,0.0641 0.0797,0.0944 0.0291,0.0477 0.0636,0.0922 0.0882,0.14253 0.0199,0.0376 0.0322,0.0789 0.0538,0.11571 0.024,0.0521 0.0486,0.10405 0.0772,0.15374 -0.002,-0.01 -0.002,-0.009 0.01,0.0134 0.0196,0.0366 0.0363,0.0751 0.0539,0.11268 0.003,0.007 0.007,0.0144 0.0105,0.0216 0.0263,0.0539 0.0594,0.10274 0.0889,0.15468 0.0258,0.0438 0.0504,0.0882 0.0794,0.13002 0.0329,0.0507 0.0561,0.10803 0.10038,0.15099 0.027,0.03 0.0463,0.0645 0.0597,0.10352 0.0286,0.0596 0.0607,0.11738 0.0877,0.17768 0.0261,0.0472 0.0547,0.0914 0.0758,0.14133 0.0229,0.0483 0.0466,0.0959 0.0756,0.14088 0.0234,0.0326 0.0328,0.072 0.0495,0.10909 0.0184,0.0284 0.0147,0.0684 0.0359,0.0954 0.0231,0.0517 0.0457,0.10361 0.0763,0.15167 0.006,0.0107 0.014,0.0206 0.0199,0.0315 0.0163,0.0303 0.023,0.0661 0.0445,0.094 0.0204,0.0374 0.0374,0.0754 0.0491,0.11674 0.0182,0.0579 0.0357,0.11592 0.0537,0.17385 0.0223,0.0542 0.0501,0.1055 0.074,0.15899 0.0163,0.0444 0.0363,0.0869 0.0529,0.13105 0.0146,0.0619 0.022,0.12587 0.0465,0.18513 0.0154,0.0199 0.0144,0.0815 0.0274,0.10594 0.0104,0.0497 0.015,0.10036 0.0278,0.14953 0.005,0.0404 0.007,0.0808 0.013,0.12115 8e-4,0.006 8e-4,0.0224 0.002,0.0168 0.004,-0.0196 -0.006,-0.0755 0.007,-0.0597 -0.0105,0.0245 0.0103,-0.009 0.0191,-0.0167 0.004,-0.003 -0.008,0.007 -0.0113,0.0105 -5.3e-4,5.3e-4 -0.002,0.002 -0.001,0.002 0.002,-8e-4 0.003,-0.002 0.004,-0.003 -0.0278,0.0202 -0.0542,0.0425 -0.0815,0.0626 -0.006,0.002 -0.0113,0.005 -0.0172,0.006 -0.0147,0.004 -0.052,-0.003 -0.0446,0.01 0.20319,0.37065 0.16389,0.33196 0.19648,0.26183 0.0244,-0.0423 0.0114,-0.0203 0.0468,-0.0949 0.0205,-0.10786 5.3e-4,-0.006 0.0219,-0.11816 0.002,-0.0599 -1e-5,-0.12007 -0.012,-0.17899 -0.0113,-0.0458 -0.0253,-0.0927 -0.0465,-0.13424 -0.0151,-0.0441 -0.0294,-0.0883 -0.0519,-0.12945 -0.0259,-0.0521 -0.0583,-0.10031 -0.0882,-0.15024 -0.034,-0.057 -0.0659,-0.11502 -0.10502,-0.16888 -0.036,-0.0601 -0.0466,-0.12939 -0.0681,-0.19541 -0.0224,-0.0712 -0.0411,-0.14359 -0.0638,-0.21477 -0.0334,-0.10356 -0.0697,-0.20651 -0.11099,-0.30716 -0.0358,-0.072 -0.0508,-0.15357 -0.0901,-0.22442 -0.0411,-0.0972 -0.0907,-0.19036 -0.12823,-0.2891 -0.0452,-0.11718 -0.0861,-0.23603 -0.13775,-0.3506 -0.0567,-0.11961 -0.10902,-0.24157 -0.18208,-0.35257 -0.0648,-0.11653 -0.10408,-0.24243 -0.15383,-0.36567 -0.0547,-0.13368 -0.098,-0.27364 -0.17547,-0.39648 -0.0728,-0.10751 -0.13183,-0.22368 -0.21036,-0.32709 -0.0384,-0.039 -0.079,-0.0739 -0.11886,-0.11124 -0.0462,-0.0433 -0.088,-0.0918 -0.1399,-0.12886 -0.0152,-0.009 -0.0303,-0.0178 -0.0455,-0.0267 8e-4,0.003 0.005,0.007 0.003,0.009 -0.003,0.002 -0.007,-0.002 -0.0102,-0.004 -0.0791,-0.0637 -0.14716,-0.1409 -0.22818,-0.20243 0,0 -0.11577,0.13486 -0.11577,0.13486 z" />
    <path
       style="fill:#b3b3b3;stroke-width:1.11822"
       d="m 273.1841,649.90539 c 10e-4,-3.9059 0.23978,-7.80932 0.71158,-11.63311 0.71282,-5.77733 0.83012,-8.55529 1.63659,-38.76011 0.21625,-8.099 0.49961,-17.43196 0.62969,-20.73991 l 0.23651,-6.01446 3.72368,2.07792 c 4.81286,2.68572 14.56714,7.26214 17.60284,8.25874 3.18905,1.04695 6.78119,1.3364 10.67928,0.86054 1.75993,-0.21485 5.48487,-0.52177 8.27763,-0.68206 4.03857,-0.23179 6.06956,-0.54174 9.92409,-1.51455 2.66549,-0.67272 5.98711,-1.44139 7.38137,-1.70816 1.43149,-0.27389 3.4479,-0.97436 4.6321,-1.60912 2.55213,-1.36801 12.17309,-8.89218 16.13545,-12.6189 1.58809,-1.49365 5.09626,-4.71672 7.79593,-7.16236 5.29964,-4.80099 11.94687,-11.47452 16.77694,-16.84333 1.66444,-1.85009 4.70191,-5.04907 6.74993,-7.10884 2.04803,-2.05977 4.84726,-5.07908 6.22052,-6.70958 1.37326,-1.63051 3.69264,-4.04256 5.15419,-5.36012 1.46154,-1.31756 4.09536,-4.24882 5.85293,-6.51391 1.75756,-2.26508 4.20765,-5.26082 5.44463,-6.6572 2.78483,-3.14368 4.65493,-5.98413 8.13271,-12.35254 4.3419,-7.9508 5.57863,-9.6805 10.18203,-14.24068 5.3997,-5.349 7.90845,-7.26248 16.17389,-12.33615 1.06159,-0.65164 2.6528,-1.65866 3.53603,-2.23782 0.88323,-0.57916 1.98314,-1.16777 2.44425,-1.30803 1.2508,-0.38047 2.90189,-1.42626 5.91613,-3.74724 2.90381,-2.23596 2.87232,-2.21506 10.43708,-6.92751 5.34878,-3.33202 11.19405,-6.01688 15.48434,-7.11228 2.01835,-0.51533 3.75056,-0.67057 7.47882,-0.67023 2.66865,2.3e-4 6.07075,-0.14641 7.56022,-0.32587 1.48947,-0.17946 4.45995,-0.49143 6.60106,-0.69327 2.84199,-0.26791 4.80839,-0.68202 7.28398,-1.53396 1.86508,-0.64184 5.59722,-1.6256 8.29365,-2.18612 6.07146,-1.26212 9.78154,-2.33988 15.22735,-4.42349 16.51324,-6.31808 16.27216,-6.19253 32.15903,-16.74829 8.24818,-5.48035 13.03236,-8.43851 18.27928,-11.30247 1.51101,-0.82476 4.12978,-2.42425 5.81948,-3.55442 5.88585,-3.93677 6.90907,-4.50103 12.29173,-6.77836 5.16227,-2.18408 9.20182,-4.18747 14.04843,-6.96723 1.21019,-0.69411 4.85273,-2.43245 8.09449,-3.86298 7.24662,-3.19778 8.80224,-3.97917 11.31812,-5.68513 1.0885,-0.73807 2.15483,-1.37607 2.36962,-1.41777 0.21482,-0.0417 1.01318,-0.27126 1.77409,-0.5101 1.51066,-0.47417 3.64586,-0.3083 12.32639,0.95753 2.51348,0.36653 7.22316,0.77169 10.46597,0.90037 7.08119,0.28099 6.85885,0.14793 8.4881,5.07974 1.30359,3.94601 2.20617,5.60816 4.32511,7.96497 l 1.55264,1.72691 -13.17755,-0.23967 c -13.88384,-0.25251 -16.02431,-0.11575 -19.06049,1.2178 -2.88308,1.2663 -6.07319,4.00854 -9.37369,8.05771 -3.35943,4.12144 -4.14178,4.85156 -11.82471,11.03573 -2.64902,2.13226 -6.41427,5.60826 -8.53714,7.88135 -4.58918,4.91391 -7.06865,6.823 -14.14344,10.88986 -2.97894,1.71241 -7.01567,4.26696 -8.9705,5.67679 -7.24934,5.22823 -11.86838,7.39246 -23.73909,11.12287 -4.45791,1.40092 -9.792,3.15134 -11.85354,3.88983 -4.62118,1.65542 -14.6181,4.3785 -26.0175,7.08697 -15.08894,3.58509 -19.55307,4.73848 -23.04627,5.95438 -4.28308,1.49084 -11.26384,4.82008 -19.00146,9.06212 -3.29766,1.8079 -7.2583,3.86956 -8.80142,4.58147 -2.81764,1.2999 -12.31247,6.51539 -17.1434,9.41683 -8.9093,5.35089 -14.49677,11.46811 -17.82253,19.5123 -3.408,8.24315 -5.49618,12.05059 -9.12716,16.64185 -4.94277,6.25 -6.61294,8.66835 -11.68933,16.92581 -2.86147,4.6546 -7.94985,12.57588 -11.30749,17.60285 -3.35765,5.02696 -8.21202,12.31587 -10.78751,16.19758 -11.24667,16.95069 -20.32653,25.55316 -33.17199,31.42791 -10.55906,4.82908 -13.77754,6.17846 -20.05389,8.40779 -3.53749,1.2565 -9.17379,3.42844 -12.5251,4.82652 -3.35131,1.39809 -8.91144,3.64581 -12.35584,4.99495 -3.4444,1.34913 -9.15686,3.58757 -12.69436,4.9743 -8.03157,3.14847 -21.25142,9.39832 -25.72723,12.16289 -6.91883,4.27355 -9.84164,6.0924 -10.74789,6.68833 l -0.93091,0.61216 z m 13.42349,-12.39478 c 3.63635,-4.94025 5.86354,-6.83663 13.45956,-11.46035 4.40755,-2.68288 5.51814,-3.51899 4.67426,-3.51899 -0.42745,0 -7.24146,3.86154 -9.87168,5.59434 -1.33985,0.8827 -3.24919,2.34803 -4.24297,3.25628 -1.94505,1.77767 -5.59613,6.34361 -5.59613,6.99838 0,0.75371 0.64311,0.39906 1.57696,-0.86966 z m 55.00373,-24.55336 c 6.8594,-3.2784 9.69061,-5.13783 15.1921,-9.97758 5.60627,-4.93194 14.68376,-14.6105 16.36431,-17.44789 0.6838,-1.15452 2.11189,-4.30794 3.17351,-7.00761 2.38746,-6.07119 4.41297,-10.04843 7.87971,-15.47243 4.25474,-6.6569 7.12304,-10.22967 13.28916,-16.55303 3.16718,-3.24795 5.64779,-6.01578 5.51247,-6.15074 -0.43057,-0.42943 -11.75426,11.43039 -14.79513,15.49561 -5.49719,7.34898 -9.5664,14.62207 -12.78424,22.84985 -0.9466,2.42039 -2.16363,5.16965 -2.70451,6.10946 -1.92151,3.33873 -11.36833,13.27831 -17.97373,18.91127 -4.53259,3.86531 -8.37225,6.22017 -15.50287,9.50792 -2.82663,1.30329 -5.14097,2.55225 -5.14297,2.77548 -0.005,0.50334 0.54106,0.28194 7.49219,-3.04031 z m -44.90188,-1.24821 c 2.23421,-0.53922 5.73785,-1.30722 7.78587,-1.70666 2.04803,-0.39944 6.23716,-1.55484 9.3092,-2.56756 4.48525,-1.4786 6.6191,-2.41604 10.83252,-4.75891 8.78759,-4.88634 12.48834,-7.21558 15.53458,-9.77743 3.6138,-3.03915 8.71119,-8.18273 8.40886,-8.48507 -0.12366,-0.12365 -1.7913,1.28873 -3.70587,3.13863 -3.85432,3.72415 -7.24152,6.51776 -10.11372,8.34134 -3.64214,2.31242 -14.37041,8.47221 -16.06486,9.22387 -2.74527,1.21779 -10.50491,3.50316 -14.3642,4.23055 -7.42229,1.39892 -8.95325,1.74803 -12.80369,2.9197 -4.44049,1.35121 -4.54743,1.3959 -4.29949,1.79707 0.0979,0.15837 1.3571,-0.0862 2.79828,-0.54359 1.44118,-0.45734 4.44831,-1.27272 6.68252,-1.81194 z m 9.73234,-16.61688 c 1.25674,-0.21773 2.28499,-0.54726 2.28499,-0.73228 0,-0.18555 -0.26566,-0.22946 -0.59241,-0.0979 -0.32582,0.13115 -1.81612,0.3192 -3.31177,0.41787 -2.6067,0.17197 -2.96473,0.10048 -8.64129,-1.72558 -6.12486,-1.97026 -6.74996,-2.11793 -6.74996,-1.59457 0,0.39241 10.93276,4.02606 12.5251,4.16288 1.33443,0.11466 1.34545,0.11361 4.48534,-0.43039 z m 82.62284,-55.95269 c 2.2755,-2.66351 6.26274,-5.90572 14.61594,-11.88492 8.19361,-5.86496 8.50149,-6.10972 8.04238,-6.39346 -0.28696,-0.17735 -13.34962,8.95847 -17.01306,11.89867 -2.82648,2.26847 -8.26113,8.18911 -7.51692,8.18911 0.17921,0 1.02146,-0.81423 1.87166,-1.8094 z m 34.37397,-12.66217 c 0.71639,-1.40857 3.80962,-9.05268 4.81215,-11.89196 0.35366,-1.00161 1.09517,-4.27797 1.6478,-7.2808 0.55264,-3.00283 1.24771,-6.14397 1.54462,-6.98031 0.2969,-0.83634 1.07204,-3.32985 1.72252,-5.54112 0.65048,-2.21128 1.57691,-4.80093 2.05873,-5.75478 1.78754,-3.53882 7.80145,-8.44207 16.64075,-13.56752 6.09177,-3.5323 7.86942,-4.38391 12.80786,-6.13579 2.32133,-0.82347 5.92338,-2.25054 8.00456,-3.17124 2.08118,-0.92071 5.03719,-2.03395 6.56891,-2.47386 3.45197,-0.99141 3.94407,-1.42354 1.27724,-1.12161 -2.86565,0.32445 -5.22193,1.03333 -9.27648,2.79078 -1.93693,0.83956 -5.26577,2.12787 -7.39741,2.86289 -4.58573,1.58123 -7.08761,2.80084 -13.46146,6.56222 -7.79656,4.60094 -13.50408,9.20045 -15.70483,12.656 -0.54519,0.85604 -1.36629,2.77509 -1.82467,4.26457 -0.45838,1.48947 -1.37781,4.45995 -2.04316,6.60106 -0.66536,2.14112 -1.61281,6.24789 -2.10544,9.12616 -0.49263,2.87827 -1.24505,6.22958 -1.67205,7.44735 -1.64572,4.69353 -3.80998,10.38439 -4.33388,11.39579 -0.46172,0.89135 -0.46863,1.48161 -0.0173,1.48161 0.0583,0 0.39649,-0.57125 0.75158,-1.26944 z m 11.95128,-24.62705 c 2.99353,-4.45709 11.21062,-13.70926 13.71132,-15.43848 1.93973,-1.34132 6.2032,-3.42544 9.21446,-4.50432 2.94816,-1.05627 3.1519,-1.16588 2.9062,-1.56343 -0.26102,-0.42233 -5.08726,1.37308 -9.19788,3.42169 -2.32668,1.15955 -4.18341,2.3916 -5.70397,3.78491 -1.99723,1.8301 -6.90156,7.43158 -9.85247,11.25299 -1.14921,1.48821 -2.48977,3.97194 -2.48977,4.6129 0,0.51885 0.0458,0.46801 1.41211,-1.56626 z m 80.33955,-46.07382 c 9.70603,-3.22119 8.95017,-2.93459 8.12438,-3.08057 -1.7133,-0.30288 -16.70886,4.6657 -17.03507,5.64434 -0.1047,0.31409 0.0438,0.38607 0.48709,0.23603 0.35075,-0.11872 4.14137,-1.37864 8.4236,-2.7998 z m 34.02087,2.56082 c 4.42365,-0.69776 11.10194,-3.40377 18.92639,-7.66888 5.06529,-2.76109 2.32812,-1.95593 -4.60952,1.35593 -11.0518,5.27586 -11.94209,5.49792 -23.37218,5.8295 -4.51496,0.13098 -8.20901,0.37257 -8.20901,0.53689 0,0.41596 14.57445,0.37085 17.26432,-0.0534 z m 12.56476,-26.06975 c 7.22578,-3.21959 11.38068,-4.39394 20.32915,-5.74584 5.76697,-0.87125 7.49966,-1.54134 12.10993,-4.68326 2.15146,-1.46623 4.78766,-3.15755 5.85822,-3.75848 1.77939,-0.99882 2.44942,-1.70501 1.6177,-1.70501 -0.48116,0 -4.81958,2.61218 -8.63366,5.19837 -3.79992,2.57659 -5.96992,3.3631 -10.86357,3.93748 -4.70174,0.55186 -10.82813,1.88194 -14.30072,3.10479 -4.62666,1.62925 -11.81726,5.36221 -10.32894,5.36221 0.20545,0 2.1008,-0.76962 4.21189,-1.71026 z m 54.76415,-30.27988 c 2.44659,-0.83803 6.30361,-2.45369 8.57116,-3.59038 9.04922,-4.53623 12.65793,-5.71982 17.43149,-5.71719 1.72054,9.4e-4 2.58579,0.17594 3.43763,0.69527 1.53805,0.93769 1.77616,0.53844 0.46241,-0.77533 -0.93779,-0.93779 -1.34804,-1.09017 -3.26346,-1.21213 -4.72247,-0.30071 -8.42134,0.81054 -16.94271,5.09005 -3.35845,1.68665 -7.93427,3.71302 -10.16848,4.50304 -2.68338,0.94885 -4.09933,1.62205 -4.17164,1.98337 -0.0602,0.30084 -0.0409,0.54698 0.0429,0.54698 0.0838,0 2.15412,-0.68566 4.60071,-1.52368 z"
       id="path9884"
       transform="scale(0.26458333)" />
    <path
       style="fill:#b3b3b3;stroke-width:0.0698889"
       d="m 675.64215,394.038 c -0.21186,-0.28255 -0.27249,-0.37752 -0.71918,-1.12649 -0.6133,-1.02833 -0.55266,-0.89785 -0.94882,-2.04167 -0.0887,-0.25601 -0.22214,-0.61967 -0.2966,-0.80814 -0.0745,-0.18847 -0.18845,-0.51693 -0.25332,-0.72992 -0.2389,-0.7845 -0.35514,-1.13564 -0.4854,-1.46628 -0.13299,-0.33754 -0.38104,-1.08624 -0.36514,-1.10213 0.005,-0.005 0.0527,0.0558 0.10688,0.13431 0.0542,0.0785 0.18914,0.24742 0.29992,0.37542 0.16406,0.18957 0.23245,0.29159 0.36874,0.55009 0.20253,0.38413 0.29497,0.61281 0.46611,1.15307 0.40351,1.27378 0.50413,1.55134 0.75158,2.07341 0.25167,0.53095 0.45623,1.04887 0.75209,1.90416 0.13082,0.37818 0.29828,0.82508 0.37214,0.99311 0.0739,0.16803 0.1314,0.3084 0.12787,0.31193 -0.004,0.004 -0.0831,-0.0959 -0.17687,-0.22087 z"
       id="path9886"
       transform="scale(0.26458333)" />
  </g>
</svg>
