<?xml version="1.0" encoding="UTF-8" standalone="no"?>
<!-- Created with Inkscape (http://www.inkscape.org/) -->

<svg
   width="450"
   height="390"
   viewBox="0 0 119.0625 103.1875"
   version="1.1"
   id="svg6261"
   inkscape:version="1.2 (dc2aedaf03, 2022-05-15)"
   sodipodi:docname="wavy.svg"
   inkscape:export-filename="default.svg"
   inkscape:export-xdpi="96"
   inkscape:export-ydpi="96"
   xmlns:inkscape="http://www.inkscape.org/namespaces/inkscape"
   xmlns:sodipodi="http://sodipodi.sourceforge.net/DTD/sodipodi-0.dtd"
   xmlns="http://www.w3.org/2000/svg"
   xmlns:svg="http://www.w3.org/2000/svg">
  <sodipodi:namedview
     id="namedview6263"
     pagecolor="#505050"
     bordercolor="#eeeeee"
     borderopacity="1"
     inkscape:showpageshadow="0"
     inkscape:pageopacity="0"
     inkscape:pagecheckerboard="0"
     inkscape:deskcolor="#505050"
     inkscape:document-units="mm"
     showgrid="false"
     inkscape:zoom="0.70710678"
     inkscape:cx="252.43712"
     inkscape:cy="238.29499"
     inkscape:window-width="1276"
     inkscape:window-height="1076"
     inkscape:window-x="0"
     inkscape:window-y="0"
     inkscape:window-maximized="1"
     inkscape:current-layer="layer1" />
  <defs
     id="defs6258" />
  <g
     inkscape:label="Camada 1"
     inkscape:groupmode="layer"
     id="layer1"
     transform="translate(-59.262597,-139.07322)">
    <g
       id="g38112"
       transform="translate(-7.2861377,53.532086)">
      <path
         id="path9708"
         style="fill:#000000;stroke-width:0.874001"
         sodipodi:type="inkscape:offset"
         inkscape:radius="0.30043486"
         inkscape:original="M 173.21875 105.54297 C 172.76029 105.54797 172.30158 105.56375 171.84375 105.59375 C 171.4082 105.63105 170.98373 105.71937 170.57812 105.88672 C 170.33632 105.98602 170.10711 106.11093 169.91016 106.28516 C 169.76335 106.41505 169.59263 106.50785 169.44531 106.63672 C 169.44031 106.64072 169.45524 106.63191 169.46094 106.62891 C 169.26959 106.75926 169.07835 106.89255 168.91602 107.05859 C 168.82472 107.19086 168.68551 107.2975 168.59375 107.43164 C 168.3492 107.67158 168.16807 107.96754 167.94727 108.22852 C 167.54961 108.71872 167.17201 109.22295 166.65234 109.59375 C 166.06826 110.08442 165.48186 110.57297 164.88281 111.04492 C 164.18724 111.57597 163.46152 112.09397 162.94727 112.81445 C 162.53329 113.31559 162.0691 113.77897 161.58594 114.21289 C 160.89573 114.76115 160.18378 115.2805 159.40234 115.69336 C 158.64469 116.10066 157.89309 116.52362 157.17383 116.99609 C 156.51399 117.46272 155.89412 117.98869 155.19141 118.39258 C 154.23634 118.92185 153.24294 119.40512 152.21875 119.7832 C 151.2134 120.08841 150.21495 120.41697 149.20703 120.71289 C 148.14578 121.02599 147.12471 121.43973 146.07422 121.78516 C 144.94945 122.10514 143.81808 122.40274 142.6875 122.70117 C 141.01863 123.12639 139.34008 123.51048 137.66406 123.90625 C 135.88923 124.32357 134.10391 124.72875 132.4668 125.5625 C 131.07167 126.20599 129.72327 126.93556 128.38281 127.68555 C 128.23382 127.76755 127.70727 128.06012 127.51172 128.15625 C 126.85978 128.47668 126.17049 128.72525 125.55273 129.11523 C 123.97432 129.98592 122.37568 130.83668 120.89062 131.86133 C 119.89917 132.65669 119.00255 133.57343 118.32031 134.65234 C 118.06163 135.0895 117.98285 135.19581 117.77734 135.64844 C 117.54005 136.17106 117.38754 136.7306 117.11914 137.24023 C 116.71886 138.1101 116.29983 138.98162 115.76172 139.77539 C 114.97347 140.78355 114.16484 141.77844 113.42383 142.82227 C 112.82416 143.76657 112.26541 144.73556 111.66211 145.67773 C 110.98545 146.81186 110.27171 147.92476 109.52148 149.01172 C 109.03116 149.73175 108.58831 150.4818 108.08203 151.19141 C 107.4441 152.11346 106.7957 153.02852 106.19922 153.97852 C 105.72329 154.72008 105.27269 155.4855 104.71094 156.16602 C 104.09397 156.90165 103.47334 157.63358 102.88477 158.39258 C 102.25974 159.06465 101.50459 159.605 100.83789 160.23438 C 100.12548 160.81528 99.348796 161.31413 98.544922 161.75977 C 97.76188 162.1676 96.931018 162.46637 96.138672 162.85547 C 95.025659 163.38392 93.895632 163.88028 92.736328 164.29883 C 92.011919 164.54661 91.275609 164.77273 90.560547 165.04688 C 90.075968 165.23264 89.440133 165.51292 88.964844 165.71289 C 88.659591 165.84131 88.354618 165.96661 88.048828 166.09375 C 86.227276 166.83026 84.410644 167.57853 82.558594 168.23633 C 81.455018 168.68174 80.349045 169.12075 79.279297 169.64453 C 78.268455 170.13221 77.243283 170.59055 76.242188 171.09766 C 75.549966 171.47932 74.876158 171.89164 74.242188 172.36523 C 73.977782 172.5348 73.690946 172.66396 73.431641 172.8418 C 73.255576 172.95684 73.072597 173.0569 72.888672 173.1582 C 72.720981 173.27635 72.557376 173.4241 72.359375 173.49023 C 72.333105 173.49923 72.297011 173.49305 72.269531 173.49805 C 72.257861 173.38003 72.251065 173.26198 72.265625 173.13867 C 72.229915 172.64059 72.240712 172.14147 72.226562 171.64258 C 72.233362 170.96529 72.24546 170.28832 72.333984 169.61523 C 72.402664 168.74237 72.556001 167.87817 72.615234 167.00391 C 72.697864 166.15975 72.690403 165.30791 72.722656 164.46094 C 72.685396 163.60017 72.700796 162.74053 72.791016 161.88281 C 72.852866 160.79178 72.830671 159.69927 72.863281 158.60742 C 72.930571 157.5486 73.008243 156.48566 72.914062 155.42578 C 72.897373 153.99521 73.14723 152.57023 72.964844 151.13867 L 72.740234 151.15039 C 72.923879 152.57954 72.665711 153.99995 72.681641 155.42773 C 72.772971 156.48184 72.691807 157.53911 72.623047 158.5918 C 72.591307 159.68401 72.609689 160.77801 72.542969 161.86914 C 72.447419 162.73488 72.427572 163.60323 72.460938 164.47266 C 72.424498 165.30682 72.428649 166.14556 72.341797 166.97656 C 72.275637 167.85223 72.115082 168.71764 72.039062 169.5918 C 71.948562 170.27176 71.931101 170.95426 71.921875 171.63867 C 71.932035 172.14589 71.925614 172.65367 71.958984 173.16016 C 71.940514 173.34098 71.953272 173.51332 71.976562 173.69141 C 72.064283 173.73771 72.143833 173.80861 72.240234 173.83203 C 72.470228 173.88793 72.892201 173.54312 73.070312 173.41602 C 73.252732 173.32142 73.428594 173.21869 73.601562 173.10742 C 73.86299 172.93454 74.148813 172.80367 74.414062 172.63672 C 75.044565 172.17023 75.715413 171.76535 76.402344 171.38867 C 77.399718 170.88786 78.421857 170.44077 79.429688 169.96094 C 80.493988 169.44313 81.594001 169.009 82.691406 168.56836 C 84.546383 167.91889 86.368071 167.1804 88.193359 166.45312 C 88.500874 166.32668 88.808151 166.19978 89.115234 166.07227 C 89.632942 165.8573 90.184953 165.61507 90.710938 165.41797 C 91.420738 165.15198 92.152046 164.93645 92.871094 164.69727 C 94.048766 164.28115 95.197695 163.78756 96.330078 163.26172 C 97.132653 162.88053 97.968047 162.57976 98.759766 162.17578 C 99.598073 161.72396 100.40172 161.20881 101.14453 160.61328 C 101.83514 159.97664 102.59641 159.41382 103.24805 158.73633 C 103.85112 157.9766 104.47522 157.23655 105.10156 156.49609 C 105.67734 155.79904 106.14465 155.01812 106.63477 154.25977 C 107.22988 153.31562 107.87703 152.40767 108.51172 151.49023 C 109.01899 150.77968 109.46479 150.02635 109.95508 149.30469 C 110.71268 148.21023 111.43313 147.09025 112.11523 145.94727 C 112.71814 145.01112 113.27237 144.0448 113.87305 143.10742 C 114.60861 142.08062 115.40768 141.10214 116.18555 140.10742 C 116.75495 139.28433 117.19373 138.37444 117.61523 137.46875 C 117.8908 136.9523 118.04511 136.384 118.28711 135.85352 C 118.46135 135.47156 118.5751 135.30127 118.79297 134.93359 C 119.44312 133.91438 120.2936 133.0442 121.23633 132.29492 C 122.70011 131.29505 124.27256 130.46165 125.82422 129.60742 C 126.75367 129.09983 127.72688 128.69073 128.65625 128.18359 C 129.98835 127.44637 131.32505 126.7256 132.70898 126.08984 C 134.31261 125.27787 136.0594 124.88174 137.79688 124.47656 C 139.47686 124.0815 141.16092 123.69914 142.83398 123.27539 C 143.97014 122.9769 145.10572 122.6747 146.23633 122.35547 C 147.29004 122.01358 148.31361 121.59816 149.37695 121.28516 C 150.38594 120.98718 151.38571 120.65919 152.39258 120.35352 C 153.45878 119.96788 154.48805 119.4643 155.48047 118.91602 C 156.20522 118.50574 156.84219 117.96424 157.51953 117.48438 C 158.21905 117.02685 158.94948 116.61621 159.68555 116.2207 C 160.49872 115.79176 161.24242 115.25555 161.96094 114.68555 C 162.47885 114.22767 162.97027 113.73362 163.41406 113.20312 C 163.89848 112.51677 164.59026 112.02893 165.25 111.52539 C 165.85749 111.04891 166.44974 110.55336 167.04102 110.05664 C 167.59143 109.66329 167.99632 109.1311 168.41797 108.61133 C 168.63493 108.38197 168.78156 108.08421 169.01367 107.86914 C 169.13651 107.72704 169.26108 107.58584 169.38281 107.44336 C 169.51313 107.32694 169.65623 107.22541 169.80078 107.12695 C 169.96046 106.98606 170.14472 106.87829 170.30664 106.73828 C 170.4523 106.60952 170.61999 106.51663 170.80078 106.44727 C 171.15187 106.30577 171.51614 106.22274 171.89258 106.19336 C 172.78786 106.13586 173.68559 106.13825 174.58203 106.15625 C 175.3029 106.18005 176.02265 106.223 176.74414 106.2168 C 177.21039 106.2178 177.67654 106.23359 178.14258 106.24219 C 178.31171 106.24019 178.48129 106.24571 178.65039 106.24219 C 178.80738 106.23519 179.06012 106.24293 179.16992 106.25977 C 179.29205 106.32577 179.446 106.31807 179.57812 106.29297 C 179.69814 106.22087 179.64873 106.1603 179.57812 106.08203 C 179.64042 105.93003 179.75224 105.79999 179.57422 105.71484 C 179.46787 105.70124 179.4188 105.69952 179.40234 105.70312 C 179.38634 105.69612 179.39012 105.69384 179.35742 105.68164 C 179.12285 105.61834 178.87745 105.63127 178.63672 105.63477 C 178.47519 105.63877 178.31399 105.63077 178.15234 105.63477 C 177.6817 105.62877 177.21102 105.60973 176.74023 105.61133 C 176.02409 105.61433 175.30936 105.57368 174.59375 105.55078 C 174.13528 105.54178 173.67721 105.53557 173.21875 105.54297 z "
         d="m 173.21484,105.24219 c -1.33386,0.0423 0.26227,-0.0465 -1.39648,0.0527 -0.45919,0.0393 -0.916,0.13313 -1.35547,0.31446 -0.26148,0.1075 -0.52217,0.24789 -0.75195,0.45117 -0.11343,0.10035 -0.2828,0.19207 -0.46289,0.34961 -0.004,0.004 -0.01,0.008 -0.01,0.008 -6e-5,6e-5 -0.009,0.0111 -0.0156,0.0176 -0.17346,0.11915 -0.35484,0.24165 -0.52149,0.41211 a 0.3004649,0.3004649 0 0 0 -0.0332,0.041 c -0.0468,0.0678 -0.16974,0.17731 -0.28516,0.32813 -0.0111,0.0109 -0.0146,0.0222 -0.0254,0.0332 -0.004,0.006 -0.007,0.005 -0.0117,0.0117 -0.25471,0.26227 -0.43726,0.54923 -0.62695,0.77344 a 0.3004649,0.3004649 0 0 0 -0.004,0.004 c -0.40254,0.49622 -0.76547,0.97458 -1.23632,1.31055 a 0.3004649,0.3004649 0 0 0 -0.0195,0.0137 c -0.58345,0.49015 -1.16697,0.97676 -1.76171,1.44531 -0.68946,0.52625 -1.44269,1.05943 -1.99415,1.83203 l 0.0117,-0.0176 c -0.39933,0.48341 -0.85004,0.93475 -1.32226,1.35937 -0.68199,0.54148 -1.37685,1.04695 -2.13086,1.44531 a 0.3004649,0.3004649 0 0 0 -0.002,0.002 c -0.76107,0.40913 -1.51924,0.83442 -2.25,1.31445 A 0.3004649,0.3004649 0 0 0 157,116.75 c -0.67278,0.47578 -1.28568,0.99341 -1.95508,1.37891 -0.9436,0.52291 -1.92073,0.99835 -2.92383,1.36914 -0.002,8e-4 -0.004,0.003 -0.006,0.004 -1.00431,0.30517 -1.99578,0.62934 -2.99218,0.92188 a 0.3004649,0.3004649 0 0 0 -0.002,0 c -1.07596,0.31744 -2.09512,0.73175 -3.1289,1.07226 -6.1e-4,1.8e-4 -0.001,-1.7e-4 -0.002,0 -0.003,0.001 -0.006,0.003 -0.01,0.004 -1.11704,0.31761 -2.24238,0.61273 -3.36914,0.91016 -1.66351,0.42382 -3.33887,0.80718 -5.01563,1.20312 -1.76915,0.41599 -3.57649,0.8239 -5.2539,1.67578 -1.4067,0.64883 -2.76254,1.3834 -4.10547,2.13477 -0.15316,0.0843 -0.6873,0.37926 -0.85742,0.46289 -0.63191,0.31058 -1.332,0.56154 -1.98633,0.97461 -1.57063,0.86618 -3.17295,1.71773 -4.67188,2.75195 a 0.3004649,0.3004649 0 0 0 -0.0176,0.0137 c -1.01038,0.81055 -1.93201,1.7508 -2.63671,2.86524 a 0.3004649,0.3004649 0 0 0 -0.004,0.008 c -0.25594,0.43252 -0.34846,0.56062 -0.55859,1.02344 -0.25063,0.552 -0.40238,1.10524 -0.65039,1.57617 a 0.3004649,0.3004649 0 0 0 -0.008,0.0156 c -0.39762,0.86409 -0.80896,1.71703 -1.32812,2.48438 -0.78353,1.00187 -1.59175,1.99777 -2.33789,3.04883 a 0.3004649,0.3004649 0 0 0 -0.01,0.0137 c -0.60425,0.95152 -1.16344,1.91918 -1.76172,2.85351 a 0.3004649,0.3004649 0 0 0 -0.004,0.008 c -0.67334,1.12856 -1.38449,2.23698 -2.13086,3.31836 -0.49759,0.73069 -0.93929,1.48022 -1.43555,2.17578 a 0.3004649,0.3004649 0 0 0 -0.002,0.002 c -0.63665,0.9202 -1.28821,1.83937 -1.89063,2.79883 -0.47956,0.74734 -0.9258,1.50088 -1.46679,2.15625 -0.60979,0.72705 -1.22624,1.45565 -1.81446,2.21289 -0.59512,0.63992 -1.34103,1.17562 -2.02539,1.82031 -0.692443,0.56352 -1.451078,1.0508 -2.240232,1.48828 l 0.0078,-0.002 c -0.759135,0.39538 -1.588073,0.69289 -2.400391,1.0918 -1.106399,0.52521 -2.225858,1.01621 -3.371093,1.42968 -0.717118,0.24519 -1.455133,0.47147 -2.181641,0.75 -0.496873,0.19048 -1.134392,0.47173 -1.605469,0.66993 -0.30371,0.12777 -0.607499,0.25339 -0.914062,0.38086 -1.821964,0.73668 -3.632678,1.48251 -5.47461,2.13671 a 0.3004649,0.3004649 0 0 0 -0.01367,0.004 c -1.102509,0.44498 -2.215176,0.88738 -3.298828,1.41797 -1.00485,0.48473 -2.032041,0.94398 -3.041015,1.45508 a 0.3004649,0.3004649 0 0 0 -0.0078,0.004 c -0.700152,0.38604 -1.386398,0.80638 -2.035156,1.29102 -0.236488,0.1493 -0.518621,0.27524 -0.800781,0.46875 -0.161458,0.10508 -0.335268,0.20037 -0.517578,0.30078 a 0.3004649,0.3004649 0 0 0 -0.0293,0.0176 c -0.06391,0.045 -0.09785,0.0601 -0.152344,0.0996 -0.02612,-0.44359 -0.02222,-0.89677 -0.03516,-1.36524 v -0.004 c -7.5e-5,-0.003 7.6e-5,-0.005 0,-0.008 0.0068,-0.67163 0.02038,-1.33351 0.105468,-1.98047 a 0.3004649,0.3004649 0 0 0 0,-0.0156 c 0.06691,-0.85031 0.220099,-1.71317 0.28125,-2.60547 v -0.01 c 0.08369,-0.86206 0.0776,-1.71642 0.109376,-2.55078 a 0.3004649,0.3004649 0 0 0 0,-0.0254 c -0.03673,-0.84857 -0.022,-1.69272 0.06641,-2.53321 a 0.3004649,0.3004649 0 0 0 0.002,-0.0137 c 0.06253,-1.10311 0.04037,-2.19477 0.07227,-3.27344 v -0.01 c 0.06704,-1.05384 0.145571,-2.13005 0.04883,-3.21875 l 0.002,0.0234 c -0.01625,-1.39327 0.23872,-2.82984 0.04883,-4.32032 a 0.3004649,0.3004649 0 0 0 -0.314453,-0.26367 l -0.22461,0.0117 a 0.3004649,0.3004649 0 0 0 -0.283203,0.33984 c 0.175902,1.36889 -0.0769,2.77598 -0.06055,4.24219 a 0.3004649,0.3004649 0 0 0 0.002,0.0215 c 0.08852,1.02165 0.01032,2.06417 -0.05859,3.11915 a 0.3004649,0.3004649 0 0 0 -0.002,0.0117 c -0.03201,1.1014 -0.01431,2.19202 -0.08008,3.26758 l 0.002,-0.0156 c -0.09652,0.87454 -0.116472,1.7498 -0.08398,2.62304 -0.03687,0.84393 -0.03261,1.6771 -0.117187,2.48633 a 0.3004649,0.3004649 0 0 0 0,0.008 c -0.06419,0.84961 -0.222632,1.71112 -0.300781,2.59961 -0.0933,0.70102 -0.111836,1.39521 -0.121094,2.08204 a 0.3004649,0.3004649 0 0 0 0,0.01 c 0.01003,0.50067 0.0047,1.013 0.03906,1.53516 v -0.0508 c -0.02185,0.21393 -0.0071,0.41275 0.01758,0.60156 a 0.3004649,0.3004649 0 0 0 0.158204,0.22656 c 0.04206,0.0222 0.139261,0.11871 0.333984,0.16602 0.293724,0.0714 0.482231,-0.0657 0.660156,-0.17383 0.163041,-0.0991 0.29691,-0.20552 0.378906,-0.26563 l 0.0098,-0.006 c 0.187637,-0.0977 0.367982,-0.20453 0.544922,-0.31835 a 0.3004649,0.3004649 0 0 0 0.0039,-0.002 c 0.235577,-0.15578 0.51895,-0.28572 0.806641,-0.4668 a 0.3004649,0.3004649 0 0 0 0.01758,-0.0117 c 0.615409,-0.45533 1.275423,-0.85388 1.955078,-1.22657 0.984989,-0.49418 2.001288,-0.93885 3.011719,-1.41992 a 0.3004649,0.3004649 0 0 0 0.002,-0.002 c 1.046803,-0.5093 2.135835,-0.93943 3.230469,-1.37891 l 0.01172,-0.004 c 1.860062,-0.65167 3.681589,-1.38992 5.501954,-2.11524 a 0.3004649,0.3004649 0 0 0 0.002,-0.002 c 0.307802,-0.12656 0.61639,-0.2532 0.923828,-0.38086 0.521674,-0.21662 1.071014,-0.45744 1.585937,-0.65039 0.696241,-0.26091 1.424744,-0.47542 2.150391,-0.7168 a 0.3004649,0.3004649 0 0 0 0.0039,-0.002 c 1.190164,-0.42054 2.348675,-0.91703 3.486328,-1.44531 a 0.3004649,0.3004649 0 0 0 0.002,-0.002 c 0.784916,-0.3728 1.623344,-0.67441 2.4375,-1.08984 a 0.3004649,0.3004649 0 0 0 0.0059,-0.004 c 0.851673,-0.45902 1.670336,-0.983 2.429686,-1.59179 a 0.3004649,0.3004649 0 0 0 0.0156,-0.0137 c 0.67459,-0.62187 1.44213,-1.18684 2.11718,-1.88867 a 0.3004649,0.3004649 0 0 0 0.0176,-0.0215 c 0.59939,-0.75509 1.22151,-1.49414 1.84766,-2.23438 a 0.3004649,0.3004649 0 0 0 0.004,-0.002 c 0.59512,-0.72046 1.0664,-1.51313 1.55274,-2.26562 a 0.3004649,0.3004649 0 0 0 0.002,-0.002 c 0.58905,-0.93453 1.23481,-1.83806 1.8711,-2.75781 l -0.004,0.002 c 0.5164,-0.72333 0.96298,-1.47723 1.44531,-2.1875 l 0.002,-0.004 c 0.75871,-1.09624 1.48074,-2.21867 2.16407,-3.36328 l 0.006,-0.008 c 0.60335,-0.93744 1.1539,-1.89626 1.74414,-2.81836 l 0.006,-0.008 c 0.001,-0.002 0.003,-0.004 0.004,-0.006 0.72556,-1.01163 1.51792,-1.98294 2.29493,-2.97656 a 0.3004649,0.3004649 0 0 0 0.0117,-0.0137 c 0.58438,-0.84474 1.02644,-1.76599 1.44727,-2.66992 l 0.004,-0.0117 c 0.29271,-0.5525 0.44898,-1.12199 0.67578,-1.61914 0.16602,-0.36395 0.27045,-0.51893 0.48633,-0.88282 0.62573,-0.98093 1.4482,-1.82684 2.36718,-2.55859 1.44301,-0.9848 3.0031,-1.81182 4.55469,-2.66602 0.91162,-0.49785 1.88488,-0.90698 2.83203,-1.42382 1.33019,-0.73617 2.66086,-1.45355 4.0332,-2.08399 a 0.3004649,0.3004649 0 0 0 0.01,-0.006 c 1.56032,-0.79004 3.28281,-1.18243 5.02148,-1.58789 1.67848,-0.39471 3.3651,-0.77815 5.04297,-1.20312 a 0.3004649,0.3004649 0 0 0 0.002,0 c 1.13677,-0.29866 2.27468,-0.60183 3.4082,-0.92188 a 0.3004649,0.3004649 0 0 0 0.01,-0.004 c 1.06734,-0.34631 2.08846,-0.75899 3.13282,-1.0664 a 0.3004649,0.3004649 0 0 0 0.002,0 c 1.01472,-0.29967 2.01497,-0.62922 3.01758,-0.9336 a 0.3004649,0.3004649 0 0 0 0.0137,-0.004 c 1.08671,-0.39306 2.12963,-0.90389 3.13086,-1.45703 a 0.3004649,0.3004649 0 0 0 0.004,-0.002 c 0.75428,-0.427 1.39499,-0.97322 2.05468,-1.4414 l 0.01,-0.006 c 0.68468,-0.44722 1.40429,-0.85265 2.13281,-1.24414 l 0.002,-0.002 c 0.83675,-0.44166 1.59528,-0.98734 2.32032,-1.5625 a 0.3004649,0.3004649 0 0 0 0.0117,-0.0117 c 0.5276,-0.46645 1.02945,-0.96987 1.48437,-1.51368 a 0.3004649,0.3004649 0 0 0 0.0156,-0.0195 c 0.44539,-0.63105 1.10562,-1.10506 1.77148,-1.61328 a 0.3004649,0.3004649 0 0 0 0.004,-0.002 c 0.61247,-0.48039 1.20724,-0.97764 1.79883,-1.47461 l -0.0195,0.0137 c 0.59146,-0.42268 1.00866,-0.97221 1.42188,-1.48242 l 0.0137,-0.0176 c 0.24825,-0.26864 0.39561,-0.55087 0.56836,-0.71094 a 0.3004649,0.3004649 0 0 0 0.0215,-0.0234 c 0.11557,-0.13369 0.23568,-0.26875 0.35352,-0.40625 0.1113,-0.0981 0.23966,-0.19164 0.37695,-0.28516 A 0.3004649,0.3004649 0 0 0 170,107.35156 c 0.1307,-0.11531 0.31438,-0.22284 0.50391,-0.38672 a 0.3004649,0.3004649 0 0 0 0.002,-0.002 c 0.11365,-0.10047 0.2473,-0.17489 0.40234,-0.23437 a 0.3004649,0.3004649 0 0 0 0.006,-0.002 c 0.32073,-0.12926 0.65195,-0.205 0.99805,-0.23242 0.88064,-0.0566 1.76853,-0.055 2.66016,-0.0371 0.7149,0.0236 1.43742,0.0668 2.17187,0.0605 0.4599,9.8e-4 0.92345,0.0167 1.39258,0.0254 a 0.3004649,0.3004649 0 0 0 0.01,0 c 0.16022,-0.002 0.32996,0.004 0.50977,0 a 0.3004649,0.3004649 0 0 0 0.008,0 c 0.13281,-0.006 0.40579,0.005 0.46094,0.0137 l -0.0977,-0.0332 c 0.22363,0.12085 0.44433,0.0954 0.60743,0.0645 a 0.3004649,0.3004649 0 0 0 0.0976,-0.0371 c 0.0537,-0.0323 0.11056,-0.0736 0.1582,-0.14648 0.0476,-0.0729 0.0699,-0.18405 0.0547,-0.26758 -0.008,-0.0448 -0.026,-0.0387 -0.0391,-0.0684 0.0199,-0.0409 0.0365,-0.0562 0.0527,-0.13086 0.016,-0.0735 0.0187,-0.18568 -0.0332,-0.28711 -0.0519,-0.10143 -0.14025,-0.16762 -0.22266,-0.20703 a 0.3004649,0.3004649 0 0 0 -0.0898,-0.0273 c -0.0574,-0.007 -0.10243,-0.0114 -0.14062,-0.0137 -0.001,-6e-5 -0.003,8e-5 -0.004,0 -0.002,-7.6e-4 -0.004,-0.001 -0.006,-0.002 a 0.3004649,0.3004649 0 0 0 -0.0273,-0.01 c -0.2954,-0.0797 -0.56979,-0.06 -0.80274,-0.0566 a 0.3004649,0.3004649 0 0 0 -0.004,0 c -0.14313,0.004 -0.30116,-0.004 -0.47266,0 h -0.0117 c -0.46137,-0.006 -0.93064,-0.025 -1.40625,-0.0234 -0.70393,0.003 -1.41419,-0.0375 -2.13476,-0.0606 a 0.3004649,0.3004649 0 0 0 -0.004,0 c -0.45969,-0.009 -0.92037,-0.0153 -1.38477,-0.008 z" />
      <path
         id="path9712"
         style="fill:#000000;stroke-width:0.874001"
         sodipodi:type="inkscape:offset"
         inkscape:radius="0.38626742"
         inkscape:original="M 169.61914 100.51758 C 169.53624 100.51958 169.45349 100.52406 169.37109 100.53516 C 169.27559 100.55306 169.03688 100.59369 168.96094 100.66211 C 168.95194 100.67011 168.98555 100.6592 168.99805 100.6582 C 168.8808 100.68099 168.87017 100.71191 168.84375 100.72852 C 168.84879 100.7298 168.85665 100.72844 168.85547 100.73633 C 168.93787 100.79883 168.90554 100.77275 168.72852 100.78125 C 168.73096 100.77952 168.74166 100.77451 168.74609 100.77148 C 168.7373 100.77854 168.7359 100.77259 168.72461 100.78125 C 168.67411 100.78425 168.61199 100.78968 168.53711 100.80078 C 168.52668 100.80784 168.51618 100.81505 168.50586 100.82227 C 168.46778 100.84889 168.43058 100.87753 168.39258 100.9043 C 168.45008 100.8444 168.45107 100.83824 168.45117 100.83984 C 168.38047 100.86374 168.31473 100.89025 168.25391 100.93555 C 168.10949 101.04898 167.95054 101.14392 167.80078 101.25 C 167.60165 101.3761 167.40754 101.5079 167.21289 101.64062 C 166.95434 101.80299 166.66135 101.89975 166.39844 102.05469 C 166.13759 102.18349 165.85788 102.26221 165.59766 102.39258 C 165.21251 102.58985 164.81167 102.75043 164.41211 102.91602 C 163.95827 103.10877 163.51199 103.32208 163.07422 103.54883 C 162.65271 103.78045 162.24863 104.04411 161.81641 104.25586 C 161.37334 104.48953 160.93428 104.72684 160.48633 104.95117 C 159.96208 105.18216 159.43102 105.39969 158.9043 105.625 C 158.45216 105.82338 157.98816 105.99688 157.54883 106.22266 C 157.15331 106.4351 156.76066 106.65286 156.41406 106.94141 C 156.08776 107.1816 155.77256 107.43729 155.4082 107.62109 C 154.98654 107.87776 154.56822 108.13936 154.13867 108.38281 C 153.71369 108.60645 153.26842 108.79252 152.875 109.07227 C 152.41149 109.36883 151.93988 109.6486 151.4668 109.92969 C 150.82211 110.33731 150.19618 110.77677 149.55078 111.18359 C 148.96076 111.57778 148.3884 111.99762 147.78711 112.375 C 147.20642 112.75041 146.62171 113.12065 146.03125 113.48047 C 145.44111 113.80805 144.85239 114.14116 144.24023 114.42578 C 143.64486 114.67472 143.03946 114.89374 142.43359 115.11523 C 141.83233 115.35789 141.23757 115.6168 140.625 115.83008 C 140.1328 116.00798 139.64413 116.19864 139.13672 116.33008 C 138.66732 116.47161 138.19813 116.61229 137.7168 116.70898 C 137.27112 116.79548 136.81833 116.847 136.38086 116.97266 C 135.82532 117.10694 135.24989 117.20247 134.73633 117.46484 C 134.42901 117.59468 134.10419 117.68066 133.77734 117.74609 C 133.38125 117.81279 132.97807 117.84481 132.57812 117.87891 C 132.15725 117.88191 131.73657 117.9052 131.32031 117.9707 C 131.04629 118.0161 130.77262 118.07429 130.49414 118.08203 C 130.07754 118.09423 129.65735 118.12993 129.24219 118.08203 C 128.83872 118.04853 128.43498 118.04977 128.0332 118.10547 C 127.60449 118.14907 127.19196 118.26456 126.77539 118.37109 C 126.40087 118.47233 126.03935 118.60687 125.69141 118.7793 C 125.37278 118.91517 125.05218 119.04356 124.72461 119.15625 C 124.45152 119.28801 124.18346 119.43005 123.91992 119.58008 C 123.53385 119.80923 123.16245 120.06281 122.7793 120.29688 C 122.43669 120.5387 122.07613 120.75091 121.71094 120.95703 C 121.29614 121.19678 120.89914 121.46237 120.51172 121.74414 C 120.16764 121.98728 119.85181 122.26588 119.52344 122.5293 C 119.32019 122.66642 119.11836 122.80654 118.90039 122.91992 C 118.73594 122.98912 118.56128 123.0267 118.38867 123.07031 C 118.38267 123.07531 118.37885 123.07898 118.37305 123.08398 C 118.20951 123.21747 118.04661 123.35216 117.87891 123.48047 C 117.74113 123.58649 117.6027 123.69182 117.46875 123.80273 C 117.43605 123.82883 117.40369 123.85436 117.37109 123.88086 C 117.37109 123.88086 117.36914 123.88281 117.36914 123.88281 C 117.36414 123.88781 117.35852 123.89178 117.35352 123.89648 C 117.37602 123.88848 117.39938 123.8829 117.42188 123.875 C 117.72863 123.7755 118.04172 123.70173 118.35547 123.62891 C 118.60456 123.56051 118.8584 123.50961 119.09961 123.41602 C 119.35406 123.29288 119.58646 123.13268 119.82227 122.97852 C 120.15634 122.7145 120.4731 122.4301 120.82227 122.18555 C 121.19561 121.91243 121.57855 121.65301 121.98047 121.42383 C 122.35988 121.20984 122.73255 120.98743 123.08984 120.73828 C 123.46236 120.51346 123.82071 120.26416 124.19531 120.04297 C 124.4457 119.90079 124.69962 119.76755 124.95898 119.64258 C 125.28023 119.53843 125.59128 119.40611 125.90234 119.27539 C 126.22795 119.11273 126.56537 118.9846 126.91602 118.88867 C 127.30464 118.79127 127.68842 118.67975 128.08789 118.63867 C 128.45629 118.58957 128.82557 118.58309 129.19531 118.61719 C 129.63133 118.66789 130.07231 118.63017 130.50977 118.61719 C 130.81329 118.61219 131.11204 118.55359 131.41016 118.50195 C 131.79721 118.44185 132.1887 118.41817 132.58008 118.41797 C 133.00957 118.38777 133.44025 118.34747 133.86523 118.27734 C 134.23372 118.20984 134.59428 118.10502 134.94141 117.96484 C 135.4301 117.71372 135.97911 117.62553 136.50781 117.49609 C 136.93664 117.37251 137.38092 117.3231 137.81836 117.24023 C 138.31834 117.13968 138.80589 116.9946 139.29297 116.8457 C 139.80904 116.7116 140.30721 116.52093 140.80859 116.3418 C 141.42714 116.12396 142.02948 115.86433 142.63672 115.61719 C 143.24446 115.39517 143.85198 115.17541 144.44922 114.92578 C 145.08192 114.63657 145.689 114.29249 146.29492 113.95117 C 146.8936 113.58243 147.4866 113.20351 148.07617 112.82031 C 148.67897 112.44072 149.25354 112.02039 149.8457 111.625 C 150.48658 111.21905 151.10775 110.78346 151.74805 110.37695 C 152.22235 110.09666 152.69608 109.81451 153.16016 109.51758 C 153.54164 109.2473 153.97287 109.06751 154.38477 108.85156 C 154.82698 108.60739 155.25226 108.33648 155.68359 108.07422 C 156.06116 107.88214 156.3905 107.6182 156.72852 107.36719 C 157.05569 107.09472 157.4274 106.89186 157.80078 106.69141 C 158.22787 106.47168 158.67817 106.30556 159.11719 106.11133 C 159.64264 105.8833 160.1749 105.6684 160.69922 105.4375 C 161.15955 105.21083 161.60781 104.96231 162.0625 104.72461 C 162.49799 104.51194 162.90555 104.24668 163.33008 104.01367 C 163.75378 103.79739 164.18225 103.59074 164.61914 103.40234 C 165.03155 103.23378 165.44475 103.06789 165.83984 102.86133 C 166.09904 102.74057 166.37048 102.65436 166.62891 102.53125 C 166.91209 102.37524 167.21392 102.26039 167.49023 102.0918 C 167.68435 101.95718 167.88433 101.83011 168.08594 101.70703 C 168.25217 101.59554 168.42285 101.48994 168.58398 101.37109 C 168.63628 101.35629 168.68588 101.32767 168.73438 101.29297 C 168.72178 101.29697 168.70138 101.30383 168.70898 101.29883 C 168.72238 101.29183 168.7364 101.2856 168.75 101.2793 C 168.75 101.2793 168.75195 101.28125 168.75195 101.28125 C 168.77415 101.28825 168.8079 101.29433 168.85938 101.29883 C 168.80777 101.38083 168.94075 101.30496 169.05469 101.22656 C 169.05569 101.22641 169.05759 101.22662 169.05859 101.22656 C 169.2 101.18506 169.32676 101.1208 169.47266 101.0957 C 169.75514 101.0677 170.04226 101.11031 170.32422 101.13281 C 170.76407 101.14081 171.19374 101.22588 171.625 101.30273 C 172.11294 101.38543 172.6022 101.47082 173.09375 101.5293 C 173.48491 101.5749 173.87601 101.60128 174.26953 101.61328 C 174.62135 101.62758 174.97232 101.64881 175.32422 101.66211 C 175.73358 101.68381 176.14327 101.70316 176.55273 101.72266 C 176.69785 101.71466 176.83497 101.76193 176.97852 101.76562 C 177.03662 101.79932 176.99346 101.77157 177.10547 101.9082 C 177.20377 102.01811 177.26388 102.15171 177.30273 102.29297 C 177.38643 102.49137 177.43764 102.69956 177.51953 102.89844 C 177.55333 102.97964 177.6029 103.18714 177.66016 103.34961 C 177.74186 103.5329 177.78986 103.72524 177.86328 103.91211 C 177.94678 104.07781 178.04049 104.24164 178.14062 104.39844 C 178.20032 104.54146 178.32691 104.64024 178.40234 104.77148 C 178.46034 104.89161 178.54454 104.99867 178.63086 105.09961 C 178.78856 105.23317 178.85486 105.29503 178.92383 105.37109 C 178.94063 105.38109 178.95821 105.39029 178.97461 105.40039 C 178.99491 105.42859 179.01623 105.45859 179.01953 105.46289 C 179.01453 105.45689 179.01276 105.44437 179.00586 105.44727 C 178.99006 105.45427 179.01984 105.48059 179.02734 105.49609 C 179.06724 105.57759 179.0531 105.54641 179.125 105.64062 C 179.1409 105.65632 179.15617 105.67325 179.17188 105.68945 C 179.19438 105.71275 179.09343 105.58562 179.11523 105.60938 C 179.15153 105.64917 179.17884 105.69832 179.21484 105.73828 C 179.21784 105.74128 179.21921 105.74109 179.22461 105.74609 C 179.30781 105.82459 179.24365 105.78825 179.41602 105.90625 C 179.48022 105.95255 179.5522 105.98735 179.60938 106.03516 C 179.66778 106.07876 179.78256 106.14981 179.86523 106.14062 C 179.92853 106.02621 179.89719 106.10004 179.93359 105.91406 L 179.95508 105.9668 C 180.14673 105.72914 180.1063 105.83871 180.15234 105.67188 C 180.13014 105.63157 180.0456 105.57843 179.99609 105.55078 C 179.91669 105.48518 179.82757 105.43468 179.74219 105.37695 C 179.73719 105.37395 179.72298 105.36572 179.70898 105.35742 C 179.70398 105.35342 179.68931 105.33564 179.69141 105.33984 C 179.67691 105.32564 179.66098 105.31097 179.64648 105.29688 C 179.64448 105.29287 179.64458 105.29106 179.64258 105.28906 C 179.63663 105.28054 179.62798 105.27349 179.62109 105.26562 C 179.62409 105.26963 179.62591 105.27344 179.62891 105.27734 C 179.62091 105.26934 179.61202 105.26055 179.60352 105.25195 C 179.6038 105.25105 179.61659 105.26023 179.62109 105.26562 C 179.61119 105.2543 179.60159 105.24168 179.5918 105.23047 C 179.60855 105.27513 179.51766 105.08512 179.50781 105.08203 C 179.46011 105.02483 179.42227 104.95605 179.36523 104.9082 C 179.28483 104.8409 179.24822 104.82237 179.23828 104.82617 C 179.18718 104.78737 179.1331 104.7556 179.08398 104.71289 C 179.01578 104.63199 178.95161 104.54782 178.90625 104.45117 C 178.82245 104.3243 178.71363 104.21714 178.64453 104.08008 C 178.56623 103.95422 178.48898 103.82668 178.41797 103.69727 C 178.34827 103.51533 178.2958 103.32932 178.21875 103.15039 C 178.16035 102.99097 178.12335 102.82377 178.0625 102.66602 C 177.9817 102.49045 177.95063 102.29634 177.86719 102.12109 C 177.79699 101.90309 177.7045 101.69128 177.54883 101.51953 C 177.46863 101.43073 177.36513 101.2944 177.27539 101.25586 C 177.18609 101.20246 177.08673 101.16628 176.98047 101.17578 C 176.89657 101.18628 176.69328 101.10036 176.58008 101.13086 C 176.16861 101.11126 175.75706 101.09251 175.3457 101.07031 C 174.99193 101.05711 174.63894 101.03398 174.28516 101.02148 C 173.90909 101.01148 173.53579 100.98756 173.16211 100.94336 C 172.6815 100.88666 172.20422 100.80156 171.72656 100.72461 C 171.27535 100.64611 170.823 100.56192 170.36328 100.55664 C 170.11575 100.54114 169.86769 100.51248 169.61914 100.51758 z M 168.53711 100.80078 L 168.54688 100.79492 C 168.54602 100.79554 168.51819 100.80373 168.52539 100.80273 C 168.53039 100.80202 168.53271 100.80108 168.53711 100.80078 z M 168.54688 100.79492 C 168.55087 100.79192 168.6211 100.77476 168.6543 100.75586 C 168.6748 100.74416 168.60644 100.7558 168.58594 100.76758 C 168.57224 100.77558 168.55997 100.78632 168.54688 100.79492 z M 168.74609 100.77148 C 168.78586 100.73959 168.82713 100.73896 168.84375 100.72852 C 168.84025 100.72762 168.84159 100.72143 168.83594 100.72266 C 168.80646 100.72968 168.76862 100.7561 168.74609 100.77148 z M 112.33398 127.13867 C 112.32698 127.14667 112.3198 127.15441 112.3125 127.16211 C 112.31262 127.16311 112.31238 127.16502 112.3125 127.16602 C 112.3195 127.16002 112.32678 127.15424 112.33398 127.14844 C 112.33698 127.14644 112.3388 127.14458 112.3418 127.14258 C 112.3388 127.1418 112.33598 127.13967 112.33398 127.13867 z M 112.78711 127.31445 C 112.72151 127.36875 112.65509 127.4212 112.58594 127.4707 C 112.45976 127.5674 112.33003 127.66023 112.20312 127.75586 C 112.16173 127.81726 112.08725 127.89643 112.08984 127.92578 C 111.96128 128.06112 111.77766 128.14459 111.6582 128.29297 C 111.51257 128.48225 111.36592 128.67169 111.23438 128.87109 C 111.06521 129.1326 110.89323 129.39409 110.73438 129.66211 C 110.52719 130.01358 110.37077 130.39101 110.15625 130.73828 C 109.94414 131.08798 109.73379 131.43848 109.5332 131.79492 C 109.38434 132.04666 109.27512 132.31847 109.13672 132.57617 C 109.00763 132.8085 108.88334 133.04684 108.7207 133.25781 C 108.45798 133.59845 108.20528 133.94748 107.92188 134.27148 C 107.61319 134.60162 107.30557 134.93273 107.03906 135.29883 C 106.74963 135.65671 106.45133 136.00711 106.17188 136.37305 C 105.91232 136.70383 105.70674 137.07749 105.37891 137.34961 C 105.07067 137.62009 104.78595 137.9156 104.48242 138.19141 C 104.1267 138.53638 103.78051 138.89313 103.44531 139.25781 C 103.15145 139.59489 102.87999 139.95126 102.59375 140.29492 C 102.27733 140.66804 101.88908 140.96181 101.54492 141.30859 C 100.88598 141.98501 100.2335 142.66667 99.615234 143.38086 C 99.13435 143.92202 98.664011 144.47127 98.134766 144.9668 C 97.360144 145.76869 96.57993 146.56731 95.730469 147.29102 C 95.152332 147.80449 94.564517 148.30839 94.009766 148.84766 C 93.633577 149.20517 93.258416 149.56176 92.886719 149.92383 C 92.642257 150.1318 92.357749 150.29272 92.130859 150.52344 C 91.934662 150.69741 91.700922 150.82042 91.503906 150.99414 C 91.059671 151.35518 90.618899 151.72102 90.15625 152.05859 C 89.955747 152.22887 89.754235 152.40489 89.509766 152.50977 C 89.296275 152.60447 89.084102 152.70267 88.875 152.80664 C 88.748545 152.85674 88.618382 152.9002 88.490234 152.94531 C 88.342792 152.98081 88.196031 153.02212 88.044922 153.04102 C 87.719577 153.08152 87.408688 153.17478 87.09375 153.26367 C 86.697484 153.36686 86.298764 153.45449 85.90625 153.57227 C 85.414032 153.71519 84.906565 153.80469 84.394531 153.83789 C 83.900888 153.85889 83.407124 153.83851 82.916016 153.90039 C 82.325691 153.95129 81.740805 154.04686 81.150391 154.09766 C 80.482142 154.14046 79.816188 154.13337 79.164062 153.95898 C 78.881788 153.88938 78.605271 153.80818 78.339844 153.6875 C 78.029297 153.5653 77.730628 153.41816 77.423828 153.28711 C 77.119926 153.16879 76.812459 153.05688 76.509766 152.93555 C 76.096268 152.75521 75.679389 152.58351 75.271484 152.39062 C 74.538164 152.03378 73.841415 151.60497 73.101562 151.25977 L 73.003906 151.44531 C 73.748498 151.78626 74.435585 152.23682 75.160156 152.61328 C 75.568114 152.81322 75.9829 152.99897 76.392578 153.19531 C 76.691202 153.33395 76.998749 153.45071 77.298828 153.58594 C 77.596569 153.7392 77.891811 153.89604 78.199219 154.0293 C 78.476094 154.16941 78.767604 154.26391 79.066406 154.34375 C 79.757776 154.53168 80.463849 154.54709 81.173828 154.50781 C 81.768073 154.46351 82.357413 154.36457 82.951172 154.31641 C 83.437184 154.25771 83.925808 154.28011 84.414062 154.25781 C 84.959529 154.22421 85.498395 154.12956 86.023438 153.98047 C 86.412569 153.86509 86.808139 153.77787 87.201172 153.67773 C 87.497182 153.59573 87.789437 153.50264 88.095703 153.4707 C 88.256974 153.4535 88.414685 153.41713 88.574219 153.39453 C 88.734524 153.36463 88.889608 153.30919 89.042969 153.25391 C 89.263594 153.15411 89.480881 153.04773 89.703125 152.95117 C 89.990195 152.82468 90.229865 152.62304 90.464844 152.41992 C 90.919405 152.07879 91.357834 151.71567 91.798828 151.35742 C 92.004961 151.1871 92.234057 151.04821 92.4375 150.875 C 92.664748 150.64992 92.940295 150.48866 93.1875 150.28906 C 93.571094 149.9234 93.954796 149.55597 94.337891 149.18945 C 94.890105 148.65573 95.472859 148.15608 96.046875 147.64648 C 96.905933 146.91537 97.69191 146.10573 98.476562 145.29688 C 99.011303 144.79742 99.489276 144.24537 99.974609 143.69922 C 100.58767 142.9899 101.23817 142.31525 101.89062 141.64258 C 102.24743 141.29334 102.63684 140.98653 102.96094 140.60547 C 103.24572 140.26266 103.51785 139.91001 103.80859 139.57227 C 104.13465 139.21885 104.4669 138.86782 104.81445 138.53516 C 105.11306 138.2654 105.39207 137.97344 105.69531 137.70898 C 106.04811 137.41868 106.27004 137.02116 106.54688 136.66602 C 106.82363 136.30075 107.12183 135.95326 107.4082 135.5957 C 107.66836 135.23951 107.96491 134.91342 108.26562 134.5918 C 108.56024 134.25794 108.82197 133.89732 109.09375 133.54492 C 109.27114 133.31488 109.41157 133.05894 109.55078 132.80469 C 109.69263 132.5564 109.78804 132.28138 109.93945 132.03906 C 110.13751 131.68132 110.3485 131.33199 110.56055 130.98242 C 110.77602 130.63313 110.93348 130.25433 111.14062 129.90039 C 111.2977 129.6392 111.46338 129.38277 111.62891 129.12695 C 111.75178 128.93926 111.88291 128.75514 112.02344 128.58008 C 112.14654 128.46853 112.28467 128.37608 112.4082 128.26562 C 112.4769 128.16862 112.55289 128.07596 112.61914 127.97656 C 112.71534 127.76888 112.7632 127.54148 112.78711 127.31445 z "
         d="m 169.60938,100.13086 c -0.33382,-0.0395 -0.90049,0.237 -0.76954,0.17969 -0.0539,0.0164 -0.10994,0.0294 -0.15429,0.0566 -0.0845,-0.007 -0.093,0.002 -0.11524,0.006 -0.0468,0.008 -0.0543,-0.0104 -0.17773,0.0605 a 0.38630605,0.38630605 0 0 0 -0.002,0 c -0.0278,0.0162 -0.018,0.0126 -0.0273,0.0195 -0.004,0.002 -0.01,0.004 -0.01,0.004 -1.2e-4,6e-5 -0.041,0.0214 -0.041,0.0215 0,0 0.002,0.002 0.002,0.002 -0.0825,0.0283 -0.18595,0.0663 -0.29101,0.14453 a 0.38630605,0.38630605 0 0 0 -0.008,0.006 c -0.11848,0.0931 -0.27124,0.18693 -0.4375,0.30469 -0.19599,0.12458 -0.38426,0.25207 -0.57031,0.3789 -0.20578,0.12923 -0.49423,0.22525 -0.80469,0.40821 l 0.0234,-0.0137 c -0.21858,0.10793 -0.49908,0.18576 -0.80273,0.3379 a 0.38630605,0.38630605 0 0 0 -0.002,0.002 c -0.36407,0.18647 -0.75583,0.34301 -1.15821,0.50976 a 0.38630605,0.38630605 0 0 0 -0.002,0.002 c -0.46436,0.19721 -0.92012,0.41397 -1.36524,0.64453 a 0.38630605,0.38630605 0 0 0 -0.008,0.006 c -0.43862,0.24102 -0.83831,0.4994 -1.24219,0.69726 a 0.38630605,0.38630605 0 0 0 -0.01,0.006 c -0.44539,0.23489 -0.88343,0.47067 -1.32422,0.69141 -0.5125,0.22545 -1.03611,0.43973 -1.56055,0.66406 a 0.38630605,0.38630605 0 0 0 -0.002,0.002 c -0.43898,0.19261 -0.91083,0.36788 -1.37695,0.60743 a 0.38630605,0.38630605 0 0 0 -0.008,0.004 c -0.39857,0.21408 -0.81581,0.44253 -1.19921,0.76172 -0.32761,0.24188 -0.62247,0.4749 -0.93164,0.63086 a 0.38630605,0.38630605 0 0 0 -0.0273,0.0156 c -0.42431,0.25828 -0.83989,0.51789 -1.25976,0.75586 -0.40218,0.21073 -0.86106,0.40104 -1.29688,0.71093 l 0.0156,-0.0117 c -0.45622,0.2919 -0.92325,0.57038 -1.39649,0.85157 a 0.38630605,0.38630605 0 0 0 -0.01,0.006 c -0.65523,0.41428 -1.27952,0.85392 -1.91407,1.2539 a 0.38630605,0.38630605 0 0 0 -0.01,0.006 c -0.59942,0.40047 -1.16839,0.81612 -1.75391,1.1836 a 0.38630605,0.38630605 0 0 0 -0.004,0.004 c -0.57424,0.37124 -1.15223,0.73684 -1.73437,1.0918 l -0.008,0.004 c -0.002,0.001 -0.004,0.003 -0.006,0.004 -0.58715,0.326 -1.1631,0.652 -1.75196,0.92578 -0.5795,0.24179 -1.17536,0.45572 -1.77734,0.67578 a 0.38630605,0.38630605 0 0 0 -0.0117,0.006 c -0.6077,0.24526 -1.1968,0.50014 -1.79101,0.70703 a 0.38630605,0.38630605 0 0 0 -0.004,0.002 c -0.49831,0.1801 -0.97717,0.36643 -1.45508,0.49023 a 0.38630605,0.38630605 0 0 0 -0.0137,0.004 c -0.46902,0.14141 -0.92684,0.27715 -1.38477,0.36914 -0.41983,0.0814 -0.87827,0.13425 -1.3496,0.26758 -0.001,3.1e-4 -0.003,0.002 -0.004,0.002 -0.53606,0.12933 -1.14412,0.22392 -1.72656,0.52148 l 0.0254,-0.0117 c -0.27248,0.11511 -0.57114,0.19366 -0.88086,0.25585 -0.001,3e-4 -0.002,0.002 -0.004,0.002 -0.37033,0.0617 -0.75885,0.0931 -1.15625,0.12695 -0.42331,0.004 -0.85379,0.0278 -1.28515,0.0957 a 0.38630605,0.38630605 0 0 0 -0.002,0 c -0.28561,0.0473 -0.54168,0.099 -0.77343,0.10547 a 0.38630605,0.38630605 0 0 0 -0.002,0 c -0.43104,0.0126 -0.83134,0.0459 -1.19531,0.004 a 0.38630605,0.38630605 0 0 0 -0.0137,-0.002 c -0.42415,-0.0352 -0.85453,-0.0345 -1.28906,0.0254 -0.46811,0.0488 -0.89679,0.16912 -1.30469,0.27343 a 0.38630605,0.38630605 0 0 0 -0.006,0.002 c -0.39729,0.10739 -0.7826,0.25134 -1.1543,0.43554 l 0.0195,-0.01 c -0.31339,0.13364 -0.62391,0.25863 -0.93945,0.36719 a 0.38630605,0.38630605 0 0 0 -0.043,0.0176 c -0.28184,0.13599 -0.55781,0.28166 -0.82812,0.43555 a 0.38630605,0.38630605 0 0 0 -0.006,0.004 c -0.40013,0.23749 -0.77253,0.49149 -1.14454,0.71875 a 0.38630605,0.38630605 0 0 0 -0.0215,0.0137 c -0.32528,0.22959 -0.67402,0.43679 -1.03516,0.64062 a 0.38630605,0.38630605 0 0 0 -0.004,0.002 c -0.42936,0.24816 -0.83687,0.5209 -1.23242,0.80859 -0.35683,0.25262 -0.67157,0.52885 -0.98243,0.7793 -0.19862,0.13403 -0.38011,0.26079 -0.5625,0.35742 -0.11922,0.0489 -0.26781,0.0821 -0.44531,0.12695 a 0.38630605,0.38630605 0 0 0 -0.1543,0.0781 c -0.0155,0.0129 -0.021,0.0188 -0.0195,0.0176 -0.16205,0.13232 -0.31911,0.26234 -0.47656,0.38281 a 0.38630605,0.38630605 0 0 0 -0.002,0 c -0.13667,0.10517 -0.27781,0.21436 -0.41992,0.33203 -0.0298,0.0237 -0.0625,0.0492 -0.0957,0.0762 a 0.38630605,0.38630605 0 0 0 -0.0293,0.0254 l -0.002,0.002 c 0.0251,-0.0251 0.0253,-0.0234 -0.006,0.006 a 0.38630605,0.38630605 0 0 0 0.39258,0.64454 c -0.003,0.001 0.0236,-0.006 0.0586,-0.0176 l 0.01,-0.002 c 0.28395,-0.0915 0.583,-0.16252 0.89258,-0.23437 a 0.38630605,0.38630605 0 0 0 0.0137,-0.004 c 0.23166,-0.0636 0.50083,-0.117 0.7832,-0.22656 a 0.38630605,0.38630605 0 0 0 0.0273,-0.0117 c 0.28968,-0.14019 0.53511,-0.31024 0.76562,-0.46094 a 0.38630605,0.38630605 0 0 0 0.0293,-0.0215 c 0.34675,-0.27404 0.65665,-0.5525 0.98047,-0.7793 a 0.38630605,0.38630605 0 0 0 0.008,-0.004 c 0.36538,-0.2673 0.73497,-0.51913 1.11914,-0.73828 0.37758,-0.21296 0.7536,-0.43795 1.11914,-0.69141 l 0.0215,-0.0137 c 0.37609,-0.2282 0.72705,-0.46925 1.07617,-0.67578 l 0.006,-0.004 c 0.23973,-0.13596 0.48249,-0.26322 0.73047,-0.38281 0.001,-6.4e-4 0.003,-0.001 0.004,-0.002 0.32364,-0.10799 0.63136,-0.23564 0.92578,-0.35937 a 0.38630605,0.38630605 0 0 0 0.0215,-0.01 c 0.30032,-0.15002 0.61131,-0.26819 0.93555,-0.35742 l 0.008,-0.002 c 0.39464,-0.0991 0.75812,-0.20216 1.10937,-0.23828 a 0.38630605,0.38630605 0 0 0 0.0117,-0.002 c 0.33931,-0.0452 0.67962,-0.0511 1.02149,-0.0195 l -0.01,-0.002 c 0.48753,0.0567 0.94812,0.0165 1.37109,0.004 0.3438,-0.006 0.6585,-0.0709 0.94727,-0.1211 0.36323,-0.0564 0.7354,-0.0779 1.11133,-0.0781 a 0.38630605,0.38630605 0 0 0 0.0273,-0.002 c 0.43545,-0.0306 0.87743,-0.0714 1.32031,-0.14453 a 0.38630605,0.38630605 0 0 0 0.008,0 c 0.39427,-0.0722 0.77914,-0.18601 1.15039,-0.33593 a 0.38630605,0.38630605 0 0 0 0.0312,-0.0137 c 0.41678,-0.21417 0.93309,-0.30301 1.48242,-0.4375 a 0.38630605,0.38630605 0 0 0 0.0156,-0.004 c 0.38695,-0.11151 0.81855,-0.1615 1.27539,-0.24805 a 0.38630605,0.38630605 0 0 0 0.004,0 c 0.51742,-0.10406 1.01199,-0.25248 1.49609,-0.40039 l 0.0156,-0.004 c 0.53773,-0.14095 1.04215,-0.33432 1.5332,-0.50976 0.62951,-0.22182 1.23292,-0.48135 1.83008,-0.72461 l 0.0137,-0.006 c 0.60246,-0.22006 1.21027,-0.44083 1.81446,-0.69336 a 0.38630605,0.38630605 0 0 0 0.0117,-0.004 c 0.65308,-0.29852 1.26967,-0.64924 1.875,-0.99023 a 0.38630605,0.38630605 0 0 0 0.0137,-0.008 c 0.60231,-0.37098 1.19781,-0.75048 1.78906,-1.13477 l -0.006,0.002 c 0.61514,-0.38736 1.1912,-0.80751 1.77148,-1.19531 l 0.008,-0.006 c 0.64478,-0.40878 1.26038,-0.83951 1.88476,-1.23633 l 0.01,-0.006 c 0.47185,-0.27887 0.94625,-0.56005 1.41406,-0.85937 a 0.38630605,0.38630605 0 0 0 0.0137,-0.0117 c 0.33537,-0.23761 0.74964,-0.41218 1.18164,-0.63867 a 0.38630605,0.38630605 0 0 0 0.008,-0.004 c 0.44771,-0.24721 0.86829,-0.51638 1.28711,-0.77148 0.42412,-0.21576 0.76922,-0.4949 1.0996,-0.74024 a 0.38630605,0.38630605 0 0 0 0.0176,-0.0137 c 0.28695,-0.23897 0.63126,-0.43086 1,-0.6289 l 0.006,-0.002 c 8.4e-4,-4.5e-4 0.001,-0.001 0.002,-0.002 0.39686,-0.20341 0.83663,-0.36719 1.2871,-0.56641 0.51937,-0.22539 1.05233,-0.43969 1.58399,-0.67382 a 0.38630605,0.38630605 0 0 0 0.0137,-0.008 c 0.4681,-0.23049 0.91745,-0.47766 1.36328,-0.71093 l 0.01,-0.006 c 0.45594,-0.22369 0.86235,-0.48807 1.26367,-0.70899 l 0.01,-0.006 c 0.41334,-0.2108 0.82848,-0.40983 1.25,-0.59179 l 0.006,-0.002 c 0.40921,-0.16722 0.83209,-0.33721 1.24805,-0.55469 0.22646,-0.10392 0.49126,-0.18691 0.77539,-0.32226 a 0.38630605,0.38630605 0 0 0 0.0195,-0.0117 c 0.25176,-0.1387 0.56046,-0.25416 0.87696,-0.44726 a 0.38630605,0.38630605 0 0 0 0.0195,-0.0117 c 0.18557,-0.1287 0.37852,-0.25239 0.57617,-0.37305 a 0.38630605,0.38630605 0 0 0 0.0137,-0.01 c 0.14572,-0.0977 0.3073,-0.20077 0.4707,-0.31836 0.0107,0.003 0.0182,0.007 0.0254,0.008 0.0299,0.005 0.0536,0.005 0.0742,0.004 0.0413,-0.001 0.0699,-0.008 0.0918,-0.0137 0.0439,-0.011 0.0688,-0.0209 0.0918,-0.0312 0.0638,-0.0288 0.10604,-0.0592 0.15234,-0.0898 0.14608,-0.0462 0.25224,-0.092 0.31836,-0.10547 0.21638,-0.0194 0.47303,0.0136 0.76758,0.0371 a 0.38630605,0.38630605 0 0 0 0.0234,0.002 c 0.39464,0.007 0.80413,0.0863 1.24023,0.16406 a 0.38630605,0.38630605 0 0 0 0.004,0 c 0.48669,0.0825 0.98278,0.16838 1.48828,0.22852 0.40226,0.0469 0.80341,0.0756 1.20508,0.0879 0.34673,0.0141 0.69892,0.0353 1.05664,0.0488 l -0.006,-0.002 c 0.41084,0.0218 0.82111,0.043 1.23047,0.0625 a 0.38630605,0.38630605 0 0 0 0.0391,-0.002 c 0.0265,-0.001 0.1407,0.0138 0.2168,0.0254 0.009,0.011 0.006,0.007 0.0156,0.0195 a 0.38630605,0.38630605 0 0 0 0.0117,0.0137 c 0.0468,0.0523 0.083,0.12543 0.11133,0.22851 a 0.38630605,0.38630605 0 0 0 0.0176,0.0488 c 0.068,0.16122 0.1184,0.36735 0.21484,0.60156 a 0.38630605,0.38630605 0 0 0 0,0.002 c -0.004,-0.0106 0.0645,0.23784 0.13281,0.43164 a 0.38630605,0.38630605 0 0 0 0.0117,0.0293 c 0.0637,0.1429 0.11181,0.32742 0.19727,0.54492 a 0.38630605,0.38630605 0 0 0 0.0137,0.0332 c 0.0897,0.17804 0.18989,0.352 0.29687,0.51953 l -0.0312,-0.0586 c 0.11012,0.2638 0.26104,0.376 0.28516,0.41796 l -0.0137,-0.0254 c 0.0826,0.17103 0.18984,0.30294 0.2832,0.41211 a 0.38630605,0.38630605 0 0 0 0.043,0.043 c 0.15356,0.13005 0.19963,0.17432 0.25586,0.23633 a 0.38630605,0.38630605 0 0 0 0.043,0.0332 0.38630605,0.38630605 0 0 0 0,0.002 c 9.8e-4,0.002 0.003,0.004 0.004,0.006 6.2e-4,0.001 0.001,0.003 0.002,0.004 0.0192,0.039 0.0405,0.0794 0.0684,0.11719 0.0302,0.041 0.0336,0.0416 0.0645,0.082 a 0.38630605,0.38630605 0 0 0 0.0352,0.041 c 0.005,0.005 0.0187,0.02 0.041,0.043 0.003,0.003 0.007,0.008 0.0137,0.0137 6.9e-4,6.5e-4 0.003,0.003 0.004,0.004 0.01,0.0114 0.004,0.006 0.0156,0.0195 a 0.38630605,0.38630605 0 0 0 0.0137,0.0156 c 0.008,0.008 0.009,0.009 0.0176,0.0156 l 0.004,0.002 c 0.0171,0.0139 0.0392,0.0327 0.0371,0.0312 0.0352,0.0365 0.0554,0.0654 0.18945,0.1582 0.002,0.002 0.002,4.6e-4 0.004,0.002 0.003,0.002 7.3e-4,0.002 0.004,0.004 0.0928,0.0658 0.15876,0.10299 0.16406,0.10742 a 0.38630605,0.38630605 0 0 0 0.0176,0.0117 c 0.0458,0.0342 0.10436,0.0756 0.18359,0.11328 0.0792,0.0377 0.17622,0.0872 0.3457,0.0684 a 0.38630605,0.38630605 0 0 0 0.29492,-0.19727 c 0.0179,-0.0324 0.0351,-0.078 0.0527,-0.11914 0.001,-0.001 9.1e-4,-6.6e-4 0.002,-0.002 0.0827,-0.10228 0.0809,-0.0889 0.14453,-0.16406 0.0322,-0.0381 0.0789,-0.11987 0.0937,-0.16406 0.0148,-0.0442 0.0188,-0.0653 0.0293,-0.10352 a 0.38630605,0.38630605 0 0 0 -0.0352,-0.28906 c -0.0764,-0.13882 -0.13115,-0.15824 -0.17968,-0.19336 -0.0485,-0.0351 -0.0919,-0.0605 -0.12696,-0.0801 -0.0854,-0.0629 -0.17018,-0.11945 -0.22461,-0.15625 a 0.38630605,0.38630605 0 0 0 -0.0156,-0.01 c -1e-5,-1e-5 -0.002,-0.002 -0.002,-0.002 -6.2e-4,-3.7e-4 -0.001,3.6e-4 -0.002,0 -9.3e-4,-5.6e-4 -0.001,-0.001 -0.002,-0.002 -4.2e-4,-4.5e-4 3.9e-4,-0.002 0,-0.002 -4.3e-4,-3.4e-4 -0.001,3.7e-4 -0.002,0 -8.8e-4,-6.9e-4 -9.7e-4,-0.001 -0.002,-0.002 -3.9e-4,-5.1e-4 3.9e-4,-0.001 0,-0.002 -6.2e-4,-5.9e-4 -0.001,-0.001 -0.002,-0.002 -0.002,-0.002 -0.004,-0.004 -0.006,-0.006 -6.9e-4,3.3e-4 -0.0207,-0.0257 -0.0137,-0.0176 3.5e-4,4e-4 -0.004,-0.006 -0.004,-0.006 -0.002,-0.005 -0.003,-0.005 -0.006,-0.01 -0.0112,-0.0217 -0.0238,-0.0441 -0.0371,-0.0684 -0.007,-0.0121 -0.0124,-0.0254 -0.0234,-0.043 -0.006,-0.009 -0.0105,-0.0179 -0.0254,-0.0371 -0.002,-0.003 -0.006,-0.008 -0.0117,-0.0137 l -0.002,-0.002 c -0.0149,-0.0187 -0.0585,-0.11082 -0.18945,-0.2207 -0.0489,-0.041 -0.0873,-0.0704 -0.13476,-0.0996 -0.0119,-0.007 -0.0323,-0.0159 -0.0469,-0.0234 -0.0302,-0.0215 -0.0592,-0.0412 -0.0723,-0.0508 -0.0457,-0.0567 -0.0845,-0.10994 -0.10352,-0.15039 a 0.38630605,0.38630605 0 0 0 -0.0273,-0.0488 c -0.11343,-0.17172 -0.20614,-0.26827 -0.23829,-0.33203 a 0.38630605,0.38630605 0 0 0 -0.0176,-0.0293 c -0.071,-0.1141 -0.13932,-0.22682 -0.20118,-0.33789 -0.0566,-0.15102 -0.10786,-0.32773 -0.18945,-0.52148 -0.0465,-0.12699 -0.0833,-0.29603 -0.1582,-0.49024 a 0.38630605,0.38630605 0 0 0 -0.01,-0.0234 c -0.0469,-0.10194 -0.087,-0.28846 -0.17968,-0.50196 l -0.002,-0.004 c -0.0781,-0.24174 -0.18691,-0.50706 -0.39648,-0.73828 -0.0296,-0.0328 -0.0782,-0.0921 -0.13867,-0.15625 -0.0552,-0.0586 -0.12474,-0.12603 -0.2461,-0.18555 -0.13017,-0.075 -0.30046,-0.14532 -0.50586,-0.12695 a 0.38630605,0.38630605 0 0 0 -0.0137,0.002 c 0.12501,-0.0156 0.0274,-0.007 -0.0586,-0.0254 -0.086,-0.0186 -0.19192,-0.0638 -0.39258,-0.01 l 0.11719,-0.0137 c -0.41201,-0.0196 -0.82127,-0.0365 -1.23047,-0.0586 a 0.38630605,0.38630605 0 0 0 -0.008,-0.002 c -0.34654,-0.0129 -0.69903,-0.036 -1.06055,-0.0488 a 0.38630605,0.38630605 0 0 0 -0.004,0 c -0.3665,-0.01 -0.72787,-0.0316 -1.08789,-0.0742 -0.46362,-0.0547 -0.93416,-0.13943 -1.41406,-0.2168 h -0.006 c -0.44047,-0.0767 -0.90619,-0.16395 -1.40039,-0.17187 -0.23396,-0.0147 -0.4919,-0.0468 -0.77539,-0.041 a 0.38630605,0.38630605 0 0 0 -0.002,0 z m -0.66993,0.22266 c -7e-5,-2e-5 0.0181,0.01 0.0254,0.0137 -0.007,-0.002 -0.007,-0.004 -0.0137,-0.006 a 0.38630605,0.38630605 0 0 0 -0.0117,-0.008 z m 0.13086,0.0684 c 0.006,0.003 0.0332,0.0247 0.041,0.0332 -0.0158,-0.0135 -0.023,-0.0177 -0.041,-0.0332 z m -0.73633,0.0508 0.002,0.002 a 0.38630605,0.38630605 0 0 0 -0.01,0.004 c 0.003,-0.002 0.004,-0.003 0.008,-0.006 z m 0.82422,0.0352 c 0.002,0.002 0.0111,0.015 0.0137,0.0195 -0.005,-0.008 -0.008,-0.011 -0.0137,-0.0195 z m -0.9414,0.13281 c 0.12248,0.14776 0.14049,0.16521 0.18164,0.2129 -0.078,0.0202 -0.32031,0.082 -0.32032,0.082 10e-6,3e-5 -0.0117,-0.0723 -0.0117,-0.0723 l 0.10156,-0.15234 z m 0.25586,0.0391 a 0.38630605,0.38630605 0 0 0 0.0195,0.0469 0.38630605,0.38630605 0 0 0 -0.004,0.008 l -0.0156,-0.0195 c 0,-0.0156 -0.001,-0.0261 0,-0.0352 z m 0,0.0469 c 0.004,0.006 0.008,0.0107 0.0117,0.0156 a 0.38630605,0.38630605 0 0 0 -0.004,0.006 c 2.8e-4,3.4e-4 -2.8e-4,0.002 0,0.002 a 0.38630605,0.38630605 0 0 0 -0.006,0.0137 c -2.9e-4,-0.007 2.8e-4,-0.0124 0,-0.0215 -3e-5,-8.3e-4 2e-5,-0.001 0,-0.002 -1.7e-4,-0.006 -0.002,-0.007 -0.002,-0.0137 z m 0.043,0.0664 c 2.8e-4,4.2e-4 0.006,0.006 0.006,0.006 3e-5,2e-5 -1e-5,0.002 0,0.002 a 0.38630605,0.38630605 0 0 0 0.002,0.002 0.38630605,0.38630605 0 0 0 0,0.002 c -2e-5,1.5e-4 -0.002,0.0143 -0.002,0.0156 -9.9e-4,-0.005 -0.001,-0.007 -0.002,-0.0117 -5.7e-4,-0.003 -0.001,-0.005 -0.002,-0.008 -4.7e-4,-0.002 -0.002,-0.006 -0.002,-0.008 z m -0.0352,0.0156 c 0.007,0.007 0.0312,0.0345 0.0371,0.041 -0.001,0.009 -0.004,0.0265 -0.006,0.041 -0.009,-0.0231 -0.0111,-0.0287 -0.0195,-0.0508 -0.005,-0.0135 -0.009,-0.0254 -0.0117,-0.0312 z m 0.0449,0 a 0.38630605,0.38630605 0 0 0 0.002,0.004 c 3.5e-4,0.003 0.006,0.0393 0.008,0.0547 a 0.38630605,0.38630605 0 0 0 0.0254,0.0293 0.38630605,0.38630605 0 0 0 0.0508,0.125 c -0.0176,-0.0199 -0.0183,-0.0218 -0.0371,-0.043 -0.0131,-0.0226 -0.0334,-0.0611 -0.0332,-0.0606 0.001,0.0115 0.002,0.0145 0.004,0.0273 -0.01,-0.011 -0.0129,-0.0138 -0.0215,-0.0234 -0.002,-0.005 -0.004,-0.0139 -0.008,-0.0234 0.002,-0.0174 0.003,-0.0365 0.004,-0.0469 a 0.38630605,0.38630605 0 0 0 0.01,0.0117 c -0.003,-0.0164 -0.003,-0.0187 -0.006,-0.0352 2.6e-4,-0.002 0.002,-0.019 0.002,-0.0195 z m 0.12305,0.10938 0.01,0.0137 a 0.38630605,0.38630605 0 0 0 -0.041,-0.006 c 0.003,-7.6e-4 0.005,-0.002 0.0117,-0.004 0.005,-0.001 0.0102,-0.002 0.0195,-0.004 z m 0.0352,0.11523 a 0.38630605,0.38630605 0 0 0 0.0566,0.0606 c -3.5e-4,3.8e-4 3.8e-4,0.002 0,0.002 a 0.38630605,0.38630605 0 0 0 0.006,0.006 c -0.003,-7.3e-4 -0.008,-0.002 -0.01,-0.002 -8.3e-4,-1.8e-4 -0.006,-0.002 -0.006,-0.002 4e-5,10e-6 -0.005,-0.002 -0.006,-0.002 z m 0.38282,0.36524 c 0.0601,0.0145 -0.006,0.0233 -0.006,0.0137 a 0.38630605,0.38630605 0 0 0 0.006,-0.0137 z m -0.0801,0.15625 c 0.002,0.002 -0.006,0.0176 -0.0117,0.0234 a 0.38630605,0.38630605 0 0 0 0.0117,-0.0234 z m 0.13672,0.0508 c -0.004,0.001 -0.0312,0.005 -0.041,0.006 a 0.38630605,0.38630605 0 0 0 0.041,-0.006 z m -0.36133,0.0996 c 0.001,3e-4 9.3e-4,0.002 0.002,0.002 l -0.0742,0.0352 c 0.0314,-0.009 0.0451,-0.0257 0.0723,-0.0371 z m 10.84766,3.14648 c 0.11271,-0.006 0.33748,0.19375 0.26757,0.12305 a 0.38630605,0.38630605 0 0 0 -0.45703,-0.0723 c 0.0491,-0.0209 0.10938,-0.0469 0.10938,-0.0469 0,0 0.0801,-0.004 0.0801,-0.004 z m -0.22071,0.0645 a 0.38630605,0.38630605 0 0 0 -0.0957,0.26953 c -0.002,-0.002 -0.006,-0.008 -0.006,-0.008 -2.8e-4,-2.8e-4 -0.0544,-0.0447 -0.0547,-0.0449 -1e-5,-1e-5 -0.004,-0.002 -0.004,-0.002 0.004,-0.0165 0.008,-0.0391 0.008,-0.0391 0,0 0.043,-0.0781 0.043,-0.0781 0,0 0.084,-0.0859 0.084,-0.0859 0,0 0.0187,-0.009 0.0254,-0.0117 z m 0.51953,0.1875 c 0.0506,0.38649 0.16441,0.0393 0.0215,0.35546 0,0 -0.1306,-0.0834 -0.22657,-0.14453 -0.002,0.003 -0.0117,0.0254 -0.0117,0.0254 0,0 -0.002,-0.028 -0.002,-0.0332 -0.0129,-0.008 -0.0242,-0.0157 -0.0332,-0.0215 l 0.0312,-0.0215 c -8.2e-4,-0.0185 -7.7e-4,-0.0321 -0.002,-0.0586 l 0.10351,-0.0879 c -0.0216,0.0493 -0.0263,0.0586 -0.0469,0.10547 z m -0.63867,0.14843 c -0.0685,0.1795 -0.0315,0.15043 -0.0566,0.0449 z m 0.28516,0.10743 c -0.0233,0.0513 -0.0297,0.066 -0.0547,0.12109 -0.002,-0.003 -0.005,-0.007 -0.006,-0.008 -0.005,-0.007 -0.009,-0.0115 -0.0117,-0.0156 -0.008,-0.0115 -0.0144,-0.02 -0.0215,-0.0293 z m -0.0996,0.0723 c 0.007,0.013 -0.0742,0.0742 -0.1211,0.0918 -0.005,-0.006 -0.002,-2e-5 -0.01,-0.01 l 0.0156,-0.0137 c 0.002,0.006 0.006,0.0117 0.006,0.0117 z m 0.0195,0.10547 c -0.003,0.006 -0.008,0.0132 -0.01,0.0176 0.008,-0.004 0.0227,-0.01 0.0273,-0.0117 0.001,0.0149 0.006,0.0664 0.006,0.0664 0,0 -0.006,0.0625 -0.006,0.0625 0,0 -0.008,0.0151 -0.01,0.0176 -0.0171,0.0299 -0.12109,0.21094 -0.12109,0.21094 0,0 -0.11133,0.0664 -0.11133,0.0664 0,0 -0.0451,0.004 -0.0879,0.008 0.005,-0.11079 0.0137,-0.2832 0.0137,-0.2832 -1e-5,-7e-5 0.12699,-0.0586 0.23047,-0.10743 -0.002,-0.001 -0.005,-0.003 -0.006,-0.004 -0.014,-0.009 -0.0166,-0.012 -0.0215,-0.0156 -0.001,-0.001 -0.007,-0.007 -0.008,-0.008 0.0446,-0.009 0.0944,-0.0178 0.10352,-0.0195 z m -66.99609,21.26172 c -0.2895,-0.10713 -0.50936,0.70595 -0.54883,0.41015 3e-5,4.5e-4 0,0.004 0,0.004 a 0.38630605,0.38630605 0 0 0 0.13086,0.16797 c -0.0307,0.0227 -0.0588,0.043 -0.0899,0.0664 a 0.38630605,0.38630605 0 0 0 -0.0879,0.0918 c -0.004,0.005 -0.0292,0.0405 -0.0605,0.082 -0.0138,0.0183 -0.0304,0.0399 -0.0488,0.0703 -0.0725,0.0597 -0.2356,0.13528 -0.41602,0.35937 a 0.38630605,0.38630605 0 0 0 -0.006,0.006 c -0.14516,0.18867 -0.29717,0.38588 -0.43945,0.60156 a 0.38630605,0.38630605 0 0 0 -0.002,0.004 c -0.16811,0.25986 -0.3428,0.52432 -0.50782,0.80273 a 0.38630605,0.38630605 0 0 0 0,0.002 c -0.22543,0.38242 -0.38134,0.75612 -0.57422,1.06836 a 0.38630605,0.38630605 0 0 0 -0.002,0.002 c -0.21273,0.35073 -0.42479,0.70565 -0.6289,1.06836 -0.16596,0.28239 -0.27671,0.5568 -0.40039,0.78711 -0.13149,0.23674 -0.24876,0.45501 -0.38282,0.6289 -0.26749,0.34683 -0.51539,0.68992 -0.7832,0.9961 -0.30641,0.32772 -0.62256,0.66767 -0.9043,1.05469 -0.28176,0.34789 -0.57763,0.6949 -0.86133,1.0664 -0.28393,0.36251 -0.47816,0.70302 -0.73242,0.91406 a 0.38630605,0.38630605 0 0 0 -0.008,0.006 c -0.32444,0.2847 -0.61147,0.58335 -0.90234,0.84766 a 0.38630605,0.38630605 0 0 0 -0.01,0.008 c -0.36135,0.35043 -0.7128,0.7122 -1.05273,1.08203 a 0.38630605,0.38630605 0 0 0 -0.006,0.008 c -0.30505,0.34991 -0.57837,0.70793 -0.85742,1.04297 -0.28014,0.32972 -0.65647,0.61849 -1.0254,0.99023 a 0.38630605,0.38630605 0 0 0 -0.004,0.002 c -0.66052,0.67804 -1.318634,1.36594 -1.945314,2.08985 -0.482656,0.54325 -0.943849,1.08163 -1.451172,1.55664 a 0.38630605,0.38630605 0 0 0 -0.01367,0.0137 c -0.773612,0.80084 -1.545396,1.58842 -2.376953,2.29687 a 0.38630605,0.38630605 0 0 0 -0.0059,0.006 c -0.574755,0.51047 -1.16807,1.01786 -1.734375,1.56836 -0.371201,0.35277 -0.7423,0.70517 -1.111328,1.06446 -0.206425,0.17394 -0.499023,0.33814 -0.773437,0.61718 l 0.01953,-0.0176 c -0.149878,0.13289 -0.384108,0.25657 -0.626953,0.4707 -0.442101,0.35943 -0.874684,0.71586 -1.320313,1.04101 a 0.38630605,0.38630605 0 0 0 -0.02148,0.0176 c -0.20328,0.17264 -0.377587,0.31716 -0.548828,0.39063 a 0.38630605,0.38630605 0 0 0 -0.0039,0.002 c -0.207475,0.092 -0.415096,0.18923 -0.621094,0.29102 -0.110167,0.0436 -0.233076,0.0839 -0.361328,0.1289 -0.142481,0.0348 -0.270259,0.0689 -0.375,0.082 -0.363878,0.0455 -0.691773,0.14532 -1,0.23242 -0.385395,0.10036 -0.787764,0.1879 -1.197266,0.31055 -0.462222,0.13421 -0.939544,0.21813 -1.419922,0.25 -0.472112,0.0201 -0.978313,-8e-4 -1.511718,0.0664 -0.601294,0.0526 -1.178725,0.14644 -1.742188,0.19531 -0.649198,0.0416 -1.27008,0.0312 -1.861328,-0.12695 a 0.38630605,0.38630605 0 0 0 -0.0078,-0.002 C 78.984456,153.51706 78.732842,153.4418 78.5,153.33594 a 0.38630605,0.38630605 0 0 0 -0.01953,-0.008 c -0.29076,-0.11441 -0.584727,-0.25997 -0.904297,-0.39648 a 0.38630605,0.38630605 0 0 0 -0.01172,-0.004 c -0.309249,-0.1204 -0.615174,-0.23332 -0.910156,-0.35156 l 0.0098,0.006 c -0.416987,-0.18186 -0.827791,-0.3525 -1.222656,-0.53906 l -0.0039,-0.002 c -0.709096,-0.34538 -1.40652,-0.77377 -2.171875,-1.13086 a 0.38630605,0.38630605 0 0 0 -0.505859,0.16992 l -0.09766,0.18554 a 0.38630605,0.38630605 0 0 0 0.181641,0.53126 c 0.709255,0.32476 1.390863,0.76966 2.138672,1.1582 a 0.38630605,0.38630605 0 0 0 0.0078,0.006 c 0.415973,0.20387 0.832661,0.38857 1.236328,0.58203 a 0.38630605,0.38630605 0 0 0 0.0039,0.002 c 0.308678,0.14331 0.609859,0.25913 0.890625,0.38477 0.288527,0.14851 0.586105,0.30419 0.904297,0.44336 0.31133,0.15754 0.628291,0.26054 0.939453,0.34375 0.750449,0.20399 1.500822,0.21615 2.230468,0.17578 a 0.38630605,0.38630605 0 0 0 0.0078,0 c 0.617884,-0.0461 1.207499,-0.14503 1.779297,-0.19141 a 0.38630605,0.38630605 0 0 0 0.01563,-0.002 c 0.443801,-0.0536 0.921829,-0.0313 1.433594,-0.0547 a 0.38630605,0.38630605 0 0 0 0.0059,-0.002 c 0.574316,-0.0354 1.140881,-0.13469 1.691406,-0.29102 a 0.38630605,0.38630605 0 0 0 0.0039,0 c 0.371596,-0.11018 0.762942,-0.19662 1.164063,-0.29883 a 0.38630605,0.38630605 0 0 0 0.0078,-0.002 c 0.305454,-0.0846 0.577562,-0.16877 0.832031,-0.19531 0.191962,-0.0205 0.354632,-0.0586 0.492187,-0.0781 a 0.38630605,0.38630605 0 0 0 0.01563,-0.004 c 0.200767,-0.0375 0.375292,-0.10074 0.529297,-0.15625 a 0.38630605,0.38630605 0 0 0 0.0293,-0.0117 c 0.227767,-0.10303 0.442757,-0.20887 0.654297,-0.30078 a 0.38630605,0.38630605 0 0 0 0.002,0 c 0.353087,-0.15558 0.619816,-0.38641 0.857422,-0.5918 0.457053,-0.34398 0.893464,-0.70317 1.326172,-1.05469 a 0.38630605,0.38630605 0 0 0 0.002,-0.004 c 0.177286,-0.14649 0.407755,-0.28445 0.642578,-0.48438 a 0.38630605,0.38630605 0 0 0 0.02148,-0.0195 c 0.181869,-0.18013 0.44346,-0.33669 0.720704,-0.56055 a 0.38630605,0.38630605 0 0 0 0.02344,-0.0215 c 0.384018,-0.36607 0.769332,-0.73317 1.152344,-1.09961 a 0.38630605,0.38630605 0 0 0 0,-0.002 c 0.539231,-0.52118 1.11615,-1.01482 1.691406,-1.52539 l 0.0059,-0.006 c 0.870195,-0.74128 1.659018,-1.55298 2.4375,-2.35547 l 0.0039,-0.004 c 0.552875,-0.51693 1.037601,-1.07877 1.519529,-1.62109 a 0.38630605,0.38630605 0 0 0 0.004,-0.004 c 0.6039,-0.69872 1.24847,-1.36694 1.90039,-2.03906 0.33588,-0.32777 0.73342,-0.63987 1.08789,-1.05664 a 0.38630605,0.38630605 0 0 0 0.002,-0.004 c 0.28769,-0.34631 0.55536,-0.69318 0.83399,-1.01758 l 0.01,-0.01 c 0.31822,-0.34474 0.64042,-0.68346 0.97266,-1.00195 l 0.002,-0.002 c 0.002,-0.002 0.004,-0.004 0.006,-0.006 0.30629,-0.2774 0.57921,-0.56144 0.85938,-0.80664 l 0.002,-0.002 c 0.42347,-0.34937 0.65623,-0.77833 0.9082,-1.10156 a 0.38630605,0.38630605 0 0 0 0.004,-0.006 c 0.2673,-0.35281 0.56169,-0.69618 0.85351,-1.06055 a 0.38630605,0.38630605 0 0 0 0.0117,-0.0137 c 0.24393,-0.33397 0.5279,-0.64973 0.82618,-0.96875 a 0.38630605,0.38630605 0 0 0 0.008,-0.008 c 0.31083,-0.35224 0.57851,-0.71996 0.8457,-1.06641 0.2018,-0.26169 0.34896,-0.53656 0.48828,-0.79102 0.16357,-0.28778 0.25933,-0.55471 0.37891,-0.74609 a 0.38630605,0.38630605 0 0 0 0.01,-0.0176 c 0.19294,-0.34849 0.40002,-0.69265 0.61133,-1.04101 l 0.002,-0.002 c 0.236,-0.3831 0.39484,-0.76468 0.58399,-1.08789 0.15156,-0.25179 0.31262,-0.50444 0.47656,-0.75781 l 0.002,-0.002 c 0.11066,-0.16891 0.22857,-0.33119 0.35157,-0.48633 0.0943,-0.0822 0.2194,-0.16996 0.36133,-0.29688 a 0.38630605,0.38630605 0 0 0 0.0566,-0.0644 c 0.0581,-0.0821 0.13834,-0.17623 0.21875,-0.29687 a 0.38630605,0.38630605 0 0 0 0.0273,-0.0527 c 0.12086,-0.26092 0.17641,-0.52949 0.20313,-0.7832 a 0.38630605,0.38630605 0 0 0 -0.49415,-0.38086 0.38630605,0.38630605 0 0 0 -0.19921,-0.17578 z m 0.082,0.66015 a 0.38630605,0.38630605 0 0 0 0.004,0 l -0.008,0.006 a 0.38630605,0.38630605 0 0 0 0.004,-0.006 z" />
      <path
         id="path9714"
         style="fill:#000000;stroke-width:0.874001"
         d="m 119.02788,122.88966 c -0.0164,3.9e-4 -0.018,0.0199 -0.046,0.0253 -0.0165,0.009 -0.0741,0.043 -0.0749,0.0439 -0.0326,0.018 -0.0937,0.0535 -0.0971,0.0589 0.002,3e-5 0.007,-0.002 0.0186,-0.007 -0.0126,0.007 -0.13338,0.086 -0.0987,0.0703 -0.0495,0.0463 -0.12806,0.0602 -0.17776,0.10749 -0.0648,0.0371 -0.12239,0.0847 -0.18345,0.12764 -0.0887,0.0726 -0.1776,0.14552 -0.26097,0.22427 -0.10642,0.0821 -0.21153,0.16607 -0.32194,0.24288 -0.11251,0.0682 -0.22597,0.1339 -0.3483,0.18345 -0.13519,0.0712 -0.26606,0.15174 -0.38913,0.24237 -0.11413,0.0852 -0.22983,0.1677 -0.34675,0.24908 -0.15089,0.0987 -0.30963,0.18341 -0.46302,0.27802 -0.23377,0.15029 -0.46281,0.30781 -0.69711,0.45733 -0.25634,0.17832 -0.50993,0.36103 -0.74259,0.56999 -0.26241,0.1988 -0.52251,0.40039 -0.77412,0.61289 -0.27786,0.2156 -0.55675,0.431 -0.81545,0.66972 -0.0246,0.0252 -0.0498,0.0493 -0.0734,0.0755 -0.0316,0.0349 -0.0557,0.0762 -0.0873,0.1111 -0.14441,0.15929 -0.32826,0.27796 -0.4899,0.41755 l 0.12454,0.16588 c 0.17183,-0.14216 0.3594,-0.26989 0.51315,-0.43305 0.0574,-0.0609 0.10664,-0.12627 0.1664,-0.18552 0.25108,-0.23275 0.52389,-0.43983 0.79633,-0.64647 0.25487,-0.20595 0.51769,-0.40092 0.78393,-0.59169 0.23748,-0.19801 0.49092,-0.37551 0.74776,-0.54726 0.2347,-0.14231 0.46395,-0.29306 0.69815,-0.43615 0.1571,-0.0903 0.31899,-0.17119 0.47284,-0.26716 0.12403,-0.0826 0.24613,-0.16702 0.3669,-0.25425 0.11126,-0.076 0.22322,-0.15576 0.34624,-0.21187 0.12953,-0.0525 0.25038,-0.12158 0.37052,-0.19224 0.12228,-0.0784 0.23467,-0.17061 0.35243,-0.25528 0.0897,-0.0764 0.17991,-0.15147 0.27337,-0.22324 0.0479,-0.0308 0.0907,-0.0689 0.14107,-0.0956 0.0671,-0.0435 0.13914,-0.0778 0.20619,-0.12144 -10e-4,1.7e-4 0.0769,-0.0589 0.0672,-0.0512 0.0302,-0.0194 0.0531,-0.0435 0.078,-0.0543 0.0269,-0.0139 0.0292,-0.0148 0.0465,-0.0274 -0.0104,0.009 0.004,4.3e-4 0.0176,-0.006 0.0188,-0.008 0.10037,-0.0444 0.10439,-0.0656 0.002,-0.008 -0.004,-0.0156 -0.006,-0.0233 -0.0203,-0.14167 0.0202,-0.10773 -0.0641,-0.14573 l -0.0527,0.0202 c -0.0729,-0.004 -0.0372,0.0106 -0.0579,-0.10283 -0.0104,-0.006 -0.0191,-0.008 -0.0248,-0.008 z" />
      <path
         id="path9818"
         style="fill:#000000;stroke-width:0.874001"
         d="m 118.17987,123.28136 c -0.01,-6.9e-4 -0.0251,0.005 -0.0512,0.0124 -0.0292,0.0131 -0.0452,0.0227 -0.0563,0.031 -0.001,7.9e-4 -0.003,0.002 -0.005,0.004 -0.019,0.0156 -0.0199,0.0263 -0.0501,0.0465 -0.0823,0.0534 -0.16096,0.11126 -0.23719,0.17311 -0.0974,0.0726 -0.19487,0.14365 -0.29714,0.20929 -0.0889,0.0739 -0.1779,0.14754 -0.26872,0.21911 -0.0966,0.0768 -0.19704,0.14719 -0.30024,0.21498 -0.11391,0.0739 -0.23309,0.1386 -0.34933,0.20877 -0.13364,0.0825 -0.26455,0.16976 -0.40359,0.24339 -0.10221,0.0613 -0.19385,0.13628 -0.29973,0.19069 -0.12635,0.059 -0.2453,0.12753 -0.35915,0.20826 -0.10543,0.0614 -0.20894,0.12687 -0.29869,0.21032 -0.0951,0.0825 -0.18803,0.16871 -0.29249,0.23926 -0.13062,0.0866 -0.25884,0.17644 -0.39222,0.2589 -0.12959,0.0813 -0.25905,0.16266 -0.37879,0.25838 -0.13757,0.10015 -0.27451,0.20088 -0.39946,0.31678 -0.12374,0.10074 -0.22822,0.21874 -0.32814,0.34313 -0.1037,0.1293 -0.20938,0.25715 -0.30903,0.38964 -0.0187,0.0248 -0.0295,0.0504 -0.047,0.0744 -0.11782,0.1606 -0.26765,0.29424 -0.39636,0.44545 l 0.11885,0.11472 c 0.13403,-0.1525 0.28415,-0.29052 0.41496,-0.44597 0.0196,-0.0233 0.0352,-0.0479 0.0558,-0.0703 0.10555,-0.12522 0.21238,-0.24916 0.3235,-0.36949 0.097,-0.1091 0.19173,-0.21671 0.30696,-0.30644 0.1254,-0.10928 0.25941,-0.20772 0.39532,-0.30334 0.11613,-0.0926 0.24404,-0.16734 0.36949,-0.24598 0.1356,-0.0812 0.26407,-0.17379 0.39739,-0.25838 0.11422,-0.0752 0.21506,-0.16887 0.31936,-0.25683 0.0792,-0.0735 0.17012,-0.13048 0.26303,-0.18449 0.10758,-0.0756 0.21837,-0.14325 0.33848,-0.19688 0.11629,-0.0533 0.21323,-0.136 0.3235,-0.19999 0.1415,-0.0722 0.27475,-0.15871 0.40979,-0.24185 0.1185,-0.07 0.2394,-0.1351 0.35502,-0.2098 0.10964,-0.0715 0.2177,-0.14501 0.32143,-0.2248 0.0937,-0.072 0.1861,-0.14564 0.27698,-0.22117 0.1,-0.0607 0.19517,-0.12755 0.28887,-0.19741 0.0457,-0.0363 0.092,-0.0718 0.13953,-0.10542 0.0376,-0.0134 0.0752,-0.0467 0.0971,-0.061 0.0181,-0.0143 0.0612,-0.0477 0.0605,-0.0501 -2.2e-4,-9.1e-4 -2.9e-4,-0.002 -5.1e-4,-0.003 0.0437,-0.0381 0.0974,-0.0882 0.032,-0.0496 -0.0103,0.013 -0.0174,0.0218 -0.0217,0.0279 -0.002,-0.009 -0.0102,-0.0217 -0.0243,-0.0388 -0.0318,-0.15297 -0.0162,-0.19763 -0.0419,-0.19947 z" />
      <path
         id="path9820"
         style="fill:#000000;stroke-width:0.874001"
         d="m 114.74545,125.52774 c -0.0267,-0.002 -0.0649,0.0586 -0.0858,0.0599 -0.0799,0.0578 -0.15874,0.11692 -0.24288,0.16847 -0.0686,0.0462 -0.13874,0.0889 -0.20671,0.13591 -0.0806,0.0519 -0.16023,0.10556 -0.25063,0.13952 -0.11019,0.0466 -0.22043,0.0924 -0.32298,0.15503 -0.0855,0.0496 -0.18157,0.0811 -0.25424,0.1509 -0.0629,0.0591 -0.11888,0.12377 -0.17519,0.18913 -0.011,0.0124 -0.0218,0.0251 -0.0326,0.0377 -0.0636,0.051 -0.1124,0.11688 -0.16537,0.17828 -0.0675,0.0884 -0.13553,0.17659 -0.2036,0.26458 -0.0801,0.10953 -0.16347,0.21571 -0.25167,0.31885 -0.073,0.0878 -0.13674,0.18212 -0.2036,0.2744 -0.0659,0.0966 -0.13956,0.18923 -0.19999,0.28939 -9e-4,0.001 -0.002,0.003 -0.003,0.004 -0.052,0.0568 -0.10267,0.11262 -0.10232,0.11627 3.5e-4,0.004 4.9e-4,0.008 10e-4,0.0114 -0.002,0.003 -0.005,0.006 -0.007,0.008 0.003,-0.003 0.005,-0.005 0.008,-0.007 0.0105,0.0688 0.0519,0.13175 0.093,0.18811 0.002,0.003 0.0104,-5.7e-4 0.0196,-0.007 0.0173,0.0487 0.0393,0.0482 0.0997,0.0109 0.0624,-0.055 0.11407,-0.12208 0.17105,-0.18242 0.0602,-0.0735 0.12197,-0.14574 0.17983,-0.22117 0.0552,-0.0728 0.1051,-0.14984 0.15503,-0.22635 0.0421,-0.0527 0.0917,-0.099 0.13177,-0.15348 0.0523,-0.0591 0.0916,-0.12561 0.13385,-0.19171 0.0626,-0.085 0.12446,-0.17064 0.19017,-0.25322 0.011,-0.0149 0.0219,-0.0296 0.0331,-0.0444 0.0617,-0.052 0.12823,-0.0986 0.1912,-0.14883 0.0874,-0.0735 0.17228,-0.1513 0.25218,-0.23306 0.0373,-0.0377 0.0789,-0.0692 0.10491,-0.11627 0.0114,-0.0549 0.0202,-0.0739 -0.0258,-0.0832 0.0863,-0.0477 0.17674,-0.0861 0.2682,-0.12299 0.10245,-0.0397 0.1949,-0.0984 0.2868,-0.15761 0.0684,-0.0493 0.14091,-0.0915 0.21084,-0.1385 0.0865,-0.0526 0.16719,-0.11331 0.24908,-0.1726 0.0288,-0.0263 0.0879,-0.0487 0.0966,-0.0925 0.003,-0.0153 -0.003,-0.0315 -0.004,-0.047 l -0.11627,-0.076 c -0.006,-0.008 -0.008,-0.0209 -0.0176,-0.0248 -0.002,-6.9e-4 -0.003,-10e-4 -0.005,-0.002 z" />
      <path
         id="path9822"
         style="fill:#000000;stroke-width:0.874001"
         d="m 115.77691,125.19804 c -0.002,0.006 6e-5,0.005 -0.008,0.008 -0.0204,0.008 -0.0345,0.0119 -0.046,0.0165 -0.002,-0.005 -0.004,-0.0104 -0.006,-0.0155 -0.1195,0.0272 -0.22386,0.0881 -0.32814,0.14934 -0.0918,0.0624 -0.18879,0.11739 -0.29146,0.15968 -0.0699,0.0265 -0.12837,0.0741 -0.19378,0.10904 -0.15093,0.0839 -0.27844,0.20304 -0.4036,0.32039 -0.11115,0.11339 -0.23273,0.21381 -0.36173,0.30593 -0.1278,0.0706 -0.22811,0.17529 -0.33435,0.27285 -0.0979,0.0817 -0.17918,0.17939 -0.25735,0.27957 -0.0914,0.1248 -0.19398,0.23964 -0.29558,0.35605 -0.0476,0.0659 -0.11072,0.11535 -0.16692,0.17312 -0.0572,0.0661 -0.11729,0.12709 -0.1819,0.18551 -0.0497,0.0435 -0.0901,0.0965 -0.13436,0.14522 -0.0491,0.0506 -0.10738,0.0898 -0.15968,0.13694 -0.0627,0.0542 -0.102,0.1282 -0.15916,0.18707 -0.0289,0.0154 -0.0938,0.0833 -0.10181,0.14262 -0.003,0.023 0.004,0.0463 0.006,0.0693 l 0.0387,0.0413 c 0.0279,-8e-4 0.0561,0.004 0.0832,-0.002 0.0479,-0.0119 0.0957,-0.0697 0.13591,-0.0961 0.0532,-0.0567 0.0942,-0.1228 0.14986,-0.17725 0.0552,-0.0531 0.12027,-0.0944 0.17157,-0.15193 0.039,-0.0431 0.0748,-0.0889 0.11782,-0.12764 0.0697,-0.0611 0.1337,-0.1255 0.1943,-0.19586 0.0593,-0.0611 0.12346,-0.11642 0.17415,-0.18552 0.10137,-0.12145 0.20341,-0.24248 0.29714,-0.37 0.0448,-0.0593 0.0905,-0.11754 0.1416,-0.17105 0.0972,-0.0811 0.19773,-0.15796 0.29714,-0.23668 0.13345,-0.10987 0.26321,-0.22402 0.39584,-0.33486 0.19491,-0.15789 0.40928,-0.2896 0.61908,-0.42633 0.10448,-0.0761 0.20986,-0.1479 0.32401,-0.20877 0.0682,-0.0366 0.13416,-0.0759 0.20464,-0.10749 0.0228,-0.009 0.0435,-0.0197 0.0631,-0.0326 5.2e-4,-1.2e-4 0.001,-3.9e-4 0.002,-5.1e-4 v -5.2e-4 c 0.007,-0.004 0.0133,-0.009 0.0196,-0.0139 6.5e-4,7e-5 0.002,-1.3e-4 0.002,0 0.002,8e-4 0.008,0.006 0.007,0.004 -10e-4,-0.003 -0.002,-0.006 -0.003,-0.009 0.002,-0.002 0.004,-0.003 0.006,-0.005 -0.002,9.9e-4 -0.004,0.002 -0.007,0.003 -0.006,-0.0181 -0.0129,-0.0363 -0.0196,-0.0543 0.003,-0.0476 0.006,-0.095 0.009,-0.14263 z m 0.0176,0.19379 c 0.0138,-0.006 0.0278,-0.0126 0.0181,-0.016 -0.006,0.006 -0.012,0.0108 -0.0181,0.016 z" />
      <path
         style="fill:#000000;stroke-width:0.874001"
         id="path9856"
         d="m 76.608381,156.5138 c 0.446659,0.15007 1.592193,0.53598 2.068518,0.69226 0.351676,0.11539 0.815683,0.28294 1.195731,0.32762 0.497115,0.0584 0.715642,-0.0266 1.231503,-0.11798 0.184719,-0.0407 0.369438,-0.0813 0.554154,-0.12199 0,0 -0.0074,-0.0364 -0.0074,-0.0364 v 0 c -0.184756,0.0344 -0.369509,0.0688 -0.554265,0.10319 -0.427069,0.0402 -0.77316,0.10593 -1.193773,0.0428 -0.33328,-0.05 -0.880169,-0.24651 -1.176952,-0.34463 -0.100647,-0.0333 -2.046655,-0.67985 -2.069068,-0.6873 0,0 -0.04846,0.14237 -0.04846,0.14237 z" />
      <path
         style="fill:#000000;stroke-width:0.874001"
         id="path9858"
         d="m 75.546748,169.00216 c 0.481235,-0.73068 1.03187,-1.4217 1.698604,-1.99292 0.448016,-0.38384 0.959411,-0.69703 1.457063,-1.01034 0.664374,-0.37212 1.300136,-0.79029 1.943764,-1.19637 0,0 -0.02834,-0.049 -0.02834,-0.049 v 0 c -0.674846,0.35588 -1.352238,0.70788 -2.004132,1.10508 -0.505878,0.32109 -1.024329,0.64153 -1.479568,1.03407 -0.675169,0.58217 -1.231506,1.28469 -1.714317,2.0307 0,0 0.126928,0.0788 0.126928,0.0788 z" />
      <path
         style="fill:#000000;stroke-width:0.874001"
         id="path9860"
         d="m 76.064747,162.49029 c 1.052401,-0.32134 2.099408,-0.67845 3.181553,-0.8894 0.120209,-0.0234 0.925068,-0.15208 1.037564,-0.17021 1.260676,-0.23871 2.474055,-0.6673 3.68931,-1.06969 0.160406,-0.0617 0.32375,-0.1163 0.481216,-0.18518 0.543436,-0.23769 0.576363,-0.28929 1.102112,-0.5881 0.350943,-0.19947 0.703937,-0.39529 1.05601,-0.59275 1.511604,-0.84778 0.747345,-0.40224 2.204233,-1.28147 1.292191,-0.83031 2.340113,-1.95156 3.393845,-3.05279 0,0 -0.02238,-0.0218 -0.02238,-0.0218 v 0 c -1.067543,1.07445 -2.174864,2.12242 -3.430156,2.97771 -1.891205,1.14952 -0.232373,0.15553 -2.19615,1.2903 -0.852295,0.4925 -1.673955,1.06529 -2.607154,1.39846 -1.21067,0.40089 -2.422435,0.82768 -3.683923,1.03841 -0.225283,0.0313 -0.819629,0.11109 -1.046814,0.15304 -1.088252,0.20094 -2.137828,0.56564 -3.192351,0.89231 0,0 0.03308,0.10117 0.03308,0.10117 z" />
      <path
         style="fill:#000000;stroke-width:0.874001"
         id="path9862"
         d="m 88.465151,163.02233 c 1.38109,-0.67502 2.85542,-1.2395 4.144417,-2.08973 0.535382,-0.35314 0.738275,-0.54539 1.21529,-0.94628 1.57966,-1.31676 2.985947,-2.82098 4.351988,-4.35367 0.709295,-0.80588 1.053748,-1.81277 1.435211,-2.79564 0.395173,-1.01819 0.223621,-0.60034 0.688003,-1.63013 0.55527,-1.11221 1.22079,-2.16602 1.92137,-3.19143 0.26096,-0.38197 0.52265,-0.76404 0.80515,-1.13036 0.67218,-0.87157 0.9739,-1.15164 1.71367,-1.93077 1.2832,-1.3168 0.65019,-0.66478 1.89921,-1.95589 0,0 -0.0193,-0.0194 -0.0193,-0.0194 v 0 c -1.29733,1.24437 -0.6475,0.60804 -1.94855,1.90996 -0.75789,0.79468 -1.03606,1.04752 -1.72532,1.93877 -1.04608,1.35266 -1.94798,2.82375 -2.73883,4.33736 -0.470947,1.04472 -0.289858,0.60546 -0.690189,1.63536 -0.377486,0.97112 -0.715208,1.96798 -1.416989,2.76393 -1.362599,1.52893 -2.767417,3.02751 -4.345651,4.33802 -0.455899,0.38023 -0.694934,0.59934 -1.202198,0.93459 -1.288241,0.85139 -2.748727,1.41343 -4.126852,2.09387 0,0 0.03955,0.0914 0.03955,0.0914 z" />
      <path
         style="fill:#000000;stroke-width:0.874001"
         id="path9864"
         d="m 121.97742,127.06709 c -1.21602,0.43062 -2.47884,0.85978 -3.51562,1.65756 -0.81416,0.62647 -1.51,1.55124 -2.16951,2.33437 -0.19139,0.22906 -0.75945,0.89318 -0.94317,1.16869 -0.22379,0.33559 -0.33729,0.5997 -0.5013,0.94727 0,0 0.0508,0.025 0.0508,0.025 v 0 c 0.0609,-0.11875 0.11119,-0.24352 0.1826,-0.35624 0.38397,-0.60603 0.88657,-1.12477 1.33075,-1.68429 0.63038,-0.7544 1.35304,-1.71346 2.12489,-2.31822 1.02105,-0.80002 2.27213,-1.22927 3.47386,-1.66587 0,0 -0.0333,-0.10827 -0.0333,-0.10827 z" />
      <path
         style="fill:#000000;stroke-width:0.874001"
         id="path9870"
         d="m 111.85658,139.58476 c 0.34353,-0.74028 0.36468,-0.74937 0.63934,-1.46937 0.1225,-0.32114 0.13086,-0.40654 0.25076,-0.69165 0.0901,-0.21421 0.18966,-0.42431 0.28115,-0.63792 0.29255,-0.62944 0.4394,-1.29856 0.56619,-1.97553 0.12099,-0.61253 0.18805,-1.23205 0.33785,-1.83852 0.12319,-0.54436 0.36265,-1.04792 0.50205,-1.58735 0.1124,-0.53127 0.28049,-1.04763 0.46006,-1.55929 0.21064,-0.59596 0.59987,-1.09167 1.03267,-1.54215 0.74941,-0.68543 1.57161,-1.28248 2.42437,-1.83151 0.7783,-0.45036 1.54146,-0.92641 2.32762,-1.36302 0.97477,-0.57208 2.0608,-0.88587 3.11825,-1.26066 0.77475,-0.28262 1.49109,-0.7014 2.26847,-0.97707 0.43914,-0.15573 0.71528,-0.22313 1.1666,-0.34782 0.13262,-0.0256 0.26525,-0.0511 0.39787,-0.0767 0,0 -0.008,-0.056 -0.008,-0.056 v 0 c -0.13591,0.0146 -0.27183,0.0292 -0.40775,0.0437 -0.57814,0.0796 -0.66853,0.0691 -1.22379,0.23459 -0.78927,0.23524 -1.50497,0.66031 -2.27813,0.93798 -1.07219,0.37633 -2.17097,0.69734 -3.15739,1.27828 -0.79099,0.43951 -1.55875,0.91907 -2.3402,1.37513 -0.86636,0.56284 -1.7034,1.17264 -2.46191,1.8764 -0.45378,0.47704 -0.86307,1.00117 -1.07868,1.63198 -0.17965,0.51849 -0.35134,1.04043 -0.46381,1.57842 -0.13864,0.54045 -0.38187,1.04438 -0.49902,1.59131 -0.14655,0.61223 -0.20589,1.2365 -0.31464,1.85608 -0.11857,0.66464 -0.2483,1.32393 -0.52214,1.94677 -0.0902,0.21679 -0.18763,0.43062 -0.27306,0.64933 -0.28165,0.7211 -0.46143,1.48351 -0.83778,2.16778 0,0 0.0934,0.0468 0.0934,0.0468 z" />
      <path
         style="fill:#000000;stroke-width:0.874001"
         id="path9872"
         d="m 140.88515,121.33786 c 0.96829,0.0119 1.93642,-0.0129 2.90455,-0.025 0.37699,-0.005 1.06719,0.002 1.44473,-0.0478 0.31876,-0.0424 0.63182,-0.12016 0.94773,-0.18023 1.74811,-0.49179 3.33778,-1.39576 4.93011,-2.24591 0,0 -0.0243,-0.0511 -0.0243,-0.0511 v 0 c -1.6533,0.69619 -3.19113,1.67315 -4.93414,2.14837 -0.3094,0.0593 -0.616,0.13575 -0.92821,0.1778 -0.3826,0.0515 -1.0571,0.0453 -1.43834,0.0514 -0.9668,0.0154 -1.93348,0.0471 -2.90053,0.0386 0,0 -0.002,0.13378 -0.002,0.13378 z" />
      <path
         style="fill:#000000;stroke-width:0.874001"
         id="path9874"
         d="m 159.38143,110.16621 c -0.82118,0.43682 -1.60724,0.93234 -2.36843,1.46558 -0.31845,0.22309 -0.5144,0.39602 -0.87188,0.55543 -0.1818,0.0811 -0.37527,0.13298 -0.56291,0.19946 -0.19514,0.0445 -0.38864,0.097 -0.58542,0.1336 -0.38349,0.0714 -0.74583,0.0975 -1.13197,0.14478 -0.48558,0.0595 -0.96303,0.14345 -1.44224,0.24061 -0.79321,0.15742 -1.57746,0.35805 -2.33245,0.6511 -0.51872,0.20133 -0.88485,0.38255 -1.38896,0.61791 -0.74219,0.37625 -0.39543,0.17838 -1.0447,0.58578 0,0 0.0266,0.05 0.0266,0.05 v 0 c 0.69521,-0.30713 0.33321,-0.14473 1.08548,-0.48835 1.19841,-0.53555 2.39208,-1.00455 3.69267,-1.229 0.40967,-0.0858 0.51944,-0.11372 0.93641,-0.18085 0.74653,-0.12018 1.50857,-0.1616 2.23452,-0.38996 0.19288,-0.0736 0.39188,-0.13277 0.57862,-0.22077 0.35822,-0.16879 0.55363,-0.3455 0.87356,-0.57265 0.75422,-0.53551 1.53919,-1.02384 2.35355,-1.46338 0,0 -0.0524,-0.0993 -0.0524,-0.0993 z" />
      <path
         style="fill:#000000;stroke-width:0.874001"
         id="path9876"
         d="m 134.12382,121.34954 c 1.36972,-0.58548 2.80855,-0.97431 4.21601,-1.45266 0.11224,-0.0248 0.22447,-0.0496 0.33671,-0.0744 0,0 -0.012,-0.0554 -0.012,-0.0554 v 0 c -0.1134,0.0241 -0.22681,0.0481 -0.34022,0.0722 -1.4625,0.29566 -2.86454,0.84452 -4.25006,1.3859 0,0 0.0495,0.12427 0.0495,0.12427 z" />
      <path
         style="fill:#000000;stroke-width:0.874001"
         id="path9878"
         d="m 162.0874,106.69869 c 0.76738,-0.24059 1.54422,-0.4645 2.2848,-0.78201 0.41985,-0.18002 0.82705,-0.40049 1.23482,-0.60573 0.77054,-0.37257 1.53592,-0.75495 2.32902,-1.07758 0.82587,-0.29803 1.70864,-0.41981 2.58386,-0.40862 0.34628,0.059 0.56702,0.14874 0.82396,0.37983 0,0 0.0421,-0.0379 0.0421,-0.0379 v 0 c -0.22893,-0.30701 -0.45915,-0.52069 -0.85996,-0.57815 -0.15417,-0.006 -0.30828,-0.0211 -0.46252,-0.0175 -0.75499,0.0175 -1.51461,0.175 -2.22441,0.42562 -0.79779,0.32917 -1.56623,0.72101 -2.33976,1.10291 -0.39978,0.20624 -0.7968,0.43374 -1.20702,0.61878 -0.7291,0.32889 -1.49902,0.55803 -2.25797,0.80464 0,0 0.0531,0.17575 0.0531,0.17575 z" />
      <path
         style="fill:#000000;stroke-width:0.874001"
         id="path9880"
         d="m 108.8835,137.79637 c -1.06384,0.76993 -2.13446,1.53042 -3.20086,2.29679 -0.37673,0.27074 -0.85566,0.60858 -1.21762,0.90575 -0.23138,0.18997 -0.45287,0.39167 -0.67931,0.5875 -0.99443,1.05044 -0.54774,0.54682 -1.35265,1.49959 0,0 0.0259,0.0223 0.0259,0.0223 v 0 c 0.82084,-0.93037 0.36162,-0.4442 1.39454,-1.44238 0.22777,-0.19106 0.45153,-0.38702 0.68332,-0.57318 0.36689,-0.29465 0.83811,-0.62787 1.2174,-0.89951 1.06786,-0.76476 2.13767,-1.52681 3.20032,-2.29882 0,0 -0.071,-0.0981 -0.071,-0.0981 z" />
      <path
         style="fill:#000000;stroke-width:0.874001"
         id="path9882"
         d="m 177.55205,101.85682 c 0.0767,0.0607 0.14277,0.13228 0.20986,0.20279 0.0205,0.0215 0.0487,0.033 0.0653,0.0569 0.0667,0.0744 0.14096,0.14411 0.19804,0.22641 0.0516,0.10576 0.10239,0.21156 0.16004,0.31421 0.0568,0.11286 0.09,0.23561 0.12866,0.35547 0.0444,0.13748 0.0851,0.27524 0.14505,0.407 0.0596,0.11106 0.10603,0.22803 0.1509,0.34558 0.0411,0.11315 0.0779,0.22771 0.11912,0.34085 0.0349,0.10373 0.0876,0.19995 0.12786,0.30153 0.0365,0.0776 0.0603,0.16002 0.0951,0.23833 0.0331,0.0874 0.0664,0.1748 0.0935,0.26431 0.0235,0.0701 0.0417,0.14168 0.063,0.21236 0.024,0.0938 0.0513,0.1807 0.0972,0.26642 0.0377,0.0566 0.0732,0.11379 0.10616,0.17291 0.0236,0.0438 0.056,0.0831 0.0759,0.12886 0.0183,0.0369 0.0237,0.0565 0.0322,0.0833 0.015,0.0354 0.0299,0.07 0.0389,0.10741 0.005,0.0211 0.004,0.046 0.004,0.0646 -1e-4,-0.003 7.9e-4,-0.0113 -2.7e-4,-0.009 -0.008,0.0203 -0.018,0.14541 -0.006,0.0493 0.0392,-0.0918 -0.0447,0.0689 -0.0116,0.0111 -0.0667,0.1212 -0.009,0.0467 0.22141,0.27774 0.004,0.004 0.0109,-7.9e-4 0.0163,-0.002 0.0164,-0.004 0.0327,-0.009 0.049,-0.0131 0.0735,-0.0185 0.12609,-0.0731 0.18825,-0.11123 0.0488,-0.0352 0.0831,-0.0804 0.11115,-0.13322 0.0284,-0.0543 0.0339,-0.11455 0.0235,-0.17515 -0.004,-0.0373 -0.008,-0.0713 -0.0126,-0.11078 -0.0129,-0.059 -0.0208,-0.11834 -0.0322,-0.17755 -0.0143,-0.0568 -0.0256,-0.11422 -0.046,-0.1692 -0.013,-0.0432 -0.0202,-0.0882 -0.0302,-0.1323 -0.0133,-0.0613 -0.0458,-0.11524 -0.0665,-0.17374 -0.0169,-0.0579 -0.0559,-0.10837 -0.0724,-0.16603 -0.0157,-0.0536 -0.03,-0.10757 -0.0488,-0.16024 -0.0173,-0.0616 -0.0433,-0.11959 -0.0737,-0.17565 -0.0238,-0.0455 -0.0453,-0.0915 -0.0716,-0.1361 -0.0186,-0.0297 -0.0271,-0.0639 -0.045,-0.0939 -0.003,-0.006 0.007,0.0237 0.009,0.0173 0.001,-0.008 -0.005,-0.0146 -0.008,-0.0219 -0.0176,-0.0442 -0.0301,-0.0907 -0.0528,-0.13524 -0.0146,-0.0515 -0.0405,-0.10087 -0.0703,-0.14608 -0.0214,-0.0298 -0.0357,-0.0645 -0.0523,-0.097 -0.0213,-0.0539 -0.0554,-0.10112 -0.0815,-0.15235 -0.0274,-0.0559 -0.0544,-0.11199 -0.0833,-0.16715 -0.0244,-0.0691 -0.067,-0.12884 -0.11483,-0.18337 -0.026,-0.0288 -0.0423,-0.0644 -0.062,-0.0974 -0.0252,-0.0393 -0.0507,-0.0779 -0.0729,-0.11888 -0.0259,-0.0457 -0.0565,-0.0876 -0.0795,-0.13459 -0.0323,-0.0672 -0.0612,-0.1363 -0.10132,-0.19932 0.002,0.003 0.008,0.0131 0.008,0.009 -5.3e-4,-0.0136 -0.041,-0.0862 -0.0494,-0.1049 -0.0232,-0.0394 -0.0375,-0.0806 -0.0565,-0.12172 -0.0288,-0.0623 -0.0699,-0.11745 -0.1052,-0.17603 -0.0244,-0.0454 -0.0643,-0.0784 -0.0932,-0.12025 -0.0465,-0.0725 -0.10261,-0.13775 -0.15963,-0.20206 -0.0515,-0.0551 -0.0863,-0.12219 -0.13113,-0.18248 -0.0336,-0.049 -0.0674,-0.0976 -0.10273,-0.14552 -0.0349,-0.0481 -0.0856,-0.0786 -0.13252,-0.11314 -0.0362,-0.0299 -0.0761,-0.0544 -0.11563,-0.0795 -7.9e-4,-5.3e-4 -0.003,-0.002 -0.003,-0.002 0.002,0.002 0.0106,0.007 0.008,0.006 -0.0386,-0.0169 0.0783,0.002 -0.0448,-0.0293 -0.004,-0.001 -1.1e-4,0.0108 -0.004,0.0125 -0.0195,0.008 -0.0412,0.0103 -0.0617,0.0155 -0.0225,0.0296 -0.0449,0.0592 -0.0674,0.0887 0,0 -2.7e-4,0.0566 -2.7e-4,0.0566 v 0 c -0.008,0.0297 -0.0167,0.0593 -0.025,0.0889 -0.0108,0.009 -0.0269,0.0142 -0.0323,0.0272 -0.003,0.008 0.0186,0.0183 0.0114,0.0231 -0.002,0.002 -0.0587,-0.0417 5.3e-4,0.006 0.007,0.005 0.0136,0.0101 0.0204,0.0151 0.03,0.0202 0.0576,0.044 0.0869,0.0652 0.0134,0.0106 0.0554,0.0435 0.058,0.0412 0.035,0.0473 0.0669,0.0962 0.10068,0.14438 0.0499,0.0701 0.0874,0.14882 0.14863,0.21064 0.048,0.056 0.096,0.11238 0.13634,0.17422 0.0245,0.0336 0.0519,0.0641 0.0797,0.0944 0.0291,0.0477 0.0636,0.0922 0.0882,0.14253 0.0199,0.0376 0.0322,0.0789 0.0538,0.11571 0.024,0.0521 0.0486,0.10405 0.0772,0.15374 -0.002,-0.01 -0.002,-0.009 0.01,0.0134 0.0196,0.0366 0.0363,0.0751 0.0539,0.11268 0.003,0.007 0.007,0.0144 0.0105,0.0216 0.0263,0.0539 0.0594,0.10274 0.0889,0.15468 0.0258,0.0438 0.0504,0.0882 0.0794,0.13002 0.0329,0.0507 0.0561,0.10803 0.10038,0.15099 0.027,0.03 0.0463,0.0645 0.0597,0.10352 0.0286,0.0596 0.0607,0.11738 0.0877,0.17768 0.0261,0.0472 0.0547,0.0914 0.0758,0.14133 0.0229,0.0483 0.0466,0.0959 0.0756,0.14088 0.0234,0.0326 0.0328,0.072 0.0495,0.10909 0.0184,0.0284 0.0147,0.0684 0.0359,0.0954 0.0231,0.0517 0.0457,0.10361 0.0763,0.15167 0.006,0.0107 0.014,0.0206 0.0199,0.0315 0.0163,0.0303 0.023,0.0661 0.0445,0.094 0.0204,0.0374 0.0374,0.0754 0.0491,0.11674 0.0182,0.0579 0.0357,0.11592 0.0537,0.17385 0.0223,0.0542 0.0501,0.1055 0.074,0.15899 0.0163,0.0444 0.0363,0.0869 0.0529,0.13105 0.0146,0.0619 0.022,0.12587 0.0465,0.18513 0.0154,0.0199 0.0144,0.0815 0.0274,0.10594 0.0104,0.0497 0.015,0.10036 0.0278,0.14953 0.005,0.0404 0.007,0.0808 0.013,0.12115 8e-4,0.006 8e-4,0.0224 0.002,0.0168 0.004,-0.0196 -0.006,-0.0755 0.007,-0.0597 -0.0105,0.0245 0.0103,-0.009 0.0191,-0.0167 0.004,-0.003 -0.008,0.007 -0.0113,0.0105 -5.3e-4,5.3e-4 -0.002,0.002 -0.001,0.002 0.002,-8e-4 0.003,-0.002 0.004,-0.003 -0.0278,0.0202 -0.0542,0.0425 -0.0815,0.0626 -0.006,0.002 -0.0113,0.005 -0.0172,0.006 -0.0147,0.004 -0.052,-0.003 -0.0446,0.01 0.20319,0.37065 0.16389,0.33196 0.19648,0.26183 0.0244,-0.0423 0.0114,-0.0203 0.0468,-0.0949 0.0205,-0.10786 5.3e-4,-0.006 0.0219,-0.11816 0.002,-0.0599 -1e-5,-0.12007 -0.012,-0.17899 -0.0113,-0.0458 -0.0253,-0.0927 -0.0465,-0.13424 -0.0151,-0.0441 -0.0294,-0.0883 -0.0519,-0.12945 -0.0259,-0.0521 -0.0583,-0.10031 -0.0882,-0.15024 -0.034,-0.057 -0.0659,-0.11502 -0.10502,-0.16888 -0.036,-0.0601 -0.0466,-0.12939 -0.0681,-0.19541 -0.0224,-0.0712 -0.0411,-0.14359 -0.0638,-0.21477 -0.0334,-0.10356 -0.0697,-0.20651 -0.11099,-0.30716 -0.0358,-0.072 -0.0508,-0.15357 -0.0901,-0.22442 -0.0411,-0.0972 -0.0907,-0.19036 -0.12823,-0.2891 -0.0452,-0.11718 -0.0861,-0.23603 -0.13775,-0.3506 -0.0567,-0.11961 -0.10902,-0.24157 -0.18208,-0.35257 -0.0648,-0.11653 -0.10408,-0.24243 -0.15383,-0.36567 -0.0547,-0.13368 -0.098,-0.27364 -0.17547,-0.39648 -0.0728,-0.10751 -0.13183,-0.22368 -0.21036,-0.32709 -0.0384,-0.039 -0.079,-0.0739 -0.11886,-0.11124 -0.0462,-0.0433 -0.088,-0.0918 -0.1399,-0.12886 -0.0152,-0.009 -0.0303,-0.0178 -0.0455,-0.0267 8e-4,0.003 0.005,0.007 0.003,0.009 -0.003,0.002 -0.007,-0.002 -0.0102,-0.004 -0.0791,-0.0637 -0.14716,-0.1409 -0.22818,-0.20243 0,0 -0.11577,0.13486 -0.11577,0.13486 z" />
      <path
         style="fill:#b3b3b3;stroke-width:1.11822"
         d="m 273.1841,649.90539 c 10e-4,-3.9059 0.23978,-7.80932 0.71158,-11.63311 0.71282,-5.77733 0.83012,-8.55529 1.63659,-38.76011 0.21625,-8.099 0.49961,-17.43196 0.62969,-20.73991 l 0.23651,-6.01446 3.72368,2.07792 c 4.81286,2.68572 14.56714,7.26214 17.60284,8.25874 3.18905,1.04695 6.78119,1.3364 10.67928,0.86054 1.75993,-0.21485 5.48487,-0.52177 8.27763,-0.68206 4.03857,-0.23179 6.06956,-0.54174 9.92409,-1.51455 2.66549,-0.67272 5.98711,-1.44139 7.38137,-1.70816 1.43149,-0.27389 3.4479,-0.97436 4.6321,-1.60912 2.55213,-1.36801 12.17309,-8.89218 16.13545,-12.6189 1.58809,-1.49365 5.09626,-4.71672 7.79593,-7.16236 5.29964,-4.80099 11.94687,-11.47452 16.77694,-16.84333 1.66444,-1.85009 4.70191,-5.04907 6.74993,-7.10884 2.04803,-2.05977 4.84726,-5.07908 6.22052,-6.70958 1.37326,-1.63051 3.69264,-4.04256 5.15419,-5.36012 1.46154,-1.31756 4.09536,-4.24882 5.85293,-6.51391 1.75756,-2.26508 4.20765,-5.26082 5.44463,-6.6572 2.78483,-3.14368 4.65493,-5.98413 8.13271,-12.35254 4.3419,-7.9508 5.57863,-9.6805 10.18203,-14.24068 5.3997,-5.349 7.90845,-7.26248 16.17389,-12.33615 1.06159,-0.65164 2.6528,-1.65866 3.53603,-2.23782 0.88323,-0.57916 1.98314,-1.16777 2.44425,-1.30803 1.2508,-0.38047 2.90189,-1.42626 5.91613,-3.74724 2.90381,-2.23596 2.87232,-2.21506 10.43708,-6.92751 5.34878,-3.33202 11.19405,-6.01688 15.48434,-7.11228 2.01835,-0.51533 3.75056,-0.67057 7.47882,-0.67023 2.66865,2.3e-4 6.07075,-0.14641 7.56022,-0.32587 1.48947,-0.17946 4.45995,-0.49143 6.60106,-0.69327 2.84199,-0.26791 4.80839,-0.68202 7.28398,-1.53396 1.86508,-0.64184 5.59722,-1.6256 8.29365,-2.18612 6.07146,-1.26212 9.78154,-2.33988 15.22735,-4.42349 16.51324,-6.31808 16.27216,-6.19253 32.15903,-16.74829 8.24818,-5.48035 13.03236,-8.43851 18.27928,-11.30247 1.51101,-0.82476 4.12978,-2.42425 5.81948,-3.55442 5.88585,-3.93677 6.90907,-4.50103 12.29173,-6.77836 5.16227,-2.18408 9.20182,-4.18747 14.04843,-6.96723 1.21019,-0.69411 4.85273,-2.43245 8.09449,-3.86298 7.24662,-3.19778 8.80224,-3.97917 11.31812,-5.68513 1.0885,-0.73807 2.15483,-1.37607 2.36962,-1.41777 0.21482,-0.0417 1.01318,-0.27126 1.77409,-0.5101 1.51066,-0.47417 3.64586,-0.3083 12.32639,0.95753 2.51348,0.36653 7.22316,0.77169 10.46597,0.90037 7.08119,0.28099 6.85885,0.14793 8.4881,5.07974 1.30359,3.94601 2.20617,5.60816 4.32511,7.96497 l 1.55264,1.72691 -13.17755,-0.23967 c -13.88384,-0.25251 -16.02431,-0.11575 -19.06049,1.2178 -2.88308,1.2663 -6.07319,4.00854 -9.37369,8.05771 -3.35943,4.12144 -4.14178,4.85156 -11.82471,11.03573 -2.64902,2.13226 -6.41427,5.60826 -8.53714,7.88135 -4.58918,4.91391 -7.06865,6.823 -14.14344,10.88986 -2.97894,1.71241 -7.01567,4.26696 -8.9705,5.67679 -7.24934,5.22823 -11.86838,7.39246 -23.73909,11.12287 -4.45791,1.40092 -9.792,3.15134 -11.85354,3.88983 -4.62118,1.65542 -14.6181,4.3785 -26.0175,7.08697 -15.08894,3.58509 -19.55307,4.73848 -23.04627,5.95438 -4.28308,1.49084 -11.26384,4.82008 -19.00146,9.06212 -3.29766,1.8079 -7.2583,3.86956 -8.80142,4.58147 -2.81764,1.2999 -12.31247,6.51539 -17.1434,9.41683 -8.9093,5.35089 -14.49677,11.46811 -17.82253,19.5123 -3.408,8.24315 -5.49618,12.05059 -9.12716,16.64185 -4.94277,6.25 -6.61294,8.66835 -11.68933,16.92581 -2.86147,4.6546 -7.94985,12.57588 -11.30749,17.60285 -3.35765,5.02696 -8.21202,12.31587 -10.78751,16.19758 -11.24667,16.95069 -20.32653,25.55316 -33.17199,31.42791 -10.55906,4.82908 -13.77754,6.17846 -20.05389,8.40779 -3.53749,1.2565 -9.17379,3.42844 -12.5251,4.82652 -3.35131,1.39809 -8.91144,3.64581 -12.35584,4.99495 -3.4444,1.34913 -9.15686,3.58757 -12.69436,4.9743 -8.03157,3.14847 -21.25142,9.39832 -25.72723,12.16289 -6.91883,4.27355 -9.84164,6.0924 -10.74789,6.68833 l -0.93091,0.61216 z m 13.42349,-12.39478 c 3.63635,-4.94025 5.86354,-6.83663 13.45956,-11.46035 4.40755,-2.68288 5.51814,-3.51899 4.67426,-3.51899 -0.42745,0 -7.24146,3.86154 -9.87168,5.59434 -1.33985,0.8827 -3.24919,2.34803 -4.24297,3.25628 -1.94505,1.77767 -5.59613,6.34361 -5.59613,6.99838 0,0.75371 0.64311,0.39906 1.57696,-0.86966 z m 55.00373,-24.55336 c 6.8594,-3.2784 9.69061,-5.13783 15.1921,-9.97758 5.60627,-4.93194 14.68376,-14.6105 16.36431,-17.44789 0.6838,-1.15452 2.11189,-4.30794 3.17351,-7.00761 2.38746,-6.07119 4.41297,-10.04843 7.87971,-15.47243 4.25474,-6.6569 7.12304,-10.22967 13.28916,-16.55303 3.16718,-3.24795 5.64779,-6.01578 5.51247,-6.15074 -0.43057,-0.42943 -11.75426,11.43039 -14.79513,15.49561 -5.49719,7.34898 -9.5664,14.62207 -12.78424,22.84985 -0.9466,2.42039 -2.16363,5.16965 -2.70451,6.10946 -1.92151,3.33873 -11.36833,13.27831 -17.97373,18.91127 -4.53259,3.86531 -8.37225,6.22017 -15.50287,9.50792 -2.82663,1.30329 -5.14097,2.55225 -5.14297,2.77548 -0.005,0.50334 0.54106,0.28194 7.49219,-3.04031 z m -44.90188,-1.24821 c 2.23421,-0.53922 5.73785,-1.30722 7.78587,-1.70666 2.04803,-0.39944 6.23716,-1.55484 9.3092,-2.56756 4.48525,-1.4786 6.6191,-2.41604 10.83252,-4.75891 8.78759,-4.88634 12.48834,-7.21558 15.53458,-9.77743 3.6138,-3.03915 8.71119,-8.18273 8.40886,-8.48507 -0.12366,-0.12365 -1.7913,1.28873 -3.70587,3.13863 -3.85432,3.72415 -7.24152,6.51776 -10.11372,8.34134 -3.64214,2.31242 -14.37041,8.47221 -16.06486,9.22387 -2.74527,1.21779 -10.50491,3.50316 -14.3642,4.23055 -7.42229,1.39892 -8.95325,1.74803 -12.80369,2.9197 -4.44049,1.35121 -4.54743,1.3959 -4.29949,1.79707 0.0979,0.15837 1.3571,-0.0862 2.79828,-0.54359 1.44118,-0.45734 4.44831,-1.27272 6.68252,-1.81194 z m 9.73234,-16.61688 c 1.25674,-0.21773 2.28499,-0.54726 2.28499,-0.73228 0,-0.18555 -0.26566,-0.22946 -0.59241,-0.0979 -0.32582,0.13115 -1.81612,0.3192 -3.31177,0.41787 -2.6067,0.17197 -2.96473,0.10048 -8.64129,-1.72558 -6.12486,-1.97026 -6.74996,-2.11793 -6.74996,-1.59457 0,0.39241 10.93276,4.02606 12.5251,4.16288 1.33443,0.11466 1.34545,0.11361 4.48534,-0.43039 z m 82.62284,-55.95269 c 2.2755,-2.66351 6.26274,-5.90572 14.61594,-11.88492 8.19361,-5.86496 8.50149,-6.10972 8.04238,-6.39346 -0.28696,-0.17735 -13.34962,8.95847 -17.01306,11.89867 -2.82648,2.26847 -8.26113,8.18911 -7.51692,8.18911 0.17921,0 1.02146,-0.81423 1.87166,-1.8094 z m 34.37397,-12.66217 c 0.71639,-1.40857 3.80962,-9.05268 4.81215,-11.89196 0.35366,-1.00161 1.09517,-4.27797 1.6478,-7.2808 0.55264,-3.00283 1.24771,-6.14397 1.54462,-6.98031 0.2969,-0.83634 1.07204,-3.32985 1.72252,-5.54112 0.65048,-2.21128 1.57691,-4.80093 2.05873,-5.75478 1.78754,-3.53882 7.80145,-8.44207 16.64075,-13.56752 6.09177,-3.5323 7.86942,-4.38391 12.80786,-6.13579 2.32133,-0.82347 5.92338,-2.25054 8.00456,-3.17124 2.08118,-0.92071 5.03719,-2.03395 6.56891,-2.47386 3.45197,-0.99141 3.94407,-1.42354 1.27724,-1.12161 -2.86565,0.32445 -5.22193,1.03333 -9.27648,2.79078 -1.93693,0.83956 -5.26577,2.12787 -7.39741,2.86289 -4.58573,1.58123 -7.08761,2.80084 -13.46146,6.56222 -7.79656,4.60094 -13.50408,9.20045 -15.70483,12.656 -0.54519,0.85604 -1.36629,2.77509 -1.82467,4.26457 -0.45838,1.48947 -1.37781,4.45995 -2.04316,6.60106 -0.66536,2.14112 -1.61281,6.24789 -2.10544,9.12616 -0.49263,2.87827 -1.24505,6.22958 -1.67205,7.44735 -1.64572,4.69353 -3.80998,10.38439 -4.33388,11.39579 -0.46172,0.89135 -0.46863,1.48161 -0.0173,1.48161 0.0583,0 0.39649,-0.57125 0.75158,-1.26944 z m 11.95128,-24.62705 c 2.99353,-4.45709 11.21062,-13.70926 13.71132,-15.43848 1.93973,-1.34132 6.2032,-3.42544 9.21446,-4.50432 2.94816,-1.05627 3.1519,-1.16588 2.9062,-1.56343 -0.26102,-0.42233 -5.08726,1.37308 -9.19788,3.42169 -2.32668,1.15955 -4.18341,2.3916 -5.70397,3.78491 -1.99723,1.8301 -6.90156,7.43158 -9.85247,11.25299 -1.14921,1.48821 -2.48977,3.97194 -2.48977,4.6129 0,0.51885 0.0458,0.46801 1.41211,-1.56626 z m 80.33955,-46.07382 c 9.70603,-3.22119 8.95017,-2.93459 8.12438,-3.08057 -1.7133,-0.30288 -16.70886,4.6657 -17.03507,5.64434 -0.1047,0.31409 0.0438,0.38607 0.48709,0.23603 0.35075,-0.11872 4.14137,-1.37864 8.4236,-2.7998 z m 34.02087,2.56082 c 4.42365,-0.69776 11.10194,-3.40377 18.92639,-7.66888 5.06529,-2.76109 2.32812,-1.95593 -4.60952,1.35593 -11.0518,5.27586 -11.94209,5.49792 -23.37218,5.8295 -4.51496,0.13098 -8.20901,0.37257 -8.20901,0.53689 0,0.41596 14.57445,0.37085 17.26432,-0.0534 z m 12.56476,-26.06975 c 7.22578,-3.21959 11.38068,-4.39394 20.32915,-5.74584 5.76697,-0.87125 7.49966,-1.54134 12.10993,-4.68326 2.15146,-1.46623 4.78766,-3.15755 5.85822,-3.75848 1.77939,-0.99882 2.44942,-1.70501 1.6177,-1.70501 -0.48116,0 -4.81958,2.61218 -8.63366,5.19837 -3.79992,2.57659 -5.96992,3.3631 -10.86357,3.93748 -4.70174,0.55186 -10.82813,1.88194 -14.30072,3.10479 -4.62666,1.62925 -11.81726,5.36221 -10.32894,5.36221 0.20545,0 2.1008,-0.76962 4.21189,-1.71026 z m 54.76415,-30.27988 c 2.44659,-0.83803 6.30361,-2.45369 8.57116,-3.59038 9.04922,-4.53623 12.65793,-5.71982 17.43149,-5.71719 1.72054,9.4e-4 2.58579,0.17594 3.43763,0.69527 1.53805,0.93769 1.77616,0.53844 0.46241,-0.77533 -0.93779,-0.93779 -1.34804,-1.09017 -3.26346,-1.21213 -4.72247,-0.30071 -8.42134,0.81054 -16.94271,5.09005 -3.35845,1.68665 -7.93427,3.71302 -10.16848,4.50304 -2.68338,0.94885 -4.09933,1.62205 -4.17164,1.98337 -0.0602,0.30084 -0.0409,0.54698 0.0429,0.54698 0.0838,0 2.15412,-0.68566 4.60071,-1.52368 z"
         id="path9884"
         transform="scale(0.26458333)" />
      <path
         style="fill:#b3b3b3;stroke-width:0.0698889"
         d="m 675.64215,394.038 c -0.21186,-0.28255 -0.27249,-0.37752 -0.71918,-1.12649 -0.6133,-1.02833 -0.55266,-0.89785 -0.94882,-2.04167 -0.0887,-0.25601 -0.22214,-0.61967 -0.2966,-0.80814 -0.0745,-0.18847 -0.18845,-0.51693 -0.25332,-0.72992 -0.2389,-0.7845 -0.35514,-1.13564 -0.4854,-1.46628 -0.13299,-0.33754 -0.38104,-1.08624 -0.36514,-1.10213 0.005,-0.005 0.0527,0.0558 0.10688,0.13431 0.0542,0.0785 0.18914,0.24742 0.29992,0.37542 0.16406,0.18957 0.23245,0.29159 0.36874,0.55009 0.20253,0.38413 0.29497,0.61281 0.46611,1.15307 0.40351,1.27378 0.50413,1.55134 0.75158,2.07341 0.25167,0.53095 0.45623,1.04887 0.75209,1.90416 0.13082,0.37818 0.29828,0.82508 0.37214,0.99311 0.0739,0.16803 0.1314,0.3084 0.12787,0.31193 -0.004,0.004 -0.0831,-0.0959 -0.17687,-0.22087 z"
         id="path9886"
         transform="scale(0.26458333)" />
    </g>
  </g>
</svg>
