<?xml version="1.0" encoding="UTF-8" standalone="no"?>
<!-- Created with Inkscape (http://www.inkscape.org/) -->

<svg
   width="210mm"
   height="297mm"
   viewBox="0 0 210 297"
   version="1.1"
   id="svg2450"
   inkscape:version="1.2 (dc2aedaf03, 2022-05-15)"
   sodipodi:docname="flor-generica.svg"
   xmlns:inkscape="http://www.inkscape.org/namespaces/inkscape"
   xmlns:sodipodi="http://sodipodi.sourceforge.net/DTD/sodipodi-0.dtd"
   xmlns="http://www.w3.org/2000/svg"
   xmlns:svg="http://www.w3.org/2000/svg">
  <sodipodi:namedview
     id="namedview2452"
     pagecolor="#505050"
     bordercolor="#eeeeee"
     borderopacity="1"
     inkscape:showpageshadow="0"
     inkscape:pageopacity="0"
     inkscape:pagecheckerboard="0"
     inkscape:deskcolor="#505050"
     inkscape:document-units="mm"
     showgrid="false"
     inkscape:zoom="2.5247521"
     inkscape:cx="312.902"
     inkscape:cy="316.07063"
     inkscape:window-width="2560"
     inkscape:window-height="1369"
     inkscape:window-x="2552"
     inkscape:window-y="-8"
     inkscape:window-maximized="1"
     inkscape:current-layer="layer1" />
  <defs
     id="defs2447" />
  <g
     inkscape:label="Camada 1"
     inkscape:groupmode="layer"
     id="layer1">
    <path
       id="path16368"
       style="fill:#b3b3b3;fill-opacity:1;stroke:#000000;stroke-width:0.874;stroke-dasharray:none;stroke-opacity:1"
       d="m 101.10877,45.474821 c -2.352136,0.109086 -3.959546,2.139509 -5.079396,3.994129 -1.68544,2.910905 -2.67842,6.154913 -3.52998,9.390637 -2.1029,-3.504776 -4.3488,-7.118942 -7.73046,-9.53125 -1.53229,-1.043839 -3.71702,-1.647443 -5.35352,-0.478516 -1.75901,1.156387 -2.29765,3.449516 -2.01233,5.43092 0.29457,3.801071 1.95904,7.300785 3.50842,10.723377 -4.01191,-1.393416 -8.24384,-2.776376 -12.54825,-2.279197 -1.89992,0.28781 -3.8824,1.628878 -4.0433,3.690242 -0.26462,1.361775 0.29424,2.718028 1.20069,3.719415 2.48917,3.129696 6.16419,4.968815 9.69071,6.676644 0.72061,0.232165 0.88865,0.437551 0.11164,0.619157 -3.91061,1.487744 -7.99143,3.214246 -10.72192,6.522058 -1.08949,1.357487 -1.53364,3.406917 -0.47277,4.913009 1.31593,2.031945 3.94658,2.505476 6.19764,2.448198 3.29703,-0.0044 6.52924,-0.780945 9.69103,-1.64351 -2.10629,3.753384 -4.23041,7.735113 -4.46239,12.121456 -0.0394,2.19746 1.5681,4.45084 3.83739,4.67933 2.12962,0.12583 4.02866,-1.18027 5.5553,-2.52932 2.3446,-2.18089 4.42846,-4.635696 6.18884,-7.310529 0.78409,4.219139 1.74443,8.623109 4.41993,12.093759 1.15454,1.43332 3.19219,2.46095 4.994246,1.62833 2.22985,-0.92445 3.17353,-3.41591 3.55262,-5.62833 0.44379,-2.75002 0.19546,-5.549441 0.19598,-8.319829 -0.0313,-0.532149 -0.075,-1.064055 -0.13153,-1.594242 3.36247,2.744011 6.94192,5.585381 11.28321,6.513671 2.06068,0.36727 4.46496,-0.71607 5.05728,-2.831652 0.55508,-2.011043 -0.22074,-4.080483 -1.26459,-5.791442 -1.70974,-2.84423 -3.97114,-5.307061 -6.31808,-7.634718 4.34858,-0.107499 8.95727,-0.143039 12.85608,-2.333 1.64645,-0.959514 2.83302,-2.975313 2.21032,-4.889656 -0.6778,-2.308975 -3.03991,-3.493817 -5.14755,-4.227097 -3.03935,-1.064626 -6.26338,-1.419363 -9.45596,-1.675247 3.18367,-2.76587 6.47755,-5.707646 8.20924,-9.6443 0.73001,-1.660564 0.65538,-3.82995 -0.78214,-5.097978 -1.43221,-1.402125 -3.67224,-1.606362 -5.4925,-0.920825 -3.68006,0.984179 -6.8747,3.164972 -9.95804,5.3174 0.68053,-3.922168 1.1265,-8.019158 0.28666,-11.958528 -0.49392,-1.992225 -1.99677,-4.059129 -4.21278,-4.156007 -0.10983,-4.6e-4 -0.21997,-0.01275 -0.32974,-0.0066 z" />
    <path
       id="path20866"
       style="fill:#b3b3b3;fill-opacity:1;stroke:#000000;stroke-width:0.874;stroke-dasharray:none;stroke-opacity:1"
       d="m 100.90369,48.76779 c -1.593356,0.827665 -2.255066,2.623314 -3.065926,4.112326 -1.56467,3.380815 -2.19956,7.085703 -3.37547,10.598611 -0.81475,1.214381 -2.90133,0.724561 -3.28579,-0.628738 -2.35983,-3.858307 -4.46881,-8.107752 -8.17964,-10.8715 -0.59305,-0.467336 -1.56848,-0.855039 -2.142,-0.14234 -0.70901,1.479841 -0.12559,3.147448 0.13672,4.664063 0.9441,3.789871 3.03917,7.153055 4.3275,10.812036 0.1671,1.344724 -1.56171,2.401049 -2.69358,1.649693 -4.35829,-1.457409 -8.79015,-3.401776 -13.49647,-3.130388 -0.77986,0.03156 -1.94337,0.561974 -1.59838,1.498737 0.45064,1.242955 1.64732,1.986318 2.57031,2.857422 3.18026,2.551388 7.09538,3.867669 10.6582,5.751953 0.87402,0.63745 0.94736,2.083884 -0.01,2.683594 -1.11238,0.802395 -2.53082,0.972462 -3.74676,1.573893 -3.66234,1.380979 -7.5731,2.854208 -10.11652,5.984701 -0.51965,0.914968 0.56563,1.7017 1.39663,1.776723 2.04223,0.381473 4.14701,0.09476 6.17717,-0.234303 2.90762,-0.516841 5.70907,-1.511218 8.60198,-2.075624 1.44896,0.111472 2.05992,2.152256 1.06557,3.146478 -2.14767,4.025529 -4.81496,7.989184 -5.38027,12.623363 -0.0738,0.6694 0.17071,1.50507 0.76821,1.82163 1.50262,0.056 2.65868,-1.12625 3.70942,-2.04191 2.80144,-2.582433 4.91267,-5.800161 7.05583,-8.879639 0.48198,-0.698363 1.30731,-1.457945 2.21192,-1.011524 0.90067,0.331945 1.33349,1.2928 1.30688,2.198421 0.85479,4.488938 1.41016,9.304022 4.16251,13.121422 0.36427,0.65231 1.36758,1.12774 1.889,0.37919 1.223396,-1.54028 1.221606,-3.63624 1.316216,-5.50732 0.057,-2.912792 -0.0169,-5.833409 -0.4179,-8.72145 -0.0293,-0.941087 -0.23372,-2.250303 0.81652,-2.72827 0.90027,-0.468277 1.99469,-0.108137 2.59689,0.659003 3.60126,2.869637 7.10444,6.223247 11.66718,7.458265 0.78106,0.231539 1.89415,-0.298205 1.66171,-1.236409 -0.20918,-1.979142 -1.63075,-3.513272 -2.6914,-5.099609 -2.08147,-2.70695 -4.71706,-4.924395 -6.98455,-7.454488 -0.57715,-1.259143 0.85252,-2.653399 2.12342,-2.375866 4.51125,-0.317947 9.35473,0.227238 13.61894,-1.702849 0.64875,-0.247902 1.4327,-0.785906 1.38814,-1.53336 -0.63149,-1.370597 -2.24055,-1.77086 -3.52669,-2.272566 -3.84434,-1.241889 -7.92063,-1.2783 -11.90076,-1.696869 -1.53326,-0.103377 -1.88914,-2.343474 -0.71202,-3.154539 1.708,-1.363171 3.35233,-2.825462 4.97421,-4.296319 2.0217,-1.914976 3.97475,-4.052107 5.03688,-6.659628 0.28297,-0.824588 -0.40472,-1.693649 -1.27343,-1.574219 -1.54411,0.0064 -2.9452,0.7919 -4.34157,1.358839 -3.25003,1.550366 -6.0195,3.899919 -9.0725,5.770067 -0.93902,0.476269 -2.15166,-0.08671 -2.3391,-1.137929 -0.2685,-1.410162 0.36285,-2.794391 0.46831,-4.192064 0.5537,-3.512915 1.07867,-7.165894 0.24254,-10.675964 -0.18933,-0.701983 -0.72753,-1.780843 -1.59831,-1.464746 z" />
    <ellipse
       style="fill:#999999;fill-opacity:1;stroke:#000000;stroke-width:0.961562;stroke-dasharray:none;stroke-opacity:1"
       id="path22392"
       cx="95.849724"
       cy="78.046272"
       rx="8.9162569"
       ry="8.6018705" />
    <path
       style="fill:#999999;fill-opacity:1;stroke:#000000;stroke-width:0.346173;stroke-dasharray:none;stroke-opacity:1"
       d="m 97.955281,109.89302 c -1.44001,-0.60761 -2.389888,-1.70025 -3.629591,-4.17508 -1.100063,-2.19606 -1.955541,-5.06153 -2.637443,-8.834256 -0.125013,-0.691652 -0.260641,-1.294331 -0.301395,-1.339286 -0.04076,-0.04495 -0.348861,0.332311 -0.684681,0.838367 -1.41193,2.127691 -2.864921,3.907575 -4.805817,5.887035 -2.57397,2.62509 -4.321011,3.67872 -6.099787,3.67872 -1.417341,0 -2.645497,-0.8396 -3.324174,-2.27249 -0.323284,-0.68255 -0.338175,-0.76991 -0.33609,-1.97174 0.0048,-2.754115 1.092176,-5.896618 3.673081,-10.614928 0.610809,-1.116652 1.084186,-2.056653 1.051951,-2.088888 -0.03223,-0.03223 -0.873254,0.158094 -1.868932,0.422953 -3.785721,1.00703 -6.026427,1.359487 -8.674446,1.364466 -2.045044,0.0038 -2.79858,-0.123634 -3.934047,-0.665543 -2.427703,-1.158637 -3.053879,-3.623135 -1.459471,-5.744168 1.692188,-2.251104 4.784548,-4.216119 9.585349,-6.090927 0.778108,-0.303869 1.497269,-0.625203 1.598136,-0.714079 0.18969,-0.16714 0.238186,-0.509514 0.102402,-0.72295 -0.04278,-0.06725 -1.091325,-0.636088 -2.330101,-1.264095 -3.477424,-1.762905 -5.167463,-2.884331 -6.816513,-4.523097 -1.109568,-1.102648 -1.794293,-2.02362 -2.094707,-2.817437 -0.286104,-0.756004 -0.241429,-1.926862 0.103349,-2.708655 0.429197,-0.973207 1.492081,-1.813912 2.782904,-2.201186 0.49336,-0.148015 0.989869,-0.18828 2.305505,-0.186962 2.762641,0.0028 4.910166,0.436626 9.174445,1.853488 1.294199,0.430017 2.37182,0.765397 2.394717,0.745292 0.02289,-0.02011 -0.435496,-1.110319 -1.018645,-2.422695 -1.700663,-3.827343 -2.343235,-5.749869 -2.688947,-8.045114 -0.398302,-2.644388 -0.05532,-4.35625 1.105651,-5.51843 0.802754,-0.803592 1.235271,-0.978987 2.40312,-0.974516 1.181783,0.0045 1.800498,0.211257 2.966697,0.991256 2.194668,1.467885 4.511889,4.271685 7.145189,8.645565 0.451112,0.749289 0.872413,1.420368 0.936223,1.491287 0.08685,0.09652 0.231349,-0.298657 0.574765,-1.571937 0.828214,-3.070762 1.634304,-5.307777 2.644984,-7.340188 1.16832,-2.349423 2.441217,-3.903929 3.758273,-4.589732 0.632605,-0.329403 0.749185,-0.354081 1.675475,-0.354684 0.90801,-5.3e-4 1.04484,0.02665 1.55604,0.309805 0.75725,0.419442 1.43216,1.195121 1.91823,2.204646 1.12645,2.339518 1.19922,7.173267 0.19219,12.765826 -0.11451,0.635947 -0.2082,1.176644 -0.2082,1.20155 0,0.107902 0.38691,-0.131205 1.7989,-1.111698 3.35982,-2.333077 5.79163,-3.642561 8.34388,-4.493032 1.32876,-0.442775 1.52014,-0.479428 2.53751,-0.485976 0.89947,-0.0058 1.20557,0.03492 1.67673,0.223007 1.91502,0.764489 2.81399,2.428232 2.40147,4.444457 -0.25268,1.235033 -1.56038,3.47322 -3.11142,5.325332 -0.94651,1.13025 -3.07574,3.213881 -4.87072,4.766419 -0.66638,0.576376 -1.19492,1.065083 -1.17454,1.086014 0.0204,0.02093 0.99454,0.126651 2.16479,0.234929 6.64612,0.614936 10.8031,2.025957 12.41353,4.213569 1.16176,1.578144 0.98413,3.430063 -0.4659,4.857104 -1.2268,1.20736 -4.07741,2.226725 -7.40961,2.649643 -1.12465,0.14274 -4.42244,0.320067 -5.95378,0.320141 l -1.23796,6.1e-5 1.9056,2.014757 c 2.15322,2.276559 3.33082,3.698123 4.45128,5.373462 1.97972,2.960095 2.49343,5.159791 1.61955,6.934888 -0.26342,0.53507 -0.46481,0.774793 -0.95251,1.13382 -1.71992,1.26613 -3.57064,1.12687 -6.95829,-0.523585 -2.03978,-0.993772 -3.83769,-2.217277 -6.90796,-4.700955 -0.68694,-0.555699 -1.28702,-1.010362 -1.33352,-1.010362 -0.0465,0 -0.0623,0.129686 -0.0352,0.28819 0.26237,1.531831 0.35827,7.604662 0.15066,9.540542 -0.41754,3.89343 -2.10903,6.35963 -4.449484,6.48738 -0.601599,0.0328 -0.842436,-0.006 -1.338705,-0.2153 z m 2.067999,-2.38286 c 0.42639,-0.37438 1.031,-1.54623 1.2573,-2.43689 0.30137,-1.18613 0.40354,-3.2228 0.32936,-6.56525 -0.039,-1.75795 -0.11366,-3.52638 -0.16586,-3.929843 -0.0522,-0.403463 -0.12783,-1.350153 -0.16807,-2.103755 l -0.0732,-1.370185 0.32072,-0.358944 c 0.29171,-0.326477 0.37294,-0.358947 0.89801,-0.358947 0.42001,0 0.64873,0.0571 0.83952,0.209592 0.14422,0.115277 1.00749,0.822648 1.91837,1.571937 3.76739,3.099057 5.52065,4.334344 7.52837,5.304211 1.35361,0.653886 2.99789,1.245523 3.46156,1.245523 0.91922,0 1.71417,-0.611304 1.80141,-1.385249 0.12055,-1.069491 -0.51248,-2.583395 -1.92455,-4.602621 -1.2953,-1.85225 -2.05551,-2.72157 -5.09136,-5.822103 -1.48286,-1.514451 -2.7246,-2.867059 -2.75942,-3.005796 -0.10372,-0.41324 0.28774,-1.012039 0.85171,-1.30283 0.12834,-0.06618 1.75299,-0.157771 3.98224,-0.224509 2.07099,-0.062 4.26061,-0.160039 4.8658,-0.217858 3.27452,-0.312851 6.34703,-1.307719 7.15294,-2.316096 0.43367,-0.542626 0.48652,-1.098733 0.15441,-1.624831 -0.53279,-0.843994 -1.31001,-1.34484 -3.08269,-1.986526 -2.43943,-0.883036 -4.46322,-1.222253 -10.25041,-1.718119 -2.78565,-0.238683 -2.91679,-0.279249 -3.18555,-0.98538 -0.11758,-0.308941 -0.1222,-0.466685 -0.0233,-0.796729 0.10326,-0.344644 0.36985,-0.617728 1.64043,-1.680363 5.1541,-4.310592 7.48691,-6.894936 8.76171,-9.706454 0.25534,-0.563142 0.31228,-0.811184 0.27507,-1.198351 -0.0974,-1.013452 -0.94997,-1.642218 -2.05781,-1.517584 -0.95767,0.107738 -1.5727,0.274373 -2.73825,0.741894 -2.21456,0.888302 -3.9655,1.882299 -6.91652,3.926457 -0.89338,0.618844 -2.14285,1.466612 -2.77659,1.883926 -1.05864,0.697105 -1.18635,0.754179 -1.57194,0.702471 -0.53253,-0.07141 -0.9383,-0.504365 -1.03408,-1.103349 -0.0663,-0.414441 0.0317,-1.297951 0.2548,-2.297208 0.17895,-0.801627 0.71474,-4.752126 0.84156,-6.205075 0.19803,-2.26873 -0.0122,-5.168122 -0.47152,-6.501129 -0.30218,-0.877084 -1.02585,-1.568146 -1.64215,-1.568146 -0.87793,0 -2.124038,1.247373 -3.154476,3.157672 -1.184032,2.195042 -1.637104,3.438269 -2.917518,8.00567 -1.08522,3.871119 -1.108604,3.931838 -1.608296,4.176559 -0.342956,0.167963 -0.461508,0.179107 -0.806297,0.07581 -0.420357,-0.125942 -1.042445,-0.581052 -1.042445,-0.762635 0,-0.145421 -2.479056,-4.288788 -3.419779,-5.715646 -1.077307,-1.634016 -2.234811,-3.050217 -3.459358,-4.232497 -2.002468,-1.933347 -3.180776,-2.391394 -4.119608,-1.60142 -0.650325,0.547212 -0.805021,2.0578 -0.419454,4.09588 0.436784,2.308804 0.955569,3.777705 2.691045,7.619481 0.549198,1.215745 1.204201,2.720441 1.45556,3.343773 0.430019,1.066379 0.448567,1.153559 0.313949,1.475745 -0.287091,0.687104 -1.119513,1.062625 -1.701474,0.767561 -0.165505,-0.08391 -1.715662,-0.629811 -3.44479,-1.213101 -4.768237,-1.608479 -6.658319,-2.020596 -9.379223,-2.04507 -1.753756,-0.01577 -2.29131,0.122965 -2.823088,0.728625 -0.404045,0.460182 -0.484934,0.790557 -0.327329,1.336916 0.212592,0.736994 0.833437,1.51267 2.043583,2.553234 2.081615,1.789917 3.38537,2.554423 8.462693,4.962427 1.694571,0.803678 2.957896,1.466268 3.097519,1.624587 0.279355,0.316764 0.321085,1.030428 0.08035,1.374129 -0.234101,0.334227 -0.935006,0.70638 -2.098935,1.11446 -3.795072,1.330566 -7.321518,2.911782 -9.048167,4.057084 -1.215084,0.805976 -3.100552,2.593768 -3.266827,3.097588 -0.249698,0.756589 0.207029,1.588095 1.091907,1.987894 0.367127,0.165875 0.916821,0.28031 1.750512,0.364423 2.254054,0.227418 5.157772,-0.179559 9.631037,-1.349853 4.149481,-1.085591 4.345858,-1.123736 4.67496,-0.908101 0.148526,0.09732 0.364291,0.390004 0.479483,0.650412 0.235794,0.533048 0.19894,1.009071 -0.109215,1.410743 -0.339018,0.441899 -2.653352,4.711319 -3.485184,6.429372 -0.936471,1.934176 -1.431994,3.300997 -1.813647,5.002657 -0.451064,2.01116 -0.322538,3.01816 0.470381,3.68536 0.32275,0.27157 0.398733,0.29018 0.931876,0.22819 1.178851,-0.13707 2.166821,-0.7727 4.077832,-2.62358 1.764446,-1.708911 3.11203,-3.382644 5.596544,-6.951032 1.510355,-2.169255 1.821579,-2.479508 2.408332,-2.400808 0.399635,0.0536 0.83492,0.357939 1.030365,0.720397 0.05228,0.09695 0.215199,0.875064 0.36204,1.729129 1.155194,6.718924 2.051478,9.584384 3.856624,12.329774 0.643134,0.97812 1.132295,1.3245 1.872539,1.32599 0.403881,7.9e-4 0.561676,-0.0583 0.863929,-0.32369 z"
       id="path22465" />
  </g>
</svg>
