<?xml version="1.0" encoding="UTF-8" standalone="no"?>
<!-- Created with Inkscape (http://www.inkscape.org/) -->

<svg
   width="210mm"
   height="297mm"
   viewBox="0 0 210 297"
   version="1.1"
   id="svg1783"
   inkscape:version="1.2 (dc2aedaf03, 2022-05-15)"
   sodipodi:docname="flor-triste.svg"
   xmlns:inkscape="http://www.inkscape.org/namespaces/inkscape"
   xmlns:sodipodi="http://sodipodi.sourceforge.net/DTD/sodipodi-0.dtd"
   xmlns="http://www.w3.org/2000/svg"
   xmlns:svg="http://www.w3.org/2000/svg">
  <sodipodi:namedview
     id="namedview1785"
     pagecolor="#505050"
     bordercolor="#eeeeee"
     borderopacity="1"
     inkscape:showpageshadow="0"
     inkscape:pageopacity="0"
     inkscape:pagecheckerboard="0"
     inkscape:deskcolor="#505050"
     inkscape:document-units="mm"
     showgrid="false"
     inkscape:zoom="3.5705387"
     inkscape:cx="269.98727"
     inkscape:cy="513.64798"
     inkscape:window-width="2560"
     inkscape:window-height="1369"
     inkscape:window-x="2552"
     inkscape:window-y="-8"
     inkscape:window-maximized="1"
     inkscape:current-layer="layer1" />
  <defs
     id="defs1780" />
  <g
     inkscape:label="Camada 1"
     inkscape:groupmode="layer"
     id="layer1">
    <path
       style="fill:#000000;stroke-width:0.874001"
       id="path1906"
       d="m 68.04865,164.15043 c -0.0975,-0.97505 -0.06524,-1.95802 0.140338,-2.91738 0.09619,-0.44887 0.267657,-0.87947 0.36241,-1.32865 0.06705,-0.31787 0.107151,-0.64083 0.160729,-0.96124 0.157091,-1.34888 0.282414,-2.71077 0.266515,-4.07067 -0.0074,-0.63645 -0.04906,-0.98289 -0.102931,-1.63759 -0.200686,-1.71685 -0.234045,-3.44516 -0.352639,-5.16787 -0.0353,-0.36797 -0.06633,-0.73638 -0.105884,-1.10391 -0.08425,-0.78279 -0.153366,-1.1785 -0.230317,-1.95494 -0.08012,-0.80844 -0.114025,-1.61927 -0.150347,-2.43046 -0.05181,-1.34734 -0.152548,-2.69528 -0.131125,-4.04456 0.01027,-0.64725 0.04031,-1.29404 0.0573,-1.94114 0.02633,-1.51681 0.02013,-3.03386 0.03235,-4.55072 0.04469,-1.3991 0.207481,-2.79029 0.369257,-4.17957 0.197832,-1.68158 0.438825,-3.3584 0.569572,-5.04698 0.07191,-0.8983 -0.09766,-1.7879 -0.166997,-2.67972 -0.03887,-0.49997 -0.0499,-1.01792 -0.06567,-1.51955 0.01331,-0.9145 -0.0028,-1.8542 0.210963,-2.75044 0.03094,-0.12974 0.07555,-0.25583 0.113321,-0.38374 0.342024,-0.8008 0.805288,-1.54414 1.312934,-2.2492 0.367736,-0.45918 0.759735,-0.91012 1.211217,-1.29031 0.354616,-0.29862 0.6144,-0.4589 0.994932,-0.71454 0.565353,-0.35933 1.168751,-0.65008 1.751221,-0.97915 0.395237,-0.22971 0.827609,-0.31435 1.279057,-0.2784 0.576926,0.0545 1.130861,0.22342 1.668092,0.43341 0.572394,0.24582 1.124294,0.52827 1.66003,0.84553 0.57214,0.33087 1.161426,0.62911 1.731216,0.96434 0.548577,0.37752 1.118587,0.72201 1.665767,1.10139 0.51401,0.34928 0.99775,0.73821 1.4418,1.17264 0.53046,0.54498 0.97677,1.15761 1.40584,1.78318 0.42643,0.70448 0.97516,1.31808 1.48033,1.96306 0.23192,0.3357 0.47323,0.66443 0.71531,0.99278 0.19301,0.27359 0.36358,0.56068 0.57248,0.82281 0.15783,0.18312 0.26247,0.40068 0.3975,0.59921 0.0879,0.14719 0.21477,0.27031 0.29182,0.42388 0.0597,0.10644 0.15364,0.17396 0.25393,0.23652 -0.007,-7.9e-4 -0.0202,0.005 -0.0204,-0.002 -0.0155,-0.78853 0.0334,-0.055 0.0478,0.0242 0.002,0.008 0.0252,0.0111 0.0251,0.003 -8e-4,-0.11697 -0.0182,-0.23324 -0.0273,-0.34986 -0.008,-7.9e-4 -0.0234,-0.01 -0.0233,-0.002 0.004,0.4285 0.0896,0.51323 0.003,-0.002 -0.001,-0.008 -0.10468,0.005 -0.13075,0.007 -0.0861,-0.0119 -0.17231,-0.0231 -0.25808,-0.0379 -0.16515,-0.0254 -0.3324,-0.042 -0.49947,-0.048 -0.29462,-0.008 -0.58905,0.004 -0.88369,0.004 -0.26772,-0.0111 -0.53589,0.0395 -0.7822,0.14401 -0.18712,0.0869 -0.37142,0.17818 -0.54041,0.29742 -0.14364,0.11914 -0.30319,0.21796 -0.44756,0.33579 -0.0872,0.0868 -0.16864,0.18106 -0.2417,0.28032 -0.11925,0.15118 -0.13751,0.33318 -0.13156,0.51874 0.0151,0.18299 0.025,0.37243 0.0819,0.54875 0.0427,0.13236 0.0216,0.031 0.034,0.0953 -0.0206,0.11683 -0.003,0.19237 0.0785,0.2878 -0.0198,-0.0254 -0.042,-0.049 -0.0593,-0.0761 -0.0105,-0.0165 1e-4,-0.0762 -0.008,-0.0583 -0.007,0.0157 -0.006,0.0338 -0.008,0.0509 -10e-4,0.0169 -0.0163,0.0493 5.3e-4,0.0508 0.13116,0.0118 0.2632,-0.0101 0.39481,-0.0151 0.21766,-0.73084 -1.25446,0.62317 -0.007,-0.10535 0.0575,-0.0336 -0.0955,-0.29058 -0.0984,-0.29615 -0.13827,-0.12085 -0.20187,-0.28187 -0.27328,-0.44568 -0.0745,-0.19846 -0.19396,-0.3748 -0.27887,-0.56789 -0.0699,-0.18782 -0.12822,-0.37944 -0.19116,-0.56964 -0.0915,-0.24739 -0.22244,-0.47653 -0.34391,-0.70971 -0.15173,-0.34074 -0.32576,-0.66702 -0.52667,-0.98124 -0.13247,-0.25993 -0.30265,-0.49567 -0.4745,-0.73034 -0.14582,-0.2112 -0.29932,-0.41643 -0.4584,-0.61773 -0.15918,-0.21797 -0.29725,-0.44875 -0.43364,-0.68088 -0.15182,-0.20975 -0.32336,-0.4057 -0.49311,-0.60125 -0.14603,-0.2006 -0.30608,-0.38377 -0.49372,-0.54572 -0.19083,-0.14705 -0.354992,-0.32417 -0.541563,-0.47629 -0.153154,-0.14084 -0.325845,-0.26021 -0.498337,-0.37604 -0.209008,-0.12856 -0.424429,-0.24622 -0.636342,-0.36977 -0.249986,-0.15308 -0.507849,-0.28876 -0.776756,-0.40514 -0.292182,-0.119 -0.591918,-0.221 -0.896643,-0.30275 -0.257845,-0.0475 -0.514186,-0.0982 -0.766985,-0.16842 -0.270386,-0.0721 -0.543227,-0.12926 -0.809972,-0.21485 -0.281294,-0.10276 -0.578932,-0.15072 -0.877162,-0.16287 -0.220959,-0.007 -0.441704,-0.002 -0.661596,0.0206 -0.183108,0.0127 -0.364226,0.0415 -0.543809,0.0786 -0.215903,0.044 -0.420412,0.12375 -0.611444,0.23223 -0.197408,0.0759 -0.349086,0.20598 -0.495967,0.35494 -0.138763,0.15629 -0.239911,0.34124 -0.353409,0.51586 -0.107897,0.17529 -0.257051,0.31696 -0.388459,0.47386 -0.120888,0.14543 -0.241911,0.28163 -0.337362,0.44585 -0.146058,0.14952 -0.272621,0.30977 -0.375854,0.49146 -0.127812,0.26496 -0.271817,0.5265 -0.358709,0.80871 -0.04462,0.12457 -0.106304,0.23973 -0.170817,0.35503 -0.117317,0.20448 -0.178716,0.43524 -0.274019,0.65141 -0.106399,0.21802 -0.15781,0.45007 -0.196641,0.68741 -0.0516,0.32655 -0.03137,0.65306 -0.03125,0.98064 0.006,0.25093 -0.0264,0.49871 -0.04481,0.74807 -0.0313,0.32432 -0.0445,0.64991 -0.05908,0.9753 0.0013,0.31676 -0.05106,0.62851 -0.07129,0.94406 0.01971,0.35362 0.01209,0.70727 0.06431,1.05806 0.05834,0.26207 0.09757,0.52616 0.16701,0.78571 0.06141,0.24083 0.0717,0.48847 0.06854,0.73563 -0.0099,0.40442 -0.007,0.80899 -0.0052,1.21348 -0.01672,0.32733 -0.05977,0.65325 -0.129239,0.97345 -0.09937,0.3961 -0.205861,0.79107 -0.326083,1.18138 -0.09873,0.3164 -0.191701,0.63166 -0.22288,0.96244 -0.03348,0.34989 -0.03973,0.70156 -0.05496,1.05257 -0.02704,0.33364 -0.0054,0.6671 0.0011,1.00102 0.0074,0.25397 -0.02032,0.50635 -0.02791,0.75986 0.0057,0.34948 -0.02085,0.69866 -0.01953,1.04784 -0.0104,0.32362 0.05059,0.6376 0.1066,0.95407 0.07358,0.48291 0.140264,0.96647 0.216554,1.44903 0.11271,0.58796 0.158406,1.18561 0.222218,1.78002 0.08734,0.65191 0.08781,1.31199 0.107103,1.96852 0.01598,0.81823 -0.03708,1.63615 -0.08866,2.45244 -0.06357,0.89327 0.03996,1.78591 0.071,2.67867 0.08901,1.20424 0.141645,2.40989 0.189082,3.61634 0.0098,0.205 0.02024,0.40998 0.02947,0.61502 0.01286,0.28586 0.03402,0.72016 0.03032,1.01438 -0.0065,0.51244 -0.04935,1.02573 -0.07976,1.5371 -0.06994,1.224 -0.07079,2.45266 0.01281,3.6758 0.08407,0.82721 0.125735,1.65674 0.128021,2.488 0.0076,0.46177 -0.01101,0.92312 -0.01619,1.38466 -0.05155,0.62873 -0.06123,1.25967 -0.117515,1.888 -0.05747,0.4643 -0.0656,0.93078 -0.0438,1.39742 5.29e-4,0.32813 0.0104,0.65309 0.04862,0.97922 0.08782,0.2709 0.07116,0.54699 0.0876,0.82526 -0.0034,0.17589 0.110127,0.32828 0.115784,0.4986 0.01191,0.12738 0.03878,0.2533 0.04907,0.3807 -0.01389,0.0396 0.03158,0.24893 0.0057,0.17655 -0.01365,0.0317 -0.01482,0.14184 -0.0024,0.20865 -0.03203,-0.12419 -0.0032,0.11953 0.209769,-0.23605 0.01289,-0.0215 -0.04753,-0.0164 -0.07207,-0.0215 -0.04782,-0.01 -0.162589,-0.0247 -0.218289,-0.0322 -0.177909,-0.0159 -0.351854,-0.0617 -0.52373,-0.10868 -0.234204,-0.0698 -0.449053,-0.18903 -0.674177,-0.28166 -0.18238,-0.0317 -0.362532,-0.077 -0.544713,-0.11143 -0.141354,-0.0294 -0.285981,-0.0313 -0.428358,-0.0543 -0.08951,-0.0145 -0.175234,-0.042 -0.256088,-0.0826 -0.06805,-0.0435 -0.139324,-0.0997 -0.182422,-0.16896 -0.05682,-0.10196 -0.137853,-0.20639 -0.169968,-0.31627 -0.01286,-0.0508 -0.04071,-0.0981 -0.04511,-0.15089 0.03692,-0.11599 0.05222,-0.23575 0.04088,-0.35664 -0.01725,-0.29179 -0.334251,-0.35768 -0.561406,-0.12403 -0.150434,0.10264 -0.217498,0.2662 -0.311486,0.41294 -0.08666,0.1529 -0.110493,0.33578 -0.142473,0.50662 -0.01992,0.13235 -0.05434,0.26301 -0.02402,0.39584 0.01106,0.20335 0.323334,0.16459 0.503703,0.13149 0.222692,-0.0272 0.445278,0.004 0.668943,-0.006 0.145524,0.005 0.290264,0.0127 0.43592,0.0115 0.0075,-1.3e-4 0.02969,0.001 0.02238,-2.7e-4 -0.02596,-0.005 -0.05327,-0.004 -0.07869,-0.0113 -0.03115,-0.009 -0.05019,-0.0742 0.03048,0.0178 0.04288,0.0489 0.07728,0.10464 0.115922,0.15696 0,0 0.05658,-0.003 0.05658,-0.003 v 0 c 0.0327,-0.0731 0.08393,-0.14059 0.09808,-0.21946 0.03535,-0.19694 -0.03226,-0.37796 -0.252082,-0.37247 -0.151026,0.004 -0.300669,-0.009 -0.451604,-0.0109 -0.248848,0.0158 -0.498152,-0.0314 -0.745434,0.0174 -0.150016,0.0393 -0.252709,0.0628 -0.235149,0.0816 0.312333,0.33457 0.266756,0.16405 0.258964,0.10305 -0.0074,0.0771 0.02368,-0.18729 0.02988,-0.21077 0.02217,-0.11849 0.03241,-0.25219 0.08833,-0.3571 0.07437,-0.1263 0.123359,-0.25159 0.252878,-0.33657 0.03399,-0.0359 0.134278,-0.0704 0.10197,-0.10781 -0.435533,-0.50492 -0.358849,-0.16896 -0.297847,-0.0215 0.01791,0.0928 -0.05497,0.25872 -0.03371,0.37821 0.01048,0.0532 0.02988,0.13655 0.04525,0.17594 0.04591,0.17637 0.151302,0.331 0.245946,0.48434 0.09544,0.11845 0.201906,0.2306 0.338963,0.30132 0.121627,0.0588 0.247084,0.10665 0.382069,0.12448 0.140579,0.022 0.283136,0.0259 0.422317,0.0553 0.151506,0.0222 0.298408,0.0801 0.452546,0.0831 0.242229,0.0963 0.470943,0.22866 0.724062,0.29756 0.190749,0.0528 0.385217,0.10331 0.583059,0.11878 0.200187,0.0269 0.613397,0.10597 0.563327,-0.24047 -5.29e-4,0.03 -0.0061,-0.0508 0.01156,-0.092 -0.003,-0.09 -0.0092,-0.16147 -0.01061,-0.25417 -0.01572,-0.11712 -0.0282,-0.23492 -0.04768,-0.35217 -0.01042,-0.17757 -0.08392,-0.33145 -0.114199,-0.50512 -0.0204,-0.28493 -0.0011,-0.57154 -0.08981,-0.84916 -0.03923,-0.31539 -0.04764,-0.63009 -0.04696,-0.9477 -0.02106,-0.44702 -0.01333,-0.89356 0.04153,-1.33837 0.05885,-0.63962 0.06889,-1.28201 0.120226,-1.92225 0.0047,-0.46348 0.02302,-0.92686 0.01524,-1.39052 -0.0024,-0.84077 -0.04322,-1.67999 -0.131006,-2.51645 -0.08531,-1.20464 -0.08103,-2.41519 -0.0145,-3.62084 0.03105,-0.52221 0.07463,-1.04634 0.08045,-1.56965 0.0032,-0.28473 -0.01945,-0.75342 -0.03274,-1.0284 -0.0098,-0.20337 -0.02146,-0.40665 -0.03218,-0.60998 -0.04578,-1.20615 -0.101984,-2.41121 -0.190987,-3.61504 -0.03223,-0.87916 -0.134834,-1.75822 -0.07349,-2.63793 0.05036,-0.82882 0.102127,-1.65923 0.08637,-2.48988 -0.01799,-0.66747 -0.01966,-1.33845 -0.109313,-2.00112 -0.0647,-0.60117 -0.11167,-1.20569 -0.226859,-1.80013 -0.07672,-0.48505 -0.142703,-0.9713 -0.218771,-1.45636 -0.05206,-0.29377 -0.109497,-0.58436 -0.09836,-0.88488 -0.003,-0.34435 0.02545,-0.68881 0.01741,-1.03342 0.0072,-0.26007 0.03445,-0.51922 0.028,-0.77975 -0.0064,-0.32544 -0.02921,-0.65013 -0.0033,-0.97533 0.01487,-0.34364 0.02185,-0.68794 0.05438,-1.03049 0.03066,-0.30305 0.116755,-0.59143 0.207705,-0.88164 0.122952,-0.40211 0.234765,-0.80804 0.335167,-1.21641 0.07305,-0.34943 0.123213,-0.70384 0.13726,-1.06091 -0.0019,-0.40228 -0.004,-0.80459 0.0042,-1.20682 0.003,-0.28405 -0.01169,-0.56838 -0.08404,-0.84466 -0.06431,-0.2455 -0.101195,-0.49519 -0.158988,-0.74224 -0.04969,-0.32205 -0.03489,-0.64675 -0.05959,-0.97124 0.02035,-0.31836 0.07412,-0.63318 0.07274,-0.95288 0.0127,-0.32097 0.02455,-0.64207 0.05731,-0.96179 0.02027,-0.26079 0.05127,-0.5203 0.04595,-0.78266 -0.0051,-0.30425 -0.01894,-0.60625 0.02373,-0.90974 0.03503,-0.20386 0.07942,-0.40213 0.17058,-0.59002 0.08996,-0.20481 0.147931,-0.42314 0.255855,-0.61714 0.07911,-0.14167 0.152585,-0.28466 0.205869,-0.43827 0.06932,-0.25399 0.215051,-0.48472 0.322353,-0.72315 0.102835,-0.18142 0.244043,-0.32671 0.374927,-0.48788 0.08333,-0.1445 0.192384,-0.26109 0.299234,-0.38941 0.139078,-0.17007 0.302371,-0.32021 0.414768,-0.51114 0.100447,-0.15212 0.187876,-0.31479 0.30525,-0.45425 0.121333,-0.12675 0.23943,-0.22153 0.406109,-0.283 0.153673,-0.0877 0.317315,-0.15298 0.491958,-0.18705 0.166352,-0.0351 0.334955,-0.0574 0.504489,-0.0704 0.199922,-0.0232 0.400733,-0.0241 0.601782,-0.0194 0.261003,0.008 0.521062,0.0529 0.766657,0.14351 0.271967,0.087 0.549716,0.14729 0.826161,0.21765 0.254696,0.0705 0.512895,0.12146 0.773546,0.16411 0.285653,0.0737 0.565158,0.17117 0.838952,0.28067 0.253997,0.11139 0.498054,0.23954 0.73401,0.38567 0.204377,0.11883 0.411125,0.23359 0.613211,0.3564 0.161592,0.10944 0.324771,0.21999 0.467794,0.35329 0.18306,0.15137 0.346506,0.32515 0.535212,0.46969 0.173227,0.14791 0.317487,0.31865 0.452007,0.50276 0.15323,0.17809 0.30805,0.35581 0.45002,0.54291 0.14628,0.24684 0.29611,0.49126 0.46436,0.72419 0.15464,0.19919 0.3077,0.3993 0.4513,0.60674 0.16694,0.22796 0.33152,0.45693 0.46019,0.70945 0.19463,0.30408 0.36351,0.61958 0.51052,0.94947 0.11162,0.21411 0.23151,0.4247 0.31887,0.65044 0.0673,0.2035 0.12674,0.40952 0.2046,0.60947 0.0877,0.19017 0.19938,0.36778 0.27673,0.56308 0.077,0.17649 0.1485,0.37476 0.30143,0.50079 0.0861,0.0209 -0.12093,-0.0356 0.037,0.0655 0.12201,0.0781 0.2548,0.13862 0.38697,0.198 0.007,0.003 0.004,-0.0142 0.006,-0.0213 -0.12116,-0.0563 -0.24231,-0.11262 -0.36347,-0.16893 1.3e-4,2.6e-4 2.6e-4,5.3e-4 5.3e-4,7.9e-4 0.12173,0.0285 0.24619,0.0471 0.3652,0.0854 0.0114,0.004 -0.006,0.0475 -0.004,0.0357 0.005,-0.0417 0.0244,-0.10197 0.005,-0.14588 -0.0187,-0.0415 -0.0474,-0.0777 -0.0712,-0.11657 0.0791,0.10665 0.021,0.006 0.051,0.16177 0.002,0.0118 0.004,-0.0237 0.006,-0.0357 0.009,-0.0731 0.0112,-0.14647 -0.006,-0.21879 -0.0568,-0.17874 -0.0981,-0.36245 -0.10034,-0.55371 -0.005,-0.0986 -0.008,-0.19554 0.0572,-0.27663 0.0551,-0.0744 0.11893,-0.1429 0.17988,-0.21198 0.13426,-0.11552 0.29288,-0.2024 0.4265,-0.31948 0.14378,-0.10727 0.31003,-0.17743 0.47046,-0.25532 0.19531,-0.0894 0.41419,-0.12183 0.62764,-0.11469 0.29117,1.1e-4 0.58201,-0.0111 0.87314,-0.005 0.1516,0.003 0.3038,0.0166 0.45379,0.0381 0.12986,0.0178 0.26185,0.0391 0.39282,0.0239 0.003,-0.0217 -0.003,-0.0154 0.0222,-0.0144 0.0395,-0.11247 0.0725,-0.22735 0.10059,-0.34321 10e-4,-0.006 -0.0154,-0.007 -0.0171,-0.002 -0.0343,0.11248 -0.0654,0.22631 -0.0866,0.34196 -0.001,0.008 0.0156,0.001 0.0234,0.002 0.0292,-0.1133 0.0668,-0.22477 0.0877,-0.33989 0.002,-0.008 -0.017,-10e-4 -0.0255,-0.002 -0.0352,0.11193 -0.0703,0.22386 -0.10548,0.3358 0.004,2.6e-4 0.009,0.004 0.0105,10e-4 0.14563,-0.32153 0.24016,-0.28915 0.0965,-0.32048 0.14041,0.13264 -0.025,-0.0272 -0.0585,-0.0648 -0.0869,-0.16193 -0.21489,-0.29615 -0.31207,-0.45181 -0.14114,-0.20264 -0.24781,-0.42763 -0.41162,-0.61494 -0.2088,-0.25752 -0.37235,-0.54518 -0.56732,-0.81292 -0.2454,-0.32935 -0.49027,-0.65893 -0.72514,-0.99597 -0.50658,-0.63636 -1.04868,-1.24709 -1.47664,-1.94324 -0.43898,-0.63965 -0.89882,-1.2641 -1.44226,-1.82039 -0.45628,-0.44255 -0.95093,-0.84056 -1.47643,-1.19865 -0.55251,-0.38287 -1.12836,-0.73025 -1.683029,-1.11012 -0.569646,-0.335 -1.158986,-0.63269 -1.731587,-0.9623 -0.547606,-0.32408 -1.111803,-0.61275 -1.697379,-0.86266 -0.560596,-0.2202 -1.139412,-0.39509 -1.741837,-0.45124 -0.502004,-0.0361 -0.983638,0.0577 -1.42368,0.31163 -0.588169,0.3323 -1.197528,0.62592 -1.767523,0.99035 -0.403455,0.27151 -0.649512,0.42217 -1.02703,0.74013 -0.464029,0.39081 -0.86722,0.85351 -1.244187,1.32636 -0.525304,0.72752 -1.005049,1.49572 -1.353389,2.32506 -0.04046,0.13628 -0.08836,0.27057 -0.121394,0.40884 -0.218469,0.91446 -0.204641,1.87339 -0.217286,2.80661 0.01617,0.53585 0.0245,1.00062 0.06597,1.5386 0.06756,0.87616 0.234032,1.75007 0.165388,2.63245 -0.127984,1.68534 -0.371117,3.35852 -0.567602,5.03676 -0.162867,1.3987 -0.327676,2.79933 -0.370036,4.20808 -0.0094,1.51543 -0.0011,3.03099 -0.02349,4.54638 -0.01482,0.64949 -0.04227,1.29871 -0.05054,1.94832 -0.01722,1.35266 0.08258,2.70401 0.140163,4.05448 0.03846,0.81641 0.075,1.63262 0.156515,2.44623 0.07528,0.75137 0.14937,1.19487 0.231806,1.95049 0.03987,0.36542 0.07154,0.73168 0.107313,1.09752 0.120507,1.7237 0.159033,3.45301 0.365564,5.17035 0.05738,0.65235 0.100243,0.98337 0.109008,1.61639 0.01868,1.34947 -0.10582,2.70135 -0.258892,4.04013 -0.05172,0.31351 -0.08979,0.62958 -0.155162,0.94053 -0.09592,0.45621 -0.26988,0.89364 -0.36607,1.3498 -0.206563,0.97956 -0.237154,1.98284 -0.130426,2.97715 0,0 0.189524,-0.0268 0.189524,-0.0268 z" />
    <path
       style="fill:#000000;stroke-width:0.874001"
       id="path1910"
       d="m 104.36398,122.25022 c -0.18638,0.11263 -0.96298,0.36348 -0.95092,0.71635 0.006,0.18802 0.17154,0.26756 0.25024,0.40988 -0.0651,0.21319 -0.0357,0.4184 0.0213,0.62884 0.0924,0.26624 0.13972,0.53862 0.15591,0.8191 0.0272,0.32494 0.0102,0.65078 0.008,0.97621 0.0197,0.37703 0.0376,0.75426 0.0507,1.13163 0.0345,0.42698 0.0378,0.85212 5.3e-4,1.27874 -0.0554,0.48962 -0.0827,0.98137 -0.12553,1.47208 -0.0509,0.52647 -0.11434,1.05158 -0.17299,1.5773 -0.048,0.40425 -0.0827,0.80878 -0.0988,1.21554 -0.0161,0.43143 -0.0786,0.85884 -0.0969,1.29003 -0.002,0.37907 0.055,0.75206 0.12614,1.12299 0.0969,0.32863 0.12066,0.67412 0.21254,1.00324 0.11151,0.33721 0.23717,0.66796 0.33318,1.01027 0.11431,0.48098 0.19095,0.96885 0.32551,1.44532 0.17385,0.48165 0.33398,0.96714 0.48206,1.45724 0.12282,0.43894 0.24511,0.87802 0.36427,1.31796 0.0792,0.24545 0.14252,0.49467 0.22294,0.73963 0.0938,0.28215 0.15563,0.57417 0.22097,0.864 0.0824,0.34087 0.10538,0.69133 0.14692,1.03863 0.0707,0.46145 0.10856,0.9263 0.14628,1.39124 0.0452,0.45135 0.0451,0.90449 0.0952,1.35526 0.0578,0.3337 0.0867,0.66923 0.0936,1.00747 0.0112,0.28079 0.008,0.56056 -0.004,0.84132 -0.0207,0.23664 -0.0259,0.46735 -0.001,0.7036 -0.003,0.14692 0.0122,0.28538 0.0377,0.42936 0.0151,0.14402 0.0213,0.28858 0.0689,0.42658 0.0117,0.10406 0.0891,0.17695 0.1395,0.26216 0.0726,0.11531 0.18624,0.15948 0.31252,0.19794 0.13542,0.0171 0.27657,-0.002 0.41125,-0.0234 0.13557,-0.0512 0.27214,-0.0587 0.41552,-0.0708 0.14804,0.0128 0.26954,-0.074 0.38861,-0.10709 0.12518,-0.0482 0.25828,-0.0603 0.38502,-0.10189 0.13979,-0.0509 0.2738,-0.1374 0.41953,-0.16995 0.219,-0.0365 0.4054,-0.16925 0.57903,-0.29906 0.24425,-0.16267 0.39498,-0.41108 0.53403,-0.66285 0.13553,-0.25231 0.25473,-0.5118 0.35116,-0.78132 0.10711,-0.19972 0.224,-0.39246 0.32535,-0.59559 0.16071,-0.26993 0.28024,-0.55612 0.37719,-0.85402 0.15751,-0.49799 0.27108,-1.00743 0.38139,-1.51737 0.0715,-0.43345 0.18906,-0.86495 0.21649,-1.30458 0.003,-0.43755 -0.124,-0.86114 -0.22467,-1.28307 -0.11607,-0.45076 -0.13329,-0.91488 -0.14086,-1.37775 -5.3e-4,-0.47486 0.10268,-0.94313 0.17806,-1.41032 0.0592,-0.39218 0.13118,-0.78221 0.19024,-1.17441 0.0536,-0.38045 0.14504,-0.7533 0.22632,-1.12834 0.0744,-0.33302 0.14506,-0.66359 0.13835,-1.00562 -0.0199,-0.31236 -0.14451,-0.60101 -0.25806,-0.8882 -0.13655,-0.25624 -0.30906,-0.48993 -0.40081,-0.7675 -0.0587,-0.20984 -0.0778,-0.43118 -0.059,-0.64801 0.0617,-0.36832 0.0385,-0.74082 0.005,-1.11044 -0.0537,-0.36179 -0.0604,-0.72642 -0.0563,-1.09139 -0.008,-0.28251 -0.0966,-0.55198 -0.1496,-0.82743 -0.046,-0.24289 -0.14227,-0.46961 -0.23052,-0.69899 -0.10531,-0.32253 -0.19347,-0.65107 -0.26886,-0.9819 -0.0801,-0.30914 -0.16116,-0.61833 -0.24887,-0.92557 -0.0911,-0.29732 -0.19598,-0.58906 -0.32153,-0.87348 -0.12553,-0.30297 -0.23434,-0.61242 -0.3529,-0.91811 -0.10595,-0.26447 -0.14576,-0.54718 -0.20942,-0.82319 -0.12702,-0.36086 -0.21418,-0.73247 -0.29632,-1.10548 -0.07,-0.32422 -0.24266,-0.59928 -0.42731,-0.86846 -0.15652,-0.22325 -0.28579,-0.46333 -0.41125,-0.70482 -0.0876,-0.13419 -0.14456,-0.27263 -0.17148,-0.42913 0.013,-0.0151 -0.0111,-0.21995 -0.0213,-0.31052 0.002,-0.13557 0.005,-0.26865 -0.009,-0.40386 -0.008,-0.0666 -0.0299,-0.1239 -0.064,-0.18031 -0.004,-0.007 -0.017,-0.0276 -0.0129,-0.0206 0.0415,0.0721 0.0299,0.0643 0.0262,-0.0218 0.007,-0.14941 0.039,-0.29357 0.0347,-0.44558 -0.0386,-0.0903 0.047,-0.17983 0.0347,-0.26847 -0.005,-0.0389 -0.0226,-0.0752 -0.034,-0.11275 0.0138,0.0739 0.0143,0.0261 -0.13632,0.0445 0,0 -0.0536,-0.0182 -0.0536,-0.0182 v 0 c -0.17968,0.0777 -0.16963,0.012 -0.14619,0.13547 -0.004,-0.0225 -0.011,-0.0447 -0.0123,-0.0676 -5.3e-4,-0.009 0.009,-0.0343 0.007,-0.0258 -0.0296,0.1048 -0.0532,0.21457 -0.0401,0.32389 0.005,0.15277 -0.0435,0.29647 -0.0365,0.44899 0.003,0.10668 0.0387,0.23362 0.0495,0.24687 0.0138,0.13677 0.003,0.27165 0.008,0.40928 0.001,0.01 0.0146,0.13418 0.02,0.15131 10e-4,0.004 0.0123,-0.001 0.012,0.003 -0.005,0.0575 -0.0375,0.11431 -0.019,0.17454 0.0297,0.199 0.0928,0.38169 0.20084,0.55304 0.13101,0.25828 0.26892,0.51358 0.43304,0.75274 0.15421,0.22444 0.30108,0.45092 0.35809,0.7222 0.0784,0.37511 0.16367,0.74871 0.28585,1.11244 0.0656,0.29764 0.10638,0.60235 0.22166,0.88668 0.12083,0.31153 0.23112,0.62711 0.36005,0.93545 0.11594,0.26707 0.21855,0.53879 0.29974,0.81873 0.086,0.29987 0.165,0.60181 0.24226,0.90388 0.082,0.34975 0.17281,0.69843 0.28725,1.03901 0.0776,0.20631 0.16772,0.40785 0.2097,0.62567 0.0475,0.24675 0.12506,0.48796 0.14266,0.73943 -0.004,0.37971 0.002,0.75949 0.0571,1.13599 0.0317,0.34549 0.0531,0.69354 -0.004,1.03795 -0.0182,0.27593 -0.002,0.55534 0.0789,0.82146 0.097,0.28315 0.24954,0.53609 0.40855,0.78864 0.0945,0.23902 0.20353,0.47956 0.22736,0.73809 0.0111,0.30648 -0.0658,0.60156 -0.12565,0.90113 -0.0832,0.38383 -0.17643,0.76554 -0.23122,1.15492 -0.0606,0.39096 -0.13083,0.78033 -0.19076,1.1714 -0.0777,0.49271 -0.18613,0.98588 -0.18153,1.48676 0.009,0.49482 0.0314,0.99149 0.15795,1.47258 0.0949,0.38176 0.21445,0.76429 0.22561,1.16024 -0.0132,0.41738 -0.13809,0.82847 -0.19917,1.23961 -0.10473,0.49717 -0.21324,0.99389 -0.36706,1.47877 -0.0886,0.27993 -0.20433,0.54536 -0.35464,0.79832 -0.10658,0.21815 -0.23803,0.42042 -0.34365,0.63876 -0.0891,0.24938 -0.19778,0.4898 -0.32387,0.723 -0.11071,0.20298 -0.22495,0.40639 -0.42364,0.53498 -0.13333,0.10287 -0.27211,0.20952 -0.44326,0.23472 -0.15309,0.0461 -0.29948,0.11308 -0.44906,0.16914 -0.11469,0.0524 -0.2562,0.0384 -0.37,0.0989 -0.24045,0.0805 -0.054,0.0659 -0.30167,0.0906 -0.15023,0.0143 -0.316,0.03 -0.43897,0.0756 -0.0208,0.003 -0.4164,0.0342 -0.23563,0.0346 -0.0222,-0.006 -0.045,-0.0103 -0.0667,-0.0179 -0.0609,-0.0213 0.0513,0.0682 -0.0157,-0.01 -0.0825,-0.12523 -0.0657,-0.0492 -0.0993,-0.18348 -0.0531,-0.10848 -0.0153,-0.24528 -0.0502,-0.35835 -0.0247,-0.13256 -0.0321,-0.26042 -0.0331,-0.39789 -0.0226,-0.21677 -0.0167,-0.4269 0.004,-0.6446 0.0108,-0.28918 0.0137,-0.57732 0.002,-0.86641 -0.008,-0.3505 -0.0342,-0.69877 -0.096,-1.04441 -0.0503,-0.44683 -0.0493,-0.89612 -0.096,-1.34344 -0.0399,-0.47002 -0.0781,-0.94007 -0.14984,-1.40668 -0.0449,-0.36055 -0.0693,-0.72451 -0.15581,-1.07849 -0.0683,-0.30222 -0.13579,-0.6061 -0.23214,-0.90075 -0.0782,-0.23823 -0.14261,-0.47982 -0.21967,-0.71852 -0.12028,-0.44386 -0.24469,-0.88659 -0.3686,-1.32946 -0.14907,-0.48715 -0.30822,-0.97046 -0.48458,-1.44853 -0.13527,-0.47631 -0.21223,-0.96475 -0.33524,-1.44381 -0.10027,-0.34296 -0.22729,-0.67491 -0.34762,-1.01093 -0.10318,-0.31248 -0.11132,-0.65244 -0.21535,-0.96589 -0.0693,-0.34388 -0.12845,-0.68902 -0.1284,-1.04135 0.0118,-0.43142 0.0723,-0.85947 0.0833,-1.2911 0.0109,-0.3987 0.0412,-0.79538 0.0883,-1.1915 0.0555,-0.52828 0.11796,-1.0558 0.16685,-1.58469 0.0429,-0.49102 0.0696,-0.98315 0.12367,-1.47322 0.0359,-0.44014 0.0324,-0.87864 -0.0105,-1.31847 -0.0184,-0.37437 -0.0368,-0.74884 -0.065,-1.12252 -0.0109,-0.33102 -5.3e-4,-0.66301 -0.0401,-0.9927 -0.0282,-0.2955 -0.0874,-0.58284 -0.18826,-0.86262 -0.0126,-0.0439 -0.0509,-0.16691 -0.0566,-0.22102 -0.0164,-0.15606 0.0707,-0.31139 0.005,-0.46617 -0.054,-0.0828 -0.0746,-0.13201 -0.15495,-0.19056 -0.0207,-0.0151 -0.0574,-0.009 -0.0703,-0.0312 -0.15505,-0.26736 0.9224,-0.46856 0.81871,-0.57189 0,0 -0.0917,-0.21038 -0.0917,-0.21038 z" />
    <path
       style="fill:#000000;stroke-width:0.874001"
       id="path1912"
       d="m 108.34598,121.61979 c 0.53665,0.41905 1.16503,0.86024 1.39143,1.54244 0.0439,0.13216 0.008,0.41313 0.0327,0.54751 0.0199,0.10882 0.0657,0.21129 0.0986,0.31694 0.0772,0.11415 0.1436,0.2364 0.2316,0.34244 0.16029,0.19316 0.4471,0.42459 0.63682,0.58302 0.33622,0.28077 0.67874,0.55355 1.02115,0.82668 0.56533,0.44931 1.11596,0.91678 1.72228,1.31078 0.46893,0.2184 0.91376,0.46724 1.33424,0.76831 0.36569,0.25664 0.65642,0.59398 0.93584,0.9382 0.41339,0.52018 0.75071,1.09309 1.16194,1.61543 0.39326,0.50396 0.78165,1.01362 1.15545,1.53254 0.34017,0.45672 0.68519,0.90485 0.99148,1.38571 0.28655,0.41336 0.53347,0.84056 0.71209,1.31094 0.14978,0.4652 0.3051,0.92564 0.42076,1.40055 0.0776,0.38679 0.19661,0.76321 0.29679,1.1444 0.10528,0.41674 0.202,0.83545 0.31695,1.2497 0.12225,0.39482 0.22901,0.79433 0.36813,1.18364 0.12895,0.36162 0.33228,0.69071 0.53535,1.0145 0.17982,0.29302 0.39197,0.56135 0.61787,0.81945 0.24601,0.23561 0.46543,0.49281 0.68731,0.75 0.17587,0.18768 0.36171,0.37517 0.48392,0.60386 0.15067,0.30664 0.21649,0.6491 0.26618,0.98491 0.0378,0.2263 0.0498,0.45413 0.0593,0.68297 0.018,0.14844 0.0163,0.0741 0.002,0.16102 -0.001,0.005 -0.004,0.0197 -0.003,0.0148 0.007,-0.032 0.01,-0.0651 0.0201,-0.0961 0.006,-0.0177 0.0461,-0.0454 0.0277,-0.0487 -7e-5,-1e-5 -0.1402,0.0961 -0.14987,0.10161 -0.17726,0.0774 -0.30463,0.22537 -0.45699,0.33867 -0.16951,0.11147 -0.32659,0.24098 -0.49945,0.34722 -0.20072,0.10682 -0.41253,0.19367 -0.63079,0.25731 -0.25865,0.0472 -0.50067,0.14815 -0.74685,0.23633 -0.20087,0.041 -0.39273,0.10767 -0.59482,0.14259 -0.113,-5.2e-4 -0.25097,0.0736 -0.36031,0.0508 -0.13276,-0.0271 -0.2637,-0.0504 -0.39306,-0.0913 -0.20683,-0.0528 -0.41295,-0.10767 -0.61373,-0.18056 -0.14042,-0.051 -0.23022,-0.17212 -0.34152,-0.26705 -0.10009,-0.0915 -0.19322,-0.18869 -0.28522,-0.2882 -0.14221,-0.16935 -0.27168,-0.33752 -0.44608,-0.47582 -0.29868,-0.22284 -0.59031,-0.4555 -0.86968,-0.70216 -0.14351,-0.1173 -0.22609,-0.28377 -0.33646,-0.42965 -0.14218,-0.13424 -0.17131,-0.293 -0.22947,-0.47306 -0.0947,-0.16967 -0.12354,-0.35901 -0.18594,-0.53946 -0.0393,-0.0692 -0.005,-0.0297 -0.0468,-0.14563 -0.0554,-0.13504 0.037,0.0735 -0.26732,-0.19378 -0.028,-0.0246 0.074,0.0151 0.10668,0.0329 0.0243,0.0133 0.0328,0.051 0.0596,0.0579 0.002,5.3e-4 -0.003,-0.008 -0.066,-0.11715 -0.13983,-0.19059 -0.29433,-0.36956 -0.4431,-0.55311 -0.20287,-0.2437 -0.38151,-0.50348 -0.55047,-0.77128 -0.14548,-0.29743 -0.29792,-0.58738 -0.47377,-0.86831 -0.17593,-0.27068 -0.36238,-0.5356 -0.56782,-0.78477 -0.22886,-0.25864 -0.48736,-0.48495 -0.76224,-0.69265 -0.23218,-0.20111 -0.4719,-0.39109 -0.72377,-0.56714 -0.24815,-0.17238 -0.46714,-0.38069 -0.69518,-0.5777 -0.10047,-0.0983 -0.22127,-0.18261 -0.30395,-0.29794 -0.0636,-0.0676 -0.11165,-0.14155 -0.15067,-0.2218 -0.046,-0.0625 -0.26027,-0.28383 -0.35779,-0.26192 -0.0884,0.0199 -0.16224,0.0809 -0.24336,0.12131 0,0 -2.7e-4,0.0566 -2.7e-4,0.0566 v 0 c 0.0157,0.13327 0.0463,0.22323 0.14478,0.31963 0.003,0.003 1.4e-4,-0.007 2e-4,-0.0109 0.0564,0.11196 0.11792,0.2177 0.20233,0.31166 0.10991,0.13633 0.23745,0.25657 0.36874,0.37225 0.23954,0.21204 0.46968,0.43613 0.73342,0.61883 0.24651,0.17368 0.4776,0.36392 0.70609,0.56031 0.24186,0.1823 0.46477,0.385 0.66643,0.61161 0.18949,0.23008 0.35857,0.47716 0.52226,0.72601 0.17251,0.28529 0.32199,0.57927 0.4721,0.87673 0.1806,0.28606 0.36855,0.5656 0.58584,0.82563 0.13087,0.16142 0.26069,0.32411 0.39387,0.48342 0.0393,0.0674 0.0888,0.17163 0.14509,0.2166 0.27074,0.21634 0.16223,0.0378 -0.0158,-0.0866 0.0124,0.0488 0.0213,0.0999 0.0461,0.14369 0.0666,0.17034 0.0826,0.36039 0.1787,0.5211 0.0729,0.2325 0.13724,0.46415 0.31519,0.64143 0.13437,0.17191 0.23382,0.37231 0.41174,0.50717 0.2901,0.25236 0.59136,0.49192 0.90258,0.71777 0.15514,0.1118 0.25025,0.27511 0.38096,0.41254 0.1071,0.11536 0.21568,0.22899 0.3325,0.33464 0.16082,0.13341 0.29657,0.29993 0.50594,0.36171 0.20792,0.074 0.41975,0.13646 0.63451,0.18755 0.16046,0.05 0.32391,0.0745 0.4888,0.10507 0.17674,0.0123 0.34339,-0.0276 0.51711,-0.0608 0.23009,-0.0418 0.44978,-0.11407 0.67724,-0.16739 0.23808,-0.0835 0.46955,-0.18448 0.71926,-0.23046 0.26271,-0.0781 0.51893,-0.17936 0.7589,-0.31259 0.18619,-0.11664 0.35834,-0.25268 0.53932,-0.37709 0.13613,-0.10579 0.24997,-0.23972 0.40609,-0.31693 0.14872,-0.0945 0.30798,-0.1917 0.33186,-0.37936 -0.006,-0.0705 2e-4,-0.14146 -0.0168,-0.21125 -0.0145,-0.24506 -0.0273,-0.48986 -0.0741,-0.73149 -0.0644,-0.3897 -0.14914,-0.78584 -0.33791,-1.13633 -0.14906,-0.24742 -0.34272,-0.46268 -0.54656,-0.66638 -0.22657,-0.25363 -0.45072,-0.50755 -0.69831,-0.74181 -0.21289,-0.23975 -0.41338,-0.48911 -0.58007,-0.76408 -0.18863,-0.29747 -0.37869,-0.59951 -0.49761,-0.93284 -0.13831,-0.37883 -0.24004,-0.76948 -0.36353,-1.15329 -0.11663,-0.41216 -0.21543,-0.82874 -0.32232,-1.24342 -0.10312,-0.37774 -0.22362,-0.7511 -0.29959,-1.1357 -0.12317,-0.49013 -0.28338,-0.96633 -0.4404,-1.44662 -0.19292,-0.49288 -0.45114,-0.94453 -0.75403,-1.37855 -0.31407,-0.48436 -0.66617,-0.93592 -1.01222,-1.39704 -0.37914,-0.52184 -0.77109,-1.03585 -1.17244,-1.54041 -0.41622,-0.52031 -0.75306,-1.09581 -1.17262,-1.61313 -0.30108,-0.3675 -0.61501,-0.72668 -1.0102,-0.99724 -0.42704,-0.30257 -0.87959,-0.55131 -1.35826,-0.76333 -0.60341,-0.37895 -1.14803,-0.83835 -1.71119,-1.27301 -0.34466,-0.26571 -0.68794,-0.53302 -1.02679,-0.80614 -0.17456,-0.1407 -0.442,-0.3495 -0.59612,-0.52051 -0.0751,-0.0834 -0.13463,-0.17965 -0.20194,-0.26948 -0.0308,-0.0815 -0.0742,-0.15927 -0.0924,-0.24446 -0.0592,-0.27693 0.0294,-0.35654 -0.0769,-0.64463 -0.26319,-0.71361 -0.91381,-1.18012 -1.49347,-1.61696 0,0 -0.11519,0.18597 -0.11519,0.18597 z" />
    <path
       style="fill:#000000;stroke-width:0.874001"
       id="path1922"
       d="m 118.63156,132.49875 c 0.19083,0.30565 0.43792,0.69095 0.61979,1.01469 0.0567,0.10094 0.0929,0.21302 0.15428,0.31117 0.0744,0.11896 0.27958,0.35808 0.33677,0.42801 0.33407,0.37746 0.61457,0.80135 0.98382,1.14627 0.3242,0.30342 0.65385,0.6019 1.01396,0.86224 0.34729,0.23949 0.63119,0.5538 0.94737,0.83048 0.23179,0.22659 0.43487,0.47865 0.63985,0.72896 0.20849,0.24293 0.40924,0.49231 0.6121,0.73991 0.1978,0.23977 0.42518,0.45226 0.6416,0.67477 0.21027,0.24422 0.44102,0.46807 0.67174,0.69254 0.21416,0.20503 0.42679,0.41117 0.65721,0.59798 0.25912,0.20064 0.42535,0.48766 0.61043,0.75302 0.16692,0.24388 0.30677,0.50765 0.43675,0.77306 0.11272,0.22698 0.26162,0.43844 0.41201,0.64231 0.11908,0.15918 0.24606,0.31221 0.36238,0.47341 0.0767,0.0851 0.11797,0.18451 0.14926,0.29405 -0.003,0.11144 0.0286,0.23332 0.008,0.34266 -0.0228,0.0828 -0.055,0.11102 -0.1,0.15989 -0.11671,0.11702 -0.18484,0.26798 -0.27655,0.40296 -0.12112,0.13593 -0.21752,0.28405 -0.29617,0.44822 -0.0792,0.14342 -0.19753,0.25634 -0.31106,0.37198 -0.0565,0.0583 -0.10713,0.1234 -0.16425,0.1809 -0.0129,0.013 -0.10693,0.0366 -0.11182,0.0383 -0.17967,0.0535 -0.34143,0.14887 -0.49807,0.2495 -0.1166,0.0653 -0.22198,0.14757 -0.33477,0.21819 -0.0775,0.0236 -0.1596,0.038 -0.2384,0.065 -0.0635,0.0138 -0.15115,0.007 -0.23327,0.0184 -0.17367,0.0161 -0.33587,0.0873 -0.49884,0.14477 -0.0835,0.0125 -0.006,0.005 -0.11825,-0.002 -0.12519,-0.0112 -0.24414,-0.0592 -0.35563,-0.11508 -0.0819,-0.0474 -0.16987,-0.0743 -0.24668,-0.12925 -0.14235,-0.13558 -0.31258,-0.21795 -0.48994,-0.29661 -0.19467,-0.0929 -0.39855,-0.14353 -0.61329,-0.15565 -0.13509,5.3e-4 -0.26847,-0.0162 -0.40309,-0.002 -0.10165,0.0175 -0.12841,0.0994 -0.2044,0.24046 0,0 0.0205,0.0528 0.0205,0.0528 v 0 c 0.09,0.12123 0.0782,0.21532 0.26352,0.16254 0.004,-0.001 -0.009,8e-4 -0.0133,0.001 0.0928,-0.0374 0.21761,0.0299 0.31428,0.006 0.1598,0.006 0.30627,0.0487 0.45152,0.11572 0.15313,0.066 0.29144,0.13561 0.4139,0.25319 0.0965,0.0652 0.19876,0.1107 0.30257,0.16217 0.1654,0.0819 0.34282,0.14686 0.52786,0.16298 0.10245,0.008 0.20443,0.0111 0.30326,-0.0243 0.13482,-0.0477 0.26801,-0.10987 0.41098,-0.12519 0.10504,-0.0168 0.21654,0.005 0.317,-0.0397 0.11369,-0.0397 0.23835,-0.0477 0.33986,-0.11827 0.10887,-0.0743 0.21763,-0.14853 0.33135,-0.21594 0.12885,-0.085 0.26316,-0.1605 0.41199,-0.20483 0.18071,-0.0714 0.32315,-0.17297 0.44085,-0.32861 0.14593,-0.15264 0.2973,-0.30193 0.3939,-0.49298 0.0683,-0.14468 0.15695,-0.26893 0.2626,-0.38945 0.0786,-0.11697 0.13921,-0.24621 0.23594,-0.34991 0.11353,-0.12452 0.18711,-0.25867 0.2144,-0.42717 0.0102,-0.16842 0.002,-0.34294 -0.0281,-0.5087 -0.0468,-0.15422 -0.11066,-0.3044 -0.21707,-0.4276 -0.11827,-0.16359 -0.24573,-0.31996 -0.367,-0.48134 -0.13828,-0.17787 -0.2664,-0.37111 -0.36937,-0.57137 -0.14203,-0.28406 -0.29196,-0.56734 -0.47293,-0.82843 -0.20887,-0.2994 -0.40286,-0.61728 -0.69712,-0.84179 -0.22055,-0.17738 -0.42333,-0.37473 -0.62691,-0.5711 -0.22793,-0.22174 -0.4571,-0.44104 -0.66386,-0.68327 -0.2082,-0.21406 -0.43009,-0.41487 -0.62132,-0.64482 -0.20477,-0.24693 -0.40585,-0.49697 -0.61794,-0.73777 -0.22371,-0.26446 -0.44567,-0.53101 -0.70314,-0.76413 -0.3306,-0.27892 -0.63773,-0.58795 -1.00404,-0.82134 -0.3584,-0.23962 -0.68187,-0.52514 -1.00647,-0.80803 -0.3789,-0.31268 -0.65415,-0.72428 -0.98546,-1.08406 -0.1078,-0.12087 -0.22811,-0.23156 -0.32402,-0.36206 -0.0717,-0.0976 -0.11563,-0.21304 -0.17772,-0.31709 -0.23871,-0.40004 -0.37428,-0.59715 -0.64377,-1.01059 0,0 -0.17998,0.11911 -0.17998,0.11911 z" />
    <path
       style="fill:#000000;stroke-width:0.874001"
       id="path1924"
       d="m 104.28891,138.29527 c -0.0849,0.59315 -0.2051,1.19132 -0.17931,1.79422 0.0117,0.27495 0.0556,0.54841 0.0687,0.82405 -0.008,0.75781 -0.073,1.5161 -0.16072,2.26877 -0.10637,0.75339 -0.26465,1.4985 -0.43279,2.24019 -0.13788,0.44826 -0.18166,0.90796 -0.22395,1.3716 -0.0497,0.40834 -0.0142,0.81172 0.0449,1.21616 0.0573,0.32346 0.1009,0.6492 0.16013,0.97232 0.0496,0.42568 0.20377,0.82822 0.27363,1.24893 0.0605,0.25367 0.0464,0.49553 -0.001,0.74734 -0.0236,0.18898 -0.0384,0.3793 -0.0464,0.56957 0.0462,0.26741 0.30351,0.45867 0.50211,0.62401 0.31627,0.19977 0.63189,0.40783 0.97724,0.55437 0.28911,0.0896 0.58261,0.14949 0.88543,0.13483 0.24169,-0.0453 0.48634,-0.0714 0.72856,-0.11338 0.16472,-0.0248 0.32767,-0.0344 0.49028,-0.0746 0.1562,-0.0577 0.29998,-0.14242 0.44467,-0.22354 0.15568,-0.0814 0.30537,-0.17143 0.45496,-0.2628 0.14221,-0.0901 0.28863,-0.1732 0.4343,-0.2572 0.10256,-0.0818 0.22047,-0.11511 0.33959,-0.16782 0.14815,-0.0685 0.30808,-0.0992 0.46061,-0.1562 0.18392,-0.0716 0.37452,-0.14674 0.52448,-0.27842 0.17341,-0.10478 0.32846,-0.23245 0.46574,-0.38211 0.11001,-0.17132 0.19445,-0.35806 0.27702,-0.54383 0.11596,-0.17086 0.15631,-0.37292 0.21666,-0.56672 0.0143,-0.0744 0.0299,-0.13767 0.0662,-0.19865 0.0653,-0.14525 0.11592,-0.29474 0.15612,-0.44818 0.0628,-0.18334 0.0939,-0.3738 0.13702,-0.5622 0.0399,-0.14423 0.0778,-0.28772 0.0943,-0.43655 0.0231,-0.1743 -0.005,-0.33339 -0.0636,-0.49936 -0.0447,-0.12273 -0.0772,-0.24806 -0.1015,-0.3762 -0.0156,-0.083 -0.0325,-0.16578 -0.0491,-0.24867 -0.005,-0.18009 -0.0475,-0.35419 -0.0872,-0.5288 -0.0697,-0.25967 -0.0833,-0.26783 -0.35149,-0.27389 0,0 -0.0332,0.0459 -0.0332,0.0459 v 0 c -0.0362,0.11501 -0.0613,0.20385 -0.0251,0.3238 0.0408,0.17011 0.0817,0.33881 0.0911,0.51449 0.0168,0.0837 0.0327,0.16737 0.0524,0.25041 0.0326,0.14656 0.0665,0.29241 0.12066,0.43294 0.0427,0.11282 0.0654,0.20124 0.0444,0.3232 -0.007,0.13012 -0.0553,0.25423 -0.0833,0.38087 -0.0447,0.18649 -0.0723,0.37545 -0.13675,0.5569 -0.0278,0.11656 -0.0694,0.22668 -0.11113,0.34081 -0.0521,0.0887 -0.0843,0.18258 -0.10296,0.28388 -0.0564,0.18107 -0.0915,0.36611 -0.20121,0.52529 -0.0638,0.14844 -0.13822,0.29159 -0.20552,0.43818 -0.12898,0.14783 -0.29211,0.25195 -0.4466,0.36909 -0.0885,0.0735 -0.26144,0.1514 -0.3879,0.20283 -0.15521,0.0656 -0.31937,0.10245 -0.47236,0.17389 -0.12664,0.0586 -0.26026,0.10359 -0.37192,0.1889 -0.14707,0.0875 -0.29994,0.16637 -0.4418,0.26284 -0.14365,0.0896 -0.28893,0.17505 -0.43789,0.25621 -0.11852,0.0645 -0.23478,0.13331 -0.35737,0.19023 -0.15398,0.0392 -0.30941,0.0455 -0.4654,0.0732 -0.22862,0.0422 -0.46057,0.0646 -0.68812,0.11339 -0.24922,0.0215 -0.48945,-0.042 -0.72935,-0.10501 -0.3162,-0.12753 -0.59729,-0.32802 -0.89124,-0.49805 -0.10432,-0.0855 -0.20638,-0.17442 -0.29991,-0.27192 -0.0219,-0.0229 -0.0382,-0.0512 -0.0621,-0.072 -0.003,-0.003 -0.006,0.007 -0.009,0.0102 -0.004,-0.004 -0.008,-0.007 -0.0115,-0.0111 0.006,-0.17413 0.0231,-0.34819 0.0391,-0.52166 0.0525,-0.29127 0.0599,-0.57445 -0.009,-0.86586 -0.0787,-0.42061 -0.22993,-0.82378 -0.28765,-1.24954 -0.0611,-0.31882 -0.10725,-0.64031 -0.16398,-0.95992 -0.0578,-0.38028 -0.0938,-0.75871 -0.0448,-1.14312 0.0409,-0.45061 0.0793,-0.89748 0.21212,-1.33384 0.16635,-0.75319 0.32455,-1.5097 0.42179,-2.27537 0.076,-0.76833 0.1374,-1.54189 0.12868,-2.31415 -0.008,-0.11121 -0.0134,-0.22267 -0.0243,-0.33364 -0.0158,-0.16027 -0.0548,-0.31787 -0.0674,-0.47843 -0.0461,-0.58998 0.0801,-1.17748 0.14947,-1.75954 0,0 -0.1967,-0.0316 -0.1967,-0.0316 z" />
    <path
       style="fill:#000000;stroke-width:0.874001"
       id="path1926"
       d="m 115.00073,141.05574 c 0.08,0.58214 0.1241,1.16509 0.12478,1.75089 0.0526,0.40898 0.0596,0.82146 0.0693,1.23313 0.006,0.30972 0.044,0.61803 0.0821,0.92511 0.0431,0.29999 0.11731,0.59318 0.19305,0.88615 0.0812,0.24754 0.14896,0.50013 0.23459,0.74619 0.0583,0.19953 0.13446,0.39514 0.21965,0.58478 0.11922,0.20316 0.23824,0.40702 0.38512,0.59117 0.21858,0.24484 0.54157,0.30991 0.8244,0.44821 0.17216,0.0766 0.35676,0.10888 0.54049,0.14243 0.0261,0.005 0.0523,0.009 0.0782,0.015 0.0125,0.003 0.0487,0.0158 0.0368,0.0112 -0.0233,-0.009 -0.0471,-0.0162 -0.0707,-0.0242 0.14618,0.18584 0.28364,0.37875 0.42795,0.56664 0.14852,0.18553 0.32293,0.34234 0.52551,0.46544 0.24515,0.15329 0.52018,0.15638 0.79821,0.16381 0.23237,-0.004 0.46316,0.0217 0.69548,0.0201 0.21326,-0.01 0.42022,-0.0625 0.62276,-0.12626 0.17172,-0.0321 0.29001,-0.14062 0.42233,-0.2391 0.11162,-0.0837 0.2233,-0.16703 0.34064,-0.24254 0.14851,-0.11579 0.2891,-0.24364 0.41383,-0.38471 0.13144,-0.20714 0.26987,-0.41146 0.37024,-0.63591 0.0831,-0.23388 0.1258,-0.47796 0.17522,-0.72018 0.013,-0.0952 0.038,-0.18806 0.0496,-0.28326 -1.2e-4,0.008 -0.005,0.0311 -2.7e-4,0.0245 0.0565,-0.077 0.11998,-0.25937 0.1612,-0.35118 0.0575,-0.16286 0.10825,-0.32799 0.18018,-0.48523 0.064,-0.16998 0.14067,-0.34006 0.16983,-0.52012 -0.003,-0.19969 -0.15991,-0.20251 -0.31427,-0.17897 0,0 -0.004,0.0565 -0.004,0.0565 v 0 c 0.022,0.0721 -0.076,0.0461 -0.11396,0.0124 -0.0609,0.14329 -0.0954,0.29647 -0.15876,0.43872 -0.0714,0.15789 -0.12893,0.32212 -0.18015,0.48753 -0.0696,0.15516 -0.14937,0.30706 -0.19902,0.46953 -0.0109,0.0791 -0.0386,0.16016 -0.0464,0.24142 -0.0375,0.21002 -0.0819,0.41901 -0.14417,0.62332 -0.0771,0.18452 -0.19581,0.34608 -0.29214,0.52083 -0.0931,0.11206 -0.2079,0.20572 -0.31594,0.303 -0.13212,0.0874 -0.25876,0.18175 -0.38355,0.2794 -0.0786,0.0699 -0.15084,0.13485 -0.2685,0.15878 -0.15924,0.0542 -0.32172,0.0995 -0.48992,0.11409 -0.22765,0.005 -0.4545,-0.0194 -0.68223,-0.009 -0.20718,-0.002 -0.40768,0.0127 -0.59354,-0.0971 -0.16002,-0.0898 -0.28803,-0.22124 -0.40791,-0.35883 -0.15194,-0.19776 -0.29648,-0.40087 -0.45759,-0.59119 -0.0451,-0.0313 -0.0869,-0.0679 -0.13518,-0.0939 -0.11249,-0.0606 -0.47132,-0.0359 -0.59099,-0.12292 -0.23809,-0.10088 -0.50599,-0.15339 -0.7023,-0.32956 -0.13368,-0.15464 -0.23507,-0.33416 -0.34467,-0.50648 -0.084,-0.1795 -0.15716,-0.36561 -0.21678,-0.5545 -0.0879,-0.2345 -0.14956,-0.47908 -0.23591,-0.71431 -0.0745,-0.27864 -0.14719,-0.55743 -0.18964,-0.84316 -0.0396,-0.297 -0.0821,-0.59474 -0.0923,-0.89452 -0.0196,-0.40956 -0.0299,-0.82097 -0.0906,-1.22702 -0.0231,-0.59494 -0.0611,-1.18896 -0.15323,-1.7793 0,0 -0.26644,0.0336 -0.26644,0.0336 z" />
    <path
       style="fill:#000000;stroke-width:0.874001"
       id="path1928"
       d="m 110.96932,150.92931 c 0.34583,0.11254 0.6845,0.22914 1.03534,0.32343 0.032,0.009 0.24548,0.0737 0.31979,0.0398 0.0434,-0.0198 0.0643,-0.0792 0.11052,-0.0912 0.0298,-0.008 -0.0349,0.0508 -0.0524,0.0762 0.31894,0.0691 0.63513,0.12974 0.9613,0.14746 0.24256,0.0213 0.48966,0.0462 0.71894,0.13241 0.17701,0.0674 0.34132,0.16221 0.51409,0.23889 0.16567,0.0545 0.34113,0.0527 0.51349,0.0536 0.13169,0.001 0.263,-0.025 0.38566,-0.0721 0.11437,-0.0449 0.22203,-0.0993 0.32245,-0.17018 0.14768,-0.0836 0.26297,-0.21361 0.3694,-0.3435 0.10563,-0.15085 0.18517,-0.31401 0.29863,-0.45907 0.11262,-0.11529 0.20017,-0.25043 0.28298,-0.38786 0.0535,-0.0769 0.0922,-0.16113 0.14914,-0.23549 0.10842,-0.11424 0.13153,-0.27156 0.17921,-0.41528 0.0426,-0.0824 0.0871,-0.1584 0.10507,-0.26122 0.0112,-0.064 -0.003,-0.10542 0.009,-0.0664 0.0558,-0.0991 0.034,-0.21813 0.0734,-0.32061 0.0118,-0.20384 0.0152,-0.40994 -0.012,-0.61249 -0.0109,-0.0508 -0.0214,-0.10121 -0.0218,-0.15261 -1.7e-4,-0.0212 -0.005,-0.0841 10e-4,-0.0636 0.001,0.005 -10e-4,0.0101 -0.002,0.0151 0.0175,-0.12279 0.003,-0.24594 0.008,-0.36997 0.006,-0.19702 0.005,-0.12797 -0.26824,-0.0836 0,0 0.047,0.0315 0.047,0.0315 v 0 c -0.20167,-0.0858 -0.18866,-0.1264 -0.19251,0.0348 -0.004,0.0898 -0.0112,0.19947 0.007,0.27814 -0.0278,0.12322 -0.016,0.25021 0.0125,0.37267 0.0272,0.14549 -0.0169,0.3022 0.0136,0.44502 0.002,0.007 0.007,-0.0123 0.0105,-0.0184 -0.0325,0.11228 -0.0277,0.2273 -0.0774,0.33444 -0.0318,0.16146 0.006,0.0796 -0.0811,0.24405 -0.0104,0.0196 -0.015,0.0417 -0.0225,0.0626 -0.0357,0.10636 -0.0414,0.22056 -0.12106,0.30272 -0.062,0.0873 -0.11154,0.17951 -0.16834,0.26991 -0.0726,0.12475 -0.15192,0.24451 -0.2528,0.34857 -0.11045,0.14548 -0.19745,0.30196 -0.29481,0.45577 -0.0777,0.10496 -0.16945,0.20213 -0.28283,0.26806 -0.0741,0.0526 -0.15157,0.0936 -0.23602,0.12791 -0.0755,0.0309 -0.15764,0.047 -0.2389,0.0496 -0.12088,-5.3e-4 -0.24197,-2e-4 -0.36216,-0.0149 -0.18432,-0.0778 -0.36283,-0.16975 -0.55357,-0.23198 -0.26659,-0.0786 -0.5442,-0.10935 -0.82146,-0.12015 -0.33534,-0.004 -0.6586,-0.0726 -0.99055,-0.11194 -0.0623,0.0281 -0.12257,0.0614 -0.18697,0.0843 -0.0316,0.0113 0.0565,-0.0373 0.088,-0.049 0.005,-0.002 0.0115,0.0142 0.006,0.0137 -0.42284,-0.041 -0.81684,-0.24098 -1.2252,-0.33769 0,0 -0.0774,0.23873 -0.0774,0.23873 z" />
    <path
       style="fill:#000000;stroke-width:0.874001"
       id="path1934"
       d="m 110.50389,150.71016 c 0.0759,0.0803 0.14828,0.19928 0.25173,0.24893 0.0257,0.0123 0.0738,0.0259 0.10291,0.0347 0.10093,0.0343 0.19394,0.0889 0.29692,0.11752 0.02,0.006 0.0405,0.009 0.0608,0.0134 0.0631,0.008 0.11992,0.007 0.17688,-0.0243 0.0179,-0.01 0.0333,-0.0237 0.0499,-0.0356 0,0 0.01,-0.0558 0.01,-0.0558 v 0 c -0.0161,-0.0176 -0.0297,-0.0378 -0.0483,-0.0527 -0.0415,-0.0333 -0.0877,-0.042 -0.138,-0.0505 -0.12137,-0.0294 -0.23155,-0.0894 -0.35155,-0.12336 -0.0149,-0.003 -0.0297,-0.008 -0.0448,-0.0104 -0.0116,-0.002 -0.0248,0.004 -0.0352,-0.001 -0.0786,-0.0417 -0.13018,-0.12119 -0.19597,-0.17789 0,0 -0.13503,0.11707 -0.13503,0.11707 z" />
    <path
       style="fill:#000000;stroke-width:0.874001"
       id="path1936"
       d="m 112.54998,151.10682 c -0.0394,-0.006 -0.17219,-0.0274 -0.22198,-0.0308 -0.0142,-0.001 -0.0592,-0.004 -0.077,0.0102 -0.0227,0.0184 -0.0421,0.0406 -0.0631,0.0609 0,0 -0.0165,0.0542 -0.0165,0.0542 v 0 c 0.006,0.0286 0.004,0.0605 0.0189,0.0859 0.009,0.0164 0.0307,0.0228 0.048,0.0305 0.0878,0.0387 0.18855,0.0189 0.2804,0.0341 0,0 0.0311,-0.2451 0.0311,-0.2451 z" />
    <path
       style="fill:#000000;stroke-width:0.874001"
       id="path1938"
       d="m 111.80645,137.959 c 0.0487,0.1647 0.0996,0.32876 0.14608,0.49409 0.0909,0.32314 0.1427,0.53167 0.2143,0.85123 0.0588,0.26235 0.10379,0.48763 0.18356,0.74597 0.18908,0.53531 0.40143,1.0598 0.56457,1.60412 0.18896,0.70834 0.37096,1.41878 0.53653,2.13297 0.15379,0.77708 0.29988,1.55608 0.40854,2.34088 0.11009,0.68506 0.2304,1.3685 0.35182,2.05165 0.18498,0.85524 0.25323,1.72679 0.35489,2.59376 0.11001,0.74463 0.20578,1.49138 0.31458,2.23615 0.14014,0.87683 0.31193,1.74756 0.48493,2.61832 0.12889,0.65421 0.242,1.31087 0.32199,1.97284 0.0441,0.39404 0.0862,0.78536 0.0663,1.18186 0.0184,0.0897 -0.0281,0.41465 0.0137,0.4859 0.006,0.0103 0.0222,0.009 0.0333,0.0136 0,0 0.32811,-0.002 0.32811,-0.002 v 0 c 0.011,-0.008 0.0272,-0.0108 0.033,-0.0229 0.0385,-0.0802 -0.0284,-0.359 -2.7e-4,-0.45548 0.0178,-0.41964 -0.0239,-0.83379 -0.0738,-1.25047 -0.0858,-0.67124 -0.20058,-1.33766 -0.33544,-2.00086 -0.17578,-0.86322 -0.34779,-1.72683 -0.491,-2.5962 -0.10856,-0.7417 -0.20895,-1.48457 -0.323,-2.22547 -0.10883,-0.87369 -0.18496,-1.7521 -0.37667,-2.61349 -0.12979,-0.6773 -0.25508,-1.35558 -0.3709,-2.0354 -0.12194,-0.79226 -0.27873,-1.57858 -0.44452,-2.36273 -0.17541,-0.71845 -0.37011,-1.43236 -0.57284,-2.14356 -0.17582,-0.5417 -0.39603,-1.06447 -0.59892,-1.59612 -0.0822,-0.24069 -0.13775,-0.47793 -0.19878,-0.72459 -0.0871,-0.35198 -0.12767,-0.49512 -0.237,-0.8565 -0.0501,-0.16568 -0.10319,-0.33045 -0.15478,-0.49568 0,0 -0.17817,0.0584 -0.17817,0.0584 z" />
    <path
       style="fill:#000000;stroke-width:0.874001"
       id="path1940"
       d="m 111.69805,137.85128 c -0.0473,0.40726 -0.14364,0.8195 -0.0905,1.23191 0.008,0.0624 0.0922,0.38125 0.10316,0.4343 0.0191,0.0925 0.0323,0.18613 0.0485,0.27919 0.112,0.67313 0.16143,1.35568 0.18383,2.03714 0.007,0.84537 0.0145,1.69081 0.006,2.53621 -0.012,0.97032 0.0442,1.94052 0.0971,2.90911 0.008,0.21768 0.0193,0.43527 0.0246,0.65305 0.009,0.38808 0.0117,0.74295 -0.006,1.12782 -0.0199,0.44124 -0.0644,0.88447 -0.0954,1.32482 -0.0745,0.91658 -0.0964,1.83596 -0.13952,2.75422 -0.0288,0.79006 -0.081,1.57688 -0.18358,2.36072 -0.089,0.63959 -0.10402,1.28625 -0.19054,1.92576 -0.0888,0.63135 -0.21071,1.25752 -0.35961,1.87728 -0.0303,0.10765 -0.0606,0.21529 -0.0908,0.32294 -0.0226,0.0781 -0.0459,0.156 -0.068,0.23423 -0.0143,0.0505 -0.0363,0.0997 -0.0411,0.15191 -0.005,0.0509 0.009,0.10193 0.0129,0.15289 0,0 0.0437,0.036 0.0437,0.036 v 0 c 0.0676,-0.0259 0.14674,-0.0319 0.20282,-0.0776 0.14495,-0.11835 0.20272,-0.58878 0.27102,-0.74103 0.15131,-0.63106 0.27531,-1.2684 0.36401,-1.91147 0.0859,-0.64022 0.10239,-1.28721 0.19175,-1.92737 0.10155,-0.79321 0.15493,-1.58917 0.18406,-2.38842 0.043,-0.91574 0.0662,-1.83245 0.1381,-2.74668 0.0307,-0.44539 0.0753,-0.89343 0.0952,-1.33964 0.0175,-0.39275 0.0153,-0.75369 0.004,-1.1497 -0.006,-0.21948 -0.0185,-0.43873 -0.0278,-0.6581 -0.0545,-0.96157 -0.11137,-1.9246 -0.1025,-2.88804 0.005,-0.85039 -0.008,-1.70081 -0.0235,-2.55102 -0.0319,-0.69537 -0.0952,-1.39084 -0.22253,-2.07581 -0.0201,-0.0988 -0.0371,-0.19824 -0.0603,-0.29631 -0.0308,-0.12953 -0.0862,-0.25323 -0.10768,-0.38463 -0.0639,-0.39087 0.0332,-0.78565 0.0691,-1.17328 0,0 -0.23087,-0.0404 -0.23087,-0.0404 z" />
    <path
       style="fill:#000000;stroke-width:0.874001"
       id="path1942"
       d="m 111.863,138.09546 c 0.11926,0.40165 0.21739,0.8107 0.36463,1.20363 0.0694,0.18517 0.16095,0.36277 0.24206,0.54289 0.0317,0.0775 0.0651,0.15422 0.095,0.23236 0.1139,0.2974 0.21681,0.59436 0.35529,0.88209 0.10443,0.21696 0.22124,0.42774 0.33189,0.64159 0.32487,0.68767 0.59085,1.40176 0.86804,2.10965 0.16224,0.47194 0.43626,0.88707 0.69216,1.31056 0.14726,0.24371 0.22057,0.37606 0.36021,0.62133 0.31734,0.6155 0.79038,1.12164 1.20598,1.66833 0.46162,0.68775 0.92072,1.37897 1.34919,2.088 0.28149,0.4951 0.54699,0.9988 0.76744,1.52408 0.0288,0.0798 0.0603,0.15864 0.0865,0.23932 0.0467,0.14402 0.082,0.29156 0.12778,0.43588 0.0533,0.16801 0.11944,0.33077 0.18437,0.4945 0.19204,0.47778 0.42584,0.93725 0.67049,1.38979 0.21769,0.41495 0.4693,0.8103 0.69072,1.2231 0.22947,0.46221 0.52745,0.88457 0.79079,1.32713 0.16136,0.30773 0.38586,0.57131 0.60651,0.83681 0.16552,0.23174 0.41222,0.37912 0.61312,0.5739 0.1104,0.10376 0.22692,0.22343 0.37223,0.27797 0.17462,0.0655 7.9e-4,-0.0604 0.14624,0.0614 0,0 0.0566,-0.003 0.0566,-0.003 v 0 c 0.0521,-0.14256 0.0893,-0.17472 0.0228,-0.34057 -0.0378,-0.0943 -0.2396,-0.21212 -0.306,-0.30173 -0.19213,-0.18115 -0.4216,-0.32196 -0.58275,-0.53566 -0.20758,-0.24978 -0.4202,-0.49584 -0.57393,-0.78442 -0.26793,-0.43309 -0.5619,-0.85048 -0.7972,-1.3031 -0.22944,-0.40851 -0.49317,-0.79671 -0.70874,-1.21331 -0.24352,-0.43558 -0.47169,-0.88069 -0.6577,-1.34433 -0.0611,-0.15409 -0.12488,-0.30677 -0.17508,-0.4649 -0.0478,-0.15063 -0.0856,-0.30436 -0.13499,-0.4545 -0.0284,-0.0864 -0.0621,-0.17099 -0.0932,-0.25649 -0.22811,-0.54179 -0.50288,-1.06129 -0.79487,-1.57132 -0.44011,-0.71656 -0.90562,-1.41842 -1.38256,-2.11086 -0.40966,-0.53251 -0.87783,-1.02272 -1.19136,-1.62347 -0.15012,-0.26023 -0.21148,-0.37014 -0.36977,-0.62971 -0.24728,-0.40547 -0.51263,-0.80203 -0.67135,-1.25398 -0.28318,-0.71764 -0.55584,-1.44152 -0.89203,-2.13637 -0.16219,-0.30755 -0.33191,-0.61122 -0.47368,-0.929 -0.0964,-0.21612 -0.1373,-0.34234 -0.23134,-0.5618 -0.0345,-0.0806 -0.0727,-0.15963 -0.10899,-0.23945 -0.0865,-0.16603 -0.18599,-0.33122 -0.25596,-0.50537 -0.1545,-0.38452 -0.24817,-0.79034 -0.37385,-1.18425 0,0 -0.22463,0.0634 -0.22463,0.0634 z" />
    <path
       style="fill:#000000;stroke-width:0.874001"
       id="path1944"
       d="m 115.11935,154.342 c -0.17857,0.66726 -0.32297,1.34392 -0.53148,2.00303 -0.10123,0.32003 -0.078,0.26523 -0.18506,0.45605 0,0 0.0443,0.0353 0.0443,0.0353 v 0 c 0.18071,-0.17396 0.13495,-0.10363 0.26054,-0.45551 0.23346,-0.65415 0.36014,-1.33997 0.54205,-2.0086 0,0 -0.13032,-0.0303 -0.13032,-0.0303 z" />
    <path
       style="fill:#000000;stroke-width:0.874001"
       id="path1946"
       d="m 114.79319,154.04841 c -0.0554,0.71721 -0.0755,1.04784 -0.15116,1.75514 -0.018,0.16817 -0.0403,0.33588 -0.0635,0.50341 -0.007,0.0507 -0.0254,0.1 -0.0271,0.1511 -10e-4,0.0276 0.0165,-0.0528 0.0247,-0.0792 0,0 -0.0526,0.0211 -0.0526,0.0211 v 0 c 0.10138,0.0918 0.11595,0.15709 0.17304,-0.0765 0.0406,-0.16625 0.0582,-0.33748 0.0778,-0.5075 0.074,-0.64406 0.0949,-1.11242 0.13603,-1.7629 0,0 -0.1171,-0.005 -0.1171,-0.005 z" />
    <path
       style="fill:#000000;stroke-width:0.874001"
       id="path1948"
       d="m 114.53172,153.97138 c -0.0136,1.05323 0.0772,2.11839 -0.048,3.16872 -0.0102,0.0858 -0.0378,0.16887 -0.0634,0.25139 -0.001,0.005 -0.0133,0.004 -0.0147,-2.6e-4 -0.008,-0.0258 -0.006,-0.0534 -0.009,-0.0801 0,0 -0.0524,0.0215 -0.0524,0.0215 v 0 c 0.0224,0.0371 0.0963,0.24964 0.20386,0.0945 0.12771,-0.18427 0.13229,-0.93925 0.13324,-0.97151 0.0249,-0.84366 -0.005,-1.64335 -0.0248,-2.48836 0,0 -0.12494,0.004 -0.12494,0.004 z" />
    <path
       style="fill:#000000;stroke-width:0.874001"
       id="path1950"
       d="m 114.76287,155.56723 c -0.0254,1.01956 -0.0196,1.29713 -0.10083,2.34322 -0.0209,0.26995 -0.074,1.19388 -0.21884,1.55427 0,0 0.0399,0.0402 0.0399,0.0402 v 0 c 0.25912,-0.16926 0.16752,-0.0659 0.23869,-0.58761 0.15131,-1.10915 0.15913,-2.23405 0.16417,-3.35101 0,0 -0.12304,8e-4 -0.12304,8e-4 z" />
    <path
       style="fill:#000000;stroke-width:0.874001"
       id="path1952"
       d="m 115.02042,155.74949 c -0.066,1.29326 -0.0962,2.61681 -0.46615,3.86864 0,0 0.0491,0.0283 0.0491,0.0283 v 0 c 0.0312,-0.0361 0.0741,-0.0649 0.0937,-0.1084 0.10738,-0.23815 0.20179,-0.76339 0.23224,-0.96296 0.14267,-0.9349 0.17998,-1.88156 0.20048,-2.82559 0,0 -0.10937,0 -0.10937,0 z" />
    <path
       style="fill:#000000;stroke-width:0.874001"
       id="path1954"
       d="m 115.04182,156.51271 c 0.0143,0.9328 -0.0178,1.86599 -0.0823,2.79654 -0.001,0.0198 -0.0609,1.13284 -0.15587,1.30562 0,0 0.0404,0.0397 0.0404,0.0397 v 0 c 0.0292,-0.0227 0.0743,-0.0336 0.0876,-0.0681 0.12999,-0.33727 0.17661,-0.97356 0.19758,-1.26901 0.0663,-0.93475 0.0535,-1.8749 0.0248,-2.81065 0,0 -0.11215,0.006 -0.11215,0.006 z" />
    <path
       style="fill:#000000;stroke-width:0.874001"
       id="path1956"
       d="m 115.30812,157.3269 c 0.0798,1.04994 0.0257,2.10661 -0.0811,3.15261 -0.0412,0.40339 -0.11264,0.99325 -0.21994,1.42098 0.0136,-0.0581 0.0272,-0.11614 0.0408,-0.17422 0,0 -0.0566,0.002 -0.0566,0.002 v 0 c 0.0174,0.0806 0.0348,0.16121 0.0522,0.24182 0.26232,-0.10893 0.14985,-0.0253 0.24605,-0.53432 0.19893,-1.05249 0.26822,-2.14143 0.25141,-3.21133 -0.005,-0.30841 -0.0374,-0.61575 -0.056,-0.92363 0,0 -0.17673,0.0265 -0.17673,0.0265 z" />
    <path
       style="fill:#000000;stroke-width:0.874001"
       id="path1958"
       d="m 115.62675,157.12809 c -0.07,1.05691 -0.1973,2.10877 -0.30703,3.162 0,0 0.0282,0.0194 0.0282,0.0194 v 0 c 0.15902,-0.13613 0.0687,-0.0385 0.12752,-0.46303 0.1247,-0.90023 0.2056,-1.80699 0.26062,-2.71392 0,0 -0.10928,-0.004 -0.10928,-0.004 z" />
    <path
       style="fill:#000000;stroke-width:0.874001"
       id="path1960"
       d="m 115.68081,155.14818 c 0.2584,1.22211 0.57656,2.43321 0.96414,3.62099 0.19522,0.59826 0.31098,0.88279 0.52499,1.44122 0.20106,0.45025 0.0987,0.26556 0.28297,0.56669 0,0 0.0525,-0.0213 0.0525,-0.0213 v 0 c -0.077,-0.34305 -0.0222,-0.14066 -0.18997,-0.59969 -0.59793,-1.64833 -1.11798,-3.325 -1.50583,-5.03612 0,0 -0.12879,0.0282 -0.12879,0.0282 z" />
    <path
       style="fill:#000000;stroke-width:0.874001"
       id="path1962"
       d="m 115.5633,156.42546 c 0.51495,1.4903 1.03035,2.98393 1.68623,4.41934 0.0897,0.1757 0.0267,0.18878 0.11268,0.15683 0,0 0.053,0.02 0.053,0.02 v 0 c 0.0856,-0.11162 0.0539,-0.0363 -0.009,-0.2451 -0.60257,-1.45463 -1.17395,-2.92134 -1.7207,-4.39788 0,0 -0.12222,0.0468 -0.12222,0.0468 z" />
    <path
       style="fill:#000000;stroke-width:0.874001"
       id="path1964"
       d="m 115.62365,157.44697 c 0.39404,1.07823 0.8105,2.15209 1.30839,3.1875 0.0874,0.18182 0.26452,0.56068 0.44249,0.74094 0.0134,0.0136 0.0378,0.005 0.0567,0.008 0,0 0.01,-0.0558 0.01,-0.0558 v 0 c 0.0944,-0.004 0.003,0.002 -0.1124,-0.22833 -0.0878,-0.17483 -0.17627,-0.34944 -0.2585,-0.52697 -0.48106,-1.03853 -0.91816,-2.0978 -1.31732,-3.17035 0,0 -0.12915,0.0449 -0.12915,0.0449 z" />
    <path
       style="fill:#000000;stroke-width:0.874001"
       id="path1966"
       d="m 115.42649,155.21506 c 0.52296,0.8893 0.95954,1.82276 1.3902,2.75858 0.0401,0.0872 0.32924,0.76035 0.4694,0.93343 0.0171,0.0212 0.0538,0.009 0.0806,0.0134 0,0 0.0157,-0.0544 0.0157,-0.0544 v 0 c -0.0104,-0.1261 0.003,0.0161 -0.15356,-0.32163 -0.0966,-0.20907 -0.18682,-0.42109 -0.28275,-0.63049 -0.4311,-0.94107 -0.88887,-1.87 -1.42469,-2.75694 0,0 -0.095,0.0581 -0.095,0.0581 z" />
    <path
       style="fill:#000000;stroke-width:0.874001"
       id="path1968"
       d="m 115.31648,153.96528 c 0.43985,1.04611 0.86949,2.09701 1.33942,3.13018 0.0946,0.20788 0.1865,0.41751 0.29656,0.61761 0.0417,0.0758 0.0815,0.16425 0.15683,0.20664 0.0377,0.0212 0.0794,-0.0343 0.11916,-0.0514 0.001,-0.0521 0.002,-0.10414 0.003,-0.15621 0,0 -0.0565,0.003 -0.0565,0.003 v 0 c 0.006,0.0358 0.0122,0.0716 0.0183,0.10742 0.0743,0.1148 -0.0766,-0.11786 -0.10464,-0.17396 -0.10149,-0.20308 -0.1936,-0.41073 -0.28694,-0.61768 -0.37954,-0.84154 -0.6045,-1.37363 -0.97802,-2.23019 -0.12879,-0.29534 -0.25869,-0.5902 -0.38804,-0.8853 0,0 -0.11897,0.0496 -0.11897,0.0496 z" />
    <path
       style="fill:#000000;stroke-width:0.874001"
       id="path1970"
       d="m 115.76177,154.32379 c 0.30557,0.96162 0.40516,1.30494 0.76742,2.30211 0.23132,0.63677 0.45612,1.23911 0.77542,1.83501 0.24561,0.45837 0.33594,0.5482 0.62221,0.91384 0.0546,0.0473 0.10922,0.0947 0.16383,0.14205 0,0 0.0437,-0.036 0.0437,-0.036 v 0 c -0.0347,-0.0609 -0.0693,-0.12186 -0.10399,-0.1828 -0.25037,-0.35761 -0.35054,-0.48205 -0.57496,-0.9088 -0.68354,-1.29978 -1.08446,-2.72565 -1.57633,-4.10252 0,0 -0.11731,0.0371 -0.11731,0.0371 z" />
    <path
       style="fill:#000000;stroke-width:0.874001"
       id="path1972"
       d="m 116.51947,156.3087 c 0.21828,1.02997 0.45007,2.0581 0.61114,3.09903 0,0 0.0293,-10e-4 0.0293,-10e-4 v 0 c 0.0333,-0.51009 0.0399,-0.26784 -0.10238,-1.02144 -0.12767,-0.67646 -0.29462,-1.42454 -0.44093,-2.09861 0,0 -0.0971,0.0223 -0.0971,0.0223 z" />
    <path
       style="fill:#000000;stroke-width:0.874001"
       id="path1974"
       d="m 115.11664,154.07271 c -0.10508,0.88932 -0.18131,1.78167 -0.27332,2.67231 -0.0353,0.34212 -0.0798,0.83506 -0.16672,1.19116 -0.0203,0.0833 -0.058,0.16144 -0.087,0.24216 -0.0243,0.0295 -0.0486,0.0591 -0.0728,0.0886 0,0 0.0375,0.0424 0.0375,0.0424 v 0 c 0.0431,-0.0301 0.0863,-0.0602 0.12944,-0.0904 0.0426,-0.085 0.0984,-0.16465 0.12778,-0.25512 0.10943,-0.33752 0.16574,-0.88395 0.1991,-1.20346 0.0931,-0.89128 0.14126,-1.78652 0.21901,-2.67911 0,0 -0.11295,-0.009 -0.11295,-0.009 z" />
    <path
       style="fill:#000000;stroke-width:0.874001"
       id="path1976"
       d="m 115.34525,156.76693 c 0.0154,0.8235 0.0401,1.80941 0.0309,2.63611 -0.003,0.25884 -0.01,0.51789 -0.0286,0.77605 -0.004,0.0611 0.0168,0.19802 -0.0415,0.17918 -0.063,-0.0203 -0.0108,-0.13187 -0.0162,-0.19781 0,0 -0.0329,0.009 -0.0329,0.009 v 0 c 0.033,0.0686 0.023,0.20012 0.0989,0.20572 0.0701,0.005 0.0778,-0.12232 0.0873,-0.19199 0.035,-0.25841 0.0395,-0.52031 0.0443,-0.78103 0.0153,-0.81922 -0.0193,-1.82437 -0.0398,-2.63967 0,0 -0.10245,0.004 -0.10245,0.004 z" />
    <path
       style="fill:#000000;stroke-width:0.874001"
       id="path1978"
       d="m 115.23602,155.87358 c 0.011,1.09758 -0.0184,2.19429 -0.14108,3.28587 -0.0534,0.47511 -0.1277,0.9956 -0.26436,1.46241 -0.0162,0.0554 -0.0497,0.1041 -0.0746,0.15615 0.11556,-0.088 0.0878,-0.0282 0.0282,-0.19568 0,0 -0.0558,0.01 -0.0558,0.01 v 0 c 0.0138,0.25885 -0.0505,0.17246 0.18262,0.2665 0.0355,-0.064 0.0842,-0.12226 0.10661,-0.19193 0.13873,-0.43116 0.22286,-1.08039 0.26328,-1.49311 0.10755,-1.09835 0.11385,-2.20268 0.08,-3.30469 0,0 -0.12491,0.005 -0.12491,0.005 z" />
    <path
       style="fill:#000000;stroke-width:0.874001"
       id="path1980"
       d="m 114.83059,155.08907 c -0.0524,1.10067 -0.18856,2.19469 -0.31928,3.28801 -0.14055,1.17553 -0.0567,0.69133 -0.21949,1.50545 0,0 0.0554,0.0117 0.0554,0.0117 v 0 c 0.10666,-0.47939 0.23508,-1.03569 0.30475,-1.50104 0.0564,-0.37677 0.0886,-0.75683 0.12522,-1.13604 0.10457,-1.08184 0.10027,-1.1697 0.15493,-2.16651 0,0 -0.10155,-0.002 -0.10155,-0.002 z" />
    <path
       style="fill:#000000;stroke-width:0.874001"
       id="path1982"
       d="m 111.74659,157.11727 c 0.20589,2.07166 0.26763,4.15544 0.48543,6.22572 0.0169,0.11473 0.0337,0.22946 0.0506,0.34419 0,0 0.0566,-0.003 0.0566,-0.003 v 0 c 0.005,-0.11658 0.009,-0.23315 0.0136,-0.34973 -0.0766,-2.08284 -0.24379,-4.1619 -0.47243,-6.23342 0,0 -0.13378,0.0162 -0.13378,0.0162 z" />
    <path
       style="fill:#000000;stroke-width:0.874001"
       id="path1984"
       d="m 111.1454,158.99977 c 0.0622,0.38685 0.13447,0.77222 0.18672,1.16054 0.12242,0.90997 0.1863,1.60781 0.2261,2.51164 0.0109,0.24779 0.012,0.49598 0.0109,0.74401 -0.001,0.3039 -0.0964,0.34443 0.0627,0.22424 -0.009,-0.0508 -0.0174,-0.10155 -0.0261,-0.15233 0,0 -0.0564,0.005 -0.0564,0.005 v 0 c 0.002,0.0686 0.005,0.13723 0.007,0.20585 0.0439,0.003 0.11051,0.0484 0.13178,0.01 0.0477,-0.0865 0.0245,-0.19647 0.0256,-0.29525 0.003,-0.25033 -0.002,-0.50085 -0.0141,-0.75089 -0.0605,-1.23806 -0.20525,-2.47137 -0.4533,-3.68635 0,0 -0.10082,0.0235 -0.10082,0.0235 z" />
    <path
       style="fill:#000000;stroke-width:0.874001"
       id="path1986"
       d="m 111.0927,159.17757 c 0.0735,0.98468 0.10357,1.97302 0.18934,2.95685 0.0507,0.58129 0.008,0.42436 0.12257,0.74644 0,0 0.0565,-0.004 0.0565,-0.004 v 0 c 0.0645,-0.33581 0.0451,-0.17216 0.0109,-0.75584 -0.0579,-0.98631 -0.16011,-1.97024 -0.23232,-2.95548 0,0 -0.14694,0.0124 -0.14694,0.0124 z" />
    <path
       style="fill:#000000;stroke-width:0.874001"
       id="path1988"
       d="m 111.53499,157.78758 c 0.086,1.03847 0.21119,2.07316 0.331,3.10811 0.0578,0.49945 0.10997,1.00075 0.18887,1.49753 0.20173,-0.13015 0.14584,-0.0347 0.0576,-0.32672 0,0 -0.0558,0.01 -0.0558,0.01 v 0 c 0.0179,0.30784 -0.0666,0.23028 0.17013,0.29925 -0.0237,-0.50202 -0.10284,-1.006 -0.16498,-1.5035 -0.12913,-1.03398 -0.26626,-2.06693 -0.38924,-3.10167 0,0 -0.13761,0.0171 -0.13761,0.0171 z" />
    <path
       style="fill:#000000;stroke-width:0.874001"
       id="path1990"
       d="m 111.936,157.47617 c 0.11166,1.29245 0.16996,2.58844 0.22734,3.88413 0.0198,0.44633 0.016,0.89479 0.0671,1.33862 0.003,0.0304 0.021,0.0574 0.0315,0.0861 0.16119,-0.17861 0.13156,-0.0762 0.10395,-0.30242 0,0 -0.0566,0.002 -0.0566,0.002 v 0 c -0.0136,0.21668 -0.0499,0.12528 0.1105,0.27356 0.0141,-0.20886 0.007,-0.0572 -0.0147,-0.49309 -0.0148,-0.30478 -0.0295,-0.60958 -0.0457,-0.9143 -0.0688,-1.29811 -0.14368,-2.59651 -0.2855,-3.88915 0,0 -0.13788,0.0148 -0.13788,0.0148 z" />
    <path
       style="fill:#000000;stroke-width:0.874001"
       id="path1992"
       d="m 112.094,156.70553 c 0.13118,1.56131 0.26513,3.12246 0.50458,4.67162 0.12567,0.81302 0.0868,0.63701 0.24211,1.17181 0,0 0.0556,-0.0108 0.0556,-0.0108 v 0 c -0.0757,-0.76567 0.0258,0.20995 -0.15733,-1.17954 -0.20451,-1.55174 -0.35597,-3.11002 -0.53134,-4.66516 0,0 -0.11363,0.012 -0.11363,0.012 z" />
    <path
       style="fill:#000000;stroke-width:0.874001"
       id="path1994"
       d="m 111.84823,157.2718 c 0.0258,0.45152 0.0541,0.90291 0.0773,1.35457 0.0354,0.68989 0.11281,2.37803 0.13635,3.12997 0.01,0.30783 0.014,0.61582 0.0171,0.92378 0.004,0.42364 -0.11532,0.45112 0.11561,0.30825 -0.0321,-0.081 -0.0642,-0.16208 -0.0963,-0.24312 0,0 -0.0551,0.0132 -0.0551,0.0132 v 0 c 0.0116,0.10166 0.0232,0.20331 0.0348,0.30497 0.0563,0.001 0.14478,0.0541 0.16901,0.003 0.056,-0.11765 0.0165,-0.26032 0.0156,-0.39063 -0.002,-0.30918 -0.0129,-0.61828 -0.0251,-0.92723 -0.0587,-1.49723 -0.14287,-2.99433 -0.2764,-4.48685 0,0 -0.11285,0.01 -0.11285,0.01 z" />
    <path
       style="fill:#000000;stroke-width:0.874001"
       id="path1996"
       d="m 111.05663,158.29493 c 0.0133,0.38797 0.024,0.77603 0.0398,1.16391 0.0355,0.87378 0.0801,1.74717 0.11985,2.62077 0.0321,0.70465 0.0579,1.40873 0.12095,2.11133 0.0401,0.19441 -0.0191,0.1554 0.0788,0.19754 0,0 0.0306,-0.0174 0.0306,-0.0174 v 0 c 0.0728,-0.0457 0.0241,-0.005 0.008,-0.18941 -0.0469,-0.70223 -0.0765,-1.40522 -0.11097,-2.10816 -0.0706,-1.43927 -0.0566,-1.14678 -0.13542,-2.61911 -0.019,-0.38717 -0.0343,-0.77453 -0.0514,-1.1618 0,0 -0.10056,0.002 -0.10056,0.002 z" />
    <path
       style="fill:#000000;stroke-width:0.874001"
       id="path1998"
       d="m 111.41756,161.37545 c 0.007,0.25147 0.0142,0.50295 0.0213,0.75442 0,0 0.02,-1.8e-4 0.02,-1.8e-4 v 0 c 0.003,-0.25195 0.005,-0.50391 0.008,-0.75587 0,0 -0.0488,0.002 -0.0488,0.002 z" />
    <path
       style="fill:#000000;stroke-width:0.874001"
       id="path2000"
       d="m 110.95278,157.98506 c -0.58,0.85957 -1.21722,1.67795 -1.82684,2.5161 -0.12807,0.17608 -0.60704,0.84088 -0.76165,1.10163 -0.0429,0.0724 -0.0709,0.15272 -0.10633,0.22908 0.0112,0.0373 0.0224,0.0746 0.0335,0.11191 0,0 0.0564,0.006 0.0564,0.006 v 0 c 0.0163,-0.0139 0.0326,-0.0277 0.0489,-0.0416 0.84495,-1.3132 1.84534,-2.52014 2.67741,-3.84249 0,0 -0.12137,-0.0803 -0.12137,-0.0803 z" />
    <path
       style="fill:#000000;stroke-width:0.874001"
       id="path2002"
       d="m 111.30988,157.39818 c -0.7679,0.78864 -1.48617,1.62229 -2.18836,2.46926 -0.0651,0.0785 -0.74026,0.8962 -0.90968,1.13279 -0.0192,0.0268 -0.0271,0.0601 -0.0407,0.0902 0.28364,-0.0229 0.18031,0.0443 0.32264,-0.18077 0,0 -0.0438,-0.036 -0.0438,-0.036 v 0 c -0.18767,0.17716 -0.14713,0.0677 -0.10956,0.33246 0.17877,-0.17051 0.0338,-0.027 0.3619,-0.43726 0.20017,-0.25031 0.39978,-0.50108 0.60177,-0.74993 0.69096,-0.85126 1.3939,-1.69279 2.13768,-2.49881 0,0 -0.13198,-0.12194 -0.13198,-0.12194 z" />
    <path
       style="fill:#000000;stroke-width:0.874001"
       id="path2004"
       d="m 111.40221,157.78648 c -0.89878,1.32569 -1.88207,2.60651 -2.59148,4.04904 -0.009,0.0604 -0.0864,0.26462 0.0935,0.25527 0.046,-0.002 0.0553,-0.0736 0.0829,-0.11042 0,0 -0.0425,-0.0375 -0.0425,-0.0375 v 0 c -0.0746,0.0324 0.0139,0.21722 0.077,-0.001 0.44896,-0.87 0.96502,-1.70023 1.50117,-2.51903 0.1813,-0.27689 0.37292,-0.54693 0.55441,-0.8237 0.15788,-0.24078 0.30907,-0.48587 0.46361,-0.7288 0,0 -0.13877,-0.0838 -0.13877,-0.0838 z" />
    <path
       style="fill:#000000;stroke-width:0.874001"
       id="path2006"
       d="m 110.94308,159.17071 c -0.43078,0.67562 -0.84561,1.3612 -1.27178,2.03969 -0.30112,0.47942 -0.66673,1.07736 -1.02245,1.54236 -0.2164,0.23655 -0.2738,0.31777 -0.20285,0.21879 0.023,-0.0162 0.0459,-0.0325 0.0689,-0.0487 0,0 -0.0526,-0.0211 -0.0526,-0.0211 v 0 c -0.0109,0.0682 -0.0217,0.13635 -0.0325,0.20452 0.045,5.3e-4 0.0973,0.0258 0.13513,0.001 0.21032,-0.13558 0.60547,-0.75133 0.66397,-0.84019 0.64738,-0.98328 1.2256,-2.01078 1.84583,-3.01091 0,0 -0.13165,-0.0859 -0.13165,-0.0859 z" />
    <path
       style="fill:#000000;stroke-width:0.874001"
       id="path2008"
       d="m 111.19971,157.79144 c -0.39574,0.81429 -0.79603,1.6263 -1.20417,2.43444 -0.0597,0.11813 -0.12155,0.23514 -0.1792,0.35426 -0.0252,0.0521 -0.11888,0.12934 -0.0693,0.15918 0.0559,0.0336 0.11235,-0.0663 0.16852,-0.0994 0,0 -0.0544,-0.0158 -0.0544,-0.0158 v 0 c 0.0264,0.0697 0.009,0.18444 0.0791,0.20921 0.0544,0.0192 0.0568,-0.10058 0.0823,-0.15236 0.0585,-0.11869 0.11287,-0.23933 0.16952,-0.3589 0.38832,-0.81965 0.77741,-1.6391 1.13664,-2.4721 0,0 -0.12895,-0.0585 -0.12895,-0.0585 z" />
    <path
       style="fill:#000000;stroke-width:0.874001"
       id="path2010"
       d="m 111.0401,156.40719 c -0.46255,1.11359 -0.87687,2.24737 -1.35758,3.3535 -0.079,0.18176 -0.16298,0.36145 -0.25228,0.53837 -0.0279,0.0554 -0.12634,0.10191 -0.099,0.15754 0.0252,0.0513 0.11411,-0.007 0.17116,-0.0109 -0.005,-0.0397 -0.0104,-0.0795 -0.0157,-0.11921 0,0 -0.0538,-0.0176 -0.0538,-0.0176 v 0 c -0.0358,0.054 -0.0716,0.10803 -0.1074,0.16205 0.0624,0.0336 0.11864,0.11902 0.18711,0.10081 0.0695,-0.0185 0.0845,-0.11717 0.11644,-0.18157 0.0894,-0.18013 0.16908,-0.36502 0.24688,-0.55045 0.467,-1.1131 0.87255,-2.25071 1.31143,-3.37487 0,0 -0.1473,-0.0577 -0.1473,-0.0577 z" />
    <path
       style="fill:#000000;stroke-width:0.874001"
       id="path2012"
       d="m 111.29494,155.73337 c -0.36939,0.83768 -0.73135,1.67844 -1.10847,2.5127 -0.20288,0.44882 -0.4202,0.89163 -0.61282,1.34496 -0.0122,0.16097 -0.0301,0.10615 -0.005,0.17298 0,0 0.0421,0.0378 0.0421,0.0378 v 0 c 0.0875,-0.0337 0.0269,-0.005 0.15645,-0.12574 0.58007,-1.28294 1.13871,-2.57484 1.66171,-3.88229 0,0 -0.13451,-0.0604 -0.13451,-0.0604 z" />
    <path
       style="fill:#000000;stroke-width:0.874001"
       id="path2014"
       d="m 111.25679,156.39381 c -0.32806,0.85621 -0.51151,1.32869 -0.83019,2.18524 -0.0797,0.21415 -0.16118,0.4277 -0.23471,0.64404 -0.0228,0.0672 -0.0978,0.14995 -0.0542,0.20595 0.0379,0.0487 0.13886,0.002 0.17974,-0.0448 0.0482,-0.0546 0.032,-0.14202 0.048,-0.21303 0,0 -0.0526,-0.021 -0.0526,-0.021 v 0 c -0.0363,0.0597 -0.10396,0.10945 -0.10874,0.17914 -0.004,0.057 0.0312,0.16354 0.0863,0.14816 0.066,-0.0184 0.0488,-0.12807 0.0723,-0.19246 0.0781,-0.21437 0.15502,-0.42921 0.23254,-0.64381 0.52871,-1.46367 0.26108,-0.71824 0.79036,-2.20141 0,0 -0.12875,-0.046 -0.12875,-0.046 z" />
    <path
       style="fill:#000000;stroke-width:0.874001"
       id="path2016"
       d="m 111.32109,156.10426 c -0.43657,1.128 -0.89992,2.25694 -1.51089,3.30436 -0.12138,0.2081 -0.25923,0.40686 -0.4057,0.59814 -0.0874,0.11416 -0.29646,0.2639 -0.1657,0.16865 0.0104,-0.0195 0.0208,-0.039 0.0312,-0.0584 0,0 -0.0545,-0.0154 -0.0545,-0.0154 v 0 c -0.0137,0.0663 -0.0274,0.13252 -0.0411,0.19878 0.0529,0.0125 0.10947,0.0604 0.15875,0.0375 0.22257,-0.10374 0.62094,-0.79376 0.64766,-0.84027 0.60794,-1.05825 1.06786,-2.19716 1.49089,-3.33876 0,0 -0.15057,-0.0546 -0.15057,-0.0546 z" />
    <path
       style="fill:#000000;stroke-width:0.874001"
       id="path2018"
       d="m 110.4465,156.68937 c -0.50968,0.9469 -1.05866,1.8747 -1.67463,2.75684 -0.11452,0.16401 -0.23876,0.32104 -0.36047,0.47979 -0.22598,0.29476 -0.14237,0.13481 -0.2381,0.34397 0,0 0.10013,0.0748 0.10013,0.0748 v 0 c 0.2572,-0.21558 0.46726,-0.52853 0.65103,-0.79825 0.60904,-0.89391 1.14774,-1.83424 1.63942,-2.79715 0,0 -0.11738,-0.06 -0.11738,-0.06 z" />
    <path
       style="fill:#000000;stroke-width:0.874001"
       id="path2020"
       d="m 111.92054,155.80297 c 0.0382,1.1511 -0.0223,2.30552 0.0363,3.45613 0.015,0.29498 0.0409,0.58983 0.083,0.88217 0.0632,0.43871 0.003,0.41452 0.23089,0.29798 0,0 -0.0501,-0.0264 -0.0501,-0.0264 v 0 c 0.14862,0.15799 0.049,0.0787 0.0218,-0.28697 -0.0217,-0.29047 -0.0382,-0.58135 -0.0503,-0.87236 -0.0344,-0.82281 -0.0385,-1.57297 -0.063,-2.39802 -0.0105,-0.35326 -0.0265,-0.70633 -0.0398,-1.05949 0,0 -0.1688,0.007 -0.1688,0.007 z" />
    <path
       style="fill:#000000;stroke-width:0.874001"
       id="path2022"
       d="m 111.81319,156.06891 c 0.0927,1.08929 0.12107,2.18343 0.21004,3.27291 0.0185,0.2262 0.0389,0.45256 0.0731,0.67692 0.0146,0.0961 0.0246,0.19803 0.0731,0.28231 0.0153,0.0266 0.0614,0.003 0.092,0.005 0,0 -0.0213,-0.0525 -0.0213,-0.0525 v 0 c 0.11238,0.0837 0.0305,0.0366 0.005,-0.24867 -0.0201,-0.2246 -0.0366,-0.44952 -0.0534,-0.6744 -0.0363,-0.48723 -0.11818,-1.67978 -0.15387,-2.13395 -0.0299,-0.38043 -0.0643,-0.76049 -0.0965,-1.14074 0,0 -0.12823,0.0132 -0.12823,0.0132 z" />
    <path
       style="fill:#000000;stroke-width:0.874001"
       id="path2024"
       d="m 111.33547,156.19735 c -0.31158,0.85606 -0.36794,0.97286 -0.64018,1.89739 -0.17153,0.58248 -0.31687,1.12751 -0.34694,1.73208 0,0 0.0561,0.008 0.0561,0.008 v 0 c 0.10703,-0.46222 -0.0253,0.0862 0.2322,-0.78376 0.27657,-0.93429 0.51418,-1.88111 0.84796,-2.79785 0,0 -0.14916,-0.0556 -0.14916,-0.0556 z" />
    <path
       style="fill:#000000;stroke-width:0.874001"
       id="path2026"
       d="m 119.50353,154.42567 c 0.30596,1.56155 0.71877,3.10268 1.19182,4.62152 0.0586,0.18823 0.43898,1.39692 0.65465,1.77493 0.0211,0.0371 0.074,0.0425 0.11097,0.0638 0.006,-0.092 0.0113,-0.18403 0.017,-0.27605 0,0 -0.0555,0.0115 -0.0555,0.0115 v 0 c 0.0359,0.0534 0.0717,0.10689 0.10755,0.16034 -0.15056,-0.16701 -0.0503,-0.05 -0.23028,-0.57078 -0.14018,-0.40572 -0.27559,-0.81318 -0.40299,-1.2231 -0.4702,-1.51279 -0.91224,-3.0386 -1.24699,-4.58769 0,0 -0.14623,0.0255 -0.14623,0.0255 z" />
    <path
       style="fill:#000000;stroke-width:0.874001"
       id="path2028"
       d="m 119.46562,153.68836 c 0.3659,1.87119 0.66954,3.75439 1.03944,5.62478 0.059,0.29825 0.10706,0.60013 0.19692,0.89058 0.0166,0.0535 0.084,0.16725 0.11617,0.12141 0.0673,-0.0959 0.029,-0.23247 0.0435,-0.34871 0,0 -0.0565,0.004 -0.0565,0.004 v 0 c 0.0295,0.10123 0.0493,0.20581 0.0885,0.3037 0.0146,0.0365 -0.007,-0.0784 -0.0138,-0.11705 -0.0546,-0.29754 -0.11618,-0.59375 -0.17118,-0.8912 -0.34747,-1.87892 -0.65743,-3.76551 -1.07572,-5.63064 0,0 -0.16735,0.0432 -0.16735,0.0432 z" />
    <path
       style="fill:#000000;stroke-width:0.874001"
       id="path2030"
       d="m 120.1397,154.1744 c 0.51005,1.54315 0.96637,3.10328 1.4568,4.65262 0.12106,0.38244 0.47645,1.55115 0.71371,2.02777 0.0599,0.12032 0.15796,0.2175 0.23694,0.32625 0.29761,0.0162 0.19315,0.0803 0.30778,-0.2013 0,0 -0.053,-0.02 -0.053,-0.02 v 0 c -0.0439,0.13684 0.002,0.10297 -0.11758,0.12612 -0.066,-0.10012 -0.14713,-0.19173 -0.19783,-0.30037 -0.23703,-0.50793 -0.56515,-1.58859 -0.70171,-2.01721 -0.49389,-1.55013 -0.96064,-3.10928 -1.49484,-4.64633 0,0 -0.15028,0.0525 -0.15028,0.0525 z" />
    <path
       style="fill:#000000;stroke-width:0.874001"
       id="path2032"
       d="m 120.27395,155.27689 c 0.49567,1.81928 0.95127,3.65486 1.57307,5.43705 0.29875,0.85627 0.10129,0.67317 0.53432,0.95417 0,0 0.0409,-0.0392 0.0409,-0.0392 v 0 c -0.36299,-0.76629 -0.64326,-1.72595 -0.88306,-2.50961 -0.14427,-0.47147 -0.97772,-3.35809 -1.12817,-3.87802 0,0 -0.13706,0.0356 -0.13706,0.0356 z" />
    <path
       style="fill:#000000;stroke-width:0.874001"
       id="path2034"
       d="m 120.65954,156.00651 c 0.47429,1.37252 0.96621,2.7392 1.4899,4.09371 0.089,0.23026 0.17927,0.4601 0.27428,0.68795 0.0362,0.0868 0.027,0.2744 0.11916,0.25562 0.0951,-0.0194 0.0275,-0.19222 0.0413,-0.28834 0,0 -0.0548,0.0143 -0.0548,0.0143 v 0 c 0.0567,0.0685 0.0991,0.25916 0.17008,0.20559 0.0734,-0.0554 -0.0701,-0.16992 -0.10421,-0.25529 -0.43991,-1.10238 -0.86062,-2.21204 -1.27156,-3.32554 -0.1766,-0.47851 -0.34888,-0.95861 -0.52332,-1.43792 0,0 -0.14083,0.0499 -0.14083,0.0499 z" />
    <path
       style="fill:#000000;stroke-width:0.874001"
       id="path2036"
       d="m 121.22779,156.15687 c 0.56766,1.33844 1.12027,2.69335 1.85226,3.95363 0.10578,0.18213 0.21454,0.36597 0.35597,0.52203 0.0423,0.0467 0.12696,0.10437 0.17696,0.0661 0.0574,-0.0439 0.0125,-0.14396 0.0188,-0.21594 0,0 -0.0559,0.009 -0.0559,0.009 v 0 c 0.0251,0.047 0.0845,0.0886 0.0752,0.14113 -0.007,0.0395 -0.0626,-0.052 -0.0851,-0.0852 -0.11517,-0.16933 -0.22769,-0.34103 -0.32668,-0.5203 -0.42104,-0.76254 -0.86131,-1.70634 -1.21198,-2.48646 -0.21594,-0.48039 -0.41877,-0.96657 -0.62816,-1.44986 0,0 -0.17131,0.066 -0.17131,0.066 z" />
    <path
       style="fill:#000000;stroke-width:0.874001"
       id="path2038"
       d="m 120.59246,154.22417 c 1.19773,1.04176 2.3705,2.12589 3.6714,3.04149 0.47314,0.333 0.97843,0.65101 1.52655,0.85074 0.11938,0.0435 0.24799,0.0555 0.37198,0.0832 0.0448,-0.006 0.0896,-0.0121 0.13438,-0.0181 0,0 -0.002,-0.0566 -0.002,-0.0566 v 0 c -0.0361,-0.004 -0.0723,-0.007 -0.10837,-0.0107 -0.36868,-0.12917 -0.54677,-0.17839 -0.92628,-0.39553 -0.75626,-0.43268 -1.35963,-0.89769 -2.04738,-1.44773 -0.92966,-0.74352 -1.6407,-1.37489 -2.53248,-2.14868 0,0 -0.0881,0.102 -0.0881,0.102 z" />
    <path
       style="fill:#000000;stroke-width:0.874001"
       id="path2040"
       d="m 120.86411,154.30106 c 1.23687,0.97017 2.48606,1.92441 3.73384,2.88043 1.05975,0.81195 0.57315,0.45918 1.33385,0.99711 0,0 0.0365,-0.0433 0.0365,-0.0433 v 0 c -0.61658,-0.61278 -0.32299,-0.34751 -1.26337,-1.09205 -1.23382,-0.97685 -2.48547,-1.93108 -3.73985,-2.88126 0,0 -0.10093,0.13912 -0.10093,0.13912 z" />
    <path
       style="fill:#000000;stroke-width:0.874001"
       id="path2042"
       d="m 120.52595,153.72058 c 1.54226,1.19378 3.28777,2.08297 4.96177,3.07222 0,0 0.0311,-0.0473 0.0311,-0.0473 v 0 c -0.16418,-0.11973 -0.32308,-0.24707 -0.49255,-0.35921 -1.44914,-0.95887 -3.04608,-1.69047 -4.41601,-2.7708 0,0 -0.0844,0.1051 -0.0844,0.1051 z" />
    <path
       style="fill:#000000;stroke-width:0.874001"
       id="path2044"
       d="m 121.24429,154.09552 c 1.19044,0.75493 2.31827,1.60291 3.51484,2.3485 0.59326,0.36967 0.38141,0.35883 0.7546,0.32521 0,0 0.01,-0.0558 0.01,-0.0558 v 0 c -0.22114,-0.14111 -0.44963,-0.27054 -0.66993,-0.41296 -1.18619,-0.76683 -2.32561,-1.60294 -3.52581,-2.34841 0,0 -0.0836,0.14343 -0.0836,0.14343 z" />
    <path
       style="fill:#000000;stroke-width:0.874001"
       id="path2046"
       d="m 120.79567,154.71589 c 0.14989,0.2841 0.26912,0.58664 0.44968,0.85231 0.65834,0.96863 1.53945,1.84136 2.59235,2.37273 0.56146,0.28336 0.82756,0.31686 1.39343,0.44899 0.31858,0.005 0.25377,0.0927 0.29635,-0.13915 0,0 -0.0558,0.01 -0.0558,0.01 v 0 c 0.0991,-0.0986 0.0644,-0.0405 -0.18629,-0.0806 -0.47881,-0.13669 -0.85316,-0.2249 -1.31548,-0.45584 -1.02336,-0.51119 -1.86986,-1.33713 -2.52914,-2.26265 -0.17806,-0.24995 -0.30194,-0.53438 -0.45291,-0.80157 0,0 -0.19222,0.0559 -0.19222,0.0559 z" />
    <path
       id="path2048"
       style="fill:#000000;stroke-width:0.874001"
       d="m 121.03706,155.01121 -0.11731,0.12557 c 1.34637,1.23556 2.74419,2.41444 4.15065,3.58066 0.23227,0.1926 0.46603,0.38335 0.70022,0.57361 0.0106,-0.0556 0.023,-0.11073 0.0372,-0.16485 0.008,-0.0313 0.0168,-0.0613 0.0258,-0.0899 -0.31404,-0.25418 -0.58153,-0.47016 -0.61443,-0.49713 -1.41036,-1.15631 -2.80763,-2.32921 -4.18217,-3.52795 z" />
    <path
       style="fill:#000000;stroke-width:0.874001"
       id="path2050"
       d="m 122.00966,155.27111 c 0.41863,0.32144 1.31083,1.02409 1.7931,1.33493 0.13053,0.0841 0.27705,0.14037 0.41558,0.21055 0,0 0.0297,-0.0482 0.0297,-0.0482 v 0 c -0.7198,-0.53117 -1.43834,-1.06431 -2.13559,-1.62512 0,0 -0.10276,0.12789 -0.10276,0.12789 z" />
    <path
       style="fill:#000000;stroke-width:0.874001"
       id="path2052"
       d="m 120.77558,153.74508 c 1.20746,0.77488 2.41365,1.56011 3.69376,2.21249 0.13589,0.0692 0.84566,0.43638 1.14626,0.43263 0.0515,-5.3e-4 0.0796,-0.0653 0.11941,-0.098 0,0 -0.0235,-0.0515 -0.0235,-0.0515 v 0 c -0.16213,-0.069 -0.0323,-0.0155 -0.40004,-0.13216 -0.25024,-0.10421 -0.49652,-0.21848 -0.73777,-0.34208 -1.27329,-0.65235 -2.48187,-1.41975 -3.69332,-2.178 0,0 -0.10476,0.15667 -0.10476,0.15667 z" />
    <path
       style="fill:#000000;stroke-width:0.874001"
       id="path2054"
       d="m 121.84423,154.42507 c 1.6964,1.04019 0.84565,0.4954 2.55025,1.63753 0,0 0.0329,-0.0461 0.0329,-0.0461 v 0 c -1.64435,-1.25314 -0.80628,-0.67484 -2.5097,-1.74141 0,0 -0.0735,0.14995 -0.0735,0.14995 z" />
    <path
       style="fill:#f9f9f9;stroke-width:0.925156"
       d="m 403.33954,566.09105 c -0.1434,-0.26957 -0.32479,-3.01075 -0.4031,-6.09152 -0.18246,-7.17802 -1.11274,-17.51564 -1.90286,-21.14527 -0.39602,-1.81922 -2.92059,-10.56116 -4.04404,-14.00349 -0.52786,-1.6174 -1.27519,-4.28547 -1.66073,-5.92905 -0.38553,-1.64357 -0.94351,-3.60364 -1.23995,-4.3557 -0.29644,-0.75207 -0.82023,-2.74068 -1.16398,-4.41914 -0.555,-2.70992 -0.60325,-3.52392 -0.43077,-7.26719 0.10683,-2.31849 0.44034,-6.61004 0.74113,-9.53677 0.30079,-2.92673 0.62158,-6.70767 0.71287,-8.40209 0.22234,-4.12714 -0.31401,-13.84271 -0.87926,-15.92689 -0.53305,-1.9655 -0.39457,-2.53338 0.57271,-2.34847 0.59871,0.11445 0.69669,0.0301 0.69669,-0.60002 0,-0.40326 -0.11573,-1.13675 -0.25719,-1.62997 -0.21983,-0.76651 -0.17915,-0.92154 0.28007,-1.06729 0.60326,-0.19146 0.66539,-0.49032 0.25959,-1.24858 -0.22444,-0.41935 -0.10937,-0.66047 0.60006,-1.25741 0.48276,-0.40622 1.49273,-1.05021 2.24437,-1.4311 1.28299,-0.65014 1.59863,-0.68776 5.15728,-0.61464 l 3.79066,0.0779 0.14249,3.08077 c 0.1563,3.37943 0.53198,4.52561 2.48292,7.57542 0.80636,1.26055 1.29514,2.614 2.15791,5.97536 0.61349,2.39013 1.61794,5.607 2.23211,7.1486 0.61417,1.54161 1.55299,4.44663 2.08625,6.4556 0.53327,2.00898 1.29161,4.58963 1.68519,5.73477 0.78077,2.27165 1.20036,6.39235 1.21572,11.93923 l 0.009,3.09859 1.2539,2.50281 c 1.2609,2.51679 1.52162,3.57253 0.9669,3.91537 -0.18298,0.11308 -0.22905,0.60424 -0.11821,1.26028 0.10538,0.62375 -0.004,1.993 -0.26158,3.26208 -1.79834,8.87469 -2.2465,14.73025 -1.39992,18.29111 1.11122,4.674 1.07385,5.46302 -0.58155,12.27852 -0.81052,3.33706 -4.39557,10.96699 -5.79663,12.3368 -0.85743,0.83829 -2.76377,1.64414 -5.67463,2.39877 -2.18609,0.56674 -3.14945,0.55083 -3.47299,-0.0574 z"
       id="path2070"
       transform="scale(0.26458333)" />
    <path
       style="fill:#f9f9f9;stroke-width:0.925156"
       d="m 399.08559,576.00216 c -1.29891,-0.35032 -2.742,-1.12923 -4.43057,-2.39141 l -0.94354,-0.70528 0.18471,-2.03828 c 0.14202,-1.56724 0.055,-2.58448 -0.37662,-4.40175 -0.30873,-1.2999 -0.82893,-3.91667 -1.15601,-5.81503 -0.72088,-4.18391 -0.61725,-5.97578 0.71676,-12.39477 1.47694,-7.10669 1.77957,-11.02726 1.5431,-19.99079 -0.0555,-2.10258 0.0238,-3.27492 0.23574,-3.48687 0.17561,-0.17562 0.3193,-0.234 0.3193,-0.12974 0,0.10426 0.87067,3.18573 1.93482,6.84771 1.06415,3.66197 2.06981,7.35131 2.23479,8.19852 0.7827,4.01937 1.40012,11.2413 1.68906,19.75693 0.29801,8.78254 0.55158,9.34393 4.03779,8.93931 2.37849,-0.27605 7.07751,-1.90433 8.28632,-2.87134 0.72093,-0.57671 1.5872,-1.94933 3.08817,-4.89327 1.14739,-2.25044 2.16561,-4.0426 2.26271,-3.98259 0.0971,0.06 0.34047,0.79241 0.54081,1.62754 0.4012,1.67239 0.24505,2.7116 -0.97988,6.52113 -1.40924,4.38277 -2.46254,5.66437 -5.75474,7.00211 -0.97974,0.3981 -2.92238,1.39536 -4.31699,2.21613 -2.12692,1.25176 -2.94072,1.56316 -5.04857,1.93186 -1.38211,0.24175 -2.57594,0.43144 -2.65296,0.42153 -0.077,-0.01 -0.71341,-0.17264 -1.4142,-0.36165 z"
       id="path2072"
       transform="scale(0.26458333)" />
    <path
       style="fill:#f9f9f9;stroke-width:0.925156"
       d="m 470.51723,551.83075 c -0.23105,-0.0925 -1.14185,-0.60859 -2.02398,-1.14679 l -1.60389,-0.97855 1.04375,-0.81621 c 2.03175,-1.58883 2.02438,-1.57852 2.01421,-2.8204 -0.0155,-1.89134 -0.73263,-5.43531 -1.36363,-6.73878 -0.31793,-0.65675 -1.87428,-2.60145 -3.45855,-4.32153 -4.67987,-5.08107 -5.41056,-6.64345 -8.45898,-18.08738 -0.85402,-3.20602 -1.55276,-5.91175 -1.55276,-6.01273 0,-0.10098 0.72468,0.51582 1.6104,1.37066 0.88572,0.85485 2.4296,2.19624 3.43085,2.98087 2.144,1.68015 4.42721,4.01008 7.34016,7.49034 1.16036,1.38634 3.70905,4.07481 5.66375,5.97436 3.64107,3.53834 4.94253,5.11799 6.03824,7.32895 0.34352,0.69318 1.36686,2.28983 2.27408,3.54813 2.14892,2.98051 2.14344,3.27385 -0.12321,6.59648 -1.63852,2.40186 -1.94063,2.69217 -3.991,3.83506 -1.22006,0.68008 -2.72241,1.33075 -3.33856,1.44593 -2.35397,0.44006 -3.09432,0.51441 -3.50088,0.35159 z"
       id="path2074"
       transform="scale(0.26458333)" />
    <path
       style="fill:#f9f9f9;stroke-width:0.925156"
       d="m 447.58183,561.29218 c -1.68859,-1.80104 -2.29468,-2.2729 -2.91952,-2.2729 -1.14921,0 -1.74092,-0.4071 -2.75387,-1.89467 -0.49666,-0.72937 -1.46487,-2.0193 -2.15157,-2.86651 -0.68669,-0.84721 -1.42115,-1.95019 -1.63212,-2.45106 -0.6994,-1.66051 -1.1943,-4.72817 -1.48695,-9.21705 -0.15905,-2.43975 -0.35619,-5.00305 -0.43807,-5.69622 l -0.14888,-1.26031 1.11845,1.26031 c 1.20429,1.35704 1.87091,2.56043 2.84997,5.14483 0.66575,1.75734 1.51469,2.70055 6.86454,7.62671 3.21064,2.95637 3.35117,3.04211 6.16486,3.76174 1.98612,0.50796 2.25545,0.51575 4.12529,0.11938 1.10025,-0.23324 2.69227,-0.66349 3.53784,-0.95613 0.84556,-0.29264 1.57966,-0.48979 1.63133,-0.43812 0.0517,0.0517 -0.22072,1.08227 -0.60531,2.29022 -0.38458,1.20796 -0.83417,2.71188 -0.99907,3.34205 -0.42738,1.6332 -1.32786,2.84106 -3.20435,4.29819 l -1.63646,1.27074 -3.09256,0.10585 -3.09256,0.10585 z"
       id="path2076"
       transform="scale(0.26458333)" />
    <path
       style="fill:#f9f9f9;stroke-width:0.925156"
       d="m 434.83653,571.41237 c -0.086,-0.4236 -0.35223,-2.34558 -0.59165,-4.27106 -0.4023,-3.2353 -1.6608,-10.63348 -3.38264,-19.88496 -0.38703,-2.07951 -1.08425,-5.21089 -1.54938,-6.9586 -0.46513,-1.74772 -0.79592,-3.22744 -0.73509,-3.28827 0.0608,-0.0608 0.82768,1.69027 1.70409,3.89136 0.92099,2.31303 2.49939,5.53281 3.74006,7.62935 1.18061,1.99506 2.44522,4.25754 2.81025,5.02773 2.01114,4.24351 2.51521,5.0623 3.52039,5.71834 l 1.03742,0.67708 v 2.10373 c 0,2.6561 -0.30727,3.53134 -2.2902,6.52352 -2.31183,3.48848 -3.91392,4.55265 -4.26325,2.83178 z"
       id="path2078"
       transform="scale(0.26458333)" />
    <path
       style="fill:#f9f9f9;stroke-width:0.925156"
       d="m 431.8676,571.50186 c -0.53913,-0.19865 -1.98849,-0.44887 -3.2208,-0.55606 -1.23231,-0.10718 -2.61865,-0.25912 -3.08077,-0.33763 l -0.84021,-0.14277 -0.0571,-13.63503 c -0.0697,-16.66014 -0.42452,-25.23197 -1.19614,-28.89883 -0.86654,-4.11792 -0.66868,-5.22727 0.27474,-1.54038 0.43358,1.69442 1.22641,4.28509 1.76184,5.75706 1.2961,3.56312 3.06648,10.63038 3.96004,15.80831 0.39874,2.31057 1.16223,6.73952 1.69664,9.8421 0.53441,3.10258 1.16825,7.38764 1.40854,9.52237 0.24029,2.13473 0.49068,4.03886 0.55642,4.23141 0.14404,0.42185 0.004,0.41623 -1.26324,-0.0506 z"
       id="path2080"
       transform="scale(0.26458333)" />
    <path
       style="fill:#f9f9f9;stroke-width:0.925156"
       d="m 421.50502,569.90181 c -0.38509,-0.15663 -1.2043,-0.31096 -1.82045,-0.34296 -0.61616,-0.032 -1.08963,-0.17944 -1.05218,-0.32764 0.0375,-0.14819 0.50322,-1.49038 1.03503,-2.98262 0.53181,-1.49224 1.14831,-3.58954 1.37,-4.66065 0.4213,-2.03556 0.39606,-2.25213 -0.9009,-7.72912 -0.20428,-0.86264 -0.1122,-1.73733 0.42749,-4.06101 1.04681,-4.50712 1.13017,-6.6592 0.38975,-10.06253 -0.75619,-3.47582 -0.81532,-6.99776 -0.17938,-10.68346 0.7511,-4.35314 0.75288,-4.355 1.34162,-1.40035 0.43307,2.17345 0.59189,5.01981 0.86728,15.54387 0.514,19.6419 0.39041,27.05451 -0.45029,27.00898 -0.18029,-0.01 -0.64287,-0.14589 -1.02797,-0.30251 z"
       id="path2082"
       transform="scale(0.26458333)" />
    <path
       style="fill:#f9f9f9;stroke-width:0.925156"
       d="m 434.19741,545.76499 c -0.64151,-1.10523 -1.81644,-3.64402 -2.61096,-5.64176 -0.79451,-1.99774 -1.82822,-4.39233 -2.29712,-5.32133 -2.4878,-4.9288 -5.54326,-12.23624 -5.54371,-13.25832 -7e-5,-0.15788 3.47419,2.54373 5.27592,4.10259 2.01196,1.74076 3.48126,3.61681 4.7661,6.08555 0.88041,1.69167 0.88312,1.71037 1.27565,8.82 0.21634,3.91861 0.37246,7.1468 0.34693,7.17376 -0.0255,0.027 -0.5713,-0.85526 -1.21281,-1.96049 z"
       id="path2084"
       transform="scale(0.26458333)" />
    <path
       style="fill:#000000;stroke-width:0.874001"
       id="path2086"
       d="m 107.89468,121.45938 c 0.0779,0.0554 0.079,0.0555 0.14808,0.10686 0.0371,0.0276 0.0537,0.0454 0.10219,0.0557 -7.9e-4,1.1e-4 -0.004,-2e-4 -0.003,2.6e-4 0.0221,0.0159 0.0538,0.0186 0.0742,0.0369 0.0276,0.0169 0.0567,0.0308 0.0864,0.0436 0.0233,0.005 0.0446,0.0153 0.0658,0.0261 0.032,0.0167 0.067,0.0259 0.10069,0.0381 0.031,0.0105 0.0638,0.0133 0.0962,0.0159 0.0172,2.3e-4 0.0575,0.003 0.0675,-0.0161 0.0104,-0.0203 0.01,-0.0446 0.0148,-0.0669 0,0 0.004,-0.0565 0.004,-0.0565 v 0 c -0.0187,-0.0508 -0.0142,-0.0844 -0.0688,-0.0854 -0.0154,-0.001 -0.0311,-2.7e-4 -0.0458,-0.005 -0.0232,-0.006 -0.0462,-0.0135 -0.068,-0.0237 -0.0268,-0.0134 -0.0553,-0.0275 -0.0841,-0.0353 -0.0233,-0.007 -0.0359,-0.0141 -0.0588,-0.0272 -0.047,-0.0245 -0.0968,-0.0457 -0.14781,-0.0599 0.0118,0.008 0.0114,0.008 0.0376,0.0179 0.004,0.002 -0.008,-0.005 -0.0114,-0.008 -0.0626,-0.0445 -0.12419,-0.0904 -0.18798,-0.13319 0,0 -0.12196,0.17568 -0.12196,0.17568 z" />
    <path
       style="fill:#000000;stroke-width:0.874001"
       id="path2088"
       d="m 107.8618,121.38472 c 0.0185,0.0139 0.0384,0.0257 0.0573,0.0391 0.005,0.003 0.009,0.008 0.0138,0.0109 0.004,0.003 0.009,0.005 0.013,0.008 0.008,0.004 0.0164,0.009 0.0228,0.0162 0.001,0.002 0.002,0.003 0.004,0.005 0.006,0.005 0.0124,0.009 0.0185,0.0139 0.003,0.003 0.005,0.007 0.008,0.01 0.003,0.002 0.006,0.004 0.009,0.006 0.006,0.004 0.0117,0.008 0.0174,0.0125 0.001,0.001 0.002,0.002 0.004,0.004 0.003,0.002 0.005,0.004 0.008,0.005 0.0117,0.006 0.0225,0.014 0.0338,0.0207 0.008,0.004 0.015,0.007 0.0232,0.0111 0.008,0.004 0.018,0.004 0.026,0.008 2.2e-4,1.1e-4 -1.7e-4,5.3e-4 3e-5,7.9e-4 0.003,0.002 0.007,0.003 0.01,0.004 0.005,0.003 0.0103,0.004 0.0153,0.006 0.003,-0.001 10e-4,0.002 0.002,0.002 0.005,0.003 0.011,0.006 0.0165,0.008 0.01,0.005 0.0209,0.008 0.0313,0.0127 0.001,5.3e-4 0.003,7.9e-4 0.004,0.002 2.7e-4,2.6e-4 -2.2e-4,7.9e-4 -2.6e-4,0.001 0.004,0.002 0.008,0.005 0.012,0.007 0.0148,0.006 0.0112,0.005 0.0272,0.0111 0.003,10e-4 0.006,0.002 0.008,0.003 0.002,10e-4 -0.007,5.3e-4 -0.008,2.6e-4 0.0226,0.0121 0.006,0.004 0.028,0.0131 0.002,0.001 0.005,0.002 0.007,0.003 2.7e-4,2e-4 -10e-6,0.001 -2.6e-4,0.001 -0.003,-2.7e-4 -0.007,-0.002 -0.0103,-0.002 0.0223,0.0127 0.0105,0.007 0.031,0.0163 0.002,0.001 0.005,0.001 0.006,0.003 2.7e-4,5.3e-4 -0.009,7.9e-4 -0.009,0.001 2.6e-4,2.6e-4 5.3e-4,7.9e-4 10e-4,0.001 0.003,0.002 0.006,0.004 0.009,0.005 0.002,0.001 0.009,0.004 0.006,0.004 -0.003,-8e-4 -0.0107,-0.005 -0.008,-0.004 0.0107,0.006 0.0132,0.007 0.0239,0.0114 0.0179,0.007 0.0369,0.011 0.0563,0.0112 0.005,7e-5 0.0109,-7.9e-4 0.0163,-7.9e-4 0.002,-3e-5 -0.004,5.3e-4 -0.007,7.9e-4 0.003,-1.1e-4 0.006,-2.2e-4 0.009,-2.6e-4 0.003,-2e-4 0.002,-7e-5 7.9e-4,2e-5 0.006,-7.9e-4 0.0123,-7.9e-4 0.0182,-0.002 0.004,-10e-4 -0.009,8e-4 -0.0128,8e-4 -0.005,-3e-5 -0.0101,-5.3e-4 -0.0151,-10e-4 0.0119,0.005 -0.0491,-0.0132 -0.0363,-0.0124 0.0163,10e-4 0.033,0.016 0.0481,0.01 0.0125,-0.005 -0.0267,-0.007 -0.0385,-0.0137 -0.0107,-0.006 -0.0203,-0.0148 -0.0274,-0.0249 -0.002,-0.002 0.005,-0.002 0.007,-0.003 0.0149,0.005 0.0237,0.009 0.0401,0.0118 0.0138,0.002 0.0237,8e-4 0.0373,1.2e-4 0.005,-1.9e-4 0.009,7.9e-4 0.014,-5.3e-4 0.0152,-0.004 0.0299,-0.009 0.0448,-0.0138 0.0189,-0.0222 0.0119,-0.007 -0.0106,-0.0494 0,0 -0.064,-0.0617 -0.064,-0.0617 v 0 c -0.0233,-0.0401 -0.0299,-0.0255 -0.0148,-0.0459 0.0138,-0.004 0.0275,-0.009 0.0415,-0.0118 0.003,-8e-4 0.007,-1e-5 0.0103,-2.7e-4 0.004,-2.6e-4 0.007,-0.001 0.0106,-0.002 0.0134,-10e-4 0.0261,5.2e-4 0.0392,0.003 0.005,-0.0191 0.007,-0.0146 -0.0279,-0.035 -0.0126,-0.007 -0.0512,-0.004 -0.0411,-0.0149 0.0109,-0.0114 0.0305,0.009 0.0463,0.01 0.0141,5.3e-4 -0.0551,-0.0197 -0.0401,-0.0137 -0.007,-5.3e-4 -0.0139,-0.001 -0.0209,-0.002 -0.006,2.5e-4 -0.0127,0.001 -0.0191,8e-4 -0.004,-2.7e-4 0.008,-5.3e-4 0.0114,-10e-4 0.002,-5.3e-4 -0.004,-1e-5 -0.006,3e-5 -0.002,3e-5 -0.004,9e-5 -0.006,1.7e-4 -0.001,4e-5 -0.003,1.2e-4 -0.004,1.9e-4 0.0137,-2.4e-4 -0.008,5e-5 -0.006,7.9e-4 0.004,0.001 0.008,-7.9e-4 0.0115,-5.3e-4 0.0136,2.7e-4 0.0268,0.003 0.0393,0.008 0.003,0.002 0.012,0.006 0.009,0.005 -0.005,-0.003 -0.01,-0.005 -0.015,-0.008 -2.6e-4,-1.7e-4 -0.001,-2.5e-4 -0.001,6e-5 5.2e-4,8e-4 0.003,0.002 0.002,0.002 -0.003,-8e-4 -0.005,-0.002 -0.007,-0.003 -0.007,-0.003 -0.0179,-0.008 -0.025,-0.009 -0.004,-10e-4 -0.008,-0.002 -0.012,-0.002 -5.3e-4,-8e-5 -0.002,-9e-5 -0.002,5.3e-4 0.002,0.004 0.0106,0.004 0.0115,0.009 -0.004,-0.002 -0.0423,-0.0178 -0.0442,-0.0148 -0.002,0.004 0.0205,0.001 0.0109,0.007 -0.014,-0.006 -0.0315,-0.0131 -0.0468,-0.0156 -7.9e-4,-1.2e-4 -0.002,2.7e-4 -0.002,5.3e-4 -0.001,-1.7e-4 -0.002,-2.6e-4 -0.003,-5.3e-4 -0.016,-0.002 -0.0297,-0.0115 -0.0457,-0.0137 -0.005,-0.001 -10e-4,1e-5 -0.008,-0.003 -0.0122,-0.006 -0.0248,-0.0109 -0.0377,-0.0146 -0.0155,-0.006 -0.0312,-0.0116 -0.0476,-0.0149 -0.008,0.001 5.3e-4,5.3e-4 -0.0121,-0.002 -0.007,-0.001 -0.0139,10e-4 -0.0203,-0.004 -0.008,-0.002 -0.0169,-0.004 -0.0247,-0.008 -0.005,-0.002 -0.009,-0.005 -0.0133,-0.007 -0.005,-0.002 -0.0104,-0.002 -0.0156,-0.003 -0.0111,1e-5 -0.0215,-0.007 -0.0316,-0.0112 -0.003,-0.001 -0.006,-0.002 -0.008,-0.003 -0.002,-8e-4 -0.003,-0.002 -0.005,-0.003 -0.01,-0.004 -0.0207,-0.0134 -0.0285,-0.0192 -0.0263,-0.0195 -0.021,-0.0154 -0.0505,-0.0346 0,0 -0.0923,0.14149 -0.0923,0.14149 z" />
    <path
       style="fill:#000000;stroke-width:0.874001"
       id="path2090"
       d="m 108.33315,121.58209 c 0.0917,0.0151 0.0149,0.0118 0.11604,-0.0168 0.0109,-0.003 0.0226,-0.001 0.034,-0.002 0,0 0.0348,-0.0446 0.0348,-0.0446 v 0 c -0.0137,-0.0288 -0.0521,-0.11181 -0.0659,-0.12603 -0.0162,-0.0167 -0.042,-0.02 -0.063,-0.03 0,0 -0.0559,0.21956 -0.0559,0.21956 z" />
    <path
       style="fill:#000000;stroke-width:0.874001"
       id="path2094"
       d="m 116.4098,142.21839 c 0.0285,0.0643 0.0472,0.11021 0.0816,0.17222 0.0311,0.056 0.0446,0.0847 0.0966,0.11943 0.012,0.008 0.0268,0.0108 0.0402,0.0162 0,0 0.0527,-0.0207 0.0527,-0.0207 v 0 c 0.005,-0.0163 0.0136,-0.0319 0.0146,-0.049 0.004,-0.0639 -0.0149,-0.0966 -0.0448,-0.1532 -0.0336,-0.0636 -0.063,-0.10357 -0.10303,-0.16252 0,0 -0.13788,0.0776 -0.13788,0.0776 z" />
    <path
       style="fill:#000000;stroke-width:0.874001"
       id="path2096"
       d="m 116.27532,142.23088 c 0.0206,0.0369 0.046,0.0883 0.0774,0.11656 0.022,0.0198 0.0509,0.0304 0.0753,0.0472 0.013,0.009 0.0245,0.0199 0.0367,0.0299 0,0 0.0513,-0.024 0.0513,-0.024 v 0 c -8e-5,-0.0163 -10e-4,-0.0326 -2.4e-4,-0.0488 0.002,-0.0302 0.0106,-0.0602 0.008,-0.0903 -0.004,-0.0414 -0.0304,-0.0935 -0.0477,-0.13156 0,0 -0.20057,0.10111 -0.20057,0.10111 z" />
    <path
       style="fill:#000000;stroke-width:0.874001"
       id="path2098"
       d="m 107.55732,121.07062 c 0.0158,0.0288 0.031,0.0579 0.0437,0.0882 0.005,0.012 0.003,0.0114 0.009,0.0229 0.003,0.006 0.007,0.0118 0.01,0.0177 0.0112,0.0175 0.0228,0.0348 0.0344,0.052 0.004,0.007 0.009,0.0123 0.0138,0.0186 1.7e-4,2.4e-4 -7.9e-4,-5.3e-4 -7.9e-4,-1.9e-4 -1.7e-4,5.3e-4 7.9e-4,0.002 5.3e-4,0.001 -0.002,-0.001 -0.005,-0.006 -0.004,-0.004 0.002,0.004 0.004,0.007 0.007,0.0106 0.0117,0.0146 0.0243,0.0288 0.0388,0.0407 -7.9e-4,-2.7e-4 -0.003,-0.002 -0.002,-10e-4 2.6e-4,0.002 0.002,0.002 0.003,0.003 0.003,0.003 0.006,0.007 0.01,0.01 0.008,0.007 0.0162,0.0129 0.0246,0.0191 -0.005,0.004 -7.9e-4,5.3e-4 0.0139,0.0105 0.004,0.003 0.009,0.005 0.0127,0.008 0.003,0.002 0.005,0.004 0.007,0.006 0.007,0.005 0.0149,0.008 0.0224,0.0126 0.017,0.009 0.0345,0.0177 0.0508,0.0282 0.016,0.008 0.0313,0.0181 0.0475,0.0262 0.01,0.005 0.0196,0.009 0.0293,0.0135 0.003,2.4e-4 0.0156,0.009 0.0181,0.009 0.003,-1.5e-4 0.007,-2.6e-4 0.0103,-0.002 0.0265,-0.0126 0.0626,-0.0552 0.0742,-0.0665 0,0 0.0378,-0.0422 0.0378,-0.0422 v 0 c 0.0108,-0.0255 0.0257,-0.0496 0.0323,-0.0765 0.002,-0.01 -0.002,-0.0199 -0.006,-0.029 -0.009,-0.0219 -0.0341,-0.0285 -0.0533,-0.0383 -0.0182,-0.008 -0.0359,-0.0177 -0.0538,-0.0266 -0.0213,-0.0116 -0.0417,-0.026 -0.0649,-0.0337 -0.007,-0.002 -0.0126,-0.007 -0.0194,-0.009 -0.002,-7.9e-4 0.0113,0.0114 0.004,0.004 -0.003,-0.002 -0.005,-0.004 -0.008,-0.006 -0.001,-8e-4 -0.002,-0.002 -0.004,-0.003 -0.001,-8e-4 -0.002,-0.002 -0.003,-0.002 -0.001,-2.2e-4 0.002,0.001 0.002,0.002 4e-5,8e-4 -0.002,-5.3e-4 -0.002,-10e-4 -0.007,-0.005 -0.0127,-0.0121 -0.0199,-0.0171 -0.003,-0.002 -0.005,-0.005 -0.008,-0.007 -8e-4,-2.6e-4 -0.003,-0.001 -0.002,-7.9e-4 0.003,0.005 0.009,0.008 0.0108,0.0136 2.5e-4,0.001 0.002,0.004 7.9e-4,0.003 -0.006,-0.006 -0.01,-0.0134 -0.0162,-0.019 -1.9e-4,-1.7e-4 0,7.9e-4 -2e-4,7.9e-4 -10e-4,-7.9e-4 -0.002,-0.002 -0.003,-0.003 -0.0101,-0.012 -0.0184,-0.0258 -0.0297,-0.0366 8e-4,0.002 0.004,0.007 0.002,0.006 -0.002,-0.001 -0.003,-0.004 -0.004,-0.007 -0.003,-0.006 -0.007,-0.0125 -0.01,-0.0186 -0.0137,-0.0244 -0.0233,-0.04 -0.039,-0.0642 -0.008,-0.0125 -0.0165,-0.0247 -0.0247,-0.0371 0,0 -0.19228,0.12348 -0.19228,0.12348 z" />
    <path
       style="fill:#f9f9f9;stroke-width:0.327092"
       d="m 455.04467,551.67215 c -0.95482,-0.22158 -2.32916,-0.59384 -3.07831,-0.83381 -0.90381,-0.28952 -0.91167,-0.29489 -1.98415,-1.35602 -0.59222,-0.58594 -1.43323,-1.44442 -1.86891,-1.90773 -0.43569,-0.46332 -1.37728,-1.29899 -2.09242,-1.85705 -2.9555,-2.30633 -3.58682,-3.20713 -4.66391,-6.65472 -0.34246,-1.09617 -0.72272,-1.88138 -0.91111,-1.88138 -0.11291,0 -2.38402,-2.82031 -3.06887,-3.81098 -0.28074,-0.4061 -0.87093,-1.41914 -1.31154,-2.25119 -1.28645,-2.42934 -2.74216,-4.52208 -4.03871,-5.80607 -0.83832,-0.8302 -3.24665,-2.81966 -4.95511,-4.0933 -1.48692,-1.10848 -3.37185,-2.78214 -3.84995,-3.41842 -0.37413,-0.49793 -0.37871,-0.51477 -0.33509,-1.2318 0.0827,-1.3591 -0.49483,-3.20387 -1.61031,-5.14389 -1.07181,-1.86408 -1.17869,-2.45795 -0.99606,-5.53455 0.0598,-1.00713 0.0401,-1.70522 -0.0798,-2.83097 -0.0875,-0.82181 -0.15917,-2.02607 -0.15917,-2.67613 0,-2.12641 -0.4145,-4.30544 -1.28807,-6.77133 -0.27976,-0.78968 -0.8391,-2.71611 -1.24299,-4.28096 -0.85896,-3.328 -1.25093,-4.58733 -1.99611,-6.41316 -1.01232,-2.48034 -1.78673,-4.6976 -2.00587,-5.74314 -0.11986,-0.57183 -0.34792,-1.45329 -0.5068,-1.9588 -0.15888,-0.5055 -0.46493,-1.65023 -0.6801,-2.54384 -0.44374,-1.84284 -0.66224,-2.3332 -1.91423,-4.29589 -0.464,-0.72741 -1.1164,-1.86366 -1.44976,-2.525 l -0.60612,-1.20245 -0.0995,-1.63382 c -0.0547,-0.8986 -0.12481,-1.87125 -0.15575,-2.16144 -0.0309,-0.29018 -0.0268,-0.72387 0.009,-0.96375 l 0.0654,-0.43615 0.66257,0.33357 c 0.36441,0.18347 0.85329,0.39068 1.0864,0.46048 0.83807,0.25094 3.3506,2.59183 4.06575,3.78801 0.62967,1.0532 0.80303,1.61247 0.80561,2.59902 0.005,1.9777 0.76553,3.19491 3.35116,5.36474 2.04844,1.71903 8.18702,6.59888 9.34166,7.42613 0.62566,0.44826 1.73578,1.12058 2.46694,1.49404 2.66554,1.3615 4.4214,2.57776 5.83637,4.04277 1.24526,1.28928 2.0006,2.24855 3.69147,4.6881 0.77353,1.11603 2.07275,2.89839 2.88715,3.96079 5.26253,6.86504 8.41387,11.37463 9.49823,13.59203 0.65833,1.34622 1.53784,3.89483 2.12685,6.16314 0.16971,0.65353 0.53726,2.05713 0.81679,3.11911 0.27954,1.06199 0.70476,2.73295 0.94495,3.71324 0.92229,3.76424 2.04109,7.33572 2.76068,8.81275 0.9786,2.00867 2.47112,4.19854 3.90858,5.73477 1.19334,1.27533 3.14266,3.45616 3.639,4.07118 0.53082,0.65774 0.95032,1.49935 1.20443,2.41635 0.26591,0.95956 0.57547,2.91152 0.6449,4.06642 l 0.0565,0.94069 -0.7178,0.47771 c -0.39479,0.26274 -1.20794,0.85287 -1.80701,1.3114 -1.27042,0.97238 -2.24387,1.50403 -3.41618,1.86575 -0.46291,0.14283 -1.46549,0.45827 -2.22794,0.70098 -2.03446,0.64762 -2.64001,0.79873 -4.35686,1.08725 -0.10892,0.0183 -0.28716,0.0126 -0.39608,-0.0127 z"
       id="path2100"
       transform="scale(0.26458333)" />
    <path
       style="fill:#b3b3b3;stroke-width:0.346173"
       d="m 71.025329,165.19115 c -0.64697,-0.17731 -1.656162,-0.49644 -1.806305,-0.5712 -0.100084,-0.0498 -0.269357,-0.0906 -0.376164,-0.0906 -0.227774,0 -0.437425,-0.40418 -0.437425,-0.8433 0,-0.21723 -0.05133,-0.30945 -0.172262,-0.30945 -0.151588,0 -0.163806,-0.10376 -0.101825,-0.86457 0.03874,-0.47551 0.184049,-1.28899 0.322916,-1.80772 0.138867,-0.51874 0.304424,-1.29685 0.367906,-1.72914 0.186052,-1.26694 0.25454,-4.64653 0.123367,-6.0876 -0.06511,-0.71527 -0.167185,-2.12576 -0.226838,-3.13442 -0.05965,-1.00866 -0.200467,-2.70635 -0.31292,-3.77265 -0.340206,-3.2259 -0.423934,-6.20822 -0.316275,-11.26555 0.08326,-3.91101 0.138457,-4.92919 0.363599,-6.70692 0.580569,-4.58423 0.634351,-5.39201 0.481435,-7.23091 -0.180025,-2.16493 -0.108714,-4.29189 0.171048,-5.10175 0.286099,-0.8282 1.105959,-2.14799 1.838637,-2.95979 1.001057,-1.10916 3.616325,-2.68003 4.461857,-2.68003 1.168948,0 3.518707,1.11074 6.407303,3.02876 1.410518,0.93657 2.356821,1.83923 3.141906,2.997 0.312674,0.4611 0.88229,1.23921 1.265812,1.72913 0.733205,0.93661 1.891633,2.55297 2.072584,2.89188 0.100814,0.18882 0.05703,0.20022 -0.81117,0.21118 -0.797655,0.0101 -0.98937,0.0506 -1.46522,0.30956 -0.30112,0.16389 -0.664128,0.4366 -0.806691,0.60602 l -0.259199,0.30804 -0.06482,-0.25082 c -0.134241,-0.51947 -1.197874,-2.48494 -1.808704,-3.34229 -1.884138,-2.64453 -2.956915,-3.42236 -5.71241,-4.14186 -1.25404,-0.32745 -1.58255,-0.37574 -2.261693,-0.33244 -0.921144,0.0587 -1.52442,0.31956 -1.925129,0.8324 -0.146476,0.18746 -0.518046,0.65991 -0.825712,1.04989 -0.322694,0.40903 -0.74908,1.14068 -1.007681,1.72913 l -0.448292,1.02007 -0.155234,2.30551 c -0.144229,2.14209 -0.14229,2.37718 0.02738,3.31663 0.246216,1.36333 0.166388,2.84668 -0.219112,4.07147 -0.251153,0.79795 -0.288163,1.12008 -0.355193,3.09148 -0.06777,1.9933 -0.05189,2.35873 0.168566,3.87744 0.355193,2.44694 0.455679,4.10279 0.383233,6.31512 -0.03915,1.1957 -0.01254,2.7425 0.06805,3.95486 0.08372,1.25935 0.143306,5.0723 0.162145,10.37478 0.01897,5.33671 0.06917,8.53495 0.13816,8.79991 0.122264,0.46958 0.124102,0.46132 -0.08963,0.40275 z"
       id="path2102" />
  </g>
</svg>
