<?xml version="1.0" encoding="UTF-8" standalone="no"?>
<!-- Created with Inkscape (http://www.inkscape.org/) -->

<svg
   width="350"
   height="350"
   viewBox="0 0 92.604165 92.604167"
   version="1.1"
   id="svg2450"
   xmlns="http://www.w3.org/2000/svg"
   xmlns:svg="http://www.w3.org/2000/svg">
  <defs
     id="defs2447" />
  <g
     id="g17494"
     transform="translate(-47.36259,-68.407496)">
    <path
       style="fill:#d1d1d1;fill-opacity:1;stroke:#000000;stroke-width:0.874001;stroke-opacity:1"
       id="path3864"
       d="m 120.93413,143.46108 c -3.37334,3.19946 -10.63055,-14.69517 -14.31985,-11.86584 -3.6893,2.82932 11.71101,14.479 7.74618,16.90719 -3.96484,2.42819 -7.34295,-16.58426 -11.53988,-14.58381 -4.196936,2.00045 8.44474,16.59746 4.0617,18.14825 -4.38305,1.55079 -3.73443,-17.74854 -8.255567,-16.66439 -4.521135,1.08414 4.809407,17.99052 0.199711,18.59614 -4.60969,0.60561 0.0373,-18.13712 -4.610439,-18.01667 -4.647743,0.12046 0.963865,18.59732 -3.671007,18.2313 -4.634873,-0.36603 3.807407,-17.73303 -0.763816,-18.58153 -4.571222,-0.84849 -2.923797,18.39133 -7.381286,17.06965 -4.457488,-1.32167 7.411109,-16.55391 3.116192,-18.33427 -4.294918,-1.78037 -6.683677,17.38153 -10.768967,15.16198 -4.085291,-2.21955 10.69091,-14.65131 6.860005,-17.28574 -3.830904,-2.63442 -10.151446,15.6121 -13.685992,12.59167 -3.534546,-3.02044 13.503467,-12.10838 10.304005,-15.48173 -3.199463,-3.37335 -13.17555,13.16033 -16.004875,9.47103 -2.829324,-3.68931 15.725857,-9.03626 13.297669,-13.00109 -2.428188,-3.96484 -15.623818,10.13339 -17.624266,5.93646 -2.000448,-4.19693 17.260952,-5.5692 15.710161,-9.95225 -1.55079,-4.38304 -17.389251,6.66358 -18.473393,2.14245 -1.084143,-4.52114 18.041661,-1.85875 17.436045,-6.46844 -0.605617,-4.60969 -18.39469,2.90253 -18.515145,-1.74521 -0.120455,-4.64774 18.033862,1.93295 18.399889,-2.70193 0.366027,-4.63487 -18.596193,-0.98536 -17.747695,-5.55658 0.848497,-4.57123 17.237898,5.64015 18.55957,1.18266 1.321672,-4.45748 -17.984953,-4.83019 -16.204586,-9.125111 1.780366,-4.294918 15.688554,9.100861 17.908108,5.015571 2.219555,-4.08529 -16.587684,-8.463925 -13.953259,-12.294829 2.634425,-3.830904 13.453545,12.163819 16.473977,8.629279 C 80.50775,97.350742 63.021865,89.157544 66.395211,85.958082 69.768557,82.75862 77.025763,100.65325 80.715065,97.823921 84.404366,94.994597 69.004051,83.34492 72.968887,80.916731 76.933723,78.488543 80.31184,97.500986 84.50877,95.500538 88.705701,93.50009 76.064024,78.903081 80.447068,77.35229 84.830111,75.8015 84.181499,95.100825 88.702633,94.016683 93.223767,92.93254 83.89323,76.026158 88.502921,75.420542 c 4.609691,-0.605616 -0.0373,18.137119 4.61044,18.016664 4.647742,-0.120455 -0.963866,-18.597319 3.671007,-18.231293 4.634872,0.366027 -3.807407,17.733024 0.763815,18.581521 4.571227,0.848498 2.923797,-18.391322 7.381287,-17.06965 4.45749,1.321673 -7.41111,16.55391 -3.11619,18.334277 4.29492,1.780366 6.68367,-17.381536 10.76896,-15.161982 4.0853,2.219555 -10.69091,14.651311 -6.86,17.285736 3.8309,2.634424 10.15145,-15.612093 13.68599,-12.591662 3.53455,3.020432 -13.50347,12.10838 -10.304,15.481727 3.19946,3.37334 13.17555,-13.160329 16.00487,-9.471027 2.82933,3.689301 -15.72586,9.036254 -13.29767,13.001087 2.42819,3.96484 15.62382,-10.133389 17.62427,-5.936458 2.00045,4.196928 -17.26095,5.569198 -15.71016,9.952248 1.55079,4.38304 17.38925,-6.66358 18.47339,-2.14245 1.08414,4.52114 -18.04166,1.85875 -17.43604,6.46844 0.60561,4.60969 18.39469,-2.90254 18.51514,1.74521 0.12046,4.64774 -18.03386,-1.93295 -18.39989,2.70193 -0.36602,4.63487 18.59619,0.98536 17.7477,5.55658 -0.8485,4.57122 -17.2379,-5.64015 -18.55957,-1.18266 -1.32168,4.45748 17.98495,4.83019 16.20458,9.12511 -1.78036,4.29492 -15.68855,-9.10086 -17.90811,-5.01557 -2.21955,4.08529 16.58769,8.46392 13.95326,12.29483 -2.63442,3.8309 -13.45354,-12.16383 -16.47397,-8.62928 -3.02043,3.53455 14.46545,11.72774 11.0921,14.92721 z" />
    <path
       style="fill:#000000;fill-opacity:1;stroke:#000000;stroke-width:0.874001;stroke-opacity:1"
       id="path5259"
       d="m 57.381237,209.09806 4.218735,4.90913 -5.389234,-3.58517 3.682481,5.32322 -4.984958,-4.12887 3.10588,5.67898 -4.526067,-4.62731 2.495251,5.97252 -4.017587,-5.07506 1.857283,6.20063 -3.465089,-5.46722 1.198966,6.3608 -2.874626,-5.79947 0.527513,6.45128 -2.25267,-6.06818 -0.149719,6.47109 -1.606032,-6.27041 -0.825311,6.41998 -0.941798,-6.40393 -1.491862,6.29855 -0.267245,-6.4673 -2.142066,6.1081 0.410235,-6.4598 -2.768802,5.85073 1.083221,-6.38153 -3.365202,5.52926 1.744339,-6.23334 -3.924733,5.14721 2.386345,-6.01687 -4.441262,4.70877 3.002206,-5.73446 -4.909133,4.21873 3.585174,-5.38923 -5.323218,3.68248 4.128863,-4.98496 -5.678981,3.10588 4.627314,-4.52607 -5.972524,2.49525 5.075068,-4.01758 -6.20063,1.85728 5.467218,-3.46509 -6.360801,1.19897 5.799469,-2.87463 -6.451283,0.52751 6.068179,-2.25266 -6.471082,-0.14972 6.270405,-1.60604 -6.419982,-0.82531 6.403931,-0.94179 -6.298545,-1.49187 6.467295,-0.26724 -6.108099,-2.14207 6.459801,0.41024 -5.850732,-2.7688 6.381532,1.08322 -5.529261,-3.36521 6.233346,1.74434 -5.147212,-3.92473 6.016865,2.38635 -4.708769,-4.44127 5.734464,3.00221 -4.218735,-4.90913 5.389234,3.58517 -3.682481,-5.32322 4.984958,4.12886 -3.10588,-5.67898 4.526067,4.62732 -2.495251,-5.97253 4.017587,5.07507 -1.857283,-6.20063 3.465089,5.46722 -1.198966,-6.3608 2.874626,5.79947 -0.527512,-6.45128 2.252669,6.06817 0.149719,-6.47108 1.606032,6.27041 0.825312,-6.41999 0.941797,6.40394 1.491862,-6.29855 0.267245,6.4673 2.142066,-6.1081 -0.410235,6.4598 2.768802,-5.85073 -1.083221,6.38153 3.365202,-5.52926 -1.744339,6.23334 3.924733,-5.14721 -2.386345,6.01687 4.441262,-4.70877 -3.002206,5.73446 4.909133,-4.21873 -3.585174,5.38923 5.323218,-3.68248 -4.128863,4.98496 5.678982,-3.10588 -4.627315,4.52606 5.972524,-2.49525 -5.075068,4.01759 6.20063,-1.85728 -5.467218,3.46509 6.360801,-1.19897 -5.799469,2.87463 6.451283,-0.52752 -6.068179,2.25267 6.471082,0.14972 -6.270405,1.60603 6.419982,0.82532 -6.403931,0.94179 6.298545,1.49186 -6.467295,0.26725 6.108099,2.14207 -6.4598,-0.41024 5.850731,2.7688 -6.381532,-1.08322 5.529261,3.3652 -6.233346,-1.74433 5.147213,3.92473 -6.016866,-2.38635 4.708769,4.44127 z"
       transform="matrix(0.63720433,0,0,0.60878041,65.522755,-6.1898384)" />
  </g>
</svg>
