<?xml version="1.0" encoding="UTF-8" standalone="no"?>
<!-- Created with Inkscape (http://www.inkscape.org/) -->

<svg
   width="350"
   height="350"
   viewBox="0 0 92.604165 92.604167"
   version="1.1"
   id="svg2450"
   xmlns="http://www.w3.org/2000/svg"
   xmlns:svg="http://www.w3.org/2000/svg">
  <defs
     id="defs2447" />
  <g
     id="layer1">
    <g
       id="g10096"
       transform="matrix(1.4187034,0,0,1.4187034,-121.5758,-96.985701)">
      <g
         id="g18359"
         transform="matrix(2.7614908,0,0,2.7614908,-49.270975,-137.48043)">
        <path
           id="path1572"
           style="fill:#000000;stroke-width:0.874001"
           d="m 52.890828,78.184375 c -0.0642,-0.0024 -0.189513,0.161731 -0.191202,0.241329 -0.0245,0.08636 -0.04477,0.175861 -0.05271,0.2651 -0.03899,0.123793 -0.05533,0.251263 -0.0708,0.379822 -0.0029,0.07355 -0.01815,0.171812 -0.03824,0.267684 -0.03084,0.164208 -0.05609,0.329149 -0.07131,0.495577 -0.02643,0.23235 -0.05934,0.464518 -0.07028,0.698148 1.83e-4,0.109215 -0.0034,0.218433 0.01395,0.326595 -0.0011,0.0053 -0.0066,0.01967 -0.0026,0.01602 0.0032,-0.0029 0.0065,-0.01087 0.0088,-0.01705 -0.02439,0.08064 -0.05289,0.159482 -0.0217,0.244429 0.0074,0.07409 0.0247,0.146702 0.02894,0.221175 0.01259,0.112287 0.03595,0.224853 0.07803,0.330213 0.02126,0.02834 0.01785,0.130251 0.03462,0.102319 0.0012,0.09842 0.01967,0.193343 0.03152,0.290939 0.0249,0.17769 0.04296,0.356381 0.08268,0.53175 0.05282,0.257096 0.109176,0.512209 0.0801,0.776697 -0.0232,0.370968 -0.05743,0.740994 -0.05323,1.11311 -0.03181,0.353512 -0.09991,0.700922 -0.144177,1.052649 -0.0303,0.352065 -0.06706,0.703432 -0.07958,1.056783 -0.02056,0.344347 -0.07106,0.684186 -0.109554,1.026811 -0.02379,0.329448 -0.05554,0.657891 -0.0832,0.98702 -0.03709,0.404535 -0.08279,0.808032 -0.147278,1.209228 -0.05656,0.486876 -0.04932,0.97222 -0.01292,1.460893 0.03655,0.557009 0.182434,1.091606 0.358634,1.620056 0.147026,0.465027 0.282343,0.943424 0.596346,1.328084 0.275495,0.345562 0.562373,0.687839 0.93586,0.932243 0.366887,0.216683 0.740907,0.424037 1.130681,0.596863 0.294203,0.139404 0.585583,0.289731 0.911055,0.343132 0.288446,0.04157 0.579222,0.04995 0.869198,0.077 0.165372,0.01056 0.33043,0.01372 0.496094,0.0098 0.169421,0.0016 0.338524,-0.0028 0.507979,5.17e-4 0.171214,0.0047 0.342692,0.02691 0.513147,0.04237 0.151857,0.03514 0.300008,0.0637 0.457336,0.04754 0.01709,5.3e-4 0.05089,0.01885 0.05116,0.0015 0.0011,-0.06657 -0.102333,-0.232345 -0.04806,-0.193787 0.08355,0.05935 0.08306,0.190801 0.151412,0.267168 0.02177,0.02432 0.06515,0.0081 0.09767,0.01085 0.212905,0.01797 0.468809,0.03156 0.673861,0.04393 l 0.02274,-0.354501 c -0.11046,-0.0087 -0.434642,-0.03243 -0.614433,-0.05064 -0.06112,-0.07798 -0.176127,-0.08801 -0.269234,-0.10852 -0.157797,0.0057 -0.282774,-0.01446 -0.432015,-0.04961 -0.194442,-0.02416 -0.390628,-0.05083 -0.586528,-0.06098 -0.172805,-0.0066 -0.345501,-0.0047 -0.518314,-0.0088 -0.157467,-0.0016 -0.314348,-0.0043 -0.471289,-0.01809 -0.278524,-0.03138 -0.559363,-0.03364 -0.836125,-0.07906 -0.283438,-0.05006 -0.534575,-0.187303 -0.791166,-0.309025 -0.377774,-0.168749 -0.741295,-0.367222 -1.098125,-0.576193 -0.325451,-0.221687 -0.576975,-0.524535 -0.821138,-0.82889 -0.280535,-0.343877 -0.394906,-0.774908 -0.527616,-1.190108 -0.161166,-0.49661 -0.310719,-0.996849 -0.344165,-1.519804 -0.03594,-0.463923 -0.04582,-0.924558 0.0067,-1.386995 0.06337,-0.404487 0.108777,-0.810913 0.146245,-1.218531 0.02877,-0.331658 0.05765,-0.663225 0.08165,-0.995288 0.03757,-0.344292 0.0893,-0.685547 0.11007,-1.031461 0.0099,-0.35033 0.04728,-0.69893 0.07545,-1.047998 0.04525,-0.350078 0.110014,-0.696699 0.144177,-1.048515 -0.0028,-0.375994 0.02885,-0.749725 0.05426,-1.124479 0.03132,-0.300127 -0.02488,-0.592384 -0.08475,-0.884701 -0.03713,-0.167986 -0.05378,-0.339264 -0.07958,-0.509013 -0.0065,-0.07817 -0.03212,-0.152862 -0.02429,-0.23151 0.01704,-0.08522 -0.0066,-0.17827 -0.03462,-0.262 -0.01296,-0.06933 -0.01936,-0.139224 -0.02325,-0.21394 -0.0011,-0.08744 -0.02329,-0.151476 -0.02377,-0.214457 0.0021,0.0636 -0.0043,0.0029 -0.0098,-0.04806 0.0037,-0.01621 0.0029,-0.01451 0.0124,-0.05168 0.01659,-0.144372 5.16e-4,-0.289436 5.16e-4,-0.434598 0.01087,-0.216463 0.042,-0.431488 0.0646,-0.646989 0.01159,-0.155061 0.03852,-0.307359 0.06718,-0.459921 0.0232,-0.111331 0.04107,-0.220966 0.04651,-0.334346 0.01247,-0.07139 0.01951,-0.14361 0.03669,-0.213941 0.0352,0.03595 0.07059,0.07182 0.10542,0.108004 0.130183,0.125691 0.276868,0.237557 0.429948,0.334347 0.128587,0.0757 0.258274,0.149486 0.389124,0.221175 0.09128,0.04242 0.169737,0.09344 0.24908,0.137976 0.04571,0.02524 0.09857,0.03588 0.141593,0.06563 0.05626,0.02684 0.102611,0.06519 0.158647,0.0925 0.107712,0.02482 0.04526,-0.0023 0.09922,0.04703 0.04097,0.04397 0.09395,0.0749 0.148828,0.09819 0.02139,0.01665 0.01321,-0.0014 -0.0041,-0.02739 0.01431,0.0067 0.03139,0.01384 0.05013,0.02119 0.0012,0.0033 0.0018,0.0052 0.0031,0.0088 0.0034,-0.0013 0.0069,-0.0024 0.01033,-0.0036 0.07993,0.0306 0.183148,0.06421 0.236161,0.08578 0.0092,0.0037 0.0369,-0.0062 0.0279,-0.01034 -0.03061,-0.01403 -0.05611,-0.02644 -0.08113,-0.03876 -0.01187,0.0073 -0.03719,0.01441 -0.04703,0.0078 -0.02311,-0.01575 -0.04492,-0.03385 -0.06563,-0.05271 0.01085,0.0028 0.02178,0.0052 0.03256,0.0083 l 0.02584,0.02791 c 0.0062,-0.0029 0.01239,-0.0059 0.0186,-0.0088 -0.0095,-0.0048 -0.01727,-0.009 -0.02584,-0.01344 0.01085,0.0032 0.0213,0.0073 0.03204,0.01085 0.03247,-0.01514 0.0651,-0.03003 0.09767,-0.04496 0.0388,0.01 0.05227,0.0035 0.06511,-0.03101 0.03605,-0.01694 0.07216,-0.0338 0.107487,-0.05219 0.0039,-0.0021 0.0029,-0.01368 -0.0016,-0.01344 -0.03441,0.002 -0.06578,0.0048 -0.09819,0.0072 0.02949,-0.01134 0.05872,-0.02291 0.08785,-0.03514 h 5.17e-4 v -5.17e-4 c 0.0019,-7.82e-4 0.0038,-0.0013 0.0057,-0.0021 0.0064,-0.0027 0.0022,-0.0216 -0.0047,-0.02015 -0.009,0.0019 -0.01786,0.0042 -0.02687,0.0062 -0.01035,-0.0065 -0.02065,-0.01312 -0.03101,-0.01964 -0.0039,-0.0095 -0.01,-0.02155 -0.01189,-0.02842 -0.01259,-8.26e-4 -0.02514,-0.0018 -0.03772,-0.0026 -0.01133,-0.0071 -0.02278,-0.01406 -0.03411,-0.02119 0.0015,0.0077 -0.0047,4.22e-4 -0.01137,-0.0078 -0.0082,-0.0051 -0.01662,-0.0098 -0.02481,-0.01499 0.0038,-0.0011 0.0069,-0.002 0.01085,-0.0031 -0.03129,-0.04289 -0.08642,-0.122696 -0.133325,-0.147278 l -5.17e-4,-5.17e-4 -5.16e-4,-5.16e-4 c -0.0069,-0.0059 -0.01,-0.0091 -0.02636,-0.02171 -0.0618,-0.0526 -0.148962,-0.122266 -0.236678,-0.134358 -0.03324,-0.02042 -0.07497,-0.04523 -0.07648,-0.04444 -0.05706,-0.035 -0.117348,-0.06288 -0.179834,-0.08682 -0.05801,-0.03557 -0.157849,-0.09476 -0.237195,-0.130225 -0.123806,-0.06565 -0.244342,-0.13746 -0.365869,-0.207223 -0.123613,-0.07452 -0.238056,-0.169045 -0.343649,-0.26665 -0.07823,-0.08045 -0.155805,-0.161602 -0.236678,-0.239262 -0.05222,-0.07194 -0.07739,-0.0939 -0.12609,-0.118856 0.03144,0.02387 0.03385,0.03588 0.04651,0.07183 -0.09685,-0.0666 -0.18392,-0.150263 -0.290422,-0.199988 -0.0037,-0.0017 -0.0076,-0.0024 -0.01189,-0.0026 z m 0.255799,0.130741 c -0.0056,-0.0042 -0.01031,-0.0082 -0.01809,-0.01344 -0.02128,-0.0144 -0.09462,-0.03974 -0.07131,-0.02894 0.03966,0.01839 0.06653,0.03065 0.0894,0.04237 z m 1.963187,1.397848 c 0.0052,0.0071 0.01047,0.01386 0.01395,0.01809 0.0038,0.0024 0.0076,0.0048 0.01137,0.0072 -0.0011,-0.0053 -0.0046,-0.01445 -0.01034,-0.02945 -0.0056,0.0017 -0.0096,0.0026 -0.01499,0.0041 z m 0.165882,0.114205 c 6.49e-4,4.08e-4 0.0014,6.58e-4 0.0021,0.001 -3.7e-5,-5e-4 3.7e-5,-9.5e-4 0,-0.0016 -0.001,1.73e-4 -9.67e-4,3.45e-4 -0.0021,5.17e-4 z m -0.258899,0.169498 c -0.002,9.46e-4 -0.0042,0.0016 -0.0062,0.0026 0.0111,0.0056 0.02327,0.01147 0.03566,0.01757 0.006,-0.0037 0.0092,-0.0072 0.0036,-0.0093 -0.01091,-0.0041 -0.02202,-0.0072 -0.03307,-0.01085 z m 0.06976,-0.277502 c 0.02101,0.01421 0.03887,0.02628 0.05891,0.03927 -0.01999,-0.0013 -0.03996,-0.0023 -0.05994,-0.0036 -0.0068,-0.0099 -0.01331,-0.02009 -0.02015,-0.02997 0.007,-0.0019 0.01387,-0.0036 0.02119,-0.0057 z m 0.07286,0.136943 c 0.0065,0.0022 0.01312,0.0044 0.01964,0.0067 -0.0046,3.44e-4 -0.0094,7.16e-4 -0.01395,0.001 -0.002,-0.0025 -0.0037,-0.0052 -0.0057,-0.0078 z m 0.02377,0.0078 c 8.72e-4,3.08e-4 0.0017,7.59e-4 0.0026,0.001 l 5.17e-4,5.16e-4 c -0.0034,3.85e-4 -0.0069,6.84e-4 -0.01034,10e-4 0.0024,-9.13e-4 0.0048,-0.0017 0.0072,-0.0026 z m -0.163814,0.0041 c -0.01472,0.004 -0.02923,0.0088 -0.04393,0.01292 -0.03307,0.0035 -0.04683,0.0051 -0.06925,0.0078 0.0075,0.002 0.0136,0.0037 0.02067,0.0057 -0.02172,0.0024 -0.0434,0.0047 -0.06511,0.0072 -0.0023,-0.0023 -0.0049,-0.0044 -0.0072,-0.0067 0.0096,-0.0012 0.03493,-0.0042 0.05168,-0.0062 -0.0021,-5.55e-4 -0.0036,-9.44e-4 -0.0057,-0.0016 -0.04946,0.0075 -0.04546,0.007 -0.04703,0.0072 -0.0083,-0.0083 -0.01635,-0.0167 -0.0248,-0.02481 0.02512,0.0059 0.05046,0.0119 0.07183,0.01757 0.02174,-0.0033 0.08638,-0.01403 0.118856,-0.01912 z m -0.07545,0.09664 c 0.0032,7.71e-4 0.0066,0.0012 0.0098,0.0021 l 0.0052,0.0057 c -0.0051,-0.0027 -0.01025,-0.0052 -0.01499,-0.0078 z" />
        <path
           id="path1580"
           style="fill:#000000;stroke-width:0.874001"
           d="m 60.399414,75.389197 c -0.01531,-2.12e-4 -0.0304,0.0011 -0.04393,0.0047 -0.04277,0.01122 -0.08167,0.0364 -0.125057,0.04496 -0.01971,0.0039 0.03483,-0.02041 0.05219,-0.03049 -0.0829,0.01916 -0.211399,0.06012 -0.294039,0.128158 -0.08316,0.05321 -0.171042,0.09857 -0.251147,0.156579 -0.106556,0.06946 -0.220735,0.124795 -0.331246,0.187586 -0.13235,0.07443 -0.26305,0.157465 -0.409277,0.202054 -0.01236,0.0024 -0.156258,0.01532 -0.111621,0.02842 0.0026,7.94e-4 -0.0052,-7.7e-4 -0.0078,-0.001 -0.0131,-0.0022 -0.04323,-0.0073 -0.06253,-0.01033 0.0053,0.0037 -0.113335,-0.0756 -0.115756,-0.08165 -0.106308,-0.08723 -0.208754,-0.179678 -0.326078,-0.252698 -0.116999,-0.06732 -0.241038,-0.12388 -0.366903,-0.172082 -0.189724,-0.01773 -0.240731,5.28e-4 -0.371036,0.155546 0.0018,-0.005 0.0029,-0.01002 0.0057,-0.01447 0.01259,-0.01987 0.0328,-0.03412 0.04651,-0.05323 0.05419,-0.07553 -0.127911,0.124696 -0.0739,0.07235 -0.01733,0.0191 -0.204914,0.23746 -0.08682,0.147277 -0.117502,0.09029 -0.181388,0.218438 -0.26665,0.337448 -0.0888,0.129348 -0.159273,0.270576 -0.257349,0.393774 -0.155165,0.212818 -0.301213,0.432226 -0.454752,0.645955 -0.118928,0.194532 -0.258678,0.370067 -0.417029,0.534851 -0.171063,0.204917 -0.33916,0.413128 -0.465605,0.649573 -0.131124,0.24231 -0.284137,0.471947 -0.400492,0.72192 -0.133401,0.30272 -0.252125,0.611167 -0.350883,0.927075 -0.05713,0.191643 -0.09743,0.387311 -0.113172,0.587044 -0.01355,0.223239 -0.03574,0.446113 -0.02636,0.670244 -0.0078,0.289601 -3.45e-4,0.579601 0.0026,0.869197 0.02249,0.321067 0.07984,0.637984 0.08062,0.960148 -0.0021,0.358846 -0.0369,0.718376 0.03824,1.07332 0.0013,0.302625 -0.01519,0.606746 0.02325,0.908472 0.02699,0.243545 0.05392,0.486761 0.07338,0.730704 0.05208,0.371535 0.0977,0.743542 0.14366,1.115695 0.05094,0.372273 0.07944,0.747762 0.159164,1.115694 0.06849,0.336298 0.104607,0.677072 0.167431,1.014408 0.07501,0.358019 0.126417,0.721402 0.222726,1.07487 0.113249,0.539995 0.231107,1.079764 0.4439,1.591634 0.190291,0.45599 0.400973,0.902699 0.614433,1.348238 0.257035,0.541805 0.587932,1.042064 0.956531,1.514636 0.02468,0.03958 0.05154,0.07791 0.0739,0.118856 0.05972,0.109379 0.05935,0.162415 0.141594,0.271301 0.239928,0.317629 0.598531,0.524511 0.922424,0.74104 l 0.09715,-0.171565 c -0.301154,-0.207695 -0.651049,-0.398403 -0.869198,-0.704867 -0.02643,-0.03712 -0.07498,-0.177274 -0.09663,-0.221692 -0.02392,-0.04902 -0.05202,-0.09574 -0.07803,-0.14366 -0.341916,-0.480925 -0.667444,-0.976049 -0.913123,-1.513603 -0.20108,-0.445922 -0.399439,-0.892986 -0.577226,-1.348755 -0.1947,-0.499323 -0.304418,-1.021109 -0.407727,-1.544608 -0.09532,-0.353121 -0.138044,-0.716289 -0.202571,-1.075387 -0.06026,-0.337857 -0.09221,-0.678857 -0.153996,-1.016475 -0.07038,-0.362696 -0.09521,-0.731692 -0.142627,-1.097608 -0.04197,-0.373162 -0.08175,-0.746312 -0.131775,-1.118795 -0.01614,-0.240548 -0.04136,-0.480673 -0.06666,-0.720886 -0.03282,-0.286857 -0.02208,-0.57547 -0.01447,-0.862996 -0.0046,-0.05026 -0.008,-0.100198 -0.01344,-0.150379 -0.01513,-0.139418 -0.02956,-0.196752 -0.03307,-0.338997 -0.0048,-0.194511 0.014,-0.390397 0.01654,-0.584977 0.0024,-0.332732 -0.05707,-0.660421 -0.0801,-0.991671 -0.0019,-0.276757 -0.0084,-0.553702 -5.16e-4,-0.83044 -0.006,-0.217789 0.0091,-0.434061 0.02894,-0.650606 0.01855,-0.170074 0.05023,-0.337723 0.100253,-0.501262 0.09504,-0.299392 0.208726,-0.591397 0.33693,-0.877982 0.113469,-0.239403 0.260739,-0.460194 0.387057,-0.692981 0.113436,-0.212786 0.266298,-0.398284 0.420129,-0.582394 0.171421,-0.179491 0.323758,-0.370911 0.453202,-0.582393 0.149157,-0.202663 0.286496,-0.414472 0.436666,-0.6165 0.104759,-0.123868 0.172208,-0.271896 0.26355,-0.404626 0.05777,-0.0676 0.09749,-0.148107 0.146244,-0.221692 l 5.17e-4,-5.17e-4 5.17e-4,-5.17e-4 c 0.069,-0.04733 0.08976,-0.110824 0.127641,-0.176217 -0.0013,0.0027 -0.0027,0.0061 -10e-4,0.0057 0.02151,-0.0056 0.03001,-0.03266 0.04496,-0.04909 0.01226,-0.01068 0.02394,-0.02195 0.03411,-0.03359 0.07351,0.03798 0.15218,0.06602 0.223242,0.109554 0.09844,0.06357 0.185493,0.141959 0.275436,0.216524 0.07702,0.06222 0.15786,0.116144 0.24753,0.157096 0.10998,0.0209 0.05434,0.0075 0.11007,0.01809 0.08831,0.01781 0.177696,-0.0105 0.264067,-0.02687 0.190492,-0.04435 0.357059,-0.15099 0.526583,-0.243396 0.120075,-0.06584 0.24055,-0.129289 0.355017,-0.204638 0.0806,-0.05932 0.168446,-0.106877 0.250631,-0.163815 0.05759,-0.05275 0.126835,-0.06661 0.197404,-0.08837 0.01546,0.0018 0.02218,9.17e-4 0.0093,-0.0031 0.04057,0.01749 0.08175,0.02959 0.122473,0.04238 0.03563,0.01445 0.07119,0.02195 0.09974,0.04651 -0.04882,-0.02609 0.08317,0.07297 0.127641,0.105937 0.04193,0.02919 0.08521,0.04678 0.120923,0.08113 0.08715,0.08026 0.199098,0.11709 0.30179,0.171049 0.07578,0.05047 0.153113,0.101139 0.234094,0.143144 0.06792,0.03523 0.04353,0.0094 0.06408,0.03256 0.05112,0.04861 0.113073,0.08324 0.170532,0.123507 0.07763,0.05358 0.146263,0.118448 0.221175,0.176733 0.108122,0.06825 0.207049,0.149551 0.310059,0.224793 0.139959,0.105404 0.278209,0.214045 0.410311,0.329178 0.176355,0.10878 0.275115,0.284525 0.402559,0.439767 0.139362,0.139692 0.267062,0.287602 0.384473,0.445967 0.121264,0.187119 0.241647,0.37474 0.360701,0.563274 0.141515,0.195212 0.256203,0.407636 0.374138,0.617533 0.09853,0.178652 0.201769,0.355246 0.310058,0.528133 0.101182,0.126383 0.160226,0.278131 0.24598,0.414445 0.08902,0.127886 0.160006,0.266959 0.216524,0.411861 0.04269,0.182086 0.08798,0.363386 0.144694,0.542086 0.05273,0.190801 0.136246,0.373799 0.177251,0.567924 0.02828,0.133871 0.04597,0.269796 0.06925,0.404626 0.048,0.226388 0.06089,0.457715 0.09353,0.686263 0.04688,0.268677 0.0621,0.5415 0.09095,0.812354 0.02495,0.195641 0.04996,0.387617 0.05736,0.584977 -0.01123,0.173243 0.01056,0.346932 0.01395,0.519865 0.13281,-0.0484 0.217969,-0.07857 0.271818,-0.07855 0.09661,3.9e-5 0.102584,0.09405 0.149345,0.338997 -0.0054,0.063 -0.01375,0.12623 -0.02274,0.189653 0.0076,5.04e-4 0.01453,10e-4 0.02222,0.0016 0.02939,0.0021 -7.67e-4,0.378044 -0.02326,0.625285 0.0031,-0.02331 0.0064,-0.04629 0.0088,-0.06976 0.03651,-0.306808 0.112727,-0.608056 0.129708,-0.916223 -0.0037,-0.211521 -0.03137,-0.421991 -0.02687,-0.63407 -0.01095,-0.208494 -0.03646,-0.412028 -0.0677,-0.61805 -0.03188,-0.277346 -0.05615,-0.555882 -0.09819,-0.831991 -0.03762,-0.233233 -0.04266,-0.471453 -0.0987,-0.702283 -0.06903,-0.352358 -0.156944,-0.696041 -0.288355,-1.030944 -0.06415,-0.189029 -0.107605,-0.38375 -0.171565,-0.572575 -0.07396,-0.168574 -0.160075,-0.330466 -0.275436,-0.474907 -0.09214,-0.131053 -0.152142,-0.283922 -0.258899,-0.405143 -0.111151,-0.162777 -0.211765,-0.333078 -0.310058,-0.503845 -0.127285,-0.209923 -0.256669,-0.419145 -0.399976,-0.618567 -0.12446,-0.196731 -0.249996,-0.392268 -0.378271,-0.586528 -0.121753,-0.163839 -0.254023,-0.318454 -0.401009,-0.460437 -0.143206,-0.170492 -0.25872,-0.363775 -0.45372,-0.484208 -0.142324,-0.117809 -0.284697,-0.236355 -0.435115,-0.343648 -0.100936,-0.07297 -0.199148,-0.14988 -0.304891,-0.216007 -0.08255,-0.06204 -0.156985,-0.133668 -0.24443,-0.188619 -0.06215,-0.03935 -0.125117,-0.07657 -0.181384,-0.124541 -0.107558,-0.0614 -0.219499,-0.115837 -0.32091,-0.188102 -0.07488,-0.04005 -0.155692,-0.06755 -0.224793,-0.117305 -0.04768,-0.04304 -0.0989,-0.07848 -0.154512,-0.107487 -0.06084,-0.04362 -0.06382,-0.04123 -0.116272,-0.0987 -0.0649,-0.04936 -0.136426,-0.08226 -0.213941,-0.106971 -0.07349,-0.02458 -0.04619,-0.01177 -0.111104,-0.04082 -0.03747,-0.0126 -0.08843,-0.02727 -0.134359,-0.02791 z m -2.376599,0.474389 c 0.0013,-0.0036 -0.0018,0.0072 -0.0026,0.01085 -0.0014,0.0019 -0.0028,0.0038 -0.0041,0.0057 0.0022,-0.0057 0.0045,-0.01049 0.0067,-0.01654 z m 2.006079,20.166211 c -0.03424,0.0259 -0.06934,0.04926 -0.102319,0.07751 -0.0041,0.0036 -0.01209,0.009 -0.01912,0.01395 -0.0073,0.0025 -0.01044,0.0036 -0.0155,0.0052 -0.0033,5.71e-4 -0.0042,8.32e-4 -0.01085,0.0021 -0.01757,-2.6e-5 -0.04418,0.0046 -0.07028,0.0047 -0.09257,0.0011 -0.18594,-0.0062 -0.278535,-0.01189 -0.292515,-0.04437 -0.29206,-0.0239 -0.540019,0.189135 -0.04459,0.0598 -0.08926,0.11952 -0.133842,0.179318 l 0.02481,0.05116 c 0.05767,0.01048 0.115447,0.02103 0.173116,0.03152 0.167893,0.153445 0.198599,0.19416 0.435632,0.208773 0.119097,0.0073 0.238759,0.01672 0.358118,0.01137 0.06403,-0.005 0.127295,-0.01372 0.189652,-0.02946 0.06554,-0.01774 0.136173,-0.04078 0.190686,-0.08372 0.0032,-0.0014 0.0066,-0.0025 0.0098,-0.0041 0.05954,-0.02984 0.105946,-0.07738 0.158646,-0.118339 -0.150859,-0.179934 -0.275738,-0.378826 -0.370003,-0.5271 z m 0.0078,0.04082 c -0.0592,0.02482 -0.08996,0.03629 -0.115756,0.04547 0.0034,-0.0036 0.0068,-0.0071 0.01085,-0.0093 0.02692,-0.01482 0.05757,-0.02166 0.0863,-0.03256 0.0062,-0.0011 0.02445,-0.006 0.0186,-0.0036 z m -0.210324,0.09664 c -0.0094,0.0088 -0.01408,0.01423 -0.03514,0.03152 -0.0087,0.0071 0.01457,-0.01783 0.02377,-0.02429 0.0043,-0.003 0.0073,-0.0045 0.01137,-0.0072 z" />
        <path
           id="path1582"
           style="fill:#000000;stroke-width:0.874001"
           d="m 59.855778,80.723238 c -0.04169,0.362683 -0.135308,1.165831 -0.175183,1.545642 -0.01807,0.171987 -0.06287,0.695006 -0.09353,0.910539 -0.02831,0.198945 -0.06958,0.395415 -0.101803,0.593762 -0.09474,0.721317 -0.170938,1.450366 -0.12144,2.178679 0.0088,0.129283 0.02753,0.257695 0.04134,0.386539 0.103713,0.755464 0.265244,1.5015 0.358634,2.25826 0.07419,0.665276 0.145311,1.330491 0.184485,1.998845 0.02196,0.662166 0.02186,1.325033 0.01964,1.987475 -0.01331,0.425688 -0.0099,0.851221 -0.0217,1.276925 l 0.05633,0.0088 c 0.122767,-0.420505 0.229085,-0.841967 0.202055,-1.28571 -0.0016,-0.667887 -0.0016,-1.336139 -0.04393,-2.002978 -0.0603,-0.670057 -0.122592,-1.339667 -0.208256,-2.007113 -0.100346,-0.755106 -0.261396,-1.500882 -0.374654,-2.254126 -0.01447,-0.124508 -0.03393,-0.248118 -0.04341,-0.373104 -0.05442,-0.71747 0.02008,-1.435127 0.112137,-2.146122 0.03199,-0.200858 0.07162,-0.400667 0.100253,-0.60203 0.03904,-0.274601 0.06674,-0.648543 0.09405,-0.910539 0.02819,-0.270494 0.146849,-1.305107 0.174149,-1.545125 z" />
        <path
           id="path1596"
           style="fill:#000000;stroke-width:0.874001"
           d="m 66.041447,75.853251 c -0.0019,-7.84e-4 -0.0035,-9.83e-4 -0.0036,5.17e-4 -0.0014,0.01605 -0.0012,0.03235 -0.0016,0.04858 0.04034,-0.01061 0.02635,-0.0065 0,0.0015 -1.5e-5,6.9e-4 1.4e-5,0.0014 0,0.0021 -6.5e-5,-9.62e-4 -4.51e-4,-0.0011 -5.16e-4,-0.0021 -0.03346,0.01022 -0.08686,0.02682 -0.0925,0.03359 -0.05292,0.03494 -0.09921,0.07534 -0.165365,0.09198 -0.09252,0.03426 -0.189376,0.0542 -0.280086,0.09353 -0.09448,0.02305 -0.197536,0.0033 -0.288871,0.04496 -0.06812,0.03724 -0.133737,0.07898 -0.196371,0.125057 -0.02926,0.02459 -0.05319,0.04824 -0.07596,0.07596 -0.0022,0.0016 -0.0051,0.0042 -0.0067,0.0052 -0.06028,0.06461 -0.114557,0.137953 -0.172599,0.206705 -0.07103,0.0961 -0.147007,0.188717 -0.19327,0.300757 -0.0026,0.0049 -0.07397,0.145345 -0.08785,0.161747 -0.02326,0.02749 -0.05592,0.04571 -0.07958,0.07286 -0.182838,0.209849 -0.263107,0.501095 -0.436666,0.715719 l 0.215491,0.124023 c 0.172755,-0.206519 0.246747,-0.49397 0.427364,-0.696598 0.0095,-0.01066 0.02594,-0.01336 0.03514,-0.02429 0.07512,-0.08928 0.09407,-0.135202 0.148311,-0.234611 0.04027,-0.102915 0.109988,-0.184332 0.173116,-0.272335 0.04565,-0.05424 0.09037,-0.109332 0.134359,-0.164848 -0.043,0.03572 0.02263,-0.03256 0.04341,-0.05839 0.0012,0.0049 0.003,0.0094 0.0047,0.0083 0.01135,-0.0077 0.02147,-0.01762 0.03204,-0.02635 0.05148,-0.02924 0.09752,-0.0729 0.151412,-0.09767 0.06447,-0.0049 0.150553,-0.0084 0.222208,-0.0217 0.103364,-0.03752 0.209953,-0.06349 0.314193,-0.09819 0.02845,-0.0072 0.05533,-0.01866 0.08165,-0.03152 0.02739,0.163785 0.07603,0.323783 0.123506,0.482658 0.06225,0.235634 0.102271,0.476617 0.171049,0.710551 0.07612,0.268162 0.186834,0.525104 0.322978,0.767911 0.112761,0.166073 0.191479,0.350768 0.27957,0.530201 0.07396,0.130393 0.150369,0.258578 0.214457,0.394291 0.07545,0.137956 0.143114,0.278789 0.225309,0.412894 0.08732,0.162885 0.180379,0.324878 0.254248,0.494544 0.102114,0.230929 0.169802,0.47454 0.248047,0.714168 0.07185,0.204369 0.139988,0.410296 0.183451,0.622701 0.04058,0.321527 0.08063,0.642724 0.125057,0.963766 0.04274,0.31157 0.119296,0.616265 0.186035,0.922941 0.06247,0.319618 0.157349,0.629491 0.251665,0.940511 0.09142,0.393278 0.197532,0.783554 0.275952,1.179773 0.0682,0.362512 0.08084,0.728509 0.07235,1.096057 -0.0069,0.344176 0.01318,0.686399 -0.0155,1.029911 -0.01635,0.359723 -0.04961,0.718687 -0.06511,1.078487 -0.02305,0.309396 0.0027,0.618589 -0.0041,0.928109 -0.0043,0.319638 -0.02675,0.638519 -0.03204,0.958081 -0.0079,0.192092 0.0039,0.384018 0.0026,0.576192 0.0052,0.163907 0.01999,0.325845 0.04393,0.487826 0.03804,0.195836 0.05446,0.39407 0.077,0.591695 0.02527,0.226248 -0.01211,0.449723 -0.05426,0.671277 -0.05432,0.279223 -0.137696,0.548525 -0.250113,0.809253 -0.132363,0.261956 -0.282566,0.514558 -0.438217,0.763261 -0.10381,0.12872 -0.175671,0.281847 -0.280086,0.409794 -0.02983,0.03655 -0.06746,0.06635 -0.100769,0.09974 -0.103571,0.145241 -0.23853,0.260886 -0.362252,0.387574 -0.08736,0.09482 -0.194169,0.166914 -0.294039,0.24753 -0.135039,0.09162 -0.234739,0.236668 -0.381888,0.311092 -0.07853,0.03972 -0.160557,0.07241 -0.240813,0.10852 -0.199878,0.100131 -0.410785,0.167749 -0.624251,0.231511 -0.214088,0.0512 -0.429001,0.09826 -0.641304,0.157096 -0.175924,0.03306 -0.346204,0.08688 -0.519865,0.129191 -0.211585,0.03289 -0.415624,0.09932 -0.624768,0.143144 -0.243922,0.02098 -0.484897,0.0634 -0.727088,0.09767 -0.255932,0.02395 -0.509494,0.05883 -0.766878,0.06149 -0.215511,5.29e-4 -0.431189,0.01261 -0.645955,0.02997 -0.155747,0.01405 -0.312065,0.02506 -0.468189,0.01964 -0.07353,0.03771 -0.147718,0.0742 -0.223242,0.108003 -0.06303,0.01942 -0.123203,0.0554 -0.189653,0.0615 -0.189811,-0.0019 -0.367467,-0.116617 -0.525032,-0.272851 -0.01899,-0.0039 -0.03774,-0.0085 -0.05684,-0.01189 -0.157739,-0.02106 -0.31314,-0.05399 -0.470773,-0.07596 -0.186062,-0.05548 -0.377248,-0.09367 -0.568957,-0.123507 -0.172233,-0.02439 -0.344953,-0.04519 -0.515731,-0.07855 -0.305472,-0.04818 -0.467661,-0.0103 -0.68988,0.256832 -0.05787,0.06957 -0.09501,0.153867 -0.138493,0.233577 0.005,0.0012 0.01,0.0023 0.01499,0.0036 0.03998,0.0092 0.07947,0.0205 0.118856,0.03204 0.0388,-0.01331 0.07765,-0.02448 0.118339,-0.02687 0.108826,-0.0064 0.137751,0.05487 0.220658,0.09043 0.07385,0.03168 0.156665,0.04036 0.234611,0.05633 0.176842,0.03215 0.354407,0.06033 0.532784,0.08268 0.119198,0.01965 0.237372,0.04464 0.355017,0.07131 0.09858,0.0095 0.197198,0.01751 0.296106,0.02274 0.09602,0.0059 0.192165,0.0108 0.288355,0.0124 0.07603,2e-4 0.15239,4e-4 0.22841,-0.0016 0.08172,-0.0022 0.163216,-0.0041 0.244946,-0.0057 0.08555,-0.0013 0.171282,-0.0019 0.256832,-5.16e-4 0.08968,0.0013 0.179077,0.0043 0.268717,0.0072 0.0909,0.0027 0.181932,0.0047 0.272852,0.0067 0.0886,0.0016 0.177566,0.0033 0.266133,0.0062 0.08156,0.0031 0.16296,0.0074 0.24443,0.0124 0.07641,0.0042 0.152883,0.0093 0.229443,0.0098 0.07929,0.001 0.158412,6.24e-4 0.237712,0.0016 0.07122,2e-4 0.142214,-3.4e-5 0.213424,0.001 0.06187,0.001 0.123688,0.0015 0.185518,0.0041 0.05772,0.0021 0.115506,0.0046 0.173116,0.0088 0.04448,0.0028 0.08888,0.0069 0.133325,0.01034 0.03327,0.0031 0.06645,0.006 0.09974,0.0088 0.02933,0.0043 0.05946,0.0048 0.08888,0.0083 0.02888,0.0042 0.05772,0.0055 0.08682,0.0072 0.01141,0.0011 0.02271,0.0025 0.03411,0.0036 0.229537,-0.03442 0.459368,-0.06712 0.689364,-0.09819 0.210686,-0.05157 0.417208,-0.117449 0.630452,-0.158647 0.180004,-0.0441 0.355294,-0.104728 0.537435,-0.14056 0.220015,-0.06099 0.441842,-0.116658 0.661458,-0.1788 0.235664,-0.08056 0.468176,-0.166744 0.68678,-0.287838 0.117647,-0.05768 0.201831,-0.09512 0.313676,-0.165365 0.155691,-0.09779 0.276912,-0.239308 0.419096,-0.353983 0.113163,-0.09702 0.233882,-0.185774 0.332279,-0.29869 0.121095,-0.128884 0.255826,-0.245555 0.355534,-0.393258 0.172294,-0.184998 0.306133,-0.39444 0.445968,-0.604614 0.167343,-0.273132 0.331909,-0.548756 0.473873,-0.836125 0.125881,-0.296123 0.21794,-0.60228 0.275952,-0.919323 0.05457,-0.274399 0.09337,-0.552097 0.05839,-0.831991 -0.02291,-0.204095 -0.04047,-0.408214 -0.0832,-0.609782 -0.02053,-0.135109 -0.03616,-0.269994 -0.04031,-0.40721 0.0011,-0.191262 -0.01278,-0.381955 -0.0083,-0.573092 0.0026,-0.318647 0.02753,-0.636298 0.03049,-0.95498 0.0043,-0.305509 -0.02269,-0.610338 -5.16e-4,-0.915707 0.01484,-0.354723 0.04987,-0.708813 0.05426,-1.064017 0.02273,-0.354714 0.0017,-0.706526 0,-1.061434 -0.0013,-0.401172 -0.02754,-0.799548 -0.104386,-1.194243 -0.08782,-0.408803 -0.197465,-0.812585 -0.293006,-1.219563 -0.09253,-0.299062 -0.186752,-0.596835 -0.251147,-0.903821 -0.06657,-0.295402 -0.142551,-0.588838 -0.187586,-0.888835 -0.04959,-0.330643 -0.09253,-0.662341 -0.150378,-0.991671 -0.05305,-0.226371 -0.123964,-0.447496 -0.208773,-0.664042 -0.08929,-0.247225 -0.172257,-0.497858 -0.285771,-0.735355 -0.08241,-0.184621 -0.182565,-0.361912 -0.280603,-0.538469 -0.07579,-0.122018 -0.136799,-0.251355 -0.207739,-0.376204 -0.06532,-0.136808 -0.141562,-0.267426 -0.217558,-0.398425 -0.09149,-0.186148 -0.174425,-0.376991 -0.290421,-0.549838 -0.125531,-0.216009 -0.220249,-0.449774 -0.290422,-0.689363 -0.07007,-0.23454 -0.106714,-0.477095 -0.173116,-0.712618 -0.04801,-0.154485 -0.09821,-0.309414 -0.125057,-0.469222 -0.0033,-0.04208 0.006,-0.08748 -0.0098,-0.126608 -0.0857,-0.211934 -0.131465,-0.109809 -0.161231,0.01757 -0.02569,-0.05975 -0.05131,-0.119564 -0.077,-0.179317 -0.0015,-2.64e-4 -0.0038,-0.0013 -0.0057,-0.0021 z m -0.947746,0.710034 c 0.0024,-0.002 0.001,-4.48e-4 0.0041,-0.0031 0.0033,-0.0047 0.01338,-0.01835 0.0098,-0.01395 -0.0045,0.0058 -0.0094,0.0113 -0.01395,0.01705 z m 0.942062,-0.659391 h 5.16e-4 c 1.2e-5,-5.17e-4 -1.2e-5,-10e-4 0,-0.0015 h -5.16e-4 c 4.8e-5,7.13e-4 -4.8e-5,9.89e-4 0,0.0015 z m 0.06098,0.260966 c -0.01438,0.07689 -0.02508,0.115534 -0.03824,0.0098 0.0047,-0.0026 0.0097,-0.0053 0.01447,-0.0078 0.0049,-1.52e-4 0.01532,-0.0012 0.02377,-0.0021 z m -0.077,0.03204 c -0.0014,0.0053 -0.0025,0.01073 -0.0041,0.01602 -0.02655,0.08428 -0.04436,0.0656 -0.05684,0.01705 0.02082,-0.01079 0.04086,-0.02157 0.06098,-0.03307 z" />
        <path
           style="fill:#000000;stroke-width:0.874001"
           id="path1615"
           d="m 61.000295,96.423492 c 0.08386,-0.0076 0.546047,-0.04681 0.690293,-0.0683 0.03303,-0.0049 0.08684,0.0079 0.09731,-0.02384 0.035,-0.105936 -0.0213,-0.230783 0.02093,-0.334049 0.0181,-0.04427 0.05929,0.08124 0.06296,0.128931 0.003,0.0387 -0.02986,0.07165 -0.04479,0.107484 0.15665,-0.0011 0.292852,-0.08277 0.427017,-0.153278 0.107516,-0.0459 0.20433,-0.111136 0.302532,-0.173543 0.102,-0.03522 0.178668,-0.109101 0.265819,-0.167542 0.08001,-0.06247 0.168167,-0.112723 0.24901,-0.174133 0.121716,-0.0859 0.215757,-0.200578 0.305567,-0.317714 0.119521,-0.177888 0.244134,-0.353121 0.36026,-0.533509 0.155183,-0.25754 0.282657,-0.529254 0.406397,-0.80278 0.103037,-0.26529 0.227706,-0.52066 0.342712,-0.781034 0.09149,-0.241639 0.213069,-0.469924 0.312426,-0.707872 0.07728,-0.290496 0.257272,-0.538734 0.353237,-0.820512 0.06576,-0.253902 0.167433,-0.496067 0.237643,-0.748615 0.04189,-0.202454 0.08693,-0.404109 0.14768,-0.601813 0.07173,-0.155919 0.09038,-0.325906 0.12137,-0.493109 0.06166,-0.22665 0.101576,-0.457999 0.14646,-0.68829 0.04245,-0.219821 0.06806,-0.443577 0.11988,-0.661453 0.03104,-0.206939 0.03333,-0.416674 0.04701,-0.625195 0.0066,-0.257505 0.0053,-0.515691 -0.01066,-0.772869 0.01119,-0.237466 0.0083,-0.473869 -0.0035,-0.711327 -0.0055,-0.196411 -0.02056,-0.391501 -0.04492,-0.586412 0.0038,-0.235257 -0.01249,-0.470061 -0.02685,-0.704688 -0.02802,-0.268809 0.02849,-0.54211 -0.01408,-0.810096 -0.0091,-0.05742 -0.02802,-0.112861 -0.04202,-0.169294 -0.1735,-0.177623 -0.09892,-0.1011 -0.223869,-0.229444 0,0 -0.05045,0.02574 -0.05045,0.02574 v 0 c 0.0065,0.131829 0.01781,0.05605 -0.08294,0.214392 -0.06839,0.327051 -0.06949,0.66466 -0.05547,0.997566 0.01519,0.245256 0.02774,0.490453 0.02987,0.736331 0.02474,0.182858 0.03873,0.366191 0.04166,0.550804 0.01347,0.238715 0.01714,0.475639 0.0047,0.714497 0.01384,0.239312 0.01847,0.479549 0.0095,0.719092 -0.0079,0.18174 -0.01582,0.363773 -0.03259,0.544915 -0.05145,0.224044 -0.0825,0.452495 -0.123542,0.678603 -0.0444,0.230468 -0.08784,0.460917 -0.14741,0.68806 -0.03073,0.152254 -0.03962,0.302342 -0.108767,0.443079 -0.06395,0.202988 -0.112964,0.410514 -0.153752,0.619244 -0.06359,0.248039 -0.170966,0.482703 -0.231741,0.731726 -0.02275,0.101793 -0.094,0.203393 -0.138475,0.29478 -0.07705,0.158324 -0.144714,0.320972 -0.201176,0.487784 -0.09286,0.235778 -0.221263,0.457348 -0.307596,0.69646 -0.113303,0.260077 -0.238231,0.514506 -0.341641,0.77861 -0.111165,0.25359 -0.229219,0.503682 -0.364416,0.745527 -0.109664,0.171019 -0.228137,0.336529 -0.33243,0.510683 -0.06726,0.0902 -0.129696,0.18387 -0.223536,0.249492 -0.07379,0.06888 -0.166254,0.115339 -0.238231,0.186766 -0.06936,0.06245 -0.137253,0.118383 -0.22466,0.15783 -0.08824,0.06092 -0.169892,0.130725 -0.268574,0.175553 -0.117168,0.07133 -0.223655,0.141113 -0.365524,0.154342 -0.05767,0.05228 -0.147384,0.08334 -0.173001,0.156843 -0.02241,0.06428 -0.01548,0.219106 0.04928,0.198165 0.08725,-0.02821 0.08484,-0.163524 0.113239,-0.250714 0.0042,-0.01296 -0.02371,0.01492 -0.03716,0.01717 -0.14365,0.02424 -0.590039,0.06438 -0.674984,0.07273 0,0 0.024,0.328226 0.024,0.328226 z" />
        <path
           id="path1617"
           style="fill:#000000;stroke-width:0.874001"
           d="m 55.271045,95.230363 c -0.114483,0.025 -0.147049,0.07555 -0.22686,0.150378 l 0.02377,0.05116 c -0.0024,0.0164 0.0046,0.03702 -0.0067,0.04909 -0.02857,0.03042 -0.0693,0.04666 -0.104387,0.06925 -0.004,0.0026 -0.01482,-0.0093 -0.01344,-0.0047 0.0029,0.0099 0.007,0.02026 0.01395,0.0279 0.03082,0.03358 0.06588,0.06293 0.0987,0.09457 0.01598,0.0081 0.02617,0.01376 0.03462,0.01757 0.0019,0.0016 0.0023,0.0018 0.0047,0.0036 0.08309,0.119407 0.171669,0.233249 0.302307,0.304374 0.09361,0.04848 0.189456,0.0974 0.288871,0.132292 0.12995,0.05951 0.261528,0.115671 0.398942,0.156062 0.137372,0.04223 0.270169,0.09876 0.409795,0.134359 0.06527,0.01924 0.134788,0.03354 0.197404,0.06098 0.07749,0.03395 0.09978,0.0533 0.185518,0.08475 0.02665,0.0098 0.05476,0.01486 0.08216,0.02222 0.157851,0.02233 0.307769,0.0926 0.454753,0.150896 0.1041,0.04371 0.20883,0.09087 0.320394,0.111621 0.01853,0.006 0.03721,0.01159 0.05581,0.01705 0.01704,-0.0065 0.03684,-0.01064 0.05943,-0.01137 0.02052,-6.58e-4 0.0429,0.0014 0.0677,0.0067 0.06033,0.01297 0.121067,0.02504 0.180867,0.04031 0.01114,0.0026 0.022,0.0054 0.03307,0.0083 1.65e-4,4.3e-5 3.51e-4,-4.3e-5 5.17e-4,0 0.143011,-0.0011 0.286025,-0.0018 0.428914,-0.0088 0.141113,-0.01778 0.281565,-0.04772 0.418062,-0.08682 0.108799,-0.03866 0.117933,-0.05366 0.244947,-0.08113 0.09746,-0.03203 0.198741,-0.05339 0.291972,-0.09715 0.136277,-0.03488 0.276867,-0.06085 0.418062,-0.05891 0.09902,0.0019 0.197582,0.004 0.296623,0.0021 0.127773,0.0021 0.250261,-0.0096 0.37207,-0.04961 0.08983,-0.0097 0.169405,-0.025 0.252698,-0.06305 0.02906,-0.01327 0.0518,-0.02416 0.06821,-0.03307 0.02029,0.02597 0.04292,0.04936 0.06976,0.06821 0.03086,0.02167 0.0699,-0.03069 0.09973,-0.05374 0.136186,-0.105246 0.391283,-0.367453 0.490926,-0.466122 l -0.185518,-0.186552 c -0.09947,0.09393 -0.196166,0.190467 -0.298173,0.281637 -0.01613,0.01441 -0.0327,0.02874 -0.04909,0.04289 -0.167615,-0.113223 -0.274868,0.09072 -0.452685,0.04909 -0.115946,0.0051 -0.227422,0.01551 -0.343132,0.0015 -0.101614,-0.0063 -0.20327,-0.01043 -0.304891,-0.01654 -0.17956,-0.01574 -0.357494,0.0066 -0.5333,0.04186 -0.107873,0.03845 -0.219448,0.06435 -0.329179,0.09663 -0.09319,0.01508 -0.17758,0.05505 -0.264067,0.08578 -0.103529,0.02167 -0.207679,0.05486 -0.313676,0.06305 -0.130723,0.0044 -0.261438,0.0041 -0.392224,0.0052 -0.08573,0.0094 -0.1595,-0.01176 -0.239262,-0.03824 -0.100136,-0.01752 -0.191253,-0.06122 -0.28422,-0.100252 -0.173749,-0.08148 -0.354392,-0.147275 -0.541569,-0.189653 -0.135202,-0.06587 -0.274875,-0.118885 -0.419613,-0.163298 -0.137242,-0.03827 -0.269329,-0.09189 -0.405143,-0.134358 -0.118163,-0.0327 -0.228368,-0.08378 -0.338997,-0.134876 -0.08159,-0.04016 -0.184237,-0.06203 -0.257866,-0.115755 -0.06699,-0.03489 -0.09957,-0.09366 -0.141076,-0.153479 -0.04581,-0.06839 -0.112518,-0.117555 -0.183969,-0.15658 l -5.16e-4,-5.16e-4 c -0.01676,-0.0157 -0.03165,-0.02774 -0.03566,-0.02687 z m 5.560901,1.04283 c 0.0041,0.0082 0.0082,0.01652 0.0124,0.02481 -0.0054,-0.0042 -0.0097,-0.0074 -0.0155,-0.01189 7.45e-4,-0.0044 0.002,-0.0085 0.0031,-0.01292 z" />
        <path
           id="path1619"
           style="fill:#000000;stroke-width:0.874001"
           d="m 61.207633,95.697001 c -0.106309,-1.48e-4 -0.211497,0.02104 -0.317293,0.03152 -0.08094,0.01882 -0.407309,0.10958 -0.562239,0.240295 -0.240208,0.04661 -0.480166,0.09677 -0.715719,0.163298 -0.07928,0.02238 -0.145331,0.04173 -0.213424,0.08423 0.004,0.02023 0.0066,0.04063 0.0088,0.0615 -0.09889,-0.0088 -0.197476,-0.01901 -0.296622,-0.02532 -0.125346,-0.0158 -0.247805,-0.05159 -0.372587,-0.07441 -0.118153,-0.0287 -0.230774,-0.07545 -0.344682,-0.117306 -0.132056,-0.0448 -0.256826,-0.105027 -0.390157,-0.146244 -0.199641,-0.05078 -0.196229,-0.01507 -0.332797,0.163814 l 0.02997,0.04806 c 0.01566,0.03682 0.01758,0.07954 0.03927,0.113172 0.02707,0.04198 0.10901,0.03829 0.149345,0.05064 0.1254,0.03694 0.241212,0.09757 0.365352,0.138492 0.135276,0.05228 0.270992,0.106039 0.412378,0.139527 0.140065,0.02553 0.277263,0.06746 0.419096,0.0801 0.144666,0.0089 0.288035,0.02685 0.432532,0.03772 0.06621,0.0045 0.132665,0.0082 0.198954,0.01033 0.05444,0.05415 0.107662,0.09812 0.14056,0.12144 0.08793,0.06232 0.186664,0.10749 0.280086,0.16123 0.430278,0.180308 0.912459,0.190299 1.364775,0.0925 0.09992,-0.02162 0.196215,-0.05683 0.294555,-0.08475 0.237069,-0.02841 0.46106,-0.07667 0.677478,-0.178801 0.02328,-0.01251 0.08774,-0.04369 0.13901,-0.07803 0.332601,-0.0039 0.664782,0.0057 0.996838,0.02377 0.09328,0.04609 0.191416,0.07332 0.293522,0.09302 0.11403,0.02241 0.2251,-0.0093 0.336931,-0.02687 0.06251,-0.0093 0.123443,-0.0055 0.185001,-0.0088 0.06881,-0.01508 0.135368,-0.03765 0.197921,-0.0739 -0.04655,-0.06676 -0.08142,-0.1438 -0.132808,-0.206189 1.45e-4,-0.0015 3.49e-4,-0.0031 5.16e-4,-0.0047 -9.98e-4,4.88e-4 -0.0025,6.37e-4 -0.0036,0.001 -0.01196,-0.0142 -0.0246,-0.02809 -0.03876,-0.04031 -0.03232,-0.02788 -0.08513,-0.0064 -0.127641,-0.01033 -0.182917,-0.01699 -0.365784,-0.03414 -0.548804,-0.05013 -0.06813,-0.007 -0.136417,-0.01327 -0.204638,-0.01912 -0.04386,-0.02874 -0.08785,-0.05747 -0.136426,-0.07648 -0.12387,-0.05196 -0.252168,-0.09539 -0.381372,-0.131775 -0.176657,-0.03846 -0.350675,-0.08867 -0.5302,-0.112655 -0.0538,-0.006 -0.107562,-0.01302 -0.161231,-0.02015 -0.0039,-0.01137 -0.0086,-0.02207 -0.01499,-0.03256 -0.03317,-0.05482 -0.105501,-0.07255 -0.165365,-0.09819 -0.01286,-0.0098 -0.02525,-0.02001 -0.03617,-0.03101 -0.06902,-0.02215 -0.136384,-0.0516 -0.206706,-0.06873 -0.233951,-0.08415 -0.4838,-0.138673 -0.728638,-0.13901 z m 0.413929,0.356568 c 0.02802,6.09e-4 0.05587,0.002 0.08372,0.0036 1.77e-4,0.0029 7.1e-4,0.0061 0.001,0.0093 -0.0046,0.0038 -0.0098,0.0072 -0.01395,0.01085 -0.02337,-0.0087 -0.04698,-0.01634 -0.0708,-0.02377 z m -1.246436,0.241328 c 0.03295,0.02008 0.06556,0.04042 0.100769,0.05581 -0.02016,-0.0015 -0.04028,-0.0027 -0.06046,-0.0041 -0.107921,-0.0034 -0.215234,-0.01574 -0.322461,-0.02739 0.09275,-0.01445 0.188949,-0.02084 0.282153,-0.02429 z m 0.15813,0.556039 c 0.05012,0.0051 0.101265,0.01019 0.154513,0.01499 0.228329,0.0032 0.458228,0.0047 0.685746,-0.01189 -0.276819,0.05182 -0.565471,0.05654 -0.840259,-0.0031 z" />
        <path
           style="fill:#000000;stroke-width:0.874001"
           id="path1621"
           d="m 64.265209,95.649091 c 0.3728,-0.441447 0.770212,-0.875826 1.047117,-1.387898 0.140251,-0.259363 0.247219,-0.538552 0.38131,-0.801632 0.145251,-0.265822 0.326834,-0.510072 0.472389,-0.775796 0.07813,-0.142626 0.136856,-0.28694 0.202015,-0.435956 0.194858,-0.481627 0.349697,-0.975646 0.481238,-1.477661 0.08824,-0.296146 0.181641,-0.593484 0.187216,-0.905134 0.003,-0.167542 -0.0092,-0.274281 -0.02191,-0.441783 -0.01582,-0.532067 0.0034,-1.064427 -0.0383,-1.595596 -0.02774,-0.229484 -0.07743,-0.450361 -0.200906,-0.648894 -0.031,-0.04983 -0.07238,-0.0924 -0.108564,-0.138604 0,0 -0.05016,0.02633 -0.05016,0.02633 v 0 c 0.07412,0.253248 0.140639,0.510807 0.169601,0.773575 0.02746,0.5328 0.01204,1.066298 0.02976,1.599309 0.01365,0.157996 0.02614,0.256238 0.02455,0.413763 -0.003,0.298606 -0.09543,0.584211 -0.177393,0.868288 -0.129262,0.493403 -0.2697,0.983081 -0.455342,1.458969 -0.06165,0.152426 -0.106979,0.276439 -0.182468,0.420875 -0.141737,0.271192 -0.32081,0.520919 -0.462393,0.792112 -0.131234,0.260427 -0.237271,0.536043 -0.374264,0.792962 -0.26992,0.506211 -0.662496,0.933293 -1.027009,1.370507 0,0 0.10351,0.09228 0.10351,0.09228 z" />
        <path
           id="path1623"
           style="fill:#000000;stroke-width:0.874001"
           d="m 52.764221,78.766768 c -0.05682,0.01253 -0.116009,0.01284 -0.173116,0.02326 3.68e-4,0.009 7.9e-4,0.01787 10e-4,0.02687 0.0013,0.04171 -0.0029,0.08306 -0.01034,0.124023 -0.0071,0.03505 -0.01792,0.06923 -0.02842,0.103353 -0.0018,0.006 -0.0038,0.01213 -0.0057,0.01809 0.03991,-0.02638 0.08066,-0.05163 0.113688,-0.08578 0.09449,-0.131538 0.04815,-0.08115 0.129191,-0.15968 z m -0.843359,0.549321 c -0.05077,0.07514 -0.09316,0.1549 -0.129191,0.238228 -0.07131,0.110947 -0.131629,0.228436 -0.192753,0.345199 -0.06069,0.169574 -0.06947,0.353073 -0.135393,0.521932 -0.05258,0.179356 -0.08561,0.36462 -0.113171,0.54932 -0.02402,0.185214 -0.07211,0.369084 -0.05943,0.557589 0.0019,0.228349 0.01303,0.457053 -0.01137,0.684713 -0.01074,0.262013 -0.02426,0.523933 -0.03462,0.785998 -0.0131,0.215923 -0.03692,0.430641 -0.05736,0.645956 -0.02667,0.221653 -0.03864,0.444978 -0.09147,0.663008 -0.02831,0.234016 -0.06214,0.467165 -0.07493,0.7028 -0.0021,0.287074 0.0031,0.574076 0.01447,0.860929 0.0039,0.33264 0.03101,0.665304 0.05581,0.996838 0.05999,0.37891 0.163808,0.748462 0.239262,1.12448 0.06566,0.299464 0.12459,0.602108 0.220658,0.893485 0.03955,0.09044 0.08642,0.180751 0.116789,0.274919 0.114009,0.353465 0.175271,0.721501 0.271818,1.07952 l 0.218075,-0.04806 c -0.104704,-0.480476 -0.18863,-0.951357 -0.381372,-1.403532 -0.08731,-0.277805 -0.142971,-0.564243 -0.205156,-0.848527 -0.07367,-0.36951 -0.16586,-0.736133 -0.211356,-1.110526 -0.01333,-0.318538 -0.03695,-0.637642 -0.02842,-0.956531 -1.85e-4,-0.28639 -0.0035,-0.572959 10e-4,-0.859379 0.0155,-0.223557 0.04445,-0.445553 0.07338,-0.667659 0.05358,-0.218191 0.06604,-0.442135 0.09353,-0.664043 0.02003,-0.222336 0.04877,-0.443559 0.05994,-0.666626 0.01185,-0.263039 0.02312,-0.525607 0.03617,-0.788582 0.0244,-0.233706 0.0146,-0.468933 0.01085,-0.703316 -0.01013,-0.172943 0.03304,-0.341632 0.05633,-0.511597 0.0296,-0.165857 0.04777,-0.338368 0.101286,-0.498677 0.07618,-0.15739 0.05929,-0.346732 0.126091,-0.504879 0.01715,-0.03023 0.03344,-0.0608 0.04961,-0.09147 10e-4,-0.01612 0.0022,-0.03202 0.0031,-0.04806 0.0088,-0.129398 0.0156,-0.259022 0.02067,-0.388606 v -5.17e-4 c -0.0081,-0.01418 -0.01446,-0.03482 -0.02119,-0.06046 -0.0074,-0.03461 -0.01468,-0.0692 -0.0217,-0.103869 z" />
        <path
           style="fill:#000000;stroke-width:0.874001"
           id="path1625"
           d="m 67.311105,77.379377 c 0.08324,-0.07887 0.39502,-0.377048 0.511667,-0.479439 0.02281,-0.02003 0.08793,-0.02864 0.07266,-0.05487 -0.04886,-0.08394 -0.300045,-0.14274 -0.217487,-0.1939 0.276789,0.178996 0.178655,0.231656 0.307922,0.12967 0.145468,-0.05423 -0.500036,0.171323 -0.156575,-0.04153 0.0792,-0.04908 0.18769,-0.009 0.277458,-0.03399 0.164047,-0.04564 -0.226229,-0.11512 -0.285396,-0.131424 -0.03729,0.155276 0.299929,0.142703 0.244108,0.113046 -0.07825,-0.04157 -0.157266,-0.0854 -0.24302,-0.107675 -0.03066,-0.008 -0.05615,0.03001 -0.08621,0.04 -0.176982,0.07051 -0.31691,0.218652 -0.462804,0.337839 -0.215992,0.183441 -0.414287,0.391472 -0.58158,0.620583 -0.07223,0.09488 -0.142976,0.193826 -0.185471,0.306041 -0.03549,0.185459 -0.01058,0.0191 0.0029,0.02723 0.04963,0.02986 0.09309,0.06895 0.139639,0.103429 0,0 -0.02766,-0.04942 -0.02766,-0.04942 v 0 c 0.02185,0.0483 0.03175,0.104064 0.06556,0.144894 0.01482,0.01789 0.100912,-0.16895 0.07083,-0.115858 0.04498,-0.08466 0.107487,-0.159629 0.171881,-0.23041 0.168252,-0.200104 0.340562,-0.399312 0.544508,-0.56434 0.133331,-0.11202 0.261411,-0.232207 0.407379,-0.327771 0.152318,-0.11298 0.13807,-0.07211 0.0095,-0.313175 -0.0028,-0.0052 -0.01643,0.0078 -0.01262,0.0122 0.164177,0.192145 0.09738,0.200641 0.193593,0.183528 -0.0817,-0.05452 -0.169881,-0.100401 -0.245105,-0.16356 -0.0086,-0.0072 0.0021,-0.03075 0.01349,-0.0309 0.08178,-0.0011 0.187359,0.08663 0.24384,0.02747 0.08577,-0.08984 -0.26928,-0.115181 -0.28222,-0.03921 -0.131202,0.10363 -0.06125,0.02104 0.07658,0.315572 -0.07543,0.06319 -0.0798,-0.191464 -0.16051,-0.247748 -0.03183,-0.0222 -0.06239,0.04633 -0.09145,0.07205 -0.125135,0.110749 -0.421278,0.39702 -0.516279,0.487894 0,0 0.200848,0.203793 0.200848,0.203793 z" />
        <path
           style="fill:#000000;stroke-width:0.874001"
           id="path1627"
           d="m 68.117751,77.248387 c 0.203756,0.269729 0.544941,0.513127 0.64317,0.857538 0.01241,0.0435 -0.02103,0.09027 -0.01405,0.134961 0.01058,0.0677 0.03181,0.133297 0.04772,0.199946 0.164184,0.387424 0.367662,0.752893 0.47766,1.161015 0.103333,0.373978 0.171143,0.756264 0.250754,1.135664 0.06771,0.341891 0.164467,0.676491 0.226753,1.019537 0.02994,0.255095 0.09191,0.505492 0.12083,0.760754 0.0057,0.05028 0.0074,0.100936 0.01111,0.151405 0.0066,0.05154 0.0132,0.103074 0.01979,0.154612 0.0607,0.345374 0.05148,0.694486 0.0389,1.043038 0.0163,0.252481 -0.009,0.50316 -0.01918,0.754983 0.01431,0.323786 0.0083,0.646861 0.0033,0.970761 0.0028,0.327354 -0.04432,0.652804 -0.07271,0.97848 -0.0358,0.374377 -0.04823,0.750128 -0.08685,1.124188 -0.03707,0.385797 -0.05659,0.772186 -0.05604,1.159812 0.0039,0.225433 -0.01886,0.453016 -0.05224,0.676111 -0.0399,0.180559 -0.04123,0.36418 -0.08261,0.544475 -0.0556,0.248089 -0.125306,0.492657 -0.189055,0.738693 -0.08096,0.286096 -0.17064,0.569595 -0.242263,0.858361 -0.0952,0.25291 -0.154496,0.516774 -0.230894,0.775417 -0.08015,0.271214 -0.184814,0.534868 -0.286819,0.798513 -0.06525,0.243834 -0.246756,0.477062 -0.281424,0.728075 -0.0072,0.05185 0.0058,0.104518 0.0087,0.156776 0,0 0.04233,0.03764 0.04233,0.03764 v 0 c 0.06534,-0.01797 0.138702,-0.01773 0.196008,-0.05389 0.172935,-0.109122 0.329703,-0.52053 0.424567,-0.703019 0.124094,-0.271626 0.228441,-0.553945 0.314161,-0.839972 0.0794,-0.265552 0.142631,-0.535893 0.237667,-0.796798 0.0678,-0.288063 0.16048,-0.56913 0.242969,-0.853099 0.0623,-0.250341 0.135314,-0.498007 0.191731,-0.749826 0.04285,-0.190985 0.05777,-0.384781 0.09748,-0.576287 0.03556,-0.24556 0.06088,-0.495101 0.057,-0.743273 -0.003,-0.371213 0.01913,-0.74109 0.0516,-1.11067 0.04119,-0.377553 0.05161,-0.757031 0.08787,-1.135084 0.02535,-0.336087 0.07504,-0.671541 0.06731,-1.009263 0.0029,-0.324017 0.0069,-0.647089 -0.01987,-0.970421 -0.0042,-0.250327 0.01373,-0.500676 -0.0092,-0.750779 0.0054,-0.368501 0.0032,-0.737777 -0.06638,-1.101357 -0.0496,-0.361849 -0.09807,-0.723339 -0.166076,-1.082532 C 70.03795,81.34649 69.942066,81.008175 69.872687,80.663066 69.789257,80.276973 69.72125,79.887149 69.612869,79.506871 69.4951,79.096977 69.299084,78.725 69.112899,78.343034 c -0.01524,-0.03474 -0.03651,-0.06743 -0.04573,-0.10423 -0.05301,-0.211542 0.06901,0.01378 -0.04026,-0.264729 -0.143944,-0.366863 -0.48018,-0.629552 -0.731224,-0.914942 0,0 -0.177935,0.189254 -0.177935,0.189254 z" />
        <path
           style="fill:#000000;stroke-width:0.874001"
           id="path1629"
           d="m 68.129115,76.911464 c -0.09959,-0.08488 -0.199028,-0.169948 -0.29877,-0.254651 -0.05649,-0.04797 -0.11425,-0.09444 -0.169913,-0.143357 -0.009,-0.0079 -0.01725,-0.03691 -0.02379,-0.02688 -0.182216,0.280318 -0.235043,0.270777 -0.0528,0.333952 0.159874,-0.342781 0.214069,-0.221835 0.113072,-0.377325 -0.0069,-0.01056 -0.0085,-0.02783 -0.0205,-0.03174 -0.0099,-0.0033 0.01685,0.01966 0.01209,0.02899 -0.0141,0.02767 -0.03127,0.06703 -0.06225,0.06936 -0.05136,0.0039 -0.09657,-0.03586 -0.144854,-0.05379 0,0 0.03158,0.04702 0.03158,0.04702 v 0 c -0.02376,-0.0344 -0.02947,-0.103497 -0.07128,-0.103214 -0.04443,2.65e-4 -0.06945,0.06196 -0.08305,0.104257 -0.02918,0.09076 0.290288,0.510418 0.307943,-0.01921 0.05088,0.03278 -0.03897,-0.02588 -0.04543,-0.02082 -0.09089,0.07117 -0.172516,0.158758 -0.230164,0.258776 -0.01209,0.02098 0.03314,0.03545 0.05143,0.05133 0.155049,0.134594 0.321945,0.255217 0.472654,0.394962 0,0 0.214032,-0.257662 0.214032,-0.257662 z" />
        <path
           style="fill:#000000;stroke-width:0.874001"
           id="path1631"
           d="m 68.53584,77.102879 c -0.187383,-0.222078 -0.314801,-0.507174 -0.528899,-0.70948 -0.03771,-0.03563 -0.14065,-0.110866 -0.201917,-0.07162 -0.02151,0.01378 0.0338,0.03831 0.0507,0.05746 -0.05293,0.02834 -0.105857,0.05668 -0.158784,0.08501 0,0 0.0016,0.05662 0.0016,0.05662 v 0 c 0.0016,0.02682 0.003,0.05363 0.0045,0.08045 0.04292,0.03705 0.11212,0.05695 0.128762,0.111146 0.0465,0.151418 -0.149786,-0.06855 -0.131829,-0.0471 0.178433,0.213191 0.34911,0.432604 0.50133,0.666194 0,0 0.334587,-0.228687 0.334587,-0.228687 z" />
        <path
           style="fill:#000000;stroke-width:0.874001"
           id="path1639"
           d="m 64.041189,77.885546 c -0.03951,0.05103 -0.07833,0.102647 -0.114766,0.155929 -0.01971,0.02884 -0.0412,0.06066 -0.05595,0.09242 -0.0076,0.01646 -0.01281,0.03395 -0.01921,0.05092 -0.0021,0.01371 -0.01103,0.02801 -0.0065,0.04111 0.03766,0.04343 0.02939,0.02334 0.03881,0.0524 0,0 0.05153,0.02349 0.05153,0.02349 v 0 c 0.0048,-0.0036 0.0088,-0.0088 0.01439,-0.01072 0.06936,-0.02408 0.04167,0.008 0.07018,-0.04103 0.008,-0.01974 0.01982,-0.0505 0.02966,-0.06895 0.01521,-0.02851 0.03899,-0.06133 0.05569,-0.08821 0.03093,-0.04978 0.04169,-0.07047 0.06988,-0.121099 0,0 -0.133771,-0.08628 -0.133771,-0.08628 z" />
        <path
           style="fill:#000000;stroke-width:0.874001"
           id="path1641"
           d="m 64.068396,77.748682 c -0.04207,0.04631 -0.0481,0.04944 -0.08495,0.107876 -0.01461,0.02315 -0.02685,0.0477 -0.04017,0.0716 -0.01659,0.02977 -0.03342,0.05942 -0.04959,0.08942 -0.03201,0.05939 -0.04436,0.08541 -0.07308,0.143348 -0.0033,0.01236 -0.0364,0.06733 -0.02733,0.0849 0.0013,0.0028 0.0058,0.0026 0.0085,0.0042 0.01479,0.0092 0.0293,0.01876 0.04395,0.02816 0,0 0.04912,0.02821 0.04912,0.02821 v 0 c 0.01876,0.0021 0.03743,0.0079 0.05629,0.0067 0.0062,-5.29e-4 0.01011,-0.0073 0.01498,-0.01119 0.0028,-0.0021 0.006,-0.0041 0.0079,-0.007 0.0096,-0.015 0.0016,-0.03872 0.02053,-0.04932 0.03671,-0.077 0.07654,-0.152345 0.115002,-0.228489 0.01053,-0.02082 0.02101,-0.0417 0.03155,-0.06252 0.0084,-0.01651 0.01558,-0.03366 0.02519,-0.04948 0.008,-0.0132 0.01831,-0.02484 0.02746,-0.03728 0,0 -0.125288,-0.119084 -0.125288,-0.119084 z" />
        <path
           style="fill:#000000;stroke-width:0.874001"
           id="path1643"
           d="m 65.959637,76.218422 c 0.0049,0.08759 0.02588,0.17363 0.05824,0.255053 0.0075,0.01873 0.02733,0.06675 0.04917,0.08091 0.0099,0.0064 0.02278,0.006 0.03415,0.0089 0.0099,-0.0026 0.01979,-0.0053 0.02969,-0.008 0,0 0.03585,-0.04385 0.03585,-0.04385 v 0 c 0.0041,-0.0074 0.0083,-0.01474 0.01241,-0.02209 0.0028,-0.006 0.0081,-0.01146 0.0085,-0.01812 2.64e-4,-0.0058 -0.004,-0.01098 -0.0067,-0.01619 -0.0061,-0.01207 -0.01389,-0.02331 -0.01963,-0.03558 -0.03092,-0.06619 -0.05085,-0.136646 -0.06425,-0.208317 0,0 -0.137506,0.0072 -0.137506,0.0072 z" />
        <path
           style="fill:#000000;stroke-width:0.874001"
           id="path1645"
           d="m 65.956846,76.236459 c 0.03492,0.08325 0.07431,0.175381 0.136845,0.242345 0.01503,0.01611 0.03113,0.03381 0.05204,0.04077 0.0176,0.0058 0.03692,-0.0034 0.05538,-0.005 0,0 0.04479,-0.03468 0.04479,-0.03468 v 0 c 0.0064,-0.01728 0.01918,-0.03344 0.01913,-0.05187 -6.3e-5,-0.01863 -0.01106,-0.03576 -0.01947,-0.05238 -0.0118,-0.02328 -0.02695,-0.04471 -0.04089,-0.06678 -0.08026,-0.12705 -0.01625,-0.019 -0.08819,-0.14365 0,0 -0.15961,0.07128 -0.15961,0.07128 z" />
        <path
           style="fill:#000000;stroke-width:0.874001"
           id="path1647"
           d="m 65.988506,76.086104 c 0.0035,0.08974 0.01905,0.178377 0.06101,0.258821 0.02085,0.03995 0.05408,0.08807 0.09481,0.111688 0.01482,0.0086 0.03314,0.0088 0.04971,0.01318 0,0 0.04347,-0.0363 0.04347,-0.0363 v 0 c -3.5e-5,-0.01548 0.0033,-0.03135 -1.04e-4,-0.04646 -0.0084,-0.03754 -0.03469,-0.07175 -0.05306,-0.104187 -0.03086,-0.05449 -0.0343,-0.05952 -0.04942,-0.123479 -0.0055,-0.02326 -0.0084,-0.04706 -0.01265,-0.07059 0,0 -0.133762,-0.0027 -0.133762,-0.0027 z" />
        <path
           style="fill:#000000;stroke-width:0.874001"
           id="path1649"
           d="m 66.056044,76.190881 c 0.01326,0.0167 0.07301,0.09399 0.09139,0.108887 0.0136,0.01101 0.03122,0.0158 0.04683,0.02368 0,0 0.01879,-0.01228 0.01879,-0.01228 v 0 c -0.0021,-0.01924 7.94e-4,-0.03973 -0.0063,-0.05768 -0.0131,-0.03261 -0.06848,-0.09057 -0.09033,-0.115263 0,0 -0.06033,0.05265 -0.06033,0.05265 z" />
        <path
           style="fill:#000000;stroke-width:0.874001"
           id="path1651"
           d="m 67.318529,77.118064 c 0.04656,-0.03618 0.09259,-0.07311 0.138121,-0.110573 0.01945,-0.01601 0.03511,-0.03007 0.05635,-0.04309 0.03051,-0.02138 0.06014,-0.04434 0.0875,-0.06968 0.02029,-0.01879 0.02828,-0.02891 0.04653,-0.04963 0.02739,-0.03358 0.03948,-0.0756 0.06295,-0.111556 0.005,-0.01008 0.01185,-0.01921 0.01696,-0.02922 0.003,-0.0058 0.005,-0.01201 0.0077,-0.01797 0.006,-0.01762 5.29e-4,-5.29e-4 -0.01164,0.01924 -0.0026,0.0041 -0.01175,0.01543 -0.0092,0.01132 0.0061,-0.0096 0.01402,-0.0181 0.01971,-0.02799 0.05027,-0.08729 -0.08297,-0.09953 -0.173251,-0.174509 -0.05116,0.02801 -0.08396,0.076 -0.120608,0.119383 -0.02853,0.03747 -0.06536,0.067 -0.09906,0.0995 -0.03019,0.02903 -0.05875,0.05987 -0.08417,0.09319 -0.01505,0.01974 -0.02915,0.04021 -0.04394,0.06015 -0.03166,0.04807 -0.07282,0.09223 -0.0914,0.147855 -0.0047,0.01397 -0.0061,0.02882 -0.0092,0.04322 0.01921,0.05724 0.01275,0.0334 0.02199,0.07077 0,0 0.04093,0.03915 0.04093,0.03915 v 0 c 0.04448,-0.0019 0.01672,-0.0011 0.08327,-5.29e-4 0.01363,-0.0079 0.0282,-0.01429 0.04086,-0.02363 0.04739,-0.03495 0.07694,-0.08813 0.110869,-0.134781 0.029,-0.04156 0.05906,-0.08303 0.09581,-0.118174 0.04219,-0.03763 0.08424,-0.07572 0.119819,-0.119874 0.01722,-0.02043 0.01373,-0.0168 0.03008,-0.0344 0.0016,-0.0019 0.0087,-0.0096 0.01212,-0.01193 5.29e-4,-2.65e-4 -0.0064,0.0058 0.0013,0.0019 -0.07782,-0.07178 -0.210706,-0.09515 -0.161745,-0.178417 0.0053,-0.0089 0.01286,-0.01638 0.01826,-0.02527 0.003,-0.0049 -0.0079,0.0084 -0.01095,0.01328 -0.01463,0.02278 -0.01958,0.04046 -0.01498,0.025 0.01098,-0.02437 -0.0082,0.0077 -0.01177,0.01109 -0.01326,0.02103 -0.02617,0.0419 -0.03724,0.06421 -0.0036,0.0072 -0.0071,0.01453 -0.01016,0.02199 -7.94e-4,0.0019 -0.0016,0.0041 -0.0016,0.0062 1e-5,0.0013 0.0011,0.0024 0.0016,0.0035 -0.0083,0.01738 -0.0031,0.0085 -0.01955,0.02899 -0.03456,0.04304 -0.0039,0.0049 -0.03723,0.04416 -0.0043,0.0051 -0.0081,0.01072 -0.0127,0.01561 -0.005,0.0053 -0.01064,0.0099 -0.01593,0.01484 -0.05372,0.06087 -0.09561,0.131916 -0.157229,0.185902 0,0 0.120851,0.14079 0.120851,0.14079 z" />
        <path
           style="fill:#000000;stroke-width:0.874001"
           id="path1653"
           d="m 67.734505,77.079014 c 0.05828,0.09985 0.122436,0.195881 0.195011,0.285919 0.03407,0.04228 0.07324,0.09041 0.117528,0.123492 0.01534,0.01146 0.03351,0.01855 0.05026,0.02783 0.07432,-0.0061 0.03902,0.004 0.105785,-0.03064 0,0 0.03434,-0.04504 0.03434,-0.04504 v 0 c 0.01082,-0.07525 0.01188,-0.03883 -0.0011,-0.109294 -0.0088,-0.0099 -0.01659,-0.02069 -0.02625,-0.02971 -0.127074,-0.118673 0.05593,0.06713 -0.103068,-0.08808 -0.02442,-0.02384 -0.04707,-0.04941 -0.07047,-0.07425 -0.129127,-0.137054 -0.03986,-0.04457 -0.162224,-0.169833 0,0 -0.139917,0.109604 -0.139917,0.109604 z" />
        <path
           style="fill:#000000;stroke-width:0.874001"
           id="path1655"
           d="m 67.867011,77.063205 c 0.06838,0.09372 0.129976,0.192056 0.186893,0.293084 0.04148,0.07364 0.04115,0.08192 0.08923,0.151678 0.01495,0.0217 0.03177,0.04205 0.04766,0.06307 0.0422,0.05346 0.08728,0.104402 0.135046,0.15293 0.01617,0.01643 0.03199,0.03325 0.04917,0.04861 0.04275,0.03822 0.06166,0.04946 0.107011,0.08092 0.08692,0.0043 0.04928,-0.0036 0.114165,0.01648 0,0 0.04912,-0.0282 0.04912,-0.0282 v 0 c 0.0043,-0.0864 0.0029,-0.03673 0.0019,-0.149069 -0.0122,-0.0181 -0.0236,-0.03676 -0.03657,-0.05432 -0.03395,-0.046 -0.04581,-0.05507 -0.08268,-0.09721 -0.04122,-0.04712 -0.0806,-0.09587 -0.123804,-0.141245 -0.04119,-0.0475 -0.04514,-0.05018 -0.08475,-0.104733 -0.03391,-0.04671 -0.08923,-0.131358 -0.122237,-0.173985 -0.0854,-0.110299 -0.08903,-0.107706 -0.184814,-0.201374 0,0 -0.145264,0.143375 -0.145264,0.143375 z" />
        <path
           style="fill:#000000;stroke-width:0.874001"
           id="path1657"
           d="m 68.066017,76.533194 c -0.02082,-0.04155 -0.02532,-0.05295 -0.04905,-0.09152 -0.01249,-0.02032 -0.02511,-0.03882 -0.04401,-0.05398 -0.02167,-0.01738 -0.04281,-0.01979 -0.02164,-0.0164 -0.01119,-0.02527 -0.03767,-0.04298 -0.06078,-0.05625 -0.02368,-0.01392 -0.05154,-0.02228 -0.07901,-0.0236 -0.0098,-5.29e-4 -0.01953,2.65e-4 -0.0293,5.3e-4 -0.04014,0.0037 -0.0781,0.01601 -0.11465,0.03255 -0.02148,0.01352 -0.02902,0.01741 -0.0477,0.03189 -0.0053,0.0041 -0.01,0.0089 -0.0154,0.01289 -0.0026,0.0019 -0.0058,0.0029 -0.0085,0.0047 -0.0066,0.0045 -0.01209,0.01056 -0.01804,0.01595 -0.02111,0.01923 -0.03986,0.04028 -0.05612,0.06369 -0.0067,0.01042 -0.01709,0.01913 -0.02622,0.02758 -0.01495,0.0123 -0.0277,0.02699 -0.04197,0.04003 -0.02511,0.0231 -0.04056,0.05349 -0.05788,0.0823 -0.0054,0.0083 -0.01011,0.01749 -0.01632,0.02537 -0.0036,0.0045 -0.0082,0.0082 -0.01183,0.01267 -0.0039,0.0049 -0.0075,0.01011 -0.01119,0.01516 -0.01707,0.02254 -0.0377,0.0419 -0.05683,0.06262 -0.02508,0.02635 -0.04518,0.05678 -0.06817,0.08483 -0.02342,0.02304 -0.03917,0.05255 -0.05662,0.08009 -0.01082,0.01932 -0.0027,0.0037 -0.01281,0.02728 -0.0033,0.0076 -0.0073,0.01484 -0.01005,0.02257 -0.0019,0.0051 -0.01683,0.05774 -0.01749,0.05969 -0.0034,0.01032 -0.0076,0.02032 -0.01143,0.0305 -0.0055,0.01998 -0.01521,0.03863 -0.02053,0.05864 -0.004,0.01508 -0.0062,0.03059 -0.0093,0.04589 0,0 0.0232,0.02373 0.0232,0.02373 v 0 c 0.01662,-0.004 0.03389,-0.006 0.04989,-0.01201 0.02077,-0.0079 0.04405,-0.02588 0.06238,-0.03898 0.0081,-0.0061 0.0159,-0.01257 0.02426,-0.01828 0.03282,-0.02254 0.06978,-0.04077 0.09672,-0.0708 0.01818,-0.02257 0.0364,-0.04508 0.05522,-0.0671 0.01934,-0.02387 0.03466,-0.05065 0.05545,-0.07332 0.02548,-0.02561 0.05131,-0.05098 0.07144,-0.08124 0.02088,-0.02479 0.04233,-0.04971 0.05643,-0.07917 0.007,-0.01326 0.01252,-0.02665 0.02389,-0.03675 0.0087,-0.01042 0.01815,-0.01974 0.02907,-0.02776 0.01177,-0.01056 0.0227,-0.02207 0.03638,-0.03026 0.0086,-0.0063 0.0177,-0.01185 0.02625,-0.01815 0.0021,-0.0016 0.0039,-0.0038 0.0062,-0.0053 5.29e-4,-2.65e-4 0.0097,-0.0036 0.0098,-0.0036 0.0209,-0.0085 0.03661,-0.02447 0.05599,-0.03566 0.0096,-0.0057 0.01982,-0.0062 0.03079,-0.0083 7.94e-4,-1.51e-4 -0.0016,-8e-6 -0.0024,-1.3e-5 -0.01236,-5.29e-4 -0.02817,-0.0019 -0.03126,-0.0064 -2.65e-4,-5.29e-4 0.0011,1.14e-4 0.0016,1.7e-4 -0.0084,-0.0052 -0.0098,-0.0054 -0.01691,-0.01278 -5.29e-4,-5.29e-4 0.0013,1.83e-4 0.0016,5.29e-4 0.0039,0.003 0.0074,0.0065 0.01119,0.0096 0.02545,0.02159 0.01418,0.01257 0.04377,0.03373 0.01027,0.0057 0.01979,0.01299 0.03078,0.01714 0.0035,0.0013 -0.02877,-0.01691 -0.0223,-0.02347 0.0032,-0.0032 0.0081,0.0043 0.01143,0.0074 0.02162,0.01995 0.03155,0.03554 0.04986,0.0596 0,0 0.182237,-0.09824 0.182237,-0.09824 z" />
        <path
           style="fill:#000000;stroke-width:0.874001"
           id="path1683"
           d="m 51.885037,79.687133 c 0.04798,-0.07286 0.131207,-0.156025 0.112564,-0.253105 -0.0032,-0.01683 -0.01826,-0.0299 -0.02138,-0.04674 -0.0019,-0.01035 0.01172,0.01749 0.01757,0.02625 0.0016,0.0053 -7.93e-4,0.01651 0.0047,0.0159 0.0058,-5.29e-4 0.0032,-0.01125 0.0046,-0.01693 0.009,-0.03575 0.01156,-0.07224 0.01265,-0.108989 5.29e-4,-0.04285 0.0034,-0.0856 0.01161,-0.127678 0.0091,-0.04835 0.0083,-0.09759 0.0093,-0.146542 -2.65e-4,-0.0085 -0.0011,-0.01696 -7.94e-4,-0.02543 4e-5,-0.0016 0.0011,-0.0031 0.0016,-0.0047 2.27e-4,-0.01 0.0011,-0.01995 7.93e-4,-0.02994 -5.29e-4,-0.02141 -0.0028,-0.04291 -0.0035,-0.06434 -0.0033,-0.02265 7.94e-4,-0.04429 -2.65e-4,-0.06709 0.0078,0.08359 -0.151611,0.07786 -0.202088,0.110918 -0.0092,0.006 0.01836,0.01201 0.02753,0.01802 0.02159,0.02029 0.03035,0.04927 0.03853,0.07682 0.01426,0.09263 0.04483,0.180668 0.07971,0.267221 0.02899,0.06816 0.05666,0.136697 0.09194,0.201906 0.02061,0.04309 0.04607,0.08291 0.07348,0.121875 0.02358,0.03767 0.04442,0.07693 0.06737,0.115046 0.02715,0.04061 0.05679,0.07961 0.08729,0.117753 -0.0141,-0.01262 0.02506,0.03675 0.02689,0.03989 0.0034,0.02135 0.03496,0.04209 0.0449,0.06063 0.01183,0.01267 0.0245,0.03436 0.04378,0.03647 0.02204,0.0024 0.04408,-0.0051 0.06623,-0.0061 0.0094,-5.29e-4 0.01878,0.0011 0.0282,0.0016 0,0 0.05257,-0.02109 0.05257,-0.02109 v 0 c 0.005,-0.0105 0.0094,-0.02125 0.0149,-0.03149 0.01143,-0.02141 0.02947,-0.03997 0.03571,-0.06341 0.0082,-0.03099 -0.0283,-0.07435 -0.04698,-0.09554 -0.0052,-0.0055 -0.009,-0.01289 -0.01572,-0.0164 -0.0055,-0.0029 0.008,0.0096 0.01193,0.01442 2.65e-4,5.29e-4 -5.29e-4,-0.0011 -7.93e-4,-0.0013 -0.0019,-0.003 -0.0038,-0.0059 -0.0057,-0.0088 -0.0048,-0.0079 -0.0096,-0.01582 -0.01437,-0.02371 -0.01318,-0.0177 -0.0241,-0.0312 -0.03688,-0.0513 -0.02447,-0.02866 -0.04623,-0.05994 -0.06798,-0.09068 -0.0269,-0.04164 -0.04998,-0.08543 -0.07743,-0.126693 -0.02164,-0.03055 -0.04005,-0.06302 -0.05748,-0.09617 -0.03144,-0.05713 -0.05471,-0.1177 -0.08027,-0.177591 -0.0339,-0.07758 -0.05485,-0.158602 -0.07249,-0.241313 -0.0044,-0.01461 -0.0081,-0.02947 -0.01331,-0.04382 -0.02548,-0.07014 -0.0714,-0.132262 -0.132744,-0.174897 -0.09774,-0.06221 -0.245417,0.01786 -0.227841,0.115909 2.65e-4,7.93e-4 5.3e-4,0.0036 7.94e-4,0.0027 0.0011,-0.0021 5.29e-4,-0.0092 0.0011,-0.0069 0.0034,0.01714 5.29e-4,0.03598 0.0039,0.0533 0.0016,0.03909 0.0072,0.07777 0.0069,0.11685 0.0013,0.03875 0.008,0.07682 0.0071,0.115504 -0.004,0.05423 -0.0062,0.108805 5.29e-4,0.162928 0.0013,0.01196 0.0036,0.02384 0.0046,0.03586 0.0029,0.03666 -0.007,0.07382 5.3e-4,0.110458 0.0075,0.01638 0.01198,0.03458 0.0226,0.04916 0.0063,0.0087 -0.0089,-0.02013 -0.0093,-0.03088 -5.29e-4,-0.01135 0.0032,-0.02265 0.0067,-0.03344 0.0019,-0.0057 5.3e-4,0.01228 -0.0016,0.01791 -0.01651,0.04526 -0.04517,0.08976 -0.06862,0.130664 0,0 0.136967,0.09723 0.136967,0.09723 z" />
        <path
           style="fill:#f9f9f9;stroke-width:1.30837"
           d="m 215.66473,361.61308 c -3.62419,-0.25476 -4.85751,-0.54326 -6.53529,-1.52874 -0.32677,-0.19193 -1.26427,-0.6359 -2.08334,-0.9866 -1.94811,-0.83412 -4.91706,-3.594 -5.86487,-5.45188 -1.37869,-2.70245 -2.456,-7.49038 -2.4836,-11.03797 -0.0144,-1.85167 0.27677,-6.21843 0.64705,-9.70392 0.37029,-3.48549 0.86167,-8.38697 1.09198,-10.89216 0.2303,-2.5052 0.47702,-5.17873 0.54827,-5.94118 0.0713,-0.76245 -0.13386,-3.16863 -0.45581,-5.34706 -0.54932,-3.71694 -0.49452,-9.8342 0.10202,-11.38877 0.19077,-0.49714 0.56722,-0.38422 2.13234,0.63958 1.04536,0.68382 2.47075,1.55324 3.16753,1.93204 l 1.26687,0.68873 -0.24991,2.67793 c -0.81853,8.77088 1.86526,32.40429 4.61668,40.65447 1.68834,5.0625 6.68109,13.55477 8.97645,15.26822 l 1.06481,0.79487 -0.99019,-0.0496 c -0.54461,-0.0272 -2.77255,-0.17486 -4.95099,-0.328 z"
           id="path1754"
           transform="scale(0.26458333)" />
        <path
           style="fill:#f9f9f9;stroke-width:1.30837"
           d="m 223.68532,362.53486 c -0.38122,-0.0996 -0.69313,-0.40111 -0.69313,-0.66996 0,-0.26886 -0.80206,-1.05418 -1.78236,-1.74515 -0.98029,-0.69097 -1.78235,-1.45067 -1.78235,-1.68822 0,-0.23754 -0.51101,-1.17695 -1.13558,-2.08757 -5.74847,-8.38128 -8.3258,-19.76681 -9.22661,-40.75911 -0.57533,-13.4074 -0.72436,-12.88066 6.59944,-23.32594 1.08922,-1.55345 2.33966,-3.26173 2.77876,-3.79618 l 0.79837,-0.97173 1.04646,0.82315 c 1.47095,1.15705 3.24194,1.02665 5.78018,-0.42558 l 2.18255,-1.24873 1.4185,0.75363 c 2.84805,1.51312 7.42454,5.21863 9.03593,7.31623 2.59056,3.37222 6.02488,9.4403 6.84709,12.0981 1.11936,3.61832 1.55293,7.78594 1.74654,16.78832 0.25627,11.91647 -0.8624,17.59096 -5.45968,27.69449 -3.03681,6.67403 -3.86231,7.99263 -5.89094,9.40972 -1.25087,0.8738 -1.87843,1.03458 -3.7715,0.96627 -1.33323,-0.0481 -2.87538,0.1706 -3.73476,0.52967 -1.40573,0.58735 -3.29139,0.72157 -4.75691,0.33859 z m 3.81851,-16.16423 c -0.0317,-5.21873 -0.27658,-8.61549 -0.91385,-12.67451 -1.78528,-11.37129 -1.7645,-9.45823 -0.24681,-22.72087 0.35809,-3.12922 0.54298,-5.79759 0.41086,-5.92971 -0.39571,-0.3957 -0.97617,0.84174 -0.99131,2.11332 -0.008,0.65353 -0.36629,3.86177 -0.79667,7.12942 -0.98062,7.44527 -0.98293,10.22341 -0.0133,15.99718 1.06563,6.34545 1.59902,12.70513 1.61484,19.2538 0.011,4.53531 0.10137,5.40085 0.49645,4.75294 0.33745,-0.55337 0.47002,-2.94123 0.4398,-7.92157 z"
           id="path1756"
           transform="scale(0.26458333)" />
        <path
           style="fill:#f9f9f9;stroke-width:1.30837"
           d="m 239.42944,363.78379 c -0.65353,-0.29925 -1.63382,-0.55562 -2.17843,-0.56971 -0.93831,-0.0243 -0.90426,-0.0977 0.64986,-1.40103 2.27445,-1.90746 3.66334,-4.23005 6.50488,-10.87789 3.82054,-8.93825 4.7333,-13.08308 5.14828,-23.37825 0.50095,-12.42785 -0.73504,-20.90996 -3.74074,-25.67129 -0.57973,-0.91836 -1.66504,-2.62486 -2.4118,-3.79224 l -1.35774,-2.12249 1.97011,-3.20133 c 2.12461,-3.45238 2.20247,-3.53253 3.90573,-4.02102 1.13216,-0.3247 1.13964,-0.31508 1.79376,2.3088 0.36128,1.44917 1.78017,4.77368 3.15309,7.3878 2.82055,5.37046 3.55841,7.43579 4.17435,11.68431 0.23687,1.63383 0.99382,5.10942 1.68212,7.72353 l 1.25144,4.75295 -0.0331,13.97223 -0.0331,13.97224 -1.29733,3.21837 c -0.99414,2.46624 -1.81348,3.74554 -3.50598,5.47413 -2.57898,2.63399 -3.65729,3.25022 -7.59861,4.34241 -3.3149,0.91861 -6.34158,0.99298 -8.07672,0.19848 z m 5.3044,-4.13777 c 2.41929,-3.06063 6.58574,-11.27263 7.73151,-15.23866 1.6271,-5.63212 1.31293,-14.98606 -0.52353,-15.58749 -0.41473,-0.13583 -0.47559,0.009 -0.23678,0.56436 0.17679,0.41096 0.40371,3.09674 0.50429,5.96841 0.16658,4.75648 0.091,5.5413 -0.84862,8.81712 -1.18928,4.14605 -5.21572,12.21208 -7.43933,14.90294 -0.83674,1.01258 -1.52135,1.99988 -1.52135,2.194 0,0.8304 0.87864,0.22025 2.33381,-1.62068 z"
           id="path1758"
           transform="scale(0.26458333)" />
        <path
           style="fill:#f9f9f9;stroke-width:1.30837"
           d="m 262.238,332.67661 -0.034,-9.33716 -1.54512,-6.30794 c -0.84982,-3.46937 -1.66784,-7.18819 -1.81783,-8.26406 -0.38972,-2.79536 -1.86153,-6.64463 -4.10535,-10.73688 l -1.94443,-3.54622 1.42102,-1.48626 1.42103,-1.48626 1.42066,1.38724 c 0.78137,0.76298 1.63255,1.38724 1.89152,1.38724 0.25897,0 0.58196,0.49015 0.71776,1.08922 0.1358,0.59907 0.66033,2.15863 1.16562,3.46569 0.50529,1.30706 1.42201,4.69353 2.03715,7.52549 1.00103,4.60847 1.11855,5.91825 1.11938,12.47647 9.9e-4,7.87889 -0.74309,20.0455 -1.34442,21.98236 -0.25284,0.81438 -0.37962,-1.74948 -0.40295,-8.14893 z"
           id="path1760"
           transform="scale(0.26458333)" />
        <path
           style="fill:#f9f9f9;stroke-width:1.30837"
           d="m 195.68169,334.66768 c -1.60747,-5.95737 -1.83968,-9.48914 -1.0848,-16.49898 0.37059,-3.44129 0.67846,-7.41542 0.68416,-8.8314 0.006,-1.41598 0.31961,-3.96132 0.69757,-5.65629 l 0.68721,-3.08179 0.68254,1.15545 c 0.45244,0.76593 0.67092,1.93838 0.64807,3.47786 -0.019,1.27733 0.24557,3.84978 0.58784,5.71656 0.48602,2.65082 0.54579,4.25557 0.27295,7.32746 -1.35983,15.30998 -1.74542,19.02283 -2.00539,19.30955 -0.1622,0.1789 -0.68877,-1.13439 -1.17015,-2.91842 z"
           id="path1762"
           transform="scale(0.26458333)" />
        <path
           style="fill:#000000;stroke-width:0.874001"
           id="path2865"
           d="m 57.506086,96.242956 c 0.09417,0.05921 0.185415,0.131255 0.291163,0.170125 0.034,0.01249 0.07369,0.01066 0.104953,0.02861 0.08364,0.04461 0.166872,0.09001 0.250288,0.135049 0.07311,0.03703 0.143338,0.08009 0.219363,0.111011 0.0053,0.0024 0.0108,0.0045 0.01601,0.0072 0.01132,0.0058 0.02408,0.01323 0.01328,0.01572 -0.007,0.0016 -0.02357,0.004 -0.02125,-0.0027 0.03505,-0.101192 0.110445,-0.189939 0.124741,-0.296074 0.004,-0.03002 -0.05251,-0.03022 -0.07876,-0.04534 -0.162647,-0.08656 -0.328157,-0.166791 -0.501896,-0.228362 -0.129738,-0.03779 -0.26113,-0.07721 -0.395602,-0.09391 -0.04133,-2.64e-4 -0.08229,-0.0035 -0.123389,-0.0074 -0.0097,-5.29e-4 -0.01929,-0.0011 -0.02895,-0.0019 -0.0058,-1.82e-4 -0.01172,-1.98e-4 -0.01754,-5.29e-4 -0.01132,-7.94e-4 -0.01995,-0.0029 -0.0155,-0.0013 0.03289,0.01074 0.05084,0.0096 -0.03078,7.94e-4 -0.133681,0.02891 -0.114829,0.0095 -0.03503,0.314714 0.0074,0.02844 0.053,0.02545 0.07987,0.03735 0.111569,0.04942 0.224816,0.08401 0.34235,0.116072 0.228197,0.0427 0.453972,0.107149 0.685892,0.126693 0.176393,0.003 0.35228,-0.02458 0.526267,-0.05133 0.171085,-0.02037 0.342059,-0.07365 0.515882,-0.06324 0.0164,0.0011 0.03248,0.0049 0.04872,0.0073 0.248634,0.04553 0.498914,0.08067 0.747217,0.128091 0.228114,0.04848 0.457087,0.09213 0.687525,0.128055 0.13049,0.01561 0.264335,0.01865 0.395648,0.01548 0.07582,-0.0021 0.151442,0.0043 0.227213,5.29e-4 0.02154,-0.004 0.08026,0.0064 0.09645,-0.0053 -0.03421,-0.0099 -0.05974,-0.02691 -0.07579,-0.06029 -0.0048,-0.01003 -0.0019,-0.02268 -0.0069,-0.03263 -0.0013,-0.0026 -0.0045,0.0036 -0.0067,0.0053 -0.0054,0.0043 -0.01074,0.0085 -0.01609,0.01278 -0.08021,0.05732 -0.151191,0.04869 -0.243723,0.04127 -0.06806,-0.0054 -0.136435,-0.0019 -0.204574,-0.0062 -0.02461,-0.0016 -0.100652,-0.01021 -0.122213,-0.01254 -0.169762,-0.0052 -0.334883,-0.04207 -0.500256,-0.07722 -0.178133,-0.03449 -0.356134,-0.06988 -0.528775,-0.126346 -0.09671,-0.03725 -0.192887,-0.07864 -0.280189,-0.134919 -0.06671,-0.05775 -0.132196,-0.11498 -0.207036,-0.16233 -0.101476,-0.05452 -0.207423,-0.100269 -0.311039,-0.150622 -0.05984,-0.02577 -0.120761,-0.0485 -0.180623,-0.07427 -0.05908,-0.02188 -0.121116,-0.02918 -0.183631,-0.02802 -0.05907,0.0028 -0.114634,0.01492 -0.166855,0.04268 -0.103505,0.06991 -0.109087,0.177427 -0.03061,0.273844 0.04914,0.06038 0.08652,0.08 0.151292,0.126913 0.03467,0.01879 0.06811,0.04005 0.103994,0.05639 0.252833,0.115083 0.555498,0.149246 0.828694,0.184198 0.066,0.0067 0.131929,0.014 0.197985,0.02003 0.142375,0.01302 0.233799,0.01953 0.376526,0.02458 0.178726,0.0063 0.35778,0.003 0.536569,0.0026 0.279615,0.005 0.559097,0.01291 0.838743,0.0163 0.01365,2.64e-4 0.200395,0.0055 0.220003,0.0045 0.03105,-0.0016 0.06396,2.65e-4 0.09249,-0.01204 0.03135,-0.01357 0.05391,-0.04198 0.08086,-0.06297 0,0 0.01521,-0.05456 0.01521,-0.05456 v 0 c -0.0199,-0.03404 -0.03037,-0.07574 -0.05966,-0.102124 -0.07013,-0.06316 -0.254151,-0.0646 -0.342,-0.07253 -0.281967,-0.0095 -0.564245,-0.01437 -0.846336,-0.01736 -0.17395,5.29e-4 -0.348152,0.0057 -0.522065,7.94e-4 -0.126453,-0.0037 -0.235956,-0.01048 -0.362186,-0.02064 -0.06334,-0.0051 -0.126569,-0.01146 -0.189854,-0.01717 -0.162441,-0.01974 -0.325065,-0.03793 -0.484936,-0.07402 -0.07913,-0.01786 -0.169352,-0.04086 -0.24547,-0.07308 -0.02558,-0.01082 -0.04944,-0.02543 -0.07416,-0.03814 -0.0181,-0.01185 -0.03618,-0.02371 -0.05427,-0.03558 -0.0097,-0.0088 -0.01831,-0.01916 -0.02923,-0.02647 -0.0016,-0.0011 -0.0016,0.0038 -0.0019,0.0057 -0.0026,0.02963 0.0019,0.06044 -0.0066,0.08899 -0.01042,0.03558 -0.03021,0.04485 -0.05542,0.06156 -0.01159,0.0062 0.03631,-0.01146 0.04467,-0.0068 0.01886,-0.0052 0.03935,0.0026 0.05853,0.0021 0.05601,0.02045 0.110736,0.04495 0.166933,0.06506 0.09464,0.04348 0.19004,0.08611 0.282456,0.133924 0.07541,0.04567 0.132731,0.112348 0.205155,0.162301 0.108538,0.0674 0.224264,0.122404 0.344385,0.166092 0.1833,0.05934 0.371657,0.09769 0.56076,0.133763 0.104765,0.02037 0.20923,0.04266 0.315365,0.05488 0.07139,0.0082 0.08872,0.0072 0.158409,0.0096 0.02281,7.94e-4 0.04561,0.0016 0.06842,0.0024 0.115255,0.0011 0.230177,-7.93e-4 0.344824,-0.01402 0.138792,-0.01111 0.275555,-0.04124 0.384984,-0.132942 0.02836,-0.02943 0.06563,-0.06069 0.07812,-0.102301 0.03096,-0.103132 -0.01027,-0.174863 -0.111429,-0.20088 -0.03378,-0.0069 -0.06949,-0.01574 -0.105654,-0.01323 -0.07252,-0.0016 -0.144243,-0.01032 -0.216442,-0.01699 -0.03642,-0.003 -0.07298,-0.0047 -0.109268,-0.009 -0.0811,-0.0097 -0.160351,-0.03008 -0.240707,-0.04405 -0.227629,-0.0432 -0.45412,-0.0921 -0.681046,-0.138797 -0.25591,-0.04695 -0.513368,-0.08389 -0.769487,-0.129482 -0.02926,-0.0028 -0.0584,-0.0074 -0.08778,-0.0084 -0.189341,-0.007 -0.375465,0.03977 -0.561329,0.06789 -0.150313,0.02323 -0.301781,0.04687 -0.453927,0.05152 -0.07147,-0.0049 -0.140036,-0.0177 -0.210402,-0.03133 -0.09099,-0.01765 -0.1821,-0.03463 -0.273018,-0.05261 -0.04869,-0.0096 -0.09723,-0.02 -0.145852,-0.03 -0.09941,-0.02669 -0.196204,-0.05349 -0.290346,-0.09576 -0.02119,-0.0095 -0.05138,-0.05099 -0.06256,-0.03064 -0.163303,0.29731 0.03816,0.241843 -0.107455,0.272408 -0.129119,-0.01569 0.0329,0.01341 0.05499,0.0085 0.03826,0.0034 0.07634,0.0091 0.114863,0.0095 0.03051,0.0032 0.01368,7.93e-4 0.05969,0.01148 0.08719,0.02027 0.174644,0.04101 0.25913,0.07087 0.158756,0.06161 0.314042,0.130765 0.464574,0.210762 0.02755,0.01286 0.0608,0.05969 0.08266,0.03855 0.01881,-0.01818 0.279638,-0.278842 0.13952,-0.280009 -0.0123,-1.03e-4 -0.01992,0.0099 -0.03269,0.0037 -0.0088,0.0046 -0.0019,0.0019 -0.02283,-0.008 -0.05617,-0.02617 -0.110984,-0.05496 -0.167478,-0.0804 -0.101225,-0.04553 -0.202682,-0.09158 -0.308756,-0.124806 -0.01741,-0.0031 -0.03468,-0.0071 -0.05222,-0.0093 -0.0064,-7.94e-4 -0.01286,-5.29e-4 -0.01921,2.14e-4 -0.0036,5.29e-4 -0.0068,0.0043 -0.01037,0.0036 -0.09355,-0.0185 -0.170338,-0.09003 -0.251298,-0.133731 0,0 -0.124434,0.172738 -0.124434,0.172738 z" />
      </g>
    </g>
  </g>
</svg>
