<?xml version="1.0" encoding="UTF-8" standalone="no"?>
<!-- Created with Inkscape (http://www.inkscape.org/) -->

<svg
   width="350"
   height="350"
   viewBox="0 0 92.604165 92.604167"
   version="1.1"
   id="svg2450"
   inkscape:version="1.2 (dc2aedaf03, 2022-05-15)"
   sodipodi:docname="default.svg"
   inkscape:export-filename="default.svg"
   inkscape:export-xdpi="96"
   inkscape:export-ydpi="96"
   xmlns:inkscape="http://www.inkscape.org/namespaces/inkscape"
   xmlns:sodipodi="http://sodipodi.sourceforge.net/DTD/sodipodi-0.dtd"
   xmlns="http://www.w3.org/2000/svg"
   xmlns:svg="http://www.w3.org/2000/svg">
  <sodipodi:namedview
     id="namedview2452"
     pagecolor="#505050"
     bordercolor="#eeeeee"
     borderopacity="1"
     inkscape:showpageshadow="0"
     inkscape:pageopacity="0"
     inkscape:pagecheckerboard="0"
     inkscape:deskcolor="#505050"
     inkscape:document-units="mm"
     showgrid="false"
     inkscape:zoom="2.5247521"
     inkscape:cx="312.902"
     inkscape:cy="316.07063"
     inkscape:window-width="2560"
     inkscape:window-height="1369"
     inkscape:window-x="2552"
     inkscape:window-y="-8"
     inkscape:window-maximized="1"
     inkscape:current-layer="layer1" />
  <defs
     id="defs2447" />
  <g
     inkscape:label="Camada 1"
     inkscape:groupmode="layer"
     id="layer1">
    <g
       id="g10096"
       transform="matrix(1.4187034,0,0,1.4187034,-121.5758,-96.985701)">
      <g
         id="g10414"
         style="stroke-width:7.485;stroke-dasharray:none"
         transform="translate(-0.45851319,0.16306352)">
        <path
           style="fill:#000000;stroke-width:7.485;stroke-dasharray:none"
           id="path3471"
           d="m 118.957,97.48567 c -2.85491,0.0012 -4.93927,2.408097 -7.6913,2.9065 -3.74551,1.21531 -7.68349,2.80126 -9.94732,6.22326 -2.226406,2.35013 -1.15301,5.47929 0.0135,8.00854 0.25557,3.46109 3.41615,4.82889 5.97443,6.40371 3.8068,2.74175 7.62824,6.3653 12.62104,6.41991 2.97256,-0.13824 5.64288,-2.70459 5.71932,-5.71353 1.06923,-2.94744 0.30264,-5.9324 -0.005,-8.91687 -0.39189,-3.1967 -1.91159,-6.14832 -1.64454,-9.43951 -0.21224,-2.69191 -1.64823,-5.567968 -4.41832,-6.370189 -2.10882,-0.499539 1.84159,1.143854 2.20693,2.045511 2.88087,2.843218 1.12216,7.245058 2.74249,10.612398 0.83694,3.18204 1.29989,6.63579 1.08172,9.87578 -0.25707,2.63343 -0.81074,5.77887 -3.58427,6.90256 -3.01187,1.52564 -6.37104,-0.21707 -8.99627,-1.76923 -2.78371,-1.70811 -5.06982,-4.12964 -8.05969,-5.50452 -3.06814,-1.31066 -3.06786,-4.91116 -4.33736,-7.52458 -1.15762,-2.51221 0.78566,-4.78374 2.41009,-6.50391 3.33999,-3.66256 8.58961,-3.96074 12.70068,-6.328701 0.94557,-1.151152 2.18947,-0.75679 3.21393,-1.327129 z" />
        <path
           style="fill:#000000;stroke-width:7.485;stroke-dasharray:none"
           id="path3473"
           d="m 100.38994,107.738 c 0.98234,-3.59287 1.80379,-7.910734 -0.733566,-11.078293 -1.515451,-2.380578 -3.685781,-4.731451 -3.718,-7.698173 0.774206,-3.128014 5.163856,-2.855952 7.409216,-1.566285 3.31893,1.434477 7.04186,1.370623 10.36569,2.814017 1.79051,0.707051 3.63174,1.606916 4.5816,3.37454 0.7746,0.673327 2.59739,4.474551 1.67364,1.861626 -1.53865,-3.58706 -5.19837,-5.589052 -8.84472,-6.425025 -2.26563,-0.72957 -4.78049,-0.765654 -6.94348,-1.681254 -2.36001,-1.295906 -6.401993,-2.021085 -8.163976,0.483717 -1.175197,2.687513 0.852931,5.337213 2.301269,7.475717 1.473994,1.87963 2.883657,4.035081 2.762237,6.524883 0.22999,2.01133 -0.78843,3.91589 -0.68991,5.91453 z" />
        <path
           style="fill:#000000;stroke-width:7.485;stroke-dasharray:none"
           id="path3475"
           d="m 119.22644,97.008121 c -2.1646,0.102261 -1.01284,1.249709 0,0 z" />
        <path
           style="fill:#000000;stroke-width:7.485;stroke-dasharray:none"
           id="path3477"
           d="m 119.92026,96.738344 c 0.0355,0.966935 1.28541,2.952364 0.38849,0.901096 l -0.15085,-0.392249 z" />
        <path
           style="fill:#000000;stroke-width:7.485;stroke-dasharray:none"
           id="path3479"
           d="m 100.70225,85.361366 c 2.86895,-2.785915 7.0427,-3.993399 9.35627,-7.396044 1.82109,-1.450228 3.61197,-3.901294 5.92178,-2.494712 2.44761,1.689811 5.24894,3.087633 7.08552,5.452242 2.35687,2.628958 2.26034,6.373919 1.99863,9.668708 -0.15964,2.998133 -2.63991,4.878493 -4.30978,7.07565 0.9867,-0.173209 3.39923,-3.258513 4.24061,-5.065356 0.77842,-3.323833 0.94939,-7.066214 -0.54021,-10.215484 -1.32942,-3.005595 -4.31979,-4.326123 -6.72642,-6.268955 -1.83005,-1.894525 -4.57782,-1.514373 -6.31151,0.259036 -2.17062,1.900663 -3.84067,4.406885 -6.49489,5.711185 -1.47921,0.969694 -3.22726,1.739468 -4.22,3.27373 z" />
        <path
           style="fill:#000000;stroke-width:7.485;stroke-dasharray:none"
           id="path3481"
           d="m 100.95524,84.644234 c -1.56709,0.674178 0.0301,3.614773 -0.63242,1.220676 0.20716,-0.408788 0.47841,-0.785301 0.63242,-1.220676 z" />
        <path
           style="fill:#000000;stroke-width:7.485;stroke-dasharray:none"
           id="path3483"
           d="m 123.91505,95.05099 c 2.47083,1.124922 5.44761,0.157904 7.82074,1.696267 2.35438,1.407693 3.9061,3.754643 5.65563,5.800833 1.55505,1.77259 2.18593,4.11711 3.9623,5.54595 0.74095,2.6841 -1.40976,5.47773 -3.52489,6.99801 -1.96626,2.61971 -5.51165,2.28226 -8.35926,1.90328 -1.13748,-0.13692 -4.20717,-1.61542 -4.02651,-0.72066 2.67122,1.24559 5.73561,1.5068 8.63748,1.47918 2.88245,-0.62613 5.12479,-2.91662 6.84267,-5.17491 1.49615,-2.12882 1.3298,-4.88823 -0.69204,-6.32984 -1.20458,-2.13473 -2.46424,-4.22758 -4.24842,-5.92981 -1.79722,-2.365021 -4.07233,-4.624369 -7.21592,-4.834474 -1.66712,-0.233183 -3.52844,-0.122013 -4.85178,-0.433826 z" />
        <path
           style="fill:#000000;stroke-width:7.485;stroke-dasharray:none"
           id="path3487"
           d="m 124.62401,81.567926 c 2.79085,-2.070375 6.51284,-1.76206 9.79724,-1.661342 3.45138,0.241493 5.94454,3.426212 6.70434,6.584033 0.5257,4.65917 -1.01247,9.891673 -4.88914,12.782914 1.47581,0.256691 3.26891,-2.872959 4.06362,-4.50565 1.19548,-2.849461 1.65183,-6.113497 1.01288,-9.142864 -1.1078,-3.1364 -3.82772,-6.130232 -7.37579,-6.112032 -2.95717,-0.134122 -6.13827,-0.04361 -8.82539,1.315934 l -0.32958,0.333624 z" />
        <path
           style="fill:#000000;stroke-width:7.485;stroke-dasharray:none"
           id="path3489"
           d="m 124.4918,81.208014 c -1.31422,1.665897 1.16068,-0.650653 -0.30603,0.465306 -0.29781,0.690466 0.43974,-0.377412 0.30603,-0.465306 z" />
        <path
           style="fill:#000000;stroke-width:7.485;stroke-dasharray:none"
           id="path3491"
           d="m 136.13702,99.193193 c -1.63629,1.093117 -0.0856,1.589687 0,0 z" />
        <path
           style="fill:#000000;stroke-width:7.485;stroke-dasharray:none"
           id="path3493"
           d="m 121.54611,96.52115 c -1.55495,-2.259061 -0.93908,3.349729 0.69281,0.800854 0.40092,-2.713653 -4.62597,0.247295 -1.23376,1.282691 3.04408,0.732336 3.49525,-3.783781 0.17832,-2.955579 -3.47675,1.844942 3.06406,3.694829 2.83808,0.659055 -1.21659,-2.048951 -5.97996,0.541188 -2.64993,1.492214 2.02804,1.506684 4.55552,-2.397508 1.27889,-2.451023 -2.49988,-0.53379 -3.63927,3.299673 -0.50845,2.852698 3.37295,-0.08183 1.56075,-5.418098 -0.9873,-2.528697 -1.04736,3.525594 5.9718,0.443543 2.36675,-0.7089 -2.44571,0.226575 -2.35489,3.771096 0.32321,2.719099 2.33049,-2.777728 -4.99023,-4.068477 -3.93695,-0.741561 1.47223,2.881115 6.58424,-1.988486 2.2268,-1.979921 -3.41739,-0.121678 -1.93928,4.897234 0.9618,2.99577 2.6134,-1.049007 0.39705,-3.999799 -1.60724,-2.341615 -1.97161,1.571694 0.0323,4.887515 2.06893,2.739447 3.02597,-1.898171 -2.20794,-5.226599 -2.87557,-1.8216 0.96663,2.845265 5.92793,-1.011981 2.26303,-1.83828 -2.92961,0.263307 -1.38318,4.09343 0.86868,2.048333 1.39734,-2.871522 -4.45072,-0.824794 -1.71053,0.265773 2.09883,0.786408 1.78888,-2.482672 0.0373,-1.050227 -0.54246,2.101409 3.10944,0.108192 0.91992,0.04822 -0.76121,2.155015 2.14206,0.36427 0.34502,0.146622 -0.83383,1.314119 1.09982,0.192452 -0.2799,0.03124 -0.68598,2.750445 2.34713,-0.476989 0.37211,-1.086445 -2.77386,-0.0432 0.0914,3.466244 0.6504,1.0018 -0.8965,-2.976452 -3.79452,1.933251 -0.79257,0.742716 2.42272,-0.815395 -1.20979,-2.59442 -0.93035,-0.643751 1.70809,1.696505 3.07362,-2.026225 0.59805,-1.252814 -2.20924,0.942712 -0.72637,3.789899 1.08028,1.846377 2.01548,-2.634975 -5.0836,-2.986644 -2.8685,0.110831 1.69444,1.524926 4.90754,-1.925251 1.60694,-2.205963 -2.67427,-0.592743 -2.85189,4.752204 0.004,2.871384 3.25621,-1.534945 -1.36703,-4.047154 -2.86135,-1.804039 -1.35995,2.739167 4.05121,2.493257 3.63932,0.02402 -1.10038,-2.894053 -6.28884,0.09219 -3.33299,1.80858 2.15752,1.052943 3.56281,-2.460133 0.72033,-2.06341 -3.10821,1.550471 1.82407,4.263381 2.50294,1.471922 -0.47963,-3.04031 -5.87589,0.07545 -2.64152,1.38323 2.18457,1.382068 4.44234,-3.50031 1.21612,-2.391585 -2.77743,0.605609 -0.52973,3.785222 1.26986,1.858946 1.57641,-0.54977 1.95145,-3.083913 -0.25853,-2.129981 -2.70784,-0.294553 -1.41838,4.205181 0.49674,1.851525 2.48506,-0.618926 0.64708,-3.761738 -1.24145,-2.099632 -1.18906,0.584184 -0.32838,2.903513 0.82379,1.74089 -3.43468,-0.107251 2.8208,-3.493753 1.04327,-0.435533 -0.89116,1.429284 -4.01779,0.888148 -1.59718,-0.560126 0.88919,-0.647302 2.97657,-0.259165 1.25763,0.733647 -0.84016,1.726013 -4.38544,0.859301 -1.84364,-0.728626 4.02632,-0.168488 -2.56038,4.209194 -1.58091,0.367968 1.26259,-1.519334 4.24916,0.648049 1.39096,1.153454 -2.58815,0.61847 -1.38103,-3.282037 0.51658,-1.374088 -0.56571,2.614469 -4.34209,-0.412489 -1.21251,-1.41662 1.89773,-0.652805 3.15591,2.142886 0.64096,2.22605 -2.99701,0.943834 -1.13353,-2.687702 0.83283,-1.815026 3.66295,1.186515 -3.69196,3.593099 -1.10763,0.320068 1.40039,-2.118081 3.94724,1.080996 1.09506,1.124637 -3.42655,-0.329226 1.05617,-3.578947 1.38511,-0.811252 -0.78421,2.583862 -3.35632,-0.360073 -0.56331,-0.596423 2.18654,0.160925 -2.2228,1.35609 -0.22634,0.283968 2.1695,0.02928 -2.07968,2.221881 -0.48154,0.104371 1.81407,-1.125732 0.67831,2.186386 -0.0652,0.160102 0.43435,-1.927093 1.9367,0.97588 0.55808,0.819603 0.93436,-0.69565 -0.40796,0.595901 0.24091,-0.571415 -1.42506,1.223019 -1.14615,-0.760571 -0.0803,-0.04078 -0.67098,1.67656 -2.90704,-0.201997 -0.7523,-0.54589 3.26949,0.14531 -1.94131,2.48951 -0.82933,0.239823 1.93171,-2.359609 2.91966,1.989763 0.14793,1.250084 -2.95303,-1.771474 4.00181,-2.435828 1.71728,0.536549 -1.57564,2.805461 -4.40714,-0.789721 -1.42364,-1.834454 3.56289,-0.945821 0.25703,3.960244 -1.69189,1.490156 -1.59247,-2.488105 4.94273,-2.565932 2.39003,-0.280947 -1.60847,1.617823 -4.24517,-1.081617 -1.73236,-1.83638 2.02661,-0.843791 4.02576,3.201084 0.9913,2.233384 -1.67769,-1.578299 3.93117,-3.070254 1.3759,-0.742983 -1.53999,1.424864 -3.5334,-1.314425 -0.86637,-1.438334 3.15501,0.588784 -1.46489,4.624468 -2.39299,1.643202 0.59726,-1.9977 5.58191,-1.037812 2.89331,0.770651 -1.42741,0.773515 -4.30893,-1.557367 -1.44837,-1.634787 2.58537,-0.637002 1.91649,2.294974 -0.32553,1.650332 -3.55901,-1.544674 3.17835,-2.884789 1.73437,-0.100643 -1.01432,2.178841 -4.81786,-0.450702 -1.76391,-1.129217 1.8112,0.07415 -0.82035,2.405237 -0.67202,0.248056 -0.0875,-0.704091 0.5757,-0.922439 0.81275,-0.161794 z" />
        <path
           style="fill:#000000;stroke-width:7.485;stroke-dasharray:none"
           id="path3495"
           d="m 120.88559,96.5139 c 2.9716,-2.102924 2.79025,-6.25755 1.98614,-9.408126 -0.32295,-1.197272 -0.40807,-3.660892 -1.75885,-3.786029 1.35882,2.397178 1.62393,5.250477 1.9115,7.936619 -0.10212,1.922125 -0.93903,3.772241 -2.13879,5.257536 z" />
        <path
           style="fill:#000000;stroke-width:7.485;stroke-dasharray:none"
           id="path3497"
           d="m 121.35888,96.564351 c 0.12906,-3.062956 -0.95781,-6.395134 -3.26048,-8.463096 -0.62408,-0.821222 -3.36629,-0.63732 -1.13793,-0.166876 2.7477,1.284173 3.8956,4.705595 4.07778,7.52699 0.0329,0.375955 0.04,0.809192 0.32063,1.102982 z" />
        <path
           style="fill:#000000;stroke-width:7.485;stroke-dasharray:none"
           id="path3499"
           d="m 121.37399,96.210439 c -2.03219,-1.518291 -6.15709,-1.194103 -7.12205,1.244625 0.41081,1.472905 0.61888,-1.510689 1.86954,-1.253361 1.66426,-0.797933 3.68498,-0.493039 5.25251,0.0087 z" />
        <path
           style="fill:#f9f9f9;stroke-width:7.48501;stroke-dasharray:none"
           d="m 118.5271,126.89565 c -5.56103,-0.95266 -9.19662,-5.73131 -14.06888,-8.11643 -2.71985,-1.58662 -2.71618,-5.1058 -3.93788,-7.69983 -0.815295,-2.55105 1.35823,-4.62754 2.96467,-6.29318 3.78536,-3.70105 9.55305,-3.75175 13.70582,-6.860009 2.64077,-1.04916 5.60706,1.604744 6.1182,4.144219 0.29856,3.36341 0.66963,6.69598 1.78845,9.91385 -0.0154,2.83773 0.78205,5.40601 0.43122,8.18854 -0.2041,2.74308 -1.45102,5.70596 -4.29724,6.56645 -0.86193,0.30955 -1.81288,0.37598 -2.70436,0.15639 z"
           id="path3507" />
        <path
           style="fill:#f9f9f9;stroke-width:7.48501;stroke-dasharray:none"
           d="m 132.01235,117.15982 c -2.06196,-0.55302 -6.27531,0.23651 -6.19318,-2.79316 0.0106,-2.61433 -1.02319,-5.01671 -1.53608,-7.52287 -0.25338,-2.51802 -0.0871,-5.2424 -1.55658,-7.433874 0.40747,-1.446733 2.48966,-2.51694 2.64868,-3.777169 3.3454,-0.06257 7.26098,0.627815 9.15608,3.714701 1.86786,1.950982 3.62301,3.989132 4.8218,6.414922 2.44585,1.78439 2.69335,5.14302 0.53562,7.28216 -1.82254,1.82756 -3.76448,4.26757 -6.6158,4.15984 -0.42061,0.01 -0.84147,-0.009 -1.26054,-0.0446 z"
           id="path3509" />
        <path
           style="fill:#f9f9f9;stroke-width:7.48501;stroke-dasharray:none"
           d="m 134.96998,99.129677 c -2.10763,-3.363837 -6.43531,-4.03546 -10.09137,-3.916667 -2.41043,-0.866295 1.69435,-3.354026 0.57685,-5.193193 0.70769,-2.835063 -0.66566,-6.069365 -0.73756,-8.421459 2.4613,-1.988399 5.90709,-1.618317 8.87264,-1.713638 3.56519,-0.108456 6.39287,2.919544 7.3752,6.114631 0.75383,4.900814 -0.819,10.572428 -5.10384,13.449035 -0.27114,0.725414 -0.63068,-0.09694 -0.89192,-0.318709 z"
           id="path3511" />
        <path
           style="fill:#f9f9f9;stroke-width:7.48501;stroke-dasharray:none"
           d="m 119.64988,94.707235 c -1.47233,-2.308656 -3.52024,-4.321322 -6.24049,-5.010186 -2.92581,-1.117226 -6.06997,-1.419419 -9.07709,-2.240942 -1.44019,-1.159713 -5.700522,-1.207912 -2.34944,-3.141385 2.69823,-1.976987 5.86281,-3.398726 7.97649,-6.086809 1.67376,-1.925348 4.51261,-4.343374 6.9892,-2.180612 2.24866,1.88958 5.14425,3.021153 6.64004,5.679071 1.85219,2.661153 1.67982,6.120436 1.37118,9.195313 -0.10218,1.017696 -1.17219,4.277511 -2.1334,3.249311 1.27553,-3.447712 0.11927,-7.116573 -0.81951,-10.490365 -1.88684,-1.485199 0.61852,2.62867 0.449,3.745291 0.54997,2.317677 0.7813,4.884197 -0.30697,7.088253 -2.21637,-0.977775 -1.16626,-4.496112 -3.35739,-5.786525 -0.37969,-1.379815 -4.4015,-1.506286 -1.96212,-0.802628 2.41894,1.078792 4.35125,4.638393 3.82371,6.974817 -0.30504,0.216303 -0.85738,0.23174 -1.00321,-0.192604 z"
           id="path3513" />
        <path
           style="fill:#000000;stroke-width:7.485;stroke-dasharray:none"
           id="path3515"
           d="m 100.15754,107.83537 c 0.23925,1.012 0.8564,-0.62112 0,0 z" />
        <path
           style="fill:#000000;stroke-width:7.485;stroke-dasharray:none"
           id="path3517"
           d="m 100.19975,107.55386 c -0.338164,1.04609 0.82203,0.0831 0,0 z" />
        <path
           style="fill:#000000;stroke-width:7.485;stroke-dasharray:none"
           id="path3519"
           d="m 100.12964,86.590705 c 1.16656,0.147646 0.26894,-0.774331 0,0 z" />
        <path
           style="fill:#000000;stroke-width:7.485;stroke-dasharray:none"
           id="path3521"
           d="m 100.1621,107.2378 c -0.391142,2.51324 1.06439,0.28578 0,0 z" />
        <path
           style="fill:#f9f9f9;stroke-width:7.48501;stroke-dasharray:none"
           d="m 100.51206,107.76686 c 0.66647,-3.49431 1.70355,-7.51077 -0.525191,-10.683585 -1.55623,-2.299149 -3.455189,-4.525638 -4.075038,-7.273824 -0.282171,-3.318417 3.46976,-3.438501 5.564789,-3.103672 2.6,0.894174 5.12817,2.018474 7.90075,2.226262 2.67381,0.598664 5.32442,1.483156 7.6367,2.982841 0.46521,1.133431 3.95988,3.875088 1.08261,3.250694 -1.18951,0.196532 -4.1634,1.080654 -3.54675,2.537756 0.58339,-1.706451 4.91933,-3.298883 5.00193,-0.725862 -1.7593,-0.33961 -3.66525,1.774852 -5.57835,2.365733 -4.3503,1.835757 -9.63479,2.747527 -12.39056,7.012537 -0.3373,0.4841 -0.65548,0.98794 -1.07089,1.41112 z"
           id="path3523" />
        <path
           style="fill:#f9f9f9;stroke-width:7.485;stroke-dasharray:none"
           id="path3569"
           d="m 122.06771,82.692186 c -0.89254,-0.867195 -0.0543,2.647592 -0.18396,3.431625 0.44147,2.339064 0.30954,-3.14697 -0.49938,-3.195896 -0.28249,1.226754 1.06028,4.871878 0.40738,1.778812 -0.28358,-1.229096 -0.55218,-1.915039 -0.0994,-0.257484 0.93807,1.156876 -0.45548,5.185954 0.39274,4.841467 0.28576,-1.823796 0.47487,-5.259774 -0.8328,-5.960829 -0.15997,1.173124 1.31505,4.416647 0.54179,1.534991 -0.26365,-1.186779 -0.36634,-2.53573 -0.11077,-0.491421 0.0191,0.957946 0.66879,3.865489 0.3874,1.407779 0.25425,-0.36416 -0.72014,-4.95925 -0.003,-3.089044 z" />
        <path
           style="fill:#f9f9f9;stroke-width:7.485;stroke-dasharray:none"
           id="path3571"
           d="m 121.26502,82.989197 c 0.60485,1.222023 1.48954,4.58515 1.91968,4.408128 -0.57099,-1.554679 -1.3802,-5.077676 -2.5371,-5.116821 -0.0237,1.202027 2.2646,2.947365 0.54972,0.971919 -0.97823,-0.530867 1.47437,1.975605 -0.111,0.04245 0.51976,0.80926 2.06871,4.194101 1.33462,1.293767 -1.09854,-2.1595 0.21762,2.864355 -0.0836,0.110328 -0.0785,-1.054934 -0.7533,-2.061754 -0.38937,-0.290444 0.31795,1.650483 -0.18251,4.825045 0.69022,5.536205 0.61391,-0.912783 -0.62426,-4.962871 -0.33908,-2.140387 0.0384,1.095218 0.57461,4.007873 0.71009,1.190457 0.0449,-1.321078 -0.85225,-5.104981 -0.53244,-1.705512 -0.11243,1.274155 0.81051,4.92721 0.81759,1.792048 0.30711,-1.340262 -0.91082,-2.819097 -0.43861,-0.58856 0.11428,0.928592 -0.86357,5.123532 0.5661,2.729672 0.57242,-1.460616 -0.3358,-2.312069 -0.6848,-0.338484 -0.49882,2.868934 1.40164,-0.353235 0.59219,-0.979861 -0.4184,0.931386 -0.45189,3.614701 -0.2872,1.934295 -1.21672,0.614363 -0.53569,3.962883 0.1055,1.338227 0.41727,-1.282539 0.81506,-4.315936 0.17564,-4.580769 -0.90103,1.525507 -1.10935,4.995857 -0.59939,5.665934 -0.048,-1.722478 0.57196,-4.451554 0.58385,-5.507978 0.0932,1.66469 -0.50577,4.341374 -0.6078,5.285742 0.42707,-0.575571 0.29852,-3.081671 0.19323,-1.435842 1.24438,-0.647103 0.47328,-4.543513 -0.0802,-1.44313 -0.17472,3.462755 1.09324,-3.592931 0.32723,-0.493756 -0.72906,0.987608 -0.36846,2.091343 -0.0839,0.380767 0.43547,-1.246918 -0.35887,-5.399615 -0.19772,-1.992747 -0.0587,1.076696 0.28724,2.128263 0.33668,0.371074 -0.43591,-0.687456 -0.45774,-4.644856 -0.81989,-3.218948 0.16687,0.872539 0.0529,4.541602 0.55701,3.479477 0.0491,-1.265395 -0.92598,-4.658105 -0.64277,-1.508024 -0.10225,1.440146 0.58905,2.666728 0.21208,0.538733 -0.33167,-1.520628 0.2634,-4.274223 -0.66954,-5.055355 -0.0183,1.248741 1.06455,2.585544 0.31854,0.597649 -0.5166,-0.380724 0.85359,3.43943 0.33628,0.543499 -0.16166,-0.901623 -2.39902,-2.205495 -1.00492,-0.662661 0.83057,-0.763167 -1.78801,-1.521694 0.004,-0.05341 1.5448,0.830428 -1.9548,-3.799198 -0.27258,-0.890416 0.89265,1.127965 1.28114,4.734572 2.04593,4.489485 -0.0566,-1.734573 -1.32868,-3.160078 -1.99419,-4.69675 z" />
        <path
           style="fill:#f9f9f9;stroke-width:7.485;stroke-dasharray:none"
           id="path3573"
           d="m 116.75254,87.881509 c 2.74206,1.381989 2.66892,4.951289 4.26225,6.956548 0.56098,-2.202431 -1.02512,-4.758339 -2.14583,-6.714953 -0.65464,-1.16107 -3.17477,-1.783467 -1.71119,0.0858 1.02432,0.971717 3.15387,3.213342 2.71053,3.865987 -0.49429,-1.68558 -1.93703,-5.949784 -3.87427,-4.522677 0.56901,1.030346 3.74547,1.272191 1.32283,0.144119 -3.40856,-1.141266 3.62431,2.663468 0.59939,0.772565 -0.47017,-0.766901 -3.27925,-1.932554 -2.57045,-0.461553 1.10985,0.51076 2.58331,-1.201954 0.58494,-0.50192 -1.56429,1.034668 1.42572,-0.860651 -0.215,-0.04186 -0.61605,1.781419 3.17814,1.220422 1.79757,0.330636 0.0611,1.799945 3.08678,4.756961 3.18142,5.358034 -0.85454,-1.068955 -2.63103,-3.905112 -2.80923,-3.913131 0.93106,1.339414 2.22406,4.226325 3.19842,4.417022 -0.39696,-2.238637 -2.593,-3.638953 -3.49878,-5.623864 -0.7969,0.203747 -1.99489,0.21173 -1.45325,-0.896152 -2.29601,1.084988 0.9426,1.022705 0.91016,0.208043 -1.08235,0.347819 -2.15554,0.279549 -0.46765,0.515024 0.47725,1.14689 3.67759,2.287595 1.86275,0.382869 -0.63792,-0.680102 -3.8115,-1.300182 -1.45931,-0.251298 1.49161,0.939386 1.41513,-0.04878 -0.0121,-0.322919 -2.00272,-0.355322 1.52584,-0.07651 1.22204,1.295419 0.37158,0.908809 1.41636,4.008069 2.09514,3.04895 0.0835,-1.859121 -3.34383,-4.234372 -2.97696,-4.621892 2.56242,1.422878 2.71408,4.677621 3.83369,7.006786 -1.28633,-1.339504 -1.18329,-4.854526 -3.41466,-6.11975 -0.28592,-0.199069 -0.62775,-0.375245 -0.97242,-0.395833 z" />
        <path
           style="fill:#f9f9f9;stroke-width:7.485;stroke-dasharray:none"
           id="path3575"
           d="m 117.29098,87.857437 c 0.70151,1.535779 1.75357,4.898474 3.47269,4.557359 0.57132,-2.43178 -1.96885,-5.33953 -3.94353,-6.200161 -1.42931,2.289706 1.54012,3.463605 2.49578,5.082076 0.43082,0.957924 0.95123,2.994301 1.37787,2.321019 -1.00226,2.537085 4.37094,0.252184 1.45669,-0.109451 -2.59778,-0.240494 -0.25615,2.488566 0.69792,0.558423 0.0126,-1.531894 -1.69755,0.667906 -1.68686,-0.733224 -1.33605,-1.538975 -1.42356,1.537497 -0.18018,0.434773 0.51496,-2.814657 -2.25812,-4.246079 -3.51311,-6.331365 -1.08972,-0.743976 1.30839,2.049604 1.59165,2.635695 0.38391,0.876434 1.4437,3.378826 1.47941,1.229465 -0.96803,-1.051157 -1.93126,-3.489368 -3.24833,-3.444609 z" />
        <path
           style="fill:#f9f9f9;stroke-width:7.485;stroke-dasharray:none"
           id="path3577"
           d="m 116.11478,95.495437 c -1.50104,-0.461651 -3.51023,2.799801 -1.37364,2.120411 0.72827,-0.602993 3.09871,-2.99164 1.19652,-2.35265 -0.93848,0.485957 -3.39145,3.310772 -1.17978,2.553065 0.46947,-1.83987 5.5625,-0.768729 3.51306,-2.818278 -3.23323,-0.570535 0.88894,1.801247 0.40455,0.549176 -0.63189,-0.872256 -0.68585,0.885144 0.39209,0.603859 0.19079,-0.330152 0.17012,-1.809879 -1.08028,-1.220476 -2.30447,-0.253937 0.13638,1.98872 0.57512,0.646909 -1.22789,-0.931204 -5.62823,0.436195 -4.24532,2.57398 1.26433,0.108106 3.89764,-3.938763 1.4807,-3.247012 -1.39241,0.18193 -3.01881,4.057253 -0.90865,2.398 0.51941,-0.666435 2.0265,-0.569725 1.22563,-1.806984 z" />
        <path
           style="fill:#000000;stroke-width:7.485;stroke-dasharray:none"
           id="path3581"
           d="m 122.66386,97.0043 c 0.84279,0.792561 1.70118,-2.115923 1.24658,-0.501041 2.7872,-1.989784 -2.16104,-3.180592 -3.71709,-2.131996 -2.93276,1.363964 -0.50657,5.512805 2.23743,4.67307 2.97697,0.21109 5.12042,-3.899672 1.69983,-5.087522 -0.25049,-0.725043 -4.98967,6.3e-5 -3.10733,1.873782 0.61799,-0.596479 1.84241,-1.615785 1.36778,0.04603 -0.19369,-0.319818 0.23812,0.297381 0.23458,-0.130542 0.93495,-0.114623 0.79465,0.690729 1.3427,0.546979 -0.97322,0.226451 -2.46898,1.037352 -2.36479,0.892582 -3.05797,-1.390558 1.48279,-1.41015 2.06578,-1.853089 -1.03439,-0.401746 -0.82077,1.937596 -0.4955,0.232305 -1.10301,-0.135101 -0.58224,0.830692 -0.50997,1.439444 z" />
        <path
           style="fill:#000000;stroke-width:7.485;stroke-dasharray:none"
           id="path3583"
           d="m 114.22425,104.35182 c -3.18615,1.58449 -4.47586,5.18157 -6.84413,7.64368 -0.73089,1.35488 1.6684,-1.5738 1.91826,-2.04468 1.33793,-2.00878 3.14066,-4.41449 4.92587,-5.599 z" />
        <path
           style="fill:#000000;stroke-width:7.485;stroke-dasharray:none"
           id="path3585"
           d="m 119.6243,106.93882 c -1.51252,3.68072 -1.36811,8.01885 -3.87643,11.2765 3.07786,-2.87832 2.49968,-7.49702 4.09173,-11.09155 l -0.0536,-0.11769 z" />
        <path
           style="fill:#000000;stroke-width:7.485;stroke-dasharray:none"
           id="path3587"
           d="m 107.33357,97.098293 c 0.9933,-1.078936 4.21552,-0.733085 4.3948,-1.216357 -1.51169,-0.170623 -3.26915,0.120865 -4.3948,1.216357 z" />
        <path
           style="fill:#000000;stroke-width:7.485;stroke-dasharray:none"
           id="path3589"
           d="m 105.07689,91.376232 c 1.7377,0.320726 5.51592,1.412108 5.98744,0.928575 -2.03235,-0.04203 -3.93995,-1.237782 -5.98744,-0.928575 z" />
        <path
           style="fill:#000000;stroke-width:7.485;stroke-dasharray:none"
           id="path3591"
           d="m 112.61804,85.595419 c 1.98582,0.544203 5.12036,3.470668 5.21946,3.936032 -0.68679,-2.241985 -3.27125,-3.312222 -5.21946,-3.936032 z" />
        <path
           style="fill:#000000;stroke-width:7.485;stroke-dasharray:none"
           id="path3593"
           d="m 120.58335,82.56988 c -0.04,1.791822 -0.79721,6.706494 0.0109,6.64921 -0.58056,-2.21115 0.59572,-4.479124 -0.0109,-6.64921 z" />
        <path
           style="fill:#000000;stroke-width:7.485;stroke-dasharray:none"
           id="path3595"
           d="m 127.17158,88.273042 c 1.63352,-0.918047 4.94718,-3.510149 4.61927,-4.264267 -1.01929,1.910891 -3.41045,2.66866 -4.61927,4.264267 z" />
        <path
           style="fill:#000000;stroke-width:7.485;stroke-dasharray:none"
           id="path3597"
           d="m 130.5209,93.365337 c 1.44302,-1.477347 5.76891,-1.731251 6.14324,-2.227254 -2.14724,0.240389 -4.56078,0.618408 -6.14324,2.227254 z" />
        <path
           style="fill:#000000;stroke-width:7.485;stroke-dasharray:none"
           id="path3599"
           d="m 126.24656,102.64833 c 1.46753,1.5999 0.85514,5.62657 1.33716,6.3458 0.33249,-2.17577 0.12459,-4.67215 -1.21497,-6.43216 z" />
        <path
           style="fill:#000000;stroke-width:7.485;stroke-dasharray:none"
           id="path3607"
           d="m 122.27558,95.992896 c 1.18789,-2.751299 1.0414,-6.192635 3.52628,-8.266965 3.01679,-2.872555 7.21951,-3.977821 11.16944,-4.844625 1.05411,0.448077 4.88749,-1.025429 2.19181,-1.046516 -5.4459,0.698731 -11.40066,2.24712 -14.94927,6.757057 -1.24007,2.20625 -1.86154,4.946466 -2.19973,7.330051 z" />
        <path
           style="fill:#000000;stroke-width:7.485;stroke-dasharray:none"
           id="path3611"
           d="m 123.06873,94.702012 c -0.81941,-3.658299 0.69213,-7.455677 2.74896,-10.432799 2.53548,-3.144911 6.51598,-4.637473 10.36597,-5.404768 0.2297,-1.711507 -3.2463,0.202757 -4.33197,0.344451 -4.43049,1.500058 -8.11416,5.169359 -9.16825,9.788705 -0.35417,1.277748 -1.442,5.94275 0.38529,5.704411 z" />
        <path
           style="fill:#000000;stroke-width:7.485;stroke-dasharray:none"
           id="path3617"
           d="m 122.55619,94.35436 c -0.93813,-3.741423 -0.88441,-7.768491 0.074,-11.486554 0.63405,-2.606116 2.56567,-5.397543 2.89491,-7.674575 -2.09853,1.281441 -2.3276,4.556727 -3.48269,6.694371 -1.13713,3.398687 -1.22902,7.117965 -0.72307,10.646679 0.35564,0.660302 -0.0463,2.751422 1.2368,1.820079 z" />
        <path
           style="fill:#000000;stroke-width:7.485;stroke-dasharray:none"
           id="path3619"
           d="m 125.62778,74.593248 c -1.17747,-0.965312 -0.42966,0.861942 -0.43403,0.195519 0.82146,1.627087 2.39097,-0.366363 0.34248,-0.564259 -0.23983,1.328977 1.81616,2.112717 0.39397,0.442521 -2.39513,-1.149837 1.13024,2.608341 0.18896,0.71029 -1.17307,-1.419059 -2.0931,-0.267646 -0.48128,0.727234 0.52046,-0.606097 -2.28776,-2.538097 -1.33029,-0.356343 0.75114,1.537561 2.27227,1.17181 0.57811,-0.07966 -1.78308,-1.139609 1.28594,3.084867 0.58706,0.835002 -0.82919,-1.145967 -2.23644,-1.105764 -0.91775,0.269475 1.56651,1.526214 0.19954,-2.803204 -0.48158,-0.71033 0.35812,1.387426 1.36378,1.436916 -0.1536,0.429761 -1.84818,-0.41175 1.31815,3.280144 0.6524,0.89902 -2.11711,-1.538302 -0.11491,2.798735 0.0908,0.457153 -1.43302,-2.071876 -2.19861,0.618375 -0.60108,0.975524 0.0301,-2.260478 -2.38548,0.463578 -0.12291,0.526745 0.35981,-1.313146 -2.41258,-1.355803 -0.60052,0.259577 1.40916,0.717959 -0.47552,-2.090109 -0.20645,-0.214463 1.436,1.978296 0.5405,-3.038801 0.57001,-0.946407 1.45744,0.41502 -0.12177,-2.70384 0.76401,-0.43957 1.58209,0.670438 -0.35586,-3.04247 0.25405,-0.912611 1.27078,0.454582 0.0712,-2.089152 0.14792,-1.646183 -1.1724,0.700699 1.01937,1.965523 -0.33435,0.909332 -0.78282,1.022507 0.8869,1.806484 -0.20085,0.342051 -1.47128,0.07862 0.10578,2.273768 -0.64406,0.889132 -1.6235,0.265409 0.66338,3.001251 -0.26794,1.303163 -0.72113,1.561667 1.47522,-0.559874 -0.52096,-0.483003 -0.69031,1.11066 2.13982,1.484733 0.7943,-0.138046 -1.84023,-0.04925 1.44872,1.426605 0.3606,-0.562605 -1.61984,-1.600266 -0.21433,1.890176 0.61638,0.22112 -0.43959,-1.595935 -2.0849,0.230116 -0.16181,0.130106 1.0061,-0.663654 -2.15886,-2.319179 -0.63138,-0.608494 1.97817,1.52261 1.63441,-1.370312 0.50937,-1.546041 0.42321,1.528194 1.64025,0.900159 0.12873,-0.14361 -2.13453,-0.699865 2.37337,3.022487 0.65337,0.203215 -1.76029,-1.560907 -0.64528,1.272654 0.61424,0.750145 -0.15465,-1.147386 -2.52186,-2.575967 -0.7977,-0.920916 2.20651,1.394118 -1.19009,-2.577991 0.25476,-0.286038 1.87506,1.414493 0.77077,-1.48549 -0.288,-0.822168 0.71394,1.145692 2.53469,1.251591 0.94272,-0.186916 -1.17184,0.124904 1.94511,1.369935 -0.0278,0.26676 -1.34177,-0.490938 -0.97891,0.535405 -0.23989,-0.175185 z" />
        <path
           style="fill:#000000;stroke-width:7.485;stroke-dasharray:none"
           id="path3621"
           d="m 136.68971,78.890359 c 0.43678,1.119202 -0.66662,-3.488458 -0.69395,-1.001883 -0.17275,1.685643 1.24678,1.052601 -0.0553,-0.03136 -0.6541,0.877206 0.54021,2.309767 0.23863,0.334618 -0.64894,-2.813277 -1.16122,1.758671 -0.13284,0.917261 0.47469,-1.284939 -1.45753,-3.001339 -1.06833,-0.697618 1.40834,2.4758 -0.0929,-2.672938 -0.17254,0.01289 -0.0244,1.297988 0.7795,1.745683 0.32531,0.07794 -0.94371,-1.718494 -0.93906,2.661216 -0.26143,0.491656 -0.55115,-2.159224 -1.72468,1.547958 -0.36758,0.504794 0.0498,-2.632635 -2.06841,-0.306251 -0.66928,0.009 0.56443,-2.433523 -2.01895,0.351511 -0.24485,0.305936 0.4988,-1.07185 -1.52335,-3.216722 -1.25386,-0.942899 0.60254,1.754489 1.34074,-1.136431 0.3068,-0.407656 -0.51506,1.871344 1.66814,1.832557 1.18233,-0.02812 -1.3315,1.661724 1.96735,-0.362629 -0.0764,-0.38085 -0.0698,2.202042 1.83024,0.534915 0.57358,-0.131042 -0.24695,1.247436 1.14246,3.259998 1.39742,0.890648 -0.0456,-1.929052 -1.37488,0.492602 0.21025,-0.112548 0.0958,-1.655471 -0.86392,0.588972 0.23689,-0.224021 -0.58844,-1.659393 -1.08122,0.643293 -0.41721,-0.242214 -1.56862,-1.393894 -0.20079,3.137868 -0.70971,0.227666 -0.42354,-2.094153 -1.91897,0.886826 -0.49583,0.455963 0.11042,-1.772837 -1.49588,-1.047228 -0.66217,0.02525 -0.23656,-1.762034 -1.31421,0.786743 -0.50914,0.68487 0.48151,-1.375198 -1.38565,-1.639873 -0.63046,-0.394725 1.49709,-0.212062 -1.03884,-2.292798 -0.0717,-0.215237 0.32984,1.695182 1.69727,0.494507 0.75612,-0.401398 -0.91825,1.635597 1.87074,1.126476 0.58638,-0.347752 -1.61673,0.690793 1.81826,2.3126 0.25633,0.184328 -1.11654,-0.298663 1.35142,2.784635 0.52714,0.252526 -0.84895,-1.03798 0.71787,2.70603 0.75862,0.26923 -0.2224,-1.790719 -1.31509,-1.004072 -0.15124,0.121523 1.09704,0.717413 -0.68535,-3.059938 -0.0631,-0.926136 0.88534,3.130727 1.06971,-1.248521 0.13329,-0.634757 -0.37406,1.262068 1.29573,2.850814 0.64564,0.73349 -0.91978,0.292843 1.33743,1.822727 0.44601,-0.108525 -1.41605,-2.522097 0.55374,2.978638 0.24633,0.743015 l -0.12042,-0.01395 z" />
        <path
           style="fill:#000000;stroke-width:7.485;stroke-dasharray:none"
           id="path3623"
           d="m 135.96939,83.110103 c -0.36797,-2.688859 -1.00001,1.009347 0.0427,0.786716 0.60073,-1.120399 -0.93668,-4.589118 -0.78469,-1.577085 0.15785,2.469662 1.36976,0.339497 0.65743,-0.824427 -1.21332,0.517603 0.50813,3.767466 0.50253,0.984499 0.55803,-1.548676 -0.79297,-2.221769 -0.46931,-0.212944 5.4e-4,2.575926 1.8113,0.795727 0.89732,-0.659092 -1.31698,0.351546 0.57169,4.202131 0.69233,1.542996 0.61166,-1.249195 -0.66993,-2.940939 -0.52963,-0.734017 -0.1892,1.380935 1.05923,2.362129 1.00434,0.46871 0.3054,-1.202768 -0.58528,-2.716345 -0.54775,-0.679102 0.39615,3.165452 1.90062,-1.08876 0.54851,-1.671206 -0.8599,1.148502 1.01923,4.25643 1.00259,1.652964 -0.47201,-2.945026 -0.55529,3.464635 0.67468,0.234453 0.2668,-1.615034 -1.12695,-1.796695 -0.52638,-0.112786 0.80151,1.710418 1.1884,-3.078929 0.28934,-0.527689 0.27037,2.15353 2.01465,-2.001872 0.56798,-0.527583 -0.39755,2.635015 1.89962,0.94839 0.67252,-0.114861 -1.22052,1.41602 1.10741,1.439996 -0.009,0.01702 -1.61505,0.405765 0.80608,3.13878 0.17312,0.808887 -0.0341,-1.640923 -1.81866,-0.654015 -0.72929,-0.109112 0.0521,-1.779062 -1.67673,-0.13136 -0.43896,0.582797 0.40393,-1.611003 -0.99918,-2.05322 -0.82316,-0.181353 0.84486,2.602206 0.0616,-2.638082 -0.40197,-0.210831 0.16393,3.134276 0.33737,-2.462159 -0.68777,-1.216484 -0.42575,1.016204 0.7002,3.599031 0.34826,1.24193 -0.56984,-3.261017 -1.32332,2.765686 -0.41625,1.556919 0.35284,-1.152054 -0.70959,-3.689175 -0.78082,-1.272296 0.0262,1.062223 0.49041,2.078685 0.17304,0.411374 -0.0106,-2.275469 -1.46875,-0.266409 -0.49086,0.87152 0.20258,-1.066415 -0.53229,-4.322765 -0.78568,-1.411476 -0.0248,1.725819 0.64234,1.267168 0.26004,-0.145181 -1.21488,-2.264125 -0.10068,3.282866 -0.20408,0.655893 0.0257,-0.877624 -0.59713,-2.78841 -0.49804,-0.726301 0.0645,1.343975 1.11495,2.760644 0.46777,0.521437 -0.33101,-1.442476 -0.82727,0.66346 0.14953,0.575714 z" />
        <path
           style="fill:#000000;stroke-width:7.485;stroke-dasharray:none"
           id="path3625"
           d="m 133.37033,79.398624 c 0.6779,1.733093 -0.5109,-2.428419 -0.41907,0.243414 0.35499,1.684731 1.75679,1.557542 1.11413,-0.168815 -0.24771,-1.850738 -1.68655,-0.952314 -0.42614,0.228658 1.07797,-0.543094 -0.57765,-2.838996 -0.10604,-0.522219 1.72727,3.104842 1.63827,-3.036178 0.24633,-2.1254 -0.62279,1.119188 1.39048,3.717948 0.95887,1.372668 0.0996,-1.685893 -1.61316,-1.359254 -0.66886,0.179979 0.63971,2.520436 1.65568,-1.989444 0.76526,-0.217467 0.43717,2.405679 2.25804,0.616602 1.06341,-0.501943 -0.85418,2.014893 1.47416,-0.181672 0.0243,0.239964 1.16809,0.188719 -0.41433,-0.589129 -0.0323,0.395646 1.06653,0.09957 -0.78221,-1.2479 -0.2365,0.282412 0.78626,1.065839 -1.1665,-2.73497 -1.18135,-0.188941 1.34859,2.042279 -1.18627,-3.414724 -0.44519,-0.256636 1.59908,2.824234 -0.55089,-3.653461 0.006,-0.455274 0.0174,1.525879 0.90894,2.613667 -0.0629,0.564415 -1.56462,-0.613312 0.49114,2.435454 -0.25602,0.240168 -1.45984,-1.446761 0.95141,3.900542 -0.24904,0.785628 -1.12782,-1.472372 0.43605,1.64081 0.2507,0.222635 l -0.34566,-0.318895 z" />
        <path
           style="fill:#000000;stroke-width:7.485;stroke-dasharray:none"
           id="path3627"
           d="m 123.79021,78.56911 c 2.09985,1.308803 -1.32735,-2.395245 0.27353,-0.356871 1.19198,-0.545117 -0.81747,-2.189488 0.14474,-0.28817 1.64255,1.142711 0.43854,-2.787517 0.52985,-0.595614 1.47188,-0.272511 -0.46467,-1.726088 0.36104,-0.362398 1.22586,-0.535365 -0.10863,-0.71296 1.00283,-1.389703 -0.1701,-1.678056 -0.85187,-0.847354 0.0477,0.194092 1.42936,-0.809633 -1.01446,-2.110916 0.1138,-0.245591 1.07619,-1.363784 -1.5067,-1.228409 -0.31054,0.409677 1.74345,1.087372 -1.6132,-2.775931 -0.97477,-0.121921 0.31336,1.695356 1.29932,0.805674 -0.002,-0.02119 -0.88589,0.712669 0.89938,3.052336 0.3205,0.960019 -1.74921,-0.488448 0.39233,2.26823 -0.50919,0.211794 0.37953,1.803327 1.60161,-0.558711 0.10163,-0.658084 0.64478,1.728595 1.40729,-0.34567 0.35608,-1.017098 1.09879,2.045927 1.95104,0.396288 0.72701,-0.420443 1.05722,1.934609 0.57347,-1.61026 -0.18943,-0.126812 0.76624,1.847042 0.73494,-0.715575 -0.45931,-0.23065 0.69,0.772661 -0.83201,2.443476 0.13226,1.998805 -0.97902,-1.09604 -0.6199,1.434805 -0.47292,0.171113 -1.38353,0.133001 0.44686,1.550321 -0.63665,0.411645 -1.33609,0.291869 0.73372,0.82677 -1.06132,0.474199 -0.53889,1.170214 2.49093,1.423195 0.6844,0.734236 l -0.1795,0.268962 z" />
        <path
           style="fill:#000000;stroke-width:7.485;stroke-dasharray:none"
           id="path3629"
           d="m 122.71897,95.670139 c 3.74617,-4.413448 9.59432,-6.710156 15.31403,-6.77294 1.58371,0.360756 2.34682,-1.342229 0.35698,-0.888595 -5.99921,1.35e-4 -12.1869,2.349503 -15.92199,7.196119 -0.44461,0.14307 0.11039,0.500531 0.25098,0.465416 z" />
        <path
           style="fill:#000000;stroke-width:7.485;stroke-dasharray:none"
           id="path3631"
           d="m 139.39581,88.437454 c -0.046,2.921148 1.28484,-2.967844 -0.20086,0.02716 -0.14998,3.526292 2.07243,-4.333673 0.16996,-0.925503 -0.74017,1.257488 0.0933,3.569116 0.74654,1.067084 0.67022,-1.134009 0.22695,-3.114828 -0.59218,-0.951368 -0.63896,1.16885 -0.74538,3.835289 0.0262,1.122636 0.47206,-1.119938 -0.17555,-4.113688 -0.92646,-1.505478 -0.5197,0.856724 -0.48505,4.143852 0.44313,1.774963 0.61187,-1.225624 0.53308,-3.168054 -0.59254,-1.001806 -0.77108,1.348039 0.24959,2.050457 0.60436,0.402448 0.64411,-2.368398 -1.35288,-1.172156 -1.24577,0.407548 -0.60519,2.900908 1.95132,-2.770327 -0.22066,-2.441865 -0.99493,0.61298 -1.30281,5.161656 -0.33406,2.373653 0.76705,-2.82858 -1.9088,-0.02657 -0.77398,1.158156 1.24523,-0.784523 0.54905,-3.489883 -0.39485,-1.285559 0.80031,2.810232 2.14519,-3.910365 0.51066,-1.011359 -0.91526,0.839926 -0.46923,3.012327 -0.0146,0.697357 0.28523,-1.908495 -1.36381,-1.816814 -1.35794,-0.09705 -0.47812,3.271493 2.19268,-0.892103 0.53357,-1.275696 -1.00201,0.814346 -0.68061,4.145296 -0.0148,1.573357 0.23096,-3.277833 -2.81379,1.015606 -0.99635,1.217362 0.9543,-1.032082 0.22972,-4.752412 -0.38534,-1.806374 -0.59332,1.955363 1.81625,1.697775 1.26474,0.178493 -0.84298,2.530523 1.22339,1.294641 1.38087,0.878785 1.19944,-1.047903 -1.46018,-0.526483 -0.8662,0.31081 0.86875,-1.577595 -1.76509,-1.930468 -1.14557,-0.14887 0.71348,-1.122526 -0.23645,-3.899419 -0.64674,-1.122776 -0.5383,1.243631 0.70405,2.545552 0.74454,0.588516 0.11772,-2.938165 -0.57146,2.992926 0.74476,0.562072 0.42945,-0.776995 0.31696,-3.575729 -0.52425,-1.357991 -0.63601,1.19787 0.56517,2.908388 0.81943,0.765665 0.26136,-0.954809 -0.53083,-2.712195 -0.40585,-0.691615 -0.68957,1.624588 1.1811,2.621657 1.41355,0.641578 0.7254,-1.39815 -0.15224,-2.245623 -0.70279,-0.518253 -0.77698,2.040797 1.43462,0.616488 0.23099,-0.348148 -0.6224,0.809142 -0.17255,3.637373 0.47722,1.264811 0.49759,-1.52058 -0.52225,-1.88505 -0.63487,-0.234441 0.27344,3.234604 1.64953,-1.83714 1.24236,-1.879567 -0.45453,1.131886 -0.30286,3.909259 0.5542,2.284061 0.93821,-0.986556 0.29227,-2.967243 -0.0839,-0.68777 -0.0319,2.99965 2.04737,-1.238936 0.58594,-1.523746 -0.55436,0.704874 -0.7229,4.343331 0.0908,2.214279 0.57457,-1.069356 0.28935,-4.245939 -0.0265,-1.356677 -0.38996,1.203719 0.14508,4.2407 0.90686,1.467555 0.48109,-0.913331 0.71663,-3.790866 -0.27403,-1.47081 -0.56158,1.181814 -0.0152,2.845717 0.37514,0.772973 0.56781,-1.253533 0.19282,-3.147922 -0.52868,-0.938329 -0.63754,1.318796 0.33788,2.787058 0.53435,0.635283 -0.5699,-2.033685 -0.32517,2.582489 -0.19536,0.323301 l -0.12835,-0.129145 -0.18679,2.85e-4 z" />
        <path
           style="fill:#000000;stroke-width:7.485;stroke-dasharray:none"
           id="path3633"
           d="m 130.48117,100.32629 c -0.53303,2.35974 3.48752,4.99982 3.77367,5.3324 -1.2103,-1.8507 -3.69454,-3.11144 -3.77367,-5.3324 z" />
      </g>
    </g>
  </g>
</svg>
