<?xml version="1.0" encoding="UTF-8" standalone="no"?>
<!-- Created with Inkscape (http://www.inkscape.org/) -->

<svg
   width="210mm"
   height="297mm"
   viewBox="0 0 210 297"
   version="1.1"
   id="svg14887"
   inkscape:version="1.2 (dc2aedaf03, 2022-05-15)"
   sodipodi:docname="raiz-tuberculo-ramo.svg"
   xmlns:inkscape="http://www.inkscape.org/namespaces/inkscape"
   xmlns:sodipodi="http://sodipodi.sourceforge.net/DTD/sodipodi-0.dtd"
   xmlns="http://www.w3.org/2000/svg"
   xmlns:svg="http://www.w3.org/2000/svg">
  <sodipodi:namedview
     id="namedview14889"
     pagecolor="#505050"
     bordercolor="#eeeeee"
     borderopacity="1"
     inkscape:showpageshadow="0"
     inkscape:pageopacity="0"
     inkscape:pagecheckerboard="0"
     inkscape:deskcolor="#505050"
     inkscape:document-units="mm"
     showgrid="false"
     inkscape:zoom="2.5247521"
     inkscape:cx="497.0785"
     inkscape:cy="510.94124"
     inkscape:window-width="2560"
     inkscape:window-height="1369"
     inkscape:window-x="2552"
     inkscape:window-y="-8"
     inkscape:window-maximized="1"
     inkscape:current-layer="layer1" />
  <defs
     id="defs14884" />
  <g
     inkscape:label="Camada 1"
     inkscape:groupmode="layer"
     id="layer1">
    <path
       style="fill:#000000;stroke-width:0.874001"
       id="path15008"
       d="m 76.12595,136.39965 c 2.513015,-0.0505 4.986674,-0.52524 7.469325,-0.8628 2.357033,-0.32049 2.046444,-0.2672 4.227301,-0.43438 0.571034,0.008 1.142952,-0.008 1.713105,0.0249 1.109729,0.0638 2.517519,0.27484 3.608044,0.4412 1.775997,0.27094 3.543699,0.59265 5.311135,0.91353 2.28925,0.40026 4.55678,0.94705 6.86612,1.22892 1.22408,0.1494 1.53396,0.13327 2.72583,0.16923 2.33429,-0.002 4.64808,-0.36531 6.96458,-0.61131 0.55806,-0.0524 1.11626,-0.10332 1.67418,-0.15721 0.77837,-0.0752 2.2533,-0.21663 3.03066,-0.33104 1.15238,-0.1696 2.00428,-0.36438 3.1429,-0.5742 0.5146,-0.0948 1.03073,-0.18119 1.54609,-0.27178 0.48223,-0.067 0.96291,-0.14624 1.44667,-0.20115 0.46677,-0.053 2.5952,-0.22161 3.04131,-0.25912 1.25226,-0.1053 2.5022,-0.22438 3.75196,-0.35545 1.90687,-0.22263 3.82735,-0.33749 5.73078,-0.58905 0.21645,-0.011 0.39606,-0.0925 0.57443,-0.20612 0,0 -0.004,-0.0565 -0.004,-0.0565 v 0 c -0.19977,-0.0844 -0.39315,-0.12152 -0.61107,-0.0777 -1.90763,0.20508 -3.8199,0.3674 -5.72763,0.57199 -1.24693,0.13207 -2.49412,0.25018 -3.74364,0.35564 -0.47541,0.0401 -2.57126,0.20743 -3.06108,0.26328 -0.48799,0.0556 -0.97292,0.13543 -1.45938,0.20314 -0.51724,0.0913 -1.03525,0.1783 -1.55172,0.27382 -1.10724,0.20476 -1.99846,0.40707 -3.11725,0.57218 -0.75397,0.11126 -2.26816,0.25781 -3.02192,0.33108 -0.5593,0.0544 -1.11889,0.10574 -1.67835,0.15861 -2.30074,0.24567 -4.59858,0.60849 -6.91698,0.61438 -1.18294,-0.0351 -1.46801,-0.0182 -2.68459,-0.16652 -2.30587,-0.28114 -4.5709,-0.82209 -6.856411,-1.22335 -1.771682,-0.32067 -3.54376,-0.64325 -5.324041,-0.91364 -1.103421,-0.16758 -2.529922,-0.37859 -3.651972,-0.44071 -0.580285,-0.0321 -1.162262,-0.014 -1.743393,-0.021 -2.160389,0.16826 -1.925587,0.11995 -4.250409,0.44289 -2.470367,0.34316 -4.929619,0.83008 -7.430201,0.90327 0,0 0.0098,0.28498 0.0098,0.28498 z" />
    <path
       style="fill:#000000;stroke-width:0.874001"
       id="path15010"
       d="m 143.32408,126.97186 c -0.55271,0.42978 -1.26012,0.77367 -1.66836,1.37153 -0.12058,0.17659 -0.10611,0.39561 -0.17939,0.5892 -0.42601,0.64905 -0.93553,1.23841 -1.37806,1.87614 -0.27919,0.46611 -0.57629,0.92022 -0.8811,1.36994 -0.16281,0.2396 -0.33373,0.47808 -0.45691,0.74174 -0.0838,0.17941 -0.12706,0.36742 -0.21154,0.54675 -0.22995,0.36364 -0.38643,0.76482 -0.55965,1.15664 -0.10561,0.37998 -0.44167,0.6567 -0.56863,1.02394 -0.0323,0.0935 -0.0465,0.19232 -0.0697,0.28848 -0.0501,0.71604 0.007,1.45748 0.20521,2.1499 0.18769,0.50336 0.34578,1.02215 0.64105,1.47424 0.52922,0.58253 1.21857,0.99826 1.90849,1.36354 0.84306,0.37956 1.71728,0.67926 2.59185,0.97588 1.01983,0.34115 1.94199,0.90562 2.84042,1.48575 0.87354,0.67185 1.72555,1.3709 2.59938,2.04285 0.83747,0.67021 1.86077,1.00283 2.85419,1.36396 0.15253,0.0567 0.30504,0.1134 0.4576,0.16998 0.31894,0.11828 0.51031,0.1977 0.84186,0.28355 0.41346,0.10706 0.84124,0.16221 1.26144,0.23552 0.84976,0.18643 1.67063,0.46473 2.52864,0.61587 0.88846,0.14426 1.78232,0.15523 2.6751,0.0632 0.9769,-0.089 1.84082,-0.55011 2.70451,-0.97661 0.72111,-0.36675 1.51761,-0.53004 2.28667,-0.76204 1.02306,-0.31391 1.98435,-0.78427 2.91462,-1.30675 0.65887,-0.4282 1.352,-0.78868 2.08071,-1.07967 0.81104,-0.33655 1.65653,-0.56277 2.51077,-0.7559 0.85462,-0.15127 1.63294,-0.48496 2.2449,-1.11604 0.14706,-0.15167 0.27413,-0.32152 0.4112,-0.48228 0.58764,-0.81117 1.09544,-1.68001 1.4584,-2.61539 0.0898,-0.2313 0.4335,-1.27571 0.50331,-1.48571 0.48234,-1.25855 0.9668,-2.52394 1.09807,-3.87488 0.0767,-0.64478 -0.10292,-1.26335 -0.28499,-1.87499 -0.30424,-0.90436 -0.90269,-1.63186 -1.55261,-2.31028 -0.70248,-0.76024 -1.61966,-1.16224 -2.55783,-1.5429 -0.8697,-0.41325 -1.76808,-0.73971 -2.69267,-1.00247 -0.77848,-0.29381 -1.29302,-0.9777 -1.83329,-1.57668 -0.5941,-0.62839 -1.23265,-1.27709 -2.10894,-1.47482 -0.37226,-0.084 -0.82976,-0.0863 -1.20898,-0.102 -1.2068,-0.0402 -2.41138,0.0339 -3.61305,0.13637 -1.13082,0.1288 -2.24461,-0.062 -3.36234,-0.19808 -1.20565,-0.0976 -2.4162,-0.11489 -3.62466,-0.16333 -0.86845,0.0221 -1.72614,-0.06 -2.58647,-0.16178 -0.74301,-0.0858 -1.46197,0.11946 -2.17616,0.29109 -0.53394,0.0861 -1.02569,0.29843 -1.52038,0.50576 -0.41606,0.15579 -0.82007,0.33704 -1.22438,0.52046 -0.35805,0.16473 -0.73256,0.28389 -1.11108,0.39016 -0.40671,0.1285 -0.79161,0.31632 -1.14979,0.54655 -0.31158,0.2088 -0.60372,0.44458 -0.90559,0.6668 -0.0482,0.068 -0.1394,0.10159 -0.18939,0.16778 -0.038,0.0503 -0.0803,0.20602 -0.11411,0.23031 -0.15594,0.18089 -0.22755,0.40242 -0.32325,0.61478 -0.0769,0.18809 -0.16975,0.36836 -0.31555,0.51257 -0.096,0.0534 -0.0721,0.14697 -0.15354,0.15912 -0.0948,0.035 -0.17636,0.0946 -0.24411,0.16849 0.0378,-0.0687 0.25295,0.13397 0.0783,0.0199 0,0 -0.0522,0.0221 -0.0522,0.0221 v 0 c -0.0304,0.15174 0.13332,0.37054 0.25566,0.20544 0.0272,-0.0329 0.0678,-0.055 0.1073,-0.0701 0.1352,-0.0652 0.18695,-0.1584 0.27607,-0.24639 0.17042,-0.18088 0.2976,-0.38968 0.38756,-0.62141 0.0866,-0.19957 0.1531,-0.40264 0.29943,-0.57139 0.0409,-0.0787 0.0891,-0.15686 0.0725,-0.16721 -0.0106,-0.007 -0.0384,0.0318 -0.0296,0.0229 0.0519,-0.0522 0.11568,-0.0924 0.16603,-0.1465 0.29557,-0.21764 0.58502,-0.4437 0.88739,-0.65189 0.32598,-0.21018 0.678,-0.38013 1.04775,-0.49868 0.39766,-0.1094 0.78961,-0.23755 1.16487,-0.41069 0.40186,-0.18062 0.80202,-0.36202 1.21576,-0.51457 0.47578,-0.19945 0.94829,-0.40378 1.46278,-0.48287 0.67063,-0.15841 1.34506,-0.35593 2.04223,-0.27849 0.8703,0.10294 1.73832,0.18603 2.61676,0.16513 1.19791,0.0456 2.39778,0.0668 3.59299,0.16079 1.14429,0.13913 2.28443,0.32917 3.44201,0.19855 1.1856,-0.10113 2.37427,-0.17543 3.56495,-0.13528 0.32322,0.0121 0.7826,0.0154 1.10311,0.0818 0.81398,0.16862 1.39609,0.79073 1.94915,1.36286 0.59124,0.65077 1.15582,1.37977 2.01166,1.68514 0.9121,0.2564 1.79571,0.58339 2.65499,0.98542 0.88974,0.3607 1.76296,0.73342 2.42962,1.45485 0.60999,0.63422 1.17024,1.31461 1.45963,2.15983 0.16709,0.56547 0.34253,1.13473 0.27124,1.73091 -0.1317,1.32284 -0.62421,2.55448 -1.10234,3.78389 -0.0365,0.10673 -0.4422,1.30036 -0.50119,1.45027 -0.35178,0.89391 -0.84443,1.723 -1.40896,2.49795 -0.12477,0.145 -0.24096,0.29784 -0.3743,0.435 -0.56112,0.57721 -1.27,0.87106 -2.05262,1.00783 -0.87733,0.19855 -1.74513,0.43309 -2.57833,0.77798 -0.74563,0.30075 -1.45887,0.66418 -2.13218,1.10649 -0.90236,0.50759 -1.83419,0.96531 -2.82462,1.27667 -0.78924,0.24499 -1.60769,0.41535 -2.34706,0.79858 -0.81844,0.40421 -1.635,0.84887 -2.56075,0.93501 -0.85357,0.0913 -1.70809,0.0787 -2.55831,-0.0543 -0.85842,-0.14945 -1.67866,-0.43415 -2.53057,-0.61224 -0.40346,-0.0684 -0.81554,-0.11988 -1.2128,-0.22003 -0.32046,-0.0808 -0.50927,-0.15838 -0.81965,-0.27199 -0.15369,-0.0563 -0.30731,-0.11275 -0.46096,-0.16912 -0.95657,-0.34328 -1.94515,-0.65323 -2.75527,-1.29122 -0.88476,-0.67494 -1.7451,-1.38032 -2.62988,-2.05473 -0.92714,-0.59304 -1.87648,-1.17216 -2.92734,-1.51998 -0.85807,-0.28598 -1.71652,-0.57315 -2.54635,-0.93527 -0.64274,-0.33325 -1.27935,-0.71511 -1.78681,-1.23835 -0.28215,-0.42015 -0.42026,-0.91193 -0.6055,-1.37952 -0.1933,-0.63683 -0.23909,-1.32378 -0.21191,-1.98484 0.0139,-0.0711 0.0195,-0.14442 0.0418,-0.21338 0.121,-0.37382 0.46548,-0.65767 0.56521,-1.04413 0.17119,-0.39111 0.32573,-0.79114 0.55336,-1.15455 0.0784,-0.17563 0.12242,-0.3587 0.20235,-0.53248 0.11696,-0.25426 0.28175,-0.48325 0.43953,-0.71274 0.30428,-0.44894 0.59993,-0.90314 0.87714,-1.36932 0.45485,-0.66091 0.99115,-1.26476 1.40919,-1.95032 0.024,-0.0735 0.0548,-0.14508 0.0719,-0.22045 0.0242,-0.10659 -0.0181,-0.17364 0.0496,-0.27435 0.38743,-0.57688 1.07405,-0.90196 1.6001,-1.31828 0,0 -0.15239,-0.24448 -0.15239,-0.24448 z" />
    <path
       style="fill:#000000;stroke-width:0.874001"
       id="path15012"
       d="m 145.63693,130.13571 c 0.346,-0.55257 0.8312,-0.98492 1.34137,-1.38079 0.34615,-0.26861 0.23688,-0.21575 0.49842,-0.30648 0,0 -0.0128,-0.0552 -0.0128,-0.0552 v 0 c -0.0575,0.008 -0.11786,0.005 -0.1726,0.0239 -0.41827,0.14838 -0.60403,0.27769 -0.95454,0.58983 -0.51616,0.45966 -0.51338,0.51456 -0.88015,1.03945 0,0 0.1803,0.0892 0.1803,0.0892 z" />
    <path
       style="fill:#000000;stroke-width:0.874001"
       id="path15014"
       d="m 145.56058,130.25827 c 0.4928,-0.37017 0.58245,-0.45129 1.10462,-0.78737 0.19388,-0.12479 0.39604,-0.23625 0.59235,-0.35717 0,0 -0.0209,-0.0526 -0.0209,-0.0526 v 0 c -0.0793,0.0176 -0.16352,0.0201 -0.23792,0.0527 -0.14609,0.0641 -0.28248,0.14902 -0.41717,0.23449 -0.46627,0.29589 -0.6723,0.47064 -1.1066,0.80593 0,0 0.0856,0.10407 0.0856,0.10407 z" />
    <path
       style="fill:#000000;stroke-width:0.874001"
       id="path15016"
       d="m 145.26498,138.90661 c 0.16036,0.10215 0.32071,0.20429 0.48107,0.30643 0.14592,0.0865 0.29406,0.16943 0.43778,0.25957 0.0657,0.0412 0.12675,0.0895 0.19013,0.13426 0,0 0.0347,-0.0448 0.0347,-0.0448 v 0 c -0.33861,-0.28631 -0.67229,-0.57988 -1.05711,-0.8051 0,0 -0.0865,0.14963 -0.0865,0.14963 z" />
    <path
       style="fill:#000000;stroke-width:0.874001"
       id="path15018"
       d="m 145.50557,139.00488 c 0.3256,0.27967 0.69589,0.49412 1.0636,0.71117 0,0 0.0311,-0.0474 0.0311,-0.0474 v 0 c -0.34257,-0.24869 -0.65153,-0.53745 -0.98967,-0.79238 0,0 -0.10499,0.12859 -0.10499,0.12859 z" />
    <path
       style="fill:#000000;stroke-width:0.874001"
       id="path15020"
       d="m 154.80815,143.41302 c 0.70095,0.13171 1.40228,0.26431 2.10761,0.37089 0.18539,0.028 0.68464,0.1015 0.91539,0.0997 0.0578,-5.3e-4 0.11382,-0.0197 0.17073,-0.0296 0,0 0.007,-0.0562 0.007,-0.0562 v 0 c -0.052,-0.023 -0.10128,-0.0536 -0.15605,-0.069 -0.19986,-0.056 -0.75073,-0.13973 -0.90177,-0.16385 -0.70606,-0.11279 -1.41271,-0.22293 -2.12144,-0.31765 0,0 -0.0213,0.16564 -0.0213,0.16564 z" />
    <path
       style="fill:#000000;stroke-width:0.874001"
       id="path15022"
       d="m 156.18633,143.26248 c 0.47807,0.19537 0.98131,0.31029 1.47486,0.45709 0,0 0.0173,-0.0539 0.0173,-0.0539 v 0 c -0.10817,-0.0373 -0.21745,-0.0714 -0.3245,-0.11176 -1.29692,-0.48882 0.17189,0.0357 -1.121,-0.41886 0,0 -0.0467,0.12747 -0.0467,0.12747 z" />
    <path
       style="fill:#000000;stroke-width:0.874001"
       id="path15024"
       d="m 168.68054,140.58621 c -0.41067,0.20684 -1.08483,0.53084 -1.49674,0.78915 -0.31621,0.1983 -0.30629,0.12168 -0.21179,0.32517 0,0 0.0339,-0.0453 0.0339,-0.0453 v 0 c 0.014,0.18442 -0.0172,0.103 0.29831,-0.0585 0.21418,-0.10966 0.42527,-0.22524 0.6379,-0.33786 0.28393,-0.14485 0.56787,-0.2897 0.85181,-0.43455 0,0 -0.11343,-0.23803 -0.11343,-0.23803 z" />
    <path
       style="fill:#000000;stroke-width:0.874001"
       id="path15026"
       d="m 167.53598,141.69273 c 0.36323,0.038 0.72231,-0.0188 1.08436,-0.0282 0,0 0.003,-0.0565 0.003,-0.0565 v 0 c -0.3603,-0.0521 -0.71543,-0.13621 -1.08335,-0.11249 0,0 -0.004,0.19722 -0.004,0.19722 z" />
    <path
       style="fill:#000000;stroke-width:0.874001"
       id="path15028"
       d="m 157.51418,135.17283 c 0.88485,-0.35149 0.47488,-0.19273 1.22873,-0.47931 0,0 -0.0123,-0.034 -0.0123,-0.034 v 0 c -0.76265,0.26085 -0.34547,0.12303 -1.25325,0.40822 0,0 0.0368,0.10507 0.0368,0.10507 z" />
    <path
       style="fill:#000000;stroke-width:0.874001"
       id="path15030"
       d="m 157.5711,135.15575 c 0.76142,-0.42978 0.39782,-0.23213 1.08889,-0.59645 0,0 -0.0124,-0.0244 -0.0124,-0.0244 v 0 c -0.70033,0.34573 -0.32728,0.16705 -1.12073,0.53267 0,0 0.0443,0.0881 0.0443,0.0881 z" />
    <path
       style="fill:#000000;stroke-width:0.874001"
       id="path15032"
       d="m 161.17561,129.89708 c 2.24218,-1.09392 -1.10063,0.53299 1.57126,-0.7517 1.08596,-0.52215 0.39856,-0.2179 1.13241,-0.53482 0,0 -0.021,-0.0526 -0.021,-0.0526 v 0 c -0.31397,0.11567 -0.95289,0.34929 -1.17794,0.44496 -0.67081,0.28516 -0.9552,0.44709 -1.57635,0.77088 0,0 0.0717,0.12327 0.0717,0.12327 z" />
    <path
       style="fill:#000000;stroke-width:0.874001"
       id="path15034"
       d="m 161.63718,129.08274 c 0.85298,-0.40319 0.43763,-0.2058 1.24619,-0.59193 0,0 -0.014,-0.0323 -0.014,-0.0323 v 0 c -0.83597,0.32659 -0.40927,0.15314 -1.27932,0.52225 0,0 0.0471,0.10194 0.0471,0.10194 z" />
    <path
       style="fill:#000000;stroke-width:0.874001"
       id="path15036"
       d="m 137.20687,136.1865 c -0.44152,0.0483 -0.88357,0.0908 -1.32595,0.13019 -0.37645,0.0346 -0.75291,0.0691 -1.12938,0.10366 -0.74234,0.0661 -1.48357,0.14327 -2.22409,0.22714 -0.7812,0.0847 -1.5637,0.15683 -2.34621,0.22808 -1.04857,0.0977 -2.09994,0.15678 -3.14824,0.25758 -0.86123,0.0798 -1.72325,0.16061 -2.57693,0.30254 -0.34852,0.058 -0.859,0.15683 -1.20087,0.22159 -1.15369,0.22532 -2.30457,0.4621 -3.46686,0.6388 -1.10509,0.15746 -2.21885,0.2403 -3.32974,0.34479 -1.01348,0.0894 -2.02495,0.19698 -3.03515,0.31767 -1.11289,0.1479 -2.22957,0.25784 -3.34832,0.34917 -1.10424,0.0813 -2.21199,0.12787 -3.31839,0.066 -0.51298,-0.0287 -0.68335,-0.0526 -1.18358,-0.10526 -0.90645,-0.11534 -1.80873,-0.26164 -2.70915,-0.41661 -1.25768,-0.2287 -2.51001,-0.48586 -3.763882,-0.73434 -0.451998,-0.0865 -0.906076,-0.16157 -1.358982,-0.24327 -0.833922,-0.1527 -1.668388,-0.30242 -2.503593,-0.44795 -0.635445,-0.10933 -1.271699,-0.21391 -1.908461,-0.31526 -0.5813,-0.0909 -1.163272,-0.17755 -1.745861,-0.25981 -0.799301,-0.10981 -1.600504,-0.21148 -2.406634,-0.25461 -0.169783,-0.009 -0.339852,-0.0117 -0.509778,-0.0176 -0.737457,-0.007 -1.472017,0.0613 -2.205583,0.12746 -0.603342,0.0466 -1.205587,0.10651 -1.804291,0.19507 -0.421675,0.0618 -0.844503,0.11523 -1.266714,0.17314 -0.502558,0.0713 -1.004575,0.14637 -1.506654,0.22094 -0.597757,0.0907 -1.196245,0.17638 -1.795222,0.25864 -0.40723,0.0594 -0.816123,0.10454 -1.225227,0.14824 -0.496514,0.0565 -0.994452,0.0984 -1.4928,0.13469 -0.0762,0.11942 -0.21935,-0.0276 -0.313312,0.0184 -0.02212,0.0108 0.05045,0.01 0.07389,0.002 0.02278,-0.007 -0.06135,-0.005 -0.168714,-0.003 0,0 0.03521,0.99937 0.03521,0.99937 v 0 c 0.08125,-0.009 0.332623,0.007 0.445698,-0.0198 0.509506,-0.0372 1.018598,-0.0799 1.526241,-0.1377 0.419066,-0.0448 0.837901,-0.0912 1.255067,-0.15188 0.602594,-0.0828 1.204701,-0.1689 1.80607,-0.26019 0.498419,-0.074 0.996775,-0.14853 1.49566,-0.21936 0.425791,-0.0584 0.852212,-0.1123 1.277453,-0.17468 0.579777,-0.0862 1.16318,-0.14287 1.74746,-0.1883 0.692496,-0.0625 1.385755,-0.12778 2.081908,-0.12399 0.941694,0.0313 1.878401,0.12472 2.810465,0.26293 0.576792,0.0814 1.152969,0.1672 1.728488,0.2572 0.631931,0.10057 1.263354,0.20437 1.893978,0.31285 0.833252,0.14519 1.665764,0.29457 2.497738,0.44691 0.447273,0.0807 0.895686,0.15486 1.342104,0.24008 1.262128,0.25012 2.522688,0.50901 3.788688,0.73893 0.92206,0.15862 1.84603,0.3085 2.77439,0.42563 0.52626,0.055 0.70911,0.0804 1.24866,0.10995 1.14665,0.0629 2.29468,0.0162 3.43906,-0.0685 1.13117,-0.0924 2.26029,-0.20346 3.38557,-0.35291 1.00187,-0.11973 2.00501,-0.22634 3.01015,-0.315 1.12989,-0.10628 2.2627,-0.19067 3.38658,-0.35178 1.17416,-0.17897 2.33714,-0.41651 3.50254,-0.6449 0.56247,-0.1066 1.12418,-0.21768 1.69146,-0.29636 0.43348,-0.0601 0.87646,-0.10631 1.31124,-0.14996 0.22811,-0.0229 0.45647,-0.0433 0.68471,-0.0649 1.04658,-0.10078 2.09631,-0.15918 3.14315,-0.2571 0.7898,-0.0719 1.5796,-0.14478 2.36807,-0.23032 0.73345,-0.0831 1.4676,-0.15952 2.20286,-0.22496 0.37556,-0.0344 0.75113,-0.0689 1.12669,-0.10342 0.4478,-0.0399 0.89527,-0.0829 1.34219,-0.13177 0,0 -0.10487,-0.99448 -0.10487,-0.99448 z" />
    <path
       style="fill:#000000;stroke-width:0.874001"
       id="path15040"
       d="m 76.41832,136.45455 c 0.128873,0.2128 0.239498,0.43716 0.376161,0.64537 0.03655,0.0557 0.08112,0.10448 0.119438,0.15876 0.104786,0.17256 0.222985,0.33618 0.331838,0.50609 0.03808,0.0896 0.07789,0.17782 0.119131,0.26598 0.024,0.0646 0.02035,0.13685 0.03728,0.20556 0.01937,0.0627 0.02881,0.12661 0.04972,0.18882 0.01407,0.034 0.01487,0.0599 0.01836,0.10347 -1.54e-4,10e-4 -2.65e-4,0.003 -5.29e-4,0.004 0.06285,-0.0211 0.125708,-0.0422 0.188563,-0.0634 0,0 -0.05483,0.0142 -0.05483,0.0142 v 0 c 0.209238,-0.005 0.218964,0.0618 0.200208,-0.0203 -1.62e-4,-7.9e-4 -0.01717,-0.0869 -0.03659,-0.14534 -0.01937,-0.0558 -0.0272,-0.11488 -0.04921,-0.17074 -0.03669,-0.0783 -0.0054,-0.18251 -0.06246,-0.25569 -0.04849,-0.0988 -0.09559,-0.19802 -0.145036,-0.29642 -0.11216,-0.17463 -0.235242,-0.34188 -0.344012,-0.51876 -0.03446,-0.047 -0.07661,-0.0913 -0.109019,-0.13973 -0.136033,-0.20312 -0.244104,-0.42381 -0.371657,-0.63199 0,0 -0.267425,0.15005 -0.267425,0.15005 z" />
    <path
       style="fill:#000000;stroke-width:0.874001"
       id="path15042"
       d="m 137.18617,136.51005 c -0.18522,0.0803 -0.3572,0.15083 -0.53598,0.24144 -0.0336,0.017 -0.1,0.0193 -0.0975,0.0568 0.0187,0.2816 0.0543,0.27611 0.19302,0.25697 -0.023,-2.6e-4 -0.0759,-0.023 -0.0689,-0.001 0.008,0.0261 0.0503,0.024 0.0774,0.0276 0.18793,0.025 0.36291,-0.0517 0.53004,-0.12614 0.043,-0.0233 0.0868,-0.047 0.11377,-0.0586 0.079,-0.0255 -0.17915,-0.0418 -0.0968,0.008 0.0177,0.0107 0.0352,0.0227 0.0548,0.0294 0.0201,0.007 0.0418,0.007 0.0627,0.0106 0.0464,-0.0304 0.18746,-0.0635 0.13934,-0.0911 -0.0731,-0.042 -0.16743,0.0226 -0.2517,0.0266 -0.0221,10e-4 -0.0167,-0.14696 0.026,-0.15021 0.075,-0.006 0.14984,0.0124 0.22476,0.0185 -0.0202,-0.10083 -0.004,-0.20495 -0.0308,-0.30409 0.058,0.1349 -0.26378,-0.0753 -0.299,0.0599 -0.0304,0.12803 -0.003,0.26233 -0.025,0.39065 -0.0279,0.16119 -0.0215,0.18938 0.3108,0.0356 0.0279,-0.0129 -0.006,-0.0612 -0.007,-0.0919 -0.001,-0.0244 -5.3e-4,-0.0489 -5.3e-4,-0.0734 -0.002,-0.12076 0.0154,-0.24005 0.014,-0.36072 -0.006,-0.16142 0.0287,-0.0659 -0.29075,0.0636 0.0151,0.0356 0.0297,0.0714 0.0454,0.10667 0.0322,0.0725 0.0674,0.16949 0.13571,0.2186 0.0239,0.0172 0.0538,0.0241 0.0797,0.0382 0.0119,0.007 -0.0252,-0.0102 -0.0377,-0.0153 -0.0205,-0.0245 -0.0374,-0.0526 -0.0615,-0.0736 -0.008,-0.007 0.008,0.0204 0.0119,0.0304 0.003,0.006 0.003,0.0231 0.009,0.0191 0.27075,-0.19036 0.34088,-0.1436 0.2089,-0.27085 -0.0628,-0.0569 -0.0288,-0.0337 -0.12415,0.0772 0,0 -0.0435,0.0362 -0.0435,0.0362 v 0 c -0.0871,0.16295 -0.0786,0.12137 -0.0706,0.13025 0.14848,0.15079 0.47896,-0.1368 0.25892,-0.22661 -0.0198,-0.01 -0.0374,-0.0277 -0.0595,-0.0301 -0.0179,-0.002 0.0323,0.0167 0.0458,0.0286 0.008,0.007 0.0229,0.0365 0.0177,0.0271 -0.041,-0.0724 -0.0789,-0.14645 -0.10856,-0.22467 -0.38244,-0.0245 -0.35253,-0.12143 -0.34543,0.0697 0.002,0.12123 -0.0137,0.24138 -0.013,0.36271 8e-4,0.0316 0.001,0.0631 0.003,0.0947 0.001,0.0232 -0.0159,0.0625 0.006,0.0695 0.3351,0.10688 0.31198,0.11913 0.3255,-0.003 0.0127,-0.12753 -0.002,-0.25588 0.0161,-0.38302 0.003,-0.0265 0.0332,-0.0678 0.009,-0.0794 -0.29017,-0.13992 -0.32991,-0.10706 -0.29267,0.0751 -0.002,-0.008 -0.003,-0.031 -0.003,-0.0232 0.002,0.10298 0.002,0.20675 0.0274,0.30756 0.0853,0.0429 0.1634,0.1051 0.25591,0.1288 0.0542,0.0139 0.0768,-0.20702 0.0498,-0.21308 -0.0912,-0.0205 -0.19827,0.0189 -0.2791,-0.0281 -0.04,-0.0233 0.0828,-0.0413 0.12426,-0.062 0.10288,0.024 0.006,-0.005 0.0657,0.026 0.006,0.003 -0.009,-0.0113 -0.0159,-0.0131 -0.11792,-0.0323 -0.12866,-0.0656 -0.19169,-0.0359 -0.0317,0.0119 -0.0801,0.0349 -0.11318,0.0551 -0.10296,0.0466 -0.21395,0.101 -0.32697,0.11765 -0.048,0.007 -0.098,-0.0773 -0.14216,-0.0314 -0.10406,0.0123 -0.12614,0.005 0.002,0.26944 0.0129,0.0267 0.0502,-0.032 0.0766,-0.0456 0.19986,-0.10348 0.30419,-0.14448 0.52289,-0.24085 0,0 -0.11062,-0.25752 -0.11062,-0.25752 z" />
    <path
       style="fill:#b3b3b3;stroke-width:0.654184"
       d="m 402.91084,526.6631 c -4.72585,-0.38181 -12.39876,-1.5962 -21.78432,-3.4478 -14.83263,-2.92622 -30.46152,-5.56146 -39.50883,-6.66172 -4.00829,-0.48746 -10.12461,-0.44917 -15.70767,0.0983 -2.37623,0.23302 -8.97094,1.08948 -14.65491,1.90324 -9.06519,1.29785 -14.07391,1.92991 -16.88793,2.13111 l -0.8103,0.0579 -1.27313,-1.88138 c -0.70022,-1.03475 -1.46245,-2.20474 -1.69384,-2.59998 l -0.4207,-0.71862 2.00904,-0.13503 c 3.66807,-0.24653 7.46648,-0.70613 16.46591,-1.99235 4.90147,-0.70052 10.33765,-1.45457 12.08039,-1.67565 7.39543,-0.93817 14.66671,-1.23177 19.50687,-0.78765 7.46909,0.68535 23.77037,3.36425 41.58824,6.83448 14.40411,2.80536 18.3253,3.29776 26.43824,3.31994 6.24606,0.0171 7.82979,-0.0931 18.17148,-1.26419 3.78578,-0.4287 10.51416,-1.13688 14.95196,-1.57374 9.4592,-0.93118 12.06784,-1.28844 18.86186,-2.58314 10.70828,-2.04063 14.02981,-2.51844 21.98235,-3.16218 6.08195,-0.49233 12.43612,-1.07003 17.52648,-1.59346 2.06951,-0.2128 7.01554,-0.70005 10.99118,-1.08276 3.97563,-0.38272 7.93903,-0.78356 8.80755,-0.89076 0.8685,-0.1072 1.64609,-0.19491 1.72794,-0.19491 0.2484,0 -0.19089,0.94289 -0.99575,2.13721 -0.91769,1.3618 -1.2221,2.19336 -1.2221,3.33842 0,0.79936 -0.26064,1.16894 -0.44156,0.62615 -0.0848,-0.25428 -1.12453,-0.17032 -14.21334,1.14759 -10.03972,1.01091 -12.12618,1.20346 -19.11079,1.76368 -10.96973,0.87985 -12.80348,1.12282 -22.27941,2.95204 -9.94076,1.91896 -11.18229,2.09223 -22.82597,3.18572 -4.11286,0.38625 -8.88065,0.87574 -10.5951,1.08775 -9.46406,1.17036 -14.50606,1.57949 -20.54463,1.66706 -2.83196,0.0411 -5.5946,0.0387 -6.13921,-0.005 z"
       id="path15044"
       transform="scale(0.26458333)" />
    <path
       style="fill:#808080;stroke-width:0.654184"
       d="m 590.85008,558.15562 c -0.9803,-0.15218 -3.69838,-0.75936 -6.0402,-1.34928 -2.34181,-0.58993 -5.14902,-1.21877 -6.23823,-1.39742 -2.46023,-0.40351 -2.93116,-0.54224 -7.76936,-2.28871 -7.12823,-2.57312 -7.60413,-2.85724 -16.57239,-9.89416 -3.64797,-2.86237 -7.79684,-5.50899 -10.83985,-6.91486 -0.94117,-0.43482 -3.27009,-1.32381 -5.17537,-1.97552 -7.284,-2.49153 -10.14316,-3.85567 -13.18889,-6.29255 -1.32789,-1.06244 -1.64744,-1.44388 -2.24883,-2.68436 -0.93946,-1.9378 -1.87051,-4.72138 -2.10652,-6.29791 -0.10599,-0.70799 -0.20058,-2.26771 -0.21021,-3.46605 l -0.0175,-2.17881 0.94265,-1.58394 c 0.51846,-0.87117 1.08628,-1.93601 1.26182,-2.36632 0.26649,-0.65327 0.46938,-0.83301 1.22947,-1.08921 0.50067,-0.16877 1.01332,-0.41048 1.13921,-0.53714 0.28452,-0.28625 0.0751,-0.65986 -0.3721,-0.66391 -0.83046,-0.008 -0.91015,-0.31051 -0.34541,-1.3134 0.29764,-0.52856 0.73778,-1.49573 0.97809,-2.14926 0.24032,-0.65353 1.06462,-2.12397 1.83178,-3.26765 0.76717,-1.14367 1.93998,-2.94678 2.60625,-4.00689 0.66627,-1.06012 2.01454,-2.99107 2.99616,-4.29099 2.39707,-3.17437 3.38144,-4.73082 3.38233,-5.34802 4.1e-4,-0.28264 0.18769,-0.82057 0.41618,-1.19538 l 0.41545,-0.68148 0.36544,0.48344 0.36544,0.48344 0.72456,-0.389 c 0.91835,-0.49305 1.98883,-1.71704 2.56036,-2.92752 0.24412,-0.51703 0.68238,-1.12768 0.97392,-1.357 0.3999,-0.31456 0.4775,-0.4803 0.316,-0.67489 -0.38105,-0.45914 0.44759,-1.43622 2.50865,-2.95803 2.33803,-1.72631 4.05072,-2.61365 6.6463,-3.44344 1.05896,-0.33855 3.46514,-1.27591 5.34706,-2.08303 4.65198,-1.99515 5.91891,-2.43076 9.30023,-3.1977 3.9801,-0.90274 4.92372,-0.9718 8.28124,-0.60601 1.57937,0.17207 5.90157,0.40096 9.60491,0.50866 7.72062,0.22452 11.86622,0.47503 14.90131,0.90048 3.08467,0.43239 8.4154,0.57144 11.33888,0.29577 3.75001,-0.35362 13.44489,-0.50187 15.44707,-0.23621 3.1675,0.42027 5.25116,1.84331 9.46479,6.464 3.17715,3.48408 4.75471,4.63064 7.52908,5.4721 2.42483,0.73544 5.24992,1.79518 8.75123,3.28274 5.72256,2.43128 7.40963,3.47929 9.97001,6.19343 1.91708,2.03221 3.47801,4.21283 4.32882,6.04737 2.33157,5.02736 2.19628,9.29785 -0.53935,17.02559 -4.36032,12.31726 -5.15586,14.17051 -7.82211,18.22191 -2.82068,4.28607 -5.32513,6.14666 -9.64081,7.16227 -8.19246,1.92793 -12.60357,3.64469 -18.47696,7.19101 -3.94894,2.38436 -7.88729,4.05913 -13.54738,5.76098 -3.08047,0.92622 -4.76177,1.56969 -7.44478,2.84928 -3.91911,1.86913 -5.96788,2.57422 -8.34651,2.87247 -2.24775,0.28185 -6.82209,0.22639 -8.98192,-0.10889 z m 6.43627,-14.54215 c 0,-0.23923 -0.0434,-0.25811 -3.84828,-1.67382 -2.25156,-0.83775 -2.99505,-1.04051 -3.11609,-0.84982 -0.26655,0.4199 -0.19896,0.48639 0.77565,0.76307 1.55719,0.44206 0.52727,0.40983 -2.78919,-0.0873 -2.6684,-0.39997 -3.15196,-0.42781 -3.24444,-0.18682 -0.0598,0.15576 -0.03,0.3582 0.0661,0.44988 0.1372,0.1308 4.45048,0.94152 8.78954,1.65207 1.06861,0.175 3.36666,0.12908 3.36666,-0.0673 z m 34.92899,-8.23131 0.91612,-0.51203 v 0.44311 c 0,0.43916 0.0188,0.44195 2.11256,0.31384 3.03371,-0.18562 3.09864,-0.39761 0.24242,-0.79154 l -1.85988,-0.25651 2.21116,-1.11801 c 1.93692,-0.97935 2.19756,-1.17007 2.10144,-1.53762 -0.0603,-0.23078 -0.2214,-0.46245 -0.35789,-0.51483 -0.37974,-0.14571 -6.42184,3.00124 -6.73491,3.50779 -0.099,0.16024 0.22349,0.97783 0.38575,0.97783 0.0369,0 0.47936,-0.23041 0.98323,-0.51203 z m -78.10154,-7.37795 c 0,-0.25533 -3.0836,-2.77874 -3.9809,-3.25768 -0.68159,-0.36382 -0.82093,-0.38288 -0.97842,-0.13388 -0.101,0.1597 -0.185,0.33692 -0.18667,0.39383 -0.004,0.11999 4.77536,3.13434 4.99746,3.15222 0.0817,0.007 0.14853,-0.0629 0.14853,-0.15449 z m 43.3171,-17.82433 c 1.06418,-0.41875 2.1131,-0.83204 2.33094,-0.91843 0.37337,-0.14807 0.3677,-0.16574 -0.099,-0.30812 -0.27231,-0.0831 -0.38371,-0.15992 -0.24755,-0.17078 0.13615,-0.0109 0.24755,-0.10169 0.24755,-0.20185 0,-0.27902 -4.54144,1.83065 -4.54862,2.113 -0.009,0.36604 0.19695,0.32029 2.31669,-0.51382 z m -45.46189,-19.05561 c 0.89109,-0.6607 2.31431,-1.61872 3.16271,-2.12892 0.8484,-0.5102 1.54571,-1.00614 1.54957,-1.10208 0.0164,-0.40779 -1.54648,0.12851 -2.79619,0.95951 -0.74298,0.49405 -1.41398,0.89827 -1.49111,0.89827 -0.45597,0 3.61375,-3.55139 4.56793,-3.98614 0.62084,-0.28287 0.67623,-0.56877 0.1102,-0.56877 -2.24188,0 -8.28941,5.89113 -7.18316,6.99739 0.24422,0.24422 0.45399,0.13639 2.08005,-1.06926 z m 62.44594,-2.56165 c 2.72205,-1.30102 4.98282,-2.46639 5.02392,-2.58971 0.0971,-0.29135 -0.22221,-0.1909 -3.63585,1.1438 -2.15202,0.84141 -6.54194,2.93526 -7.00071,3.3391 -0.13347,0.1175 0.19394,0.48342 0.4276,0.47789 0.12972,-0.003 2.46299,-1.07006 5.18504,-2.37108 z m -1.09369,-1.71253 c 1.31051,-0.61523 2.38274,-1.1945 2.38274,-1.28726 0,-0.25387 -0.11592,-0.21829 -2.57281,0.78967 -1.51529,0.62165 -2.29772,1.04768 -2.34148,1.27492 -0.0362,0.1877 -0.0175,0.34127 0.0415,0.34127 0.059,0 1.1795,-0.50337 2.49001,-1.1186 z"
       id="path15046"
       transform="scale(0.26458333)" />
  </g>
</svg>
