<?xml version="1.0" encoding="UTF-8" standalone="no"?>
<!-- Created with Inkscape (http://www.inkscape.org/) -->

<svg
   width="230"
   height="500"
   viewBox="0 0 60.854175 132.29166"
   version="1.1"
   id="svg5"
   inkscape:version="1.2 (dc2aedaf03, 2022-05-15)"
   sodipodi:docname="branch_tuber.svg"
   inkscape:export-filename="fibrous-1.svg"
   inkscape:export-xdpi="96"
   inkscape:export-ydpi="96"
   xmlns:inkscape="http://www.inkscape.org/namespaces/inkscape"
   xmlns:sodipodi="http://sodipodi.sourceforge.net/DTD/sodipodi-0.dtd"
   xmlns="http://www.w3.org/2000/svg"
   xmlns:svg="http://www.w3.org/2000/svg">
  <sodipodi:namedview
     id="namedview7"
     pagecolor="#505050"
     bordercolor="#eeeeee"
     borderopacity="1"
     inkscape:showpageshadow="0"
     inkscape:pageopacity="0"
     inkscape:pagecheckerboard="0"
     inkscape:deskcolor="#505050"
     inkscape:document-units="mm"
     showgrid="false"
     inkscape:zoom="1.2623761"
     inkscape:cx="102.58432"
     inkscape:cy="264.18434"
     inkscape:window-width="1276"
     inkscape:window-height="1076"
     inkscape:window-x="0"
     inkscape:window-y="0"
     inkscape:window-maximized="1"
     inkscape:current-layer="layer1" />
  <defs
     id="defs2" />
  <g
     inkscape:label="Camada 1"
     inkscape:groupmode="layer"
     id="layer1">
    <g
       id="g41901"
       transform="translate(-96.12474,-69.671034)">
      <path
         style="fill:#000000;stroke-width:0.874001"
         id="path15008"
         d="m 125.96904,85.390997 c 0.0505,2.513015 0.52524,4.986674 0.8628,7.469325 0.32049,2.357033 0.2672,2.046444 0.43438,4.227301 -0.008,0.571034 0.008,1.142952 -0.0249,1.713105 -0.0638,1.109729 -0.27484,2.517522 -0.4412,3.608042 -0.27094,1.776 -0.59265,3.5437 -0.91353,5.31114 -0.40026,2.28925 -0.94705,4.55678 -1.22892,6.86612 -0.1494,1.22408 -0.13327,1.53396 -0.16923,2.72583 0.002,2.33429 0.36531,4.64808 0.61131,6.96458 0.0524,0.55806 0.10332,1.11626 0.15721,1.67418 0.0752,0.77837 0.21663,2.2533 0.33104,3.03066 0.1696,1.15238 0.36438,2.00428 0.5742,3.1429 0.0948,0.5146 0.18119,1.03073 0.27178,1.54609 0.067,0.48223 0.14624,0.96291 0.20115,1.44667 0.053,0.46677 0.22161,2.5952 0.25912,3.04131 0.1053,1.25226 0.22438,2.5022 0.35545,3.75196 0.22263,1.90687 0.33749,3.82735 0.58905,5.73078 0.011,0.21645 0.0925,0.39606 0.20612,0.57443 0,0 0.0565,-0.004 0.0565,-0.004 v 0 c 0.0844,-0.19977 0.12152,-0.39315 0.0777,-0.61107 -0.20508,-1.90763 -0.3674,-3.8199 -0.57199,-5.72763 -0.13207,-1.24693 -0.25018,-2.49412 -0.35564,-3.74364 -0.0401,-0.47541 -0.20743,-2.57126 -0.26328,-3.06108 -0.0556,-0.48799 -0.13543,-0.97292 -0.20314,-1.45938 -0.0913,-0.51724 -0.1783,-1.03525 -0.27382,-1.55172 -0.20476,-1.10724 -0.40707,-1.99846 -0.57218,-3.11725 -0.11126,-0.75397 -0.25781,-2.26816 -0.33108,-3.02192 -0.0544,-0.5593 -0.10574,-1.11889 -0.15861,-1.67835 -0.24567,-2.30074 -0.60849,-4.59858 -0.61438,-6.91698 0.0351,-1.18294 0.0182,-1.46801 0.16652,-2.68459 0.28114,-2.30587 0.82209,-4.5709 1.22335,-6.85641 0.32067,-1.77169 0.64325,-3.54376 0.91364,-5.32404 0.16758,-1.10343 0.37859,-2.529927 0.44071,-3.651977 0.0321,-0.580285 0.014,-1.162262 0.021,-1.743393 -0.16826,-2.160389 -0.11995,-1.925587 -0.44289,-4.250409 -0.34316,-2.470367 -0.83008,-4.929619 -0.90327,-7.430201 0,0 -0.28498,0.0098 -0.28498,0.0098 z" />
      <path
         style="fill:#000000;stroke-width:0.874001"
         id="path15010"
         d="m 135.39683,152.58913 c -0.42978,-0.55271 -0.77367,-1.26012 -1.37153,-1.66836 -0.17659,-0.12058 -0.39561,-0.10611 -0.5892,-0.17939 -0.64905,-0.42601 -1.23841,-0.93553 -1.87614,-1.37806 -0.46611,-0.27919 -0.92022,-0.57629 -1.36994,-0.8811 -0.2396,-0.16281 -0.47808,-0.33373 -0.74174,-0.45691 -0.17941,-0.0838 -0.36742,-0.12706 -0.54675,-0.21154 -0.36364,-0.22995 -0.76482,-0.38643 -1.15664,-0.55965 -0.37998,-0.10561 -0.6567,-0.44167 -1.02394,-0.56863 -0.0935,-0.0323 -0.19232,-0.0465 -0.28848,-0.0697 -0.71604,-0.0501 -1.45748,0.007 -2.1499,0.20521 -0.50336,0.18769 -1.02215,0.34578 -1.47424,0.64105 -0.58253,0.52922 -0.99826,1.21857 -1.36354,1.90849 -0.37956,0.84306 -0.67926,1.71728 -0.97588,2.59185 -0.34115,1.01983 -0.90562,1.94199 -1.48575,2.84042 -0.67185,0.87354 -1.3709,1.72555 -2.04285,2.59938 -0.67021,0.83747 -1.00283,1.86077 -1.36396,2.85419 -0.0567,0.15253 -0.1134,0.30504 -0.16998,0.4576 -0.11828,0.31894 -0.1977,0.51031 -0.28355,0.84186 -0.10706,0.41346 -0.16221,0.84124 -0.23552,1.26144 -0.18643,0.84976 -0.46473,1.67063 -0.61587,2.52864 -0.14426,0.88846 -0.15523,1.78232 -0.0632,2.6751 0.089,0.9769 0.55011,1.84082 0.97661,2.70451 0.36675,0.72111 0.53004,1.51761 0.76204,2.28667 0.31391,1.02306 0.78427,1.98435 1.30675,2.91462 0.4282,0.65887 0.78868,1.352 1.07967,2.08071 0.33655,0.81104 0.56277,1.65653 0.7559,2.51077 0.15127,0.85462 0.48496,1.63294 1.11604,2.2449 0.15167,0.14706 0.32152,0.27413 0.48228,0.4112 0.81117,0.58764 1.68001,1.09544 2.61539,1.4584 0.2313,0.0898 1.27571,0.4335 1.48571,0.50331 1.25855,0.48234 2.52394,0.9668 3.87488,1.09807 0.64478,0.0767 1.26335,-0.10292 1.87499,-0.28499 0.90436,-0.30424 1.63186,-0.90269 2.31028,-1.55261 0.76024,-0.70248 1.16224,-1.61966 1.5429,-2.55783 0.41325,-0.8697 0.73971,-1.76808 1.00247,-2.69267 0.29381,-0.77848 0.9777,-1.29302 1.57668,-1.83329 0.62839,-0.5941 1.27709,-1.23265 1.47482,-2.10894 0.084,-0.37226 0.0863,-0.82976 0.102,-1.20898 0.0402,-1.2068 -0.0339,-2.41138 -0.13637,-3.61305 -0.1288,-1.13082 0.062,-2.24461 0.19808,-3.36234 0.0976,-1.20565 0.11489,-2.4162 0.16333,-3.62466 -0.0221,-0.86845 0.06,-1.72614 0.16178,-2.58647 0.0858,-0.74301 -0.11946,-1.46197 -0.29109,-2.17616 -0.0861,-0.53394 -0.29843,-1.02569 -0.50576,-1.52038 -0.15579,-0.41606 -0.33704,-0.82007 -0.52046,-1.22438 -0.16473,-0.35805 -0.28389,-0.73256 -0.39016,-1.11108 -0.1285,-0.40671 -0.31632,-0.79161 -0.54655,-1.14979 -0.2088,-0.31158 -0.44458,-0.60372 -0.6668,-0.90559 -0.068,-0.0482 -0.10159,-0.1394 -0.16778,-0.18939 -0.0503,-0.038 -0.20602,-0.0803 -0.23031,-0.11411 -0.18089,-0.15594 -0.40242,-0.22755 -0.61478,-0.32325 -0.18809,-0.0769 -0.36836,-0.16975 -0.51257,-0.31555 -0.0534,-0.096 -0.14697,-0.0721 -0.15912,-0.15354 -0.035,-0.0948 -0.0946,-0.17636 -0.16849,-0.24411 0.0687,0.0378 -0.13397,0.25295 -0.0199,0.0783 0,0 -0.0221,-0.0522 -0.0221,-0.0522 v 0 c -0.15174,-0.0304 -0.37054,0.13332 -0.20544,0.25566 0.0329,0.0272 0.055,0.0678 0.0701,0.1073 0.0652,0.1352 0.1584,0.18695 0.24639,0.27607 0.18088,0.17042 0.38968,0.2976 0.62141,0.38756 0.19957,0.0866 0.40264,0.1531 0.57139,0.29943 0.0787,0.0409 0.15686,0.0891 0.16721,0.0725 0.007,-0.0106 -0.0318,-0.0384 -0.0229,-0.0296 0.0522,0.0519 0.0924,0.11568 0.1465,0.16603 0.21764,0.29557 0.4437,0.58502 0.65189,0.88739 0.21018,0.32598 0.38013,0.678 0.49868,1.04775 0.1094,0.39766 0.23755,0.78961 0.41069,1.16487 0.18062,0.40186 0.36202,0.80202 0.51457,1.21576 0.19945,0.47578 0.40378,0.94829 0.48287,1.46278 0.15841,0.67063 0.35593,1.34506 0.27849,2.04223 -0.10294,0.8703 -0.18603,1.73832 -0.16513,2.61676 -0.0456,1.19791 -0.0668,2.39778 -0.16079,3.59299 -0.13913,1.14429 -0.32917,2.28443 -0.19855,3.44201 0.10113,1.1856 0.17543,2.37427 0.13528,3.56495 -0.0121,0.32322 -0.0154,0.7826 -0.0818,1.10311 -0.16862,0.81398 -0.79073,1.39609 -1.36286,1.94915 -0.65077,0.59124 -1.37977,1.15582 -1.68514,2.01166 -0.2564,0.9121 -0.58339,1.79571 -0.98542,2.65499 -0.3607,0.88974 -0.73342,1.76296 -1.45485,2.42962 -0.63422,0.60999 -1.31461,1.17024 -2.15983,1.45963 -0.56547,0.16709 -1.13473,0.34253 -1.73091,0.27124 -1.32284,-0.1317 -2.55448,-0.62421 -3.78389,-1.10234 -0.10673,-0.0365 -1.30036,-0.4422 -1.45027,-0.50119 -0.89391,-0.35178 -1.723,-0.84443 -2.49795,-1.40896 -0.145,-0.12477 -0.29784,-0.24096 -0.435,-0.3743 -0.57721,-0.56112 -0.87106,-1.27 -1.00783,-2.05262 -0.19855,-0.87733 -0.43309,-1.74513 -0.77798,-2.57833 -0.30075,-0.74563 -0.66418,-1.45887 -1.10649,-2.13218 -0.50759,-0.90236 -0.96531,-1.83419 -1.27667,-2.82462 -0.24499,-0.78924 -0.41535,-1.60769 -0.79858,-2.34706 -0.40421,-0.81844 -0.84887,-1.635 -0.93501,-2.56075 -0.0913,-0.85357 -0.0787,-1.70809 0.0543,-2.55831 0.14945,-0.85842 0.43415,-1.67866 0.61224,-2.53057 0.0684,-0.40346 0.11988,-0.81554 0.22003,-1.2128 0.0808,-0.32046 0.15838,-0.50927 0.27199,-0.81965 0.0563,-0.15369 0.11275,-0.30731 0.16912,-0.46096 0.34328,-0.95657 0.65323,-1.94515 1.29122,-2.75527 0.67494,-0.88476 1.38032,-1.7451 2.05473,-2.62988 0.59304,-0.92714 1.17216,-1.87648 1.51998,-2.92734 0.28598,-0.85807 0.57315,-1.71652 0.93527,-2.54635 0.33325,-0.64274 0.71511,-1.27935 1.23835,-1.78681 0.42015,-0.28215 0.91193,-0.42026 1.37952,-0.6055 0.63683,-0.1933 1.32378,-0.23909 1.98484,-0.21191 0.0711,0.0139 0.14442,0.0195 0.21338,0.0418 0.37382,0.121 0.65767,0.46548 1.04413,0.56521 0.39111,0.17119 0.79114,0.32573 1.15455,0.55336 0.17563,0.0784 0.3587,0.12242 0.53248,0.20235 0.25426,0.11696 0.48325,0.28175 0.71274,0.43953 0.44894,0.30428 0.90314,0.59993 1.36932,0.87714 0.66091,0.45485 1.26476,0.99115 1.95032,1.40919 0.0735,0.024 0.14508,0.0548 0.22045,0.0719 0.10659,0.0242 0.17364,-0.0181 0.27435,0.0496 0.57688,0.38743 0.90196,1.07405 1.31828,1.6001 0,0 0.24448,-0.15239 0.24448,-0.15239 z" />
      <path
         style="fill:#000000;stroke-width:0.874001"
         id="path15012"
         d="m 132.23298,154.90198 c 0.55257,0.346 0.98492,0.8312 1.38079,1.34137 0.26861,0.34615 0.21575,0.23688 0.30648,0.49842 0,0 0.0552,-0.0128 0.0552,-0.0128 v 0 c -0.008,-0.0575 -0.005,-0.11786 -0.0239,-0.1726 -0.14838,-0.41827 -0.27769,-0.60403 -0.58983,-0.95454 -0.45966,-0.51616 -0.51456,-0.51338 -1.03945,-0.88015 0,0 -0.0892,0.1803 -0.0892,0.1803 z" />
      <path
         style="fill:#000000;stroke-width:0.874001"
         id="path15014"
         d="m 132.11042,154.82563 c 0.37017,0.4928 0.45129,0.58245 0.78737,1.10462 0.12479,0.19388 0.23625,0.39604 0.35717,0.59235 0,0 0.0526,-0.0209 0.0526,-0.0209 v 0 c -0.0176,-0.0793 -0.0201,-0.16352 -0.0527,-0.23792 -0.0641,-0.14609 -0.14902,-0.28248 -0.23449,-0.41717 -0.29589,-0.46627 -0.47064,-0.6723 -0.80593,-1.1066 0,0 -0.10407,0.0856 -0.10407,0.0856 z" />
      <path
         style="fill:#000000;stroke-width:0.874001"
         id="path15016"
         d="m 123.46208,154.53003 c -0.10215,0.16036 -0.20429,0.32071 -0.30643,0.48107 -0.0865,0.14592 -0.16943,0.29406 -0.25957,0.43778 -0.0412,0.0657 -0.0895,0.12675 -0.13426,0.19013 0,0 0.0448,0.0347 0.0448,0.0347 v 0 c 0.28631,-0.33861 0.57988,-0.67229 0.8051,-1.05711 0,0 -0.14963,-0.0865 -0.14963,-0.0865 z" />
      <path
         style="fill:#000000;stroke-width:0.874001"
         id="path15018"
         d="m 123.36381,154.77062 c -0.27967,0.3256 -0.49412,0.69589 -0.71117,1.0636 0,0 0.0474,0.0311 0.0474,0.0311 v 0 c 0.24869,-0.34257 0.53745,-0.65153 0.79238,-0.98967 0,0 -0.12859,-0.10499 -0.12859,-0.10499 z" />
      <path
         style="fill:#000000;stroke-width:0.874001"
         id="path15020"
         d="m 118.95567,164.0732 c -0.13171,0.70095 -0.26431,1.40228 -0.37089,2.10761 -0.028,0.18539 -0.1015,0.68464 -0.0997,0.91539 5.3e-4,0.0578 0.0197,0.11382 0.0296,0.17073 0,0 0.0562,0.007 0.0562,0.007 v 0 c 0.023,-0.052 0.0536,-0.10128 0.069,-0.15605 0.056,-0.19986 0.13973,-0.75073 0.16385,-0.90177 0.11279,-0.70606 0.22293,-1.41271 0.31765,-2.12144 0,0 -0.16564,-0.0213 -0.16564,-0.0213 z" />
      <path
         style="fill:#000000;stroke-width:0.874001"
         id="path15022"
         d="m 119.10621,165.45138 c -0.19537,0.47807 -0.31029,0.98131 -0.45709,1.47486 0,0 0.0539,0.0173 0.0539,0.0173 v 0 c 0.0373,-0.10817 0.0714,-0.21745 0.11176,-0.3245 0.48882,-1.29692 -0.0357,0.17189 0.41886,-1.121 0,0 -0.12747,-0.0467 -0.12747,-0.0467 z" />
      <path
         style="fill:#000000;stroke-width:0.874001"
         id="path15024"
         d="m 121.78248,177.94559 c -0.20684,-0.41067 -0.53084,-1.08483 -0.78915,-1.49674 -0.1983,-0.31621 -0.12168,-0.30629 -0.32517,-0.21179 0,0 0.0453,0.0339 0.0453,0.0339 v 0 c -0.18442,0.014 -0.103,-0.0172 0.0585,0.29831 0.10966,0.21418 0.22524,0.42527 0.33786,0.6379 0.14485,0.28393 0.2897,0.56787 0.43455,0.85181 0,0 0.23803,-0.11343 0.23803,-0.11343 z" />
      <path
         style="fill:#000000;stroke-width:0.874001"
         id="path15026"
         d="m 120.67596,176.80103 c -0.038,0.36323 0.0188,0.72231 0.0282,1.08436 0,0 0.0565,0.003 0.0565,0.003 v 0 c 0.0521,-0.3603 0.13621,-0.71543 0.11249,-1.08335 0,0 -0.19722,-0.004 -0.19722,-0.004 z" />
      <path
         style="fill:#000000;stroke-width:0.874001"
         id="path15028"
         d="m 127.19586,166.77923 c 0.35149,0.88485 0.19273,0.47488 0.47931,1.22873 0,0 0.034,-0.0123 0.034,-0.0123 v 0 c -0.26085,-0.76265 -0.12303,-0.34547 -0.40822,-1.25325 0,0 -0.10507,0.0368 -0.10507,0.0368 z" />
      <path
         style="fill:#000000;stroke-width:0.874001"
         id="path15030"
         d="m 127.21294,166.83615 c 0.42978,0.76142 0.23213,0.39782 0.59645,1.08889 0,0 0.0244,-0.0124 0.0244,-0.0124 v 0 c -0.34573,-0.70033 -0.16705,-0.32728 -0.53267,-1.12073 0,0 -0.0881,0.0443 -0.0881,0.0443 z" />
      <path
         style="fill:#000000;stroke-width:0.874001"
         id="path15032"
         d="m 132.47161,170.44066 c 1.09392,2.24218 -0.53299,-1.10063 0.7517,1.57126 0.52215,1.08596 0.2179,0.39856 0.53482,1.13241 0,0 0.0526,-0.021 0.0526,-0.021 v 0 c -0.11567,-0.31397 -0.34929,-0.95289 -0.44496,-1.17794 -0.28516,-0.67081 -0.44709,-0.9552 -0.77088,-1.57635 0,0 -0.12327,0.0717 -0.12327,0.0717 z" />
      <path
         style="fill:#000000;stroke-width:0.874001"
         id="path15034"
         d="m 133.28595,170.90223 c 0.40319,0.85298 0.2058,0.43763 0.59193,1.24619 0,0 0.0323,-0.014 0.0323,-0.014 v 0 c -0.32659,-0.83597 -0.15314,-0.40927 -0.52225,-1.27932 0,0 -0.10194,0.0471 -0.10194,0.0471 z" />
      <path
         style="fill:#000000;stroke-width:0.874001"
         id="path15036"
         d="m 126.18219,146.47192 c -0.0483,-0.44152 -0.0908,-0.88357 -0.13019,-1.32595 -0.0346,-0.37645 -0.0691,-0.75291 -0.10366,-1.12938 -0.0661,-0.74234 -0.14327,-1.48357 -0.22714,-2.22409 -0.0847,-0.7812 -0.15683,-1.5637 -0.22808,-2.34621 -0.0977,-1.04857 -0.15678,-2.09994 -0.25758,-3.14824 -0.0798,-0.86123 -0.16061,-1.72325 -0.30254,-2.57693 -0.058,-0.34852 -0.15683,-0.859 -0.22159,-1.20087 -0.22532,-1.15369 -0.4621,-2.30457 -0.6388,-3.46686 -0.15746,-1.10509 -0.2403,-2.21885 -0.34479,-3.32974 -0.0894,-1.01348 -0.19698,-2.02495 -0.31767,-3.03515 -0.1479,-1.11289 -0.25784,-2.22957 -0.34917,-3.34832 -0.0813,-1.10424 -0.12787,-2.21199 -0.066,-3.31839 0.0287,-0.51298 0.0526,-0.68335 0.10526,-1.18358 0.11534,-0.90645 0.26164,-1.80873 0.41661,-2.70915 0.2287,-1.25768 0.48586,-2.51001 0.73434,-3.76388 0.0865,-0.452 0.16157,-0.90608 0.24327,-1.35899 0.1527,-0.83392 0.30242,-1.66838 0.44795,-2.50359 0.10933,-0.63544 0.21391,-1.2717 0.31526,-1.90846 0.0909,-0.5813 0.17755,-1.16327 0.25981,-1.74586 0.10981,-0.7993 0.21148,-1.600506 0.25461,-2.406636 0.009,-0.169783 0.0117,-0.339852 0.0176,-0.509778 0.007,-0.737457 -0.0613,-1.472017 -0.12746,-2.205583 -0.0466,-0.603342 -0.10651,-1.205587 -0.19507,-1.804291 -0.0618,-0.421675 -0.11523,-0.844503 -0.17314,-1.266714 -0.0713,-0.502558 -0.14637,-1.004575 -0.22094,-1.506654 -0.0907,-0.597757 -0.17638,-1.196245 -0.25864,-1.795222 -0.0594,-0.40723 -0.10454,-0.816123 -0.14824,-1.225227 -0.0565,-0.496514 -0.0984,-0.994452 -0.13469,-1.4928 -0.11942,-0.0762 0.0276,-0.21935 -0.0184,-0.313312 -0.0108,-0.02212 -0.01,0.05045 -0.002,0.07389 0.007,0.02278 0.005,-0.06135 0.003,-0.168714 0,0 -0.99937,0.03521 -0.99937,0.03521 v 0 c 0.009,0.08125 -0.007,0.332623 0.0198,0.445698 0.0372,0.509506 0.0799,1.018598 0.1377,1.526241 0.0448,0.419066 0.0912,0.837901 0.15188,1.255067 0.0828,0.602594 0.1689,1.204701 0.26019,1.80607 0.074,0.498419 0.14853,0.996775 0.21936,1.49566 0.0584,0.425791 0.1123,0.852212 0.17468,1.277453 0.0862,0.579777 0.14287,1.16318 0.1883,1.74746 0.0625,0.692496 0.12778,1.385755 0.12399,2.081908 -0.0313,0.941694 -0.12472,1.878401 -0.26293,2.810464 -0.0814,0.57679 -0.1672,1.15297 -0.2572,1.72849 -0.10057,0.63193 -0.20437,1.26335 -0.31285,1.89398 -0.14519,0.83325 -0.29457,1.66576 -0.44691,2.49774 -0.0807,0.44727 -0.15486,0.89568 -0.24008,1.3421 -0.25012,1.26213 -0.50901,2.52269 -0.73893,3.78869 -0.15862,0.92206 -0.3085,1.84603 -0.42563,2.77439 -0.055,0.52626 -0.0804,0.70911 -0.10995,1.24866 -0.0629,1.14665 -0.0162,2.29468 0.0685,3.43906 0.0924,1.13117 0.20346,2.26029 0.35291,3.38557 0.11973,1.00187 0.22634,2.00501 0.315,3.01015 0.10628,1.12989 0.19067,2.2627 0.35178,3.38658 0.17897,1.17416 0.41651,2.33714 0.6449,3.50254 0.1066,0.56247 0.21768,1.12418 0.29636,1.69146 0.0601,0.43348 0.10631,0.87646 0.14996,1.31124 0.0229,0.22811 0.0433,0.45647 0.0649,0.68471 0.10078,1.04658 0.15918,2.09631 0.2571,3.14315 0.0719,0.7898 0.14478,1.5796 0.23032,2.36807 0.0831,0.73345 0.15952,1.4676 0.22496,2.20286 0.0344,0.37556 0.0689,0.75113 0.10342,1.12669 0.0399,0.4478 0.0829,0.89527 0.13177,1.34219 0,0 0.99448,-0.10487 0.99448,-0.10487 z" />
      <path
         style="fill:#000000;stroke-width:0.874001"
         id="path15040"
         d="m 125.91414,85.683367 c -0.2128,0.128873 -0.43716,0.239498 -0.64537,0.376161 -0.0557,0.03655 -0.10448,0.08112 -0.15876,0.119438 -0.17256,0.104786 -0.33618,0.222985 -0.50609,0.331838 -0.0896,0.03808 -0.17782,0.07789 -0.26598,0.119131 -0.0646,0.024 -0.13685,0.02035 -0.20556,0.03728 -0.0627,0.01937 -0.12661,0.02881 -0.18882,0.04972 -0.034,0.01407 -0.0599,0.01487 -0.10347,0.01836 -0.001,-1.54e-4 -0.003,-2.65e-4 -0.004,-5.29e-4 0.0211,0.06285 0.0422,0.125708 0.0634,0.188563 0,0 -0.0142,-0.05483 -0.0142,-0.05483 v 0 c 0.005,0.209238 -0.0618,0.218964 0.0203,0.200208 7.9e-4,-1.62e-4 0.0869,-0.01717 0.14534,-0.03659 0.0558,-0.01937 0.11488,-0.0272 0.17074,-0.04921 0.0783,-0.03669 0.18251,-0.0054 0.25569,-0.06246 0.0988,-0.04849 0.19802,-0.09559 0.29642,-0.145036 0.17463,-0.11216 0.34188,-0.235242 0.51876,-0.344012 0.047,-0.03446 0.0913,-0.07661 0.13973,-0.109019 0.20312,-0.136033 0.42381,-0.244104 0.63199,-0.371657 0,0 -0.15005,-0.267425 -0.15005,-0.267425 z" />
      <path
         style="fill:#000000;stroke-width:0.874001"
         id="path15042"
         d="m 125.85864,146.45122 c -0.0803,-0.18522 -0.15083,-0.3572 -0.24144,-0.53598 -0.017,-0.0336 -0.0193,-0.1 -0.0568,-0.0975 -0.2816,0.0187 -0.27611,0.0543 -0.25697,0.19302 2.6e-4,-0.023 0.023,-0.0759 10e-4,-0.0689 -0.0261,0.008 -0.024,0.0503 -0.0276,0.0774 -0.025,0.18793 0.0517,0.36291 0.12614,0.53004 0.0233,0.043 0.047,0.0868 0.0586,0.11377 0.0255,0.079 0.0418,-0.17915 -0.008,-0.0968 -0.0107,0.0177 -0.0227,0.0352 -0.0294,0.0548 -0.007,0.0201 -0.007,0.0418 -0.0106,0.0627 0.0304,0.0464 0.0635,0.18746 0.0911,0.13934 0.042,-0.0731 -0.0226,-0.16743 -0.0266,-0.2517 -0.001,-0.0221 0.14696,-0.0167 0.15021,0.026 0.006,0.075 -0.0124,0.14984 -0.0185,0.22476 0.10083,-0.0202 0.20495,-0.004 0.30409,-0.0308 -0.1349,0.058 0.0753,-0.26378 -0.0599,-0.299 -0.12803,-0.0304 -0.26233,-0.003 -0.39065,-0.025 -0.16119,-0.0279 -0.18938,-0.0215 -0.0356,0.3108 0.0129,0.0279 0.0612,-0.006 0.0919,-0.007 0.0244,-0.001 0.0489,-5.3e-4 0.0734,-5.3e-4 0.12076,-0.002 0.24005,0.0154 0.36072,0.014 0.16142,-0.006 0.0659,0.0287 -0.0636,-0.29075 -0.0356,0.0151 -0.0714,0.0297 -0.10667,0.0454 -0.0725,0.0322 -0.16949,0.0674 -0.2186,0.13571 -0.0172,0.0239 -0.0241,0.0538 -0.0382,0.0797 -0.007,0.0119 0.0102,-0.0252 0.0153,-0.0377 0.0245,-0.0205 0.0526,-0.0374 0.0736,-0.0615 0.007,-0.008 -0.0204,0.008 -0.0304,0.0119 -0.006,0.003 -0.0231,0.003 -0.0191,0.009 0.19036,0.27075 0.1436,0.34088 0.27085,0.2089 0.0569,-0.0628 0.0337,-0.0288 -0.0772,-0.12415 0,0 -0.0362,-0.0435 -0.0362,-0.0435 v 0 c -0.16295,-0.0871 -0.12137,-0.0786 -0.13025,-0.0706 -0.15079,0.14848 0.1368,0.47896 0.22661,0.25892 0.01,-0.0198 0.0277,-0.0374 0.0301,-0.0595 0.002,-0.0179 -0.0167,0.0323 -0.0286,0.0458 -0.007,0.008 -0.0365,0.0229 -0.0271,0.0177 0.0724,-0.041 0.14645,-0.0789 0.22467,-0.10856 0.0245,-0.38244 0.12143,-0.35253 -0.0697,-0.34543 -0.12123,0.002 -0.24138,-0.0137 -0.36271,-0.013 -0.0316,8e-4 -0.0631,0.001 -0.0947,0.003 -0.0232,0.001 -0.0625,-0.0159 -0.0695,0.006 -0.10688,0.3351 -0.11913,0.31198 0.003,0.3255 0.12753,0.0127 0.25588,-0.002 0.38302,0.0161 0.0265,0.003 0.0678,0.0332 0.0794,0.009 0.13992,-0.29017 0.10706,-0.32991 -0.0751,-0.29267 0.008,-0.002 0.031,-0.003 0.0232,-0.003 -0.10298,0.002 -0.20675,0.002 -0.30756,0.0274 -0.0429,0.0853 -0.1051,0.1634 -0.1288,0.25591 -0.0139,0.0542 0.20702,0.0768 0.21308,0.0498 0.0205,-0.0912 -0.0189,-0.19827 0.0281,-0.2791 0.0233,-0.04 0.0413,0.0828 0.062,0.12426 -0.024,0.10288 0.005,0.006 -0.026,0.0657 -0.003,0.006 0.0113,-0.009 0.0131,-0.0159 0.0323,-0.11792 0.0656,-0.12866 0.0359,-0.19169 -0.0119,-0.0317 -0.0349,-0.0801 -0.0551,-0.11318 -0.0466,-0.10296 -0.101,-0.21395 -0.11765,-0.32697 -0.007,-0.048 0.0773,-0.098 0.0314,-0.14216 -0.0123,-0.10406 -0.005,-0.12614 -0.26944,0.002 -0.0267,0.0129 0.032,0.0502 0.0456,0.0766 0.10348,0.19986 0.14448,0.30419 0.24085,0.52289 0,0 0.25752,-0.11062 0.25752,-0.11062 z" />
      <path
         style="fill:#b3b3b3;stroke-width:0.173086"
         d="m 123.02241,115.86854 c 0.10102,-1.25038 0.42233,-3.28051 0.91223,-5.76377 0.77423,-3.92447 1.47147,-8.05961 1.76258,-10.453377 0.12897,-1.060526 0.11884,-2.678803 -0.026,-4.155987 -0.0617,-0.628711 -0.28826,-2.373562 -0.50356,-3.877445 -0.34339,-2.398498 -0.51063,-3.723722 -0.56386,-4.468265 l -0.0153,-0.214392 0.49778,-0.336849 c 0.27378,-0.185266 0.58334,-0.38694 0.68791,-0.448162 l 0.19014,-0.11131 0.0357,0.531559 c 0.0652,0.97051 0.18683,1.975506 0.52715,4.356605 0.18534,1.296847 0.38485,2.73517 0.44335,3.19627 0.24822,1.956707 0.3259,3.880567 0.20839,5.161192 -0.18133,1.976201 -0.89012,6.289241 -1.80828,11.003551 -0.74226,3.81109 -0.87254,4.84857 -0.87841,6.99512 -0.005,1.65261 0.0246,2.07163 0.33449,4.80787 0.11343,1.00166 0.3008,2.78187 0.41638,3.95604 0.24638,2.50275 0.3409,3.19295 0.68346,4.99054 0.53992,2.83323 0.66634,3.71205 0.83666,5.81616 0.13026,1.60918 0.28311,3.29039 0.4216,4.63721 0.0563,0.54756 0.18522,1.8562 0.28648,2.90809 0.10126,1.05188 0.20732,2.10053 0.23568,2.33033 0.0284,0.22979 0.0516,0.43553 0.0516,0.45718 0,0.0657 -0.24947,-0.0505 -0.56547,-0.26346 -0.36031,-0.2428 -0.58032,-0.32334 -0.88329,-0.32334 -0.21149,0 -0.30928,-0.069 -0.16567,-0.11683 0.0673,-0.0224 0.0451,-0.29754 -0.30363,-3.76062 -0.26747,-2.65634 -0.31841,-3.20838 -0.46664,-5.05639 -0.23279,-2.90241 -0.29708,-3.38759 -0.78106,-5.89476 -0.50773,-2.63016 -0.55357,-2.95865 -0.84289,-6.03937 -0.10219,-1.0882 -0.23171,-2.34968 -0.2878,-2.80329 -0.30966,-2.50403 -0.41791,-3.83806 -0.44108,-5.43577 -0.0109,-0.74929 -0.0102,-1.48024 10e-4,-1.62433 z"
         id="path15044" />
      <path
         style="fill:#808080;stroke-width:0.173086"
         d="m 114.69001,165.59413 c 0.0403,-0.25937 0.20092,-0.97853 0.357,-1.59814 0.15609,-0.6196 0.32247,-1.36234 0.36973,-1.65053 0.10677,-0.65093 0.14347,-0.77554 0.60556,-2.05564 0.6808,-1.88601 0.75598,-2.01193 2.61783,-4.38478 0.75733,-0.96519 1.45759,-2.06291 1.82955,-2.86804 0.11505,-0.24902 0.35026,-0.86522 0.52269,-1.36932 0.65922,-1.92723 1.02015,-2.68371 1.66491,-3.48956 0.2811,-0.35134 0.38203,-0.43589 0.71024,-0.595 0.5127,-0.24857 1.24919,-0.49491 1.66632,-0.55735 0.18732,-0.0281 0.6,-0.0531 0.91706,-0.0556 l 0.57647,-0.005 0.41909,0.24941 c 0.23049,0.13717 0.51223,0.28741 0.62609,0.33385 0.17284,0.0705 0.2204,0.12419 0.28818,0.3253 0.0447,0.13247 0.10861,0.26811 0.14212,0.30142 0.0757,0.0753 0.17459,0.0199 0.17566,-0.0984 0.002,-0.21973 0.0822,-0.24081 0.3475,-0.0914 0.13985,0.0788 0.39575,0.1952 0.56866,0.25878 0.17292,0.0636 0.56197,0.28168 0.86457,0.48466 0.30259,0.20298 0.77967,0.51329 1.06015,0.68957 0.28049,0.17628 0.79139,0.53301 1.13533,0.79273 0.83988,0.63423 1.2517,0.89468 1.415,0.89491 0.0748,1.1e-4 0.21711,0.0497 0.31627,0.11012 l 0.18031,0.10992 -0.12791,0.0967 -0.12791,0.0967 0.10292,0.1917 c 0.13046,0.24298 0.4543,0.52621 0.77458,0.67743 0.1368,0.0646 0.29836,0.18055 0.35904,0.25769 0.0832,0.1058 0.12708,0.12633 0.17856,0.0836 0.12148,-0.10082 0.38,0.11843 0.78265,0.66375 0.45675,0.6186 0.69153,1.07175 0.91107,1.7585 0.0896,0.28018 0.33759,0.91682 0.55114,1.41474 0.52788,1.23084 0.64314,1.56605 0.84606,2.46069 0.23885,1.05307 0.25712,1.30273 0.16034,2.19108 -0.0455,0.41787 -0.10609,1.56145 -0.13459,2.5413 -0.0594,2.04274 -0.12568,3.1396 -0.23825,3.94263 -0.1144,0.81616 -0.15119,2.22658 -0.0783,3.00008 0.0936,0.99219 0.13278,3.5573 0.0625,4.08704 -0.11119,0.83807 -0.48771,1.38937 -1.71026,2.50423 -0.92183,0.84062 -1.22519,1.25801 -1.44783,1.99207 -0.19458,0.64156 -0.47497,1.38904 -0.86856,2.31542 -0.64327,1.5141 -0.92056,1.96047 -1.63868,2.6379 -0.53768,0.50723 -1.11464,0.92023 -1.60003,1.14534 -1.33015,0.61689 -2.46006,0.5811 -4.50469,-0.14271 -3.25894,-1.15366 -3.74928,-1.36415 -4.82121,-2.0696 -1.13402,-0.7463 -1.6263,-1.40894 -1.89502,-2.55079 -0.5101,-2.16759 -0.96432,-3.3347 -1.90262,-4.8887 -0.63086,-1.04482 -1.07398,-2.08684 -1.52426,-3.58441 -0.24506,-0.81504 -0.41531,-1.25988 -0.75387,-1.96976 -0.49454,-1.03694 -0.6811,-1.57901 -0.76001,-2.20835 -0.0746,-0.59472 -0.0599,-1.80501 0.0288,-2.37647 z m 3.84761,1.70293 c 0.0633,0 0.0683,-0.0115 0.44287,-1.01819 0.22165,-0.59573 0.2753,-0.79244 0.22485,-0.82447 -0.1111,-0.0705 -0.12869,-0.0526 -0.2019,0.20523 -0.11696,0.412 -0.10843,0.1395 0.0231,-0.73798 0.10582,-0.70601 0.11319,-0.83395 0.0494,-0.85842 -0.0412,-0.0158 -0.0948,-0.008 -0.11903,0.0175 -0.0346,0.0363 -0.24911,1.17752 -0.43711,2.32556 -0.0463,0.28274 -0.0341,0.89077 0.0178,0.89077 z m 2.17787,9.24163 0.13548,0.24239 h -0.11724 c -0.1162,0 -0.11694,0.005 -0.083,0.55895 0.0491,0.80266 0.1052,0.81984 0.20943,0.0641 l 0.0679,-0.4921 0.2958,0.58504 c 0.25912,0.51248 0.30958,0.58144 0.40683,0.556 0.0611,-0.016 0.12236,-0.0586 0.13622,-0.0947 0.0386,-0.10047 -0.79408,-1.69911 -0.92811,-1.78194 -0.0424,-0.0262 -0.25871,0.0591 -0.25871,0.10206 0,0.01 0.061,0.12683 0.13547,0.26015 z m 1.95208,-20.66437 c 0.0676,0 0.73521,-0.81587 0.86193,-1.05328 0.0963,-0.18034 0.1013,-0.2172 0.0354,-0.25887 -0.0422,-0.0267 -0.0891,-0.049 -0.1042,-0.0494 -0.0317,-10e-4 -0.82929,1.26348 -0.83402,1.32224 -0.002,0.0216 0.0166,0.0393 0.0409,0.0393 z m 4.71602,11.46098 c 0.1108,0.28157 0.22015,0.5591 0.24301,0.61673 0.0392,0.0988 0.0439,0.0973 0.0815,-0.0262 0.022,-0.072 0.0423,-0.10152 0.0452,-0.0655 0.003,0.036 0.0269,0.0655 0.0534,0.0655 0.0738,0 -0.48436,-1.20159 -0.55906,-1.20349 -0.0968,-0.002 -0.0847,0.0521 0.13594,0.61296 z m 5.0418,-12.02845 c 0.17481,0.23576 0.42829,0.61232 0.56328,0.8368 0.13499,0.22447 0.26621,0.40897 0.29159,0.40999 0.10789,0.004 -0.034,-0.40918 -0.25387,-0.73983 -0.13072,-0.19658 -0.23767,-0.37411 -0.23767,-0.39452 0,-0.12064 0.93964,0.95614 1.05467,1.2086 0.0748,0.16426 0.15049,0.17892 0.15049,0.0291 0,-0.59316 -1.5587,-2.19324 -1.8514,-1.90054 -0.0646,0.0646 -0.0361,0.12012 0.28291,0.55035 z m 0.67777,16.52215 c 0.34423,0.72021 0.65257,1.31837 0.68519,1.32925 0.0771,0.0257 0.0505,-0.0588 -0.30263,-0.96199 -0.22262,-0.56939 -0.77662,-1.73089 -0.88347,-1.85227 -0.0311,-0.0353 -0.1279,0.0513 -0.12644,0.11314 8e-4,0.0343 0.28312,0.65166 0.62735,1.37187 z m 0.45311,-0.28937 c 0.16278,0.34674 0.31604,0.63043 0.34059,0.63043 0.0672,0 0.0577,-0.0307 -0.20894,-0.68072 -0.16448,-0.40092 -0.2772,-0.60794 -0.33732,-0.61952 -0.0497,-0.01 -0.0903,-0.005 -0.0903,0.011 0,0.0156 0.13319,0.31208 0.29597,0.65882 z"
         id="path15046" />
    </g>
  </g>
</svg>
