<?xml version="1.0" encoding="UTF-8" standalone="no"?>
<!-- Created with Inkscape (http://www.inkscape.org/) -->

<svg
   width="210mm"
   height="297mm"
   viewBox="0 0 210 297"
   version="1.1"
   id="svg14425"
   inkscape:version="1.2 (dc2aedaf03, 2022-05-15)"
   sodipodi:docname="raiz-bulbo-centro.svg"
   xmlns:inkscape="http://www.inkscape.org/namespaces/inkscape"
   xmlns:sodipodi="http://sodipodi.sourceforge.net/DTD/sodipodi-0.dtd"
   xmlns="http://www.w3.org/2000/svg"
   xmlns:svg="http://www.w3.org/2000/svg">
  <sodipodi:namedview
     id="namedview14427"
     pagecolor="#505050"
     bordercolor="#eeeeee"
     borderopacity="1"
     inkscape:showpageshadow="0"
     inkscape:pageopacity="0"
     inkscape:pagecheckerboard="0"
     inkscape:deskcolor="#505050"
     inkscape:document-units="mm"
     showgrid="false"
     inkscape:zoom="5.0495043"
     inkscape:cx="397.26672"
     inkscape:cy="554.50988"
     inkscape:window-width="2560"
     inkscape:window-height="1369"
     inkscape:window-x="2552"
     inkscape:window-y="-8"
     inkscape:window-maximized="1"
     inkscape:current-layer="layer1" />
  <defs
     id="defs14422" />
  <g
     inkscape:label="Camada 1"
     inkscape:groupmode="layer"
     id="layer1">
    <path
       style="fill:#000000;stroke-width:0.874001"
       id="path14548"
       d="m 101.6712,107.56467 c 0.56034,0.17022 1.11177,0.42153 1.69826,0.4983 0.20021,0.0262 0.40855,-0.0228 0.6082,-0.0354 0.55237,0.001 1.10402,0.0324 1.65655,0.039 0.2696,-0.007 0.53494,0.0464 0.80318,0.0559 0.19795,0.0137 0.39641,0.009 0.59437,0.023 0.13423,0.0146 0.26963,-0.0287 0.40178,0.002 0.0725,0.006 0.0723,0.0113 0.14982,-0.006 0.0185,-0.004 0.0358,-0.0123 0.0537,-0.0187 0.004,-0.002 0.0173,-0.006 0.0129,-0.005 -0.0767,0.0186 2.7e-4,0.0197 -0.14042,-0.0194 0.0346,0.0623 0.0425,0.0114 -0.0103,-0.009 -0.0112,-0.004 0.018,0.0429 0.009,0.0348 -0.0141,-0.0128 -0.0121,-0.0631 -0.0266,-0.0507 -0.0242,0.0209 -0.0151,0.0622 -0.0227,0.0933 -0.0118,0.20656 -0.0403,0.41107 -0.0687,0.61644 -0.0556,0.3792 -0.11329,0.75646 -0.15207,1.13781 -0.0717,0.40308 -0.13826,0.80499 -0.17845,1.21324 -0.0695,0.52974 -0.19454,1.04993 -0.28614,1.57601 -0.15686,0.72716 -0.26445,1.45661 -0.30829,2.19907 -0.0447,0.69892 -0.0983,1.39732 -0.12911,2.09713 -0.008,0.72125 -0.077,1.43816 -0.13226,2.15647 -0.0138,0.70698 -0.0149,1.41718 0.0289,2.12323 0.0693,0.615 0.15243,1.2281 0.19374,1.84579 0.0278,0.64741 0.002,1.29585 -0.0418,1.94193 -0.0206,0.6097 0.0295,1.21975 0.0547,1.82899 0.0134,0.45948 0.0718,0.91721 0.0882,1.37631 0.006,0.29266 0.0105,0.58436 0.027,0.87673 0.001,0.24015 -0.0266,0.48263 -0.0666,0.71956 -0.0283,0.18716 -0.0209,0.37715 -0.0199,0.5656 -0.009,0.13611 -0.0485,0.2656 -0.0586,0.40202 -0.0344,0.17509 -0.0414,0.35356 -0.0357,0.53143 -0.0372,0.15514 0.009,0.3273 -0.0259,0.48011 -0.003,0.0243 -0.005,0.0487 -0.008,0.0731 -0.001,0.01 -0.0333,0.28947 -0.0215,0.22352 -0.0183,0.53811 -0.0115,-0.0492 0.009,0.21867 5.3e-4,0.006 -0.009,-0.0195 -0.0106,-0.0139 -0.007,0.0234 -0.007,0.0487 -0.008,0.0732 -0.003,0.10007 7.9e-4,0.1069 0.0117,0.19247 -0.0312,0.0852 -0.0222,0.2063 -0.002,0.30625 -0.0361,0.11704 0.0292,0.24422 -0.001,0.36076 8e-4,-0.008 0.003,-0.0334 0.002,-0.025 -0.0146,0.19905 -0.0267,0.0726 0.0445,0.25952 0.005,0.0132 -0.0177,-0.0233 -0.0208,-0.0371 -0.0165,-0.0733 0.004,-0.12848 -0.0172,-0.0562 -0.0261,0.10913 0.004,0.22744 -0.007,0.33328 0.006,-0.006 -0.0507,0.18041 -0.0115,0.18214 0.46714,0.0206 0.48046,0.0954 0.43866,-0.0636 -0.1836,-0.10405 -0.11676,-0.0291 -0.19839,-0.22682 0,0 -0.0559,0.009 -0.0559,0.009 v 0 c -0.0239,0.17248 0.0246,0.12406 -0.16327,0.12501 -0.002,-0.002 -0.005,-0.004 -0.007,-0.006 0.13879,0.0181 0.27758,0.0361 0.41637,0.0541 0.0284,0.007 -0.0407,0.1808 0.0153,0.0125 0.002,-0.0128 0.0342,-0.33832 0.002,-0.29197 0.0288,-0.0902 0.0421,-0.1901 -0.0123,-0.27319 -0.0101,-0.0154 0.0104,0.036 0.01,0.0544 -10e-4,0.0292 -0.0399,0.0688 -0.0164,0.0862 0.0225,0.0167 0.0158,-0.0538 0.0237,-0.0807 0.0161,-0.1747 -0.01,-0.34836 -0.01,-0.52319 -0.0241,-0.0765 0.0304,-0.1802 0.0107,-0.2641 -0.008,-0.0399 0.0177,-0.44522 -0.0295,-0.25219 0.0401,-0.12833 0.0319,-0.26358 0.0549,-0.39554 0.017,-0.18168 0.004,-0.36539 0.0271,-0.54716 -0.004,-0.16475 0.004,-0.32893 0.0341,-0.49137 0.007,-0.14684 0.0621,-0.28637 0.0565,-0.43496 -0.003,-0.16243 -0.009,-0.32692 0.0118,-0.48806 0.0457,-0.26954 0.078,-0.54534 0.0738,-0.8187 -0.0192,-0.28939 -0.0214,-0.5781 -0.0295,-0.86786 -0.0212,-0.45911 -0.0751,-0.91703 -0.0921,-1.37661 -0.0258,-0.5937 -0.0772,-1.18846 -0.0572,-1.7826 0.043,-0.66533 0.0713,-1.33285 0.0388,-1.99939 -0.0441,-0.61689 -0.12465,-1.22955 -0.19847,-1.84347 -0.0459,-0.68649 -0.0441,-1.37765 -0.036,-2.06528 0.0535,-0.72294 0.12092,-1.4447 0.12331,-2.17052 0.0282,-0.69817 0.0771,-1.39511 0.11813,-2.09252 0.0373,-0.72808 0.14056,-1.44339 0.28982,-2.15707 0.0895,-0.53543 0.21613,-1.06482 0.27814,-1.6046 0.0381,-0.40776 0.10268,-0.80889 0.17144,-1.21187 0.0384,-0.37741 0.0934,-0.75124 0.1449,-1.12705 0.0258,-0.19669 0.0556,-0.39428 0.0507,-0.59278 0.0226,-0.13515 0.0566,-0.23859 -0.0391,-0.32474 -0.17413,-0.0992 -0.13615,-0.0863 -0.25781,-0.056 -0.14916,-0.0297 -0.29628,-0.004 -0.44658,-0.005 -0.20127,-0.009 -0.40254,-0.005 -0.60377,-0.0136 -0.26948,-0.003 -0.53781,-0.0441 -0.80796,-0.0354 -0.55991,-0.002 -1.11924,-0.0273 -1.67893,-0.0235 -0.11966,0.0118 -0.42246,0.0709 -0.54496,0.0582 -0.57722,-0.0598 -1.11957,-0.31446 -1.67014,-0.47354 0,0 -0.0711,0.20067 -0.0711,0.20067 z" />
    <path
       style="fill:#000000;stroke-width:0.874001"
       id="path14550"
       d="m 101.8274,107.84753 c 0.0541,0.0851 0.10963,0.16935 0.16221,0.25542 0.0415,0.068 0.0833,0.13603 0.12006,0.20673 0.0599,0.11507 0.0904,0.24511 0.13106,0.36726 0.017,0.0511 0.0356,0.10168 0.0534,0.15251 0.0718,0.1901 0.14639,0.37976 0.23257,0.56391 0.0503,0.10755 0.10771,0.21179 0.15868,0.3191 0.1262,0.26394 0.21043,0.54594 0.27908,0.8296 0.053,0.26788 0.14908,0.52561 0.19214,0.79571 0.0126,0.0789 0.0212,0.15845 0.0318,0.23767 0.01,0.0797 0.0192,0.1593 0.0288,0.23895 0.0138,0.11442 0.0194,0.18845 0.0425,0.29658 0.0283,0.13225 0.0678,0.26319 0.1016,0.39411 0.0778,0.34066 0.16159,0.67972 0.24473,1.01908 0.0954,0.37492 0.14995,0.75837 0.19345,1.14225 0.0586,0.41868 0.0758,0.84086 0.0908,1.26278 0.0209,0.42733 0.0515,0.85467 0.047,1.28265 -0.0128,0.26289 -0.0725,0.52001 -0.10079,0.78106 -0.017,0.15749 -0.0177,0.22327 -0.0255,0.3851 -0.0231,0.37087 -0.10358,0.7345 -0.16366,1.10038 -0.0712,0.34816 -0.0509,0.70463 -0.0839,1.05648 -0.0258,0.27062 -0.0279,0.54286 -0.0484,0.81383 -0.0103,0.1364 -0.029,0.2913 -0.0443,0.42728 -0.0223,0.43222 -0.10357,0.89174 0.0499,1.31043 0.0123,0.0336 0.14917,0.29462 0.17056,0.33577 0.13502,0.30004 0.13796,0.63037 0.1826,0.95037 0.0442,0.24803 0.0821,0.49768 0.0873,0.75002 0.004,0.20727 -0.002,0.27388 -0.0119,0.48155 -0.0305,0.36816 -0.062,0.73696 -0.0605,1.10672 8e-4,0.1964 0.009,0.33878 0.0185,0.53651 0.0362,0.57435 0.0175,1.14961 -0.0105,1.72372 -0.012,0.36913 -0.0295,0.73748 -0.0576,1.10575 -0.0305,0.45028 -0.0678,0.89948 -0.12174,1.34757 -0.0344,0.25069 -0.0299,0.50346 -0.035,0.75567 -0.001,0.10519 -0.01,0.20703 -0.0326,0.30948 -0.0464,0.16937 -0.0915,0.33909 -0.13627,0.50889 -0.041,0.11809 -0.0353,0.23976 -0.0372,0.36211 0.008,0.0996 7.9e-4,0.19803 -0.0131,0.29659 -0.0417,0.1987 -0.0735,0.39923 -0.10768,0.59932 -0.0118,0.088 -0.004,0.0357 0.0515,0.0472 0.0305,0.006 0.0575,0.0238 0.0862,0.0356 0,0 0.012,0.0554 0.012,0.0554 v 0 c 0.12338,0.0278 0.18277,0.0589 0.21603,-0.0756 0.0349,-0.20411 0.0687,-0.40839 0.10858,-0.61153 0.0152,-0.11383 0.0248,-0.2286 0.0165,-0.34346 5.3e-4,-0.0928 -0.007,-0.18152 0.0259,-0.27094 0.0458,-0.17376 0.0919,-0.34748 0.13827,-0.52109 0.0296,-0.12687 0.0409,-0.25407 0.0427,-0.38433 0.005,-0.23954 0.003,-0.4797 0.0353,-0.71771 0.0565,-0.45285 0.10397,-0.9065 0.134,-1.36196 0.032,-0.37153 0.0522,-0.74336 0.0662,-1.11598 0.034,-0.58718 0.0493,-1.17574 0.01,-1.76325 -0.01,-0.19566 -0.0179,-0.32046 -0.02,-0.51383 -0.004,-0.36578 0.028,-0.73032 0.0514,-1.09501 0.009,-0.23248 0.0147,-0.286 0.007,-0.51829 -0.009,-0.26321 -0.0499,-0.52296 -0.0983,-0.78142 -0.0534,-0.35995 -0.0629,-0.73063 -0.22643,-1.06467 -0.0719,-0.13833 -0.17034,-0.28474 -0.19715,-0.44101 -0.0566,-0.32967 -2.3e-4,-0.66827 0.0152,-0.99816 0.018,-0.1601 0.0334,-0.28569 0.046,-0.44685 0.0208,-0.26725 0.023,-0.53569 0.0466,-0.80276 0.029,-0.34304 0.0151,-0.68971 0.0794,-1.02922 0.0643,-0.37943 0.14611,-0.75714 0.16816,-1.1423 0.007,-0.14401 0.008,-0.21554 0.0229,-0.35561 0.0296,-0.27584 0.0914,-0.54795 0.10189,-0.82599 -9e-5,-0.43318 -0.0301,-0.86554 -0.056,-1.29781 -0.0178,-0.4307 -0.035,-0.86187 -0.0977,-1.28903 -0.0473,-0.39834 -0.10419,-0.7964 -0.20621,-1.18502 -0.087,-0.33955 -0.17278,-0.67924 -0.25124,-1.02092 -0.0326,-0.12289 -0.0697,-0.24585 -0.0982,-0.36975 -0.0241,-0.10494 -0.026,-0.15945 -0.0405,-0.27685 -0.01,-0.0816 -0.0203,-0.16323 -0.0305,-0.24484 -0.0301,-0.20324 -0.0317,-0.24669 -0.0734,-0.42798 -0.0492,-0.2139 -0.12315,-0.42141 -0.16664,-0.63673 -0.078,-0.30351 -0.17295,-0.60368 -0.3099,-0.88636 -0.051,-0.1049 -0.10828,-0.20627 -0.15925,-0.31108 -0.0855,-0.17582 -0.15862,-0.35732 -0.23354,-0.53776 -0.0505,-0.13598 -0.0933,-0.2771 -0.15165,-0.40996 -0.0989,-0.225 -0.23895,-0.42782 -0.37911,-0.62853 0,0 -0.21339,0.15654 -0.21339,0.15654 z" />
    <path
       style="fill:#000000;stroke-width:0.874001"
       id="path14552"
       d="m 101.99839,107.62099 c -0.0287,-0.0393 -0.0575,-0.0785 -0.0861,-0.11779 -0.0155,-0.0213 -0.0307,-0.0429 -0.0463,-0.0642 -0.004,-0.005 -0.007,-0.0188 -0.0115,-0.0148 -0.17322,0.14572 -0.19005,0.0987 -0.12542,0.17807 0.12726,-0.12463 0.19759,-0.11478 0.123,-0.18058 -0.005,-0.004 -0.009,-0.01 -0.0154,-0.0125 -0.0153,-0.008 -0.0327,-0.0108 -0.0476,-0.0192 -0.008,-0.004 0.017,0.004 0.0255,0.007 0.12738,0.11639 0.049,0.0496 -0.13947,0.15531 -0.007,0.004 0.006,0.0142 0.009,0.0213 0.0181,0.0425 0.0189,0.0435 0.0392,0.0884 0.0327,0.0899 0.0918,0.16335 0.14887,0.23826 0.0203,0.0264 0.0481,0.0452 0.0704,0.0697 0.002,0.002 0.006,0.007 0.004,0.005 -0.006,-0.004 -0.012,-0.0189 -0.014,-0.0228 0.001,0.0282 0.10964,0.11837 0.0351,0.0482 -0.0214,-0.0555 -0.0178,-0.0208 0.0686,-0.0791 0,0 0.0276,0.0495 0.0276,0.0495 v 0 c 0.10791,-0.0703 0.1125,-0.0275 0.087,-0.0953 -0.0111,-0.0112 -0.0219,-0.0228 -0.0332,-0.0337 -5.3e-4,-5.3e-4 -0.0144,-0.009 -0.0128,-0.008 0.0147,0.0162 0.0331,0.0247 0.0374,0.049 -0.0209,-0.0484 -0.0547,-0.083 -0.0938,-0.11767 -0.0471,-0.0617 -0.0964,-0.12078 -0.12227,-0.19561 -0.0158,-0.0349 -0.051,-0.11406 -0.0512,-0.11404 -0.0938,0.009 -0.25779,0.0165 -0.20865,0.08 0.0173,0.0223 0.0395,0.0404 0.0592,0.0607 0.0102,0.003 0.038,0.0164 0.0305,0.009 -0.0102,-0.0103 -0.0268,-0.0111 -0.0396,-0.018 -0.0225,-0.0123 -0.0118,-0.0112 -0.008,-0.008 0.003,0.003 0.005,0.0118 0.009,0.009 0.0591,-0.0403 0.11326,-0.0874 0.1699,-0.13111 -0.0683,-0.0635 -0.002,-0.036 -0.1925,0.10056 -0.002,10e-4 0.003,0.003 0.005,0.004 0.0163,0.0209 0.0321,0.0421 0.048,0.0632 0.0288,0.0382 0.0575,0.0765 0.0863,0.11474 0,0 0.16532,-0.11969 0.16532,-0.11969 z" />
    <path
       style="fill:#000000;stroke-width:0.874001"
       id="path14556"
       d="m 103.51951,134.17015 c -0.0758,0.0745 -0.15475,0.14585 -0.2274,0.22338 -0.0321,0.0342 -0.18913,0.19813 -0.1907,0.28518 -0.002,0.12882 0.0901,0.23766 0.10775,0.21325 0.0159,-0.0221 -0.0385,-0.0385 -0.0578,-0.0577 -0.006,-0.0105 -0.006,-0.0363 -0.0168,-0.0314 -0.0192,0.009 -0.0228,0.0353 -0.0328,0.0537 -0.064,0.11731 -0.10748,0.24381 -0.15683,0.36764 -0.0421,0.12063 -0.11292,0.22663 -0.17396,0.33792 -0.0582,0.14859 -0.16415,0.26489 -0.2581,0.39051 -0.11174,0.16504 -0.24481,0.31462 -0.35674,0.47935 -0.10772,0.15394 -0.18752,0.32501 -0.27712,0.4897 -0.0674,0.13699 -0.14914,0.26543 -0.24181,0.38649 -0.0713,0.11167 -0.12082,0.23105 -0.19686,0.33954 -0.052,0.0622 -0.0855,0.13692 -0.13888,0.19784 -0.0562,0.0641 -0.11169,0.12886 -0.17458,0.18651 -0.0313,0.0111 -0.14837,0.18585 -0.0812,0.0807 0.003,-0.004 0.0147,-0.012 0.01,-0.012 -0.0235,-1.9e-4 -0.10682,0.0855 -0.12163,0.1014 -0.0526,0.0699 -0.047,0.0461 -0.10183,0.15927 0.0185,-0.0743 -0.0213,0.0776 0.11543,-0.14342 0.009,-0.0143 -0.031,0.0137 -0.0452,0.0227 -0.006,0.004 -0.0554,0.0412 -0.0625,0.0538 -0.0214,0.038 -0.0375,0.0787 -0.0562,0.11812 -0.009,0.0487 0.004,-0.0247 0.0516,-0.10366 0.007,-0.0109 0.0389,-0.0331 0.0289,-0.0252 -0.0152,0.012 -0.0311,0.0234 -0.0445,0.0375 -0.0253,0.0265 -0.0521,0.0732 -0.0291,0.0343 -0.10664,0.10713 0.0658,-0.0406 -0.0918,0.0738 -0.0433,0.0383 -0.0867,0.0764 -0.12944,0.11547 -0.0638,0.0585 -0.11871,0.1255 -0.18073,0.18571 -0.0573,0.0776 -0.12751,0.14307 -0.18455,0.22042 -0.0763,0.12182 -0.17281,0.22855 -0.262102,0.34074 -0.104995,0.15695 -0.253921,0.27436 -0.391395,0.40099 -0.214546,0.20632 -0.443905,0.39561 -0.679884,0.57664 -0.258146,0.2106 -0.49598,0.44398 -0.748443,0.66132 -0.274876,0.24618 -0.559631,0.48092 -0.831453,0.73051 -0.235921,0.25279 -0.485188,0.49129 -0.743956,0.72043 -0.331358,0.2673 -0.627414,0.57047 -0.914696,0.88358 -0.22738,0.25012 -0.469723,0.4862 -0.6829,0.749 -0.115438,0.14231 -0.168484,0.21869 -0.275675,0.3654 -0.20861,0.29675 -0.392282,0.60977 -0.581612,0.91886 -0.208815,0.35894 -0.359519,0.74731 -0.534167,1.12331 -0.197427,0.37812 -0.35668,0.7739 -0.50518,1.17323 -0.119036,0.35824 -0.227687,0.71975 -0.34408,1.0789 -0.124984,0.39457 -0.229256,0.796 -0.302054,1.20351 -0.06796,0.34222 -0.0719,0.6873 -0.04704,1.03391 0.02937,0.3592 0.118753,0.70812 0.216065,1.05377 0.105968,0.35926 0.218847,0.71614 0.340217,1.0705 0.111678,0.35207 0.248216,0.69343 0.403711,1.02817 0.20896,0.42597 0.42498,0.85186 0.683956,1.25028 0.126212,0.19416 0.188672,0.26188 0.330796,0.43617 0.401095,0.43501 0.736817,0.92324 1.125558,1.36855 0.330161,0.34776 0.691264,0.66419 1.035661,0.99765 0.29236,0.29493 0.601115,0.57282 0.915006,0.84449 0.32648,0.28152 0.667589,0.54579 0.972447,0.85133 0.192204,0.20427 0.371422,0.418 0.574829,0.61175 0.250809,0.25198 0.492164,0.51105 0.765095,0.7397 0.195123,0.16054 0.428156,0.28515 0.575686,0.49552 0.19915,0.28036 0.38754,0.56845 0.5739,0.85745 0.14855,0.23766 0.30814,0.46622 0.4935,0.6765 0.21055,0.21859 0.444,0.41326 0.66626,0.61963 0.17732,0.16196 0.36758,0.30771 0.53518,0.4801 0.12527,0.13142 0.2637,0.24826 0.40673,0.35951 0.10204,0.0788 0.20698,0.15394 0.31158,0.2293 0.0649,0.0433 0.12998,0.0854 0.19873,0.12232 0.0887,0.0372 -0.014,-0.002 -0.0129,-0.0139 0.0397,-0.42048 0.0319,-0.37647 0.0845,-0.17251 0,0 0.0308,0.0475 0.0308,0.0475 v 0 c 0.0433,0.0241 0.0982,0.11035 0.12988,0.0723 0.19622,-0.23566 0.15503,-0.32822 -0.003,-0.39847 -0.0463,-0.013 -0.0814,-0.0543 -0.12262,-0.0775 -0.0997,-0.0736 -0.1959,-0.15209 -0.29615,-0.22506 -0.12524,-0.0952 -0.24154,-0.20143 -0.35257,-0.31286 -0.17558,-0.17619 -0.36598,-0.33399 -0.55309,-0.49744 -0.21087,-0.19348 -0.42919,-0.3792 -0.62959,-0.5837 -0.16931,-0.18719 -0.30592,-0.3988 -0.44233,-0.61065 -0.19157,-0.3008 -0.38681,-0.59994 -0.59575,-0.88897 -0.18802,-0.24271 -0.41791,-0.40283 -0.66557,-0.58021 -0.266502,-0.21891 -0.501314,-0.46927 -0.744905,-0.7127 -0.202496,-0.18919 -0.375002,-0.40382 -0.568497,-0.60156 -0.317032,-0.30918 -0.661488,-0.58624 -1.002977,-0.86759 -0.306864,-0.26548 -0.613572,-0.53205 -0.900459,-0.81928 -0.335585,-0.32461 -0.69341,-0.62538 -1.020263,-0.95889 -0.389575,-0.43772 -0.721669,-0.92289 -1.123871,-1.35003 -0.04767,-0.0569 -0.09764,-0.112 -0.142999,-0.17078 -0.33251,-0.4309 -0.568449,-0.92976 -0.813594,-1.41254 -0.148899,-0.32019 -0.280921,-0.64552 -0.387458,-0.98255 -0.118798,-0.3467 -0.229068,-0.69592 -0.332954,-1.04733 -0.09059,-0.31476 -0.171816,-0.63297 -0.200629,-0.96035 -0.02159,-0.30845 -0.02085,-0.61493 0.04275,-0.91918 0.07137,-0.38712 0.166624,-0.76967 0.289142,-1.14394 0.113007,-0.35351 0.22188,-0.70823 0.336884,-1.06103 0.141695,-0.38838 0.302662,-0.77004 0.493342,-1.13713 0.16719,-0.36002 0.315727,-0.73034 0.514681,-1.07442 0.180707,-0.29891 0.358528,-0.60017 0.560488,-0.88545 0.09418,-0.12916 0.153783,-0.21434 0.254844,-0.33891 0.209203,-0.25785 0.449045,-0.48778 0.672536,-0.7328 0.146595,-0.15993 0.292171,-0.31996 0.450781,-0.46823 0.110927,-0.10369 0.160708,-0.14101 0.27908,-0.24418 0.05124,-0.0447 0.101719,-0.0902 0.15258,-0.13528 0.259726,-0.23241 0.511326,-0.47267 0.752576,-0.7243 0.265967,-0.24764 0.547454,-0.47751 0.818141,-0.71993 0.245653,-0.21149 0.479343,-0.43587 0.72874,-0.64279 0.246827,-0.18954 0.48655,-0.38768 0.710139,-0.60453 0.157202,-0.14239 0.321042,-0.28144 0.441792,-0.45781 0.0943,-0.11878 0.19372,-0.23384 0.2764,-0.36135 0.0376,-0.0602 0.0982,-0.10409 0.13496,-0.16573 0.0525,-0.0573 0.1082,-0.11189 0.16085,-0.16919 0.0392,-0.0359 0.0745,-0.0751 0.11516,-0.10932 -0.007,0.003 -0.0263,0.013 -0.0204,0.009 0.0602,-0.0435 0.12678,-0.0791 0.1673,-0.1448 0.008,-0.0117 0.0387,-0.0295 0.0254,-0.0352 -0.0136,-0.006 -0.0179,0.0236 -0.0285,0.0339 -0.008,0.008 -0.0369,0.0288 -0.0282,0.021 0.0548,-0.0486 0.108,-0.0785 0.11618,-0.17082 -0.0278,0.0532 -0.0301,0.0856 -0.0683,0.11565 -0.0156,0.0123 -0.0653,0.0437 -0.0523,0.0287 0.1578,-0.18177 0.12292,-0.0749 0.14907,-0.16446 -0.0784,0.14537 -0.0177,0.0306 0.008,0.008 -0.003,0.002 -0.0112,0.01 -0.009,0.007 0.0183,-0.0287 0.0562,-0.048 0.0786,-0.0703 0.0493,-0.061 0.0367,-0.058 0.0914,-0.11663 0.0559,-0.0752 0.12218,-0.14204 0.17993,-0.21577 0.0535,-0.0725 0.0912,-0.15351 0.14488,-0.22597 0.07,-0.10644 0.12107,-0.21961 0.18129,-0.33109 0.0999,-0.13876 0.18926,-0.28426 0.26059,-0.44003 0.0805,-0.15614 0.15326,-0.31733 0.25048,-0.46404 0.10547,-0.16303 0.22774,-0.3147 0.33632,-0.47565 0.0992,-0.14039 0.21045,-0.27276 0.2718,-0.43619 0.0656,-0.1263 0.14009,-0.24826 0.17853,-0.38665 0.0266,-0.0836 0.0524,-0.16816 0.0853,-0.24956 0.0219,-0.0543 0.0588,-0.10213 0.0776,-0.15755 0.0156,-0.046 0.0219,-0.0946 0.0328,-0.14193 -0.0878,-0.15296 -0.0691,-0.16101 -0.0734,-0.0112 -2.6e-4,0.0123 -0.004,-0.0264 0.003,-0.0368 0.09,-0.14035 0.21539,-0.2498 0.3316,-0.36715 0,0 -0.17285,-0.19391 -0.17285,-0.19391 z" />
    <path
       style="fill:#000000;stroke-width:0.874001"
       id="path14558"
       d="m 106.51914,134.14728 c 0.0999,0.24445 0.18805,0.49681 0.32071,0.72647 0.0506,0.0875 0.10808,0.16684 0.15554,0.25657 0.13236,0.27598 0.25143,0.55643 0.40226,0.82318 0.11523,0.16138 0.23387,0.32035 0.34848,0.48267 0.13123,0.20148 0.29886,0.37316 0.42624,0.57715 0.15205,0.25963 0.34696,0.48976 0.53478,0.72371 0.14309,0.19351 0.31066,0.3661 0.47049,0.54535 0.14968,0.17132 0.2883,0.35177 0.42826,0.53099 0.18709,0.23477 0.37689,0.46692 0.56171,0.70351 0.23741,0.29947 0.48577,0.58924 0.74663,0.86842 0.21135,0.2579 0.42586,0.5122 0.65192,0.75748 0.12071,0.12896 0.25338,0.24483 0.40132,0.34143 0.0889,0.0581 0.17823,0.10586 0.2625,0.17083 0.15591,0.13394 0.32619,0.24994 0.47825,0.3883 0.17877,0.15731 0.3414,0.33165 0.52269,0.48608 0.19679,0.13802 0.39306,0.27179 0.5661,0.43961 0.23613,0.21042 0.45616,0.43694 0.66952,0.67014 0.27562,0.31791 0.52338,0.65635 0.75257,1.00878 0.22909,0.34186 0.39176,0.71839 0.56906,1.08749 0.16233,0.27725 0.31077,0.55787 0.42086,0.85986 0.13554,0.35798 0.22453,0.73118 0.33386,1.09768 0.0978,0.30554 0.16714,0.61385 0.20803,0.93167 0.0338,0.33785 0.0142,0.678 -0.0185,1.015 -0.0219,0.25908 -0.0446,0.51803 -0.0666,0.77711 -0.0221,0.25369 -0.0468,0.50792 -0.0965,0.75785 -0.0563,0.27801 -0.15247,0.54467 -0.26588,0.80383 -0.1545,0.32197 -0.28662,0.65167 -0.38416,0.99518 -0.0452,0.16339 -0.0834,0.32835 -0.11115,0.49563 -0.015,0.0907 -0.0223,0.18139 -0.0425,0.27104 -0.0792,0.23898 -0.16352,0.47413 -0.26603,0.70416 -0.13662,0.24277 -0.27204,0.48621 -0.40829,0.7292 -0.15457,0.22752 -0.27991,0.47268 -0.42043,0.70848 -0.0801,0.14806 -0.16999,0.2904 -0.25469,0.43582 -0.103,0.17789 -0.20753,0.35469 -0.31719,0.52855 -0.0872,0.12556 -0.18091,0.2464 -0.25218,0.38194 -0.0463,0.0628 -0.0839,0.13148 -0.12736,0.19602 -0.0773,0.11582 -0.13415,0.24338 -0.2073,0.36176 0.001,0.008 -0.14024,0.24645 -0.0743,0.1463 -0.0446,0.0602 -0.0796,0.1275 -0.11204,0.19504 -0.0672,0.0702 -0.0928,0.17096 -0.15499,0.24453 0.0242,-0.0347 0.0206,-0.0289 -0.0334,0.0412 -0.0144,0.0187 -0.03,0.0365 -0.0441,0.0554 -0.0439,0.0507 -0.067,0.11526 -0.0814,0.17957 -0.002,0.007 0.002,-0.0142 0.005,-0.0208 0.011,-0.026 0.0242,-0.051 0.0363,-0.0766 0.005,-0.006 0.0201,-0.0218 0.0136,-0.0179 -0.0436,0.0264 -0.0871,0.088 -0.11677,0.12517 -0.0484,0.0668 -0.0937,0.13582 -0.13434,0.2077 -0.004,0.007 -0.0172,0.0283 -0.0121,0.0218 0.006,-0.008 0.0224,-0.0314 0.0148,-0.0252 -0.003,0.003 -0.0659,0.0783 -0.0701,0.083 -0.0171,0.0191 -0.0485,0.0471 -0.0657,0.063 -0.0926,0.0803 -0.18343,0.1626 -0.27394,0.24529 -0.0444,0.0468 -0.0954,0.0812 -0.13812,0.1298 -0.005,0.006 -0.019,0.0222 -0.0143,0.0166 0.0663,-0.0799 -0.0744,0.0694 -0.0873,0.0857 -0.0395,0.006 -0.022,0.058 -0.0446,0.0775 -0.005,0.005 0.0133,-0.0249 0.008,-0.0201 -0.0197,0.0176 -0.0607,0.0642 -0.0742,0.0791 -0.0594,0.0722 -0.11159,0.14744 -0.15556,0.22997 -0.0511,0.0714 -0.0989,0.1451 -0.14847,0.21762 -0.11424,0.16734 -0.24434,0.32415 -0.39721,0.45754 -0.0678,0.0489 -0.14069,0.0856 -0.20788,0.13603 -0.13185,0.0855 -0.26529,0.16872 -0.39858,0.25212 -0.13909,0.0981 -0.26222,0.21576 -0.39579,0.32103 -0.18984,0.16712 -0.35369,0.36015 -0.54924,0.52136 -0.24369,0.17108 -0.46046,0.38607 -0.72366,0.52835 -0.17364,0.0793 -0.32719,0.1931 -0.48589,0.29765 -0.27673,0.18076 -0.53603,0.38688 -0.78352,0.60557 -0.19358,0.19075 -0.42566,0.3255 -0.65806,0.46141 -0.19212,0.11035 -0.40245,0.18222 -0.60356,0.27368 -0.0872,0.0483 -0.17587,0.0916 -0.26977,0.12523 -0.0932,0.0412 -0.18103,0.0936 -0.2739,0.13548 -0.0861,0.028 -0.17208,0.0559 -0.25765,0.0855 -0.11346,0.0325 -0.22501,0.07 -0.33428,0.11471 -0.0911,0.0445 -0.17921,0.095 -0.26262,0.15262 -0.0333,0.0218 -0.0951,0.0572 -0.15198,0.0947 -0.0685,0.0383 -0.13293,0.0836 -0.19616,0.12992 -0.0699,0.0387 -0.12196,0.12746 -0.18169,0.16699 -0.0713,0.0509 -0.12678,0.11683 -0.17335,0.1902 -0.008,0.0122 0.0344,-0.0262 0.024,-0.0362 -0.0103,-0.01 -0.0202,0.02 -0.0304,0.0301 -0.0696,0.0745 0.008,-0.0101 -0.0694,0.0789 -0.004,0.005 -0.0112,0.0194 -0.0133,0.0135 -0.007,-0.0189 0.1021,-0.0584 0.12338,-0.0645 0.45271,0.11688 0.0528,-0.0227 0.0715,-0.008 0.27639,0.22372 0.16395,0.0858 0.0986,0.006 -0.038,-0.0428 -0.0873,-0.0707 -0.13417,-0.10214 -0.0783,-0.0724 0.0781,0.0912 -0.0642,-0.065 -0.0276,-0.0235 -0.17153,-0.11676 -0.11953,-0.0766 -0.0591,-0.069 -0.1394,-0.11171 -0.21506,-0.15956 -0.0651,-0.0443 -0.13903,-0.0713 -0.20981,-0.10446 -0.0182,-0.007 -0.0362,-0.0139 -0.0547,-0.0198 -0.0414,-0.0131 -0.0664,-0.0184 -0.10674,-0.0276 -0.009,-0.002 -0.0368,-0.0105 -0.0282,-0.006 0.0107,0.005 0.0226,0.008 0.0343,0.009 0.006,8e-4 -0.011,-0.005 -0.0166,-0.007 -0.0537,-0.0247 -0.10779,-0.0486 -0.16154,-0.0733 0.0314,0.026 0.0547,0.0677 0.0941,0.0779 0.0819,0.0212 -0.10972,-0.0941 -0.10997,-0.0943 -0.007,-0.004 -0.0234,-0.0189 -0.0208,-0.0114 0.0309,0.0877 0.0648,0.17432 0.0973,0.26148 0.002,-0.0236 0.0287,-0.0741 0.005,-0.0708 -0.16402,0.0233 -0.35376,0.0277 -0.47747,0.13794 -0.11433,0.10182 0.41187,0.23694 0.44009,0.24641 0.13119,0.0514 0.25249,0.12322 0.38144,0.17936 0.0111,0.007 0.0939,0.0206 0.0943,-0.003 5.3e-4,-0.0353 -0.0435,-0.0662 -0.0341,-0.10021 0.009,-0.034 0.0539,-0.0454 0.0809,-0.0681 0,0 0.0545,-0.0154 0.0545,-0.0154 v 0 c 0.0256,-0.0276 0.0714,-0.0456 0.0767,-0.0829 0.006,-0.0422 -0.0385,-0.0769 -0.0483,-0.11838 -0.01,-0.0402 0.0604,-0.009 -0.0112,-0.0514 -0.14196,-0.0775 -0.27713,-0.16833 -0.43168,-0.22098 -0.0485,-0.0164 -0.12475,-0.0443 -0.17609,-0.0542 -0.005,-0.001 -0.0172,-8e-4 -0.0152,0.004 0.0145,0.0338 0.0921,0.0824 0.0573,0.0944 -0.53983,0.1861 -0.52258,0.2167 -0.50322,2.7e-4 0.0296,0.0987 0.0563,0.19827 0.0889,0.29598 0.005,0.0154 0.0255,0.0204 0.0381,0.0307 0.002,0.001 0.005,0.006 0.004,0.004 -0.0152,-0.0166 -0.0631,-0.064 -0.0455,-0.05 0.0393,0.0315 0.074,0.0683 0.11105,0.10241 0.0573,0.0307 0.11601,0.0582 0.17545,0.0844 0.0573,0.0279 0.1174,0.0436 0.17913,0.0572 0.0478,0.0209 0.097,0.0372 0.14085,0.0665 0.0506,0.0317 0.0874,0.0415 0.11184,0.0787 0.0187,0.0178 0.0363,0.0369 0.0561,0.0534 0.0169,0.0141 0.13144,0.0859 0.0806,0.0493 -0.01,-0.0129 -0.0386,-0.0524 -0.0299,-0.0386 0.038,0.0609 0.0926,0.11258 0.15045,0.15381 0.0104,0.007 0.0497,0.036 0.0605,0.0416 0.0101,0.005 -0.0175,-0.0145 -0.027,-0.0206 -0.009,-0.006 0.0684,0.0521 0.0219,0.0217 -0.009,-0.0141 -0.0162,-0.03 -0.0278,-0.0423 -0.009,-0.009 0.0124,0.0224 0.0193,0.0332 0.0103,0.0163 0.0167,0.0366 0.0322,0.0482 0.0575,0.0433 0.12653,0.0699 0.18337,0.11411 0.0176,0.0137 -0.0423,-0.014 -0.0635,-0.021 0.062,0.0106 0.12396,0.0212 0.18594,0.0318 0.11595,-0.0299 0.20149,-0.0933 0.27478,-0.18646 0.0636,-0.063 0.0765,-0.0953 0.11767,-0.12825 0.0773,-0.0611 0.12054,-0.11742 0.18779,-0.16911 0.0498,-0.043 0.11166,-0.0731 0.16698,-0.10806 0.0555,-0.0369 0.11466,-0.0675 0.16969,-0.10569 0.0419,-0.0259 0.095,-0.0567 0.14329,-0.0804 0.1004,-0.0398 0.20378,-0.07 0.30757,-0.0995 0.10384,-0.0359 0.21002,-0.0649 0.31193,-0.10619 0.0778,-0.036 0.15463,-0.0749 0.22909,-0.11708 0.10802,-0.0397 0.2142,-0.0844 0.31347,-0.14312 0.21921,-0.10037 0.44993,-0.17619 0.6573,-0.30156 0.26535,-0.15518 0.52937,-0.3123 0.75307,-0.52639 0.22705,-0.1985 0.465,-0.38444 0.71714,-0.55025 0.1473,-0.0952 0.28803,-0.20124 0.44856,-0.27405 0.29542,-0.16547 0.54968,-0.39395 0.81826,-0.59814 0.1886,-0.16129 0.35473,-0.34449 0.53537,-0.51378 0.1154,-0.0933 0.22605,-0.19198 0.34215,-0.28396 0.14814,-0.0953 0.29863,-0.18696 0.44352,-0.28731 0.0671,-0.0654 0.17788,-0.0846 0.23764,-0.16204 0.18695,-0.16838 0.35331,-0.35721 0.4924,-0.56728 0.0603,-0.0886 0.12398,-0.17494 0.18052,-0.26618 0.0228,-0.0406 0.0342,-0.0634 0.0789,-0.11952 0.0539,-0.0634 0.13214,-0.11844 0.16078,-0.1999 0.003,-0.008 -0.009,0.0138 -0.0142,0.0207 -0.10187,0.082 0.0769,-0.0534 0.068,-0.062 -0.0429,0.0489 0.0687,-0.061 0.0888,-0.0787 0.0955,-0.0839 0.18874,-0.17042 0.28473,-0.25385 0.0913,-0.0863 0.18075,-0.17798 0.24808,-0.28467 0.0242,-0.0436 0.0536,-0.0839 0.0836,-0.12366 0.003,-0.004 0.0705,-0.074 0.11507,-0.12279 0.0624,-0.11484 0.0454,-0.0649 0.0662,-0.14009 0.001,-0.005 -0.002,0.0105 -0.005,0.0152 -0.0125,0.0212 -0.0256,0.042 -0.0376,0.0636 -0.003,0.005 0.007,-0.01 0.0103,-0.0143 0.0185,-0.0232 0.04,-0.0485 0.0577,-0.0709 0.004,-0.005 0.0159,-0.0211 0.0108,-0.0168 -0.0102,0.009 -0.0352,0.0399 -0.0264,0.0299 0.014,-0.0158 0.028,-0.0317 0.0419,-0.0475 0.0803,-0.11118 0.14451,-0.23316 0.21981,-0.34738 0.0134,-0.0324 0.0774,-0.13099 0.0157,-0.0488 0.0569,-0.0724 0.0971,-0.15111 0.1394,-0.23249 0.0707,-0.11628 0.12904,-0.23933 0.20236,-0.35382 0.053,-0.0863 0.11042,-0.16925 0.1612,-0.25691 -7.9e-4,-0.0173 0.0503,-0.0807 0.055,-0.0876 0.055,-0.0799 0.10881,-0.16075 0.16424,-0.24043 0.10939,-0.18025 0.21663,-0.36178 0.32296,-0.54385 0.0849,-0.14575 0.17236,-0.29003 0.25276,-0.43833 0.1371,-0.24206 0.2689,-0.48705 0.41642,-0.72315 0.14297,-0.25951 0.27866,-0.52289 0.41906,-0.78377 0.11737,-0.26903 0.2149,-0.54497 0.29552,-0.82724 0.0434,-0.24263 0.0581,-0.49078 0.1333,-0.72737 0.0865,-0.32216 0.20254,-0.63289 0.33936,-0.93736 0.12055,-0.2981 0.226,-0.60215 0.27996,-0.92031 0.0426,-0.26746 0.0682,-0.53732 0.0862,-0.80748 0.0198,-0.25979 0.039,-0.51945 0.057,-0.77937 0.0219,-0.37066 0.0357,-0.74404 -0.003,-1.11406 -0.0244,-0.17975 -0.0495,-0.35786 -0.0944,-0.53389 -0.0221,-0.0865 -0.0622,-0.20826 -0.0867,-0.2924 -0.017,-0.0584 -0.0326,-0.11716 -0.0489,-0.17574 -0.11225,-0.37625 -0.20639,-0.75893 -0.35016,-1.12477 -0.11963,-0.31383 -0.27234,-0.60873 -0.44857,-0.89476 -0.18974,-0.38371 -0.36492,-0.77533 -0.60713,-1.13067 -0.24606,-0.36882 -0.50993,-0.72411 -0.80594,-1.05484 -0.22222,-0.23818 -0.44889,-0.47224 -0.69825,-0.68248 -0.18291,-0.1674 -0.38095,-0.31218 -0.5878,-0.44846 -0.18068,-0.1496 -0.34362,-0.31914 -0.52467,-0.46843 -0.16332,-0.14148 -0.33979,-0.26601 -0.50511,-0.40514 -0.20779,-0.1521 -0.44719,-0.25927 -0.61507,-0.46303 -0.22702,-0.24626 -0.44398,-0.50044 -0.66079,-0.75554 -0.25674,-0.2685 -0.5022,-0.54671 -0.73464,-0.83666 -0.18743,-0.23421 -0.37787,-0.46566 -0.56667,-0.69875 -0.14603,-0.18395 -0.29369,-0.36663 -0.44647,-0.54505 -0.15737,-0.17385 -0.32349,-0.34009 -0.4639,-0.52863 -0.18355,-0.22335 -0.37443,-0.44233 -0.52392,-0.69074 -0.13926,-0.20195 -0.31067,-0.37651 -0.44899,-0.57914 -0.11349,-0.15162 -0.2313,-0.29866 -0.35221,-0.44371 -0.15646,-0.26251 -0.28623,-0.53811 -0.43031,-0.80731 -0.0226,-0.0361 -0.044,-0.073 -0.068,-0.10817 -0.0318,-0.0468 -0.0735,-0.0863 -0.10487,-0.13342 -0.14167,-0.21282 -0.22568,-0.45907 -0.3304,-0.69004 0,0 -0.1916,0.0758 -0.1916,0.0758 z" />
    <path
       style="fill:#000000;stroke-width:0.874001"
       id="path14560"
       d="m 106.35116,133.29674 c -0.0637,0.13381 -0.30818,0.44237 -0.23724,0.62076 0.0222,0.0559 0.0722,0.0971 0.11621,0.13812 0.0908,0.0847 0.0575,-0.001 0.0756,0.0532 -0.0144,0.13148 0.0407,0.2655 0.11782,0.36885 0.0566,0.0682 0.11736,0.13247 0.17337,0.20128 0.059,0.0547 0.11791,0.10972 0.17263,0.16877 0.0176,0.0348 0.0873,0.0983 0.0862,0.1302 0.0129,0.0696 0.0642,0.0896 0.12006,0.12622 0,0 0.055,0.0137 0.055,0.0137 v 0 c 0.0311,-0.0195 0.0694,-0.0305 0.0932,-0.0584 0.0421,-0.0495 0.0295,-0.12136 0.0142,-0.1761 -0.0339,-0.0903 -0.0944,-0.16548 -0.15404,-0.24066 -0.0506,-0.0517 -0.10186,-0.10571 -0.15866,-0.14999 -0.0557,-0.0682 -0.11545,-0.13259 -0.17145,-0.20047 -0.0995,-0.0968 -0.0328,-0.29171 -0.1473,-0.38829 -0.0281,-0.0235 -0.0542,-0.0495 -0.0842,-0.0704 -0.0134,-0.009 -0.0376,-0.0341 -0.0449,-0.0195 -0.0117,0.0235 0.017,0.0509 0.0163,0.0771 -2.3e-4,0.009 -0.0199,-0.0117 -0.0178,-0.0204 0.037,-0.14962 0.13771,-0.30086 0.20922,-0.42901 0,0 -0.23423,-0.14484 -0.23423,-0.14484 z" />
    <path
       style="fill:#000000;stroke-width:0.874001"
       id="path14562"
       d="m 103.54952,135.05716 c 0.17928,-0.4075 0.1059,-0.21265 0.22773,-0.58161 0,0 -0.0509,-0.0248 -0.0509,-0.0248 v 0 c -0.21497,0.32248 -0.1048,0.14562 -0.32507,0.53393 0,0 0.14827,0.0725 0.14827,0.0725 z" />
    <path
       style="fill:#000000;stroke-width:0.874001"
       id="path14564"
       d="m 96.712549,158.22934 c -0.07226,0.14239 -0.161046,0.2753 -0.238945,0.41444 -0.0191,0.0341 -0.02847,0.0735 -0.05037,0.10591 -0.02551,0.0377 -0.06273,0.066 -0.09302,0.1 -0.133125,0.12111 -0.212699,0.31453 -0.379865,0.39346 -0.173651,0.0315 -0.347416,-0.0255 -0.521647,-0.0283 -0.04425,-7.9e-4 -0.08843,0.004 -0.132639,0.006 -0.05026,0.0126 -0.102248,0.0196 -0.15077,0.0377 -0.311327,0.11646 -0.64575,0.42736 -0.886862,0.65134 -0.168722,0.18693 -0.275143,0.28767 -0.408434,0.49775 -0.09532,0.15022 -0.152033,0.29894 -0.222706,0.46053 -0.110333,0.25228 -0.06122,0.14605 -0.1882,0.39858 -0.190749,0.35047 -0.443725,0.66074 -0.656686,0.99727 -0.193772,0.30589 -0.403233,0.6037 -0.665879,0.85549 -0.182094,0.17457 -0.267983,0.22602 -0.465534,0.36683 -0.104709,0.0715 -0.209236,0.14332 -0.31413,0.21457 -0.250121,0.16989 -0.30217,0.20032 -0.540842,0.37248 -0.214363,0.15462 -0.421373,0.31748 -0.637472,0.46985 -0.323117,0.21892 -0.675952,0.38747 -1.019548,0.57061 -0.09694,0.0517 -0.473046,0.25883 -0.553878,0.30326 -0.423895,0.25458 -0.881314,0.44123 -1.327693,0.6503 -0.359267,0.16511 -0.678029,0.40401 -0.948134,0.69228 -0.05534,0.0591 -0.105524,0.12275 -0.158287,0.18413 -0.159036,0.20675 -0.260059,0.43238 -0.307501,0.68916 -0.01577,0.0853 -0.03261,0.17229 -0.02728,0.25891 0.0047,0.0759 0.03786,0.14724 0.05679,0.22086 0,0 0.05607,0.008 0.05607,0.008 v 0 c 0.03813,-0.0601 0.08391,-0.11587 0.114393,-0.18014 0.03327,-0.0701 0.04894,-0.14732 0.07555,-0.22022 0.07256,-0.19876 0.151879,-0.39342 0.282064,-0.56268 0.278723,-0.32757 0.597977,-0.61714 0.996024,-0.79236 0.45262,-0.21233 0.917496,-0.39978 1.346999,-0.65903 0.07112,-0.0391 0.457526,-0.25189 0.547524,-0.29985 0.356584,-0.19005 0.72218,-0.3659 1.056703,-0.59442 0.216064,-0.15267 0.42287,-0.31561 0.637027,-0.47073 0.281061,-0.20358 0.235063,-0.16466 0.536739,-0.37081 0.106476,-0.0728 0.212214,-0.14659 0.31832,-0.21989 0.228775,-0.16474 0.301739,-0.20557 0.51312,-0.41136 0.274669,-0.2674 0.49775,-0.58018 0.700503,-0.90372 0.217932,-0.34569 0.478573,-0.66374 0.671359,-1.02522 0.141353,-0.28243 0.07621,-0.14256 0.194722,-0.41482 0.04866,-0.11179 0.123129,-0.29437 0.188519,-0.39896 0.117485,-0.18793 0.21844,-0.28562 0.367805,-0.45337 0.209153,-0.19663 0.489251,-0.46274 0.7532,-0.58174 0.02688,-0.0121 0.05601,-0.0185 0.08402,-0.0277 0.264967,-0.0192 0.538384,0.0755 0.78945,-0.0464 0.03216,-0.0228 0.06649,-0.0428 0.09649,-0.0683 0.132551,-0.11289 0.201256,-0.28781 0.325761,-0.40848 0.06065,-0.0786 0.07983,-0.0951 0.122941,-0.1797 0.01164,-0.0229 -0.0031,-0.0556 0.02537,-0.0727 0.07404,-0.14218 0.163307,-0.27615 0.231667,-0.42142 0,0 -0.192791,-0.10743 -0.192791,-0.10743 z" />
    <path
       style="fill:#000000;stroke-width:0.874001"
       id="path14566"
       d="m 100.74887,162.93839 c -0.15492,0.26075 -0.27718,0.56071 -0.49664,0.77876 -0.0467,0.0464 -0.1108,0.0716 -0.16257,0.1123 -0.038,0.0298 -0.0731,0.0631 -0.109607,0.0947 -0.190172,0.18761 -0.356336,0.39764 -0.538538,0.59258 -0.110863,0.11861 -0.182976,0.18333 -0.301281,0.29527 -0.243372,0.21658 -0.492014,0.42605 -0.720971,0.6581 -0.267563,0.27488 -0.559875,0.52434 -0.816912,0.80913 -0.299291,0.35724 -0.59119,0.72044 -0.87295,1.09163 -0.3042,0.40358 -0.602938,0.81093 -0.89131,1.22596 -0.298776,0.42489 -0.538168,0.88667 -0.813324,1.32622 -0.183047,0.274 -0.385821,0.53312 -0.598379,0.78455 -0.21027,0.21799 -0.40355,0.49235 -0.694672,0.60618 -0.230968,0.0706 -0.42415,0.20676 -0.599532,0.36823 -0.245994,0.27792 -0.380759,0.63813 -0.475366,0.99223 -0.007,0.0662 -0.02223,0.13202 -0.02111,0.19857 0.0013,0.075 0.03803,0.33777 0.08712,0.40909 0.04327,0.0629 0.116038,0.0992 0.174058,0.14876 0,0 0.05325,-0.0193 0.05325,-0.0193 v 0 c 0.01717,-0.0631 0.04485,-0.12421 0.05151,-0.18925 0.0054,-0.053 -0.01225,-0.10594 -0.01588,-0.15911 -0.01127,-0.16507 -0.0071,-0.13748 0.01098,-0.2991 0.07525,-0.29009 0.186915,-0.58597 0.376113,-0.82162 0.145248,-0.13504 0.305017,-0.24435 0.498197,-0.30041 0.04105,-0.0183 0.0837,-0.0333 0.123143,-0.0548 0.282339,-0.15391 0.485772,-0.42203 0.702924,-0.65066 0.223374,-0.26437 0.436374,-0.53698 0.628192,-0.82542 0.271759,-0.43497 0.509352,-0.8911 0.803897,-1.31192 0.285509,-0.41103 0.580839,-0.81463 0.882565,-1.21392 0.275672,-0.36336 0.56161,-0.71868 0.85476,-1.06811 0.252635,-0.28149 0.543801,-0.52484 0.80663,-0.79679 0.225856,-0.22964 0.47253,-0.43575 0.710785,-0.65219 0.292563,-0.28002 0.553706,-0.58741 0.825098,-0.88756 0.0267,-0.0249 0.052,-0.0515 0.0802,-0.0748 0.0823,-0.0683 0.14527,-0.097 0.221,-0.17804 0.22863,-0.24471 0.36378,-0.56325 0.52356,-0.8517 0,0 -0.28492,-0.1376 -0.28492,-0.1376 z" />
    <path
       style="fill:#000000;stroke-width:0.874001"
       id="path14568"
       d="m 100.7924,163.64517 c 0.004,-0.005 0.26396,-0.36346 0.30431,-0.42335 0.0133,-0.0197 0.0507,-0.0434 0.0355,-0.0617 -0.0504,-0.0607 -0.14069,-0.0763 -0.19639,-0.13223 -0.0123,-0.0124 0.0356,-0.0238 0.0503,-0.0144 0.0421,0.0268 0.0673,0.0738 0.101,0.11067 0.0751,-0.10219 0.10968,-0.22368 0.13344,-0.3462 0.0179,-0.0632 0.0224,-0.073 0.0295,-0.15555 -0.031,-0.0873 -0.001,-0.0446 -0.1558,0.0143 0,0 0.0443,0.0353 0.0443,0.0353 v 0 c -0.12044,0.02 -0.10621,0.0566 -0.11774,-0.001 0.0338,-0.15687 -0.0224,0.0301 -0.0255,0.0635 -0.0208,0.10884 -0.0553,0.21109 -0.11874,0.30361 0.0217,0.0662 0.0207,0.14485 0.0651,0.19849 0.0201,0.0243 0.0956,0.026 0.0946,-0.006 -0.002,-0.0686 -0.0554,-0.12789 -0.10049,-0.17961 -0.01,-0.0114 -0.0124,0.0278 -0.0209,0.0403 -0.0967,0.14259 -0.20745,0.27541 -0.30168,0.41975 0,0 0.17927,0.13369 0.17927,0.13369 z" />
    <path
       style="fill:#000000;stroke-width:0.874001"
       id="path14570"
       d="m 109.00071,163.18015 c 0.25044,0.10717 0.4767,0.19678 0.71596,0.32488 0.0836,0.0448 0.20374,0.0975 0.25127,0.19418 0.009,0.0188 0.006,0.0415 0.0102,0.0621 0.009,0.0424 0.0189,0.0845 0.0283,0.1268 0.0199,0.0818 0.0397,0.16372 0.0598,0.24553 0.0199,0.0811 0.0407,0.16206 0.0603,0.24329 0.0369,0.15333 0.0634,0.31451 0.12938,0.45931 0.0206,0.0451 0.0465,0.0876 0.0698,0.13145 0.16465,0.2398 0.31505,0.48935 0.49158,0.72064 0.23553,0.30889 0.55314,0.52118 0.88812,0.70701 0.38384,0.18616 0.75553,0.39382 1.1235,0.60904 0.17832,0.10227 0.35459,0.20837 0.55143,0.272 0.21642,0.07 0.4506,0.097 0.67333,0.13756 0.12139,0.0209 0.3491,0.0589 0.48002,0.085 0.048,0.01 0.19435,0.0387 0.24885,0.0659 0.0669,0.0335 0.10278,0.0843 0.15197,0.13854 0.20213,0.25808 0.27384,0.57634 0.37784,0.87907 0.12305,0.29046 0.26962,0.57171 0.42331,0.8472 0.17022,0.2759 0.26023,0.58761 0.3576,0.89392 0.064,0.2044 0.17386,0.38007 0.31983,0.53578 0.0524,0.0559 0.11288,0.10377 0.16637,0.15864 0.22379,0.22959 0.23339,0.25483 0.43979,0.51214 0.30702,0.38428 0.46103,0.86267 0.75694,1.25378 0.0713,0.0942 0.15412,0.17918 0.23117,0.26877 0.19357,0.16527 0.38205,0.34618 0.61086,0.46518 0.1033,0.0537 0.21792,0.0821 0.32687,0.12311 0,0 0.03,-0.048 0.03,-0.048 v 0 c -0.0815,-0.0779 -0.15842,-0.16089 -0.24454,-0.23364 -0.0896,-0.0757 -0.18786,-0.14063 -0.28179,-0.21094 -0.0911,-0.0801 -0.1822,-0.16011 -0.27329,-0.24017 -0.20464,-0.23822 -0.22825,-0.24543 -0.38999,-0.51339 -0.19971,-0.33089 -0.34369,-0.7013 -0.5919,-1.00472 -0.22232,-0.27625 -0.22026,-0.28809 -0.46095,-0.53366 -0.0479,-0.0489 -0.10204,-0.0915 -0.1495,-0.14078 -0.12814,-0.13319 -0.22222,-0.2822 -0.27582,-0.4601 -0.10188,-0.32048 -0.19803,-0.64553 -0.376,-0.93419 -0.14561,-0.26516 -0.28583,-0.53477 -0.4066,-0.81205 -0.11514,-0.33307 -0.19819,-0.68188 -0.42883,-0.96072 -0.0971,-0.0974 -0.11896,-0.13587 -0.24455,-0.19651 -0.0381,-0.0184 -0.0801,-0.0277 -0.121,-0.0386 -0.20899,-0.0558 -0.42536,-0.0771 -0.63682,-0.12059 -0.20883,-0.0373 -0.4296,-0.0619 -0.63317,-0.12534 -0.1861,-0.058 -0.35074,-0.15969 -0.51951,-0.25452 -0.36964,-0.21619 -0.74292,-0.42499 -1.12854,-0.6119 -0.30965,-0.16895 -0.60185,-0.36437 -0.81943,-0.64814 -0.17186,-0.2205 -0.31268,-0.46297 -0.47447,-0.69091 -0.0197,-0.0346 -0.0418,-0.068 -0.0592,-0.10386 -0.0355,-0.0735 -0.0567,-0.15424 -0.0766,-0.23278 -0.0579,-0.22819 -0.10952,-0.45808 -0.17167,-0.68524 -0.0186,-0.0763 -0.0439,-0.20868 -0.0883,-0.2771 -0.0732,-0.11257 -0.20797,-0.17972 -0.32008,-0.23781 -0.24732,-0.12815 -0.47136,-0.21467 -0.72971,-0.32241 0,0 -0.0721,0.1773 -0.0721,0.1773 z" />
    <path
       style="fill:#000000;stroke-width:0.874001"
       id="path14572"
       d="m 113.70451,157.96309 c 0.25326,0.23003 0.49011,0.48694 0.78412,0.66731 0.17839,0.10944 0.31283,0.16813 0.50443,0.26114 0.52025,0.27879 1.18437,0.52939 1.56347,1.00264 0.28132,0.35119 0.28152,0.49009 0.40987,0.90733 0.0803,0.27534 0.0501,0.56364 0.0934,0.84306 0.0151,0.0975 0.0245,0.2004 0.0712,0.28734 0.18127,0.33756 0.58369,0.49619 0.9023,0.66585 0.49272,0.2811 0.79483,0.77856 1.25139,1.10365 0.28795,0.20503 0.47403,0.26541 0.79847,0.40706 0.58083,0.20519 1.06986,0.58259 1.60326,0.87759 0.20252,0.112 0.61101,0.30762 0.81762,0.40827 0.46987,0.20965 0.85566,0.54704 1.26741,0.84513 0.30594,0.22149 0.40621,0.27387 0.74427,0.48265 0.49779,0.26688 1.04118,0.63906 1.61594,0.7133 0.21922,0.0283 0.3242,-0.008 0.53966,-0.0463 0.59791,-0.127 1.1722,-0.34819 1.7687,-0.47818 0.0474,0.002 0.0958,-0.005 0.14219,0.005 0.0906,0.0194 0.44666,0.18649 0.46981,0.19657 0.10092,0.0439 0.20261,0.0861 0.30391,0.12914 0,0 0.0312,-0.0473 0.0312,-0.0473 v 0 c -0.23476,-0.22202 -0.4678,-0.46803 -0.80167,-0.5284 -0.0652,-0.0118 -0.13243,1.1e-4 -0.19864,1.7e-4 -0.59294,0.12821 -1.16525,0.34109 -1.76059,0.46167 -0.16428,0.0271 -0.26436,0.0578 -0.43007,0.0333 -0.22567,-0.0334 -0.42061,-0.1156 -0.62706,-0.21237 -0.35596,-0.16684 -0.54285,-0.28733 -0.88791,-0.48897 -0.32245,-0.20698 -0.41862,-0.25999 -0.71024,-0.47669 -0.23598,-0.17534 -0.29979,-0.24744 -0.54557,-0.42164 -0.33518,-0.23757 -0.39922,-0.2595 -0.77378,-0.46955 -0.1709,-0.0832 -0.62277,-0.30055 -0.79435,-0.39464 -0.54684,-0.2999 -1.04881,-0.68431 -1.64441,-0.89081 -0.27736,-0.11647 -0.47635,-0.18238 -0.7242,-0.35159 -0.47868,-0.32679 -0.79484,-0.84524 -1.31411,-1.1222 -0.10748,-0.0571 -0.21591,-0.11233 -0.32243,-0.17116 -0.0956,-0.0528 -0.36089,-0.1841 -0.43193,-0.30459 -0.0415,-0.0704 -0.0527,-0.15568 -0.0655,-0.23646 -0.0477,-0.30111 -0.0138,-0.61262 -0.11029,-0.90796 -0.16134,-0.48218 -0.15923,-0.62514 -0.49705,-1.02583 -0.41799,-0.49579 -1.0865,-0.73447 -1.64649,-1.02132 -0.15521,-0.0721 -0.33257,-0.15117 -0.48475,-0.2335 -0.29289,-0.15846 -0.54344,-0.38033 -0.78969,-0.60166 0,0 -0.12185,0.13339 -0.12185,0.13339 z" />
    <path
       style="fill:#000000;stroke-width:0.874001"
       id="path14582"
       d="m 98.423977,159.33426 c -0.179308,-0.37126 -0.358052,-0.74283 -0.518379,-1.12273 -0.144984,-0.36536 -0.285417,-0.73296 -0.3981,-1.10972 -0.105236,-0.37326 -0.182438,-0.75428 -0.236098,-1.13819 -0.04349,-0.40474 -0.104778,-0.8065 -0.141669,-1.21202 -0.0031,-0.0785 -0.0073,-0.15697 -0.0095,-0.23551 -0.0033,-0.1185 -7.94e-4,-0.26783 -0.0087,-0.38771 -0.01437,-0.21424 -0.04984,-0.42749 -0.07669,-0.64036 -0.0064,-0.0817 -0.0141,-0.16322 -0.01913,-0.24497 -0.01302,-0.21114 -0.0032,-0.2452 -0.03105,-0.45748 -0.03037,-0.23184 -0.100042,-0.45383 -0.164441,-0.67774 -0.135792,-0.54084 -0.263184,-1.08439 -0.377394,-1.63031 -0.01146,-0.0434 -0.02294,-0.0868 -0.0344,-0.13027 0,0 -0.0566,0.002 -0.0566,0.002 v 0 c -0.008,0.0486 -0.01593,0.0971 -0.02389,0.14564 0.0063,0.0641 0.0089,0.12862 0.01908,0.1922 0.01884,0.11822 0.09683,0.44204 0.119441,0.54211 0.06928,0.30661 0.129929,0.61535 0.2129,0.9187 0.06095,0.21496 0.129114,0.42866 0.158451,0.65096 0.02657,0.20135 0.01863,0.25214 0.03086,0.45527 0.0051,0.0843 0.01262,0.16841 0.01894,0.25261 0.02714,0.20809 0.06242,0.41684 0.07654,0.62639 0.0079,0.11744 0.0055,0.27368 0.0088,0.38878 0.0024,0.0809 0.0066,0.16177 0.0099,0.24266 0.0083,0.0948 0.01508,0.18965 0.02495,0.28425 0.03262,0.31254 0.09139,0.62181 0.116602,0.93523 0.055,0.39164 0.133401,0.77944 0.238088,1.161 0.114499,0.38219 0.255786,0.75588 0.407689,1.12468 0.167269,0.3804 0.354899,0.75162 0.542046,1.12252 0,0 0.111755,-0.0582 0.111755,-0.0582 z" />
    <path
       style="fill:#000000;stroke-width:0.874001"
       id="path14584"
       d="m 100.42107,160.9645 c -0.0963,-0.54449 -0.30418,-1.05897 -0.43146,-1.59574 -0.09335,-0.39365 -0.09453,-0.46074 -0.146635,-0.83646 -0.05169,-0.47419 -0.115316,-0.94734 -0.155038,-1.4228 -0.01635,-0.19561 -0.03641,-0.56136 -0.04743,-0.74951 -0.03253,-0.50659 -0.03265,-1.01505 0.01847,-1.52049 0.03071,-0.30362 0.09849,-0.65724 0.139452,-0.95863 0.02217,-0.16321 0.03863,-0.32715 0.05795,-0.49072 0.04145,-0.35948 0.04219,-0.72025 0.0259,-1.08099 -0.0042,-0.0922 -0.01238,-0.18429 -0.01492,-0.27659 -0.009,-0.32584 -0.0011,-0.33836 0.01818,-0.66911 0.08047,-0.74307 0.205741,-1.48128 0.357871,-2.21285 0.12991,-0.54342 0.2772,-1.08301 0.45259,-1.61353 0.0947,-0.22096 0.13638,-0.46434 0.24207,-0.68089 0.0632,-0.12951 0.0846,-0.14778 0.17451,-0.27663 0.19083,-0.27149 0.41577,-0.51581 0.62717,-0.77097 0,0 -0.0383,-0.0417 -0.0383,-0.0417 v 0 c -0.0845,0.0591 -0.17426,0.11129 -0.25357,0.17717 -0.20743,0.17233 -0.32732,0.31897 -0.50434,0.51599 -0.0419,0.0586 -0.0871,0.11499 -0.12575,0.17577 -0.16136,0.25357 -0.20782,0.56141 -0.32302,0.83482 -0.1777,0.53831 -0.32933,1.08501 -0.4598,1.63669 -0.154116,0.74194 -0.281442,1.49057 -0.362,2.24427 -0.0191,0.35394 -0.02653,0.34566 -0.01527,0.69271 0.01434,0.4414 0.06581,0.88303 0.0065,1.32436 -0.01709,0.16161 -0.0313,0.32356 -0.05128,0.48484 -0.03327,0.26857 -0.106763,0.70389 -0.131345,0.97481 -0.04653,0.51283 -0.03929,1.02828 -0.0078,1.54167 0.01294,0.21203 0.03148,0.53922 0.04987,0.75563 0.04059,0.47773 0.103688,0.95332 0.158787,1.42948 0.05156,0.35611 0.06268,0.48966 0.154797,0.85637 0.133538,0.53161 0.353851,1.03792 0.462011,1.57645 0,0 0.1218,-0.0234 0.1218,-0.0234 z" />
    <path
       style="fill:#000000;stroke-width:0.874001"
       id="path14586"
       d="m 103.67383,164.48612 c -0.072,-0.53215 -0.18694,-1.05802 -0.23116,-1.59385 -0.0125,-0.15132 -0.028,-0.54288 -0.0342,-0.68537 -0.003,-0.13621 -0.01,-0.27237 -0.0102,-0.40861 -5.3e-4,-0.12669 -0.002,-0.25358 0.006,-0.38002 0.0175,-0.27872 0.058,-0.48311 0.10956,-0.75785 0.0442,-0.23528 0.0929,-0.46969 0.13926,-0.70455 0.11772,-0.54239 0.12825,-1.11133 0.25314,-1.65125 0.0284,-0.12272 0.0641,-0.24364 0.0962,-0.36546 0.20866,-0.61919 0.37451,-1.25114 0.55726,-1.87809 0.17319,-0.58306 0.35117,-1.16485 0.51001,-1.75203 0.19251,-0.76904 0.20888,-1.54763 0.0848,-2.32758 -0.0694,-0.33963 -0.11428,-0.68435 -0.11759,-1.03143 -0.002,-0.25313 0.0135,-0.48826 0.0266,-0.74047 -5.3e-4,-0.0884 -10e-4,-0.17672 -0.002,-0.26508 0,0 -0.0369,-0.004 -0.0369,-0.004 v 0 c -0.0189,0.0869 -0.0377,0.17374 -0.0566,0.26061 -0.0148,0.12103 -0.0343,0.24157 -0.0443,0.36309 -0.0396,0.48198 -0.002,0.96568 0.10238,1.43757 0.0284,0.17748 0.05,0.29119 0.0625,0.47715 0.0406,0.60365 0.004,1.2098 -0.13144,1.80026 -0.15209,0.58795 -0.3285,1.16923 -0.49887,1.75206 -0.0811,0.27454 -0.15334,0.55107 -0.23146,0.82638 -0.10046,0.35407 -0.21649,0.70347 -0.3238,1.05546 -0.0323,0.12416 -0.0683,0.2474 -0.0968,0.37247 -0.0947,0.41584 -0.12203,0.84502 -0.18697,1.26584 -0.0198,0.12861 -0.0421,0.25683 -0.0632,0.38525 -0.0719,0.36436 -0.15687,0.72979 -0.20924,1.09762 -0.0556,0.39056 -0.0569,0.7837 -0.0366,1.17703 0.006,0.12204 0.0261,0.55894 0.0376,0.6911 0.0468,0.53655 0.16832,1.06216 0.24406,1.59469 0,0 0.0813,-0.0111 0.0813,-0.0111 z" />
    <path
       style="fill:#000000;stroke-width:0.874001"
       id="path14588"
       d="m 107.72928,145.21649 c -0.0591,0.76935 -0.0654,1.5411 -0.0957,2.31179 -0.005,0.13271 -0.0108,0.2654 -0.016,0.39811 -0.0147,0.37317 -0.025,0.49634 -0.0145,0.8743 0.0113,0.406 0.0543,0.8096 0.0913,1.21374 0.0123,0.12572 0.0232,0.25158 0.0369,0.37716 0.0272,0.25053 0.0452,0.38557 0.0875,0.62979 0.0259,0.16596 0.0663,0.32919 0.095,0.49462 0.0161,0.0928 0.0287,0.1861 0.0431,0.27916 0.0613,0.50985 0.035,1.02355 0.022,1.5352 -0.0246,0.5602 -0.031,1.12082 -0.0157,1.68131 0.006,0.45564 0.0344,0.91215 0.0134,1.36786 -0.0103,0.22351 -0.029,0.36001 -0.0536,0.58554 -0.0736,0.53941 -0.11016,1.08423 -0.21738,1.61847 -0.0672,0.28598 -0.12643,0.57365 -0.14867,0.86711 -0.003,0.0444 -0.014,0.32664 -0.016,0.37847 -0.008,0.34212 -0.10002,0.67452 -0.17114,1.0073 -0.0682,0.26801 -0.10624,0.54246 -0.17478,0.81027 -0.0592,0.19655 -0.056,0.40379 -0.0894,0.60497 -0.0376,0.17493 -0.059,0.35257 -0.0799,0.53007 -0.0201,0.13349 -0.0248,0.26867 -0.0405,0.40255 -0.0264,0.10285 -0.036,0.20873 -0.061,0.31198 -0.0352,0.0888 -0.0548,0.18186 -0.0785,0.27384 -0.007,0.0184 -0.0189,0.0436 -0.025,0.0685 -0.006,0.0113 0.009,-0.0169 0.007,-0.0124 -0.0173,0.0483 -0.0233,0.0363 0.0243,0.0527 0.004,0.0131 0.008,0.0261 0.0122,0.0391 0,0 0.0483,0.0296 0.0483,0.0296 v 0 c 0.01,0.004 0.0198,0.007 0.0297,0.0106 0.0517,-0.0109 0.0633,-0.0162 0.0757,-0.042 0.0373,-0.0717 0.005,-0.0256 0.0369,-0.0969 0.0204,-0.0936 0.0485,-0.18424 0.0806,-0.27449 0.0244,-0.11152 0.0393,-0.22458 0.0651,-0.33574 0.0151,-0.13379 0.0203,-0.2687 0.0405,-0.402 0.0204,-0.17395 0.0449,-0.34752 0.0794,-0.5193 0.0332,-0.19521 0.0313,-0.39594 0.0866,-0.587 0.0688,-0.27072 0.10827,-0.54771 0.17579,-0.81883 0.0737,-0.34509 0.16696,-0.68959 0.17676,-1.04431 0.002,-0.0375 0.0126,-0.33089 0.0151,-0.36509 0.0206,-0.28649 0.0798,-0.56702 0.14457,-0.84627 0.10792,-0.54102 0.1441,-1.09207 0.21842,-1.63822 0.0257,-0.24428 0.0422,-0.36248 0.0528,-0.60383 0.0202,-0.45946 -0.0105,-0.9193 -0.0183,-1.37863 -0.0173,-0.55688 -0.0137,-1.11376 0.01,-1.67048 0.0112,-0.52343 0.0332,-1.04888 -0.033,-1.56998 -0.0152,-0.0958 -0.0283,-0.19199 -0.0456,-0.28745 -0.0295,-0.16293 -0.0688,-0.32395 -0.0985,-0.48683 -0.0465,-0.25519 -0.0602,-0.35407 -0.0918,-0.61818 -0.015,-0.12507 -0.0277,-0.2504 -0.0416,-0.3756 -0.0418,-0.39882 -0.0871,-0.79722 -0.10315,-1.19819 -0.0148,-0.36786 -0.007,-0.5022 0.003,-0.86706 0.004,-0.13294 0.008,-0.26585 0.0122,-0.39878 0.0188,-0.77028 0.0203,-1.5408 0.0507,-2.31077 0,0 -0.10434,-0.006 -0.10434,-0.006 z" />
    <path
       style="fill:#000000;stroke-width:0.874001"
       id="path14590"
       d="m 113.99449,157.43423 c 0.0398,-0.1464 0.16802,-0.36258 0.13996,-0.52407 -0.0205,-0.11824 -0.0781,-0.0914 -0.11708,-0.17878 -0.0349,-0.17759 -0.0255,-0.36184 -0.0657,-0.53849 -0.0105,-0.0462 -0.0253,-0.0913 -0.038,-0.13691 -0.13125,-0.36308 -0.22213,-0.74157 -0.38162,-1.09423 -0.0311,-0.0688 -0.0675,-0.13508 -0.10131,-0.20262 -0.0376,-0.0635 -0.0742,-0.12771 -0.11293,-0.19059 -0.094,-0.15266 -0.11941,-0.17144 -0.19763,-0.33178 -0.0922,-0.18904 -0.15051,-0.3956 -0.21638,-0.59451 -0.12472,-0.4043 -0.27674,-0.80027 -0.37882,-1.21117 -0.0812,-0.3675 -0.0272,-0.7416 -0.0271,-1.11299 -10e-4,-0.0311 -0.007,-0.26136 -0.0165,-0.30307 -0.0153,-0.0652 -0.0512,-0.12373 -0.0766,-0.18567 0,0 -0.0562,0.007 -0.0562,0.007 v 0 c -0.003,0.0209 -0.005,0.0422 -0.0101,0.0628 -0.01,0.0407 -0.0287,0.0793 -0.0348,0.12075 -0.006,0.0391 -0.002,0.26808 -0.001,0.29754 -0.002,0.38731 -0.055,0.77753 0.0319,1.16049 0.10202,0.41616 0.25602,0.81695 0.3812,1.22648 0.0699,0.21116 0.13143,0.42752 0.22984,0.62787 0.0837,0.17036 0.10242,0.18111 0.19941,0.33883 0.0361,0.0587 0.0706,0.11843 0.10587,0.17764 0.0314,0.0631 0.0652,0.12512 0.0942,0.18938 0.15621,0.346 0.24538,0.71714 0.37434,1.0732 0.0331,0.11206 0.0362,0.10586 0.0512,0.21573 0.0239,0.17469 0.0185,0.35536 0.0909,0.52023 0.0184,0.0212 0.0343,0.0448 0.0551,0.0636 0.006,0.005 0.0147,0.007 0.0225,0.007 0.007,2e-5 0.017,-0.013 0.0195,-0.007 0.046,0.11488 -0.0856,0.3641 -0.10506,0.46762 0,0 0.14088,0.0554 0.14088,0.0554 z" />
    <path
       style="fill:#000000;stroke-width:0.874001"
       id="path14592"
       d="m 116.17339,146.24491 c -0.092,-0.23018 -0.21858,-0.439 -0.38514,-0.62241 -0.0731,-0.0805 -0.1676,-0.15966 -0.24589,-0.23529 -0.0457,-0.0441 -0.0898,-0.0898 -0.13472,-0.13473 -0.20934,-0.21185 -0.39726,-0.44418 -0.60844,-0.65423 -0.12839,-0.12771 -0.17719,-0.16452 -0.31148,-0.27785 -0.25788,-0.21341 -0.53405,-0.40604 -0.82554,-0.57098 -0.0749,-0.0424 -0.1476,-0.0914 -0.22898,-0.11943 -0.0876,-0.0302 -0.18178,-0.0357 -0.27267,-0.0536 0,0 -0.0307,0.0476 -0.0307,0.0476 v 0 c 0.0547,0.0759 0.099,0.16056 0.16425,0.22765 0.0599,0.0616 0.13617,0.10475 0.20664,0.15382 0.26364,0.18359 0.54799,0.3384 0.79057,0.55165 0.12203,0.0993 0.17496,0.13869 0.29181,0.25032 0.21882,0.20907 0.41798,0.4384 0.64145,0.64282 0.0504,0.0433 0.10021,0.0874 0.15132,0.12993 0.0646,0.0537 0.17813,0.13837 0.2396,0.1963 0.16409,0.15463 0.29074,0.33735 0.3898,0.53979 0,0 0.16808,-0.0714 0.16808,-0.0714 z" />
    <path
       style="fill:#000000;stroke-width:0.874001"
       id="path14594"
       d="m 93.687957,146.95384 c 0.106778,-0.1496 0.133429,-0.20316 0.260459,-0.32548 0.04771,-0.0459 0.201332,-0.15355 0.242532,-0.18577 0.0363,-0.0284 0.210953,-0.17579 0.249931,-0.20857 0.227671,-0.21613 0.498068,-0.37357 0.777685,-0.51189 0.372025,-0.15741 0.73629,-0.33168 1.118253,-0.46422 0.04614,-0.0123 0.09193,-0.0259 0.13843,-0.0367 0.08938,-0.0208 0.180507,-0.0333 0.269904,-0.054 0.142555,-0.0329 0.281104,-0.0789 0.419995,-0.12435 0.08976,-0.01 0.147658,-0.0692 0.221734,-0.11053 0,0 0.0054,-0.0564 0.0054,-0.0564 v 0 c -0.0956,-0.0574 -0.175557,-0.0948 -0.291074,-0.0626 -0.137004,0.0318 -0.270616,0.0741 -0.407461,0.10624 -0.09425,0.0221 -0.190341,0.0359 -0.284482,0.0585 -0.05211,0.0125 -0.103302,0.0286 -0.154951,0.0429 -0.06769,0.0236 -0.136057,0.0453 -0.203055,0.0708 -0.320161,0.12184 -0.625816,0.27869 -0.94122,0.41172 -0.297908,0.14818 -0.584092,0.32122 -0.820079,0.55898 -0.27486,0.25277 -0.557604,0.47459 -0.741701,0.80915 0,0 0.139671,0.0823 0.139671,0.0823 z" />
    <path
       style="fill:#000000;stroke-width:0.874001"
       id="path14596"
       d="m 103.84965,134.66664 c 0.12577,-0.42934 0.20794,-0.69202 0.31431,-1.14648 0.0477,-0.20372 0.0842,-0.4099 0.12623,-0.61485 0,0 -0.0331,-0.008 -0.0331,-0.008 v 0 c -0.0613,0.19976 -0.12606,0.39846 -0.18374,0.59928 -0.10921,0.38024 -0.20148,0.7652 -0.30907,1.14589 0,0 0.0854,0.0246 0.0854,0.0246 z" />
    <path
       style="fill:#000000;stroke-width:0.874001"
       id="path14598"
       d="m 104.1758,135.12182 c 0.0534,-0.8729 0.003,-0.1111 0.0956,-1.24776 0.0923,-1.12982 0.0216,-0.41802 0.1117,-1.26963 0,0 -0.0252,-0.003 -0.0252,-0.003 v 0 c -0.11246,0.83606 -0.2449,1.67103 -0.27475,2.5156 0,0 0.0926,0.005 0.0926,0.005 z" />
    <path
       style="fill:#000000;stroke-width:0.874001"
       id="path14600"
       d="m 104.37856,134.49393 c 0.0945,-0.52558 0.15442,-1.05659 0.24205,-1.58322 0.039,-0.23462 0.0889,-0.46733 0.13328,-0.70099 0,0 -0.0556,-0.0106 -0.0556,-0.0106 v 0 c -0.0445,0.23387 -0.0865,0.46822 -0.13339,0.70161 -0.27042,1.34549 -0.12475,0.4781 -0.29472,1.57871 0,0 0.10842,0.0145 0.10842,0.0145 z" />
    <path
       style="fill:#000000;stroke-width:0.874001"
       id="path14602"
       d="m 105.04505,134.56712 c -0.0658,-0.97256 -0.0319,-0.42636 -0.0969,-1.63891 0,0 -0.0566,2.3e-4 -0.0566,2.3e-4 v 0 c -0.0556,1.22833 -0.0678,0.67324 -0.002,1.66566 0,0 0.15588,-0.027 0.15588,-0.027 z" />
    <path
       style="fill:#000000;stroke-width:0.874001"
       id="path14604"
       d="m 105.20211,134.26986 c 0.0764,-0.73287 0.0925,-1.47052 0.16001,-2.20403 0.0184,-0.19968 0.0532,-0.39751 0.0798,-0.59627 0,0 -0.0561,-0.008 -0.0561,-0.008 v 0 c -0.13674,0.93071 -0.30239,1.85917 -0.33004,2.80209 0,0 0.14636,0.006 0.14636,0.006 z" />
    <path
       style="fill:#000000;stroke-width:0.874001"
       id="path14606"
       d="m 105.56213,133.97496 c 0.0272,-0.78375 -0.008,-1.56726 -0.0465,-2.34987 0,0 -0.0566,5.3e-4 -0.0566,5.3e-4 v 0 c -0.0209,0.78328 -0.0513,1.56656 -0.0453,2.35026 0,0 0.14843,-10e-4 0.14843,-10e-4 z" />
    <path
       style="fill:#000000;stroke-width:0.874001"
       id="path14608"
       d="m 105.74665,134.25826 c -0.14297,-1.30262 -0.0869,-0.68912 -0.17577,-1.8398 0,0 -0.0565,0.004 -0.0565,0.004 v 0 c 0.0611,1.15357 0.0332,0.53738 0.0795,1.84875 0,0 0.1528,-0.0126 0.1528,-0.0126 z" />
    <path
       style="fill:#000000;stroke-width:0.874001"
       id="path14610"
       d="m 105.99611,134.69906 c -0.12964,-1.07616 -0.0603,-0.543 -0.20763,-1.59954 0,0 -0.0564,0.005 -0.0564,0.005 v 0 c 0.0549,1.06876 0.0144,0.53062 0.12287,1.61433 0,0 0.14115,-0.0201 0.14115,-0.0201 z" />
    <path
       style="fill:#000000;stroke-width:0.874001"
       id="path14612"
       d="m 106.22503,134.70066 c -0.0686,-0.4096 -0.10416,-0.82366 -0.16301,-1.23455 -0.0352,-0.24577 -0.079,-0.49022 -0.11855,-0.73533 0,0 -0.0564,0.005 -0.0564,0.005 v 0 c 0.007,0.24913 0.005,0.4987 0.0216,0.7474 0.0392,0.59777 0.0716,0.72199 0.16177,1.25525 0,0 0.15455,-0.0381 0.15455,-0.0381 z" />
    <path
       style="fill:#000000;stroke-width:0.874001"
       id="path14614"
       d="m 106.37941,133.8333 c -0.0226,-0.2761 -0.0451,-0.5522 -0.0677,-0.82831 0,0 -0.0566,0.002 -0.0566,0.002 v 0 c -0.005,0.27584 -0.0102,0.55167 -0.0153,0.82751 0,0 0.13964,-0.001 0.13964,-0.001 z" />
    <path
       style="fill:#000000;stroke-width:0.874001"
       id="path14616"
       d="m 104.81663,132.71451 c -0.0136,-0.15539 -0.0271,-0.31078 -0.0407,-0.46617 0,0 -0.0303,10e-4 -0.0303,10e-4 v 0 c -0.004,0.15615 -0.007,0.31231 -0.011,0.46847 0,0 0.082,-0.003 0.082,-0.003 z" />
    <path
       style="fill:#000000;stroke-width:0.874001"
       id="path14618"
       d="m 104.75324,132.96194 c -0.0313,-1.18749 -0.0234,-0.61895 -0.0273,-1.70558 0,0 -0.0566,-0.001 -0.0566,-0.001 v 0 c -0.0439,1.09 -0.029,0.519 -0.0399,1.71309 0,0 0.12385,-0.006 0.12385,-0.006 z" />
    <path
       style="fill:#000000;stroke-width:0.874001"
       id="path14620"
       d="m 103.45392,134.74407 c -0.17623,-0.008 -0.0562,-0.0189 -0.0708,0.34411 -1.1e-4,0.003 -0.005,-9e-5 -0.008,-8e-4 -0.0203,-0.005 -0.0404,-0.0118 -0.0605,-0.0178 0.006,-0.10513 0.0148,-0.21013 0.0175,-0.31539 9e-5,-0.003 -0.006,0.002 -0.01,0.003 -0.005,0.002 -0.009,0.003 -0.0138,0.005 -0.0294,0.0132 -0.0393,0.0231 -0.0642,0.0455 -0.0261,0.0342 -0.0147,0.016 -0.0341,0.0547 0,0 0.31458,0.12857 0.31458,0.12857 v 0 c -0.0189,0.0374 -0.008,0.0199 -0.0329,0.0525 -0.009,0.008 -0.0176,0.0163 -0.0268,0.0239 -0.009,0.007 -0.0195,0.0117 -0.0301,0.0154 -10e-4,5.3e-4 0.003,-0.001 0.004,-0.002 0.0107,-0.10674 0.0215,-0.21348 0.0322,-0.32021 -0.0212,-0.006 -0.0423,-0.0138 -0.0638,-0.0194 -0.006,-0.002 -0.0169,-0.007 -0.0174,-0.002 -0.0338,0.37119 -0.11977,0.34407 0.0541,0.34807 0,0 0.009,-0.34461 0.009,-0.34461 z" />
    <path
       style="fill:#000000;stroke-width:0.874001"
       id="path14622"
       d="m 103.38561,135.07293 c 0.0542,-0.0749 0.0369,-0.032 0.0472,-0.13057 0,0 -0.028,-0.0493 -0.028,-0.0493 v 0 c -0.0868,-0.0421 -0.0429,-0.034 -0.13011,-0.0311 0,0 0.11092,0.21089 0.11092,0.21089 z" />
    <path
       style="fill:#000000;stroke-width:0.874001"
       id="path14624"
       d="m 103.80193,134.59576 c 0.0389,-0.0554 0.0294,-0.0246 0.0283,-0.0924 0,0 -0.0395,-0.0406 -0.0395,-0.0406 v 0 c -0.0647,-0.006 -0.0344,-0.0128 -0.091,0.0201 0,0 0.10226,0.11292 0.10226,0.11292 z" />
    <path
       style="fill:#000000;stroke-width:0.874001"
       id="path14626"
       d="m 104.09657,133.27879 c 0.0358,0.0663 0.0252,0.0757 0.10495,0.10004 0.0204,0.006 0.0426,0.003 0.0638,0.005 0,0 0.0459,-0.0332 0.0459,-0.0332 v 0 c 0.0142,-0.0441 0.032,-0.0789 0.0178,-0.12777 -0.006,-0.0191 -0.0226,-0.0327 -0.034,-0.0491 0,0 -0.19851,0.10508 -0.19851,0.10508 z" />
    <path
       style="fill:#000000;stroke-width:0.874001"
       id="path14628"
       d="m 104.24823,134.58579 c 0.10772,-0.11411 0.0665,-0.0462 0.11632,-0.20793 0,0 -0.0361,-0.0437 -0.0361,-0.0437 v 0 c -0.16613,0.0179 -0.0934,-0.009 -0.22172,0.0709 0,0 0.14147,0.1807 0.14147,0.1807 z" />
    <path
       style="fill:#000000;stroke-width:0.874001"
       id="path14630"
       d="m 104.63489,133.00959 c 0.0378,0.0565 0.0759,0.12073 0.12791,0.16588 0.0303,0.0264 0.0673,0.0439 0.10098,0.0658 0,0 0.0501,-0.0264 0.0501,-0.0264 v 0 c -0.001,-0.0444 0.006,-0.0899 -0.004,-0.13323 -0.0197,-0.085 -0.0608,-0.12504 -0.11082,-0.18774 0,0 -0.16463,0.11562 -0.16463,0.11562 z" />
    <path
       style="fill:#000000;stroke-width:0.874001"
       id="path14632"
       d="m 105.04929,133.9817 c 0.0963,-0.0917 0.0512,-0.0457 0.13587,-0.13758 0,0 -0.0322,-0.0466 -0.0322,-0.0466 v 0 c -0.11839,0.0481 -0.0585,0.0203 -0.17922,0.0846 0,0 0.0755,0.0996 0.0755,0.0996 z" />
    <path
       style="fill:#000000;stroke-width:0.874001"
       id="path14634"
       d="m 105.36045,133.08156 c 0.0989,-0.0951 0.0592,-0.0375 0.11207,-0.17756 0,0 -0.0184,-0.0536 -0.0184,-0.0536 v 0 c -0.14989,-0.0737 -0.0718,-0.06 -0.23344,-0.0451 0,0 0.13978,0.27622 0.13978,0.27622 z" />
    <path
       style="fill:#000000;stroke-width:0.874001"
       id="path14636"
       d="m 105.86006,134.02817 c 0.0947,-0.008 0.24131,-0.0179 0.33163,-0.0335 0.0562,-0.01 0.11512,-0.0146 0.16669,-0.0391 0.0637,-0.0302 0.0975,-0.0817 0.13645,-0.13346 0,0 -0.007,-0.0563 -0.007,-0.0563 v 0 c -0.0547,-0.0414 -0.0997,-0.0815 -0.17652,-0.0906 -0.0596,-0.007 -0.12022,0.007 -0.17922,0.0185 -0.12568,0.024 -0.21117,0.0609 -0.32795,0.10468 0,0 0.0555,0.22971 0.0555,0.22971 z" />
    <path
       style="fill:#000000;stroke-width:0.874001"
       id="path14638"
       d="m 105.63339,134.04813 c 0.14744,-0.041 0.0763,-0.005 0.20622,-0.12203 0,0 -0.003,-0.0566 -0.003,-0.0566 v 0 c -0.12621,-0.10022 -0.0625,-0.0694 -0.1824,-0.10871 0,0 -0.0211,0.28731 -0.0211,0.28731 z" />
    <circle
       id="path14640"
       style="fill:#000000;stroke:#000000;stroke-width:0.264583"
       cx="52.612274"
       cy="131.9753"
       r="0.0081512062" />
    <path
       style="fill:#28170b;stroke-width:0.925156"
       d="m 392.57331,505.10585 c 0.0901,-1.23231 0.28242,-2.55563 0.42743,-2.94073 0.14501,-0.3851 0.37409,-2.21255 0.50907,-4.06101 0.13498,-1.84846 0.37201,-4.8102 0.52672,-6.58164 0.40462,-4.63265 0.41879,-19.54708 0.0212,-22.26103 -0.18018,-1.22982 -0.64422,-2.98827 -1.03119,-3.90767 l -0.70358,-1.67164 0.32157,-4.77449 c 0.17687,-2.62597 0.5007,-6.16083 0.71963,-7.85526 0.94299,-7.29831 1.00705,-8.21982 0.82716,-11.89802 -0.24277,-4.96419 -0.76585,-8.72789 -1.77809,-12.79398 -0.4539,-1.82323 -0.91059,-3.88212 -1.01488,-4.57529 -0.53175,-3.53438 -2.34082,-8.73088 -4.60694,-13.2333 -0.60473,-1.20151 -0.62254,-1.19295 1.24531,-0.5986 0.97022,0.30872 2.73375,0.46932 5.74143,0.52286 2.3876,0.0425 6.11302,0.17061 8.27871,0.2847 l 3.93762,0.20743 -0.0851,0.73704 c -0.42105,3.64808 -1.67785,11.89778 -2.33099,15.30067 -0.98851,5.15019 -1.29023,8.02446 -1.82279,17.36433 -0.48154,8.44491 -0.52146,15.41302 -0.10431,18.20454 0.28737,1.923 0.6299,16.5138 0.6279,26.74666 -9.2e-4,4.6602 -0.75783,16.99626 -1.0615,17.29992 -0.0669,0.0669 -0.20379,-0.36385 -0.30419,-0.95724 -0.26964,-1.59358 -0.42474,-2.05912 -0.686,-2.05912 -0.129,0 -0.1827,0.53563 -0.11934,1.1903 0.0634,0.65466 0.0325,1.00125 -0.0686,0.77019 -0.10113,-0.23106 -0.29928,-0.49568 -0.44035,-0.58805 -0.14107,-0.0924 -0.32125,-1.16364 -0.40041,-2.38059 -0.14884,-2.28819 -0.58959,-3.95249 -0.94241,-3.55856 -0.11115,0.12409 -0.4084,1.86404 -0.66055,3.86654 -0.65899,5.23338 -0.65695,5.22418 -0.69878,3.15078 -0.0277,-1.37176 -0.14083,-1.89047 -0.4124,-1.89047 -0.24856,0 -0.36898,-0.35275 -0.35855,-1.05026 0.0397,-2.65305 -0.12936,-5.11128 -0.35149,-5.11128 -0.13425,0 -0.31454,1.35484 -0.40064,3.01075 -0.0861,1.65592 -0.34847,3.70393 -0.58305,4.55114 l -0.42651,1.54038 0.13601,-2.10052 0.13602,-2.10052 -0.59454,1.22785 c -0.327,0.67532 -0.64697,1.49452 -0.71105,1.82045 -0.0641,0.32593 -0.29758,1.22276 -0.51889,1.99295 l -0.40239,1.40035 z"
       id="path14711"
       transform="scale(0.26458333)" />
    <path
       style="fill:#808080;stroke-width:0.925156"
       d="m 394.37416,623.05849 c -0.17202,-0.20726 -0.79574,-0.59464 -1.38605,-0.86083 l -1.07329,-0.48399 -0.47033,-3.41023 c -0.81391,-5.90149 -0.61075,-8.81582 1.33105,-19.09414 0.20371,-1.07827 1.32968,-5.21707 2.50217,-9.19733 2.40808,-8.17479 2.84047,-10.70746 2.39843,-14.04846 -0.16305,-1.23231 -0.36596,-3.86158 -0.45091,-5.84283 -0.15997,-3.73049 -0.47313,-4.18115 -0.79793,-1.14825 -0.11676,1.09031 -0.008,2.9161 0.29932,5.04329 0.7833,5.41472 0.63313,6.41405 -2.67059,17.77173 -1.12668,3.87335 -2.1052,7.89165 -2.37799,9.76519 -0.25494,1.75095 -0.64071,4.01952 -0.85728,5.04126 -0.52173,2.46147 -0.50882,8.4761 0.0253,11.76932 0.23458,1.4464 0.38527,2.67104 0.33487,2.72144 -0.0504,0.0504 -1.56791,-1.24222 -3.37227,-2.87248 -2.38759,-2.15721 -3.71796,-3.62192 -4.88713,-5.3806 -0.88357,-1.32907 -1.9365,-2.79526 -2.33985,-3.2582 -0.96187,-1.10398 -2.6431,-7.08473 -3.19766,-11.3753 -0.70182,-5.42994 -0.82472,-11.43765 -0.30461,-14.89122 0.25008,-1.66058 0.4547,-4.73217 0.4547,-6.82577 0,-5.67705 0.99118,-11.68339 2.9834,-18.07868 0.85157,-2.73366 1.26969,-3.60396 2.51967,-5.2446 0.82427,-1.08189 1.49867,-2.0331 1.49867,-2.11381 0,-0.72494 -2.44461,1.3115 -3.36809,2.80573 -2.26248,3.66077 -5.00169,16.68568 -4.59175,21.83371 0.11678,1.46664 0.01,3.64328 -0.30994,6.30157 -0.86686,7.20857 -0.20132,16.77751 1.57405,22.63114 0.48161,1.58795 0.82209,2.94074 0.75662,3.00621 -0.0655,0.0655 -1.76124,-1.54862 -3.76837,-3.58687 -3.30087,-3.35206 -3.7323,-3.90797 -4.51828,-5.82208 -1.95483,-4.76063 -2.65896,-8.42269 -3.38961,-17.62875 -0.27608,-3.47848 -2.0447,-11.8756 -2.62501,-12.46311 -0.45858,-0.46426 -0.006,3.10005 0.76512,6.0215 0.39263,1.48813 0.83357,4.26519 1.00057,6.30157 0.78727,9.59978 1.51826,13.56387 3.20424,17.37617 0.39274,0.88805 0.67871,1.65001 0.63549,1.69323 -0.0432,0.0432 -1.73058,-1.45702 -3.7497,-3.33387 -3.4382,-3.19596 -7.01167,-7.17315 -9.17957,-10.21666 -2.78665,-3.91219 -6.04414,-12.93342 -6.04414,-16.73853 0,-2.57408 1.11561,-6.89545 3.10684,-12.03442 1.12132,-2.89391 1.56412,-3.44227 4.35528,-5.39348 1.28674,-0.89951 5.10476,-2.47637 7.29774,-3.01398 3.39812,-0.83307 3.37116,-1.96489 -0.0303,-1.27397 -1.8598,0.37776 -5.85114,1.98053 -7.51215,3.01659 -1.36118,0.84904 -1.44,0.82592 -0.88177,-0.2586 1.97612,-3.83918 7.03578,-9.30125 14.92118,-16.10792 6.79388,-5.86446 11.23735,-10.75126 13.70709,-15.07467 0.87213,-1.52673 2.004,-3.3785 2.51525,-4.11506 0.51125,-0.73655 1.24507,-2.02838 1.6307,-2.87071 0.38564,-0.84234 0.88097,-1.53153 1.10073,-1.53153 0.21977,0 0.39958,-0.12603 0.39958,-0.28007 0,-0.15404 0.26332,-0.54339 0.58516,-0.86523 0.32184,-0.32184 0.75963,-1.10954 0.97287,-1.75044 0.38114,-1.14554 0.38505,-1.12853 0.23115,1.00527 -0.099,1.37251 -0.053,2.17054 0.12515,2.17054 0.15495,0 0.36414,-0.4096 0.46489,-0.91022 0.10075,-0.50063 0.3499,-1.28833 0.55367,-1.75044 0.20377,-0.46212 0.45555,-1.53338 0.55951,-2.38059 0.27074,-2.20639 0.3905,-2.51766 0.89426,-2.32435 0.33179,0.12732 0.40132,0.43386 0.28876,1.27305 -0.21022,1.56729 0.0964,4.17516 0.47606,4.04877 0.17043,-0.0567 0.35596,-0.34478 0.41229,-0.64009 0.0563,-0.29531 0.22785,-0.61602 0.38115,-0.71269 0.1533,-0.0967 0.37315,-1.16793 0.48856,-2.38059 l 0.20984,-2.20484 0.0392,1.75044 c 0.0215,0.96274 0.1652,1.75044 0.31924,1.75044 0.15404,0 0.28007,0.23736 0.28007,0.52747 0,0.29194 0.25012,0.59288 0.56014,0.67395 0.36996,0.0967 0.56014,0.38202 0.56014,0.84021 0,0.47666 0.19048,0.74355 0.60874,0.85292 0.92299,0.24137 1.12663,-0.04 0.95029,-1.3129 -0.13024,-0.94015 -0.107,-1.03592 0.12196,-0.50244 0.15558,0.36252 0.79951,1.24474 1.43096,1.96049 0.63144,0.71576 1.53043,2.05757 1.99773,2.9818 0.97696,1.93222 4.3877,6.78099 6.50125,9.2423 0.79365,0.92423 2.50545,3.00375 3.80399,4.62115 3.39963,4.2344 6.62531,7.7775 7.9458,8.72771 2.1059,1.51539 5.60297,4.55211 8.01072,6.9562 2.18123,2.17792 4.75756,5.56312 4.75756,6.25125 0,0.15524 -0.85071,-0.53904 -1.89047,-1.54284 -2.1296,-2.05596 -4.68745,-3.79744 -5.94783,-4.04952 -1.66199,-0.33239 -0.83021,0.80119 2.04627,2.78878 1.91164,1.3209 6.38083,5.43508 7.97205,7.33881 0.35181,0.42089 1.10662,2.23063 1.67736,4.02164 1.02752,3.22437 1.0374,3.30043 1.00499,7.7375 -0.0369,5.04475 -0.43765,7.44053 -1.74184,10.41202 -0.46174,1.05202 -1.15776,3.19898 -1.54672,4.77102 -0.38897,1.57203 -0.91606,3.27306 -1.17133,3.78007 -0.87667,1.74125 -4.95808,8.63674 -5.20086,8.78678 -0.13358,0.0826 -0.24288,-0.1659 -0.24288,-0.55214 0,-1.18405 -1.39114,-5.24391 -2.50578,-7.3128 -0.58093,-1.07827 -1.53592,-3.40955 -2.12219,-5.18063 -0.92466,-2.79329 -1.07317,-3.60173 -1.1204,-6.09888 -0.0299,-1.5833 -0.12678,-2.95106 -0.21517,-3.03945 -0.51765,-0.51765 -0.75813,0.4777 -0.75813,3.13787 0,2.59156 0.11601,3.29215 1.00595,6.075 0.55327,1.73008 1.45242,3.96481 1.99811,4.96606 1.08436,1.98961 2.59734,6.17269 2.59734,7.18113 0,0.34896 0.1425,0.94723 0.31668,1.3295 0.28132,0.61745 0.13281,1.01489 -1.33034,3.56003 -1.01064,1.75802 -2.4608,3.73998 -3.75322,5.12959 -1.15842,1.24553 -2.47647,2.81334 -2.929,3.48404 -0.45254,0.67069 -1.58426,1.7317 -2.51494,2.35779 -0.93069,0.62608 -2.50446,1.89199 -3.49728,2.81312 -0.99282,0.92113 -2.83258,2.33761 -4.08837,3.14772 -1.25578,0.81012 -2.9641,2.02395 -3.79627,2.69739 -0.83216,0.67344 -1.93711,1.52318 -2.45545,1.88832 -0.85184,0.60007 -0.92797,0.61273 -0.79198,0.13176 0.0827,-0.29267 0.29468,-1.66641 0.47094,-3.05275 0.17626,-1.38635 0.62764,-3.96999 1.00305,-5.74143 0.37542,-1.77145 0.80599,-4.52117 0.95682,-6.1105 0.15083,-1.58933 0.33514,-2.98823 0.40957,-3.10865 0.0744,-0.12043 0.34088,-1.71879 0.59212,-3.55192 0.35057,-2.55798 0.45454,-5.56063 0.44711,-12.9137 -0.009,-8.76135 -0.065,-9.88714 -0.65629,-13.16328 -0.58781,-3.25675 -0.6467,-4.40388 -0.64765,-12.61481 -8.5e-4,-6.5853 -0.0877,-9.03227 -0.32103,-9.03225 -0.44292,4e-5 -0.78023,8.62288 -0.57518,14.7037 0.092,2.72975 0.40096,6.16357 0.72402,8.04804 0.50409,2.94046 0.55342,4.26868 0.4681,12.60314 -0.0699,6.82867 -0.22082,10.17292 -0.56519,12.52445 -0.2584,1.76449 -0.52877,3.30356 -0.60083,3.42014 -0.072,0.11659 -0.24706,1.50862 -0.38891,3.09341 -0.14184,1.58478 -0.5659,4.26777 -0.94235,5.96219 -0.37644,1.69442 -0.83515,4.33314 -1.01934,5.86381 -0.18419,1.53067 -0.44398,3.06997 -0.57732,3.42066 -0.26186,0.68876 -2.05673,1.69684 -4.36787,2.45321 -0.79375,0.25977 -2.15418,0.97037 -3.02319,1.57911 -0.86901,0.60874 -1.622,1.1068 -1.67332,1.1068 -0.0513,0 -0.23404,-0.16957 -0.40605,-0.37684 z m 12.16221,-95.43142 c 0.1035,-0.16746 0.0533,-0.43939 -0.11164,-0.60429 -0.34949,-0.3495 -1.25869,0.2485 -1.00411,0.66042 0.21317,0.34492 0.8889,0.31092 1.11575,-0.0561 z"
       id="path14782"
       transform="scale(0.26458333)" />
    <path
       style="fill:#333333;stroke-width:0.874001"
       id="path14833"
       d="m 106.85946,139.43063 c 0.0659,0.21398 0.0583,0.20153 0.13031,0.39479 0.0186,0.05 0.0372,0.10008 0.058,0.14922 0.0404,0.0954 0.0765,0.17015 0.1392,0.25392 0.0264,0.0353 0.0589,0.0655 0.0883,0.0983 0.0141,0.0123 0.0543,0.0513 0.0423,0.0369 -0.0169,-0.0204 -0.0407,-0.0345 -0.0574,-0.0551 -0.0581,-0.0718 -0.0528,-0.11959 -0.0566,-0.0846 0,0 0.92133,-0.38878 0.92133,-0.38878 v 0 c -0.0275,-0.0633 -0.0357,-0.0872 -0.0891,-0.15781 -0.0236,-0.0312 -0.0546,-0.0562 -0.0814,-0.0847 -0.005,-0.005 0.0104,0.01 0.0157,0.0149 0.0123,0.0162 0.0262,0.0312 0.0368,0.0485 0.003,0.005 0.006,0.0205 0.003,0.0159 -0.0119,-0.0193 -0.0214,-0.0399 -0.0303,-0.0607 -0.0174,-0.0408 -0.033,-0.0825 -0.0486,-0.12403 -0.08,-0.21402 -0.0268,-0.0899 -0.085,-0.22118 0,0 -0.98639,0.1644 -0.98639,0.1644 z" />
    <path
       style="fill:#333333;stroke-width:0.654184"
       d="m 392.72587,504.80203 c -0.004,-0.49015 0.12751,-1.515 0.29212,-2.27745 0.85772,-3.97274 1.5861,-17.92339 1.39072,-26.63628 -0.14223,-6.34238 -0.27513,-7.50448 -1.13246,-9.90196 -0.33108,-0.92584 -0.64602,-2.09701 -0.69988,-2.60262 -0.13951,-1.30959 0.44657,-8.64913 1.081,-13.53758 0.46035,-3.54712 0.53868,-4.85792 0.53251,-8.91177 -0.008,-5.10889 -0.30679,-8.20905 -1.18429,-12.27843 -0.25836,-1.19814 -0.7459,-3.47064 -1.08342,-5.05 -1.30887,-6.1245 -2.26619,-9.13829 -4.28031,-13.47495 -0.58809,-1.26624 -1.06926,-2.34968 -1.06926,-2.40765 0,-0.058 0.60154,0.0623 1.33677,0.2672 1.02274,0.28507 2.49979,0.4171 6.28774,0.56204 2.72304,0.10419 6.4437,0.24882 8.26814,0.32139 l 3.31716,0.13196 v 0.61801 c 0,0.94068 -1.30304,9.69483 -2.17877,14.63757 -1.31701,7.43333 -1.7771,12.59509 -2.20986,24.79247 -0.20287,5.71765 -0.19063,7.08039 0.0978,10.89216 0.52208,6.89899 0.84087,25.39518 0.55124,31.98334 -0.24511,5.57558 -0.51163,9.63033 -0.74848,11.38725 l -0.13349,0.9902 -0.22926,-1.10405 c -0.12608,-0.60723 -0.2887,-1.25898 -0.36136,-1.44834 -0.22005,-0.57344 -0.53059,-0.15023 -0.53729,0.73222 -0.006,0.74623 -0.0337,0.79379 -0.27817,0.47139 -0.14952,-0.19722 -0.32773,-0.99928 -0.39601,-1.78235 -0.26936,-3.08924 -0.76851,-4.79692 -1.19867,-4.10089 -0.0726,0.11752 -0.32565,1.58498 -0.56224,3.26101 -0.42025,2.97698 -0.72724,4.07939 -0.72724,2.61153 0,-0.43168 -0.10963,-0.77443 -0.26702,-0.83483 -0.19729,-0.0757 -0.30177,-0.83042 -0.40009,-2.89011 -0.13112,-2.74664 -0.32131,-3.74253 -0.584,-3.05797 -0.067,0.17471 -0.22111,1.49895 -0.34238,2.94276 -0.12126,1.44382 -0.29353,2.93703 -0.38282,3.31826 -0.14739,0.62932 -0.16501,0.58373 -0.19145,-0.4951 l -0.0291,-1.18824 -0.52324,0.9902 c -0.28778,0.54461 -0.72444,1.65858 -0.97036,2.47549 -0.4449,1.47787 -0.44717,1.48084 -0.4543,0.59412 z"
       id="path15591"
       transform="scale(0.26458333)" />
    <ellipse
       style="fill:#808080;stroke-width:0.874001"
       id="path15695"
       cx="107.17986"
       cy="140.00714"
       rx="1.4409418"
       ry="0.99555975" />
  </g>
</svg>
