<?xml version="1.0" encoding="UTF-8" standalone="no"?>
<!-- Created with Inkscape (http://www.inkscape.org/) -->

<svg
   width="230"
   height="500"
   viewBox="0 0 60.854175 132.29166"
   version="1.1"
   id="svg5"
   inkscape:version="1.2 (dc2aedaf03, 2022-05-15)"
   sodipodi:docname="bulb-center.svg"
   inkscape:export-filename="fibrous-1.svg"
   inkscape:export-xdpi="96"
   inkscape:export-ydpi="96"
   xmlns:inkscape="http://www.inkscape.org/namespaces/inkscape"
   xmlns:sodipodi="http://sodipodi.sourceforge.net/DTD/sodipodi-0.dtd"
   xmlns="http://www.w3.org/2000/svg"
   xmlns:svg="http://www.w3.org/2000/svg">
  <sodipodi:namedview
     id="namedview7"
     pagecolor="#505050"
     bordercolor="#eeeeee"
     borderopacity="1"
     inkscape:showpageshadow="0"
     inkscape:pageopacity="0"
     inkscape:pagecheckerboard="0"
     inkscape:deskcolor="#505050"
     inkscape:document-units="mm"
     showgrid="false"
     inkscape:zoom="1.2623761"
     inkscape:cx="103.37648"
     inkscape:cy="262.60003"
     inkscape:window-width="2560"
     inkscape:window-height="1080"
     inkscape:window-x="0"
     inkscape:window-y="0"
     inkscape:window-maximized="1"
     inkscape:current-layer="layer1" />
  <defs
     id="defs2" />
  <g
     inkscape:label="Camada 1"
     inkscape:groupmode="layer"
     id="layer1">
    <g
       id="g40038"
       transform="matrix(1.251864,0,0,1.251864,-5.7813688,-5.4839307)">
      <path
         style="fill:#000000;stroke-width:0.874001"
         id="path14548"
         d="m 22.993655,24.280767 c 0.56034,0.17022 1.11177,0.42153 1.69826,0.4983 0.20021,0.0262 0.40855,-0.0228 0.6082,-0.0354 0.55237,0.001 1.10402,0.0324 1.65655,0.039 0.2696,-0.007 0.53494,0.0464 0.80318,0.0559 0.19795,0.0137 0.39641,0.009 0.59437,0.023 0.13423,0.0146 0.26963,-0.0287 0.40178,0.002 0.0725,0.006 0.0723,0.0113 0.14982,-0.006 0.0185,-0.004 0.0358,-0.0123 0.0537,-0.0187 0.004,-0.002 0.0173,-0.006 0.0129,-0.005 -0.0767,0.0186 2.7e-4,0.0197 -0.14042,-0.0194 0.0346,0.0623 0.0425,0.0114 -0.0103,-0.009 -0.0112,-0.004 0.018,0.0429 0.009,0.0348 -0.0141,-0.0128 -0.0121,-0.0631 -0.0266,-0.0507 -0.0242,0.0209 -0.0151,0.0622 -0.0227,0.0933 -0.0118,0.20656 -0.0403,0.41107 -0.0687,0.61644 -0.0556,0.3792 -0.11329,0.75646 -0.15207,1.13781 -0.0717,0.40308 -0.13826,0.80499 -0.17845,1.21324 -0.0695,0.52974 -0.19454,1.04993 -0.28614,1.57601 -0.15686,0.72716 -0.26445,1.45661 -0.30829,2.19907 -0.0447,0.69892 -0.0983,1.39732 -0.12911,2.09713 -0.008,0.72125 -0.077,1.43816 -0.13226,2.15647 -0.0138,0.70698 -0.0149,1.41718 0.0289,2.12323 0.0693,0.615 0.15243,1.2281 0.19374,1.84579 0.0278,0.64741 0.002,1.29585 -0.0418,1.94193 -0.0206,0.6097 0.0295,1.21975 0.0547,1.82899 0.0134,0.45948 0.0718,0.91721 0.0882,1.37631 0.006,0.29266 0.0105,0.58436 0.027,0.87673 0.001,0.24015 -0.0266,0.48263 -0.0666,0.71956 -0.0283,0.18716 -0.0209,0.37715 -0.0199,0.5656 -0.009,0.13611 -0.0485,0.2656 -0.0586,0.40202 -0.0344,0.17509 -0.0414,0.35356 -0.0357,0.53143 -0.0372,0.15514 0.009,0.3273 -0.0259,0.48011 -0.003,0.0243 -0.005,0.0487 -0.008,0.0731 -10e-4,0.01 -0.0333,0.28947 -0.0215,0.22352 -0.0183,0.53811 -0.0115,-0.0492 0.009,0.21867 5.3e-4,0.006 -0.009,-0.0195 -0.0106,-0.0139 -0.007,0.0234 -0.007,0.0487 -0.008,0.0732 -0.003,0.10007 7.9e-4,0.1069 0.0117,0.19247 -0.0312,0.0852 -0.0222,0.2063 -0.002,0.30625 -0.0361,0.11704 0.0292,0.24422 -0.001,0.36076 8e-4,-0.008 0.003,-0.0334 0.002,-0.025 -0.0146,0.19905 -0.0267,0.0726 0.0445,0.25952 0.005,0.0132 -0.0177,-0.0233 -0.0208,-0.0371 -0.0165,-0.0733 0.004,-0.12848 -0.0172,-0.0562 -0.0261,0.10913 0.004,0.22744 -0.007,0.33328 0.006,-0.006 -0.0507,0.18041 -0.0115,0.18214 0.46714,0.0206 0.48046,0.0954 0.43866,-0.0636 -0.1836,-0.10405 -0.11676,-0.0291 -0.19839,-0.22682 0,0 -0.0559,0.009 -0.0559,0.009 v 0 c -0.0239,0.17248 0.0246,0.12406 -0.16327,0.12501 -0.002,-0.002 -0.005,-0.004 -0.007,-0.006 0.13879,0.0181 0.27758,0.0361 0.41637,0.0541 0.0284,0.007 -0.0407,0.1808 0.0153,0.0125 0.002,-0.0128 0.0342,-0.33832 0.002,-0.29197 0.0288,-0.0902 0.0421,-0.1901 -0.0123,-0.27319 -0.0101,-0.0154 0.0104,0.036 0.01,0.0544 -0.001,0.0292 -0.0399,0.0688 -0.0164,0.0862 0.0225,0.0167 0.0158,-0.0538 0.0237,-0.0807 0.0161,-0.1747 -0.01,-0.34836 -0.01,-0.52319 -0.0241,-0.0765 0.0304,-0.1802 0.0107,-0.2641 -0.008,-0.0399 0.0177,-0.44522 -0.0295,-0.25219 0.0401,-0.12833 0.0319,-0.26358 0.0549,-0.39554 0.017,-0.18168 0.004,-0.36539 0.0271,-0.54716 -0.004,-0.16475 0.004,-0.32893 0.0341,-0.49137 0.007,-0.14684 0.0621,-0.28637 0.0565,-0.43496 -0.003,-0.16243 -0.009,-0.32692 0.0118,-0.48806 0.0457,-0.26954 0.078,-0.54534 0.0738,-0.8187 -0.0192,-0.28939 -0.0214,-0.5781 -0.0295,-0.86786 -0.0212,-0.45911 -0.0751,-0.91703 -0.0921,-1.37661 -0.0258,-0.5937 -0.0772,-1.18846 -0.0572,-1.7826 0.043,-0.66533 0.0713,-1.33285 0.0388,-1.99939 -0.0441,-0.61689 -0.12465,-1.22955 -0.19847,-1.84347 -0.0459,-0.68649 -0.0441,-1.37765 -0.036,-2.06528 0.0535,-0.72294 0.12092,-1.4447 0.12331,-2.17052 0.0282,-0.69817 0.0771,-1.39511 0.11813,-2.09252 0.0373,-0.72808 0.14056,-1.44339 0.28982,-2.15707 0.0895,-0.53543 0.21613,-1.06482 0.27814,-1.6046 0.0381,-0.40776 0.10268,-0.80889 0.17144,-1.21187 0.0384,-0.37741 0.0934,-0.75124 0.1449,-1.12705 0.0258,-0.19669 0.0556,-0.39428 0.0507,-0.59278 0.0226,-0.13515 0.0566,-0.23859 -0.0391,-0.32474 -0.17413,-0.0992 -0.13615,-0.0863 -0.25781,-0.056 -0.14916,-0.0297 -0.29628,-0.004 -0.44658,-0.005 -0.20127,-0.009 -0.40254,-0.005 -0.60377,-0.0136 -0.26948,-0.003 -0.53781,-0.0441 -0.80796,-0.0354 -0.55991,-0.002 -1.11924,-0.0273 -1.67893,-0.0235 -0.11966,0.0118 -0.42246,0.0709 -0.54496,0.0582 -0.57722,-0.0598 -1.11957,-0.31446 -1.67014,-0.47354 0,0 -0.0711,0.20067 -0.0711,0.20067 z" />
      <path
         style="fill:#000000;stroke-width:0.874001"
         id="path14550"
         d="m 23.149855,24.563627 c 0.0541,0.0851 0.10963,0.16935 0.16221,0.25542 0.0415,0.068 0.0833,0.13603 0.12006,0.20673 0.0599,0.11507 0.0904,0.24511 0.13106,0.36726 0.017,0.0511 0.0356,0.10168 0.0534,0.15251 0.0718,0.1901 0.14639,0.37976 0.23257,0.56391 0.0503,0.10755 0.10771,0.21179 0.15868,0.3191 0.1262,0.26394 0.21043,0.54594 0.27908,0.8296 0.053,0.26788 0.14908,0.52561 0.19214,0.79571 0.0126,0.0789 0.0212,0.15845 0.0318,0.23767 0.01,0.0797 0.0192,0.1593 0.0288,0.23895 0.0138,0.11442 0.0194,0.18845 0.0425,0.29658 0.0283,0.13225 0.0678,0.26319 0.1016,0.39411 0.0778,0.34066 0.16159,0.67972 0.24473,1.01908 0.0954,0.37492 0.14995,0.75837 0.19345,1.14225 0.0586,0.41868 0.0758,0.84086 0.0908,1.26278 0.0209,0.42733 0.0515,0.85467 0.047,1.28265 -0.0128,0.26289 -0.0725,0.52001 -0.10079,0.78106 -0.017,0.15749 -0.0177,0.22327 -0.0255,0.3851 -0.0231,0.37087 -0.10358,0.7345 -0.16366,1.10038 -0.0712,0.34816 -0.0509,0.70463 -0.0839,1.05648 -0.0258,0.27062 -0.0279,0.54286 -0.0484,0.81383 -0.0103,0.1364 -0.029,0.2913 -0.0443,0.42728 -0.0223,0.43222 -0.10357,0.89174 0.0499,1.31043 0.0123,0.0336 0.14917,0.29462 0.17056,0.33577 0.13502,0.30004 0.13796,0.63037 0.1826,0.95037 0.0442,0.24803 0.0821,0.49768 0.0873,0.75002 0.004,0.20727 -0.002,0.27388 -0.0119,0.48155 -0.0305,0.36816 -0.062,0.73696 -0.0605,1.10672 8e-4,0.1964 0.009,0.33878 0.0185,0.53651 0.0362,0.57435 0.0175,1.14961 -0.0105,1.72372 -0.012,0.36913 -0.0295,0.73748 -0.0576,1.10575 -0.0305,0.45028 -0.0678,0.89948 -0.12174,1.34757 -0.0344,0.25069 -0.0299,0.50346 -0.035,0.75567 -0.001,0.10519 -0.01,0.20703 -0.0326,0.30948 -0.0464,0.16937 -0.0915,0.33909 -0.13627,0.50889 -0.041,0.11809 -0.0353,0.23976 -0.0372,0.36211 0.008,0.0996 7.9e-4,0.19803 -0.0131,0.29659 -0.0417,0.1987 -0.0735,0.39923 -0.10768,0.59932 -0.0118,0.088 -0.004,0.0357 0.0515,0.0472 0.0305,0.006 0.0575,0.0238 0.0862,0.0356 0,0 0.012,0.0554 0.012,0.0554 v 0 c 0.12338,0.0278 0.18277,0.0589 0.21603,-0.0756 0.0349,-0.20411 0.0687,-0.40839 0.10858,-0.61153 0.0152,-0.11383 0.0248,-0.2286 0.0165,-0.34346 5.3e-4,-0.0928 -0.007,-0.18152 0.0259,-0.27094 0.0458,-0.17376 0.0919,-0.34748 0.13827,-0.52109 0.0296,-0.12687 0.0409,-0.25407 0.0427,-0.38433 0.005,-0.23954 0.003,-0.4797 0.0353,-0.71771 0.0565,-0.45285 0.10397,-0.9065 0.134,-1.36196 0.032,-0.37153 0.0522,-0.74336 0.0662,-1.11598 0.034,-0.58718 0.0493,-1.17574 0.01,-1.76325 -0.01,-0.19566 -0.0179,-0.32046 -0.02,-0.51383 -0.004,-0.36578 0.028,-0.73032 0.0514,-1.09501 0.009,-0.23248 0.0147,-0.286 0.007,-0.51829 -0.009,-0.26321 -0.0499,-0.52296 -0.0983,-0.78142 -0.0534,-0.35995 -0.0629,-0.73063 -0.22643,-1.06467 -0.0719,-0.13833 -0.17034,-0.28474 -0.19715,-0.44101 -0.0566,-0.32967 -2.3e-4,-0.66827 0.0152,-0.99816 0.018,-0.1601 0.0334,-0.28569 0.046,-0.44685 0.0208,-0.26725 0.023,-0.53569 0.0466,-0.80276 0.029,-0.34304 0.0151,-0.68971 0.0794,-1.02922 0.0643,-0.37943 0.14611,-0.75714 0.16816,-1.1423 0.007,-0.14401 0.008,-0.21554 0.0229,-0.35561 0.0296,-0.27584 0.0914,-0.54795 0.10189,-0.82599 -9e-5,-0.43318 -0.0301,-0.86554 -0.056,-1.29781 -0.0178,-0.4307 -0.035,-0.86187 -0.0977,-1.28903 -0.0473,-0.39834 -0.10419,-0.7964 -0.20621,-1.18502 -0.087,-0.33955 -0.17278,-0.67924 -0.25124,-1.02092 -0.0326,-0.12289 -0.0697,-0.24585 -0.0982,-0.36975 -0.0241,-0.10494 -0.026,-0.15945 -0.0405,-0.27685 -0.01,-0.0816 -0.0203,-0.16323 -0.0305,-0.24484 -0.0301,-0.20324 -0.0317,-0.24669 -0.0734,-0.42798 -0.0492,-0.2139 -0.12315,-0.42141 -0.16664,-0.63673 -0.078,-0.30351 -0.17295,-0.60368 -0.3099,-0.88636 -0.051,-0.1049 -0.10828,-0.20627 -0.15925,-0.31108 -0.0855,-0.17582 -0.15862,-0.35732 -0.23354,-0.53776 -0.0505,-0.13598 -0.0933,-0.2771 -0.15165,-0.40996 -0.0989,-0.225 -0.23895,-0.42782 -0.37911,-0.62853 0,0 -0.21339,0.15654 -0.21339,0.15654 z" />
      <path
         style="fill:#000000;stroke-width:0.874001"
         id="path14552"
         d="m 23.320845,24.337087 c -0.0287,-0.0393 -0.0575,-0.0785 -0.0861,-0.11779 -0.0155,-0.0213 -0.0307,-0.0429 -0.0463,-0.0642 -0.004,-0.005 -0.007,-0.0188 -0.0115,-0.0148 -0.17322,0.14572 -0.19005,0.0987 -0.12542,0.17807 0.12726,-0.12463 0.19759,-0.11478 0.123,-0.18058 -0.005,-0.004 -0.009,-0.01 -0.0154,-0.0125 -0.0153,-0.008 -0.0327,-0.0108 -0.0476,-0.0192 -0.008,-0.004 0.017,0.004 0.0255,0.007 0.12738,0.11639 0.049,0.0496 -0.13947,0.15531 -0.007,0.004 0.006,0.0142 0.009,0.0213 0.0181,0.0425 0.0189,0.0435 0.0392,0.0884 0.0327,0.0899 0.0918,0.16335 0.14887,0.23826 0.0203,0.0264 0.0481,0.0452 0.0704,0.0697 0.002,0.002 0.006,0.007 0.004,0.005 -0.006,-0.004 -0.012,-0.0189 -0.014,-0.0228 0.001,0.0282 0.10964,0.11837 0.0351,0.0482 -0.0214,-0.0555 -0.0178,-0.0208 0.0686,-0.0791 0,0 0.0276,0.0495 0.0276,0.0495 v 0 c 0.10791,-0.0703 0.1125,-0.0275 0.087,-0.0953 -0.0111,-0.0112 -0.0219,-0.0228 -0.0332,-0.0337 -5.3e-4,-5.3e-4 -0.0144,-0.009 -0.0128,-0.008 0.0147,0.0162 0.0331,0.0247 0.0374,0.049 -0.0209,-0.0484 -0.0547,-0.083 -0.0938,-0.11767 -0.0471,-0.0617 -0.0964,-0.12078 -0.12227,-0.19561 -0.0158,-0.0349 -0.051,-0.11406 -0.0512,-0.11404 -0.0938,0.009 -0.25779,0.0165 -0.20865,0.08 0.0173,0.0223 0.0395,0.0404 0.0592,0.0607 0.0102,0.003 0.038,0.0164 0.0305,0.009 -0.0102,-0.0103 -0.0268,-0.0111 -0.0396,-0.018 -0.0225,-0.0123 -0.0118,-0.0112 -0.008,-0.008 0.003,0.003 0.005,0.0118 0.009,0.009 0.0591,-0.0403 0.11326,-0.0874 0.1699,-0.13111 -0.0683,-0.0635 -0.002,-0.036 -0.1925,0.10056 -0.002,0.001 0.003,0.003 0.005,0.004 0.0163,0.0209 0.0321,0.0421 0.048,0.0632 0.0288,0.0382 0.0575,0.0765 0.0863,0.11474 0,0 0.16532,-0.11969 0.16532,-0.11969 z" />
      <path
         style="fill:#000000;stroke-width:0.874001"
         id="path14556"
         d="m 24.841965,50.886247 c -0.0758,0.0745 -0.15475,0.14585 -0.2274,0.22338 -0.0321,0.0342 -0.18913,0.19813 -0.1907,0.28518 -0.002,0.12882 0.0901,0.23766 0.10775,0.21325 0.0159,-0.0221 -0.0385,-0.0385 -0.0578,-0.0577 -0.006,-0.0105 -0.006,-0.0363 -0.0168,-0.0314 -0.0192,0.009 -0.0228,0.0353 -0.0328,0.0537 -0.064,0.11731 -0.10748,0.24381 -0.15683,0.36764 -0.0421,0.12063 -0.11292,0.22663 -0.17396,0.33792 -0.0582,0.14859 -0.16415,0.26489 -0.2581,0.39051 -0.11174,0.16504 -0.24481,0.31462 -0.35674,0.47935 -0.10772,0.15394 -0.18752,0.32501 -0.27712,0.4897 -0.0674,0.13699 -0.14914,0.26543 -0.24181,0.38649 -0.0713,0.11167 -0.12082,0.23105 -0.19686,0.33954 -0.052,0.0622 -0.0855,0.13692 -0.13888,0.19784 -0.0562,0.0641 -0.11169,0.12886 -0.17458,0.18651 -0.0313,0.0111 -0.14837,0.18585 -0.0812,0.0807 0.003,-0.004 0.0147,-0.012 0.01,-0.012 -0.0235,-1.9e-4 -0.10682,0.0855 -0.12163,0.1014 -0.0526,0.0699 -0.047,0.0461 -0.10183,0.15927 0.0185,-0.0743 -0.0213,0.0776 0.11543,-0.14342 0.009,-0.0143 -0.031,0.0137 -0.0452,0.0227 -0.006,0.004 -0.0554,0.0412 -0.0625,0.0538 -0.0214,0.038 -0.0375,0.0787 -0.0562,0.11812 -0.009,0.0487 0.004,-0.0247 0.0516,-0.10366 0.007,-0.0109 0.0389,-0.0331 0.0289,-0.0252 -0.0152,0.012 -0.0311,0.0234 -0.0445,0.0375 -0.0253,0.0265 -0.0521,0.0732 -0.0291,0.0343 -0.10664,0.10713 0.0658,-0.0406 -0.0918,0.0738 -0.0433,0.0383 -0.0867,0.0764 -0.12944,0.11547 -0.0638,0.0585 -0.11871,0.1255 -0.18073,0.18571 -0.0573,0.0776 -0.12751,0.14307 -0.18455,0.22042 -0.0763,0.12182 -0.17281,0.22855 -0.262102,0.34074 -0.104995,0.15695 -0.253921,0.27436 -0.391395,0.40099 -0.214546,0.20632 -0.443905,0.39561 -0.679884,0.57664 -0.258146,0.2106 -0.49598,0.44398 -0.748443,0.66132 -0.274876,0.24618 -0.559631,0.48092 -0.831453,0.73051 -0.235921,0.25279 -0.485188,0.49129 -0.743956,0.72043 -0.331358,0.2673 -0.627414,0.57047 -0.914696,0.88358 -0.22738,0.25012 -0.469723,0.4862 -0.6829,0.749 -0.115438,0.14231 -0.168484,0.21869 -0.275675,0.3654 -0.20861,0.29675 -0.392282,0.60977 -0.581612,0.91886 -0.208815,0.35894 -0.359519,0.74731 -0.534167,1.12331 -0.197427,0.37812 -0.35668,0.7739 -0.50518,1.17323 -0.119036,0.35824 -0.227687,0.71975 -0.34408,1.0789 -0.124984,0.39457 -0.229256,0.796 -0.302054,1.20351 -0.06796,0.34222 -0.0719,0.6873 -0.04704,1.03391 0.02937,0.3592 0.118753,0.70812 0.216065,1.05377 0.105968,0.35926 0.218847,0.71614 0.340217,1.0705 0.111678,0.35207 0.248216,0.69343 0.403711,1.02817 0.20896,0.42597 0.42498,0.85186 0.683956,1.25028 0.126212,0.19416 0.188672,0.26188 0.330796,0.43617 0.401095,0.43501 0.736817,0.92324 1.125558,1.36855 0.330161,0.34776 0.691264,0.66419 1.035661,0.99765 0.29236,0.29493 0.601115,0.57282 0.915006,0.84449 0.32648,0.28152 0.667589,0.54579 0.972447,0.85133 0.192204,0.20427 0.371422,0.418 0.574829,0.61175 0.250809,0.25198 0.492164,0.51105 0.765095,0.7397 0.195123,0.16054 0.428156,0.28515 0.575686,0.49552 0.19915,0.28036 0.38754,0.56845 0.5739,0.85745 0.14855,0.23766 0.30814,0.46622 0.4935,0.6765 0.21055,0.21859 0.444,0.41326 0.66626,0.61963 0.17732,0.16196 0.36758,0.30771 0.53518,0.4801 0.12527,0.13142 0.2637,0.24826 0.40673,0.35951 0.10204,0.0788 0.20698,0.15394 0.31158,0.2293 0.0649,0.0433 0.12998,0.0854 0.19873,0.12232 0.0887,0.0372 -0.014,-0.002 -0.0129,-0.0139 0.0397,-0.42048 0.0319,-0.37647 0.0845,-0.17251 0,0 0.0308,0.0475 0.0308,0.0475 v 0 c 0.0433,0.0241 0.0982,0.11035 0.12988,0.0723 0.19622,-0.23566 0.15503,-0.32822 -0.003,-0.39847 -0.0463,-0.013 -0.0814,-0.0543 -0.12262,-0.0775 -0.0997,-0.0736 -0.1959,-0.15209 -0.29615,-0.22506 -0.12524,-0.0952 -0.24154,-0.20143 -0.35257,-0.31286 -0.17558,-0.17619 -0.36598,-0.33399 -0.55309,-0.49744 -0.21087,-0.19348 -0.42919,-0.3792 -0.62959,-0.5837 -0.16931,-0.18719 -0.30592,-0.3988 -0.44233,-0.61065 -0.19157,-0.3008 -0.38681,-0.59994 -0.59575,-0.88897 -0.18802,-0.24271 -0.41791,-0.40283 -0.66557,-0.58021 -0.266502,-0.21891 -0.501314,-0.46927 -0.744905,-0.7127 -0.202496,-0.18919 -0.375002,-0.40382 -0.568497,-0.60156 -0.317032,-0.30918 -0.661488,-0.58624 -1.002977,-0.86759 -0.306864,-0.26548 -0.613572,-0.53205 -0.900459,-0.81928 -0.335585,-0.32461 -0.69341,-0.62538 -1.020263,-0.95889 -0.389575,-0.43772 -0.721669,-0.92289 -1.123871,-1.35003 -0.04767,-0.0569 -0.09764,-0.112 -0.142999,-0.17078 -0.33251,-0.4309 -0.568449,-0.92976 -0.813594,-1.41254 -0.148899,-0.32019 -0.280921,-0.64552 -0.387458,-0.98255 -0.118798,-0.3467 -0.229068,-0.69592 -0.332954,-1.04733 -0.09059,-0.31476 -0.171816,-0.63297 -0.200629,-0.96035 -0.02159,-0.30845 -0.02085,-0.61493 0.04275,-0.91918 0.07137,-0.38712 0.166624,-0.76967 0.289142,-1.14394 0.113007,-0.35351 0.22188,-0.70823 0.336884,-1.06103 0.141695,-0.38838 0.302662,-0.77004 0.493342,-1.13713 0.16719,-0.36002 0.315727,-0.73034 0.514681,-1.07442 0.180707,-0.29891 0.358528,-0.60017 0.560488,-0.88545 0.09418,-0.12916 0.153783,-0.21434 0.254844,-0.33891 0.209203,-0.25785 0.449045,-0.48778 0.672536,-0.7328 0.146595,-0.15993 0.292171,-0.31996 0.450781,-0.46823 0.110927,-0.10369 0.160708,-0.14101 0.27908,-0.24418 0.05124,-0.0447 0.101719,-0.0902 0.15258,-0.13528 0.259726,-0.23241 0.511326,-0.47267 0.752576,-0.7243 0.265967,-0.24764 0.547454,-0.47751 0.818141,-0.71993 0.245653,-0.21149 0.479343,-0.43587 0.72874,-0.64279 0.246827,-0.18954 0.48655,-0.38768 0.710139,-0.60453 0.157202,-0.14239 0.321042,-0.28144 0.441792,-0.45781 0.0943,-0.11878 0.19372,-0.23384 0.2764,-0.36135 0.0376,-0.0602 0.0982,-0.10409 0.13496,-0.16573 0.0525,-0.0573 0.1082,-0.11189 0.16085,-0.16919 0.0392,-0.0359 0.0745,-0.0751 0.11516,-0.10932 -0.007,0.003 -0.0263,0.013 -0.0204,0.009 0.0602,-0.0435 0.12678,-0.0791 0.1673,-0.1448 0.008,-0.0117 0.0387,-0.0295 0.0254,-0.0352 -0.0136,-0.006 -0.0179,0.0236 -0.0285,0.0339 -0.008,0.008 -0.0369,0.0288 -0.0282,0.021 0.0548,-0.0486 0.108,-0.0785 0.11618,-0.17082 -0.0278,0.0532 -0.0301,0.0856 -0.0683,0.11565 -0.0156,0.0123 -0.0653,0.0437 -0.0523,0.0287 0.1578,-0.18177 0.12292,-0.0749 0.14907,-0.16446 -0.0784,0.14537 -0.0177,0.0306 0.008,0.008 -0.003,0.002 -0.0112,0.01 -0.009,0.007 0.0183,-0.0287 0.0562,-0.048 0.0786,-0.0703 0.0493,-0.061 0.0367,-0.058 0.0914,-0.11663 0.0559,-0.0752 0.12218,-0.14204 0.17993,-0.21577 0.0535,-0.0725 0.0912,-0.15351 0.14488,-0.22597 0.07,-0.10644 0.12107,-0.21961 0.18129,-0.33109 0.0999,-0.13876 0.18926,-0.28426 0.26059,-0.44003 0.0805,-0.15614 0.15326,-0.31733 0.25048,-0.46404 0.10547,-0.16303 0.22774,-0.3147 0.33632,-0.47565 0.0992,-0.14039 0.21045,-0.27276 0.2718,-0.43619 0.0656,-0.1263 0.14009,-0.24826 0.17853,-0.38665 0.0266,-0.0836 0.0524,-0.16816 0.0853,-0.24956 0.0219,-0.0543 0.0588,-0.10213 0.0776,-0.15755 0.0156,-0.046 0.0219,-0.0946 0.0328,-0.14193 -0.0878,-0.15296 -0.0691,-0.16101 -0.0734,-0.0112 -2.6e-4,0.0123 -0.004,-0.0264 0.003,-0.0368 0.09,-0.14035 0.21539,-0.2498 0.3316,-0.36715 0,0 -0.17285,-0.19391 -0.17285,-0.19391 z" />
      <path
         style="fill:#000000;stroke-width:0.874001"
         id="path14558"
         d="m 27.841595,50.863377 c 0.0999,0.24445 0.18805,0.49681 0.32071,0.72647 0.0506,0.0875 0.10808,0.16684 0.15554,0.25657 0.13236,0.27598 0.25143,0.55643 0.40226,0.82318 0.11523,0.16138 0.23387,0.32035 0.34848,0.48267 0.13123,0.20148 0.29886,0.37316 0.42624,0.57715 0.15205,0.25963 0.34696,0.48976 0.53478,0.72371 0.14309,0.19351 0.31066,0.3661 0.47049,0.54535 0.14968,0.17132 0.2883,0.35177 0.42826,0.53099 0.18709,0.23477 0.37689,0.46692 0.56171,0.70351 0.23741,0.29947 0.48577,0.58924 0.74663,0.86842 0.21135,0.2579 0.42586,0.5122 0.65192,0.75748 0.12071,0.12896 0.25338,0.24483 0.40132,0.34143 0.0889,0.0581 0.17823,0.10586 0.2625,0.17083 0.15591,0.13394 0.32619,0.24994 0.47825,0.3883 0.17877,0.15731 0.3414,0.33165 0.52269,0.48608 0.19679,0.13802 0.39306,0.27179 0.5661,0.43961 0.23613,0.21042 0.45616,0.43694 0.66952,0.67014 0.27562,0.31791 0.52338,0.65635 0.75257,1.00878 0.22909,0.34186 0.39176,0.71839 0.56906,1.08749 0.16233,0.27725 0.31077,0.55787 0.42086,0.85986 0.13554,0.35798 0.22453,0.73118 0.33386,1.09768 0.0978,0.30554 0.16714,0.61385 0.20803,0.93167 0.0338,0.33785 0.0142,0.678 -0.0185,1.015 -0.0219,0.25908 -0.0446,0.51803 -0.0666,0.77711 -0.0221,0.25369 -0.0468,0.50792 -0.0965,0.75785 -0.0563,0.27801 -0.15247,0.54467 -0.26588,0.80383 -0.1545,0.32197 -0.28662,0.65167 -0.38416,0.99518 -0.0452,0.16339 -0.0834,0.32835 -0.11115,0.49563 -0.015,0.0907 -0.0223,0.18139 -0.0425,0.27104 -0.0792,0.23898 -0.16352,0.47413 -0.26603,0.70416 -0.13662,0.24277 -0.27204,0.48621 -0.40829,0.7292 -0.15457,0.22752 -0.27991,0.47268 -0.42043,0.70848 -0.0801,0.14806 -0.16999,0.2904 -0.25469,0.43582 -0.103,0.17789 -0.20753,0.35469 -0.31719,0.52855 -0.0872,0.12556 -0.18091,0.2464 -0.25218,0.38194 -0.0463,0.0628 -0.0839,0.13148 -0.12736,0.19602 -0.0773,0.11582 -0.13415,0.24338 -0.2073,0.36176 10e-4,0.008 -0.14024,0.24645 -0.0743,0.1463 -0.0446,0.0602 -0.0796,0.1275 -0.11204,0.19504 -0.0672,0.0702 -0.0928,0.17096 -0.15499,0.24453 0.0242,-0.0347 0.0206,-0.0289 -0.0334,0.0412 -0.0144,0.0187 -0.03,0.0365 -0.0441,0.0554 -0.0439,0.0507 -0.067,0.11526 -0.0814,0.17957 -0.002,0.007 0.002,-0.0142 0.005,-0.0208 0.011,-0.026 0.0242,-0.051 0.0363,-0.0766 0.005,-0.006 0.0201,-0.0218 0.0136,-0.0179 -0.0436,0.0264 -0.0871,0.088 -0.11677,0.12517 -0.0484,0.0668 -0.0937,0.13582 -0.13434,0.2077 -0.004,0.007 -0.0172,0.0283 -0.0121,0.0218 0.006,-0.008 0.0224,-0.0314 0.0148,-0.0252 -0.003,0.003 -0.0659,0.0783 -0.0701,0.083 -0.0171,0.0191 -0.0485,0.0471 -0.0657,0.063 -0.0926,0.0803 -0.18343,0.1626 -0.27394,0.24529 -0.0444,0.0468 -0.0954,0.0812 -0.13812,0.1298 -0.005,0.006 -0.019,0.0222 -0.0143,0.0166 0.0663,-0.0799 -0.0744,0.0694 -0.0873,0.0857 -0.0395,0.006 -0.022,0.058 -0.0446,0.0775 -0.005,0.005 0.0133,-0.0249 0.008,-0.0201 -0.0197,0.0176 -0.0607,0.0642 -0.0742,0.0791 -0.0594,0.0722 -0.11159,0.14744 -0.15556,0.22997 -0.0511,0.0714 -0.0989,0.1451 -0.14847,0.21762 -0.11424,0.16734 -0.24434,0.32415 -0.39721,0.45754 -0.0678,0.0489 -0.14069,0.0856 -0.20788,0.13603 -0.13185,0.0855 -0.26529,0.16872 -0.39858,0.25212 -0.13909,0.0981 -0.26222,0.21576 -0.39579,0.32103 -0.18984,0.16712 -0.35369,0.36015 -0.54924,0.52136 -0.24369,0.17108 -0.46046,0.38607 -0.72366,0.52835 -0.17364,0.0793 -0.32719,0.1931 -0.48589,0.29765 -0.27673,0.18076 -0.53603,0.38688 -0.78352,0.60557 -0.19358,0.19075 -0.42566,0.3255 -0.65806,0.46141 -0.19212,0.11035 -0.40245,0.18222 -0.60356,0.27368 -0.0872,0.0483 -0.17587,0.0916 -0.26977,0.12523 -0.0932,0.0412 -0.18103,0.0936 -0.2739,0.13548 -0.0861,0.028 -0.17208,0.0559 -0.25765,0.0855 -0.11346,0.0325 -0.22501,0.07 -0.33428,0.11471 -0.0911,0.0445 -0.17921,0.095 -0.26262,0.15262 -0.0333,0.0218 -0.0951,0.0572 -0.15198,0.0947 -0.0685,0.0383 -0.13293,0.0836 -0.19616,0.12992 -0.0699,0.0387 -0.12196,0.12746 -0.18169,0.16699 -0.0713,0.0509 -0.12678,0.11683 -0.17335,0.1902 -0.008,0.0122 0.0344,-0.0262 0.024,-0.0362 -0.0103,-0.01 -0.0202,0.02 -0.0304,0.0301 -0.0696,0.0745 0.008,-0.0101 -0.0694,0.0789 -0.004,0.005 -0.0112,0.0194 -0.0133,0.0135 -0.007,-0.0189 0.1021,-0.0584 0.12338,-0.0645 0.45271,0.11688 0.0528,-0.0227 0.0715,-0.008 0.27639,0.22372 0.16395,0.0858 0.0986,0.006 -0.038,-0.0428 -0.0873,-0.0707 -0.13417,-0.10214 -0.0783,-0.0724 0.0781,0.0912 -0.0642,-0.065 -0.0276,-0.0235 -0.17153,-0.11676 -0.11953,-0.0766 -0.0591,-0.069 -0.1394,-0.11171 -0.21506,-0.15956 -0.0651,-0.0443 -0.13903,-0.0713 -0.20981,-0.10446 -0.0182,-0.007 -0.0362,-0.0139 -0.0547,-0.0198 -0.0414,-0.0131 -0.0664,-0.0184 -0.10674,-0.0276 -0.009,-0.002 -0.0368,-0.0105 -0.0282,-0.006 0.0107,0.005 0.0226,0.008 0.0343,0.009 0.006,8e-4 -0.011,-0.005 -0.0166,-0.007 -0.0537,-0.0247 -0.10779,-0.0486 -0.16154,-0.0733 0.0314,0.026 0.0547,0.0677 0.0941,0.0779 0.0819,0.0212 -0.10972,-0.0941 -0.10997,-0.0943 -0.007,-0.004 -0.0234,-0.0189 -0.0208,-0.0114 0.0309,0.0877 0.0648,0.17432 0.0973,0.26148 0.002,-0.0236 0.0287,-0.0741 0.005,-0.0708 -0.16402,0.0233 -0.35376,0.0277 -0.47747,0.13794 -0.11433,0.10182 0.41187,0.23694 0.44009,0.24641 0.13119,0.0514 0.25249,0.12322 0.38144,0.17936 0.0111,0.007 0.0939,0.0206 0.0943,-0.003 5.3e-4,-0.0353 -0.0435,-0.0662 -0.0341,-0.10021 0.009,-0.034 0.0539,-0.0454 0.0809,-0.0681 0,0 0.0545,-0.0154 0.0545,-0.0154 v 0 c 0.0256,-0.0276 0.0714,-0.0456 0.0767,-0.0829 0.006,-0.0422 -0.0385,-0.0769 -0.0483,-0.11838 -0.01,-0.0402 0.0604,-0.009 -0.0112,-0.0514 -0.14196,-0.0775 -0.27713,-0.16833 -0.43168,-0.22098 -0.0485,-0.0164 -0.12475,-0.0443 -0.17609,-0.0542 -0.005,-10e-4 -0.0172,-8e-4 -0.0152,0.004 0.0145,0.0338 0.0921,0.0824 0.0573,0.0944 -0.53983,0.1861 -0.52258,0.2167 -0.50322,2.7e-4 0.0296,0.0987 0.0563,0.19827 0.0889,0.29598 0.005,0.0154 0.0255,0.0204 0.0381,0.0307 0.002,10e-4 0.005,0.006 0.004,0.004 -0.0152,-0.0166 -0.0631,-0.064 -0.0455,-0.05 0.0393,0.0315 0.074,0.0683 0.11105,0.10241 0.0573,0.0307 0.11601,0.0582 0.17545,0.0844 0.0573,0.0279 0.1174,0.0436 0.17913,0.0572 0.0478,0.0209 0.097,0.0372 0.14085,0.0665 0.0506,0.0317 0.0874,0.0415 0.11184,0.0787 0.0187,0.0178 0.0363,0.0369 0.0561,0.0534 0.0169,0.0141 0.13144,0.0859 0.0806,0.0493 -0.01,-0.0129 -0.0386,-0.0524 -0.0299,-0.0386 0.038,0.0609 0.0926,0.11258 0.15045,0.15381 0.0104,0.007 0.0497,0.036 0.0605,0.0416 0.0101,0.005 -0.0175,-0.0145 -0.027,-0.0206 -0.009,-0.006 0.0684,0.0521 0.0219,0.0217 -0.009,-0.0141 -0.0162,-0.03 -0.0278,-0.0423 -0.009,-0.009 0.0124,0.0224 0.0193,0.0332 0.0103,0.0163 0.0167,0.0366 0.0322,0.0482 0.0575,0.0433 0.12653,0.0699 0.18337,0.11411 0.0176,0.0137 -0.0423,-0.014 -0.0635,-0.021 0.062,0.0106 0.12396,0.0212 0.18594,0.0318 0.11595,-0.0299 0.20149,-0.0933 0.27478,-0.18646 0.0636,-0.063 0.0765,-0.0953 0.11767,-0.12825 0.0773,-0.0611 0.12054,-0.11742 0.18779,-0.16911 0.0498,-0.043 0.11166,-0.0731 0.16698,-0.10806 0.0555,-0.0369 0.11466,-0.0675 0.16969,-0.10569 0.0419,-0.0259 0.095,-0.0567 0.14329,-0.0804 0.1004,-0.0398 0.20378,-0.07 0.30757,-0.0995 0.10384,-0.0359 0.21002,-0.0649 0.31193,-0.10619 0.0778,-0.036 0.15463,-0.0749 0.22909,-0.11708 0.10802,-0.0397 0.2142,-0.0844 0.31347,-0.14312 0.21921,-0.10037 0.44993,-0.17619 0.6573,-0.30156 0.26535,-0.15518 0.52937,-0.3123 0.75307,-0.52639 0.22705,-0.1985 0.465,-0.38444 0.71714,-0.55025 0.1473,-0.0952 0.28803,-0.20124 0.44856,-0.27405 0.29542,-0.16547 0.54968,-0.39395 0.81826,-0.59814 0.1886,-0.16129 0.35473,-0.34449 0.53537,-0.51378 0.1154,-0.0933 0.22605,-0.19198 0.34215,-0.28396 0.14814,-0.0953 0.29863,-0.18696 0.44352,-0.28731 0.0671,-0.0654 0.17788,-0.0846 0.23764,-0.16204 0.18695,-0.16838 0.35331,-0.35721 0.4924,-0.56728 0.0603,-0.0886 0.12398,-0.17494 0.18052,-0.26618 0.0228,-0.0406 0.0342,-0.0634 0.0789,-0.11952 0.0539,-0.0634 0.13214,-0.11844 0.16078,-0.1999 0.003,-0.008 -0.009,0.0138 -0.0142,0.0207 -0.10187,0.082 0.0769,-0.0534 0.068,-0.062 -0.0429,0.0489 0.0687,-0.061 0.0888,-0.0787 0.0955,-0.0839 0.18874,-0.17042 0.28473,-0.25385 0.0913,-0.0863 0.18075,-0.17798 0.24808,-0.28467 0.0242,-0.0436 0.0536,-0.0839 0.0836,-0.12366 0.003,-0.004 0.0705,-0.074 0.11507,-0.12279 0.0624,-0.11484 0.0454,-0.0649 0.0662,-0.14009 10e-4,-0.005 -0.002,0.0105 -0.005,0.0152 -0.0125,0.0212 -0.0256,0.042 -0.0376,0.0636 -0.003,0.005 0.007,-0.01 0.0103,-0.0143 0.0185,-0.0232 0.04,-0.0485 0.0577,-0.0709 0.004,-0.005 0.0159,-0.0211 0.0108,-0.0168 -0.0102,0.009 -0.0352,0.0399 -0.0264,0.0299 0.014,-0.0158 0.028,-0.0317 0.0419,-0.0475 0.0803,-0.11118 0.14451,-0.23316 0.21981,-0.34738 0.0134,-0.0324 0.0774,-0.13099 0.0157,-0.0488 0.0569,-0.0724 0.0971,-0.15111 0.1394,-0.23249 0.0707,-0.11628 0.12904,-0.23933 0.20236,-0.35382 0.053,-0.0863 0.11042,-0.16925 0.1612,-0.25691 -7.9e-4,-0.0173 0.0503,-0.0807 0.055,-0.0876 0.055,-0.0799 0.10881,-0.16075 0.16424,-0.24043 0.10939,-0.18025 0.21663,-0.36178 0.32296,-0.54385 0.0849,-0.14575 0.17236,-0.29003 0.25276,-0.43833 0.1371,-0.24206 0.2689,-0.48705 0.41642,-0.72315 0.14297,-0.25951 0.27866,-0.52289 0.41906,-0.78377 0.11737,-0.26903 0.2149,-0.54497 0.29552,-0.82724 0.0434,-0.24263 0.0581,-0.49078 0.1333,-0.72737 0.0865,-0.32216 0.20254,-0.63289 0.33936,-0.93736 0.12055,-0.2981 0.226,-0.60215 0.27996,-0.92031 0.0426,-0.26746 0.0682,-0.53732 0.0862,-0.80748 0.0198,-0.25979 0.039,-0.51945 0.057,-0.77937 0.0219,-0.37066 0.0357,-0.74404 -0.003,-1.11406 -0.0244,-0.17975 -0.0495,-0.35786 -0.0944,-0.53389 -0.0221,-0.0865 -0.0622,-0.20826 -0.0867,-0.2924 -0.017,-0.0584 -0.0326,-0.11716 -0.0489,-0.17574 -0.11225,-0.37625 -0.20639,-0.75893 -0.35016,-1.12477 -0.11963,-0.31383 -0.27234,-0.60873 -0.44857,-0.89476 -0.18974,-0.38371 -0.36492,-0.77533 -0.60713,-1.13067 -0.24606,-0.36882 -0.50993,-0.72411 -0.80594,-1.05484 -0.22222,-0.23818 -0.44889,-0.47224 -0.69825,-0.68248 -0.18291,-0.1674 -0.38095,-0.31218 -0.5878,-0.44846 -0.18068,-0.1496 -0.34362,-0.31914 -0.52467,-0.46843 -0.16332,-0.14148 -0.33979,-0.26601 -0.50511,-0.40514 -0.20779,-0.1521 -0.44719,-0.25927 -0.61507,-0.46303 -0.22702,-0.24626 -0.44398,-0.50044 -0.66079,-0.75554 -0.25674,-0.2685 -0.5022,-0.54671 -0.73464,-0.83666 -0.18743,-0.23421 -0.37787,-0.46566 -0.56667,-0.69875 -0.14603,-0.18395 -0.29369,-0.36663 -0.44647,-0.54505 -0.15737,-0.17385 -0.32349,-0.34009 -0.4639,-0.52863 -0.18355,-0.22335 -0.37443,-0.44233 -0.52392,-0.69074 -0.13926,-0.20195 -0.31067,-0.37651 -0.44899,-0.57914 -0.11349,-0.15162 -0.2313,-0.29866 -0.35221,-0.44371 -0.15646,-0.26251 -0.28623,-0.53811 -0.43031,-0.80731 -0.0226,-0.0361 -0.044,-0.073 -0.068,-0.10817 -0.0318,-0.0468 -0.0735,-0.0863 -0.10487,-0.13342 -0.14167,-0.21282 -0.22568,-0.45907 -0.3304,-0.69004 0,0 -0.1916,0.0758 -0.1916,0.0758 z" />
      <path
         style="fill:#000000;stroke-width:0.874001"
         id="path14560"
         d="m 27.673615,50.012837 c -0.0637,0.13381 -0.30818,0.44237 -0.23724,0.62076 0.0222,0.0559 0.0722,0.0971 0.11621,0.13812 0.0908,0.0847 0.0575,-0.001 0.0756,0.0532 -0.0144,0.13148 0.0407,0.2655 0.11782,0.36885 0.0566,0.0682 0.11736,0.13247 0.17337,0.20128 0.059,0.0547 0.11791,0.10972 0.17263,0.16877 0.0176,0.0348 0.0873,0.0983 0.0862,0.1302 0.0129,0.0696 0.0642,0.0896 0.12006,0.12622 0,0 0.055,0.0137 0.055,0.0137 v 0 c 0.0311,-0.0195 0.0694,-0.0305 0.0932,-0.0584 0.0421,-0.0495 0.0295,-0.12136 0.0142,-0.1761 -0.0339,-0.0903 -0.0944,-0.16548 -0.15404,-0.24066 -0.0506,-0.0517 -0.10186,-0.10571 -0.15866,-0.14999 -0.0557,-0.0682 -0.11545,-0.13259 -0.17145,-0.20047 -0.0995,-0.0968 -0.0328,-0.29171 -0.1473,-0.38829 -0.0281,-0.0235 -0.0542,-0.0495 -0.0842,-0.0704 -0.0134,-0.009 -0.0376,-0.0341 -0.0449,-0.0195 -0.0117,0.0235 0.017,0.0509 0.0163,0.0771 -2.3e-4,0.009 -0.0199,-0.0117 -0.0178,-0.0204 0.037,-0.14962 0.13771,-0.30086 0.20922,-0.42901 0,0 -0.23423,-0.14484 -0.23423,-0.14484 z" />
      <path
         style="fill:#000000;stroke-width:0.874001"
         id="path14562"
         d="m 24.871975,51.773257 c 0.17928,-0.4075 0.1059,-0.21265 0.22773,-0.58161 0,0 -0.0509,-0.0248 -0.0509,-0.0248 v 0 c -0.21497,0.32248 -0.1048,0.14562 -0.32507,0.53393 0,0 0.14827,0.0725 0.14827,0.0725 z" />
      <path
         style="fill:#000000;stroke-width:0.874001"
         id="path14564"
         d="m 18.035004,74.945437 c -0.07226,0.14239 -0.161046,0.2753 -0.238945,0.41444 -0.0191,0.0341 -0.02847,0.0735 -0.05037,0.10591 -0.02551,0.0377 -0.06273,0.066 -0.09302,0.1 -0.133125,0.12111 -0.212699,0.31453 -0.379865,0.39346 -0.173651,0.0315 -0.347416,-0.0255 -0.521647,-0.0283 -0.04425,-7.9e-4 -0.08843,0.004 -0.132639,0.006 -0.05026,0.0126 -0.102248,0.0196 -0.15077,0.0377 -0.311327,0.11646 -0.64575,0.42736 -0.886862,0.65134 -0.168722,0.18693 -0.275143,0.28767 -0.408434,0.49775 -0.09532,0.15022 -0.152033,0.29894 -0.222706,0.46053 -0.110333,0.25228 -0.06122,0.14605 -0.1882,0.39858 -0.190749,0.35047 -0.443725,0.66074 -0.656686,0.99727 -0.193772,0.30589 -0.403233,0.6037 -0.665879,0.85549 -0.182094,0.17457 -0.267983,0.22602 -0.465534,0.36683 -0.104709,0.0715 -0.209236,0.14332 -0.31413,0.21457 -0.250121,0.16989 -0.30217,0.20032 -0.540842,0.37248 -0.214363,0.15462 -0.421373,0.31748 -0.637472,0.46985 -0.323117,0.21892 -0.675952,0.38747 -1.019548,0.57061 -0.09694,0.0517 -0.473046,0.25883 -0.553878,0.30326 -0.423895,0.25458 -0.881314,0.44123 -1.327693,0.6503 -0.359267,0.16511 -0.678029,0.40401 -0.948134,0.69228 -0.05534,0.0591 -0.105524,0.12275 -0.158287,0.18413 -0.159036,0.20675 -0.260059,0.43238 -0.307501,0.68916 -0.01577,0.0853 -0.03261,0.17229 -0.02728,0.25891 0.0047,0.0759 0.03786,0.14724 0.05679,0.22086 0,0 0.05607,0.008 0.05607,0.008 v 0 c 0.03813,-0.0601 0.08391,-0.11587 0.114393,-0.18014 0.03327,-0.0701 0.04894,-0.14732 0.07555,-0.22022 0.07256,-0.19876 0.151879,-0.39342 0.282064,-0.56268 0.278723,-0.32757 0.597977,-0.61714 0.996024,-0.79236 0.45262,-0.21233 0.917496,-0.39978 1.346999,-0.65903 0.07112,-0.0391 0.457526,-0.25189 0.547524,-0.29985 0.356584,-0.19005 0.72218,-0.3659 1.056703,-0.59442 0.216064,-0.15267 0.42287,-0.31561 0.637027,-0.47073 0.281061,-0.20358 0.235063,-0.16466 0.536739,-0.37081 0.106476,-0.0728 0.212214,-0.14659 0.31832,-0.21989 0.228775,-0.16474 0.301739,-0.20557 0.51312,-0.41136 0.274669,-0.2674 0.49775,-0.58018 0.700503,-0.90372 0.217932,-0.34569 0.478573,-0.66374 0.671359,-1.02522 0.141353,-0.28243 0.07621,-0.14256 0.194722,-0.41482 0.04866,-0.11179 0.123129,-0.29437 0.188519,-0.39896 0.117485,-0.18793 0.21844,-0.28562 0.367805,-0.45337 0.209153,-0.19663 0.489251,-0.46274 0.7532,-0.58174 0.02688,-0.0121 0.05601,-0.0185 0.08402,-0.0277 0.264967,-0.0192 0.538384,0.0755 0.78945,-0.0464 0.03216,-0.0228 0.06649,-0.0428 0.09649,-0.0683 0.132551,-0.11289 0.201256,-0.28781 0.325761,-0.40848 0.06065,-0.0786 0.07983,-0.0951 0.122941,-0.1797 0.01164,-0.0229 -0.0031,-0.0556 0.02537,-0.0727 0.07404,-0.14218 0.163307,-0.27615 0.231667,-0.42142 0,0 -0.192791,-0.10743 -0.192791,-0.10743 z" />
      <path
         style="fill:#000000;stroke-width:0.874001"
         id="path14566"
         d="m 22.071325,79.654487 c -0.15492,0.26075 -0.27718,0.56071 -0.49664,0.77876 -0.0467,0.0464 -0.1108,0.0716 -0.16257,0.1123 -0.038,0.0298 -0.0731,0.0631 -0.109607,0.0947 -0.190172,0.18761 -0.356336,0.39764 -0.538538,0.59258 -0.110863,0.11861 -0.182976,0.18333 -0.301281,0.29527 -0.243372,0.21658 -0.492014,0.42605 -0.720971,0.6581 -0.267563,0.27488 -0.559875,0.52434 -0.816912,0.80913 -0.299291,0.35724 -0.59119,0.72044 -0.87295,1.09163 -0.3042,0.40358 -0.602938,0.81093 -0.89131,1.22596 -0.298776,0.42489 -0.538168,0.88667 -0.813324,1.32622 -0.183047,0.274 -0.385821,0.53312 -0.598379,0.78455 -0.21027,0.21799 -0.40355,0.49235 -0.694672,0.60618 -0.230968,0.0706 -0.42415,0.20676 -0.599532,0.36823 -0.245994,0.27792 -0.380759,0.63813 -0.475366,0.99223 -0.007,0.0662 -0.02223,0.13202 -0.02111,0.19857 0.0013,0.075 0.03803,0.33777 0.08712,0.40909 0.04327,0.0629 0.116038,0.0992 0.174058,0.14876 0,0 0.05325,-0.0193 0.05325,-0.0193 v 0 c 0.01717,-0.0631 0.04485,-0.12421 0.05151,-0.18925 0.0054,-0.053 -0.01225,-0.10594 -0.01588,-0.15911 -0.01127,-0.16507 -0.0071,-0.13748 0.01098,-0.2991 0.07525,-0.29009 0.186915,-0.58597 0.376113,-0.82162 0.145248,-0.13504 0.305017,-0.24435 0.498197,-0.30041 0.04105,-0.0183 0.0837,-0.0333 0.123143,-0.0548 0.282339,-0.15391 0.485772,-0.42203 0.702924,-0.65066 0.223374,-0.26437 0.436374,-0.53698 0.628192,-0.82542 0.271759,-0.43497 0.509352,-0.8911 0.803897,-1.31192 0.285509,-0.41103 0.580839,-0.81463 0.882565,-1.21392 0.275672,-0.36336 0.56161,-0.71868 0.85476,-1.06811 0.252635,-0.28149 0.543801,-0.52484 0.80663,-0.79679 0.225856,-0.22964 0.47253,-0.43575 0.710785,-0.65219 0.292563,-0.28002 0.553706,-0.58741 0.825098,-0.88756 0.0267,-0.0249 0.052,-0.0515 0.0802,-0.0748 0.0823,-0.0683 0.14527,-0.097 0.221,-0.17804 0.22863,-0.24471 0.36378,-0.56325 0.52356,-0.8517 0,0 -0.28492,-0.1376 -0.28492,-0.1376 z" />
      <path
         style="fill:#000000;stroke-width:0.874001"
         id="path14568"
         d="m 22.114855,80.361267 c 0.004,-0.005 0.26396,-0.36346 0.30431,-0.42335 0.0133,-0.0197 0.0507,-0.0434 0.0355,-0.0617 -0.0504,-0.0607 -0.14069,-0.0763 -0.19639,-0.13223 -0.0123,-0.0124 0.0356,-0.0238 0.0503,-0.0144 0.0421,0.0268 0.0673,0.0738 0.101,0.11067 0.0751,-0.10219 0.10968,-0.22368 0.13344,-0.3462 0.0179,-0.0632 0.0224,-0.073 0.0295,-0.15555 -0.031,-0.0873 -10e-4,-0.0446 -0.1558,0.0143 0,0 0.0443,0.0353 0.0443,0.0353 v 0 c -0.12044,0.02 -0.10621,0.0566 -0.11774,-0.001 0.0338,-0.15687 -0.0224,0.0301 -0.0255,0.0635 -0.0208,0.10884 -0.0553,0.21109 -0.11874,0.30361 0.0217,0.0662 0.0207,0.14485 0.0651,0.19849 0.0201,0.0243 0.0956,0.026 0.0946,-0.006 -0.002,-0.0686 -0.0554,-0.12789 -0.10049,-0.17961 -0.01,-0.0114 -0.0124,0.0278 -0.0209,0.0403 -0.0967,0.14259 -0.20745,0.27541 -0.30168,0.41975 0,0 0.17927,0.13369 0.17927,0.13369 z" />
      <path
         style="fill:#000000;stroke-width:0.874001"
         id="path14570"
         d="m 30.323165,79.896247 c 0.25044,0.10717 0.4767,0.19678 0.71596,0.32488 0.0836,0.0448 0.20374,0.0975 0.25127,0.19418 0.009,0.0188 0.006,0.0415 0.0102,0.0621 0.009,0.0424 0.0189,0.0845 0.0283,0.1268 0.0199,0.0818 0.0397,0.16372 0.0598,0.24553 0.0199,0.0811 0.0407,0.16206 0.0603,0.24329 0.0369,0.15333 0.0634,0.31451 0.12938,0.45931 0.0206,0.0451 0.0465,0.0876 0.0698,0.13145 0.16465,0.2398 0.31505,0.48935 0.49158,0.72064 0.23553,0.30889 0.55314,0.52118 0.88812,0.70701 0.38384,0.18616 0.75553,0.39382 1.1235,0.60904 0.17832,0.10227 0.35459,0.20837 0.55143,0.272 0.21642,0.07 0.4506,0.097 0.67333,0.13756 0.12139,0.0209 0.3491,0.0589 0.48002,0.085 0.048,0.01 0.19435,0.0387 0.24885,0.0659 0.0669,0.0335 0.10278,0.0843 0.15197,0.13854 0.20213,0.25808 0.27384,0.57634 0.37784,0.87907 0.12305,0.29046 0.26962,0.57171 0.42331,0.8472 0.17022,0.2759 0.26023,0.58761 0.3576,0.89392 0.064,0.2044 0.17386,0.38007 0.31983,0.53578 0.0524,0.0559 0.11288,0.10377 0.16637,0.15864 0.22379,0.22959 0.23339,0.25483 0.43979,0.51214 0.30702,0.38428 0.46103,0.86267 0.75694,1.25378 0.0713,0.0942 0.15412,0.17918 0.23117,0.26877 0.19357,0.16527 0.38205,0.34618 0.61086,0.46518 0.1033,0.0537 0.21792,0.0821 0.32687,0.12311 0,0 0.03,-0.048 0.03,-0.048 v 0 c -0.0815,-0.0779 -0.15842,-0.16089 -0.24454,-0.23364 -0.0896,-0.0757 -0.18786,-0.14063 -0.28179,-0.21094 -0.0911,-0.0801 -0.1822,-0.16011 -0.27329,-0.24017 -0.20464,-0.23822 -0.22825,-0.24543 -0.38999,-0.51339 -0.19971,-0.33089 -0.34369,-0.7013 -0.5919,-1.00472 -0.22232,-0.27625 -0.22026,-0.28809 -0.46095,-0.53366 -0.0479,-0.0489 -0.10204,-0.0915 -0.1495,-0.14078 -0.12814,-0.13319 -0.22222,-0.2822 -0.27582,-0.4601 -0.10188,-0.32048 -0.19803,-0.64553 -0.376,-0.93419 -0.14561,-0.26516 -0.28583,-0.53477 -0.4066,-0.81205 -0.11514,-0.33307 -0.19819,-0.68188 -0.42883,-0.96072 -0.0971,-0.0974 -0.11896,-0.13587 -0.24455,-0.19651 -0.0381,-0.0184 -0.0801,-0.0277 -0.121,-0.0386 -0.20899,-0.0558 -0.42536,-0.0771 -0.63682,-0.12059 -0.20883,-0.0373 -0.4296,-0.0619 -0.63317,-0.12534 -0.1861,-0.058 -0.35074,-0.15969 -0.51951,-0.25452 -0.36964,-0.21619 -0.74292,-0.42499 -1.12854,-0.6119 -0.30965,-0.16895 -0.60185,-0.36437 -0.81943,-0.64814 -0.17186,-0.2205 -0.31268,-0.46297 -0.47447,-0.69091 -0.0197,-0.0346 -0.0418,-0.068 -0.0592,-0.10386 -0.0355,-0.0735 -0.0567,-0.15424 -0.0766,-0.23278 -0.0579,-0.22819 -0.10952,-0.45808 -0.17167,-0.68524 -0.0186,-0.0763 -0.0439,-0.20868 -0.0883,-0.2771 -0.0732,-0.11257 -0.20797,-0.17972 -0.32008,-0.23781 -0.24732,-0.12815 -0.47136,-0.21467 -0.72971,-0.32241 0,0 -0.0721,0.1773 -0.0721,0.1773 z" />
      <path
         style="fill:#000000;stroke-width:0.874001"
         id="path14572"
         d="m 35.026965,74.679187 c 0.25326,0.23003 0.49011,0.48694 0.78412,0.66731 0.17839,0.10944 0.31283,0.16813 0.50443,0.26114 0.52025,0.27879 1.18437,0.52939 1.56347,1.00264 0.28132,0.35119 0.28152,0.49009 0.40987,0.90733 0.0803,0.27534 0.0501,0.56364 0.0934,0.84306 0.0151,0.0975 0.0245,0.2004 0.0712,0.28734 0.18127,0.33756 0.58369,0.49619 0.9023,0.66585 0.49272,0.2811 0.79483,0.77856 1.25139,1.10365 0.28795,0.20503 0.47403,0.26541 0.79847,0.40706 0.58083,0.20519 1.06986,0.58259 1.60326,0.87759 0.20252,0.112 0.61101,0.30762 0.81762,0.40827 0.46987,0.20965 0.85566,0.54704 1.26741,0.84513 0.30594,0.22149 0.40621,0.27387 0.74427,0.48265 0.49779,0.26688 1.04118,0.63906 1.61594,0.7133 0.21922,0.0283 0.3242,-0.008 0.53966,-0.0463 0.59791,-0.127 1.1722,-0.34819 1.7687,-0.47818 0.0474,0.002 0.0958,-0.005 0.14219,0.005 0.0906,0.0194 0.44666,0.18649 0.46981,0.19657 0.10092,0.0439 0.20261,0.0861 0.30391,0.12914 0,0 0.0312,-0.0473 0.0312,-0.0473 v 0 c -0.23476,-0.22202 -0.4678,-0.46803 -0.80167,-0.5284 -0.0652,-0.0118 -0.13243,1.1e-4 -0.19864,1.7e-4 -0.59294,0.12821 -1.16525,0.34109 -1.76059,0.46167 -0.16428,0.0271 -0.26436,0.0578 -0.43007,0.0333 -0.22567,-0.0334 -0.42061,-0.1156 -0.62706,-0.21237 -0.35596,-0.16684 -0.54285,-0.28733 -0.88791,-0.48897 -0.32245,-0.20698 -0.41862,-0.25999 -0.71024,-0.47669 -0.23598,-0.17534 -0.29979,-0.24744 -0.54557,-0.42164 -0.33518,-0.23757 -0.39922,-0.2595 -0.77378,-0.46955 -0.1709,-0.0832 -0.62277,-0.30055 -0.79435,-0.39464 -0.54684,-0.2999 -1.04881,-0.68431 -1.64441,-0.89081 -0.27736,-0.11647 -0.47635,-0.18238 -0.7242,-0.35159 -0.47868,-0.32679 -0.79484,-0.84524 -1.31411,-1.1222 -0.10748,-0.0571 -0.21591,-0.11233 -0.32243,-0.17116 -0.0956,-0.0528 -0.36089,-0.1841 -0.43193,-0.30459 -0.0415,-0.0704 -0.0527,-0.15568 -0.0655,-0.23646 -0.0477,-0.30111 -0.0138,-0.61262 -0.11029,-0.90796 -0.16134,-0.48218 -0.15923,-0.62514 -0.49705,-1.02583 -0.41799,-0.49579 -1.0865,-0.73447 -1.64649,-1.02132 -0.15521,-0.0721 -0.33257,-0.15117 -0.48475,-0.2335 -0.29289,-0.15846 -0.54344,-0.38033 -0.78969,-0.60166 0,0 -0.12185,0.13339 -0.12185,0.13339 z" />
      <path
         style="fill:#000000;stroke-width:0.874001"
         id="path14582"
         d="m 19.746432,76.050357 c -0.179308,-0.37126 -0.358052,-0.74283 -0.518379,-1.12273 -0.144984,-0.36536 -0.285417,-0.73296 -0.3981,-1.10972 -0.105236,-0.37326 -0.182438,-0.75428 -0.236098,-1.13819 -0.04349,-0.40474 -0.104778,-0.8065 -0.141669,-1.21202 -0.0031,-0.0785 -0.0073,-0.15697 -0.0095,-0.23551 -0.0033,-0.1185 -7.94e-4,-0.26783 -0.0087,-0.38771 -0.01437,-0.21424 -0.04984,-0.42749 -0.07669,-0.64036 -0.0064,-0.0817 -0.0141,-0.16322 -0.01913,-0.24497 -0.01302,-0.21114 -0.0032,-0.2452 -0.03105,-0.45748 -0.03037,-0.23184 -0.100042,-0.45383 -0.164441,-0.67774 -0.135792,-0.54084 -0.263184,-1.08439 -0.377394,-1.63031 -0.01146,-0.0434 -0.02294,-0.0868 -0.0344,-0.13027 0,0 -0.0566,0.002 -0.0566,0.002 v 0 c -0.008,0.0486 -0.01593,0.0971 -0.02389,0.14564 0.0063,0.0641 0.0089,0.12862 0.01908,0.1922 0.01884,0.11822 0.09683,0.44204 0.119441,0.54211 0.06928,0.30661 0.129929,0.61535 0.2129,0.9187 0.06095,0.21496 0.129114,0.42866 0.158451,0.65096 0.02657,0.20135 0.01863,0.25214 0.03086,0.45527 0.0051,0.0843 0.01262,0.16841 0.01894,0.25261 0.02714,0.20809 0.06242,0.41684 0.07654,0.62639 0.0079,0.11744 0.0055,0.27368 0.0088,0.38878 0.0024,0.0809 0.0066,0.16177 0.0099,0.24266 0.0083,0.0948 0.01508,0.18965 0.02495,0.28425 0.03262,0.31254 0.09139,0.62181 0.116602,0.93523 0.055,0.39164 0.133401,0.77944 0.238088,1.161 0.114499,0.38219 0.255786,0.75588 0.407689,1.12468 0.167269,0.3804 0.354899,0.75162 0.542046,1.12252 0,0 0.111755,-0.0582 0.111755,-0.0582 z" />
      <path
         style="fill:#000000;stroke-width:0.874001"
         id="path14584"
         d="m 21.743525,77.680597 c -0.0963,-0.54449 -0.30418,-1.05897 -0.43146,-1.59574 -0.09335,-0.39365 -0.09453,-0.46074 -0.146635,-0.83646 -0.05169,-0.47419 -0.115316,-0.94734 -0.155038,-1.4228 -0.01635,-0.19561 -0.03641,-0.56136 -0.04743,-0.74951 -0.03253,-0.50659 -0.03265,-1.01505 0.01847,-1.52049 0.03071,-0.30362 0.09849,-0.65724 0.139452,-0.95863 0.02217,-0.16321 0.03863,-0.32715 0.05795,-0.49072 0.04145,-0.35948 0.04219,-0.72025 0.0259,-1.08099 -0.0042,-0.0922 -0.01238,-0.18429 -0.01492,-0.27659 -0.009,-0.32584 -0.0011,-0.33836 0.01818,-0.66911 0.08047,-0.74307 0.205741,-1.48128 0.357871,-2.21285 0.12991,-0.54342 0.2772,-1.08301 0.45259,-1.61353 0.0947,-0.22096 0.13638,-0.46434 0.24207,-0.68089 0.0632,-0.12951 0.0846,-0.14778 0.17451,-0.27663 0.19083,-0.27149 0.41577,-0.51581 0.62717,-0.77097 0,0 -0.0383,-0.0417 -0.0383,-0.0417 v 0 c -0.0845,0.0591 -0.17426,0.11129 -0.25357,0.17717 -0.20743,0.17233 -0.32732,0.31897 -0.50434,0.51599 -0.0419,0.0586 -0.0871,0.11499 -0.12575,0.17577 -0.16136,0.25357 -0.20782,0.56141 -0.32302,0.83482 -0.1777,0.53831 -0.32933,1.08501 -0.4598,1.63669 -0.154116,0.74194 -0.281442,1.49057 -0.362,2.24427 -0.0191,0.35394 -0.02653,0.34566 -0.01527,0.69271 0.01434,0.4414 0.06581,0.88303 0.0065,1.32436 -0.01709,0.16161 -0.0313,0.32356 -0.05128,0.48484 -0.03327,0.26857 -0.106763,0.70389 -0.131345,0.97481 -0.04653,0.51283 -0.03929,1.02828 -0.0078,1.54167 0.01294,0.21203 0.03148,0.53922 0.04987,0.75563 0.04059,0.47773 0.103688,0.95332 0.158787,1.42948 0.05156,0.35611 0.06268,0.48966 0.154797,0.85637 0.133538,0.53161 0.353851,1.03792 0.462011,1.57645 0,0 0.1218,-0.0234 0.1218,-0.0234 z" />
      <path
         style="fill:#000000;stroke-width:0.874001"
         id="path14586"
         d="m 24.996285,81.202217 c -0.072,-0.53215 -0.18694,-1.05802 -0.23116,-1.59385 -0.0125,-0.15132 -0.028,-0.54288 -0.0342,-0.68537 -0.003,-0.13621 -0.01,-0.27237 -0.0102,-0.40861 -5.3e-4,-0.12669 -0.002,-0.25358 0.006,-0.38002 0.0175,-0.27872 0.058,-0.48311 0.10956,-0.75785 0.0442,-0.23528 0.0929,-0.46969 0.13926,-0.70455 0.11772,-0.54239 0.12825,-1.11133 0.25314,-1.65125 0.0284,-0.12272 0.0641,-0.24364 0.0962,-0.36546 0.20866,-0.61919 0.37451,-1.25114 0.55726,-1.87809 0.17319,-0.58306 0.35117,-1.16485 0.51001,-1.75203 0.19251,-0.76904 0.20888,-1.54763 0.0848,-2.32758 -0.0694,-0.33963 -0.11428,-0.68435 -0.11759,-1.03143 -0.002,-0.25313 0.0135,-0.48826 0.0266,-0.74047 -5.3e-4,-0.0884 -10e-4,-0.17672 -0.002,-0.26508 0,0 -0.0369,-0.004 -0.0369,-0.004 v 0 c -0.0189,0.0869 -0.0377,0.17374 -0.0566,0.26061 -0.0148,0.12103 -0.0343,0.24157 -0.0443,0.36309 -0.0396,0.48198 -0.002,0.96568 0.10238,1.43757 0.0284,0.17748 0.05,0.29119 0.0625,0.47715 0.0406,0.60365 0.004,1.2098 -0.13144,1.80026 -0.15209,0.58795 -0.3285,1.16923 -0.49887,1.75206 -0.0811,0.27454 -0.15334,0.55107 -0.23146,0.82638 -0.10046,0.35407 -0.21649,0.70347 -0.3238,1.05546 -0.0323,0.12416 -0.0683,0.2474 -0.0968,0.37247 -0.0947,0.41584 -0.12203,0.84502 -0.18697,1.26584 -0.0198,0.12861 -0.0421,0.25683 -0.0632,0.38525 -0.0719,0.36436 -0.15687,0.72979 -0.20924,1.09762 -0.0556,0.39056 -0.0569,0.7837 -0.0366,1.17703 0.006,0.12204 0.0261,0.55894 0.0376,0.6911 0.0468,0.53655 0.16832,1.06216 0.24406,1.59469 0,0 0.0813,-0.0111 0.0813,-0.0111 z" />
      <path
         style="fill:#000000;stroke-width:0.874001"
         id="path14588"
         d="m 29.051735,61.932587 c -0.0591,0.76935 -0.0654,1.5411 -0.0957,2.31179 -0.005,0.13271 -0.0108,0.2654 -0.016,0.39811 -0.0147,0.37317 -0.025,0.49634 -0.0145,0.8743 0.0113,0.406 0.0543,0.8096 0.0913,1.21374 0.0123,0.12572 0.0232,0.25158 0.0369,0.37716 0.0272,0.25053 0.0452,0.38557 0.0875,0.62979 0.0259,0.16596 0.0663,0.32919 0.095,0.49462 0.0161,0.0928 0.0287,0.1861 0.0431,0.27916 0.0613,0.50985 0.035,1.02355 0.022,1.5352 -0.0246,0.5602 -0.031,1.12082 -0.0157,1.68131 0.006,0.45564 0.0344,0.91215 0.0134,1.36786 -0.0103,0.22351 -0.029,0.36001 -0.0536,0.58554 -0.0736,0.53941 -0.11016,1.08423 -0.21738,1.61847 -0.0672,0.28598 -0.12643,0.57365 -0.14867,0.86711 -0.003,0.0444 -0.014,0.32664 -0.016,0.37847 -0.008,0.34212 -0.10002,0.67452 -0.17114,1.0073 -0.0682,0.26801 -0.10624,0.54246 -0.17478,0.81027 -0.0592,0.19655 -0.056,0.40379 -0.0894,0.60497 -0.0376,0.17493 -0.059,0.35257 -0.0799,0.53007 -0.0201,0.13349 -0.0248,0.26867 -0.0405,0.40255 -0.0264,0.10285 -0.036,0.20873 -0.061,0.31198 -0.0352,0.0888 -0.0548,0.18186 -0.0785,0.27384 -0.007,0.0184 -0.0189,0.0436 -0.025,0.0685 -0.006,0.0113 0.009,-0.0169 0.007,-0.0124 -0.0173,0.0483 -0.0233,0.0363 0.0243,0.0527 0.004,0.0131 0.008,0.0261 0.0122,0.0391 0,0 0.0483,0.0296 0.0483,0.0296 v 0 c 0.01,0.004 0.0198,0.007 0.0297,0.0106 0.0517,-0.0109 0.0633,-0.0162 0.0757,-0.042 0.0373,-0.0717 0.005,-0.0256 0.0369,-0.0969 0.0204,-0.0936 0.0485,-0.18424 0.0806,-0.27449 0.0244,-0.11152 0.0393,-0.22458 0.0651,-0.33574 0.0151,-0.13379 0.0203,-0.2687 0.0405,-0.402 0.0204,-0.17395 0.0449,-0.34752 0.0794,-0.5193 0.0332,-0.19521 0.0313,-0.39594 0.0866,-0.587 0.0688,-0.27072 0.10827,-0.54771 0.17579,-0.81883 0.0737,-0.34509 0.16696,-0.68959 0.17676,-1.04431 0.002,-0.0375 0.0126,-0.33089 0.0151,-0.36509 0.0206,-0.28649 0.0798,-0.56702 0.14457,-0.84627 0.10792,-0.54102 0.1441,-1.09207 0.21842,-1.63822 0.0257,-0.24428 0.0422,-0.36248 0.0528,-0.60383 0.0202,-0.45946 -0.0105,-0.9193 -0.0183,-1.37863 -0.0173,-0.55688 -0.0137,-1.11376 0.01,-1.67048 0.0112,-0.52343 0.0332,-1.04888 -0.033,-1.56998 -0.0152,-0.0958 -0.0283,-0.19199 -0.0456,-0.28745 -0.0295,-0.16293 -0.0688,-0.32395 -0.0985,-0.48683 -0.0465,-0.25519 -0.0602,-0.35407 -0.0918,-0.61818 -0.015,-0.12507 -0.0277,-0.2504 -0.0416,-0.3756 -0.0418,-0.39882 -0.0871,-0.79722 -0.10315,-1.19819 -0.0148,-0.36786 -0.007,-0.5022 0.003,-0.86706 0.004,-0.13294 0.008,-0.26585 0.0122,-0.39878 0.0188,-0.77028 0.0203,-1.5408 0.0507,-2.31077 0,0 -0.10434,-0.006 -0.10434,-0.006 z" />
      <path
         style="fill:#000000;stroke-width:0.874001"
         id="path14590"
         d="m 35.316945,74.150327 c 0.0398,-0.1464 0.16802,-0.36258 0.13996,-0.52407 -0.0205,-0.11824 -0.0781,-0.0914 -0.11708,-0.17878 -0.0349,-0.17759 -0.0255,-0.36184 -0.0657,-0.53849 -0.0105,-0.0462 -0.0253,-0.0913 -0.038,-0.13691 -0.13125,-0.36308 -0.22213,-0.74157 -0.38162,-1.09423 -0.0311,-0.0688 -0.0675,-0.13508 -0.10131,-0.20262 -0.0376,-0.0635 -0.0742,-0.12771 -0.11293,-0.19059 -0.094,-0.15266 -0.11941,-0.17144 -0.19763,-0.33178 -0.0922,-0.18904 -0.15051,-0.3956 -0.21638,-0.59451 -0.12472,-0.4043 -0.27674,-0.80027 -0.37882,-1.21117 -0.0812,-0.3675 -0.0272,-0.7416 -0.0271,-1.11299 -10e-4,-0.0311 -0.007,-0.26136 -0.0165,-0.30307 -0.0153,-0.0652 -0.0512,-0.12373 -0.0766,-0.18567 0,0 -0.0562,0.007 -0.0562,0.007 v 0 c -0.003,0.0209 -0.005,0.0422 -0.0101,0.0628 -0.01,0.0407 -0.0287,0.0793 -0.0348,0.12075 -0.006,0.0391 -0.002,0.26808 -10e-4,0.29754 -0.002,0.38731 -0.055,0.77753 0.0319,1.16049 0.10202,0.41616 0.25602,0.81695 0.3812,1.22648 0.0699,0.21116 0.13143,0.42752 0.22984,0.62787 0.0837,0.17036 0.10242,0.18111 0.19941,0.33883 0.0361,0.0587 0.0706,0.11843 0.10587,0.17764 0.0314,0.0631 0.0652,0.12512 0.0942,0.18938 0.15621,0.346 0.24538,0.71714 0.37434,1.0732 0.0331,0.11206 0.0362,0.10586 0.0512,0.21573 0.0239,0.17469 0.0185,0.35536 0.0909,0.52023 0.0184,0.0212 0.0343,0.0448 0.0551,0.0636 0.006,0.005 0.0147,0.007 0.0225,0.007 0.007,2e-5 0.017,-0.013 0.0195,-0.007 0.046,0.11488 -0.0856,0.3641 -0.10506,0.46762 0,0 0.14088,0.0554 0.14088,0.0554 z" />
      <path
         style="fill:#000000;stroke-width:0.874001"
         id="path14592"
         d="m 37.495845,62.961007 c -0.092,-0.23018 -0.21858,-0.439 -0.38514,-0.62241 -0.0731,-0.0805 -0.1676,-0.15966 -0.24589,-0.23529 -0.0457,-0.0441 -0.0898,-0.0898 -0.13472,-0.13473 -0.20934,-0.21185 -0.39726,-0.44418 -0.60844,-0.65423 -0.12839,-0.12771 -0.17719,-0.16452 -0.31148,-0.27785 -0.25788,-0.21341 -0.53405,-0.40604 -0.82554,-0.57098 -0.0749,-0.0424 -0.1476,-0.0914 -0.22898,-0.11943 -0.0876,-0.0302 -0.18178,-0.0357 -0.27267,-0.0536 0,0 -0.0307,0.0476 -0.0307,0.0476 v 0 c 0.0547,0.0759 0.099,0.16056 0.16425,0.22765 0.0599,0.0616 0.13617,0.10475 0.20664,0.15382 0.26364,0.18359 0.54799,0.3384 0.79057,0.55165 0.12203,0.0993 0.17496,0.13869 0.29181,0.25032 0.21882,0.20907 0.41798,0.4384 0.64145,0.64282 0.0504,0.0433 0.10021,0.0874 0.15132,0.12993 0.0646,0.0537 0.17813,0.13837 0.2396,0.1963 0.16409,0.15463 0.29074,0.33735 0.3898,0.53979 0,0 0.16808,-0.0714 0.16808,-0.0714 z" />
      <path
         style="fill:#000000;stroke-width:0.874001"
         id="path14594"
         d="m 15.010412,63.669937 c 0.106778,-0.1496 0.133429,-0.20316 0.260459,-0.32548 0.04771,-0.0459 0.201332,-0.15355 0.242532,-0.18577 0.0363,-0.0284 0.210953,-0.17579 0.249931,-0.20857 0.227671,-0.21613 0.498068,-0.37357 0.777685,-0.51189 0.372025,-0.15741 0.73629,-0.33168 1.118253,-0.46422 0.04614,-0.0123 0.09193,-0.0259 0.13843,-0.0367 0.08938,-0.0208 0.180507,-0.0333 0.269904,-0.054 0.142555,-0.0329 0.281104,-0.0789 0.419995,-0.12435 0.08976,-0.01 0.147658,-0.0692 0.221734,-0.11053 0,0 0.0054,-0.0564 0.0054,-0.0564 v 0 c -0.0956,-0.0574 -0.175557,-0.0948 -0.291074,-0.0626 -0.137004,0.0318 -0.270616,0.0741 -0.407461,0.10624 -0.09425,0.0221 -0.190341,0.0359 -0.284482,0.0585 -0.05211,0.0125 -0.103302,0.0286 -0.154951,0.0429 -0.06769,0.0236 -0.136057,0.0453 -0.203055,0.0708 -0.320161,0.12184 -0.625816,0.27869 -0.94122,0.41172 -0.297908,0.14818 -0.584092,0.32122 -0.820079,0.55898 -0.27486,0.25277 -0.557604,0.47459 -0.741701,0.80915 0,0 0.139671,0.0823 0.139671,0.0823 z" />
      <path
         style="fill:#000000;stroke-width:0.874001"
         id="path14596"
         d="m 25.172105,51.382737 c 0.12577,-0.42934 0.20794,-0.69202 0.31431,-1.14648 0.0477,-0.20372 0.0842,-0.4099 0.12623,-0.61485 0,0 -0.0331,-0.008 -0.0331,-0.008 v 0 c -0.0613,0.19976 -0.12606,0.39846 -0.18374,0.59928 -0.10921,0.38024 -0.20148,0.7652 -0.30907,1.14589 0,0 0.0854,0.0246 0.0854,0.0246 z" />
      <path
         style="fill:#000000;stroke-width:0.874001"
         id="path14598"
         d="m 25.498255,51.837917 c 0.0534,-0.8729 0.003,-0.1111 0.0956,-1.24776 0.0923,-1.12982 0.0216,-0.41802 0.1117,-1.26963 0,0 -0.0252,-0.003 -0.0252,-0.003 v 0 c -0.11246,0.83606 -0.2449,1.67103 -0.27475,2.5156 0,0 0.0926,0.005 0.0926,0.005 z" />
      <path
         style="fill:#000000;stroke-width:0.874001"
         id="path14600"
         d="m 25.701015,51.210027 c 0.0945,-0.52558 0.15442,-1.05659 0.24205,-1.58322 0.039,-0.23462 0.0889,-0.46733 0.13328,-0.70099 0,0 -0.0556,-0.0106 -0.0556,-0.0106 v 0 c -0.0445,0.23387 -0.0865,0.46822 -0.13339,0.70161 -0.27042,1.34549 -0.12475,0.4781 -0.29472,1.57871 0,0 0.10842,0.0145 0.10842,0.0145 z" />
      <path
         style="fill:#000000;stroke-width:0.874001"
         id="path14602"
         d="m 26.367505,51.283217 c -0.0658,-0.97256 -0.0319,-0.42636 -0.0969,-1.63891 0,0 -0.0566,2.3e-4 -0.0566,2.3e-4 v 0 c -0.0556,1.22833 -0.0678,0.67324 -0.002,1.66566 0,0 0.15588,-0.027 0.15588,-0.027 z" />
      <path
         style="fill:#000000;stroke-width:0.874001"
         id="path14604"
         d="m 26.524565,50.985957 c 0.0764,-0.73287 0.0925,-1.47052 0.16001,-2.20403 0.0184,-0.19968 0.0532,-0.39751 0.0798,-0.59627 0,0 -0.0561,-0.008 -0.0561,-0.008 v 0 c -0.13674,0.93071 -0.30239,1.85917 -0.33004,2.80209 0,0 0.14636,0.006 0.14636,0.006 z" />
      <path
         style="fill:#000000;stroke-width:0.874001"
         id="path14606"
         d="m 26.884585,50.691057 c 0.0272,-0.78375 -0.008,-1.56726 -0.0465,-2.34987 0,0 -0.0566,5.3e-4 -0.0566,5.3e-4 v 0 c -0.0209,0.78328 -0.0513,1.56656 -0.0453,2.35026 0,0 0.14843,-0.001 0.14843,-0.001 z" />
      <path
         style="fill:#000000;stroke-width:0.874001"
         id="path14608"
         d="m 27.069105,50.974357 c -0.14297,-1.30262 -0.0869,-0.68912 -0.17577,-1.8398 0,0 -0.0565,0.004 -0.0565,0.004 v 0 c 0.0611,1.15357 0.0332,0.53738 0.0795,1.84875 0,0 0.1528,-0.0126 0.1528,-0.0126 z" />
      <path
         style="fill:#000000;stroke-width:0.874001"
         id="path14610"
         d="m 27.318565,51.415157 c -0.12964,-1.07616 -0.0603,-0.543 -0.20763,-1.59954 0,0 -0.0564,0.005 -0.0564,0.005 v 0 c 0.0549,1.06876 0.0144,0.53062 0.12287,1.61433 0,0 0.14115,-0.0201 0.14115,-0.0201 z" />
      <path
         style="fill:#000000;stroke-width:0.874001"
         id="path14612"
         d="m 27.547485,51.416757 c -0.0686,-0.4096 -0.10416,-0.82366 -0.16301,-1.23455 -0.0352,-0.24577 -0.079,-0.49022 -0.11855,-0.73533 0,0 -0.0564,0.005 -0.0564,0.005 v 0 c 0.007,0.24913 0.005,0.4987 0.0216,0.7474 0.0392,0.59777 0.0716,0.72199 0.16177,1.25525 0,0 0.15455,-0.0381 0.15455,-0.0381 z" />
      <path
         style="fill:#000000;stroke-width:0.874001"
         id="path14614"
         d="m 27.701865,50.549397 c -0.0226,-0.2761 -0.0451,-0.5522 -0.0677,-0.82831 0,0 -0.0566,0.002 -0.0566,0.002 v 0 c -0.005,0.27584 -0.0102,0.55167 -0.0153,0.82751 0,0 0.13964,-0.001 0.13964,-0.001 z" />
      <path
         style="fill:#000000;stroke-width:0.874001"
         id="path14616"
         d="m 26.139085,49.430607 c -0.0136,-0.15539 -0.0271,-0.31078 -0.0407,-0.46617 0,0 -0.0303,0.001 -0.0303,0.001 v 0 c -0.004,0.15615 -0.007,0.31231 -0.011,0.46847 0,0 0.082,-0.003 0.082,-0.003 z" />
      <path
         style="fill:#000000;stroke-width:0.874001"
         id="path14618"
         d="m 26.075695,49.678037 c -0.0313,-1.18749 -0.0234,-0.61895 -0.0273,-1.70558 0,0 -0.0566,-10e-4 -0.0566,-10e-4 v 0 c -0.0439,1.09 -0.029,0.519 -0.0399,1.71309 0,0 0.12385,-0.006 0.12385,-0.006 z" />
      <path
         style="fill:#000000;stroke-width:0.874001"
         id="path14620"
         d="m 24.776375,51.460167 c -0.17623,-0.008 -0.0562,-0.0189 -0.0708,0.34411 -1.1e-4,0.003 -0.005,-9e-5 -0.008,-8e-4 -0.0203,-0.005 -0.0404,-0.0118 -0.0605,-0.0178 0.006,-0.10513 0.0148,-0.21013 0.0175,-0.31539 9e-5,-0.003 -0.006,0.002 -0.01,0.003 -0.005,0.002 -0.009,0.003 -0.0138,0.005 -0.0294,0.0132 -0.0393,0.0231 -0.0642,0.0455 -0.0261,0.0342 -0.0147,0.016 -0.0341,0.0547 0,0 0.31458,0.12857 0.31458,0.12857 v 0 c -0.0189,0.0374 -0.008,0.0199 -0.0329,0.0525 -0.009,0.008 -0.0176,0.0163 -0.0268,0.0239 -0.009,0.007 -0.0195,0.0117 -0.0301,0.0154 -0.001,5.3e-4 0.003,-10e-4 0.004,-0.002 0.0107,-0.10674 0.0215,-0.21348 0.0322,-0.32021 -0.0212,-0.006 -0.0423,-0.0138 -0.0638,-0.0194 -0.006,-0.002 -0.0169,-0.007 -0.0174,-0.002 -0.0338,0.37119 -0.11977,0.34407 0.0541,0.34807 0,0 0.009,-0.34461 0.009,-0.34461 z" />
      <path
         style="fill:#000000;stroke-width:0.874001"
         id="path14622"
         d="m 24.708065,51.789027 c 0.0542,-0.0749 0.0369,-0.032 0.0472,-0.13057 0,0 -0.028,-0.0493 -0.028,-0.0493 v 0 c -0.0868,-0.0421 -0.0429,-0.034 -0.13011,-0.0311 0,0 0.11092,0.21089 0.11092,0.21089 z" />
      <path
         style="fill:#000000;stroke-width:0.874001"
         id="path14624"
         d="m 25.124385,51.311857 c 0.0389,-0.0554 0.0294,-0.0246 0.0283,-0.0924 0,0 -0.0395,-0.0406 -0.0395,-0.0406 v 0 c -0.0647,-0.006 -0.0344,-0.0128 -0.091,0.0201 0,0 0.10226,0.11292 0.10226,0.11292 z" />
      <path
         style="fill:#000000;stroke-width:0.874001"
         id="path14626"
         d="m 25.419025,49.994887 c 0.0358,0.0663 0.0252,0.0757 0.10495,0.10004 0.0204,0.006 0.0426,0.003 0.0638,0.005 0,0 0.0459,-0.0332 0.0459,-0.0332 v 0 c 0.0142,-0.0441 0.032,-0.0789 0.0178,-0.12777 -0.006,-0.0191 -0.0226,-0.0327 -0.034,-0.0491 0,0 -0.19851,0.10508 -0.19851,0.10508 z" />
      <path
         style="fill:#000000;stroke-width:0.874001"
         id="path14628"
         d="m 25.570685,51.301887 c 0.10772,-0.11411 0.0665,-0.0462 0.11632,-0.20793 0,0 -0.0361,-0.0437 -0.0361,-0.0437 v 0 c -0.16613,0.0179 -0.0934,-0.009 -0.22172,0.0709 0,0 0.14147,0.1807 0.14147,0.1807 z" />
      <path
         style="fill:#000000;stroke-width:0.874001"
         id="path14630"
         d="m 25.957345,49.725687 c 0.0378,0.0565 0.0759,0.12073 0.12791,0.16588 0.0303,0.0264 0.0673,0.0439 0.10098,0.0658 0,0 0.0501,-0.0264 0.0501,-0.0264 v 0 c -0.001,-0.0444 0.006,-0.0899 -0.004,-0.13323 -0.0197,-0.085 -0.0608,-0.12504 -0.11082,-0.18774 0,0 -0.16463,0.11562 -0.16463,0.11562 z" />
      <path
         style="fill:#000000;stroke-width:0.874001"
         id="path14632"
         d="m 26.371745,50.697797 c 0.0963,-0.0917 0.0512,-0.0457 0.13587,-0.13758 0,0 -0.0322,-0.0466 -0.0322,-0.0466 v 0 c -0.11839,0.0481 -0.0585,0.0203 -0.17922,0.0846 0,0 0.0755,0.0996 0.0755,0.0996 z" />
      <path
         style="fill:#000000;stroke-width:0.874001"
         id="path14634"
         d="m 26.682905,49.797657 c 0.0989,-0.0951 0.0592,-0.0375 0.11207,-0.17756 0,0 -0.0184,-0.0536 -0.0184,-0.0536 v 0 c -0.14989,-0.0737 -0.0718,-0.06 -0.23344,-0.0451 0,0 0.13978,0.27622 0.13978,0.27622 z" />
      <path
         style="fill:#000000;stroke-width:0.874001"
         id="path14636"
         d="m 27.182515,50.744267 c 0.0947,-0.008 0.24131,-0.0179 0.33163,-0.0335 0.0562,-0.01 0.11512,-0.0146 0.16669,-0.0391 0.0637,-0.0302 0.0975,-0.0817 0.13645,-0.13346 0,0 -0.007,-0.0563 -0.007,-0.0563 v 0 c -0.0547,-0.0414 -0.0997,-0.0815 -0.17652,-0.0906 -0.0596,-0.007 -0.12022,0.007 -0.17922,0.0185 -0.12568,0.024 -0.21117,0.0609 -0.32795,0.10468 0,0 0.0555,0.22971 0.0555,0.22971 z" />
      <path
         style="fill:#000000;stroke-width:0.874001"
         id="path14638"
         d="m 26.955845,50.764227 c 0.14744,-0.041 0.0763,-0.005 0.20622,-0.12203 0,0 -0.003,-0.0566 -0.003,-0.0566 v 0 c -0.12621,-0.10022 -0.0625,-0.0694 -0.1824,-0.10871 0,0 -0.0211,0.28731 -0.0211,0.28731 z" />
      <path
         style="fill:#28170b;stroke-width:0.244781"
         d="m 25.190809,50.358685 c 0.02384,-0.326049 0.07472,-0.676177 0.11309,-0.778068 0.03837,-0.101891 0.09898,-0.585404 0.134692,-1.074476 0.03571,-0.489072 0.09843,-1.272699 0.139361,-1.741392 0.107056,-1.225722 0.110805,-5.171832 0.0056,-5.889898 -0.04767,-0.325389 -0.170449,-0.790646 -0.272835,-1.033904 l -0.186156,-0.442288 0.08508,-1.26325 c 0.0468,-0.694788 0.132477,-1.630053 0.190402,-2.078371 0.2495,-1.931011 0.266449,-2.174828 0.218853,-3.148018 -0.06423,-1.313442 -0.202631,-2.309254 -0.470453,-3.385074 -0.120094,-0.482396 -0.240927,-1.027144 -0.26852,-1.210545 -0.140692,-0.935138 -0.619342,-2.310046 -1.21892,-3.501311 -0.160001,-0.317899 -0.164713,-0.315635 0.329489,-0.15838 0.256704,0.08168 0.723304,0.124175 1.519086,0.138341 0.631719,0.01124 1.617403,0.04514 2.190409,0.07533 l 1.041828,0.05488 -0.02252,0.195008 c -0.111402,0.965222 -0.443931,3.147955 -0.616741,4.048303 -0.261543,1.362654 -0.341373,2.123138 -0.48228,4.594312 -0.127407,2.234382 -0.137969,4.078028 -0.0276,4.816618 0.07603,0.508793 0.166661,4.369276 0.166132,7.07672 -2.44e-4,1.233011 -0.20051,4.496927 -0.280856,4.577271 -0.0177,0.0177 -0.05392,-0.09627 -0.08048,-0.25327 -0.07134,-0.421635 -0.112379,-0.544809 -0.181504,-0.544809 -0.03413,0 -0.04834,0.141719 -0.03158,0.314933 0.01677,0.173213 0.0086,0.264915 -0.01815,0.20378 -0.02676,-0.06114 -0.07918,-0.131149 -0.116509,-0.155588 -0.03733,-0.02445 -0.085,-0.30788 -0.105942,-0.629865 -0.03938,-0.605417 -0.155996,-1.045763 -0.249346,-0.941535 -0.02941,0.03283 -0.108056,0.493194 -0.174771,1.023022 -0.174357,1.384665 -0.173818,1.382231 -0.184885,0.833644 -0.0073,-0.362945 -0.03726,-0.500187 -0.109114,-0.500187 -0.06576,0 -0.09763,-0.09333 -0.09487,-0.277882 0.0105,-0.701952 -0.03423,-1.352359 -0.093,-1.352359 -0.03552,0 -0.08322,0.358468 -0.106003,0.796594 -0.02278,0.438129 -0.0922,0.979998 -0.154265,1.204156 l -0.112848,0.407559 0.03599,-0.555763 0.03599,-0.555762 -0.157305,0.324868 c -0.08652,0.178679 -0.171178,0.395425 -0.188132,0.481661 -0.01696,0.08624 -0.07874,0.323522 -0.13729,0.527301 l -0.106466,0.37051 z"
         id="path14711" />
      <path
         style="fill:#808080;stroke-width:0.244781"
         d="m 25.667284,81.566987 c -0.04551,-0.05484 -0.21054,-0.157332 -0.366726,-0.227761 L 25.016583,81.21117 24.892142,80.30888 c -0.215347,-1.561436 -0.161595,-2.332519 0.352173,-5.051991 0.0539,-0.285292 0.351811,-1.38035 0.662033,-2.43346 0.637138,-2.162913 0.751541,-2.833016 0.634584,-3.716989 -0.04314,-0.326048 -0.09683,-1.021709 -0.119303,-1.545915 -0.04232,-0.987025 -0.125182,-1.106263 -0.211119,-0.303808 -0.03089,0.288478 -0.0021,0.771552 0.0792,1.334371 0.207248,1.432644 0.167516,1.69705 -0.706593,4.702103 -0.298101,1.024824 -0.557001,2.087999 -0.629177,2.583707 -0.06745,0.463272 -0.169521,1.063498 -0.226822,1.333833 -0.138041,0.651264 -0.134625,2.242635 0.0067,3.113966 0.06207,0.382693 0.101936,0.706713 0.0886,0.720048 -0.01333,0.01333 -0.414843,-0.328671 -0.892246,-0.760011 -0.631717,-0.570762 -0.983711,-0.958299 -1.293053,-1.423617 -0.233778,-0.35165 -0.512366,-0.739579 -0.619086,-0.862065 -0.254495,-0.292095 -0.69932,-1.874502 -0.846047,-3.009715 -0.18569,-1.436672 -0.218207,-3.026212 -0.0806,-3.939969 0.06617,-0.439361 0.120306,-1.252053 0.120306,-1.805985 0,-1.502052 0.26225,-3.09123 0.789358,-4.783317 0.225311,-0.723281 0.335939,-0.953548 0.666663,-1.387634 0.218088,-0.28625 0.396523,-0.537924 0.396523,-0.559279 0,-0.191807 -0.646803,0.347002 -0.891141,0.74235 -0.598614,0.968579 -1.323364,4.414753 -1.2149,5.776836 0.0309,0.388048 0.0026,0.963951 -0.082,1.66729 -0.229357,1.907267 -0.05327,4.439049 0.416467,5.987822 0.127426,0.420145 0.217511,0.778071 0.200189,0.795393 -0.01733,0.01733 -0.465995,-0.409739 -0.997048,-0.949026 -0.873355,-0.886899 -0.987504,-1.033983 -1.195461,-1.540425 -0.517216,-1.259583 -0.703517,-2.228503 -0.896835,-4.664273 -0.07305,-0.920348 -0.540993,-3.142086 -0.694533,-3.297531 -0.121333,-0.122836 -0.0016,0.820221 0.202438,1.593188 0.103883,0.393734 0.220548,1.128498 0.264734,1.66729 0.208298,2.539942 0.401706,3.588774 0.847788,4.597445 0.103913,0.234964 0.179576,0.436566 0.16814,0.448001 -0.01143,0.01143 -0.457882,-0.385503 -0.992108,-0.882087 -0.90969,-0.845597 -1.855171,-1.897896 -2.428761,-2.703158 -0.737301,-1.0351 -1.599179,-3.421967 -1.599179,-4.428736 0,-0.681058 0.295172,-1.824421 0.822018,-3.184106 0.296683,-0.765681 0.41384,-0.910768 1.152335,-1.427025 0.34045,-0.237996 1.350634,-0.655207 1.93086,-0.797449 0.899086,-0.220417 0.891953,-0.519877 -0.008,-0.337071 -0.492072,0.09995 -1.548114,0.524015 -1.987589,0.798139 -0.360146,0.224642 -0.381,0.218525 -0.233302,-0.06842 0.522848,-1.015783 1.86155,-2.460956 3.947895,-4.261887 1.797548,-1.551639 2.973216,-2.844605 3.626668,-3.988507 0.230751,-0.403947 0.530225,-0.893895 0.665493,-1.088776 0.135268,-0.194879 0.329425,-0.536676 0.431456,-0.759542 0.102034,-0.222869 0.23309,-0.405217 0.291235,-0.405217 0.05815,0 0.105722,-0.03335 0.105722,-0.0741 0,-0.04076 0.06967,-0.143772 0.154824,-0.228926 0.08515,-0.08515 0.200985,-0.293565 0.257405,-0.463137 0.100843,-0.303091 0.101878,-0.29859 0.06116,0.265978 -0.02619,0.363143 -0.01402,0.574288 0.03311,0.574288 0.041,0 0.09634,-0.108373 0.123002,-0.240829 0.02666,-0.132458 0.09258,-0.34087 0.146492,-0.463137 0.05391,-0.122269 0.120531,-0.405707 0.148037,-0.629864 0.07163,-0.583774 0.10332,-0.666131 0.236606,-0.614985 0.08779,0.03369 0.106183,0.114793 0.0764,0.336828 -0.05562,0.414679 0.02551,1.104678 0.125958,1.071237 0.04509,-0.015 0.09418,-0.09122 0.109085,-0.169357 0.0149,-0.07813 0.06028,-0.162988 0.100846,-0.188566 0.04056,-0.02558 0.09873,-0.309015 0.129265,-0.629864 l 0.05552,-0.583364 0.01037,0.463137 c 0.0057,0.254725 0.04371,0.463137 0.08446,0.463137 0.04076,0 0.0741,0.0628 0.0741,0.13956 0,0.07724 0.06618,0.156866 0.148204,0.178316 0.09789,0.02558 0.148204,0.101076 0.148204,0.222306 0,0.126116 0.0504,0.196731 0.161062,0.225668 0.244208,0.06386 0.298087,-0.01058 0.251431,-0.347371 -0.03446,-0.248748 -0.02831,-0.274087 0.03227,-0.132938 0.04116,0.09592 0.211537,0.329338 0.378609,0.518713 0.167068,0.189379 0.404926,0.544399 0.528566,0.788935 0.258487,0.511233 1.160912,1.794137 1.720122,2.445358 0.209987,0.244536 0.6629,0.794743 1.006472,1.22268 0.899486,1.120351 1.752947,2.057797 2.102327,2.309206 0.557186,0.400947 1.482452,1.204413 2.119503,1.840495 0.577117,0.576241 1.258771,1.471909 1.258771,1.653976 0,0.04107 -0.225084,-0.142621 -0.500187,-0.408209 -0.563457,-0.543973 -1.240221,-1.00474 -1.573697,-1.071436 -0.439735,-0.08794 -0.21966,0.211982 0.541409,0.737865 0.505788,0.349488 1.688261,1.438031 2.109272,1.941727 0.09308,0.11136 0.292793,0.590187 0.443801,1.064059 0.271865,0.853114 0.274479,0.873238 0.265904,2.047213 -0.0098,1.334757 -0.115795,1.96864 -0.460862,2.754847 -0.122169,0.278347 -0.306324,0.846397 -0.409236,1.262332 -0.102915,0.415933 -0.242375,0.865997 -0.309915,1.000144 -0.231952,0.460706 -1.311825,2.285137 -1.376061,2.324835 -0.03534,0.02186 -0.06426,-0.04389 -0.06426,-0.146087 0,-0.31328 -0.368072,-1.387451 -0.662987,-1.934845 -0.153705,-0.285292 -0.406379,-0.90211 -0.561496,-1.370708 -0.24465,-0.739058 -0.283943,-0.952958 -0.29644,-1.613662 -0.0079,-0.418915 -0.03354,-0.780801 -0.05693,-0.804188 -0.136962,-0.136961 -0.200589,0.126392 -0.200589,0.830228 0,0.685684 0.0307,0.871048 0.266158,1.607344 0.146386,0.45775 0.384286,1.049023 0.528667,1.313937 0.286903,0.526417 0.687213,1.633191 0.687213,1.900007 0,0.09233 0.0377,0.250621 0.08379,0.351764 0.07443,0.163367 0.03514,0.268523 -0.351986,0.941924 -0.267399,0.465143 -0.651087,0.989537 -0.993039,1.357204 -0.306499,0.329547 -0.655233,0.744363 -0.774965,0.921819 -0.119735,0.177454 -0.419169,0.458179 -0.665411,0.623832 -0.246245,0.16565 -0.662639,0.500589 -0.925322,0.744305 -0.262684,0.243715 -0.749454,0.618492 -1.081715,0.832834 -0.332258,0.214344 -0.784251,0.535503 -1.00443,0.713684 -0.220175,0.178181 -0.512527,0.403008 -0.649671,0.499618 -0.225382,0.158769 -0.245525,0.162119 -0.209544,0.03486 0.02188,-0.07744 0.07797,-0.440904 0.124602,-0.807707 0.04664,-0.366805 0.166064,-1.050393 0.265391,-1.519087 0.09933,-0.468696 0.213251,-1.196226 0.253158,-1.616736 0.03991,-0.42051 0.08867,-0.790636 0.108366,-0.822497 0.01968,-0.03186 0.09019,-0.454763 0.156665,-0.939779 0.09276,-0.676799 0.120264,-1.47125 0.118298,-3.41675 -0.0024,-2.318107 -0.0172,-2.615972 -0.173644,-3.482784 -0.155524,-0.861682 -0.171106,-1.165193 -0.171357,-3.337668 -2.25e-4,-1.742361 -0.0232,-2.389789 -0.08494,-2.389783 -0.117189,1e-5 -0.206436,2.28147 -0.152183,3.890354 0.02434,0.722246 0.106087,1.630778 0.191563,2.129377 0.133374,0.777997 0.146426,1.129421 0.123852,3.334581 -0.0185,1.806752 -0.05843,2.691585 -0.14954,3.31376 -0.06837,0.466855 -0.139904,0.874067 -0.15897,0.904912 -0.01905,0.03085 -0.06537,0.399156 -0.102899,0.818465 -0.03753,0.419306 -0.149727,1.129181 -0.24933,1.577496 -0.0996,0.448315 -0.220967,1.146477 -0.2697,1.551467 -0.04873,0.404989 -0.11747,0.812262 -0.152749,0.905049 -0.06928,0.182235 -0.544177,0.448956 -1.155666,0.649079 -0.210013,0.06873 -0.56996,0.256743 -0.799886,0.417806 -0.229925,0.161062 -0.429154,0.292841 -0.442732,0.292841 -0.01357,0 -0.06192,-0.04487 -0.107434,-0.09971 z m 3.217918,-25.249563 c 0.02738,-0.04431 0.0141,-0.116255 -0.02954,-0.159885 -0.09247,-0.09247 -0.333028,0.06575 -0.26567,0.174736 0.0564,0.09126 0.235188,0.08226 0.295209,-0.01484 z"
         id="path14782" />
      <path
         style="fill:#333333;stroke-width:0.874001"
         id="path14833"
         d="m 28.181915,56.146727 c 0.0659,0.21398 0.0583,0.20153 0.13031,0.39479 0.0186,0.05 0.0372,0.10008 0.058,0.14922 0.0404,0.0954 0.0765,0.17015 0.1392,0.25392 0.0264,0.0353 0.0589,0.0655 0.0883,0.0983 0.0141,0.0123 0.0543,0.0513 0.0423,0.0369 -0.0169,-0.0204 -0.0407,-0.0345 -0.0574,-0.0551 -0.0581,-0.0718 -0.0528,-0.11959 -0.0566,-0.0846 0,0 0.92133,-0.38878 0.92133,-0.38878 v 0 c -0.0275,-0.0633 -0.0357,-0.0872 -0.0891,-0.15781 -0.0236,-0.0312 -0.0546,-0.0562 -0.0814,-0.0847 -0.005,-0.005 0.0104,0.01 0.0157,0.0149 0.0123,0.0162 0.0262,0.0312 0.0368,0.0485 0.003,0.005 0.006,0.0205 0.003,0.0159 -0.0119,-0.0193 -0.0214,-0.0399 -0.0303,-0.0607 -0.0174,-0.0408 -0.033,-0.0825 -0.0486,-0.12403 -0.08,-0.21402 -0.0268,-0.0899 -0.085,-0.22118 0,0 -0.98639,0.1644 -0.98639,0.1644 z" />
      <path
         style="fill:#333333;stroke-width:0.173086"
         d="m 25.231173,50.278299 c -0.0011,-0.129685 0.03374,-0.400844 0.07729,-0.602575 0.226938,-1.051121 0.419655,-4.74223 0.367961,-7.047516 -0.03763,-1.678088 -0.07279,-1.98556 -0.29963,-2.619893 -0.0876,-0.244962 -0.170926,-0.554834 -0.185177,-0.68861 -0.03691,-0.346496 0.118155,-2.288416 0.286015,-3.581818 0.121801,-0.938509 0.142526,-1.285325 0.140893,-2.357906 -0.0021,-1.351727 -0.08117,-2.171978 -0.313343,-3.248668 -0.06836,-0.317008 -0.197353,-0.918273 -0.286655,-1.336146 -0.346305,-1.62044 -0.599596,-2.417839 -1.132499,-3.565247 -0.155599,-0.335026 -0.282908,-0.621686 -0.282908,-0.637024 0,-0.01535 0.159157,0.01648 0.353687,0.0707 0.2706,0.07542 0.661403,0.110357 1.663631,0.148706 0.720471,0.02757 1.704896,0.06583 2.187612,0.08504 l 0.877665,0.03491 v 0.163515 c 0,0.248888 -0.344762,2.56509 -0.576466,3.872857 -0.348459,1.966735 -0.470191,3.332451 -0.584692,6.559674 -0.05368,1.512795 -0.05044,1.873354 0.02588,2.881884 0.138134,1.825358 0.22248,6.719142 0.145849,8.462259 -0.06485,1.475205 -0.135369,2.548025 -0.198035,3.012876 l -0.03532,0.261991 -0.06066,-0.292113 c -0.03336,-0.160663 -0.07639,-0.333105 -0.09561,-0.383207 -0.05822,-0.151723 -0.140385,-0.03975 -0.142158,0.193733 -0.0016,0.19744 -0.0089,0.210024 -0.0736,0.124722 -0.03956,-0.05218 -0.08671,-0.264393 -0.104777,-0.47158 -0.07127,-0.817361 -0.203335,-1.269185 -0.317149,-1.085027 -0.01921,0.03109 -0.08616,0.419359 -0.148759,0.862809 -0.111191,0.787659 -0.192415,1.079338 -0.192415,0.690967 0,-0.114215 -0.02901,-0.204901 -0.07065,-0.220882 -0.0522,-0.02003 -0.07984,-0.219715 -0.105858,-0.764675 -0.03469,-0.726715 -0.08501,-0.990211 -0.154516,-0.809088 -0.01773,0.04623 -0.0585,0.396597 -0.09059,0.778605 -0.03208,0.382011 -0.07766,0.77709 -0.101288,0.877957 -0.039,0.166507 -0.04366,0.154445 -0.05065,-0.130995 l -0.0077,-0.314389 -0.138441,0.26199 c -0.07614,0.144095 -0.191674,0.438833 -0.256741,0.654974 -0.117713,0.39102 -0.118313,0.391805 -0.1202,0.157194 z"
         id="path15591" />
      <ellipse
         style="fill:#808080;stroke-width:0.874001"
         id="path15695"
         cx="28.502317"
         cy="56.72324"
         rx="1.4409418"
         ry="0.99555975" />
    </g>
  </g>
</svg>
