<?xml version="1.0" encoding="UTF-8" standalone="no"?>
<!-- Created with Inkscape (http://www.inkscape.org/) -->

<svg
   width="210mm"
   height="297mm"
   viewBox="0 0 210 297"
   version="1.1"
   id="svg14020"
   inkscape:version="1.2 (dc2aedaf03, 2022-05-15)"
   sodipodi:docname="raiz-fibrosa-2.svg"
   xmlns:inkscape="http://www.inkscape.org/namespaces/inkscape"
   xmlns:sodipodi="http://sodipodi.sourceforge.net/DTD/sodipodi-0.dtd"
   xmlns="http://www.w3.org/2000/svg"
   xmlns:svg="http://www.w3.org/2000/svg">
  <sodipodi:namedview
     id="namedview14022"
     pagecolor="#505050"
     bordercolor="#eeeeee"
     borderopacity="1"
     inkscape:showpageshadow="0"
     inkscape:pageopacity="0"
     inkscape:pagecheckerboard="0"
     inkscape:deskcolor="#505050"
     inkscape:document-units="mm"
     showgrid="false"
     inkscape:zoom="1.4770342"
     inkscape:cx="398.09504"
     inkscape:cy="540.94887"
     inkscape:window-width="2560"
     inkscape:window-height="1369"
     inkscape:window-x="2552"
     inkscape:window-y="-8"
     inkscape:window-maximized="1"
     inkscape:current-layer="layer1" />
  <defs
     id="defs14017" />
  <g
     inkscape:label="Camada 1"
     inkscape:groupmode="layer"
     id="layer1">
    <path
       style="fill:#000000;stroke-width:0.874001"
       id="path14196"
       d="m 90.859799,96.71333 c -0.159202,0.827603 -0.149198,1.721382 -0.48338,2.511568 -0.09731,0.230081 -0.254151,0.43139 -0.355899,0.659545 -0.09329,0.209187 -0.173958,0.423767 -0.260938,0.635657 -0.45862,1.27203 -0.894283,2.55236 -1.275961,3.84962 -0.416554,1.28856 -0.858247,2.57644 -1.411485,3.81357 -0.591011,1.23579 -1.187165,2.46837 -1.756527,3.71441 -0.753464,1.65013 -1.672749,3.21746 -2.530716,4.81432 -1.087985,1.98316 -1.704964,4.16658 -2.37437,6.31367 -0.534115,1.87805 -1.173033,3.74133 -1.450549,5.68212 -0.111189,0.77759 -0.10142,1.58571 -0.124841,2.36765 -0.0131,0.43764 -0.03011,0.87516 -0.04516,1.31274 -0.09182,2.20204 -0.233436,4.39826 -0.230894,6.60299 0.01918,1.70741 -0.06611,3.41498 -0.02891,5.12235 0.02432,1.11603 0.07412,1.68771 0.147278,2.80001 0.240165,2.53197 0.628504,5.04552 0.874744,7.57744 0.161467,1.84924 0.39755,3.69342 0.507011,5.54711 0.05338,0.90395 0.04985,1.3452 0.06175,2.23263 0.01498,0.43927 0.02617,0.87869 0.04492,1.31782 0.06088,1.4256 0.07193,1.11726 0.125468,2.53429 0.05009,1.32583 0.04539,2.64987 0.03411,3.97625 -0.08974,2.73509 -0.126942,5.47031 -0.158099,8.20661 -0.02759,2.13221 0.110548,4.26033 0.177721,6.39049 0.01087,1.87455 0.08169,3.74706 0.130402,5.62079 0.02564,1.68137 -0.136861,3.35744 -0.138504,5.0381 0.05804,1.18427 0.03004,2.36826 0.01574,3.55319 0.01881,1.40297 -0.155813,2.79254 -0.382093,4.17365 -0.303125,1.97223 -0.9115,3.87623 -1.567029,5.75483 -0.646203,1.59384 -1.202759,3.22203 -1.73192,4.85784 -0.399651,1.38516 -0.763725,2.78003 -1.204561,4.15298 -0.305337,0.88207 -0.419179,1.80611 -0.565986,2.72226 -0.09977,0.58751 -0.09163,1.18701 -0.09557,1.7813 -0.02432,0.34132 -0.07202,0.67558 -0.0697,1.01849 0.03632,0.19173 -0.04665,0.35293 -0.09559,0.52622 -0.05185,0.18363 -0.04836,0.25982 -0.06249,0.44723 -0.01558,0.31107 -0.08546,0.61267 -0.162094,0.91361 -0.09079,0.34212 -0.155366,0.68824 -0.216794,1.03624 -0.0788,0.21448 -0.162724,0.42719 -0.222504,0.64812 -0.05515,0.23505 -0.1402,0.46128 -0.198345,0.69581 -0.06558,0.33751 -0.178531,0.66256 -0.257847,0.99651 -0.05796,0.26891 -0.19457,0.58748 -0.04315,0.85175 0.0449,0.0784 0.116975,0.13762 0.175463,0.20644 0,0 0.05445,-0.0156 0.05445,-0.0156 v 0 c 0.06492,-0.31725 0.08275,-0.64329 0.179822,-0.9548 0.08033,-0.33236 0.191672,-0.65646 0.257852,-0.99244 0.05907,-0.23288 0.14255,-0.45814 0.199242,-0.69143 0.0582,-0.23213 0.158448,-0.45029 0.228203,-0.67881 0.05926,-0.33879 0.124711,-0.67483 0.211757,-1.00812 0.08194,-0.32232 0.154852,-0.64636 0.172799,-0.97938 5.29e-4,-0.008 0.01701,-0.27523 0.02787,-0.31218 0.06697,-0.22776 0.173506,-0.44206 0.134152,-0.69179 -0.0024,-0.34145 0.056,-0.67334 0.07361,-1.01405 0.0016,-0.57421 -0.0038,-1.15374 0.09063,-1.72146 0.14592,-0.89639 0.255177,-1.80142 0.554202,-2.66486 0.442605,-1.37221 0.806174,-2.76704 1.204383,-4.15243 0.528159,-1.63312 1.086715,-3.25745 1.730076,-4.84928 0.660834,-1.90044 1.270894,-3.82676 1.576845,-5.82114 0.229166,-1.40019 0.402246,-2.80905 0.382217,-4.23127 0.01236,-1.18625 0.04176,-2.3716 -0.01767,-3.55712 0.0011,-1.68393 0.163944,-3.36346 0.137403,-5.04816 -0.04875,-1.87447 -0.122377,-3.74767 -0.132421,-5.62298 -0.06906,-2.12473 -0.206182,-4.24751 -0.179506,-6.37433 0.03116,-2.73665 0.06354,-5.47228 0.15518,-8.2077 0.0085,-1.00516 0.02029,-1.67271 0.0029,-2.68705 -0.02199,-1.28163 -0.108432,-2.55909 -0.163658,-3.83928 -0.01884,-0.43656 -0.03047,-0.8734 -0.04571,-1.3101 -0.01209,-0.89292 -0.0087,-1.34611 -0.06277,-2.25552 -0.110461,-1.85629 -0.348671,-3.70285 -0.508672,-5.5549 -0.249505,-2.52777 -0.633981,-5.03795 -0.879647,-7.56555 -0.07317,-1.09923 -0.123592,-1.67512 -0.14845,-2.77762 -0.03849,-1.70707 0.04562,-3.41446 0.025,-5.12159 -0.0046,-2.20046 0.129667,-4.3929 0.22288,-6.59066 0.01476,-0.43864 0.03138,-0.87721 0.04427,-1.31591 0.02151,-0.73212 0.01434,-1.58239 0.117994,-2.31241 0.273754,-1.92794 0.910955,-3.77846 1.439111,-5.64431 0.661678,-2.12678 1.270873,-4.2898 2.348267,-6.25399 0.861428,-1.60332 1.780709,-3.17932 2.534489,-4.83734 0.565634,-1.24884 1.15888,-2.48392 1.745382,-3.72296 0.550211,-1.2535 0.994196,-2.55457 1.41193,-3.85727 0.376738,-1.28813 0.80037,-2.56181 1.253906,-3.82496 0.210515,-0.51889 0.211931,-0.56624 0.44061,-1.00111 0.05633,-0.107117 0.132133,-0.204428 0.178131,-0.316371 0.332804,-0.809937 0.329967,-1.718056 0.486344,-2.56504 0,0 -0.276117,-0.03495 -0.276117,-0.03495 z" />
    <path
       style="fill:#000000;stroke-width:0.874001"
       id="path14198"
       d="m 96.083026,98.889668 c -0.201006,0.980802 -0.291827,2.018292 -0.685895,2.951322 -0.277302,0.65657 -0.04341,0.0387 -0.275262,0.34566 -0.10636,0.14082 -0.192326,0.29595 -0.288486,0.44392 -0.05893,0.13171 -0.126378,0.25993 -0.176784,0.39513 -0.09174,0.24606 -0.248438,0.82327 -0.316997,1.06487 -0.168151,0.59258 -0.351367,1.18002 -0.533858,1.76833 -0.360622,1.13892 -0.739997,2.27266 -1.154133,3.39337 -0.169241,0.45798 -0.342604,0.90143 -0.569212,1.3322 -0.514458,0.96087 -0.956241,1.96 -1.414171,2.94881 -0.569828,1.3301 -1.240888,2.60927 -1.925341,3.88273 -0.396759,0.76679 -0.863709,1.49772 -1.248204,2.27093 -0.414755,0.83407 -0.481748,1.03689 -0.832067,1.88477 -0.587073,1.58226 -0.963634,3.22898 -1.436185,4.84634 -0.467685,1.52384 -0.885973,3.0645 -0.946361,4.66671 -0.02138,0.5672 0.01767,1.58321 0.03497,2.16517 0.06413,1.30786 -0.108945,2.60872 -0.153585,3.91327 -0.01003,2.4899 -0.04841,4.98009 -0.03658,7.47003 0.02659,2.34396 0.439756,4.65655 0.75492,6.97272 0.350046,2.90546 0.592201,5.82374 0.835726,8.73978 0.178575,1.04748 0.04115,2.09347 0.05029,3.14256 0.0057,0.65395 0.03763,1.08963 0.0737,1.75089 0.201115,2.35824 0.120835,4.72151 0.04684,7.08263 -0.09553,2.1696 -0.09777,4.34084 -0.108662,6.51189 -0.0058,2.79561 0.182333,5.5854 0.241245,8.37951 0.07483,2.46663 0.129691,4.931 -0.04452,7.39393 -0.08519,1.56327 0.02521,3.12829 0.0069,4.69352 -0.0096,1.20988 -0.135882,2.41366 -0.286195,3.61283 -0.205097,1.63322 -0.551434,3.23776 -1.005847,4.81783 -0.497785,1.7142 -1.109388,3.38935 -1.760546,5.05004 -0.750358,1.90058 -1.295212,3.87332 -1.807538,5.84876 -0.114342,0.5369 -0.346252,1.03941 -0.470985,1.57312 -0.09703,0.41514 -0.121367,0.63827 -0.182446,1.05391 -0.08462,1.00429 -0.0536,2.00705 -0.142248,3.01183 -0.103425,0.98509 -0.343027,1.94604 -0.572161,2.9069 -0.07894,0.50713 -0.233667,0.99178 -0.402252,1.47413 -0.15186,0.48511 -0.07599,0.2276 -0.22448,0.77344 0,0 0.965142,0.26172 0.965142,0.26172 v 0 c 0.134816,-0.49888 0.06602,-0.264 0.203433,-0.70549 0.179453,-0.5144 0.344855,-1.03192 0.430927,-1.57202 0.240082,-1.0085 0.489817,-2.01739 0.595592,-3.05157 0.08549,-0.98594 0.0662,-1.96882 0.135578,-2.95462 0.05018,-0.34696 0.07776,-0.58646 0.156179,-0.92967 0.123359,-0.53994 0.364191,-1.04695 0.475704,-1.59067 0.502182,-1.93677 1.035008,-3.87134 1.770558,-5.73476 0.662469,-1.68983 1.284258,-3.39459 1.790639,-5.13884 0.468111,-1.63 0.825603,-3.2852 1.037005,-4.96983 0.154604,-1.23658 0.284184,-2.47789 0.293873,-3.72546 0.01773,-1.54563 -0.08879,-3.09099 -0.0093,-4.63465 0.175861,-2.49343 0.123497,-4.98833 0.04678,-7.4855 -0.05891,-2.7854 -0.245681,-5.5665 -0.241035,-8.35337 0.01085,-2.16229 0.01289,-4.32475 0.108183,-6.4856 0.07486,-2.38976 0.154768,-4.78174 -0.04785,-7.16859 -0.03476,-0.63283 -0.06585,-1.0584 -0.07229,-1.683 -0.01114,-1.08081 0.12928,-2.16012 -0.05367,-3.23903 -0.245015,-2.93329 -0.488545,-5.86884 -0.841391,-8.7914 -0.309411,-2.27307 -0.716539,-4.54251 -0.745794,-6.84267 -0.01199,-2.4772 0.02693,-4.95466 0.03604,-7.43185 0.04309,-1.32559 0.222832,-2.64749 0.153697,-3.97652 -0.01516,-0.50446 -0.05447,-1.56028 -0.03769,-2.05584 0.05198,-1.53476 0.463556,-3.00651 0.909408,-4.46578 0.462372,-1.58323 0.832522,-3.19448 1.400725,-4.74536 0.324228,-0.78718 0.403551,-1.01816 0.786852,-1.78971 0.38471,-0.77437 0.853078,-1.50589 1.249836,-2.27395 0.693775,-1.29093 1.37368,-2.58789 1.951911,-3.93591 0.451377,-0.97465 0.886201,-1.95988 1.393553,-2.90688 0.798642,-1.54397 1.210902,-3.26208 1.791657,-4.89146 0.08158,-0.26301 0.318675,-1.02399 0.402654,-1.30715 0.140142,-0.47254 0.248891,-0.95813 0.410363,-1.42405 0.03218,-0.0929 0.07534,-0.18154 0.113017,-0.27231 0.0456,-0.0842 0.07932,-0.17604 0.136798,-0.25265 0.346469,-0.46185 0.26335,-0.12113 0.522721,-0.74356 0.410623,-0.9854 0.516104,-2.07549 0.724553,-3.110876 0,0 -0.98793,-0.154906 -0.98793,-0.154906 z" />
    <path
       style="fill:#000000;stroke-width:0.874001"
       id="path14200"
       d="m 73.525263,228.83032 c 0.0087,0.53555 0.543507,1.35378 0.374208,1.92254 -0.03395,0.11407 -0.08117,-0.0701 -0.084,-0.0713 -0.03611,-0.0152 -0.07835,-8e-4 -0.117528,-10e-4 -0.03718,0.0781 -0.08477,0.15207 -0.11154,0.23433 -0.02569,0.0789 -0.08694,0.46911 -0.103871,0.5539 -0.03645,0.18245 -0.09023,0.36226 -0.132212,0.54352 -0.09359,0.4672 -0.217006,0.92761 -0.318489,1.39301 -0.09507,0.52689 -0.171379,1.05662 -0.262237,1.58428 -0.122296,0.61144 -0.283001,1.2063 -0.26607,1.83315 0.04044,0.67322 0.07004,1.3457 0.129453,2.01762 0.09911,0.68903 0.148071,1.3826 0.205507,2.07585 0.06294,0.57786 0.117496,1.15645 0.134527,1.73754 -0.0041,0.62788 -0.06829,1.255 -0.124682,1.88027 -0.01619,0.56091 -0.137703,1.09968 -0.265184,1.64239 -0.08704,0.39952 -0.168595,0.80188 -0.276635,1.19643 -0.03013,0.15995 -0.05996,0.3193 -0.126175,0.46886 -0.007,0.0158 -0.04328,0.042 -0.02619,0.0448 0.452813,0.0727 0.349226,0.0866 0.575333,-0.19228 0.289224,-0.36295 0.428096,-0.8096 0.606962,-1.23129 0.218864,-0.52445 0.405943,-1.06125 0.607613,-1.59224 0.252447,-0.61614 0.460439,-1.25234 0.614903,-1.90004 0.153696,-0.573 0.279651,-1.15255 0.40844,-1.73145 0.213719,-0.72818 0.303164,-1.48656 0.447132,-2.23087 0.120814,-0.66816 0.294937,-1.32184 0.479946,-1.97423 0.191363,-0.6047 0.408991,-1.19812 0.637453,-1.7896 0.13629,-0.41469 0.313105,-0.81151 0.49916,-1.20564 0.155967,-0.31086 0.298953,-0.62725 0.490146,-0.91804 0.191691,-0.25833 0.244623,-0.59703 0.440026,-0.85186 0.195929,-0.18503 0.302136,-0.43232 0.430078,-0.66429 0.09263,-0.22163 0.185168,-0.43666 0.298767,-0.65164 0.08116,-0.17411 0.199557,-0.31153 0.320032,-0.45761 0.100444,-0.0994 0.124061,-0.2399 0.18592,-0.35865 0.01802,-0.0346 0.09944,-0.11933 0.121674,-0.15377 0.116176,-0.12532 0.189995,-0.27821 0.294026,-0.41213 0.065,-0.15236 0.137965,-0.29919 0.213429,-0.4469 0.05241,-0.13994 0.143259,-0.25722 0.212519,-0.38794 0.0624,-0.19218 0.161496,-0.3697 0.223194,-0.56136 0.0062,-0.21251 0.06112,-0.41666 0.09466,-0.62574 0.02188,-0.17195 0.01725,-0.34245 0.07425,-0.49667 0.03737,0.15267 0.05956,-0.66925 0.05341,-0.54408 -0.08256,-0.53 -0.459086,0.072 -0.529812,0.26396 0.01439,0.0215 0.02881,0.0431 0.04322,0.0646 0,0 0.105727,0.0629 0.105727,0.0629 v 0 c 0.02776,-7.9e-4 0.05552,-0.002 0.08329,-0.003 0.02964,-0.0394 0.230928,-0.31046 0.21259,-0.33878 -0.275889,-0.42591 -0.223134,0.15368 -0.192739,-0.14633 -0.0435,0.17789 0.02796,0.36818 -0.05056,0.53903 -0.06584,0.17905 -0.07025,0.36106 -0.08752,0.55076 -0.03275,0.19534 -0.08943,0.38902 -0.08392,0.58831 -0.04919,0.17638 -0.154874,0.33405 -0.201038,0.51246 -0.06834,0.13291 -0.162275,0.25147 -0.215085,0.39296 -0.06411,0.13278 -0.141007,0.25947 -0.185,0.40117 -0.107188,0.14337 -0.186076,0.29834 -0.307049,0.43256 -0.0998,0.16101 -0.205454,0.31098 -0.287501,0.48306 -0.132173,0.16048 -0.262631,0.31721 -0.352854,0.50704 -0.110881,0.21309 -0.202972,0.42954 -0.29419,0.64726 -0.122738,0.22259 -0.22043,0.45848 -0.407326,0.63752 -0.18719,0.26777 -0.267306,0.59066 -0.444008,0.86451 -0.198056,0.30164 -0.345157,0.63022 -0.507137,0.95223 -0.190522,0.39916 -0.369914,0.80195 -0.511376,1.22159 -0.236887,0.59739 -0.460976,1.19761 -0.6623,1.80803 -0.199012,0.65836 -0.378947,1.32013 -0.500814,1.99807 -0.146103,0.74147 -0.235932,1.49696 -0.448471,2.22291 -0.125953,0.5778 -0.253881,1.15512 -0.406342,1.72666 -0.149873,0.6346 -0.356312,1.25703 -0.602734,1.86054 -0.201973,0.52675 -0.385776,1.06072 -0.603322,1.58159 -0.167314,0.39451 -0.295031,0.81422 -0.563398,1.15499 -0.188952,0.2338 -0.250346,0.19785 -0.04799,0.54229 0.01598,0.0272 0.031,-0.0551 0.043,-0.0842 0.05444,-0.13236 0.06837,-0.18917 0.09752,-0.32868 0.01193,-0.0571 0.02109,-0.1147 0.03163,-0.17205 0.102237,-0.40018 0.178924,-0.80731 0.26322,-1.21148 0.118888,-0.55687 0.244377,-1.10846 0.259474,-1.6815 0.05743,-0.63687 0.122823,-1.2756 0.124688,-1.91526 -0.02236,-0.58555 -0.07644,-1.16877 -0.142169,-1.75105 -0.05919,-0.69422 -0.106907,-1.38899 -0.21646,-2.07775 -0.06731,-0.66618 -0.09601,-1.33361 -0.145998,-2.00116 -0.02593,-0.61037 0.14146,-1.18943 0.248465,-1.78681 0.08302,-0.52569 0.154149,-1.05301 0.242158,-1.57787 0.0954,-0.46584 0.20416,-0.92885 0.295081,-1.39567 0.07385,-0.34219 0.196758,-0.75707 0.216411,-1.09905 0.0021,-0.0376 -0.01926,-0.0729 -0.02889,-0.10929 0.08056,-0.18337 0.211474,0.26876 0.332925,-0.0868 0.149064,-0.43639 -0.375489,-1.57871 -0.397166,-1.96704 0,0 -0.134165,0.0387 -0.134165,0.0387 z" />
    <path
       style="fill:#000000;stroke-width:0.874001"
       id="path14202"
       d="m 73.512769,229.56738 c -0.08049,0.65402 0.190344,1.36658 0.04483,2.02245 -0.0046,0.0206 -0.01196,-0.0751 -0.02479,-0.0584 -0.127497,0.1669 -0.102661,0.26422 -0.11135,0.45826 -0.01339,0.19688 0.05582,0.39846 0.01918,0.59482 -0.02813,0.15075 -0.09497,0.303 -0.129172,0.45413 -0.01839,0.26082 -0.01445,0.1283 -0.01085,0.39755 0,0 0.05337,0.019 0.05337,0.019 v 0 c 0.17785,-0.23204 0.115604,-0.11109 0.200853,-0.35522 0.114723,-0.40967 0.204853,-0.66206 0.124354,-1.10427 -0.0031,-0.62621 -0.111395,0.22114 0.113181,-0.38963 0.03335,-0.0907 0.0176,-0.19277 0.01709,-0.2894 -0.0028,-0.53664 -0.05314,-1.25426 -0.08245,-1.76524 0,0 -0.214251,0.0159 -0.214251,0.0159 z" />
    <circle
       id="path14204"
       style="fill:#000000;stroke:#000000;stroke-width:0.264583"
       cx="90.375252"
       cy="98.587273"
       r="0.019704483" />
    <path
       style="fill:#000000;stroke-width:0.874001"
       id="path14206"
       d="m 90.87319,97.832692 c 0.05011,-0.100402 0.657056,-1.301634 0.770318,-1.570831 0.03176,-0.07548 0.112213,-0.16909 0.06595,-0.236662 -0.05724,-0.08359 -0.203298,-0.03842 -0.290081,-0.09069 -0.02283,-0.01376 0.05299,-0.02098 0.06704,-0.04364 0.02418,-0.03903 0.02763,-0.08758 0.04144,-0.131368 0.05485,-0.156052 0.135239,-0.305258 0.186195,-0.462595 0.01675,-0.05175 0.0085,-0.139272 0.03366,-0.186555 -0.03263,0.01572 0.03929,-0.03711 0.02787,-0.02975 -0.06114,0.03941 -0.169151,0.04822 -0.182415,0.11974 -0.01288,0.06941 0.386909,0.456298 0.440563,0.508283 0.477579,0.404749 0.887638,0.878499 1.344579,1.303811 0.574156,0.422661 1.198684,0.774491 1.815959,1.130345 0.445641,0.308179 0.998961,0.400846 1.446443,0.698976 0.182293,0.110636 0.334949,0.26311 0.526862,0.357172 0.112736,0.05956 0.154885,0.140287 0.213918,0.244451 0.07184,0.222007 0.05953,0.447511 -0.004,0.669421 -0.069,0.19155 -0.135773,0.37862 -0.160787,0.5815 -0.06682,0.19902 -0.197948,0.35693 -0.315881,0.52546 -0.02556,0.0486 -0.07872,0.0676 -0.123111,0.0995 -0.0989,0.0826 -0.220908,0.12292 -0.343225,0.15514 -0.180308,0.0207 -0.312608,0.12547 -0.449334,0.23433 -0.06624,0.0549 -0.09819,0.0776 -0.156048,0.14021 -0.01416,0.0153 -0.05781,0.0413 -0.03856,0.0493 0.03305,0.0138 0.139308,-0.0101 0.105317,-0.0214 -0.04343,-0.0144 -0.09127,0.007 -0.136901,0.0109 0,0 -0.02527,0.0507 -0.02527,0.0507 v 0 c 0.133419,0.20646 0.355497,0.27634 0.506595,0.0789 0.100036,-0.086 0.163592,-0.15462 0.3014,-0.17236 0.169143,-0.0526 0.351155,-0.11197 0.455308,-0.26224 0.06189,-0.0551 0.138187,-0.10191 0.175223,-0.1803 0.138102,-0.21488 0.29659,-0.41763 0.351279,-0.67497 0.01643,-0.18797 0.08598,-0.36044 0.14029,-0.53994 0.07224,-0.29831 0.08288,-0.599112 -0.03424,-0.888648 -0.08883,-0.149146 -0.179901,-0.27984 -0.343649,-0.358291 -0.183116,-0.07205 -0.312327,-0.251897 -0.490228,-0.337008 -0.458663,-0.292701 -1.00213,-0.407622 -1.460024,-0.706154 -0.599014,-0.345075 -1.204539,-0.686729 -1.764577,-1.092423 -0.456449,-0.423476 -0.86564,-0.895987 -1.341787,-1.299829 -0.216575,-0.206364 -0.378579,-0.465307 -0.664962,-0.585605 -0.04572,-0.01921 -0.03036,0.176343 -0.07044,0.131051 -0.04187,0.246044 -0.100333,0.446741 -0.202338,0.686975 0.0011,0.09477 -0.03636,0.198046 0.0029,0.284321 0.03125,0.06872 0.111946,0.146889 0.185505,0.129916 0.05842,-0.01347 0.063,-0.223758 0.02397,-0.178247 -0.04485,0.05229 -0.01852,0.137975 -0.04425,0.201885 -0.118668,0.294846 -0.688147,1.432655 -0.755904,1.570281 0,0 0.16941,0.08697 0.16941,0.08697 z" />
    <path
       style="fill:#b3b3b3;stroke-width:2.23645"
       d="m 276.56773,918.89201 c 0,-5.48682 -0.27119,-13.49031 -0.60264,-17.78552 -0.63437,-8.22064 0.0748,-15.2447 1.9481,-19.29653 0.52278,-1.1307 1.03989,-3.56802 1.14915,-5.41626 0.10926,-1.84825 0.48713,-3.56576 0.83971,-3.8167 0.40175,-0.28594 0.38533,-1.57383 -0.044,-3.44998 -0.54869,-2.39778 -0.43806,-3.85686 0.55575,-7.32962 2.34289,-8.18696 3.91863,-16.52772 3.95281,-20.92318 0.0692,-8.89556 4.37444,-25.47321 12.28519,-47.30495 4.34178,-11.98225 6.88599,-21.66462 7.93958,-30.21526 0.88044,-7.14537 1.07052,-40.57305 0.58903,-103.58596 -0.41869,-54.79512 -0.76314,-61.55756 -4.63828,-91.06085 -1.89391,-14.41931 -2.40562,-39.27206 -1.3214,-64.17818 0.89268,-20.50622 1.32706,-23.04754 7.13503,-41.74278 3.86995,-12.45694 5.42758,-16.20151 10.85697,-26.10036 7.34843,-13.39761 14.55132,-29.65669 18.74564,-42.31452 2.221,-6.70262 4.92375,-14.21797 6.00613,-16.70077 1.08237,-2.48281 1.96795,-5.31309 1.96795,-6.28952 0,-0.97644 0.60933,-2.96972 1.35406,-4.42952 0.74474,-1.4598 1.35407,-3.31734 1.35407,-4.12787 0,-1.29987 0.37929,-1.12031 3.2159,1.52249 3.29223,3.06727 10.13717,7.4977 12.8657,8.32739 1.35729,0.41273 1.41325,0.57599 0.50777,1.48147 -0.5597,0.5597 -1.01763,1.66137 -1.01763,2.44817 0,2.01773 -2.11025,9.30526 -2.69452,9.30526 -0.75539,0 -2.33813,4.16407 -6.04741,15.91026 -3.53027,11.17931 -10.20015,26.12029 -19.57084,43.83998 -5.98823,11.32357 -7.39101,14.97705 -11.75516,30.61594 l -3.40568,12.20422 -0.65171,19.63394 c -0.87352,26.31674 -0.40785,46.19381 1.36407,58.22479 0.76779,5.21314 2.07157,16.18107 2.89728,24.37316 1.60134,15.8873 1.47129,8.02814 2.11188,127.6206 0.10272,19.17695 -0.037,37.89103 -0.31043,41.58685 -1.01655,13.73891 -3.10092,22.35064 -10.04967,41.52092 -6.80914,18.78517 -9.94849,30.94736 -10.72114,41.53499 -0.40959,5.61257 -1.35517,11.78154 -2.48005,16.17998 -0.99993,3.90986 -1.8677,7.44392 -1.92838,7.85346 -0.0607,0.40954 -0.59686,1.48719 -1.19153,2.39477 -3.02682,4.61951 -9.45486,17.89261 -11.26696,23.26487 -1.13042,3.35131 -3.11194,10.96793 -4.40337,16.92581 -1.29144,5.95789 -3.06647,12.73209 -3.94452,15.05379 l -1.59645,4.22128 z"
       id="path14208"
       transform="scale(0.26458333)" />
  </g>
</svg>
