<?xml version="1.0" encoding="UTF-8" standalone="no"?>
<!-- Created with Inkscape (http://www.inkscape.org/) -->

<svg
   width="230"
   height="500"
   viewBox="0 0 60.854175 132.29166"
   version="1.1"
   id="svg5"
   inkscape:version="1.2 (dc2aedaf03, 2022-05-15)"
   sodipodi:docname="fibrous-1.svg"
   inkscape:export-filename="raiz-fibrosa.png"
   inkscape:export-xdpi="96"
   inkscape:export-ydpi="96"
   xmlns:inkscape="http://www.inkscape.org/namespaces/inkscape"
   xmlns:sodipodi="http://sodipodi.sourceforge.net/DTD/sodipodi-0.dtd"
   xmlns="http://www.w3.org/2000/svg"
   xmlns:svg="http://www.w3.org/2000/svg">
  <sodipodi:namedview
     id="namedview7"
     pagecolor="#505050"
     bordercolor="#eeeeee"
     borderopacity="1"
     inkscape:showpageshadow="0"
     inkscape:pageopacity="0"
     inkscape:pagecheckerboard="0"
     inkscape:deskcolor="#505050"
     inkscape:document-units="mm"
     showgrid="false"
     inkscape:zoom="1.7852694"
     inkscape:cx="366.89141"
     inkscape:cy="504.96581"
     inkscape:window-width="1276"
     inkscape:window-height="1076"
     inkscape:window-x="1280"
     inkscape:window-y="0"
     inkscape:window-maximized="1"
     inkscape:current-layer="layer1" />
  <defs
     id="defs2" />
  <g
     inkscape:label="Camada 1"
     inkscape:groupmode="layer"
     id="layer1">
    <path
       id="path843"
       style="fill:#b6b6b6;fill-opacity:1;stroke:#000000;stroke-width:0.661458;stroke-linecap:round;stroke-linejoin:round;stroke-dasharray:none;stroke-opacity:1"
       d="m 50.798136,12.867163 c -0.0504,0.01694 -0.0543,0.08778 -0.0543,0.202571 0,0.466896 -1.85899,4.023561 -4.7134,9.018055 -0.43416,0.759667 -0.88539,1.686199 -1.00253,2.058789 -0.21694,0.690079 -1.35082,7.018451 -1.35082,7.539071 0,0.38202 -0.92447,4.69067 -1.22525,5.71077 -0.2082,0.7061 -0.25045,1.98465 -0.33279,10.07276 l -0.094,9.26403 -0.56741,2.20555 c -1.4438,5.61253 -1.85855,7.32898 -1.94407,8.04809 -0.33624,2.82759 -1.1008,5.13479 -3.16415,9.5467 -1.70429,3.64417 -2.17084,4.91306 -2.99516,8.14886 -0.77404,3.03839 -1.772706,4.46414 -3.857648,5.50767 -1.087514,0.54431 -1.227575,0.67127 -2.426209,2.2009 -1.59184,2.03143 -2.131651,3.11026 -3.045808,6.08284 -1.035482,3.367111 -2.330684,5.901671 -3.879867,7.593331 -1.189601,1.299 -2.889337,4.5964 -3.956864,7.6755 -0.657106,1.89531 -1.518646,3.01242 -2.826183,3.66489 -0.779361,0.38885 -0.979978,0.42392 -2.473751,0.42892 -1.8907104,0.007 -4.1692554,0.4082 -4.1692554,0.73432 0,0.11351 0.302073,0.33607 0.67076,0.49506 0.651228,0.28081 0.711898,0.28211 2.138888,0.0419 1.7238774,-0.29028 2.5203264,-0.30976 3.1982544,-0.0791 0.271553,0.0924 1.161468,0.21322 1.977656,0.26872 3.30274,0.22481 3.170059,0.24284 4.415235,-0.60771 0.610853,-0.41726 1.394675,-1.08693 1.741495,-1.48829 0.750983,-0.86903 1.544173,-2.54189 1.850017,-3.90157 0.121593,-0.54057 0.278536,-1.21451 0.348816,-1.49758 0.07029,-0.28306 0.476522,-1.01091 0.902787,-1.61747 0.426264,-0.60657 1.218754,-1.73178 1.761133,-2.50011 1.210244,-1.71439 1.658154,-2.64199 2.478918,-5.13508 0.741797,-2.25324 1.226086,-3.309731 2.262911,-4.937691 1.048647,-1.64653 2.148585,-2.85877 3.546555,-3.9088 2.14166,-1.60861 3.27646,-3.37343 4.00596,-6.23011 0.79842,-3.12663 2.32183,-7.10915 4.27777,-11.18278 0.9443,-1.96671 1.5342,-3.99068 2.01435,-6.91121 0.37135,-2.25875 0.70633,-3.71092 1.86552,-8.08736 l 0.66197,-2.50011 0.0879,-9.26351 0.0884,-9.26403 0.52555,-2.23965 c 0.28931,-1.23174 0.80962,-3.97788 1.156,-6.10248 0.71037,-4.3571 0.92814,-5.34391 1.38855,-6.289017 0.49404,-1.014152 2.82639,-5.250523 3.47472,-6.311243 0.31725,-0.519035 0.57671,-1.029683 0.57671,-1.135331 0,-0.25776 -0.74313,-2.242042 -1.30173,-3.474723 -0.39256,-0.866282 -0.54804,-1.051943 -1.19786,-1.433505 -0.54058,-0.317424 -0.75366,-0.43906 -0.83767,-0.410827 z m -7.20162,29.204926 c 0.011,-0.006 0.0238,0.0156 0.0372,0.0693 0.0359,0.14307 0.0336,0.34171 -0.005,0.44131 -0.0387,0.0996 -0.068,-0.0173 -0.0651,-0.25993 0.002,-0.15163 0.0148,-0.24037 0.0331,-0.25063 z" />
  </g>
</svg>
