<?xml version="1.0" encoding="UTF-8" standalone="no"?>
<!-- Created with Inkscape (http://www.inkscape.org/) -->

<svg
   width="230"
   height="500"
   viewBox="0 0 60.854175 132.29166"
   version="1.1"
   id="svg5"
   inkscape:version="1.2 (dc2aedaf03, 2022-05-15)"
   sodipodi:docname="tuber.svg"
   inkscape:export-filename="fibrous-1.svg"
   inkscape:export-xdpi="96"
   inkscape:export-ydpi="96"
   xmlns:inkscape="http://www.inkscape.org/namespaces/inkscape"
   xmlns:sodipodi="http://sodipodi.sourceforge.net/DTD/sodipodi-0.dtd"
   xmlns="http://www.w3.org/2000/svg"
   xmlns:svg="http://www.w3.org/2000/svg">
  <sodipodi:namedview
     id="namedview7"
     pagecolor="#505050"
     bordercolor="#eeeeee"
     borderopacity="1"
     inkscape:showpageshadow="0"
     inkscape:pageopacity="0"
     inkscape:pagecheckerboard="0"
     inkscape:deskcolor="#505050"
     inkscape:document-units="mm"
     showgrid="false"
     inkscape:zoom="1.2623761"
     inkscape:cx="102.58432"
     inkscape:cy="263.39219"
     inkscape:window-width="1276"
     inkscape:window-height="1076"
     inkscape:window-x="0"
     inkscape:window-y="0"
     inkscape:window-maximized="1"
     inkscape:current-layer="layer1" />
  <defs
     id="defs2" />
  <g
     inkscape:label="Camada 1"
     inkscape:groupmode="layer"
     id="layer1">
    <g
       id="g41329"
       transform="matrix(1.2425137,0,0,1.2425137,-90.585047,-71.477511)">
      <path
         style="fill:#000000;stroke-width:0.874001"
         id="path15199"
         d="m 92.256146,72.054349 c 0.05576,0.798708 -0.06176,1.619707 0.06758,2.415574 0.03275,0.201554 0.295283,0.642475 0.377293,0.811496 0.302977,0.648784 0.393348,1.356571 0.501981,2.055685 0.129252,0.635 0.164819,1.281906 0.229545,1.925183 0.02535,0.339201 0.03141,0.679854 0.04213,1.02019 0.01826,0.329013 0.03389,0.658929 0.07994,0.985468 0.02521,0.273796 0.0054,0.548026 0.01749,0.823063 0.0074,0.246065 -0.0092,0.489979 -0.0029,0.736454 -0.009,0.104937 0.03014,0.325493 0.03172,0.382199 -0.01677,0.101938 -0.01516,0.20638 0.0045,0.307393 -0.0078,-0.03845 -0.0048,-0.08079 -0.02342,-0.115343 -0.0094,-0.01752 -0.440663,0.01103 -0.487746,0.01587 -0.245631,0.04108 -0.493183,0.02857 -0.7406,0.03832 -0.295566,0.01119 -0.592143,0.04408 -0.88179,0.104511 -0.275614,0.06621 -0.548987,0.133715 -0.813708,0.236024 -0.273341,0.125066 -0.547097,0.245557 -0.80219,0.405138 -0.315333,0.189772 -0.635254,0.376047 -0.924941,0.603993 -0.318037,0.281221 -0.638569,0.557128 -0.943845,0.852255 -0.205852,0.239604 -0.460547,0.426207 -0.662591,0.668742 -0.267864,0.286512 -0.472178,0.618572 -0.663258,0.958771 -0.225433,0.429638 -0.433398,0.874718 -0.568804,1.341551 -0.160803,0.730245 -0.260252,1.471361 -0.340796,2.214139 -0.101812,0.905185 0.01871,1.810052 0.08749,2.712437 0.07956,0.842997 0.354465,1.646778 0.585772,2.456014 0.267875,0.984377 0.399354,2.00126 0.547407,3.009259 0.128045,0.959414 0.296392,1.912305 0.450744,2.867615 0.129813,1.18964 0.295386,2.3701 0.557707,3.53793 0.238718,0.93789 0.493541,1.87094 0.741921,2.80635 0.203862,0.89992 0.614413,1.72677 0.990291,2.56259 0.402426,0.90091 0.586591,1.87844 0.856363,2.82354 0.414795,1.13264 0.650269,2.31851 0.919345,3.49122 0.378979,1.32737 0.736603,2.65686 1.0208,4.00814 0.201819,1.17286 0.475998,2.32789 0.776205,3.47875 0.243909,0.86755 0.443286,1.74654 0.673418,2.61759 0.280945,1.01054 0.418835,2.05167 0.623752,3.07864 0.157941,0.62802 0.277046,1.26415 0.251413,1.91431 -0.0056,0.14204 -0.07948,0.9887 -0.08911,1.10186 -0.181409,1.01555 -0.02307,2.02112 0.138549,3.02455 0.168889,0.9494 0.410729,1.8836 0.654846,2.81577 0.201661,0.76208 0.335434,1.54121 0.419556,2.32462 0.04828,0.65946 0.08806,1.32318 0.04534,1.98391 -0.06938,0.73613 0.02781,1.47114 0.038,2.20726 0.0031,0.56023 0.03811,1.11559 0.131262,1.66782 0.04105,0.51526 0.09256,1.01787 0.25209,1.51166 0.189452,0.47182 0.280125,0.96974 0.356463,1.46975 0.09434,0.34608 0.119221,0.71376 0.232378,1.05503 0.08861,0.2811 -0.0053,0.31844 0.606891,-0.0331 0.06072,-0.0349 0.0533,-0.1295 0.07995,-0.19425 0.156705,-0.60303 0.215707,-1.22819 0.326501,-1.84203 0.17635,-0.76899 0.318072,-1.54408 0.412925,-2.32725 0.06974,-1.10692 0.347122,-2.18265 0.563332,-3.26636 0.200716,-1.18573 0.484905,-2.35584 0.676331,-3.54289 0.113408,-1.00057 0.16928,-2.00612 0.354562,-2.99699 0.28972,-1.14299 0.53372,-2.29502 0.70489,-3.46161 0.13775,-1.10148 0.36192,-2.18765 0.56279,-3.27853 0.26456,-1.0749 0.46507,-2.16126 0.65037,-3.25198 0.19104,-1.21307 0.44896,-2.41128 0.78052,-3.59328 0.23719,-0.82758 0.43381,-1.66382 0.4785,-2.52635 0.0279,-0.53944 0.002,-0.72304 -0.0311,-1.2566 -0.078,-1.17908 0.0129,-2.36516 0.20071,-3.5299 0.2045,-0.88284 0.63264,-1.69324 0.98743,-2.52223 0.51761,-1.10779 0.68122,-2.22751 0.74736,-3.4351 0.0261,-1.05622 -0.0752,-2.10957 -0.10709,-3.16461 0.0323,-0.88553 0.0852,-1.77622 0.21975,-2.65283 0.18242,-0.96664 0.40533,-1.92483 0.57012,-2.89469 0.15808,-0.96478 0.0674,-1.938585 -0.0256,-2.904219 -0.10744,-1.065183 -0.22519,-2.127324 -0.39243,-3.184985 -0.16179,-0.908262 -0.25628,-1.825929 -0.36924,-2.740832 -0.0489,-0.439663 -0.13914,-0.885304 -0.11902,-1.330262 0.0119,-0.263522 0.0402,-0.318994 0.10491,-0.58529 0.20904,-0.580863 0.35185,-1.164545 0.38199,-1.780929 0.0198,-0.679484 -0.12992,-1.320154 -0.37018,-1.94846 -0.20294,-0.609375 -0.48553,-1.18268 -0.81223,-1.733965 -0.28183,-0.454459 -0.5535,-0.914115 -0.86675,-1.347775 -0.21411,-0.267623 -0.43096,-0.53241 -0.65558,-0.791016 -0.23069,-0.217041 -0.47229,-0.416412 -0.75561,-0.559009 -0.37009,-0.146601 -0.76087,-0.233514 -1.15004,-0.312674 -0.32371,-0.07245 -0.65055,-0.124841 -0.977504,-0.17924 -0.387112,-0.08552 -0.777084,-0.125306 -1.172853,-0.115721 -0.262829,0.01807 -0.52202,0.0591 -0.780753,0.107138 -0.197096,0.04182 -0.385448,0.116755 -0.566489,0.204004 -0.06763,0.03348 -0.138928,0.05547 -0.210333,0.07862 0.350776,-0.01638 -0.128969,-0.125754 -0.216366,-0.21231 -0.0559,-0.04877 -0.113784,-0.09517 -0.170206,-0.143319 -0.0055,-0.0047 -0.02154,-0.01929 -0.01622,-0.01439 0.05643,0.05163 0.04617,0.05644 0.03121,-0.01632 -0.04557,-0.196199 -0.08902,-0.380677 -0.07553,-0.582457 -0.04477,-0.242948 -0.04632,-0.488584 -0.06713,-0.734025 -0.02596,-0.237644 -0.04701,-0.478163 -0.08348,-0.714902 -0.04964,-0.217381 -0.05949,-0.4407 -0.09,-0.660969 -0.03181,-0.296124 -0.119906,-0.585295 -0.11294,-0.884465 -0.01378,-0.357888 0.06271,-0.696139 0.149622,-1.039653 0.069,-0.356293 0.126423,-0.703803 0.0506,-1.061662 -0.106436,-0.486971 -0.190124,-0.977802 -0.330382,-1.457129 -0.127067,-0.343829 -0.214498,-0.697823 -0.285396,-1.056749 -0.05546,-0.210177 -0.01754,-0.417568 -0.0089,-0.630907 0.0055,-0.23169 0.0195,-0.462388 0.01572,-0.694369 0.0028,-0.159658 0.02997,-0.319064 0.04624,-0.478489 0.0019,-0.150606 -0.0052,-0.301003 -0.0035,-0.451667 0.04657,-0.08574 -0.0081,-0.180179 -0.0024,-0.266351 5.3e-4,-0.0087 0.01257,0.02588 0.01797,0.019 0.0088,-0.01709 0.01738,-0.03424 0.02627,-0.05125 0.0088,-0.01672 0.05573,-0.08306 0.04799,-0.100439 -0.134017,-0.300778 -0.273934,-0.308906 -0.138653,-0.295275 0.03901,-0.146386 -0.02453,-0.309017 -0.04543,-0.454723 -0.02439,-0.146799 -0.02397,-0.296619 -0.07205,-0.438341 -0.219636,-0.335073 -0.462552,0.153041 -0.544965,0.274868 -0.04996,0.07386 -0.05471,0.06968 -0.120925,0.120793 -0.179099,0.111982 -0.343562,0.245745 -0.518917,0.363416 -0.152887,0.101817 -0.325998,0.14706 -0.497964,0.204036 -0.244602,0.05306 -0.480023,0.211767 -0.734928,0.20901 -0.22856,-0.01566 -0.427167,0.130691 -0.645623,0.157567 -0.147029,-0.01323 -0.291745,0.02072 -0.434798,0.05025 -0.114091,0.03043 -0.228531,0.04416 -0.34444,0.04087 -0.107703,-0.0091 -0.209595,0.01508 -0.306284,0.06109 -0.227494,0.04339 0.101796,0.346921 0.174072,0.484153 0.02275,0.111916 0.390472,0.156485 0.249508,0.130778 0.04605,0.01781 0.08592,0.125045 0.0331,0.02596 -0.01558,-0.02925 -0.03666,-0.156253 -0.0056,0.0094 0.03925,0.121341 0.104936,0.243838 0.102616,0.372158 -0.02841,0.104669 0.03477,0.141658 0.119616,0.202748 0,0 0.05007,0.02648 0.05007,0.02648 v 0 c 0.199239,0.05618 0.234116,-0.01431 0.249901,-0.212365 -0.0011,-0.170638 -0.0493,-0.334319 -0.117684,-0.49026 -0.02405,-0.0909 -0.09806,-0.21823 -0.212622,-0.287641 -0.05546,-0.02424 -0.117819,-0.08277 -0.172474,-0.05677 -0.0108,0.0051 0.168707,0.120039 -0.02622,-0.03558 -0.02453,-0.01847 -0.249049,-0.205774 -0.290578,-0.150199 -0.39265,0.525481 -0.121817,0.420963 0.02978,0.362048 0.03578,-0.01656 0.05132,-0.02696 0.11302,-0.01836 0.148913,0.0021 0.294852,-0.01296 0.440002,-0.04953 0.1427,-0.02952 0.281062,-0.05607 0.42745,-0.0498 0.199052,-0.04335 0.381752,-0.146269 0.58832,-0.15467 0.294129,-0.0227 0.564562,-0.147971 0.844055,-0.234381 0.207428,-0.06876 0.412993,-0.134633 0.595514,-0.25953 0.187737,-0.127307 0.366244,-0.267777 0.555164,-0.393517 0.03914,-0.0354 0.398026,-0.432711 0.349928,-0.472903 -0.08684,-0.07257 -0.280102,0.03035 -0.331428,-0.07369 -0.02466,-0.101108 0.05028,0.356684 0.04087,0.342571 0.03087,0.207238 0.06006,0.413272 0.103987,0.616742 0.03173,0.04003 0.0517,0.146886 0.09519,0.120091 7.94e-4,-5.29e-4 0.05598,-0.378851 -0.05623,-0.06207 -0.05512,0.142472 -0.02944,0.266763 -0.05202,0.411286 5.3e-5,0.138415 0.0021,0.276723 0.0053,0.415018 -0.01445,0.174908 -0.0516,0.348612 -0.04897,0.524304 0.0038,0.223771 -0.0089,0.446373 -0.01442,0.669917 -0.01077,0.245327 -0.04675,0.487875 0.01273,0.730459 0.07374,0.370736 0.164835,0.737097 0.294227,1.092866 0.137131,0.471549 0.216818,0.954924 0.324144,1.433158 0.07402,0.287391 -0.0066,0.575932 -0.04836,0.864021 -0.0947,0.374481 -0.177546,0.745879 -0.166341,1.135425 -0.0046,0.322151 0.07003,0.633754 0.112157,0.951936 0.03176,0.223571 0.04228,0.450348 0.09253,0.671105 0.04046,0.223991 0.05368,0.455798 0.07929,0.681324 0.01908,0.224432 0.01246,0.451895 0.06636,0.671933 -0.01331,0.241361 0.02835,0.468503 0.08326,0.702646 0.04406,0.188206 0.13875,0.296198 0.290727,0.405799 0.185851,0.154395 0.409612,0.21113 0.633949,0.297104 0.09139,-0.02716 0.18007,-0.06106 0.266608,-0.101159 0.146034,-0.07124 0.29833,-0.132376 0.457147,-0.168079 0.236699,-0.04401 0.47386,-0.08075 0.714036,-0.100044 0.368366,-0.01199 0.730398,0.02701 1.090642,0.107199 0.321954,0.05314 0.644814,0.09816 0.963064,0.172606 0.35278,0.07146 0.70703,0.1491 1.04416,0.277206 0.23447,0.116224 0.43036,0.282686 0.62537,0.456838 0.2162,0.248594 0.42401,0.503944 0.63124,0.760248 0.30375,0.424892 0.57128,0.871969 0.84523,1.316609 0.31361,0.531434 0.58744,1.082072 0.78116,1.669675 0.22043,0.573079 0.3589,1.155848 0.3424,1.776473 -0.0251,0.590045 -0.17737,1.144619 -0.37735,1.699612 -0.0294,0.123933 -0.0666,0.246258 -0.0881,0.3718 -0.0961,0.56188 0.0294,1.140063 0.0906,1.69753 0.11166,0.920125 0.20567,1.842727 0.36454,2.75659 0.16376,1.048504 0.26852,2.102337 0.36848,3.158488 0.0802,0.925668 0.16909,1.85845 0.0196,2.78276 -0.16501,0.97268 -0.39114,1.93325 -0.5734,2.9028 -0.13524,0.90556 -0.19681,1.82404 -0.22782,2.73853 0.0318,1.04151 0.12822,2.08143 0.10563,3.12405 -0.0619,1.1519 -0.21381,2.21557 -0.71294,3.2706 -0.37037,0.86603 -0.82545,1.70898 -1.02998,2.63438 -0.19233,1.20124 -0.28908,2.42371 -0.20889,3.63973 0.0328,0.50192 0.0583,0.67393 0.033,1.18128 -0.0416,0.83213 -0.23372,1.63844 -0.46214,2.4367 -0.33389,1.19944 -0.60201,2.41336 -0.79387,3.64416 -0.18139,1.08875 -0.38185,2.17229 -0.64705,3.24439 -0.20371,1.09648 -0.42794,2.18878 -0.56769,3.29607 -0.17211,1.16009 -0.415703,2.30578 -0.702757,3.44293 -0.18465,0.99529 -0.24607,2.00423 -0.358661,3.00923 -0.187256,1.18075 -0.477848,2.34291 -0.67749,3.52188 -0.224028,1.09575 -0.506132,2.18413 -0.579342,3.30429 -0.09435,0.77342 -0.23903,1.53842 -0.411522,2.29816 -0.102658,0.57934 -0.164174,1.16773 -0.299056,1.73935 -0.03202,0.0813 -0.150294,0.17546 -0.09606,0.24402 0.548098,0.69288 0.476486,0.18268 0.395208,-0.003 -0.091,-0.31165 -0.129087,-0.64142 -0.208446,-0.9568 -0.0829,-0.52777 -0.179893,-1.05408 -0.380191,-1.55229 -0.154537,-0.46789 -0.184687,-0.94912 -0.235503,-1.43651 -0.09151,-0.52578 -0.125155,-1.05446 -0.131593,-1.58837 -0.01648,-0.72238 -0.110566,-1.44382 -0.04571,-2.16637 0.04005,-0.69006 0.0032,-1.38251 -0.0533,-2.07079 -0.09131,-0.80733 -0.229283,-1.61105 -0.440749,-2.39607 -0.242424,-0.91641 -0.485478,-1.83397 -0.653595,-2.76768 -0.159265,-0.96394 -0.316386,-1.92822 -0.142642,-2.90517 0.01577,-0.18897 0.08144,-0.94385 0.08788,-1.14462 0.0218,-0.68029 -0.09551,-1.34815 -0.262577,-2.00528 -0.206968,-1.03653 -0.350732,-2.08672 -0.635207,-3.10637 -0.23205,-0.86996 -0.435493,-1.74743 -0.678677,-2.61456 -0.300366,-1.14305 -0.576628,-2.28978 -0.776732,-3.45548 -0.285052,-1.35399 -0.642506,-2.68649 -1.026398,-4.01541 -0.270849,-1.18043 -0.509524,-2.37402 -0.928143,-3.51367 -0.275989,-0.96597 -0.463354,-1.96589 -0.885433,-2.88301 -0.369843,-0.81327 -0.779325,-1.61477 -0.987909,-2.48974 -0.257316,-0.92738 -0.520864,-1.8524 -0.761556,-2.78425 -0.269018,-1.15783 -0.432842,-2.33007 -0.567311,-3.51071 -0.155869,-0.95338 -0.3252,-1.904352 -0.459621,-2.861159 -0.154671,-1.023324 -0.296069,-2.054524 -0.570072,-3.053964 -0.226419,-0.785257 -0.495895,-1.565584 -0.575707,-2.383779 -0.06921,-0.880211 -0.186092,-1.762951 -0.09045,-2.646177 0.0783,-0.72276 0.174643,-1.443699 0.328213,-2.154825 0.123415,-0.440979 0.327313,-0.858666 0.53572,-1.264851 0.181774,-0.321377 0.374542,-0.635604 0.628502,-0.906423 0.190772,-0.234053 0.443481,-0.405308 0.636103,-0.638651 0.296797,-0.286936 0.60773,-0.556014 0.916665,-0.829758 0.277932,-0.221657 0.59027,-0.396565 0.892998,-0.58144 0.236146,-0.148339 0.491231,-0.256408 0.743611,-0.374499 0.245849,-0.09851 0.501457,-0.158456 0.758264,-0.221277 0.268661,-0.06096 0.546,-0.08857 0.820748,-0.102597 0.255215,-0.0108 0.510834,5.29e-4 0.76395,-0.04399 0.180785,-0.02125 0.546701,0.03662 0.680255,-0.108098 0.05345,-0.05792 0.05974,-0.145862 0.08961,-0.218792 -0.0045,-0.03075 -0.0113,-0.108627 -0.0089,-0.160723 0.02352,-0.154549 -0.04364,-0.300424 -0.03081,-0.455901 -0.01019,-0.247904 0.0028,-0.493221 -0.0061,-0.740871 -0.01588,-0.283109 7.94e-4,-0.565801 -0.02868,-0.847759 -0.04565,-0.316492 -0.05817,-0.6365 -0.07927,-0.955265 -0.01106,-0.346768 -0.02013,-0.694177 -0.04835,-1.03967 -0.07134,-0.647467 -0.109188,-1.29967 -0.247996,-1.937845 -0.124455,-0.720143 -0.225396,-1.449829 -0.545053,-2.116936 -0.02609,-0.05143 -0.346194,-0.602999 -0.368027,-0.730213 -0.135268,-0.788154 -0.01506,-1.603428 -0.0783,-2.394808 0,0 -0.204102,0 -0.204102,0 z" />
      <path
         style="fill:#000000;stroke-width:0.874001"
         id="path15201"
         d="m 96.378841,129.8679 c 1.024139,0.35741 2.084673,0.70322 3.18612,0.53207 0.619479,-0.0963 0.802009,-0.26191 1.300349,-0.55928 0,0 -0.0269,-0.0498 -0.0269,-0.0498 v 0 c -0.45675,0.22048 -0.75022,0.39994 -1.277499,0.47345 -1.081357,0.15074 -2.121691,-0.18198 -3.127433,-0.53335 0,0 -0.05465,0.13696 -0.05465,0.13696 z" />
      <path
         style="fill:#000000;stroke-width:0.874001"
         id="path15203"
         d="m 95.590107,119.01417 c 0.993664,0.42638 2.01544,0.91925 3.118713,0.9659 0.688509,0.0291 1.40137,-0.16011 2.07009,-0.29328 0.82673,-0.21681 0.44434,-0.0883 1.15243,-0.36951 0,0 -0.0164,-0.0542 -0.0164,-0.0542 v 0 c -0.73338,0.15594 -0.34341,0.0745 -1.17014,0.24332 -0.6469,0.1161 -1.346912,0.30544 -2.009791,0.2811 -1.082791,-0.0398 -2.086731,-0.52831 -3.062642,-0.94185 0,0 -0.08222,0.16852 -0.08222,0.16852 z" />
      <path
         style="fill:#000000;stroke-width:0.874001"
         id="path15205"
         d="m 95.342828,109.03169 c 1.025186,0.15 2.241656,0.64495 3.290631,0.50762 0.22302,-0.0292 0.790064,-0.19881 0.994521,-0.25671 0.87614,-0.24626 1.81581,-0.35179 2.60371,-0.84186 0.40777,-0.25364 0.60538,-0.47553 0.94923,-0.80338 0.0862,-0.0843 0.17245,-0.16854 0.25868,-0.25281 0,0 -0.0389,-0.0412 -0.0389,-0.0412 v 0 c -0.0883,0.0804 -0.17655,0.16085 -0.26483,0.24128 -0.25084,0.19101 -0.7017,0.54767 -0.97803,0.70523 -0.79433,0.45293 -1.7208,0.54834 -2.585882,0.79648 -0.152421,0.0438 -0.764532,0.22727 -0.946269,0.25292 -0.405209,0.0572 -0.787297,-0.002 -1.190686,-0.0687 -0.433763,-0.0712 -1.652487,-0.333 -2.053325,-0.41733 0,0 -0.03887,0.17843 -0.03887,0.17843 z" />
      <path
         style="fill:#000000;stroke-width:0.874001"
         id="path15207"
         d="m 93.105921,97.97072 c 0.806265,0.644628 1.667354,1.252479 2.670371,1.546791 0.509543,0.149513 1.071621,0.156922 1.595845,0.227121 1.054746,0.212093 2.126956,0.161941 3.192963,0.08686 0.99414,-0.102349 1.93382,-0.491318 2.84168,-0.888942 0.63475,-0.315587 1.25084,-0.732158 1.64035,-1.336503 0,0 -0.046,-0.03305 -0.046,-0.03305 v 0 c -0.40912,0.508299 -1.12086,0.853419 -1.68363,1.164511 -0.88652,0.383749 -1.80138,0.768083 -2.76792,0.881655 -1.051593,0.0797 -2.110873,0.147865 -3.152641,-0.06137 -0.509196,-0.06701 -1.060013,-0.07096 -1.555234,-0.213919 -0.982943,-0.283739 -1.825395,-0.881001 -2.617515,-1.507132 0,0 -0.118269,0.133977 -0.118269,0.133978 z" />
      <path
         style="fill:#000000;stroke-width:0.874001"
         id="path15209"
         d="m 93.062257,91.093302 c 1.136423,0.376492 1.441948,0.509799 2.581288,0.768752 0.471438,0.107149 0.908191,0.186796 1.387785,0.168169 0.05753,-0.0021 0.716454,-0.112527 0.755451,-0.11894 0.789223,-0.104214 1.57752,-0.223438 2.329999,-0.494213 0.46439,-0.167108 0.70085,-0.30022 1.13868,-0.518036 0.48214,-0.267845 0.98349,-0.49118 1.43382,-0.809852 0,0 -0.0274,-0.04957 -0.0274,-0.04957 v 0 c -0.50687,0.208997 -1.0163,0.412303 -1.48894,0.69433 -0.42809,0.215069 -0.65581,0.344913 -1.10996,0.509638 -0.744209,0.269933 -1.524645,0.386067 -2.305727,0.489466 -0.240083,0.0401 -0.477231,0.108177 -0.720373,0.119525 -0.467587,0.02183 -0.888402,-0.05519 -1.349605,-0.15876 -1.120783,-0.251693 -1.446686,-0.38911 -2.565283,-0.754364 0,0 -0.05973,0.153852 -0.05973,0.153852 z" />
      <path
         style="fill:#000000;stroke-width:0.874001"
         id="path15211"
         d="m 87.843557,104.49186 c -0.325133,0.43453 -0.845246,0.80019 -1.047334,1.32803 -0.01725,0.0451 -0.01365,0.0955 -0.02209,0.14301 -0.02638,0.14837 -0.01617,0.0943 -0.110217,0.25498 -0.313114,0.38931 -0.598454,0.80651 -0.946809,1.16591 -0.262472,0.16237 -0.570238,0.0476 -0.857356,0.0806 -0.06894,0.008 -0.135702,0.0291 -0.203552,0.0437 -0.539094,0.2819 -0.822722,0.8292 -1.11333,1.33649 -0.371475,0.67163 -0.88764,1.23972 -1.44668,1.75914 0,0 0.03522,0.0444 0.03522,0.0444 v 0 c 0.182073,-0.12317 0.677508,-0.45307 0.810966,-0.57045 0.349025,-0.30698 0.572633,-0.72383 0.810382,-1.11418 0.253979,-0.45378 0.502777,-0.93918 0.955096,-1.22675 0.392694,-0.0945 0.825635,0.0687 1.169455,-0.20255 0.348965,-0.38286 0.648989,-0.80922 0.968055,-1.21659 0.0957,-0.18278 0.11267,-0.16625 0.133665,-0.33286 0.003,-0.0235 -0.0076,-0.0489 7.94e-4,-0.0711 0.191286,-0.50957 0.705919,-0.85877 1.013116,-1.27974 0,0 -0.149278,-0.14203 -0.149278,-0.14203 z" />
      <path
         style="fill:#000000;stroke-width:0.874001"
         id="path15213"
         d="m 89.561997,111.05152 c -0.166965,0.24848 -0.592021,0.89287 -0.808887,1.18034 -0.04042,0.0536 -0.08959,0.1 -0.135162,0.14927 -0.0088,0.01 0.03359,-0.0204 0.0249,-0.03 -0.05148,-0.0573 -0.108455,0.11072 -0.151265,0.17478 -0.242242,0.54642 -0.492815,1.08701 -0.723842,1.63858 -0.228438,0.53451 -0.441571,0.76955 -0.960802,1.01753 -0.282927,0.12049 -0.14826,0.0594 -0.40463,0.18203 0,0 0.0108,0.0556 0.0108,0.0556 v 0 c 0.308374,0.0142 0.146328,0.0226 0.485394,-0.0368 0.585705,-0.25611 0.8294,-0.54435 1.081966,-1.12969 0.229576,-0.5536 0.481652,-1.0947 0.721637,-1.64352 -0.0645,-0.0715 0.0045,-0.0184 0.07991,-0.0838 0.05691,-0.0494 0.102963,-0.11048 0.147465,-0.17126 0.164481,-0.22465 0.70212,-1.04236 0.80027,-1.19023 0,0 -0.167759,-0.11279 -0.167759,-0.11279 z" />
      <path
         style="fill:#000000;stroke-width:0.874001"
         id="path15215"
         d="m 89.618007,125.68292 c 0.224221,-0.9275 0.42569,-1.86158 0.714584,-2.77194 0.118149,-0.37231 0.243781,-0.70956 0.321347,-1.09244 0.08219,-0.72934 0.138025,-1.45685 0.28008,-2.17731 0.100507,-0.49868 0.176453,-1.00389 0.340333,-1.48694 0.06797,-0.2037 0.07846,-0.41946 0.111067,-0.63042 0,0 -0.05447,-0.0155 -0.05447,-0.0155 v 0 c -0.08171,0.19468 -0.152879,0.39084 -0.209259,0.59439 -0.164624,0.48985 -0.241684,1.0024 -0.344797,1.5075 -0.141968,0.72002 -0.203335,1.44658 -0.283753,2.17574 -0.07624,0.37698 -0.201162,0.71147 -0.316846,1.07845 -0.288065,0.9138 -0.491141,1.85064 -0.712232,2.78204 0,0 0.153951,0.0364 0.153951,0.0364 z" />
      <path
         style="fill:#000000;stroke-width:0.874001"
         id="path15217"
         d="m 94.059853,125.41077 c -0.131575,0.86482 -0.357455,1.71625 -0.479878,2.58248 -0.05925,0.60589 -0.220472,1.19279 -0.351919,1.78502 -0.126267,1.04599 -0.413552,2.05152 -0.760685,3.04268 -0.246653,0.56533 -0.344424,1.17503 -0.544947,1.75374 0,0 0.05231,0.0217 0.05231,0.0217 v 0 c 0.269769,-0.55499 0.543221,-1.1017 0.706704,-1.70126 0.343588,-1.0018 0.624901,-2.01798 0.747972,-3.07313 0.127135,-0.59835 0.278276,-1.19233 0.337272,-1.80305 0.115745,-0.8639 0.329642,-1.71386 0.463736,-2.57471 0,0 -0.170569,-0.0335 -0.170569,-0.0335 z" />
      <path
         style="fill:#000000;stroke-width:0.874001"
         id="path15219"
         d="m 93.019514,143.98393 c 0.392525,-0.58491 0.847034,-1.14927 1.102939,-1.81396 0.08084,-0.20997 0.133435,-0.43259 0.214035,-0.64394 0.226615,-0.5652 0.52143,-1.09793 0.732568,-1.66914 0.164425,-0.45305 0.314467,-0.91172 0.406087,-1.38549 0.0016,-0.21603 -0.0927,-0.40737 -0.18166,-0.59774 0,0 -0.05428,0.0162 -0.05428,0.0162 v 0 c 0.02442,0.18106 0.05023,0.36233 0.05497,0.5453 -0.09621,0.46328 -0.235646,0.91467 -0.39584,1.35973 -0.204176,0.57251 -0.490699,1.10889 -0.710914,1.67534 -0.07735,0.21036 -0.125503,0.43105 -0.201933,0.64007 -0.240945,0.65891 -0.695314,1.2141 -1.076034,1.79254 0,0 0.110067,0.0811 0.110067,0.0811 z" />
      <path
         style="fill:#000000;stroke-width:0.874001"
         id="path15221"
         d="m 100.09292,140.09447 c 0.40956,0.61753 0.82558,1.23293 1.15709,1.89702 0.0938,0.18789 0.16932,0.36773 0.27938,0.54657 0.47585,0.63174 0.83405,1.33396 1.13667,2.06158 0.11938,0.35516 0.27252,0.6969 0.44527,1.02878 0,0 0.0543,-0.0161 0.0543,-0.0161 v 0 c -0.0394,-0.38647 -0.14887,-0.73852 -0.30521,-1.09466 -0.31387,-0.73406 -0.6793,-1.44626 -1.16468,-2.0838 -0.19152,-0.29977 -0.32072,-0.63237 -0.50189,-0.93903 -0.32542,-0.5508 -0.60862,-0.95294 -0.97112,-1.49249 0,0 -0.12981,0.0921 -0.12981,0.0921 z" />
      <path
         style="fill:#000000;stroke-width:0.874001"
         id="path15223"
         d="m 101.40725,132.42129 c 0.33414,0.76636 0.47632,1.63205 0.90688,2.35902 0.11322,0.19117 0.32809,0.2952 0.50463,0.41533 0.49824,0.41381 0.90669,0.92064 1.43867,1.2933 0.24236,0.10035 0.12337,0.0763 0.35337,0.088 0,0 0.0196,-0.0531 0.0196,-0.0531 v 0 c -0.15231,-0.12954 -0.0685,-0.0635 -0.25348,-0.19542 -0.50989,-0.40435 -0.93513,-0.89765 -1.43719,-1.31142 -0.13221,-0.0891 -0.34786,-0.18555 -0.43442,-0.33019 -0.42939,-0.71752 -0.57158,-1.57314 -0.90742,-2.32956 0,0 -0.19068,0.0641 -0.19068,0.0641 z" />
      <path
         style="fill:#000000;stroke-width:0.874001"
         id="path15225"
         d="m 102.50275,123.18051 c 0.16331,0.30256 0.32839,0.60418 0.48992,0.9077 0.38788,0.72883 0.71418,1.52128 1.1465,2.21982 0.30055,0.4708 0.61491,0.92536 0.98296,1.34746 0.36022,0.44189 0.82336,0.76561 1.26993,1.11066 0.0723,0.0562 0.14463,0.11239 0.21694,0.16859 0,0 0.0418,-0.0382 0.0418,-0.0382 v 0 c -0.0523,-0.0803 -0.10453,-0.16063 -0.1568,-0.24095 -0.37506,-0.40889 -0.82678,-0.73657 -1.188,-1.16068 -0.36036,-0.41224 -0.66898,-0.85614 -0.97208,-1.31007 -0.63078,-0.97529 -1.04037,-2.11613 -1.67991,-3.08994 0,0 -0.1513,0.0856 -0.1513,0.0856 z" />
      <path
         style="fill:#000000;stroke-width:0.874001"
         id="path15227"
         d="m 104.34875,114.61788 c 0.24176,0.7833 0.39255,1.62394 0.81026,2.34292 0.19225,0.33092 0.4848,0.62108 0.72456,0.91807 0.41469,0.59251 0.82558,1.17542 1.35618,1.67024 0.27349,0.18275 0.49241,0.52918 0.82391,0.61089 0,0 0.05,-0.0267 0.05,-0.0267 v 0 c 3e-5,-0.0551 0.0189,-0.11354 8e-5,-0.16534 -0.059,-0.1621 -0.57339,-0.47977 -0.6833,-0.62432 -0.52348,-0.48328 -0.91955,-1.06163 -1.33306,-1.63841 -0.22757,-0.2786 -0.51214,-0.55254 -0.69769,-0.86147 -0.41985,-0.69902 -0.57391,-1.52366 -0.81714,-2.28925 0,0 -0.23376,0.0633 -0.23376,0.0633 z" />
      <path
         style="fill:#000000;stroke-width:0.874001"
         id="path15229"
         d="m 105.3872,108.5876 c 0.13699,0.72057 0.0716,1.63255 0.63313,2.20609 0.28961,0.29579 0.66404,0.29977 1.0393,0.33929 0.0642,0.0228 0.13216,0.037 0.19264,0.0684 0.20152,0.10455 0.37078,0.29694 0.54149,0.44221 0.23917,0.20352 0.20411,0.17067 0.45805,0.35612 0.5549,0.34035 0.83767,0.89401 1.14575,1.43816 0.0413,0.0321 0.0825,0.0643 0.12376,0.0964 0,0 0.0505,-0.0256 0.0505,-0.0256 v 0 c -2.6e-4,-0.0498 -5.2e-4,-0.0995 -7.9e-4,-0.14926 -0.224,-0.63799 -0.60593,-1.17846 -1.17745,-1.55481 -0.22528,-0.16288 -0.2297,-0.16026 -0.44455,-0.33912 -0.19779,-0.16467 -0.38792,-0.36939 -0.62435,-0.48081 -0.0768,-0.0362 -0.1618,-0.0514 -0.2427,-0.0771 -0.30055,-0.028 -0.63965,-0.007 -0.87983,-0.23541 -0.55567,-0.52837 -0.47582,-1.42786 -0.6159,-2.10555 0,0 -0.19909,0.021 -0.19909,0.021 z" />
      <path
         style="fill:#000000;stroke-width:0.874001"
         id="path15231"
         d="m 105.79315,102.14398 c 0.4966,0.38215 0.92206,0.88483 1.47836,1.19038 0.10945,0.0601 0.26263,0.0811 0.38812,0.14353 0.3659,0.2184 0.74057,0.42673 1.0519,0.72239 0.11384,0.10811 0.37332,0.40145 0.47794,0.51785 0.61322,0.60597 1.27488,1.16458 2.0202,1.59963 0.47079,0.24537 0.95747,0.45778 1.44413,0.66911 0,0 0.036,-0.0438 0.036,-0.0438 v 0 c -0.0412,-0.0547 -0.0721,-0.11905 -0.12369,-0.16416 -0.33591,-0.29389 -0.86558,-0.42668 -1.23999,-0.66124 -0.72607,-0.42123 -1.36794,-0.96661 -1.96711,-1.55284 -0.12238,-0.1346 -0.37177,-0.41416 -0.50285,-0.53647 -0.32764,-0.30573 -0.71999,-0.52082 -1.10342,-0.74631 -0.0604,-0.0277 -0.11893,-0.0598 -0.18116,-0.0831 -0.0597,-0.0223 -0.13019,-0.0122 -0.1863,-0.0423 -0.55053,-0.29546 -0.97417,-0.78527 -1.46644,-1.15711 0,0 -0.12566,0.14438 -0.12566,0.14438 z" />
      <path
         style="fill:#000000;stroke-width:0.874001"
         id="path15233"
         d="m 93.487022,74.166502 c 0.106823,-0.177761 0.543189,-0.910778 0.708681,-1.16676 0.02059,-0.03186 0.107815,-0.08379 0.07031,-0.08949 -0.07221,-0.01098 -0.143406,0.03469 -0.208145,0.06853 -0.01389,0.0072 -0.02622,0.04499 -0.01058,0.04578 0.0746,0.0038 0.147561,-0.02336 0.22134,-0.03504 0.116334,-0.237458 0.357116,-0.485052 0.353039,-0.767207 -0.08786,0.0141 -0.182756,0.0051 -0.263576,0.0423 -0.07528,0.03468 -0.124346,0.109617 -0.186137,0.164859 -0.0823,0.07358 -0.165049,0.146685 -0.246139,0.221602 -0.236982,0.218937 -0.449971,0.45467 -0.666546,0.693277 -0.08959,0.09991 -0.15802,0.184697 -0.257059,0.270547 -0.0141,0.01222 -0.06802,0.02646 -0.04934,0.02651 0.229409,5.3e-4 0.142173,0.05916 0.216214,-0.198784 0.110043,-0.322289 0.288068,-0.612386 0.446487,-0.911254 0.06595,-0.124412 0.127384,-0.253256 0.08962,-0.271772 -0.06903,-0.03386 -0.153746,-0.0031 -0.230618,-0.0047 -0.221412,0.182499 -0.440034,0.368323 -0.65939,0.55327 -0.04049,0.03414 -0.08126,0.06796 -0.121859,0.101968 -0.01476,0.01236 -0.06345,0.03752 -0.04421,0.03714 0.09184,-0.0019 0.181602,-0.02779 0.272404,-0.04168 0.04156,-0.08558 0.630751,-1.07446 0.623377,-1.081747 -0.183674,-0.181565 -0.287054,0.03788 -0.36708,0.13316 -0.106789,0.185211 -0.376589,0.325948 -0.399944,0.552124 0,0 0.03337,0.04577 0.03337,0.04577 v 0 c 0.248081,-0.0069 0.362257,-0.315005 0.524388,-0.465405 0.06748,-0.0804 0.322967,-0.265454 0.02851,-0.366591 -0.04251,-0.01461 -0.0427,0.07911 -0.06528,0.117973 -0.184094,0.31682 -0.373975,0.630333 -0.555733,0.948536 0.01439,0.103434 0.01304,0.21031 0.04317,0.310301 0.0052,0.0173 0.02564,-0.02548 0.03895,-0.0377 0.03885,-0.03567 0.07807,-0.07096 0.117528,-0.105968 0.2144,-0.190249 0.431057,-0.378039 0.651799,-0.560911 -0.02529,-0.0457 -0.04903,-0.09231 -0.0759,-0.13711 -0.0043,-0.0071 0.0108,0.01587 0.0079,0.02365 -0.0204,0.0541 -0.04806,0.10528 -0.07566,0.156088 -0.169021,0.311211 -0.359251,0.612529 -0.47803,0.948801 -0.06766,0.237733 -0.123709,0.230846 0.05973,0.443817 0.02853,0.03312 0.357058,-0.339478 0.368605,-0.359015 0.209108,-0.236969 0.414856,-0.469665 0.646379,-0.685464 0.08051,-0.07504 0.163047,-0.147873 0.244721,-0.221639 0.06124,-0.05531 0.149159,-0.09081 0.184029,-0.165598 0.02336,-0.05009 -0.02058,-0.108608 -0.03088,-0.162911 -0.05601,0.215479 -0.201719,0.461872 -0.331452,0.664239 0.03617,0.05328 0.06796,0.109815 0.108516,0.15984 0.0047,0.0058 0.0057,-0.01519 0.0031,-0.02217 -0.03035,-0.0802 -0.03157,-0.186296 -0.10102,-0.236607 -0.03574,-0.02588 -0.05624,0.06828 -0.08012,0.105389 -0.150135,0.233349 -0.625072,1.029507 -0.709019,1.169197 0,0 0.151614,0.09087 0.151614,0.09087 z" />
      <path
         style="fill:#000000;stroke-width:0.874001"
         id="path15235"
         d="m 92.892101,73.885025 c 0.9046,-1.031537 0.487746,-0.540322 1.256035,-1.468978 0,0 -0.04246,-0.03748 -0.04246,-0.03748 v 0 c -0.824701,0.876332 -0.385824,0.406231 -1.314972,1.411867 0,0 0.101402,0.09459 0.101402,0.09459 z" />
      <path
         style="fill:#000000;stroke-width:0.874001"
         id="path15237"
         d="m 92.549026,73.510457 c 0.763567,-1.083826 0.394915,-0.600279 1.089271,-1.463212 0,0 -0.0439,-0.03579 -0.0439,-0.03579 v 0 c -0.708443,0.857472 -0.322469,0.383556 -1.153519,1.425326 0,0 0.108145,0.07368 0.108145,0.07368 z" />
      <path
         style="fill:#000000;stroke-width:0.874001"
         id="path15265"
         d="m 98.698088,110.54616 c 0.664221,-0.17509 1.344902,-0.26812 2.009132,-0.44061 0,0 -0.009,-0.0569 -0.009,-0.0569 v 0 c -0.68807,0.0491 -1.35121,0.2481 -2.025157,0.38505 0,0 0.02532,0.11242 0.02532,0.11242 z" />
      <path
         style="fill:#000000;stroke-width:0.874001"
         id="path15267"
         d="m 98.268418,101.14941 c 0.992669,0.0582 2.038292,0.28974 3.031962,0.0744 0.40542,-0.0878 0.69957,-0.36952 0.97935,-0.65012 0,0 -0.034,-0.0453 -0.034,-0.0453 v 0 c -0.30507,0.16599 -0.61669,0.4244 -0.96485,0.49126 -0.98217,0.1886 -2.002235,-0.0355 -2.980739,-0.1025 0,0 -0.03171,0.23222 -0.03171,0.23222 z" />
      <path
         style="fill:#000000;stroke-width:0.874001"
         id="path15269"
         d="m 97.147244,93.115923 c 0.943104,-0.153446 1.253746,-0.158346 2.133523,-0.467075 0.191132,-0.06707 0.366779,-0.172024 0.550169,-0.258035 0,0 -0.02087,-0.05265 -0.02087,-0.05265 v 0 c -0.874255,0.284623 -1.766147,0.495126 -2.686246,0.571077 0,0 0.02344,0.206685 0.02344,0.206685 z" />
      <path
         style="fill:#b3b3b3;stroke-width:1.85031"
         d="m 366.67417,561.97657 c -0.75321,-2.80289 -1.14788,-7.24511 -1.50691,-16.96077 -0.36577,-9.89815 -0.76658,-14.34429 -1.61585,-17.92447 -3.23278,-13.62811 -3.42484,-14.9903 -3.34412,-23.71811 0.0704,-7.60717 -0.10503,-9.3344 -1.68686,-16.61194 -0.97096,-4.46711 -1.91708,-9.13027 -2.10248,-10.36258 -0.18541,-1.23231 -0.51966,-2.36659 -0.74278,-2.52063 -0.22311,-0.15404 -1.20327,-3.80895 -2.17813,-8.12202 -5.3569,-23.70063 -10.53605,-42.76165 -13.55634,-49.89191 -2.96704,-7.00457 -5.94105,-18.11405 -7.26195,-27.12728 -2.05138,-13.99764 -3.87455,-24.20567 -5.24069,-29.34293 -1.92409,-7.23539 -2.2695,-12.89947 -1.19276,-19.55934 1.15256,-7.12889 2.81003,-10.33647 7.81482,-15.12345 5.09963,-4.8777 9.56583,-7.14672 14.73672,-7.48689 6.58345,-0.4331 6.33184,-0.26389 6.33028,-4.25694 -0.004,-10.79146 -1.88123,-24.99293 -3.85876,-29.19508 -1.41307,-3.00272 -2.01946,-5.94301 -1.22564,-5.94301 0.33256,0 0.60465,0.3781 0.60465,0.84021 0,1.08728 0.50633,1.06253 1.77634,-0.0868 1.08072,-0.97803 1.45957,-0.29239 0.41541,0.75177 -0.41751,0.41752 -0.42584,0.72211 -0.0265,0.96893 0.52917,0.32705 5.11654,-6.00867 5.11654,-7.06659 0,-0.59878 -1.20477,-0.55535 -2.20832,0.0796 -0.55261,0.34964 -1.01974,0.22158 -1.47807,-0.40522 -0.76856,-1.05107 -0.44529,-2.3637 0.58213,-2.3637 0.38327,0 1.90189,-0.64073 3.37473,-1.42384 l 2.67788,-1.42384 -0.38867,5.48485 c -0.34434,4.85944 -0.22331,6.12117 1.06146,11.06526 1.28607,4.94915 1.37914,5.92228 0.82272,8.60254 -0.49994,2.40822 -0.43597,4.57438 0.31492,10.66363 1.22882,9.96494 1.87353,10.68397 8.12443,9.06093 2.04517,-0.53102 3.47851,-0.48263 7.59884,0.25658 2.79302,0.50109 5.77338,1.36709 6.62303,1.92445 3.72615,2.44431 9.87748,12.81485 11.04269,18.61686 0.53618,2.66983 0.4573,3.72981 -0.57352,7.70654 l -1.19521,4.61091 1.47858,11.27406 1.47857,11.27406 -1.60359,1.31825 c -2.4317,1.999 -7.33385,4.36626 -11.9371,5.76446 -3.70963,1.12677 -4.88257,1.22034 -11.46311,0.91446 -8.63226,-0.40124 -11.88006,-1.26008 -16.54471,-4.37501 -3.6007,-2.40446 -5.4584,-2.50918 -2.54887,-0.14368 3.15735,2.56697 8.38738,4.76204 12.67651,5.32039 12.84511,1.67214 23.19902,-0.35533 29.3372,-5.74472 1.09718,-0.96334 2.13709,-1.60931 2.31091,-1.4355 0.17381,0.17382 0.33454,3.5472 0.35717,7.4964 0.0324,5.6626 -0.23561,8.36437 -1.26817,12.78176 -1.13675,4.86307 -1.32668,7.26456 -1.44096,18.21933 -0.0761,7.29799 -0.40553,13.67445 -0.78127,15.12377 -0.35729,1.37821 -1.75396,5.15249 -3.10369,8.38729 -2.85675,6.84655 -3.64629,11.80351 -3.52413,22.12552 0.0654,5.52236 -0.15695,7.57118 -1.24592,11.48286 -0.72901,2.61865 -2.22214,9.29831 -3.31807,14.8437 l -1.9926,10.08251 -3.08076,1.05099 c -2.90674,0.99162 -3.31809,1.0011 -7.28182,0.16778 -2.31057,-0.48577 -4.76819,-1.05113 -5.46136,-1.25636 -0.76373,-0.22612 -1.26031,-0.13286 -1.26031,0.23668 0,0.94824 6.06999,2.50672 9.81418,2.5198 2.0516,0.007 4.10775,-0.35496 5.24953,-0.92456 l 1.87695,-0.93634 -0.37179,1.81156 c -0.20449,0.99636 -1.00334,5.59251 -1.77521,10.21366 -0.77188,4.62115 -1.75986,9.78844 -2.19552,11.48286 -0.43566,1.69442 -1.16773,6.23155 -1.62682,10.08251 -0.45909,3.85096 -1.60881,10.78269 -2.55493,15.40384 -0.94612,4.62115 -2.23338,11.75992 -2.86058,15.86392 -1.55122,10.15011 -1.72626,10.4951 -2.97236,5.85804 z m 13.82206,-109.31624 c 4.18633,-1.00182 5.33947,-1.47501 4.83179,-1.9827 -0.1291,-0.1291 -2.50269,0.23907 -5.27465,0.81813 -6.70392,1.40046 -7.60453,1.36054 -13.16196,-0.58341 -5.23362,-1.83069 -5.60139,-1.90851 -5.60139,-1.18533 0,0.54457 5.17731,2.77125 8.01024,3.44507 3.08597,0.73401 6.67594,0.56991 11.19597,-0.51176 z m -3.40984,-35.41617 c 2.68322,-0.56041 4.9427,-1.6206 3.45382,-1.6206 -1.42731,0 -7.26,1.32594 -7.73932,1.75937 -0.72711,0.65749 0.69327,0.6115 4.2855,-0.13877 z m 0.45386,-4.1428 c 7.27326,-1.84368 8.20505,-2.22772 11.0386,-4.54959 2.78172,-2.27941 3.28764,-3.81951 0.57811,-1.75988 -2.96061,2.2505 -5.44532,3.33593 -10.78268,4.71034 -5.94797,1.53166 -8.33778,1.61332 -13.7703,0.47056 -3.74351,-0.78747 -5.11618,-0.76543 -4.28199,0.0688 0.43225,0.43224 8.6685,2.3436 10.38889,2.41091 0.71436,0.028 3.78758,-0.58005 6.82937,-1.3511 z m 6.64407,-30.76917 c 0.85435,-0.44181 1.9131,-1.24519 2.35277,-1.7853 0.72235,-0.88734 0.69142,-0.93763 -0.32086,-0.52162 -4.4955,1.84749 -5.46377,1.9959 -10.11109,1.54981 -3.62721,-0.34817 -4.73261,-0.29269 -4.73261,0.23749 0,1.34148 10.40632,1.76353 12.81179,0.51962 z m -10.416,-31.5378 c 1.7798,-0.47482 3.37007,-1.08024 3.53393,-1.34538 0.42399,-0.68603 -0.71757,-0.58981 -4.2493,0.35815 -1.69442,0.4548 -3.77394,0.8299 -4.62115,0.83356 -0.9812,0.004 -1.54039,0.30657 -1.54039,0.83285 0,0.92795 1.35417,0.79421 6.87691,-0.67918 z m -0.34454,-3.77551 c 4.41001,-0.8315 14.75294,-5.37335 14.75294,-6.4784 0,-0.76609 0.0591,-0.78685 -5.74223,2.01783 -5.98797,2.89494 -13.23883,4.47603 -18.34377,3.99998 -1.69443,-0.15801 -5.08646,-0.93083 -7.53786,-1.71736 -2.4514,-0.78654 -4.57713,-1.31004 -4.72385,-1.16332 -0.58942,0.58943 1.00591,1.36851 5.54003,2.7055 5.53412,1.63185 9.8627,1.80326 16.05474,0.63577 z"
         id="path15271"
         transform="scale(0.26458333)" />
    </g>
  </g>
</svg>
